<?xml version="1.0" encoding="UTF-8" standalone="no"?>
<svg xmlns:inkscape="http://www.inkscape.org/namespaces/inkscape" xmlns:sodipodi="http://sodipodi.sourceforge.net/DTD/sodipodi-0.dtd" xmlns="http://www.w3.org/2000/svg" xmlns:svg="http://www.w3.org/2000/svg" xmlns:rdf="http://www.w3.org/1999/02/22-rdf-syntax-ns#" xmlns:cc="http://creativecommons.org/ns#" xmlns:dc="http://purl.org/dc/elements/1.1/" width="64" height="64" version="1.1" viewBox="0 0 64 64" id="svg10" sodipodi:docname="applications-utilities.svg" inkscape:version="1.4.2 (ebf0e940d0, 2025-05-08)">
  <defs id="defs5">
    <filter id="filter1057-6" x="-0.026999999" y="-0.026999999" width="1.054" height="1.054" color-interpolation-filters="sRGB">
      <feGaussianBlur stdDeviation="0.61875" id="feGaussianBlur1"/>
    </filter>
    <linearGradient id="linearGradient1053-0" x1="-127" x2="-72" y1="60" y2="5" gradientTransform="matrix(1.0000071,0,0,1.0000071,131.50407,-0.50999682)" gradientUnits="userSpaceOnUse">
      <stop stop-color="#8cd750" offset="0" id="stop1"/>
      <stop stop-color="#7dcd32" stop-opacity=".99608" offset=".49585" id="stop2"/>
      <stop stop-color="#87d241" stop-opacity=".99608" offset="1" id="stop3"/>
    </linearGradient>
    <linearGradient id="linearGradient2134" x1="32.153" x2="32.153" y1="45.035" y2="4.0936999" gradientTransform="matrix(1.0000449,0,0,1.0000449,0.11149827,0.53085266)" gradientUnits="userSpaceOnUse">
      <stop stop-color="#d1ecba" offset="0" id="stop4"/>
      <stop stop-color="#d1ecba" stop-opacity="0" offset="1" id="stop5"/>
    </linearGradient>
    <filter id="filter948" x="-0.058119088" y="-0.058737203" width="1.1162382" height="1.1174744" color-interpolation-filters="sRGB">
      <feGaussianBlur stdDeviation="15.43542" id="feGaussianBlur5"/>
    </filter>
    <filter id="filter1057-6-3" x="-0.026999999" y="-0.026999999" width="1.054" height="1.054" color-interpolation-filters="sRGB">
      <feGaussianBlur stdDeviation="0.61875" id="feGaussianBlur1-6"/>
    </filter>
    <filter id="filter948-2" x="-0.058119087" y="-0.058737204" width="1.1162382" height="1.1174744" color-interpolation-filters="sRGB">
      <feGaussianBlur stdDeviation="15.43542" id="feGaussianBlur5-9"/>
    </filter>
    <filter id="filter2" x="-0.058119088" y="-0.058737203" width="1.1162382" height="1.1174744" color-interpolation-filters="sRGB">
      <feGaussianBlur stdDeviation="15.43542" id="feGaussianBlur2"/>
    </filter>
  <radialGradient id="gradient_ds_br" cx="0" cy="0" r="1" gradientUnits="userSpaceOnUse" gradientTransform="matrix(13.998399,0.00477622,-0.00477841,14.004799,47.5016,48.4952)">
      <stop offset="0.65" id="stop1"/>
      <stop offset="1" stop-opacity="0" id="stop2"/>
    </radialGradient><linearGradient id="gradient_ds_b" x1="30.448999" y1="48.5" x2="30.492201" y2="62.500301" gradientUnits="userSpaceOnUse">
      <stop offset="0.653846" id="stop3"/>
      <stop offset="1" stop-opacity="0" id="stop4"/>
    </linearGradient><radialGradient id="gradient_ds_bl" cx="0" cy="0" r="1" gradientUnits="userSpaceOnUse" gradientTransform="matrix(0,14,-14,0,16.5,48.5)">
      <stop offset="0.65" id="stop5"/>
      <stop offset="1" stop-opacity="0" id="stop6"/>
    </radialGradient><linearGradient id="gradient_ds_r" x1="47.5" y1="33.5" x2="61.5" y2="33.5009" gradientUnits="userSpaceOnUse">
      <stop offset="0.649038" id="stop7"/>
      <stop offset="1" stop-opacity="0" id="stop8"/>
    </linearGradient><linearGradient id="gradient_ds_l" x1="16.5" y1="33.894699" x2="2.5" y2="33.894699" gradientUnits="userSpaceOnUse">
      <stop offset="0.649038" id="stop9"/>
      <stop offset="1" stop-opacity="0" id="stop10"/>
    </linearGradient><radialGradient id="gradient_ds_tr" cx="0" cy="0" r="1" gradientTransform="matrix(0.00843236,-14,14.0084,0.0189842,47.4916,18.5)" gradientUnits="userSpaceOnUse">
      <stop offset="0.65" id="stop11"/>
      <stop offset="1" stop-opacity="0" id="stop12"/>
    </radialGradient><linearGradient id="gradient_ds_t" x1="29.98" y1="18.5" x2="29.9158" y2="4.4998598" gradientUnits="userSpaceOnUse">
      <stop offset="0.649038" id="stop13"/>
      <stop offset="1" stop-opacity="0" id="stop14"/>
    </linearGradient><radialGradient id="gradient_ds_tl" cx="0" cy="0" r="1" gradientTransform="matrix(-0.00843236,-14,-14.0084,0.0189842,16.5084,18.5)" gradientUnits="userSpaceOnUse">
      <stop offset="0.65" id="stop15"/>
      <stop offset="1" stop-opacity="0" id="stop16"/>
    </radialGradient></defs>
  <metadata id="metadata5">
    <rdf:RDF>
      <cc:Work rdf:about="">
        <dc:format>image/svg+xml</dc:format>
        <dc:type rdf:resource="http://purl.org/dc/dcmitype/StillImage"/>
      </cc:Work>
    </rdf:RDF>
  </metadata>
  
  <g id="ds" opacity="0.25">
    <path id="ds-br" d="m 47.5,48.5 h 14 v 14 h -14 z" fill="url(#gradient_ds_br)" style="fill:url(#gradient_ds_br)"/>
    <path id="ds-b" d="m 16.5,48.5 h 31 v 14 h -31 z" fill="url(#gradient_ds_b)" style="fill:url(#gradient_ds_b)"/>
    <path id="ds-bl" d="m 2.5,48.5 h 14 v 14 h -14 z" fill="url(#gradient_ds_bl)" style="fill:url(#gradient_ds_bl)"/>
    <path id="ds-r" d="m 47.5,18.5 h 14 v 30 h -14 z" fill="url(#gradient_ds_r)" style="fill:url(#gradient_ds_r)"/>
    <path id="ds-l" d="m 2.5,18.5 h 14 v 30 h -14 z" fill="url(#gradient_ds_l)" style="fill:url(#gradient_ds_l)"/>
    <path id="ds-tr" d="m 47.5,4.5 h 14 v 14 h -14 z" fill="url(#gradient_ds_tr)" style="fill:url(#gradient_ds_tr)"/>
    <path id="ds-t" d="m 16.5,4.5 h 31 v 14 h -31 z" fill="url(#gradient_ds_t)" style="fill:url(#gradient_ds_t)"/>
    <path id="ds-tl" d="m 16.5,4.5 h -14 v 14 h 14 z" fill="url(#gradient_ds_tl)" style="fill:url(#gradient_ds_tl)"/>
  </g><rect x="4.5" y="4.5" width="55" height="55" fill="url(#linearGradient1053-0)" stroke-linecap="round" stroke-width="2.74441" id="bg" style="fill:url(#linearGradient1053-0)" rx="10"/>
  <g id="art"><path d="m 19.500479,4.499979 c -7.152897,0 -13.0944316,4.9607276 -14.6134536,11.640796 -0.1551224,1.62349 -0.2304726,7.58415 -0.2304726,9.657639 L 32.264656,47.123685 59.501602,25.800304 v -0.128907 c -0.0017,-1.352228 -0.04135,-6.722022 -0.103524,-7.876313 C 58.555265,10.29522 52.233843,4.4999563 44.501155,4.4999563 Z" fill="url(#linearGradient2134)" stroke-width="1.00001" id="path6" style="fill:url(#linearGradient2134)"/><path transform="matrix(0.04154161,0,0,0.04154161,10.449844,10.77941)" d="m 852.37,347.35 a 360.73,360.73 0 0 0 -37.236,-76.8 30.255,30.255 0 0 1 0,-32 l 28.509,-44.218 a 29.673,29.673 0 0 0 -4.0727,-37.236 l -29.673,-29.091 a 30.255,30.255 0 0 0 -37.236,-4.6546 l -44.218,27.927 a 29.091,29.091 0 0 1 -32,0 383.42,383.42 0 0 0 -128,-53.527 30.836,30.836 0 0 1 -23.273,-22.691 l -11.055,-51.2 a 30.255,30.255 0 0 0 -29.673,-23.273 h -43.636 a 29.091,29.091 0 0 0 -29.091,23.273 l -11.636,50.618 a 28.509,28.509 0 0 1 -23.273,22.109 402.04,402.04 0 0 0 -128.58,52.364 29.091,29.091 0 0 1 -32,0 l -44.218,-27.927 a 29.673,29.673 0 0 0 -37.236,4.0727 l -29.091,29.091 a 29.673,29.673 0 0 0 -4.0727,37.236 l 27.345,43.636 a 30.255,30.255 0 0 1 0,32.582 390.4,390.4 0 0 0 -51.782,128 30.255,30.255 0 0 1 -22.691,22.691 l -51.2,11.636 a 29.091,29.091 0 0 0 -23.273,29.091 v 41.309 a 29.673,29.673 0 0 0 23.273,29.673 l 50.618,11.055 a 29.091,29.091 0 0 1 22.109,23.273 380.51,380.51 0 0 0 52.945,128.58 30.255,30.255 0 0 1 0,32 l -27.927,44.8 a 29.673,29.673 0 0 0 4.0727,37.236 l 29.091,29.091 a 29.673,29.673 0 0 0 37.236,4.0727 l 43.636,-27.927 a 31.418,31.418 0 0 1 32.582,0 376.44,376.44 0 0 0 85.527,41.891 119.27,119.27 0 0 1 31.418,-90.764 122.76,122.76 0 0 1 90.182,-40.145 h 12.218 l 69.236,6.9818 32.582,-32 154.76,-153.02 -4.0727,-69.236 a 120.44,120.44 0 0 1 32.582,-90.764 122.76,122.76 0 0 1 80.291,-37.818 z m -384,264.73 A 130.33,130.33 0 1 1 598.7,481.75 130.33,130.33 0 0 1 468.37,612.08 Z" fill="#80d03a" filter="url(#filter948)" p-id="20929" id="path7" style="filter:url(#filter948-2)"/><path transform="matrix(0.04154161,0,0,0.04154161,10.449844,10.77941)" d="m 1037.4,562.04 a 77.964,77.964 0 0 1 -20.946,58.182 79.709,79.709 0 0 1 -58.182,26.182 h -8.1454 l -89.6,-8.7273 -34.327,33.745 -10.473,9.8909 -148.95,146.62 -20.364,20.364 6.4,89.6 a 79.127,79.127 0 0 1 -21.527,58.182 80.873,80.873 0 0 1 -58.182,25.018 h -5.8182 l -43.055,-4.0727 h -12.218 a 12.218,12.218 0 0 1 -4.6546,-3.4909 22.691,22.691 0 0 1 -6.9818,-18.036 23.855,23.855 0 0 1 7.5636,-16.873 l 43.055,-42.473 a 5.8182,5.8182 0 0 0 0,-7.5636 l -15.127,-15.127 -42.473,-43.055 h -7.5636 l -43.636,43.055 a 27.927,27.927 0 0 1 -16.873,7.5636 22.109,22.109 0 0 1 -16.873,-6.9818 35.491,35.491 0 0 1 -5.2364,-7.5636 20.945,20.945 0 0 1 0,-11.636 l -2.9091,-27.927 v -14.545 a 77.964,77.964 0 0 1 20.945,-58.182 76.8,76.8 0 0 1 58.182,-26.182 h 8.1454 l 89.6,8.7273 36.655,-36.073 10.473,-10.473 169.31,-166.4 -6.4,-89.6 a 80.291,80.291 0 0 1 79.127,-83.782 h 1.7454 l 43.055,4.0727 h 12.218 a 29.091,29.091 0 0 1 4.6546,4.0727 23.273,23.273 0 0 1 2.9091,29.673 13.964,13.964 0 0 1 -3.4909,5.2364 l -43.055,42.473 c 0,0 -2.9091,5.2364 0,6.9818 l 48.291,49.455 9.3091,9.3091 h 2.9091 a 6.4,6.4 0 0 0 4.0727,0 l 44.218,-43.055 a 23.273,23.273 0 0 1 18.036,-7.5636 22.109,22.109 0 0 1 16.873,6.9818 35.491,35.491 0 0 1 5.2363,7.5636 19.782,19.782 0 0 1 0,11.636 z" fill="#80d03a" filter="url(#filter948)" p-id="20930" id="path8" style="filter:url(#filter948-2)"/><path d="m 45.858289,25.209174 a 14.985744,14.985744 0 0 0 -1.546878,-3.190475 1.2568688,1.2568688 0 0 1 0,-1.329362 L 45.49575,18.852413 A 1.2326794,1.2326794 0 0 0 45.326575,17.305535 L 44.093857,16.097007 A 1.2568688,1.2568688 0 0 0 42.54698,15.903643 l -1.836925,1.160149 a 1.2085277,1.2085277 0 0 1 -1.329361,0 15.928377,15.928377 0 0 0 -5.317522,-2.223653 1.2810205,1.2810205 0 0 1 -0.966823,-0.942633 L 32.63709,11.770535 a 1.2568688,1.2568688 0 0 0 -1.232679,-0.966822 h -1.812735 a 1.2085277,1.2085277 0 0 0 -1.208528,0.966822 l -0.483373,2.102781 a 1.1843383,1.1843383 0 0 1 -0.966822,0.918444 16.701683,16.701683 0 0 0 -5.341712,2.175312 1.2085277,1.2085277 0 0 1 -1.329362,0 l -1.836924,-1.160149 a 1.2326794,1.2326794 0 0 0 -1.546878,0.16919 l -1.208527,1.208528 a 1.2326794,1.2326794 0 0 0 -0.169191,1.546878 l 1.13596,1.812734 a 1.2568688,1.2568688 0 0 1 0,1.353552 16.218272,16.218272 0 0 0 -2.151161,5.317522 1.2568688,1.2568688 0 0 1 -0.942632,0.942632 l -2.126971,0.483374 a 1.2085277,1.2085277 0 0 0 -0.966823,1.208527 v 1.716091 a 1.2326794,1.2326794 0 0 0 0.966823,1.232679 l 2.102781,0.45926 a 1.2085277,1.2085277 0 0 1 0.918443,0.966822 15.807429,15.807429 0 0 0 2.199464,5.341711 1.2568688,1.2568688 0 0 1 0,1.329362 l -1.160149,1.861076 a 1.2326794,1.2326794 0 0 0 0.169191,1.546878 l 1.208527,1.20849 a 1.2326794,1.2326794 0 0 0 1.546878,0.169175 l 1.812735,-1.160149 a 1.3051722,1.3051722 0 0 1 1.353551,0 15.638103,15.638103 0 0 0 3.553015,1.740242 4.9546803,4.9546803 0 0 1 1.305172,-3.770569 5.099817,5.099817 0 0 1 3.746379,-1.667711 h 0.507563 l 2.876239,0.290046 1.353551,-1.329361 6.429103,-6.356913 -0.169175,-2.876239 a 5.0034371,5.0034371 0 0 1 1.353514,-3.770569 5.099817,5.099817 0 0 1 3.335498,-1.571067 z M 29.906101,36.206682 a 5.4142799,5.4142799 0 1 1 5.41428,-5.41428 5.4142799,5.4142799 0 0 1 -5.41428,5.41428 z" fill="#fafafa" stroke-width="0.0415416" p-id="20929" id="path9"/><path d="m 53.546,34.127901 a 3.2388165,3.2388165 0 0 1 -0.87014,2.417018 3.3113093,3.3113093 0 0 1 -2.417018,1.087656 h -0.338388 l -3.72219,-0.362555 -1.426044,1.401855 -0.43507,0.41088 -6.187586,6.090829 -0.845951,0.84595 0.265858,3.72219 a 3.2871199,3.2871199 0 0 1 -0.894254,2.417018 3.3596504,3.3596504 0 0 1 -2.417018,1.039315 H 34.016494 L 32.227873,53.028882 H 31.72031 a 0.50756275,0.50756275 0 0 1 -0.193365,-0.145023 0.94263274,0.94263274 0 0 1 -0.290046,-0.749269 0.99101164,0.99101164 0 0 1 0.314198,-0.700965 l 1.788621,-1.764431 a 0.24170177,0.24170177 0 0 0 0,-0.314199 L 32.711321,48.726561 30.94689,46.93794 h -0.314214 l -1.812735,1.788621 a 1.1601488,1.1601488 0 0 1 -0.700927,0.314198 0.91844329,0.91844329 0 0 1 -0.700927,-0.290046 1.4743849,1.4743849 0 0 1 -0.217531,-0.314199 0.87010218,0.87010218 0 0 1 0,-0.483373 l -0.120853,-1.160149 v -0.604245 a 3.2388165,3.2388165 0 0 1 0.870102,-2.417017 3.1904754,3.1904754 0 0 1 2.417018,-1.087657 h 0.33838 l 3.72219,0.36254 1.522726,-1.498575 0.43507,-0.43507 7.033461,-6.912514 -0.265857,-3.722189 a 3.3354988,3.3354988 0 0 1 3.28712,-3.480523 h 0.07249 l 1.788621,0.169191 h 0.507563 a 1.2085277,1.2085277 0 0 1 0.193364,0.16919 0.96682219,0.96682219 0 0 1 0.120834,1.232679 0.58009331,0.58009331 0 0 1 -0.145023,0.217531 l -1.788621,1.764432 c 0,0 -0.120834,0.217531 0,0.290043 l 2.006137,2.054478 0.386729,0.386729 h 0.120833 a 0.26587232,0.26587232 0 0 0 0.169175,0 l 1.836925,-1.788621 a 0.96682219,0.96682219 0 0 1 0.749268,-0.314214 0.91844329,0.91844329 0 0 1 0.700965,0.290039 1.4743849,1.4743849 0 0 1 0.217516,0.314214 0.82179886,0.82179886 0 0 1 0,0.483373 z" fill="#fafafa" stroke-width="0.0415416" p-id="20930" id="path10"/></g>
  
  
  
  
</svg>
