<?xml version="1.0" encoding="UTF-8" standalone="no"?>
<svg xmlns:inkscape="http://www.inkscape.org/namespaces/inkscape" xmlns:sodipodi="http://sodipodi.sourceforge.net/DTD/sodipodi-0.dtd" xmlns:xlink="http://www.w3.org/1999/xlink" xmlns="http://www.w3.org/2000/svg" xmlns:rdf="http://www.w3.org/1999/02/22-rdf-syntax-ns#" xmlns:cc="http://creativecommons.org/ns#" xmlns:dc="http://purl.org/dc/elements/1.1/" width="64" height="64" version="1.1" viewBox="0 0 64 64" id="svg24" sodipodi:docname="applications-education.svg" inkscape:version="1.4.4 (dcaf3e7d9e, 2026-05-05)">
  <sodipodi:namedview id="namedview1" pagecolor="#ffffff" bordercolor="#000000" borderopacity="0.25" inkscape:showpageshadow="2" inkscape:pageopacity="0.0" inkscape:pagecheckerboard="0" inkscape:deskcolor="#d1d1d1" showgrid="false" inkscape:current-layer="art">
    <inkscape:grid id="grid2" units="px" originx="0" originy="0" spacingx="0.5" spacingy="0.5" empcolor="#0099e5" empopacity="0.30196078" color="#0099e5" opacity="0.14901961" empspacing="2" enabled="true" visible="false"/>
  </sodipodi:namedview>
  <metadata id="metadata2">
    <rdf:RDF>
      <cc:Work rdf:about="">
        <dc:format>image/svg+xml</dc:format>
        <dc:type rdf:resource="http://purl.org/dc/dcmitype/StillImage"/>
      </cc:Work>
    </rdf:RDF>
  </metadata>
  <defs id="defs12">
    <linearGradient id="linearGradient1" inkscape:collect="always">
      <stop style="stop-color:#ffffff;stop-opacity:1;" offset="0" id="stop1"/>
      <stop style="stop-color:#ffffff;stop-opacity:0.64999998;" offset="1" id="stop2"/>
    </linearGradient>
    <filter id="filter2761-3" x="-0.024" y="-0.024" width="1.048" height="1.048" color-interpolation-filters="sRGB">
      <feGaussianBlur stdDeviation="0.14552168" id="feGaussianBlur4"/>
    </filter>
    <linearGradient id="linearGradient1024" x1="1.3315001" x2="15.65" y1="15.576" y2="1.17" gradientTransform="translate(-8.4984e-4,0.14045)" gradientUnits="userSpaceOnUse">
      <stop stop-color="#dadde2" offset="0" id="stop7"/>
      <stop stop-color="#f3f3f3" stop-opacity=".99608" offset="1" id="stop9"/>
    </linearGradient>
    <filter color-interpolation-filters="sRGB" height="1.048" width="1.048" y="-0.024" x="-0.024" id="filter2761-3-3">
      <feGaussianBlur id="feGaussianBlur2" stdDeviation="0.14552168"/>
    </filter>
    <linearGradient gradientUnits="userSpaceOnUse" gradientTransform="matrix(3.7796,0,0,3.7796,-0.0026448,0.53066)" y2="1.17" y1="15.576" x2="15.65" x1="1.3315001" id="linearGradient1024-6">
      <stop id="stop5" offset="0" stop-color="#dadde2"/>
      <stop id="stop7-7" offset="1" stop-opacity=".99608" stop-color="#f3f3f3"/>
    </linearGradient>
    <linearGradient inkscape:collect="always" xlink:href="#linearGradient1051" id="linearGradient1053" x1="-127" y1="60" x2="-72" y2="5" gradientUnits="userSpaceOnUse" gradientTransform="translate(131.5,-0.50999685)"/>
    <linearGradient inkscape:collect="always" id="linearGradient1051">
      <stop style="stop-color:#bed859;stop-opacity:1;" offset="0" id="stop1047"/>
      <stop style="stop-color:#4dd169;stop-opacity:0.99607843;" offset="1" id="stop1049"/>
    </linearGradient>
    <radialGradient id="gradient_ds_br" cx="0" cy="0" r="1" gradientUnits="userSpaceOnUse" gradientTransform="matrix(13.998399,0.00477622,-0.00477841,14.004799,47.5016,48.4952)">
      <stop offset="0.65" id="stop3"/>
      <stop offset="1" stop-opacity="0" id="stop4"/>
    </radialGradient>
    <linearGradient id="gradient_ds_b" x1="30.448999" y1="48.5" x2="30.492201" y2="62.500301" gradientUnits="userSpaceOnUse">
      <stop offset="0.653846" id="stop6"/>
      <stop offset="1" stop-opacity="0" id="stop8"/>
    </linearGradient>
    <radialGradient id="gradient_ds_bl" cx="0" cy="0" r="1" gradientUnits="userSpaceOnUse" gradientTransform="matrix(0,14,-14,0,16.5,48.5)">
      <stop offset="0.65" id="stop10"/>
      <stop offset="1" stop-opacity="0" id="stop11"/>
    </radialGradient>
    <linearGradient id="gradient_ds_r" x1="47.5" y1="33.5" x2="61.5" y2="33.5009" gradientUnits="userSpaceOnUse">
      <stop offset="0.649038" id="stop12"/>
      <stop offset="1" stop-opacity="0" id="stop13"/>
    </linearGradient>
    <linearGradient id="gradient_ds_l" x1="16.5" y1="33.894699" x2="2.5" y2="33.894699" gradientUnits="userSpaceOnUse">
      <stop offset="0.649038" id="stop14"/>
      <stop offset="1" stop-opacity="0" id="stop15"/>
    </linearGradient>
    <radialGradient id="gradient_ds_tr" cx="0" cy="0" r="1" gradientTransform="matrix(0.00843236,-14,14.0084,0.0189842,47.4916,18.5)" gradientUnits="userSpaceOnUse">
      <stop offset="0.65" id="stop16"/>
      <stop offset="1" stop-opacity="0" id="stop17"/>
    </radialGradient>
    <linearGradient id="gradient_ds_t" x1="29.98" y1="18.5" x2="29.9158" y2="4.4998598" gradientUnits="userSpaceOnUse">
      <stop offset="0.649038" id="stop18"/>
      <stop offset="1" stop-opacity="0" id="stop19"/>
    </linearGradient>
    <radialGradient id="gradient_ds_tl" cx="0" cy="0" r="1" gradientTransform="matrix(-0.00843236,-14,-14.0084,0.0189842,16.5084,18.5)" gradientUnits="userSpaceOnUse">
      <stop offset="0.65" id="stop20"/>
      <stop offset="1" stop-opacity="0" id="stop21"/>
    </radialGradient>
    <linearGradient inkscape:collect="always" xlink:href="#linearGradient1" id="linearGradient2" x1="8.4108448" y1="3.7479107" x2="8.4108448" y2="13.272725" gradientUnits="userSpaceOnUse"/>
    <filter inkscape:collect="always" style="color-interpolation-filters:sRGB" id="filter2" x="-0.024734877" y="-0.029721808" width="1.0494698" height="1.0594436">
      <feGaussianBlur inkscape:collect="always" stdDeviation="0.098164623" id="feGaussianBlur3"/>
    </filter>
  </defs>
  <g id="ds" opacity="0.25">
    <path id="ds-br" d="m 47.5,48.5 h 14 v 14 h -14 z" fill="url(#gradient_ds_br)" style="fill:url(#gradient_ds_br)"/>
    <path id="ds-b" d="m 16.5,48.5 h 31 v 14 h -31 z" fill="url(#gradient_ds_b)" style="fill:url(#gradient_ds_b)"/>
    <path id="ds-bl" d="m 2.5,48.5 h 14 v 14 h -14 z" fill="url(#gradient_ds_bl)" style="fill:url(#gradient_ds_bl)"/>
    <path id="ds-r" d="m 47.5,18.5 h 14 v 30 h -14 z" fill="url(#gradient_ds_r)" style="fill:url(#gradient_ds_r)"/>
    <path id="ds-l" d="m 2.5,18.5 h 14 v 30 h -14 z" fill="url(#gradient_ds_l)" style="fill:url(#gradient_ds_l)"/>
    <path id="ds-tr" d="m 47.5,4.5 h 14 v 14 h -14 z" fill="url(#gradient_ds_tr)" style="fill:url(#gradient_ds_tr)"/>
    <path id="ds-t" d="m 16.5,4.5 h 31 v 14 h -31 z" fill="url(#gradient_ds_t)" style="fill:url(#gradient_ds_t)"/>
    <path id="ds-tl" d="m 16.5,4.5 h -14 v 14 h 14 z" fill="url(#gradient_ds_tl)" style="fill:url(#gradient_ds_tl)"/>
  </g>
  <rect style="fill:url(#linearGradient1053);fill-opacity:1;stroke-width:2.74436;stroke-linecap:round" id="bg" width="55" height="55" x="4.5" y="4.5" rx="10"/>
  <g transform="matrix(3.779602,0,0,3.779602,0.21035375,-0.1656146)" fill="#3a3a3a" stroke-width="0.65762" id="art">
    <path d="M 5.3674535,11.351034 Q 5.1449839,11.227286 5.0187207,11.017016 4.8924575,10.806745 4.8924575,10.545289 V 8.3628489 L 3.8883888,7.8076182 Q 3.7645158,7.7369414 3.7065396,7.6357032 3.648438,7.5345924 3.648438,7.4108443 q 0,-0.1237476 0.058102,-0.2247335 0.057976,-0.1011107 0.1818488,-0.1717875 l 3.8407131,-2.092648 q 0.102252,-0.056843 0.209643,-0.083505 0.107404,-0.026534 0.223476,-0.026534 0.116074,0 0.223476,0.026534 0.107404,0.026662 0.209893,0.083379 L 12.933307,7.282318 q 0.116074,0.06288 0.178075,0.1700269 0.06187,0.1072729 0.06187,0.2313987 v 2.9679374 q 0,0.160344 -0.108526,0.268875 -0.108526,0.108405 -0.268876,0.108405 -0.160469,0 -0.268749,-0.108405 -0.108413,-0.10853 -0.108413,-0.268874 V 7.8288716 l -0.986714,0.5339773 v 2.1824401 q 0,0.261456 -0.126265,0.471727 -0.126265,0.21027 -0.348733,0.334018 l -2.3603801,1.276087 q -0.103507,0.05797 -0.210899,0.08465 -0.107404,0.02654 -0.223476,0.02654 -0.116074,0 -0.223476,-0.02654 -0.107405,-0.02666 -0.2109,-0.08465 z M 8.1041189,9.2431693 q 0.03396,0.01937 0.0605,0.01937 0.02666,0 0.06048,-0.01937 L 11.603269,7.4109707 8.2250999,5.5835508 q -0.03382,-0.019367 -0.06048,-0.019367 -0.02654,0 -0.0605,0.019367 L 4.7211723,7.4109707 Z m -0.0048,2.7308807 q 0.03382,0.01937 0.06288,0.01937 0.02905,0 0.06288,-0.01937 l 2.3797581,-1.285646 q 0.03873,-0.02415 0.05559,-0.05559 0.01692,-0.03144 0.01692,-0.07986 V 8.7652813 l -2.0731551,1.138632 q -0.103506,0.05798 -0.214673,0.08464 -0.111302,0.02666 -0.227374,0.02666 -0.116074,0 -0.227373,-0.02666 -0.111169,-0.02666 -0.214674,-0.08464 l -2.07308,-1.138632 v 1.7876797 q 0,0.03874 0.01698,0.07508 0.01685,0.03622 0.05559,0.06036 z m 0.06288,-2.7066087 z m 0,1.1830247 z m 0,0 z" id="path1-6" style="opacity:0.1;fill:#000000;fill-opacity:1;stroke-width:0.0043498;filter:url(#filter2)"/>
    <path d="M 5.3674535,11.086378 Q 5.1449839,10.96263 5.0187207,10.75236 4.8924575,10.542089 4.8924575,10.280633 V 8.098193 L 3.8883888,7.5429623 Q 3.7645158,7.4722855 3.7065396,7.3710473 3.648438,7.2699365 3.648438,7.1461884 q 0,-0.1237476 0.058102,-0.2247335 0.057976,-0.1011107 0.1818488,-0.1717875 l 3.8407131,-2.092648 q 0.102252,-0.056843 0.209643,-0.083505 0.107404,-0.026534 0.223476,-0.026534 0.116074,0 0.223476,0.026534 0.107404,0.026662 0.209893,0.083379 l 4.3377171,2.3607687 q 0.116074,0.06288 0.178075,0.1700269 0.06187,0.1072729 0.06187,0.2313987 v 2.9679373 q 0,0.160344 -0.108526,0.268875 -0.108526,0.108405 -0.268876,0.108405 -0.160469,0 -0.268749,-0.108405 -0.108413,-0.10853 -0.108413,-0.268874 V 7.5642157 L 11.431974,8.098193 v 2.18244 q 0,0.261456 -0.126265,0.471727 -0.126265,0.21027 -0.348733,0.334018 l -2.3603801,1.276087 q -0.103507,0.05797 -0.210899,0.08465 -0.107404,0.02654 -0.223476,0.02654 -0.116074,0 -0.223476,-0.02654 -0.107405,-0.02666 -0.2109,-0.08465 z M 8.1041189,8.9785134 q 0.03396,0.01937 0.0605,0.01937 0.02666,0 0.06048,-0.01937 L 11.603269,7.1463148 8.2250999,5.3188949 q -0.03382,-0.019367 -0.06048,-0.019367 -0.02654,0 -0.0605,0.019367 L 4.7211723,7.1463148 Z m -0.0048,2.7308806 q 0.03382,0.01937 0.06288,0.01937 0.02905,0 0.06288,-0.01937 l 2.3797581,-1.285646 q 0.03873,-0.02415 0.05559,-0.05559 0.01692,-0.03144 0.01692,-0.07986 V 8.5006254 l -2.0731551,1.138632 q -0.103506,0.05798 -0.214673,0.08464 -0.111302,0.02666 -0.227374,0.02666 -0.116074,0 -0.227373,-0.02666 -0.111169,-0.02666 -0.214674,-0.08464 l -2.07308,-1.138632 v 1.7876796 q 0,0.03874 0.01698,0.07508 0.01685,0.03622 0.05559,0.06036 z m 0.06288,-2.7066086 z m 0,1.1830246 z m 0,0 z" id="path1" style="stroke-width:0.0043498;fill:url(#linearGradient2);fill-opacity:1"/>
  </g>
</svg>
