<?xml version="1.0" encoding="UTF-8" standalone="no"?>
<svg
   width="64"
   height="64"
   version="1.1"
   viewBox="0 0 64 64"
   id="svg24"
   sodipodi:docname="applications-audiovideo.svg"
   inkscape:version="1.4.4 (dcaf3e7d9e, 2026-05-05)"
   xmlns:inkscape="http://www.inkscape.org/namespaces/inkscape"
   xmlns:sodipodi="http://sodipodi.sourceforge.net/DTD/sodipodi-0.dtd"
   xmlns:xlink="http://www.w3.org/1999/xlink"
   xmlns="http://www.w3.org/2000/svg"
   xmlns:svg="http://www.w3.org/2000/svg"
   xmlns:rdf="http://www.w3.org/1999/02/22-rdf-syntax-ns#"
   xmlns:cc="http://creativecommons.org/ns#"
   xmlns:dc="http://purl.org/dc/elements/1.1/">
  <sodipodi:namedview
     id="namedview1"
     pagecolor="#ffffff"
     bordercolor="#000000"
     borderopacity="0.25"
     inkscape:showpageshadow="2"
     inkscape:pageopacity="0.0"
     inkscape:pagecheckerboard="0"
     inkscape:deskcolor="#d1d1d1"
     showgrid="false"
     inkscape:current-layer="svg24">
    <inkscape:grid
       id="grid2"
       units="px"
       originx="0"
       originy="0"
       spacingx="0.5"
       spacingy="0.5"
       empcolor="#0099e5"
       empopacity="0.30196078"
       color="#0099e5"
       opacity="0.14901961"
       empspacing="2"
       enabled="true"
       visible="false" />
  </sodipodi:namedview>
  <metadata
     id="metadata2">
    <rdf:RDF>
      <cc:Work
         rdf:about="">
        <dc:format>image/svg+xml</dc:format>
        <dc:type
           rdf:resource="http://purl.org/dc/dcmitype/StillImage" />
      </cc:Work>
    </rdf:RDF>
  </metadata>
  <defs
     id="defs12">
    <linearGradient
       id="linearGradient1"
       inkscape:collect="always">
      <stop
         style="stop-color:#ffffff;stop-opacity:1;"
         offset="0"
         id="stop1" />
      <stop
         style="stop-color:#ffffff;stop-opacity:0.5;"
         offset="1"
         id="stop2" />
    </linearGradient>
    <filter
       id="filter2761-3"
       x="-0.024"
       y="-0.024"
       width="1.048"
       height="1.048"
       color-interpolation-filters="sRGB">
      <feGaussianBlur
         stdDeviation="0.14552168"
         id="feGaussianBlur4" />
    </filter>
    <linearGradient
       id="linearGradient1024"
       x1="1.3315001"
       x2="15.65"
       y1="15.576"
       y2="1.17"
       gradientTransform="translate(-8.4984e-4,0.14045)"
       gradientUnits="userSpaceOnUse">
      <stop
         stop-color="#dddfe1"
         offset="0"
         id="stop7" />
      <stop
         stop-color="#f3f4f6"
         stop-opacity=".99608"
         offset="1"
         id="stop9" />
    </linearGradient>
    <filter
       color-interpolation-filters="sRGB"
       height="1.048"
       width="1.048"
       y="-0.024"
       x="-0.024"
       id="filter2761-3-3">
      <feGaussianBlur
         id="feGaussianBlur2"
         stdDeviation="0.14552168" />
    </filter>
    <linearGradient
       gradientUnits="userSpaceOnUse"
       gradientTransform="matrix(3.7796,0,0,3.7796,-0.0026448,0.53066)"
       y2="1.17"
       y1="15.576"
       x2="15.65"
       x1="1.3315001"
       id="linearGradient1024-6">
      <stop
         id="stop5"
         offset="0"
         stop-color="#dddfe1" />
      <stop
         id="stop7-7"
         offset="1"
         stop-opacity=".99608"
         stop-color="#f3f4f6" />
    </linearGradient>
    <linearGradient
       inkscape:collect="always"
       xlink:href="#linearGradient1051"
       id="linearGradient1053"
       x1="-127"
       y1="60"
       x2="-72"
       y2="5"
       gradientUnits="userSpaceOnUse"
       gradientTransform="translate(131.5,-0.50999685)" />
    <linearGradient
       inkscape:collect="always"
       id="linearGradient1051">
      <stop
         style="stop-color:#fda06b;stop-opacity:0.99607843;"
         offset="0"
         id="stop1047" />
      <stop
         style="stop-color:#e21220;stop-opacity:1;"
         offset="1"
         id="stop1049" />
    </linearGradient>
    <radialGradient
       id="gradient_ds_br"
       cx="0"
       cy="0"
       r="1"
       gradientUnits="userSpaceOnUse"
       gradientTransform="matrix(13.998399,0.00477622,-0.00477841,14.004799,47.5016,48.4952)">
      <stop
         offset="0.65"
         id="stop3" />
      <stop
         offset="1"
         stop-opacity="0"
         id="stop4" />
    </radialGradient>
    <linearGradient
       id="gradient_ds_b"
       x1="30.448999"
       y1="48.5"
       x2="30.492201"
       y2="62.500301"
       gradientUnits="userSpaceOnUse">
      <stop
         offset="0.653846"
         id="stop6" />
      <stop
         offset="1"
         stop-opacity="0"
         id="stop8" />
    </linearGradient>
    <radialGradient
       id="gradient_ds_bl"
       cx="0"
       cy="0"
       r="1"
       gradientUnits="userSpaceOnUse"
       gradientTransform="matrix(0,14,-14,0,16.5,48.5)">
      <stop
         offset="0.65"
         id="stop10" />
      <stop
         offset="1"
         stop-opacity="0"
         id="stop11" />
    </radialGradient>
    <linearGradient
       id="gradient_ds_r"
       x1="47.5"
       y1="33.5"
       x2="61.5"
       y2="33.5009"
       gradientUnits="userSpaceOnUse">
      <stop
         offset="0.649038"
         id="stop12" />
      <stop
         offset="1"
         stop-opacity="0"
         id="stop13" />
    </linearGradient>
    <linearGradient
       id="gradient_ds_l"
       x1="16.5"
       y1="33.894699"
       x2="2.5"
       y2="33.894699"
       gradientUnits="userSpaceOnUse">
      <stop
         offset="0.649038"
         id="stop14" />
      <stop
         offset="1"
         stop-opacity="0"
         id="stop15" />
    </linearGradient>
    <radialGradient
       id="gradient_ds_tr"
       cx="0"
       cy="0"
       r="1"
       gradientTransform="matrix(0.00843236,-14,14.0084,0.0189842,47.4916,18.5)"
       gradientUnits="userSpaceOnUse">
      <stop
         offset="0.65"
         id="stop16" />
      <stop
         offset="1"
         stop-opacity="0"
         id="stop17" />
    </radialGradient>
    <linearGradient
       id="gradient_ds_t"
       x1="29.98"
       y1="18.5"
       x2="29.9158"
       y2="4.4998598"
       gradientUnits="userSpaceOnUse">
      <stop
         offset="0.649038"
         id="stop18" />
      <stop
         offset="1"
         stop-opacity="0"
         id="stop19" />
    </linearGradient>
    <radialGradient
       id="gradient_ds_tl"
       cx="0"
       cy="0"
       r="1"
       gradientTransform="matrix(-0.00843236,-14,-14.0084,0.0189842,16.5084,18.5)"
       gradientUnits="userSpaceOnUse">
      <stop
         offset="0.65"
         id="stop20" />
      <stop
         offset="1"
         stop-opacity="0"
         id="stop21" />
    </radialGradient>
    <linearGradient
       inkscape:collect="always"
       xlink:href="#linearGradient1"
       id="linearGradient2"
       x1="8.4108448"
       y1="3.747911"
       x2="8.4108448"
       y2="13.272725"
       gradientUnits="userSpaceOnUse" />
    <filter
       inkscape:collect="always"
       style="color-interpolation-filters:sRGB"
       id="filter2"
       x="-0.026999999"
       y="-0.027000004"
       width="1.054"
       height="1.054">
      <feGaussianBlur
         inkscape:collect="always"
         stdDeviation="0.10715415"
         id="feGaussianBlur3" />
    </filter>
  </defs>
  <g
     id="ds"
     opacity="0.25">
    <path
       id="ds-br"
       d="m 47.5,48.5 h 14 v 14 h -14 z"
       fill="url(#gradient_ds_br)"
       style="fill:url(#gradient_ds_br)" />
    <path
       id="ds-b"
       d="m 16.5,48.5 h 31 v 14 h -31 z"
       fill="url(#gradient_ds_b)"
       style="fill:url(#gradient_ds_b)" />
    <path
       id="ds-bl"
       d="m 2.5,48.5 h 14 v 14 h -14 z"
       fill="url(#gradient_ds_bl)"
       style="fill:url(#gradient_ds_bl)" />
    <path
       id="ds-r"
       d="m 47.5,18.5 h 14 v 30 h -14 z"
       fill="url(#gradient_ds_r)"
       style="fill:url(#gradient_ds_r)" />
    <path
       id="ds-l"
       d="m 2.5,18.5 h 14 v 30 h -14 z"
       fill="url(#gradient_ds_l)"
       style="fill:url(#gradient_ds_l)" />
    <path
       id="ds-tr"
       d="m 47.5,4.5 h 14 v 14 h -14 z"
       fill="url(#gradient_ds_tr)"
       style="fill:url(#gradient_ds_tr)" />
    <path
       id="ds-t"
       d="m 16.5,4.5 h 31 v 14 h -31 z"
       fill="url(#gradient_ds_t)"
       style="fill:url(#gradient_ds_t)" />
    <path
       id="ds-tl"
       d="m 16.5,4.5 h -14 v 14 h 14 z"
       fill="url(#gradient_ds_tl)"
       style="fill:url(#gradient_ds_tl)" />
  </g>
  <rect
     style="fill:url(#linearGradient1053);fill-opacity:1;stroke-width:2.74436;stroke-linecap:round"
     id="bg"
     width="55"
     height="55"
     x="4.5"
     y="4.5"
     rx="10" />
  <g
     transform="matrix(3.779602,0,0,3.779602,0.21035375,-0.1656146)"
     fill="#333333"
     stroke-width="0.65762"
     id="art">
    <path
       d="M 7.8063947,10.461916 9.9899577,9.059262 Q 10.150878,8.95712 10.150878,8.775397 q 0,-0.181724 -0.1609203,-0.284867 L 7.8063947,7.0878764 Q 7.6377062,6.9722007 7.460243,7.0693269 7.282905,7.1664549 7.282905,7.3722411 v 2.8053079 q 0,0.205786 0.177338,0.302914 0.177463,0.09713 0.3461517,-0.01855 z m 0.605327,3.075386 q -0.9880741,0 -1.8574639,-0.374976 Q 5.6848681,12.787348 5.041818,12.144549 4.3987677,11.501749 4.0235403,10.632736 3.6484381,9.763722 3.6484381,8.775773 q 0,-0.9880736 0.3749767,-1.8574634 Q 4.3983918,6.0489199 5.0411912,5.4058698 5.6839908,4.7628195 6.5530045,4.3875921 7.4220183,4.0124899 8.4099667,4.0124899 q 0.988074,0 1.8574643,0.3749767 0.86939,0.374977 1.51244,1.0177764 0.64305,0.6427996 1.018278,1.5118133 0.375103,0.8690138 0.375103,1.8569627 0,0.988074 -0.374978,1.857463 -0.374977,0.86939 -1.017776,1.51244 -0.6428,0.643051 -1.511814,1.018279 -0.8690143,0.375101 -1.8569623,0.375101 z m -8.77e-4,-0.751959 q 1.6793743,0 2.8449113,-1.165536 1.165536,-1.165536 1.165536,-2.844911 0,-1.6793748 -1.165536,-2.8449111 -1.165537,-1.1655361 -2.8449113,-1.1655361 -1.6793753,0 -2.8449116,1.1655361 Q 4.400397,7.0955212 4.400397,8.774896 q 0,1.679375 1.1655361,2.844911 1.1655363,1.165536 2.8449116,1.165536 z m 0,-4.010447 z"
       id="path1-3"
       style="opacity:0.1;fill:#000000;fill-opacity:1;stroke-width:0.00434979;filter:url(#filter2)" />
    <path
       d="m 7.8063947,10.197338 2.183563,-1.402654 q 0.1609203,-0.102142 0.1609203,-0.283865 0,-0.181724 -0.1609203,-0.284867 L 7.8063947,6.8232984 Q 7.6377062,6.7076227 7.460243,6.8047489 7.282905,6.9018769 7.282905,7.1076631 V 9.912971 q 0,0.205786 0.177338,0.302914 0.177463,0.09713 0.3461517,-0.01855 z m 0.605327,3.075386 q -0.9880741,0 -1.8574639,-0.374976 Q 5.6848681,12.52277 5.041818,11.879971 4.3987677,11.237171 4.0235403,10.368158 3.6484381,9.499144 3.6484381,8.511195 q 0,-0.9880736 0.3749767,-1.8574634 Q 4.3983918,5.7843419 5.0411912,5.1412918 5.6839908,4.4982415 6.5530045,4.1230141 7.4220183,3.7479119 8.4099667,3.7479119 q 0.988074,0 1.8574643,0.3749767 0.86939,0.374977 1.51244,1.0177764 0.64305,0.6427996 1.018278,1.5118133 0.375103,0.8690138 0.375103,1.8569627 0,0.988074 -0.374978,1.857463 -0.374977,0.86939 -1.017776,1.51244 -0.6428,0.643051 -1.511814,1.018279 -0.8690143,0.375101 -1.8569623,0.375101 z m -8.77e-4,-0.751959 q 1.6793743,0 2.8449113,-1.165536 1.165536,-1.165536 1.165536,-2.844911 0,-1.6793748 -1.165536,-2.8449111 -1.165537,-1.1655361 -2.8449113,-1.1655361 -1.6793753,0 -2.8449116,1.1655361 Q 4.400397,6.8309432 4.400397,8.510318 q 0,1.679375 1.1655361,2.844911 1.1655363,1.165536 2.8449116,1.165536 z m 0,-4.010447 z"
       id="path1"
       style="stroke-width:0.00434979;fill:url(#linearGradient2);fill-opacity:1" />
  </g>
</svg>
