<?xml version="1.0" encoding="UTF-8" standalone="no"?>
<svg xmlns:inkscape="http://www.inkscape.org/namespaces/inkscape" xmlns:sodipodi="http://sodipodi.sourceforge.net/DTD/sodipodi-0.dtd" xmlns:xlink="http://www.w3.org/1999/xlink" xmlns="http://www.w3.org/2000/svg" xmlns:rdf="http://www.w3.org/1999/02/22-rdf-syntax-ns#" xmlns:cc="http://creativecommons.org/ns#" xmlns:dc="http://purl.org/dc/elements/1.1/" width="64" height="64" version="1.1" viewBox="0 0 64 64" id="svg24" sodipodi:docname="template (Copy).svg" inkscape:version="1.4.4 (dcaf3e7d9e, 2026-05-05)">
  <sodipodi:namedview id="namedview1" pagecolor="#ffffff" bordercolor="#000000" borderopacity="0.25" inkscape:showpageshadow="2" inkscape:pageopacity="0.0" inkscape:pagecheckerboard="0" inkscape:deskcolor="#d1d1d1" showgrid="true" inkscape:current-layer="art">
    <inkscape:grid id="grid2" units="px" originx="0" originy="0" spacingx="0.5" spacingy="0.5" empcolor="#0099e5" empopacity="0.30196078" color="#0099e5" opacity="0.14901961" empspacing="2" enabled="true" visible="true"/>
  </sodipodi:namedview>
  <metadata id="metadata2">
    <rdf:RDF>
      <cc:Work rdf:about="">
        <dc:format>image/svg+xml</dc:format>
        <dc:type rdf:resource="http://purl.org/dc/dcmitype/StillImage"/>
      </cc:Work>
    </rdf:RDF>
  </metadata>
  <defs id="defs12">
    <linearGradient id="linearGradient23" inkscape:collect="always">
      <stop style="stop-color:#ffffff;stop-opacity:1;" offset="0" id="stop22"/>
      <stop style="stop-color:#000000;stop-opacity:0.5;" offset="1" id="stop23"/>
    </linearGradient>
    <linearGradient id="linearGradient1" inkscape:collect="always">
      <stop style="stop-color:#ffffff;stop-opacity:1;" offset="0" id="stop1"/>
      <stop style="stop-color:#ffffff;stop-opacity:0.5;" offset="1" id="stop2"/>
    </linearGradient>
    <filter id="filter2761-3" x="-0.024" y="-0.024" width="1.048" height="1.048" color-interpolation-filters="sRGB">
      <feGaussianBlur stdDeviation="0.14552168" id="feGaussianBlur4"/>
    </filter>
    <linearGradient id="linearGradient1024" x1="1.3315001" x2="15.65" y1="15.576" y2="1.17" gradientTransform="translate(-8.4984e-4,0.14045)" gradientUnits="userSpaceOnUse">
      <stop stop-color="#dadde2" offset="0" id="stop7"/>
      <stop stop-color="#f3f3f3" stop-opacity=".99608" offset="1" id="stop9"/>
    </linearGradient>
    <filter color-interpolation-filters="sRGB" height="1.048" width="1.048" y="-0.024" x="-0.024" id="filter2761-3-3">
      <feGaussianBlur id="feGaussianBlur2" stdDeviation="0.14552168"/>
    </filter>
    <linearGradient gradientUnits="userSpaceOnUse" gradientTransform="matrix(3.7796,0,0,3.7796,-0.0026448,0.53066)" y2="1.17" y1="15.576" x2="15.65" x1="1.3315001" id="linearGradient1024-6">
      <stop id="stop5" offset="0" stop-color="#dadde2"/>
      <stop id="stop7-7" offset="1" stop-opacity=".99608" stop-color="#f3f3f3"/>
    </linearGradient>
    <linearGradient inkscape:collect="always" xlink:href="#linearGradient1051" id="linearGradient1053" x1="-127" y1="60" x2="-72" y2="5" gradientUnits="userSpaceOnUse" gradientTransform="translate(131.5,-0.50999685)"/>
    <linearGradient inkscape:collect="always" id="linearGradient1051">
      <stop style="stop-color:#3ccdd8;stop-opacity:1;" offset="0" id="stop1047"/>
      <stop style="stop-color:#3581f6;stop-opacity:1;" offset="1" id="stop1049"/>
    </linearGradient>
    <radialGradient id="gradient_ds_br" cx="0" cy="0" r="1" gradientUnits="userSpaceOnUse" gradientTransform="matrix(13.998399,0.00477622,-0.00477841,14.004799,47.5016,48.4952)">
      <stop offset="0.65" id="stop3"/>
      <stop offset="1" stop-opacity="0" id="stop4"/>
    </radialGradient>
    <linearGradient id="gradient_ds_b" x1="30.448999" y1="48.5" x2="30.492201" y2="62.500301" gradientUnits="userSpaceOnUse">
      <stop offset="0.653846" id="stop6"/>
      <stop offset="1" stop-opacity="0" id="stop8"/>
    </linearGradient>
    <radialGradient id="gradient_ds_bl" cx="0" cy="0" r="1" gradientUnits="userSpaceOnUse" gradientTransform="matrix(0,14,-14,0,16.5,48.5)">
      <stop offset="0.65" id="stop10"/>
      <stop offset="1" stop-opacity="0" id="stop11"/>
    </radialGradient>
    <linearGradient id="gradient_ds_r" x1="47.5" y1="33.5" x2="61.5" y2="33.5009" gradientUnits="userSpaceOnUse">
      <stop offset="0.649038" id="stop12"/>
      <stop offset="1" stop-opacity="0" id="stop13"/>
    </linearGradient>
    <linearGradient id="gradient_ds_l" x1="16.5" y1="33.894699" x2="2.5" y2="33.894699" gradientUnits="userSpaceOnUse">
      <stop offset="0.649038" id="stop14"/>
      <stop offset="1" stop-opacity="0" id="stop15"/>
    </linearGradient>
    <radialGradient id="gradient_ds_tr" cx="0" cy="0" r="1" gradientTransform="matrix(0.00843236,-14,14.0084,0.0189842,47.4916,18.5)" gradientUnits="userSpaceOnUse">
      <stop offset="0.65" id="stop16"/>
      <stop offset="1" stop-opacity="0" id="stop17"/>
    </radialGradient>
    <linearGradient id="gradient_ds_t" x1="29.98" y1="18.5" x2="29.9158" y2="4.4998598" gradientUnits="userSpaceOnUse">
      <stop offset="0.649038" id="stop18"/>
      <stop offset="1" stop-opacity="0" id="stop19"/>
    </linearGradient>
    <radialGradient id="gradient_ds_tl" cx="0" cy="0" r="1" gradientTransform="matrix(-0.00843236,-14,-14.0084,0.0189842,16.5084,18.5)" gradientUnits="userSpaceOnUse">
      <stop offset="0.65" id="stop20"/>
      <stop offset="1" stop-opacity="0" id="stop21"/>
    </radialGradient>
    <linearGradient inkscape:collect="always" xlink:href="#linearGradient1" id="linearGradient2" x1="8.4108448" y1="3.4833329" x2="8.4108448" y2="13.537303" gradientUnits="userSpaceOnUse"/>
    <linearGradient inkscape:collect="always" xlink:href="#linearGradient23" id="linearGradient2-3" x1="8.4108448" y1="3.4833329" x2="8.4108448" y2="13.537303" gradientUnits="userSpaceOnUse"/>
    <filter inkscape:collect="always" style="color-interpolation-filters:sRGB" id="filter23" x="-0.026999998" y="-0.027000002" width="1.054" height="1.054">
      <feGaussianBlur inkscape:collect="always" stdDeviation="0.11310715" id="feGaussianBlur23"/>
    </filter>
  </defs>
  <g id="ds" opacity="0.25">
    <path id="ds-br" d="m 47.5,48.5 h 14 v 14 h -14 z" fill="url(#gradient_ds_br)" style="fill:url(#gradient_ds_br)"/>
    <path id="ds-b" d="m 16.5,48.5 h 31 v 14 h -31 z" fill="url(#gradient_ds_b)" style="fill:url(#gradient_ds_b)"/>
    <path id="ds-bl" d="m 2.5,48.5 h 14 v 14 h -14 z" fill="url(#gradient_ds_bl)" style="fill:url(#gradient_ds_bl)"/>
    <path id="ds-r" d="m 47.5,18.5 h 14 v 30 h -14 z" fill="url(#gradient_ds_r)" style="fill:url(#gradient_ds_r)"/>
    <path id="ds-l" d="m 2.5,18.5 h 14 v 30 h -14 z" fill="url(#gradient_ds_l)" style="fill:url(#gradient_ds_l)"/>
    <path id="ds-tr" d="m 47.5,4.5 h 14 v 14 h -14 z" fill="url(#gradient_ds_tr)" style="fill:url(#gradient_ds_tr)"/>
    <path id="ds-t" d="m 16.5,4.5 h 31 v 14 h -31 z" fill="url(#gradient_ds_t)" style="fill:url(#gradient_ds_t)"/>
    <path id="ds-tl" d="m 16.5,4.5 h -14 v 14 h 14 z" fill="url(#gradient_ds_tl)" style="fill:url(#gradient_ds_tl)"/>
  </g>
  <rect style="fill:url(#linearGradient1053);fill-opacity:1;stroke-width:2.74436;stroke-linecap:round" id="bg" width="55" height="55" x="4.5" y="4.5" rx="10"/>
  <g transform="matrix(3.779602,0,0,3.779602,0.21035375,-0.1656146)" fill="#3a3a3a" stroke-width="0.65762" id="art">
    <path d="m 6.6351284,10.850776 2.4636194,-0.746904 q 0.234019,-0.07421 0.400439,-0.240634 0.166419,-0.1664197 0.240633,-0.400439 L 10.487783,6.9981215 Q 10.526411,6.8638483 10.423226,6.7615888 10.32004,6.6593294 10.186561,6.699016 L 7.7229413,7.4459201 Q 7.488922,7.5201342 7.3225023,7.6865538 7.1560822,7.8529739 7.0818686,8.0869928 L 6.3339063,10.55167 q -0.038628,0.134274 0.064558,0.236533 0.103186,0.10226 0.2366641,0.06257 z M 8.4096538,9.4669 q -0.288787,0 -0.489734,-0.2022701 -0.2010795,-0.2021376 -0.2010795,-0.4909246 0,-0.2887869 0.2022701,-0.489734 0.2021374,-0.2010795 0.4909244,-0.2010795 0.288787,0 0.489734,0.2022701 0.20108,0.2021377 0.20108,0.4909246 0,0.288787 -0.20227,0.489734 Q 8.6984408,9.4669 8.4096538,9.4669 Z m 0.0021,4.33498 q -1.0429669,0 -1.9606561,-0.395809 Q 5.5334251,13.010262 4.85465,12.331752 4.1758747,11.653241 3.7798013,10.735949 3.3838601,9.8186566 3.3838601,8.7758219 q 0,-1.0429668 0.3958088,-1.9606561 Q 4.1754779,5.8974766 4.8539884,5.2187015 5.5324991,4.5399262 6.4497913,4.1438528 7.3670837,3.7479117 8.4099188,3.7479117 q 1.042966,0 1.9606562,0.3958087 0.917689,0.395809 1.596464,1.0743195 0.678775,0.6785107 1.074849,1.5958029 0.395942,0.9172925 0.395942,1.9601271 0,1.0429669 -0.39581,1.9606561 -0.395809,0.917689 -1.074319,1.596464 -0.678511,0.678775 -1.595803,1.074849 -0.9172932,0.395941 -1.9601272,0.395941 z m -9.26e-4,-0.793734 q 1.7644712,0 2.9988612,-1.23439 1.234389,-1.234389 1.234389,-2.9988601 0,-1.7644714 -1.234389,-2.9988607 -1.23439,-1.2343892 -2.9988612,-1.2343892 -1.7644714,0 -2.9988608,1.2343892 -1.2343891,1.2343893 -1.2343891,2.9988607 0,1.7644711 1.2343891,2.9988601 1.2343894,1.23439 2.9988608,1.23439 z m 0,-4.2332501 z" id="path1-1" style="opacity:0.1;fill:url(#linearGradient2-3);stroke-width:0.00434978;filter:url(#filter23)"/>
    <path d="M 6.6351284,10.586198 9.0987478,9.8392936 q 0.234019,-0.074214 0.400439,-0.2406337 0.166419,-0.1664197 0.240633,-0.400439 L 10.487783,6.7335434 Q 10.526411,6.5992702 10.423226,6.4970107 10.32004,6.3947513 10.186561,6.4344379 L 7.7229413,7.181342 Q 7.488922,7.2555561 7.3225023,7.4219757 7.1560822,7.5883958 7.0818686,7.8224147 L 6.3339063,10.287092 q -0.038628,0.134274 0.064558,0.236533 0.103186,0.10226 0.2366641,0.06257 z M 8.4096538,9.2023219 q -0.288787,0 -0.489734,-0.2022701 -0.2010795,-0.2021376 -0.2010795,-0.4909246 0,-0.2887869 0.2022701,-0.489734 0.2021374,-0.2010795 0.4909244,-0.2010795 0.288787,0 0.489734,0.2022701 0.20108,0.2021377 0.20108,0.4909246 0,0.288787 -0.20227,0.489734 -0.202138,0.2010795 -0.490925,0.2010795 z m 0.0021,4.3349801 q -1.0429669,0 -1.9606561,-0.395809 Q 5.5334251,12.745684 4.85465,12.067174 4.1758747,11.388663 3.7798013,10.471371 3.3838601,9.5540785 3.3838601,8.5112438 q 0,-1.0429668 0.3958088,-1.9606561 Q 4.1754779,5.6328985 4.8539884,4.9541234 5.5324991,4.2753481 6.4497913,3.8792747 7.3670837,3.4833336 8.4099188,3.4833336 q 1.042966,0 1.9606562,0.3958087 0.917689,0.395809 1.596464,1.0743195 0.678775,0.6785107 1.074849,1.5958029 0.395942,0.9172925 0.395942,1.9601271 0,1.0429669 -0.39581,1.9606562 -0.395809,0.917689 -1.074319,1.596464 -0.678511,0.678775 -1.595803,1.074849 -0.9172932,0.395941 -1.9601272,0.395941 z m -9.26e-4,-0.793734 q 1.7644712,0 2.9988612,-1.23439 1.234389,-1.234389 1.234389,-2.9988602 0,-1.7644714 -1.234389,-2.9988607 -1.23439,-1.2343892 -2.9988612,-1.2343892 -1.7644714,0 -2.9988608,1.2343892 -1.2343891,1.2343893 -1.2343891,2.9988607 0,1.7644712 1.2343891,2.9988602 1.2343894,1.23439 2.9988608,1.23439 z m 0,-4.2332502 z" id="path1" style="stroke-width:0.00434978;fill:url(#linearGradient2)"/>
  </g>
</svg>
