<?xml version="1.0" encoding="UTF-8" standalone="no"?>
<svg
   width="64"
   height="64"
   version="1.1"
   viewBox="0 0 64 64"
   id="svg24"
   sodipodi:docname="applications-games.svg"
   inkscape:version="1.4.4 (dcaf3e7d9e, 2026-05-05)"
   xmlns:inkscape="http://www.inkscape.org/namespaces/inkscape"
   xmlns:sodipodi="http://sodipodi.sourceforge.net/DTD/sodipodi-0.dtd"
   xmlns:xlink="http://www.w3.org/1999/xlink"
   xmlns="http://www.w3.org/2000/svg"
   xmlns:svg="http://www.w3.org/2000/svg"
   xmlns:rdf="http://www.w3.org/1999/02/22-rdf-syntax-ns#"
   xmlns:cc="http://creativecommons.org/ns#"
   xmlns:dc="http://purl.org/dc/elements/1.1/">
  <sodipodi:namedview
     id="namedview1"
     pagecolor="#ffffff"
     bordercolor="#000000"
     borderopacity="0.25"
     inkscape:showpageshadow="2"
     inkscape:pageopacity="0.0"
     inkscape:pagecheckerboard="0"
     inkscape:deskcolor="#d1d1d1"
     showgrid="false"
     inkscape:current-layer="svg24">
    <inkscape:grid
       id="grid2"
       units="px"
       originx="0"
       originy="0"
       spacingx="0.5"
       spacingy="0.5"
       empcolor="#0099e5"
       empopacity="0.30196078"
       color="#0099e5"
       opacity="0.14901961"
       empspacing="2"
       enabled="true"
       visible="false" />
  </sodipodi:namedview>
  <metadata
     id="metadata2">
    <rdf:RDF>
      <cc:Work
         rdf:about="">
        <dc:format>image/svg+xml</dc:format>
        <dc:type
           rdf:resource="http://purl.org/dc/dcmitype/StillImage" />
      </cc:Work>
    </rdf:RDF>
  </metadata>
  <defs
     id="defs12">
    <linearGradient
       id="linearGradient1"
       inkscape:collect="always">
      <stop
         style="stop-color:#ffffff;stop-opacity:1;"
         offset="0"
         id="stop1" />
      <stop
         style="stop-color:#ffffff;stop-opacity:0.64999998;"
         offset="1"
         id="stop2" />
    </linearGradient>
    <filter
       id="filter2761-3"
       x="-0.024"
       y="-0.024"
       width="1.048"
       height="1.048"
       color-interpolation-filters="sRGB">
      <feGaussianBlur
         stdDeviation="0.14552168"
         id="feGaussianBlur4" />
    </filter>
    <linearGradient
       id="linearGradient1024"
       x1="1.3315001"
       x2="15.65"
       y1="15.576"
       y2="1.17"
       gradientTransform="translate(-8.4984e-4,0.14045)"
       gradientUnits="userSpaceOnUse">
      <stop
         stop-color="#dddfe1"
         offset="0"
         id="stop7" />
      <stop
         stop-color="#f3f4f6"
         stop-opacity=".99608"
         offset="1"
         id="stop9" />
    </linearGradient>
    <filter
       color-interpolation-filters="sRGB"
       height="1.048"
       width="1.048"
       y="-0.024"
       x="-0.024"
       id="filter2761-3-3">
      <feGaussianBlur
         id="feGaussianBlur2"
         stdDeviation="0.14552168" />
    </filter>
    <linearGradient
       gradientUnits="userSpaceOnUse"
       gradientTransform="matrix(3.7796,0,0,3.7796,-0.0026448,0.53066)"
       y2="1.17"
       y1="15.576"
       x2="15.65"
       x1="1.3315001"
       id="linearGradient1024-6">
      <stop
         id="stop5"
         offset="0"
         stop-color="#dddfe1" />
      <stop
         id="stop7-7"
         offset="1"
         stop-opacity=".99608"
         stop-color="#f3f4f6" />
    </linearGradient>
    <linearGradient
       inkscape:collect="always"
       xlink:href="#linearGradient1051"
       id="linearGradient1053"
       x1="-127"
       y1="60"
       x2="-72"
       y2="5"
       gradientUnits="userSpaceOnUse"
       gradientTransform="translate(131.5,-0.50999685)" />
    <linearGradient
       inkscape:collect="always"
       id="linearGradient1051">
      <stop
         style="stop-color:#fed672;stop-opacity:1;"
         offset="0"
         id="stop1047" />
      <stop
         style="stop-color:#fd7a15;stop-opacity:1;"
         offset="1"
         id="stop1049" />
    </linearGradient>
    <radialGradient
       id="gradient_ds_br"
       cx="0"
       cy="0"
       r="1"
       gradientUnits="userSpaceOnUse"
       gradientTransform="matrix(13.998399,0.00477622,-0.00477841,14.004799,47.5016,48.4952)">
      <stop
         offset="0.65"
         id="stop3" />
      <stop
         offset="1"
         stop-opacity="0"
         id="stop4" />
    </radialGradient>
    <linearGradient
       id="gradient_ds_b"
       x1="30.448999"
       y1="48.5"
       x2="30.492201"
       y2="62.500301"
       gradientUnits="userSpaceOnUse">
      <stop
         offset="0.653846"
         id="stop6" />
      <stop
         offset="1"
         stop-opacity="0"
         id="stop8" />
    </linearGradient>
    <radialGradient
       id="gradient_ds_bl"
       cx="0"
       cy="0"
       r="1"
       gradientUnits="userSpaceOnUse"
       gradientTransform="matrix(0,14,-14,0,16.5,48.5)">
      <stop
         offset="0.65"
         id="stop10" />
      <stop
         offset="1"
         stop-opacity="0"
         id="stop11" />
    </radialGradient>
    <linearGradient
       id="gradient_ds_r"
       x1="47.5"
       y1="33.5"
       x2="61.5"
       y2="33.5009"
       gradientUnits="userSpaceOnUse">
      <stop
         offset="0.649038"
         id="stop12" />
      <stop
         offset="1"
         stop-opacity="0"
         id="stop13" />
    </linearGradient>
    <linearGradient
       id="gradient_ds_l"
       x1="16.5"
       y1="33.894699"
       x2="2.5"
       y2="33.894699"
       gradientUnits="userSpaceOnUse">
      <stop
         offset="0.649038"
         id="stop14" />
      <stop
         offset="1"
         stop-opacity="0"
         id="stop15" />
    </linearGradient>
    <radialGradient
       id="gradient_ds_tr"
       cx="0"
       cy="0"
       r="1"
       gradientTransform="matrix(0.00843236,-14,14.0084,0.0189842,47.4916,18.5)"
       gradientUnits="userSpaceOnUse">
      <stop
         offset="0.65"
         id="stop16" />
      <stop
         offset="1"
         stop-opacity="0"
         id="stop17" />
    </radialGradient>
    <linearGradient
       id="gradient_ds_t"
       x1="29.98"
       y1="18.5"
       x2="29.9158"
       y2="4.4998598"
       gradientUnits="userSpaceOnUse">
      <stop
         offset="0.649038"
         id="stop18" />
      <stop
         offset="1"
         stop-opacity="0"
         id="stop19" />
    </linearGradient>
    <radialGradient
       id="gradient_ds_tl"
       cx="0"
       cy="0"
       r="1"
       gradientTransform="matrix(-0.00843236,-14,-14.0084,0.0189842,16.5084,18.5)"
       gradientUnits="userSpaceOnUse">
      <stop
         offset="0.65"
         id="stop20" />
      <stop
         offset="1"
         stop-opacity="0"
         id="stop21" />
    </radialGradient>
    <linearGradient
       inkscape:collect="always"
       xlink:href="#linearGradient1"
       id="linearGradient2"
       x1="480.5"
       y1="-908.5"
       x2="480.5"
       y2="-51.5"
       gradientUnits="userSpaceOnUse"
       gradientTransform="matrix(0.01633606,0,0,0.01633606,0.15052317,15.841309)" />
    <filter
       inkscape:collect="always"
       style="color-interpolation-filters:sRGB"
       id="filter2"
       x="-0.023266626"
       y="-0.032160488"
       width="1.0465333"
       height="1.064321">
      <feGaussianBlur
         inkscape:collect="always"
         stdDeviation="0.092337631"
         id="feGaussianBlur3" />
    </filter>
  </defs>
  <g
     id="ds"
     opacity="0.25">
    <path
       id="ds-br"
       d="m 47.5,48.5 h 14 v 14 h -14 z"
       fill="url(#gradient_ds_br)"
       style="fill:url(#gradient_ds_br)" />
    <path
       id="ds-b"
       d="m 16.5,48.5 h 31 v 14 h -31 z"
       fill="url(#gradient_ds_b)"
       style="fill:url(#gradient_ds_b)" />
    <path
       id="ds-bl"
       d="m 2.5,48.5 h 14 v 14 h -14 z"
       fill="url(#gradient_ds_bl)"
       style="fill:url(#gradient_ds_bl)" />
    <path
       id="ds-r"
       d="m 47.5,18.5 h 14 v 30 h -14 z"
       fill="url(#gradient_ds_r)"
       style="fill:url(#gradient_ds_r)" />
    <path
       id="ds-l"
       d="m 2.5,18.5 h 14 v 30 h -14 z"
       fill="url(#gradient_ds_l)"
       style="fill:url(#gradient_ds_l)" />
    <path
       id="ds-tr"
       d="m 47.5,4.5 h 14 v 14 h -14 z"
       fill="url(#gradient_ds_tr)"
       style="fill:url(#gradient_ds_tr)" />
    <path
       id="ds-t"
       d="m 16.5,4.5 h 31 v 14 h -31 z"
       fill="url(#gradient_ds_t)"
       style="fill:url(#gradient_ds_t)" />
    <path
       id="ds-tl"
       d="m 16.5,4.5 h -14 v 14 h 14 z"
       fill="url(#gradient_ds_tl)"
       style="fill:url(#gradient_ds_tl)" />
  </g>
  <rect
     style="fill:url(#linearGradient1053);fill-opacity:1;stroke-width:2.74436;stroke-linecap:round"
     id="bg"
     width="55"
     height="55"
     x="4.5"
     y="4.5"
     rx="10" />
  <g
     transform="matrix(3.779602,0,0,3.779602,0.21035375,-0.1656146)"
     fill="#333333"
     stroke-width="0.65762"
     id="art">
    <path
       d="m 5.1710749,12.220217 q -0.6283931,0 -1.0686239,-0.443677 -0.440342,-0.443787 -0.4540124,-1.07896 0,-0.0958 0.009,-0.187273 0.009,-0.09147 0.031231,-0.187162 L 4.622259,6.5887961 Q 4.769299,6.0270878 5.2171986,5.6783262 5.6652093,5.3294536 6.2380318,5.3294536 h 4.3345122 q 0.572822,0 1.020833,0.3488726 0.4479,0.3487616 0.59494,0.9104699 l 0.933587,3.7343489 q 0.02223,0.09569 0.03679,0.192719 0.01456,0.09703 0.01456,0.192831 0,0.635172 -0.449233,1.073402 -0.449345,0.43812 -1.084518,0.43812 -0.436896,0 -0.806997,-0.229507 Q 10.462297,11.761092 10.2708,11.368652 L 9.955265,10.719809 Q 9.8869129,10.57877 9.750098,10.510307 9.613283,10.441955 9.4611306,10.441955 H 7.3494452 q -0.1521525,0 -0.2889675,0.06835 -0.136815,0.06846 -0.205167,0.209502 l -0.3155302,0.648845 q -0.187162,0.396774 -0.5594855,0.624169 -0.3723235,0.227396 -0.8092201,0.227396 z m 0.033342,-0.666849 q 0.2410655,0 0.44112,-0.128257 0.2000544,-0.128257 0.3018598,-0.342759 L 6.2585929,10.444511 Q 6.4124126,10.12987 6.7091599,9.9524887 7.0057961,9.7751071 7.3494452,9.7751071 h 2.1116854 q 0.3479837,0 0.6425074,0.1850503 0.294525,0.1851616 0.459459,0.4886886 l 0.311196,0.633506 q 0.101805,0.214502 0.301859,0.342759 0.200055,0.128257 0.44112,0.128257 0.358209,0 0.614723,-0.239843 0.256514,-0.239732 0.263294,-0.593716 0,-0.006 -0.02645,-0.236843 L 11.53525,6.7597315 Q 11.448893,6.4254183 11.183377,6.2109155 10.917971,5.9963016 10.572544,5.9963016 H 6.2380318 q -0.3496507,0 -0.6185016,0.2146139 -0.268962,0.2145028 -0.3442046,0.548816 L 4.3417383,10.482966 q -0.017894,0.05813 -0.026452,0.225729 0,0.358208 0.2620713,0.601496 0.2619601,0.243177 0.6270593,0.243177 z M 9.3504338,8.1640022 Q 9.4653539,8.048971 9.4653539,7.8857044 q 0,-0.1632667 -0.1149201,-0.2782979 -0.1150313,-0.1149202 -0.2782979,-0.1149202 -0.1632667,0 -0.278298,0.1149202 -0.1149201,0.1150312 -0.1149201,0.2782979 0,0.1632666 0.1149201,0.2782978 0.1150313,0.1149202 0.278298,0.1149202 0.1632666,0 0.2782979,-0.1149202 z M 10.239564,7.2748715 q 0.114921,-0.1150312 0.114921,-0.2782978 0,-0.1632666 -0.114921,-0.2782979 -0.115031,-0.1149202 -0.2782977,-0.1149202 -0.1632661,0 -0.2782977,0.1149202 -0.1149201,0.1150313 -0.1149201,0.2782979 0,0.1632666 0.1149201,0.2782978 0.1150316,0.1149202 0.2782977,0.1149202 0.1632667,0 0.2782977,-0.1149202 z m 0,1.7782614 q 0.114921,-0.1150312 0.114921,-0.2782978 0,-0.1632667 -0.114921,-0.2782979 Q 10.124533,8.381617 9.9612663,8.381617 q -0.1632661,0 -0.2782977,0.1149202 -0.1149201,0.1150312 -0.1149201,0.2782979 0,0.1632666 0.1149201,0.2782978 0.1150316,0.1149202 0.2782977,0.1149202 0.1632667,0 0.2782977,-0.1149202 z m 0.889131,-0.8891307 q 0.11492,-0.1150312 0.11492,-0.2782978 0,-0.1632667 -0.11492,-0.2782979 -0.115031,-0.1149202 -0.278298,-0.1149202 -0.163267,0 -0.278298,0.1149202 -0.11492,0.1150312 -0.11492,0.2782979 0,0.1632666 0.11492,0.2782978 0.115031,0.1149202 0.278298,0.1149202 0.163267,0 0.278298,-0.1149202 z M 7.0391386,8.8535231 q 0.075243,-0.075243 0.075243,-0.1898294 V 8.1507764 h 0.5129173 q 0.1145867,0 0.1898294,-0.075243 0.075243,-0.075243 0.075243,-0.1898294 0,-0.1145868 -0.075243,-0.1898294 -0.075243,-0.075243 -0.1898294,-0.075243 H 7.1143812 V 7.107715 q 0,-0.1145867 -0.075243,-0.1898294 -0.075243,-0.075243 -0.1898294,-0.075243 -0.1145868,0 -0.1898294,0.075243 Q 6.584237,6.9931283 6.584237,7.107715 V 7.6206323 H 6.0713198 q -0.1145867,0 -0.1898294,0.075243 -0.075243,0.075243 -0.075243,0.1898294 0,0.1145867 0.075243,0.1898294 0.075243,0.075243 0.1898294,0.075243 H 6.584237 v 0.5129173 q 0,0.1145868 0.075243,0.1898294 0.075243,0.075243 0.1898294,0.075243 0.1145866,0 0.1898292,-0.075244 z m 1.3661493,-0.078688 z"
       id="path1-6"
       style="opacity:0.1;mix-blend-mode:normal;fill:#000000;fill-opacity:1;stroke-width:0.00661446;filter:url(#filter2)" />
    <path
       d="m 3.2380385,13.064179 q -0.9236408,0 -1.5707122,-0.652136 -0.6472347,-0.652299 -0.66732801,-1.585904 0,-0.140817 0.0132322,-0.275263 0.013232,-0.134446 0.045904,-0.275099 L 2.4313639,4.7868606 Q 2.6474899,3.9612361 3.3058332,3.4486105 3.9643397,2.9358216 4.8063003,2.9358216 h 6.3710637 q 0.84196,0 1.500467,0.5127889 0.658343,0.5126256 0.874469,1.3382501 l 1.372229,5.4889164 q 0.03267,0.140653 0.05407,0.283267 0.0214,0.142614 0.0214,0.283431 0,0.933605 -0.660304,1.577736 -0.660467,0.643968 -1.594073,0.643968 -0.64217,0 -1.186161,-0.33734 Q 11.01531,12.389336 10.73384,11.81251 L 10.270059,10.858811 Q 10.169592,10.651506 9.9684952,10.550876 9.7673983,10.450409 9.5437577,10.450409 H 6.4399063 q -0.2236407,0 -0.4247376,0.100467 -0.2010969,0.10063 -0.3015637,0.307935 L 5.2498243,11.81251 Q 4.974725,12.395707 4.427467,12.729943 3.880209,13.064179 3.2380385,13.064179 Z m 0.049008,-0.980164 q 0.3543291,0 0.6483782,-0.188518 0.2940491,-0.188518 0.4436874,-0.503804 L 4.836522,10.454166 Q 5.0626131,9.9916926 5.4987859,9.7309691 5.9347953,9.4702456 6.4399063,9.4702456 h 3.1038514 q 0.5114823,0 0.9443873,0.2719954 0.432906,0.272159 0.675333,0.718297 l 0.45741,0.931155 q 0.149638,0.315286 0.443687,0.503804 0.294049,0.188518 0.648378,0.188518 0.526512,0 0.903548,-0.352532 0.377036,-0.352369 0.387001,-0.872672 0,-0.0088 -0.03888,-0.348122 L 12.592393,5.0381092 Q 12.465462,4.5467205 12.075194,4.2314345 11.685088,3.9159852 11.177364,3.9159852 H 4.8063003 q -0.5139325,0 -0.9091018,0.3154493 -0.3953326,0.315286 -0.5059277,0.8066747 L 2.0190417,10.510689 q -0.026301,0.08544 -0.03888,0.331786 0,0.526511 0.3852043,0.884107 0.3850409,0.357433 0.9216805,0.357433 z m 6.094004,-4.9818447 q 0.1689149,-0.1690782 0.1689149,-0.4090549 0,-0.2399767 -0.1689149,-0.4090549 -0.1690782,-0.1689149 -0.4090549,-0.1689149 -0.2399768,0 -0.409055,0.1689149 -0.1689148,0.1690782 -0.1689148,0.4090549 0,0.2399767 0.1689148,0.4090549 0.1690782,0.1689149 0.409055,0.1689149 0.2399767,0 0.4090549,-0.1689149 z M 10.687935,5.7952855 q 0.168915,-0.1690782 0.168915,-0.4090549 0,-0.2399767 -0.168915,-0.4090549 -0.169078,-0.1689149 -0.409055,-0.1689149 -0.239976,0 -0.4090546,0.1689149 -0.1689148,0.1690782 -0.1689148,0.4090549 0,0.2399767 0.1689148,0.4090549 0.1690786,0.1689149 0.4090546,0.1689149 0.239977,0 0.409055,-0.1689149 z m 0,2.6137696 q 0.168915,-0.1690782 0.168915,-0.4090549 0,-0.2399767 -0.168915,-0.4090549 -0.169078,-0.1689149 -0.409055,-0.1689149 -0.239976,0 -0.4090546,0.1689149 -0.1689148,0.1690782 -0.1689148,0.4090549 0,0.2399767 0.1689148,0.4090549 Q 10.038904,8.57797 10.27888,8.57797 q 0.239977,0 0.409055,-0.1689149 z M 11.99482,7.1021703 q 0.168915,-0.1690782 0.168915,-0.4090549 0,-0.2399767 -0.168915,-0.4090549 -0.169078,-0.1689149 -0.409055,-0.1689149 -0.239977,0 -0.409055,0.1689149 -0.168915,0.1690782 -0.168915,0.4090549 0,0.2399767 0.168915,0.4090549 0.169078,0.1689149 0.409055,0.1689149 0.239977,0 0.409055,-0.1689149 z M 5.9838035,8.1156595 Q 6.0943986,8.0050644 6.0943986,7.8366396 V 7.0827304 h 0.7539092 q 0.1684247,0 0.2790199,-0.1105951 0.1105951,-0.1105951 0.1105951,-0.2790199 0,-0.1684248 -0.1105951,-0.2790199 Q 7.0167325,6.3035004 6.8483078,6.3035004 H 6.0943986 V 5.5495912 q 0,-0.1684248 -0.1105951,-0.2790199 -0.1105952,-0.1105951 -0.2790199,-0.1105951 -0.1684248,0 -0.2790199,0.1105951 Q 5.3151685,5.3811664 5.3151685,5.5495912 V 6.3035004 H 4.5612594 q -0.1684248,0 -0.2790199,0.1105951 -0.1105952,0.1105951 -0.1105952,0.2790199 0,0.1684248 0.1105952,0.2790199 0.1105951,0.1105951 0.2790199,0.1105951 h 0.7539091 v 0.7539092 q 0,0.1684248 0.1105952,0.2790199 0.1105951,0.1105951 0.2790199,0.1105951 0.1684247,0 0.2790199,-0.1105951 z M 7.991832,8.0000002 Z"
       id="path1"
       style="stroke-width:0.00972224;fill:url(#linearGradient2);fill-opacity:1"
       transform="matrix(0.68034359,0,0,0.68034359,2.9680962,3.0675692)" />
  </g>
</svg>
