<?xml version="1.0" encoding="UTF-8" standalone="no"?>
<svg xmlns:inkscape="http://www.inkscape.org/namespaces/inkscape" xmlns:sodipodi="http://sodipodi.sourceforge.net/DTD/sodipodi-0.dtd" xmlns:xlink="http://www.w3.org/1999/xlink" xmlns="http://www.w3.org/2000/svg" xmlns:rdf="http://www.w3.org/1999/02/22-rdf-syntax-ns#" xmlns:cc="http://creativecommons.org/ns#" xmlns:dc="http://purl.org/dc/elements/1.1/" width="64" height="64" version="1.1" viewBox="0 0 64 64" id="svg24" sodipodi:docname="applications-development.svg" inkscape:version="1.4.4 (dcaf3e7d9e, 2026-05-05)">
  <sodipodi:namedview id="namedview1" pagecolor="#ffffff" bordercolor="#000000" borderopacity="0.25" inkscape:showpageshadow="2" inkscape:pageopacity="0.0" inkscape:pagecheckerboard="0" inkscape:deskcolor="#d1d1d1" showgrid="true" inkscape:current-layer="art">
    <inkscape:grid id="grid2" units="px" originx="0" originy="0" spacingx="0.5" spacingy="0.5" empcolor="#0099e5" empopacity="0.30196078" color="#0099e5" opacity="0.14901961" empspacing="2" enabled="true" visible="true"/>
  </sodipodi:namedview>
  <metadata id="metadata2">
    <rdf:RDF>
      <cc:Work rdf:about="">
        <dc:format>image/svg+xml</dc:format>
        <dc:type rdf:resource="http://purl.org/dc/dcmitype/StillImage"/>
      </cc:Work>
    </rdf:RDF>
  </metadata>
  <defs id="defs12">
    <linearGradient id="linearGradient1" inkscape:collect="always">
      <stop style="stop-color:#ffffff;stop-opacity:1;" offset="0" id="stop1"/>
      <stop style="stop-color:#ffffff;stop-opacity:0.5;" offset="1" id="stop2"/>
    </linearGradient>
    <filter id="filter2761-3" x="-0.024" y="-0.024" width="1.048" height="1.048" color-interpolation-filters="sRGB">
      <feGaussianBlur stdDeviation="0.14552168" id="feGaussianBlur4"/>
    </filter>
    <linearGradient id="linearGradient1024" x1="1.3315001" x2="15.65" y1="15.576" y2="1.17" gradientTransform="translate(-8.4984e-4,0.14045)" gradientUnits="userSpaceOnUse">
      <stop stop-color="#dadde2" offset="0" id="stop7"/>
      <stop stop-color="#f3f3f3" stop-opacity=".99608" offset="1" id="stop9"/>
    </linearGradient>
    <filter color-interpolation-filters="sRGB" height="1.048" width="1.048" y="-0.024" x="-0.024" id="filter2761-3-3">
      <feGaussianBlur id="feGaussianBlur2" stdDeviation="0.14552168"/>
    </filter>
    <linearGradient gradientUnits="userSpaceOnUse" gradientTransform="matrix(3.7796,0,0,3.7796,-0.0026448,0.53066)" y2="1.17" y1="15.576" x2="15.65" x1="1.3315001" id="linearGradient1024-6">
      <stop id="stop5" offset="0" stop-color="#dadde2"/>
      <stop id="stop7-7" offset="1" stop-opacity=".99608" stop-color="#f3f3f3"/>
    </linearGradient>
    <linearGradient inkscape:collect="always" xlink:href="#linearGradient1051" id="linearGradient1053" x1="-127" y1="60" x2="-72" y2="5" gradientUnits="userSpaceOnUse" gradientTransform="translate(131.5,-0.50999685)"/>
    <linearGradient inkscape:collect="always" id="linearGradient1051">
      <stop style="stop-color:#c347d4;stop-opacity:1;" offset="0" id="stop1047"/>
      <stop style="stop-color:#625be9;stop-opacity:0.99607843;" offset="1" id="stop1049"/>
    </linearGradient>
    <radialGradient id="gradient_ds_br" cx="0" cy="0" r="1" gradientUnits="userSpaceOnUse" gradientTransform="matrix(13.998399,0.00477622,-0.00477841,14.004799,47.5016,48.4952)">
      <stop offset="0.65" id="stop3"/>
      <stop offset="1" stop-opacity="0" id="stop4"/>
    </radialGradient>
    <linearGradient id="gradient_ds_b" x1="30.448999" y1="48.5" x2="30.492201" y2="62.500301" gradientUnits="userSpaceOnUse">
      <stop offset="0.653846" id="stop6"/>
      <stop offset="1" stop-opacity="0" id="stop8"/>
    </linearGradient>
    <radialGradient id="gradient_ds_bl" cx="0" cy="0" r="1" gradientUnits="userSpaceOnUse" gradientTransform="matrix(0,14,-14,0,16.5,48.5)">
      <stop offset="0.65" id="stop10"/>
      <stop offset="1" stop-opacity="0" id="stop11"/>
    </radialGradient>
    <linearGradient id="gradient_ds_r" x1="47.5" y1="33.5" x2="61.5" y2="33.5009" gradientUnits="userSpaceOnUse">
      <stop offset="0.649038" id="stop12"/>
      <stop offset="1" stop-opacity="0" id="stop13"/>
    </linearGradient>
    <linearGradient id="gradient_ds_l" x1="16.5" y1="33.894699" x2="2.5" y2="33.894699" gradientUnits="userSpaceOnUse">
      <stop offset="0.649038" id="stop14"/>
      <stop offset="1" stop-opacity="0" id="stop15"/>
    </linearGradient>
    <radialGradient id="gradient_ds_tr" cx="0" cy="0" r="1" gradientTransform="matrix(0.00843236,-14,14.0084,0.0189842,47.4916,18.5)" gradientUnits="userSpaceOnUse">
      <stop offset="0.65" id="stop16"/>
      <stop offset="1" stop-opacity="0" id="stop17"/>
    </radialGradient>
    <linearGradient id="gradient_ds_t" x1="29.98" y1="18.5" x2="29.9158" y2="4.4998598" gradientUnits="userSpaceOnUse">
      <stop offset="0.649038" id="stop18"/>
      <stop offset="1" stop-opacity="0" id="stop19"/>
    </linearGradient>
    <radialGradient id="gradient_ds_tl" cx="0" cy="0" r="1" gradientTransform="matrix(-0.00843236,-14,-14.0084,0.0189842,16.5084,18.5)" gradientUnits="userSpaceOnUse">
      <stop offset="0.65" id="stop20"/>
      <stop offset="1" stop-opacity="0" id="stop21"/>
    </radialGradient>
    <linearGradient inkscape:collect="always" xlink:href="#linearGradient1" id="linearGradient2" x1="8.4108448" y1="3.4833348" x2="8.4108448" y2="13.537301" gradientUnits="userSpaceOnUse"/>
    <filter inkscape:collect="always" style="color-interpolation-filters:sRGB" id="filter2" x="-0.021286752" y="-0.036905139" width="1.0425735" height="1.0738103">
      <feGaussianBlur inkscape:collect="always" stdDeviation="0.089173449" id="feGaussianBlur3"/>
    </filter>
  </defs>
  <g id="ds" opacity="0.25">
    <path id="ds-br" d="m 47.5,48.5 h 14 v 14 h -14 z" fill="url(#gradient_ds_br)" style="fill:url(#gradient_ds_br)"/>
    <path id="ds-b" d="m 16.5,48.5 h 31 v 14 h -31 z" fill="url(#gradient_ds_b)" style="fill:url(#gradient_ds_b)"/>
    <path id="ds-bl" d="m 2.5,48.5 h 14 v 14 h -14 z" fill="url(#gradient_ds_bl)" style="fill:url(#gradient_ds_bl)"/>
    <path id="ds-r" d="m 47.5,18.5 h 14 v 30 h -14 z" fill="url(#gradient_ds_r)" style="fill:url(#gradient_ds_r)"/>
    <path id="ds-l" d="m 2.5,18.5 h 14 v 30 h -14 z" fill="url(#gradient_ds_l)" style="fill:url(#gradient_ds_l)"/>
    <path id="ds-tr" d="m 47.5,4.5 h 14 v 14 h -14 z" fill="url(#gradient_ds_tr)" style="fill:url(#gradient_ds_tr)"/>
    <path id="ds-t" d="m 16.5,4.5 h 31 v 14 h -31 z" fill="url(#gradient_ds_t)" style="fill:url(#gradient_ds_t)"/>
    <path id="ds-tl" d="m 16.5,4.5 h -14 v 14 h 14 z" fill="url(#gradient_ds_tl)" style="fill:url(#gradient_ds_tl)"/>
  </g>
  <rect style="fill:url(#linearGradient1053);fill-opacity:1;stroke-width:2.74436;stroke-linecap:round" id="bg" width="55" height="55" x="4.5" y="4.5" rx="10"/>
  <g transform="matrix(3.779602,0,0,3.779602,0.21035375,-0.1656146)" fill="#3a3a3a" stroke-width="0.65762" id="art">
    <path d="m 4.330111,8.7854176 2.1987963,2.1986594 q 0.1124393,0.112575 0.1151489,0.282995 0.00258,0.170286 -0.1151489,0.288144 -0.1178586,0.117722 -0.2855684,0.117722 -0.1677109,0 -0.2855685,-0.117722 L 3.5224453,9.1198902 Q 3.4464473,9.0437572 3.4151549,8.9593601 3.3838619,8.8749631 3.3838619,8.7770178 q 0,-0.097943 0.031293,-0.1823402 0.031293,-0.084397 0.1072904,-0.1605301 L 5.9577704,5.9988216 q 0.1209736,-0.1208385 0.287194,-0.1234129 0.1660846,-0.00258 0.2922065,0.1234129 0.1261226,0.1261205 0.1261226,0.289768 0,0.1635103 -0.1261226,0.2896326 z m 8.161462,-0.016794 -2.198796,-2.1986607 q -0.11244,-0.1125746 -0.115149,-0.2829947 -0.0026,-0.1702852 0.115149,-0.2881423 0.117858,-0.1177233 0.285568,-0.1177233 0.16771,0 0.285568,0.1177233 l 2.435324,2.435325 q 0.076,0.076133 0.107291,0.1605302 0.0313,0.084397 0.0313,0.1823402 0,0.097945 -0.0313,0.1823422 -0.0313,0.084397 -0.107291,0.1605301 l -2.435324,2.4353224 q -0.120974,0.120837 -0.282994,0.119211 -0.162022,-0.0014 -0.288142,-0.127612 -0.125986,-0.126119 -0.125986,-0.289632 0,-0.163647 0.125986,-0.289768 z" id="path1-8" style="opacity:0.1;fill:#000000;fill-opacity:1;stroke-width:0.00434979;filter:url(#filter2)"/>
    <path d="m 4.330111,8.5208328 2.1987963,2.1986592 q 0.1124393,0.112575 0.1151489,0.282995 0.00258,0.170286 -0.1151489,0.288144 -0.1178586,0.117722 -0.2855684,0.117722 -0.1677109,0 -0.2855685,-0.117722 L 3.5224453,8.8553054 Q 3.4464473,8.7791724 3.4151549,8.6947753 3.3838619,8.6103783 3.3838619,8.512433 q 0,-0.097943 0.031293,-0.1823402 0.031293,-0.084397 0.1072904,-0.1605301 L 5.9577704,5.7342368 q 0.1209736,-0.1208385 0.287194,-0.1234129 0.1660846,-0.00258 0.2922065,0.1234129 0.1261226,0.1261205 0.1261226,0.289768 0,0.1635103 -0.1261226,0.2896326 z m 8.161462,-0.016794 -2.198796,-2.1986607 q -0.11244,-0.1125746 -0.115149,-0.2829947 -0.0026,-0.1702852 0.115149,-0.2881423 0.117858,-0.1177233 0.285568,-0.1177233 0.16771,0 0.285568,0.1177233 l 2.435324,2.435325 q 0.076,0.076133 0.107291,0.1605302 0.0313,0.084397 0.0313,0.1823402 0,0.097945 -0.0313,0.1823422 -0.0313,0.084397 -0.107291,0.1605301 l -2.435324,2.4353222 q -0.120974,0.120837 -0.282994,0.119211 -0.162022,-0.0014 -0.288142,-0.127612 -0.125986,-0.126119 -0.125986,-0.289632 0,-0.163647 0.125986,-0.289768 z" id="path1" style="stroke-width:0.00434979;fill:url(#linearGradient2);fill-opacity:1"/>
  </g>
</svg>
