<svg width="16" height="16" viewBox="0 0 16 16" fill="none" xmlns="http://www.w3.org/2000/svg">
<g id="user-desktop">
<path id="Glyph" fill-rule="evenodd" clip-rule="evenodd" d="M0 3.5C0 2.5 1 1.5 2 1.5H14C15 1.5 16 2.5 16 3.5V12.5C16 13.5 15 14.5 14 14.5H2C1 14.5 0 13.5 0 12.5V3.5ZM3 11.5C3 10.946 3.446 10.5 4 10.5H12C12.554 10.5 13 10.946 13 11.5C13 12.054 12.554 12.5 12 12.5H4C3.446 12.5 3 12.054 3 11.5ZM14 2.5H2C1.446 2.5 1 2.946 1 3.5V12.5C1 13.054 1.446 13.5 2 13.5H14C14.554 13.5 15 13.054 15 12.5V3.5C15 2.946 14.554 2.5 14 2.5Z" fill="black"/>
</g>
</svg>
