<?xml version="1.0" encoding="UTF-8" standalone="no"?>
<svg
   height="24"
   viewBox="0 0 24 24"
   width="24"
   version="1.1"
   id="svg1"
   sodipodi:docname="input-tvremote.svg"
   inkscape:version="1.4.2 (ebf0e940d0, 2025-05-08)"
   xmlns:inkscape="http://www.inkscape.org/namespaces/inkscape"
   xmlns:sodipodi="http://sodipodi.sourceforge.net/DTD/sodipodi-0.dtd"
   xmlns="http://www.w3.org/2000/svg"
   xmlns:svg="http://www.w3.org/2000/svg">
  <defs
     id="defs1" />
  <sodipodi:namedview
     id="namedview1"
     pagecolor="#ffffff"
     bordercolor="#000000"
     borderopacity="0.25"
     inkscape:showpageshadow="2"
     inkscape:pageopacity="0.0"
     inkscape:pagecheckerboard="0"
     inkscape:deskcolor="#d1d1d1"
     inkscape:zoom="14.608183"
     inkscape:cx="-1.0952765"
     inkscape:cy="11.534631"
     inkscape:window-width="1920"
     inkscape:window-height="1017"
     inkscape:window-x="0"
     inkscape:window-y="0"
     inkscape:window-maximized="1"
     inkscape:current-layer="svg1" />
  <style
     type="text/css"
     id="current-color-scheme">
        .ColorScheme-Text {
            color:#363636;
        }
    </style>
  <path
     d="M 10,3 C 8.892,3 8,3.892 8,5 v 14 c 0,1.108 0.892,2 2,2 h 4 c 1.108,0 2,-0.892 2,-2 V 5 C 16,3.892 15.108,3 14,3 Z m 0,1 h 4 c 0.554,0 1,0.446 1,1 v 14 c 0,0.554 -0.446,1 -1,1 H 10 C 9.446,20 9,19.554 9,19 V 5 C 9,4.446 9.446,4 10,4 Z m 0.5,1 A 0.5,0.5 0 0 0 10,5.5 0.5,0.5 0 0 0 10.5,6 0.5,0.5 0 0 0 11,5.5 0.5,0.5 0 0 0 10.5,5 Z m 3,0 A 0.5,0.5 0 0 0 13,5.5 0.5,0.5 0 0 0 13.5,6 0.5,0.5 0 0 0 14,5.5 0.5,0.5 0 0 0 13.5,5 Z m -3,2 A 0.5,0.5 0 0 0 10,7.5 0.5,0.5 0 0 0 10.5,8 0.5,0.5 0 0 0 11,7.5 0.5,0.5 0 0 0 10.5,7 Z M 12,7 A 0.5,0.5 0 0 0 11.5,7.5 0.5,0.5 0 0 0 12,8 0.5,0.5 0 0 0 12.5,7.5 0.5,0.5 0 0 0 12,7 Z m 1.5,0 A 0.5,0.5 0 0 0 13,7.5 0.5,0.5 0 0 0 13.5,8 0.5,0.5 0 0 0 14,7.5 0.5,0.5 0 0 0 13.5,7 Z M 12,9 a 2,2 0 0 0 -2,2 2,2 0 0 0 2,2 2,2 0 0 0 2,-2 2,2 0 0 0 -2,-2 z m 0,1 a 1,1 0 0 1 1,1 1,1 0 0 1 -1,1 1,1 0 0 1 -1,-1 1,1 0 0 1 1,-1 z m -1.5,4 A 0.5,0.5 0 0 0 10,14.5 0.5,0.5 0 0 0 10.5,15 0.5,0.5 0 0 0 11,14.5 0.5,0.5 0 0 0 10.5,14 Z M 12,14 A 0.5,0.5 0 0 0 11.5,14.5 0.5,0.5 0 0 0 12,15 0.5,0.5 0 0 0 12.5,14.5 0.5,0.5 0 0 0 12,14 Z m 1.5,0 A 0.5,0.5 0 0 0 13,14.5 0.5,0.5 0 0 0 13.5,15 0.5,0.5 0 0 0 14,14.5 0.5,0.5 0 0 0 13.5,14 Z m -3,2 A 0.5,0.5 0 0 0 10,16.5 0.5,0.5 0 0 0 10.5,17 0.5,0.5 0 0 0 11,16.5 0.5,0.5 0 0 0 10.5,16 Z M 12,16 A 0.5,0.5 0 0 0 11.5,16.5 0.5,0.5 0 0 0 12,17 0.5,0.5 0 0 0 12.5,16.5 0.5,0.5 0 0 0 12,16 Z m 1.5,0 A 0.5,0.5 0 0 0 13,16.5 0.5,0.5 0 0 0 13.5,17 0.5,0.5 0 0 0 14,16.5 0.5,0.5 0 0 0 13.5,16 Z"
     style="fill:currentColor;fill-opacity:1;stroke:none"
     class="ColorScheme-Text"
     id="path1" />
</svg>
