<?xml version="1.0" encoding="UTF-8" standalone="no"?>
<svg
   width="24"
   height="24"
   version="1.1"
   id="svg2"
   sodipodi:docname="input-mouse-battery.svg"
   inkscape:version="1.4.2 (ebf0e940d0, 2025-05-08)"
   xmlns:inkscape="http://www.inkscape.org/namespaces/inkscape"
   xmlns:sodipodi="http://sodipodi.sourceforge.net/DTD/sodipodi-0.dtd"
   xmlns="http://www.w3.org/2000/svg"
   xmlns:svg="http://www.w3.org/2000/svg">
  <defs
     id="defs2" />
  <sodipodi:namedview
     id="namedview2"
     pagecolor="#ffffff"
     bordercolor="#000000"
     borderopacity="0.25"
     inkscape:showpageshadow="2"
     inkscape:pageopacity="0.0"
     inkscape:pagecheckerboard="0"
     inkscape:deskcolor="#d1d1d1"
     inkscape:zoom="14.608183"
     inkscape:cx="12.219179"
     inkscape:cy="10.986992"
     inkscape:window-width="1920"
     inkscape:window-height="1017"
     inkscape:window-x="0"
     inkscape:window-y="0"
     inkscape:window-maximized="1"
     inkscape:current-layer="svg2" />
  <style
     type="text/css"
     id="current-color-scheme">.ColorScheme-Text {
        color:#363636;
      }</style>
  <g
     id="22-22-input-mouse-battery"
     transform="translate(-325,-533.36218)"
     inkscape:label="draw">
    <rect
       x="326"
       y="534.36218"
       width="22"
       height="22"
       ry="0"
       fill="none"
       id="rect1" />
    <path
       class="ColorScheme-Text"
       transform="translate(326,534.3622)"
       d="M 13.5,3 C 10.453,3 8,5.676 8,9 v 4 c 0,3.324 2.453,6 5.5,6 3.047,0 5.5,-2.676 5.5,-6 V 9 C 19,5.676 16.547,3 13.5,3 Z m 0,1 C 15.993,4 18,6.007 18,8.5 v 5 C 18,15.993 15.993,18 13.5,18 11.007,18 9,15.993 9,13.5 v -5 C 9,6.007 11.007,4 13.5,4 Z m 0,2 C 13.223,6 13,6.223 13,6.5 v 2 C 13,8.777 13.223,9 13.5,9 13.777,9 14,8.777 14,8.5 v -2 C 14,6.223 13.777,6 13.5,6 Z"
       fill="currentColor"
       id="path1" />
    <path
       class="ColorScheme-Text"
       d="m 331,537.3622 -2,5 h 2 v 3 l 2,-5 h -2 z"
       fill="currentColor"
       id="path2" />
  </g>
</svg>
