<?xml version="1.0" encoding="UTF-8" standalone="no"?>
<svg
   width="24"
   height="24"
   version="1.1"
   id="svg1"
   sodipodi:docname="input-mouse.svg"
   inkscape:version="1.4.2 (ebf0e940d0, 2025-05-08)"
   xmlns:inkscape="http://www.inkscape.org/namespaces/inkscape"
   xmlns:sodipodi="http://sodipodi.sourceforge.net/DTD/sodipodi-0.dtd"
   xmlns="http://www.w3.org/2000/svg"
   xmlns:svg="http://www.w3.org/2000/svg">
  <sodipodi:namedview
     id="namedview1"
     pagecolor="#ffffff"
     bordercolor="#000000"
     borderopacity="0.25"
     inkscape:showpageshadow="2"
     inkscape:pageopacity="0.0"
     inkscape:pagecheckerboard="0"
     inkscape:deskcolor="#d1d1d1"
     inkscape:zoom="13.390835"
     inkscape:cx="15.122284"
     inkscape:cy="8.6253025"
     inkscape:window-width="1920"
     inkscape:window-height="1017"
     inkscape:window-x="0"
     inkscape:window-y="0"
     inkscape:window-maximized="1"
     inkscape:current-layer="svg1" />
  <defs
     id="defs1">
    <style
       id="current-color-scheme"
       type="text/css">.ColorScheme-Text { color:#363636; } .ColorScheme-Highlight { color:#5294e2; }</style>
  </defs>
  <path
     class="ColorScheme-Text"
     d="m 12,2.9999998 c -3.4278749,0 -6.1874998,3.0104999 -6.1874998,6.7500004 V 14.25 c 0,3.7395 2.7596249,6.75 6.1874998,6.75 3.427875,0 6.1875,-3.0105 6.1875,-6.75 V 9.7500002 C 18.1875,6.0104997 15.427875,2.9999998 12,2.9999998 Z m 0,1.125 c 2.804625,0 5.0625,2.2578749 5.0625,5.0625004 V 14.8125 c 0,2.804625 -2.257875,5.0625 -5.0625,5.0625 -2.8046249,0 -5.0624998,-2.257875 -5.0624998,-5.0625 V 9.1875002 C 6.9375002,6.3828747 9.1953751,4.1249998 12,4.1249998 Z m 0,2.2499999 c -0.311625,0 -0.5625,0.250875 -0.5625,0.5625 v 2.2500005 c 0,0.311625 0.250875,0.5625 0.5625,0.5625 0.311625,0 0.5625,-0.250875 0.5625,-0.5625 V 6.9374997 c 0,-0.311625 -0.250875,-0.5625 -0.5625,-0.5625 z"
     fill="currentColor"
     id="path1-5"
     style="color:#363636;stroke-width:1.125" />
</svg>
