<?xml version="1.0" encoding="UTF-8" standalone="no"?>
<svg
   version="1.1"
   viewBox="0 0 24 24"
   id="svg3"
   sodipodi:docname="media-optical-burn.svg"
   width="24"
   height="24"
   inkscape:version="1.4.2 (ebf0e940d0, 2025-05-08)"
   xmlns:inkscape="http://www.inkscape.org/namespaces/inkscape"
   xmlns:sodipodi="http://sodipodi.sourceforge.net/DTD/sodipodi-0.dtd"
   xmlns="http://www.w3.org/2000/svg"
   xmlns:svg="http://www.w3.org/2000/svg">
  <sodipodi:namedview
     id="namedview3"
     pagecolor="#ffffff"
     bordercolor="#000000"
     borderopacity="0.25"
     inkscape:showpageshadow="2"
     inkscape:pageopacity="0.0"
     inkscape:pagecheckerboard="0"
     inkscape:deskcolor="#d1d1d1"
     inkscape:zoom="20.659091"
     inkscape:cx="11.447745"
     inkscape:cy="9.1243124"
     inkscape:window-width="1920"
     inkscape:window-height="1017"
     inkscape:window-x="0"
     inkscape:window-y="0"
     inkscape:window-maximized="1"
     inkscape:current-layer="svg3" />
  <defs
     id="defs1">
    <style
       id="current-color-scheme"
       type="text/css">.ColorScheme-Text {
        color:#363636;
      }</style>
  </defs>
  <g
     class="ColorScheme-Text"
     fill="currentColor"
     id="g3"
     transform="translate(1.00018,1.0000157)">
    <path
       d="m 15.505,13 c 1.1413,0.21838 1.9946,1.1623 1.9946,2.3012 0,0.68309 -0.31118,1.2923 -0.80322,1.7207 -0.27542,-0.30648 -0.44678,-0.699 -0.44678,-1.1334 0,-0.09609 0.01614,-0.18828 0.03174,-0.27991 -0.76205,0.40163 -1.2817,1.1593 -1.2817,2.042 0,1.3016 1.115,2.3494 2.5,2.3494 1.385,0 2.5,-1.0478 2.5,-2.3494 0,-2.4404 -1.9673,-4.4107 -4.4946,-4.6506 z"
       id="path1" />
    <path
       d="m 11,8 c -1.68,0 -3,1.32 -3,3 0,1.68 1.32,3 3,3 1.68,0 3,-1.32 3,-3 0,-1.68 -1.32,-3 -3,-3 z m 0.0059,1.0059 a 2.002,2.002 0 0 1 1.9961,1.9961 2.002,2.002 0 0 1 -1.9961,1.9961 c -1.098,0 -2.0137,-0.89709 -2.0137,-1.9961 0,-1.098 0.91567,-1.9961 2.0137,-1.9961 z"
       id="path2" />
    <path
       d="m 10.99,2 a 9,9 0 0 0 -8.9902,9 9,9 0 0 0 9,9 9,9 0 0 0 3,-0.53711 v -1.0723 a 8,8 0 0 1 -3,0.60938 8,8 0 0 1 -8,-8 8,8 0 0 1 8,-8 8,8 0 0 1 8,8 8,8 0 0 1 -0.0957,1.1953 h 1.0098 a 9,9 0 0 0 0.08594,-1.1953 9,9 0 0 0 -9,-9 9,9 0 0 0 -0.0098,0 z"
       id="path3" />
  </g>
</svg>
