<?xml version="1.0" encoding="UTF-8" standalone="no"?>
<svg
   width="24"
   height="24"
   version="1.1"
   id="svg1"
   sodipodi:docname="phone.svg"
   inkscape:version="1.4.2 (ebf0e940d0, 2025-05-08)"
   xmlns:inkscape="http://www.inkscape.org/namespaces/inkscape"
   xmlns:sodipodi="http://sodipodi.sourceforge.net/DTD/sodipodi-0.dtd"
   xmlns="http://www.w3.org/2000/svg"
   xmlns:svg="http://www.w3.org/2000/svg">
  <sodipodi:namedview
     id="namedview1"
     pagecolor="#ffffff"
     bordercolor="#000000"
     borderopacity="0.25"
     inkscape:showpageshadow="2"
     inkscape:pageopacity="0.0"
     inkscape:pagecheckerboard="0"
     inkscape:deskcolor="#d1d1d1"
     inkscape:zoom="37.875"
     inkscape:cx="12"
     inkscape:cy="12"
     inkscape:window-width="1920"
     inkscape:window-height="1017"
     inkscape:window-x="0"
     inkscape:window-y="0"
     inkscape:window-maximized="1"
     inkscape:current-layer="svg1" />
  <defs
     id="defs1">
    <style
       id="current-color-scheme"
       type="text/css">.ColorScheme-Text { color:#363636; } .ColorScheme-Highlight { color:#5294e2; }</style>
  </defs>
  <g
     id="g1"
     inkscape:label="draw">
    <path
       class="ColorScheme-Text"
       d="m7.9609 2.0001c-1.0865 0-1.9609 0.87452-1.9609 1.9609v16.078c0 1.0865 0.87452 1.9609 1.9609 1.9609h8.0782c1.0865 0 1.9609-0.87452 1.9609-1.9609v-16.078c0-1.0865-0.87452-1.9609-1.9609-1.9609h-6.0391zm0.039062 1h1c0 0.554 0.446 1 1 1h4c0.554 0 1-0.446 1-1h1c0.554 0 1 0.446 1 1v16c0 0.554-0.446 1-1 1h-8c-0.554 0-1-0.446-1-1v-16c0-0.554 0.446-1 1-1z"
       fill="currentColor"
       id="path1" />
    <rect
       class="ColorScheme-Text"
       x="9"
       y="19.5"
       width="6"
       height=".5"
       rx=".25"
       ry=".25"
       fill="currentColor"
       opacity=".5"
       id="rect1" />
  </g>
</svg>
