<?xml version="1.0" encoding="UTF-8" standalone="no"?>
<svg
   viewBox="0 0 24 24"
   version="1.1"
   id="svg1"
   sodipodi:docname="portable.svg"
   width="24"
   height="24"
   inkscape:version="1.4.2 (ebf0e940d0, 2025-05-08)"
   xmlns:inkscape="http://www.inkscape.org/namespaces/inkscape"
   xmlns:sodipodi="http://sodipodi.sourceforge.net/DTD/sodipodi-0.dtd"
   xmlns="http://www.w3.org/2000/svg"
   xmlns:svg="http://www.w3.org/2000/svg">
  <sodipodi:namedview
     id="namedview1"
     pagecolor="#ffffff"
     bordercolor="#000000"
     borderopacity="0.25"
     inkscape:showpageshadow="2"
     inkscape:pageopacity="0.0"
     inkscape:pagecheckerboard="0"
     inkscape:deskcolor="#d1d1d1"
     inkscape:zoom="20.659091"
     inkscape:cx="5.009901"
     inkscape:cy="10.624862"
     inkscape:window-width="1920"
     inkscape:window-height="1017"
     inkscape:window-x="0"
     inkscape:window-y="0"
     inkscape:window-maximized="1"
     inkscape:current-layer="svg1" />
  <defs
     id="defs3051">
    <style
       type="text/css"
       id="current-color-scheme">
      .ColorScheme-Text {
        color:#363636;
      }
      </style>
  </defs>
  <path
     style="fill:currentColor;fill-opacity:1;stroke:none"
     d="m 7.5,3 v 18 h 9 V 3 Z m 1,1 h 7 v 2 h -7 z m 0,3 h 7 v 9.5 3.5 h -7 v -3.5 z m 0,9.5 A 0.5,0.5 0 0 0 9,17 0.5,0.5 0 0 0 9.5,16.5 0.5,0.5 0 0 0 9,16 0.5,0.5 0 0 0 8.5,16.5 Z m 7,0 A 0.5,0.5 0 0 0 15,16 0.5,0.5 0 0 0 14.5,16.5 0.5,0.5 0 0 0 15,17 0.5,0.5 0 0 0 15.5,16.5 Z M 10,14 A 0.5,0.5 0 0 0 9.5,14.5 0.5,0.5 0 0 0 10,15 0.5,0.5 0 0 0 10.5,14.5 0.5,0.5 0 0 0 10,14 Z m 2,0 A 0.5,0.5 0 0 0 11.5,14.5 0.5,0.5 0 0 0 12,15 0.5,0.5 0 0 0 12.5,14.5 0.5,0.5 0 0 0 12,14 Z m 2,0 A 0.5,0.5 0 0 0 13.5,14.5 0.5,0.5 0 0 0 14,15 0.5,0.5 0 0 0 14.5,14.5 0.5,0.5 0 0 0 14,14 Z m -3,2 A 0.5,0.5 0 0 0 10.5,16.5 0.5,0.5 0 0 0 11,17 0.5,0.5 0 0 0 11.5,16.5 0.5,0.5 0 0 0 11,16 Z m 2,0 A 0.5,0.5 0 0 0 12.5,16.5 0.5,0.5 0 0 0 13,17 0.5,0.5 0 0 0 13.5,16.5 0.5,0.5 0 0 0 13,16 Z m -3,2 A 0.5,0.5 0 0 0 9.5,18.5 0.5,0.5 0 0 0 10,19 0.5,0.5 0 0 0 10.5,18.5 0.5,0.5 0 0 0 10,18 Z m 2,0 A 0.5,0.5 0 0 0 11.5,18.5 0.5,0.5 0 0 0 12,19 0.5,0.5 0 0 0 12.5,18.5 0.5,0.5 0 0 0 12,18 Z m 2,0 A 0.5,0.5 0 0 0 13.5,18.5 0.5,0.5 0 0 0 14,19 0.5,0.5 0 0 0 14.5,18.5 0.5,0.5 0 0 0 14,18 Z"
     class="ColorScheme-Text"
     id="path1" />
</svg>
