<?xml version="1.0" encoding="UTF-8" standalone="no"?>
<svg xmlns:inkscape="http://www.inkscape.org/namespaces/inkscape" xmlns:sodipodi="http://sodipodi.sourceforge.net/DTD/sodipodi-0.dtd" xmlns="http://www.w3.org/2000/svg" xmlns:svg="http://www.w3.org/2000/svg" xmlns:rdf="http://www.w3.org/1999/02/22-rdf-syntax-ns#" xmlns:cc="http://creativecommons.org/ns#" xmlns:dc="http://purl.org/dc/elements/1.1/" width="64" height="64" version="1.1" viewBox="0 0 64 64" id="svg19" sodipodi:docname="desktop-environment-gnome.svg" inkscape:version="1.4.2 (ebf0e940d0, 2025-05-08)">
  <metadata id="metadata23">
    <rdf:RDF>
      <cc:Work rdf:about="">
        <dc:format>image/svg+xml</dc:format>
        <dc:type rdf:resource="http://purl.org/dc/dcmitype/StillImage"/>
      </cc:Work>
    </rdf:RDF>
  </metadata>
  <defs id="defs7">
    <linearGradient id="b" x1="45.627998" x2="45.627998" y1="57.955002" y2="12.461" gradientTransform="matrix(0.26458,0,0,0.26458,0,280.07)" gradientUnits="userSpaceOnUse">
      <stop offset="0" id="stop2"/>
      <stop stop-opacity="0" offset="1" id="stop4"/>
    </linearGradient>
    <filter color-interpolation-filters="sRGB" height="1.1898" width="1.3198" y="-0.094876997" x="-0.15989" id="filter2174">
      <feGaussianBlur id="feGaussianBlur832" stdDeviation="0.25608494"/>
    </filter>
    <filter color-interpolation-filters="sRGB" height="1.048" width="1.048" y="-0.024" x="-0.024" id="filter2761-36">
      <feGaussianBlur id="feGaussianBlur835" stdDeviation="0.14552168"/>
    </filter>
    <linearGradient gradientUnits="userSpaceOnUse" gradientTransform="translate(4.1473241,-6.7340639)" y2="1.1082" y1="15.429" x2="15.644" x1="1.2573" id="linearGradient4673-7">
      <stop id="stop838" offset="0" stop-color="#32dcff"/>
      <stop id="stop840" offset="1" stop-color="#3296ff"/>
    </linearGradient>
    <filter id="filter2761" x="-0.024" y="-0.024" width="1.048" height="1.048" color-interpolation-filters="sRGB">
      <feGaussianBlur stdDeviation="0.14552168" id="feGaussianBlur2"/>
    </filter>
    <linearGradient id="linearGradient4673" x1="1.2573" x2="15.644" y1="15.429" y2="1.1082" gradientUnits="userSpaceOnUse" gradientTransform="translate(2.7759996,-5.8333087)">
      <stop stop-color="#32dcff" offset="0" id="stop5"/>
      <stop stop-color="#3296ff" offset="1" id="stop7"/>
    </linearGradient>
    <linearGradient id="a" gradientUnits="userSpaceOnUse" x1="408.64954" x2="408.64954" y1="549.92224" y2="500.92224">
      <stop offset="0" stop-color="#197cf1" id="stop2-3"/>
      <stop offset="1" stop-color="#59d0ff" id="stop4-6"/>
    </linearGradient>
    <linearGradient id="b-7" gradientUnits="userSpaceOnUse" x1="405.57144" x2="406.57144" y1="543.79797" y2="501.798">
      <stop offset="0" stop-color="#1673db" id="stop7-3"/>
      <stop offset="1" stop-color="#42d6fc" id="stop9"/>
    </linearGradient>
    
    <filter color-interpolation-filters="sRGB" height="1.048" width="1.048" y="-0.024" x="-0.024" id="filter2761-67">
      <feGaussianBlur id="feGaussianBlur929" stdDeviation="0.14552168"/>
    </filter>
    <linearGradient gradientUnits="userSpaceOnUse" gradientTransform="matrix(3.7796,0,0,3.7796,16.978258,-18.878729)" y2="1.1082" y1="15.429" x2="15.644" x1="1.2573" id="linearGradient4673-5">
      <stop id="stop932" offset="0" stop-color="#32dcff"/>
      <stop id="stop934" offset="1" stop-color="#3296ff"/>
    </linearGradient>
    <linearGradient id="linearGradient11422" x1="-6.1472001" x2="-6.1472001" y1="-137.82001" y2="-100.78" gradientTransform="matrix(2.0044,0,0,2.0044,151.4312,271.61)" gradientUnits="userSpaceOnUse">
      <stop stop-color="#32b4ff" offset="0" id="stop4-3"/>
      <stop stop-color="#3287ff" offset="1" id="stop6"/>
    </linearGradient>
    <filter color-interpolation-filters="sRGB" height="1.048" width="1.048" y="-0.024" x="-0.024" id="filter2761-6">
      <feGaussianBlur id="feGaussianBlur840" stdDeviation="0.14552168"/>
    </filter>
    <linearGradient gradientUnits="userSpaceOnUse" gradientTransform="matrix(3.7796,0,0,3.7796,52.70136,-30.294572)" y2="1.17" y1="15.576" x2="15.65" x1="1.3315001" id="linearGradient1024">
      <stop id="stop843" offset="0" stop-color="#00c8ff"/>
      <stop id="stop845" offset="1" stop-color="#14a0ff"/>
    </linearGradient>
    
    <filter id="filter1057" x="-0.026999999" y="-0.026999999" width="1.054" height="1.054" color-interpolation-filters="sRGB">
      <feGaussianBlur stdDeviation="0.61875" id="feGaussianBlur856"/>
    </filter>
    <linearGradient id="linearGradient1053" x1="-127" x2="-72" y1="60" y2="5" gradientTransform="translate(131.5,-0.50999897)" gradientUnits="userSpaceOnUse">
      <stop stop-color="#32d7ff" offset="0" id="stop859"/>
      <stop stop-color="#329bff" offset="1" id="stop861"/>
    </linearGradient>
    
    
    
    
    
    
    
    <filter id="filter1057-6" x="-0.026999999" y="-0.026999999" width="1.054" height="1.054" color-interpolation-filters="sRGB">
      <feGaussianBlur stdDeviation="0.61875" id="feGaussianBlur856-1"/>
    </filter>
  <radialGradient id="gradient_ds_br" cx="0" cy="0" r="1" gradientUnits="userSpaceOnUse" gradientTransform="matrix(13.998399,0.00477622,-0.00477841,14.004799,47.5016,48.4952)">
      <stop offset="0.65" id="stop1"/>
      <stop offset="1" stop-opacity="0" id="stop2"/>
    </radialGradient><linearGradient id="gradient_ds_b" x1="30.448999" y1="48.5" x2="30.492201" y2="62.500301" gradientUnits="userSpaceOnUse">
      <stop offset="0.653846" id="stop3"/>
      <stop offset="1" stop-opacity="0" id="stop4"/>
    </linearGradient><radialGradient id="gradient_ds_bl" cx="0" cy="0" r="1" gradientUnits="userSpaceOnUse" gradientTransform="matrix(0,14,-14,0,16.5,48.5)">
      <stop offset="0.65" id="stop5"/>
      <stop offset="1" stop-opacity="0" id="stop6"/>
    </radialGradient><linearGradient id="gradient_ds_r" x1="47.5" y1="33.5" x2="61.5" y2="33.5009" gradientUnits="userSpaceOnUse">
      <stop offset="0.649038" id="stop7"/>
      <stop offset="1" stop-opacity="0" id="stop8"/>
    </linearGradient><linearGradient id="gradient_ds_l" x1="16.5" y1="33.894699" x2="2.5" y2="33.894699" gradientUnits="userSpaceOnUse">
      <stop offset="0.649038" id="stop9"/>
      <stop offset="1" stop-opacity="0" id="stop10"/>
    </linearGradient><radialGradient id="gradient_ds_tr" cx="0" cy="0" r="1" gradientTransform="matrix(0.00843236,-14,14.0084,0.0189842,47.4916,18.5)" gradientUnits="userSpaceOnUse">
      <stop offset="0.65" id="stop11"/>
      <stop offset="1" stop-opacity="0" id="stop12"/>
    </radialGradient><linearGradient id="gradient_ds_t" x1="29.98" y1="18.5" x2="29.9158" y2="4.4998598" gradientUnits="userSpaceOnUse">
      <stop offset="0.649038" id="stop13"/>
      <stop offset="1" stop-opacity="0" id="stop14"/>
    </linearGradient><radialGradient id="gradient_ds_tl" cx="0" cy="0" r="1" gradientTransform="matrix(-0.00843236,-14,-14.0084,0.0189842,16.5084,18.5)" gradientUnits="userSpaceOnUse">
      <stop offset="0.65" id="stop15"/>
      <stop offset="1" stop-opacity="0" id="stop16"/>
    </radialGradient></defs>
  
  <g id="ds" opacity="0.25">
    <path id="ds-br" d="m 47.5,48.5 h 14 v 14 h -14 z" fill="url(#gradient_ds_br)" style="fill:url(#gradient_ds_br)"/>
    <path id="ds-b" d="m 16.5,48.5 h 31 v 14 h -31 z" fill="url(#gradient_ds_b)" style="fill:url(#gradient_ds_b)"/>
    <path id="ds-bl" d="m 2.5,48.5 h 14 v 14 h -14 z" fill="url(#gradient_ds_bl)" style="fill:url(#gradient_ds_bl)"/>
    <path id="ds-r" d="m 47.5,18.5 h 14 v 30 h -14 z" fill="url(#gradient_ds_r)" style="fill:url(#gradient_ds_r)"/>
    <path id="ds-l" d="m 2.5,18.5 h 14 v 30 h -14 z" fill="url(#gradient_ds_l)" style="fill:url(#gradient_ds_l)"/>
    <path id="ds-tr" d="m 47.5,4.5 h 14 v 14 h -14 z" fill="url(#gradient_ds_tr)" style="fill:url(#gradient_ds_tr)"/>
    <path id="ds-t" d="m 16.5,4.5 h 31 v 14 h -31 z" fill="url(#gradient_ds_t)" style="fill:url(#gradient_ds_t)"/>
    <path id="ds-tl" d="m 16.5,4.5 h -14 v 14 h 14 z" fill="url(#gradient_ds_tl)" style="fill:url(#gradient_ds_tl)"/>
  </g><rect x="4.5" y="4.5" width="55" height="55" fill="url(#linearGradient1053)" stroke-linecap="round" stroke-width="2.7444" id="bg" style="fill:url(#linearGradient1053)" rx="10"/>
  <g id="art"><path style="fill:#ffffff;stroke-width:4.13371" inkscape:connector-curvature="0" id="path15" d="m 43.150382,14.5 c -6.911539,0 -8.205385,10.499587 -4.319711,10.499587 3.885673,0 11.23125,-10.499587 4.319711,-10.499587 z m -10.970828,1.190504 c -3.951813,0.55805 -2.562891,8.002835 -0.454706,8.143381 2.099917,0.136412 4.410653,-8.697296 0.454706,-8.143381 z m -7.151293,2.31487 a 2.4223456,2.4223456 0 0 0 -0.64899,0.165348 c -3.699658,1.405456 -0.562183,7.200898 1.512932,6.81233 1.942837,-0.367899 2.166057,-7.27117 -0.859809,-6.973544 z m -4.861226,4.662809 a 1.9635054,1.9635054 0 0 0 -1.070627,0.305893 c -3.0424,1.794024 1.025156,6.126137 2.810913,5.456478 1.570804,-0.591118 0.57045,-5.696232 -1.740286,-5.766505 z m 14.186843,3.50124 C 28.909801,26.070214 21.725438,28.930731 20.501864,34.668301 19.174948,40.881245 25.962476,49.5 33.04763,49.5 c 3.484706,0 7.502658,-3.294555 8.254988,-7.465455 0.574586,-3.178812 -7.225698,-1.901499 -6.961141,0.198429 0.214954,1.719606 -0.686194,2.612484 -1.926302,2.645555 -1.694815,-0.206687 -2.521554,-1.186371 -2.748908,-2.666233 -0.301759,-3.877407 11.921578,-6.646983 10.954291,-12.66151 -0.355498,-2.20326 -2.996927,-3.323492 -6.26668,-3.381363 z"/></g>
</svg>
