<?xml version="1.0" encoding="UTF-8" standalone="no"?>
<svg xmlns:inkscape="http://www.inkscape.org/namespaces/inkscape" xmlns:sodipodi="http://sodipodi.sourceforge.net/DTD/sodipodi-0.dtd" xmlns:xlink="http://www.w3.org/1999/xlink" xmlns="http://www.w3.org/2000/svg" xmlns:svg="http://www.w3.org/2000/svg" xmlns:rdf="http://www.w3.org/1999/02/22-rdf-syntax-ns#" xmlns:cc="http://creativecommons.org/ns#" xmlns:dc="http://purl.org/dc/elements/1.1/" width="64" height="64" version="1.1" viewBox="0 0 64 64" id="svg19" sodipodi:docname="desktop-environment-kde.svg" inkscape:version="1.4.2 (ebf0e940d0, 2025-05-08)">
  <metadata id="metadata23">
    <rdf:RDF>
      <cc:Work rdf:about="">
        <dc:format>image/svg+xml</dc:format>
        <dc:type rdf:resource="http://purl.org/dc/dcmitype/StillImage"/>
      </cc:Work>
    </rdf:RDF>
  </metadata>
  <defs id="defs7">
    <linearGradient id="b" x1="45.627998" x2="45.627998" y1="57.955002" y2="12.461" gradientTransform="matrix(0.26458,0,0,0.26458,0,280.07)" gradientUnits="userSpaceOnUse">
      <stop offset="0" id="stop2"/>
      <stop stop-opacity="0" offset="1" id="stop4"/>
    </linearGradient>
    <filter id="filter2174" x="-0.15989" y="-0.094876997" width="1.3198" height="1.1898" color-interpolation-filters="sRGB">
      <feGaussianBlur stdDeviation="0.25608494" id="feGaussianBlur832"/>
    </filter>
    <filter id="filter2761-36" x="-0.024" y="-0.024" width="1.048" height="1.048" color-interpolation-filters="sRGB">
      <feGaussianBlur stdDeviation="0.14552168" id="feGaussianBlur835"/>
    </filter>
    <linearGradient id="linearGradient4673-7" x1="1.2573" x2="15.644" y1="15.429" y2="1.1082" gradientTransform="translate(17.24902,-7.8014572)" gradientUnits="userSpaceOnUse">
      <stop stop-color="#32dcff" offset="0" id="stop838"/>
      <stop stop-color="#3296ff" offset="1" id="stop840"/>
    </linearGradient>
    
    <filter color-interpolation-filters="sRGB" height="1.048" width="1.048" y="-0.024" x="-0.024" id="filter2761">
      <feGaussianBlur id="feGaussianBlur870" stdDeviation="0.14552168"/>
    </filter>
    <linearGradient gradientUnits="userSpaceOnUse" gradientTransform="matrix(3.7796,0,0,3.7796,101.69,7.5815)" y2="1.1082" y1="15.429" x2="15.644" x1="1.2573" id="linearGradient4673">
      <stop id="stop873" offset="0" stop-color="#8cd750"/>
      <stop id="stop875" offset=".47728" stop-color="#7dcd32"/>
      <stop id="stop877" offset="1" stop-color="#87d241"/>
    </linearGradient>
    
    <filter color-interpolation-filters="sRGB" height="1.048" width="1.048" y="-0.024" x="-0.024" id="filter2761-367">
      <feGaussianBlur id="feGaussianBlur6" stdDeviation="0.14552168"/>
    </filter>
    <linearGradient id="linearGradient1057">
      <stop id="stop4-5" offset="0" stop-color="#fff"/>
      <stop id="stop6" offset="1" stop-opacity="0" stop-color="#fff"/>
    </linearGradient>
    <linearGradient gradientUnits="userSpaceOnUse" gradientTransform="matrix(1.5625,0,0,1.5625,0.40633,-5.1891)" y2="52.847" y1="27.545" x2="34.999001" x1="34.999001" id="linearGradient982">
      <stop id="stop9-6" offset="0" stop-color="#32b4ff"/>
      <stop id="stop11-7" offset="1" stop-color="#3287ff"/>
    </linearGradient>
    
    
    <linearGradient gradientUnits="userSpaceOnUse" gradientTransform="matrix(1.5625,0,0,1.5625,-9.2253,1.3231)" y2="43.681" y1="18.052" x2="21.313999" x1="21.313999" id="linearGradient1047">
      <stop id="stop18" offset="0" stop-color="#14dc78"/>
      <stop id="stop20" offset="1" stop-color="#14a03c"/>
    </linearGradient>
    <linearGradient gradientUnits="userSpaceOnUse" gradientTransform="matrix(1.5625,0,0,1.5625,-8.1072,-10.908)" y2="37.368" y1="12.316" x2="41.729" x1="41.729" id="linearGradient1049">
      <stop id="stop23" offset="0" stop-color="#ff3c64"/>
      <stop id="stop25" offset="1" stop-color="#ff4628"/>
    </linearGradient>
    <linearGradient xlink:href="#linearGradient1057" gradientUnits="userSpaceOnUse" gradientTransform="matrix(1,0,0,1.2271,0.20646,-10.975)" y2="39.768002" y1="32.234001" x2="34.426998" x1="34.426998" id="linearGradient1059"/>
    <linearGradient xlink:href="#linearGradient1057" gradientUnits="userSpaceOnUse" gradientTransform="matrix(1,0,0,1.2271,-12.55,-19.793)" y2="39.768002" y1="32.234001" x2="34.426998" x1="34.426998" id="linearGradient1063"/>
    <linearGradient xlink:href="#linearGradient1057" gradientUnits="userSpaceOnUse" gradientTransform="matrix(1,0,0,1.2271,5.7554,-25.761)" y2="39.768002" y1="32.234001" x2="34.426998" x1="34.426998" id="linearGradient1067"/>
    <filter color-interpolation-filters="sRGB" height="1.048" width="1.048" y="-0.024" x="-0.024" id="filter2761-5">
      <feGaussianBlur id="feGaussianBlur31" stdDeviation="0.14552168"/>
    </filter>
    <linearGradient gradientUnits="userSpaceOnUse" gradientTransform="matrix(3.7796,0,0,3.7796,72.4059,0.53085)" y2="1.17" y1="15.576" x2="15.65" x1="1.3315001" id="linearGradient1024">
      <stop id="stop34" offset="0" stop-color="#dddfe1"/>
      <stop id="stop36" offset="1" stop-opacity=".99608" stop-color="#f3f4f6"/>
    </linearGradient>
    <filter color-interpolation-filters="sRGB" height="1.048" width="1.048" y="-0.024" x="-0.024" id="filter2761-3">
      <feGaussianBlur id="feGaussianBlur2" stdDeviation="0.14552168"/>
    </filter>
    <linearGradient gradientUnits="userSpaceOnUse" gradientTransform="translate(0,-0.07421)" y2="1.17" y1="15.576" x2="15.65" x1="1.3315001" id="linearGradient1024-6">
      <stop id="stop5" offset="0" stop-color="#dddfe1"/>
      <stop id="stop7" offset="1" stop-opacity=".99608" stop-color="#f3f4f6"/>
    </linearGradient>
    <linearGradient inkscape:collect="always" xlink:href="#linearGradient1051" id="linearGradient1053" x1="-127" y1="60" x2="-72" y2="5" gradientUnits="userSpaceOnUse" gradientTransform="translate(131.5,-0.50999935)"/>
    <linearGradient inkscape:collect="always" id="linearGradient1051">
      <stop style="stop-color:#8cd750;stop-opacity:1" offset="0" id="stop1047"/>
      <stop id="stop989" offset="0.4958486" style="stop-color:#7dcd32;stop-opacity:0.99607843"/>
      <stop style="stop-color:#87d241;stop-opacity:0.99607843" offset="1" id="stop1049"/>
    </linearGradient>
    <filter inkscape:collect="always" style="color-interpolation-filters:sRGB" id="filter1057" x="-0.026999999" width="1.054" y="-0.026999999" height="1.054">
      <feGaussianBlur inkscape:collect="always" stdDeviation="0.61875" id="feGaussianBlur1059"/>
    </filter>
  <radialGradient id="gradient_ds_br" cx="0" cy="0" r="1" gradientUnits="userSpaceOnUse" gradientTransform="matrix(13.998399,0.00477622,-0.00477841,14.004799,47.5016,48.4952)">
      <stop offset="0.65" id="stop1"/>
      <stop offset="1" stop-opacity="0" id="stop2"/>
    </radialGradient><linearGradient id="gradient_ds_b" x1="30.448999" y1="48.5" x2="30.492201" y2="62.500301" gradientUnits="userSpaceOnUse">
      <stop offset="0.653846" id="stop3"/>
      <stop offset="1" stop-opacity="0" id="stop4"/>
    </linearGradient><radialGradient id="gradient_ds_bl" cx="0" cy="0" r="1" gradientUnits="userSpaceOnUse" gradientTransform="matrix(0,14,-14,0,16.5,48.5)">
      <stop offset="0.65" id="stop5"/>
      <stop offset="1" stop-opacity="0" id="stop6"/>
    </radialGradient><linearGradient id="gradient_ds_r" x1="47.5" y1="33.5" x2="61.5" y2="33.5009" gradientUnits="userSpaceOnUse">
      <stop offset="0.649038" id="stop7"/>
      <stop offset="1" stop-opacity="0" id="stop8"/>
    </linearGradient><linearGradient id="gradient_ds_l" x1="16.5" y1="33.894699" x2="2.5" y2="33.894699" gradientUnits="userSpaceOnUse">
      <stop offset="0.649038" id="stop9"/>
      <stop offset="1" stop-opacity="0" id="stop10"/>
    </linearGradient><radialGradient id="gradient_ds_tr" cx="0" cy="0" r="1" gradientTransform="matrix(0.00843236,-14,14.0084,0.0189842,47.4916,18.5)" gradientUnits="userSpaceOnUse">
      <stop offset="0.65" id="stop11"/>
      <stop offset="1" stop-opacity="0" id="stop12"/>
    </radialGradient><linearGradient id="gradient_ds_t" x1="29.98" y1="18.5" x2="29.9158" y2="4.4998598" gradientUnits="userSpaceOnUse">
      <stop offset="0.649038" id="stop13"/>
      <stop offset="1" stop-opacity="0" id="stop14"/>
    </linearGradient><radialGradient id="gradient_ds_tl" cx="0" cy="0" r="1" gradientTransform="matrix(-0.00843236,-14,-14.0084,0.0189842,16.5084,18.5)" gradientUnits="userSpaceOnUse">
      <stop offset="0.65" id="stop15"/>
      <stop offset="1" stop-opacity="0" id="stop16"/>
    </radialGradient></defs>
  
  <g id="ds" opacity="0.25">
    <path id="ds-br" d="m 47.5,48.5 h 14 v 14 h -14 z" fill="url(#gradient_ds_br)" style="fill:url(#gradient_ds_br)"/>
    <path id="ds-b" d="m 16.5,48.5 h 31 v 14 h -31 z" fill="url(#gradient_ds_b)" style="fill:url(#gradient_ds_b)"/>
    <path id="ds-bl" d="m 2.5,48.5 h 14 v 14 h -14 z" fill="url(#gradient_ds_bl)" style="fill:url(#gradient_ds_bl)"/>
    <path id="ds-r" d="m 47.5,18.5 h 14 v 30 h -14 z" fill="url(#gradient_ds_r)" style="fill:url(#gradient_ds_r)"/>
    <path id="ds-l" d="m 2.5,18.5 h 14 v 30 h -14 z" fill="url(#gradient_ds_l)" style="fill:url(#gradient_ds_l)"/>
    <path id="ds-tr" d="m 47.5,4.5 h 14 v 14 h -14 z" fill="url(#gradient_ds_tr)" style="fill:url(#gradient_ds_tr)"/>
    <path id="ds-t" d="m 16.5,4.5 h 31 v 14 h -31 z" fill="url(#gradient_ds_t)" style="fill:url(#gradient_ds_t)"/>
    <path id="ds-tl" d="m 16.5,4.5 h -14 v 14 h 14 z" fill="url(#gradient_ds_tl)" style="fill:url(#gradient_ds_tl)"/>
  </g><rect style="fill:url(#linearGradient1053);fill-opacity:1;stroke-width:2.74436;stroke-linecap:round" id="bg" width="55" height="55" x="4.5" y="4.5" rx="10"/>
  <g id="art"><path style="fill:#ffffff;fill-rule:evenodd;stroke-width:3.7796" inkscape:connector-curvature="0" id="path15" d="m 34.549528,15.995276 -5.559795,0.396858 v 22.148468 l 5.559795,-0.676549 v -9.668222 c 2.411386,3.639757 4.346541,7.02628 7.578101,10.54509 l 5.760114,-1.655466 A 75.229198,75.229198 0 0 1 40.400351,26.937223 c 2.18461,-3.224 4.924821,-6.463119 7.60078,-9.358294 l -5.967992,-1.466486 a 95.170378,95.170378 0 0 0 -7.483611,9.645545 M 21.880302,20.542137 a 0.45355224,0.45355224 0 0 0 -0.245674,0.128506 c -0.653871,0.619855 -1.273726,1.23971 -1.927597,1.859565 -0.28347,0.27591 0.0076,0.604736 0.132286,0.831512 l 1.322861,1.829327 0.990255,1.3342 c 0.139846,0.18898 0.181421,0.211658 0.109609,0.347723 -0.09071,0.139845 -0.162523,0.253234 -0.245674,0.396858 -1.285065,2.161933 -0.38552,2.328235 -3.13707,3.027462 L 16.7665,30.648793 c -0.309927,0.102049 -0.718124,0.09449 -0.740802,0.529144 0,0.869308 -0.02646,1.738617 -0.02646,2.607925 -0.01512,0.404418 0.434654,0.442214 0.699227,0.510247 l 2.245083,0.389299 1.681923,0.306147 c 0.226776,0.03024 0.279691,-0.02268 0.332605,0.151184 0.687888,2.898955 1.587433,2.229966 0.08693,4.769858 l -1.209473,1.681923 c -0.158743,0.291029 -0.453552,0.578279 -0.151184,0.873088 0.634973,0.631194 1.243489,1.266167 1.882242,1.89736 0.28347,0.275911 0.646312,-0.0076 0.876868,-0.132286 l 1.859564,-1.292624 1.390893,-0.933561 c 0.18898,-0.158744 0.215438,-0.19654 0.359063,-0.113388 2.785566,1.7046 2.883836,0.476229 3.69645,3.341168 l 0.400638,2.052324 c 0.105829,0.302368 0.113388,0.699226 0.540483,0.718124 h 2.709975 c 0.404417,0 0.442213,-0.464891 0.491348,-0.718124 l 0.37796,-2.18461 0.272132,-1.61389 c 0.0189,-0.154964 0.01134,-0.234336 0.04158,-0.28725 3.265576,-0.672769 2.456742,-1.61767 5.110021,-0.109609 l 1.723499,1.179236 c 0.317486,0.154964 0.619855,0.427095 0.922223,0.136066 0.638753,-0.604736 1.273726,-1.213252 1.916258,-1.814209 0.28725,-0.291029 0.0038,-0.623634 -0.132286,-0.846631 H 44.0968 l -1.254828,-1.723498 -0.827733,0.27969 c -0.211658,0.139845 -0.491348,0.08693 -0.744582,-0.238115 L 39.45545,37.727987 a 9.3431761,9.3431761 0 0 1 -7.532746,3.756925 c -5.106242,0 -9.278922,-4.059293 -9.278922,-9.033249 0,-3.537708 2.105238,-6.599185 5.155377,-8.080789 v -2.078781 c -0.10205,0.05291 -0.226776,0.07937 -0.309928,0.113388 -1.194354,0.480009 -1.269946,0.699226 -3.224,-0.393079 L 22.541732,20.814268 C 22.299838,20.708439 22.08818,20.5119 21.868963,20.564814 m 5.918857,4.645131 a 8.3264632,8.3264632 0 0 0 -4.354102,7.268175 c 0,4.584657 3.843856,8.337802 8.572138,8.337802 2.921632,0 5.484202,-1.443808 7.030059,-3.635977 l -0.08315,-0.177641 c -1.814208,1.957833 -3.858972,3.22778 -6.973365,3.295813 -3.877871,0.06803 -7.804878,-3.295813 -7.823776,-7.729287 -0.03402,-2.857379 1.322861,-4.777416 3.628418,-6.149412 v -1.201913 m 0.0038,0"/></g>
</svg>
