<?xml version="1.0" encoding="UTF-8" standalone="no"?>
<svg xmlns:inkscape="http://www.inkscape.org/namespaces/inkscape" xmlns:sodipodi="http://sodipodi.sourceforge.net/DTD/sodipodi-0.dtd" xmlns="http://www.w3.org/2000/svg" xmlns:svg="http://www.w3.org/2000/svg" xmlns:rdf="http://www.w3.org/1999/02/22-rdf-syntax-ns#" xmlns:cc="http://creativecommons.org/ns#" xmlns:dc="http://purl.org/dc/elements/1.1/" width="64" height="64" version="1.1" viewBox="0 0 64 64" id="svg2" sodipodi:docname="airwave-manager.svg" inkscape:version="1.4.2 (ebf0e940d0, 2025-05-08)">
  <metadata id="metadata1">
    <rdf:RDF>
      <cc:Work rdf:about="">
        <dc:format>image/svg+xml</dc:format>
        <dc:type rdf:resource="http://purl.org/dc/dcmitype/StillImage"/>
      </cc:Work>
    </rdf:RDF>
  </metadata>
  <defs id="defs2">
    <linearGradient id="linearGradient862" x1="7.9373" x2="7.9373" y1="15.081" y2="1.852" gradientTransform="matrix(3.7119746,0,0,3.7119746,0.5715688,0.60240692)" gradientUnits="userSpaceOnUse">
      <stop stop-color="#ff540d" offset="0" id="stop1"/>
      <stop stop-color="#ff9f00" offset="1" id="stop2"/>
    </linearGradient>
    <filter inkscape:collect="always" style="color-interpolation-filters:sRGB" id="filter1057" x="-0.026999999" width="1.054" y="-0.026999999" height="1.054">
      <feGaussianBlur inkscape:collect="always" stdDeviation="0.61875" id="feGaussianBlur1059"/>
    </filter>
  <radialGradient id="gradient_ds_br" cx="0" cy="0" r="1" gradientUnits="userSpaceOnUse" gradientTransform="matrix(13.998399,0.00477622,-0.00477841,14.004799,47.5016,48.4952)">
      <stop offset="0.65" id="stop1"/>
      <stop offset="1" stop-opacity="0" id="stop2"/>
    </radialGradient><linearGradient id="gradient_ds_b" x1="30.448999" y1="48.5" x2="30.492201" y2="62.500301" gradientUnits="userSpaceOnUse">
      <stop offset="0.653846" id="stop3"/>
      <stop offset="1" stop-opacity="0" id="stop4"/>
    </linearGradient><radialGradient id="gradient_ds_bl" cx="0" cy="0" r="1" gradientUnits="userSpaceOnUse" gradientTransform="matrix(0,14,-14,0,16.5,48.5)">
      <stop offset="0.65" id="stop5"/>
      <stop offset="1" stop-opacity="0" id="stop6"/>
    </radialGradient><linearGradient id="gradient_ds_r" x1="47.5" y1="33.5" x2="61.5" y2="33.5009" gradientUnits="userSpaceOnUse">
      <stop offset="0.649038" id="stop7"/>
      <stop offset="1" stop-opacity="0" id="stop8"/>
    </linearGradient><linearGradient id="gradient_ds_l" x1="16.5" y1="33.894699" x2="2.5" y2="33.894699" gradientUnits="userSpaceOnUse">
      <stop offset="0.649038" id="stop9"/>
      <stop offset="1" stop-opacity="0" id="stop10"/>
    </linearGradient><radialGradient id="gradient_ds_tr" cx="0" cy="0" r="1" gradientTransform="matrix(0.00843236,-14,14.0084,0.0189842,47.4916,18.5)" gradientUnits="userSpaceOnUse">
      <stop offset="0.65" id="stop11"/>
      <stop offset="1" stop-opacity="0" id="stop12"/>
    </radialGradient><linearGradient id="gradient_ds_t" x1="29.98" y1="18.5" x2="29.9158" y2="4.4998598" gradientUnits="userSpaceOnUse">
      <stop offset="0.649038" id="stop13"/>
      <stop offset="1" stop-opacity="0" id="stop14"/>
    </linearGradient><radialGradient id="gradient_ds_tl" cx="0" cy="0" r="1" gradientTransform="matrix(-0.00843236,-14,-14.0084,0.0189842,16.5084,18.5)" gradientUnits="userSpaceOnUse">
      <stop offset="0.65" id="stop15"/>
      <stop offset="1" stop-opacity="0" id="stop16"/>
    </radialGradient></defs>
  
  <g id="ds" opacity="0.25">
    <path id="ds-br" d="m 47.5,48.5 h 14 v 14 h -14 z" fill="url(#gradient_ds_br)" style="fill:url(#gradient_ds_br)"/>
    <path id="ds-b" d="m 16.5,48.5 h 31 v 14 h -31 z" fill="url(#gradient_ds_b)" style="fill:url(#gradient_ds_b)"/>
    <path id="ds-bl" d="m 2.5,48.5 h 14 v 14 h -14 z" fill="url(#gradient_ds_bl)" style="fill:url(#gradient_ds_bl)"/>
    <path id="ds-r" d="m 47.5,18.5 h 14 v 30 h -14 z" fill="url(#gradient_ds_r)" style="fill:url(#gradient_ds_r)"/>
    <path id="ds-l" d="m 2.5,18.5 h 14 v 30 h -14 z" fill="url(#gradient_ds_l)" style="fill:url(#gradient_ds_l)"/>
    <path id="ds-tr" d="m 47.5,4.5 h 14 v 14 h -14 z" fill="url(#gradient_ds_tr)" style="fill:url(#gradient_ds_tr)"/>
    <path id="ds-t" d="m 16.5,4.5 h 31 v 14 h -31 z" fill="url(#gradient_ds_t)" style="fill:url(#gradient_ds_t)"/>
    <path id="ds-tl" d="m 16.5,4.5 h -14 v 14 h 14 z" fill="url(#gradient_ds_tl)" style="fill:url(#gradient_ds_tl)"/>
  </g><rect x="4.5" y="4.5" width="55" height="55" rx="10" fill="url(#linearGradient862)" stroke-width="3.71197" id="bg" style="display:inline;fill:url(#linearGradient862)"/>
  <g id="art"><path d="m28 14.5c-0.73866 0-1.3106 0.52134-1.3337 1.1672l-0.14314 4.0126a13.5 13.5 0 0 0-2.4555 1.4163l-3.546-1.8818c-0.57091-0.30298-1.3076-0.06829-1.677 0.5714l-3.9998 6.9278c-0.36932 0.63969-0.21642 1.4155 0.34331 1.7387l3.3912 2.1227a13.5 13.5 0 0 0-0.07913 1.4256 13.5 13.5 0 0 0 0.08961 1.4175l-3.4017 2.1297c-0.55973 0.32316-0.71263 1.0978-0.34331 1.7375l3.9998 6.929c0.36933 0.63969 1.1061 0.87438 1.677 0.5714l3.5436-1.8806a13.5 13.5 0 0 0 2.4579 1.4233l0.14314 4.0045c0 0.64632 0.59501 1.1672 1.3337 1.1672h7.9997c0.73865 0 1.3106-0.52134 1.3337-1.1672l0.14314-4.0126a13.5 13.5 0 0 0 2.4555-1.4163l3.546 1.8818c0.57091 0.30298 1.3077 0.06829 1.677-0.5714l3.9998-6.929c0.36933-0.63969 0.21642-1.4143-0.34331-1.7375l-3.3912-2.1227a13.5 13.5 0 0 0 0.07914-1.4244 13.5 13.5 0 0 0-0.08961-1.4186l3.4017-2.1297c0.55973-0.32316 0.71264-1.099 0.34331-1.7387l-3.9998-6.9278c-0.36932-0.63969-1.1061-0.87438-1.677-0.5714l-3.5436 1.8806a13.5 13.5 0 0 0-2.4579-1.4233l-0.14314-4.0045c0-0.64632-0.59502-1.1672-1.3337-1.1672zm3.9998 12.666a4.8332 4.8332 0 0 1 4.8331 4.8342 4.8332 4.8332 0 0 1-4.8331 4.8331 4.8332 4.8332 0 0 1-4.8331-4.8331 4.8332 4.8332 0 0 1 4.8331-4.8342z" fill="#fff" id="path2"/></g>
</svg>
