<?xml version="1.0" encoding="UTF-8" standalone="no"?>
<svg xmlns:inkscape="http://www.inkscape.org/namespaces/inkscape" xmlns:sodipodi="http://sodipodi.sourceforge.net/DTD/sodipodi-0.dtd" xmlns="http://www.w3.org/2000/svg" xmlns:svg="http://www.w3.org/2000/svg" xmlns:rdf="http://www.w3.org/1999/02/22-rdf-syntax-ns#" xmlns:cc="http://creativecommons.org/ns#" xmlns:dc="http://purl.org/dc/elements/1.1/" width="64" height="64" version="1.1" viewBox="0 0 64 64" id="svg34" sodipodi:docname="breeze-settings.svg" inkscape:version="1.4.2 (ebf0e940d0, 2025-05-08)">
  <sodipodi:namedview id="namedview1" pagecolor="#ffffff" bordercolor="#000000" borderopacity="0.25" inkscape:showpageshadow="2" inkscape:pageopacity="0.0" inkscape:pagecheckerboard="0" inkscape:deskcolor="#d1d1d1" inkscape:current-layer="art"/>
  <defs id="defs10">
    <filter id="filter1057-3" x="-0.026999999" y="-0.026999999" width="1.054" height="1.054" color-interpolation-filters="sRGB">
      <feGaussianBlur stdDeviation="0.61875" id="feGaussianBlur2"/>
    </filter>
    <linearGradient id="linearGradient1053-6" x1="-127" x2="-72" y1="60" y2="5" gradientTransform="matrix(0.26459,0,0,0.26459,58.89838,-0.135)" gradientUnits="userSpaceOnUse">
      <stop stop-color="#32d7ff" offset="0" id="stop5"/>
      <stop stop-color="#329bff" offset="1" id="stop7"/>
    </linearGradient>
    <filter id="filter2076" x="-0.048" y="-0.048" width="1.096" height="1.096" color-interpolation-filters="sRGB">
      <feGaussianBlur stdDeviation="1.1" id="feGaussianBlur265"/>
    </filter>
    <linearGradient id="linearGradient1828" x1="145" x2="200" y1="59" y2="4" gradientTransform="matrix(1.0000071,0,0,1.0000071,-140.50202,0.49943774)" gradientUnits="userSpaceOnUse">
      <stop stop-color="#e1e1e1" offset="0" id="stop268"/>
      <stop stop-color="#f5f5f5" offset="1" id="stop270"/>
    </linearGradient>
    <linearGradient id="linearGradient2211" x1="8" x2="56" y1="36.227001" y2="36.227001" gradientTransform="matrix(0.26458,0,0,0.26458,-5.97e-5,-5.97e-5)" gradientUnits="userSpaceOnUse">
      <stop stop-color="#32c8ff" offset="0" id="stop273"/>
      <stop stop-color="#32abff" offset="1" id="stop275"/>
    </linearGradient>
    <filter id="filter2076-7" x="-0.048000001" y="-0.048000001" width="1.096" height="1.096" color-interpolation-filters="sRGB">
      <feGaussianBlur stdDeviation="1.1" id="feGaussianBlur265-5"/>
    </filter>
  <radialGradient id="gradient_ds_br" cx="0" cy="0" r="1" gradientUnits="userSpaceOnUse" gradientTransform="matrix(13.998399,0.00477622,-0.00477841,14.004799,47.5016,48.4952)">
      <stop offset="0.65" id="stop1"/>
      <stop offset="1" stop-opacity="0" id="stop2"/>
    </radialGradient><linearGradient id="gradient_ds_b" x1="30.448999" y1="48.5" x2="30.492201" y2="62.500301" gradientUnits="userSpaceOnUse">
      <stop offset="0.653846" id="stop3"/>
      <stop offset="1" stop-opacity="0" id="stop4"/>
    </linearGradient><radialGradient id="gradient_ds_bl" cx="0" cy="0" r="1" gradientUnits="userSpaceOnUse" gradientTransform="matrix(0,14,-14,0,16.5,48.5)">
      <stop offset="0.65" id="stop5"/>
      <stop offset="1" stop-opacity="0" id="stop6"/>
    </radialGradient><linearGradient id="gradient_ds_r" x1="47.5" y1="33.5" x2="61.5" y2="33.5009" gradientUnits="userSpaceOnUse">
      <stop offset="0.649038" id="stop7"/>
      <stop offset="1" stop-opacity="0" id="stop8"/>
    </linearGradient><linearGradient id="gradient_ds_l" x1="16.5" y1="33.894699" x2="2.5" y2="33.894699" gradientUnits="userSpaceOnUse">
      <stop offset="0.649038" id="stop9"/>
      <stop offset="1" stop-opacity="0" id="stop10"/>
    </linearGradient><radialGradient id="gradient_ds_tr" cx="0" cy="0" r="1" gradientTransform="matrix(0.00843236,-14,14.0084,0.0189842,47.4916,18.5)" gradientUnits="userSpaceOnUse">
      <stop offset="0.65" id="stop11"/>
      <stop offset="1" stop-opacity="0" id="stop12"/>
    </radialGradient><linearGradient id="gradient_ds_t" x1="29.98" y1="18.5" x2="29.9158" y2="4.4998598" gradientUnits="userSpaceOnUse">
      <stop offset="0.649038" id="stop13"/>
      <stop offset="1" stop-opacity="0" id="stop14"/>
    </linearGradient><radialGradient id="gradient_ds_tl" cx="0" cy="0" r="1" gradientTransform="matrix(-0.00843236,-14,-14.0084,0.0189842,16.5084,18.5)" gradientUnits="userSpaceOnUse">
      <stop offset="0.65" id="stop15"/>
      <stop offset="1" stop-opacity="0" id="stop16"/>
    </radialGradient></defs>
  <metadata id="metadata12">
    <rdf:RDF>
      <cc:Work rdf:about="">
        <dc:format>image/svg+xml</dc:format>
        <dc:type rdf:resource="http://purl.org/dc/dcmitype/StillImage"/>
      </cc:Work>
    </rdf:RDF>
  </metadata>
  
  <g id="ds" opacity="0.25">
    <path id="ds-br" d="m 47.5,48.5 h 14 v 14 h -14 z" fill="url(#gradient_ds_br)" style="fill:url(#gradient_ds_br)"/>
    <path id="ds-b" d="m 16.5,48.5 h 31 v 14 h -31 z" fill="url(#gradient_ds_b)" style="fill:url(#gradient_ds_b)"/>
    <path id="ds-bl" d="m 2.5,48.5 h 14 v 14 h -14 z" fill="url(#gradient_ds_bl)" style="fill:url(#gradient_ds_bl)"/>
    <path id="ds-r" d="m 47.5,18.5 h 14 v 30 h -14 z" fill="url(#gradient_ds_r)" style="fill:url(#gradient_ds_r)"/>
    <path id="ds-l" d="m 2.5,18.5 h 14 v 30 h -14 z" fill="url(#gradient_ds_l)" style="fill:url(#gradient_ds_l)"/>
    <path id="ds-tr" d="m 47.5,4.5 h 14 v 14 h -14 z" fill="url(#gradient_ds_tr)" style="fill:url(#gradient_ds_tr)"/>
    <path id="ds-t" d="m 16.5,4.5 h 31 v 14 h -31 z" fill="url(#gradient_ds_t)" style="fill:url(#gradient_ds_t)"/>
    <path id="ds-tl" d="m 16.5,4.5 h -14 v 14 h 14 z" fill="url(#gradient_ds_tl)" style="fill:url(#gradient_ds_tl)"/>
  </g><rect x="4.5" y="4.5" width="55" height="55" rx="10" stroke-width="1.00001" id="bg" style="fill:#eaecf0;fill-opacity:1"/>
  <g id="art">
    <rect x="6.9995971" y="6.9995975" width="50.000355" height="50.000355" rx="11.820327" ry="11.820327" fill="url(#linearGradient1828)" fill-opacity="0" stroke-width="0.90907" id="rect286" style="fill:url(#linearGradient1828)"/>
    <rect x="8.0000572" y="16.227116" width="48.000946" height="39.999527" ry="7" stroke-linecap="round" stroke-linejoin="round" stroke-width="2.02118" style="display:inline;fill:#ffffff;fill-opacity:1;paint-order:stroke fill markers" id="rect288"/>
    <g stroke-width="0.13229" id="g296" transform="matrix(3.779602,0,0,3.779602,32.505485,-16.235506)">
      <circle cx="-4.5781002" cy="7.2765999" r="0.52916998" fill="#ffd34f" id="circle290"/>
      <circle cx="-2.9906001" cy="7.2765999" r="0.52916998" fill="#3bcf32" id="circle292"/>
      <circle cx="-1.4031" cy="7.2765999" r="0.52916998" fill="#fd4605" id="circle294"/>
    </g>
    <path d="m 34.343847,25.782568 c -1.896918,-6e-6 -3.467273,1.337471 -3.82665,3.125092 l -11.015616,5e-5 1.9e-5,1.562482 11.015616,-5.6e-5 c 0.359312,1.787557 1.929732,3.125028 3.826585,3.125028 1.896915,6e-6 3.467266,-1.337471 3.826645,-3.125091 l 6.329552,6e-6 -2.6e-5,-1.562483 -6.329552,-6e-6 C 37.811104,27.120096 36.240689,25.782562 34.343839,25.782562 M 23.406333,38.858595 c -2.164068,-3.1e-5 -3.906269,1.742268 -3.906333,3.906335 1.9e-5,2.164129 1.742203,3.906268 3.90627,3.906268 1.896914,-4e-6 3.46727,-1.337469 3.826646,-3.125028 l 17.266428,5.3e-5 -2.6e-5,-1.562487 H 27.232891 c -0.359313,-1.787491 -1.929733,-3.125028 -3.826583,-3.125028 m 2.5e-5,1.562487 c 1.298478,-2.6e-5 2.343787,1.045246 2.343787,2.343785 -3.2e-5,1.298414 -1.045309,2.343787 -2.343787,2.343787 -1.298478,2.3e-5 -2.343787,-1.045309 -2.343787,-2.343787 3.1e-5,-1.298415 1.045246,-2.343785 2.343787,-2.343785" fill="#329fff" stroke-width="1.56248" id="path1594" sodipodi:nodetypes="cccccscccccccscccccccccc"/>
  </g>
</svg>
