<?xml version="1.0" encoding="UTF-8" standalone="no"?>
<svg
   width="64"
   height="64"
   version="1.1"
   viewBox="0 0 64 64"
   id="svg15"
   sodipodi:docname="cpuinfo.svg"
   inkscape:version="1.4.2 (ebf0e940d0, 2025-05-08)"
   xmlns:inkscape="http://www.inkscape.org/namespaces/inkscape"
   xmlns:sodipodi="http://sodipodi.sourceforge.net/DTD/sodipodi-0.dtd"
   xmlns="http://www.w3.org/2000/svg"
   xmlns:svg="http://www.w3.org/2000/svg"
   xmlns:rdf="http://www.w3.org/1999/02/22-rdf-syntax-ns#"
   xmlns:cc="http://creativecommons.org/ns#"
   xmlns:dc="http://purl.org/dc/elements/1.1/">
  <sodipodi:namedview
     id="namedview1"
     pagecolor="#ffffff"
     bordercolor="#000000"
     borderopacity="0.25"
     inkscape:showpageshadow="2"
     inkscape:pageopacity="0.0"
     inkscape:pagecheckerboard="0"
     inkscape:deskcolor="#d1d1d1"
     inkscape:current-layer="svg15" />
  <defs
     id="defs1">
    <filter
       id="filter1057"
       x="-0.026999999"
       y="-0.026999999"
       width="1.054"
       height="1.054"
       color-interpolation-filters="sRGB">
      <feGaussianBlur
         stdDeviation="0.61875"
         id="feGaussianBlur1" />
    </filter>
    <filter
       id="filter1057-6"
       x="-0.026999999"
       y="-0.026999999"
       width="1.054"
       height="1.054"
       color-interpolation-filters="sRGB">
      <feGaussianBlur
         stdDeviation="0.61875"
         id="feGaussianBlur1-7" />
    </filter>
    <radialGradient
       id="gradient_ds_br"
       cx="0"
       cy="0"
       r="1"
       gradientUnits="userSpaceOnUse"
       gradientTransform="matrix(13.998399,0.00477622,-0.00477841,14.004799,47.5016,48.4952)">
      <stop
         offset="0.65"
         id="stop1" />
      <stop
         offset="1"
         stop-opacity="0"
         id="stop2" />
    </radialGradient>
    <linearGradient
       id="gradient_ds_b"
       x1="30.448999"
       y1="48.5"
       x2="30.492201"
       y2="62.500301"
       gradientUnits="userSpaceOnUse">
      <stop
         offset="0.653846"
         id="stop3" />
      <stop
         offset="1"
         stop-opacity="0"
         id="stop4" />
    </linearGradient>
    <radialGradient
       id="gradient_ds_bl"
       cx="0"
       cy="0"
       r="1"
       gradientUnits="userSpaceOnUse"
       gradientTransform="matrix(0,14,-14,0,16.5,48.5)">
      <stop
         offset="0.65"
         id="stop5" />
      <stop
         offset="1"
         stop-opacity="0"
         id="stop6" />
    </radialGradient>
    <linearGradient
       id="gradient_ds_r"
       x1="47.5"
       y1="33.5"
       x2="61.5"
       y2="33.5009"
       gradientUnits="userSpaceOnUse">
      <stop
         offset="0.649038"
         id="stop7" />
      <stop
         offset="1"
         stop-opacity="0"
         id="stop8" />
    </linearGradient>
    <linearGradient
       id="gradient_ds_l"
       x1="16.5"
       y1="33.894699"
       x2="2.5"
       y2="33.894699"
       gradientUnits="userSpaceOnUse">
      <stop
         offset="0.649038"
         id="stop9" />
      <stop
         offset="1"
         stop-opacity="0"
         id="stop10" />
    </linearGradient>
    <radialGradient
       id="gradient_ds_tr"
       cx="0"
       cy="0"
       r="1"
       gradientTransform="matrix(0.00843236,-14,14.0084,0.0189842,47.4916,18.5)"
       gradientUnits="userSpaceOnUse">
      <stop
         offset="0.65"
         id="stop11" />
      <stop
         offset="1"
         stop-opacity="0"
         id="stop12" />
    </radialGradient>
    <linearGradient
       id="gradient_ds_t"
       x1="29.98"
       y1="18.5"
       x2="29.9158"
       y2="4.4998598"
       gradientUnits="userSpaceOnUse">
      <stop
         offset="0.649038"
         id="stop13" />
      <stop
         offset="1"
         stop-opacity="0"
         id="stop14" />
    </linearGradient>
    <radialGradient
       id="gradient_ds_tl"
       cx="0"
       cy="0"
       r="1"
       gradientTransform="matrix(-0.00843236,-14,-14.0084,0.0189842,16.5084,18.5)"
       gradientUnits="userSpaceOnUse">
      <stop
         offset="0.65"
         id="stop15" />
      <stop
         offset="1"
         stop-opacity="0"
         id="stop16" />
    </radialGradient>
  </defs>
  <metadata
     id="metadata1">
    <rdf:RDF>
      <cc:Work
         rdf:about="">
        <dc:format>image/svg+xml</dc:format>
        <dc:type
           rdf:resource="http://purl.org/dc/dcmitype/StillImage" />
      </cc:Work>
    </rdf:RDF>
  </metadata>
  <g
     id="ds"
     opacity="0.25">
    <path
       id="ds-br"
       d="m 47.5,48.5 h 14 v 14 h -14 z"
       fill="url(#gradient_ds_br)"
       style="fill:url(#gradient_ds_br)" />
    <path
       id="ds-b"
       d="m 16.5,48.5 h 31 v 14 h -31 z"
       fill="url(#gradient_ds_b)"
       style="fill:url(#gradient_ds_b)" />
    <path
       id="ds-bl"
       d="m 2.5,48.5 h 14 v 14 h -14 z"
       fill="url(#gradient_ds_bl)"
       style="fill:url(#gradient_ds_bl)" />
    <path
       id="ds-r"
       d="m 47.5,18.5 h 14 v 30 h -14 z"
       fill="url(#gradient_ds_r)"
       style="fill:url(#gradient_ds_r)" />
    <path
       id="ds-l"
       d="m 2.5,18.5 h 14 v 30 h -14 z"
       fill="url(#gradient_ds_l)"
       style="fill:url(#gradient_ds_l)" />
    <path
       id="ds-tr"
       d="m 47.5,4.5 h 14 v 14 h -14 z"
       fill="url(#gradient_ds_tr)"
       style="fill:url(#gradient_ds_tr)" />
    <path
       id="ds-t"
       d="m 16.5,4.5 h 31 v 14 h -31 z"
       fill="url(#gradient_ds_t)"
       style="fill:url(#gradient_ds_t)" />
    <path
       id="ds-tl"
       d="m 16.5,4.5 h -14 v 14 h 14 z"
       fill="url(#gradient_ds_tl)"
       style="fill:url(#gradient_ds_tl)" />
  </g>
  <rect
     x="4.5"
     y="4.5"
     width="55"
     height="55"
     fill="#008237"
     stroke-linecap="round"
     stroke-width="2.74441"
     id="bg"
     rx="10" />
  <g
     id="art">
    <path
       id="path2"
       d="M 13.421875 37.365234 L 4.5 44.501953 L 4.5 48.384766 L 8.7402344 45.556641 L 8.7402344 47.894531 L 4.5683594 50.677734 C 4.6445301 51.332783 4.7828632 51.968639 4.9785156 52.578125 L 6.4003906 52.578125 L 6.4003906 55.380859 C 8.0168089 57.607352 10.53209 59.13629 13.421875 59.443359 L 13.421875 49.066406 L 20.443359 43.214844 L 23.953125 43.214844 L 16.931641 49.066406 L 16.931641 59.5 L 49.5 59.5 C 55.04 59.5 59.5 55.04 59.5 49.5 L 59.5 46.224609 L 54.376953 39.705078 L 52.037109 39.705078 L 49.697266 37.365234 L 13.421875 37.365234 z "
       style="fill:#43a047;fill-opacity:1" />
    <path
       id="path3"
       d="M 14.5 4.5 C 8.96 4.5 4.5 8.96 4.5 14.5 L 4.5 24.488281 L 52.195312 24.488281 L 59.5 16.138672 L 59.5 14.5 C 59.5 13.047135 59.193136 11.669129 58.640625 10.425781 L 50.865234 19.173828 L 46.878906 19.173828 L 56.960938 7.828125 C 55.132411 5.7830321 52.471857 4.5 49.5 4.5 L 14.5 4.5 z "
       style="fill:#43a047;fill-opacity:1" />
    <g
       stroke-width="0.26458"
       id="g8"
       transform="matrix(3.779602,0,0,3.779602,7.8929429,-29.965063)">
      <circle
         cx="12.067"
         cy="22.083"
         r="0.39686999"
         fill="#fbc02d"
         id="circle3" />
      <circle
         cx="12.067"
         cy="22.083"
         r="0.13229001"
         fill="#263238"
         id="circle4" />
      <circle
         cx="12.067"
         cy="10.706"
         r="0.39686999"
         fill="#fbc02d"
         id="circle5" />
      <circle
         cx="12.067"
         cy="10.706"
         r="0.13229001"
         fill="#263238"
         id="circle6" />
      <circle
         cx="0.68983001"
         cy="22.083"
         r="0.39686999"
         fill="#fbc02d"
         id="circle7" />
      <circle
         cx="0.68983001"
         cy="22.083"
         r="0.13229001"
         fill="#263238"
         id="circle8" />
    </g>
    <rect
       x="10.000222"
       y="13.001452"
       width="17.000273"
       height="6.0001183"
       ry="1.0000072"
       fill="#263238"
       stroke-width="1.10191"
       id="rect8" />
    <rect
       x="37.000793"
       y="44.001747"
       width="17.000273"
       height="6.0001183"
       ry="1.0000072"
       fill="#eceff1"
       stroke-width="1.00001"
       id="rect9" />
    <g
       fill="#37474f"
       stroke-width="0.26458"
       id="g11"
       transform="matrix(3.779602,0,0,3.779602,7.8929429,-29.965063)">
      <rect
         x="7.9658999"
         y="19.834"
         width="2.3812001"
         height="0.26458001"
         ry="0"
         id="rect10" />
      <path
         d="m 7.9659,20.364 h 1.3229 v 0.26458 H 7.9659 Z"
         id="path10" />
      <path
         d="m 10.876,20.893 0.52917,-0.79375 0.52917,0.79375 z"
         fill-rule="evenodd"
         id="path11" />
    </g>
    <circle
       cx="10.500037"
       cy="10.499357"
       r="1.5000106"
       fill="#fbc02d"
       stroke-width="1.00001"
       id="circle11" />
    <circle
       cx="10.500037"
       cy="10.499357"
       r="0.50000358"
       fill="#263238"
       stroke-width="1.00001"
       id="circle12" />
    <g
       fill="#ffffff"
       stroke-width="0.26458"
       id="g14"
       transform="matrix(3.779602,0,0,3.779602,7.8929429,-29.965063)">
      <rect
         x="0.82212001"
         y="11.632"
         width="1.0583"
         height="0.26458001"
         opacity="0.5"
         style="paint-order:stroke fill markers"
         id="rect12" />
      <rect
         x="0.82212001"
         y="12.161"
         width="2.1166999"
         height="0.26458001"
         opacity="0.5"
         style="paint-order:stroke fill markers"
         id="rect13" />
      <rect
         x="3.7325001"
         y="12.161"
         width="0.79374999"
         height="0.52916998"
         opacity="0.5"
         style="paint-order:stroke fill markers"
         id="rect14" />
    </g>
    <rect
       x="18.000355"
       y="24.000093"
       width="28.000425"
       height="16.000191"
       ry="1.0000072"
       fill="#263238"
       stroke-width="1.00001"
       id="rect15" />
    <path
       d="m 21.000225,27.001098 h 2.000052 v 10.000071 h -2.000052 z m 3.999952,0 h 2.000052 v 10.000071 h -2.000052 z m 3.999953,0 h 2.000052 V 37.001169 H 29.00013 Z m 3.999953,0 h 2.000052 v 10.000071 h -2.000052 z m 3.999953,0 h 2.000052 v 10.000071 h -2.000052 z m 3.999953,0 h 2.000052 v 10.000071 h -2.000052 z"
       fill="#fbc02d"
       fill-rule="evenodd"
       stroke-width="1.00001"
       style="paint-order:fill markers stroke"
       id="path15" />
  </g>
</svg>
