<?xml version="1.0" encoding="UTF-8" standalone="no"?>
<svg xmlns:inkscape="http://www.inkscape.org/namespaces/inkscape" xmlns:sodipodi="http://sodipodi.sourceforge.net/DTD/sodipodi-0.dtd" xmlns:xlink="http://www.w3.org/1999/xlink" xmlns="http://www.w3.org/2000/svg" xmlns:svg="http://www.w3.org/2000/svg" width="64" height="64" version="1.1" id="svg15" sodipodi:docname="io.missioncenter.MissionCenter.svg" inkscape:version="1.4.2 (ebf0e940d0, 2025-05-08)">
  <defs id="defs4">
    <linearGradient xlink:href="#a" id="g" x1="36.418" x2="21.723" y1="218.4" y2="218.4" gradientTransform="matrix(1.0208 0 0 .9305 -2.175 -109.41)"/>
    <linearGradient id="a" gradientUnits="userSpaceOnUse">
      <stop offset="0" stop-color="#4fd2fd" id="stop1"/>
      <stop offset="1" stop-color="#4fd2fd" stop-opacity="0" id="stop2"/>
    </linearGradient>
    <linearGradient xlink:href="#a" id="c" x1="93.539" x2="58.923" y1="240.42" y2="240.42" gradientTransform="matrix(.975 0 0 .98939 3.05 -170.32)"/>
    <linearGradient xlink:href="#a" id="d" x1="36.418" x2="21.723" y1="218.4" y2="218.4" gradientTransform="matrix(1.0208 0 0 .9305 -2.175 -157.41)"/>
    <linearGradient xlink:href="#a" id="e" x1="36.418" x2="21.723" y1="218.4" y2="218.4" gradientTransform="matrix(1.0208 0 0 .9305 -2.175 -141.41)"/>
    <linearGradient xlink:href="#a" id="f" x1="36.418" x2="21.723" y1="218.4" y2="218.4" gradientTransform="matrix(1.0208 0 0 .9305 -2.175 -125.41)"/>
    <linearGradient id="b" x1="7.937" x2="7.937" y1="15.081" y2="1.852" gradientTransform="scale(3.7796)" gradientUnits="userSpaceOnUse">
      <stop offset="0" stop-color="#f1efeb" id="stop3"/>
      <stop offset="1" stop-color="#fdfcfc" id="stop4"/>
    </linearGradient>
    <filter id="filter1057" x="-0.026999999" y="-0.026999999" width="1.054" height="1.054" color-interpolation-filters="sRGB">
      <feGaussianBlur stdDeviation="0.61875" id="feGaussianBlur1"/>
    </filter>
    <linearGradient id="linearGradient1053" x1="-127" x2="-72" y1="60" y2="5" gradientTransform="matrix(1.0000071,0,0,1.0000071,131.50256,-0.5104342)" gradientUnits="userSpaceOnUse">
      <stop stop-color="#dee0e2" offset="0" id="stop1-6"/>
      <stop stop-color="#f1f3f5" stop-opacity=".99608" offset="1" id="stop2-7"/>
    </linearGradient>
  <radialGradient id="gradient_ds_br" cx="0" cy="0" r="1" gradientUnits="userSpaceOnUse" gradientTransform="matrix(13.998399,0.00477622,-0.00477841,14.004799,47.5016,48.4952)">
      <stop offset="0.65" id="stop1"/>
      <stop offset="1" stop-opacity="0" id="stop2"/>
    </radialGradient><linearGradient id="gradient_ds_b" x1="30.448999" y1="48.5" x2="30.492201" y2="62.500301" gradientUnits="userSpaceOnUse">
      <stop offset="0.653846" id="stop3"/>
      <stop offset="1" stop-opacity="0" id="stop4"/>
    </linearGradient><radialGradient id="gradient_ds_bl" cx="0" cy="0" r="1" gradientUnits="userSpaceOnUse" gradientTransform="matrix(0,14,-14,0,16.5,48.5)">
      <stop offset="0.65" id="stop5"/>
      <stop offset="1" stop-opacity="0" id="stop6"/>
    </radialGradient><linearGradient id="gradient_ds_r" x1="47.5" y1="33.5" x2="61.5" y2="33.5009" gradientUnits="userSpaceOnUse">
      <stop offset="0.649038" id="stop7"/>
      <stop offset="1" stop-opacity="0" id="stop8"/>
    </linearGradient><linearGradient id="gradient_ds_l" x1="16.5" y1="33.894699" x2="2.5" y2="33.894699" gradientUnits="userSpaceOnUse">
      <stop offset="0.649038" id="stop9"/>
      <stop offset="1" stop-opacity="0" id="stop10"/>
    </linearGradient><radialGradient id="gradient_ds_tr" cx="0" cy="0" r="1" gradientTransform="matrix(0.00843236,-14,14.0084,0.0189842,47.4916,18.5)" gradientUnits="userSpaceOnUse">
      <stop offset="0.65" id="stop11"/>
      <stop offset="1" stop-opacity="0" id="stop12"/>
    </radialGradient><linearGradient id="gradient_ds_t" x1="29.98" y1="18.5" x2="29.9158" y2="4.4998598" gradientUnits="userSpaceOnUse">
      <stop offset="0.649038" id="stop13"/>
      <stop offset="1" stop-opacity="0" id="stop14"/>
    </linearGradient><radialGradient id="gradient_ds_tl" cx="0" cy="0" r="1" gradientTransform="matrix(-0.00843236,-14,-14.0084,0.0189842,16.5084,18.5)" gradientUnits="userSpaceOnUse">
      <stop offset="0.65" id="stop15"/>
      <stop offset="1" stop-opacity="0" id="stop16"/>
    </radialGradient></defs>
  
  <g id="ds" opacity="0.25">
    <path id="ds-br" d="m 47.5,48.5 h 14 v 14 h -14 z" fill="url(#gradient_ds_br)" style="fill:url(#gradient_ds_br)"/>
    <path id="ds-b" d="m 16.5,48.5 h 31 v 14 h -31 z" fill="url(#gradient_ds_b)" style="fill:url(#gradient_ds_b)"/>
    <path id="ds-bl" d="m 2.5,48.5 h 14 v 14 h -14 z" fill="url(#gradient_ds_bl)" style="fill:url(#gradient_ds_bl)"/>
    <path id="ds-r" d="m 47.5,18.5 h 14 v 30 h -14 z" fill="url(#gradient_ds_r)" style="fill:url(#gradient_ds_r)"/>
    <path id="ds-l" d="m 2.5,18.5 h 14 v 30 h -14 z" fill="url(#gradient_ds_l)" style="fill:url(#gradient_ds_l)"/>
    <path id="ds-tr" d="m 47.5,4.5 h 14 v 14 h -14 z" fill="url(#gradient_ds_tr)" style="fill:url(#gradient_ds_tr)"/>
    <path id="ds-t" d="m 16.5,4.5 h 31 v 14 h -31 z" fill="url(#gradient_ds_t)" style="fill:url(#gradient_ds_t)"/>
    <path id="ds-tl" d="m 16.5,4.5 h -14 v 14 h 14 z" fill="url(#gradient_ds_tl)" style="fill:url(#gradient_ds_tl)"/>
  </g><rect x="4.5" y="4.5" width="55" height="55" fill="url(#linearGradient1053)" stroke-linecap="round" stroke-width="2.74441" id="bg" style="fill:url(#linearGradient1053)" rx="10"/>
  <g id="art"><path fill="#241f31" d="M9 13a2 2 0 0 0-2 2v32a2 2 0 0 0 2 2h12a2 2 0 0 0 2-2V15a2 2 0 0 0-2-2zm19 0c-2.63.037-2.63 3.963 0 4h27c2.63-.037 2.63-3.963 0-4zm0 6a2 2 0 0 0-2 2v18a2 2 0 0 0 2 2h27a2 2 0 0 0 2-2V21a2 2 0 0 0-2-2zm-1 24c-1.315.019-1.315 1.981 0 2h29c1.315-.019 1.315-1.981 0-2zm0 4c-1.315.019-1.315 1.981 0 2h29a1 1 0 0 0 0-2z" color="#000" style="-inkscape-stroke:none" id="path5"/><path fill="#4fd2fd" d="m81.381 225.69-7.06 16.238H54.307v2.309h21.525l4.481-10.303 3.402 22.137 5.92-11.834h20.057v-2.309H88.21l-3.312 6.625z" color="#000" opacity=".35" style="-inkscape-stroke:none" transform="matrix(.4875 0 0 .4947 1.525 -89.16)" id="path6"/><path fill="url(#c)" d="m82.4 52.945-6.898 16.098H57.527a1.134 1.134 0 1 0 0 2.266h19.47L81.35 61.15l3.32 21.898 5.786-11.74h2.67a1.134 1.134 0 0 0 0-2.266h-4.08l-3.215 6.523z" transform="matrix(.5 0 0 .5 0 -4)" id="path7"/><path fill="#4fd2fd" d="m31.256 212.15-2.996 6.893h-8.496v.98h9.139l1.9-4.373 1.447 9.395 2.512-5.022h8.514v-.98h-9.12l-1.406 2.812z" color="#000" opacity=".35" style="-inkscape-stroke:none" transform="matrix(.5104 0 0 .46525 -1.087 -82.705)" id="path8"/><path fill="url(#d)" d="m29.719 40.061-3.02 6.332h-6.656a.477.477 0 0 0 0 .955h7.258l1.98-4.148 1.477 8.75 2.526-4.602H34.5a.477.477 0 0 0 0-.955h-1.783l-1.474 2.69z" transform="matrix(.5 0 0 .5 0 -4)" id="path9"/><path fill="#4fd2fd" d="m31.256 212.15-2.996 6.893h-8.496v.98h9.139l1.9-4.373 1.447 9.395 2.512-5.022h8.514v-.98h-9.12l-1.406 2.812z" color="#000" opacity=".35" style="-inkscape-stroke:none" transform="matrix(.5104 0 0 .46525 -1.087 -74.705)" id="path10"/><path fill="url(#e)" d="m29.719 56.061-3.02 6.332h-6.656a.477.477 0 0 0 0 .955h7.258l1.98-4.148 1.477 8.75 2.526-4.602H34.5a.477.477 0 0 0 0-.955h-1.783l-1.474 2.69z" transform="matrix(.5 0 0 .5 0 -4)" id="path11"/><path fill="#4fd2fd" d="m31.256 212.15-2.996 6.893h-8.496v.98h9.139l1.9-4.373 1.447 9.395 2.512-5.022h8.514v-.98h-9.12l-1.406 2.812z" color="#000" opacity=".35" style="-inkscape-stroke:none" transform="matrix(.5104 0 0 .46525 -1.087 -66.705)" id="path12"/><path fill="url(#f)" d="m29.719 72.061-3.02 6.332h-6.656a.477.477 0 0 0 0 .955h7.258l1.98-4.148 1.477 8.75 2.526-4.602H34.5a.477.477 0 0 0 0-.955h-1.783l-1.474 2.69z" transform="matrix(.5 0 0 .5 0 -4)" id="path13"/><path fill="#4fd2fd" d="m31.256 212.15-2.996 6.893h-8.496v.98h9.139l1.9-4.373 1.447 9.395 2.512-5.022h8.514v-.98h-9.12l-1.406 2.812z" color="#000" opacity=".35" style="-inkscape-stroke:none" transform="matrix(.5104 0 0 .46525 -1.087 -58.703)" id="path14"/><path fill="url(#g)" d="m29.719 88.061-3.02 6.332h-6.656a.477.477 0 0 0 0 .955h7.258l1.98-4.148 1.477 8.75 2.526-4.602H34.5a.477.477 0 0 0 0-.955h-1.783l-1.474 2.69z" transform="matrix(.5 0 0 .5 0 -4)" id="path15"/></g>
  
  
  
  
  
  
  
  
  
  
</svg>
