<?xml version="1.0" encoding="UTF-8" standalone="no"?>
<svg xmlns:inkscape="http://www.inkscape.org/namespaces/inkscape" xmlns:sodipodi="http://sodipodi.sourceforge.net/DTD/sodipodi-0.dtd" xmlns="http://www.w3.org/2000/svg" xmlns:svg="http://www.w3.org/2000/svg" width="64" height="64" version="1.1" id="svg41" sodipodi:docname="org.xfce.panel.separator.svg" inkscape:version="1.2.2 (b0a8486541, 2022-12-01)">
  <defs id="defs18">
    <linearGradient id="b" x1="399.57" x2="399.57" y1="545.8" y2="517.8" gradientTransform="matrix(2.1429,0,0,2.1429,-826.36,-1107.5)" gradientUnits="userSpaceOnUse">
      <stop stop-color="#3889e9" offset="0" id="stop2"/>
      <stop stop-color="#5ea5fb" offset="1" id="stop4"/>
    </linearGradient>
    <filter id="filter900" x="-0.24019478" y="-0.18745117" width="1.4803896" height="1.3749023" color-interpolation-filters="sRGB">
      <feGaussianBlur stdDeviation="1.2009731" id="feGaussianBlur7"/>
    </filter>
    <filter id="filter904" x="-0.24019478" y="-0.18745117" width="1.4803896" height="1.3749023" color-interpolation-filters="sRGB">
      <feGaussianBlur stdDeviation="1.2009731" id="feGaussianBlur10"/>
    </filter>
    <linearGradient id="linearGradient862-5" x1="7.9373" x2="7.9373" y1="15.081" y2="1.852" gradientTransform="scale(3.7796)" gradientUnits="userSpaceOnUse">
      <stop stop-color="#0e71de" offset="0" id="stop13"/>
      <stop stop-color="#25c9ff" offset="1" id="stop15"/>
    </linearGradient>
    <filter id="filter1057" x="-0.026999999" y="-0.026999999" width="1.054" height="1.054" color-interpolation-filters="sRGB">
      <feGaussianBlur stdDeviation="0.61875" id="feGaussianBlur858"/>
    </filter>
    <linearGradient id="linearGradient1053" x1="-127" x2="-72" y1="60" y2="5" gradientTransform="translate(131.5,-0.51)" gradientUnits="userSpaceOnUse">
      <stop stop-color="#32d7ff" offset="0" id="stop861"/>
      <stop stop-color="#329bff" offset="1" id="stop863"/>
    </linearGradient>
  <radialGradient id="gradient_ds_br" cx="0" cy="0" r="1" gradientUnits="userSpaceOnUse" gradientTransform="matrix(13.998399,0.00477622,-0.00477841,14.004799,47.5016,48.4952)">
      <stop offset="0.65" id="stop1"/>
      <stop offset="1" stop-opacity="0" id="stop2"/>
    </radialGradient><linearGradient id="gradient_ds_b" x1="30.448999" y1="48.5" x2="30.492201" y2="62.500301" gradientUnits="userSpaceOnUse">
      <stop offset="0.653846" id="stop3"/>
      <stop offset="1" stop-opacity="0" id="stop4"/>
    </linearGradient><radialGradient id="gradient_ds_bl" cx="0" cy="0" r="1" gradientUnits="userSpaceOnUse" gradientTransform="matrix(0,14,-14,0,16.5,48.5)">
      <stop offset="0.65" id="stop5"/>
      <stop offset="1" stop-opacity="0" id="stop6"/>
    </radialGradient><linearGradient id="gradient_ds_r" x1="47.5" y1="33.5" x2="61.5" y2="33.5009" gradientUnits="userSpaceOnUse">
      <stop offset="0.649038" id="stop7"/>
      <stop offset="1" stop-opacity="0" id="stop8"/>
    </linearGradient><linearGradient id="gradient_ds_l" x1="16.5" y1="33.894699" x2="2.5" y2="33.894699" gradientUnits="userSpaceOnUse">
      <stop offset="0.649038" id="stop9"/>
      <stop offset="1" stop-opacity="0" id="stop10"/>
    </linearGradient><radialGradient id="gradient_ds_tr" cx="0" cy="0" r="1" gradientTransform="matrix(0.00843236,-14,14.0084,0.0189842,47.4916,18.5)" gradientUnits="userSpaceOnUse">
      <stop offset="0.65" id="stop11"/>
      <stop offset="1" stop-opacity="0" id="stop12"/>
    </radialGradient><linearGradient id="gradient_ds_t" x1="29.98" y1="18.5" x2="29.9158" y2="4.4998598" gradientUnits="userSpaceOnUse">
      <stop offset="0.649038" id="stop13"/>
      <stop offset="1" stop-opacity="0" id="stop14"/>
    </linearGradient><radialGradient id="gradient_ds_tl" cx="0" cy="0" r="1" gradientTransform="matrix(-0.00843236,-14,-14.0084,0.0189842,16.5084,18.5)" gradientUnits="userSpaceOnUse">
      <stop offset="0.65" id="stop15"/>
      <stop offset="1" stop-opacity="0" id="stop16"/>
    </radialGradient></defs>
  
  <g id="ds" opacity="0.25">
    <path id="ds-br" d="m 47.5,48.5 h 14 v 14 h -14 z" fill="url(#gradient_ds_br)" style="fill:url(#gradient_ds_br)"/>
    <path id="ds-b" d="m 16.5,48.5 h 31 v 14 h -31 z" fill="url(#gradient_ds_b)" style="fill:url(#gradient_ds_b)"/>
    <path id="ds-bl" d="m 2.5,48.5 h 14 v 14 h -14 z" fill="url(#gradient_ds_bl)" style="fill:url(#gradient_ds_bl)"/>
    <path id="ds-r" d="m 47.5,18.5 h 14 v 30 h -14 z" fill="url(#gradient_ds_r)" style="fill:url(#gradient_ds_r)"/>
    <path id="ds-l" d="m 2.5,18.5 h 14 v 30 h -14 z" fill="url(#gradient_ds_l)" style="fill:url(#gradient_ds_l)"/>
    <path id="ds-tr" d="m 47.5,4.5 h 14 v 14 h -14 z" fill="url(#gradient_ds_tr)" style="fill:url(#gradient_ds_tr)"/>
    <path id="ds-t" d="m 16.5,4.5 h 31 v 14 h -31 z" fill="url(#gradient_ds_t)" style="fill:url(#gradient_ds_t)"/>
    <path id="ds-tl" d="m 16.5,4.5 h -14 v 14 h 14 z" fill="url(#gradient_ds_tl)" style="fill:url(#gradient_ds_tl)"/>
  </g><rect x="4.5" y="4.5" width="55" height="55" fill="url(#linearGradient1053)" stroke-linecap="round" stroke-width="2.7444" id="bg" style="fill:url(#linearGradient1053)" rx="10"/>
  <g id="art"><path d="m 41.414,24.587 q -0.48211,-0.33524 -1.06,-0.2618 c -0.38632,0.04789 -0.70558,0.21711 -0.96422,0.50765 -0.25862,0.29054 -0.38952,0.63218 -0.38952,1.0217 v 12.292 c 0,0.38952 0.1309,0.73115 0.38952,1.0217 0.25861,0.29054 0.57791,0.45976 0.96422,0.50765 0.38632,0.04789 0.73754,-0.0415 1.06,-0.2618 l 8.9174,-6.1458 c 0.28416,-0.19476 0.47891,-0.45656 0.58744,-0.77903 0.10855,-0.32566 0.10855,-0.65131 0,-0.97381 -0.10856,-0.32247 -0.30331,-0.5843 -0.5843,-0.78223 z" fill="#ffffff" stroke-width="1.0015" id="path600"/><path d="m 22.586,24.587 q 0.48211,-0.33524 1.06,-0.2618 c 0.38632,0.04789 0.70558,0.21711 0.96422,0.50765 0.25862,0.29054 0.38952,0.63218 0.38952,1.0217 v 12.292 c 0,0.38952 -0.1309,0.73115 -0.38952,1.0217 -0.25861,0.29054 -0.57791,0.45976 -0.96422,0.50765 -0.38632,0.04789 -0.73754,-0.0415 -1.06,-0.2618 l -8.9174,-6.1458 c -0.28416,-0.19476 -0.47891,-0.45656 -0.58744,-0.77903 -0.10855,-0.32566 -0.10855,-0.65131 0,-0.97381 0.10856,-0.32247 0.30331,-0.5843 0.5843,-0.78223 z" fill="#ffffff" stroke-width="1.0015" id="path602"/><rect style="opacity:0.6;fill:#bae4ff;fill-opacity:1;fill-rule:evenodd;stroke-width:0.0810787;stroke-linecap:round;stroke-linejoin:round;paint-order:stroke fill markers" id="rect3789" width="2.1842895" height="46" x="30.907856" y="9" rx="0" ry="1.0921447"/></g>
  
  
</svg>
