<?xml version="1.0" encoding="UTF-8"?>
<svg xmlns="http://www.w3.org/2000/svg" xmlns:xlink="http://www.w3.org/1999/xlink" width="64" height="64" version="1.1">
  <defs>
    <filter id="filter1057-2" x="-.027" y="-.027" width="1.054" height="1.054" color-interpolation-filters="sRGB">
      <feGaussianBlur stdDeviation="0.61875"/>
    </filter>
    <linearGradient id="linearGradient1053-0" x1="-127" x2="-72" y1="60" y2="5" gradientTransform="translate(131.5 -.51)" gradientUnits="userSpaceOnUse">
      <stop stop-color="#dee0e2" offset="0"/>
      <stop stop-color="#f1f3f5" stop-opacity=".99608" offset="1"/>
    </linearGradient>
  <radialGradient id="gradient_ds_br" cx="0" cy="0" r="1" gradientUnits="userSpaceOnUse" gradientTransform="matrix(13.998399,0.00477622,-0.00477841,14.004799,47.5016,48.4952)">
      <stop offset="0.65" id="stop1"/>
      <stop offset="1" stop-opacity="0" id="stop2"/>
    </radialGradient><linearGradient id="gradient_ds_b" x1="30.448999" y1="48.5" x2="30.492201" y2="62.500301" gradientUnits="userSpaceOnUse">
      <stop offset="0.653846" id="stop3"/>
      <stop offset="1" stop-opacity="0" id="stop4"/>
    </linearGradient><radialGradient id="gradient_ds_bl" cx="0" cy="0" r="1" gradientUnits="userSpaceOnUse" gradientTransform="matrix(0,14,-14,0,16.5,48.5)">
      <stop offset="0.65" id="stop5"/>
      <stop offset="1" stop-opacity="0" id="stop6"/>
    </radialGradient><linearGradient id="gradient_ds_r" x1="47.5" y1="33.5" x2="61.5" y2="33.5009" gradientUnits="userSpaceOnUse">
      <stop offset="0.649038" id="stop7"/>
      <stop offset="1" stop-opacity="0" id="stop8"/>
    </linearGradient><linearGradient id="gradient_ds_l" x1="16.5" y1="33.894699" x2="2.5" y2="33.894699" gradientUnits="userSpaceOnUse">
      <stop offset="0.649038" id="stop9"/>
      <stop offset="1" stop-opacity="0" id="stop10"/>
    </linearGradient><radialGradient id="gradient_ds_tr" cx="0" cy="0" r="1" gradientTransform="matrix(0.00843236,-14,14.0084,0.0189842,47.4916,18.5)" gradientUnits="userSpaceOnUse">
      <stop offset="0.65" id="stop11"/>
      <stop offset="1" stop-opacity="0" id="stop12"/>
    </radialGradient><linearGradient id="gradient_ds_t" x1="29.98" y1="18.5" x2="29.9158" y2="4.4998598" gradientUnits="userSpaceOnUse">
      <stop offset="0.649038" id="stop13"/>
      <stop offset="1" stop-opacity="0" id="stop14"/>
    </linearGradient><radialGradient id="gradient_ds_tl" cx="0" cy="0" r="1" gradientTransform="matrix(-0.00843236,-14,-14.0084,0.0189842,16.5084,18.5)" gradientUnits="userSpaceOnUse">
      <stop offset="0.65" id="stop15"/>
      <stop offset="1" stop-opacity="0" id="stop16"/>
    </radialGradient></defs>
  
  <g id="ds" opacity="0.25">
    <path id="ds-br" d="m 47.5,48.5 h 14 v 14 h -14 z" fill="url(#gradient_ds_br)" style="fill:url(#gradient_ds_br)"/>
    <path id="ds-b" d="m 16.5,48.5 h 31 v 14 h -31 z" fill="url(#gradient_ds_b)" style="fill:url(#gradient_ds_b)"/>
    <path id="ds-bl" d="m 2.5,48.5 h 14 v 14 h -14 z" fill="url(#gradient_ds_bl)" style="fill:url(#gradient_ds_bl)"/>
    <path id="ds-r" d="m 47.5,18.5 h 14 v 30 h -14 z" fill="url(#gradient_ds_r)" style="fill:url(#gradient_ds_r)"/>
    <path id="ds-l" d="m 2.5,18.5 h 14 v 30 h -14 z" fill="url(#gradient_ds_l)" style="fill:url(#gradient_ds_l)"/>
    <path id="ds-tr" d="m 47.5,4.5 h 14 v 14 h -14 z" fill="url(#gradient_ds_tr)" style="fill:url(#gradient_ds_tr)"/>
    <path id="ds-t" d="m 16.5,4.5 h 31 v 14 h -31 z" fill="url(#gradient_ds_t)" style="fill:url(#gradient_ds_t)"/>
    <path id="ds-tl" d="m 16.5,4.5 h -14 v 14 h 14 z" fill="url(#gradient_ds_tl)" style="fill:url(#gradient_ds_tl)"/>
  </g><rect x="4.5" y="4.5" width="55" height="55" fill="url(#linearGradient1053-0)" stroke-linecap="round" stroke-width="2.7444" id="bg" rx="10"/>
  <g id="art"><path class="shp36" d="m32 52c11.045 0 20-8.955 20-20s-8.955-20-20-20c-11.045 0-20 8.955-20 20s8.955 20 20 20z" fill="#1e1e1e" stroke-width="1.5062"/><path class="shp36" d="m32 50c9.9405 0 18-8.0595 18-18s-8.0595-18-18-18c-9.9405 0-18 8.0595-18 18s8.0595 18 18 18z" fill="#323232" stroke-width="1.3556"/><g transform="matrix(.83333 0 0 .83333 5.3317 5.3333)" fill="#fff">
    <g stroke-linecap="round" stroke-linejoin="round" stroke-width="4.1252">
      <rect x="31.5" y="10" width="1" height="4" ry=".53179"/>
      <rect x="31.5" y="50" width="1" height="4" ry=".53179"/>
      <rect transform="rotate(30)" x="43.213" y="-10.287" width="1" height="4" ry=".53179"/>
      <rect transform="rotate(30)" x="43.213" y="29.713" width="1" height="4" ry=".53179"/>
      <rect transform="rotate(60)" x="43.213" y="-33.713" width="1" height="4" ry=".53179"/>
      <rect transform="rotate(60)" x="43.213" y="6.2872" width="1" height="4" ry=".53179"/>
      <rect transform="rotate(90)" x="31.5" y="-54" width="1" height="4" ry=".53179"/>
      <rect transform="rotate(90)" x="31.5" y="-14" width="1" height="4" ry=".53179"/>
      <rect transform="rotate(120)" x="11.213" y="-65.713" width="1" height="4" ry=".53179"/>
      <rect transform="rotate(120)" x="11.213" y="-25.713" width="1" height="4" ry=".53179"/>
      <rect transform="rotate(150)" x="-12.213" y="-65.713" width="1" height="4" ry=".53179"/>
      <rect transform="rotate(150)" x="-12.213" y="-25.713" width="1" height="4" ry=".53179"/>
    </g>
  </g><g stroke-linecap="square">
    <path d="m31.998 18.667a13.333 13.333 0 0 1 11.547 6.6667l-11.547 6.6667z" fill="#f04646" stroke-width="1.8038"/>
    <circle cx="31.998" cy="32" r="2.5" fill="#333" stroke-width="3.0044"/>
    <circle cx="31.998" cy="32" r="1.6667" fill="#fff" stroke-width="2.0029"/>
  </g></g>
  
  
  
</svg>
