<?xml version="1.0" encoding="UTF-8" standalone="no"?>
<svg xmlns:inkscape="http://www.inkscape.org/namespaces/inkscape" xmlns:sodipodi="http://sodipodi.sourceforge.net/DTD/sodipodi-0.dtd" xmlns="http://www.w3.org/2000/svg" xmlns:svg="http://www.w3.org/2000/svg" xmlns:rdf="http://www.w3.org/1999/02/22-rdf-syntax-ns#" xmlns:cc="http://creativecommons.org/ns#" xmlns:dc="http://purl.org/dc/elements/1.1/" width="64" height="64" version="1.1" viewBox="0 0 64 64" id="svg32" sodipodi:docname="system-config-printer.svg" inkscape:version="1.4.2 (ebf0e940d0, 2025-05-08)">
  <sodipodi:namedview id="namedview32" pagecolor="#ffffff" bordercolor="#000000" borderopacity="0.25" inkscape:showpageshadow="2" inkscape:pageopacity="0.0" inkscape:pagecheckerboard="0" inkscape:deskcolor="#d1d1d1" inkscape:current-layer="svg32"/>
  <metadata id="metadata1">
    <rdf:RDF>
      <cc:Work rdf:about="">
        <dc:format>image/svg+xml</dc:format>
        <dc:type rdf:resource="http://purl.org/dc/dcmitype/StillImage"/>
        <dc:title/>
      </cc:Work>
    </rdf:RDF>
  </metadata>
  <defs id="defs23">
    <linearGradient id="h-9" x1="156" x2="156" y1="80" y2="232" gradientUnits="userSpaceOnUse">
      <stop stop-color="#fff" offset="0" id="stop1"/>
      <stop stop-color="#fff" stop-opacity=".098039" offset=".125" id="stop2"/>
      <stop stop-color="#fff" stop-opacity=".098039" offset=".925" id="stop3"/>
      <stop stop-color="#fff" stop-opacity=".49804" offset="1" id="stop4"/>
    </linearGradient>
    <clipPath id="m">
      <path d="m266 205c0 25-9.7826 24.708-35 25h-158c-25.217-0.29153-35 0-35-25v-98.001c0-25 9.7826-24.708 35-25h158c25.217 0.29154 35 0 35 25z" color="#000000" fill="#808080" id="path4"/>
    </clipPath>
    <filter id="k" x="-0.017733335" y="-0.026600003" width="1.0354667" height="1.0532" color-interpolation-filters="sRGB">
      <feGaussianBlur stdDeviation="0.9400002" id="feGaussianBlur4"/>
    </filter>
    <linearGradient id="g-1" x1="330" x2="333" y1="79.5" y2="79.5" gradientTransform="matrix(.42423 0 0 .61108 -105.2 -85.442)" gradientUnits="userSpaceOnUse">
      <stop stop-color="#ff4628" offset="0" id="stop5"/>
      <stop stop-color="#ff3c69" offset="1" id="stop6"/>
    </linearGradient>
    <linearGradient id="e-9" x1="330" x2="333" y1="79.5" y2="79.5" gradientTransform="matrix(.42423 0 0 .61108 -105.21 -94.775)" gradientUnits="userSpaceOnUse">
      <stop stop-color="#3287ff" offset="0" id="stop7"/>
      <stop stop-color="#32b4ff" offset="1" id="stop8"/>
    </linearGradient>
    <linearGradient id="f-2" x1="330" x2="333" y1="79.5" y2="79.5" gradientTransform="matrix(.42423 0 0 .61108 -105.2 -90.108)" gradientUnits="userSpaceOnUse">
      <stop stop-color="#ff8214" offset="0" id="stop9"/>
      <stop stop-color="#ffbe14" offset="1" id="stop10"/>
    </linearGradient>
    
    
    
    
    
    
    
    
    
    
    
    <linearGradient id="b-3" x1="399.57" x2="399.57" y1="545.8" y2="517.8" gradientTransform="matrix(2.1429 0 0 2.1429 -753.93 -1107.5)" gradientUnits="userSpaceOnUse">
      <stop stop-color="#3889e9" offset="0" id="stop20"/>
      <stop stop-color="#5ea5fb" offset="1" id="stop21"/>
    </linearGradient>
    
    
    <filter id="filter1057" x="-0.026999999" y="-0.026999999" width="1.054" height="1.054" color-interpolation-filters="sRGB">
      <feGaussianBlur stdDeviation="0.61875" id="feGaussianBlur22"/>
    </filter>
    <linearGradient id="linearGradient1053" x1="-127" x2="-72" y1="60" y2="5" gradientTransform="translate(131.49,-0.054156)" gradientUnits="userSpaceOnUse">
      <stop stop-color="#1d2123" offset="0" id="stop22"/>
      <stop stop-color="#33393e" stop-opacity=".99608" offset="1" id="stop23"/>
    </linearGradient>
  <radialGradient id="gradient_ds_br" cx="0" cy="0" r="1" gradientUnits="userSpaceOnUse" gradientTransform="matrix(13.998399,0.00477622,-0.00477841,14.004799,47.5016,48.4952)">
      <stop offset="0.65" id="stop1"/>
      <stop offset="1" stop-opacity="0" id="stop2"/>
    </radialGradient><linearGradient id="gradient_ds_b" x1="30.448999" y1="48.5" x2="30.492201" y2="62.500301" gradientUnits="userSpaceOnUse">
      <stop offset="0.653846" id="stop3"/>
      <stop offset="1" stop-opacity="0" id="stop4"/>
    </linearGradient><radialGradient id="gradient_ds_bl" cx="0" cy="0" r="1" gradientUnits="userSpaceOnUse" gradientTransform="matrix(0,14,-14,0,16.5,48.5)">
      <stop offset="0.65" id="stop5"/>
      <stop offset="1" stop-opacity="0" id="stop6"/>
    </radialGradient><linearGradient id="gradient_ds_r" x1="47.5" y1="33.5" x2="61.5" y2="33.5009" gradientUnits="userSpaceOnUse">
      <stop offset="0.649038" id="stop7"/>
      <stop offset="1" stop-opacity="0" id="stop8"/>
    </linearGradient><linearGradient id="gradient_ds_l" x1="16.5" y1="33.894699" x2="2.5" y2="33.894699" gradientUnits="userSpaceOnUse">
      <stop offset="0.649038" id="stop9"/>
      <stop offset="1" stop-opacity="0" id="stop10"/>
    </linearGradient><radialGradient id="gradient_ds_tr" cx="0" cy="0" r="1" gradientTransform="matrix(0.00843236,-14,14.0084,0.0189842,47.4916,18.5)" gradientUnits="userSpaceOnUse">
      <stop offset="0.65" id="stop11"/>
      <stop offset="1" stop-opacity="0" id="stop12"/>
    </radialGradient><linearGradient id="gradient_ds_t" x1="29.98" y1="18.5" x2="29.9158" y2="4.4998598" gradientUnits="userSpaceOnUse">
      <stop offset="0.649038" id="stop13"/>
      <stop offset="1" stop-opacity="0" id="stop14"/>
    </linearGradient><radialGradient id="gradient_ds_tl" cx="0" cy="0" r="1" gradientTransform="matrix(-0.00843236,-14,-14.0084,0.0189842,16.5084,18.5)" gradientUnits="userSpaceOnUse">
      <stop offset="0.65" id="stop15"/>
      <stop offset="1" stop-opacity="0" id="stop16"/>
    </radialGradient></defs>
  
  <g id="ds" opacity="0.25">
    <path id="ds-br" d="m 47.5,48.5 h 14 v 14 h -14 z" fill="url(#gradient_ds_br)" style="fill:url(#gradient_ds_br)"/>
    <path id="ds-b" d="m 16.5,48.5 h 31 v 14 h -31 z" fill="url(#gradient_ds_b)" style="fill:url(#gradient_ds_b)"/>
    <path id="ds-bl" d="m 2.5,48.5 h 14 v 14 h -14 z" fill="url(#gradient_ds_bl)" style="fill:url(#gradient_ds_bl)"/>
    <path id="ds-r" d="m 47.5,18.5 h 14 v 30 h -14 z" fill="url(#gradient_ds_r)" style="fill:url(#gradient_ds_r)"/>
    <path id="ds-l" d="m 2.5,18.5 h 14 v 30 h -14 z" fill="url(#gradient_ds_l)" style="fill:url(#gradient_ds_l)"/>
    <path id="ds-tr" d="m 47.5,4.5 h 14 v 14 h -14 z" fill="url(#gradient_ds_tr)" style="fill:url(#gradient_ds_tr)"/>
    <path id="ds-t" d="m 16.5,4.5 h 31 v 14 h -31 z" fill="url(#gradient_ds_t)" style="fill:url(#gradient_ds_t)"/>
    <path id="ds-tl" d="m 16.5,4.5 h -14 v 14 h 14 z" fill="url(#gradient_ds_tl)" style="fill:url(#gradient_ds_tl)"/>
  </g><rect x="4.5" y="4.5" width="55" height="55" fill="url(#linearGradient1053)" stroke-linecap="round" stroke-width="2.7444" id="bg" style="fill:url(#linearGradient1053)" rx="10"/>
  <g id="art"><path transform="matrix(.16666 0 0 .16666 6.6675 8.6768)" d="m272 211c0 25-9.7826 24.708-35 25h-170c-25.217-0.29153-35 0-35-25v-110c0-25 9.7826-24.708 35-25h170c25.217 0.29154 35 0 35 25z" clip-path="url(#m)" color="#000000" fill="#fff" fill-opacity=".78431" filter="url(#k)" stroke="url(#h-9)" stroke-width="4" id="path24"/><g stroke-width="2.5196" id="g31">
    <path d="m52 43.843c0 4.1664-1.6304 4.1178-5.8331 4.1664h-28.333c-4.2027-0.04858-5.8331 0-5.8331-4.1664v-18.333c0-4.1664 1.6304-4.1178 5.8331-4.1664h28.333c4.2027 0.04859 5.8331 0 5.8331 4.1664z" color="#000000" fill="#f3f4f5" id="path25"/>
    <path d="m12 38.008-1.63e-4 5.8334c-1.16e-4 4.1664 1.6304 4.1178 5.8331 4.1664h28.33c4.2027-0.04858 5.8331 0 5.8331-4.1664l1.64e-4 -5.8334z" color="#000000" fill="#fff" id="path26"/>
    <path d="m18.667 22.676h26.665c0.73862 0 1.3333 0.27874 1.3333 0.62496v0.70828h-29.331v-0.70828c0-0.34624 0.59462-0.62496 1.3333-0.62496z" enable-background="new" opacity=".3" id="path27"/>
    <path d="m16 40.008h31.999v4.6663c0 0.73862-0.59462 1.3333-1.3333 1.3333h-29.331c-0.73862 0-1.3333-0.59463-1.3333-1.3333v-3.3332z" enable-background="new" opacity=".3" id="path28"/>
    <rect x="12" y="37.675" width="39.999" height=".33332" enable-background="new" fill="#fff" opacity=".15" id="rect28"/>
    <path d="m24.713 15.99c-5.201 0-5.7603 0.60488-5.7346 6.5061v1.5133h25.932v-1.5133c0-5.9014-0.53385-6.5061-5.7346-6.5061z" color="#000000" fill="#ffeca1" id="path29"/>
    <rect transform="rotate(90)" x="34.675" y="-38.001" width="1.3333" height="1.9999" rx=".66664" ry=".99996" enable-background="new" fill="url(#g-1)" id="rect29"/>
    <rect transform="rotate(90)" x="34.659" y="-47.333" width="1.3333" height="1.9999" rx=".66664" ry=".99996" enable-background="new" fill="url(#e-9)" id="rect30"/>
    <rect transform="rotate(90)" x="34.675" y="-42.667" width="1.3333" height="1.9999" rx=".66664" ry=".99996" enable-background="new" fill="url(#f-2)" id="rect31"/>
    <path d="m16 40.008h31.999v4.6663c0 0.73862-0.59462 1.3333-1.3333 1.3333h-29.331c-0.73862 0-1.3333-0.59463-1.3333-1.3333v-3.3332z" enable-background="new" fill="#515151" id="path31"/>
  </g><rect x="19.001" y="40.008" width="26" height="1.3842" enable-background="new" fill="#a3a3a3" stroke-width="5.1345" id="rect32"/></g>
  
  
</svg>
