<?xml version="1.0" encoding="UTF-8" standalone="no"?>
<svg xmlns:inkscape="http://www.inkscape.org/namespaces/inkscape" xmlns:sodipodi="http://sodipodi.sourceforge.net/DTD/sodipodi-0.dtd" xmlns="http://www.w3.org/2000/svg" xmlns:svg="http://www.w3.org/2000/svg" xmlns:rdf="http://www.w3.org/1999/02/22-rdf-syntax-ns#" xmlns:cc="http://creativecommons.org/ns#" xmlns:dc="http://purl.org/dc/elements/1.1/" width="64" height="64" version="1.1" viewBox="0 0 64 64" id="svg13" sodipodi:docname="utilities-log-viewer.svg" inkscape:version="1.4.2 (ebf0e940d0, 2025-05-08)">
  <defs id="defs6">
    <filter id="filter1025" x="-0.36206388" y="-0.36206388" width="1.7241278" height="1.7241278" color-interpolation-filters="sRGB">
      <feGaussianBlur stdDeviation="0.598736" id="feGaussianBlur1"/>
    </filter>
    <filter id="filter1029" x="-0.11745455" y="-0.11745455" width="1.2349091" height="1.2349091" color-interpolation-filters="sRGB">
      <feGaussianBlur stdDeviation="0.79199999" id="feGaussianBlur2"/>
    </filter>
    <filter id="filter1262" x="-0.35999984" y="-0.35999984" width="1.7199997" height="1.7199997" color-interpolation-filters="sRGB">
      <feGaussianBlur stdDeviation="1.0799994" id="feGaussianBlur3"/>
    </filter>
    <filter id="filter2076-7-3" x="-0.048" y="-0.048" width="1.096" height="1.096" color-interpolation-filters="sRGB">
      <feGaussianBlur stdDeviation="1.1" id="feGaussianBlur4"/>
    </filter>
    <linearGradient id="linearGradient2070-9-0" x1="145" x2="200" y1="59" y2="4" gradientTransform="matrix(1.0000827,0,0,1.0000827,-140.5067,0.4986051)" gradientUnits="userSpaceOnUse">
      <stop stop-color="#ffc841" offset="0" id="stop4"/>
      <stop stop-color="#ffbe37" offset=".4925" id="stop5"/>
      <stop stop-color="#ffc841" offset="1" id="stop6"/>
    </linearGradient>
    <filter id="filter1262-3" x="-0.35999983" y="-0.35999983" width="1.7199997" height="1.7199997" color-interpolation-filters="sRGB">
      <feGaussianBlur stdDeviation="1.0799994" id="feGaussianBlur3-6"/>
    </filter>
    <filter id="filter1029-7" x="-0.11745455" y="-0.11745455" width="1.2349091" height="1.2349091" color-interpolation-filters="sRGB">
      <feGaussianBlur stdDeviation="0.79199999" id="feGaussianBlur2-5"/>
    </filter>
    <filter id="filter1025-3" x="-0.36206389" y="-0.36206389" width="1.7241278" height="1.7241278" color-interpolation-filters="sRGB">
      <feGaussianBlur stdDeviation="0.598736" id="feGaussianBlur1-5"/>
    </filter>
    <filter id="filter2076-7-3-1" x="-0.048000001" y="-0.048000001" width="1.096" height="1.096" color-interpolation-filters="sRGB">
      <feGaussianBlur stdDeviation="1.1" id="feGaussianBlur4-2"/>
    </filter>
  <radialGradient id="gradient_ds_br" cx="0" cy="0" r="1" gradientUnits="userSpaceOnUse" gradientTransform="matrix(13.998399,0.00477622,-0.00477841,14.004799,47.5016,48.4952)">
      <stop offset="0.65" id="stop1"/>
      <stop offset="1" stop-opacity="0" id="stop2"/>
    </radialGradient><linearGradient id="gradient_ds_b" x1="30.448999" y1="48.5" x2="30.492201" y2="62.500301" gradientUnits="userSpaceOnUse">
      <stop offset="0.653846" id="stop3"/>
      <stop offset="1" stop-opacity="0" id="stop4"/>
    </linearGradient><radialGradient id="gradient_ds_bl" cx="0" cy="0" r="1" gradientUnits="userSpaceOnUse" gradientTransform="matrix(0,14,-14,0,16.5,48.5)">
      <stop offset="0.65" id="stop5"/>
      <stop offset="1" stop-opacity="0" id="stop6"/>
    </radialGradient><linearGradient id="gradient_ds_r" x1="47.5" y1="33.5" x2="61.5" y2="33.5009" gradientUnits="userSpaceOnUse">
      <stop offset="0.649038" id="stop7"/>
      <stop offset="1" stop-opacity="0" id="stop8"/>
    </linearGradient><linearGradient id="gradient_ds_l" x1="16.5" y1="33.894699" x2="2.5" y2="33.894699" gradientUnits="userSpaceOnUse">
      <stop offset="0.649038" id="stop9"/>
      <stop offset="1" stop-opacity="0" id="stop10"/>
    </linearGradient><radialGradient id="gradient_ds_tr" cx="0" cy="0" r="1" gradientTransform="matrix(0.00843236,-14,14.0084,0.0189842,47.4916,18.5)" gradientUnits="userSpaceOnUse">
      <stop offset="0.65" id="stop11"/>
      <stop offset="1" stop-opacity="0" id="stop12"/>
    </radialGradient><linearGradient id="gradient_ds_t" x1="29.98" y1="18.5" x2="29.9158" y2="4.4998598" gradientUnits="userSpaceOnUse">
      <stop offset="0.649038" id="stop13"/>
      <stop offset="1" stop-opacity="0" id="stop14"/>
    </linearGradient><radialGradient id="gradient_ds_tl" cx="0" cy="0" r="1" gradientTransform="matrix(-0.00843236,-14,-14.0084,0.0189842,16.5084,18.5)" gradientUnits="userSpaceOnUse">
      <stop offset="0.65" id="stop15"/>
      <stop offset="1" stop-opacity="0" id="stop16"/>
    </radialGradient></defs>
  <metadata id="metadata6">
    <rdf:RDF>
      <cc:Work rdf:about="">
        <dc:format>image/svg+xml</dc:format>
        <dc:type rdf:resource="http://purl.org/dc/dcmitype/StillImage"/>
      </cc:Work>
    </rdf:RDF>
  </metadata>
  
  <g id="ds" opacity="0.25">
    <path id="ds-br" d="m 47.5,48.5 h 14 v 14 h -14 z" fill="url(#gradient_ds_br)" style="fill:url(#gradient_ds_br)"/>
    <path id="ds-b" d="m 16.5,48.5 h 31 v 14 h -31 z" fill="url(#gradient_ds_b)" style="fill:url(#gradient_ds_b)"/>
    <path id="ds-bl" d="m 2.5,48.5 h 14 v 14 h -14 z" fill="url(#gradient_ds_bl)" style="fill:url(#gradient_ds_bl)"/>
    <path id="ds-r" d="m 47.5,18.5 h 14 v 30 h -14 z" fill="url(#gradient_ds_r)" style="fill:url(#gradient_ds_r)"/>
    <path id="ds-l" d="m 2.5,18.5 h 14 v 30 h -14 z" fill="url(#gradient_ds_l)" style="fill:url(#gradient_ds_l)"/>
    <path id="ds-tr" d="m 47.5,4.5 h 14 v 14 h -14 z" fill="url(#gradient_ds_tr)" style="fill:url(#gradient_ds_tr)"/>
    <path id="ds-t" d="m 16.5,4.5 h 31 v 14 h -31 z" fill="url(#gradient_ds_t)" style="fill:url(#gradient_ds_t)"/>
    <path id="ds-tl" d="m 16.5,4.5 h -14 v 14 h 14 z" fill="url(#gradient_ds_tl)" style="fill:url(#gradient_ds_tl)"/>
  </g><rect x="4.5" y="4.5" width="55" height="55" rx="10" fill="url(#linearGradient2070-9-0)" stroke-width="1.00001" id="bg" style="fill:url(#linearGradient2070-9-0)"/>
  <g id="art"><g transform="matrix(3.779602,0,0,3.779602,-13.358625,-4.6084687)" fill="#f08705" id="g10">
    <path d="M 6.1719,8.2293 C 6.16429,8.26895 6.159583,8.310302 6.152286,8.35093 h 11.697 c -0.0069,-0.040626 -0.01197,-0.082013 -0.02038,-0.12163 z" opacity="0.6" stroke-width="0.79887" style="paint-order:normal" id="path7"/>
    <path d="m 6.3639,5.5869 c 0.00678,0.040626 0.013231,0.081178 0.02076,0.12163 h 11.234 c 0.007,-0.043706 0.01301,-0.078494 0.01928,-0.12163 z" opacity="0.6" stroke-width="0.78424" style="paint-order:normal" id="path8"/>
    <path d="m 6.1719,10.872 c -0.00761,0.03965 -0.012317,0.081 -0.019614,0.12163 h 11.697 c -0.0069,-0.04063 -0.01197,-0.08201 -0.02038,-0.12163 z" opacity="0.6" stroke-width="0.79887" style="paint-order:normal" id="path9"/>
    <path d="m 6.1719,13.514 c -0.00761,0.03965 -0.012317,0.081 -0.019614,0.12163 h 11.697 c -0.0069,-0.04063 -0.01197,-0.08201 -0.02038,-0.12163 z" opacity="0.6" stroke-width="0.79887" style="paint-order:normal" id="path10"/>
  </g><path transform="matrix(1.0000449,0,0,1.0000449,0.64215438,-0.01243489)" d="M 47.979,48.353 40.4948,40.8688" color="#000000" fill="none" filter="url(#filter1025)" image-rendering="optimizeSpeed" opacity="0.6" stroke="#fa7846" stroke-width="3.6" id="path11" style="filter:url(#filter1025-3)"/><circle transform="matrix(1.0000449,0,0,1.0000449,0.64215438,-0.01243489)" cx="28.4" cy="28.774" r="13.2" color="#000000" fill="none" filter="url(#filter1029)" image-rendering="optimizeSpeed" opacity="0.6" stroke="#fa7846" stroke-width="2.4" id="circle11" style="filter:url(#filter1029-7)"/><path d="M 41.636096,41.356405 38.642311,38.362658" color="#000000" fill="#f69e1a" image-rendering="optimizeSpeed" stroke="#f5a019" stroke-width="2.40005" id="path12"/><circle cx="29.042841" cy="28.762014" r="13.20026" color="#000000" fill="#ffffff" fill-opacity="0.5098" image-rendering="optimizeSpeed" stroke="#fafafa" stroke-width="2.40005" id="circle12"/><path d="M 48.6208,48.34111 41.136432,40.856742" color="#000000" fill="none" image-rendering="optimizeSpeed" stroke="#ffe664" stroke-width="3.60007" id="path13"/><circle transform="matrix(1.0000449,0,0,1.0000449,0.64234336,-0.01228371)" cx="24.799999" cy="25.174" r="3.5999999" color="#000000" fill="#ffffff" fill-opacity="0.3937" filter="url(#filter1262)" image-rendering="optimizeSpeed" id="circle13" style="filter:url(#filter1262-3)"/></g>
  
  
  
  
  
  
</svg>
