<?xml version="1.0" encoding="UTF-8" standalone="no"?>
<svg
   width="64"
   height="64"
   version="1.1"
   viewBox="0 0 64 64"
   id="svg74"
   sodipodi:docname="gnome-maps.svg"
   inkscape:version="1.4.3 (0d15f75042, 2025-12-25)"
   xmlns:inkscape="http://www.inkscape.org/namespaces/inkscape"
   xmlns:sodipodi="http://sodipodi.sourceforge.net/DTD/sodipodi-0.dtd"
   xmlns:xlink="http://www.w3.org/1999/xlink"
   xmlns="http://www.w3.org/2000/svg"
   xmlns:svg="http://www.w3.org/2000/svg"
   xmlns:rdf="http://www.w3.org/1999/02/22-rdf-syntax-ns#"
   xmlns:cc="http://creativecommons.org/ns#"
   xmlns:dc="http://purl.org/dc/elements/1.1/">
  <sodipodi:namedview
     id="namedview1"
     pagecolor="#ffffff"
     bordercolor="#000000"
     borderopacity="0.25"
     inkscape:showpageshadow="2"
     inkscape:pageopacity="0.0"
     inkscape:pagecheckerboard="0"
     inkscape:deskcolor="#d1d1d1"
     showgrid="false"
     inkscape:current-layer="art">
    <inkscape:grid
       id="grid1"
       units="px"
       originx="0"
       originy="0"
       spacingx="0.5"
       spacingy="0.5"
       empcolor="#0099e5"
       empopacity="0.30196078"
       color="#0099e5"
       opacity="0.14901961"
       empspacing="2"
       enabled="true"
       visible="false" />
  </sodipodi:namedview>
  <defs
     id="defs40">
    <filter
       id="filter2761"
       x="-0.024"
       y="-0.024"
       width="1.048"
       height="1.048"
       color-interpolation-filters="sRGB">
      <feGaussianBlur
         stdDeviation="0.14552168"
         id="feGaussianBlur2" />
    </filter>
    <filter
       id="filter924"
       x="-0.071956903"
       y="-0.060053881"
       width="1.1439137"
       height="1.1201078"
       color-interpolation-filters="sRGB">
      <feGaussianBlur
         stdDeviation="0.2078715"
         id="feGaussianBlur5" />
    </filter>
    <clipPath
       id="clipPath10">
      <path
         d="m 188.97,44 c 72.649,0 83.031,10.357 83.031,82.938 v 58.125 c 0,72.581 -10.383,82.938 -83.031,82.938 h -73.938 c -72.649,0 -83.031,-10.357 -83.031,-82.938 V 126.938 C 32.001,54.357 42.384,44 115.032,44 Z"
         fill="#6dc7f1"
         id="path8" />
    </clipPath>
    <linearGradient
       id="linearGradient1572"
       x1="1.1912"
       x2="15.743"
       y1="8.3259001"
       y2="8.3259001"
       gradientTransform="matrix(3.7796019,0,0,3.7796019,66.249429,-1076.24)"
       gradientUnits="userSpaceOnUse">
      <stop
         stop-color="#0a82f0"
         offset="0"
         id="stop12"
         style="stop-color:#3584e4;stop-opacity:1;" />
      <stop
         stop-color="#3250e6"
         offset="1"
         id="stop14"
         style="stop-color:#1a5fb4;stop-opacity:1;" />
    </linearGradient>
    <linearGradient
       id="linearGradient1580"
       x1="145.42"
       x2="145.42"
       y1="217.84"
       y2="-9.6659002"
       gradientTransform="matrix(0.22996988,0,0,0.24553428,-1.2328678,-6.3041863)"
       gradientUnits="userSpaceOnUse">
      <stop
         stop-color="#16a085"
         offset="0"
         id="stop17"
         style="stop-color:#27a56b;stop-opacity:1;" />
      <stop
         stop-color="#2ecc71"
         offset="1"
         id="stop19" />
    </linearGradient>
    <linearGradient
       id="linearGradient1604"
       x1="12.236"
       x2="12.236"
       y1="4.3615999"
       y2="12.894"
       gradientTransform="matrix(1.7738806,0,0,1.7738806,-6.0433939,-16.86893)"
       gradientUnits="userSpaceOnUse">
      <stop
         stop-color="#ff7832"
         offset="0"
         id="stop22" />
      <stop
         stop-color="#ffdc32"
         offset="1"
         id="stop24" />
    </linearGradient>
    <filter
       id="filter1613"
       x="-0.086271897"
       y="-0.045993086"
       width="1.1725438"
       height="1.0919862"
       color-interpolation-filters="sRGB">
      <feGaussianBlur
         stdDeviation="0.16313778"
         id="feGaussianBlur27" />
    </filter>
    <linearGradient
       id="linearGradient1717"
       x1="6.7473001"
       x2="20.671"
       y1="15.436"
       y2="1.6122"
       gradientTransform="matrix(3.779602,0,0,3.779602,-0.00269197,0.53067728)"
       gradientUnits="userSpaceOnUse">
      <stop
         stop-color="#fff"
         offset="0"
         id="stop30" />
      <stop
         stop-color="#d7d7d7"
         offset="1"
         id="stop32" />
    </linearGradient>
    <linearGradient
       id="linearGradient1836"
       x1="1.1912"
       x2="15.743"
       y1="8.3259001"
       y2="8.3259001"
       gradientTransform="matrix(3.779602,0,0,3.779602,-0.01082342,0.5308457)"
       gradientUnits="userSpaceOnUse">
      <stop
         stop-color="#ffdc32"
         offset="0"
         id="stop35"
         style="stop-color:#ffde48;stop-opacity:1;" />
      <stop
         stop-color="#ff7832"
         offset="1"
         id="stop37"
         style="stop-color:#ffbb1f;stop-opacity:1;" />
    </linearGradient>
    <filter
       id="filter2761-36"
       x="-0.024"
       y="-0.024"
       width="1.048"
       height="1.048"
       color-interpolation-filters="sRGB">
      <feGaussianBlur
         stdDeviation="0.14552168"
         id="feGaussianBlur4" />
    </filter>
    <linearGradient
       id="linearGradient4673"
       x1="1.4377"
       x2="15.644"
       y1="15.601"
       y2="1.1082"
       gradientTransform="matrix(3.7796,0,0,3.7796,-0.0026448,0.53066)"
       gradientUnits="userSpaceOnUse">
      <stop
         stop-color="#dc2828"
         offset="0"
         id="stop7" />
      <stop
         stop-color="#fa4141"
         offset="1"
         id="stop9" />
    </linearGradient>
    <filter
       color-interpolation-filters="sRGB"
       height="1.048"
       width="1.048"
       y="-0.024"
       x="-0.024"
       id="filter2761-6753">
      <feGaussianBlur
         id="feGaussianBlur4-5"
         stdDeviation="0.14552168" />
    </filter>
    <linearGradient
       gradientUnits="userSpaceOnUse"
       gradientTransform="translate(23.198642,0.14045)"
       y2="1.1082"
       y1="15.601"
       x2="15.644"
       x1="1.4377"
       id="linearGradient4673-6">
      <stop
         id="stop7-2"
         offset="0"
         stop-color="#dc2828" />
      <stop
         id="stop9-9"
         offset="1"
         stop-color="#fa4141" />
    </linearGradient>
    <filter
       color-interpolation-filters="sRGB"
       height="1.168"
       width="1.168"
       y="-0.083999999"
       x="-0.083999999"
       id="filter909">
      <feGaussianBlur
         id="feGaussianBlur12"
         stdDeviation="0.27781045" />
    </filter>
    <filter
       color-interpolation-filters="sRGB"
       height="1.048"
       width="1.048"
       y="-0.024"
       x="-0.024"
       id="filter2761-675">
      <feGaussianBlur
         id="feGaussianBlur4-3"
         stdDeviation="0.14552168" />
    </filter>
    <linearGradient
       gradientUnits="userSpaceOnUse"
       gradientTransform="translate(31.146088,0.14045)"
       y2="1.1082"
       y1="14.536"
       x2="15.644"
       x1="2.2495"
       id="linearGradient4673-562">
      <stop
         id="stop7-9"
         offset="0"
         stop-color="#ff5050" />
      <stop
         id="stop9-1"
         offset=".47728"
         stop-color="#fa4b5a" />
      <stop
         id="stop11"
         offset="1"
         stop-color="#ff7864" />
    </linearGradient>
    <linearGradient
       gradientUnits="userSpaceOnUse"
       gradientTransform="matrix(0.32664815,0,0,0.32664815,0.63054332,0.95372475)"
       y2="4"
       y1="44"
       x2="0"
       id="linearGradient890">
      <stop
         id="stop4"
         offset="0"
         stop-color="#FFB900" />
      <stop
         id="stop6"
         offset="1"
         stop-color="#ff0" />
    </linearGradient>
    <filter
       color-interpolation-filters="sRGB"
       height="1.048"
       width="1.048"
       y="-0.024"
       x="-0.024"
       id="filter2761-67">
      <feGaussianBlur
         id="feGaussianBlur9"
         stdDeviation="0.14552168" />
    </filter>
    <linearGradient
       gradientUnits="userSpaceOnUse"
       gradientTransform="matrix(3.7796,0,0,3.7796,66.443573,0.53068)"
       y2="1.1082"
       y1="15.601"
       x2="15.644"
       x1="1.4377"
       id="linearGradient4673-5">
      <stop
         id="stop12-7"
         offset="0"
         stop-color="#dc2828" />
      <stop
         id="stop14-5"
         offset="1"
         stop-color="#fa4141" />
    </linearGradient>
    <linearGradient
       gradientTransform="scale(0.26457812)"
       gradientUnits="userSpaceOnUse"
       y2="9.6700001"
       y1="54.591999"
       x2="34.133999"
       x1="34.133999"
       id="linearGradient915">
      <stop
         id="stop17-3"
         offset="0"
         stop-color="#ffb900" />
      <stop
         id="stop19-5"
         offset="1"
         stop-color="#ff0" />
    </linearGradient>
    <linearGradient
       id="linearGradient890-3"
       x2="0"
       y1="44"
       y2="4"
       gradientTransform="matrix(1.2346,0,0,1.2346,3.1419,3.6047)"
       gradientUnits="userSpaceOnUse">
      <stop
         stop-color="#FFB900"
         offset="0"
         id="stop861" />
      <stop
         stop-color="#ff0"
         offset="1"
         id="stop863" />
    </linearGradient>
    <filter
       id="filter2761-6"
       x="-0.024"
       y="-0.024"
       width="1.048"
       height="1.048"
       color-interpolation-filters="sRGB">
      <feGaussianBlur
         stdDeviation="0.14552168"
         id="feGaussianBlur866" />
    </filter>
    <filter
       id="filter2761-3"
       x="-0.024"
       y="-0.024"
       width="1.048"
       height="1.048"
       color-interpolation-filters="sRGB">
      <feGaussianBlur
         stdDeviation="0.14552168"
         id="feGaussianBlur935" />
    </filter>
    <filter
       id="filter909-2"
       x="-0.083999999"
       y="-0.083999999"
       width="1.168"
       height="1.168"
       color-interpolation-filters="sRGB">
      <feGaussianBlur
         stdDeviation="0.27781045"
         id="feGaussianBlur943" />
    </filter>
    <filter
       id="filter1613-1"
       x="-0.086271898"
       y="-0.045993086"
       width="1.1725438"
       height="1.0919862"
       color-interpolation-filters="sRGB">
      <feGaussianBlur
         stdDeviation="0.16313778"
         id="feGaussianBlur27-2" />
    </filter>
    <filter
       id="filter924-3"
       x="-0.071956902"
       y="-0.060053881"
       width="1.1439138"
       height="1.1201078"
       color-interpolation-filters="sRGB">
      <feGaussianBlur
         stdDeviation="0.2078715"
         id="feGaussianBlur5-6" />
    </filter>
    <filter
       id="filter1"
       x="-0.071956903"
       y="-0.060053881"
       width="1.1439137"
       height="1.1201078"
       color-interpolation-filters="sRGB">
      <feGaussianBlur
         stdDeviation="0.2078715"
         id="feGaussianBlur1" />
    </filter>
    <linearGradient
       inkscape:collect="always"
       xlink:href="#linearGradient1051"
       id="linearGradient1053-0"
       x1="-72"
       y1="60"
       x2="-72"
       y2="5"
       gradientUnits="userSpaceOnUse"
       gradientTransform="translate(131.5,-0.50999727)" />
    <linearGradient
       inkscape:collect="always"
       id="linearGradient1051">
      <stop
         style="stop-color:#f2f3f3;stop-opacity:1;"
         offset="0"
         id="stop1047" />
      <stop
         style="stop-color:#d2d2d2;stop-opacity:1;"
         offset="1"
         id="stop1049" />
    </linearGradient>
    <radialGradient
       id="gradient_ds_br"
       cx="0"
       cy="0"
       r="1"
       gradientUnits="userSpaceOnUse"
       gradientTransform="matrix(13.998399,0.00477622,-0.00477841,14.004799,47.5016,48.4952)">
      <stop
         offset="0.65"
         id="stop1" />
      <stop
         offset="1"
         stop-opacity="0"
         id="stop2" />
    </radialGradient>
    <linearGradient
       id="gradient_ds_b"
       x1="30.448999"
       y1="48.5"
       x2="30.492201"
       y2="62.500301"
       gradientUnits="userSpaceOnUse">
      <stop
         offset="0.653846"
         id="stop3" />
      <stop
         offset="1"
         stop-opacity="0"
         id="stop5" />
    </linearGradient>
    <radialGradient
       id="gradient_ds_bl"
       cx="0"
       cy="0"
       r="1"
       gradientUnits="userSpaceOnUse"
       gradientTransform="matrix(0,14,-14,0,16.5,48.5)">
      <stop
         offset="0.65"
         id="stop8" />
      <stop
         offset="1"
         stop-opacity="0"
         id="stop10" />
    </radialGradient>
    <linearGradient
       id="gradient_ds_r"
       x1="47.5"
       y1="33.5"
       x2="61.5"
       y2="33.5009"
       gradientUnits="userSpaceOnUse">
      <stop
         offset="0.649038"
         id="stop13" />
      <stop
         offset="1"
         stop-opacity="0"
         id="stop15" />
    </linearGradient>
    <linearGradient
       id="gradient_ds_l"
       x1="16.5"
       y1="33.894699"
       x2="2.5"
       y2="33.894699"
       gradientUnits="userSpaceOnUse">
      <stop
         offset="0.649038"
         id="stop16" />
      <stop
         offset="1"
         stop-opacity="0"
         id="stop18" />
    </linearGradient>
    <radialGradient
       id="gradient_ds_tr"
       cx="0"
       cy="0"
       r="1"
       gradientTransform="matrix(0.00843236,-14,14.0084,0.0189842,47.4916,18.5)"
       gradientUnits="userSpaceOnUse">
      <stop
         offset="0.65"
         id="stop20" />
      <stop
         offset="1"
         stop-opacity="0"
         id="stop21" />
    </radialGradient>
    <linearGradient
       id="gradient_ds_t"
       x1="29.98"
       y1="18.5"
       x2="29.9158"
       y2="4.4998598"
       gradientUnits="userSpaceOnUse">
      <stop
         offset="0.649038"
         id="stop23" />
      <stop
         offset="1"
         stop-opacity="0"
         id="stop25" />
    </linearGradient>
    <radialGradient
       id="gradient_ds_tl"
       cx="0"
       cy="0"
       r="1"
       gradientTransform="matrix(-0.00843236,-14,-14.0084,0.0189842,16.5084,18.5)"
       gradientUnits="userSpaceOnUse">
      <stop
         offset="0.65"
         id="stop26" />
      <stop
         offset="1"
         stop-opacity="0"
         id="stop27" />
    </radialGradient>
    <linearGradient
       xlink:href="#a"
       id="e"
       x1="336"
       x2="336"
       y1="62"
       y2="-180"
       gradientTransform="matrix(0.25,0,0,0.25,-44.00004,47)"
       gradientUnits="userSpaceOnUse" />
    <linearGradient
       id="a">
      <stop
         offset="0"
         stop-color="#d81d25"
         id="stop3-2" />
      <stop
         offset="1"
         stop-color="#f66151"
         id="stop4-9" />
    </linearGradient>
    <linearGradient
       xlink:href="#b"
       id="d"
       x1="320.5"
       x2="415.5"
       y1="-68"
       y2="-68"
       gradientTransform="matrix(0.25263,0,0,0.25263,-62.96843,57.1788)"
       gradientUnits="userSpaceOnUse" />
    <linearGradient
       id="b">
      <stop
         offset="0"
         stop-color="#a51d2d"
         id="stop1-1" />
      <stop
         offset="1"
         stop-color="#ce1921"
         id="stop2-2" />
    </linearGradient>
  </defs>
  <metadata
     id="metadata42">
    <rdf:RDF>
      <cc:Work
         rdf:about="">
        <dc:format>image/svg+xml</dc:format>
        <dc:type
           rdf:resource="http://purl.org/dc/dcmitype/StillImage" />
      </cc:Work>
    </rdf:RDF>
  </metadata>
  <g
     id="ds"
     opacity="0.25">
    <path
       id="ds-br"
       d="m 47.5,48.5 h 14 v 14 h -14 z"
       fill="url(#gradient_ds_br)"
       style="fill:url(#gradient_ds_br)" />
    <path
       id="ds-b"
       d="m 16.5,48.5 h 31 v 14 h -31 z"
       fill="url(#gradient_ds_b)"
       style="fill:url(#gradient_ds_b)" />
    <path
       id="ds-bl"
       d="m 2.5,48.5 h 14 v 14 h -14 z"
       fill="url(#gradient_ds_bl)"
       style="fill:url(#gradient_ds_bl)" />
    <path
       id="ds-r"
       d="m 47.5,18.5 h 14 v 30 h -14 z"
       fill="url(#gradient_ds_r)"
       style="fill:url(#gradient_ds_r)" />
    <path
       id="ds-l"
       d="m 2.5,18.5 h 14 v 30 h -14 z"
       fill="url(#gradient_ds_l)"
       style="fill:url(#gradient_ds_l)" />
    <path
       id="ds-tr"
       d="m 47.5,4.5 h 14 v 14 h -14 z"
       fill="url(#gradient_ds_tr)"
       style="fill:url(#gradient_ds_tr)" />
    <path
       id="ds-t"
       d="m 16.5,4.5 h 31 v 14 h -31 z"
       fill="url(#gradient_ds_t)"
       style="fill:url(#gradient_ds_t)" />
    <path
       id="ds-tl"
       d="m 16.5,4.5 h -14 v 14 h 14 z"
       fill="url(#gradient_ds_tl)"
       style="fill:url(#gradient_ds_tl)" />
  </g>
  <rect
     style="display:inline;fill:url(#linearGradient1053-0);fill-opacity:1;stroke-width:2.74436;stroke-linecap:round"
     id="bg"
     width="55"
     height="55"
     x="4.5"
     y="4.5"
     rx="10" />
  <g
     id="art"
     style="display:inline">
    <g
       id="roads">
      <path
         id="path54"
         style="display:inline;fill:url(#linearGradient1572);stroke-width:3.7796"
         d="M 23.529297,4.5 C 21.013399,4.5 18.858336,4.570378 16.953125,4.7304688 10.895473,5.7604779 6.096954,10.383181 4.8320312,16.355469 4.5853423,18.709208 5.4454224,21.652141 4.5,24.863281 V 49.5 c 0,5.54 4.46,10 10,10 H 35.248047 L 23.591797,46.355469 33.417969,4.5 Z m 35.640625,11.865234 c 0.116309,1.113264 0.193917,2.336452 0.246094,3.66211 -0.05175,-1.322917 -0.12808,-2.544514 -0.244141,-3.65625 v -0.002 -0.002 c -1.69e-4,-7.89e-4 -0.0017,-0.0012 -0.002,-0.002 z M 59.322266,45.8125 c -0.04247,0.640064 -0.09313,1.250834 -0.154297,1.833984 9.87e-4,-0.0047 0.0029,-0.009 0.0039,-0.01367 v -0.002 -0.002 c 0.06025,-0.577115 0.108593,-1.183363 0.150391,-1.816406 z m -0.431641,2.935547 c -0.105928,0.361568 -0.22564,0.716976 -0.357422,1.066406 0.132009,-0.349932 0.25135,-0.704298 0.357422,-1.066406 z m -0.972656,2.455078 c -0.1051,0.210568 -0.207686,0.422256 -0.322266,0.626953 0.11461,-0.204741 0.217142,-0.416338 0.322266,-0.626953 z m -1.53711,2.464844 c -0.446605,0.577756 -0.935806,1.123133 -1.460937,1.628906 0.525657,-0.506109 1.013933,-1.050696 1.460937,-1.628906 z" />
      <path
         id="path60"
         style="display:inline;fill:url(#linearGradient1580);stroke-width:3.7796"
         d="m 14.5,4.5 c -5.54,0 -10,4.46 -10,10 v 7.164062 c 0.00844,0.03165 0.016902,0.06397 0.025391,0.0957 L 24.548712,43.761546 57.740234,12.431641 c 0.41975,-0.472871 0.806972,-0.921727 1.164063,-1.34961 C 57.513463,7.235556 53.838024,4.5 49.5,4.5 Z"
         sodipodi:nodetypes="sscccccss" />
      <path
         id="rect1"
         style="font-variation-settings:normal;display:inline;opacity:1;vector-effect:none;fill:#f1f1f1;fill-opacity:1;stroke-width:3.7796;stroke-linecap:butt;stroke-linejoin:miter;stroke-miterlimit:4;stroke-dasharray:none;stroke-dashoffset:0;stroke-opacity:1;-inkscape-stroke:none;paint-order:stroke fill markers;stop-color:#000000;stop-opacity:1"
         d="m 46.590327,-34.668948 v 69.337896 c 1.721227,-0.231751 3.394772,-0.914133 4.833737,-2.046742 5.09e-4,-4.01e-4 8.73e-4,-9.81e-4 0.0014,-0.0014 v -65.24165 c -5.09e-4,-4e-4 -8.73e-4,-9.8e-4 -0.0014,-0.0014 -1.438965,-1.132609 -3.11251,-1.814991 -4.833737,-2.046742 z"
         transform="rotate(45)" />
      <path
         d="M 4.5,28.945174 32.360386,59.49944 h 6.503939 L 4.5232394,21.746508 c -0.020485,1.047176 -0.024341,1.934362 -0.024341,3.11613 z"
         enable-background="new"
         fill="#fafafa"
         id="path72"
         style="display:inline;fill:#f1f1f1;fill-opacity:1;stroke-width:3.7796"
         sodipodi:nodetypes="cccccc" />
    </g>
    <g
       id="marker"
       transform="matrix(0.42386186,0,0,0.42386186,15.045593,16.402278)"
       style="display:inline">
      <circle
         cx="30"
         cy="39.999851"
         r="12"
         fill="url(#d)"
         transform="matrix(0,1,1,0,0,0)"
         id="circle10"
         style="display:inline;fill:url(#d)" />
      <path
         fill="#a51d2d"
         d="m 39.999849,4 c -7.165825,0 -14.3315,2.73383 -19.798825,8.20117 -10.934699,10.93468 -10.934699,28.66298 0,39.59766 l 19.798825,19.79931 c 0,0 13.821321,-13.82183 19.798821,-19.79931 10.93468,-10.93468 10.93468,-28.66298 0,-39.59766 C 54.33135,6.73383 47.165673,4 39.999849,4 Z m 0,18 a 9.9999996,9.9999996 0 0 1 10.000001,10 9.9999996,9.9999996 0 0 1 -10.000001,10 9.9999996,9.9999996 0 0 1 -10,-10 9.9999996,9.9999996 0 0 1 10,-10 z"
         style="display:inline;marker:none"
         id="path11" />
      <path
         fill="url(#e)"
         d="m 39.99986,2 c -7.1658,0 -14.3315,2.7338 -19.7988,8.2012 -10.9347,10.9347 -10.9347,28.663 0,39.5976 l 19.7988,19.7994 c 0,0 13.8213,-13.8219 19.79879,-19.7994 10.9347,-10.9346 10.9347,-28.6629 0,-39.5976 C 54.33136,4.7338 47.165655,2 39.99986,2 Z m 0,18 a 9.9999994,9.9999994 0 0 1 9.99999,10 9.9999994,9.9999994 0 0 1 -9.99999,10 9.9999994,9.9999994 0 0 1 -10,-10 9.9999994,9.9999994 0 0 1 10,-10 z"
         style="display:inline;fill:url(#e);marker:none"
         id="path12" />
    </g>
  </g>
</svg>
