<?xml version="1.0" encoding="UTF-8" standalone="no"?>
<svg xmlns:inkscape="http://www.inkscape.org/namespaces/inkscape" xmlns:sodipodi="http://sodipodi.sourceforge.net/DTD/sodipodi-0.dtd" xmlns="http://www.w3.org/2000/svg" xmlns:svg="http://www.w3.org/2000/svg" xmlns:rdf="http://www.w3.org/1999/02/22-rdf-syntax-ns#" xmlns:cc="http://creativecommons.org/ns#" xmlns:dc="http://purl.org/dc/elements/1.1/" width="64" height="64" version="1.1" viewBox="0 0 64 64" id="svg11" sodipodi:docname="bookworm.svg" inkscape:version="1.4.2 (ebf0e940d0, 2025-05-08)">
  <defs id="defs4">
    <filter id="filter3014" x="-0.15277205" y="-0.067940265" width="1.3055441" height="1.1358805" color-interpolation-filters="sRGB">
      <feGaussianBlur stdDeviation="0.17080551" id="feGaussianBlur1"/>
    </filter>
    <linearGradient id="linearGradient2984" x1="-37.862" x2="-30.145" y1="277.07999" y2="277.07999" gradientTransform="matrix(1.4743,0,0,1.4743,103.57,-372.82)" gradientUnits="userSpaceOnUse">
      <stop stop-color="#f56d3a" offset="0" id="stop1"/>
      <stop stop-color="#ec566a" offset="1" id="stop2"/>
    </linearGradient>
    <filter id="filter1057" x="-0.026999999" y="-0.026999999" width="1.054" height="1.054" color-interpolation-filters="sRGB">
      <feGaussianBlur stdDeviation="0.61875" id="feGaussianBlur2"/>
    </filter>
    <linearGradient id="linearGradient1053" x1="-127" x2="-72" y1="60" y2="5" gradientTransform="matrix(1.0000071,0,0,1.0000071,131.50369,-0.50986838)" gradientUnits="userSpaceOnUse">
      <stop stop-color="#dee0e2" offset="0" id="stop3"/>
      <stop stop-color="#f1f3f5" stop-opacity=".99608" offset="1" id="stop4"/>
    </linearGradient>
    <filter id="filter3014-3" x="-0.15277205" y="-0.067940268" width="1.3055441" height="1.1358805" color-interpolation-filters="sRGB">
      <feGaussianBlur stdDeviation="0.17080551" id="feGaussianBlur1-6"/>
    </filter>
    <filter id="filter2" x="-0.15277205" y="-0.067940265" width="1.3055441" height="1.1358805" color-interpolation-filters="sRGB">
      <feGaussianBlur stdDeviation="0.17080551" id="feGaussianBlur2-7"/>
    </filter>
    <filter id="filter3" x="-0.15277205" y="-0.067940265" width="1.3055441" height="1.1358805" color-interpolation-filters="sRGB">
      <feGaussianBlur stdDeviation="0.17080551" id="feGaussianBlur3"/>
    </filter>
    <filter id="filter1057-5" x="-0.026999999" y="-0.026999999" width="1.054" height="1.054" color-interpolation-filters="sRGB">
      <feGaussianBlur stdDeviation="0.61875" id="feGaussianBlur4"/>
    </filter>
  <radialGradient id="gradient_ds_br" cx="0" cy="0" r="1" gradientUnits="userSpaceOnUse" gradientTransform="matrix(13.998399,0.00477622,-0.00477841,14.004799,47.5016,48.4952)">
      <stop offset="0.65" id="stop1"/>
      <stop offset="1" stop-opacity="0" id="stop2"/>
    </radialGradient><linearGradient id="gradient_ds_b" x1="30.448999" y1="48.5" x2="30.492201" y2="62.500301" gradientUnits="userSpaceOnUse">
      <stop offset="0.653846" id="stop3"/>
      <stop offset="1" stop-opacity="0" id="stop4"/>
    </linearGradient><radialGradient id="gradient_ds_bl" cx="0" cy="0" r="1" gradientUnits="userSpaceOnUse" gradientTransform="matrix(0,14,-14,0,16.5,48.5)">
      <stop offset="0.65" id="stop5"/>
      <stop offset="1" stop-opacity="0" id="stop6"/>
    </radialGradient><linearGradient id="gradient_ds_r" x1="47.5" y1="33.5" x2="61.5" y2="33.5009" gradientUnits="userSpaceOnUse">
      <stop offset="0.649038" id="stop7"/>
      <stop offset="1" stop-opacity="0" id="stop8"/>
    </linearGradient><linearGradient id="gradient_ds_l" x1="16.5" y1="33.894699" x2="2.5" y2="33.894699" gradientUnits="userSpaceOnUse">
      <stop offset="0.649038" id="stop9"/>
      <stop offset="1" stop-opacity="0" id="stop10"/>
    </linearGradient><radialGradient id="gradient_ds_tr" cx="0" cy="0" r="1" gradientTransform="matrix(0.00843236,-14,14.0084,0.0189842,47.4916,18.5)" gradientUnits="userSpaceOnUse">
      <stop offset="0.65" id="stop11"/>
      <stop offset="1" stop-opacity="0" id="stop12"/>
    </radialGradient><linearGradient id="gradient_ds_t" x1="29.98" y1="18.5" x2="29.9158" y2="4.4998598" gradientUnits="userSpaceOnUse">
      <stop offset="0.649038" id="stop13"/>
      <stop offset="1" stop-opacity="0" id="stop14"/>
    </linearGradient><radialGradient id="gradient_ds_tl" cx="0" cy="0" r="1" gradientTransform="matrix(-0.00843236,-14,-14.0084,0.0189842,16.5084,18.5)" gradientUnits="userSpaceOnUse">
      <stop offset="0.65" id="stop15"/>
      <stop offset="1" stop-opacity="0" id="stop16"/>
    </radialGradient></defs>
  <metadata id="metadata4">
    <rdf:RDF>
      <cc:Work rdf:about="">
        <dc:format>image/svg+xml</dc:format>
        <dc:type rdf:resource="http://purl.org/dc/dcmitype/StillImage"/>
      </cc:Work>
    </rdf:RDF>
  </metadata>
  
  <g id="ds" opacity="0.25">
    <path id="ds-br" d="m 47.5,48.5 h 14 v 14 h -14 z" fill="url(#gradient_ds_br)" style="fill:url(#gradient_ds_br)"/>
    <path id="ds-b" d="m 16.5,48.5 h 31 v 14 h -31 z" fill="url(#gradient_ds_b)" style="fill:url(#gradient_ds_b)"/>
    <path id="ds-bl" d="m 2.5,48.5 h 14 v 14 h -14 z" fill="url(#gradient_ds_bl)" style="fill:url(#gradient_ds_bl)"/>
    <path id="ds-r" d="m 47.5,18.5 h 14 v 30 h -14 z" fill="url(#gradient_ds_r)" style="fill:url(#gradient_ds_r)"/>
    <path id="ds-l" d="m 2.5,18.5 h 14 v 30 h -14 z" fill="url(#gradient_ds_l)" style="fill:url(#gradient_ds_l)"/>
    <path id="ds-tr" d="m 47.5,4.5 h 14 v 14 h -14 z" fill="url(#gradient_ds_tr)" style="fill:url(#gradient_ds_tr)"/>
    <path id="ds-t" d="m 16.5,4.5 h 31 v 14 h -31 z" fill="url(#gradient_ds_t)" style="fill:url(#gradient_ds_t)"/>
    <path id="ds-tl" d="m 16.5,4.5 h -14 v 14 h 14 z" fill="url(#gradient_ds_tl)" style="fill:url(#gradient_ds_tl)"/>
  </g><rect x="4.5" y="4.5" width="55" height="55" fill="url(#linearGradient1053)" stroke-width="2.74441" id="bg" style="fill:url(#linearGradient1053);stroke-linecap:round" rx="10"/>
  <g transform="matrix(3.779602,0,0,3.779602,-169.432,-101.85649)" id="art">
    <g fill="#f36845" id="g7">
      <path transform="matrix(1.4743,0,0,1.4743,103.57,-372.82)" d="m -37.582,274.22 v 5.3671 c 0,0 0.06453,0.18707 0.32763,0.18707 h 2.4727 c 0,0 0.67179,0.19893 0.67179,0.47956 0,-0.28063 0.65474,-0.47956 0.65474,-0.47956 h 2.5146 c 0.2631,0 0.32763,-0.18707 0.32763,-0.18707 V 274.22 h -2.2216 c -1.0407,0 -1.2764,0.53795 -1.2764,0.53795 0,0 -0.20886,-0.53795 -1.2495,-0.53795 z" filter="url(#filter3014)" id="path5" style="filter:url(#filter3014-3)"/>
      <path transform="matrix(1.4743,0,0,1.4743,103.57,-372.71)" d="m -34.11,274.71 c 0,0 -0.15071,-1.109 -2.4776,-1.226 0,0 -0.20463,-0.006 -0.20463,0.14032 v 5.1288 c 0,0 0.46862,0.44749 1.4916,0.47129 0.80669,0.053 1.1917,0.62012 1.1917,0.62012 z" filter="url(#filter3014)" id="path6" style="filter:url(#filter3014-3)"/>
      <path transform="matrix(1.4743,0,0,1.4743,103.57,-372.71)" d="m -34.108,274.71 c 0,0 0.15071,-1.109 2.4776,-1.226 0,0 0.20463,-0.006 0.20463,0.14032 v 5.1288 c 0,0 -0.46862,0.44749 -1.4916,0.47129 -0.80669,0.053 -1.1917,0.62012 -1.1917,0.62012 z" filter="url(#filter3014)" id="path7" style="filter:url(#filter3014-3)"/>
    </g>
    <g stroke-width="1.4743" id="g10">
      <path d="m 48.157,31.472 v 7.9129 c 0,0 0.09514,0.2758 0.48303,0.2758 h 3.6456 c 0,0 0.99044,0.29329 0.99044,0.70703 0,-0.41374 0.9653,-0.70703 0.9653,-0.70703 h 3.7073 c 0.3879,0 0.48304,-0.2758 0.48304,-0.2758 V 31.472 h -3.2754 c -1.5343,0 -1.8818,0.79312 -1.8818,0.79312 0,0 -0.30793,-0.79312 -1.8422,-0.79312 z" fill="url(#linearGradient2984)" id="path8" style="fill:url(#linearGradient2984)"/>
      <path d="m 53.276,32.304 c 0,0 -0.2222,-1.635 -3.6528,-1.8075 0,0 -0.30169,-0.0088 -0.30169,0.20688 v 7.5615 c 0,0 0.6909,0.65975 2.1991,0.69484 1.1893,0.07814 1.757,0.91426 1.757,0.91426 z" fill="#ffbb77" id="path9"/>
      <path d="m 53.279,32.304 c 0,0 0.2222,-1.635 3.6528,-1.8075 0,0 0.30169,-0.0088 0.30169,0.20688 v 7.5615 c 0,0 -0.6909,0.65975 -2.1991,0.69484 -1.1893,0.07814 -1.757,0.91426 -1.757,0.91426 z" fill="#ff8a7c" id="path10"/>
    </g>
  </g>
</svg>
