<svg width="16" height="16" viewBox="0 0 16 16" fill="none" xmlns="http://www.w3.org/2000/svg">
<g id="applications-accessories" clip-path="url(#clip0_2048_957)">
<g id="Frame">
<path id="Vector" d="M4.70024 9.41422L3.28602 10.8285L5.17164 12.7141L12.7141 5.1716L10.8285 3.28598L9.41429 4.70019L10.3571 5.64301L9.41429 6.58581L8.47149 5.64301L7.52869 6.58581L8.47149 7.52862L7.52869 8.47142L6.58585 7.52862L5.64305 8.47142L6.58585 9.41422L5.64305 10.357L4.70024 9.41422ZM11.2999 1.87177L14.1284 4.70019C14.3887 4.96055 14.3887 5.38265 14.1284 5.64301L5.64305 14.1283C5.38269 14.3886 4.96059 14.3886 4.70024 14.1283L1.87181 11.2999C1.61146 11.0395 1.61146 10.6174 1.87181 10.357L10.3571 1.87177C10.6174 1.61142 11.0396 1.61142 11.2999 1.87177ZM9.41429 12.2424L10.3571 11.2996L11.8521 12.7946H12.7949V11.8518L11.2999 10.3568L12.2427 9.41389L13.9998 11.171V14H11.1719L9.41429 12.2424ZM3.75733 6.58539L1.87171 4.69977C1.61137 4.43943 1.61137 4.01731 1.87171 3.75697L3.75733 1.87135C4.01768 1.611 4.43979 1.611 4.70014 1.87135L6.58576 3.75697L5.64295 4.69977L4.22874 3.28556L3.28593 4.22837L4.70014 5.64259L3.75733 6.58539Z" fill="black"/>
</g>
</g>
<defs>
<clipPath id="clip0_2048_957">
<rect width="16" height="16" fill="white"/>
</clipPath>
</defs>
</svg>
