<svg width="16" height="16" viewBox="0 0 16 16" fill="none" xmlns="http://www.w3.org/2000/svg">
<g id="applications-development" clip-path="url(#clip0_2048_985)">
<g id="Frame">
<path id="Vector" d="M5.375 12.5C6.703 11.125 7.915 9.695 8.071 9.323C8.226 8.951 8.837 8.216 9.429 7.69C10.978 6.312 11.881 6.42 12.659 8.076C12.857 8.498 13.13 8.843 13.265 8.843C13.575 8.843 15 7.462 15 7.163C15 6.774 14.269 6.106 13.844 6.106C13.396 6.106 12.968 5.466 12.968 4.799C12.968 4.293 11.568 2.884 10.552 2.368C10.067 2.122 9.234 2 8.025 2C6.197 2 5.433 2.302 6.603 2.561C6.954 2.639 7.616 3.014 8.073 3.395C9.249 4.375 9.202 5.11 7.86 6.697C7.286 7.375 6.676 7.93 6.504 7.93C6.124 7.93 1 12.669 1 13.02C1 13.286 2.573 15 2.817 15C2.896 15 4.047 13.875 5.375 12.5Z" fill="black"/>
</g>
</g>
<defs>
<clipPath id="clip0_2048_985">
<rect width="16" height="16" fill="white"/>
</clipPath>
</defs>
</svg>
