<?xml version="1.0" encoding="UTF-8" standalone="no"?>
<svg
   width="16"
   height="16"
   viewBox="0 0 16 16"
   fill="none"
   version="1.1"
   id="svg1"
   sodipodi:docname="applications-system-symbolic (Copy).svg"
   inkscape:version="1.4.4 (dcaf3e7d9e, 2026-05-05)"
   xmlns:inkscape="http://www.inkscape.org/namespaces/inkscape"
   xmlns:sodipodi="http://sodipodi.sourceforge.net/DTD/sodipodi-0.dtd"
   xmlns="http://www.w3.org/2000/svg"
   xmlns:svg="http://www.w3.org/2000/svg">
  <sodipodi:namedview
     id="namedview1"
     pagecolor="#ffffff"
     bordercolor="#000000"
     borderopacity="0.25"
     inkscape:showpageshadow="2"
     inkscape:pageopacity="0.0"
     inkscape:pagecheckerboard="0"
     inkscape:deskcolor="#d1d1d1"
     showgrid="true"
     inkscape:current-layer="svg1">
    <inkscape:grid
       id="grid1"
       units="px"
       originx="0"
       originy="0"
       spacingx="0.5"
       spacingy="0.5"
       empcolor="#0099e5"
       empopacity="0.30196078"
       color="#0099e5"
       opacity="0.14901961"
       empspacing="2"
       enabled="true"
       visible="true" />
  </sodipodi:namedview>
  <defs
     id="defs1">
    <clipPath
       id="clip0_2048_1137">
      <rect
         width="16"
         height="16"
         fill="white"
         id="rect1" />
    </clipPath>
  </defs>
  <path
     d="M 12.451903,14.948752 Q 12.342387,14.90821 12.243928,14.809751 L 8.7041316,11.276624 q -0.098635,-0.09863 -0.1391769,-0.207976 -0.040367,-0.10934 -0.040367,-0.236232 0,-0.126891 0.040367,-0.236232 0.040542,-0.109341 0.1391769,-0.2078 l 1.329814,-1.3298147 q 0.09846,-0.098635 0.2078,-0.1391769 0.109341,-0.040366 0.236233,-0.040366 0.126891,0 0.236232,0.040366 0.109516,0.040542 0.207975,0.1391769 l 3.539796,3.5397957 q 0.09863,0.09846 0.139177,0.2078 0.04037,0.109517 0.04037,0.236408 0,0.126891 -0.04037,0.236232 -0.04054,0.109341 -0.139177,0.2078 l -1.329815,1.323146 q -0.09846,0.09846 -0.2078,0.139001 -0.10934,0.04054 -0.236232,0.04054 -0.126891,0 -0.236232,-0.04054 z m 0.236232,-1.160977 0.745202,-0.745202 -2.944477,-2.944477 -0.7452018,0.745202 z M 3.08107,14.954193 Q 2.9664641,14.90821 2.8678293,14.809751 L 1.5488959,13.497487 Q 1.450261,13.398852 1.4044538,13.284246 1.358471,13.169464 1.358471,13.042573 q 0,-0.126891 0.045983,-0.239742 0.045807,-0.112676 0.1444419,-0.21131 L 5.2155834,8.9248331 H 6.693877 L 7.263572,8.3551381 4.3271681,5.4187343 H 3.3267795 L 1.3786543,3.4706091 3.1189795,1.7304594 5.0671047,3.6785846 V 4.6789732 L 8.003333,7.615377 10.079754,5.5389564 9.0551451,4.5141724 9.9433849,3.6259326 H 8.1560239 L 7.7658723,3.2424503 10.008147,1.0000002 10.391629,1.3834825 v 1.7942058 l 0.88824,-0.8882398 2.64085,2.6271609 q 0.278003,0.2713335 0.419111,0.6183103 0.141107,0.346977 0.141107,0.7343204 0,0.3403076 -0.117414,0.6555178 -0.117414,0.3152101 -0.341536,0.5730296 L 12.557207,6.0330079 11.567525,7.0226906 10.823727,6.2787174 7.4269688,9.6754756 V 11.156402 L 3.7669505,14.809751 Q 3.6684915,14.90821 3.5589749,14.954193 3.4496342,15 3.3227428,15 3.1958514,15 3.08107,14.954193 Z M 3.3227428,13.78093 6.5427656,10.561083 V 9.815881 H 5.7973884 l -3.2198473,3.219847 z m 0,0 -0.7452017,-0.745202 0.3780416,0.367336 z m 9.3653922,0.0069 0.745202,-0.745202 z"
     id="path1"
     style="fill:#000000;fill-opacity:1;stroke-width:0.025" />
</svg>
