<?xml version="1.0" encoding="UTF-8" standalone="no"?>
<svg
   width="16"
   height="16"
   viewBox="0 0 16 16"
   fill="none"
   version="1.1"
   id="svg1"
   sodipodi:docname="applications-education-symbolic.svg"
   inkscape:version="1.4.4 (dcaf3e7d9e, 2026-05-05)"
   xmlns:inkscape="http://www.inkscape.org/namespaces/inkscape"
   xmlns:sodipodi="http://sodipodi.sourceforge.net/DTD/sodipodi-0.dtd"
   xmlns="http://www.w3.org/2000/svg"
   xmlns:svg="http://www.w3.org/2000/svg">
  <sodipodi:namedview
     id="namedview1"
     pagecolor="#ffffff"
     bordercolor="#000000"
     borderopacity="0.25"
     inkscape:showpageshadow="2"
     inkscape:pageopacity="0.0"
     inkscape:pagecheckerboard="0"
     inkscape:deskcolor="#d1d1d1"
     inkscape:current-layer="svg1" />
  <defs
     id="defs1">
    <clipPath
       id="clip0_2048_997">
      <rect
         width="16"
         height="16"
         fill="white"
         id="rect1" />
    </clipPath>
  </defs>
  <path
     d="M 3.5266842,11.786423 Q 3.1996885,11.604533 3.0141014,11.295467 2.8285142,10.986402 2.8285142,10.602103 V 7.3942553 L 1.3526896,6.5781524 q -0.182075,-0.1038845 -0.2672898,-0.252687 -0.0854,-0.1486175 -0.0854,-0.3305077 0,-0.1818903 0.0854,-0.330323 Q 1.1706146,5.516017 1.3526896,5.4121326 L 6.9979404,2.3362658 q 0.1502817,-0.083551 0.3081411,-0.122739 0.1578602,-0.039003 0.3284744,-0.039003 0.170615,0 0.3284744,0.039003 0.1578599,0.039188 0.3085119,0.1225541 l 6.3757688,3.4699623 q 0.170614,0.092424 0.261744,0.2499139 Q 15,6.2136325 15,6.3960773 v 4.3624077 q 0,0.23568 -0.159524,0.395204 -0.159523,0.159339 -0.395204,0.159339 -0.235866,0 -0.39502,-0.159339 -0.159338,-0.159524 -0.159338,-0.395204 V 6.6093916 l -1.450316,0.7848637 v 3.2078477 q 0,0.384299 -0.185588,0.693364 -0.185587,0.309066 -0.512582,0.490956 l -3.4694078,1.87565 q -0.15213,0.08521 -0.3099899,0.124403 -0.1578594,0.039 -0.3284744,0.039 -0.1706142,0 -0.3284744,-0.039 Q 7.1482221,13.747286 6.996092,13.662073 Z M 7.5491567,8.6881896 q 0.049907,0.028466 0.088912,0.028466 0.039186,0 0.088911,-0.028466 L 12.69236,5.9951425 7.7269798,3.3091196 q -0.049722,-0.028466 -0.088911,-0.028466 -0.039002,0 -0.088912,0.028466 L 2.5767516,5.9951425 Z m -0.00702,4.0139694 q 0.049723,0.02847 0.092424,0.02847 0.042698,0 0.092424,-0.02847 L 11.224855,10.81246 q 0.05693,-0.03549 0.0817,-0.0817 0.02495,-0.04621 0.02495,-0.117378 V 7.9857681 L 8.2842902,9.6593799 q -0.15213,0.085215 -0.315535,0.1244023 -0.1635903,0.039186 -0.3342053,0.039186 -0.1706142,0 -0.3342045,-0.039186 Q 7.136946,9.7445957 6.9848159,9.6593799 L 3.9376009,7.9857681 v 2.6276109 q 0,0.05693 0.024954,0.110355 0.024769,0.05323 0.081703,0.08873 z m 0.092424,-3.9782938 z m 0,1.7388628 z m 0,0 z"
     id="path1"
     style="fill:#000000;fill-opacity:1;stroke-width:0.025" />
</svg>
