<?xml version="1.0" encoding="UTF-8" standalone="no"?>
<svg
   width="16"
   height="16"
   viewBox="0 0 16 16"
   fill="none"
   version="1.1"
   id="svg1"
   sodipodi:docname="applications-utilities-symbolic (Copy).svg"
   inkscape:version="1.4.4 (dcaf3e7d9e, 2026-05-05)"
   xmlns:inkscape="http://www.inkscape.org/namespaces/inkscape"
   xmlns:sodipodi="http://sodipodi.sourceforge.net/DTD/sodipodi-0.dtd"
   xmlns="http://www.w3.org/2000/svg"
   xmlns:svg="http://www.w3.org/2000/svg">
  <sodipodi:namedview
     id="namedview1"
     pagecolor="#ffffff"
     bordercolor="#000000"
     borderopacity="0.25"
     inkscape:showpageshadow="2"
     inkscape:pageopacity="0.0"
     inkscape:pagecheckerboard="0"
     inkscape:deskcolor="#d1d1d1"
     showgrid="true"
     inkscape:current-layer="svg1">
    <inkscape:grid
       id="grid1"
       units="px"
       originx="0"
       originy="0"
       spacingx="0.5"
       spacingy="0.5"
       empcolor="#0099e5"
       empopacity="0.30196078"
       color="#0099e5"
       opacity="0.14901961"
       empspacing="2"
       enabled="true"
       visible="true" />
  </sodipodi:namedview>
  <defs
     id="defs1">
    <clipPath
       id="clip0_2048_1137">
      <rect
         width="16"
         height="16"
         fill="white"
         id="rect1" />
    </clipPath>
  </defs>
  <path
     d="M 2.3718854,13.628115 Q 2,13.256229 2,12.727356 q 0,-0.528872 0.3718854,-0.900758 0.3718853,-0.371885 0.9007583,-0.371885 0.528873,0 0.9007583,0.371885 0.3718854,0.371886 0.3718854,0.900758 0,0.528873 -0.3718854,0.900759 Q 3.8015167,14 3.2726437,14 2.7437707,14 2.3718854,13.628115 Z m 4.7273563,0 q -0.3718854,-0.371886 -0.3718854,-0.900759 0,-0.528873 0.3718854,-0.900758 Q 7.471127,11.454713 8,11.454713 q 0.5288735,0 0.9007586,0.371885 0.3718851,0.371886 0.3718851,0.900758 0,0.528873 -0.3718851,0.900759 Q 8.5288735,14 8,14 7.471127,14 7.0992417,13.628115 Z m 4.7273563,0 q -0.371885,-0.371886 -0.371885,-0.900759 0,-0.528873 0.371885,-0.900758 0.371886,-0.371885 0.900758,-0.371885 0.528874,0 0.900759,0.371885 Q 14,12.198484 14,12.727356 14,13.256229 13.628115,13.628115 13.25623,14 12.727356,14 12.198484,14 11.826598,13.628115 Z M 2.3718854,8.9007583 Q 2,8.528873 2,8 2,7.471127 2.3718854,7.0992417 2.7437707,6.7273563 3.2726437,6.7273563 q 0.528873,0 0.9007583,0.3718854 Q 4.5452874,7.471127 4.5452874,8 q 0,0.528873 -0.3718854,0.9007583 -0.3718853,0.3718854 -0.9007583,0.3718854 -0.528873,0 -0.9007583,-0.3718854 z m 4.7273563,0 Q 6.7273563,8.528873 6.7273563,8 q 0,-0.528873 0.3718854,-0.9007583 Q 7.471127,6.7273563 8,6.7273563 q 0.5288735,0 0.9007586,0.3718854 Q 9.2726437,7.471127 9.2726437,8 q 0,0.528873 -0.3718851,0.9007583 Q 8.5288735,9.2726437 8,9.2726437 q -0.528873,0 -0.9007583,-0.3718854 z m 4.7273563,0 Q 11.454713,8.528873 11.454713,8 q 0,-0.528873 0.371885,-0.9007583 0.371886,-0.3718854 0.900758,-0.3718854 0.528874,0 0.900759,0.3718854 Q 14,7.471127 14,8 q 0,0.528873 -0.371885,0.9007583 -0.371885,0.3718854 -0.900759,0.3718854 -0.528872,0 -0.900758,-0.3718854 z M 2.3718854,4.173402 Q 2,3.8015167 2,3.2726437 2,2.7437707 2.3718854,2.3718853 2.7437707,2 3.2726437,2 q 0.528873,0 0.9007583,0.3718853 0.3718854,0.3718854 0.3718854,0.9007584 0,0.528873 -0.3718854,0.9007583 -0.3718853,0.3718854 -0.9007583,0.3718854 -0.528873,0 -0.9007583,-0.3718854 z m 4.7273563,0 Q 6.7273563,3.8015167 6.7273563,3.2726437 q 0,-0.528873 0.3718854,-0.9007584 Q 7.471127,2 8,2 q 0.5288735,0 0.9007586,0.3718853 0.3718851,0.3718854 0.3718851,0.9007584 0,0.528873 -0.3718851,0.9007583 Q 8.5288735,4.5452874 8,4.5452874 q -0.528873,0 -0.9007583,-0.3718854 z m 4.7273563,0 q -0.371885,-0.3718853 -0.371885,-0.9007583 0,-0.528873 0.371885,-0.9007584 Q 12.198484,2 12.727356,2 13.25623,2 13.628115,2.3718853 14,2.7437707 14,3.2726437 q 0,0.528873 -0.371885,0.9007583 -0.371885,0.3718854 -0.900759,0.3718854 -0.528872,0 -0.900758,-0.3718854 z"
     id="path1"
     style="fill:#000000;fill-opacity:1;stroke-width:0.025" />
</svg>
