<?xml version="1.0" encoding="UTF-8" standalone="no"?>
<svg
   width="16"
   height="16"
   viewBox="0 0 16 16"
   fill="none"
   version="1.1"
   id="svg1"
   sodipodi:docname="applications-science-symbolic (Copy).svg"
   inkscape:version="1.4.4 (dcaf3e7d9e, 2026-05-05)"
   xmlns:inkscape="http://www.inkscape.org/namespaces/inkscape"
   xmlns:sodipodi="http://sodipodi.sourceforge.net/DTD/sodipodi-0.dtd"
   xmlns="http://www.w3.org/2000/svg"
   xmlns:svg="http://www.w3.org/2000/svg">
  <sodipodi:namedview
     id="namedview1"
     pagecolor="#ffffff"
     bordercolor="#000000"
     borderopacity="0.25"
     inkscape:showpageshadow="2"
     inkscape:pageopacity="0.0"
     inkscape:pagecheckerboard="0"
     inkscape:deskcolor="#d1d1d1"
     showgrid="true"
     inkscape:current-layer="svg1">
    <inkscape:grid
       id="grid1"
       units="px"
       originx="0"
       originy="0"
       spacingx="0.5"
       spacingy="0.5"
       empcolor="#0099e5"
       empopacity="0.30196078"
       color="#0099e5"
       opacity="0.14901961"
       empspacing="2"
       enabled="true"
       visible="true" />
  </sodipodi:namedview>
  <defs
     id="defs1">
    <clipPath
       id="clip0_2048_1137">
      <rect
         width="16"
         height="16"
         fill="white"
         id="rect1" />
    </clipPath>
  </defs>
  <path
     d="m 7.1837631,15 q -0.3768948,0 -0.651,-0.250158 Q 6.2584736,14.499868 6.1989736,14.134211 L 6.0189999,12.755395 Q 5.7229736,12.65629 5.411842,12.47779 5.1008946,12.299105 4.8557104,12.095184 L 3.5789473,12.637868 Q 3.2317104,12.790947 2.8811578,12.667526 2.5304209,12.54429 2.336263,12.219895 L 1.505842,10.780105 Q 1.3116841,10.455711 1.3940262,10.093553 1.4761841,9.7315789 1.7709209,9.4963422 L 2.8747104,8.6673948 Q 2.8492894,8.5030789 2.8386051,8.3372896 2.8279209,8.1715 2.8279209,8.0070001 q 0,-0.1571316 0.010684,-0.3194211 0.010684,-0.1622895 0.036105,-0.3549737 L 1.7709209,6.5036579 Q 1.4761841,6.2684211 1.3975262,5.9027631 1.3188682,5.5372894 1.5130262,5.2127105 L 2.336263,3.7942894 Q 2.5304209,3.4768947 2.8811578,3.3501578 3.2317104,3.2232368 3.5789473,3.3763158 L 4.8485262,3.912 Q 5.1150788,3.7008947 5.4175525,3.5258947 5.7200262,3.3508947 6.0119999,3.2446052 L 6.1989736,1.8657894 q 0.0595,-0.3656579 0.3337895,-0.6156316 0.2741052,-0.25015785 0.651,-0.25015785 h 1.6324737 q 0.3768947,0 0.651,0.25015785 0.2742894,0.2499737 0.3337894,0.6156317 l 0.1799737,1.3858158 q 0.3315791,0.1204737 0.5999741,0.2812895 0.268579,0.1608158 0.542131,0.3791053 l 1.305132,-0.5356843 q 0.347053,-0.1530789 0.697789,-0.026158 0.350737,0.1267369 0.544711,0.4441316 l 0.823421,1.4256053 q 0.194158,0.3243947 0.111816,0.6865525 -0.08216,0.3619738 -0.376895,0.5972106 l -1.132158,0.8501316 q 0.0396,0.1785 0.04329,0.3337895 0.0035,0.1551052 0.0035,0.312421 0,0.1501317 -0.0072,0.3054211 -0.007,0.1551053 -0.05084,0.3549737 L 14.19646,9.496342 q 0.294737,0.2352369 0.380579,0.597211 0.08566,0.362157 -0.1085,0.686552 l -0.834644,1.432606 q -0.193974,0.324579 -0.548211,0.447815 -0.354237,0.123237 -0.701473,-0.02984 L 11.123105,12.088 q -0.273552,0.21829 -0.558342,0.386105 -0.284789,0.168 -0.5837631,0.27429 l -0.1799737,1.385816 q -0.0595,0.365657 -0.3337894,0.615631 Q 9.1931315,15 8.8162368,15 Z m 0.079395,-1.105263 H 8.711421 l 0.2648947,-1.973816 q 0.5640526,-0.147368 1.0308423,-0.41871 0.466973,-0.271527 0.900605,-0.697974 l 1.830684,0.769447 0.725606,-1.252631 -1.598395,-1.2043688 Q 11.957768,8.8304211 11.990921,8.5553948 12.024261,8.2805527 12.024261,8 q 0,-0.2877368 -0.03334,-0.5553947 Q 11.957761,7.1767632 11.865658,6.8975 L 13.478053,5.6789473 12.752632,4.4263158 10.900579,5.207 Q 10.530684,4.8116842 10.014342,4.5084736 9.4978157,4.2052631 8.9693157,4.0790789 L 8.736842,2.1052632 H 7.2745789 L 7.0306841,4.0720789 Q 6.4668157,4.2052631 5.989342,4.4801052 5.5116841,4.7551315 5.0780525,5.1885789 L 3.2473683,4.4263158 2.5219472,5.6789473 4.1131578,6.8648948 q -0.092105,0.2623158 -0.1289474,0.5456315 -0.036842,0.2833158 -0.036842,0.5964738 0,0.2877368 0.036842,0.5640525 0.036842,0.2763158 0.1219474,0.5456316 L 2.5219472,10.321053 3.2473683,11.573684 5.0710525,10.8 q 0.4194474,0.430684 0.8969211,0.705711 0.4776579,0.274842 1.0557105,0.42221 z m 0.7453158,-3.684211 q 0.919579,0 1.5650526,-0.6454733 Q 10.219,8.919579 10.219,8 10.219,7.0804211 9.5735262,6.4349474 8.9280526,5.7894737 8.0084736,5.7894737 q -0.931,0 -1.5707632,0.6454737 Q 5.7979473,7.0804211 5.7979473,8 q 0,0.919579 0.6397631,1.5650527 0.6397632,0.6454733 1.5707632,0.6454733 z M 8.0000036,8 Z"
     id="path1"
     style="fill:#000000;fill-opacity:1;stroke-width:0.025" />
</svg>
