<svg width="16" height="16" viewBox="0 0 16 16" fill="none" xmlns="http://www.w3.org/2000/svg">
<g id="applications-games" clip-path="url(#clip0_2048_1068)">
<g id="Frame">
<g id="Glyph">
<path id="Vector" d="M3.86589 5.6267C3.86618 4.79126 5.13317 4.79126 5.13347 5.6267V6.36694H5.87175C6.70928 6.3672 6.70928 7.6323 5.87175 7.63256H5.13347V8.37182C5.13337 9.20941 3.86599 9.20941 3.86589 8.37182V7.63256H3.12859C2.29071 7.63256 2.29071 6.36694 3.12859 6.36694H3.86589V5.6267Z" fill="black"/>
<path id="Vector_2" d="M11.4997 7.50073C11.6984 7.5008 11.8894 7.57995 12.0299 7.72045C12.1703 7.8611 12.2497 8.05196 12.2497 8.25073C12.2496 8.44935 12.1702 8.63947 12.0299 8.78002C11.8894 8.92058 11.6984 8.99968 11.4997 8.99975C11.3009 8.99964 11.1099 8.92061 10.9694 8.78002C10.8291 8.63948 10.7498 8.44933 10.7497 8.25073C10.7497 8.05193 10.829 7.86111 10.9694 7.72045C11.1099 7.57986 11.3009 7.50083 11.4997 7.50073Z" fill="black"/>
<path id="Vector_3" d="M10.2497 6.25073C10.4485 6.25078 10.6403 6.32981 10.7809 6.47045C10.921 6.611 11.0006 6.80127 11.0006 6.99975C11.0006 7.19843 10.9212 7.38939 10.7809 7.53002C10.6403 7.67066 10.4485 7.7497 10.2497 7.74975C10.0509 7.74964 9.8599 7.67061 9.71936 7.53002C9.57891 7.38937 9.49963 7.19856 9.49963 6.99975C9.4997 6.80114 9.57911 6.61103 9.71936 6.47045C9.8599 6.32986 10.0509 6.25083 10.2497 6.25073Z" fill="black"/>
<path id="Vector_4" d="M12.7497 6.25073C12.9484 6.25082 13.1394 6.32985 13.2799 6.47045C13.4203 6.61104 13.4996 6.80108 13.4997 6.99975C13.4997 7.19852 13.4203 7.38938 13.2799 7.53002C13.1394 7.67049 12.9483 7.74966 12.7497 7.74975C12.5509 7.74964 12.3599 7.67061 12.2194 7.53002C12.0789 7.38936 11.9997 7.1986 11.9997 6.99975C11.9997 6.8011 12.0791 6.61103 12.2194 6.47045C12.3599 6.32986 12.5509 6.25083 12.7497 6.25073Z" fill="black"/>
<path id="Vector_5" d="M11.4997 4.99976C11.6983 4.99983 11.8894 5.0791 12.0299 5.21949C12.1703 5.36013 12.2497 5.55099 12.2497 5.74976C12.2496 5.94851 12.1703 6.1394 12.0299 6.28003C11.8894 6.4204 11.6983 6.49969 11.4997 6.49976C11.3009 6.49965 11.1099 6.42057 10.9694 6.28003C10.8289 6.13938 10.7497 5.94861 10.7497 5.74976C10.7497 5.5509 10.8289 5.36015 10.9694 5.21949C11.1099 5.07892 11.3009 4.99987 11.4997 4.99976Z" fill="black"/>
<path id="Vector_6" fill-rule="evenodd" clip-rule="evenodd" d="M2.48501 3.44017C3.54377 2.20702 5.58529 2.18011 6.66665 3.40501L9.33657 3.40599C10.4118 2.19401 12.4489 2.19923 13.5104 3.43529C13.5233 3.43907 13.5367 3.44259 13.5495 3.44701L13.6315 3.48119L13.7086 3.52318C13.7727 3.56288 13.8299 3.61283 13.8805 3.66869C14.6542 4.47664 15.2136 5.71295 15.5602 6.97728C15.9075 8.24456 16.0591 9.60641 15.9762 10.7214L15.9772 10.7224C15.9487 11.2912 15.8182 11.8509 15.5915 12.3728L15.5836 12.3904C15.3274 12.9246 14.9109 13.3564 14.2946 13.4714C13.5163 13.6164 12.7021 13.1809 11.8864 12.3455L11.5876 12.0456L11.2829 11.7468C11.0441 11.5021 10.8197 11.2433 10.6081 10.9744H5.39321C5.09334 11.357 4.76659 11.7176 4.41177 12.0496L4.11587 12.3445C3.30149 13.1829 2.48174 13.6202 1.70376 13.4714C1.08627 13.3594 0.670009 12.918 0.416651 12.3972L0.412745 12.3874L0.407862 12.3777C0.181061 11.8551 0.050528 11.2948 0.0221201 10.7253L0.0230967 10.7244C-0.059877 9.60392 0.0927793 8.23451 0.443995 6.96165C0.793628 5.69465 1.35666 4.45592 2.14126 3.65208C2.21591 3.57398 2.30632 3.51213 2.40591 3.46947L2.48208 3.44115L2.48501 3.44017ZM6.02114 4.19505C5.35746 3.26557 3.8283 3.27027 3.15982 4.19701L3.00942 4.40501H2.8063C2.21383 5.04088 1.72784 6.06789 1.40786 7.22728C1.12148 8.26516 0.981733 9.35907 1.00161 10.279L1.02017 10.6619L1.02114 10.6755C1.04333 11.1201 1.14376 11.5574 1.319 11.9656C1.46626 12.2657 1.63667 12.4135 1.81021 12.4695L1.88442 12.488L1.89224 12.489C2.15454 12.5391 2.64637 12.4211 3.3981 11.6472C3.50327 11.539 3.61245 11.4315 3.72134 11.3259L3.72817 11.3191C4.10132 10.97 4.44299 10.5878 4.74771 10.1765L4.89712 9.97435H11.1032L11.2536 10.1755C11.4824 10.4827 11.7317 10.774 11.9987 11.0476L12.2711 11.3162L12.278 11.321L12.2829 11.3269L12.6022 11.6462C13.3565 12.4188 13.8461 12.5385 14.112 12.489C14.3162 12.4508 14.5101 12.3081 14.6764 11.9656C14.853 11.5564 14.9558 11.1185 14.9782 10.6726L14.9792 10.6599C15.0542 9.67577 14.9203 8.42399 14.5963 7.24193C14.2907 6.12667 13.8322 5.13 13.2741 4.48509L13.1188 4.58763L12.8405 4.19701C12.1771 3.26923 10.6469 3.27107 9.98208 4.19798L9.83169 4.40697L6.42739 4.40501L6.17056 4.40404L6.02114 4.19505Z" fill="black"/>
</g>
</g>
</g>
<defs>
<clipPath id="clip0_2048_1068">
<rect width="16" height="16" fill="white"/>
</clipPath>
</defs>
</svg>
