<svg width="16" height="16" viewBox="0 0 16 16" fill="none" xmlns="http://www.w3.org/2000/svg">
<g id="applications-science" clip-path="url(#clip0_2048_1137)">
<g id="Frame">
<path id="Vector" d="M2.64096 10.5831C2.47932 9.88006 2.39347 9.14423 2.39347 8.38643C2.39347 4.57049 4.57046 1.30921 7.64344 0C10.7165 1.30921 12.8934 4.57049 12.8934 8.38643C12.8934 9.14423 12.8076 9.88006 12.646 10.5831L14.1611 11.9299C14.2959 12.0497 14.3262 12.2485 14.2335 12.4031L12.3906 15.4746C12.284 15.6522 12.0537 15.7098 11.8761 15.6032C11.8498 15.5875 11.8255 15.5685 11.8038 15.5468L10.1131 13.8561C9.97249 13.7155 9.78169 13.6364 9.58279 13.6364H5.70414C5.50522 13.6364 5.31446 13.7155 5.1738 13.8561L3.48309 15.5468C3.33664 15.6933 3.09921 15.6933 2.95276 15.5468C2.93108 15.5252 2.91214 15.5009 2.89637 15.4746L1.05345 12.4031C0.960672 12.2485 0.9911 12.0497 1.12588 11.9299L2.64096 10.5831ZM7.64344 8.38643C8.47189 8.38643 9.14344 7.71488 9.14344 6.88643C9.14344 6.05803 8.47189 5.38646 7.64344 5.38646C6.81507 5.38646 6.14344 6.05803 6.14344 6.88643C6.14344 7.71488 6.81507 8.38643 7.64344 8.38643Z" fill="black"/>
</g>
</g>
<defs>
<clipPath id="clip0_2048_1137">
<rect width="16" height="16" fill="white"/>
</clipPath>
</defs>
</svg>
