<?xml version="1.0" encoding="UTF-8" standalone="no"?>
<svg
   width="16"
   height="16"
   viewBox="0 0 16 16"
   fill="none"
   version="1.1"
   id="svg1"
   sodipodi:docname="applications-development-symbolic.svg"
   inkscape:version="1.4.4 (dcaf3e7d9e, 2026-05-05)"
   xmlns:inkscape="http://www.inkscape.org/namespaces/inkscape"
   xmlns:sodipodi="http://sodipodi.sourceforge.net/DTD/sodipodi-0.dtd"
   xmlns="http://www.w3.org/2000/svg"
   xmlns:svg="http://www.w3.org/2000/svg">
  <sodipodi:namedview
     id="namedview1"
     pagecolor="#ffffff"
     bordercolor="#000000"
     borderopacity="0.25"
     inkscape:showpageshadow="2"
     inkscape:pageopacity="0.0"
     inkscape:pagecheckerboard="0"
     inkscape:deskcolor="#d1d1d1"
     inkscape:current-layer="svg1" />
  <defs
     id="defs1">
    <clipPath
       id="clip0_2048_985">
      <rect
         width="16"
         height="16"
         fill="white"
         id="rect1" />
    </clipPath>
  </defs>
  <path
     d="M 2.3176404,8.0146404 5.379433,11.076245 q 0.15657,0.156759 0.1603428,0.394066 0.00359,0.237119 -0.1603428,0.401234 -0.1641156,0.163926 -0.3976501,0.163926 -0.2335345,0 -0.3976501,-0.163926 L 1.1929772,8.4803889 Q 1.087151,8.374374 1.0435755,8.2568523 1,8.1393304 1,8.0029448 1,7.866559 1.0435755,7.7490373 1.087151,7.6315154 1.1929772,7.5255005 L 4.5841328,4.134345 Q 4.752587,3.9660793 4.9840466,3.9624952 5.2153174,3.9589077 5.39094,4.134345 q 0.1756224,0.1756224 0.1756224,0.4034978 0,0.2276868 -0.1756224,0.4033093 z M 13.682359,7.9912492 10.620567,4.9296452 q -0.15657,-0.1567587 -0.160343,-0.394066 -0.0036,-0.2371187 0.160343,-0.4012342 0.164115,-0.163927 0.39765,-0.163927 0.233535,0 0.39765,0.163927 l 3.391156,3.3911555 Q 14.912849,7.6315154 14.956424,7.7490373 15,7.866559 15,8.0029448 15,8.1393304 14.95642,8.2568523 14.91285,8.374374 14.807019,8.4803889 l -3.391156,3.3911561 q -0.168454,0.168266 -0.394066,0.166002 -0.225612,-0.0021 -0.401234,-0.177698 -0.175434,-0.175623 -0.175434,-0.403309 0,-0.227875 0.175434,-0.403498 z"
     id="path1"
     style="fill:#000000;fill-opacity:1;stroke-width:0.025" />
</svg>
