<svg width="16" height="16" viewBox="0 0 16 16" fill="none" xmlns="http://www.w3.org/2000/svg">
<g id="applications-internet" clip-path="url(#clip0_2048_1121)">
<g id="Frame">
<path id="Vector" d="M7.99996 1.33331C10.5773 1.33331 12.6666 3.42265 12.6666 5.99998C12.6666 6.07565 12.6648 6.15091 12.6613 6.22569C14.2176 6.77331 15.3333 8.25638 15.3333 9.99998C15.3333 12.2091 13.5424 14 11.3333 14H4.66663C2.45749 14 0.666626 12.2091 0.666626 9.99998C0.666626 8.25638 1.78227 6.77331 3.33865 6.22569C3.33509 6.15091 3.33329 6.07565 3.33329 5.99998C3.33329 3.42265 5.42263 1.33331 7.99996 1.33331ZM7.99996 2.66665C6.15901 2.66665 4.66663 4.15903 4.66663 5.99998C4.66663 6.05429 4.66791 6.1084 4.67048 6.16227L4.71771 7.15391L3.78118 7.48345C2.72289 7.85578 1.99996 8.85925 1.99996 9.99998C1.99996 11.4727 3.19387 12.6666 4.66663 12.6666H11.3333C12.806 12.6666 14 11.4727 14 9.99998C14 8.52665 12.8066 7.33331 11.3333 7.33331C10.1553 7.33331 9.15576 8.09711 8.80276 9.15645L7.53756 8.73471C8.06696 7.14565 9.56663 5.99998 11.3333 5.99998C11.3333 4.15903 9.84089 2.66665 7.99996 2.66665Z" fill="black"/>
</g>
</g>
<defs>
<clipPath id="clip0_2048_1121">
<rect width="16" height="16" fill="white"/>
</clipPath>
</defs>
</svg>
