<svg width="16" height="16" viewBox="0 0 16 16" fill="none" xmlns="http://www.w3.org/2000/svg">
<g id="applications-system" clip-path="url(#clip0_2048_1145)">
<g id="Frame">
<path id="Vector" d="M6.59197 0.65978C7.59216 0.45041 8.63699 0.443802 9.66014 0.657717C9.79289 1.52738 10.3051 2.33102 11.1262 2.8051C11.9473 3.27918 12.8995 3.32096 13.7189 3.00105C14.4158 3.78021 14.9325 4.68835 15.2512 5.65922C14.5654 6.20902 14.1262 7.05383 14.1262 8.00123C14.1262 8.94923 14.5659 9.79448 15.2524 10.3442C15.094 10.8245 14.8843 11.296 14.6214 11.7512C14.3585 12.2066 14.0551 12.6239 13.7184 13.0013C12.899 12.6815 11.9472 12.7235 11.1262 13.1974C10.3057 13.6711 9.79371 14.4739 9.66044 15.3428C8.66031 15.5521 7.61549 15.5587 6.59228 15.3448C6.45957 14.4752 5.94735 13.6715 5.12622 13.1974C4.30509 12.7233 3.353 12.6815 2.5335 13.0015C1.83664 12.2223 1.31996 11.3141 1.00119 10.3433C1.68705 9.7935 2.12622 8.94863 2.12622 8.00123C2.12622 7.0533 1.68654 6.20803 1 5.65826C1.15846 5.17795 1.36817 4.70655 1.63103 4.25125C1.8939 3.79596 2.19728 3.37865 2.53402 3.00126C3.35341 3.32094 4.30527 3.27908 5.12622 2.8051C5.94669 2.33139 6.45876 1.52865 6.59197 0.65978ZM8.12624 10.2512C9.36884 10.2512 10.3762 9.2439 10.3762 8.00123C10.3762 6.75863 9.36884 5.75125 8.12624 5.75125C6.88356 5.75125 5.87622 6.75863 5.87622 8.00123C5.87622 9.2439 6.88356 10.2512 8.12624 10.2512Z" fill="black"/>
</g>
</g>
<defs>
<clipPath id="clip0_2048_1145">
<rect width="16" height="16" fill="white"/>
</clipPath>
</defs>
</svg>
