<?xml version="1.0" encoding="UTF-8" standalone="no"?>
<svg
   width="16"
   height="16"
   viewBox="0 0 16 16"
   fill="none"
   version="1.1"
   id="svg1"
   sodipodi:docname="applications-accessories-symbolic.svg"
   inkscape:version="1.4.4 (dcaf3e7d9e, 2026-05-05)"
   xmlns:inkscape="http://www.inkscape.org/namespaces/inkscape"
   xmlns:sodipodi="http://sodipodi.sourceforge.net/DTD/sodipodi-0.dtd"
   xmlns="http://www.w3.org/2000/svg"
   xmlns:svg="http://www.w3.org/2000/svg">
  <sodipodi:namedview
     id="namedview1"
     pagecolor="#ffffff"
     bordercolor="#000000"
     borderopacity="0.25"
     inkscape:showpageshadow="2"
     inkscape:pageopacity="0.0"
     inkscape:pagecheckerboard="0"
     inkscape:deskcolor="#d1d1d1"
     showgrid="true"
     inkscape:current-layer="svg1">
    <inkscape:grid
       id="grid1"
       units="px"
       originx="0"
       originy="0"
       spacingx="0.5"
       spacingy="0.5"
       empcolor="#0099e5"
       empopacity="0.30196078"
       color="#0099e5"
       opacity="0.14901961"
       empspacing="2"
       enabled="true"
       visible="true" />
  </sodipodi:namedview>
  <defs
     id="defs1">
    <clipPath
       id="clip0_2048_957">
      <rect
         width="16"
         height="16"
         fill="white"
         id="rect1" />
    </clipPath>
  </defs>
  <path
     d="M 2.669585,14.978668 Q 1.978668,14.978668 1.5,14.5 1.0213321,14.021332 1.0213321,13.330415 V 3.7669244 q 0,-0.5143113 0.4623566,-0.7148806 0.4623566,-0.2007707 0.8109364,0.1478091 L 3.797284,4.7025118 2.9422465,5.5575493 3.4130608,6.0283636 4.2680983,5.1733261 6.1765274,7.0817553 5.32149,7.9367928 5.7923043,8.4076071 6.6473418,7.5525696 8.5867826,9.4920105 7.7317451,10.347048 l 0.4708144,0.470814 0.8550374,-0.8550372 1.9084291,1.9084292 -0.855037,0.855037 0.471015,0.471016 0.855038,-0.855038 1.378612,1.378612 q 0.340726,0.340726 0.140157,0.799257 -0.20057,0.45853 -0.707229,0.45853 z M 3.066092,13.181801 H 9.5038435 L 2.8181996,6.4961573 v 6.4377507 q 0,0.108541 0.069676,0.178217 0.069676,0.06968 0.1782167,0.06968 z"
     id="path1"
     style="display:none;fill:#000000;fill-opacity:0.5;stroke-width:0.025" />
  <path
     d="M 5.7336315,7.6250035 7.6230361,5.7435478 6.2558166,4.3636913 5.6834921,4.9360159 q -0.1693739,0.1693738 -0.3786962,0.1693738 -0.2091186,0 -0.3784925,-0.1693738 -0.1693737,-0.1693738 -0.1693737,-0.3746198 0,-0.2054498 0.1693737,-0.3748237 L 5.5063731,3.6065028 4.0278682,2.1483799 2.1464125,4.0298354 Z M 11.964388,13.847606 13.845639,11.96615 12.407898,10.508027 11.835777,11.0883 q -0.161628,0.161425 -0.374824,0.165298 -0.213194,0.0039 -0.382568,-0.165298 -0.16917,-0.169374 -0.16917,-0.378696 0,-0.209322 0.16917,-0.378696 L 11.658659,9.7587872 10.266369,8.378931 8.3769636,10.268336 Z M 12.282549,2.5466426 13.44758,3.7114697 Z M 2.2892898,14.36816 q -0.2745445,0 -0.4649117,-0.190571 Q 1.633807,13.987222 1.633807,13.712677 v -1.749584 q 0,-0.147362 0.0534,-0.250086 0.053197,-0.102725 0.1473614,-0.196686 L 4.9843919,8.366498 1.2653018,4.6396626 Q 1.0019673,4.3763282 1.0019673,4.0298354 q 0,-0.3464927 0.2633345,-0.6098272 L 3.4180409,1.2672691 Q 3.6813754,1.0039347 4.0278682,1.000062 4.3743609,0.9959853 4.6376954,1.259524 L 8.3645307,4.9861554 11.541054,1.7971992 q 0.169374,-0.1693738 0.355869,-0.2398952 0.186495,-0.070521 0.393575,-0.070521 0.206877,0 0.393371,0.070521 0.186698,0.070521 0.355869,0.2398952 l 1.165031,1.180725 q 0.169373,0.16917 0.235819,0.3558684 0.06665,0.1864947 0.06665,0.3933713 0,0.2070803 -0.06665,0.393575 -0.06645,0.1864945 -0.235819,0.3558684 l -3.181211,3.1608292 3.711141,3.7268355 q 0.263334,0.263334 0.263334,0.609827 0,0.346493 -0.263334,0.609827 l -2.15274,2.152739 Q 12.318625,15 11.972132,15 11.62564,15 11.362305,14.736665 l -3.7268358,-3.71909 -3.149823,3.149824 q -0.093961,0.09416 -0.1966856,0.147361 -0.1027249,0.0534 -0.2500862,0.0534 z M 2.6936672,13.3083 H 3.8664433 L 11.517412,5.6493833 10.352585,4.4845562 2.6936672,12.135524 Z M 10.945291,5.0489318 10.352585,4.4845562 11.517412,5.6493833 Z"
     id="path1-5"
     style="fill:#000000;fill-opacity:1;stroke-width:0.0208333" />
</svg>
