<?xml version="1.0" encoding="UTF-8" standalone="no"?>
<svg
   width="16"
   height="16"
   viewBox="0 0 16 16"
   fill="none"
   version="1.1"
   id="svg1"
   sodipodi:docname="applications-science-symbolic (Copy).svg"
   inkscape:version="1.4.4 (dcaf3e7d9e, 2026-05-05)"
   xmlns:inkscape="http://www.inkscape.org/namespaces/inkscape"
   xmlns:sodipodi="http://sodipodi.sourceforge.net/DTD/sodipodi-0.dtd"
   xmlns="http://www.w3.org/2000/svg"
   xmlns:svg="http://www.w3.org/2000/svg">
  <sodipodi:namedview
     id="namedview1"
     pagecolor="#ffffff"
     bordercolor="#000000"
     borderopacity="0.25"
     inkscape:showpageshadow="2"
     inkscape:pageopacity="0.0"
     inkscape:pagecheckerboard="0"
     inkscape:deskcolor="#d1d1d1"
     showgrid="false"
     inkscape:current-layer="svg1">
    <inkscape:grid
       id="grid1"
       units="px"
       originx="0"
       originy="0"
       spacingx="0.5"
       spacingy="0.5"
       empcolor="#0099e5"
       empopacity="0.30196078"
       color="#0099e5"
       opacity="0.14901961"
       empspacing="2"
       enabled="true"
       visible="false" />
  </sodipodi:namedview>
  <defs
     id="defs1">
    <clipPath
       id="clip0_2048_1137">
      <rect
         width="16"
         height="16"
         fill="white"
         id="rect1" />
    </clipPath>
  </defs>
  <path
     id="path1-3"
     style="display:inline;fill:#000000;fill-opacity:1;stroke-width:0.025"
     d="m 13.181641,1.3085937 c -0.271398,0.00828 -0.496803,0.1061769 -0.677734,0.2871098 L 7.0917971,7.0039066 9.2929687,9.2050782 14.703124,3.7968751 C 14.900505,3.5994934 15,3.3686421 15,3.105469 15,2.8422935 14.900506,2.6133959 14.703124,2.4160155 L 13.884765,1.5957035 C 13.687385,1.3983255 13.453039,1.300373 13.181641,1.3085937 Z M 5.0410151,8.7675776 c -0.6895168,0 -1.2703842,0.2410892 -1.7480463,0.7187501 -0.4776597,0.4774978 -0.7187501,1.0603193 -0.7187501,1.7500003 0,0.584575 -0.1673705,1.050697 -0.5039057,1.400391 -0.3365328,0.349856 -0.6933161,0.579926 -1.07031345,0.687499 0.36811435,0.414993 0.82868615,0.7461 1.38085955,0.994142 0.5520079,0.248043 1.1091553,0.373046 1.6738284,0.373046 0.9498949,0 1.7629309,-0.339102 2.4394537,-1.015624 0.6763573,-0.676358 1.0156242,-1.489559 1.0156242,-2.439454 0,-0.689681 -0.2371827,-1.2725025 -0.7148436,-1.7500003 C 6.3174252,9.0086668 5.7306975,8.7675776 5.0410151,8.7675776 Z m 0,1.4824224 c 0.2796243,0 0.5159197,0.09405 0.7050781,0.283204 0.1891561,0.189156 0.2832033,0.423501 0.2832033,0.703124 0,0.542797 -0.1935397,1.006042 -0.5800774,1.392579 -0.3865377,0.386538 -0.8517341,0.580077 -1.3945316,0.580077 H 3.8085938 c -0.082244,0 -0.1638523,-0.01592 -0.2460937,-0.04883 0.1480353,-0.279621 0.2669541,-0.5742 0.3574212,-0.886719 0.090461,-0.312519 0.1347662,-0.658796 0.1347662,-1.037109 0,-0.279623 0.094052,-0.513968 0.2832034,-0.703124 C 4.5270457,10.344046 4.7613945,10.25 5.0410151,10.25 Z" />
</svg>
