<svg width="16" height="16" viewBox="0 0 16 16" fill="none" xmlns="http://www.w3.org/2000/svg">
<g id="applications-education" clip-path="url(#clip0_2048_997)">
<g id="Frame">
<path id="Vector" d="M8.5 14V15H7.5V14H1.99998C1.5 14 1 13.5 1 13V3C1 2.5 1.5 2 1.99998 2H5.99998C6.79645 2 7.51138 2.34917 7.99998 2.90279C8.48858 2.34917 9.20352 2 9.99998 2H14C14.5 2 15 2.5 15 3V13C15 13.5 14.5 14 14 14H8.5ZM14 13L14 3H9.99998C9.5 3 8.5 3 8.5 4.5V13H14ZM7.5 13V4.5C7.5 3 6.5 3 6 3H2V13H7.5Z" fill="black"/>
</g>
</g>
<defs>
<clipPath id="clip0_2048_997">
<rect width="16" height="16" fill="white"/>
</clipPath>
</defs>
</svg>
