<?xml version="1.0" encoding="UTF-8" standalone="no"?>
<svg
   width="16"
   height="16"
   viewBox="0 0 16 16"
   fill="none"
   version="1.1"
   id="svg1"
   sodipodi:docname="applications-science-symbolic.svg"
   inkscape:version="1.4.4 (dcaf3e7d9e, 2026-05-05)"
   xmlns:inkscape="http://www.inkscape.org/namespaces/inkscape"
   xmlns:sodipodi="http://sodipodi.sourceforge.net/DTD/sodipodi-0.dtd"
   xmlns="http://www.w3.org/2000/svg"
   xmlns:svg="http://www.w3.org/2000/svg">
  <sodipodi:namedview
     id="namedview1"
     pagecolor="#ffffff"
     bordercolor="#000000"
     borderopacity="0.25"
     inkscape:showpageshadow="2"
     inkscape:pageopacity="0.0"
     inkscape:pagecheckerboard="0"
     inkscape:deskcolor="#d1d1d1"
     showgrid="true"
     inkscape:current-layer="svg1">
    <inkscape:grid
       id="grid1"
       units="px"
       originx="0"
       originy="0"
       spacingx="0.5"
       spacingy="0.5"
       empcolor="#0099e5"
       empopacity="0.30196078"
       color="#0099e5"
       opacity="0.14901961"
       empspacing="2"
       enabled="true"
       visible="true" />
  </sodipodi:namedview>
  <defs
     id="defs1">
    <clipPath
       id="clip0_2048_1137">
      <rect
         width="16"
         height="16"
         fill="white"
         id="rect1" />
    </clipPath>
  </defs>
  <path
     d="M 8.0168581,6.5926727 Q 8.2600099,6.3484273 8.2600099,5.9948183 8.2600099,5.641027 8.0157645,5.397693 7.7715191,5.1545412 7.4179101,5.1545412 q -0.3537913,0 -0.5971253,0.2442454 -0.2431517,0.2442454 -0.2431517,0.5978544 0,0.3537913 0.2442453,0.5971253 0.2442454,0.2431518 0.5978544,0.2431518 0.3537913,0 0.5971253,-0.2442454 z M 14.196632,15 q -0.646339,0 -1.902016,-0.659098 -1.255494,-0.658916 -2.6899805,-1.717555 -0.3882409,0.14035 -0.7998126,0.210342 -0.4115717,0.07018 -0.8391834,0.07018 -2.0562181,0 -3.4795854,-1.423549 -1.4235497,-1.423368 -1.4235497,-3.4795859 0,-0.4276117 0.075643,-0.848297 Q 3.213973,6.7317467 3.3541407,6.3435059 2.3137283,4.9161286 1.6597339,3.6766743 1.0057395,2.4372201 1.0057395,1.7978076 q 0,-0.3658213 0.203234,-0.5818144 Q 1.4122076,1 1.7528752,1 2.109036,1 2.8038595,1.3036663 3.4985007,1.6071503 4.52342,2.2044579 4.7155354,2.3152797 4.7731335,2.5389283 4.8305495,2.7625769 4.7210035,2.9539632 4.6112754,3.1455318 4.3921836,3.2071399 4.1729096,3.2687479 3.9809765,3.1579259 3.529487,2.89436 3.099688,2.6818301 2.6698891,2.4694824 2.221316,2.263332 2.5844032,3.0401781 3.0070935,3.7734611 3.4297839,4.5067441 3.9122597,5.2217998 4.5768258,4.2375274 5.631091,3.6584471 6.6855385,3.0793668 7.9656395,3.0793668 q 2.0564005,0 3.4888815,1.432481 1.432481,1.432481 1.432481,3.4888813 0,1.2801011 -0.58473,2.3380119 -0.584549,1.05791 -1.568821,1.722477 0.721982,0.489402 1.467842,0.921206 0.746042,0.431804 1.529813,0.790699 -0.194848,-0.437455 -0.413029,-0.867071 -0.217999,-0.429799 -0.481565,-0.881289 -0.110822,-0.192115 -0.04921,-0.419592 0.06161,-0.227658 0.253178,-0.337933 0.191385,-0.110457 0.418862,-0.04885 0.227294,0.06143 0.33757,0.252448 0.6128,1.051713 0.905165,1.727398 0.292183,0.675867 0.292183,1.032028 0,0.374388 -0.220003,0.571971 Q 14.554251,15 14.196632,15 Z M 9.6908504,9.9085773 Q 9.872394,9.727216 9.872394,9.4590928 9.872394,9.191152 9.691215,9.0096084 9.5098537,8.8280648 9.2417305,8.8280648 q -0.2679408,0 -0.4494844,0.1811791 -0.1815436,0.1813613 -0.1815436,0.4494844 0,0.2679408 0.1811791,0.4494844 0.1813613,0.1815433 0.4494844,0.1815433 0.2679408,0 0.4494844,-0.1811787 z M 10.530763,7.4544579 q 0.148006,-0.1465472 0.148006,-0.3707426 0,-0.2243777 -0.14673,-0.3722008 -0.146547,-0.1480055 -0.370742,-0.1480055 -0.2243785,0 -0.3722016,0.1467296 Q 9.64109,6.8567858 9.64109,7.0809812 q 0,0.2243777 0.1467295,0.3722008 0.1465472,0.1480054 0.3707425,0.1480054 0.224377,0 0.372201,-0.1467295 z M 8.4171289,11.68683 Q 7.2491256,10.751588 6.2207431,9.7160973 5.1923607,8.6807885 4.2682382,7.5127852 4.2122805,7.6600615 4.1842105,7.796766 q -0.02807,0.1367045 -0.02807,0.2978336 0.022419,0.7418498 0.3167899,1.4155296 0.2945527,0.6736798 0.803458,1.1791218 0.5089053,0.505442 1.1665451,0.79635 0.6576399,0.290907 1.3993074,0.313509 0.1401677,0 0.287444,-0.02807 0.1472763,-0.02807 0.287444,-0.08421 z m 1.337517,-0.319707 q 0.9100881,-0.483751 1.4744041,-1.3843607 0.564316,-0.9006094 0.564316,-2.0002604 0,-1.588871 -1.119519,-2.6992762 -1.1197011,-1.1102229 -2.7082075,-1.1102229 -1.1000156,0 -1.991329,0.5608531 -0.8913134,0.560853 -1.3750651,1.4707582 1.0879856,1.4694824 2.387043,2.7685398 1.2990574,1.2990571 2.7683575,2.3939691 z M 6.290189,9.665061 Z M 8.1984017,7.7610406 Z"
     id="path1"
     style="fill:#000000;fill-opacity:1;stroke-width:0.025" />
</svg>
