<?xml version="1.0" encoding="UTF-8" standalone="no"?>
<svg
   width="16"
   height="16"
   viewBox="0 0 16 16"
   fill="none"
   version="1.1"
   id="svg1"
   sodipodi:docname="applications-science-symbolic (Copy).svg"
   inkscape:version="1.4.4 (dcaf3e7d9e, 2026-05-05)"
   xmlns:inkscape="http://www.inkscape.org/namespaces/inkscape"
   xmlns:sodipodi="http://sodipodi.sourceforge.net/DTD/sodipodi-0.dtd"
   xmlns="http://www.w3.org/2000/svg"
   xmlns:svg="http://www.w3.org/2000/svg">
  <sodipodi:namedview
     id="namedview1"
     pagecolor="#ffffff"
     bordercolor="#000000"
     borderopacity="0.25"
     inkscape:showpageshadow="2"
     inkscape:pageopacity="0.0"
     inkscape:pagecheckerboard="0"
     inkscape:deskcolor="#d1d1d1"
     showgrid="true"
     inkscape:current-layer="svg1">
    <inkscape:grid
       id="grid1"
       units="px"
       originx="0"
       originy="0"
       spacingx="0.5"
       spacingy="0.5"
       empcolor="#0099e5"
       empopacity="0.30196078"
       color="#0099e5"
       opacity="0.14901961"
       empspacing="2"
       enabled="true"
       visible="true" />
  </sodipodi:namedview>
  <defs
     id="defs1">
    <clipPath
       id="clip0_2048_1137">
      <rect
         width="16"
         height="16"
         fill="white"
         id="rect1" />
    </clipPath>
  </defs>
  <g
     id="g1"
     transform="matrix(0.01633606,0,0,0.01633606,0.15052317,15.841309)"
     style="fill:#000000;fill-opacity:1;stroke-width:1.53036">
    <path
       d="m 189,-170 q -56.54,0 -96.15,-39.92 Q 53.23,-249.85 52,-307 q 0,-8.62 0.81,-16.85 0.81,-8.23 2.81,-16.84 l 84,-336 q 13.23,-50.54 53.53,-81.92 Q 233.46,-790 285,-790 h 390 q 51.54,0 91.85,31.39 40.3,31.38 53.53,81.92 l 84,336 q 2,8.61 3.31,17.34 1.31,8.73 1.31,17.35 0,57.15 -40.42,96.58 Q 828.15,-170 771,-170 q -39.31,0 -72.61,-20.65 -33.31,-20.66 -50.54,-55.97 L 619.46,-305 Q 613.31,-317.69 601,-323.85 588.69,-330 575,-330 H 385 q -13.69,0 -26,6.15 -12.31,6.16 -18.46,18.85 l -28.39,58.38 q -16.84,35.7 -50.34,56.16 Q 228.31,-170 189,-170 Z m 3,-60 q 21.69,0 39.69,-11.54 18,-11.54 27.16,-30.84 l 28,-57.39 q 13.84,-28.31 40.54,-44.27 Q 354.08,-390 385,-390 h 190 q 31.31,0 57.81,16.65 26.5,16.66 41.34,43.97 l 28,57 q 9.16,19.3 27.16,30.84 18,11.54 39.69,11.54 32.23,0 55.31,-21.58 23.08,-21.57 23.69,-53.42 0,-0.54 -2.38,-21.31 l -84,-335 q -7.77,-30.08 -31.66,-49.38 Q 706.08,-730 675,-730 H 285 q -31.46,0 -55.65,19.31 -24.2,19.3 -30.97,49.38 l -84,335 q -1.61,5.23 -2.38,20.31 0,32.23 23.58,54.12 Q 159.15,-230 192,-230 Z m 373.04,-304.96 q 10.34,-10.35 10.34,-25.04 0,-14.69 -10.34,-25.04 -10.35,-10.34 -25.04,-10.34 -14.69,0 -25.04,10.34 -10.34,10.35 -10.34,25.04 0,14.69 10.34,25.04 10.35,10.34 25.04,10.34 14.69,0 25.04,-10.34 z m 80,-80 q 10.34,-10.35 10.34,-25.04 0,-14.69 -10.34,-25.04 -10.35,-10.34 -25.04,-10.34 -14.69,0 -25.04,10.34 -10.34,10.35 -10.34,25.04 0,14.69 10.34,25.04 10.35,10.34 25.04,10.34 14.69,0 25.04,-10.34 z m 0,160 q 10.34,-10.35 10.34,-25.04 0,-14.69 -10.34,-25.04 -10.35,-10.34 -25.04,-10.34 -14.69,0 -25.04,10.34 -10.34,10.35 -10.34,25.04 0,14.69 10.34,25.04 10.35,10.34 25.04,10.34 14.69,0 25.04,-10.34 z m 80,-80 q 10.34,-10.35 10.34,-25.04 0,-14.69 -10.34,-25.04 -10.35,-10.34 -25.04,-10.34 -14.69,0 -25.04,10.34 -10.34,10.35 -10.34,25.04 0,14.69 10.34,25.04 10.35,10.34 25.04,10.34 14.69,0 25.04,-10.34 z m -367.96,62.04 q 6.77,-6.77 6.77,-17.08 v -46.15 H 410 q 10.31,0 17.08,-6.77 6.77,-6.77 6.77,-17.08 0,-10.31 -6.77,-17.08 -6.77,-6.77 -17.08,-6.77 H 363.85 V -630 q 0,-10.31 -6.77,-17.08 -6.77,-6.77 -17.08,-6.77 -10.31,0 -17.08,6.77 -6.77,6.77 -6.77,17.08 v 46.15 H 270 q -10.31,0 -17.08,6.77 -6.77,6.77 -6.77,17.08 0,10.31 6.77,17.08 6.77,6.77 17.08,6.77 h 46.15 V -490 q 0,10.31 6.77,17.08 6.77,6.77 17.08,6.77 10.31,0 17.08,-6.77 z M 480,-480 Z"
       id="path1"
       style="fill:#000000;fill-opacity:1;stroke-width:1.53036" />
  </g>
</svg>
