<svg width="24" height="24" viewBox="0 0 24 24" fill="none" xmlns="http://www.w3.org/2000/svg">
<g id="folder-videos">
<path id="Glyph" fill-rule="evenodd" clip-rule="evenodd" d="M19 5C19.5 5 20 5.5 20 6V19C20 19.5 19.5 20 19 20H5C4.5 20 4 19.5 4 19V6C4 5.5 4.5 5 5 5H19ZM5 19H7V18H5V19ZM9 13C8.5 13 8 13.5 8 14V18C8 18.5 8.5 19 9 19H15C15.5 19 16 18.5 16 18V14C16 13.5 15.5 13 15 13H9ZM17 19H19V18H17V19ZM5 17H7V16H5V17ZM17 17H19V16H17V17ZM5 15H7V14H5V15ZM17 15H19V14H17V15ZM5 13H7V12H5V13ZM17 13H19V12H17V13ZM9 6C8.5 6 8 6.5 8 7V11C8 11.5 8.5 12 9 12H15C15.5 12 16 11.5 16 11V7C16 6.5 15.5 6 15 6H9ZM5 11H7V10H5V11ZM17 11H19V10H17V11ZM5 9H7V8H5V9ZM17 9H19V8H17V9ZM5 7H7V6H5V7ZM17 7H19V6H17V7Z" fill="black"/>
</g>
</svg>
