<svg width="24" height="24" viewBox="0 0 24 24" fill="none" xmlns="http://www.w3.org/2000/svg">
<g id="folder-games">
<g id="Glyph">
<path d="M7.86587 9.6267C7.86616 8.79126 9.13315 8.79126 9.13345 9.6267V10.3669H9.87173C10.7093 10.3672 10.7093 11.6323 9.87173 11.6326H9.13345V12.3718C9.13335 13.2094 7.86597 13.2094 7.86587 12.3718V11.6326H7.12857C6.29069 11.6326 6.29069 10.3669 7.12857 10.3669H7.86587V9.6267Z" fill="black"/>
<path d="M15.4997 11.5007C15.6984 11.5008 15.8894 11.5799 16.0299 11.7205C16.1703 11.8611 16.2497 12.052 16.2497 12.2507C16.2495 12.4493 16.1702 12.6395 16.0299 12.78C15.8894 12.9206 15.6984 12.9997 15.4997 12.9997C15.3009 12.9996 15.1099 12.9206 14.9694 12.78C14.8291 12.6395 14.7498 12.4493 14.7497 12.2507C14.7497 12.0519 14.829 11.8611 14.9694 11.7205C15.1099 11.5799 15.3009 11.5008 15.4997 11.5007Z" fill="black"/>
<path d="M14.2497 10.2507C14.4485 10.2508 14.6403 10.3298 14.7809 10.4705C14.921 10.611 15.0006 10.8013 15.0006 10.9997C15.0006 11.1984 14.9212 11.3894 14.7809 11.53C14.6403 11.6707 14.4485 11.7497 14.2497 11.7497C14.0509 11.7496 13.8599 11.6706 13.7194 11.53C13.5789 11.3894 13.4997 11.1986 13.4997 10.9997C13.4997 10.8011 13.5791 10.611 13.7194 10.4705C13.8599 10.3299 14.0509 10.2508 14.2497 10.2507Z" fill="black"/>
<path d="M16.7497 10.2507C16.9484 10.2508 17.1394 10.3298 17.2799 10.4705C17.4203 10.611 17.4996 10.8011 17.4997 10.9997C17.4997 11.1985 17.4203 11.3894 17.2799 11.53C17.1394 11.6705 16.9483 11.7497 16.7497 11.7497C16.5509 11.7496 16.3599 11.6706 16.2194 11.53C16.0789 11.3894 15.9997 11.1986 15.9997 10.9997C15.9997 10.8011 16.0791 10.611 16.2194 10.4705C16.3599 10.3299 16.5509 10.2508 16.7497 10.2507Z" fill="black"/>
<path d="M15.4997 8.99975C15.6983 8.99982 15.8894 9.07909 16.0299 9.21948C16.1703 9.36012 16.2497 9.55098 16.2497 9.74975C16.2496 9.9485 16.1703 10.1394 16.0299 10.28C15.8894 10.4204 15.6983 10.4997 15.4997 10.4997C15.3009 10.4996 15.1099 10.4206 14.9694 10.28C14.8289 10.1394 14.7497 9.9486 14.7497 9.74975C14.7497 9.55089 14.8289 9.36014 14.9694 9.21948C15.1099 9.07891 15.3009 8.99986 15.4997 8.99975Z" fill="black"/>
<path fill-rule="evenodd" clip-rule="evenodd" d="M6.48501 7.44018C7.54377 6.20703 9.58529 6.18012 10.6667 7.40502L13.3366 7.406C14.4118 6.19402 16.4489 6.19924 17.5104 7.4353C17.5233 7.43908 17.5367 7.4426 17.5495 7.44702L17.6315 7.4812L17.7086 7.52319C17.7727 7.56289 17.8299 7.61284 17.8805 7.6687C18.6542 8.47665 19.2136 9.71296 19.5602 10.9773C19.9075 12.2446 20.0591 13.6064 19.9762 14.7214L19.9772 14.7224C19.9487 15.2912 19.8182 15.8509 19.5915 16.3728L19.5836 16.3904C19.3274 16.9246 18.9109 17.3564 18.2946 17.4714C17.5163 17.6164 16.7021 17.1809 15.8864 16.3455L15.5876 16.0456L15.2829 15.7468C15.0441 15.5021 14.8197 15.2433 14.6081 14.9744H9.39321C9.09334 15.357 8.76659 15.7176 8.41177 16.0496L8.11587 16.3445C7.30149 17.1829 6.48174 17.6202 5.70376 17.4714C5.08627 17.3594 4.67001 16.918 4.41665 16.3972L4.41275 16.3874L4.40786 16.3777C4.18106 15.8551 4.05053 15.2948 4.02212 14.7253L4.0231 14.7244C3.94012 13.6039 4.09278 12.2345 4.444 10.9617C4.79363 9.69466 5.35666 8.45593 6.14126 7.65209C6.21591 7.57399 6.30632 7.51214 6.40591 7.46948L6.48208 7.44116L6.48501 7.44018ZM10.0211 8.19506C9.35746 7.26558 7.8283 7.27028 7.15982 8.19702L7.00942 8.40502H6.8063C6.21383 9.04089 5.72784 10.0679 5.40786 11.2273C5.12148 12.2652 4.98173 13.3591 5.00161 14.279L5.02017 14.6619L5.02114 14.6755C5.04333 15.1201 5.14376 15.5574 5.319 15.9656C5.46626 16.2657 5.63667 16.4135 5.81021 16.4695L5.88442 16.488L5.89224 16.489C6.15454 16.5391 6.64637 16.4211 7.3981 15.6472C7.50327 15.539 7.61245 15.4315 7.72134 15.3259L7.72817 15.3191C8.10132 14.97 8.44299 14.5878 8.74771 14.1765L8.89712 13.9744H15.1032L15.2536 14.1755C15.4824 14.4827 15.7317 14.774 15.9987 15.0476L16.2711 15.3162L16.278 15.321L16.2829 15.3269L16.6022 15.6462C17.3565 16.4188 17.8461 16.5385 18.112 16.489C18.3162 16.4508 18.5101 16.3081 18.6764 15.9656C18.853 15.5564 18.9558 15.1185 18.9782 14.6726L18.9792 14.6599C19.0542 13.6758 18.9203 12.424 18.5963 11.2419C18.2907 10.1267 17.8322 9.13001 17.2741 8.4851L17.1188 8.58764L16.8405 8.19702C16.1771 7.26924 14.6469 7.27108 13.9821 8.19799L13.8317 8.40698L10.4274 8.40502L10.1706 8.40405L10.0211 8.19506Z" fill="black"/>
</g>
</g>
</svg>
