<svg width="24" height="24" viewBox="0 0 24 24" fill="none" xmlns="http://www.w3.org/2000/svg">
<g id="folder-public">
<path id="Glyph" d="M16 4.5C17.3807 4.5 18.5 5.61929 18.5 7C18.5 8.38071 17.3807 9.5 16 9.5C15.3793 9.5 14.8131 9.27192 14.376 8.89746L10.417 11.3721C10.469 11.573 10.5 11.7828 10.5 12C10.5 12.2168 10.4689 12.4263 10.417 12.627L14.376 15.1006C14.8129 14.7266 15.3798 14.5 16 14.5C17.3807 14.5 18.5 15.6193 18.5 17C18.5 18.3807 17.3807 19.5 16 19.5C14.6193 19.5 13.5 18.3807 13.5 17C13.5 16.7832 13.5302 16.5736 13.582 16.373L9.62305 13.8984C9.18609 14.2724 8.62019 14.5 8 14.5C6.61929 14.5 5.5 13.3807 5.5 12C5.5 10.6193 6.61929 9.5 8 9.5C8.61997 9.5 9.18616 9.72691 9.62305 10.1006L13.582 7.62598C13.5303 7.4257 13.5 7.21643 13.5 7C13.5 5.61929 14.6193 4.5 16 4.5Z" fill="black"/>
</g>
</svg>
