<svg width="24" height="24" viewBox="0 0 24 24" fill="none" xmlns="http://www.w3.org/2000/svg">
<g id="folder-remote">
<path id="Glyph" d="M11.9995 7.00006C8.9787 7.00006 6.12558 8.28851 4.17096 10.5356C4.08153 10.6385 4.02438 10.7639 4.00624 10.8972C3.9881 11.0304 4.00972 11.1659 4.06857 11.2876C4.12741 11.4094 4.22103 11.5123 4.33839 11.5844C4.45575 11.6565 4.59197 11.6946 4.73101 11.6944C4.93926 11.6944 5.14592 11.609 5.29068 11.4432C6.96575 9.51707 9.41145 8.41164 11.9996 8.41164C14.5877 8.41164 17.0333 9.51751 18.7084 11.4432C18.8528 11.6101 19.0594 11.6948 19.2681 11.6948C19.4073 11.6953 19.5438 11.6573 19.6614 11.5853C19.779 11.5132 19.8728 11.4101 19.9316 11.2882C19.9905 11.1662 20.012 11.0306 19.9936 10.8972C19.9752 10.7638 19.9176 10.6383 19.8277 10.5355C17.8738 8.28845 15.0207 7.00006 11.9995 7.00006ZM11.9995 9.99005C9.84212 9.99005 7.80419 10.911 6.40843 12.5154C6.34672 12.5863 6.30007 12.6683 6.27115 12.7567C6.24223 12.8451 6.23161 12.9381 6.2399 13.0305C6.24818 13.1228 6.27521 13.2127 6.31943 13.2949C6.36366 13.3772 6.42422 13.4502 6.49765 13.5098C6.57108 13.5695 6.65594 13.6145 6.7474 13.6425C6.83885 13.6704 6.9351 13.6806 7.03065 13.6726C7.12619 13.6646 7.21917 13.6384 7.30426 13.5956C7.38935 13.5529 7.4649 13.4943 7.52657 13.4234C8.07385 12.7909 8.75796 12.2821 9.53071 11.9329C10.3035 11.5836 11.146 11.4024 11.9991 11.4019C13.725 11.4019 15.3556 12.1391 16.4725 13.4234C16.6168 13.5903 16.8243 13.6749 17.0321 13.6749C17.1711 13.6749 17.3071 13.6365 17.4243 13.5643C17.5414 13.4921 17.6348 13.389 17.6934 13.2672C17.7521 13.1455 17.7735 13.0101 17.7552 12.8769C17.7369 12.7438 17.6797 12.6185 17.5902 12.5157C16.194 10.9109 14.1576 9.99005 11.9995 9.99005ZM11.9995 13.0967C11.3597 13.0965 10.7277 13.2319 10.148 13.4935C9.56828 13.755 9.05499 14.1363 8.6443 14.6104C8.5826 14.6814 8.53599 14.7635 8.50715 14.8519C8.47831 14.9403 8.4678 15.0334 8.47622 15.1258C8.48465 15.2182 8.51184 15.308 8.55625 15.3902C8.60066 15.4725 8.66141 15.5454 8.73502 15.6049C8.80821 15.665 8.893 15.7104 8.98449 15.7387C9.07597 15.7669 9.17234 15.7773 9.26802 15.7693C9.3637 15.7614 9.45679 15.7351 9.54193 15.6922C9.62706 15.6492 9.70254 15.5904 9.76402 15.5191C10.0375 15.203 10.3795 14.9487 10.7657 14.7741C11.152 14.5996 11.5732 14.5091 11.9995 14.509C12.8621 14.509 13.6769 14.8768 14.2359 15.5191C14.2974 15.5902 14.3729 15.6489 14.458 15.6917C14.5431 15.7345 14.6361 15.7607 14.7317 15.7687C14.8273 15.7766 14.9236 15.7663 15.015 15.7382C15.1065 15.71 15.1912 15.6648 15.2645 15.6049C15.3381 15.5454 15.3988 15.4725 15.4432 15.3902C15.4877 15.308 15.5148 15.2182 15.5233 15.1258C15.5317 15.0334 15.5212 14.9403 15.4923 14.8519C15.4635 14.7635 15.4169 14.6814 15.3552 14.6104C14.9445 14.1362 14.4311 13.7549 13.8513 13.4934C13.2715 13.2318 12.6393 13.0964 11.9995 13.0967ZM11.9372 15.7768C11.3661 15.8301 10.8163 16.2426 10.7973 16.8574C10.8027 17.1622 10.9317 17.4528 11.1566 17.6665C11.3815 17.8802 11.6843 18 11.9997 18C12.3151 18 12.6179 17.8802 12.8428 17.6665C13.0677 17.4528 13.1967 17.1622 13.202 16.8574C13.1006 16.0322 12.5087 15.7242 11.9372 15.7768Z" fill="black"/>
</g>
</svg>
