<svg width="24" height="24" viewBox="0 0 24 24" fill="none" xmlns="http://www.w3.org/2000/svg">
<g id="folder-images">
<g id="Glyph">
<path d="M8.5 8C7.67157 8 7 8.67157 7 9.5C7 10.3284 7.67157 11 8.5 11C9.32843 11 10 10.3284 10 9.5C10 8.67157 9.32843 8 8.5 8Z" fill="black"/>
<path fill-rule="evenodd" clip-rule="evenodd" d="M4 7C4 5.892 4.892 5 6 5H18C19.108 5 20 5.892 20 7V17C20 18.108 19.108 19 18 19H6C4.892 19 4 18.108 4 17V7ZM18 6H6C5.446 6 5 6.446 5 7V17L7 15C7.47767 14.5223 7.72717 14.2728 7.99486 14.2515C8.28756 14.2282 8.60201 14.4777 9.2603 15L10.5206 16L13.1301 13C14 12 14.5 12.5 15 13L19 17V7C19 6.446 18.554 6 18 6ZM8.5 8C7.67157 8 7 8.67157 7 9.5C7 10.3284 7.67157 11 8.5 11C9.32843 11 10 10.3284 10 9.5C10 8.67157 9.32843 8 8.5 8Z" fill="black"/>
</g>
</g>
</svg>
