<svg width="24" height="24" viewBox="0 0 24 24" fill="none" xmlns="http://www.w3.org/2000/svg">
<g id="network-server">
<g id="Logo">
<path id="Glyph" d="M10 6C8.50054 6 7.45754 7.0366 7.06844 8.0332L4.19934 15.5176C4.19611 15.5252 4.19469 15.5334 4.19153 15.541L4.13293 15.6914H4.14465C4.0576 15.9462 4.00012 16.215 4.00012 16.5C4.00012 17.885 5.11512 19 6.50012 19H17.5001C18.8851 19 20.0001 17.885 20.0001 16.5C20.0001 16.215 19.9426 15.9462 19.8556 15.6914H19.8673L19.8087 15.541L19.8048 15.5254C19.8037 15.5227 19.802 15.5203 19.8009 15.5176L16.9317 8.03321C16.5426 7.03662 15.4995 6.00001 14.0001 6.00001H12.0001L10 6ZM10 7H14C15.108 7 15.7085 7.6499 16 8.3965L18.1875 14.1074C17.9679 14.0447 17.7403 14 17.5 14H6.50004C6.25976 14 6.03215 14.0447 5.81254 14.1074L8.00004 8.3965C8.29157 7.64992 8.89204 7 10 7ZM6.50004 15H17.5C18.331 15 19 15.669 19 16.5C19 17.331 18.331 18 17.5 18H6.50004C5.66904 18 5.00004 17.331 5.00004 16.5C5.00004 15.669 5.66904 15 6.50004 15Z" fill="black"/>
<path id="Indicator 3" d="M16.5 17C16.7761 17 17 16.7761 17 16.5C17 16.2239 16.7761 16 16.5 16C16.2239 16 16 16.2239 16 16.5C16 16.7761 16.2239 17 16.5 17Z" fill="black"/>
<path id="Indicator 2" d="M14.5 17C14.7761 17 15 16.7761 15 16.5C15 16.2239 14.7761 16 14.5 16C14.2239 16 14 16.2239 14 16.5C14 16.7761 14.2239 17 14.5 17Z" fill="black"/>
<path id="Indicator 1" d="M12.5 17C12.7761 17 13 16.7761 13 16.5C13 16.2239 12.7761 16 12.5 16C12.2239 16 12 16.2239 12 16.5C12 16.7761 12.2239 17 12.5 17Z" fill="black"/>
</g>
</g>
</svg>
