<svg width="24" height="24" viewBox="0 0 24 24" fill="none" xmlns="http://www.w3.org/2000/svg">
<g id="user-home">
<path id="Glyph" fill-rule="evenodd" clip-rule="evenodd" d="M12.2305 5.02093C12.4439 5.06362 12.6443 5.17207 12.8242 5.34319L12.8252 5.34222L19.8252 11.3422C20.0349 11.5219 20.0596 11.8376 19.8799 12.0473C19.7002 12.257 19.3845 12.2807 19.1748 12.101L17.9903 11.0854V17.4994C17.9903 17.9089 17.7949 18.2795 17.5391 18.5385C17.3154 18.765 17.0044 18.9483 16.6533 18.9907L16.5 18.9994H7.50003C7.08742 18.9994 6.71667 18.7981 6.45901 18.5405C6.20139 18.2828 6.00003 17.912 6.00003 17.4994L6.00784 11.0864L4.82522 12.101C4.61556 12.2807 4.29985 12.257 4.12014 12.0473C3.94052 11.8376 3.9652 11.5219 4.17483 11.3422L11.1553 5.35882C11.1578 5.35643 11.1609 5.35396 11.1641 5.35101C11.1722 5.34344 11.1829 5.33441 11.1953 5.32366C11.22 5.30229 11.2533 5.27433 11.2949 5.24456C11.3766 5.18621 11.4998 5.11152 11.6543 5.05999C11.8109 5.00779 12.0099 4.97688 12.2305 5.02093ZM11.9707 6.00823C11.938 6.01915 11.9046 6.03836 11.877 6.05804C11.8666 6.06542 11.8577 6.07134 11.8526 6.07562C11.8438 6.08439 11.8347 6.09291 11.8252 6.10101L7.00881 10.228L7.00003 17.5004C7.00039 17.5877 7.04919 17.7165 7.16604 17.8334C7.28337 17.9508 7.41266 17.9994 7.50003 17.9994H10V14.0004C10 13.4481 10.4477 13.0004 11 13.0004H13C13.5523 13.0004 14 13.4481 14 14.0004V17.9994H16.5L16.5713 17.9897C16.6486 17.9708 16.7412 17.9224 16.8272 17.8354C16.9416 17.7195 16.9903 17.5898 16.9903 17.4994V10.228L12.1748 6.10101C12.1652 6.09277 12.1555 6.08455 12.1465 6.07562C12.0844 6.01349 12.0458 6.00357 12.0352 6.0014C12.0216 5.99868 12.0014 5.99802 11.9707 6.00823Z" fill="black"/>
</g>
</svg>
