<?xml version="1.0" encoding="UTF-8" standalone="no"?>
<svg
   width="64"
   height="64"
   version="1.1"
   viewBox="0 0 64 64"
   id="svg20"
   sodipodi:docname="brave-beta.svg"
   inkscape:version="1.4.4 (dcaf3e7d9e, 2026-05-05)"
   xmlns:inkscape="http://www.inkscape.org/namespaces/inkscape"
   xmlns:sodipodi="http://sodipodi.sourceforge.net/DTD/sodipodi-0.dtd"
   xmlns:xlink="http://www.w3.org/1999/xlink"
   xmlns="http://www.w3.org/2000/svg"
   xmlns:svg="http://www.w3.org/2000/svg"
   xmlns:rdf="http://www.w3.org/1999/02/22-rdf-syntax-ns#"
   xmlns:cc="http://creativecommons.org/ns#"
   xmlns:dc="http://purl.org/dc/elements/1.1/">
  <sodipodi:namedview
     id="namedview20"
     pagecolor="#ffffff"
     bordercolor="#000000"
     borderopacity="0.25"
     inkscape:showpageshadow="2"
     inkscape:pageopacity="0.0"
     inkscape:pagecheckerboard="0"
     inkscape:deskcolor="#d1d1d1"
     inkscape:current-layer="svg20"
     showgrid="false">
    <inkscape:grid
       id="grid2"
       units="px"
       originx="0"
       originy="0"
       spacingx="0.5"
       spacingy="0.5"
       empcolor="#0099e5"
       empopacity="0.30196078"
       color="#0099e5"
       opacity="0.14901961"
       empspacing="2"
       enabled="true"
       visible="false" />
  </sodipodi:namedview>
  <metadata
     id="metadata1">
    <rdf:RDF>
      <cc:Work
         rdf:about="">
        <dc:format>image/svg+xml</dc:format>
        <dc:type
           rdf:resource="http://purl.org/dc/dcmitype/StillImage" />
      </cc:Work>
    </rdf:RDF>
  </metadata>
  <defs
     id="defs19">
    <linearGradient
       id="linearGradient22"
       inkscape:collect="always">
      <stop
         style="stop-color:#f15907;stop-opacity:1;"
         offset="0"
         id="stop21" />
      <stop
         style="stop-color:#000000;stop-opacity:1;"
         offset="1"
         id="stop22" />
    </linearGradient>
    <linearGradient
       id="linearGradient1"
       inkscape:collect="always">
      <stop
         style="stop-color:#f9a800;stop-opacity:1;"
         offset="0"
         id="stop2" />
      <stop
         style="stop-color:#aa6600;stop-opacity:1;"
         offset="1"
         id="stop20" />
    </linearGradient>
    <filter
       id="filter2076"
       x="-.048"
       y="-.048"
       width="1.096"
       height="1.096"
       color-interpolation-filters="sRGB">
      <feGaussianBlur
         stdDeviation="1.1"
         id="feGaussianBlur1" />
    </filter>
    <linearGradient
       id="linearGradient2070"
       x1="145"
       x2="200"
       y1="59"
       y2="4"
       gradientTransform="translate(-140.5 .5)"
       gradientUnits="userSpaceOnUse">
      <stop
         stop-color="#f7ce43"
         offset="0"
         id="stop1"
         style="stop-color:#dadde2;stop-opacity:1;" />
      <stop
         stop-color="#f7ce43"
         offset="1"
         id="stop3"
         style="stop-color:#f3f3f3;stop-opacity:1;" />
    </linearGradient>
    <radialGradient
       id="gradient_ds_br"
       cx="0"
       cy="0"
       r="1"
       gradientUnits="userSpaceOnUse"
       gradientTransform="matrix(13.998399,0.00477622,-0.00477841,14.004799,47.5016,48.4952)">
      <stop
         offset="0.65"
         id="stop4" />
      <stop
         offset="1"
         stop-opacity="0"
         id="stop5" />
    </radialGradient>
    <linearGradient
       id="gradient_ds_b"
       x1="30.448999"
       y1="48.5"
       x2="30.492201"
       y2="62.500301"
       gradientUnits="userSpaceOnUse">
      <stop
         offset="0.653846"
         id="stop6" />
      <stop
         offset="1"
         stop-opacity="0"
         id="stop7" />
    </linearGradient>
    <radialGradient
       id="gradient_ds_bl"
       cx="0"
       cy="0"
       r="1"
       gradientUnits="userSpaceOnUse"
       gradientTransform="matrix(0,14,-14,0,16.5,48.5)">
      <stop
         offset="0.65"
         id="stop8" />
      <stop
         offset="1"
         stop-opacity="0"
         id="stop9" />
    </radialGradient>
    <linearGradient
       id="gradient_ds_r"
       x1="47.5"
       y1="33.5"
       x2="61.5"
       y2="33.5009"
       gradientUnits="userSpaceOnUse">
      <stop
         offset="0.649038"
         id="stop10" />
      <stop
         offset="1"
         stop-opacity="0"
         id="stop11" />
    </linearGradient>
    <linearGradient
       id="gradient_ds_l"
       x1="16.5"
       y1="33.894699"
       x2="2.5"
       y2="33.894699"
       gradientUnits="userSpaceOnUse">
      <stop
         offset="0.649038"
         id="stop12" />
      <stop
         offset="1"
         stop-opacity="0"
         id="stop13" />
    </linearGradient>
    <radialGradient
       id="gradient_ds_tr"
       cx="0"
       cy="0"
       r="1"
       gradientTransform="matrix(0.00843236,-14,14.0084,0.0189842,47.4916,18.5)"
       gradientUnits="userSpaceOnUse">
      <stop
         offset="0.65"
         id="stop14" />
      <stop
         offset="1"
         stop-opacity="0"
         id="stop15" />
    </radialGradient>
    <linearGradient
       id="gradient_ds_t"
       x1="29.98"
       y1="18.5"
       x2="29.9158"
       y2="4.4998598"
       gradientUnits="userSpaceOnUse">
      <stop
         offset="0.649038"
         id="stop16" />
      <stop
         offset="1"
         stop-opacity="0"
         id="stop17" />
    </linearGradient>
    <radialGradient
       id="gradient_ds_tl"
       cx="0"
       cy="0"
       r="1"
       gradientTransform="matrix(-0.00843236,-14,-14.0084,0.0189842,16.5084,18.5)"
       gradientUnits="userSpaceOnUse">
      <stop
         offset="0.65"
         id="stop18" />
      <stop
         offset="1"
         stop-opacity="0"
         id="stop19" />
    </radialGradient>
    <linearGradient
       inkscape:collect="always"
       xlink:href="#linearGradient1"
       id="linearGradient20"
       x1="88.206557"
       y1="36.7458"
       x2="128.20644"
       y2="36.7458"
       gradientUnits="userSpaceOnUse" />
    <linearGradient
       inkscape:collect="always"
       xlink:href="#linearGradient22"
       id="linearGradient21"
       gradientUnits="userSpaceOnUse"
       x1="88.206557"
       y1="36.7458"
       x2="128.20644"
       y2="36.7458"
       gradientTransform="translate(0,1.1426534)" />
    <filter
       inkscape:collect="always"
       style="color-interpolation-filters:sRGB"
       id="filter22"
       x="-0.028125135"
       y="-0.025961425"
       width="1.0562503"
       height="1.0519228">
      <feGaussianBlur
         inkscape:collect="always"
         stdDeviation="0.46875082"
         id="feGaussianBlur22" />
    </filter>
    <linearGradient
       id="linearGradient4098"
       x1="25"
       x2="53"
       y1="47"
       y2="47"
       gradientUnits="userSpaceOnUse"
       gradientTransform="matrix(1.0663996,0,0,0.92857143,-1.5186423,4.8571429)">
      <stop
         stop-color="#6fe3d4"
         offset="0"
         id="stop11-5" />
      <stop
         stop-color="#66e5b6"
         offset="1"
         id="stop12-6" />
    </linearGradient>
  </defs>
  <g
     id="ds"
     opacity="0.25">
    <path
       id="ds-br"
       d="m 47.5,48.5 h 14 v 14 h -14 z"
       fill="url(#gradient_ds_br)"
       style="fill:url(#gradient_ds_br)" />
    <path
       id="ds-b"
       d="m 16.5,48.5 h 31 v 14 h -31 z"
       fill="url(#gradient_ds_b)"
       style="fill:url(#gradient_ds_b)" />
    <path
       id="ds-bl"
       d="m 2.5,48.5 h 14 v 14 h -14 z"
       fill="url(#gradient_ds_bl)"
       style="fill:url(#gradient_ds_bl)" />
    <path
       id="ds-r"
       d="m 47.5,18.5 h 14 v 30 h -14 z"
       fill="url(#gradient_ds_r)"
       style="fill:url(#gradient_ds_r)" />
    <path
       id="ds-l"
       d="m 2.5,18.5 h 14 v 30 h -14 z"
       fill="url(#gradient_ds_l)"
       style="fill:url(#gradient_ds_l)" />
    <path
       id="ds-tr"
       d="m 47.5,4.5 h 14 v 14 h -14 z"
       fill="url(#gradient_ds_tr)"
       style="fill:url(#gradient_ds_tr)" />
    <path
       id="ds-t"
       d="m 16.5,4.5 h 31 v 14 h -31 z"
       fill="url(#gradient_ds_t)"
       style="fill:url(#gradient_ds_t)" />
    <path
       id="ds-tl"
       d="m 16.5,4.5 h -14 v 14 h 14 z"
       fill="url(#gradient_ds_tl)"
       style="fill:url(#gradient_ds_tl)" />
  </g>
  <rect
     x="4.5"
     y="4.5"
     width="55"
     height="55"
     rx="10"
     fill="url(#linearGradient2070)"
     id="bg" />
  <g
     transform="matrix(.875 0 0 .875 -62.678 -.15257)"
     stroke-width=".9524"
     id="art">
    <path
       d="m 101.54,16.221653 c -0.83336,0 -3.75,3.3334 -4.1666,3.3334 H 95.29 c -0.83336,0 -3.75,2.9166 -3.75,3.75 v 2.5 c 0,0.41666 -3.315,3.3334 -3.3334,4.1666 -0.01833,0.83336 5.8334,20.417 6.6666,21.25 0.83336,0.83336 10,8.3336 12.5,8.3336 h 1.6666 c 2.5,0 11.666,-7.5 12.5,-8.3336 0.83336,-0.83336 6.6834,-20.417 6.6666,-21.25 -0.0183,-0.82832 -3.3334,-3.75 -3.3334,-4.1666 v -2.5 c 0,-0.83336 -2.9166,-3.75 -3.75,-3.75 h -2.0834 c -0.41666,0 -3.3334,-3.3334 -4.1666,-3.3334 z"
       fill="#ea9800"
       id="path19-5"
       style="display:inline;opacity:0.2;fill:url(#linearGradient21);fill-opacity:1;filter:url(#filter22)" />
    <path
       d="m101.54 15.079c-0.83336 0-3.75 3.3334-4.1666 3.3334h-2.0834c-0.83336 0-3.75 2.9166-3.75 3.75v2.5c0 0.41666-3.315 3.3334-3.3334 4.1666-0.01833 0.83336 5.8334 20.417 6.6666 21.25 0.83336 0.83336 10 8.3336 12.5 8.3336h1.6666c2.5 0 11.666-7.5 12.5-8.3336 0.83336-0.83336 6.6834-20.417 6.6666-21.25-0.0183-0.82832-3.3334-3.75-3.3334-4.1666v-2.5c0-0.83336-2.9166-3.75-3.75-3.75h-2.0834c-0.41666 0-3.3334-3.3334-4.1666-3.3334z"
       fill="#ea9800"
       id="path19"
       style="fill:url(#linearGradient20);fill-opacity:1" />
    <path
       d="m108.2 20.899c-0.83 0-1.6566 0.285-2.5 0.84664-2.5 1.6666-5.8334-0.83336-6.6666-0.83336-0.83336 0-5.8334 6.0717-5.8334 8.3336 0 1.6666 6.25 5.5 6.25 6.6666 0 0.83336-1.25 1.2334-1.25 3.0017 0 1.165 1.6666 3.2483 3.3334 3.2483 1.6666 0 5.8366-3.2717 5.8334-4.0817v-0.50166c0-1-3.75-2.26-3.75-4.1666 0-1.6666 1.25-2.2834 1.25-4.1666 0-1.62-3.3334-2.0834-5.8334-2.5-0.83336 0 2.5-2.7417 7.0834 0.22166 1.16 0.75-1.25 3.715-0.83336 6.445 0.625 0.58334 1.7717 0.87496 2.9166 0.87496 1.1466 0 2.2917-0.29166 2.9166-0.87496 0.41666-2.73-1.9934-5.695-0.83336-6.445 4.5834-2.9634 7.9166-0.22166 7.0834-0.22166-2.5 0.41666-5.8334 0.88-5.8334 2.5 0 1.8834 1.25 2.5 1.25 4.1666 0 1.9066-3.75 3.1666-3.75 4.1666v0.50166c-3e-3 0.81 4.1666 4.0817 5.8334 4.0817s3.3334-2.0834 3.3334-3.2483c0-1.7666-1.25-2.1683-1.25-3.0017 0-1.1666 6.25-5 6.25-6.6666 0-2.2617-5-8.3336-5.8334-8.3336s-4.1666 2.5-6.6666 0.83336c-0.84336-0.56166-1.6666-0.84664-2.5-0.84664zm0 19.846c-1.6666 0-5.4166 2.5834-5.4166 3.0834s3.75 4.5834 5.4166 4.5834 5.4166-4.0834 5.4166-4.5834-3.75-3.0834-5.4166-3.0834z"
       fill="#f3f3f3"
       id="path20" />
  </g>
</svg>
