<svg width="64" height="64" viewBox="0 0 64 64" fill="none" xmlns="http://www.w3.org/2000/svg">
<g id="application-web-template" clip-path="url(#clip0_1229_3745)">
<g id="Blank-Template" clip-path="url(#clip1_1229_3745)">
<g id="Shadow 2" opacity="0.1">
<path id="Vector" d="M11.9792 59.0256H51.9787V65.0239H11.9792V59.0256Z" fill="url(#paint0_linear_1229_3745)"/>
<path id="Vector_2" d="M12 1H52V5H12V1Z" fill="url(#paint1_linear_1229_3745)"/>
<path id="Vector_3" d="M5.97722 1.02393H11.9754V5.02274H5.97722V1.02393Z" fill="url(#paint2_radial_1229_3745)"/>
<path id="Vector_4" d="M57.9982 1.02393H52V5.02274H57.9982V1.02393Z" fill="url(#paint3_radial_1229_3745)"/>
<path id="Vector_5" d="M52 5H58V59H52V5Z" fill="url(#paint4_linear_1229_3745)"/>
<path id="Vector_6" d="M5.97722 5.02271H11.9754V59.0219H5.97722V5.02271Z" fill="url(#paint5_linear_1229_3745)"/>
<path id="Vector_7" d="M51.9787 59.0256H57.977V65.0239H51.9787V59.0256Z" fill="url(#paint6_radial_1229_3745)"/>
<path id="Vector_8" d="M5.97722 59.0256H11.9754V65.0239H5.97722V59.0256Z" fill="url(#paint7_radial_1229_3745)"/>
</g>
<g id="Shadow 1" opacity="0.2">
<path id="Vector_9" d="M11.9792 59.0256H51.9787V65.0239H11.9792V59.0256Z" fill="url(#paint8_linear_1229_3745)"/>
<path id="Vector_10" d="M12 1H52V5H12V1Z" fill="url(#paint9_linear_1229_3745)"/>
<path id="Vector_11" d="M11.9754 1.02393H5.97722V5.02274H11.9754V1.02393Z" fill="url(#paint10_radial_1229_3745)"/>
<path id="Vector_12" d="M52 1H57.9982V4.99882H52V1Z" fill="url(#paint11_radial_1229_3745)"/>
<path id="Vector_13" d="M52 5H58V59H52V5Z" fill="url(#paint12_linear_1229_3745)"/>
<path id="Vector_14" d="M5.97722 5.02271H11.9754V59.0219H5.97722V5.02271Z" fill="url(#paint13_linear_1229_3745)"/>
<path id="Vector_15" d="M51.9787 59.0256H57.977V65.0239H51.9787V59.0256Z" fill="url(#paint14_radial_1229_3745)"/>
<path id="Vector_16" d="M5.97722 59.0256H11.9754V65.0239H5.97722V59.0256Z" fill="url(#paint15_radial_1229_3745)"/>
</g>
<path id="Paper" d="M52 1H12C10.3431 1 9 2.34315 9 4V58C9 59.6569 10.3431 61 12 61H52C53.6569 61 55 59.6569 55 58V4C55 2.34315 53.6569 1 52 1Z" fill="url(#paint16_linear_1229_3745)"/>
</g>
<g id="Logo Reference">
<path id="Globe" d="M37 28C32.014 28 28 32.014 28 37C28 41.986 32.014 46 37 46C41.986 46 46 41.986 46 37C46 32.014 41.986 28 37 28ZM37 28.8182C38.3598 28.8182 39.6362 29.152 40.762 29.7337C40.7649 29.7645 40.7649 29.7954 40.762 29.8262C40.8095 29.8475 40.8373 29.9358 40.9166 29.98C40.9461 29.9964 40.9657 30.0037 40.9935 30.0185C41.041 30.0446 41.0803 30.088 41.0705 30.1338C41.0574 30.2009 40.9625 30.1985 40.9166 30.2475C40.9232 30.3425 40.8643 30.3384 40.8397 30.4022C40.8545 30.4431 40.9101 30.43 40.9166 30.4791C40.9085 30.5315 40.8201 30.5388 40.8397 30.5928C40.9281 30.6615 41.0246 30.6043 41.1081 30.5928C41.2914 30.5699 41.4542 30.6043 41.5671 30.5159C41.5524 30.4292 41.6923 30.403 41.6825 30.3245C41.6743 30.2655 41.5728 30.2516 41.5286 30.2107C41.5188 30.2017 41.5057 30.1788 41.4951 30.1608C41.6301 30.2492 41.7585 30.3457 41.8878 30.4423C41.8559 30.4685 41.8297 30.5012 41.797 30.5159C41.7626 30.5306 41.7127 30.5347 41.6816 30.5544C41.6358 30.5855 41.6186 30.6337 41.5663 30.6681C41.5286 30.6943 41.4141 30.7835 41.3748 30.7835C41.3274 30.7835 41.2562 30.7352 41.221 30.7466C41.1719 30.7614 41.1997 30.8407 41.1441 30.8604C41.0361 30.8996 40.8365 30.7753 40.7988 30.9373C40.8446 31.0305 40.9854 31.0019 41.0672 31.0526C41.1179 31.0854 41.2079 31.2269 41.221 31.2825C41.2374 31.3712 41.2374 31.4622 41.221 31.5509C41.1703 31.6818 41.0263 31.6695 40.8757 31.6663C40.8348 31.6663 40.798 31.6695 40.7604 31.6663C40.5067 31.6499 40.2629 31.5615 40.1484 31.7432C40.1565 31.8823 40.1795 31.9674 40.1484 32.0885C40.1255 32.1768 40.0281 32.2415 40.033 32.3184C40.0346 32.3576 40.1001 32.4182 40.1099 32.4722C40.1165 32.5016 40.0968 32.5614 40.1099 32.5875C40.1525 32.6677 40.2645 32.5745 40.3398 32.5875C40.4118 32.599 40.4945 32.6988 40.4945 32.779C40.4945 32.8363 40.4519 32.9533 40.4159 33.0089C40.3439 33.1169 40.2122 33.1038 40.1091 33.1627C40.024 33.2118 40.006 33.3092 39.9553 33.3943C39.9013 33.4859 39.8571 33.5317 39.8784 33.6626C39.8178 33.8001 39.7076 33.9096 39.5699 33.9695C39.5257 33.9891 39.457 34.0169 39.4161 34.0464C39.3739 34.0809 39.3352 34.1195 39.3007 34.1617C39.2435 34.2255 39.178 34.2665 39.1469 34.3155C39.124 34.3532 39.133 34.4186 39.1085 34.4694C39.0725 34.5381 39.0005 34.5921 38.9546 34.6608C38.9334 34.6935 38.9006 34.7336 38.8777 34.7762C38.8254 34.8711 38.7525 34.9611 38.7624 35.0445C38.7705 35.1247 38.8728 35.128 38.8777 35.1984C38.8826 35.2376 38.8376 35.2695 38.8393 35.3121C38.8409 35.3743 38.8728 35.4176 38.8777 35.4667C38.8892 35.5878 38.8237 35.6132 38.8008 35.6966C38.7894 35.7359 38.8106 35.7809 38.8008 35.812C38.7812 35.8725 38.6871 35.9298 38.6855 36.0018C38.6838 36.0525 38.7575 36.0845 38.7624 36.1565C38.7656 36.2055 38.7157 36.2645 38.7255 36.3103C38.7435 36.3986 38.9252 36.5099 38.9939 36.5786C39.0872 36.6719 39.1829 36.7488 39.2238 36.847C39.2582 36.9305 39.2754 37.0532 39.3392 37.1154C39.3866 37.1612 39.4701 37.1816 39.5306 37.2291C39.5879 37.2733 39.6599 37.297 39.7205 37.3445C39.8203 37.423 39.9455 37.5858 40.1042 37.5744C40.1876 37.5678 40.2793 37.5138 40.3725 37.4975C40.4691 37.4811 40.5812 37.4508 40.6794 37.4606C40.7546 37.4688 40.8324 37.5024 40.9109 37.4975C40.9927 37.4925 41.086 37.4615 41.1793 37.4205C41.3413 37.3502 41.5941 37.2332 41.8297 37.2667C42.0097 37.2929 42.0122 37.4934 42.1382 37.5735C42.2822 37.5866 42.4057 37.5457 42.5203 37.5735C42.607 37.5948 42.7035 37.7364 42.7117 37.8051C42.7199 37.8755 42.6446 37.9507 42.6348 37.9949C42.6119 38.0898 42.6127 38.2027 42.5964 38.2633C42.5833 38.3107 42.5579 38.3696 42.5595 38.4171C42.5595 38.4596 42.6307 38.5529 42.6749 38.6085C42.7289 38.6773 42.7993 38.7247 42.8647 38.8C42.9842 38.9375 43.0496 39.1166 43.1331 39.2983C43.1544 39.3441 43.1135 39.3564 43.1331 39.4136C43.0971 39.6885 43.0063 39.8767 42.8263 40.1811C42.7412 40.2793 42.6332 40.4036 42.6348 40.5264C42.6283 40.8209 42.8009 40.969 42.7886 41.2537C42.7592 41.6366 42.7813 41.7013 42.7518 41.9058C42.8811 41.9713 42.8263 42.1521 42.7886 42.2879C42.733 42.4499 42.6659 42.4884 42.6348 42.5964C42.7363 42.6405 42.8475 42.6299 42.9605 42.6013C42.1965 43.4185 41.2724 44.0696 40.2458 44.5141C39.2193 44.9586 38.1121 45.187 36.9935 45.1851C36.0207 45.1837 35.0559 45.0089 34.1445 44.6688C34.1118 44.6557 34.0758 44.6484 34.0439 44.6304C34.0181 44.6144 33.9972 44.5915 33.9836 44.5644C33.97 44.5372 33.9643 44.5068 33.967 44.4765C34.0521 44.4405 34.2133 44.5575 34.2755 44.4381C34.3065 44.3808 34.2345 44.2655 34.2755 44.2082C34.3049 44.1689 34.4833 44.1411 34.5438 44.1313C34.6305 44.1165 34.7246 44.1239 34.7737 44.0928C34.8106 44.0671 34.8404 44.0326 34.8605 43.9925C34.8807 43.9523 34.8905 43.9078 34.8891 43.8629C34.8842 43.8155 34.8498 43.7901 34.8122 43.7475C34.7811 43.7115 34.795 43.6665 34.7737 43.6338C34.7345 43.5765 34.6747 43.5635 34.6584 43.48C34.7762 43.4571 34.9488 43.6044 35.119 43.5569C35.1992 43.534 35.3113 43.3638 35.3489 43.2885C35.3604 43.2656 35.3358 43.201 35.3489 43.1732C35.3636 43.1421 35.4225 43.1126 35.4275 43.0963C35.4389 43.0521 35.4176 43.0472 35.4275 43.0194C35.4569 42.9359 35.5322 42.8885 35.5813 42.8279C35.6189 42.7821 35.6623 42.7215 35.6966 42.6741C35.7359 42.6234 35.7474 42.6029 35.7735 42.5587C35.7981 42.4098 35.6991 42.3075 35.7351 42.1766C35.7744 42.0294 35.9765 41.9353 36.1188 41.8682C36.1679 41.8453 36.2317 41.806 36.2726 41.7913C36.3708 41.7569 36.4878 41.7471 36.5795 41.7144C36.7333 41.6587 36.7725 41.5098 36.8478 41.3691C36.882 41.3089 36.9084 41.2445 36.9264 41.1776C36.9329 41.1351 36.9182 41.113 36.9264 41.0639C36.9345 41.0148 36.9501 40.9633 36.9632 40.9093C36.9812 40.8389 37.0016 40.7211 37.0016 40.6425C37.0016 40.5771 36.9648 40.5468 36.9632 40.4879C36.9517 40.2752 37.0385 40.2588 37.117 40.1426C37.1563 40.0854 37.1661 39.9937 37.1939 39.9528C37.3265 39.7565 37.5555 39.6738 37.5392 39.376C37.5326 39.2778 37.4975 39.0618 37.4255 39.0307C37.3845 39.0127 37.2945 39.0168 37.234 38.9939C37.0409 38.9219 36.8985 38.7018 36.6973 38.6855C36.6547 38.6838 36.6294 38.6871 36.5819 38.6855C36.5034 38.6838 36.4035 38.6184 36.3152 38.6085C36.2595 38.602 36.1565 38.6249 36.1237 38.6085C36.073 38.584 36.0877 38.4825 36.0468 38.4547C36.0141 38.4318 35.9429 38.4343 35.8922 38.4163C35.812 38.3852 35.7555 38.3459 35.6623 38.3394C35.6328 38.3377 35.5796 38.3443 35.5469 38.3394C35.4962 38.3312 35.4405 38.2919 35.3931 38.2625C35.3342 38.2265 35.3023 38.1995 35.2777 38.1487C35.3317 37.972 35.1607 37.9434 35.1239 37.8403C35.1075 37.7928 35.1403 37.729 35.1239 37.6865C35.1026 37.6259 35.0372 37.5834 34.9701 37.5326C34.8523 37.441 34.7549 37.3625 34.5864 37.3412C34.5111 37.333 34.408 37.3477 34.318 37.3412C34.2124 37.3254 34.1166 37.2705 34.0496 37.1874C33.9809 37.1072 33.9564 37.0335 33.8958 36.9959C33.8385 36.9599 33.7436 36.9566 33.7044 36.919C33.6864 36.9026 33.6839 36.8797 33.6675 36.8421C33.6381 36.7832 33.5931 36.7595 33.6291 36.6875C33.5636 36.6547 33.5857 36.739 33.5154 36.7259C33.4515 36.6359 33.391 36.5827 33.247 36.6105C33.1815 36.6236 33.1325 36.7243 33.0555 36.7259C32.9917 36.7275 32.9475 36.622 32.8641 36.6105C32.8003 36.6024 32.7168 36.6588 32.6726 36.649C32.6023 36.6359 32.5826 36.5762 32.5188 36.5336C32.4714 36.5025 32.392 36.4183 32.365 36.4199C32.2832 36.4215 32.2095 36.5942 32.0966 36.5336C32.041 36.4633 32.1989 36.4453 32.1335 36.3798C32.0844 36.3307 32.059 36.3921 32.0197 36.4183C31.9713 36.4492 31.9197 36.475 31.8659 36.4952C31.753 36.5377 31.6859 36.5263 31.5975 36.5721C31.5157 36.6146 31.4904 36.6801 31.4429 36.7635C31.4053 36.8323 31.3464 36.9501 31.2891 36.9534C31.2204 36.9583 31.1598 36.8658 31.0976 36.8396C30.9095 36.7578 30.7941 36.8748 30.6386 36.8765C30.4946 36.8781 30.2868 36.667 30.2934 36.5312C30.2983 36.4477 30.3605 36.3275 30.3703 36.2244C30.3785 36.1425 30.4455 36.0681 30.4472 35.9928C30.4488 35.893 30.2811 35.8145 30.2156 35.803C30.0618 35.7752 29.8556 35.8717 29.6805 35.803C29.6478 35.7474 29.7378 35.7024 29.7575 35.6484C29.7689 35.6173 29.746 35.6058 29.7575 35.5715C29.7771 35.5191 29.8466 35.4733 29.8712 35.4176C29.8892 35.3751 29.8916 35.3162 29.9096 35.2638C29.9309 35.2049 29.9816 35.1525 29.9865 35.11C29.9931 35.0544 29.9538 34.9914 29.9096 34.9554C29.7738 34.9635 29.6797 34.9578 29.6012 34.9938C29.4245 35.074 29.4727 35.3219 29.2944 35.3775C29.2338 35.3972 29.1332 35.4029 29.0645 35.4144L28.9671 35.4332C29.0816 34.8392 29.2584 34.2681 29.4932 33.7281C29.5325 33.7281 29.5734 33.7232 29.6004 33.7281C29.6625 33.7395 29.701 33.8001 29.755 33.805C29.9055 33.8165 29.9375 33.679 30.0618 33.6135C30.1895 33.6315 30.2541 33.6005 30.3703 33.6135C30.4488 33.6217 30.538 33.724 30.6002 33.7289C30.6525 33.7305 30.6665 33.6823 30.7155 33.6905C30.7646 33.6986 30.8604 33.7854 30.8694 33.8443C30.8775 33.9179 30.8096 33.994 30.8309 34.0758C30.9078 34.1544 31.0665 34.1838 31.1762 34.2296C31.2482 34.1707 31.1876 34.0464 31.1762 33.9613C31.1745 33.9236 31.1811 33.8803 31.1762 33.8459C31.168 33.787 31.1394 33.7428 31.1394 33.6921C31.1394 33.4581 31.3275 33.3615 31.4846 33.2699C31.5517 33.2306 31.6172 33.1455 31.6761 33.1161C31.7595 33.0752 31.7988 33.0785 31.8675 33.0392C31.989 32.9719 32.1045 32.8944 32.2128 32.8076C32.257 32.7013 32.2079 32.5671 32.2128 32.4624C32.257 32.4345 32.2791 32.4673 32.3265 32.4624C32.4018 32.446 32.4386 32.3511 32.4812 32.3085C32.5057 32.284 32.5655 32.2562 32.5949 32.2316C32.6702 32.1727 32.6833 32.104 32.7487 32.0778C32.7716 32.0696 32.8281 32.0492 32.8641 32.0394C32.9132 32.0263 32.977 31.9903 33.0555 31.9625C33.1063 31.9445 33.2274 31.9453 33.247 31.9256C33.2715 31.9011 33.2405 31.8086 33.247 31.771C33.2863 31.5861 33.58 31.5665 33.7453 31.5043C33.8598 31.4601 33.9629 31.3644 34.0905 31.3889C34.066 31.4773 33.9539 31.474 33.9752 31.5804C34.003 31.7293 34.1912 31.5247 34.2435 31.5035C34.3434 31.4609 34.5348 31.4355 34.6657 31.3881C34.7803 31.3472 34.9652 31.2907 34.8572 31.1582C34.7672 31.1516 34.7443 31.2392 34.6657 31.2719C34.6117 31.2801 34.5978 31.2384 34.552 31.2351C34.5078 31.2335 34.4808 31.2801 34.4366 31.2719C34.3925 31.2637 34.3278 31.1705 34.3213 31.1181C34.3033 30.9806 34.4571 30.9512 34.5127 30.8497C34.4751 30.7254 34.3106 30.8219 34.2059 30.7728C34.2119 30.7342 34.23 30.6984 34.2577 30.6708C34.2853 30.6431 34.3211 30.625 34.3597 30.619C34.4301 30.6075 34.5855 30.6215 34.6281 30.6558C34.6526 30.6771 34.6273 30.7368 34.6649 30.7712C34.7075 30.8088 34.7639 30.7794 34.8195 30.7712C34.8392 30.6779 34.6878 30.7164 34.7042 30.6558C34.8155 30.5838 35.029 30.637 35.1648 30.619C35.2434 30.6075 35.3244 30.5413 35.3947 30.5036C35.4602 30.466 35.5175 30.4046 35.5862 30.4668C35.6058 30.5339 35.5469 30.5863 35.5093 30.6206C35.3833 30.7319 35.2622 30.8366 35.164 30.9659C35.2245 31.0248 35.3309 30.9913 35.4324 31.0027C35.4716 31.0076 35.5052 31.0346 35.5461 31.0412C35.5952 31.0494 35.6615 31.033 35.7007 31.0412C35.7695 31.0575 35.7858 31.1565 35.8545 31.1565C35.9658 31.1565 35.9552 31.0404 35.8914 30.9651C35.911 30.8882 35.9576 30.8276 35.9298 30.7736C35.8791 30.6722 35.6713 30.7875 35.6615 30.6583C35.6549 30.5765 35.7474 30.5666 35.7768 30.5045C35.7637 30.3474 35.9069 30.34 35.8905 30.1976C35.8824 30.1387 35.8177 30.1379 35.7768 30.0823C35.7555 30.0528 35.7629 29.9882 35.7384 29.9669C35.6533 29.8949 35.4798 29.9145 35.47 29.7771C35.4651 29.6953 35.4815 29.6339 35.47 29.5455C35.4585 29.4621 35.389 29.2166 35.3162 29.2003C35.2245 29.1806 35.1575 29.341 35.0478 29.3917C34.9754 29.4228 34.8965 29.436 34.8179 29.4302C34.7786 29.422 34.7075 29.3901 34.7025 29.3148C34.6944 29.2281 34.7631 29.215 34.7795 29.1234C35.4847 28.927 36.2252 28.8133 36.9943 28.8133M33.697 29.5063C33.6733 29.8425 33.373 30.0168 33.0195 30.0078C32.9443 30.0798 32.9835 30.2148 32.9426 30.3146C32.9083 30.3981 32.7962 30.4758 32.7127 30.4693C32.6522 30.4644 32.5589 30.3719 32.5589 30.3146C32.5589 30.2443 32.6563 30.205 32.5957 30.1248C32.5982 30.1085 32.6203 30.0913 32.6375 30.0733C32.9763 29.8586 33.3304 29.669 33.697 29.5063ZM40.5272 29.8965C40.4969 29.9023 40.4805 29.9178 40.4535 29.9334C40.3914 29.971 40.3856 30.0307 40.3382 30.0487C40.2711 30.0733 40.195 30.0651 40.1844 30.1256C40.1762 30.1764 40.2245 30.1935 40.2228 30.2394C40.1983 30.2999 40.159 30.3195 40.1459 30.3932C40.2294 30.529 40.4249 30.3858 40.528 30.3564C40.5738 30.3433 40.6188 30.3539 40.6434 30.3179C40.6712 30.2737 40.6589 30.1903 40.6802 30.1281C40.7031 30.0594 40.7653 30.0733 40.7571 30.0127C40.7505 29.9522 40.6286 29.8867 40.5272 29.8965ZM31.5705 30.8735C31.6499 30.9144 31.7841 31.0985 31.6311 31.1639C31.6147 31.1721 31.402 31.2089 31.3627 31.2007C31.3308 31.1958 31.3046 31.1672 31.2776 31.1385C31.3717 31.0469 31.4724 30.9602 31.5705 30.8735ZM31.8594 31.2392C31.8986 31.2408 31.9289 31.3128 31.9747 31.3161C32.0189 31.3194 32.0639 31.2695 32.0901 31.2776C32.1588 31.2956 32.1924 31.4184 32.1269 31.4691C32.0729 31.4756 32.0525 31.4241 32.0132 31.4323C31.9019 31.4519 31.8651 31.6687 31.7816 31.6622C31.7031 31.654 31.6646 31.4895 31.7448 31.4323C31.7465 31.3832 31.7031 31.366 31.7064 31.3169C31.7309 31.2858 31.7947 31.2351 31.8602 31.24L31.8594 31.2392ZM31.4773 31.2776C31.5002 31.2776 31.5059 31.2678 31.5141 31.2776C31.5026 31.3644 31.4675 31.3914 31.4004 31.4323C31.3422 31.464 31.2914 31.5078 31.2515 31.5607C31.2116 31.6136 31.1834 31.6744 31.1688 31.7391C31.1574 31.7833 31.0346 31.9035 30.979 31.8929C30.8497 31.8651 31.0265 31.6237 31.0559 31.5861C31.0886 31.5452 31.132 31.5165 31.1696 31.4707C31.2073 31.4249 31.2105 31.3431 31.2465 31.3169C31.2858 31.2891 31.4094 31.2752 31.4781 31.2785L31.4773 31.2776ZM43.0545 31.4969C43.1069 31.5536 43.1585 31.6106 43.2092 31.6679C43.1576 31.6074 43.0734 31.5845 43.0545 31.4969ZM42.5546 31.5133C42.6839 31.5051 42.7641 31.6646 42.823 31.7432C42.8721 31.807 43.0112 31.8905 43.0914 31.9346C43.1372 31.9592 43.1945 31.9886 43.2452 32.0115C43.3515 32.059 43.5471 32.2136 43.552 32.3184C43.5536 32.3707 43.507 32.4239 43.5152 32.473C43.5954 32.4861 43.6665 32.3617 43.669 32.2815C43.6683 32.266 43.6632 32.2509 43.6543 32.2382C43.8861 32.5622 44.0939 32.9025 44.2777 33.2593C44.2057 33.2805 44.1435 33.3149 44.1321 33.3853C44.1157 33.4769 44.1926 33.5988 44.0552 33.6152C43.9685 33.6266 43.8662 33.526 43.7467 33.4998C43.6976 33.4884 43.6322 33.5129 43.5929 33.4998C43.5029 33.4687 43.5168 33.364 43.4391 33.31C43.3674 33.2701 43.2889 33.244 43.2075 33.2331C43.1634 33.2282 43.1396 33.2396 43.0938 33.2331C43.0382 33.2265 42.9482 33.2225 42.9024 33.1946C42.8582 33.1668 42.7608 33.1169 42.7485 33.0793C42.7305 33.0187 42.859 32.9402 42.8623 32.8895C42.8655 32.8502 42.8336 32.833 42.8255 32.7741C42.8189 32.7381 42.8336 32.6816 42.8255 32.6587C42.814 32.6162 42.7379 32.5835 42.6708 32.5818C42.6119 32.5818 42.5677 32.6203 42.517 32.6203C42.445 32.6219 42.3002 32.5736 42.2102 32.5818C42.1562 32.5867 42.1063 32.617 42.0555 32.6203C41.9132 32.6317 41.8215 32.6121 41.7103 32.6203C41.6049 32.6316 41.5017 32.6575 41.4035 32.6972C41.3658 32.7152 41.3372 32.7495 41.2881 32.7741L41.2112 32.8109C41.1654 32.8322 41.1024 32.878 41.0574 32.8895C40.9935 32.9058 40.9052 32.8845 40.789 32.8895C40.7055 32.8944 40.5607 32.8739 40.5591 32.7741C40.5575 32.6219 40.8373 32.6849 40.9813 32.6587C41.0353 32.6473 41.0696 32.5826 41.1351 32.545C41.1662 32.527 41.1825 32.5262 41.212 32.5065C41.2611 32.4722 41.3576 32.392 41.3658 32.3527C41.3724 32.3167 41.3241 32.2635 41.329 32.2374C41.3355 32.203 41.3985 32.1678 41.4427 32.1236C41.5115 32.0549 41.5491 31.9764 41.6342 31.9322C41.6915 31.9011 41.7995 31.9011 41.8256 31.8553C41.8322 31.8029 41.824 31.7874 41.8256 31.7399C41.8616 31.7072 41.8731 31.6695 41.9025 31.663C41.9909 31.6434 42.0678 31.7047 42.1709 31.6998C42.2244 31.7003 42.2772 31.6877 42.3247 31.663C42.364 31.6368 42.4008 31.6057 42.4401 31.5861C42.4826 31.5632 42.5031 31.5125 42.5555 31.5092M32.3167 31.5877H32.4337C32.4935 31.5885 32.5311 31.5714 32.5475 31.5877C32.5213 31.6957 32.2873 31.6638 32.2022 31.6245C32.2071 31.5836 32.2652 31.5926 32.3175 31.5877M43.2108 31.6663C43.2583 31.7203 43.3052 31.7745 43.3515 31.8291C43.3442 31.825 43.3327 31.8234 43.3262 31.8176C43.2804 31.7816 43.2566 31.7211 43.2108 31.6655M31.9338 31.7792C31.9616 31.7792 31.9829 31.7677 32.0124 31.7792C31.9204 31.8498 31.8157 31.9021 31.7039 31.933C31.6417 31.9526 31.5615 31.9633 31.5501 31.8945C31.537 31.8095 31.6098 31.8258 31.6655 31.8176C31.7375 31.8095 31.8487 31.7825 31.9322 31.7808L31.9338 31.7792ZM42.5947 31.7808C42.5407 31.7988 42.5145 31.9199 42.5947 31.9346C42.6324 31.9117 42.643 31.8495 42.6332 31.7808C42.6119 31.7579 42.6111 31.7743 42.5947 31.7808ZM42.5579 32.0107C42.5317 32.0189 42.5088 32.0181 42.481 32.0475C42.4826 32.1392 42.499 32.1989 42.481 32.2791C42.5334 32.3805 42.6446 32.3094 42.6708 32.2406C42.7019 32.0705 42.6365 31.9895 42.5579 32.0107ZM43.2845 32.4714C43.2125 32.4681 43.1372 32.4738 43.0946 32.5082C43.1552 32.6064 43.2656 32.6375 43.4015 32.662C43.4505 32.626 43.4555 32.5344 43.4784 32.4722C43.4195 32.4722 43.3589 32.4755 43.2869 32.4722L43.2845 32.4714ZM28.9074 35.8415C28.9998 35.9249 29.0636 36.0648 29.1741 36.1196C29.215 36.1409 29.2747 36.1466 29.3279 36.1581C29.3705 36.1663 29.4024 36.1818 29.4433 36.1949C29.53 36.2244 29.6429 36.2424 29.7116 36.2735C29.8164 36.3193 29.89 36.4878 29.98 36.5402C29.9849 36.5925 29.9636 36.6555 29.98 36.6948C30.0225 36.7521 30.1027 36.7709 30.1715 36.8085C30.2549 36.8544 30.2827 36.964 30.3613 37C30.3891 37.0115 30.4341 36.9869 30.4766 37C30.5846 37.0327 30.6149 37.1808 30.7082 37.1538C30.7687 37.1358 30.7753 37.0589 30.7851 37C30.826 36.9558 30.8751 36.8846 30.9389 36.8846C31.0404 36.883 31.0551 37.0164 31.0927 37.1162C31.114 37.1718 31.1549 37.2111 31.1696 37.27C31.1942 37.3715 31.1909 37.6701 31.1696 37.7306C31.1435 37.8059 31.0404 37.8386 30.9782 37.9205C30.9487 37.9597 30.9242 38.0096 30.9013 38.0358C30.862 38.0849 30.817 38.107 30.7875 38.1512C30.7712 38.1757 30.7638 38.2305 30.7491 38.2649C30.7 38.3696 30.6313 38.4474 30.6722 38.5734C30.6885 38.6241 30.7491 38.6666 30.7491 38.7272C30.7491 38.7992 30.6067 38.8401 30.5953 38.9186C30.5871 38.9759 30.6542 39.0716 30.6722 39.1485C30.6853 39.2058 30.7908 39.2647 30.826 39.3024C30.8833 39.3662 30.9283 39.4521 30.9806 39.5339C31.0837 39.6926 31.1459 39.8767 31.2474 40.0322C31.3014 40.1124 31.4028 40.177 31.4388 40.2621C31.4568 40.3046 31.4225 40.3766 31.4388 40.4159C31.4977 40.5485 31.7669 40.6957 31.8995 40.7612C31.9616 40.7923 32.0336 40.807 32.0909 40.8397C32.1776 40.8888 32.3535 40.9927 32.3977 41.0696C32.437 41.1384 32.455 41.3053 32.4746 41.4149C32.4992 41.5589 32.4681 41.6816 32.4746 41.8371C32.4795 41.9222 32.5131 41.9819 32.5131 42.067C32.5131 42.0965 32.5147 42.1529 32.5131 42.1824C32.5115 42.2838 32.5213 42.3861 32.5131 42.4892C32.5082 42.5406 32.5082 42.5924 32.5131 42.6438C32.518 42.6945 32.5466 42.7134 32.5499 42.7575C32.5532 42.805 32.5082 42.8745 32.5131 42.9122C32.5245 43.0153 32.6088 43.084 32.6285 43.1789C32.6448 43.2542 32.6751 43.4342 32.6653 43.5242C32.6587 43.5716 32.635 43.6265 32.6285 43.6788C32.6235 43.7197 32.635 43.7549 32.6285 43.7925C32.6226 43.826 32.6147 43.8591 32.6047 43.8915C31.4431 43.1542 30.4868 42.135 29.8249 40.9288C29.163 39.7226 28.817 38.3685 28.819 36.9926C28.819 36.6007 28.8558 36.2186 28.9082 35.8423M32.0917 36.739C32.1703 36.703 32.1555 36.8445 32.0917 36.8544C32.0312 36.8625 32.0328 36.7668 32.0917 36.739Z" fill="url(#paint17_linear_1229_3745)"/>
<g id="Logo">
<g id="Body" opacity="0.25">
<path d="M28.999 43C29.2638 43.3525 29.5523 43.6858 29.8604 44H20V43H28.999Z" fill="black"/>
<path d="M27.458 40C27.5654 40.3419 27.6929 40.675 27.835 41H20V40H27.458Z" fill="black"/>
<path d="M27 37C27 37.3375 27.0171 37.6711 27.0498 38H20V37H27Z" fill="black"/>
<path d="M27.458 34C27.3555 34.3264 27.2692 34.6601 27.2002 35H20V34H27.458Z" fill="black"/>
<path d="M28.999 31C28.7597 31.3186 28.5414 31.6535 28.3408 32H20V31H28.999Z" fill="black"/>
<path d="M44 29H43.001C42.4903 28.6163 41.9412 28.2815 41.3613 28H44V29Z" fill="black"/>
<path d="M44 26H34V25H44V26Z" fill="black"/>
<path d="M44 23H34V22H44V23Z" fill="black"/>
<path d="M44 20H34V19H44V20Z" fill="black"/>
</g>
<path id="Img" fill-rule="evenodd" clip-rule="evenodd" d="M22 21H30V27H22V21Z" fill="#4298E5"/>
<path id="Img Frame" opacity="0.25" fill-rule="evenodd" clip-rule="evenodd" d="M32 28.3408C31.6531 28.5416 31.318 28.7604 30.999 29H20V19H32V28.3408ZM21 28H31V20H21V28Z" fill="black"/>
</g>
</g>
</g>
<defs>
<linearGradient id="paint0_linear_1229_3745" x1="29.9777" y1="59.0256" x2="29.9777" y2="65.0239" gradientUnits="userSpaceOnUse">
<stop/>
<stop offset="1" stop-opacity="0"/>
</linearGradient>
<linearGradient id="paint1_linear_1229_3745" x1="29.3936" y1="5" x2="29.3936" y2="1" gradientUnits="userSpaceOnUse">
<stop/>
<stop offset="1" stop-opacity="0"/>
</linearGradient>
<radialGradient id="paint2_radial_1229_3745" cx="0" cy="0" r="1" gradientUnits="userSpaceOnUse" gradientTransform="translate(11.9794 5.02566) rotate(-90) scale(4.00124 5.00177)">
<stop/>
<stop offset="1" stop-opacity="0"/>
</radialGradient>
<radialGradient id="paint3_radial_1229_3745" cx="0" cy="0" r="1" gradientUnits="userSpaceOnUse" gradientTransform="translate(51.9961 5.02566) rotate(-90) scale(4.00124 5.00177)">
<stop/>
<stop offset="1" stop-opacity="0"/>
</radialGradient>
<linearGradient id="paint4_linear_1229_3745" x1="52" y1="31.9972" x2="57.0019" y2="31.9972" gradientUnits="userSpaceOnUse">
<stop/>
<stop offset="1" stop-opacity="0"/>
</linearGradient>
<linearGradient id="paint5_linear_1229_3745" x1="11.9792" y1="33.022" x2="6.97881" y2="33.022" gradientUnits="userSpaceOnUse">
<stop/>
<stop offset="1" stop-opacity="0"/>
</linearGradient>
<radialGradient id="paint6_radial_1229_3745" cx="0" cy="0" r="1" gradientUnits="userSpaceOnUse" gradientTransform="translate(51.9743 59.0219) rotate(90) scale(6.00201 5.00177)">
<stop/>
<stop offset="1" stop-opacity="0"/>
</radialGradient>
<radialGradient id="paint7_radial_1229_3745" cx="0" cy="0" r="1" gradientUnits="userSpaceOnUse" gradientTransform="translate(11.9763 59.0219) rotate(180) scale(5.00177 6.00201)">
<stop/>
<stop offset="1" stop-opacity="0"/>
</radialGradient>
<linearGradient id="paint8_linear_1229_3745" x1="29.9777" y1="59.0256" x2="29.9777" y2="64.0223" gradientUnits="userSpaceOnUse">
<stop/>
<stop offset="1" stop-opacity="0"/>
</linearGradient>
<linearGradient id="paint9_linear_1229_3745" x1="29.3936" y1="5" x2="29.3936" y2="2.00189" gradientUnits="userSpaceOnUse">
<stop/>
<stop offset="1" stop-opacity="0"/>
</linearGradient>
<radialGradient id="paint10_radial_1229_3745" cx="0" cy="0" r="1" gradientUnits="userSpaceOnUse" gradientTransform="translate(11.9791 5.02274) rotate(-90) scale(3.001 4.00124)">
<stop/>
<stop offset="1" stop-opacity="0"/>
</radialGradient>
<radialGradient id="paint11_radial_1229_3745" cx="0" cy="0" r="1" gradientUnits="userSpaceOnUse" gradientTransform="translate(51.9964 4.99882) rotate(-90) scale(3.001 4.00124)">
<stop/>
<stop offset="1" stop-opacity="0"/>
</radialGradient>
<linearGradient id="paint12_linear_1229_3745" x1="52" y1="31.9972" x2="56" y2="31.9972" gradientUnits="userSpaceOnUse">
<stop/>
<stop offset="1" stop-opacity="0"/>
</linearGradient>
<linearGradient id="paint13_linear_1229_3745" x1="11.9792" y1="33.022" x2="7.98041" y2="33.022" gradientUnits="userSpaceOnUse">
<stop/>
<stop offset="1" stop-opacity="0"/>
</linearGradient>
<radialGradient id="paint14_radial_1229_3745" cx="0" cy="0" r="1" gradientUnits="userSpaceOnUse" gradientTransform="translate(51.9794 59.0236) rotate(90) scale(5.00177 4.00124)">
<stop/>
<stop offset="1" stop-opacity="0"/>
</radialGradient>
<radialGradient id="paint15_radial_1229_3745" cx="0" cy="0" r="1" gradientUnits="userSpaceOnUse" gradientTransform="translate(11.9784 59.0174) rotate(180) scale(4.00124 5.00177)">
<stop/>
<stop offset="1" stop-opacity="0"/>
</radialGradient>
<linearGradient id="paint16_linear_1229_3745" x1="45.9964" y1="8.99974" x2="9.99848" y2="59.9977" gradientUnits="userSpaceOnUse">
<stop stop-color="#FCFCFC"/>
<stop offset="1" stop-color="#EDEDED"/>
</linearGradient>
<linearGradient id="paint17_linear_1229_3745" x1="32.7109" y1="28.0012" x2="32.7109" y2="46.0006" gradientUnits="userSpaceOnUse">
<stop stop-color="#4298E5"/>
<stop offset="1" stop-color="#326796"/>
</linearGradient>
<clipPath id="clip0_1229_3745">
<rect width="64" height="64" fill="white"/>
</clipPath>
<clipPath id="clip1_1229_3745">
<rect width="64" height="64" fill="white"/>
</clipPath>
</defs>
</svg>
