<svg width="16" height="16" viewBox="0 0 16 16" fill="none" xmlns="http://www.w3.org/2000/svg">
<g id="emblem-symbolic-link" clip-path="url(#clip0_2037_245)">
<g id="Emblem-16">
<rect id="Background" width="15" height="15" rx="2" fill="url(#paint0_linear_2037_245)"/>
<path id="Border" d="M2 0.25H13C13.9665 0.25 14.75 1.0335 14.75 2V13C14.75 13.9665 13.9665 14.75 13 14.75H2C1.0335 14.75 0.25 13.9665 0.25 13V2L0.258789 1.82129C0.342338 0.997479 0.997479 0.342338 1.82129 0.258789L2 0.25Z" stroke="#1A1A1A" stroke-opacity="0.5" stroke-width="0.5"/>
<rect id="Light" x="0.75" y="0.75" width="13.5" height="13.5" rx="1.25" stroke="url(#paint1_linear_2037_245)" stroke-width="0.5"/>
</g>
<g id="Logo">
<g id="Vector 5" filter="url(#filter0_f_2037_245)">
<path d="M3.5 12L11.5 4M11.5 4V8.5M11.5 4H7" stroke="#1A1A1A" stroke-opacity="0.5" stroke-linecap="round" stroke-linejoin="round"/>
</g>
<path id="Vector 6" d="M3.5 11.5L11.5 3.5M11.5 3.5V8M11.5 3.5H7" stroke="white" stroke-linecap="round" stroke-linejoin="round"/>
</g>
</g>
<defs>
<filter id="filter0_f_2037_245" x="1" y="1.5" width="13" height="13" filterUnits="userSpaceOnUse" color-interpolation-filters="sRGB">
<feFlood flood-opacity="0" result="BackgroundImageFix"/>
<feBlend mode="normal" in="SourceGraphic" in2="BackgroundImageFix" result="shape"/>
<feGaussianBlur stdDeviation="1" result="effect1_foregroundBlur_2037_245"/>
</filter>
<linearGradient id="paint0_linear_2037_245" x1="7.5" y1="1.43326e-06" x2="7.5" y2="15" gradientUnits="userSpaceOnUse">
<stop stop-color="#808080"/>
<stop offset="1" stop-color="#4D4D4D"/>
</linearGradient>
<linearGradient id="paint1_linear_2037_245" x1="7.5" y1="14.5" x2="7.5" y2="0.5" gradientUnits="userSpaceOnUse">
<stop stop-color="white" stop-opacity="0.3"/>
<stop offset="0.211538" stop-color="white" stop-opacity="0.15"/>
<stop offset="0.798077" stop-color="white" stop-opacity="0.25"/>
<stop offset="1" stop-color="white" stop-opacity="0.4"/>
</linearGradient>
<clipPath id="clip0_2037_245">
<rect width="16" height="16" fill="white"/>
</clipPath>
</defs>
</svg>
