<svg width="16" height="16" viewBox="0 0 16 16" fill="none" xmlns="http://www.w3.org/2000/svg">
<g id="emblem-important" clip-path="url(#clip0_2037_280)">
<g id="Emblem-16">
<rect id="Background" width="15" height="15" rx="2" fill="url(#paint0_linear_2037_280)"/>
<path id="Border" d="M2 0.25H13C13.9665 0.25 14.75 1.0335 14.75 2V13C14.75 13.9665 13.9665 14.75 13 14.75H2C1.0335 14.75 0.25 13.9665 0.25 13V2L0.258789 1.82129C0.342338 0.997479 0.997479 0.342338 1.82129 0.258789L2 0.25Z" stroke="#BB6B03" stroke-opacity="0.5" stroke-width="0.5"/>
<rect id="Light" x="0.75" y="0.75" width="13.5" height="13.5" rx="1.25" stroke="url(#paint1_linear_2037_280)" stroke-width="0.5"/>
</g>
<g id="Logo">
<g id="Union" filter="url(#filter0_f_2037_280)">
<path d="M7.03414 2.83799C7.17151 2.41561 7.74139 2.38912 7.93258 2.75889C7.94533 2.78351 7.95663 2.80986 7.96578 2.83799L8.92867 5.79893C8.94029 5.83452 8.95684 5.86741 8.97554 5.89854C9.0626 6.04326 9.21926 6.13578 9.39351 6.13584H12.5097C12.9837 6.13588 13.1803 6.74223 12.7968 7.02061L10.2763 8.85068C10.1049 8.9752 10.0331 9.19618 10.0986 9.39756L11.0615 12.3575C11.0792 12.412 11.0862 12.4654 11.0859 12.5167C11.0859 12.5249 11.0854 12.533 11.0849 12.5411C11.0839 12.5594 11.0821 12.5772 11.0791 12.5948C11.0777 12.6028 11.075 12.6104 11.0732 12.6183C11.0697 12.6335 11.0664 12.6486 11.0615 12.6632C11.0586 12.6718 11.0551 12.6802 11.0517 12.6886C11.046 12.7029 11.0402 12.717 11.0332 12.7306C11.0275 12.7414 11.021 12.7515 11.0146 12.7618C11.0094 12.7702 11.0037 12.7782 10.998 12.7862C10.989 12.799 10.9799 12.8115 10.9697 12.8233C10.9649 12.829 10.9601 12.8345 10.955 12.8399C10.9451 12.8506 10.9346 12.8605 10.9238 12.8702C10.9148 12.8783 10.9059 12.8863 10.8964 12.8937C10.8874 12.9007 10.8777 12.9068 10.8681 12.9132C10.8597 12.9189 10.8515 12.9246 10.8427 12.9298C10.8307 12.9369 10.8183 12.9432 10.8056 12.9493C10.796 12.954 10.7862 12.958 10.7763 12.962C10.765 12.9666 10.7538 12.9709 10.7421 12.9747C10.7257 12.98 10.7093 12.9848 10.6923 12.9884C10.6878 12.9893 10.6833 12.9905 10.6787 12.9913C10.6619 12.9943 10.645 12.9959 10.6279 12.9972C10.6185 12.9978 10.6091 12.999 10.5996 12.9991C10.5898 12.9992 10.5801 12.9987 10.5703 12.9981C10.555 12.9974 10.5397 12.9966 10.5244 12.9942C10.5198 12.9935 10.5153 12.9921 10.5107 12.9913C10.4422 12.9788 10.3734 12.9514 10.3086 12.9044L7.78804 11.0743C7.63802 10.9654 7.44092 10.9517 7.27926 11.0333C7.256 11.045 7.23342 11.0587 7.21187 11.0743L4.69137 12.9044C4.6194 12.9566 4.54279 12.9861 4.46676 12.9962C4.44158 12.9995 4.41642 13.0008 4.39156 13.0001L4.31734 12.9913L4.24605 12.9728C4.01407 12.8914 3.84687 12.6391 3.93844 12.3575L4.90133 9.39756C4.96682 9.19617 4.89502 8.9752 4.72359 8.85068L2.20308 7.02061C2.18253 7.00568 2.16371 6.98942 2.14644 6.97275C2.14412 6.97051 2.14188 6.96819 2.13961 6.96592C2.13067 6.95696 2.12323 6.94698 2.11519 6.9376C2.10729 6.92837 2.0988 6.91985 2.09176 6.91025L2.0859 6.90244C2.07454 6.88629 2.06464 6.86962 2.05562 6.85264C2.05405 6.84967 2.05225 6.84684 2.05074 6.84385C2.04412 6.83071 2.03844 6.81732 2.03316 6.80381C2.02924 6.79379 2.02562 6.78372 2.02242 6.77354C2.01869 6.76163 2.01639 6.74948 2.01363 6.7374C2.01124 6.72696 2.00847 6.71668 2.00679 6.70615C2.00422 6.68991 2.00282 6.67366 2.00191 6.65733C2.00158 6.65145 2.00105 6.64562 2.00094 6.63975C2.0008 6.63258 1.99979 6.62542 1.99996 6.61826L2.00289 6.57725C2.0033 6.57335 2.00336 6.56941 2.00387 6.56553C2.00567 6.55172 2.00875 6.53812 2.01168 6.52451C2.01422 6.5127 2.01709 6.50096 2.02047 6.48936C2.02346 6.47906 2.02757 6.46917 2.03121 6.45908C2.03523 6.44792 2.03911 6.43673 2.0439 6.42588C2.04856 6.41535 2.05319 6.40482 2.05855 6.39463C2.06466 6.38302 2.07108 6.37156 2.07808 6.36045C2.08396 6.35114 2.09015 6.34202 2.09664 6.33311C2.09882 6.33011 2.10122 6.32727 2.10347 6.32432L2.13668 6.28526L2.14937 6.27256C2.15529 6.26675 2.16169 6.26147 2.16793 6.25596C2.17758 6.24742 2.18683 6.23834 2.19722 6.23057C2.2068 6.22341 2.2173 6.21749 2.2275 6.21104C2.23806 6.20435 2.24852 6.19739 2.25972 6.19151C2.26909 6.18659 2.27922 6.18313 2.28902 6.17881C2.34864 6.15251 2.41573 6.13585 2.49019 6.13584H5.6064C5.75657 6.1358 5.89331 6.06672 5.98433 5.95518C6.00575 5.92901 6.02621 5.90181 6.04195 5.87119L6.07125 5.79893L7.03414 2.83799Z" fill="#BB6B03" fill-opacity="0.5"/>
</g>
<path id="Union_2" d="M7.22072 2.08496C7.38635 1.97181 7.61369 1.97181 7.77932 2.08496C7.8619 2.14126 7.92927 2.22546 7.96584 2.33789L8.92873 5.29883C8.94035 5.33443 8.9569 5.36731 8.97561 5.39844C9.03024 5.48929 9.112 5.55896 9.209 5.59863C9.24305 5.61255 9.27841 5.6239 9.31545 5.62988L9.39357 5.63672H12.5098L12.5957 5.64355C12.9514 5.70244 13.1114 6.12158 12.9141 6.40234C12.8837 6.4456 12.8449 6.48567 12.7969 6.52051L10.2764 8.35058C10.255 8.36612 10.235 8.38305 10.2168 8.40137C10.1803 8.43808 10.1508 8.48024 10.1279 8.52539C10.1051 8.57059 10.0891 8.61893 10.0811 8.66894C10.0731 8.71882 10.0721 8.77022 10.0801 8.82129C10.0841 8.84685 10.0905 8.87228 10.0987 8.89746L11.0615 11.8574C11.0793 11.9119 11.0862 11.9653 11.086 12.0166C11.0859 12.0255 11.0845 12.0342 11.084 12.043C11.0829 12.0605 11.0821 12.0778 11.0791 12.0947C11.0776 12.1033 11.0752 12.1117 11.0733 12.1201C11.07 12.134 11.067 12.1478 11.0625 12.1611C11.0587 12.1726 11.0535 12.1833 11.0488 12.1943C11.0437 12.2065 11.0393 12.2188 11.0332 12.2305C11.0276 12.2413 11.0211 12.2514 11.0147 12.2617C11.0095 12.2701 11.0038 12.2781 10.9981 12.2861C10.989 12.2989 10.9799 12.3114 10.9697 12.3232C10.9649 12.3289 10.9602 12.3344 10.9551 12.3398C10.9451 12.3505 10.9347 12.3604 10.9238 12.3701C10.9149 12.3782 10.906 12.3862 10.8965 12.3936C10.8874 12.4006 10.8777 12.4067 10.8682 12.4131C10.8598 12.4188 10.8515 12.4245 10.8428 12.4297C10.8307 12.4368 10.8183 12.4431 10.8057 12.4492C10.7961 12.4539 10.7863 12.4579 10.7764 12.4619C10.7647 12.4667 10.7533 12.4717 10.7412 12.4756C10.7313 12.4788 10.7211 12.4808 10.711 12.4834C10.6979 12.4867 10.6852 12.491 10.6719 12.4932C10.66 12.4951 10.6479 12.496 10.6358 12.4971C10.6238 12.4981 10.6118 12.4989 10.5996 12.499C10.5837 12.4992 10.5679 12.4976 10.5518 12.4961C10.5447 12.4954 10.5374 12.4961 10.5303 12.4951C10.5142 12.4929 10.4985 12.4884 10.4824 12.4844C10.4235 12.4697 10.3644 12.4448 10.3086 12.4043L7.78811 10.5742C7.61659 10.4497 7.38345 10.4497 7.21193 10.5742L4.69143 12.4043C4.57164 12.4912 4.4388 12.5151 4.3174 12.4922C4.05013 12.4418 3.83777 12.1671 3.9385 11.8574L4.90139 8.89746C4.96689 8.69606 4.89511 8.47509 4.72365 8.35058L2.20315 6.52051C2.18257 6.50557 2.16378 6.48933 2.1465 6.47266C2.14418 6.47041 2.14194 6.4681 2.13967 6.46582C2.13458 6.46072 2.12981 6.45544 2.12502 6.45019C2.09461 6.41695 2.06977 6.38137 2.0508 6.34375C2.04418 6.33061 2.0385 6.31722 2.03322 6.30371C2.0293 6.29368 2.02568 6.28362 2.02248 6.27344C2.01875 6.26153 2.01645 6.24938 2.01369 6.2373C2.0113 6.22686 2.00853 6.21658 2.00686 6.20605C2.00429 6.18981 2.00288 6.17356 2.00197 6.15723C2.00164 6.15135 2.00111 6.14552 2.001 6.13965C2.00086 6.13248 1.99985 6.12532 2.00002 6.11816L2.00295 6.07715C2.00336 6.07325 2.00342 6.06931 2.00393 6.06543C2.00581 6.05099 2.00862 6.03667 2.01174 6.02246C2.01362 6.0139 2.01626 6.00552 2.01857 5.99707C2.02264 5.98226 2.02687 5.9675 2.03225 5.95312C2.03536 5.9448 2.03944 5.93686 2.04299 5.92871C2.04799 5.91722 2.05277 5.90563 2.05861 5.89453C2.06472 5.88293 2.07114 5.87146 2.07815 5.86035C2.08402 5.85104 2.09021 5.84192 2.0967 5.83301C2.09888 5.83001 2.10128 5.82717 2.10354 5.82422L2.13674 5.78516L2.14943 5.77246C2.15535 5.76665 2.16175 5.76137 2.16799 5.75586C2.17764 5.74733 2.18689 5.73824 2.19729 5.73047C2.20686 5.72332 2.21737 5.71739 2.22756 5.71094C2.23812 5.70425 2.24859 5.69729 2.25979 5.69141C2.26915 5.68649 2.27928 5.68303 2.28908 5.67871C2.34869 5.65242 2.4158 5.63673 2.49025 5.63672H5.60647C5.75666 5.63667 5.89338 5.56666 5.9844 5.45508C6.0058 5.42891 6.02628 5.40171 6.04201 5.37109L6.07131 5.29883L7.0342 2.33789C7.07077 2.22545 7.13813 2.14126 7.22072 2.08496Z" fill="white"/>
</g>
</g>
<defs>
<filter id="filter0_f_2037_280" x="-6.10352e-05" y="0.500065" width="14.9997" height="14.5002" filterUnits="userSpaceOnUse" color-interpolation-filters="sRGB">
<feFlood flood-opacity="0" result="BackgroundImageFix"/>
<feBlend mode="normal" in="SourceGraphic" in2="BackgroundImageFix" result="shape"/>
<feGaussianBlur stdDeviation="1" result="effect1_foregroundBlur_2037_280"/>
</filter>
<linearGradient id="paint0_linear_2037_280" x1="7.5" y1="15" x2="7.5" y2="0" gradientUnits="userSpaceOnUse">
<stop stop-color="#FAAE2A"/>
<stop offset="1" stop-color="#FFC35A"/>
</linearGradient>
<linearGradient id="paint1_linear_2037_280" x1="7.5" y1="14.5" x2="7.5" y2="0.5" gradientUnits="userSpaceOnUse">
<stop stop-color="white" stop-opacity="0.3"/>
<stop offset="0.211538" stop-color="white" stop-opacity="0.15"/>
<stop offset="0.798077" stop-color="white" stop-opacity="0.25"/>
<stop offset="1" stop-color="white" stop-opacity="0.4"/>
</linearGradient>
<clipPath id="clip0_2037_280">
<rect width="16" height="16" fill="white"/>
</clipPath>
</defs>
</svg>
