<svg width="16" height="16" viewBox="0 0 16 16" fill="none" xmlns="http://www.w3.org/2000/svg">
<g id="emblem-encrypted-locked" clip-path="url(#clip0_2037_271)">
<g id="Emblem-16">
<rect id="Background" width="15" height="15" rx="2" fill="url(#paint0_linear_2037_271)"/>
<path id="Border" d="M2 0.25H13C13.9665 0.25 14.75 1.0335 14.75 2V13C14.75 13.9665 13.9665 14.75 13 14.75H2C1.0335 14.75 0.25 13.9665 0.25 13V2L0.258789 1.82129C0.342338 0.997479 0.997479 0.342338 1.82129 0.258789L2 0.25Z" stroke="#F20000" stroke-opacity="0.5" stroke-width="0.5"/>
<rect id="Light" x="0.75" y="0.75" width="13.5" height="13.5" rx="1.25" stroke="url(#paint1_linear_2037_271)" stroke-width="0.5"/>
</g>
<g id="Logo">
<g id="Vector 8" filter="url(#filter0_f_2037_271)">
<path d="M5.5 3.5V12.5M9.5 3.5V12.5M3 6C7.29577 6 7.70423 6 12 6M3 10H12" stroke="#F20000" stroke-opacity="0.5" stroke-linecap="round" stroke-linejoin="round"/>
</g>
<path id="Vector 9" d="M5.5 3V12M9.5 3V12M3 5.5C7.29577 5.5 7.70423 5.5 12 5.5M3 9.5H12" stroke="white" stroke-linecap="round" stroke-linejoin="round"/>
</g>
</g>
<defs>
<filter id="filter0_f_2037_271" x="0.5" y="1" width="14" height="14" filterUnits="userSpaceOnUse" color-interpolation-filters="sRGB">
<feFlood flood-opacity="0" result="BackgroundImageFix"/>
<feBlend mode="normal" in="SourceGraphic" in2="BackgroundImageFix" result="shape"/>
<feGaussianBlur stdDeviation="1" result="effect1_foregroundBlur_2037_271"/>
</filter>
<linearGradient id="paint0_linear_2037_271" x1="7.5" y1="15" x2="7.5" y2="-2.11956e-07" gradientUnits="userSpaceOnUse">
<stop stop-color="#FF5B59"/>
<stop offset="1" stop-color="#FF983D"/>
</linearGradient>
<linearGradient id="paint1_linear_2037_271" x1="7.5" y1="14.5" x2="7.5" y2="0.5" gradientUnits="userSpaceOnUse">
<stop stop-color="white" stop-opacity="0.3"/>
<stop offset="0.211538" stop-color="white" stop-opacity="0.15"/>
<stop offset="0.798077" stop-color="white" stop-opacity="0.25"/>
<stop offset="1" stop-color="white" stop-opacity="0.4"/>
</linearGradient>
<clipPath id="clip0_2037_271">
<rect width="16" height="16" fill="white"/>
</clipPath>
</defs>
</svg>
