<?xml version="1.0" encoding="UTF-8" standalone="no"?>
<svg xmlns:inkscape="http://www.inkscape.org/namespaces/inkscape" xmlns:sodipodi="http://sodipodi.sourceforge.net/DTD/sodipodi-0.dtd" xmlns="http://www.w3.org/2000/svg" xmlns:svg="http://www.w3.org/2000/svg" width="64" height="64" version="1.1" id="svg4" sodipodi:docname="artifact.svg" inkscape:version="1.4.2 (ebf0e940d0, 2025-05-08)">
  <defs id="defs4">
    <linearGradient id="a" x1="7.937" x2="7.937" y1="15.081" y2="1.852" gradientTransform="scale(3.7796)" gradientUnits="userSpaceOnUse">
      <stop offset="0" stop-color="#263a40" id="stop1"/>
      <stop offset="1" stop-color="#131d21" id="stop2"/>
    </linearGradient>
    <linearGradient id="c" x1="8.193" x2="55.809" y1="35.268" y2="35.268" gradientUnits="userSpaceOnUse" gradientTransform="matrix(0.9450742,0,0,0.9450742,1.7573236,0.80665916)">
      <stop offset="0" stop-color="#d6bd7b" id="stop3"/>
      <stop offset="1" stop-color="#9d8255" id="stop4"/>
    </linearGradient>
    <filter id="filter1057-9" x="-0.026999999" y="-0.026999999" width="1.054" height="1.054" color-interpolation-filters="sRGB">
      <feGaussianBlur stdDeviation="0.61875" id="feGaussianBlur1"/>
    </filter>
    <linearGradient id="linearGradient1053-1" x1="-127" x2="-72" y1="60" y2="5" gradientTransform="matrix(1.0000071,0,0,1.0000071,131.49576,-0.51035904)" gradientUnits="userSpaceOnUse">
      <stop stop-color="#1d2123" offset="0" id="stop1-6"/>
      <stop stop-color="#33393e" stop-opacity=".99608" offset="1" id="stop2-7"/>
    </linearGradient>
    <filter inkscape:collect="always" style="color-interpolation-filters:sRGB" id="filter1057" x="-0.026999999" width="1.054" y="-0.026999999" height="1.054">
      <feGaussianBlur inkscape:collect="always" stdDeviation="0.61875" id="feGaussianBlur1059"/>
    </filter>
  <radialGradient id="gradient_ds_br" cx="0" cy="0" r="1" gradientUnits="userSpaceOnUse" gradientTransform="matrix(13.998399,0.00477622,-0.00477841,14.004799,47.5016,48.4952)">
      <stop offset="0.65" id="stop1"/>
      <stop offset="1" stop-opacity="0" id="stop2"/>
    </radialGradient><linearGradient id="gradient_ds_b" x1="30.448999" y1="48.5" x2="30.492201" y2="62.500301" gradientUnits="userSpaceOnUse">
      <stop offset="0.653846" id="stop3"/>
      <stop offset="1" stop-opacity="0" id="stop4"/>
    </linearGradient><radialGradient id="gradient_ds_bl" cx="0" cy="0" r="1" gradientUnits="userSpaceOnUse" gradientTransform="matrix(0,14,-14,0,16.5,48.5)">
      <stop offset="0.65" id="stop5"/>
      <stop offset="1" stop-opacity="0" id="stop6"/>
    </radialGradient><linearGradient id="gradient_ds_r" x1="47.5" y1="33.5" x2="61.5" y2="33.5009" gradientUnits="userSpaceOnUse">
      <stop offset="0.649038" id="stop7"/>
      <stop offset="1" stop-opacity="0" id="stop8"/>
    </linearGradient><linearGradient id="gradient_ds_l" x1="16.5" y1="33.894699" x2="2.5" y2="33.894699" gradientUnits="userSpaceOnUse">
      <stop offset="0.649038" id="stop9"/>
      <stop offset="1" stop-opacity="0" id="stop10"/>
    </linearGradient><radialGradient id="gradient_ds_tr" cx="0" cy="0" r="1" gradientTransform="matrix(0.00843236,-14,14.0084,0.0189842,47.4916,18.5)" gradientUnits="userSpaceOnUse">
      <stop offset="0.65" id="stop11"/>
      <stop offset="1" stop-opacity="0" id="stop12"/>
    </radialGradient><linearGradient id="gradient_ds_t" x1="29.98" y1="18.5" x2="29.9158" y2="4.4998598" gradientUnits="userSpaceOnUse">
      <stop offset="0.649038" id="stop13"/>
      <stop offset="1" stop-opacity="0" id="stop14"/>
    </linearGradient><radialGradient id="gradient_ds_tl" cx="0" cy="0" r="1" gradientTransform="matrix(-0.00843236,-14,-14.0084,0.0189842,16.5084,18.5)" gradientUnits="userSpaceOnUse">
      <stop offset="0.65" id="stop15"/>
      <stop offset="1" stop-opacity="0" id="stop16"/>
    </radialGradient></defs>
  
  <g id="ds" opacity="0.25">
    <path id="ds-br" d="m 47.5,48.5 h 14 v 14 h -14 z" fill="url(#gradient_ds_br)" style="fill:url(#gradient_ds_br)"/>
    <path id="ds-b" d="m 16.5,48.5 h 31 v 14 h -31 z" fill="url(#gradient_ds_b)" style="fill:url(#gradient_ds_b)"/>
    <path id="ds-bl" d="m 2.5,48.5 h 14 v 14 h -14 z" fill="url(#gradient_ds_bl)" style="fill:url(#gradient_ds_bl)"/>
    <path id="ds-r" d="m 47.5,18.5 h 14 v 30 h -14 z" fill="url(#gradient_ds_r)" style="fill:url(#gradient_ds_r)"/>
    <path id="ds-l" d="m 2.5,18.5 h 14 v 30 h -14 z" fill="url(#gradient_ds_l)" style="fill:url(#gradient_ds_l)"/>
    <path id="ds-tr" d="m 47.5,4.5 h 14 v 14 h -14 z" fill="url(#gradient_ds_tr)" style="fill:url(#gradient_ds_tr)"/>
    <path id="ds-t" d="m 16.5,4.5 h 31 v 14 h -31 z" fill="url(#gradient_ds_t)" style="fill:url(#gradient_ds_t)"/>
    <path id="ds-tl" d="m 16.5,4.5 h -14 v 14 h 14 z" fill="url(#gradient_ds_tl)" style="fill:url(#gradient_ds_tl)"/>
  </g><rect y="4.5" x="4.5" height="55" width="55" id="bg" style="fill:url(#linearGradient1053-1);fill-opacity:1;stroke-width:2.74444;stroke-linecap:round;font-variation-settings:normal;opacity:1;vector-effect:none;stroke-linejoin:miter;stroke-miterlimit:4;stroke-dasharray:none;stroke-dashoffset:0;stroke-opacity:1;-inkscape-stroke:none;stop-color:#000000;stop-opacity:1" rx="10"/>
  <g id="art"><path fill="url(#c)" d="m 31.963785,53.494546 c -0.07277,-0.08695 -0.163498,-0.319436 -0.203191,-0.517901 -0.03969,-0.198466 -0.117189,-0.332666 -0.172948,-0.297698 -0.05671,0.03402 -0.153102,-0.05671 -0.215477,-0.203191 -0.06237,-0.145542 -0.404492,-0.730543 -0.758895,-1.299477 A 94.50742,94.50742 0 0 1 29.764597,49.79836 c -0.113408,-0.189014 -0.580275,-0.96492 -1.039581,-1.723815 -0.459306,-0.757949 -0.906326,-1.53291 -0.992328,-1.72287 a 6.6155194,6.6155194 0 0 0 -0.356293,-0.654937 c -0.491439,-0.774015 -1.27963,-2.141538 -1.464865,-2.542249 -0.113409,-0.243829 -0.274072,-0.468757 -0.359128,-0.50089 -0.08506,-0.03213 -0.154047,-0.147431 -0.154047,-0.254224 0,-0.106794 3.547808,-3.753835 7.883809,-8.104957 l 7.882864,-7.910271 2.139647,0.542473 c 2.857905,0.725817 3.68957,0.976261 3.68957,1.112352 0,0.12853 -0.400711,0.889315 -0.96303,1.828719 -0.207917,0.347787 -0.766456,1.304202 -1.242773,2.125472 l -1.667111,2.87208 c -0.44135,0.758895 -1.490382,2.566822 -2.330553,4.020346 -3.907882,6.75539 -6.942515,11.969364 -7.771345,13.351063 -0.274071,0.457416 -0.498999,0.876084 -0.498999,0.929953 0,0.05481 -0.09545,0.186179 -0.213587,0.292973 -0.178619,0.160662 -0.233433,0.167278 -0.343062,0.03497 M 24.06013,40.17845 c -0.04914,-0.07939 -0.340227,-0.63509 -0.648321,-1.235212 -0.308094,-0.600122 -0.675728,-1.247498 -0.816544,-1.436513 -0.2495,-0.333611 -1.583,-2.567766 -2.161385,-3.618689 -0.155937,-0.283522 -0.912942,-1.576383 -1.682232,-2.871135 a 709.75072,709.75072 0 0 1 -1.53102,-2.584778 914.83182,914.83182 0 0 0 -1.577329,-2.67456 234.3784,234.3784 0 0 1 -2.004502,-3.445741 156.88232,156.88232 0 0 0 -2.144374,-3.70091 c -0.172003,-0.284467 -0.440405,-0.749444 -0.596342,-1.033911 -0.155937,-0.284468 -0.555703,-0.969646 -0.88837,-1.52346 -0.4971086,-0.82883 -0.5793301,-1.036746 -0.463086,-1.177562 0.1228597,-0.147432 1.02257,-0.171059 6.596618,-0.171059 4.985267,0 6.497385,0.03308 6.644817,0.143652 0.103958,0.07939 0.274071,0.453635 0.376139,0.83261 l 0.281632,1.033911 c 0.359129,1.306093 0.475373,1.729486 0.736213,2.699132 0.160663,0.601067 0.450801,1.660495 0.642651,2.355125 0.19185,0.694629 0.453635,1.651045 0.57933,2.125472 0.366689,1.384533 1.447854,5.22059 2.378752,8.442348 0.475372,1.643484 0.885534,3.115909 0.912942,3.274682 0.04158,0.242884 -0.277852,0.623749 -2.098065,2.497831 -1.181343,1.21631 -2.216199,2.211473 -2.298421,2.211473 A 0.32132523,0.32132523 0 0 1 24.06013,40.177505 m 6.294194,-6.49077 c -0.138926,-0.25895 -1.332555,-4.544861 -2.151934,-7.722201 -0.349678,-1.356181 -0.685179,-2.526183 -0.745664,-2.598954 -0.119079,-0.143651 -0.02552,-0.505614 0.131366,-0.505614 0.239103,0 1.370357,0.265565 1.945907,0.45647 0.622804,0.207917 2.086724,0.600122 6.605124,1.773905 1.885423,0.489548 2.29653,0.633199 2.29653,0.798587 0,0.193741 -7.690068,7.998163 -7.880973,7.998163 -0.05103,0 -0.141762,-0.08978 -0.201301,-0.200356 M 44.695825,25.14988 c -1.611352,-0.433789 -3.144262,-0.790082 -3.407938,-0.792917 -0.26273,-0.0019 -0.495219,-0.05387 -0.516955,-0.115299 -0.04253,-0.125695 -2.529964,-0.805203 -2.948632,-0.807093 -0.148377,0 -0.716366,-0.153102 -1.263564,-0.339282 -1.371303,-0.466867 -8.807147,-2.418445 -9.214474,-2.418445 -0.546252,0 -0.749443,-0.427173 -1.470535,-3.094173 -0.516956,-1.909995 -0.665332,-2.61691 -0.572715,-2.728429 0.189015,-0.227763 28.78696,-0.222092 29.09978,0.0066 0.203191,0.148376 0.160662,0.249499 -0.769291,1.866521 -0.540582,0.940349 -1.084945,1.923226 -1.209695,2.185012 -0.123804,0.26084 -0.291083,0.545307 -0.371414,0.631309 -0.08033,0.086 -0.95358,1.552757 -1.941182,3.258616 -1.696408,2.930675 -1.814543,3.102679 -2.139648,3.118745 -0.189015,0.0095 -1.663331,-0.337392 -3.273737,-0.771181" id="path4" style="fill:url(#c);stroke-width:0.945074"/></g>
</svg>
