<?xml version="1.0" encoding="UTF-8" standalone="no"?>
<svg xmlns:inkscape="http://www.inkscape.org/namespaces/inkscape" xmlns:sodipodi="http://sodipodi.sourceforge.net/DTD/sodipodi-0.dtd" xmlns="http://www.w3.org/2000/svg" xmlns:svg="http://www.w3.org/2000/svg" xmlns:rdf="http://www.w3.org/1999/02/22-rdf-syntax-ns#" xmlns:cc="http://creativecommons.org/ns#" xmlns:dc="http://purl.org/dc/elements/1.1/" width="64" height="64" version="1.1" id="svg8" sodipodi:docname="bluefish-alt.svg" inkscape:version="1.4.2 (ebf0e940d0, 2025-05-08)">
  <sodipodi:namedview id="namedview8" pagecolor="#ffffff" bordercolor="#000000" borderopacity="0.25" inkscape:showpageshadow="2" inkscape:pageopacity="0.0" inkscape:pagecheckerboard="0" inkscape:deskcolor="#d1d1d1" inkscape:current-layer="svg8"/>
  <metadata id="metadata1">
    <rdf:RDF>
      <cc:Work rdf:about="">
        <dc:format>image/svg+xml</dc:format>
        <dc:type rdf:resource="http://purl.org/dc/dcmitype/StillImage"/>
      </cc:Work>
    </rdf:RDF>
  </metadata>
  <defs id="defs5">
    
    
    <linearGradient id="b-3" x1="399.57" x2="399.57" y1="545.8" y2="517.8" gradientTransform="matrix(2.1429 0 0 2.1429 -753.93 -1107.5)" gradientUnits="userSpaceOnUse">
      <stop stop-color="#3889e9" offset="0" id="stop2"/>
      <stop stop-color="#5ea5fb" offset="1" id="stop3"/>
    </linearGradient>
    
    
    <filter id="filter1057-3" x="-0.026999999" y="-0.026999999" width="1.054" height="1.054" color-interpolation-filters="sRGB">
      <feGaussianBlur stdDeviation="0.61875" id="feGaussianBlur4"/>
    </filter>
    <linearGradient id="linearGradient1053-6" x1="-127" x2="-72" y1="60" y2="5" gradientTransform="translate(131.49,-0.054156)" gradientUnits="userSpaceOnUse">
      <stop stop-color="#1d2123" offset="0" id="stop4"/>
      <stop stop-color="#33393e" stop-opacity=".99608" offset="1" id="stop5"/>
    </linearGradient>
  <radialGradient id="gradient_ds_br" cx="0" cy="0" r="1" gradientUnits="userSpaceOnUse" gradientTransform="matrix(13.998399,0.00477622,-0.00477841,14.004799,47.5016,48.4952)">
      <stop offset="0.65" id="stop1"/>
      <stop offset="1" stop-opacity="0" id="stop2"/>
    </radialGradient><linearGradient id="gradient_ds_b" x1="30.448999" y1="48.5" x2="30.492201" y2="62.500301" gradientUnits="userSpaceOnUse">
      <stop offset="0.653846" id="stop3"/>
      <stop offset="1" stop-opacity="0" id="stop4"/>
    </linearGradient><radialGradient id="gradient_ds_bl" cx="0" cy="0" r="1" gradientUnits="userSpaceOnUse" gradientTransform="matrix(0,14,-14,0,16.5,48.5)">
      <stop offset="0.65" id="stop5"/>
      <stop offset="1" stop-opacity="0" id="stop6"/>
    </radialGradient><linearGradient id="gradient_ds_r" x1="47.5" y1="33.5" x2="61.5" y2="33.5009" gradientUnits="userSpaceOnUse">
      <stop offset="0.649038" id="stop7"/>
      <stop offset="1" stop-opacity="0" id="stop8"/>
    </linearGradient><linearGradient id="gradient_ds_l" x1="16.5" y1="33.894699" x2="2.5" y2="33.894699" gradientUnits="userSpaceOnUse">
      <stop offset="0.649038" id="stop9"/>
      <stop offset="1" stop-opacity="0" id="stop10"/>
    </linearGradient><radialGradient id="gradient_ds_tr" cx="0" cy="0" r="1" gradientTransform="matrix(0.00843236,-14,14.0084,0.0189842,47.4916,18.5)" gradientUnits="userSpaceOnUse">
      <stop offset="0.65" id="stop11"/>
      <stop offset="1" stop-opacity="0" id="stop12"/>
    </radialGradient><linearGradient id="gradient_ds_t" x1="29.98" y1="18.5" x2="29.9158" y2="4.4998598" gradientUnits="userSpaceOnUse">
      <stop offset="0.649038" id="stop13"/>
      <stop offset="1" stop-opacity="0" id="stop14"/>
    </linearGradient><radialGradient id="gradient_ds_tl" cx="0" cy="0" r="1" gradientTransform="matrix(-0.00843236,-14,-14.0084,0.0189842,16.5084,18.5)" gradientUnits="userSpaceOnUse">
      <stop offset="0.65" id="stop15"/>
      <stop offset="1" stop-opacity="0" id="stop16"/>
    </radialGradient></defs>
  
  <g id="ds" opacity="0.25">
    <path id="ds-br" d="m 47.5,48.5 h 14 v 14 h -14 z" fill="url(#gradient_ds_br)" style="fill:url(#gradient_ds_br)"/>
    <path id="ds-b" d="m 16.5,48.5 h 31 v 14 h -31 z" fill="url(#gradient_ds_b)" style="fill:url(#gradient_ds_b)"/>
    <path id="ds-bl" d="m 2.5,48.5 h 14 v 14 h -14 z" fill="url(#gradient_ds_bl)" style="fill:url(#gradient_ds_bl)"/>
    <path id="ds-r" d="m 47.5,18.5 h 14 v 30 h -14 z" fill="url(#gradient_ds_r)" style="fill:url(#gradient_ds_r)"/>
    <path id="ds-l" d="m 2.5,18.5 h 14 v 30 h -14 z" fill="url(#gradient_ds_l)" style="fill:url(#gradient_ds_l)"/>
    <path id="ds-tr" d="m 47.5,4.5 h 14 v 14 h -14 z" fill="url(#gradient_ds_tr)" style="fill:url(#gradient_ds_tr)"/>
    <path id="ds-t" d="m 16.5,4.5 h 31 v 14 h -31 z" fill="url(#gradient_ds_t)" style="fill:url(#gradient_ds_t)"/>
    <path id="ds-tl" d="m 16.5,4.5 h -14 v 14 h 14 z" fill="url(#gradient_ds_tl)" style="fill:url(#gradient_ds_tl)"/>
  </g><rect x="4.5" y="4.5" width="55" height="55" fill="url(#linearGradient1053-6)" stroke-linecap="round" stroke-width="2.7444" id="bg" style="fill:url(#linearGradient1053-6)" rx="10"/>
  <g transform="matrix(1.3193,0,0,1.3193,12.169,12.17)" fill="#ffffff" id="art" style="display:inline">
    <path d="M 16.963,7.376 C 16.681,4.58 14.228,2.178 11.622,2.178 8.96,2.178 6.513,3.099 4.565,4.629 4.048,4.613 3.457,4.67 2.84,4.818 1.103,5.233 -0.161,6.175 0.017,6.922 0.135,7.417 0.861,7.696 1.836,7.712 0.786,9.442 0.17,11.463 0.17,13.63 c 0,4.196 2.277,7.855 5.652,9.846 -0.336,0.364 -0.645,0.874 -0.861,1.484 -0.48,1.355 -0.318,2.646 0.359,2.885 0.677,0.24 1.613,-0.664 2.093,-2.018 0.102,-0.292 0.17,-0.579 0.215,-0.855 0.266,0.088 0.551,0.162 0.857,0.206 1.422,0.205 2.657,-0.205 2.76,-0.916 0.102,-0.71 -0.966,-1.454 -2.389,-1.659 C 8.247,22.515 7.677,22.545 7.211,22.659 7.19,22.585 6.353,21.063 6.28,19.882 6.186,18.345 6.644,16.827 7.641,15.655 8.031,15.199 8.5,14.832 9,14.52 c -0.09,1.204 0.189,2.143 0.757,2.285 0.745,0.187 1.701,-1.068 2.135,-2.799 0.037,-0.149 0.064,-0.295 0.091,-0.441 l 0.396,-0.069 c 2.811,-0.597 4.881,-3.182 4.584,-6.12 z" id="path7"/>
    <path d="m 13.1,22.686 c 0.282,2.796 2.735,5.198 5.341,5.198 2.662,0 5.109,-0.921 7.057,-2.451 0.518,0.016 1.108,-0.041 1.726,-0.188 1.737,-0.415 3.001,-1.358 2.823,-2.105 -0.118,-0.495 -0.844,-0.774 -1.819,-0.79 1.05,-1.73 1.666,-3.75 1.666,-5.917 0,-4.196 -2.277,-7.855 -5.652,-9.846 C 24.578,6.223 24.888,5.713 25.103,5.103 25.582,3.748 25.421,2.457 24.744,2.218 24.067,1.978 23.131,2.882 22.651,4.236 22.549,4.528 22.481,4.815 22.436,5.09 22.17,5.002 21.885,4.928 21.579,4.884 20.157,4.679 18.922,5.089 18.819,5.8 c -0.102,0.71 0.966,1.454 2.389,1.659 0.609,0.088 1.179,0.058 1.646,-0.056 0.021,0.074 0.858,1.596 0.931,2.777 0.094,1.537 -0.364,3.055 -1.361,4.227 -0.39,0.457 -0.858,0.825 -1.358,1.137 0.09,-1.204 -0.188,-2.143 -0.757,-2.285 -0.745,-0.186 -1.701,1.068 -2.135,2.799 -0.037,0.149 -0.064,0.295 -0.091,0.441 l -0.396,0.069 c -2.815,0.595 -4.884,3.181 -4.587,6.118 z" id="path8"/>
  </g>
</svg>
