<?xml version="1.0" encoding="UTF-8" standalone="no"?>
<svg
   width="64"
   height="64"
   version="1.1"
   viewBox="0 0 64 64"
   id="svg62"
   sodipodi:docname="charles-proxy.svg"
   inkscape:version="1.4.4 (dcaf3e7d9e, 2026-05-05)"
   xmlns:inkscape="http://www.inkscape.org/namespaces/inkscape"
   xmlns:sodipodi="http://sodipodi.sourceforge.net/DTD/sodipodi-0.dtd"
   xmlns="http://www.w3.org/2000/svg"
   xmlns:svg="http://www.w3.org/2000/svg"
   xmlns:rdf="http://www.w3.org/1999/02/22-rdf-syntax-ns#"
   xmlns:cc="http://creativecommons.org/ns#"
   xmlns:dc="http://purl.org/dc/elements/1.1/">
  <sodipodi:namedview
     id="namedview20"
     pagecolor="#ffffff"
     bordercolor="#000000"
     borderopacity="0.25"
     inkscape:showpageshadow="2"
     inkscape:pageopacity="0.0"
     inkscape:pagecheckerboard="0"
     inkscape:deskcolor="#d1d1d1"
     inkscape:current-layer="svg62" />
  <defs
     id="defs15">
    <filter
       id="filter2761"
       x="-0.024"
       y="-0.024"
       width="1.048"
       height="1.048"
       color-interpolation-filters="sRGB">
      <feGaussianBlur
         stdDeviation="0.14552168"
         id="feGaussianBlur2" />
    </filter>
    <linearGradient
       id="linearGradient1024"
       x1="1.3315001"
       x2="15.65"
       y1="15.576"
       y2="1.17"
       gradientUnits="userSpaceOnUse"
       gradientTransform="translate(1.1902151,-4.762997)">
      <stop
         stop-color="#3cccef"
         offset="0"
         id="stop5" />
      <stop
         stop-color="#21a9fa"
         offset="1"
         id="stop7" />
    </linearGradient>
    <linearGradient
       id="linearGradient968"
       x1="0.22194999"
       x2="25.798"
       y1="31.117001"
       y2="-0.031266998"
       gradientUnits="userSpaceOnUse">
      <stop
         stop-color="#f1f3f8"
         offset="0"
         id="stop10" />
      <stop
         stop-color="#74defb"
         offset="1"
         id="stop12" />
    </linearGradient>
    <filter
       id="filter1057"
       x="-0.026999999"
       y="-0.026999999"
       width="1.054"
       height="1.054"
       color-interpolation-filters="sRGB">
      <feGaussianBlur
         stdDeviation="0.61875"
         id="feGaussianBlur843" />
    </filter>
    <linearGradient
       id="linearGradient1053"
       x1="-127"
       x2="-72"
       y1="60"
       y2="5"
       gradientTransform="matrix(0.26457812,0,0,0.26457812,34.792022,-0.1349349)"
       gradientUnits="userSpaceOnUse">
      <stop
         stop-color="#55d6f7"
         offset="0"
         id="stop846" />
      <stop
         stop-color="#408eff"
         offset="1"
         id="stop848" />
    </linearGradient>
    <filter
       id="filter1057-7"
       x="-0.026999999"
       y="-0.026999999"
       width="1.054"
       height="1.054"
       color-interpolation-filters="sRGB">
      <feGaussianBlur
         stdDeviation="0.61875"
         id="feGaussianBlur843-0" />
    </filter>
    <linearGradient
       id="linearGradient1053-9"
       x1="-72"
       x2="-99.5"
       y1="5.0099988"
       y2="60.009998"
       gradientTransform="translate(131.5,-0.50999871)"
       gradientUnits="userSpaceOnUse">
      <stop
         stop-color="#55d6f7"
         offset="0"
         id="stop846-3"
         style="stop-color:#f3f3f3;stop-opacity:1;" />
      <stop
         stop-color="#408eff"
         offset="1"
         id="stop848-6"
         style="stop-color:#dadde2;stop-opacity:1;" />
    </linearGradient>
    <linearGradient
       id="linearGradient2898"
       x1="0.15503654"
       y1="0.21244895"
       x2="0.79775023"
       y2="0.85516262"
       gradientTransform="matrix(17.928,0,0,17.928,-42.718209,20.786)"
       gradientUnits="userSpaceOnUse">
      <stop
         offset="1.3043478260869565%"
         stop-opacity="1"
         style="stop-color:rgb(254,172,94)"
         id="stop2892" />
      <stop
         offset="0.58424103"
         stop-opacity="1"
         style="stop-color:rgb(199,121,208)"
         id="stop2894" />
      <stop
         offset="99.56521739130434%"
         stop-opacity="1"
         style="stop-color:rgb(75,192,200)"
         id="stop2896" />
    </linearGradient>
    <linearGradient
       id="_lgradient_6"
       x1="0"
       y1="0.5"
       x2="0.90748805"
       y2="0.92007786"
       gradientTransform="matrix(6.601,3.811,-3.811,6.601,-35.149209,24.913)"
       gradientUnits="userSpaceOnUse">
      <stop
         offset="0%"
         stop-opacity="1"
         style="stop-color:rgb(247,241,7)"
         id="stop1821" />
      <stop
         offset="83.88839793817618%"
         stop-opacity="1"
         style="stop-color:rgb(255,187,36)"
         id="stop1823" />
    </linearGradient>
    <filter
       id="filter1057-7-7"
       x="-0.026999999"
       y="-0.026999999"
       width="1.054"
       height="1.054"
       color-interpolation-filters="sRGB">
      <feGaussianBlur
         stdDeviation="0.61875"
         id="feGaussianBlur843-0-5" />
    </filter>
    <radialGradient
       id="gradient_ds_br"
       cx="0"
       cy="0"
       r="1"
       gradientUnits="userSpaceOnUse"
       gradientTransform="matrix(13.998399,0.00477622,-0.00477841,14.004799,47.5016,48.4952)">
      <stop
         offset="0.65"
         id="stop1" />
      <stop
         offset="1"
         stop-opacity="0"
         id="stop2" />
    </radialGradient>
    <linearGradient
       id="gradient_ds_b"
       x1="30.448999"
       y1="48.5"
       x2="30.492201"
       y2="62.500301"
       gradientUnits="userSpaceOnUse">
      <stop
         offset="0.653846"
         id="stop3" />
      <stop
         offset="1"
         stop-opacity="0"
         id="stop4" />
    </linearGradient>
    <radialGradient
       id="gradient_ds_bl"
       cx="0"
       cy="0"
       r="1"
       gradientUnits="userSpaceOnUse"
       gradientTransform="matrix(0,14,-14,0,16.5,48.5)">
      <stop
         offset="0.65"
         id="stop6" />
      <stop
         offset="1"
         stop-opacity="0"
         id="stop8" />
    </radialGradient>
    <linearGradient
       id="gradient_ds_r"
       x1="47.5"
       y1="33.5"
       x2="61.5"
       y2="33.5009"
       gradientUnits="userSpaceOnUse">
      <stop
         offset="0.649038"
         id="stop9" />
      <stop
         offset="1"
         stop-opacity="0"
         id="stop11" />
    </linearGradient>
    <linearGradient
       id="gradient_ds_l"
       x1="16.5"
       y1="33.894699"
       x2="2.5"
       y2="33.894699"
       gradientUnits="userSpaceOnUse">
      <stop
         offset="0.649038"
         id="stop13" />
      <stop
         offset="1"
         stop-opacity="0"
         id="stop14" />
    </linearGradient>
    <radialGradient
       id="gradient_ds_tr"
       cx="0"
       cy="0"
       r="1"
       gradientTransform="matrix(0.00843236,-14,14.0084,0.0189842,47.4916,18.5)"
       gradientUnits="userSpaceOnUse">
      <stop
         offset="0.65"
         id="stop15" />
      <stop
         offset="1"
         stop-opacity="0"
         id="stop16" />
    </radialGradient>
    <linearGradient
       id="gradient_ds_t"
       x1="29.98"
       y1="18.5"
       x2="29.9158"
       y2="4.4998598"
       gradientUnits="userSpaceOnUse">
      <stop
         offset="0.649038"
         id="stop17" />
      <stop
         offset="1"
         stop-opacity="0"
         id="stop18" />
    </linearGradient>
    <radialGradient
       id="gradient_ds_tl"
       cx="0"
       cy="0"
       r="1"
       gradientTransform="matrix(-0.00843236,-14,-14.0084,0.0189842,16.5084,18.5)"
       gradientUnits="userSpaceOnUse">
      <stop
         offset="0.65"
         id="stop19" />
      <stop
         offset="1"
         stop-opacity="0"
         id="stop20" />
    </radialGradient>
    <filter
       inkscape:collect="always"
       style="color-interpolation-filters:sRGB"
       id="filter20"
       x="-0.076088565"
       y="-0.073942148"
       width="1.1521771"
       height="1.1478843">
      <feGaussianBlur
         inkscape:collect="always"
         stdDeviation="0.98589531"
         id="feGaussianBlur20" />
    </filter>
  </defs>
  <metadata
     id="metadata17">
    <rdf:RDF>
      <cc:Work
         rdf:about="">
        <dc:format>image/svg+xml</dc:format>
        <dc:type
           rdf:resource="http://purl.org/dc/dcmitype/StillImage" />
      </cc:Work>
    </rdf:RDF>
  </metadata>
  <g
     id="ds"
     opacity="0.25">
    <path
       id="ds-br"
       d="m 47.5,48.5 h 14 v 14 h -14 z"
       fill="url(#gradient_ds_br)"
       style="fill:url(#gradient_ds_br)" />
    <path
       id="ds-b"
       d="m 16.5,48.5 h 31 v 14 h -31 z"
       fill="url(#gradient_ds_b)"
       style="fill:url(#gradient_ds_b)" />
    <path
       id="ds-bl"
       d="m 2.5,48.5 h 14 v 14 h -14 z"
       fill="url(#gradient_ds_bl)"
       style="fill:url(#gradient_ds_bl)" />
    <path
       id="ds-r"
       d="m 47.5,18.5 h 14 v 30 h -14 z"
       fill="url(#gradient_ds_r)"
       style="fill:url(#gradient_ds_r)" />
    <path
       id="ds-l"
       d="m 2.5,18.5 h 14 v 30 h -14 z"
       fill="url(#gradient_ds_l)"
       style="fill:url(#gradient_ds_l)" />
    <path
       id="ds-tr"
       d="m 47.5,4.5 h 14 v 14 h -14 z"
       fill="url(#gradient_ds_tr)"
       style="fill:url(#gradient_ds_tr)" />
    <path
       id="ds-t"
       d="m 16.5,4.5 h 31 v 14 h -31 z"
       fill="url(#gradient_ds_t)"
       style="fill:url(#gradient_ds_t)" />
    <path
       id="ds-tl"
       d="m 16.5,4.5 h -14 v 14 h 14 z"
       fill="url(#gradient_ds_tl)"
       style="fill:url(#gradient_ds_tl)" />
  </g>
  <rect
     x="4.5"
     y="4.5"
     width="55"
     height="55"
     fill="url(#linearGradient1053)"
     stroke-linecap="round"
     stroke-width="2.7444"
     id="bg"
     style="isolation:isolate;fill:url(#linearGradient1053-9)"
     rx="10" />
  <g
     id="art">
    <path
       id="rect3-7"
       style="fill:#000000;fill-opacity:1;stroke-width:0.844988;stroke-linecap:round;paint-order:stroke fill markers;filter:url(#filter20);opacity:0.15"
       d="m 28.619166,17.002156 c -1.967143,-0.01553 -3.935081,0.05274 -5.873055,0.2079 -1.458341,0.116773 -3.761869,0.124267 -4.855843,1.242248 -0.374188,0.382407 -0.666123,1.032781 -0.195896,1.457227 0.586572,0.529468 1.520147,0.768575 2.198589,1.177955 1.804061,1.088574 3.184766,2.675776 3.177217,4.858204 -0.01352,3.920764 -2.885008,6.749046 -3.629022,10.424977 -1.429543,7.062872 4.821834,12.516644 11.465116,12.618204 0.161775,0.0074 0.32371,0.01113 0.485671,0.01113 3.179969,-8.7e-5 8.529004,-2.127956 10.228868,-6.593839 0.97481,0.567747 2.530924,1.803735 3.426266,0.405293 0.805541,-1.258174 -0.69909,-2.031901 -1.37149,-2.840289 -0.616046,-0.740627 -0.661722,-1.601188 -0.430805,-2.503155 1.053169,-4.113717 4.779426,-7.193767 5.26693,-11.522344 0.376116,-3.339517 -2.194061,-6.413126 -5.574061,-6.56512 -1.540176,-0.06926 -2.880872,0.511874 -4.169993,1.297768 -0.05668,-2.710364 -1.948998,-3.165224 -4.279728,-3.381685 -1.935273,-0.179733 -3.901622,-0.27898 -5.868764,-0.294487 z m 14.008991,5.376231 c 1.357884,-3.27e-4 2.668282,0.811974 2.957315,2.360415 0.306784,1.643536 -0.803181,3.455244 -1.563745,4.828191 -0.796015,1.436948 -1.593948,2.916444 -2.510655,4.279731 -1.20513,-1.978875 -1.77843,-4.204717 -2.147365,-6.474459 -0.237928,-1.463775 -0.176157,-3.011236 0.979272,-4.099477 0.63869,-0.601547 1.470448,-0.894228 2.285178,-0.894401 z" />
    <path
       id="rect3"
       style="fill:#292929;stroke-width:0.844988;stroke-linecap:round;paint-order:stroke fill markers;fill-opacity:1"
       d="m 28.619166,16.002156 c -1.967143,-0.01553 -3.935081,0.05274 -5.873055,0.2079 -1.458341,0.116773 -3.761869,0.124267 -4.855843,1.242248 -0.374188,0.382407 -0.666123,1.032781 -0.195896,1.457227 0.586572,0.529468 1.520147,0.768575 2.198589,1.177955 1.804061,1.088574 3.184766,2.675776 3.177217,4.858204 -0.01352,3.920764 -2.885008,6.749046 -3.629022,10.424977 -1.429543,7.062872 4.821834,12.516644 11.465116,12.618204 0.161775,0.0074 0.32371,0.01113 0.485671,0.01113 3.179969,-8.7e-5 8.529004,-2.127956 10.228868,-6.593839 0.97481,0.567747 2.530924,1.803735 3.426266,0.405293 0.805541,-1.258174 -0.69909,-2.031901 -1.37149,-2.840289 -0.616046,-0.740627 -0.661722,-1.601188 -0.430805,-2.503155 1.053169,-4.113717 4.779426,-7.193767 5.26693,-11.522344 0.376116,-3.339517 -2.194061,-6.413126 -5.574061,-6.56512 -1.540176,-0.06926 -2.880872,0.511874 -4.169993,1.297768 -0.05668,-2.710364 -1.948998,-3.165224 -4.279728,-3.381685 -1.935273,-0.179733 -3.901622,-0.27898 -5.868764,-0.294487 z m 14.008991,5.376231 c 1.357884,-3.27e-4 2.668282,0.811974 2.957315,2.360415 0.306784,1.643536 -0.803181,3.455244 -1.563745,4.828191 -0.796015,1.436948 -1.593948,2.916444 -2.510655,4.279731 -1.20513,-1.978875 -1.77843,-4.204717 -2.147365,-6.474459 -0.237928,-1.463775 -0.176157,-3.011236 0.979272,-4.099477 0.63869,-0.601547 1.470448,-0.894228 2.285178,-0.894401 z" />
  </g>
</svg>
