<?xml version="1.0" encoding="UTF-8" standalone="no"?>
<svg
   width="64"
   height="64"
   version="1.1"
   id="svg29"
   sodipodi:docname="codeblocks.v2.svg"
   inkscape:version="1.4.4 (dcaf3e7d9e, 2026-05-05)"
   xmlns:inkscape="http://www.inkscape.org/namespaces/inkscape"
   xmlns:sodipodi="http://sodipodi.sourceforge.net/DTD/sodipodi-0.dtd"
   xmlns="http://www.w3.org/2000/svg"
   xmlns:svg="http://www.w3.org/2000/svg"
   xmlns:rdf="http://www.w3.org/1999/02/22-rdf-syntax-ns#"
   xmlns:cc="http://creativecommons.org/ns#"
   xmlns:dc="http://purl.org/dc/elements/1.1/">
  <sodipodi:namedview
     id="namedview29"
     pagecolor="#ffffff"
     bordercolor="#000000"
     borderopacity="0.25"
     inkscape:showpageshadow="2"
     inkscape:pageopacity="0.0"
     inkscape:pagecheckerboard="0"
     inkscape:deskcolor="#d1d1d1"
     inkscape:current-layer="svg29" />
  <metadata
     id="metadata1">
    <rdf:RDF>
      <cc:Work
         rdf:about="">
        <dc:format>image/svg+xml</dc:format>
        <dc:type
           rdf:resource="http://purl.org/dc/dcmitype/StillImage" />
      </cc:Work>
    </rdf:RDF>
  </metadata>
  <defs
     id="defs26">
    <linearGradient
       id="linearGradient905"
       x1="21.902"
       x2="21.902"
       y1="17.238"
       y2="29.031"
       gradientUnits="userSpaceOnUse">
      <stop
         stop-color="#fa6271"
         offset="0"
         id="stop1" />
      <stop
         stop-color="#ea3050"
         offset="1"
         id="stop2" />
    </linearGradient>
    <linearGradient
       id="linearGradient913"
       x1="40.752"
       x2="40.752"
       y1="28.508"
       y2="17.206"
       gradientUnits="userSpaceOnUse">
      <stop
         stop-color="#25b848"
         offset="0"
         id="stop3" />
      <stop
         stop-color="#62db78"
         offset="1"
         id="stop4" />
    </linearGradient>
    <linearGradient
       id="linearGradient921"
       x1="23.723"
       x2="23.723"
       y1="46.261"
       y2="34.988"
       gradientUnits="userSpaceOnUse">
      <stop
         stop-color="#f9a800"
         offset="0"
         id="stop5" />
      <stop
         stop-color="#d0e689"
         offset="1"
         id="stop6"
         style="stop-color:#f7df95;stop-opacity:1;" />
    </linearGradient>
    <linearGradient
       id="linearGradient929"
       x1="40.333"
       x2="40.333"
       y1="46.834"
       y2="35.465"
       gradientUnits="userSpaceOnUse">
      <stop
         stop-color="#2567dc"
         offset="0"
         id="stop7" />
      <stop
         stop-color="#13c3e8"
         offset="1"
         id="stop8" />
    </linearGradient>
    <filter
       id="filter1057"
       x="-.027"
       y="-.027"
       width="1.054"
       height="1.054"
       color-interpolation-filters="sRGB">
      <feGaussianBlur
         stdDeviation="0.61875"
         id="feGaussianBlur8" />
    </filter>
    <linearGradient
       id="linearGradient1053"
       x1="-127"
       x2="-72"
       y1="60"
       y2="5"
       gradientTransform="matrix(1 0 0 1 131.5 -.51036)"
       gradientUnits="userSpaceOnUse">
      <stop
         stop-color="#dadde2"
         offset="0"
         id="stop9" />
      <stop
         stop-color="#f3f3f3"
         stop-opacity=".99608"
         offset="1"
         id="stop10" />
    </linearGradient>
    <radialGradient
       id="gradient_ds_br"
       cx="0"
       cy="0"
       r="1"
       gradientUnits="userSpaceOnUse"
       gradientTransform="matrix(13.998399,0.00477622,-0.00477841,14.004799,47.5016,48.4952)">
      <stop
         offset="0.65"
         id="stop11" />
      <stop
         offset="1"
         stop-opacity="0"
         id="stop12" />
    </radialGradient>
    <linearGradient
       id="gradient_ds_b"
       x1="30.448999"
       y1="48.5"
       x2="30.492201"
       y2="62.500301"
       gradientUnits="userSpaceOnUse">
      <stop
         offset="0.653846"
         id="stop13" />
      <stop
         offset="1"
         stop-opacity="0"
         id="stop14" />
    </linearGradient>
    <radialGradient
       id="gradient_ds_bl"
       cx="0"
       cy="0"
       r="1"
       gradientUnits="userSpaceOnUse"
       gradientTransform="matrix(0,14,-14,0,16.5,48.5)">
      <stop
         offset="0.65"
         id="stop15" />
      <stop
         offset="1"
         stop-opacity="0"
         id="stop16" />
    </radialGradient>
    <linearGradient
       id="gradient_ds_r"
       x1="47.5"
       y1="33.5"
       x2="61.5"
       y2="33.5009"
       gradientUnits="userSpaceOnUse">
      <stop
         offset="0.649038"
         id="stop17" />
      <stop
         offset="1"
         stop-opacity="0"
         id="stop18" />
    </linearGradient>
    <linearGradient
       id="gradient_ds_l"
       x1="16.5"
       y1="33.894699"
       x2="2.5"
       y2="33.894699"
       gradientUnits="userSpaceOnUse">
      <stop
         offset="0.649038"
         id="stop19" />
      <stop
         offset="1"
         stop-opacity="0"
         id="stop20" />
    </linearGradient>
    <radialGradient
       id="gradient_ds_tr"
       cx="0"
       cy="0"
       r="1"
       gradientTransform="matrix(0.00843236,-14,14.0084,0.0189842,47.4916,18.5)"
       gradientUnits="userSpaceOnUse">
      <stop
         offset="0.65"
         id="stop21" />
      <stop
         offset="1"
         stop-opacity="0"
         id="stop22" />
    </radialGradient>
    <linearGradient
       id="gradient_ds_t"
       x1="29.98"
       y1="18.5"
       x2="29.9158"
       y2="4.4998598"
       gradientUnits="userSpaceOnUse">
      <stop
         offset="0.649038"
         id="stop23" />
      <stop
         offset="1"
         stop-opacity="0"
         id="stop24" />
    </linearGradient>
    <radialGradient
       id="gradient_ds_tl"
       cx="0"
       cy="0"
       r="1"
       gradientTransform="matrix(-0.00843236,-14,-14.0084,0.0189842,16.5084,18.5)"
       gradientUnits="userSpaceOnUse">
      <stop
         offset="0.65"
         id="stop25" />
      <stop
         offset="1"
         stop-opacity="0"
         id="stop26" />
    </radialGradient>
  </defs>
  <g
     id="ds"
     opacity="0.25">
    <path
       id="ds-br"
       d="m 47.5,48.5 h 14 v 14 h -14 z"
       fill="url(#gradient_ds_br)"
       style="fill:url(#gradient_ds_br)" />
    <path
       id="ds-b"
       d="m 16.5,48.5 h 31 v 14 h -31 z"
       fill="url(#gradient_ds_b)"
       style="fill:url(#gradient_ds_b)" />
    <path
       id="ds-bl"
       d="m 2.5,48.5 h 14 v 14 h -14 z"
       fill="url(#gradient_ds_bl)"
       style="fill:url(#gradient_ds_bl)" />
    <path
       id="ds-r"
       d="m 47.5,18.5 h 14 v 30 h -14 z"
       fill="url(#gradient_ds_r)"
       style="fill:url(#gradient_ds_r)" />
    <path
       id="ds-l"
       d="m 2.5,18.5 h 14 v 30 h -14 z"
       fill="url(#gradient_ds_l)"
       style="fill:url(#gradient_ds_l)" />
    <path
       id="ds-tr"
       d="m 47.5,4.5 h 14 v 14 h -14 z"
       fill="url(#gradient_ds_tr)"
       style="fill:url(#gradient_ds_tr)" />
    <path
       id="ds-t"
       d="m 16.5,4.5 h 31 v 14 h -31 z"
       fill="url(#gradient_ds_t)"
       style="fill:url(#gradient_ds_t)" />
    <path
       id="ds-tl"
       d="m 16.5,4.5 h -14 v 14 h 14 z"
       fill="url(#gradient_ds_tl)"
       style="fill:url(#gradient_ds_tl)" />
  </g>
  <rect
     x="4.5"
     y="4.5"
     width="55"
     height="55"
     fill="url(#linearGradient1053)"
     stroke-linecap="round"
     stroke-width="2.7444"
     id="bg"
     rx="10" />
  <g
     transform="translate(6e-4 -1e-4)"
     id="art">
    <path
       d="m17.546 16h10.911c0.85226 0 1.5422 0.7826 1.5422 1.7444v10.517c0 0.9632-0.68852 1.7388-1.5422 1.7388h-10.911c-0.84666 0-1.5464-0.777-1.5464-1.7388v-10.517c0-0.9632 0.69412-1.7444 1.5464-1.7444"
       fill="url(#linearGradient905)"
       id="path26" />
    <path
       d="m35.546 16h10.911c0.85226 0 1.5422 0.7826 1.5422 1.7444v10.517c0 0.9632-0.68852 1.7388-1.5422 1.7388h-10.911c-0.84666 0-1.5464-0.777-1.5464-1.7388v-10.517c0-0.9632 0.69412-1.7444 1.5464-1.7444"
       fill="url(#linearGradient913)"
       id="path27" />
    <path
       d="m17.546 34h10.911c0.85226 0 1.5422 0.7826 1.5422 1.7444v10.517c0 0.9576-0.68852 1.7388-1.5422 1.7388h-10.911c-0.84666 0-1.5464-0.7826-1.5464-1.7388v-10.517c0-0.9632 0.69412-1.7444 1.5464-1.7444"
       fill="url(#linearGradient921)"
       id="path28" />
    <path
       d="m35.546 34h10.911c0.85226 0 1.5422 0.7826 1.5422 1.7444v10.517c0 0.9576-0.68852 1.7388-1.5422 1.7388h-10.911c-0.84666 0-1.5464-0.7826-1.5464-1.7388v-10.517c0-0.9632 0.69412-1.7444 1.5464-1.7444"
       fill="url(#linearGradient929)"
       id="path29" />
  </g>
</svg>
