<?xml version="1.0" encoding="UTF-8" standalone="no"?>
<svg
   width="64"
   height="64"
   viewBox="0 0 64 64"
   version="1.1"
   id="svg10"
   sodipodi:docname="docker.svg"
   inkscape:version="1.4.3 (0d15f75042, 2025-12-25)"
   xmlns:inkscape="http://www.inkscape.org/namespaces/inkscape"
   xmlns:sodipodi="http://sodipodi.sourceforge.net/DTD/sodipodi-0.dtd"
   xmlns="http://www.w3.org/2000/svg"
   xmlns:svg="http://www.w3.org/2000/svg">
  <sodipodi:namedview
     id="namedview18"
     pagecolor="#ffffff"
     bordercolor="#000000"
     borderopacity="0.25"
     inkscape:showpageshadow="2"
     inkscape:pageopacity="0.0"
     inkscape:pagecheckerboard="0"
     inkscape:deskcolor="#d1d1d1"
     inkscape:current-layer="svg10" />
  <defs
     id="defs10">
    <filter
       id="filter1057"
       x="-0.026999999"
       y="-0.026999999"
       width="1.054"
       height="1.054"
       color-interpolation-filters="sRGB">
      <feGaussianBlur
         stdDeviation="0.61875"
         id="feGaussianBlur1" />
    </filter>
    <linearGradient
       id="linearGradient1053"
       x1="-127"
       x2="-72"
       y1="60"
       y2="5"
       gradientTransform="matrix(1.0000071,0,0,1.0000071,131.49606,-0.51712472)"
       gradientUnits="userSpaceOnUse">
      <stop
         stop-color="#32d7ff"
         offset="0"
         id="stop1" />
      <stop
         stop-color="#329bff"
         offset="1"
         id="stop2" />
    </linearGradient>
    <filter
       id="filter871"
       x="-0.073931567"
       y="-0.050487008"
       width="1.1478631"
       height="1.100974"
       color-interpolation-filters="sRGB">
      <feGaussianBlur
         stdDeviation="0.12698534"
         id="feGaussianBlur2" />
    </filter>
    <filter
       id="filter1057-7"
       x="-0.026999999"
       y="-0.026999999"
       width="1.054"
       height="1.054"
       color-interpolation-filters="sRGB">
      <feGaussianBlur
         stdDeviation="0.61875"
         id="feGaussianBlur1-5" />
    </filter>
    <radialGradient
       id="gradient_ds_br"
       cx="0"
       cy="0"
       r="1"
       gradientUnits="userSpaceOnUse"
       gradientTransform="matrix(13.998399,0.00477622,-0.00477841,14.004799,47.5016,48.4952)">
      <stop
         offset="0.65"
         id="stop3" />
      <stop
         offset="1"
         stop-opacity="0"
         id="stop4" />
    </radialGradient>
    <linearGradient
       id="gradient_ds_b"
       x1="30.448999"
       y1="48.5"
       x2="30.492201"
       y2="62.500301"
       gradientUnits="userSpaceOnUse">
      <stop
         offset="0.653846"
         id="stop5" />
      <stop
         offset="1"
         stop-opacity="0"
         id="stop6" />
    </linearGradient>
    <radialGradient
       id="gradient_ds_bl"
       cx="0"
       cy="0"
       r="1"
       gradientUnits="userSpaceOnUse"
       gradientTransform="matrix(0,14,-14,0,16.5,48.5)">
      <stop
         offset="0.65"
         id="stop7" />
      <stop
         offset="1"
         stop-opacity="0"
         id="stop8" />
    </radialGradient>
    <linearGradient
       id="gradient_ds_r"
       x1="47.5"
       y1="33.5"
       x2="61.5"
       y2="33.5009"
       gradientUnits="userSpaceOnUse">
      <stop
         offset="0.649038"
         id="stop9" />
      <stop
         offset="1"
         stop-opacity="0"
         id="stop10" />
    </linearGradient>
    <linearGradient
       id="gradient_ds_l"
       x1="16.5"
       y1="33.894699"
       x2="2.5"
       y2="33.894699"
       gradientUnits="userSpaceOnUse">
      <stop
         offset="0.649038"
         id="stop11" />
      <stop
         offset="1"
         stop-opacity="0"
         id="stop12" />
    </linearGradient>
    <radialGradient
       id="gradient_ds_tr"
       cx="0"
       cy="0"
       r="1"
       gradientTransform="matrix(0.00843236,-14,14.0084,0.0189842,47.4916,18.5)"
       gradientUnits="userSpaceOnUse">
      <stop
         offset="0.65"
         id="stop13" />
      <stop
         offset="1"
         stop-opacity="0"
         id="stop14" />
    </radialGradient>
    <linearGradient
       id="gradient_ds_t"
       x1="29.98"
       y1="18.5"
       x2="29.9158"
       y2="4.4998598"
       gradientUnits="userSpaceOnUse">
      <stop
         offset="0.649038"
         id="stop15" />
      <stop
         offset="1"
         stop-opacity="0"
         id="stop16" />
    </linearGradient>
    <radialGradient
       id="gradient_ds_tl"
       cx="0"
       cy="0"
       r="1"
       gradientTransform="matrix(-0.00843236,-14,-14.0084,0.0189842,16.5084,18.5)"
       gradientUnits="userSpaceOnUse">
      <stop
         offset="0.65"
         id="stop17" />
      <stop
         offset="1"
         stop-opacity="0"
         id="stop18" />
    </radialGradient>
  </defs>
  <g
     id="ds"
     opacity="0.25">
    <path
       id="ds-br"
       d="m 47.5,48.5 h 14 v 14 h -14 z"
       fill="url(#gradient_ds_br)"
       style="fill:url(#gradient_ds_br)" />
    <path
       id="ds-b"
       d="m 16.5,48.5 h 31 v 14 h -31 z"
       fill="url(#gradient_ds_b)"
       style="fill:url(#gradient_ds_b)" />
    <path
       id="ds-bl"
       d="m 2.5,48.5 h 14 v 14 h -14 z"
       fill="url(#gradient_ds_bl)"
       style="fill:url(#gradient_ds_bl)" />
    <path
       id="ds-r"
       d="m 47.5,18.5 h 14 v 30 h -14 z"
       fill="url(#gradient_ds_r)"
       style="fill:url(#gradient_ds_r)" />
    <path
       id="ds-l"
       d="m 2.5,18.5 h 14 v 30 h -14 z"
       fill="url(#gradient_ds_l)"
       style="fill:url(#gradient_ds_l)" />
    <path
       id="ds-tr"
       d="m 47.5,4.5 h 14 v 14 h -14 z"
       fill="url(#gradient_ds_tr)"
       style="fill:url(#gradient_ds_tr)" />
    <path
       id="ds-t"
       d="m 16.5,4.5 h 31 v 14 h -31 z"
       fill="url(#gradient_ds_t)"
       style="fill:url(#gradient_ds_t)" />
    <path
       id="ds-tl"
       d="m 16.5,4.5 h -14 v 14 h 14 z"
       fill="url(#gradient_ds_tl)"
       style="fill:url(#gradient_ds_tl)" />
  </g>
  <rect
     x="4.5"
     y="4.5"
     width="55"
     height="55"
     fill="url(#linearGradient1053)"
     stroke-linecap="round"
     stroke-width="2.74441"
     id="bg"
     style="fill:url(#linearGradient1053)"
     rx="10" />
  <g
     fill="#ffffff"
     stroke-width="0.264"
     id="art"
     transform="scale(3.786213)">
    <path
       d="M 7.2,12.674 C 6.583,12.634 6.166,12.566 5.76,12.436 5.177,12.251 4.802,11.999 4.469,11.566 4.055,11.031 3.785,10.119 3.718,9.264 3.694,8.964 3.691,8.786 3.71,8.714 A 0.343,0.343 0 0 1 3.916,8.476 C 3.966,8.454 3.972,8.454 7.65,8.454 c 2.417,0 3.724,-0.004 3.8,-0.011 0.126,-0.012 0.324,-0.046 0.418,-0.072 0.131,-0.036 0.288,-0.097 0.288,-0.112 0,-0.004 -0.025,-0.053 -0.055,-0.109 -0.116,-0.216 -0.169,-0.3 -0.168,-0.564 0,-0.29 0.068,-0.556 0.214,-0.843 0.06,-0.118 0.207,-0.34 0.224,-0.34 0.018,0 0.197,0.108 0.28,0.167 0.331,0.24 0.59,0.686 0.655,1.05 0.014,0.077 0.015,0.08 0.043,0.074 a 3.08,3.08 0 0 1 0.726,-0.018 c 0.274,0.038 0.479,0.113 0.644,0.235 0.044,0.033 0.08,0.063 0.08,0.068 a 1.31,1.31 0 0 1 -0.37,0.6 c -0.306,0.296 -0.743,0.458 -1.235,0.46 h -0.107 l -0.025,0.062 c -0.48,1.176 -1.087,1.948 -1.913,2.545 -0.83,0.6 -1.893,0.949 -3.119,1.023 -0.14,0.009 -0.719,0.012 -0.83,0.005 z"
       id="path1" />
    <rect
       width="1.056"
       height="1.056"
       x="4.7540002"
       y="7.131"
       ry="0.211"
       id="rect2" />
    <rect
       width="1.056"
       height="1.056"
       x="6.0749998"
       y="7.131"
       ry="0.211"
       id="rect3" />
    <rect
       width="1.056"
       height="1.056"
       x="7.395"
       y="7.131"
       ry="0.211"
       id="rect4" />
    <rect
       width="1.056"
       height="1.056"
       x="8.7159996"
       y="7.131"
       ry="0.211"
       id="rect5" />
    <rect
       width="1.056"
       height="1.056"
       x="10.036"
       y="7.131"
       ry="0.211"
       id="rect6" />
    <rect
       width="1.056"
       height="1.056"
       x="6.0749998"
       y="5.8109999"
       ry="0.211"
       id="rect7" />
    <rect
       width="1.056"
       height="1.056"
       x="7.395"
       y="5.8109999"
       ry="0.211"
       id="rect8" />
    <rect
       width="1.056"
       height="1.056"
       x="8.7159996"
       y="5.8109999"
       ry="0.211"
       id="rect9" />
    <rect
       width="1.056"
       height="1.056"
       x="8.7159996"
       y="4.4899998"
       ry="0.211"
       id="rect10" />
  </g>
</svg>
