<?xml version="1.0" encoding="UTF-8" standalone="no"?>
<svg
   width="64"
   height="64"
   version="1.1"
   viewBox="0 0 64 64"
   id="svg16"
   sodipodi:docname="emacs.svg"
   inkscape:version="1.4.4 (dcaf3e7d9e, 2026-05-05)"
   xmlns:inkscape="http://www.inkscape.org/namespaces/inkscape"
   xmlns:sodipodi="http://sodipodi.sourceforge.net/DTD/sodipodi-0.dtd"
   xmlns:xlink="http://www.w3.org/1999/xlink"
   xmlns="http://www.w3.org/2000/svg"
   xmlns:svg="http://www.w3.org/2000/svg"
   xmlns:rdf="http://www.w3.org/1999/02/22-rdf-syntax-ns#"
   xmlns:cc="http://creativecommons.org/ns#"
   xmlns:dc="http://purl.org/dc/elements/1.1/">
  <sodipodi:namedview
     id="namedview27"
     pagecolor="#ffffff"
     bordercolor="#000000"
     borderopacity="0.25"
     inkscape:showpageshadow="2"
     inkscape:pageopacity="0.0"
     inkscape:pagecheckerboard="0"
     inkscape:deskcolor="#d1d1d1"
     inkscape:current-layer="art" />
  <metadata
     id="metadata20">
    <rdf:RDF>
      <cc:Work
         rdf:about="">
        <dc:format>image/svg+xml</dc:format>
        <dc:type
           rdf:resource="http://purl.org/dc/dcmitype/StillImage" />
      </cc:Work>
    </rdf:RDF>
  </metadata>
  <defs
     id="defs7">
    <linearGradient
       id="linearGradient904"
       x1="8.0618"
       x2="8.0618"
       y1="15.142"
       y2="1.4674"
       gradientUnits="userSpaceOnUse"
       gradientTransform="translate(0.71000061,-3.4026029)">
      <stop
         stop-color="#2567dc"
         offset="0"
         id="stop2" />
      <stop
         stop-color="#49b5fe"
         offset="1"
         id="stop4" />
    </linearGradient>
    <linearGradient
       id="e"
       x1="105.41"
       x2="105.41"
       y1="-101.99"
       y2="308.39999"
       gradientUnits="userSpaceOnUse">
      <stop
         stop-color="#fff"
         offset="0"
         id="stop845" />
      <stop
         stop-color="#dcdcdc"
         offset="1"
         id="stop847" />
    </linearGradient>
    <linearGradient
       id="linearGradient862-3"
       x1="7.9373002"
       x2="7.9373002"
       y1="15.081"
       y2="1.852"
       gradientTransform="scale(3.7796)"
       gradientUnits="userSpaceOnUse">
      <stop
         stop-color="#3581f6"
         offset="0"
         id="stop850" />
      <stop
         stop-color="#74defb"
         offset="1"
         id="stop852" />
    </linearGradient>
    <linearGradient
       id="b"
       x1="399.57001"
       x2="399.57001"
       y1="545.79999"
       y2="517.79999"
       gradientTransform="matrix(2.1429,0,0,2.1429,-826.36,-1107.5)"
       gradientUnits="userSpaceOnUse">
      <stop
         stop-color="#3581f6"
         offset="0"
         id="stop2-36" />
      <stop
         stop-color="#5a9eff"
         offset="1"
         id="stop4-7" />
    </linearGradient>
    <linearGradient
       id="a"
       x1="399.98999"
       x2="399.98999"
       y1="545.14001"
       y2="518.14001"
       gradientTransform="matrix(2.1429,0,0,2.1429,-826.36,-1107.5)"
       gradientUnits="userSpaceOnUse">
      <stop
         stop-color="#3581f6"
         offset="0"
         id="stop7" />
      <stop
         stop-color="#13c3e8"
         offset="1"
         id="stop9" />
    </linearGradient>
    <filter
       id="c"
       x="-0.035999998"
       y="-0.035999998"
       width="1.072"
       height="1.072"
       color-interpolation-filters="sRGB">
      <feGaussianBlur
         stdDeviation="0.41999874"
         id="feGaussianBlur12" />
    </filter>
    <filter
       id="d"
       x="-0.038118001"
       y="-0.034104999"
       width="1.0762"
       height="1.0682"
       color-interpolation-filters="sRGB">
      <feGaussianBlur
         stdDeviation="0.22736867"
         id="feGaussianBlur15" />
    </filter>
    <linearGradient
       gradientUnits="userSpaceOnUse"
       gradientTransform="matrix(0.91667,0,0,0.91667,0.70544,-16.228)"
       y2="0.56832188"
       y1="13.415262"
       x2="3.9686999"
       x1="3.9686999"
       id="linearGradient1448">
      <stop
         style="stop-color:#21a9fa;stop-opacity:1"
         id="stop2-3"
         offset="0"
         stop-color="#1f4eb8" />
      <stop
         style="stop-color:#205bcb;stop-opacity:1"
         id="stop4-6"
         offset="1"
         stop-color="#3cccef" />
    </linearGradient>
    <filter
       color-interpolation-filters="sRGB"
       height="1.054"
       width="1.054"
       y="-0.027000001"
       x="-0.027000001"
       id="filter861">
      <feGaussianBlur
         id="feGaussianBlur7"
         stdDeviation="0.16371" />
    </filter>
    <filter
       color-interpolation-filters="sRGB"
       height="1.048"
       width="1.048"
       y="-0.024"
       x="-0.024"
       id="filter2761">
      <feGaussianBlur
         id="feGaussianBlur6"
         stdDeviation="0.14552168" />
    </filter>
    <linearGradient
       gradientUnits="userSpaceOnUse"
       gradientTransform="matrix(3.7796,0,0,3.7796,110.07575,0.53066)"
       y2="1.1082"
       y1="15.429"
       x2="15.644"
       x1="1.2573"
       id="linearGradient4673">
      <stop
         id="stop9-36"
         offset="0"
         stop-color="#55d6f7" />
      <stop
         id="stop11"
         offset="1"
         stop-color="#408eff" />
    </linearGradient>
    <linearGradient
       gradientUnits="userSpaceOnUse"
       gradientTransform="matrix(1.0000066,0,0,1.0000066,19.187825,0)"
       y2="1.0583"
       y1="6.8790002"
       x2="7.9373002"
       x1="7.9373002"
       id="linearGradient865">
      <stop
         id="stop2-7"
         offset="0"
         stop-color="#fff" />
      <stop
         id="stop4-53"
         offset="1"
         stop-color="#fcc" />
    </linearGradient>
    <linearGradient
       gradientTransform="translate(19.187825)"
       gradientUnits="userSpaceOnUse"
       y2="3.9326999"
       y1="14.579"
       x2="12.314"
       x1="2.6278"
       id="linearGradient855">
      <stop
         id="stop7-5"
         offset="0"
         stop-color="#f056aa" />
      <stop
         id="stop9-3"
         offset=".15178"
         stop-color="#3ccdd8" />
      <stop
         id="stop11-6"
         offset=".33294"
         stop-color="#0aa5b1" />
      <stop
         id="stop13"
         offset=".53353"
         stop-color="#4dd169" />
      <stop
         id="stop15"
         offset=".71019"
         stop-color="#bed859" />
      <stop
         id="stop17"
         offset=".8623"
         stop-color="#f7ce43" />
      <stop
         id="stop19"
         offset="1"
         stop-color="#fb8922" />
    </linearGradient>
    <linearGradient
       gradientUnits="userSpaceOnUse"
       gradientTransform="matrix(0.26458,0,0,0.26458,19.187825,0)"
       y2="6.9914999"
       y1="19"
       x2="57.007999"
       x1="45"
       id="linearGradient910">
      <stop
         id="stop22"
         offset="0"
         stop-color="#fff" />
      <stop
         id="stop24"
         offset="1"
         stop-color="#f7ddc8" />
    </linearGradient>
    <filter
       id="filter2761-7"
       x="-0.024"
       y="-0.024"
       width="1.048"
       height="1.048"
       color-interpolation-filters="sRGB">
      <feGaussianBlur
         stdDeviation="0.14552168"
         id="feGaussianBlur874" />
    </filter>
    <filter
       color-interpolation-filters="sRGB"
       height="1.048"
       width="1.048"
       y="-0.024"
       x="-0.024"
       id="filter2761-36">
      <feGaussianBlur
         id="feGaussianBlur10"
         stdDeviation="0.14552168" />
    </filter>
    <linearGradient
       gradientUnits="userSpaceOnUse"
       gradientTransform="matrix(3.7796,0,0,3.7796,111.78704,0.53107)"
       y2="1.17"
       y1="15.576"
       x2="15.65"
       x1="1.3315001"
       id="linearGradient1024-6">
      <stop
         id="stop13-7"
         offset="0"
         stop-color="#25d39d" />
      <stop
         id="stop15-5"
         offset="1"
         stop-color="#25d39d" />
    </linearGradient>
    <linearGradient
       gradientUnits="userSpaceOnUse"
       gradientTransform="matrix(0.27476,0,0,0.27476,-24.952118,-0.32515)"
       y2="12.461"
       y1="57.955002"
       x2="45.627998"
       x1="45.627998"
       id="b-6">
      <stop
         id="stop2-3-2"
         offset="0" />
      <stop
         id="stop4-5"
         offset="1"
         stop-opacity="0" />
    </linearGradient>
    <filter
       id="filter2761-3"
       x="-0.024"
       y="-0.024"
       width="1.048"
       height="1.048"
       color-interpolation-filters="sRGB">
      <feGaussianBlur
         stdDeviation="0.14552168"
         id="feGaussianBlur878" />
    </filter>
    <linearGradient
       id="linearGradient1024-6-6"
       x1="1.3315001"
       x2="15.65"
       y1="15.576"
       y2="1.17"
       gradientTransform="matrix(3.7796,0,0,3.7796,-0.0020773,0.53047)"
       gradientUnits="userSpaceOnUse">
      <stop
         stop-color="#25d39d"
         offset="0"
         id="stop881" />
      <stop
         stop-color="#25d39d"
         offset="1"
         id="stop883" />
    </linearGradient>
    <linearGradient
       inkscape:collect="always"
       xlink:href="#linearGradient1051"
       id="linearGradient1053"
       x1="-127"
       y1="60"
       x2="-72"
       y2="5"
       gradientUnits="userSpaceOnUse"
       gradientTransform="translate(131.5,-0.50999837)" />
    <linearGradient
       inkscape:collect="always"
       id="linearGradient1051">
      <stop
         style="stop-color:#6f2cb5;stop-opacity:1;"
         offset="0"
         id="stop1047" />
      <stop
         style="stop-color:#858af4;stop-opacity:1;"
         offset="1"
         id="stop1049" />
    </linearGradient>
    <radialGradient
       id="gradient_ds_br"
       cx="0"
       cy="0"
       r="1"
       gradientUnits="userSpaceOnUse"
       gradientTransform="matrix(13.998399,0.00477622,-0.00477841,14.004799,47.5016,48.4952)">
      <stop
         offset="0.65"
         id="stop1" />
      <stop
         offset="1"
         stop-opacity="0"
         id="stop3" />
    </radialGradient>
    <linearGradient
       id="gradient_ds_b"
       x1="30.448999"
       y1="48.5"
       x2="30.492201"
       y2="62.500301"
       gradientUnits="userSpaceOnUse">
      <stop
         offset="0.653846"
         id="stop5" />
      <stop
         offset="1"
         stop-opacity="0"
         id="stop6" />
    </linearGradient>
    <radialGradient
       id="gradient_ds_bl"
       cx="0"
       cy="0"
       r="1"
       gradientUnits="userSpaceOnUse"
       gradientTransform="matrix(0,14,-14,0,16.5,48.5)">
      <stop
         offset="0.65"
         id="stop8" />
      <stop
         offset="1"
         stop-opacity="0"
         id="stop10" />
    </radialGradient>
    <linearGradient
       id="gradient_ds_r"
       x1="47.5"
       y1="33.5"
       x2="61.5"
       y2="33.5009"
       gradientUnits="userSpaceOnUse">
      <stop
         offset="0.649038"
         id="stop12" />
      <stop
         offset="1"
         stop-opacity="0"
         id="stop14" />
    </linearGradient>
    <linearGradient
       id="gradient_ds_l"
       x1="16.5"
       y1="33.894699"
       x2="2.5"
       y2="33.894699"
       gradientUnits="userSpaceOnUse">
      <stop
         offset="0.649038"
         id="stop16" />
      <stop
         offset="1"
         stop-opacity="0"
         id="stop18" />
    </linearGradient>
    <radialGradient
       id="gradient_ds_tr"
       cx="0"
       cy="0"
       r="1"
       gradientTransform="matrix(0.00843236,-14,14.0084,0.0189842,47.4916,18.5)"
       gradientUnits="userSpaceOnUse">
      <stop
         offset="0.65"
         id="stop20" />
      <stop
         offset="1"
         stop-opacity="0"
         id="stop21" />
    </radialGradient>
    <linearGradient
       id="gradient_ds_t"
       x1="29.98"
       y1="18.5"
       x2="29.9158"
       y2="4.4998598"
       gradientUnits="userSpaceOnUse">
      <stop
         offset="0.649038"
         id="stop23" />
      <stop
         offset="1"
         stop-opacity="0"
         id="stop25" />
    </linearGradient>
    <radialGradient
       id="gradient_ds_tl"
       cx="0"
       cy="0"
       r="1"
       gradientTransform="matrix(-0.00843236,-14,-14.0084,0.0189842,16.5084,18.5)"
       gradientUnits="userSpaceOnUse">
      <stop
         offset="0.65"
         id="stop26" />
      <stop
         offset="1"
         stop-opacity="0"
         id="stop27" />
    </radialGradient>
    <filter
       inkscape:collect="always"
       style="color-interpolation-filters:sRGB"
       id="filter1"
       x="-0.029984637"
       y="-0.024555748"
       width="1.0599693"
       height="1.0491115">
      <feGaussianBlur
         inkscape:collect="always"
         stdDeviation="0.45018873"
         id="feGaussianBlur1" />
    </filter>
  </defs>
  <g
     id="ds"
     opacity="0.25">
    <path
       id="ds-br"
       d="m 47.5,48.5 h 14 v 14 h -14 z"
       fill="url(#gradient_ds_br)"
       style="fill:url(#gradient_ds_br)" />
    <path
       id="ds-b"
       d="m 16.5,48.5 h 31 v 14 h -31 z"
       fill="url(#gradient_ds_b)"
       style="fill:url(#gradient_ds_b)" />
    <path
       id="ds-bl"
       d="m 2.5,48.5 h 14 v 14 h -14 z"
       fill="url(#gradient_ds_bl)"
       style="fill:url(#gradient_ds_bl)" />
    <path
       id="ds-r"
       d="m 47.5,18.5 h 14 v 30 h -14 z"
       fill="url(#gradient_ds_r)"
       style="fill:url(#gradient_ds_r)" />
    <path
       id="ds-l"
       d="m 2.5,18.5 h 14 v 30 h -14 z"
       fill="url(#gradient_ds_l)"
       style="fill:url(#gradient_ds_l)" />
    <path
       id="ds-tr"
       d="m 47.5,4.5 h 14 v 14 h -14 z"
       fill="url(#gradient_ds_tr)"
       style="fill:url(#gradient_ds_tr)" />
    <path
       id="ds-t"
       d="m 16.5,4.5 h 31 v 14 h -31 z"
       fill="url(#gradient_ds_t)"
       style="fill:url(#gradient_ds_t)" />
    <path
       id="ds-tl"
       d="m 16.5,4.5 h -14 v 14 h 14 z"
       fill="url(#gradient_ds_tl)"
       style="fill:url(#gradient_ds_tl)" />
  </g>
  <rect
     style="fill:url(#linearGradient1053);fill-opacity:1;stroke-width:2.74436;stroke-linecap:round"
     id="bg"
     width="55"
     height="55"
     x="4.5"
     y="4.5"
     rx="10" />
  <g
     id="art">
    <path
       id="path44_12_-6"
       d="m 24.039431,54.999182 c 0,0 2.43865,0.03898 5.541466,-0.420689 1.255782,-0.190934 6.019582,-0.953113 9.551402,-1.966772 0,0 4.307616,-1.221636 6.581889,-2.246156 2.382784,-1.069525 3.660288,-1.938812 4.177224,-3.090603 0.186257,-0.386546 0.40827,-1.61281 -1.302345,-2.140607 -2.710294,-0.796322 -6.05856,-0.425316 -12.699172,0.232874 -7.3687,0.159856 -9.903754,-0.97016 -11.278857,-1.91553 -1.32412,-0.967094 -0.901872,-3.871386 4.267235,-6.704535 2.598509,-1.501075 12.986562,-4.591679 12.986562,-4.591679 -3.688248,-1.61125 -10.553887,-4.420908 -11.966407,-5.032533 -1.240295,-0.533982 -3.219434,-1.334982 -3.713089,-2.410691 -0.546403,-1.030703 0.970159,-2.03194 1.831704,-2.343963 2.784815,-1.00742 6.76326,-1.764974 10.415649,-2.035058 1.836379,-0.131944 2.126628,-0.274756 2.126628,-0.274756 2.503819,-0.578987 4.043716,-2.46505 3.144962,-5.259274 -0.835143,-2.856222 -4.247071,-4.369667 -7.337519,-3.599744 -2.904346,0.723358 -9.855421,3.258256 -9.855421,3.258256 8.774984,-0.582107 10.252985,-0.513808 10.977954,0.394279 0.428433,0.535541 -0.07917,1.336541 -2.392085,1.864288 -2.520918,0.577428 -7.780296,1.397032 -7.780296,1.397032 -5.062,0.602272 -8.639866,0.830469 -9.546726,3.238092 -0.588342,1.572482 0.956231,2.843803 1.654749,3.655664 2.905904,2.926068 6.904616,4.3666 9.490598,5.445323 0.973278,0.406699 3.79068,1.119207 3.79068,1.119207 -8.132647,0.0046 -13.790523,2.904346 -17.005334,6.055442 -3.610604,3.924186 -1.577106,8.233465 6.556943,10.493602 4.624264,1.106786 7.285031,1.415689 14.136638,0.90499 4.104261,-0.465643 4.763957,-0.364823 4.829178,-0.01871 0.09469,0.487419 -4.453493,1.972956 -5.692177,2.423113 -3.149588,1.140929 -11.449835,3.557857 -11.491409,3.568718 z"
       fill="#ffffff"
       stroke-width="1.12893"
       style="fill:#000000;fill-opacity:1;filter:url(#filter1);opacity:0.15" />
    <path
       id="path44_12_"
       d="m 24.039431,53.999181 c 0,0 2.43865,0.03898 5.541466,-0.420689 1.255782,-0.190934 6.019582,-0.953113 9.551402,-1.966772 0,0 4.307616,-1.221636 6.581889,-2.246156 2.382784,-1.069525 3.660288,-1.938812 4.177224,-3.090603 0.186257,-0.386546 0.40827,-1.61281 -1.302345,-2.140607 -2.710294,-0.796322 -6.05856,-0.425316 -12.699172,0.232874 -7.3687,0.159856 -9.903754,-0.97016 -11.278857,-1.91553 -1.32412,-0.967094 -0.901872,-3.871386 4.267235,-6.704535 2.598509,-1.501075 12.986562,-4.591679 12.986562,-4.591679 -3.688248,-1.61125 -10.553887,-4.420908 -11.966407,-5.032533 -1.240295,-0.533982 -3.219434,-1.334982 -3.713089,-2.410691 -0.546403,-1.030703 0.970159,-2.03194 1.831704,-2.343963 2.784815,-1.00742 6.76326,-1.764974 10.415649,-2.035058 1.836379,-0.131944 2.126628,-0.274756 2.126628,-0.274756 2.503819,-0.578987 4.043716,-2.46505 3.144962,-5.259274 -0.835143,-2.856222 -4.247071,-4.3696667 -7.337519,-3.599744 -2.904346,0.723358 -9.855421,3.258256 -9.855421,3.258256 8.774984,-0.582107 10.252985,-0.513808 10.977954,0.394279 0.428433,0.535541 -0.07917,1.336541 -2.392085,1.864288 -2.520918,0.577428 -7.780296,1.397032 -7.780296,1.397032 -5.062,0.602272 -8.639866,0.830469 -9.546726,3.238092 -0.588342,1.572482 0.956231,2.843803 1.654749,3.655664 2.905904,2.926068 6.904616,4.3666 9.490598,5.445323 0.973278,0.406699 3.79068,1.119207 3.79068,1.119207 -8.132647,0.0046 -13.790523,2.904346 -17.005334,6.055442 -3.610604,3.924186 -1.577106,8.233465 6.556943,10.493602 4.624264,1.106786 7.285031,1.415689 14.136638,0.90499 4.104261,-0.465643 4.763957,-0.364823 4.829178,-0.01871 0.09469,0.487419 -4.453493,1.972956 -5.692177,2.423113 -3.149588,1.140929 -11.449835,3.557857 -11.491409,3.568718 z"
       fill="#ffffff"
       stroke-width="1.12893" />
  </g>
</svg>
