<?xml version="1.0" encoding="UTF-8" standalone="no"?>
<svg
   width="64"
   height="64"
   version="1.1"
   viewBox="0 0 64 64"
   id="svg34"
   sodipodi:docname="github-desktop.svg"
   inkscape:version="1.4.4 (dcaf3e7d9e, 2026-05-05)"
   xmlns:inkscape="http://www.inkscape.org/namespaces/inkscape"
   xmlns:sodipodi="http://sodipodi.sourceforge.net/DTD/sodipodi-0.dtd"
   xmlns:xlink="http://www.w3.org/1999/xlink"
   xmlns="http://www.w3.org/2000/svg"
   xmlns:svg="http://www.w3.org/2000/svg"
   xmlns:rdf="http://www.w3.org/1999/02/22-rdf-syntax-ns#"
   xmlns:cc="http://creativecommons.org/ns#"
   xmlns:dc="http://purl.org/dc/elements/1.1/">
  <sodipodi:namedview
     id="namedview18"
     pagecolor="#ffffff"
     bordercolor="#000000"
     borderopacity="0.25"
     inkscape:showpageshadow="2"
     inkscape:pageopacity="0.0"
     inkscape:pagecheckerboard="0"
     inkscape:deskcolor="#d1d1d1"
     inkscape:current-layer="svg34" />
  <defs
     id="defs12">
    <linearGradient
       id="linearGradient32"
       x1="-127"
       x2="-72"
       y1="60"
       y2="5"
       gradientTransform="translate(131.5,-0.51000007)"
       gradientUnits="userSpaceOnUse"
       spreadMethod="pad">
      <stop
         stop-color="#55d6f7"
         offset="0"
         id="stop31"
         style="stop-color:#49227b;stop-opacity:1;" />
      <stop
         stop-color="#408eff"
         offset="1"
         id="stop32"
         style="stop-color:#ad33b9;stop-opacity:1;" />
    </linearGradient>
    <linearGradient
       id="linearGradient30"
       x1="-127"
       x2="-72"
       y1="60"
       y2="5"
       gradientTransform="translate(131.5,-0.51000007)"
       gradientUnits="userSpaceOnUse"
       spreadMethod="pad">
      <stop
         stop-color="#55d6f7"
         offset="0"
         id="stop29"
         style="stop-color:#592294;stop-opacity:1;" />
      <stop
         stop-color="#408eff"
         offset="1"
         id="stop30"
         style="stop-color:#882293;stop-opacity:1;" />
    </linearGradient>
    <linearGradient
       id="linearGradient28"
       x1="-127"
       x2="-72"
       y1="60"
       y2="5"
       gradientTransform="translate(131.5,-0.51000007)"
       gradientUnits="userSpaceOnUse"
       spreadMethod="pad">
      <stop
         stop-color="#55d6f7"
         offset="0"
         id="stop27"
         style="stop-color:#592294;stop-opacity:1;" />
      <stop
         stop-color="#408eff"
         offset="1"
         id="stop28"
         style="stop-color:#ad33b9;stop-opacity:1;" />
    </linearGradient>
    <linearGradient
       id="linearGradient26"
       x1="-127"
       x2="-72"
       y1="60"
       y2="5"
       gradientTransform="translate(131.5,-0.51000007)"
       gradientUnits="userSpaceOnUse"
       spreadMethod="pad">
      <stop
         stop-color="#55d6f7"
         offset="0"
         id="stop25"
         style="stop-color:#592294;stop-opacity:1;" />
      <stop
         stop-color="#408eff"
         offset="1"
         id="stop26"
         style="stop-color:#a43fad;stop-opacity:1;" />
    </linearGradient>
    <linearGradient
       id="linearGradient24"
       x1="-127"
       x2="-72"
       y1="60"
       y2="5"
       gradientTransform="translate(131.5,-0.51000007)"
       gradientUnits="userSpaceOnUse"
       spreadMethod="pad">
      <stop
         stop-color="#55d6f7"
         offset="0"
         id="stop23"
         style="stop-color:#592294;stop-opacity:1;" />
      <stop
         stop-color="#408eff"
         offset="1"
         id="stop24"
         style="stop-color:#ad33b9;stop-opacity:1;" />
    </linearGradient>
    <linearGradient
       id="linearGradient22"
       x1="-127"
       x2="-72"
       y1="60"
       y2="5"
       gradientTransform="translate(131.5,-0.51000007)"
       gradientUnits="userSpaceOnUse"
       spreadMethod="pad">
      <stop
         stop-color="#55d6f7"
         offset="0"
         id="stop21"
         style="stop-color:#592b8b;stop-opacity:1;" />
      <stop
         stop-color="#408eff"
         offset="1"
         id="stop22"
         style="stop-color:#ad33b9;stop-opacity:1;" />
    </linearGradient>
    <linearGradient
       id="linearGradient20"
       x1="-127"
       x2="-72"
       y1="60"
       y2="5"
       gradientTransform="translate(131.5,-0.51000007)"
       gradientUnits="userSpaceOnUse">
      <stop
         stop-color="#55d6f7"
         offset="0"
         id="stop19"
         style="stop-color:#592b8b;stop-opacity:1;" />
      <stop
         stop-color="#408eff"
         offset="1"
         id="stop20"
         style="stop-color:#ad33b9;stop-opacity:1;" />
    </linearGradient>
    <filter
       id="filter2761-3"
       x="-0.024"
       y="-0.024"
       width="1.048"
       height="1.048"
       color-interpolation-filters="sRGB">
      <feGaussianBlur
         stdDeviation="0.14552168"
         id="feGaussianBlur4" />
    </filter>
    <linearGradient
       id="linearGradient4673"
       x1="1.2573"
       x2="15.644"
       y1="15.429"
       y2="1.1082"
       gradientTransform="translate(-7e-4,0.21485)"
       gradientUnits="userSpaceOnUse">
      <stop
         stop-color="#55d6f7"
         offset="0"
         id="stop7" />
      <stop
         stop-color="#408eff"
         offset="1"
         id="stop9" />
    </linearGradient>
    <filter
       id="filter1057"
       x="-0.026999999"
       y="-0.026999999"
       width="1.054"
       height="1.054"
       color-interpolation-filters="sRGB">
      <feGaussianBlur
         stdDeviation="0.61875"
         id="feGaussianBlur865" />
    </filter>
    <linearGradient
       id="linearGradient1053"
       x1="-127"
       x2="-72"
       y1="60"
       y2="5"
       gradientTransform="translate(131.5,-0.51000007)"
       gradientUnits="userSpaceOnUse"
       xlink:href="#linearGradient32">
      <stop
         stop-color="#55d6f7"
         offset="0"
         id="stop868"
         style="stop-color:#592294;stop-opacity:1;" />
      <stop
         stop-color="#408eff"
         offset="1"
         id="stop870"
         style="stop-color:#ad33b9;stop-opacity:1;" />
    </linearGradient>
    <filter
       id="filter1057-7"
       x="-0.026999999"
       y="-0.026999999"
       width="1.054"
       height="1.054"
       color-interpolation-filters="sRGB">
      <feGaussianBlur
         stdDeviation="0.61875"
         id="feGaussianBlur865-5" />
    </filter>
    <radialGradient
       id="gradient_ds_br"
       cx="0"
       cy="0"
       r="1"
       gradientUnits="userSpaceOnUse"
       gradientTransform="matrix(13.998399,0.00477622,-0.00477841,14.004799,47.5016,48.4952)">
      <stop
         offset="0.65"
         id="stop1" />
      <stop
         offset="1"
         stop-opacity="0"
         id="stop2" />
    </radialGradient>
    <linearGradient
       id="gradient_ds_b"
       x1="30.448999"
       y1="48.5"
       x2="30.492201"
       y2="62.500301"
       gradientUnits="userSpaceOnUse">
      <stop
         offset="0.653846"
         id="stop3" />
      <stop
         offset="1"
         stop-opacity="0"
         id="stop4" />
    </linearGradient>
    <radialGradient
       id="gradient_ds_bl"
       cx="0"
       cy="0"
       r="1"
       gradientUnits="userSpaceOnUse"
       gradientTransform="matrix(0,14,-14,0,16.5,48.5)">
      <stop
         offset="0.65"
         id="stop5" />
      <stop
         offset="1"
         stop-opacity="0"
         id="stop6" />
    </radialGradient>
    <linearGradient
       id="gradient_ds_r"
       x1="47.5"
       y1="33.5"
       x2="61.5"
       y2="33.5009"
       gradientUnits="userSpaceOnUse">
      <stop
         offset="0.649038"
         id="stop8" />
      <stop
         offset="1"
         stop-opacity="0"
         id="stop10" />
    </linearGradient>
    <linearGradient
       id="gradient_ds_l"
       x1="16.5"
       y1="33.894699"
       x2="2.5"
       y2="33.894699"
       gradientUnits="userSpaceOnUse">
      <stop
         offset="0.649038"
         id="stop11" />
      <stop
         offset="1"
         stop-opacity="0"
         id="stop12" />
    </linearGradient>
    <radialGradient
       id="gradient_ds_tr"
       cx="0"
       cy="0"
       r="1"
       gradientTransform="matrix(0.00843236,-14,14.0084,0.0189842,47.4916,18.5)"
       gradientUnits="userSpaceOnUse">
      <stop
         offset="0.65"
         id="stop13" />
      <stop
         offset="1"
         stop-opacity="0"
         id="stop14" />
    </radialGradient>
    <linearGradient
       id="gradient_ds_t"
       x1="29.98"
       y1="18.5"
       x2="29.9158"
       y2="4.4998598"
       gradientUnits="userSpaceOnUse">
      <stop
         offset="0.649038"
         id="stop15" />
      <stop
         offset="1"
         stop-opacity="0"
         id="stop16" />
    </linearGradient>
    <radialGradient
       id="gradient_ds_tl"
       cx="0"
       cy="0"
       r="1"
       gradientTransform="matrix(-0.00843236,-14,-14.0084,0.0189842,16.5084,18.5)"
       gradientUnits="userSpaceOnUse">
      <stop
         offset="0.65"
         id="stop17" />
      <stop
         offset="1"
         stop-opacity="0"
         id="stop18" />
    </radialGradient>
    <filter
       inkscape:collect="always"
       style="color-interpolation-filters:sRGB"
       id="filter1"
       x="-0.029249183"
       y="-0.025072029"
       width="1.0584984"
       height="1.0501441">
      <feGaussianBlur
         inkscape:collect="always"
         stdDeviation="0.47008487"
         id="feGaussianBlur1" />
    </filter>
    <clipPath
       clipPathUnits="userSpaceOnUse"
       id="clipPath1">
      <rect
         x="4.5"
         y="4.5"
         width="55"
         height="55"
         fill="url(#linearGradient1053)"
         stroke-linecap="round"
         stroke-width="2.7444"
         id="rect1"
         style="fill:url(#linearGradient2)"
         rx="10"
         ry="10" />
    </clipPath>
    <linearGradient
       inkscape:collect="always"
       xlink:href="#linearGradient1053"
       id="linearGradient2"
       gradientUnits="userSpaceOnUse"
       gradientTransform="translate(131.5,-0.51000007)"
       x1="-127"
       y1="60"
       x2="-72"
       y2="5" />
  </defs>
  <metadata
     id="metadata14">
    <rdf:RDF>
      <cc:Work
         rdf:about="">
        <dc:format>image/svg+xml</dc:format>
        <dc:type
           rdf:resource="http://purl.org/dc/dcmitype/StillImage" />
      </cc:Work>
    </rdf:RDF>
  </metadata>
  <g
     id="ds"
     opacity="0.25">
    <path
       id="ds-br"
       d="m 47.5,48.5 h 14 v 14 h -14 z"
       fill="url(#gradient_ds_br)"
       style="fill:url(#gradient_ds_br)" />
    <path
       id="ds-b"
       d="m 16.5,48.5 h 31 v 14 h -31 z"
       fill="url(#gradient_ds_b)"
       style="fill:url(#gradient_ds_b)" />
    <path
       id="ds-bl"
       d="m 2.5,48.5 h 14 v 14 h -14 z"
       fill="url(#gradient_ds_bl)"
       style="fill:url(#gradient_ds_bl)" />
    <path
       id="ds-r"
       d="m 47.5,18.5 h 14 v 30 h -14 z"
       fill="url(#gradient_ds_r)"
       style="fill:url(#gradient_ds_r)" />
    <path
       id="ds-l"
       d="m 2.5,18.5 h 14 v 30 h -14 z"
       fill="url(#gradient_ds_l)"
       style="fill:url(#gradient_ds_l)" />
    <path
       id="ds-tr"
       d="m 47.5,4.5 h 14 v 14 h -14 z"
       fill="url(#gradient_ds_tr)"
       style="fill:url(#gradient_ds_tr)" />
    <path
       id="ds-t"
       d="m 16.5,4.5 h 31 v 14 h -31 z"
       fill="url(#gradient_ds_t)"
       style="fill:url(#gradient_ds_t)" />
    <path
       id="ds-tl"
       d="m 16.5,4.5 h -14 v 14 h 14 z"
       fill="url(#gradient_ds_tl)"
       style="fill:url(#gradient_ds_tl)" />
  </g>
  <rect
     x="4.5"
     y="4.5"
     width="55"
     height="55"
     fill="url(#linearGradient1053)"
     stroke-linecap="round"
     stroke-width="2.7444"
     id="bg"
     style="fill:url(#linearGradient1053)"
     rx="10" />
  <g
     id="art">
    <path
       d="m 47.883778,15.504531 c -0.913001,-0.04264 -3.485587,0.2623 -7.506668,3.059512 -2.249392,-0.678288 -4.817103,-0.929367 -7.493817,-0.922866 -2.448804,0.0059 -4.98794,0.206552 -7.456399,0.922866 -4.022252,-2.797095 -6.077977,-3.100483 -6.991885,-3.057396 -0.304712,0.01436 -0.452003,0.06069 -0.452003,0.06069 -1.529113,3.966693 -0.561649,6.901176 -0.272056,7.629883 -1.796293,2.013394 -2.850197,4.584657 -2.850197,7.73042 0,11.043997 7.15592,13.518124 13.391129,14.244942 -0.801615,0.72009 -1.306003,2.208988 -1.561202,4.070253 -1.599679,0.737778 -5.891266,2.543408 -8.396008,-1.860396 0,0 -1.481906,-2.768293 -4.300431,-2.971598 0,0 -2.740098,-0.03553 -0.190454,1.751619 0,0 1.84059,0.886883 3.118096,4.216901 0,0 1.897096,5.068447 9.707908,3.327411 0.0079,1.35219 0.01436,4.348054 0.02079,6.786653 2.064306,0.0072 3.52429,0.006 5.353051,0.006 2.980707,0 5.311852,-0.0049 8.567602,-0.0049 0.0079,-2.973299 0.01663,-7.718703 0.01663,-10.006874 0,-2.6876 -1.11109,-4.446324 -2.117787,-5.33642 6.254108,-0.713022 12.820032,-3.151886 12.820032,-14.224154 0,-3.145688 -0.874826,-5.718916 -2.674484,-7.732688 0.287892,-0.728972 1.254185,-3.661187 -0.27833,-7.627993 0,0 -0.147669,-0.04857 -0.45204,-0.06278 z"
       fill="#ffffff"
       stroke-width="1.00001"
       id="path20-5"
       style="display:inline;opacity:0.2;fill:#000000;fill-opacity:1;filter:url(#filter1)"
       clip-path="url(#clipPath1)" />
    <path
       d="m 47.883778,14.504979 c -0.913001,-0.04264 -3.485587,0.2623 -7.506668,3.059512 -2.249392,-0.678288 -4.817103,-0.929367 -7.493817,-0.922866 -2.448804,0.0059 -4.98794,0.206552 -7.456399,0.922866 -4.022252,-2.797095 -6.077977,-3.100483 -6.991885,-3.057396 -0.304712,0.01436 -0.452003,0.06069 -0.452003,0.06069 -1.529113,3.966693 -0.561649,6.901176 -0.272056,7.629883 -1.796293,2.013394 -2.850197,4.584657 -2.850197,7.73042 0,11.043997 7.15592,13.518124 13.391129,14.244942 -0.801615,0.72009 -1.306003,2.208988 -1.561202,4.070253 -1.599679,0.737778 -5.891266,2.543408 -8.396008,-1.860396 0,0 -1.481906,-2.768293 -4.300431,-2.971598 0,0 -2.740098,-0.03553 -0.190454,1.751619 0,0 1.84059,0.886883 3.118096,4.216901 0,0 1.897096,5.068447 9.707908,3.327411 0.0079,1.35219 0.01436,4.348054 0.02079,6.786653 2.064306,0.0072 3.52429,0.006 5.353051,0.006 2.980707,0 5.311852,-0.0049 8.567602,-0.0049 0.0079,-2.973299 0.01663,-7.718703 0.01663,-10.006874 0,-2.6876 -1.11109,-4.446324 -2.117787,-5.33642 6.254108,-0.713022 12.820032,-3.151886 12.820032,-14.224154 0,-3.145688 -0.874826,-5.718916 -2.674484,-7.732688 0.287892,-0.728972 1.254185,-3.661187 -0.27833,-7.627993 0,0 -0.147669,-0.04857 -0.45204,-0.06278 z"
       fill="#ffffff"
       stroke-width="1.00001"
       id="path20" />
  </g>
</svg>
