<?xml version="1.0" encoding="UTF-8" standalone="no"?>
<!-- Created with Inkscape (http://www.inkscape.org/) -->
<svg xmlns:inkscape="http://www.inkscape.org/namespaces/inkscape" xmlns:sodipodi="http://sodipodi.sourceforge.net/DTD/sodipodi-0.dtd" xmlns="http://www.w3.org/2000/svg" xmlns:svg="http://www.w3.org/2000/svg" width="64" height="64" version="1.1" viewBox="0 0 64 64" id="svg5" sodipodi:docname="regextester.svg" inkscape:version="1.4.2 (ebf0e940d0, 2025-05-08)">
  <defs id="defs2">
    <filter id="filter1057" x="-0.026999999" y="-0.026999999" width="1.054" height="1.054" color-interpolation-filters="sRGB">
      <feGaussianBlur stdDeviation="0.61875" id="feGaussianBlur1"/>
    </filter>
    <linearGradient id="linearGradient1053" x1="-127" x2="-72" y1="60" y2="5" gradientTransform="matrix(1.0000071,0,0,1.0000071,131.50369,-0.50986831)" gradientUnits="userSpaceOnUse">
      <stop stop-color="#02db96" offset="0" id="stop1"/>
      <stop stop-color="#13d39b" offset="1" id="stop2"/>
    </linearGradient>
    <filter id="filter890" x="-0.08855965" y="-0.13837472" width="1.1771193" height="1.2767494" color-interpolation-filters="sRGB">
      <feGaussianBlur stdDeviation="0.32049257" id="feGaussianBlur2"/>
    </filter>
    <filter id="filter890-6" x="-0.088559647" y="-0.13837472" width="1.1771193" height="1.2767494" color-interpolation-filters="sRGB">
      <feGaussianBlur stdDeviation="0.32049257" id="feGaussianBlur2-0"/>
    </filter>
    <filter id="filter1057-6" x="-0.026999999" y="-0.026999999" width="1.054" height="1.054" color-interpolation-filters="sRGB">
      <feGaussianBlur stdDeviation="0.61875" id="feGaussianBlur1-1"/>
    </filter>
  <radialGradient id="gradient_ds_br" cx="0" cy="0" r="1" gradientUnits="userSpaceOnUse" gradientTransform="matrix(13.998399,0.00477622,-0.00477841,14.004799,47.5016,48.4952)">
      <stop offset="0.65" id="stop1"/>
      <stop offset="1" stop-opacity="0" id="stop2"/>
    </radialGradient><linearGradient id="gradient_ds_b" x1="30.448999" y1="48.5" x2="30.492201" y2="62.500301" gradientUnits="userSpaceOnUse">
      <stop offset="0.653846" id="stop3"/>
      <stop offset="1" stop-opacity="0" id="stop4"/>
    </linearGradient><radialGradient id="gradient_ds_bl" cx="0" cy="0" r="1" gradientUnits="userSpaceOnUse" gradientTransform="matrix(0,14,-14,0,16.5,48.5)">
      <stop offset="0.65" id="stop5"/>
      <stop offset="1" stop-opacity="0" id="stop6"/>
    </radialGradient><linearGradient id="gradient_ds_r" x1="47.5" y1="33.5" x2="61.5" y2="33.5009" gradientUnits="userSpaceOnUse">
      <stop offset="0.649038" id="stop7"/>
      <stop offset="1" stop-opacity="0" id="stop8"/>
    </linearGradient><linearGradient id="gradient_ds_l" x1="16.5" y1="33.894699" x2="2.5" y2="33.894699" gradientUnits="userSpaceOnUse">
      <stop offset="0.649038" id="stop9"/>
      <stop offset="1" stop-opacity="0" id="stop10"/>
    </linearGradient><radialGradient id="gradient_ds_tr" cx="0" cy="0" r="1" gradientTransform="matrix(0.00843236,-14,14.0084,0.0189842,47.4916,18.5)" gradientUnits="userSpaceOnUse">
      <stop offset="0.65" id="stop11"/>
      <stop offset="1" stop-opacity="0" id="stop12"/>
    </radialGradient><linearGradient id="gradient_ds_t" x1="29.98" y1="18.5" x2="29.9158" y2="4.4998598" gradientUnits="userSpaceOnUse">
      <stop offset="0.649038" id="stop13"/>
      <stop offset="1" stop-opacity="0" id="stop14"/>
    </linearGradient><radialGradient id="gradient_ds_tl" cx="0" cy="0" r="1" gradientTransform="matrix(-0.00843236,-14,-14.0084,0.0189842,16.5084,18.5)" gradientUnits="userSpaceOnUse">
      <stop offset="0.65" id="stop15"/>
      <stop offset="1" stop-opacity="0" id="stop16"/>
    </radialGradient></defs>
  
  <g id="ds" opacity="0.25">
    <path id="ds-br" d="m 47.5,48.5 h 14 v 14 h -14 z" fill="url(#gradient_ds_br)" style="fill:url(#gradient_ds_br)"/>
    <path id="ds-b" d="m 16.5,48.5 h 31 v 14 h -31 z" fill="url(#gradient_ds_b)" style="fill:url(#gradient_ds_b)"/>
    <path id="ds-bl" d="m 2.5,48.5 h 14 v 14 h -14 z" fill="url(#gradient_ds_bl)" style="fill:url(#gradient_ds_bl)"/>
    <path id="ds-r" d="m 47.5,18.5 h 14 v 30 h -14 z" fill="url(#gradient_ds_r)" style="fill:url(#gradient_ds_r)"/>
    <path id="ds-l" d="m 2.5,18.5 h 14 v 30 h -14 z" fill="url(#gradient_ds_l)" style="fill:url(#gradient_ds_l)"/>
    <path id="ds-tr" d="m 47.5,4.5 h 14 v 14 h -14 z" fill="url(#gradient_ds_tr)" style="fill:url(#gradient_ds_tr)"/>
    <path id="ds-t" d="m 16.5,4.5 h 31 v 14 h -31 z" fill="url(#gradient_ds_t)" style="fill:url(#gradient_ds_t)"/>
    <path id="ds-tl" d="m 16.5,4.5 h -14 v 14 h 14 z" fill="url(#gradient_ds_tl)" style="fill:url(#gradient_ds_tl)"/>
  </g><rect x="4.5" y="4.5" width="55" height="55" fill="url(#linearGradient1053)" stroke-linecap="round" stroke-width="2.74441" id="bg" style="fill:url(#linearGradient1053)" rx="10"/>
  <g id="art"><path transform="matrix(3.7796002,-0.00366032,0.00366032,3.7796002,1.4996175e-5,0.03099272)" d="M 5.1662,6.2104 4.1239,10.032 h 0.69483 l 1.0423,-3.8216 z m 0.69483,0 1.0423,3.8216 H 7.59816 L 6.55586,6.2104 Z m 1.7371,3.8216 H 8.29296 V 9.33717 H 7.59813 Z m 2.0845,-3.8216 -1.0423,3.8216 h 0.69484 l 1.0423,-3.8216 z m 1.9142,1.0423 c -0.24456,0.00211 -0.46404,0.041776 -0.65888,0.12553 -0.19482,0.079566 -0.36058,0.19271 -0.49736,0.33927 -0.13264,0.14238 -0.2342,0.31401 -0.30467,0.51501 -0.07046,0.19682 -0.10585,0.41475 -0.10585,0.65346 0,0.2722 0.03734,0.50685 0.11197,0.70366 0.07461,0.19682 0.17617,0.36201 0.30467,0.49601 0.1285,0.12983 0.27789,0.22624 0.44786,0.28906 0.44202,0.15352 0.8337,0.08043 1.22,-0.11332 v 0.13842 c 0,0.30151 0,0.54822 -0.10722,0.65954 -0.14923,0.1382 -0.39626,0.20696 -0.74031,0.20696 -0.18239,0 -0.35794,-0.01863 -0.5279,-0.05632 -0.16581,-0.0335 -0.30667,-0.07336 -0.42274,-0.11943 l -0.10585,0.5089 c 0.13264,0.04606 0.28792,0.08593 0.46616,0.11943 0.18239,0.0335 0.375,0.05021 0.57814,0.05021 0.52231,0 0.91214,-0.11314 1.1691,-0.33927 0.257,-0.22614 0.38542,-0.59061 0.38542,-1.0932 V 7.42222 C 12.41285,7.33538 12.02305,7.2489 11.59677,7.25258 Z m 0.02714,0.52384 c 0.15623,0.00278 0.31903,0.030541 0.49059,0.060392 v 1.9094 c -0.34579,0.25235 -0.58682,0.26522 -0.94046,0.15742 -0.26347,-0.080322 -0.3765,-0.31498 -0.47228,-0.5279 -0.05806,-0.12909 -0.06853,-0.29536 -0.06853,-0.48381 0,-0.3392 0.06185,-0.62969 0.24835,-0.81629 0.23918,-0.23929 0.48194,-0.30389 0.74233,-0.29924 z" filter="url(#filter890)" opacity="0.15" stroke-width="0.34742" id="path3" style="filter:url(#filter890-6)"/><path d="m 18.202563,22.172657 -3.925494,14.448285 2.626218,-0.0025 3.925495,-14.448284 z m 17.070573,-0.01663 -3.925495,14.448284 2.626219,-0.0025 3.925494,-14.448285 z m 7.238693,3.932676 c -0.924339,0.0087 -1.753773,0.159612 -2.489888,0.476872 -0.736077,0.301461 -1.362169,0.72969 -1.878613,1.284158 -0.500798,0.538631 -0.884049,1.187702 -1.14968,1.947666 -0.26563,0.744166 -0.398559,1.568006 -0.397689,2.470273 9.97e-4,1.028807 0.142982,1.915578 0.425772,2.659177 0.282714,0.743636 0.667175,1.367649 1.153383,1.873624 0.48617,0.490214 1.051145,0.854114 1.693829,1.090906 1.671264,0.578657 3.151394,0.30097 4.610736,-0.432764 l 5.26e-4,0.52321 c 0.0011,1.139626 0.002,2.072091 -0.402793,2.493252 -0.563538,0.522908 -1.496987,0.783701 -2.797359,0.784948 -0.689361,6.5e-4 -1.352946,-0.06909 -1.995478,-0.210902 -0.626847,-0.126011 -1.159393,-0.276137 -1.598243,-0.449886 l -0.398219,1.923856 c 0.501516,0.173597 1.088563,0.323685 1.762353,0.449697 0.689513,0.125747 1.417578,0.188413 2.185366,0.187657 1.974162,-0.0019 3.447186,-0.43095 4.417599,-1.286614 0.970526,-0.855627 1.454617,-2.233707 1.452765,-4.132995 l -0.01058,-11.01565 c -1.499028,-0.326785 -2.972657,-0.652208 -4.583902,-0.63675 z m 1.958968,2.206267 0.0068,7.216772 c -1.305965,0.955068 -2.216963,1.00458 -3.553997,0.598424 -0.996114,-0.302595 -1.424192,-1.189138 -1.786996,-1.993551 -0.219897,-0.48772 -0.260074,-1.116116 -0.260793,-1.828382 -0.0012,-1.282079 0.231463,-2.380242 0.935679,-3.086234 1.445017,-1.448457 2.929607,-1.206487 4.659115,-0.907294 z" fill="#2a2a2a" stroke-width="1.31315" id="path4"/><path d="m 20.829387,22.172657 3.953463,14.440726 2.626219,-0.0025 -3.953464,-14.440725 z m 6.579531,14.43808 2.626218,-0.0025 -0.0025,-2.626219 -2.626219,0.0025 z" fill="#f9f9f9" stroke-width="1.31315" id="path5"/></g>
  
  
</svg>
