<?xml version="1.0" encoding="UTF-8" standalone="no"?>
<svg xmlns:inkscape="http://www.inkscape.org/namespaces/inkscape" xmlns:sodipodi="http://sodipodi.sourceforge.net/DTD/sodipodi-0.dtd" xmlns:xlink="http://www.w3.org/1999/xlink" xmlns="http://www.w3.org/2000/svg" xmlns:svg="http://www.w3.org/2000/svg" xmlns:rdf="http://www.w3.org/1999/02/22-rdf-syntax-ns#" xmlns:cc="http://creativecommons.org/ns#" xmlns:dc="http://purl.org/dc/elements/1.1/" width="64" height="64" version="1.1" viewBox="0 0 64 64" id="svg17" sodipodi:docname="datensen.svg" xml:space="preserve" inkscape:version="1.4.2 (ebf0e940d0, 2025-05-08)"><sodipodi:namedview id="namedview1" pagecolor="#ffffff" bordercolor="#000000" borderopacity="0.25" inkscape:showpageshadow="2" inkscape:pageopacity="0.0" inkscape:pagecheckerboard="0" inkscape:deskcolor="#d1d1d1" inkscape:current-layer="svg17"/>
  <defs id="defs7">
    <linearGradient id="linearGradient862" x1="7.9373002" x2="7.9373002" y1="15.081" y2="1.852" gradientTransform="translate(-28.412436,0.0080003)" gradientUnits="userSpaceOnUse">
      <stop stop-color="#eae8e9" offset="0" id="stop2"/>
      <stop stop-color="#f9f8f9" offset="1" id="stop4"/>
    </linearGradient>
    <linearGradient id="_Linear1" x1="0" y1="0" x2="1" y2="0" gradientUnits="userSpaceOnUse" gradientTransform="matrix(13.74558,0,0,16.483211,-44.433649,6.5762867)">
      <stop offset="0" style="stop-color:#b1007f;stop-opacity:1" id="stop328"/>
      <stop offset="0.3" style="stop-color:#ff00e1;stop-opacity:1" id="stop330"/>
      <stop offset="0.81" style="stop-color:#ffa400;stop-opacity:1" id="stop332"/>
      <stop offset="1" style="stop-color:#ff8b00;stop-opacity:1" id="stop334"/>
    </linearGradient>
    <radialGradient id="_Radial2" cx="0" cy="0" r="1" gradientUnits="userSpaceOnUse" gradientTransform="matrix(11.704985,0,0,11.704985,-45.638314,2.7369052)">
      <stop offset="0" style="stop-color:#00a9ff;stop-opacity:1" id="stop337"/>
      <stop offset="0.9" style="stop-color:#00afff;stop-opacity:1" id="stop339"/>
      <stop offset="1" style="stop-color:#000;stop-opacity:1" id="stop341"/>
    </radialGradient>
    <linearGradient id="linearGradient5816" x1="7.9373002" x2="7.9373002" y1="15.081" y2="1.852" gradientTransform="translate(21.765187,0.05277054)" gradientUnits="userSpaceOnUse">
      <stop stop-color="#ec1c24" offset="0" id="stop1339"/>
      <stop stop-color="#f25a5f" offset="1" id="stop1341"/>
    </linearGradient>
    <linearGradient id="linearGradient945" x1="31.736" x2="31.736" y1="45.776001" y2="18.188999" gradientUnits="userSpaceOnUse" gradientTransform="matrix(0.26457812,0,0,0.26457812,21.765451,0.0447271)">
      <stop stop-color="#fad1d3" offset="0" id="stop1344"/>
      <stop stop-color="#fff" stop-opacity=".97936" offset="1" id="stop1346"/>
    </linearGradient>
    <linearGradient id="linearGradient973" x1="30.975" x2="30.975" y1="11.692" y2="56.458" gradientTransform="matrix(0.28961,0,0,0.24172,49.373759,2.9351686)" gradientUnits="userSpaceOnUse">
      <stop stop-color="#FF7C44" offset="0" id="stop1618"/>
      <stop stop-color="#FF4E5A" offset="1" id="stop1620"/>
    </linearGradient>
    <radialGradient id="radialGradient1100" cx="26.389" cy="17.311001" r="2" gradientTransform="matrix(0.88483,0.021942,-0.02717,1.0956,-13.447,-1.3111)" gradientUnits="userSpaceOnUse" xlink:href="#linearGradient10452"/>
    <linearGradient id="linearGradient10452">
      <stop stop-color="#fff" offset="0" id="stop1609"/>
      <stop stop-color="#faf7f6" offset=".35073" id="stop1611"/>
      <stop stop-color="#e6d9d2" offset=".74787" id="stop1613"/>
      <stop stop-color="#d4bdb2" offset="1" id="stop1615"/>
    </linearGradient>
    <radialGradient id="radialGradient1102" cx="26.389" cy="17.311001" r="2" gradientTransform="matrix(0.88483,0.021942,-0.02717,1.0956,-10.367,-1.3111)" gradientUnits="userSpaceOnUse" xlink:href="#linearGradient10452"/>
    <radialGradient id="radialGradient1104" cx="26.389" cy="17.311001" r="2" gradientTransform="matrix(0.88483,0.021942,-0.02717,1.0956,-7.2863,-1.3111)" gradientUnits="userSpaceOnUse" xlink:href="#linearGradient10452"/>
    <radialGradient id="radialGradient1106" cx="26.389" cy="17.311001" r="2" gradientTransform="matrix(0.88483,0.021942,-0.02717,1.0956,-4.2058,-1.3111)" gradientUnits="userSpaceOnUse" xlink:href="#linearGradient10452"/>
    <radialGradient id="radialGradient1108" cx="26.389" cy="17.311001" r="2" gradientTransform="matrix(0.88483,0.021942,-0.02717,1.0956,1.9552,-1.3111)" gradientUnits="userSpaceOnUse" xlink:href="#linearGradient10452"/>
    <radialGradient id="radialGradient1110" cx="26.389" cy="17.311001" r="2" gradientTransform="matrix(0.88483,0.021942,-0.02717,1.0956,-1.1253,-1.3111)" gradientUnits="userSpaceOnUse" xlink:href="#linearGradient10452"/>
    <radialGradient id="radialGradient1112" cx="26.389" cy="17.311001" r="2" gradientTransform="matrix(0.88483,0.021942,-0.02717,1.0956,1.9552,2.3269)" gradientUnits="userSpaceOnUse" xlink:href="#linearGradient10452"/>
    <radialGradient id="radialGradient1114" cx="26.389" cy="17.311001" r="2" gradientTransform="matrix(0.88483,0.021942,-0.02717,1.0956,-1.1253,2.3269)" gradientUnits="userSpaceOnUse" xlink:href="#linearGradient10452"/>
    <radialGradient id="radialGradient1116" cx="26.389" cy="17.311001" r="2" gradientTransform="matrix(0.88483,0.021942,-0.02717,1.0956,-13.447,2.3269)" gradientUnits="userSpaceOnUse" xlink:href="#linearGradient10452"/>
    <radialGradient id="radialGradient1118" cx="26.389" cy="17.311001" r="2" gradientTransform="matrix(0.88483,0.021942,-0.02717,1.0956,-10.367,2.3269)" gradientUnits="userSpaceOnUse" xlink:href="#linearGradient10452"/>
    <radialGradient id="radialGradient1120" cx="26.389" cy="17.311001" r="2" gradientTransform="matrix(0.88483,0.021942,-0.02717,1.0956,-10.367,-4.9019)" gradientUnits="userSpaceOnUse" xlink:href="#linearGradient10452"/>
    <radialGradient id="radialGradient1122" cx="26.389" cy="17.311001" r="2" gradientTransform="matrix(0.88483,0.021942,-0.02717,1.0956,-7.2863,-4.9019)" gradientUnits="userSpaceOnUse" xlink:href="#linearGradient10452"/>
    <radialGradient id="radialGradient1124" cx="26.389" cy="17.311001" r="2" gradientTransform="matrix(0.88483,0.021942,-0.02717,1.0956,-4.2058,-4.9019)" gradientUnits="userSpaceOnUse" xlink:href="#linearGradient10452"/>
    <radialGradient id="radialGradient1126" cx="26.389" cy="17.311001" r="2" gradientTransform="matrix(0.88483,0.021942,-0.02717,1.0956,-1.1253,-4.9019)" gradientUnits="userSpaceOnUse" xlink:href="#linearGradient10452"/>
    <linearGradient id="linearGradient936" x1="29.312" x2="29.312" y1="57.119999" y2="7.4541998" gradientTransform="matrix(0.26458,0,0,0.26458,26.183392,-1.8393043)" gradientUnits="userSpaceOnUse">
      <stop stop-color="#ea2424" offset="0" id="stop2683"/>
      <stop stop-color="#ff674d" offset="1" id="stop2685"/>
    </linearGradient>
    <linearGradient id="linearGradient941" x1="18.398001" x2="18.398001" y1="14.372" y2="24.729" gradientTransform="matrix(0.5,0,0,0.5,25.905177,-0.9996343)" gradientUnits="userSpaceOnUse">
      <stop stop-color="#fff" offset="0" id="stop2688"/>
      <stop stop-color="#fddee0" offset="1" id="stop2690"/>
    </linearGradient>
    <linearGradient id="linearGradient862-3" x1="7.9373002" x2="7.9373002" y1="15.081" y2="1.852" gradientTransform="matrix(0.999973,0,0,0.999973,21.713139,-0.84976011)" gradientUnits="userSpaceOnUse">
      <stop stop-color="#220601" offset="0" id="stop3056"/>
      <stop stop-color="#190501" offset="1" id="stop3058"/>
    </linearGradient>
    <linearGradient id="linearGradient14471" x1="-88.025002" x2="-61.377998" y1="19.91" y2="45.75" gradientUnits="userSpaceOnUse">
      <stop stop-color="#ffbb24" offset="0" id="stop3061"/>
      <stop stop-color="#ff5244" offset=".85031" id="stop3063"/>
      <stop stop-color="#ff557d" offset=".92705" id="stop3065"/>
      <stop stop-color="#ff65ae" offset="1" id="stop3067"/>
    </linearGradient>
    <linearGradient id="linearGradient200557" x1="-76.044998" x2="-66.417999" y1="31.030001" y2="40.658001" gradientUnits="userSpaceOnUse">
      <stop stop-color="#492300" offset="0" id="stop3077"/>
      <stop stop-color="#3e170f" offset="1" id="stop3079"/>
    </linearGradient>
    <radialGradient id="radialGradient101134" cx="-73.514" cy="33.561001" r="4.0953002" gradientTransform="matrix(1.6719,0,0,1.6719,49.395,-22.55)" gradientUnits="userSpaceOnUse">
      <stop stop-color="#71fc5b" offset="0" id="stop3070"/>
      <stop stop-color="#11a1ea" offset=".7" id="stop3072"/>
      <stop stop-color="#647eff" offset="1" id="stop3074"/>
    </radialGradient>
    <linearGradient id="linearGradient2447" x1="31.738001" x2="31.738001" y1="6.2139001" y2="58.771" gradientUnits="userSpaceOnUse">
      <stop stop-color="#1e1e1e" offset="0" id="stop694"/>
      <stop stop-color="#3c3c3c" offset="1" id="stop696"/>
    </linearGradient>
    <linearGradient inkscape:collect="always" xlink:href="#_Linear1" id="linearGradient687" gradientUnits="userSpaceOnUse" gradientTransform="matrix(13.74558,0,0,16.483211,-44.433649,6.5762867)" x1="0" y1="0" x2="1" y2="0"/>
    <radialGradient inkscape:collect="always" xlink:href="#_Radial2-3" id="radialGradient689" gradientUnits="userSpaceOnUse" gradientTransform="matrix(11.704985,0,0,11.704985,-45.638314,2.7369052)" cx="0" cy="0" r="1"/>
    <radialGradient id="_Radial2-3" cx="0" cy="0" r="1" gradientUnits="userSpaceOnUse" gradientTransform="matrix(11.704985,0,0,11.704985,-45.638314,2.7369052)">
      <stop offset="0" style="stop-color:#00a9ff;stop-opacity:1" id="stop337-5"/>
      <stop offset="0.9" style="stop-color:#00afff;stop-opacity:1" id="stop339-6"/>
      <stop offset="1" style="stop-color:#000;stop-opacity:1" id="stop341-2"/>
    </radialGradient>
    
  <filter inkscape:collect="always" style="color-interpolation-filters:sRGB" id="filter1057-3" x="-0.026999999" width="1.054" y="-0.026999999" height="1.054"><feGaussianBlur inkscape:collect="always" stdDeviation="0.61875" id="feGaussianBlur1059-6"/></filter><radialGradient id="gradient_ds_br" cx="0" cy="0" r="1" gradientUnits="userSpaceOnUse" gradientTransform="matrix(13.998399,0.00477622,-0.00477841,14.004799,47.5016,48.4952)">
      <stop offset="0.65" id="stop1"/>
      <stop offset="1" stop-opacity="0" id="stop2"/>
    </radialGradient><linearGradient id="gradient_ds_b" x1="30.448999" y1="48.5" x2="30.492201" y2="62.500301" gradientUnits="userSpaceOnUse">
      <stop offset="0.653846" id="stop3"/>
      <stop offset="1" stop-opacity="0" id="stop4"/>
    </linearGradient><radialGradient id="gradient_ds_bl" cx="0" cy="0" r="1" gradientUnits="userSpaceOnUse" gradientTransform="matrix(0,14,-14,0,16.5,48.5)">
      <stop offset="0.65" id="stop5"/>
      <stop offset="1" stop-opacity="0" id="stop6"/>
    </radialGradient><linearGradient id="gradient_ds_r" x1="47.5" y1="33.5" x2="61.5" y2="33.5009" gradientUnits="userSpaceOnUse">
      <stop offset="0.649038" id="stop7"/>
      <stop offset="1" stop-opacity="0" id="stop8"/>
    </linearGradient><linearGradient id="gradient_ds_l" x1="16.5" y1="33.894699" x2="2.5" y2="33.894699" gradientUnits="userSpaceOnUse">
      <stop offset="0.649038" id="stop9"/>
      <stop offset="1" stop-opacity="0" id="stop10"/>
    </linearGradient><radialGradient id="gradient_ds_tr" cx="0" cy="0" r="1" gradientTransform="matrix(0.00843236,-14,14.0084,0.0189842,47.4916,18.5)" gradientUnits="userSpaceOnUse">
      <stop offset="0.65" id="stop11"/>
      <stop offset="1" stop-opacity="0" id="stop12"/>
    </radialGradient><linearGradient id="gradient_ds_t" x1="29.98" y1="18.5" x2="29.9158" y2="4.4998598" gradientUnits="userSpaceOnUse">
      <stop offset="0.649038" id="stop13"/>
      <stop offset="1" stop-opacity="0" id="stop14"/>
    </linearGradient><radialGradient id="gradient_ds_tl" cx="0" cy="0" r="1" gradientTransform="matrix(-0.00843236,-14,-14.0084,0.0189842,16.5084,18.5)" gradientUnits="userSpaceOnUse">
      <stop offset="0.65" id="stop15"/>
      <stop offset="1" stop-opacity="0" id="stop16"/>
    </radialGradient></defs>
  <metadata id="metadata9">
    <rdf:RDF>
      <cc:Work rdf:about="">
        <dc:format>image/svg+xml</dc:format>
        <dc:type rdf:resource="http://purl.org/dc/dcmitype/StillImage"/>
      </cc:Work>
    </rdf:RDF>
  </metadata>
  <g id="ds" opacity="0.25">
    <path id="ds-br" d="m 47.5,48.5 h 14 v 14 h -14 z" fill="url(#gradient_ds_br)" style="fill:url(#gradient_ds_br)"/>
    <path id="ds-b" d="m 16.5,48.5 h 31 v 14 h -31 z" fill="url(#gradient_ds_b)" style="fill:url(#gradient_ds_b)"/>
    <path id="ds-bl" d="m 2.5,48.5 h 14 v 14 h -14 z" fill="url(#gradient_ds_bl)" style="fill:url(#gradient_ds_bl)"/>
    <path id="ds-r" d="m 47.5,18.5 h 14 v 30 h -14 z" fill="url(#gradient_ds_r)" style="fill:url(#gradient_ds_r)"/>
    <path id="ds-l" d="m 2.5,18.5 h 14 v 30 h -14 z" fill="url(#gradient_ds_l)" style="fill:url(#gradient_ds_l)"/>
    <path id="ds-tr" d="m 47.5,4.5 h 14 v 14 h -14 z" fill="url(#gradient_ds_tr)" style="fill:url(#gradient_ds_tr)"/>
    <path id="ds-t" d="m 16.5,4.5 h 31 v 14 h -31 z" fill="url(#gradient_ds_t)" style="fill:url(#gradient_ds_t)"/>
    <path id="ds-tl" d="m 16.5,4.5 h -14 v 14 h 14 z" fill="url(#gradient_ds_tl)" style="fill:url(#gradient_ds_tl)"/>
  </g><rect y="4.5" x="4.5" height="55" width="55" id="bg" style="fill:url(#linearGradient2447);fill-opacity:1;stroke-width:1.0016;stroke-linecap:round;font-variation-settings:normal;opacity:1;vector-effect:none;stroke-linejoin:round;stroke-miterlimit:4;stroke-dasharray:none;stroke-dashoffset:0;stroke-opacity:1;-inkscape-stroke:none;paint-order:stroke fill markers;stop-color:#000000;stop-opacity:1" rx="10"/>
  
  <g id="art" transform="matrix(2.3313388,0,0,2.3313388,123.54429,17.477926)">
    <path id="path669" d="m -31.157793,3.4226156 c 0.304366,0.8796105 0.469724,1.8238921 0.469724,2.8064555 0,4.7403229 -3.848517,8.5888399 -8.58884,8.5888399 -4.54125,0 -8.264012,-3.532071 -8.56868,-7.9965687 l 9.667032,-1.6111531 h -9.627278 c 0.113184,-0.9558719 0.383609,-1.8637972 0.784623,-2.6972357 l 10.630229,-1.77167952 h -9.491065 c 1.576005,-1.89433948 3.950753,-3.10104328 6.605139,-3.10104328 3.198484,0 5.990971,1.75216129 7.469158,4.3481807 l -8.605264,1.4342042 z" style="clip-rule:evenodd;fill:#00a9ff;fill-rule:evenodd;stroke-width:0.0377531;stroke-linejoin:round;stroke-miterlimit:1.41421"/>
    <path id="path671" d="m -31.157793,3.4226156 c 0.304366,0.8796105 0.469724,1.8238544 0.469724,2.8064555 0,4.7403229 -3.848517,8.5888399 -8.58884,8.5888399 -1.934396,0 -3.720271,-0.640859 -5.15674,-1.721732 5.285818,-0.146746 9.553887,-4.3954473 9.731666,-9.6735634 z M -34.714328,2.472822 c -0.08921,-1.49022983 -0.50476,-2.89313667 -1.176086,-4.1381222 1.725621,0.74200029 3.160127,2.03349761 4.082663,3.6537116 z" style="clip-rule:evenodd;fill:url(#linearGradient687);fill-rule:evenodd;stroke-width:0.0377531;stroke-linejoin:round;stroke-miterlimit:1.41421"/>
    <path id="path673" d="m -44.433649,13.096179 c 0.661964,0.498077 0.293644,0.219233 0.02782,0.02088 -1.951196,-1.455799 -3.264061,-3.7206482 -3.439764,-6.2957147 l 9.667032,-1.6111531 h -9.627278 c 0.113184,-0.9558719 0.383609,-1.8637972 0.784623,-2.6972357 l 10.630233,-1.77168152 h -9.491065 c 1.576005,-1.89433948 3.950753,-3.10104328 6.605139,-3.10104328 1.202286,0 2.347188,0.2475852 3.386495,0.6944691 0.671326,1.24498553 1.086875,2.64789237 1.176086,4.1381222 l -5.698687,0.9497936 h 5.711032 c -0.177779,5.2781161 -4.445848,9.5268174 -9.731666,9.6735634 z" style="clip-rule:evenodd;fill:url(#radialGradient689);fill-rule:evenodd;stroke-width:0.0377531;stroke-linejoin:round;stroke-miterlimit:1.41421"/>
    <path d="m -36.879471,-2.0201042 c 2.164803,0.6289297 3.978011,2.08771107 5.07172,4.0085156 l -8.605264,1.4342042 h 9.255222 c 0.304366,0.8796482 0.469724,1.8238921 0.469724,2.8064555 0,3.8977099 -2.601946,7.1925029 -6.162181,8.2406429 l -8.126516,-8.1265153 6.798209,-1.1330095 h -5.931208 l 3.818957,-3.8189571 3.899825,-0.64995812 h -3.249867 z" style="clip-rule:evenodd;fill:#ffffff;fill-opacity:0.101961;fill-rule:evenodd;stroke-width:0.0377531;stroke-linejoin:round;stroke-miterlimit:1.41421" id="path675"/>
    <path d="m -31.12642,3.5150353 c 0.284356,0.853221 0.438351,1.76579 0.438351,2.7140358 0,0.9377503 -0.150597,1.8406167 -0.428951,2.6856831 l -2.70456,-2.7045597 z" style="clip-rule:evenodd;fill:#ffffff;fill-opacity:0.101961;fill-rule:evenodd;stroke-width:0.0377531;stroke-linejoin:round;stroke-miterlimit:1.41421" id="path677"/>
    <path d="m -34.809315,3.4226156 h 3.651522 c 0.304366,0.8796482 0.469724,1.8238921 0.469724,2.8064555 0,1.9373403 -0.642822,3.7257067 -1.72664,5.1633089 l -5.182185,-5.1821855 z m 2.378335,-2.3783349 c 0.227613,0.2999111 0.435973,0.6152631 0.623229,0.9441307 l -1.880824,0.3134643 z" style="clip-rule:evenodd;fill:#ffffff;fill-opacity:0.101961;fill-rule:evenodd;stroke-width:0.0377531;stroke-linejoin:round;stroke-miterlimit:1.41421" id="path679"/>
    <path d="m -40.300057,-2.2993265 c 0.33555,-0.039905 0.676951,-0.060443 1.023148,-0.060443 3.198484,0 5.990971,1.75216129 7.469158,4.3481807 l -8.605264,1.4342042 h 9.255222 c 0.304366,0.8796482 0.469724,1.8238921 0.469724,2.8064555 0,4.7403231 -3.848517,8.5888401 -8.58884,8.5888401 -0.331511,0 -0.658642,-0.01884 -0.980412,-0.05546 L -47.81029,7.2094812 c -0.01461,-0.1285495 -0.02643,-0.2579295 -0.0353,-0.3881401 l 9.667032,-1.6111531 h -9.627278 l 5.28e-4,-0.00427 3.074729,-3.0747294 8.339594,-1.38991972 h -6.949674 z" style="clip-rule:evenodd;fill:#ffffff;fill-opacity:0.101961;fill-rule:evenodd;stroke-width:0.0377531;stroke-linejoin:round;stroke-miterlimit:1.41421" id="path681"/>
    <path d="m -40.372204,5.2101892 1.787574,-1.7875736 h 7.426837 c 0.304366,0.8796482 0.469724,1.8238921 0.469724,2.8064555 0,2.8998567 -1.440244,5.4659759 -3.64382,7.0214429 l -7.04032,-7.0403195 0.561276,-0.561276 2.632376,-0.4387293 z m 6.018154,-6.01815314 c 1.04176,0.73044777 1.914198,1.68624408 2.546299,2.79637534 l -6.411202,1.0685272 z" style="clip-rule:evenodd;fill:#ffffff;fill-opacity:0.101961;fill-rule:evenodd;stroke-width:0.0377531;stroke-linejoin:round;stroke-miterlimit:1.41421" id="path683"/>
  </g>
</svg>
