<?xml version="1.0" encoding="UTF-8" standalone="no"?>
<svg xmlns:inkscape="http://www.inkscape.org/namespaces/inkscape" xmlns:sodipodi="http://sodipodi.sourceforge.net/DTD/sodipodi-0.dtd" xmlns="http://www.w3.org/2000/svg" xmlns:svg="http://www.w3.org/2000/svg" width="64" height="64" viewBox="0 0 64 64" version="1.1" id="svg3" sodipodi:docname="datespell (Copy).svg" xml:space="preserve" inkscape:version="1.4.2 (ebf0e940d0, 2025-05-08)">
  <defs id="defs3">
    <linearGradient id="linearGradient893" x1="-106.56" x2="-60.509998" y1="15.282" y2="45.549" gradientUnits="userSpaceOnUse">
      <stop stop-color="#00e2f4" offset="0" id="stop1"/>
      <stop stop-color="#2a94ec" stop-opacity=".99608" offset="1" id="stop2"/>
    </linearGradient>
    <linearGradient id="linearGradient901" x1="-64.713997" x2="-95.380997" y1="43.986" y2="22.948999" gradientUnits="userSpaceOnUse">
      <stop stop-color="#0ee3aa" offset="0" id="stop3"/>
      <stop stop-color="#249aed" offset="1" id="stop4"/>
    </linearGradient>
    <filter id="h" x="-0.060000002" y="-0.060000002" width="1.12" height="1.12" color-interpolation-filters="sRGB">
      <feGaussianBlur stdDeviation="0.85" id="feGaussianBlur2"/>
    </filter>
    <linearGradient id="g" x1="32" x2="32" y1="15" y2="49" gradientTransform="scale(1.0000071)" gradientUnits="userSpaceOnUse">
      <stop stop-color="#303030" offset="0" id="stop5"/>
      <stop stop-color="#424242" offset="1" id="stop7"/>
    </linearGradient>
    <filter id="h-7" x="-0.060000002" y="-0.060000002" width="1.12" height="1.12" color-interpolation-filters="sRGB">
      <feGaussianBlur stdDeviation="0.85" id="feGaussianBlur2-5"/>
    </filter>
    <filter inkscape:collect="always" style="color-interpolation-filters:sRGB" id="filter1057" x="-0.026999999" width="1.054" y="-0.026999999" height="1.054">
      <feGaussianBlur inkscape:collect="always" stdDeviation="0.61875" id="feGaussianBlur1059"/>
    </filter>
    <linearGradient id="linearGradient1053" x1="-127" x2="-72" y1="60" y2="5" gradientTransform="translate(131.5,-0.51000001)" gradientUnits="userSpaceOnUse">
      <stop stop-color="#32d7ff" offset="0" id="stop863"/>
      <stop stop-color="#329bff" offset="1" id="stop865"/>
    </linearGradient>
    <filter id="filter1057-7" x="-0.026999999" y="-0.026999999" width="1.054" height="1.054" color-interpolation-filters="sRGB">
      <feGaussianBlur stdDeviation="0.61875" id="feGaussianBlur860-5"/>
    </filter>
  <radialGradient id="gradient_ds_br" cx="0" cy="0" r="1" gradientUnits="userSpaceOnUse" gradientTransform="matrix(13.998399,0.00477622,-0.00477841,14.004799,47.5016,48.4952)">
      <stop offset="0.65" id="stop1"/>
      <stop offset="1" stop-opacity="0" id="stop2"/>
    </radialGradient><linearGradient id="gradient_ds_b" x1="30.448999" y1="48.5" x2="30.492201" y2="62.500301" gradientUnits="userSpaceOnUse">
      <stop offset="0.653846" id="stop3"/>
      <stop offset="1" stop-opacity="0" id="stop4"/>
    </linearGradient><radialGradient id="gradient_ds_bl" cx="0" cy="0" r="1" gradientUnits="userSpaceOnUse" gradientTransform="matrix(0,14,-14,0,16.5,48.5)">
      <stop offset="0.65" id="stop5"/>
      <stop offset="1" stop-opacity="0" id="stop6"/>
    </radialGradient><linearGradient id="gradient_ds_r" x1="47.5" y1="33.5" x2="61.5" y2="33.5009" gradientUnits="userSpaceOnUse">
      <stop offset="0.649038" id="stop7"/>
      <stop offset="1" stop-opacity="0" id="stop8"/>
    </linearGradient><linearGradient id="gradient_ds_l" x1="16.5" y1="33.894699" x2="2.5" y2="33.894699" gradientUnits="userSpaceOnUse">
      <stop offset="0.649038" id="stop9"/>
      <stop offset="1" stop-opacity="0" id="stop10"/>
    </linearGradient><radialGradient id="gradient_ds_tr" cx="0" cy="0" r="1" gradientTransform="matrix(0.00843236,-14,14.0084,0.0189842,47.4916,18.5)" gradientUnits="userSpaceOnUse">
      <stop offset="0.65" id="stop11"/>
      <stop offset="1" stop-opacity="0" id="stop12"/>
    </radialGradient><linearGradient id="gradient_ds_t" x1="29.98" y1="18.5" x2="29.9158" y2="4.4998598" gradientUnits="userSpaceOnUse">
      <stop offset="0.649038" id="stop13"/>
      <stop offset="1" stop-opacity="0" id="stop14"/>
    </linearGradient><radialGradient id="gradient_ds_tl" cx="0" cy="0" r="1" gradientTransform="matrix(-0.00843236,-14,-14.0084,0.0189842,16.5084,18.5)" gradientUnits="userSpaceOnUse">
      <stop offset="0.65" id="stop15"/>
      <stop offset="1" stop-opacity="0" id="stop16"/>
    </radialGradient></defs>
  
  
  <g id="ds" opacity="0.25">
    <path id="ds-br" d="m 47.5,48.5 h 14 v 14 h -14 z" fill="url(#gradient_ds_br)" style="fill:url(#gradient_ds_br)"/>
    <path id="ds-b" d="m 16.5,48.5 h 31 v 14 h -31 z" fill="url(#gradient_ds_b)" style="fill:url(#gradient_ds_b)"/>
    <path id="ds-bl" d="m 2.5,48.5 h 14 v 14 h -14 z" fill="url(#gradient_ds_bl)" style="fill:url(#gradient_ds_bl)"/>
    <path id="ds-r" d="m 47.5,18.5 h 14 v 30 h -14 z" fill="url(#gradient_ds_r)" style="fill:url(#gradient_ds_r)"/>
    <path id="ds-l" d="m 2.5,18.5 h 14 v 30 h -14 z" fill="url(#gradient_ds_l)" style="fill:url(#gradient_ds_l)"/>
    <path id="ds-tr" d="m 47.5,4.5 h 14 v 14 h -14 z" fill="url(#gradient_ds_tr)" style="fill:url(#gradient_ds_tr)"/>
    <path id="ds-t" d="m 16.5,4.5 h 31 v 14 h -31 z" fill="url(#gradient_ds_t)" style="fill:url(#gradient_ds_t)"/>
    <path id="ds-tl" d="m 16.5,4.5 h -14 v 14 h 14 z" fill="url(#gradient_ds_tl)" style="fill:url(#gradient_ds_tl)"/>
  </g><rect x="4.5" y="4.5" width="55" height="55" fill="url(#linearGradient1053)" stroke-linecap="round" stroke-width="2.7444" id="bg" style="display:inline;fill:url(#linearGradient1053)" rx="10"/>
  <g id="art" transform="matrix(3.4235049,0,0,3.4235049,61.120733,3.0593053)">
    <path id="path262149" style="opacity:1;fill:#ffffff;fill-opacity:1" d="m -8.3488444,3.6318197 c -2.7997276,-0.013856 -5.5761866,1.0748606 -4.7666346,2.7207641 0.877095,1.7832284 5.9884748,2.3936379 8.3684819,0.9994222 L -4.6064372,7.26984 v 0.180868 c 0,0.4660072 -0.149193,1.0400864 -0.33538,1.2913941 -1.135675,1.5328869 -4.7480606,1.7286849 -7.6651648,0.4149617 -0.135557,-0.06105 -0.21057,-0.082163 -0.229961,-0.072864 h -5.16e-4 l -5.17e-4,5.168e-4 -5.17e-4,5.168e-4 -5.17e-4,5.167e-4 -5.16e-4,5.168e-4 v 5.168e-4 l -5.17e-4,5.167e-4 -5.17e-4,5.168e-4 -5.17e-4,5.167e-4 v 5.168e-4 5.168e-4 c 8e-6,3.142e-4 10e-6,8.832e-4 0,0.00103 7.97e-4,0.039675 0.200805,0.1917647 0.545187,0.396875 2.252378,1.3414925 5.8877116,1.3362005 7.6481117,-0.011369 0.27332,-0.2092246 0.2604895,-0.2283297 0.1917195,0.280603 -0.115243,0.8528445 -0.2554163,1.1889505 -0.6242513,1.4991335 -1.5711021,1.32127 -4.658698,1.429024 -7.4041989,0.258382 -0.176426,-0.07522 -0.328978,-0.136943 -0.338998,-0.136943 -0.0089,0 -0.0153,0.0022 -0.0186,0.0052 l -5.17e-4,5.17e-4 c -1.29e-4,2e-4 -8.91e-4,0.0013 -10e-4,0.0015 l -5.17e-4,5.17e-4 v 5.17e-4 5.16e-4 5.17e-4 c -0.01351,0.06239 0.533122,0.420135 1.011308,0.652673 2.4420305,1.187541 5.8949522,0.953245 7.4822302,-0.507462 l 0.1503784,-0.137976 -0.01912,0.496094 c -0.03405,0.881947 -0.1463374,1.205172 -0.5472534,1.575097 -1.294004,1.193982 -4.1054234,1.498398 -6.6693602,0.72192 -0.291042,-0.08814 -0.727067,-0.241518 -0.968934,-0.340548 -0.251104,-0.102806 -0.385103,-0.14838 -0.406176,-0.134875 l -5.17e-4,5.17e-4 -5.17e-4,5.16e-4 h -5.17e-4 v 5.17e-4 l -5.16e-4,5.17e-4 v 5.17e-4 5.16e-4 5.17e-4 c -0.0032,0.02111 0.08857,0.09343 0.271301,0.219625 1.306632,0.902406 3.2859586,1.328178 5.1738446,1.112594 1.5588101,-0.178006 2.8638615,-0.814798 3.4018595,-1.659331 l 0.1204061,-0.188619 V 9.1854858 5.1717773 L -4.0534993,4.9655884 C -4.9804773,4.0455957 -6.6690064,3.6401297 -8.3488444,3.6318197 Z m -1.7068726,0.5198649 0.8371582,0.069763 -0.1658813,0.6976318 -0.8366419,-0.052193 z m 2.8153321,0.5849772 1.1337809,0.094568 -0.2242757,0.9446451 -1.1342977,-0.070797 z m 2.1047811,0.9503296 0.4960937,0.041341 -0.098185,0.4134115 -0.4960938,-0.031006 z m -4.3149821,0.1669148 0.517281,0.042891 -0.1023193,0.4314982 -0.5172811,-0.032556 z m -1.9011761,0.6692098 0.517798,0.043408 -0.102319,0.4309814 -0.517798,-0.032039 z m 4.0783042,0.2330608 0.3126424,0.025838 -0.062012,0.2604492 -0.3126425,-0.01912 z m -2.1543905,0.5885945 0.4128947,0.034107 -0.081649,0.344165 -0.4128947,-0.025838 z"/>
    <path style="opacity:1;fill:#ffffff;fill-opacity:1;stroke-width:0.195294" d="m -10.339569,2.1055798 -0.165651,0.7149154 0.8369738,0.052311 0.1656512,-0.6974785 z" id="path262157"/>
    <path style="opacity:1;fill:#ffffff;fill-opacity:1;stroke-width:0.180652" d="m -12.78247,3.2707079 -0.153232,0.6613162 0.774224,0.048389 0.153231,-0.6451866 z" id="path262158"/>
    <path style="opacity:1;fill:#ffffff;fill-opacity:1;stroke-width:0.0963059" d="m -11.222623,3.2533456 -0.08169,0.3525469 0.412737,0.025797 0.08169,-0.3439482 z" id="path262159"/>
    <path style="opacity:1;fill:#ffffff;fill-opacity:1;stroke-width:0.0963059" d="m -7.4140323,2.9902521 -0.08169,0.3525469 0.412737,0.025797 0.08169,-0.3439482 z" id="path262160"/>
    <path style="opacity:1;fill:#ffffff;fill-opacity:1;stroke-width:0.123963" d="m -8.551525,1.8543566 -0.1051493,0.4537895 0.5312646,0.033205 0.1051493,-0.4427214 z" id="path262161"/>
    <path style="opacity:1;fill:#ffffff;fill-opacity:1;stroke-width:0.195294" d="m -5.8121847,2.6078104 -0.165651,0.7149154 0.8369738,0.052311 0.1656512,-0.6974785 z" id="path262162"/>
    <path style="opacity:1;fill:#ffffff;fill-opacity:1;stroke-width:0.0963059" d="m -4.1668126,3.8494598 -0.08169,0.3525469 0.412737,0.025797 0.08169,-0.3439482 z" id="path262163"/>
    <path style="opacity:1;fill:#ffffff;fill-opacity:1;stroke-width:0.225252" d="m -7.5535703,8.3898063 -0.1910622,0.824584 0.9653666,0.060335 0.191062,-0.8044722 z" id="path262164"/>
    <path style="opacity:1;fill:#ffffff;fill-opacity:1;stroke-width:0.0963059" d="m -9.1738799,9.2640779 -0.081688,0.3525469 0.4127375,0.025797 0.081688,-0.3439482 z" id="path262165"/>
    <path style="opacity:1;fill:#ffffff;fill-opacity:1;stroke-width:0.116642" d="m -10.938006,8.4969073 -0.09894,0.4269898 0.499891,0.031244 0.09894,-0.4165754 z" id="path262166"/>
  </g>
</svg>
