<svg width="64" height="64" viewBox="0 0 64 64" fill="none" xmlns="http://www.w3.org/2000/svg">
<g id="application-x-addon" clip-path="url(#clip0_1152_4726)">
<g id="Blank-File" clip-path="url(#clip1_1152_4726)">
<g id="Shadow 2" opacity="0.1">
<path id="Vector" d="M11.9792 59.0256H51.9788V65.0239H11.9792V59.0256Z" fill="url(#paint0_linear_1152_4726)"/>
<path id="Vector_2" d="M34.979 1.02393V8.02393L41.979 1.02393H34.979Z" fill="url(#paint1_radial_1152_4726)"/>
<path id="Vector_3" d="M41.979 1.02393L34.979 8.02393L48.979 23.0239L57.979 14.0239V4.56893L54.434 1.02393H41.979Z" fill="url(#paint2_linear_1152_4726)"/>
<path id="Vector_4" d="M57.979 14.0239L48.979 23.0239H57.979V14.0239Z" fill="url(#paint3_radial_1152_4726)"/>
<path id="Vector_5" d="M11.9792 1.02393H34.9781V5.02274H11.9792V1.02393Z" fill="url(#paint4_linear_1152_4726)"/>
<path id="Vector_6" d="M5.97723 1.02393H11.9755V5.02274H5.97723V1.02393Z" fill="url(#paint5_radial_1152_4726)"/>
<path id="Vector_7" d="M51.9788 23.0249H57.977V59.0256H51.9788V23.0249Z" fill="url(#paint6_linear_1152_4726)"/>
<path id="Vector_8" d="M5.97723 5.02271H11.9755V59.0219H5.97723V5.02271Z" fill="url(#paint7_linear_1152_4726)"/>
<path id="Vector_9" d="M51.9788 59.0256H57.977V65.0239H51.9788V59.0256Z" fill="url(#paint8_radial_1152_4726)"/>
<path id="Vector_10" d="M5.97723 59.0256H11.9755V65.0239H5.97723V59.0256Z" fill="url(#paint9_radial_1152_4726)"/>
</g>
<g id="Shadow 1" opacity="0.2">
<path id="Vector_11" d="M11.9792 59.0256H51.9788V65.0239H11.9792V59.0256Z" fill="url(#paint10_linear_1152_4726)"/>
<path id="Vector_12" d="M34.9792 1.02393V8.02397L41.9793 1.02393H34.9792Z" fill="url(#paint11_radial_1152_4726)"/>
<path id="Vector_13" d="M41.9793 1.02393L34.9792 8.02397L48.9793 23.0241L57.9794 14.024V4.56895L54.4344 1.02393H41.9793Z" fill="url(#paint12_linear_1152_4726)"/>
<path id="Vector_14" d="M57.9794 14.0239L48.9793 23.024H57.9794V14.0239Z" fill="url(#paint13_radial_1152_4726)"/>
<path id="Vector_15" d="M11.9792 1.02393H34.9781V5.02274H11.9792V1.02393Z" fill="url(#paint14_linear_1152_4726)"/>
<path id="Vector_16" d="M11.9755 1.02393H5.97723V5.02274H11.9755V1.02393Z" fill="url(#paint15_radial_1152_4726)"/>
<path id="Vector_17" d="M51.9788 23.0249H57.977V59.0256H51.9788V23.0249Z" fill="url(#paint16_linear_1152_4726)"/>
<path id="Vector_18" d="M5.97723 5.02271H11.9755V59.0219H5.97723V5.02271Z" fill="url(#paint17_linear_1152_4726)"/>
<path id="Vector_19" d="M51.9788 59.0256H57.977V65.0239H51.9788V59.0256Z" fill="url(#paint18_radial_1152_4726)"/>
<path id="Vector_20" d="M5.97723 59.0256H11.9755V65.0239H5.97723V59.0256Z" fill="url(#paint19_radial_1152_4726)"/>
</g>
<path id="Paper" d="M10.9776 2.02563C10.4477 2.02663 9.9397 2.23761 9.56496 2.61235C9.19021 2.9871 8.97924 3.49507 8.97824 4.02504V60.0236C8.97824 61.131 9.87023 62.023 10.9814 62.023H52.9766C54.0878 62.023 54.9798 61.131 54.9798 60.0198V21.0257C54.9798 20.0241 54.3675 18.4178 52.9766 17.0231L39.9747 4.02126C39.508 3.4038 38.905 2.90245 38.2127 2.5563C37.5204 2.21015 36.7575 2.02854 35.9835 2.02563H10.9776Z" fill="url(#paint20_linear_1152_4726)"/>
</g>
<g id="Logo">
<path id="Vector_21" d="M31.892 25.006C30.4515 24.9116 28.831 25.9359 28.887 27.5152C28.7158 28.451 29.625 29.1536 29.5837 30.0008C29.0494 30.234 28.645 30.234 28.2671 30.234H22.021V36.4185C22.5081 37.4812 23.5058 35.9639 24.291 36.1292C25.7964 35.8133 27.1484 37.1328 27.2192 38.5882C27.42 39.9756 26.8827 41.7822 25.3064 42.0627C24.8818 42.1421 24.4457 42.1361 24.0234 42.0448C23.6012 41.9536 23.2015 41.779 22.8475 41.5313C22.0063 41.0236 21.9531 42.1335 22.021 42.6796V48.9792H29.2058C30.2685 48.4921 28.7513 47.4944 28.9166 46.7062C28.6007 45.2066 29.9202 43.8516 31.3754 43.7807C32.7628 43.58 34.5694 44.1173 34.8498 45.6936C34.9915 46.5409 34.835 47.456 34.3184 48.1527C33.8107 48.991 34.9206 49.0471 35.4667 48.9792H40.7653V41.8265C41.2641 40.7549 42.2589 42.3225 43.0707 42.0892C43.3868 42.1456 43.7109 42.1387 44.0243 42.0689C44.3377 41.9992 44.6342 41.8681 44.8966 41.683C45.159 41.498 45.3822 41.2628 45.5532 40.991C45.7241 40.7192 45.8395 40.4163 45.8927 40.0996C46.2262 38.6472 45.813 36.7225 44.2219 36.2118C43.2183 35.8694 42.2146 36.3063 41.3616 36.8258C40.5793 36.9351 40.7889 35.9875 40.7653 35.4974V30.237H34.6136C33.5421 29.7351 35.1095 28.7433 34.8763 27.9315C34.9327 27.6153 34.9258 27.2912 34.856 26.9778C34.7863 26.6643 34.6552 26.3678 34.4702 26.1054C34.2851 25.843 34.05 25.6198 33.7782 25.4489C33.5064 25.2779 33.2034 25.1625 32.8868 25.1093C32.5597 25.0408 32.2262 25.0071 31.892 25.009V25.006Z" fill="url(#paint21_linear_1152_4726)"/>
</g>
<g id="Blank-File-Top">
<g id="Curl">
<g id="Shadow">
<path id="Vector_22" opacity="0.05" d="M39.9785 17.0229H23.9795V33.022H39.9785V17.0229Z" fill="url(#paint22_radial_1152_4726)"/>
<path id="Vector_23" opacity="0.05" d="M23.9792 2.02393V11.024H39.9793V4.02394C38.6413 2.33093 36.9792 2.02393 35.9792 2.02393H23.9792Z" fill="url(#paint23_radial_1152_4726)"/>
<path id="Vector_24" opacity="0.05" d="M39.9785 11.0247H23.9795V17.0229H39.9785V11.0247Z" fill="url(#paint24_linear_1152_4726)"/>
<path id="Vector_25" opacity="0.2" d="M39.9785 11.0247H28.9799V17.0229H39.9785V11.0247Z" fill="url(#paint25_linear_1152_4726)"/>
<path id="Vector_26" opacity="0.2" d="M39.9785 17.0229H28.9799V28.0216H39.9785V17.0229Z" fill="url(#paint26_radial_1152_4726)"/>
<path id="Vector_27" opacity="0.2" d="M28.9792 2.02393V11.024H39.9793V4.02394C39.5247 3.43832 38.9524 2.95457 38.2992 2.60393L35.9792 2.02393H28.9792Z" fill="url(#paint27_radial_1152_4726)"/>
<path id="Vector_28" opacity="0.05" d="M39.9785 17.0229V33.022H45.9767V17.0229H39.9785Z" fill="url(#paint28_linear_1152_4726)"/>
<path id="Vector_29" opacity="0.2" d="M39.9785 17.0268V28.0254H45.9767V17.0268H39.9785Z" fill="url(#paint29_linear_1152_4726)"/>
<path id="Vector_30" opacity="0.2" d="M45.9793 17.0239V28.024H54.9794V21.024L54.5394 19.2639C54.1608 18.4281 53.632 17.6689 52.9794 17.0239H45.9793Z" fill="url(#paint30_radial_1152_4726)"/>
<path id="Vector_31" opacity="0.05" d="M45.979 17.0239V33.0239H54.979V21.0239C54.979 20.8919 54.953 20.7239 54.939 20.5709C54.791 19.5779 54.176 18.2209 52.979 17.0239H45.979Z" fill="url(#paint31_radial_1152_4726)"/>
</g>
<path id="Paper_2" d="M37.9791 2.44141V17.0193C37.9791 18.1267 38.8711 19.0187 39.9823 19.0187H54.443C54.0748 18.2764 53.587 17.5996 52.9992 17.0155L39.9974 4.01372C39.4687 3.33484 38.7824 2.79515 37.998 2.44141H37.9791Z" fill="url(#paint32_linear_1152_4726)"/>
</g>
</g>
</g>
<defs>
<linearGradient id="paint0_linear_1152_4726" x1="29.9777" y1="59.0256" x2="29.9777" y2="65.0239" gradientUnits="userSpaceOnUse">
<stop/>
<stop offset="1" stop-opacity="0"/>
</linearGradient>
<radialGradient id="paint1_radial_1152_4726" cx="0" cy="0" r="1" gradientUnits="userSpaceOnUse" gradientTransform="translate(34.978 5.02433) scale(6.32269 4.00052)">
<stop/>
<stop offset="1" stop-opacity="0"/>
</radialGradient>
<linearGradient id="paint2_linear_1152_4726" x1="42.979" y1="13.0239" x2="46.727" y2="9.27593" gradientUnits="userSpaceOnUse">
<stop/>
<stop offset="1" stop-opacity="0"/>
</linearGradient>
<radialGradient id="paint3_radial_1152_4726" cx="0" cy="0" r="1" gradientUnits="userSpaceOnUse" gradientTransform="translate(51.9788 23.0241) scale(4.99995 6.94012)">
<stop/>
<stop offset="1" stop-opacity="0"/>
</radialGradient>
<linearGradient id="paint4_linear_1152_4726" x1="21.9801" y1="5.02274" x2="21.9801" y2="1.02393" gradientUnits="userSpaceOnUse">
<stop/>
<stop offset="1" stop-opacity="0"/>
</linearGradient>
<radialGradient id="paint5_radial_1152_4726" cx="0" cy="0" r="1" gradientUnits="userSpaceOnUse" gradientTransform="translate(11.9794 5.02566) rotate(-90) scale(4.00124 5.00177)">
<stop/>
<stop offset="1" stop-opacity="0"/>
</radialGradient>
<linearGradient id="paint6_linear_1152_4726" x1="51.9788" y1="41.0234" x2="56.9792" y2="41.0234" gradientUnits="userSpaceOnUse">
<stop/>
<stop offset="1" stop-opacity="0"/>
</linearGradient>
<linearGradient id="paint7_linear_1152_4726" x1="11.9792" y1="33.022" x2="6.97883" y2="33.022" gradientUnits="userSpaceOnUse">
<stop/>
<stop offset="1" stop-opacity="0"/>
</linearGradient>
<radialGradient id="paint8_radial_1152_4726" cx="0" cy="0" r="1" gradientUnits="userSpaceOnUse" gradientTransform="translate(51.9743 59.0219) rotate(90) scale(6.00201 5.00177)">
<stop/>
<stop offset="1" stop-opacity="0"/>
</radialGradient>
<radialGradient id="paint9_radial_1152_4726" cx="0" cy="0" r="1" gradientUnits="userSpaceOnUse" gradientTransform="translate(11.9763 59.0219) rotate(180) scale(5.00177 6.00201)">
<stop/>
<stop offset="1" stop-opacity="0"/>
</radialGradient>
<linearGradient id="paint10_linear_1152_4726" x1="29.9777" y1="59.0256" x2="29.9777" y2="64.0223" gradientUnits="userSpaceOnUse">
<stop/>
<stop offset="1" stop-opacity="0"/>
</linearGradient>
<radialGradient id="paint11_radial_1152_4726" cx="0" cy="0" r="1" gradientUnits="userSpaceOnUse" gradientTransform="translate(34.9787 5.02323) scale(6.00771 3.00039)">
<stop/>
<stop offset="1" stop-opacity="0"/>
</radialGradient>
<linearGradient id="paint12_linear_1152_4726" x1="42.9793" y1="13.024" x2="45.9833" y2="10.02" gradientUnits="userSpaceOnUse">
<stop/>
<stop offset="1" stop-opacity="0"/>
</linearGradient>
<radialGradient id="paint13_radial_1152_4726" cx="0" cy="0" r="1" gradientUnits="userSpaceOnUse" gradientTransform="translate(51.98 23.0234) scale(4 6.38885)">
<stop/>
<stop offset="1" stop-opacity="0"/>
</radialGradient>
<linearGradient id="paint14_linear_1152_4726" x1="21.9801" y1="5.02274" x2="21.9801" y2="2.02552" gradientUnits="userSpaceOnUse">
<stop/>
<stop offset="1" stop-opacity="0"/>
</linearGradient>
<radialGradient id="paint15_radial_1152_4726" cx="0" cy="0" r="1" gradientUnits="userSpaceOnUse" gradientTransform="translate(11.9791 5.02274) rotate(-90) scale(3.001 4.00124)">
<stop/>
<stop offset="1" stop-opacity="0"/>
</radialGradient>
<linearGradient id="paint16_linear_1152_4726" x1="51.9788" y1="41.0234" x2="55.9776" y2="41.0234" gradientUnits="userSpaceOnUse">
<stop/>
<stop offset="1" stop-opacity="0"/>
</linearGradient>
<linearGradient id="paint17_linear_1152_4726" x1="11.9792" y1="33.022" x2="7.98042" y2="33.022" gradientUnits="userSpaceOnUse">
<stop/>
<stop offset="1" stop-opacity="0"/>
</linearGradient>
<radialGradient id="paint18_radial_1152_4726" cx="0" cy="0" r="1" gradientUnits="userSpaceOnUse" gradientTransform="translate(51.9794 59.0236) rotate(90) scale(5.00177 4.00124)">
<stop/>
<stop offset="1" stop-opacity="0"/>
</radialGradient>
<radialGradient id="paint19_radial_1152_4726" cx="0" cy="0" r="1" gradientUnits="userSpaceOnUse" gradientTransform="translate(11.9784 59.0174) rotate(180) scale(4.00124 5.00177)">
<stop/>
<stop offset="1" stop-opacity="0"/>
</radialGradient>
<linearGradient id="paint20_linear_1152_4726" x1="45.9758" y1="10.025" x2="9.98044" y2="61.0233" gradientUnits="userSpaceOnUse">
<stop stop-color="#EDEDED"/>
<stop offset="1" stop-color="#FCFCFC"/>
</linearGradient>
<linearGradient id="paint21_linear_1152_4726" x1="34" y1="25" x2="34" y2="49" gradientUnits="userSpaceOnUse">
<stop stop-color="#56D952"/>
<stop offset="1" stop-color="#29C95F"/>
</linearGradient>
<radialGradient id="paint22_radial_1152_4726" cx="0" cy="0" r="1" gradientUnits="userSpaceOnUse" gradientTransform="translate(39.9785 17.0267) rotate(180) scale(16.0028 16.0028)">
<stop/>
<stop offset="1" stop-opacity="0"/>
</radialGradient>
<radialGradient id="paint23_radial_1152_4726" cx="0" cy="0" r="1" gradientUnits="userSpaceOnUse" gradientTransform="translate(39.9793 11.024) rotate(-90) scale(12.0001 16.0001)">
<stop/>
<stop offset="1" stop-opacity="0"/>
</radialGradient>
<linearGradient id="paint24_linear_1152_4726" x1="39.9785" y1="14.357" x2="23.9795" y2="14.357" gradientUnits="userSpaceOnUse">
<stop/>
<stop offset="1" stop-opacity="0"/>
</linearGradient>
<linearGradient id="paint25_linear_1152_4726" x1="39.9785" y1="14.0244" x2="32.9787" y2="14.0244" gradientUnits="userSpaceOnUse">
<stop/>
<stop offset="1" stop-opacity="0"/>
</linearGradient>
<radialGradient id="paint26_radial_1152_4726" cx="0" cy="0" r="1" gradientUnits="userSpaceOnUse" gradientTransform="translate(39.978 17.0243) rotate(180) scale(7.00124 7.02916)">
<stop/>
<stop offset="1" stop-opacity="0"/>
</radialGradient>
<radialGradient id="paint27_radial_1152_4726" cx="0" cy="0" r="1" gradientUnits="userSpaceOnUse" gradientTransform="translate(39.9792 11.023) rotate(-90) scale(10.4625 7.03869)">
<stop/>
<stop offset="1" stop-opacity="0"/>
</radialGradient>
<linearGradient id="paint28_linear_1152_4726" x1="43.3109" y1="17.0229" x2="43.3109" y2="33.022" gradientUnits="userSpaceOnUse">
<stop/>
<stop offset="1" stop-opacity="0"/>
</linearGradient>
<linearGradient id="paint29_linear_1152_4726" x1="42.9783" y1="17.023" x2="42.9783" y2="24.0493" gradientUnits="userSpaceOnUse">
<stop/>
<stop offset="1" stop-opacity="0"/>
</linearGradient>
<radialGradient id="paint30_radial_1152_4726" cx="0" cy="0" r="1" gradientUnits="userSpaceOnUse" gradientTransform="translate(45.9793 17.024) scale(11.4689 7.02797)">
<stop/>
<stop offset="1" stop-opacity="0"/>
</radialGradient>
<radialGradient id="paint31_radial_1152_4726" cx="0" cy="0" r="1" gradientUnits="userSpaceOnUse" gradientTransform="translate(45.979 17.0239) scale(12 16)">
<stop/>
<stop offset="1" stop-opacity="0"/>
</radialGradient>
<linearGradient id="paint32_linear_1152_4726" x1="39.9793" y1="17.0226" x2="45.9793" y2="11.0225" gradientUnits="userSpaceOnUse">
<stop stop-color="#FEFEFE"/>
<stop offset="1" stop-color="#E9E9E9"/>
</linearGradient>
<clipPath id="clip0_1152_4726">
<rect width="64" height="64" fill="white"/>
</clipPath>
<clipPath id="clip1_1152_4726">
<rect width="64" height="64" fill="white"/>
</clipPath>
</defs>
</svg>
