<svg width="64" height="64" viewBox="0 0 64 64" fill="none" xmlns="http://www.w3.org/2000/svg">
<g id="font-x-generic" clip-path="url(#clip0_1239_4520)">
<g id="Blank-File" clip-path="url(#clip1_1239_4520)">
<g id="Shadow 2" opacity="0.1">
<path id="Vector" d="M11.9791 59.0256H51.9786V65.0239H11.9791V59.0256Z" fill="url(#paint0_linear_1239_4520)"/>
<path id="Vector_2" d="M34.979 1.02393V8.02393L41.979 1.02393H34.979Z" fill="url(#paint1_radial_1239_4520)"/>
<path id="Vector_3" d="M41.979 1.02393L34.979 8.02393L48.979 23.0239L57.979 14.0239V4.56893L54.434 1.02393H41.979Z" fill="url(#paint2_linear_1239_4520)"/>
<path id="Vector_4" d="M57.979 14.0239L48.979 23.0239H57.979V14.0239Z" fill="url(#paint3_radial_1239_4520)"/>
<path id="Vector_5" d="M11.9791 1.02393H34.978V5.02274H11.9791V1.02393Z" fill="url(#paint4_linear_1239_4520)"/>
<path id="Vector_6" d="M5.97717 1.02393H11.9754V5.02274H5.97717V1.02393Z" fill="url(#paint5_radial_1239_4520)"/>
<path id="Vector_7" d="M51.9786 23.0249H57.9769V59.0256H51.9786V23.0249Z" fill="url(#paint6_linear_1239_4520)"/>
<path id="Vector_8" d="M5.97717 5.02271H11.9754V59.0219H5.97717V5.02271Z" fill="url(#paint7_linear_1239_4520)"/>
<path id="Vector_9" d="M51.9786 59.0256H57.9769V65.0239H51.9786V59.0256Z" fill="url(#paint8_radial_1239_4520)"/>
<path id="Vector_10" d="M5.97717 59.0256H11.9754V65.0239H5.97717V59.0256Z" fill="url(#paint9_radial_1239_4520)"/>
</g>
<g id="Shadow 1" opacity="0.2">
<path id="Vector_11" d="M11.9791 59.0256H51.9786V65.0239H11.9791V59.0256Z" fill="url(#paint10_linear_1239_4520)"/>
<path id="Vector_12" d="M34.9791 1.02393V8.02397L41.9792 1.02393H34.9791Z" fill="url(#paint11_radial_1239_4520)"/>
<path id="Vector_13" d="M41.9792 1.02393L34.9791 8.02397L48.9792 23.0241L57.9793 14.024V4.56895L54.4343 1.02393H41.9792Z" fill="url(#paint12_linear_1239_4520)"/>
<path id="Vector_14" d="M57.9793 14.0239L48.9792 23.024H57.9793V14.0239Z" fill="url(#paint13_radial_1239_4520)"/>
<path id="Vector_15" d="M11.9791 1.02393H34.978V5.02274H11.9791V1.02393Z" fill="url(#paint14_linear_1239_4520)"/>
<path id="Vector_16" d="M11.9754 1.02393H5.97717V5.02274H11.9754V1.02393Z" fill="url(#paint15_radial_1239_4520)"/>
<path id="Vector_17" d="M51.9786 23.0249H57.9769V59.0256H51.9786V23.0249Z" fill="url(#paint16_linear_1239_4520)"/>
<path id="Vector_18" d="M5.97717 5.02271H11.9754V59.0219H5.97717V5.02271Z" fill="url(#paint17_linear_1239_4520)"/>
<path id="Vector_19" d="M51.9786 59.0256H57.9769V65.0239H51.9786V59.0256Z" fill="url(#paint18_radial_1239_4520)"/>
<path id="Vector_20" d="M5.97717 59.0256H11.9754V65.0239H5.97717V59.0256Z" fill="url(#paint19_radial_1239_4520)"/>
</g>
<path id="Paper" d="M10.9777 2.02563C10.4477 2.02663 9.93973 2.23761 9.56499 2.61235C9.19024 2.9871 8.97927 3.49507 8.97827 4.02504V60.0236C8.97827 61.131 9.87026 62.023 10.9815 62.023H52.9766C54.0878 62.023 54.9798 61.131 54.9798 60.0198V21.0257C54.9798 20.0241 54.3675 18.4178 52.9766 17.0231L39.9748 4.02126C39.508 3.4038 38.905 2.90245 38.2127 2.5563C37.5204 2.21015 36.7575 2.02854 35.9835 2.02563H10.9777Z" fill="url(#paint20_linear_1239_4520)"/>
</g>
<g id="Logo" clip-path="url(#clip2_1239_4520)">
<g id="Aa">
<path d="M20.2732 45.9055H18L24.5747 28H26.8128L33.3875 45.9055H31.1143L25.7637 30.8327H25.6238L20.2732 45.9055ZM21.1125 38.9111H30.275V40.8346H21.1125V38.9111Z" fill="#555555"/>
<path d="M39.8485 46.2202C38.9975 46.2202 38.2252 46.0599 37.5316 45.7393C36.838 45.4129 36.2872 44.9437 35.8792 44.3317C35.4712 43.7139 35.2672 42.9678 35.2672 42.0936C35.2672 41.3242 35.4188 40.7005 35.7219 40.2226C36.0249 39.7388 36.43 39.3599 36.9371 39.086C37.4442 38.8121 38.0037 38.608 38.6158 38.474C39.2336 38.3341 39.8543 38.2234 40.478 38.1418C41.294 38.0368 41.9555 37.9582 42.4626 37.9057C42.9755 37.8474 43.3486 37.7512 43.5817 37.6172C43.8207 37.4831 43.9402 37.25 43.9402 36.9178V36.8478C43.9402 35.9852 43.7041 35.3149 43.232 34.8369C42.7657 34.359 42.0575 34.12 41.1075 34.12C40.1224 34.12 39.3502 34.3357 38.7906 34.767C38.2311 35.1983 37.8376 35.6588 37.6103 36.1484L35.6519 35.4489C36.0016 34.6329 36.4679 33.9976 37.0508 33.543C37.6395 33.0825 38.2806 32.762 38.9742 32.5813C39.6736 32.3948 40.3614 32.3015 41.0375 32.3015C41.4689 32.3015 41.9643 32.354 42.5238 32.4589C43.0892 32.558 43.6342 32.7649 44.1588 33.0796C44.6892 33.3944 45.1292 33.8694 45.4789 34.5047C45.8286 35.14 46.0035 35.991 46.0035 37.0576V45.9055H43.9402V44.0869H43.8353C43.6954 44.3784 43.4622 44.6902 43.1358 45.0224C42.8094 45.3547 42.3752 45.6373 41.8331 45.8705C41.2911 46.1036 40.6295 46.2202 39.8485 46.2202ZM40.1632 44.3667C40.9792 44.3667 41.667 44.2064 42.2266 43.8858C42.7919 43.5653 43.2174 43.1514 43.503 42.6444C43.7945 42.1373 43.9402 41.6039 43.9402 41.0444V39.1559C43.8528 39.2609 43.6604 39.357 43.3631 39.4445C43.0717 39.5261 42.7337 39.5989 42.349 39.663C41.9701 39.7213 41.6 39.7738 41.2386 39.8204C40.8831 39.8612 40.5946 39.8962 40.3731 39.9253C39.8368 39.9953 39.3356 40.1089 38.8693 40.2663C38.4088 40.4178 38.0358 40.6481 37.7502 40.957C37.4704 41.2601 37.3305 41.6739 37.3305 42.1985C37.3305 42.9154 37.5957 43.4574 38.1262 43.8246C38.6624 44.186 39.3414 44.3667 40.1632 44.3667Z" fill="#555555"/>
</g>
</g>
<g id="Blank-File-Top">
<g id="Curl">
<g id="Shadow">
<path id="Vector_21" opacity="0.05" d="M39.9784 17.0229H23.9794V33.022H39.9784V17.0229Z" fill="url(#paint21_radial_1239_4520)"/>
<path id="Vector_22" opacity="0.05" d="M23.9791 2.02393V11.024H39.9792V4.02394C38.6412 2.33093 36.9792 2.02393 35.9792 2.02393H23.9791Z" fill="url(#paint22_radial_1239_4520)"/>
<path id="Vector_23" opacity="0.05" d="M39.9784 11.0247H23.9794V17.0229H39.9784V11.0247Z" fill="url(#paint23_linear_1239_4520)"/>
<path id="Vector_24" opacity="0.2" d="M39.9785 11.0247H28.9799V17.0229H39.9785V11.0247Z" fill="url(#paint24_linear_1239_4520)"/>
<path id="Vector_25" opacity="0.2" d="M39.9785 17.0229H28.9799V28.0216H39.9785V17.0229Z" fill="url(#paint25_radial_1239_4520)"/>
<path id="Vector_26" opacity="0.2" d="M28.9791 2.02393V11.024H39.9792V4.02394C39.5247 3.43832 38.9523 2.95457 38.2992 2.60393L35.9792 2.02393H28.9791Z" fill="url(#paint26_radial_1239_4520)"/>
<path id="Vector_27" opacity="0.05" d="M39.9785 17.0229V33.022H45.9767V17.0229H39.9785Z" fill="url(#paint27_linear_1239_4520)"/>
<path id="Vector_28" opacity="0.2" d="M39.9785 17.0268V28.0254H45.9767V17.0268H39.9785Z" fill="url(#paint28_linear_1239_4520)"/>
<path id="Vector_29" opacity="0.2" d="M45.9792 17.0239V28.024H54.9793V21.024L54.5393 19.2639C54.1607 18.4281 53.6319 17.6689 52.9793 17.0239H45.9792Z" fill="url(#paint29_radial_1239_4520)"/>
<path id="Vector_30" opacity="0.05" d="M45.979 17.0239V33.0239H54.979V21.0239C54.979 20.8919 54.953 20.7239 54.939 20.5709C54.791 19.5779 54.176 18.2209 52.979 17.0239H45.979Z" fill="url(#paint30_radial_1239_4520)"/>
</g>
<path id="Paper_2" d="M37.9791 2.44141V17.0193C37.9791 18.1267 38.8711 19.0187 39.9823 19.0187H54.4431C54.0748 18.2764 53.5871 17.5996 52.9993 17.0155L39.9974 4.01372C39.4687 3.33484 38.7824 2.79515 37.998 2.44141H37.9791Z" fill="url(#paint31_linear_1239_4520)"/>
</g>
</g>
</g>
<defs>
<linearGradient id="paint0_linear_1239_4520" x1="29.9776" y1="59.0256" x2="29.9776" y2="65.0239" gradientUnits="userSpaceOnUse">
<stop/>
<stop offset="1" stop-opacity="0"/>
</linearGradient>
<radialGradient id="paint1_radial_1239_4520" cx="0" cy="0" r="1" gradientUnits="userSpaceOnUse" gradientTransform="translate(34.978 5.02433) scale(6.32269 4.00052)">
<stop/>
<stop offset="1" stop-opacity="0"/>
</radialGradient>
<linearGradient id="paint2_linear_1239_4520" x1="42.979" y1="13.0239" x2="46.727" y2="9.27593" gradientUnits="userSpaceOnUse">
<stop/>
<stop offset="1" stop-opacity="0"/>
</linearGradient>
<radialGradient id="paint3_radial_1239_4520" cx="0" cy="0" r="1" gradientUnits="userSpaceOnUse" gradientTransform="translate(51.9788 23.0241) scale(4.99995 6.94012)">
<stop/>
<stop offset="1" stop-opacity="0"/>
</radialGradient>
<linearGradient id="paint4_linear_1239_4520" x1="21.9799" y1="5.02274" x2="21.9799" y2="1.02393" gradientUnits="userSpaceOnUse">
<stop/>
<stop offset="1" stop-opacity="0"/>
</linearGradient>
<radialGradient id="paint5_radial_1239_4520" cx="0" cy="0" r="1" gradientUnits="userSpaceOnUse" gradientTransform="translate(11.9793 5.02566) rotate(-90) scale(4.00124 5.00177)">
<stop/>
<stop offset="1" stop-opacity="0"/>
</radialGradient>
<linearGradient id="paint6_linear_1239_4520" x1="51.9786" y1="41.0234" x2="56.979" y2="41.0234" gradientUnits="userSpaceOnUse">
<stop/>
<stop offset="1" stop-opacity="0"/>
</linearGradient>
<linearGradient id="paint7_linear_1239_4520" x1="11.9792" y1="33.022" x2="6.97877" y2="33.022" gradientUnits="userSpaceOnUse">
<stop/>
<stop offset="1" stop-opacity="0"/>
</linearGradient>
<radialGradient id="paint8_radial_1239_4520" cx="0" cy="0" r="1" gradientUnits="userSpaceOnUse" gradientTransform="translate(51.9742 59.0219) rotate(90) scale(6.00201 5.00177)">
<stop/>
<stop offset="1" stop-opacity="0"/>
</radialGradient>
<radialGradient id="paint9_radial_1239_4520" cx="0" cy="0" r="1" gradientUnits="userSpaceOnUse" gradientTransform="translate(11.9763 59.0219) rotate(180) scale(5.00177 6.00201)">
<stop/>
<stop offset="1" stop-opacity="0"/>
</radialGradient>
<linearGradient id="paint10_linear_1239_4520" x1="29.9776" y1="59.0256" x2="29.9776" y2="64.0223" gradientUnits="userSpaceOnUse">
<stop/>
<stop offset="1" stop-opacity="0"/>
</linearGradient>
<radialGradient id="paint11_radial_1239_4520" cx="0" cy="0" r="1" gradientUnits="userSpaceOnUse" gradientTransform="translate(34.9786 5.02323) scale(6.00771 3.00039)">
<stop/>
<stop offset="1" stop-opacity="0"/>
</radialGradient>
<linearGradient id="paint12_linear_1239_4520" x1="42.9792" y1="13.024" x2="45.9832" y2="10.02" gradientUnits="userSpaceOnUse">
<stop/>
<stop offset="1" stop-opacity="0"/>
</linearGradient>
<radialGradient id="paint13_radial_1239_4520" cx="0" cy="0" r="1" gradientUnits="userSpaceOnUse" gradientTransform="translate(51.9799 23.0234) scale(4 6.38885)">
<stop/>
<stop offset="1" stop-opacity="0"/>
</radialGradient>
<linearGradient id="paint14_linear_1239_4520" x1="21.9799" y1="5.02274" x2="21.9799" y2="2.02552" gradientUnits="userSpaceOnUse">
<stop/>
<stop offset="1" stop-opacity="0"/>
</linearGradient>
<radialGradient id="paint15_radial_1239_4520" cx="0" cy="0" r="1" gradientUnits="userSpaceOnUse" gradientTransform="translate(11.979 5.02274) rotate(-90) scale(3.001 4.00124)">
<stop/>
<stop offset="1" stop-opacity="0"/>
</radialGradient>
<linearGradient id="paint16_linear_1239_4520" x1="51.9786" y1="41.0234" x2="55.9775" y2="41.0234" gradientUnits="userSpaceOnUse">
<stop/>
<stop offset="1" stop-opacity="0"/>
</linearGradient>
<linearGradient id="paint17_linear_1239_4520" x1="11.9792" y1="33.022" x2="7.98036" y2="33.022" gradientUnits="userSpaceOnUse">
<stop/>
<stop offset="1" stop-opacity="0"/>
</linearGradient>
<radialGradient id="paint18_radial_1239_4520" cx="0" cy="0" r="1" gradientUnits="userSpaceOnUse" gradientTransform="translate(51.9793 59.0236) rotate(90) scale(5.00177 4.00124)">
<stop/>
<stop offset="1" stop-opacity="0"/>
</radialGradient>
<radialGradient id="paint19_radial_1239_4520" cx="0" cy="0" r="1" gradientUnits="userSpaceOnUse" gradientTransform="translate(11.9783 59.0174) rotate(180) scale(4.00124 5.00177)">
<stop/>
<stop offset="1" stop-opacity="0"/>
</radialGradient>
<linearGradient id="paint20_linear_1239_4520" x1="45.9759" y1="10.025" x2="9.98047" y2="61.0233" gradientUnits="userSpaceOnUse">
<stop stop-color="#EDEDED"/>
<stop offset="1" stop-color="#FCFCFC"/>
</linearGradient>
<radialGradient id="paint21_radial_1239_4520" cx="0" cy="0" r="1" gradientUnits="userSpaceOnUse" gradientTransform="translate(39.9784 17.0267) rotate(180) scale(16.0028 16.0028)">
<stop/>
<stop offset="1" stop-opacity="0"/>
</radialGradient>
<radialGradient id="paint22_radial_1239_4520" cx="0" cy="0" r="1" gradientUnits="userSpaceOnUse" gradientTransform="translate(39.9792 11.024) rotate(-90) scale(12.0001 16.0001)">
<stop/>
<stop offset="1" stop-opacity="0"/>
</radialGradient>
<linearGradient id="paint23_linear_1239_4520" x1="39.9784" y1="14.357" x2="23.9794" y2="14.357" gradientUnits="userSpaceOnUse">
<stop/>
<stop offset="1" stop-opacity="0"/>
</linearGradient>
<linearGradient id="paint24_linear_1239_4520" x1="39.9785" y1="14.0244" x2="32.9787" y2="14.0244" gradientUnits="userSpaceOnUse">
<stop/>
<stop offset="1" stop-opacity="0"/>
</linearGradient>
<radialGradient id="paint25_radial_1239_4520" cx="0" cy="0" r="1" gradientUnits="userSpaceOnUse" gradientTransform="translate(39.978 17.0243) rotate(180) scale(7.00124 7.02916)">
<stop/>
<stop offset="1" stop-opacity="0"/>
</radialGradient>
<radialGradient id="paint26_radial_1239_4520" cx="0" cy="0" r="1" gradientUnits="userSpaceOnUse" gradientTransform="translate(39.9792 11.023) rotate(-90) scale(10.4625 7.03869)">
<stop/>
<stop offset="1" stop-opacity="0"/>
</radialGradient>
<linearGradient id="paint27_linear_1239_4520" x1="43.3109" y1="17.0229" x2="43.3109" y2="33.022" gradientUnits="userSpaceOnUse">
<stop/>
<stop offset="1" stop-opacity="0"/>
</linearGradient>
<linearGradient id="paint28_linear_1239_4520" x1="42.9783" y1="17.023" x2="42.9783" y2="24.0493" gradientUnits="userSpaceOnUse">
<stop/>
<stop offset="1" stop-opacity="0"/>
</linearGradient>
<radialGradient id="paint29_radial_1239_4520" cx="0" cy="0" r="1" gradientUnits="userSpaceOnUse" gradientTransform="translate(45.9792 17.024) scale(11.4689 7.02797)">
<stop/>
<stop offset="1" stop-opacity="0"/>
</radialGradient>
<radialGradient id="paint30_radial_1239_4520" cx="0" cy="0" r="1" gradientUnits="userSpaceOnUse" gradientTransform="translate(45.979 17.0239) scale(12 16)">
<stop/>
<stop offset="1" stop-opacity="0"/>
</radialGradient>
<linearGradient id="paint31_linear_1239_4520" x1="39.9793" y1="17.0226" x2="45.9793" y2="11.0225" gradientUnits="userSpaceOnUse">
<stop stop-color="#FEFEFE"/>
<stop offset="1" stop-color="#E9E9E9"/>
</linearGradient>
<clipPath id="clip0_1239_4520">
<rect width="64" height="64" fill="white"/>
</clipPath>
<clipPath id="clip1_1239_4520">
<rect width="64" height="64" fill="white"/>
</clipPath>
<clipPath id="clip2_1239_4520">
<rect width="28" height="28" fill="white" transform="translate(18 23)"/>
</clipPath>
</defs>
</svg>
