<?xml version="1.0" encoding="UTF-8" standalone="no"?>
<svg
   width="64"
   height="64"
   version="1.1"
   id="svg3"
   sodipodi:docname="bitmap2component.svg"
   inkscape:version="1.4.4 (dcaf3e7d9e, 2026-05-05)"
   xmlns:inkscape="http://www.inkscape.org/namespaces/inkscape"
   xmlns:sodipodi="http://sodipodi.sourceforge.net/DTD/sodipodi-0.dtd"
   xmlns:xlink="http://www.w3.org/1999/xlink"
   xmlns="http://www.w3.org/2000/svg"
   xmlns:svg="http://www.w3.org/2000/svg">
  <sodipodi:namedview
     id="namedview1"
     pagecolor="#ffffff"
     bordercolor="#000000"
     borderopacity="0.25"
     inkscape:showpageshadow="2"
     inkscape:pageopacity="0.0"
     inkscape:pagecheckerboard="0"
     inkscape:deskcolor="#d1d1d1"
     inkscape:current-layer="svg3" />
  <defs
     id="defs3">
    <linearGradient
       id="linearGradient1005-5"
       x1="3.7291999"
       x2="12.359"
       y1="13.306"
       y2="4.6760001"
       gradientTransform="matrix(3.7795642,0,0,3.7795642,6.7725348,-14.974426)"
       gradientUnits="userSpaceOnUse">
      <stop
         stop-color="#232223"
         offset="0"
         id="stop1" />
      <stop
         stop-color="#49484d"
         offset="1"
         id="stop2" />
    </linearGradient>
    <linearGradient
       inkscape:collect="always"
       id="linearGradient37376">
      <stop
         style="stop-color:#f3f3f3;stop-opacity:1;"
         offset="0"
         id="stop37372" />
      <stop
         style="stop-color:#dadde2;stop-opacity:1;"
         offset="1"
         id="stop37374" />
    </linearGradient>
    <radialGradient
       id="gradient_ds_br"
       cx="0"
       cy="0"
       r="1"
       gradientUnits="userSpaceOnUse"
       gradientTransform="matrix(13.998399,0.00477622,-0.00477841,14.004799,47.5016,48.4952)">
      <stop
         offset="0.65"
         id="stop3" />
      <stop
         offset="1"
         stop-opacity="0"
         id="stop4" />
    </radialGradient>
    <linearGradient
       id="gradient_ds_b"
       x1="30.448999"
       y1="48.5"
       x2="30.492201"
       y2="62.500301"
       gradientUnits="userSpaceOnUse">
      <stop
         offset="0.653846"
         id="stop5" />
      <stop
         offset="1"
         stop-opacity="0"
         id="stop6" />
    </linearGradient>
    <radialGradient
       id="gradient_ds_bl"
       cx="0"
       cy="0"
       r="1"
       gradientUnits="userSpaceOnUse"
       gradientTransform="matrix(0,14,-14,0,16.5,48.5)">
      <stop
         offset="0.65"
         id="stop7" />
      <stop
         offset="1"
         stop-opacity="0"
         id="stop8" />
    </radialGradient>
    <linearGradient
       id="gradient_ds_r"
       x1="47.5"
       y1="33.5"
       x2="61.5"
       y2="33.5009"
       gradientUnits="userSpaceOnUse">
      <stop
         offset="0.649038"
         id="stop9" />
      <stop
         offset="1"
         stop-opacity="0"
         id="stop10" />
    </linearGradient>
    <linearGradient
       id="gradient_ds_l"
       x1="16.5"
       y1="33.894699"
       x2="2.5"
       y2="33.894699"
       gradientUnits="userSpaceOnUse">
      <stop
         offset="0.649038"
         id="stop11" />
      <stop
         offset="1"
         stop-opacity="0"
         id="stop12" />
    </linearGradient>
    <radialGradient
       id="gradient_ds_tr"
       cx="0"
       cy="0"
       r="1"
       gradientTransform="matrix(0.00843236,-14,14.0084,0.0189842,47.4916,18.5)"
       gradientUnits="userSpaceOnUse">
      <stop
         offset="0.65"
         id="stop13" />
      <stop
         offset="1"
         stop-opacity="0"
         id="stop14" />
    </radialGradient>
    <linearGradient
       id="gradient_ds_t"
       x1="29.98"
       y1="18.5"
       x2="29.9158"
       y2="4.4998598"
       gradientUnits="userSpaceOnUse">
      <stop
         offset="0.649038"
         id="stop15" />
      <stop
         offset="1"
         stop-opacity="0"
         id="stop16" />
    </linearGradient>
    <radialGradient
       id="gradient_ds_tl"
       cx="0"
       cy="0"
       r="1"
       gradientTransform="matrix(-0.00843236,-14,-14.0084,0.0189842,16.5084,18.5)"
       gradientUnits="userSpaceOnUse">
      <stop
         offset="0.65"
         id="stop17" />
      <stop
         offset="1"
         stop-opacity="0"
         id="stop18" />
    </radialGradient>
    <linearGradient
       inkscape:collect="always"
       xlink:href="#linearGradient37376"
       id="linearGradient18"
       x1="59.5"
       y1="4.5"
       x2="4.5"
       y2="59.5"
       gradientUnits="userSpaceOnUse" />
    <clipPath
       clipPathUnits="userSpaceOnUse"
       id="clipPath991">
      <path
         style="fill:none;stroke:#000000;stroke-width:0.999999px;stroke-linecap:butt;stroke-linejoin:miter;stroke-opacity:1"
         d="M 1,22.500371 24.964897,-1.2376972 1,-1.2724678 Z"
         id="path993"
         sodipodi:nodetypes="cccc" />
    </clipPath>
  </defs>
  <g
     id="ds"
     opacity="0.25">
    <path
       id="ds-br"
       d="m 47.5,48.5 h 14 v 14 h -14 z"
       fill="url(#gradient_ds_br)"
       style="fill:url(#gradient_ds_br)" />
    <path
       id="ds-b"
       d="m 16.5,48.5 h 31 v 14 h -31 z"
       fill="url(#gradient_ds_b)"
       style="fill:url(#gradient_ds_b)" />
    <path
       id="ds-bl"
       d="m 2.5,48.5 h 14 v 14 h -14 z"
       fill="url(#gradient_ds_bl)"
       style="fill:url(#gradient_ds_bl)" />
    <path
       id="ds-r"
       d="m 47.5,18.5 h 14 v 30 h -14 z"
       fill="url(#gradient_ds_r)"
       style="fill:url(#gradient_ds_r)" />
    <path
       id="ds-l"
       d="m 2.5,18.5 h 14 v 30 h -14 z"
       fill="url(#gradient_ds_l)"
       style="fill:url(#gradient_ds_l)" />
    <path
       id="ds-tr"
       d="m 47.5,4.5 h 14 v 14 h -14 z"
       fill="url(#gradient_ds_tr)"
       style="fill:url(#gradient_ds_tr)" />
    <path
       id="ds-t"
       d="m 16.5,4.5 h 31 v 14 h -31 z"
       fill="url(#gradient_ds_t)"
       style="fill:url(#gradient_ds_t)" />
    <path
       id="ds-tl"
       d="m 16.5,4.5 h -14 v 14 h 14 z"
       fill="url(#gradient_ds_tl)"
       style="fill:url(#gradient_ds_tl)" />
  </g>
  <rect
     x="4.5"
     y="4.5"
     width="55"
     height="55"
     stroke-linecap="round"
     stroke-width="2.74441"
     id="bg"
     style="display:inline;fill:url(#linearGradient18);fill-opacity:1"
     rx="10" />
  <g
     id="art">
    <g
       id="g1"
       transform="translate(-2.2681066e-4,1.4141093)">
      <g
         id="g4595"
         transform="matrix(1.1030313,0,0,1.1030334,24.353824,27.008354)"
         style="display:inline;stroke-width:0.906592">
        <g
           id="g964"
           transform="matrix(2.04,0,0,2.04,-24.120841,-16.101471)"
           style="stroke-width:0.444408">
          <path
             id="path4007"
             style="display:inline;fill:#1a81c4;fill-opacity:1;stroke-width:0.444408"
             class="cls-2"
             d="M 20.987118,3.2897236 17.286032,6.990803 A 2.6747999,2.6747999 0 0 0 18.745114,7.4239265 2.6747999,2.6747999 0 0 0 21.420243,4.7488029 2.6747999,2.6747999 0 0 0 20.987118,3.2897236 Z M 14.115284,10.161545 6.1298254,18.147856 H 24.366183 a 0.5253,0.5253 0 0 0 0.440936,-0.811564 l -3.115197,-4.79387 a 1.0508,1.0508 0 0 0 -1.662191,-0.130197 l -1.320204,1.469495 a 1.0509,1.0509 0 0 1 -1.596224,-0.03906 z" />
        </g>
      </g>
      <g
         id="g983"
         transform="matrix(2,0,0,2.019111,5.296958,9.0338097)"
         style="display:inline;stroke-width:0.497628"
         clip-path="url(#clipPath991)">
        <path
           id="path414"
           style="display:inline;fill:#545454;fill-opacity:1;stroke-width:0.444408"
           class="cls-2"
           d="m 17.012617,2.7118959 a 2.6747999,2.6747999 0 0 0 -0.931348,1.7975927 h 1.051998 V 2.7118959 Z m 1.005994,0 v 1.7975927 h 1.781104 V 2.7118959 Z M 20.68506,2.90806 v 1.6014286 h 0.724767 A 2.6747999,2.6747999 0 0 0 20.68506,2.90806 Z m -4.532616,2.495451 a 2.6747999,2.6747999 0 0 0 0.980823,1.479911 V 5.403511 Z m 1.866167,0 v 1.7984608 h 1.781104 V 5.403511 Z m 2.666449,0 V 6.5909117 A 2.6747999,2.6747999 0 0 0 21.338652,5.403511 Z M 10.39163,8.0951262 10.019264,8.819024 v 1.0745629 h 1.781105 V 8.0951262 Z m 2.294083,0.30987 V 9.8935869 H 13.89742 Z M 9.0054583,10.787609 8.0801866,12.585202 H 9.13392 v -1.797593 z m 1.0138057,0 v 1.797593 h 1.781105 v -1.797593 z m 2.666449,0 v 1.797593 h 1.781105 v -1.797593 z m 2.666449,0.892287 v 0.905306 h 0.736919 z m 5.478719,0.384516 a 1.0508,1.0508 0 0 0 -0.145821,0.0069 v 0.513846 h 1.034637 l -0.02777,-0.0434 A 1.0508,1.0508 0 0 0 20.830881,12.064412 Z M 7.6201548,13.479225 7.3528155,13.998278 v 1.279407 H 9.13392 v -1.79846 z m 2.3991092,0 v 1.79846 h 1.781105 v -1.79846 z m 2.666449,0 v 1.79846 h 1.781105 v -1.79846 z m 2.666449,0 v 1.79846 h 1.781105 v -1.41134 a 1.0509,1.0509 0 0 1 -0.01996,-0.02344 l -0.295987,-0.36368 z m 3.718446,0 -0.361081,0.401876 a 1.0509,1.0509 0 0 1 -0.690916,0.344589 v 1.051995 h 1.781104 v -1.79846 z m 1.614452,0 v 1.79846 h 1.781104 v -1.544141 l -0.164917,-0.254319 z m 2.666449,1.617052 v 2.871288 H 22.466164 V 16.17084 H 20.68506 v 1.796725 H 19.799715 V 16.17084 h -1.781104 v 1.796725 H 17.133267 V 16.17084 h -1.781105 v 1.977265 h 9.014021 a 0.5253,0.5253 0 0 0 0.440936,-0.811564 z M 6.4674712,15.717753 5.6107703,17.381676 a 0.5253,0.5253 0 0 0 0.4669758,0.766429 h 0.3897251 z m 0.8853443,0.453087 v 1.977265 H 9.13392 V 16.17084 Z m 2.6664485,0 v 1.977265 h 1.781105 V 16.17084 Z m 2.666449,0 v 1.977265 h 1.781105 V 16.17084 Z"
           transform="matrix(1.1250919,0,0,1.114445,-3.7745878,-0.02386942)" />
      </g>
    </g>
    <path
       style="display:inline;fill:none;stroke:#545454;stroke-width:1.5;stroke-linecap:round;stroke-linejoin:miter;stroke-miterlimit:4;stroke-dasharray:none;stroke-opacity:1"
       d="M 11.75,52.249999 52.25,11.750002"
       id="path995"
       sodipodi:nodetypes="cc"
       clip-path="none" />
  </g>
</svg>
