<?xml version="1.0" encoding="UTF-8" standalone="no"?>
<svg xmlns:inkscape="http://www.inkscape.org/namespaces/inkscape" xmlns:sodipodi="http://sodipodi.sourceforge.net/DTD/sodipodi-0.dtd" xmlns="http://www.w3.org/2000/svg" xmlns:svg="http://www.w3.org/2000/svg" width="64" height="64" version="1.1" viewBox="0 0 64 64" id="svg8" sodipodi:docname="flareget.svg" inkscape:version="1.4.2 (ebf0e940d0, 2025-05-08)">
  <sodipodi:namedview id="namedview8" pagecolor="#ffffff" bordercolor="#000000" borderopacity="0.25" inkscape:showpageshadow="2" inkscape:pageopacity="0.0" inkscape:pagecheckerboard="0" inkscape:deskcolor="#d1d1d1" inkscape:current-layer="svg8"/>
  <defs id="defs5">
    <filter id="filter1057-2" x="-0.026999999" y="-0.026999999" width="1.054" height="1.054" color-interpolation-filters="sRGB">
      <feGaussianBlur stdDeviation="0.61875" id="feGaussianBlur1"/>
    </filter>
    <linearGradient id="linearGradient1053-7" x1="-127" x2="-72" y1="60" y2="5" gradientTransform="translate(131.497,-0.51)" gradientUnits="userSpaceOnUse">
      <stop stop-color="#8cd750" offset="0" id="stop1"/>
      <stop stop-color="#7dcd32" stop-opacity=".99608" offset=".49585" id="stop2"/>
      <stop stop-color="#87d241" stop-opacity=".99608" offset="1" id="stop3"/>
    </linearGradient>
    <linearGradient id="linearGradient1277" x1="32.153" x2="32.153" y1="46.593" y2="4.0937" gradientTransform="matrix(1.0289,0,0,1.0289,-0.892,-0.092)" gradientUnits="userSpaceOnUse">
      <stop stop-color="#d1ecba" offset="0" id="stop4"/>
      <stop stop-color="#d1ecba" stop-opacity="0" offset="1" id="stop5"/>
    </linearGradient>
    <filter id="filter2105" x="-0.29795929" y="-0.12894993" width="1.5959186" height="1.2578999" color-interpolation-filters="sRGB">
      <feGaussianBlur stdDeviation="0.44165673" id="feGaussianBlur5"/>
    </filter>
  <radialGradient id="gradient_ds_br" cx="0" cy="0" r="1" gradientUnits="userSpaceOnUse" gradientTransform="matrix(13.998399,0.00477622,-0.00477841,14.004799,47.5016,48.4952)">
      <stop offset="0.65" id="stop1"/>
      <stop offset="1" stop-opacity="0" id="stop2"/>
    </radialGradient><linearGradient id="gradient_ds_b" x1="30.448999" y1="48.5" x2="30.492201" y2="62.500301" gradientUnits="userSpaceOnUse">
      <stop offset="0.653846" id="stop3"/>
      <stop offset="1" stop-opacity="0" id="stop4"/>
    </linearGradient><radialGradient id="gradient_ds_bl" cx="0" cy="0" r="1" gradientUnits="userSpaceOnUse" gradientTransform="matrix(0,14,-14,0,16.5,48.5)">
      <stop offset="0.65" id="stop5"/>
      <stop offset="1" stop-opacity="0" id="stop6"/>
    </radialGradient><linearGradient id="gradient_ds_r" x1="47.5" y1="33.5" x2="61.5" y2="33.5009" gradientUnits="userSpaceOnUse">
      <stop offset="0.649038" id="stop7"/>
      <stop offset="1" stop-opacity="0" id="stop8"/>
    </linearGradient><linearGradient id="gradient_ds_l" x1="16.5" y1="33.894699" x2="2.5" y2="33.894699" gradientUnits="userSpaceOnUse">
      <stop offset="0.649038" id="stop9"/>
      <stop offset="1" stop-opacity="0" id="stop10"/>
    </linearGradient><radialGradient id="gradient_ds_tr" cx="0" cy="0" r="1" gradientTransform="matrix(0.00843236,-14,14.0084,0.0189842,47.4916,18.5)" gradientUnits="userSpaceOnUse">
      <stop offset="0.65" id="stop11"/>
      <stop offset="1" stop-opacity="0" id="stop12"/>
    </radialGradient><linearGradient id="gradient_ds_t" x1="29.98" y1="18.5" x2="29.9158" y2="4.4998598" gradientUnits="userSpaceOnUse">
      <stop offset="0.649038" id="stop13"/>
      <stop offset="1" stop-opacity="0" id="stop14"/>
    </linearGradient><radialGradient id="gradient_ds_tl" cx="0" cy="0" r="1" gradientTransform="matrix(-0.00843236,-14,-14.0084,0.0189842,16.5084,18.5)" gradientUnits="userSpaceOnUse">
      <stop offset="0.65" id="stop15"/>
      <stop offset="1" stop-opacity="0" id="stop16"/>
    </radialGradient></defs>
  
  <g id="ds" opacity="0.25">
    <path id="ds-br" d="m 47.5,48.5 h 14 v 14 h -14 z" fill="url(#gradient_ds_br)" style="fill:url(#gradient_ds_br)"/>
    <path id="ds-b" d="m 16.5,48.5 h 31 v 14 h -31 z" fill="url(#gradient_ds_b)" style="fill:url(#gradient_ds_b)"/>
    <path id="ds-bl" d="m 2.5,48.5 h 14 v 14 h -14 z" fill="url(#gradient_ds_bl)" style="fill:url(#gradient_ds_bl)"/>
    <path id="ds-r" d="m 47.5,18.5 h 14 v 30 h -14 z" fill="url(#gradient_ds_r)" style="fill:url(#gradient_ds_r)"/>
    <path id="ds-l" d="m 2.5,18.5 h 14 v 30 h -14 z" fill="url(#gradient_ds_l)" style="fill:url(#gradient_ds_l)"/>
    <path id="ds-tr" d="m 47.5,4.5 h 14 v 14 h -14 z" fill="url(#gradient_ds_tr)" style="fill:url(#gradient_ds_tr)"/>
    <path id="ds-t" d="m 16.5,4.5 h 31 v 14 h -31 z" fill="url(#gradient_ds_t)" style="fill:url(#gradient_ds_t)"/>
    <path id="ds-tl" d="m 16.5,4.5 h -14 v 14 h 14 z" fill="url(#gradient_ds_tl)" style="fill:url(#gradient_ds_tl)"/>
  </g><rect x="4.5" y="4.5" width="55" height="55" fill="url(#linearGradient1053-7)" stroke-linecap="round" stroke-width="2.7444" id="bg" style="fill:url(#linearGradient1053-7)" rx="10"/>
  <g id="art"><path d="m 19.5,4.5 c -8.31,0 -15,6.69 -15,15 v 2.7988 L 32.191,47.8478 59.5,22.3068 v -2.8066 c 0,-8.31 -6.69,-15 -15,-15 z" fill="url(#linearGradient1277)" id="path6" style="fill:url(#linearGradient1277)"/><rect transform="matrix(-0.70710678,0.70710678,0.70710678,0.70710678,0,0)" x="8.63869" y="39.26923" width="3.1820145" height="17.69408" ry="1.5910072" fill="#fafafa" stroke-width="3.77962" id="rect7"/><path transform="matrix(3.7796,0,0,3.7796,-0.082,1.256)" d="m 8.0959,4.1418 c -0.2332,0 -0.42064,0.18795 -0.42064,0.42115 v 7.3782 c 0,0.02186 0.00302,0.04261 0.0062,0.06356 8.244e-4,0.0053 5.196e-4,0.01072 0.00155,0.01602 0.00466,0.02441 0.012529,0.04758 0.021187,0.07028 0.00105,0.0027 0.00148,0.0056 0.00258,0.0083 0.042594,0.10511 0.12587,0.18891 0.23099,0.2315 0.00357,0.0015 0.00725,0.0023 0.010852,0.0036 0.021897,0.0082 0.044217,0.01515 0.067695,0.01964 0.026507,0.0052 0.053197,0.0078 0.080097,0.0078 0.027375,-3.4e-5 0.054209,-0.0028 0.080097,-0.0078 1.62e-4,-3.1e-5 3.551e-4,3.2e-5 5.168e-4,0 0.019902,-0.0039 0.03858,-0.01052 0.05736,-0.01705 0.00709,-0.0025 0.014792,-0.0034 0.021704,-0.0062 0.023,-0.0094 0.044382,-0.02147 0.065111,-0.03462 0.00234,-0.0015 0.00492,-0.0026 0.00723,-0.0041 0.023591,-0.01563 0.045719,-0.0338 0.065628,-0.05374 l 0.00258,-0.0026 2.7124002,-2.7124 c 0.1649,-0.1649 0.1649,-0.4304 0,-0.5953 -0.1649,-0.1649 -0.4304,-0.1649 -0.5953,0 l -1.9967002,1.9967 v -6.3618 c 0,-0.2332 -0.18795,-0.42115 -0.42115,-0.42115 z" fill="#80d03a" filter="url(#filter2105)" id="path7"/><path d="m 31.921,16.91 c -0.8814,0 -1.5899,0.71038 -1.5899,1.5918 v 27.887 c 0,0.08262 0.01141,0.16105 0.02343,0.24023 0.0031,0.02003 0.002,0.04052 0.0059,0.06055 0.01761,0.09226 0.04736,0.17983 0.08008,0.26563 0.004,0.0102 0.0056,0.02117 0.0098,0.03137 0.16099,0.39727 0.47574,0.714 0.87305,0.87498 0.01349,0.0057 0.0274,0.0087 0.04102,0.01361 0.08276,0.03099 0.16712,0.05726 0.25586,0.07423 0.10019,0.01965 0.20106,0.02948 0.30273,0.02948 0.10347,-1.28e-4 0.20489,-0.01058 0.30274,-0.02948 6.12e-4,-1.17e-4 0.0013,1.21e-4 0.002,0 0.07522,-0.01474 0.14582,-0.03976 0.2168,-0.06444 0.0268,-0.0094 0.05591,-0.01285 0.08203,-0.02343 0.08693,-0.03553 0.16775,-0.08115 0.24609,-0.13085 0.0088,-0.0057 0.01859,-0.0098 0.02733,-0.0155 0.08916,-0.05907 0.1728,-0.12775 0.24805,-0.20312 l 10.262,-10.262 c 0.62326,-0.62326 0.62326,-1.6267 0,-2.25 -0.62326,-0.62326 -1.6267,-0.62326 -2.25,0 l -7.5467,7.5467 v -24.045 c 0,-0.8814 -0.71038,-1.5918 -1.5918,-1.5918 z" fill="#fafafa" stroke-width="3.7796" id="path8"/></g>
  
  
  
</svg>
