<svg width="16" height="16" viewBox="0 0 16 16" fill="none" xmlns="http://www.w3.org/2000/svg">
<g id="emblem-default-symbolic">
<path id="Subtract" fill-rule="evenodd" clip-rule="evenodd" d="M13 0C14.1046 0 15 0.895431 15 2V13C15 14.1046 14.1046 15 13 15H2C0.895431 15 5.63733e-08 14.1046 0 13V2C0 0.895431 0.895431 5.63724e-08 2 0H13ZM12.3535 4.14648C12.1583 3.95122 11.8417 3.95122 11.6465 4.14648L6 9.79297L3.35352 7.14648C3.15825 6.95122 2.84175 6.95122 2.64648 7.14648C2.45122 7.34175 2.45122 7.65825 2.64648 7.85352L5.64648 10.8535C5.84175 11.0488 6.15825 11.0488 6.35352 10.8535L12.3535 4.85352C12.5488 4.65825 12.5488 4.34175 12.3535 4.14648Z" fill="black"/>
</g>
</svg>
