<svg width="16" height="16" viewBox="0 0 16 16" fill="none" xmlns="http://www.w3.org/2000/svg">
<g id="emblem-unlocked-symbolic">
<g id="Subtract">
<path d="M10 7V11H5V7H10Z" fill="black"/>
<path fill-rule="evenodd" clip-rule="evenodd" d="M13 0C14.1046 0 15 0.895431 15 2V13C15 14.1046 14.1046 15 13 15H2C0.895431 15 5.63733e-08 14.1046 0 13V2C0 0.895431 0.895431 5.63724e-08 2 0H13ZM7.5 2.5C6.83738 2.5 6.21666 2.82631 5.77148 3.27148C5.32631 3.71666 5 4.33738 5 5V6H4.5C4.22386 6 4 6.22386 4 6.5V11.5C4 11.7761 4.22386 12 4.5 12H10.5C10.7761 12 11 11.7761 11 11.5V6.5C11 6.22386 10.7761 6 10.5 6H6V5C6 4.66262 6.17369 4.28334 6.47852 3.97852C6.78334 3.67369 7.16262 3.5 7.5 3.5C7.81789 3.5 8.17358 3.65399 8.4707 3.92969C8.67308 4.11757 8.98985 4.10569 9.17773 3.90332C9.36535 3.70094 9.35363 3.38507 9.15137 3.19727C8.71475 2.79192 8.12633 2.5 7.5 2.5Z" fill="black"/>
</g>
</g>
</svg>
