<svg width="16" height="16" viewBox="0 0 16 16" fill="none" xmlns="http://www.w3.org/2000/svg">
<g id="emblem-shared-symbolic">
<path id="Subtract" fill-rule="evenodd" clip-rule="evenodd" d="M13 0C14.1046 0 15 0.895431 15 2V13C15 14.1046 14.1046 15 13 15H2C0.895431 15 5.63733e-08 14.1046 0 13V2C0 0.895431 0.895431 5.63724e-08 2 0H13ZM10.708 2C9.58057 2.00017 8.66699 2.90737 8.66699 4.02637C8.667 4.17099 8.68195 4.3122 8.71094 4.44824L5.72949 6.06152C5.36056 5.69826 4.85272 5.47372 4.29199 5.47363C3.16441 5.47363 2.25 6.38089 2.25 7.5C2.25 8.61911 3.16441 9.52637 4.29199 9.52637C4.85295 9.52628 5.3615 9.30199 5.73047 8.93848L8.71094 10.5518C8.68195 10.6878 8.667 10.829 8.66699 10.9736C8.66699 12.0926 9.58057 12.9998 10.708 13C11.8356 13 12.75 12.0927 12.75 10.9736C12.75 9.85455 11.8356 8.94727 10.708 8.94727C10.1471 8.94735 9.63853 9.17165 9.26953 9.53516L6.28906 7.92188C6.31808 7.78582 6.33301 7.64462 6.33301 7.5C6.33301 7.35533 6.3181 7.21423 6.28906 7.07812L9.26953 5.46484C9.63848 5.82836 10.147 6.05265 10.708 6.05273C11.8356 6.05273 12.75 5.14545 12.75 4.02637C12.75 2.90726 11.8356 2 10.708 2Z" fill="black"/>
</g>
</svg>
