<svg width="16" height="16" viewBox="0 0 16 16" fill="none" xmlns="http://www.w3.org/2000/svg">
<g id="emblem-added-symbolic">
<path id="Subtract" fill-rule="evenodd" clip-rule="evenodd" d="M13 0C14.1046 0 15 0.895431 15 2V13C15 14.1046 14.1046 15 13 15H2C0.895431 15 5.63733e-08 14.1046 0 13V2C0 0.895431 0.895431 5.63724e-08 2 0H13ZM7.5 2.5C7.22386 2.5 7 2.72386 7 3V7H3C2.72386 7 2.5 7.22386 2.5 7.5C2.5 7.77614 2.72386 8 3 8H7V12C7 12.2761 7.22386 12.5 7.5 12.5C7.77614 12.5 8 12.2761 8 12V8H12C12.2761 8 12.5 7.77614 12.5 7.5C12.5 7.22386 12.2761 7 12 7H8V3C8 2.72386 7.77614 2.5 7.5 2.5Z" fill="black"/>
</g>
</svg>
