<?xml version="1.0" encoding="UTF-8" standalone="no"?>
<svg
   width="24"
   height="24"
   version="1.1"
   id="svg2"
   sodipodi:docname="install.svg"
   inkscape:version="1.4.2 (ebf0e940d0, 2025-05-08)"
   xmlns:inkscape="http://www.inkscape.org/namespaces/inkscape"
   xmlns:sodipodi="http://sodipodi.sourceforge.net/DTD/sodipodi-0.dtd"
   xmlns="http://www.w3.org/2000/svg"
   xmlns:svg="http://www.w3.org/2000/svg">
  <defs
     id="defs2" />
  <sodipodi:namedview
     id="namedview2"
     pagecolor="#ffffff"
     bordercolor="#000000"
     borderopacity="0.25"
     inkscape:showpageshadow="2"
     inkscape:pageopacity="0.0"
     inkscape:pagecheckerboard="0"
     inkscape:deskcolor="#d1d1d1"
     inkscape:zoom="20.659091"
     inkscape:cx="13.867987"
     inkscape:cy="8.349835"
     inkscape:window-width="1920"
     inkscape:window-height="1017"
     inkscape:window-x="0"
     inkscape:window-y="0"
     inkscape:window-maximized="1"
     inkscape:current-layer="svg2" />
  <style
     id="current-color-scheme"
     type="text/css">.ColorScheme-Text {
        color:#f2f2f2;
      }</style>
  <g
     id="g2"
     transform="translate(1.399,0.999805)">
    <path
       class="ColorScheme-Text"
       d="m 3.601,16.855 v 0.10742 c 0,1.108 0.892,2 2,2 h 10 c 1.108,0 2,-0.892 2,-2 V 16.855 h -1 v 0.10742 c 0,0.554 -0.446,1 -1,1 h -10 c -0.554,0 -1,-0.446 -1,-1 V 16.855 Z"
       fill="currentColor"
       id="path1" />
    <path
       class="ColorScheme-Text"
       d="m 10.601,3.038 c -0.31321,0 -0.56536,0.26722 -0.56536,0.59914 v 10.537 l -3.8317,-4.0606 C 6.09321,9.99619 5.94873,9.93567 5.80421,9.93567 c -0.14452,0 -0.28899,0.06051 -0.39973,0.17787 -0.22147,0.23471 -0.22147,0.61252 0,0.84723 l 4.7967,5.0834 c 0.02554,0.02707 0.05385,0.05106 0.08393,0.07255 0.01495,0.01078 0.03074,0.01905 0.04638,0.02809 0.01891,0.01091 0.03727,0.02182 0.05742,0.03042 0.03132,0.01337 0.06332,0.02547 0.09718,0.03276 0.0378,0.0082 0.0764,0.01174 0.11484,0.01174 0.03844,0 0.07704,-0.0033 0.11483,-0.01174 0.0047,-9.99e-4 0.0087,-0.0036 0.01325,-0.0047 0.02857,-0.0071 0.05645,-0.01624 0.08393,-0.02809 0.02015,-0.0086 0.03851,-0.01951 0.05742,-0.03042 0.01563,-0.0091 0.03142,-0.01735 0.04638,-0.02809 0.03006,-0.02148 0.05839,-0.04547 0.08393,-0.07255 l 4.7967,-5.0834 c 0.22147,-0.23471 0.22147,-0.61252 0,-0.84723 -0.22147,-0.23471 -0.57798,-0.23471 -0.79945,0 l -3.8317,4.0606 v -10.537 c 0,-0.33193 -0.25215,-0.59914 -0.56536,-0.59914 z"
       fill="currentColor"
       id="path2" />
  </g>
</svg>
