<?xml version="1.0" encoding="UTF-8" standalone="no"?>
<svg
   width="24"
   height="24"
   version="1.1"
   id="svg2"
   sodipodi:docname="klipper.svg"
   inkscape:version="1.4.2 (ebf0e940d0, 2025-05-08)"
   xmlns:inkscape="http://www.inkscape.org/namespaces/inkscape"
   xmlns:sodipodi="http://sodipodi.sourceforge.net/DTD/sodipodi-0.dtd"
   xmlns="http://www.w3.org/2000/svg"
   xmlns:svg="http://www.w3.org/2000/svg">
  <sodipodi:namedview
     id="namedview2"
     pagecolor="#ffffff"
     bordercolor="#000000"
     borderopacity="0.25"
     inkscape:showpageshadow="2"
     inkscape:pageopacity="0.0"
     inkscape:pagecheckerboard="0"
     inkscape:deskcolor="#d1d1d1"
     inkscape:zoom="20.659091"
     inkscape:cx="7.6721672"
     inkscape:cy="12.609461"
     inkscape:window-width="1920"
     inkscape:window-height="1017"
     inkscape:window-x="0"
     inkscape:window-y="0"
     inkscape:window-maximized="1"
     inkscape:current-layer="svg2" />
  <defs
     id="defs1">
    <style
       id="current-color-scheme"
       type="text/css">.ColorScheme-Text { color:#f2f2f2; } .ColorScheme-Highlight { color:#4285f4; }</style>
  </defs>
  <g
     class="ColorScheme-Text"
     transform="translate(-48,-3.5)"
     fill="currentColor"
     id="g2">
    <rect
       x="56.5"
       y="13"
       width="7"
       height="1"
       rx="0.5"
       ry="0.5"
       id="rect1" />
    <path
       d="m 60,7 a 2,2 0 0 0 -2,2 h -1 -1 c -1.662,0 -3,1.338 -3,3 v 9 c 0,1.662 1.338,3 3,3 h 8 c 1.662,0 3,-1.338 3,-3 V 12 C 67,10.338 65.662,9 64,9 H 63 62 A 2,2 0 0 0 60,7 Z m 0,1 a 1,1 0 0 1 1,1 1,1 0 0 1 -1,1 1,1 0 0 1 -1,-1 1,1 0 0 1 1,-1 z m -4,2 h 2.2734 A 2,2 0 0 0 60,11 2,2 0 0 0 61.7266,10 H 64 c 1.108,0 2,0.892 2,2 v 9 c 0,1.108 -0.892,2 -2,2 h -8 c -1.108,0 -2,-0.892 -2,-2 v -9 c 0,-1.108 0.892,-2 2,-2 z"
       id="path1" />
    <rect
       x="56.5"
       y="16"
       width="5.5"
       height="1"
       rx="0.5"
       ry="0.5"
       id="rect2" />
  </g>
</svg>
