<?xml version="1.0" encoding="UTF-8" standalone="no"?>
<svg
   version="1.1"
   viewBox="0 0 24 24"
   id="svg1"
   sodipodi:docname="laptop-connected.svg"
   width="24"
   height="24"
   inkscape:version="1.4.2 (ebf0e940d0, 2025-05-08)"
   xmlns:inkscape="http://www.inkscape.org/namespaces/inkscape"
   xmlns:sodipodi="http://sodipodi.sourceforge.net/DTD/sodipodi-0.dtd"
   xmlns="http://www.w3.org/2000/svg"
   xmlns:svg="http://www.w3.org/2000/svg">
  <sodipodi:namedview
     id="namedview1"
     pagecolor="#ffffff"
     bordercolor="#000000"
     borderopacity="0.25"
     inkscape:showpageshadow="2"
     inkscape:pageopacity="0.0"
     inkscape:pagecheckerboard="0"
     inkscape:deskcolor="#d1d1d1"
     inkscape:zoom="20.659091"
     inkscape:cx="13.529153"
     inkscape:cy="12.512651"
     inkscape:window-width="1920"
     inkscape:window-height="1017"
     inkscape:window-x="0"
     inkscape:window-y="0"
     inkscape:window-maximized="1"
     inkscape:current-layer="svg1" />
  <defs
     id="defs1">
    <style
       id="current-color-scheme"
       type="text/css">
   .ColorScheme-Text { color:#f2f2f2; } .ColorScheme-Highlight { color:#4285f4; }
  </style>
  </defs>
  <path
     d="M 12.002,4 A 8,8 0 0 0 4,12.002 8,8 0 0 0 12.002,20 8,8 0 0 0 20,12.002 8,8 0 0 0 12.002,4 Z M 8.15,9.09 h 7.7 a 0.57,0.57 0 0 1 0.554,0.525 v 5.016 h 0.846 v 0.293 a 0.86,0.86 0 0 1 -0.875,0.875 H 7.625 A 0.86,0.86 0 0 1 6.75,14.924 V 14.631 H 7.625 V 9.615 C 7.625,9.324 7.859,9.09 8.15,9.09 Z"
     fill="#2ecc71"
     id="path1" />
</svg>
