<?xml version="1.0" encoding="UTF-8" standalone="no"?>
<svg
   width="24"
   height="24"
   version="1.1"
   id="svg1"
   sodipodi:docname="mic-off.svg"
   inkscape:version="1.4.2 (ebf0e940d0, 2025-05-08)"
   xmlns:inkscape="http://www.inkscape.org/namespaces/inkscape"
   xmlns:sodipodi="http://sodipodi.sourceforge.net/DTD/sodipodi-0.dtd"
   xmlns="http://www.w3.org/2000/svg"
   xmlns:svg="http://www.w3.org/2000/svg">
  <sodipodi:namedview
     id="namedview1"
     pagecolor="#ffffff"
     bordercolor="#000000"
     borderopacity="0.25"
     inkscape:showpageshadow="2"
     inkscape:pageopacity="0.0"
     inkscape:pagecheckerboard="0"
     inkscape:deskcolor="#d1d1d1"
     inkscape:zoom="14.608183"
     inkscape:cx="10.713173"
     inkscape:cy="13.177546"
     inkscape:window-width="1920"
     inkscape:window-height="1017"
     inkscape:window-x="0"
     inkscape:window-y="0"
     inkscape:window-maximized="1"
     inkscape:current-layer="svg1" />
  <defs
     id="defs1">
    <style
       id="current-color-scheme"
       type="text/css">.ColorScheme-Text { color:#f2f2f2; } .ColorScheme-Highlight { color:#4285f4; }</style>
  </defs>
  <g
     id="g1"
     transform="translate(1.0000347,1)">
    <path
       class="ColorScheme-Text"
       d="m 11,2.9883 c -1.662,0 -3,1.338 -3,3 v 6.0254 c 0,1.662 1.338,3 3,3 1.662,0 3,-1.338 3,-3 V 5.9883 c 0,-1.662 -1.338,-3 -3,-3 z m -4.5,7.0234 v 0.002 c -0.277,0 -0.5,0.223 -0.5,0.5 v 1.5 c 0,2.6 1.967,4.7246 4.5,4.9746 v 1.0234 h -2 c -0.66667,0 -0.66667,1 0,1 h 5 c 0.66667,0 0.66667,-1 0,-1 h -2 v -1.0254 c 2.5575,-0.25141 4.5054,-2.4048 4.5,-4.9746 v -1.5 c 0,-0.66667 -1,-0.66667 -1,0 v 1.5 c 0,2.216 -1.784,4 -4,4 -2.216,0 -4,-1.784 -4,-4 v -1.5 c 0,-0.277 -0.223,-0.5 -0.5,-0.5 z"
       fill="currentColor"
       opacity="0.35"
       id="path1" />
    <rect
       class="ColorScheme-Text"
       transform="rotate(45)"
       x="4.5563002"
       y="-0.5"
       width="22"
       height="1"
       rx="0.5"
       ry="0.5"
       fill="currentColor"
       id="rect1" />
  </g>
</svg>
