<?xml version="1.0" encoding="UTF-8" standalone="no"?>
<svg
   width="24"
   height="24"
   version="1.1"
   id="svg2"
   sodipodi:docname="yakuake.svg"
   inkscape:version="1.4.2 (ebf0e940d0, 2025-05-08)"
   xmlns:inkscape="http://www.inkscape.org/namespaces/inkscape"
   xmlns:sodipodi="http://sodipodi.sourceforge.net/DTD/sodipodi-0.dtd"
   xmlns="http://www.w3.org/2000/svg"
   xmlns:svg="http://www.w3.org/2000/svg">
  <sodipodi:namedview
     id="namedview2"
     pagecolor="#ffffff"
     bordercolor="#000000"
     borderopacity="0.25"
     inkscape:showpageshadow="2"
     inkscape:pageopacity="0.0"
     inkscape:pagecheckerboard="0"
     inkscape:deskcolor="#d1d1d1"
     inkscape:zoom="10.329545"
     inkscape:cx="2.0814081"
     inkscape:cy="-1.7909791"
     inkscape:window-width="1920"
     inkscape:window-height="1017"
     inkscape:window-x="0"
     inkscape:window-y="0"
     inkscape:window-maximized="1"
     inkscape:current-layer="svg2" />
  <defs
     id="defs1">
    <style
       id="current-color-scheme"
       type="text/css">.ColorScheme-Text { color:#f2f2f2; } .ColorScheme-Highlight { color:#4285f4; }</style>
  </defs>
  <g
     id="g2"
     transform="translate(1,1)">
    <path
       class="ColorScheme-Text"
       d="M 6,3 C 4.338,3 3,4.338 3,6 v 10 c 0,1.662 1.338,3 3,3 h 10 c 1.662,0 3,-1.338 3,-3 V 6 C 19,4.338 17.662,3 16,3 Z m 0,1 h 10 c 1.108,0 2,0.892 2,2 v 10 c 0,1.108 -0.892,2 -2,2 H 6 C 4.892,18 4,17.108 4,16 V 6 C 4,4.892 4.892,4 6,4 Z"
       fill="currentColor"
       id="path1" />
    <path
       d="m 6.4648,7.4648 -0.70703,0.70703 2.8281,2.8281 -2.8281,2.8281 L 6.4648,14.53506 10,10.99986 6.4648,7.46466 Z M 10,14 v 1 h 5 v -1 z"
       class="ColorScheme-Text"
       fill="currentColor"
       id="path2" />
  </g>
</svg>
