<?xml version="1.0" encoding="UTF-8" standalone="no"?>
<svg xmlns:inkscape="http://www.inkscape.org/namespaces/inkscape" xmlns:sodipodi="http://sodipodi.sourceforge.net/DTD/sodipodi-0.dtd" xmlns="http://www.w3.org/2000/svg" xmlns:svg="http://www.w3.org/2000/svg" xmlns:rdf="http://www.w3.org/1999/02/22-rdf-syntax-ns#" xmlns:cc="http://creativecommons.org/ns#" xmlns:dc="http://purl.org/dc/elements/1.1/" width="64" height="64" version="1.1" viewBox="0 0 64 64" id="svg14" sodipodi:docname="com.github.bharatkalluri.gifup.svg" inkscape:version="1.4.2 (ebf0e940d0, 2025-05-08)">
  <metadata id="metadata1">
    <rdf:RDF>
      <cc:Work rdf:about="">
        <dc:format>image/svg+xml</dc:format>
        <dc:type rdf:resource="http://purl.org/dc/dcmitype/StillImage"/>
      </cc:Work>
    </rdf:RDF>
  </metadata>
  <defs id="defs9">
    <filter id="filter1057" x="-0.026999999" y="-0.026999999" width="1.054" height="1.054" color-interpolation-filters="sRGB">
      <feGaussianBlur stdDeviation="0.61875" id="feGaussianBlur1"/>
    </filter>
    <linearGradient id="linearGradient980" x1="-17.007" x2="-2.4549999" y1="15.742" y2="1.1906" gradientTransform="matrix(3.779602,0,0,3.779602,68.777418,0)" gradientUnits="userSpaceOnUse">
      <stop stop-color="#ff7d50" offset="0" id="stop1"/>
      <stop stop-color="#fa4b5a" offset=".49173" id="stop2"/>
      <stop stop-color="#ff509b" offset="1" id="stop3"/>
    </linearGradient>
    <linearGradient id="linearGradient1079" x1="39.195" x2="62.470001" y1="83.047997" y2="83.047997" gradientTransform="matrix(0.19599,0,0,0.19599,-1.682,-7.6392)" gradientUnits="userSpaceOnUse">
      <stop stop-color="#fff" offset="0" id="stop4"/>
      <stop stop-color="#dadada" stop-opacity=".76364" offset="1" id="stop5"/>
    </linearGradient>
    <linearGradient id="linearGradient1081" x1="72.717003" x2="67.271004" y1="101.4" y2="79.566002" gradientTransform="matrix(0.19599,0,0,0.19599,-1.682,-7.6392)" gradientUnits="userSpaceOnUse">
      <stop stop-color="#fdc7ce" offset="0" id="stop6"/>
      <stop stop-color="#fdcdd2" stop-opacity="0" offset="1" id="stop7"/>
    </linearGradient>
    <linearGradient id="linearGradient1083" x1="39.994999" x2="49.179001" y1="103.58" y2="87.677002" gradientTransform="matrix(0.19599,0,0,0.19599,-1.682,-7.6392)" gradientUnits="userSpaceOnUse">
      <stop stop-color="#fdc7ce" offset="0" id="stop8"/>
      <stop stop-color="#fdcad0" stop-opacity="0" offset="1" id="stop9"/>
    </linearGradient>
    <filter id="filter1057-1" x="-0.026999999" y="-0.026999999" width="1.054" height="1.054" color-interpolation-filters="sRGB">
      <feGaussianBlur stdDeviation="0.61875" id="feGaussianBlur1-2"/>
    </filter>
  <radialGradient id="gradient_ds_br" cx="0" cy="0" r="1" gradientUnits="userSpaceOnUse" gradientTransform="matrix(13.998399,0.00477622,-0.00477841,14.004799,47.5016,48.4952)">
      <stop offset="0.65" id="stop1"/>
      <stop offset="1" stop-opacity="0" id="stop2"/>
    </radialGradient><linearGradient id="gradient_ds_b" x1="30.448999" y1="48.5" x2="30.492201" y2="62.500301" gradientUnits="userSpaceOnUse">
      <stop offset="0.653846" id="stop3"/>
      <stop offset="1" stop-opacity="0" id="stop4"/>
    </linearGradient><radialGradient id="gradient_ds_bl" cx="0" cy="0" r="1" gradientUnits="userSpaceOnUse" gradientTransform="matrix(0,14,-14,0,16.5,48.5)">
      <stop offset="0.65" id="stop5"/>
      <stop offset="1" stop-opacity="0" id="stop6"/>
    </radialGradient><linearGradient id="gradient_ds_r" x1="47.5" y1="33.5" x2="61.5" y2="33.5009" gradientUnits="userSpaceOnUse">
      <stop offset="0.649038" id="stop7"/>
      <stop offset="1" stop-opacity="0" id="stop8"/>
    </linearGradient><linearGradient id="gradient_ds_l" x1="16.5" y1="33.894699" x2="2.5" y2="33.894699" gradientUnits="userSpaceOnUse">
      <stop offset="0.649038" id="stop9"/>
      <stop offset="1" stop-opacity="0" id="stop10"/>
    </linearGradient><radialGradient id="gradient_ds_tr" cx="0" cy="0" r="1" gradientTransform="matrix(0.00843236,-14,14.0084,0.0189842,47.4916,18.5)" gradientUnits="userSpaceOnUse">
      <stop offset="0.65" id="stop11"/>
      <stop offset="1" stop-opacity="0" id="stop12"/>
    </radialGradient><linearGradient id="gradient_ds_t" x1="29.98" y1="18.5" x2="29.9158" y2="4.4998598" gradientUnits="userSpaceOnUse">
      <stop offset="0.649038" id="stop13"/>
      <stop offset="1" stop-opacity="0" id="stop14"/>
    </linearGradient><radialGradient id="gradient_ds_tl" cx="0" cy="0" r="1" gradientTransform="matrix(-0.00843236,-14,-14.0084,0.0189842,16.5084,18.5)" gradientUnits="userSpaceOnUse">
      <stop offset="0.65" id="stop15"/>
      <stop offset="1" stop-opacity="0" id="stop16"/>
    </radialGradient></defs>
  
  
  
  <g id="ds" opacity="0.25">
    <path id="ds-br" d="m 47.5,48.5 h 14 v 14 h -14 z" fill="url(#gradient_ds_br)" style="fill:url(#gradient_ds_br)"/>
    <path id="ds-b" d="m 16.5,48.5 h 31 v 14 h -31 z" fill="url(#gradient_ds_b)" style="fill:url(#gradient_ds_b)"/>
    <path id="ds-bl" d="m 2.5,48.5 h 14 v 14 h -14 z" fill="url(#gradient_ds_bl)" style="fill:url(#gradient_ds_bl)"/>
    <path id="ds-r" d="m 47.5,18.5 h 14 v 30 h -14 z" fill="url(#gradient_ds_r)" style="fill:url(#gradient_ds_r)"/>
    <path id="ds-l" d="m 2.5,18.5 h 14 v 30 h -14 z" fill="url(#gradient_ds_l)" style="fill:url(#gradient_ds_l)"/>
    <path id="ds-tr" d="m 47.5,4.5 h 14 v 14 h -14 z" fill="url(#gradient_ds_tr)" style="fill:url(#gradient_ds_tr)"/>
    <path id="ds-t" d="m 16.5,4.5 h 31 v 14 h -31 z" fill="url(#gradient_ds_t)" style="fill:url(#gradient_ds_t)"/>
    <path id="ds-tl" d="m 16.5,4.5 h -14 v 14 h 14 z" fill="url(#gradient_ds_tl)" style="fill:url(#gradient_ds_tl)"/>
  </g><rect x="4.5" y="4.5" width="55" height="55" fill="url(#linearGradient980)" stroke-width="1.00001" id="bg" style="fill:url(#linearGradient980)" rx="10"/>
  <g transform="matrix(4.3087463,0,0,4.3087463,-7.0379969,-5.2143389)" stroke-width="1.469" id="art">
    <path d="M 6.1475,5.8457 A 0.5556,0.5556 0 0 0 5.57869,6.40111 v 4.4705 A 0.5556,0.5556 0 0 0 6.412,11.35353 l 3.8714,-2.2355 a 0.5556,0.5556 0 0 0 0,-0.96193 L 6.412,5.9211 A 0.5556,0.5556 0 0 0 6.1475,5.845692 Z" fill="url(#linearGradient1079)" id="path11" style="fill:url(#linearGradient1079)"/>
    <path d="M 8.1277,5.8457 A 0.5556,0.5556 0 0 0 7.55889,6.40111 v 4.4705 a 0.5556,0.5556 0 0 0 0.83331,0.48192 l 3.8714,-2.2355 a 0.5556,0.5556 0 0 0 0,-0.96193 L 8.3922,5.9211 A 0.5556,0.5556 0 0 0 8.1277,5.845692 Z" fill="#ffffff" id="path12"/>
    <path d="M 6.1475,5.8457 A 0.5556,0.5556 0 0 0 5.57869,6.40111 v 4.4705 A 0.5556,0.5556 0 0 0 6.412,11.35353 L 7.5584,10.6917 v 0.1799 a 0.5556,0.5556 0 0 0 0.83331,0.48192 l 3.8714,-2.2355 a 0.5556,0.5556 0 0 0 0,-0.96193 l -3.8714,-2.235 A 0.5556,0.5556 0 0 0 8.12721,5.845682 0.5556,0.5556 0 0 0 7.5584,6.401092 v 0.18183 L 6.412,5.921092 A 0.5556,0.5556 0 0 0 6.1475,5.845684 Z" fill="url(#linearGradient1081)" id="path13" style="fill:url(#linearGradient1081)"/>
    <path d="M 6.1475,5.8457 A 0.5556,0.5556 0 0 0 5.57869,6.40111 v 4.4705 A 0.5556,0.5556 0 0 0 6.412,11.35353 L 7.5584,10.6917 v 0.1799 a 0.5556,0.5556 0 0 0 0.83331,0.48192 l 3.8714,-2.2355 a 0.5556,0.5556 0 0 0 0,-0.96193 l -3.8714,-2.235 A 0.5556,0.5556 0 0 0 8.12721,5.845682 0.5556,0.5556 0 0 0 7.5584,6.401092 v 0.18183 L 6.412,5.921092 A 0.5556,0.5556 0 0 0 6.1475,5.845684 Z" fill="url(#linearGradient1083)" id="path14" style="fill:url(#linearGradient1083)"/>
  </g>
</svg>
