<svg width="16" height="16" viewBox="0 0 16 16" fill="none" xmlns="http://www.w3.org/2000/svg">
<g id="find-unsupported-symbolic 1">
<path id="Vector" d="M2.23242 9.5254L1.52539 10.2324L3.29299 12L1.52539 13.7676L2.23242 14.4747L4.00002 12.7071L5.76762 14.4747L6.47465 13.7676L4.70705 12L6.47465 10.2324L5.76762 9.5254L4.00002 11.293L2.23242 9.5254Z" fill="#363636"/>
<g id="Draw">
<g id="Subtract">
<path d="M7.00024 2.00022C7.65677 2.00025 8.30678 2.12984 8.91333 2.38108C9.51981 2.63231 10.0712 2.99994 10.5354 3.46409C11.4731 4.40177 12.0002 5.67414 12.0002 7.00022C12.0002 8.32622 11.473 9.59775 10.5354 10.5354C9.59778 11.473 8.32624 12.0002 7.00024 12.0002C6.72658 12.0002 6.4553 11.9757 6.18872 11.9319L7.12427 10.9963C8.14003 10.9648 9.10758 10.5491 9.82837 9.82835C10.5785 9.07825 11.0002 8.061 11.0002 7.00022C11.0002 5.93936 10.5785 4.92127 9.82837 4.17112C9.07831 3.42119 8.0609 3.00029 7.00024 3.00022C5.93938 3.00022 4.92129 3.42098 4.17114 4.17112C3.421 4.92127 3.00024 5.93936 3.00024 7.00022C3.0003 8.03254 3.39982 9.02306 4.11255 9.76682L4.00024 9.87913L2.23267 8.11155L2.14575 8.19749C2.04933 7.8066 2.00026 7.40466 2.00024 7.00022C2.00024 5.67414 2.52643 4.40177 3.46411 3.46409C4.40179 2.52641 5.67417 2.00022 7.00024 2.00022Z" fill="#363636"/>
<path d="M4.89282 10.3996C5.19781 10.5887 5.52677 10.735 5.87036 10.8362L5.08716 11.6194C4.76597 11.4864 4.45926 11.3191 4.17114 11.1213L4.89282 10.3996Z" fill="#363636"/>
</g>
<path id="Vector_2" d="M14.6995 13.9923C14.8877 14.1881 14.8862 14.499 14.6933 14.6918C14.498 14.8868 14.1814 14.8868 13.9862 14.6918L14.4246 15.1317L9.4749 10.182L10.182 9.47486L14.6995 13.9923Z" fill="#363636"/>
</g>
</g>
</svg>
