<svg width="64" height="64" viewBox="0 0 64 64" fill="none" xmlns="http://www.w3.org/2000/svg">
<g id="application-x-fictionbook+xml" clip-path="url(#clip0_1229_4067)">
<g id="Blank-File" clip-path="url(#clip1_1229_4067)">
<g id="Shadow 2" opacity="0.1">
<path id="Vector" d="M11.9792 59.0258H51.9788V65.024H11.9792V59.0258Z" fill="url(#paint0_linear_1229_4067)"/>
<path id="Vector_2" d="M34.979 1.02405V8.02405L41.979 1.02405H34.979Z" fill="url(#paint1_radial_1229_4067)"/>
<path id="Vector_3" d="M41.979 1.02405L34.979 8.02405L48.979 23.024L57.979 14.024V4.56905L54.434 1.02405H41.979Z" fill="url(#paint2_linear_1229_4067)"/>
<path id="Vector_4" d="M57.979 14.024L48.979 23.024H57.979V14.024Z" fill="url(#paint3_radial_1229_4067)"/>
<path id="Vector_5" d="M11.9792 1.02405H34.9781V5.02286H11.9792V1.02405Z" fill="url(#paint4_linear_1229_4067)"/>
<path id="Vector_6" d="M5.97723 1.02405H11.9755V5.02286H5.97723V1.02405Z" fill="url(#paint5_radial_1229_4067)"/>
<path id="Vector_7" d="M51.9788 23.0251H57.977V59.0258H51.9788V23.0251Z" fill="url(#paint6_linear_1229_4067)"/>
<path id="Vector_8" d="M5.97723 5.02283H11.9755V59.022H5.97723V5.02283Z" fill="url(#paint7_linear_1229_4067)"/>
<path id="Vector_9" d="M51.9788 59.0258H57.977V65.024H51.9788V59.0258Z" fill="url(#paint8_radial_1229_4067)"/>
<path id="Vector_10" d="M5.97723 59.0258H11.9755V65.024H5.97723V59.0258Z" fill="url(#paint9_radial_1229_4067)"/>
</g>
<g id="Shadow 1" opacity="0.2">
<path id="Vector_11" d="M11.9792 59.0258H51.9788V65.024H11.9792V59.0258Z" fill="url(#paint10_linear_1229_4067)"/>
<path id="Vector_12" d="M34.9792 1.02405V8.02409L41.9793 1.02405H34.9792Z" fill="url(#paint11_radial_1229_4067)"/>
<path id="Vector_13" d="M41.9793 1.02405L34.9792 8.02409L48.9793 23.0242L57.9794 14.0241V4.56907L54.4344 1.02405H41.9793Z" fill="url(#paint12_linear_1229_4067)"/>
<path id="Vector_14" d="M57.9794 14.0242L48.9793 23.0242H57.9794V14.0242Z" fill="url(#paint13_radial_1229_4067)"/>
<path id="Vector_15" d="M11.9792 1.02405H34.9781V5.02286H11.9792V1.02405Z" fill="url(#paint14_linear_1229_4067)"/>
<path id="Vector_16" d="M11.9755 1.02405H5.97723V5.02286H11.9755V1.02405Z" fill="url(#paint15_radial_1229_4067)"/>
<path id="Vector_17" d="M51.9788 23.0251H57.977V59.0258H51.9788V23.0251Z" fill="url(#paint16_linear_1229_4067)"/>
<path id="Vector_18" d="M5.97723 5.02283H11.9755V59.022H5.97723V5.02283Z" fill="url(#paint17_linear_1229_4067)"/>
<path id="Vector_19" d="M51.9788 59.0258H57.977V65.024H51.9788V59.0258Z" fill="url(#paint18_radial_1229_4067)"/>
<path id="Vector_20" d="M5.97723 59.0258H11.9755V65.024H5.97723V59.0258Z" fill="url(#paint19_radial_1229_4067)"/>
</g>
<path id="Paper" d="M10.9776 2.02563C10.4476 2.02663 9.93967 2.23761 9.56493 2.61235C9.19018 2.9871 8.97921 3.49507 8.97821 4.02504V60.0236C8.97821 61.131 9.8702 62.023 10.9814 62.023H52.9765C54.0877 62.023 54.9797 61.131 54.9797 60.0198V21.0257C54.9797 20.0241 54.3674 18.4178 52.9765 17.0231L39.9747 4.02126C39.508 3.4038 38.905 2.90245 38.2127 2.5563C37.5204 2.21015 36.7575 2.02854 35.9835 2.02563H10.9776Z" fill="url(#paint20_linear_1229_4067)"/>
</g>
<g id="Logo" clip-path="url(#clip2_1229_4067)">
<g id="Group">
<g id="Group_2">
<g id="Vector_21" filter="url(#filter0_f_1229_4067)">
<path d="M19.0148 26.4674V46.4888C19.0148 46.4888 19.2554 47.1867 20.2364 47.1867H29.4562C29.4562 47.1867 31.961 47.9288 31.961 48.9756C31.961 47.9288 34.4023 47.1867 34.4023 47.1867H43.7783C44.7594 47.1867 45 46.4888 45 46.4888V26.4674H36.7164C32.836 26.4674 31.9572 28.4742 31.9572 28.4742C31.9572 28.4742 31.1784 26.4674 27.2983 26.4674H19.0148Z" fill="#F36845"/>
</g>
<g id="Vector_22" filter="url(#filter1_f_1229_4067)">
<path d="M31.9606 28.5735C31.9606 28.5735 31.3986 24.4366 22.7225 24.0001C22.7225 24.0001 21.9595 23.9777 21.9595 24.5236V43.656C21.9595 43.656 23.7068 45.3253 27.5212 45.4141C30.529 45.6118 31.9646 47.7275 31.9646 47.7275L31.9606 28.5735Z" fill="#F36845"/>
</g>
<g id="Vector_23" filter="url(#filter2_f_1229_4067)">
<path d="M31.968 28.5735C31.968 28.5735 32.53 24.4366 41.2061 24.0001C41.2061 24.0001 41.9691 23.9777 41.9691 24.5236V43.656C41.9691 43.656 40.2218 45.3253 36.4075 45.4141C33.3996 45.6118 31.9641 47.7275 31.9641 47.7275L31.968 28.5735Z" fill="#F36845"/>
</g>
</g>
<g id="Group_3">
<path id="Vector_24" d="M19 26.4912V46.5131C19 46.5131 19.2406 47.211 20.2216 47.211H29.4417C29.4417 47.211 31.9466 47.9531 31.9466 49C31.9466 47.9531 34.3879 47.211 34.3879 47.211H43.764C44.745 47.211 44.9856 46.5131 44.9856 46.5131V26.4912H36.7019C32.8215 26.4912 31.9426 28.498 31.9426 28.498C31.9426 28.498 31.1638 26.4912 27.2835 26.4912H19Z" fill="url(#paint21_linear_1229_4067)"/>
<path id="Vector_25" d="M31.9464 28.5964C31.9464 28.5964 31.3844 24.4594 22.7081 24.023C22.7081 24.023 21.9451 24.0007 21.9451 24.5464V43.6792C21.9451 43.6792 23.6925 45.3485 27.5068 45.4373C30.5147 45.635 31.9505 47.7507 31.9505 47.7507L31.9464 28.5964Z" fill="#FFBB77"/>
<path id="Vector_26" d="M31.954 28.5964C31.954 28.5964 32.5159 24.4594 41.1922 24.023C41.1922 24.023 41.9552 24.0007 41.9552 24.5464V43.6792C41.9552 43.6792 40.2079 45.3485 36.3935 45.4373C33.3857 45.635 31.9499 47.7507 31.9499 47.7507L31.954 28.5964Z" fill="#FF8A7C"/>
</g>
</g>
</g>
<g id="Blank-File-Top">
<g id="Curl">
<g id="Shadow">
<path id="Vector_27" opacity="0.05" d="M39.9785 17.0229H23.9794V33.022H39.9785V17.0229Z" fill="url(#paint22_radial_1229_4067)"/>
<path id="Vector_28" opacity="0.05" d="M23.9791 2.02393V11.024H39.9792V4.02394C38.6412 2.33093 36.9792 2.02393 35.9792 2.02393H23.9791Z" fill="url(#paint23_radial_1229_4067)"/>
<path id="Vector_29" opacity="0.05" d="M39.9785 11.0248H23.9794V17.023H39.9785V11.0248Z" fill="url(#paint24_linear_1229_4067)"/>
<path id="Vector_30" opacity="0.2" d="M39.9785 11.0248H28.9799V17.023H39.9785V11.0248Z" fill="url(#paint25_linear_1229_4067)"/>
<path id="Vector_31" opacity="0.2" d="M39.9785 17.0229H28.9799V28.0216H39.9785V17.0229Z" fill="url(#paint26_radial_1229_4067)"/>
<path id="Vector_32" opacity="0.2" d="M28.9792 2.02393V11.024H39.9793V4.02394C39.5247 3.43832 38.9524 2.95457 38.2992 2.60393L35.9792 2.02393H28.9792Z" fill="url(#paint27_radial_1229_4067)"/>
<path id="Vector_33" opacity="0.05" d="M39.9785 17.0229V33.022H45.9767V17.0229H39.9785Z" fill="url(#paint28_linear_1229_4067)"/>
<path id="Vector_34" opacity="0.2" d="M39.9785 17.0268V28.0254H45.9767V17.0268H39.9785Z" fill="url(#paint29_linear_1229_4067)"/>
<path id="Vector_35" opacity="0.2" d="M45.9792 17.024V28.0241H54.9793V21.0241L54.5393 19.2641C54.1607 18.4283 53.6319 17.669 52.9793 17.024H45.9792Z" fill="url(#paint30_radial_1229_4067)"/>
<path id="Vector_36" opacity="0.05" d="M45.9789 17.0239V33.0239H54.9789V21.0239C54.9789 20.8919 54.9529 20.7239 54.9389 20.5709C54.7909 19.5779 54.1759 18.2209 52.9789 17.0239H45.9789Z" fill="url(#paint31_radial_1229_4067)"/>
</g>
<path id="Paper_2" d="M37.9791 2.44141V17.0193C37.9791 18.1267 38.871 19.0187 39.9823 19.0187H54.443C54.0748 18.2764 53.587 17.5996 52.9992 17.0155L39.9974 4.01372C39.4687 3.33484 38.7824 2.79515 37.998 2.44141H37.9791Z" fill="url(#paint32_linear_1229_4067)"/>
</g>
</g>
</g>
<defs>
<filter id="filter0_f_1229_4067" x="17.1112" y="24.5639" width="29.7923" height="26.3153" filterUnits="userSpaceOnUse" color-interpolation-filters="sRGB">
<feFlood flood-opacity="0" result="BackgroundImageFix"/>
<feBlend mode="normal" in="SourceGraphic" in2="BackgroundImageFix" result="shape"/>
<feGaussianBlur stdDeviation="0.951774" result="effect1_foregroundBlur_1229_4067"/>
</filter>
<filter id="filter1_f_1229_4067" x="20.056" y="22.0965" width="13.8122" height="27.5346" filterUnits="userSpaceOnUse" color-interpolation-filters="sRGB">
<feFlood flood-opacity="0" result="BackgroundImageFix"/>
<feBlend mode="normal" in="SourceGraphic" in2="BackgroundImageFix" result="shape"/>
<feGaussianBlur stdDeviation="0.951774" result="effect1_foregroundBlur_1229_4067"/>
</filter>
<filter id="filter2_f_1229_4067" x="30.0605" y="22.0965" width="13.8122" height="27.5346" filterUnits="userSpaceOnUse" color-interpolation-filters="sRGB">
<feFlood flood-opacity="0" result="BackgroundImageFix"/>
<feBlend mode="normal" in="SourceGraphic" in2="BackgroundImageFix" result="shape"/>
<feGaussianBlur stdDeviation="0.951774" result="effect1_foregroundBlur_1229_4067"/>
</filter>
<linearGradient id="paint0_linear_1229_4067" x1="29.9777" y1="59.0258" x2="29.9777" y2="65.024" gradientUnits="userSpaceOnUse">
<stop/>
<stop offset="1" stop-opacity="0"/>
</linearGradient>
<radialGradient id="paint1_radial_1229_4067" cx="0" cy="0" r="1" gradientUnits="userSpaceOnUse" gradientTransform="translate(34.978 5.02445) scale(6.32269 4.00052)">
<stop/>
<stop offset="1" stop-opacity="0"/>
</radialGradient>
<linearGradient id="paint2_linear_1229_4067" x1="42.979" y1="13.024" x2="46.727" y2="9.27605" gradientUnits="userSpaceOnUse">
<stop/>
<stop offset="1" stop-opacity="0"/>
</linearGradient>
<radialGradient id="paint3_radial_1229_4067" cx="0" cy="0" r="1" gradientUnits="userSpaceOnUse" gradientTransform="translate(51.9788 23.0242) scale(4.99995 6.94012)">
<stop/>
<stop offset="1" stop-opacity="0"/>
</radialGradient>
<linearGradient id="paint4_linear_1229_4067" x1="21.9801" y1="5.02286" x2="21.9801" y2="1.02405" gradientUnits="userSpaceOnUse">
<stop/>
<stop offset="1" stop-opacity="0"/>
</linearGradient>
<radialGradient id="paint5_radial_1229_4067" cx="0" cy="0" r="1" gradientUnits="userSpaceOnUse" gradientTransform="translate(11.9794 5.02578) rotate(-90) scale(4.00124 5.00177)">
<stop/>
<stop offset="1" stop-opacity="0"/>
</radialGradient>
<linearGradient id="paint6_linear_1229_4067" x1="51.9788" y1="41.0236" x2="56.9792" y2="41.0236" gradientUnits="userSpaceOnUse">
<stop/>
<stop offset="1" stop-opacity="0"/>
</linearGradient>
<linearGradient id="paint7_linear_1229_4067" x1="11.9792" y1="33.0221" x2="6.97883" y2="33.0221" gradientUnits="userSpaceOnUse">
<stop/>
<stop offset="1" stop-opacity="0"/>
</linearGradient>
<radialGradient id="paint8_radial_1229_4067" cx="0" cy="0" r="1" gradientUnits="userSpaceOnUse" gradientTransform="translate(51.9743 59.022) rotate(90) scale(6.00201 5.00177)">
<stop/>
<stop offset="1" stop-opacity="0"/>
</radialGradient>
<radialGradient id="paint9_radial_1229_4067" cx="0" cy="0" r="1" gradientUnits="userSpaceOnUse" gradientTransform="translate(11.9763 59.022) rotate(180) scale(5.00177 6.00201)">
<stop/>
<stop offset="1" stop-opacity="0"/>
</radialGradient>
<linearGradient id="paint10_linear_1229_4067" x1="29.9777" y1="59.0258" x2="29.9777" y2="64.0224" gradientUnits="userSpaceOnUse">
<stop/>
<stop offset="1" stop-opacity="0"/>
</linearGradient>
<radialGradient id="paint11_radial_1229_4067" cx="0" cy="0" r="1" gradientUnits="userSpaceOnUse" gradientTransform="translate(34.9787 5.02335) scale(6.00771 3.00039)">
<stop/>
<stop offset="1" stop-opacity="0"/>
</radialGradient>
<linearGradient id="paint12_linear_1229_4067" x1="42.9793" y1="13.0241" x2="45.9833" y2="10.0201" gradientUnits="userSpaceOnUse">
<stop/>
<stop offset="1" stop-opacity="0"/>
</linearGradient>
<radialGradient id="paint13_radial_1229_4067" cx="0" cy="0" r="1" gradientUnits="userSpaceOnUse" gradientTransform="translate(51.98 23.0236) scale(4 6.38885)">
<stop/>
<stop offset="1" stop-opacity="0"/>
</radialGradient>
<linearGradient id="paint14_linear_1229_4067" x1="21.9801" y1="5.02286" x2="21.9801" y2="2.02564" gradientUnits="userSpaceOnUse">
<stop/>
<stop offset="1" stop-opacity="0"/>
</linearGradient>
<radialGradient id="paint15_radial_1229_4067" cx="0" cy="0" r="1" gradientUnits="userSpaceOnUse" gradientTransform="translate(11.9791 5.02286) rotate(-90) scale(3.001 4.00124)">
<stop/>
<stop offset="1" stop-opacity="0"/>
</radialGradient>
<linearGradient id="paint16_linear_1229_4067" x1="51.9788" y1="41.0236" x2="55.9776" y2="41.0236" gradientUnits="userSpaceOnUse">
<stop/>
<stop offset="1" stop-opacity="0"/>
</linearGradient>
<linearGradient id="paint17_linear_1229_4067" x1="11.9792" y1="33.0221" x2="7.98042" y2="33.0221" gradientUnits="userSpaceOnUse">
<stop/>
<stop offset="1" stop-opacity="0"/>
</linearGradient>
<radialGradient id="paint18_radial_1229_4067" cx="0" cy="0" r="1" gradientUnits="userSpaceOnUse" gradientTransform="translate(51.9794 59.0237) rotate(90) scale(5.00177 4.00124)">
<stop/>
<stop offset="1" stop-opacity="0"/>
</radialGradient>
<radialGradient id="paint19_radial_1229_4067" cx="0" cy="0" r="1" gradientUnits="userSpaceOnUse" gradientTransform="translate(11.9784 59.0175) rotate(180) scale(4.00124 5.00177)">
<stop/>
<stop offset="1" stop-opacity="0"/>
</radialGradient>
<linearGradient id="paint20_linear_1229_4067" x1="45.9758" y1="10.025" x2="9.98041" y2="61.0233" gradientUnits="userSpaceOnUse">
<stop stop-color="#EDEDED"/>
<stop offset="1" stop-color="#FCFCFC"/>
</linearGradient>
<linearGradient id="paint21_linear_1229_4067" x1="17.9708" y1="37.1362" x2="46.7447" y2="37.1362" gradientUnits="userSpaceOnUse">
<stop stop-color="#F56D3A"/>
<stop offset="1" stop-color="#EC566A"/>
</linearGradient>
<radialGradient id="paint22_radial_1229_4067" cx="0" cy="0" r="1" gradientUnits="userSpaceOnUse" gradientTransform="translate(39.9785 17.0267) rotate(180) scale(16.0028 16.0028)">
<stop/>
<stop offset="1" stop-opacity="0"/>
</radialGradient>
<radialGradient id="paint23_radial_1229_4067" cx="0" cy="0" r="1" gradientUnits="userSpaceOnUse" gradientTransform="translate(39.9792 11.024) rotate(-90) scale(12.0001 16.0001)">
<stop/>
<stop offset="1" stop-opacity="0"/>
</radialGradient>
<linearGradient id="paint24_linear_1229_4067" x1="39.9785" y1="14.3572" x2="23.9794" y2="14.3572" gradientUnits="userSpaceOnUse">
<stop/>
<stop offset="1" stop-opacity="0"/>
</linearGradient>
<linearGradient id="paint25_linear_1229_4067" x1="39.9785" y1="14.0246" x2="32.9787" y2="14.0246" gradientUnits="userSpaceOnUse">
<stop/>
<stop offset="1" stop-opacity="0"/>
</linearGradient>
<radialGradient id="paint26_radial_1229_4067" cx="0" cy="0" r="1" gradientUnits="userSpaceOnUse" gradientTransform="translate(39.978 17.0243) rotate(180) scale(7.00124 7.02916)">
<stop/>
<stop offset="1" stop-opacity="0"/>
</radialGradient>
<radialGradient id="paint27_radial_1229_4067" cx="0" cy="0" r="1" gradientUnits="userSpaceOnUse" gradientTransform="translate(39.9792 11.023) rotate(-90) scale(10.4625 7.03869)">
<stop/>
<stop offset="1" stop-opacity="0"/>
</radialGradient>
<linearGradient id="paint28_linear_1229_4067" x1="43.3108" y1="17.0229" x2="43.3108" y2="33.022" gradientUnits="userSpaceOnUse">
<stop/>
<stop offset="1" stop-opacity="0"/>
</linearGradient>
<linearGradient id="paint29_linear_1229_4067" x1="42.9782" y1="17.023" x2="42.9782" y2="24.0493" gradientUnits="userSpaceOnUse">
<stop/>
<stop offset="1" stop-opacity="0"/>
</linearGradient>
<radialGradient id="paint30_radial_1229_4067" cx="0" cy="0" r="1" gradientUnits="userSpaceOnUse" gradientTransform="translate(45.9792 17.0242) scale(11.4689 7.02797)">
<stop/>
<stop offset="1" stop-opacity="0"/>
</radialGradient>
<radialGradient id="paint31_radial_1229_4067" cx="0" cy="0" r="1" gradientUnits="userSpaceOnUse" gradientTransform="translate(45.9789 17.0239) scale(12 16)">
<stop/>
<stop offset="1" stop-opacity="0"/>
</radialGradient>
<linearGradient id="paint32_linear_1229_4067" x1="39.9792" y1="17.0226" x2="45.9793" y2="11.0225" gradientUnits="userSpaceOnUse">
<stop stop-color="#FEFEFE"/>
<stop offset="1" stop-color="#E9E9E9"/>
</linearGradient>
<clipPath id="clip0_1229_4067">
<rect width="64" height="64" fill="white"/>
</clipPath>
<clipPath id="clip1_1229_4067">
<rect width="64" height="64" fill="white"/>
</clipPath>
<clipPath id="clip2_1229_4067">
<rect width="28" height="28" fill="white" transform="translate(18 23)"/>
</clipPath>
</defs>
</svg>
