<svg width="64" height="64" viewBox="0 0 64 64" fill="none" xmlns="http://www.w3.org/2000/svg">
<g id="application-mbox" clip-path="url(#clip0_1152_5886)">
<g id="Blank-File" clip-path="url(#clip1_1152_5886)">
<g id="Shadow 2" opacity="0.1">
<path id="Vector" d="M11.9791 59.0258H51.9786V65.024H11.9791V59.0258Z" fill="url(#paint0_linear_1152_5886)"/>
<path id="Vector_2" d="M34.979 1.02405V8.02405L41.979 1.02405H34.979Z" fill="url(#paint1_radial_1152_5886)"/>
<path id="Vector_3" d="M41.979 1.02405L34.979 8.02405L48.979 23.024L57.979 14.024V4.56905L54.434 1.02405H41.979Z" fill="url(#paint2_linear_1152_5886)"/>
<path id="Vector_4" d="M57.979 14.024L48.979 23.024H57.979V14.024Z" fill="url(#paint3_radial_1152_5886)"/>
<path id="Vector_5" d="M11.9791 1.02405H34.978V5.02286H11.9791V1.02405Z" fill="url(#paint4_linear_1152_5886)"/>
<path id="Vector_6" d="M5.97717 1.02405H11.9754V5.02286H5.97717V1.02405Z" fill="url(#paint5_radial_1152_5886)"/>
<path id="Vector_7" d="M51.9786 23.0251H57.9769V59.0258H51.9786V23.0251Z" fill="url(#paint6_linear_1152_5886)"/>
<path id="Vector_8" d="M5.97717 5.02283H11.9754V59.022H5.97717V5.02283Z" fill="url(#paint7_linear_1152_5886)"/>
<path id="Vector_9" d="M51.9786 59.0258H57.9769V65.024H51.9786V59.0258Z" fill="url(#paint8_radial_1152_5886)"/>
<path id="Vector_10" d="M5.97717 59.0258H11.9754V65.024H5.97717V59.0258Z" fill="url(#paint9_radial_1152_5886)"/>
</g>
<g id="Shadow 1" opacity="0.2">
<path id="Vector_11" d="M11.9791 59.0258H51.9786V65.024H11.9791V59.0258Z" fill="url(#paint10_linear_1152_5886)"/>
<path id="Vector_12" d="M34.9791 1.02405V8.02409L41.9792 1.02405H34.9791Z" fill="url(#paint11_radial_1152_5886)"/>
<path id="Vector_13" d="M41.9792 1.02405L34.9791 8.02409L48.9792 23.0242L57.9793 14.0241V4.56907L54.4343 1.02405H41.9792Z" fill="url(#paint12_linear_1152_5886)"/>
<path id="Vector_14" d="M57.9793 14.0242L48.9792 23.0242H57.9793V14.0242Z" fill="url(#paint13_radial_1152_5886)"/>
<path id="Vector_15" d="M11.9791 1.02405H34.978V5.02286H11.9791V1.02405Z" fill="url(#paint14_linear_1152_5886)"/>
<path id="Vector_16" d="M11.9754 1.02405H5.97717V5.02286H11.9754V1.02405Z" fill="url(#paint15_radial_1152_5886)"/>
<path id="Vector_17" d="M51.9786 23.0251H57.9769V59.0258H51.9786V23.0251Z" fill="url(#paint16_linear_1152_5886)"/>
<path id="Vector_18" d="M5.97717 5.02283H11.9754V59.022H5.97717V5.02283Z" fill="url(#paint17_linear_1152_5886)"/>
<path id="Vector_19" d="M51.9786 59.0258H57.9769V65.024H51.9786V59.0258Z" fill="url(#paint18_radial_1152_5886)"/>
<path id="Vector_20" d="M5.97717 59.0258H11.9754V65.024H5.97717V59.0258Z" fill="url(#paint19_radial_1152_5886)"/>
</g>
<path id="Paper" d="M10.9777 2.02563C10.4477 2.02663 9.93973 2.23761 9.56499 2.61235C9.19024 2.9871 8.97927 3.49507 8.97827 4.02504V60.0236C8.97827 61.131 9.87026 62.023 10.9815 62.023H52.9766C54.0878 62.023 54.9798 61.131 54.9798 60.0198V21.0257C54.9798 20.0241 54.3675 18.4178 52.9766 17.0231L39.9748 4.02126C39.508 3.4038 38.905 2.90245 38.2127 2.5563C37.5204 2.21015 36.7575 2.02854 35.9835 2.02563H10.9777Z" fill="url(#paint20_linear_1152_5886)"/>
</g>
<g id="Logo">
<g id="Logo_2">
<g id="Text" opacity="0.25">
<path d="M44 49H20V48H44V49Z" fill="black"/>
<path d="M44 46H20V45H44V46Z" fill="black"/>
<path d="M44 43H20V42H44V43Z" fill="black"/>
<path d="M44 40H20V39H44V40Z" fill="black"/>
<path d="M44 37H20V36H44V37Z" fill="black"/>
<path d="M44 34H32V33H44V34Z" fill="black"/>
<path d="M44 31H32V30H44V31Z" fill="black"/>
<path d="M44 28H32V27H44V28Z" fill="black"/>
<path d="M44 25H32V24H44V25Z" fill="black"/>
</g>
</g>
<path id="@" d="M25.0158 33.9998C24.2038 33.9998 23.4859 33.8884 22.8622 33.6654C22.2386 33.4452 21.7144 33.1201 21.2898 32.6901C20.8652 32.2602 20.544 31.7334 20.3264 31.1098C20.1088 30.4861 20 29.7722 20 28.9681C20 28.1905 20.1101 27.4952 20.3304 26.8821C20.5533 26.2691 20.8758 25.7489 21.2977 25.3216C21.7224 24.8917 22.2372 24.564 22.8423 24.3384C23.45 24.1128 24.1374 24 24.9044 24C25.6501 24 26.303 24.1221 26.8629 24.3662C27.4256 24.6077 27.8953 24.9355 28.2722 25.3495C28.6517 25.7609 28.9356 26.224 29.124 26.7388C29.3151 27.2537 29.4107 27.7844 29.4107 28.3311C29.4107 28.7159 29.3921 29.1061 29.3549 29.5015C29.3178 29.8969 29.2395 30.2605 29.1201 30.5922C29.0006 30.9213 28.8162 31.1867 28.5667 31.3884C28.3199 31.5901 27.9855 31.691 27.5636 31.691C27.3778 31.691 27.1734 31.6618 26.9505 31.6034C26.7276 31.545 26.5299 31.4481 26.3574 31.3128C26.1849 31.1774 26.0827 30.9956 26.0509 30.7674H26.0031C25.9394 30.9213 25.8412 31.0673 25.7085 31.2053C25.5785 31.3433 25.4073 31.4534 25.195 31.5357C24.9853 31.618 24.7292 31.6538 24.4267 31.6432C24.0817 31.6299 23.7778 31.553 23.5151 31.4123C23.2523 31.269 23.0321 31.0753 22.8543 30.8311C22.6791 30.5843 22.5464 30.299 22.4562 29.9752C22.3686 29.6488 22.3248 29.2972 22.3248 28.9203C22.3248 28.562 22.3779 28.2343 22.484 27.937C22.5902 27.6398 22.7375 27.3797 22.9259 27.1568C23.117 26.9339 23.3399 26.7561 23.5947 26.6234C23.8521 26.488 24.1294 26.4044 24.4267 26.3726C24.6921 26.346 24.9336 26.358 25.1512 26.4084C25.3688 26.4562 25.5479 26.5292 25.6886 26.6273C25.8293 26.7229 25.9182 26.829 25.9553 26.9458H26.0031V26.5H26.847V30.0986C26.847 30.3215 26.9094 30.5179 27.0341 30.6878C27.1588 30.8576 27.3406 30.9426 27.5795 30.9426C27.8502 30.9426 28.0572 30.8497 28.2005 30.6639C28.3465 30.4781 28.446 30.1915 28.4991 29.804C28.5548 29.4166 28.5827 28.9203 28.5827 28.3152C28.5827 27.9596 28.5336 27.6093 28.4354 27.2643C28.3398 26.9166 28.1939 26.5915 27.9975 26.289C27.8037 25.9864 27.5583 25.7197 27.261 25.4888C26.9638 25.2579 26.6148 25.0775 26.2141 24.9474C25.816 24.8147 25.3635 24.7484 24.8566 24.7484C24.2329 24.7484 23.6743 24.8453 23.1807 25.039C22.6897 25.2301 22.2717 25.5101 21.9267 25.8789C21.5844 26.2452 21.323 26.691 21.1425 27.2165C20.9647 27.7393 20.8758 28.3338 20.8758 28.9999C20.8758 29.6767 20.9647 30.2778 21.1425 30.8032C21.323 31.3287 21.5883 31.7719 21.9387 32.1328C22.2916 32.4938 22.7282 32.7671 23.2484 32.9529C23.7685 33.1413 24.3683 33.2355 25.0477 33.2355C25.3396 33.2355 25.6276 33.2076 25.9115 33.1519C26.1955 33.0962 26.4463 33.0351 26.6639 32.9688C26.8815 32.9024 27.0381 32.8534 27.1336 32.8215L27.3566 33.554C27.192 33.623 26.9771 33.692 26.7117 33.761C26.4489 33.83 26.1676 33.887 25.8677 33.9322C25.5705 33.9773 25.2865 33.9998 25.0158 33.9998ZM24.5541 30.8311C24.9097 30.8311 25.1976 30.7594 25.4179 30.6161C25.6382 30.4728 25.7987 30.2565 25.8996 29.9673C26.0004 29.678 26.0509 29.3131 26.0509 28.8725C26.0509 28.4267 25.9951 28.079 25.8837 27.8296C25.7722 27.5801 25.6077 27.4049 25.39 27.3041C25.1724 27.2032 24.9044 27.1528 24.5859 27.1528C24.2834 27.1528 24.0246 27.2324 23.8096 27.3917C23.5973 27.5482 23.4341 27.7579 23.32 28.0206C23.2085 28.2807 23.1528 28.5647 23.1528 28.8725C23.1528 29.2122 23.1979 29.532 23.2882 29.8319C23.3784 30.1291 23.5257 30.3706 23.73 30.5564C23.9344 30.7395 24.2091 30.8311 24.5541 30.8311Z" fill="#CCA300"/>
</g>
<path id="ribbon" d="M11 62H10.6914C9.81127 61.8737 9.12286 61.1834 9 60.3047V3.74902C9.0604 3.32121 9.25642 2.92131 9.56543 2.6123C9.94012 2.23773 10.4477 2.02643 10.9775 2.02539H11V62Z" fill="url(#paint21_linear_1152_5886)"/>
<g id="Blank-File-Top">
<g id="Curl">
<g id="Shadow">
<path id="Vector_21" opacity="0.05" d="M39.9784 17.0229H23.9794V33.022H39.9784V17.0229Z" fill="url(#paint22_radial_1152_5886)"/>
<path id="Vector_22" opacity="0.05" d="M23.9791 2.02393V11.024H39.9792V4.02394C38.6412 2.33093 36.9792 2.02393 35.9792 2.02393H23.9791Z" fill="url(#paint23_radial_1152_5886)"/>
<path id="Vector_23" opacity="0.05" d="M39.9784 11.0248H23.9794V17.023H39.9784V11.0248Z" fill="url(#paint24_linear_1152_5886)"/>
<path id="Vector_24" opacity="0.2" d="M39.9785 11.0248H28.9799V17.023H39.9785V11.0248Z" fill="url(#paint25_linear_1152_5886)"/>
<path id="Vector_25" opacity="0.2" d="M39.9785 17.0229H28.9799V28.0216H39.9785V17.0229Z" fill="url(#paint26_radial_1152_5886)"/>
<path id="Vector_26" opacity="0.2" d="M28.9791 2.02393V11.024H39.9792V4.02394C39.5247 3.43832 38.9523 2.95457 38.2992 2.60393L35.9792 2.02393H28.9791Z" fill="url(#paint27_radial_1152_5886)"/>
<path id="Vector_27" opacity="0.05" d="M39.9785 17.0229V33.022H45.9767V17.0229H39.9785Z" fill="url(#paint28_linear_1152_5886)"/>
<path id="Vector_28" opacity="0.2" d="M39.9785 17.0268V28.0254H45.9767V17.0268H39.9785Z" fill="url(#paint29_linear_1152_5886)"/>
<path id="Vector_29" opacity="0.2" d="M45.9792 17.024V28.0241H54.9793V21.0241L54.5393 19.2641C54.1607 18.4283 53.6319 17.669 52.9793 17.024H45.9792Z" fill="url(#paint30_radial_1152_5886)"/>
<path id="Vector_30" opacity="0.05" d="M45.979 17.0239V33.0239H54.979V21.0239C54.979 20.8919 54.953 20.7239 54.939 20.5709C54.791 19.5779 54.176 18.2209 52.979 17.0239H45.979Z" fill="url(#paint31_radial_1152_5886)"/>
</g>
<path id="Paper_2" d="M37.9791 2.44141V17.0193C37.9791 18.1267 38.8711 19.0187 39.9823 19.0187H54.4431C54.0748 18.2764 53.5871 17.5996 52.9993 17.0155L39.9974 4.01372C39.4687 3.33484 38.7824 2.79515 37.998 2.44141H37.9791Z" fill="url(#paint32_linear_1152_5886)"/>
</g>
</g>
</g>
<defs>
<linearGradient id="paint0_linear_1152_5886" x1="29.9776" y1="59.0258" x2="29.9776" y2="65.024" gradientUnits="userSpaceOnUse">
<stop/>
<stop offset="1" stop-opacity="0"/>
</linearGradient>
<radialGradient id="paint1_radial_1152_5886" cx="0" cy="0" r="1" gradientUnits="userSpaceOnUse" gradientTransform="translate(34.978 5.02445) scale(6.32269 4.00052)">
<stop/>
<stop offset="1" stop-opacity="0"/>
</radialGradient>
<linearGradient id="paint2_linear_1152_5886" x1="42.979" y1="13.024" x2="46.727" y2="9.27605" gradientUnits="userSpaceOnUse">
<stop/>
<stop offset="1" stop-opacity="0"/>
</linearGradient>
<radialGradient id="paint3_radial_1152_5886" cx="0" cy="0" r="1" gradientUnits="userSpaceOnUse" gradientTransform="translate(51.9788 23.0242) scale(4.99995 6.94012)">
<stop/>
<stop offset="1" stop-opacity="0"/>
</radialGradient>
<linearGradient id="paint4_linear_1152_5886" x1="21.9799" y1="5.02286" x2="21.9799" y2="1.02405" gradientUnits="userSpaceOnUse">
<stop/>
<stop offset="1" stop-opacity="0"/>
</linearGradient>
<radialGradient id="paint5_radial_1152_5886" cx="0" cy="0" r="1" gradientUnits="userSpaceOnUse" gradientTransform="translate(11.9793 5.02578) rotate(-90) scale(4.00124 5.00177)">
<stop/>
<stop offset="1" stop-opacity="0"/>
</radialGradient>
<linearGradient id="paint6_linear_1152_5886" x1="51.9786" y1="41.0236" x2="56.979" y2="41.0236" gradientUnits="userSpaceOnUse">
<stop/>
<stop offset="1" stop-opacity="0"/>
</linearGradient>
<linearGradient id="paint7_linear_1152_5886" x1="11.9792" y1="33.0221" x2="6.97877" y2="33.0221" gradientUnits="userSpaceOnUse">
<stop/>
<stop offset="1" stop-opacity="0"/>
</linearGradient>
<radialGradient id="paint8_radial_1152_5886" cx="0" cy="0" r="1" gradientUnits="userSpaceOnUse" gradientTransform="translate(51.9742 59.022) rotate(90) scale(6.00201 5.00177)">
<stop/>
<stop offset="1" stop-opacity="0"/>
</radialGradient>
<radialGradient id="paint9_radial_1152_5886" cx="0" cy="0" r="1" gradientUnits="userSpaceOnUse" gradientTransform="translate(11.9763 59.022) rotate(180) scale(5.00177 6.00201)">
<stop/>
<stop offset="1" stop-opacity="0"/>
</radialGradient>
<linearGradient id="paint10_linear_1152_5886" x1="29.9776" y1="59.0258" x2="29.9776" y2="64.0224" gradientUnits="userSpaceOnUse">
<stop/>
<stop offset="1" stop-opacity="0"/>
</linearGradient>
<radialGradient id="paint11_radial_1152_5886" cx="0" cy="0" r="1" gradientUnits="userSpaceOnUse" gradientTransform="translate(34.9786 5.02335) scale(6.00771 3.00039)">
<stop/>
<stop offset="1" stop-opacity="0"/>
</radialGradient>
<linearGradient id="paint12_linear_1152_5886" x1="42.9792" y1="13.0241" x2="45.9832" y2="10.0201" gradientUnits="userSpaceOnUse">
<stop/>
<stop offset="1" stop-opacity="0"/>
</linearGradient>
<radialGradient id="paint13_radial_1152_5886" cx="0" cy="0" r="1" gradientUnits="userSpaceOnUse" gradientTransform="translate(51.9799 23.0236) scale(4 6.38885)">
<stop/>
<stop offset="1" stop-opacity="0"/>
</radialGradient>
<linearGradient id="paint14_linear_1152_5886" x1="21.9799" y1="5.02286" x2="21.9799" y2="2.02564" gradientUnits="userSpaceOnUse">
<stop/>
<stop offset="1" stop-opacity="0"/>
</linearGradient>
<radialGradient id="paint15_radial_1152_5886" cx="0" cy="0" r="1" gradientUnits="userSpaceOnUse" gradientTransform="translate(11.979 5.02286) rotate(-90) scale(3.001 4.00124)">
<stop/>
<stop offset="1" stop-opacity="0"/>
</radialGradient>
<linearGradient id="paint16_linear_1152_5886" x1="51.9786" y1="41.0236" x2="55.9775" y2="41.0236" gradientUnits="userSpaceOnUse">
<stop/>
<stop offset="1" stop-opacity="0"/>
</linearGradient>
<linearGradient id="paint17_linear_1152_5886" x1="11.9792" y1="33.0221" x2="7.98036" y2="33.0221" gradientUnits="userSpaceOnUse">
<stop/>
<stop offset="1" stop-opacity="0"/>
</linearGradient>
<radialGradient id="paint18_radial_1152_5886" cx="0" cy="0" r="1" gradientUnits="userSpaceOnUse" gradientTransform="translate(51.9793 59.0237) rotate(90) scale(5.00177 4.00124)">
<stop/>
<stop offset="1" stop-opacity="0"/>
</radialGradient>
<radialGradient id="paint19_radial_1152_5886" cx="0" cy="0" r="1" gradientUnits="userSpaceOnUse" gradientTransform="translate(11.9783 59.0175) rotate(180) scale(4.00124 5.00177)">
<stop/>
<stop offset="1" stop-opacity="0"/>
</radialGradient>
<linearGradient id="paint20_linear_1152_5886" x1="45.9759" y1="10.025" x2="9.98047" y2="61.0233" gradientUnits="userSpaceOnUse">
<stop stop-color="#EDEDED"/>
<stop offset="1" stop-color="#FCFCFC"/>
</linearGradient>
<linearGradient id="paint21_linear_1152_5886" x1="9.52341" y1="2.02977" x2="9.52341" y2="61.9998" gradientUnits="userSpaceOnUse">
<stop stop-color="#FFEB66"/>
<stop offset="1" stop-color="#F5C967"/>
</linearGradient>
<radialGradient id="paint22_radial_1152_5886" cx="0" cy="0" r="1" gradientUnits="userSpaceOnUse" gradientTransform="translate(39.9784 17.0267) rotate(180) scale(16.0028 16.0028)">
<stop/>
<stop offset="1" stop-opacity="0"/>
</radialGradient>
<radialGradient id="paint23_radial_1152_5886" cx="0" cy="0" r="1" gradientUnits="userSpaceOnUse" gradientTransform="translate(39.9792 11.024) rotate(-90) scale(12.0001 16.0001)">
<stop/>
<stop offset="1" stop-opacity="0"/>
</radialGradient>
<linearGradient id="paint24_linear_1152_5886" x1="39.9784" y1="14.3572" x2="23.9794" y2="14.3572" gradientUnits="userSpaceOnUse">
<stop/>
<stop offset="1" stop-opacity="0"/>
</linearGradient>
<linearGradient id="paint25_linear_1152_5886" x1="39.9785" y1="14.0246" x2="32.9787" y2="14.0246" gradientUnits="userSpaceOnUse">
<stop/>
<stop offset="1" stop-opacity="0"/>
</linearGradient>
<radialGradient id="paint26_radial_1152_5886" cx="0" cy="0" r="1" gradientUnits="userSpaceOnUse" gradientTransform="translate(39.978 17.0243) rotate(180) scale(7.00124 7.02916)">
<stop/>
<stop offset="1" stop-opacity="0"/>
</radialGradient>
<radialGradient id="paint27_radial_1152_5886" cx="0" cy="0" r="1" gradientUnits="userSpaceOnUse" gradientTransform="translate(39.9792 11.023) rotate(-90) scale(10.4625 7.03869)">
<stop/>
<stop offset="1" stop-opacity="0"/>
</radialGradient>
<linearGradient id="paint28_linear_1152_5886" x1="43.3109" y1="17.0229" x2="43.3109" y2="33.022" gradientUnits="userSpaceOnUse">
<stop/>
<stop offset="1" stop-opacity="0"/>
</linearGradient>
<linearGradient id="paint29_linear_1152_5886" x1="42.9783" y1="17.023" x2="42.9783" y2="24.0493" gradientUnits="userSpaceOnUse">
<stop/>
<stop offset="1" stop-opacity="0"/>
</linearGradient>
<radialGradient id="paint30_radial_1152_5886" cx="0" cy="0" r="1" gradientUnits="userSpaceOnUse" gradientTransform="translate(45.9792 17.0242) scale(11.4689 7.02797)">
<stop/>
<stop offset="1" stop-opacity="0"/>
</radialGradient>
<radialGradient id="paint31_radial_1152_5886" cx="0" cy="0" r="1" gradientUnits="userSpaceOnUse" gradientTransform="translate(45.979 17.0239) scale(12 16)">
<stop/>
<stop offset="1" stop-opacity="0"/>
</radialGradient>
<linearGradient id="paint32_linear_1152_5886" x1="39.9793" y1="17.0226" x2="45.9793" y2="11.0225" gradientUnits="userSpaceOnUse">
<stop stop-color="#FEFEFE"/>
<stop offset="1" stop-color="#E9E9E9"/>
</linearGradient>
<clipPath id="clip0_1152_5886">
<rect width="64" height="64" fill="white"/>
</clipPath>
<clipPath id="clip1_1152_5886">
<rect width="64" height="64" fill="white"/>
</clipPath>
</defs>
</svg>
