<svg width="16" height="16" viewBox="0 0 16 16" fill="none" xmlns="http://www.w3.org/2000/svg">
<path d="M3 0C2.446 0 2 0.446 2 1V15C2 15.554 2.446 16 3 16H13C13.554 16 14 15.554 14 15V5C14 4.446 9.554 0 9 0H3ZM3.5 1H9V4C9 4.5 9.5 5 10 5H13V14.5C13 14.777 12.777 15 12.5 15H3.5C3.4343 15.0001 3.36922 14.9873 3.3085 14.9622C3.24778 14.9371 3.19261 14.9003 3.14615 14.8538C3.0997 14.8074 3.06287 14.7522 3.03779 14.6915C3.01271 14.6308 2.99987 14.5657 3 14.5V1.5C3 1.223 3.223 1 3.5 1ZM5 8V9H11V8H5ZM5 10V11H11V10H5ZM5 12V13H9V12H5Z" fill="#363636"/>
</svg>
