<svg width="64" height="64" viewBox="0 0 64 64" fill="none" xmlns="http://www.w3.org/2000/svg">
<g id="application-vnd.ms-word.template.macroenabled.12" clip-path="url(#clip0_1265_6462)">
<g id="Blank-Template" clip-path="url(#clip1_1265_6462)">
<g id="Shadow 2" opacity="0.1">
<path id="Vector" d="M11.9792 59.0256H51.9787V65.0239H11.9792V59.0256Z" fill="url(#paint0_linear_1265_6462)"/>
<path id="Vector_2" d="M12 1H52V5H12V1Z" fill="url(#paint1_linear_1265_6462)"/>
<path id="Vector_3" d="M5.97723 1.02393H11.9755V5.02274H5.97723V1.02393Z" fill="url(#paint2_radial_1265_6462)"/>
<path id="Vector_4" d="M57.9982 1.02393H52V5.02274H57.9982V1.02393Z" fill="url(#paint3_radial_1265_6462)"/>
<path id="Vector_5" d="M52 5H58V59H52V5Z" fill="url(#paint4_linear_1265_6462)"/>
<path id="Vector_6" d="M5.97723 5.02271H11.9755V59.0219H5.97723V5.02271Z" fill="url(#paint5_linear_1265_6462)"/>
<path id="Vector_7" d="M51.9787 59.0256H57.977V65.0239H51.9787V59.0256Z" fill="url(#paint6_radial_1265_6462)"/>
<path id="Vector_8" d="M5.97723 59.0256H11.9755V65.0239H5.97723V59.0256Z" fill="url(#paint7_radial_1265_6462)"/>
</g>
<g id="Shadow 1" opacity="0.2">
<path id="Vector_9" d="M11.9792 59.0256H51.9787V65.0239H11.9792V59.0256Z" fill="url(#paint8_linear_1265_6462)"/>
<path id="Vector_10" d="M12 1H52V5H12V1Z" fill="url(#paint9_linear_1265_6462)"/>
<path id="Vector_11" d="M11.9755 1.02393H5.97723V5.02274H11.9755V1.02393Z" fill="url(#paint10_radial_1265_6462)"/>
<path id="Vector_12" d="M52 1H57.9982V4.99882H52V1Z" fill="url(#paint11_radial_1265_6462)"/>
<path id="Vector_13" d="M52 5H58V59H52V5Z" fill="url(#paint12_linear_1265_6462)"/>
<path id="Vector_14" d="M5.97723 5.02271H11.9755V59.0219H5.97723V5.02271Z" fill="url(#paint13_linear_1265_6462)"/>
<path id="Vector_15" d="M51.9787 59.0256H57.977V65.0239H51.9787V59.0256Z" fill="url(#paint14_radial_1265_6462)"/>
<path id="Vector_16" d="M5.97723 59.0256H11.9755V65.0239H5.97723V59.0256Z" fill="url(#paint15_radial_1265_6462)"/>
</g>
<path id="Paper" d="M52 1H12C10.3431 1 9 2.34315 9 4V58C9 59.6569 10.3431 61 12 61H52C53.6569 61 55 59.6569 55 58V4C55 2.34315 53.6569 1 52 1Z" fill="url(#paint16_linear_1265_6462)"/>
</g>
<path id="Watermark" d="M34.4241 46.466L34.4165 41.2654L40.2521 40.3987V46.4661L34.4241 46.466ZM41.2273 40.2424L49.0005 39.0002V46.466H41.2248L41.2273 40.2424ZM49.003 47.5344L49.0005 55.0002L41.2248 53.8008V47.5343L49.003 47.5344ZM40.2521 53.6648L34.4241 52.788V47.5319H40.2521V53.6623V53.6648Z" fill="#E0EBF4"/>
<g id="Logo">
<g id="Logo_2">
<g id="Text" opacity="0.25">
<path d="M44 44H20V43H44V44Z" fill="black"/>
<path d="M44 41H20V40H44V41Z" fill="black"/>
<path d="M44 38H20V37H44V38Z" fill="black"/>
<path d="M44 35H20V34H44V35Z" fill="black"/>
<path d="M44 32H20V31H44V32Z" fill="black"/>
<path d="M44 29H34V28H44V29Z" fill="black"/>
<path d="M44 26H34V25H44V26Z" fill="black"/>
<path d="M44 23H34V22H44V23Z" fill="black"/>
<path d="M44 20H34V19H44V20Z" fill="black"/>
</g>
<path id="Capitalized" d="M22.6332 29L20 19H21.185L23.1975 27.1445H23.2915L25.3417 19H26.6583L28.7085 27.1445H28.8025L30.815 19H32L29.3668 29H28.163L26.0376 21.0312H25.9624L23.837 29H22.6332Z" fill="#5882BB"/>
</g>
</g>
<g id="Macro label">
<circle id="Ellipse 10" cx="48" cy="53" r="10" fill="url(#paint17_linear_1265_6462)"/>
<path id="Vector_17" d="M47.9851 44.5403C47.5808 44.5746 47.5808 44.9127 47.4369 45.7442C47.1662 45.7673 46.8969 45.8055 46.6305 45.8584C46.2741 44.9995 46.1508 44.7002 45.8149 44.8145C45.4266 44.9447 45.518 45.2759 45.5774 46.144C45.3221 46.2329 45.0719 46.3359 44.8281 46.4524C44.2273 45.7282 44.0217 45.4769 43.7315 45.6848C43.4049 45.9201 43.5808 46.2102 43.8846 46.9984C43.6583 47.1528 43.4409 47.3199 43.2335 47.4987C42.4774 46.9413 42.2147 46.7471 41.9839 47.0189C41.7235 47.3273 41.968 47.5626 42.4591 48.2639C42.2838 48.4665 42.1198 48.6785 41.968 48.899C41.1753 48.6043 40.8828 48.433 40.6521 48.7619C40.4465 49.0521 40.7001 49.2554 41.4288 49.8425C41.3104 50.0877 41.2059 50.3394 41.1159 50.5963C40.282 50.5164 39.9554 50.4296 39.8183 50.8065C39.6972 51.1377 39.9919 51.2702 40.8303 51.6403C40.7813 51.904 40.747 52.1701 40.7275 52.4376C39.9051 52.5975 39.5647 52.6021 39.5396 53.0018C39.5168 53.3491 39.8366 53.397 40.7184 53.5113C40.7396 53.7965 40.7778 54.0803 40.8326 54.3611C40.0787 54.6923 39.7521 54.7768 39.816 55.1697C39.8708 55.5193 40.1952 55.4896 41.1181 55.4028C41.2124 55.6701 41.3222 55.9317 41.4471 56.1863C40.8029 56.6843 40.5105 56.8488 40.6658 57.212C40.8052 57.5387 41.1136 57.429 41.9977 57.1161C42.1449 57.33 42.3035 57.5358 42.4728 57.7329C41.9885 58.4456 41.7441 58.6855 42.0114 58.9916C42.2444 59.2589 42.5025 59.0624 43.2404 58.5027C43.4485 58.6824 43.6666 58.8502 43.8937 59.0053C43.599 59.8277 43.4209 60.1247 43.7567 60.3531C44.0536 60.5564 44.2524 60.2983 44.8418 59.5558L44.6979 59.4713C44.976 59.6112 45.2629 59.7333 45.5568 59.8368C45.4997 60.6821 45.4197 61.011 45.7989 61.1389C46.1302 61.2486 46.2558 60.9562 46.5962 60.1292C46.8695 60.1822 47.1456 60.2196 47.4232 60.2412C47.5808 61.1732 47.6311 61.4953 47.9874 61.4588C48.3872 61.4199 48.3804 61.0796 48.5129 60.248C48.7934 60.2283 49.0726 60.1924 49.349 60.1407C49.6916 60.979 49.8173 61.2737 50.1485 61.1641C50.5323 61.0361 50.4501 60.7072 50.3929 59.862C50.6513 59.7733 50.9046 59.6704 51.1514 59.5536C51.7225 60.2754 51.9258 60.5267 52.2159 60.328C52.5472 60.0995 52.3804 59.8071 52.0926 59.019C52.3278 58.8609 52.5536 58.6893 52.7688 58.505C53.4769 59.0418 53.7351 59.2269 53.9635 58.9665C54.2239 58.6695 53.9955 58.4228 53.534 57.7511C53.7099 57.5516 53.8746 57.3427 54.0275 57.1252C54.891 57.429 55.1948 57.5364 55.3342 57.212C55.4895 56.8511 55.2017 56.6866 54.5643 56.1955C54.6911 55.938 54.8025 55.6733 54.8978 55.4028C55.807 55.4873 56.1292 55.517 56.184 55.1697C56.2479 54.7814 55.9258 54.69 55.1857 54.3702C55.2393 54.0863 55.276 53.7995 55.2953 53.5113C56.168 53.397 56.4832 53.3468 56.4604 53.0018C56.4375 52.6066 56.0995 52.5952 55.2953 52.4421C55.2741 52.17 55.2375 51.8992 55.1857 51.6312C56.0104 51.2657 56.3028 51.1355 56.1817 50.8065C56.0446 50.4341 55.7225 50.5164 54.9024 50.594C54.812 50.3332 54.7067 50.0777 54.5872 49.8288C55.3022 49.2531 55.5512 49.0521 55.3479 48.7619C55.1194 48.433 54.827 48.6043 54.0412 48.8967C53.8853 48.6712 53.7167 48.4546 53.5363 48.2479C54.0663 47.4987 54.2513 47.2337 53.9772 47.0121C53.6688 46.7608 53.4335 46.9984 52.7756 47.4827C52.5633 47.2995 52.3406 47.1286 52.1086 46.971C52.4581 46.1166 52.5814 45.8196 52.2639 45.6643C51.8984 45.4838 51.727 45.7808 51.1582 46.4387C50.9122 46.3212 50.6598 46.2174 50.4021 46.128C50.4797 45.1914 50.5117 44.8716 50.1576 44.8167C49.7624 44.7573 49.6825 45.084 49.3535 45.8493C49.0793 45.7993 48.8024 45.765 48.5243 45.7465C48.3849 44.8304 48.337 44.5106 47.9829 44.5403H47.9851ZM47.6905 46.7768C48.4991 46.7631 49.4609 46.9047 49.7716 47.0395C51.1308 47.453 52.3872 48.2137 53.4586 49.9818C53.6574 50.3108 53.8013 50.6306 53.8653 50.923C53.9048 51.0831 53.9112 51.2495 53.8841 51.4121C53.857 51.5748 53.7969 51.7302 53.7077 51.8688C53.5386 52.0926 53.3262 52.3028 53.0337 52.3302C52.1177 52.4147 50.875 52.3645 49.8949 52.3531C49.7305 52.3531 49.5751 52.2845 49.5294 52.2343C49.237 52.0515 49.0406 51.6563 48.7185 51.5444C48.1999 51.3068 47.992 51.5055 47.6996 51.1492C47.1632 50.2921 46.6528 49.4191 46.169 48.5312C45.8218 47.9304 46.048 47.3296 46.5688 47.0052C46.7744 46.8453 47.2062 46.7836 47.6905 46.7768ZM44.0833 48.6249L44.2113 48.6294C44.49 48.6683 44.7778 48.7482 44.9446 48.9904C45.47 49.7442 46.0365 50.8476 46.5071 51.7043C46.5871 51.8482 46.6054 52.0172 46.5825 52.0835C46.5665 52.4262 46.3175 52.7894 46.3769 53.1252C46.4226 53.6917 46.7013 53.774 46.5322 54.2034C46.0457 55.0921 45.5271 55.9784 44.9948 56.8214C44.6407 57.4153 44.0057 57.5136 43.4665 57.2189C42.8338 56.9539 41.9817 54.9573 41.9268 54.4182C41.6207 53.0338 41.6664 51.5672 42.6853 49.7694C42.8474 49.4667 43.0572 49.1921 43.3066 48.9561C43.5122 48.7734 43.7864 48.634 44.0833 48.6249ZM47.9989 52.3942C48.1594 52.3942 48.3134 52.458 48.4269 52.5715C48.5405 52.685 48.6042 52.839 48.6042 52.9995C48.6036 53.1597 48.5396 53.3131 48.4261 53.4261C48.3126 53.5392 48.159 53.6026 47.9989 53.6026C47.8391 53.602 47.686 53.5383 47.5731 53.4253C47.4601 53.3124 47.3964 53.1593 47.3958 52.9995C47.3958 52.8394 47.4592 52.6858 47.5723 52.5723C47.6853 52.4588 47.8387 52.3948 47.9989 52.3942ZM51.3227 53.6597H51.325C51.8337 53.6628 52.3385 53.6735 52.8396 53.6917C53.5318 53.7009 53.9361 54.2034 53.9475 54.8157C54.0343 55.4964 52.7276 57.228 52.2867 57.5455C51.2382 58.505 49.9429 59.1949 47.8732 59.2132C47.5288 59.2249 47.1847 59.181 46.8544 59.083C46.6966 59.0355 46.5502 58.9563 46.4241 58.8502C46.298 58.7441 46.1949 58.6135 46.1211 58.4662C46.0137 58.208 45.9383 57.9179 46.0662 57.6506C46.4591 56.8214 47.1308 55.7797 47.6379 54.9459C47.7247 54.8042 47.8618 54.7037 47.9303 54.69C48.2364 54.5347 48.6773 54.5689 48.94 54.3474C49.4084 54.0275 49.3421 53.742 49.799 53.6757C50.3077 53.6636 50.8156 53.6582 51.3227 53.6597Z" fill="white"/>
</g>
</g>
<defs>
<linearGradient id="paint0_linear_1265_6462" x1="29.9777" y1="59.0256" x2="29.9777" y2="65.0239" gradientUnits="userSpaceOnUse">
<stop/>
<stop offset="1" stop-opacity="0"/>
</linearGradient>
<linearGradient id="paint1_linear_1265_6462" x1="29.3936" y1="5" x2="29.3936" y2="1" gradientUnits="userSpaceOnUse">
<stop/>
<stop offset="1" stop-opacity="0"/>
</linearGradient>
<radialGradient id="paint2_radial_1265_6462" cx="0" cy="0" r="1" gradientUnits="userSpaceOnUse" gradientTransform="translate(11.9794 5.02566) rotate(-90) scale(4.00124 5.00177)">
<stop/>
<stop offset="1" stop-opacity="0"/>
</radialGradient>
<radialGradient id="paint3_radial_1265_6462" cx="0" cy="0" r="1" gradientUnits="userSpaceOnUse" gradientTransform="translate(51.9961 5.02566) rotate(-90) scale(4.00124 5.00177)">
<stop/>
<stop offset="1" stop-opacity="0"/>
</radialGradient>
<linearGradient id="paint4_linear_1265_6462" x1="52" y1="31.9972" x2="57.0019" y2="31.9972" gradientUnits="userSpaceOnUse">
<stop/>
<stop offset="1" stop-opacity="0"/>
</linearGradient>
<linearGradient id="paint5_linear_1265_6462" x1="11.9792" y1="33.022" x2="6.97882" y2="33.022" gradientUnits="userSpaceOnUse">
<stop/>
<stop offset="1" stop-opacity="0"/>
</linearGradient>
<radialGradient id="paint6_radial_1265_6462" cx="0" cy="0" r="1" gradientUnits="userSpaceOnUse" gradientTransform="translate(51.9743 59.0219) rotate(90) scale(6.00201 5.00177)">
<stop/>
<stop offset="1" stop-opacity="0"/>
</radialGradient>
<radialGradient id="paint7_radial_1265_6462" cx="0" cy="0" r="1" gradientUnits="userSpaceOnUse" gradientTransform="translate(11.9763 59.0219) rotate(180) scale(5.00177 6.00201)">
<stop/>
<stop offset="1" stop-opacity="0"/>
</radialGradient>
<linearGradient id="paint8_linear_1265_6462" x1="29.9777" y1="59.0256" x2="29.9777" y2="64.0223" gradientUnits="userSpaceOnUse">
<stop/>
<stop offset="1" stop-opacity="0"/>
</linearGradient>
<linearGradient id="paint9_linear_1265_6462" x1="29.3936" y1="5" x2="29.3936" y2="2.00189" gradientUnits="userSpaceOnUse">
<stop/>
<stop offset="1" stop-opacity="0"/>
</linearGradient>
<radialGradient id="paint10_radial_1265_6462" cx="0" cy="0" r="1" gradientUnits="userSpaceOnUse" gradientTransform="translate(11.9791 5.02274) rotate(-90) scale(3.001 4.00124)">
<stop/>
<stop offset="1" stop-opacity="0"/>
</radialGradient>
<radialGradient id="paint11_radial_1265_6462" cx="0" cy="0" r="1" gradientUnits="userSpaceOnUse" gradientTransform="translate(51.9964 4.99882) rotate(-90) scale(3.001 4.00124)">
<stop/>
<stop offset="1" stop-opacity="0"/>
</radialGradient>
<linearGradient id="paint12_linear_1265_6462" x1="52" y1="31.9972" x2="56" y2="31.9972" gradientUnits="userSpaceOnUse">
<stop/>
<stop offset="1" stop-opacity="0"/>
</linearGradient>
<linearGradient id="paint13_linear_1265_6462" x1="11.9792" y1="33.022" x2="7.98041" y2="33.022" gradientUnits="userSpaceOnUse">
<stop/>
<stop offset="1" stop-opacity="0"/>
</linearGradient>
<radialGradient id="paint14_radial_1265_6462" cx="0" cy="0" r="1" gradientUnits="userSpaceOnUse" gradientTransform="translate(51.9794 59.0236) rotate(90) scale(5.00177 4.00124)">
<stop/>
<stop offset="1" stop-opacity="0"/>
</radialGradient>
<radialGradient id="paint15_radial_1265_6462" cx="0" cy="0" r="1" gradientUnits="userSpaceOnUse" gradientTransform="translate(11.9784 59.0174) rotate(180) scale(4.00124 5.00177)">
<stop/>
<stop offset="1" stop-opacity="0"/>
</radialGradient>
<linearGradient id="paint16_linear_1265_6462" x1="45.9964" y1="8.99974" x2="9.99848" y2="59.9977" gradientUnits="userSpaceOnUse">
<stop stop-color="#FCFCFC"/>
<stop offset="1" stop-color="#EDEDED"/>
</linearGradient>
<linearGradient id="paint17_linear_1265_6462" x1="58" y1="43" x2="38" y2="63" gradientUnits="userSpaceOnUse">
<stop stop-color="#F9D351"/>
<stop offset="1" stop-color="#F89137"/>
</linearGradient>
<clipPath id="clip0_1265_6462">
<rect width="64" height="64" fill="white"/>
</clipPath>
<clipPath id="clip1_1265_6462">
<rect width="64" height="64" fill="white"/>
</clipPath>
</defs>
</svg>
