<svg width="16" height="16" viewBox="0 0 16 16" fill="none" xmlns="http://www.w3.org/2000/svg">
<g id="document-open-recent-symbolic">
<g id="Border">
<path d="M8.54423 1.02148H8.54618C8.55367 1.02207 8.56115 1.02283 8.56864 1.02344C8.6368 1.02899 8.70491 1.03446 8.77274 1.04199L8.81962 1.04785C8.82908 1.04897 8.83848 1.05061 8.84794 1.05176C8.92369 1.06101 8.99923 1.07131 9.0745 1.08301C9.08059 1.08395 9.08696 1.08498 9.09305 1.08594L9.09794 1.08691C10.2216 1.26547 11.2879 1.71577 12.2024 2.40234C13.2717 3.20511 14.0888 4.29732 14.5569 5.5498C15.0249 6.80212 15.1246 8.16261 14.844 9.46973C14.5633 10.7768 13.9138 11.977 12.9729 12.9268C12.0319 13.8765 10.838 14.5371 9.53348 14.8301C8.22896 15.123 6.86737 15.0364 5.61063 14.5801C4.35395 14.1237 3.25438 13.3165 2.44169 12.2549C1.62898 11.1932 1.1371 9.92022 1.02469 8.58789C1.02417 8.58172 1.02422 8.57551 1.02372 8.56934C1.00127 8.29424 1.20572 8.05293 1.48075 8.03027C1.75586 8.00799 1.99736 8.21315 2.01981 8.48828C2.02202 8.51533 2.02501 8.54231 2.02762 8.56934C2.13425 9.68773 2.55221 10.7547 3.23563 11.6475C3.93224 12.5574 4.87527 13.2495 5.95243 13.6406C7.02949 14.0316 8.19674 14.1055 9.31473 13.8545C10.4327 13.6034 11.4555 13.0366 12.262 12.2227C13.0685 11.4086 13.6248 10.3801 13.8655 9.25977C14.106 8.13954 14.0214 6.97369 13.6204 5.90039C13.2192 4.82681 12.5184 3.89024 11.6018 3.20215C10.6853 2.51407 9.59044 2.10321 8.44755 2.01758V2.01465C8.18279 1.98289 7.98807 1.74878 8.00907 1.48047C8.03015 1.21351 8.2569 1.01352 8.52177 1.02148L8.52274 1.01953C8.52983 1.02006 8.53714 1.02093 8.54423 1.02148Z" fill="black"/>
<path d="M1.52762 5.33594C1.63277 5.08065 1.92465 4.95838 2.17997 5.06348C2.43494 5.16862 2.55712 5.46069 2.45243 5.71582C2.39267 5.86099 2.3377 6.00918 2.28934 6.15918C2.24102 6.30909 2.19865 6.46063 2.16239 6.61328C2.09861 6.88181 1.82936 7.04792 1.56083 6.98438C1.29229 6.92059 1.12617 6.65135 1.18973 6.38281C1.23205 6.20465 1.28177 6.02751 1.33817 5.85254C1.39456 5.67763 1.45795 5.50523 1.52762 5.33594Z" fill="black"/>
<path d="M3.44559 2.68457C3.6552 2.50515 3.97101 2.52891 4.15067 2.73828C4.33006 2.94783 4.30617 3.26367 4.09696 3.44336C3.97777 3.54547 3.86152 3.65305 3.75028 3.76465C3.63916 3.87615 3.53257 3.99192 3.43094 4.11133C3.25202 4.32156 2.93616 4.34678 2.72587 4.16797C2.51578 3.98897 2.49032 3.67311 2.66923 3.46289C2.78785 3.32352 2.91257 3.18873 3.04227 3.05859C3.17192 2.92853 3.30668 2.8036 3.44559 2.68457Z" fill="black"/>
<path d="M6.36063 1.19531C6.6288 1.13099 6.89837 1.2954 6.96317 1.56348C7.02777 1.83167 6.86301 2.10199 6.59501 2.16699C6.44251 2.20374 6.29063 2.2471 6.14091 2.2959C5.99127 2.34468 5.8433 2.39885 5.69852 2.45898C5.44355 2.56492 5.15022 2.44439 5.04423 2.18945C4.93829 1.93445 5.05974 1.64208 5.31473 1.53613C5.4837 1.46594 5.65573 1.40166 5.83036 1.34473C6.00512 1.28776 6.18263 1.23821 6.36063 1.19531Z" fill="black"/>
</g>
<path id="Glyph" d="M8.5 3C8.77614 3 9 3.22386 9 3.5V8.5C9 8.77614 8.77614 9 8.5 9H4.5C4.22386 9 4 8.77614 4 8.5C4 8.22386 4.22386 8 4.5 8H8V3.5C8 3.22386 8.22386 3 8.5 3Z" fill="black"/>
</g>
</svg>
