<?xml version="1.0" encoding="UTF-8" standalone="no"?>
<svg xmlns:inkscape="http://www.inkscape.org/namespaces/inkscape" xmlns:sodipodi="http://sodipodi.sourceforge.net/DTD/sodipodi-0.dtd" xmlns:xlink="http://www.w3.org/1999/xlink" xmlns="http://www.w3.org/2000/svg" xmlns:svg="http://www.w3.org/2000/svg" xmlns:rdf="http://www.w3.org/1999/02/22-rdf-syntax-ns#" xmlns:cc="http://creativecommons.org/ns#" xmlns:dc="http://purl.org/dc/elements/1.1/" width="64" height="64" version="1.1" viewBox="0 0 64 64" id="svg17" sodipodi:docname="distributor-logo-kubuntu.svg" inkscape:version="1.4.2 (ebf0e940d0, 2025-05-08)">
  <sodipodi:namedview id="namedview1" pagecolor="#ffffff" bordercolor="#000000" borderopacity="0.25" inkscape:showpageshadow="2" inkscape:pageopacity="0.0" inkscape:pagecheckerboard="0" inkscape:deskcolor="#d1d1d1" inkscape:current-layer="svg17"/>
  <metadata id="metadata21">
    <rdf:RDF>
      <cc:Work rdf:about="">
        <dc:format>image/svg+xml</dc:format>
        <dc:type rdf:resource="http://purl.org/dc/dcmitype/StillImage"/>
      </cc:Work>
    </rdf:RDF>
  </metadata>
  <defs id="defs7">
    <linearGradient id="b" x1="45.627998" x2="45.627998" y1="57.955002" y2="12.461" gradientTransform="matrix(0.26458,0,0,0.26458,0,280.07)" gradientUnits="userSpaceOnUse">
      <stop offset="0" id="stop2"/>
      <stop stop-opacity="0" offset="1" id="stop4"/>
    </linearGradient>
    <linearGradient id="a">
      <stop offset="0" id="stop2-3"/>
      <stop offset="1" stop-opacity="0" id="stop4-6"/>
    </linearGradient>
    <linearGradient gradientTransform="matrix(0.26458,0,0,0.26458,0,280.067)" xlink:href="#a" id="b-7" x1="46.167999" y1="57" x2="46.167999" y2="27.346001" gradientUnits="userSpaceOnUse"/>
    <linearGradient gradientUnits="userSpaceOnUse" gradientTransform="matrix(0.53033,0,0,0.53033,12.26109,68.235227)" y2="-100.78" y1="-137.82001" x2="-6.1472001" x1="-6.1472001" id="a-3">
      <stop id="stop849" offset="0" stop-color="#32b4ff"/>
      <stop id="stop851" offset="1" stop-color="#3287ff"/>
    </linearGradient>
    <linearGradient xlink:href="#a" id="b-5" x1="46.167999" y1="57" x2="46.167999" y2="27.346001" gradientUnits="userSpaceOnUse" gradientTransform="matrix(0.37979758,0,0,0.37979758,-5.2443619,-5.1122136)"/>
    <linearGradient gradientUnits="userSpaceOnUse" gradientTransform="matrix(0.56696,0,0,0.56696,-218.64,-293.03)" y2="517.79999" y1="545.79999" x2="399.57001" x1="399.57001" id="d">
      <stop id="stop851-3" offset="0" stop-color="#3889e9"/>
      <stop id="stop853" offset="1" stop-color="#5ea5fb"/>
    </linearGradient>
    <linearGradient gradientUnits="userSpaceOnUse" gradientTransform="matrix(0.53033,0,0,0.53033,11.509,71.86385)" y2="-100.78" y1="-137.82001" x2="-6.1472001" x1="-6.1472001" id="a-3-5">
      <stop id="stop856" offset="0" stop-color="#14dc78"/>
      <stop id="stop858" offset="1" stop-color="#14a03c"/>
    </linearGradient>
    <linearGradient gradientUnits="userSpaceOnUse" gradientTransform="matrix(0.53033,0,0,0.53033,9.7971589,65.996156)" y2="-100.78" y1="-137.82001" x2="-6.1472001" x1="-6.1472001" id="a-3-9">
      <stop id="stop848" offset="0" stop-color="#32b4ff"/>
      <stop id="stop850" offset="1" stop-color="#3287ff"/>
    </linearGradient>
    
    <filter color-interpolation-filters="sRGB" height="1.048" width="1.048" y="-0.024" x="-0.024" id="filter2761">
      <feGaussianBlur id="feGaussianBlur6" stdDeviation="0.14552168"/>
    </filter>
    <linearGradient gradientUnits="userSpaceOnUse" gradientTransform="matrix(3.7796,0,0,3.7796,110.07575,0.53066)" y2="1.1082" y1="15.429" x2="15.644" x1="1.2573" id="linearGradient4673">
      <stop id="stop9" offset="0" stop-color="#32dcff"/>
      <stop id="stop11" offset="1" stop-color="#3296ff"/>
    </linearGradient>
    <linearGradient gradientUnits="userSpaceOnUse" gradientTransform="matrix(1.0000066,0,0,1.0000066,19.187825,0)" y2="1.0583" y1="6.8790002" x2="7.9373002" x1="7.9373002" id="linearGradient865">
      <stop id="stop2-36" offset="0" stop-color="#fff"/>
      <stop id="stop4-7" offset="1" stop-color="#fcc"/>
    </linearGradient>
    <linearGradient gradientTransform="translate(19.187825)" gradientUnits="userSpaceOnUse" y2="3.9326999" y1="14.579" x2="12.314" x1="2.6278" id="linearGradient855">
      <stop id="stop7" offset="0" stop-color="#d462aa"/>
      <stop id="stop9-3" offset=".15178" stop-color="#56c7d9"/>
      <stop id="stop11-6" offset=".33294" stop-color="#2da8b8"/>
      <stop id="stop13" offset=".53353" stop-color="#72cb6b"/>
      <stop id="stop15" offset=".71019" stop-color="#c4dc2b"/>
      <stop id="stop17" offset=".8623" stop-color="#f9da3e"/>
      <stop id="stop19" offset="1" stop-color="#f69429"/>
    </linearGradient>
    <linearGradient gradientUnits="userSpaceOnUse" gradientTransform="matrix(0.26458,0,0,0.26458,19.187825,0)" y2="6.9914999" y1="19" x2="57.007999" x1="45" id="linearGradient910-1">
      <stop id="stop22" offset="0" stop-color="#fff"/>
      <stop id="stop24" offset="1" stop-color="#ffe3cc"/>
    </linearGradient>
    
    <filter id="filter2761-7" x="-0.024" y="-0.024" width="1.048" height="1.048" color-interpolation-filters="sRGB">
      <feGaussianBlur stdDeviation="0.14552168" id="feGaussianBlur874"/>
    </filter>
    
    
    
    <filter color-interpolation-filters="sRGB" height="1.048" width="1.048" y="-0.024" x="-0.024" id="filter2761-36">
      <feGaussianBlur id="feGaussianBlur10" stdDeviation="0.14552168"/>
    </filter>
    <linearGradient gradientUnits="userSpaceOnUse" gradientTransform="matrix(3.7796,0,0,3.7796,111.78704,0.53107)" y2="1.17" y1="15.576" x2="15.65" x1="1.3315001" id="linearGradient1024-6">
      <stop id="stop13-7" offset="0" stop-color="#00dc96"/>
      <stop id="stop15-5" offset="1" stop-color="#14d29b"/>
    </linearGradient>
    <linearGradient gradientUnits="userSpaceOnUse" gradientTransform="matrix(0.27476,0,0,0.27476,-24.952118,-0.32515)" y2="12.461" y1="57.955002" x2="45.627998" x1="45.627998" id="b-2">
      <stop id="stop2-3-7" offset="0"/>
      <stop id="stop4-5" offset="1" stop-opacity="0"/>
    </linearGradient>
    
    
    
    <filter id="filter2761-3" x="-0.024" y="-0.024" width="1.048" height="1.048" color-interpolation-filters="sRGB">
      <feGaussianBlur stdDeviation="0.14552168" id="feGaussianBlur878"/>
    </filter>
    <linearGradient id="linearGradient1024-6-6" x1="1.3315001" x2="15.65" y1="15.576" y2="1.17" gradientTransform="matrix(3.7796,0,0,3.7796,-0.0020773,0.53047)" gradientUnits="userSpaceOnUse">
      <stop stop-color="#00dc96" offset="0" id="stop881"/>
      <stop stop-color="#14d29b" offset="1" id="stop883"/>
    </linearGradient>
    <linearGradient inkscape:collect="always" xlink:href="#d" id="linearGradient956" gradientUnits="userSpaceOnUse" gradientTransform="matrix(2.1428831,0,0,2.1428831,-826.37218,-1108.0362)" x1="399.57001" y1="545.79999" x2="399.57001" y2="517.79999"/>
    <linearGradient inkscape:collect="always" xlink:href="#linearGradient1051" id="linearGradient1053" x1="-127" y1="60" x2="-72" y2="5" gradientUnits="userSpaceOnUse" gradientTransform="translate(131.5,-0.5099984)"/>
    <linearGradient inkscape:collect="always" id="linearGradient1051">
      <stop style="stop-color:#32d7ff;stop-opacity:1" offset="0" id="stop1047"/>
      <stop style="stop-color:#329bff;stop-opacity:1" offset="1" id="stop1049"/>
    </linearGradient>
    <filter inkscape:collect="always" style="color-interpolation-filters:sRGB" id="filter1057" x="-0.026999999" width="1.054" y="-0.026999999" height="1.054">
      <feGaussianBlur inkscape:collect="always" stdDeviation="0.61875" id="feGaussianBlur1059"/>
    </filter>
    <linearGradient inkscape:collect="always" xlink:href="#d" id="linearGradient1" gradientUnits="userSpaceOnUse" gradientTransform="matrix(2.1428831,0,0,2.1428831,-826.37218,-1108.0362)" x1="399.57001" y1="545.79999" x2="399.57001" y2="517.79999"/>
  <radialGradient id="gradient_ds_br" cx="0" cy="0" r="1" gradientUnits="userSpaceOnUse" gradientTransform="matrix(13.998399,0.00477622,-0.00477841,14.004799,47.5016,48.4952)">
      <stop offset="0.65" id="stop1"/>
      <stop offset="1" stop-opacity="0" id="stop2"/>
    </radialGradient><linearGradient id="gradient_ds_b" x1="30.448999" y1="48.5" x2="30.492201" y2="62.500301" gradientUnits="userSpaceOnUse">
      <stop offset="0.653846" id="stop3"/>
      <stop offset="1" stop-opacity="0" id="stop4"/>
    </linearGradient><radialGradient id="gradient_ds_bl" cx="0" cy="0" r="1" gradientUnits="userSpaceOnUse" gradientTransform="matrix(0,14,-14,0,16.5,48.5)">
      <stop offset="0.65" id="stop5"/>
      <stop offset="1" stop-opacity="0" id="stop6"/>
    </radialGradient><linearGradient id="gradient_ds_r" x1="47.5" y1="33.5" x2="61.5" y2="33.5009" gradientUnits="userSpaceOnUse">
      <stop offset="0.649038" id="stop7"/>
      <stop offset="1" stop-opacity="0" id="stop8"/>
    </linearGradient><linearGradient id="gradient_ds_l" x1="16.5" y1="33.894699" x2="2.5" y2="33.894699" gradientUnits="userSpaceOnUse">
      <stop offset="0.649038" id="stop9"/>
      <stop offset="1" stop-opacity="0" id="stop10"/>
    </linearGradient><radialGradient id="gradient_ds_tr" cx="0" cy="0" r="1" gradientTransform="matrix(0.00843236,-14,14.0084,0.0189842,47.4916,18.5)" gradientUnits="userSpaceOnUse">
      <stop offset="0.65" id="stop11"/>
      <stop offset="1" stop-opacity="0" id="stop12"/>
    </radialGradient><linearGradient id="gradient_ds_t" x1="29.98" y1="18.5" x2="29.9158" y2="4.4998598" gradientUnits="userSpaceOnUse">
      <stop offset="0.649038" id="stop13"/>
      <stop offset="1" stop-opacity="0" id="stop14"/>
    </linearGradient><radialGradient id="gradient_ds_tl" cx="0" cy="0" r="1" gradientTransform="matrix(-0.00843236,-14,-14.0084,0.0189842,16.5084,18.5)" gradientUnits="userSpaceOnUse">
      <stop offset="0.65" id="stop15"/>
      <stop offset="1" stop-opacity="0" id="stop16"/>
    </radialGradient></defs>
  
  <g id="ds" opacity="0.25">
    <path id="ds-br" d="m 47.5,48.5 h 14 v 14 h -14 z" fill="url(#gradient_ds_br)" style="fill:url(#gradient_ds_br)"/>
    <path id="ds-b" d="m 16.5,48.5 h 31 v 14 h -31 z" fill="url(#gradient_ds_b)" style="fill:url(#gradient_ds_b)"/>
    <path id="ds-bl" d="m 2.5,48.5 h 14 v 14 h -14 z" fill="url(#gradient_ds_bl)" style="fill:url(#gradient_ds_bl)"/>
    <path id="ds-r" d="m 47.5,18.5 h 14 v 30 h -14 z" fill="url(#gradient_ds_r)" style="fill:url(#gradient_ds_r)"/>
    <path id="ds-l" d="m 2.5,18.5 h 14 v 30 h -14 z" fill="url(#gradient_ds_l)" style="fill:url(#gradient_ds_l)"/>
    <path id="ds-tr" d="m 47.5,4.5 h 14 v 14 h -14 z" fill="url(#gradient_ds_tr)" style="fill:url(#gradient_ds_tr)"/>
    <path id="ds-t" d="m 16.5,4.5 h 31 v 14 h -31 z" fill="url(#gradient_ds_t)" style="fill:url(#gradient_ds_t)"/>
    <path id="ds-tl" d="m 16.5,4.5 h -14 v 14 h 14 z" fill="url(#gradient_ds_tl)" style="fill:url(#gradient_ds_tl)"/>
  </g><rect style="fill:url(#linearGradient1053);fill-opacity:1;stroke-width:2.74436;stroke-linecap:round" id="bg" width="55" height="55" x="4.5" y="4.5" rx="10"/>
  <g id="art"><path id="path924" fill="#ffffff" d="m 32,15.999055 a 16.000945,16.000945 0 1 0 0,32.00189 16.000945,16.000945 0 0 0 0,-32.00189 z m -0.971357,3.212662 c 0.07559,0.0076 0.139845,0.05291 0.173861,0.120947 l 1.579874,3.32227 c 0.767259,0.02268 1.542078,0.154964 2.294218,0.396859 l 2.536113,-2.536113 a 0.21165771,0.21165771 0 0 1 0.264572,-0.03024 l 2.018308,1.22837 a 0.21543731,0.21543731 0 0 1 0.09071,0.257013 l -1.224591,3.454557 c 0.461112,0.514026 0.85419,1.077186 1.171677,1.678143 h 3.768263 c 0.102049,0 0.18898,0.07181 0.211658,0.166302 l 0.559381,2.297998 a 0.21543731,0.21543731 0 0 1 -0.113388,0.245675 l -4.724503,1.031831 A 7.7255065,7.7255065 0 0 0 29.543259,24.680801 l -0.0378,-0.02268 -1.012933,-4.671588 c 0,-0.09827 0.07181,-0.1852 0.166302,-0.207878 l 2.294219,-0.559381 c 0.02646,-0.0076 0.04913,-0.0076 0.07559,-0.0076 z m -7.483612,3.378964 a 0.21165771,0.21165771 0 0 1 0.139845,0.0378 l 3.590622,3.269356 a 7.7028289,7.7028289 0 0 0 -0.517806,11.765901 v 0.05291 l -3.22778,3.564165 a 0.21921692,0.21921692 0 0 1 -0.264572,-0.03024 l -1.670584,-1.666804 a 0.21543731,0.21543731 0 0 1 -0.02646,-0.272132 l 2.018307,-3.076596 a 8.3529204,8.3529204 0 0 1 -0.857969,-2.165712 l -3.484793,-0.85419 A 0.21543731,0.21543731 0 0 1 19.081318,33.007261 V 30.64501 c 0,-0.102049 0.07181,-0.18898 0.170082,-0.211658 l 3.590622,-0.748361 c 0.200319,-0.66143 0.480009,-1.292624 0.823953,-1.874682 l -1.954054,-3.220221 a 0.21543731,0.21543731 0 0 1 0.03024,-0.264573 l 1.670584,-1.670584 a 0.20787811,0.20787811 0 0 1 0.132286,-0.06425 z m 15.995275,11.074234 4.686707,1.050729 c 0.08315,0.04536 0.128506,0.151184 0.102049,0.245675 l -0.612295,2.2791 a 0.21543731,0.21543731 0 0 1 -0.222997,0.162522 l -3.673773,-0.215437 a 8.3529204,8.3529204 0 0 1 -1.447588,1.825548 l 1.001595,3.443217 a 0.21543731,0.21543731 0 0 1 -0.09827,0.245674 l -2.048544,1.179236 a 0.21543731,0.21543731 0 0 1 -0.268352,-0.04158 l -2.441623,-2.740212 c -0.672769,0.158743 -1.356877,0.234335 -2.033426,0.226776 l -1.814209,3.299593 a 0.21543731,0.21543731 0 0 1 -0.245674,0.105829 L 28.141027,44.11551 a 0.21543731,0.21543731 0 0 1 -0.158744,-0.219217 l 1.232151,-4.667809 0.02268,-0.01134 a 7.7255065,7.7255065 0 0 0 10.303195,-5.548455 z" style="stroke-width:3.7796"/></g>
</svg>
