<?xml version="1.0" encoding="UTF-8" standalone="no"?>
<svg xmlns:inkscape="http://www.inkscape.org/namespaces/inkscape" xmlns:sodipodi="http://sodipodi.sourceforge.net/DTD/sodipodi-0.dtd" xmlns:xlink="http://www.w3.org/1999/xlink" xmlns="http://www.w3.org/2000/svg" xmlns:svg="http://www.w3.org/2000/svg" width="64" height="64" viewBox="0 0 64 64" version="1.1" id="svg1" sodipodi:docname="distributor-logo-deepin.svg" inkscape:version="1.4.2 (ebf0e940d0, 2025-05-08)">
  <defs id="defs1">
    <linearGradient inkscape:collect="always" xlink:href="#linearGradient1051" id="linearGradient1053" x1="-127" y1="60" x2="-72" y2="5" gradientUnits="userSpaceOnUse" gradientTransform="translate(131.5,-0.5099967)"/>
    <linearGradient inkscape:collect="always" id="linearGradient1051">
      <stop style="stop-color:#32d7ff;stop-opacity:1" offset="0" id="stop1047"/>
      <stop style="stop-color:#329bff;stop-opacity:1" offset="1" id="stop1049"/>
    </linearGradient>
    <filter inkscape:collect="always" style="color-interpolation-filters:sRGB" id="filter1057" x="-0.026999999" width="1.054" y="-0.026999999" height="1.054">
      <feGaussianBlur inkscape:collect="always" stdDeviation="0.61875" id="feGaussianBlur1059"/>
    </filter>
  <radialGradient id="gradient_ds_br" cx="0" cy="0" r="1" gradientUnits="userSpaceOnUse" gradientTransform="matrix(13.998399,0.00477622,-0.00477841,14.004799,47.5016,48.4952)">
      <stop offset="0.65" id="stop1"/>
      <stop offset="1" stop-opacity="0" id="stop2"/>
    </radialGradient><linearGradient id="gradient_ds_b" x1="30.448999" y1="48.5" x2="30.492201" y2="62.500301" gradientUnits="userSpaceOnUse">
      <stop offset="0.653846" id="stop3"/>
      <stop offset="1" stop-opacity="0" id="stop4"/>
    </linearGradient><radialGradient id="gradient_ds_bl" cx="0" cy="0" r="1" gradientUnits="userSpaceOnUse" gradientTransform="matrix(0,14,-14,0,16.5,48.5)">
      <stop offset="0.65" id="stop5"/>
      <stop offset="1" stop-opacity="0" id="stop6"/>
    </radialGradient><linearGradient id="gradient_ds_r" x1="47.5" y1="33.5" x2="61.5" y2="33.5009" gradientUnits="userSpaceOnUse">
      <stop offset="0.649038" id="stop7"/>
      <stop offset="1" stop-opacity="0" id="stop8"/>
    </linearGradient><linearGradient id="gradient_ds_l" x1="16.5" y1="33.894699" x2="2.5" y2="33.894699" gradientUnits="userSpaceOnUse">
      <stop offset="0.649038" id="stop9"/>
      <stop offset="1" stop-opacity="0" id="stop10"/>
    </linearGradient><radialGradient id="gradient_ds_tr" cx="0" cy="0" r="1" gradientTransform="matrix(0.00843236,-14,14.0084,0.0189842,47.4916,18.5)" gradientUnits="userSpaceOnUse">
      <stop offset="0.65" id="stop11"/>
      <stop offset="1" stop-opacity="0" id="stop12"/>
    </radialGradient><linearGradient id="gradient_ds_t" x1="29.98" y1="18.5" x2="29.9158" y2="4.4998598" gradientUnits="userSpaceOnUse">
      <stop offset="0.649038" id="stop13"/>
      <stop offset="1" stop-opacity="0" id="stop14"/>
    </linearGradient><radialGradient id="gradient_ds_tl" cx="0" cy="0" r="1" gradientTransform="matrix(-0.00843236,-14,-14.0084,0.0189842,16.5084,18.5)" gradientUnits="userSpaceOnUse">
      <stop offset="0.65" id="stop15"/>
      <stop offset="1" stop-opacity="0" id="stop16"/>
    </radialGradient></defs>
  
  <g id="ds" opacity="0.25">
    <path id="ds-br" d="m 47.5,48.5 h 14 v 14 h -14 z" fill="url(#gradient_ds_br)" style="fill:url(#gradient_ds_br)"/>
    <path id="ds-b" d="m 16.5,48.5 h 31 v 14 h -31 z" fill="url(#gradient_ds_b)" style="fill:url(#gradient_ds_b)"/>
    <path id="ds-bl" d="m 2.5,48.5 h 14 v 14 h -14 z" fill="url(#gradient_ds_bl)" style="fill:url(#gradient_ds_bl)"/>
    <path id="ds-r" d="m 47.5,18.5 h 14 v 30 h -14 z" fill="url(#gradient_ds_r)" style="fill:url(#gradient_ds_r)"/>
    <path id="ds-l" d="m 2.5,18.5 h 14 v 30 h -14 z" fill="url(#gradient_ds_l)" style="fill:url(#gradient_ds_l)"/>
    <path id="ds-tr" d="m 47.5,4.5 h 14 v 14 h -14 z" fill="url(#gradient_ds_tr)" style="fill:url(#gradient_ds_tr)"/>
    <path id="ds-t" d="m 16.5,4.5 h 31 v 14 h -31 z" fill="url(#gradient_ds_t)" style="fill:url(#gradient_ds_t)"/>
    <path id="ds-tl" d="m 16.5,4.5 h -14 v 14 h 14 z" fill="url(#gradient_ds_tl)" style="fill:url(#gradient_ds_tl)"/>
  </g><rect style="fill:url(#linearGradient1053);fill-opacity:1;stroke-width:2.74436;stroke-linecap:round" id="bg" width="55" height="55" x="4.5" y="4.5" rx="10"/>
  <g id="art"><path fill="#ffffff" d="m 30.992736,18.006024 c -1.7046,0.0378 -1.587432,0.343944 -2.309336,1.814209 -1.164118,2.358472 -1.976732,5.782791 -1.81043,7.804878 0.177642,2.158153 0.755921,3.567944 1.878462,4.618674 1.341759,1.277505 2.985886,1.111203 4.36922,-0.374181 1.243489,-1.334199 1.700821,-2.721313 1.814209,-5.744995 0.06425,-1.912479 0.10205,-2.143034 0.245674,-1.814209 0.551822,1.273726 0.695447,4.263391 0.313707,5.744995 -0.317486,1.228371 -1.111203,2.725093 -1.749955,3.314711 -0.842852,0.774818 -1.749956,1.126321 -2.997225,1.183015 -0.839071,0.0378 -1.167897,0.02646 -1.814209,-0.1852 -1.655465,-0.551822 -3.70023,-2.131696 -4.871907,-3.685112 -1.666804,-2.203508 -3.326049,-6.682336 -3.749365,-10.242721 a 7.1963622,7.1963622 0 0 0 -0.245674,-1.371996 c -0.298589,-0.340164 -1.447588,1.088525 -1.810429,2.248863 -0.234336,0.744582 -0.249454,1.096085 -0.249454,7.683931 v 6.93557 l 0.313707,0.18898 c 0.442213,0.28347 2.36981,0.861749 3.942125,1.183015 1.194354,0.245674 1.674363,0.313707 4.497726,0.313707 2.823363,0 3.352507,-0.07559 4.437253,-0.313707 1.768854,-0.389299 3.087935,-1.020492 4.187799,-2.124136 1.545857,-1.549637 2.116577,-3.121951 2.124136,-5.556015 0,-1.621449 -0.226776,-2.914073 -0.880647,-4.191579 -0.230556,-0.464891 -0.461111,-0.84663 -0.438434,-0.873088 0.147405,-0.147404 1.761295,1.780193 2.127916,2.558791 2.313116,4.894585 1.209473,8.885844 -3.564165,12.865765 -2.116577,1.765074 -5.775231,4.187799 -7.872911,5.246088 -0.733242,0.366621 -0.869308,0.506466 -0.687887,0.687887 0.04536,0.04536 3.696451,0.08315 8.118585,0.06047 l 8.061891,-0.06047 0.687888,-0.313707 c 1.390893,-0.66521 2.267761,-1.647906 2.683517,-3.001004 0.241895,-0.771038 0.249454,-1.122541 0.249454,-10.616902 0,-9.974369 -0.01512,-10.832339 -0.434654,-10.994862 -0.09827,-0.03402 -1.039391,0.07181 -2.067443,0.245674 -1.13388,0.204099 -2.736432,0.366622 -4.119766,0.442214 -2.418945,0.124727 -3.635977,0.359062 -5.064667,0.937341 -1.32286,0.540483 -2.09012,0.975137 -2.812024,1.560976 -0.642532,0.529144 -0.733242,0.597177 -0.937341,1.440028 -0.28725,1.160338 -0.464891,1.678143 -0.941121,2.309337 -0.355282,0.461111 -0.699226,0.687887 -0.695446,0.438434 0.0189,-0.445993 0.423315,-1.844446 0.816394,-2.626824 1.160337,-2.305557 2.672178,-3.957243 5.624047,-6.183429 0.907105,-0.691667 1.685703,-1.285064 1.685703,-1.379554 0,-0.136066 -0.657651,-0.18898 -3.628418,-0.18898 -1.058289,0 -1.867124,-0.0076 -2.434064,0 m 2.434064,5.88106 c 0.18898,0 0.19276,0.18898 -0.06047,2.063663 -0.272131,1.972952 -0.982696,3.552826 -1.878462,4.497726 -0.631193,0.66899 -1.315301,0.846631 -1.80665,0.495128 a 2.0031891,2.0031891 0 0 1 -0.623634,-1.183015 c 0,-0.158744 0.05669,-0.166303 0.245674,-0.06047 0.37796,0.200319 0.536704,0.154964 1.001595,-0.249454 0.774818,-0.684108 1.587432,-2.645721 2.003189,-4.875686 0.04157,-0.257013 0.75592,-0.695447 1.118762,-0.695447 m 0,0" id="path1" style="stroke-width:3.7796"/></g>
</svg>
