<?xml version="1.0" encoding="UTF-8" standalone="no"?>
<!-- Created with Inkscape (http://www.inkscape.org/) -->
<svg xmlns:inkscape="http://www.inkscape.org/namespaces/inkscape" xmlns:sodipodi="http://sodipodi.sourceforge.net/DTD/sodipodi-0.dtd" xmlns="http://www.w3.org/2000/svg" xmlns:svg="http://www.w3.org/2000/svg" width="64" height="64" version="1.1" viewBox="0 0 64 64" id="svg15" sodipodi:docname="distributor-logo-debian.svg" inkscape:version="1.4.2 (ebf0e940d0, 2025-05-08)">
  <sodipodi:namedview id="namedview1" pagecolor="#ffffff" bordercolor="#000000" borderopacity="0.25" inkscape:showpageshadow="2" inkscape:pageopacity="0.0" inkscape:pagecheckerboard="0" inkscape:deskcolor="#d1d1d1" inkscape:current-layer="svg15"/>
  <defs id="defs2">
    <filter id="filter1057" x="-0.026999999" y="-0.026999999" width="1.054" height="1.054" color-interpolation-filters="sRGB">
      <feGaussianBlur stdDeviation="0.61875" id="feGaussianBlur1"/>
    </filter>
    <linearGradient id="linearGradient1053" x1="-127" x2="-72" y1="60" y2="5" gradientTransform="matrix(1.0000071,0,0,1.0000071,131.50067,-0.50986828)" gradientUnits="userSpaceOnUse">
      <stop stop-color="#df2a2a" offset="0" id="stop1"/>
      <stop stop-color="#f83f3f" offset="1" id="stop2"/>
    </linearGradient>
    <filter id="filter1057-3" x="-0.026999999" y="-0.026999999" width="1.054" height="1.054" color-interpolation-filters="sRGB">
      <feGaussianBlur stdDeviation="0.61875" id="feGaussianBlur1-6"/>
    </filter>
  <radialGradient id="gradient_ds_br" cx="0" cy="0" r="1" gradientUnits="userSpaceOnUse" gradientTransform="matrix(13.998399,0.00477622,-0.00477841,14.004799,47.5016,48.4952)">
      <stop offset="0.65" id="stop1"/>
      <stop offset="1" stop-opacity="0" id="stop2"/>
    </radialGradient><linearGradient id="gradient_ds_b" x1="30.448999" y1="48.5" x2="30.492201" y2="62.500301" gradientUnits="userSpaceOnUse">
      <stop offset="0.653846" id="stop3"/>
      <stop offset="1" stop-opacity="0" id="stop4"/>
    </linearGradient><radialGradient id="gradient_ds_bl" cx="0" cy="0" r="1" gradientUnits="userSpaceOnUse" gradientTransform="matrix(0,14,-14,0,16.5,48.5)">
      <stop offset="0.65" id="stop5"/>
      <stop offset="1" stop-opacity="0" id="stop6"/>
    </radialGradient><linearGradient id="gradient_ds_r" x1="47.5" y1="33.5" x2="61.5" y2="33.5009" gradientUnits="userSpaceOnUse">
      <stop offset="0.649038" id="stop7"/>
      <stop offset="1" stop-opacity="0" id="stop8"/>
    </linearGradient><linearGradient id="gradient_ds_l" x1="16.5" y1="33.894699" x2="2.5" y2="33.894699" gradientUnits="userSpaceOnUse">
      <stop offset="0.649038" id="stop9"/>
      <stop offset="1" stop-opacity="0" id="stop10"/>
    </linearGradient><radialGradient id="gradient_ds_tr" cx="0" cy="0" r="1" gradientTransform="matrix(0.00843236,-14,14.0084,0.0189842,47.4916,18.5)" gradientUnits="userSpaceOnUse">
      <stop offset="0.65" id="stop11"/>
      <stop offset="1" stop-opacity="0" id="stop12"/>
    </radialGradient><linearGradient id="gradient_ds_t" x1="29.98" y1="18.5" x2="29.9158" y2="4.4998598" gradientUnits="userSpaceOnUse">
      <stop offset="0.649038" id="stop13"/>
      <stop offset="1" stop-opacity="0" id="stop14"/>
    </linearGradient><radialGradient id="gradient_ds_tl" cx="0" cy="0" r="1" gradientTransform="matrix(-0.00843236,-14,-14.0084,0.0189842,16.5084,18.5)" gradientUnits="userSpaceOnUse">
      <stop offset="0.65" id="stop15"/>
      <stop offset="1" stop-opacity="0" id="stop16"/>
    </radialGradient></defs>
  
  <g id="ds" opacity="0.25">
    <path id="ds-br" d="m 47.5,48.5 h 14 v 14 h -14 z" fill="url(#gradient_ds_br)" style="fill:url(#gradient_ds_br)"/>
    <path id="ds-b" d="m 16.5,48.5 h 31 v 14 h -31 z" fill="url(#gradient_ds_b)" style="fill:url(#gradient_ds_b)"/>
    <path id="ds-bl" d="m 2.5,48.5 h 14 v 14 h -14 z" fill="url(#gradient_ds_bl)" style="fill:url(#gradient_ds_bl)"/>
    <path id="ds-r" d="m 47.5,18.5 h 14 v 30 h -14 z" fill="url(#gradient_ds_r)" style="fill:url(#gradient_ds_r)"/>
    <path id="ds-l" d="m 2.5,18.5 h 14 v 30 h -14 z" fill="url(#gradient_ds_l)" style="fill:url(#gradient_ds_l)"/>
    <path id="ds-tr" d="m 47.5,4.5 h 14 v 14 h -14 z" fill="url(#gradient_ds_tr)" style="fill:url(#gradient_ds_tr)"/>
    <path id="ds-t" d="m 16.5,4.5 h 31 v 14 h -31 z" fill="url(#gradient_ds_t)" style="fill:url(#gradient_ds_t)"/>
    <path id="ds-tl" d="m 16.5,4.5 h -14 v 14 h 14 z" fill="url(#gradient_ds_tl)" style="fill:url(#gradient_ds_tl)"/>
  </g><rect x="4.5" y="4.5" width="55" height="55" fill="url(#linearGradient1053)" stroke-linecap="round" stroke-width="2.74437" id="bg" style="fill:url(#linearGradient1053)" rx="10"/>
  <g fill="#f9f9f9" stroke-width="0.44109" id="art" transform="matrix(3.779602,0,0,3.779602,-14.002669,-6.628288)">
    <path d="m 13.032,10.52 c -0.18261,0.0018 0.03441,0.08954 0.27215,0.12571 0.06528,-0.04984 0.12395,-0.10013 0.17732,-0.14821 -0.14821,0.03441 -0.29818,0.03617 -0.44991,0.0225" id="path3"/>
    <path d="m 14.01,10.287 c 0.10498,-0.14468 0.18614,-0.30171 0.21172,-0.46535 -0.02426,0.11557 -0.08954,0.21702 -0.15174,0.322 -0.34096,0.20687 -0.03264,-0.12218 0,-0.24657 -0.36699,0.44109 -0.05161,0.26554 -0.06396,0.38948" id="path4"/>
    <path d="M 14.369,9.3823 C 14.38973,9.06692 14.30372,9.16705 14.27417,9.287465 14.30857,9.302903 14.33636,9.509775 14.369,9.3823" id="path5"/>
    <path d="m 12.341,5.0636 c 0.09836,0.017203 0.2104,0.029112 0.19452,0.051608 C 12.64226,5.092714 12.66652,5.071981 12.341,5.0636" id="path6"/>
    <path d="m 12.536,5.1152 -0.06881,0.015438 0.06396,-0.00706 0.0053,-0.00882" id="path7"/>
    <path d="m 15.563,9.5001 c 0.01191,0.2845 -0.08601,0.42213 -0.17247,0.66517 l -0.15659,0.07587 c -0.12924,0.24128 0.01191,0.1535 -0.08116,0.34449 -0.19982,0.17247 -0.60827,0.53946 -0.73927,0.5721 -0.0966,-0.0018 0.06396,-0.10851 0.08425,-0.14997 -0.26862,0.17732 -0.21525,0.26686 -0.62723,0.37581 l -0.01191,-0.02602 c -1.0132,0.46006 -2.4225,-0.45124 -2.4035,-1.6956 -0.01191,0.079397 -0.03088,0.058665 -0.05337,0.091306 -0.05337,-0.64091 0.30656,-1.2836 0.9113,-1.5456 0.59283,-0.28274 1.2871,-0.16717 1.711,0.21349 -0.23246,-0.29289 -0.69604,-0.60474 -1.2456,-0.57563 -0.53946,0.00706 -1.0423,0.33788 -1.2112,0.69428 -0.27568,0.16717 -0.30656,0.6462 -0.42742,0.73221 -0.16188,1.146 0.30347,1.6422 1.0926,2.2231 0.12395,0.0794 0.0344,0.09131 0.05161,0.1535 -0.26201,-0.1191 -0.50329,-0.29641 -0.69957,-0.5152 0.10498,0.14821 0.21702,0.29112 0.36346,0.40492 -0.24657,-0.08116 -0.57739,-0.57739 -0.67355,-0.59768 0.42565,0.73574 1.7264,1.2889 2.4088,1.0132 -0.31538,0.01191 -0.71678,0.0071 -1.0701,-0.1191 -0.14997,-0.0741 -0.35155,-0.2276 -0.31538,-0.25495 0.9285,0.33435 1.8901,0.25319 2.6946,-0.36875 0.20334,-0.1535 0.42742,-0.41507 0.4927,-0.4186 -0.10145,0.14115 0.01544,0.06705 -0.05866,0.1932 0.20334,-0.31714 -0.08778,-0.12924 0.2104,-0.54784 l 0.11204,0.14644 c -0.04146,-0.26377 0.33788,-0.58224 0.29994,-0.99952 0.08778,-0.12748 0.0966,0.13806 0.0053,0.43095 0.12748,-0.32553 0.03264,-0.37713 0.06528,-0.6462 0.03617,0.091306 0.08293,0.18614 0.10674,0.28098 -0.08292,-0.31362 0.08601,-0.52887 0.12748,-0.70972 -0.04146,-0.018968 -0.12924,0.13806 -0.14821,-0.23246 0.0018,-0.16188 0.04631,-0.082925 0.0622,-0.12395 -0.03264,-0.018968 -0.1191,-0.13806 -0.1707,-0.37581 0.03793,-0.055136 0.10145,0.14468 0.1535,0.1535 -0.03264,-0.18791 -0.09131,-0.33258 -0.09307,-0.47726 -0.15174,-0.30347 -0.05337,0.041463 -0.17555,-0.12924 -0.16012,-0.48432 0.13277,-0.11204 0.1535,-0.33258 0.24304,0.34096 0.38243,0.86675 0.44638,1.0855 -0.04808,-0.26554 -0.12748,-0.52402 -0.22408,-0.77368 0.0741,0.030876 -0.11909,-0.54607 0.0966,-0.16365 -0.22937,-0.8169 -0.98364,-1.5782 -1.6766,-1.9351 0.08425,0.074103 0.19143,0.16894 0.1535,0.18261 -0.34449,-0.19629 -0.2845,-0.21172 -0.33435,-0.29641 -0.28098,-0.11027 -0.29994,0.00882 -0.48608,0 -0.52887,-0.27039 -0.63076,-0.24128 -1.1182,-0.41507 l 0.0225,0.10145 c -0.35155,-0.11204 -0.40845,0.043227 -0.78911,0 -0.0225,-0.017203 0.12218,-0.063958 0.24128,-0.081161 -0.33964,0.044992 -0.32376,-0.063958 -0.65458,0.011909 0.08116,-0.055136 0.16717,-0.091306 0.25495,-0.13938 -0.27745,0.017203 -0.65987,0.15659 -0.54122,0.029112 -0.45126,0.19452 -1.2527,0.46711 -1.7022,0.87336 L 9.808542,5.81112 C 9.603432,6.04887 8.910922,6.5226 8.855782,6.83272 L 8.800646,6.844629 c -0.10674,0.17423 -0.17732,0.37228 -0.26201,0.55313 -0.13939,0.23069 -0.20511,0.087778 -0.18614,0.12395 -0.27568,0.53946 -0.41198,0.99246 -0.53063,1.3647 0.084249,0.12042 0.00177,0.73221 0.034405,1.2201 -0.13939,2.4123 1.7555,4.7519 3.8252,5.2931 0.3048,0.10498 0.75471,0.10145 1.1389,0.11204 -0.45124,-0.12571 -0.51167,-0.06705 -0.95276,-0.21525 -0.31714,-0.14468 -0.38772,-0.30832 -0.61356,-0.49799 l 0.08954,0.15174 c -0.44109,-0.14997 -0.25672,-0.18614 -0.61665,-0.29641 l 0.0966,-0.1191 c -0.14291,-0.01014 -0.38066,-0.23246 -0.4455,-0.35684 l -0.15659,0.0071 c -0.18791,-0.22588 -0.28936,-0.386 -0.28098,-0.51171 l -0.051607,0.08778 c -0.056902,-0.0966 -0.69252,-0.84072 -0.3617,-0.66693 -0.062194,-0.05514 -0.14291,-0.08778 -0.23246,-0.24304 l 0.067046,-0.0741 c -0.15835,-0.19629 -0.29112,-0.44992 -0.28098,-0.5324 0.084249,0.11027 0.14291,0.12924 0.20158,0.14821 -0.40139,-0.95805 -0.42389,-0.05161 -0.72692,-0.97526 l 0.063959,-0.0053 c -0.048079,-0.07057 -0.077632,-0.14821 -0.1191,-0.22408 l 0.029112,-0.26862 c -0.28936,-0.32199 -0.081161,-1.3683 -0.039698,-1.9399 0.029112,-0.23422 0.24128,-0.48255 0.40139,-0.87204 L 8.792729,8.092071 c 0.18791,-0.31538 1.0719,-1.2681 1.4785,-1.2201 0.19805,-0.23951 -0.0397,0 -0.07763,-0.06043 0.43404,-0.4358 0.5721,-0.30832 0.86675,-0.38596 0.32067,-0.18085 -0.27215,0.070575 -0.1191,-0.06881 0.54431,-0.13453 0.38772,-0.30656 1.1027,-0.37581 0.07587,0.041462 -0.17556,0.063958 -0.23775,0.11733 0.45653,-0.21525 1.4424,-0.16541 2.085,0.12042 0.74589,0.33611 1.5818,1.3277 1.6144,2.2606 l 0.03793,0.00882 c -0.01897,0.37405 0.05867,0.80102 -0.07587,1.194 l 0.09131,-0.18614" id="path8"/>
    <path d="m 11.045,10.763 -0.02602,0.12218 c 0.1191,0.15659 0.21349,0.32729 0.36699,0.44991 -0.11027,-0.20687 -0.19143,-0.29289 -0.34096,-0.5721" id="path9"/>
    <path d="m 11.328,10.75 c -0.06219,-0.06705 -0.10013,-0.14821 -0.14291,-0.22937 0.04146,0.14115 0.12218,0.26377 0.19981,0.38772 L 11.328,10.75" id="path10"/>
    <path d="m 16.332,9.7017 -0.02779,0.063958 c -0.04984,0.33611 -0.15526,0.6687 -0.31714,0.97702 0.17908,-0.32553 0.29465,-0.6806 0.34273,-1.0423" id="path11"/>
    <path d="m 12.378,4.9802 c 0.12395,-0.043227 0.30347,-0.022496 0.43404,-0.051608 -0.1707,0.013673 -0.33964,0.022495 -0.50637,0.043227 l 0.07234,0.00882" id="path12"/>
    <path d="M 8.0597,7.1945 C 8.087489,7.44769 7.86165,7.54605 8.107779,7.37888 8.240549,7.09129 8.056171,7.299483 8.0597,7.1945" id="path13"/>
    <path d="M 7.7686,8.3647 C 7.827265,8.19576 7.83741,8.09431 7.858142,7.99771 7.701552,8.19091 7.785803,8.23193 7.7686,8.3647" id="path14"/>
  </g>
</svg>
