<?xml version="1.0" encoding="UTF-8" standalone="no"?>
<svg xmlns:inkscape="http://www.inkscape.org/namespaces/inkscape" xmlns:sodipodi="http://sodipodi.sourceforge.net/DTD/sodipodi-0.dtd" xmlns:xlink="http://www.w3.org/1999/xlink" xmlns="http://www.w3.org/2000/svg" xmlns:svg="http://www.w3.org/2000/svg" width="64" height="64" version="1.1" id="svg8" sodipodi:docname="beaver-notes.svg" xml:space="preserve" inkscape:version="1.4.2 (ebf0e940d0, 2025-05-08)"><sodipodi:namedview id="namedview1" pagecolor="#ffffff" bordercolor="#000000" borderopacity="0.25" inkscape:showpageshadow="2" inkscape:pageopacity="0.0" inkscape:pagecheckerboard="0" inkscape:deskcolor="#d1d1d1" inkscape:current-layer="svg8"/>
  
  <defs id="defs4">
    <linearGradient id="a">
      <stop offset="0" style="stop-color:#d98b00;stop-opacity:1" id="stop1"/>
      <stop offset="1" style="stop-color:#ffa510;stop-opacity:1" id="stop2"/>
    </linearGradient>
    <linearGradient id="b" x1="7.937" x2="7.937" y1="15.081" y2="1.852" gradientTransform="matrix(3.7796,0,0,3.7796,-81.928693,0)" gradientUnits="userSpaceOnUse">
      <stop offset="0" stop-color="#f1efeb" style="stop-color:#f7c56f;stop-opacity:1" id="stop3"/>
      <stop offset="1" stop-color="#fdfcfc" style="stop-color:#fff4e4;stop-opacity:1" id="stop4"/>
    </linearGradient>
    <linearGradient xlink:href="#a" id="c" x1="7" x2="504" y1="316.116" y2="316.116" gradientUnits="userSpaceOnUse" gradientTransform="matrix(0.10937,0,0,0.10937,4.001,3.978)"/>
    <filter inkscape:collect="always" style="color-interpolation-filters:sRGB" id="filter1057" x="-0.026999999" width="1.054" y="-0.026999999" height="1.054">
      <feGaussianBlur inkscape:collect="always" stdDeviation="0.61875" id="feGaussianBlur1059"/>
    </filter>
    <linearGradient inkscape:collect="always" xlink:href="#linearGradient1051" id="linearGradient1053" x1="-103.76003" y1="19.587631" x2="-103.76003" y2="0.5099957" gradientUnits="userSpaceOnUse" gradientTransform="translate(131.5,-0.5099957)"/>
    <linearGradient inkscape:collect="always" id="linearGradient1051">
      <stop style="stop-color:#fae6b8;stop-opacity:1" offset="0" id="stop1047"/>
      <stop style="stop-color:#f1f3f5;stop-opacity:0.99607843" offset="1" id="stop1049"/>
    </linearGradient>
  <radialGradient id="gradient_ds_br" cx="0" cy="0" r="1" gradientUnits="userSpaceOnUse" gradientTransform="matrix(13.998399,0.00477622,-0.00477841,14.004799,47.5016,48.4952)">
      <stop offset="0.65" id="stop1"/>
      <stop offset="1" stop-opacity="0" id="stop2"/>
    </radialGradient><linearGradient id="gradient_ds_b" x1="30.448999" y1="48.5" x2="30.492201" y2="62.500301" gradientUnits="userSpaceOnUse">
      <stop offset="0.653846" id="stop3"/>
      <stop offset="1" stop-opacity="0" id="stop4"/>
    </linearGradient><radialGradient id="gradient_ds_bl" cx="0" cy="0" r="1" gradientUnits="userSpaceOnUse" gradientTransform="matrix(0,14,-14,0,16.5,48.5)">
      <stop offset="0.65" id="stop5"/>
      <stop offset="1" stop-opacity="0" id="stop6"/>
    </radialGradient><linearGradient id="gradient_ds_r" x1="47.5" y1="33.5" x2="61.5" y2="33.5009" gradientUnits="userSpaceOnUse">
      <stop offset="0.649038" id="stop7"/>
      <stop offset="1" stop-opacity="0" id="stop8"/>
    </linearGradient><linearGradient id="gradient_ds_l" x1="16.5" y1="33.894699" x2="2.5" y2="33.894699" gradientUnits="userSpaceOnUse">
      <stop offset="0.649038" id="stop9"/>
      <stop offset="1" stop-opacity="0" id="stop10"/>
    </linearGradient><radialGradient id="gradient_ds_tr" cx="0" cy="0" r="1" gradientTransform="matrix(0.00843236,-14,14.0084,0.0189842,47.4916,18.5)" gradientUnits="userSpaceOnUse">
      <stop offset="0.65" id="stop11"/>
      <stop offset="1" stop-opacity="0" id="stop12"/>
    </radialGradient><linearGradient id="gradient_ds_t" x1="29.98" y1="18.5" x2="29.9158" y2="4.4998598" gradientUnits="userSpaceOnUse">
      <stop offset="0.649038" id="stop13"/>
      <stop offset="1" stop-opacity="0" id="stop14"/>
    </linearGradient><radialGradient id="gradient_ds_tl" cx="0" cy="0" r="1" gradientTransform="matrix(-0.00843236,-14,-14.0084,0.0189842,16.5084,18.5)" gradientUnits="userSpaceOnUse">
      <stop offset="0.65" id="stop15"/>
      <stop offset="1" stop-opacity="0" id="stop16"/>
    </radialGradient></defs>
  
  <g id="ds" opacity="0.25">
    <path id="ds-br" d="m 47.5,48.5 h 14 v 14 h -14 z" fill="url(#gradient_ds_br)" style="fill:url(#gradient_ds_br)"/>
    <path id="ds-b" d="m 16.5,48.5 h 31 v 14 h -31 z" fill="url(#gradient_ds_b)" style="fill:url(#gradient_ds_b)"/>
    <path id="ds-bl" d="m 2.5,48.5 h 14 v 14 h -14 z" fill="url(#gradient_ds_bl)" style="fill:url(#gradient_ds_bl)"/>
    <path id="ds-r" d="m 47.5,18.5 h 14 v 30 h -14 z" fill="url(#gradient_ds_r)" style="fill:url(#gradient_ds_r)"/>
    <path id="ds-l" d="m 2.5,18.5 h 14 v 30 h -14 z" fill="url(#gradient_ds_l)" style="fill:url(#gradient_ds_l)"/>
    <path id="ds-tr" d="m 47.5,4.5 h 14 v 14 h -14 z" fill="url(#gradient_ds_tr)" style="fill:url(#gradient_ds_tr)"/>
    <path id="ds-t" d="m 16.5,4.5 h 31 v 14 h -31 z" fill="url(#gradient_ds_t)" style="fill:url(#gradient_ds_t)"/>
    <path id="ds-tl" d="m 16.5,4.5 h -14 v 14 h 14 z" fill="url(#gradient_ds_tl)" style="fill:url(#gradient_ds_tl)"/>
  </g><rect style="fill:url(#linearGradient1053);fill-opacity:1;stroke-width:2.74436;stroke-linecap:round" id="bg" width="55" height="55" x="4.5" y="4.5" rx="10"/>
  <g id="art"><rect width="35.079" height="15.861" x="16.32" y="30.363" rx="0" ry="15.861" style="fill:#fa9e00;fill-opacity:1;stroke-width:3.3455;stroke-linecap:round;stroke-linejoin:round" id="rect5"/><rect width="23.131165" height="4.6930332" x="24.316652" y="52.250927" rx="0" ry="4.6930332" style="fill:#ffffff;fill-opacity:1;stroke-width:1.47765;stroke-linecap:round;stroke-linejoin:round" id="rect6"/><path id="path6" style="fill:url(#c);stroke-width:0.10937" d="m 31.212891,17.146484 c -3.496773,0.09226 -6.985438,0.856353 -10.269532,2.300782 C 19.748495,19.972916 18.026614,20.891289 18,21.015625 v 0.002 c 0,0.042 0.292548,0.43363 0.648438,0.869141 0.355889,0.435512 0.706786,0.971681 0.779296,1.191406 0.17543,0.531647 0.06716,1.48146 -0.220703,1.947266 -0.132119,0.213819 -1.967154,1.767132 -4.314453,3.652343 -4.068893,3.267866 -4.436536,3.515978 -5.2187499,3.517578 -0.4127624,8.76e-4 -1.1969972,-0.298044 -1.4785156,-0.5625 L 7.953125,31.40625 7.6855469,31.9375 C 5.1064064,37.028037 4.8216585,41.46423 4.5,46.845703 V 48.392578 49.5 c 0,5.34907 4.1583233,9.691428 9.431641,9.984375 C 15.679762,59.494853 17.533877,59.5 19.5,59.5 h 25 5 c 4.986521,0 9.091518,-3.615036 9.863281,-8.376953 0.03537,-0.401179 0.10826,-0.723195 0.126953,-1.160156 0,-4.741846 -0.456807,-8.927664 -0.912109,-11.150391 C 56.938122,30.805522 51.636494,23.851844 44.322266,20.117188 40.218409,18.021795 35.708741,17.027868 31.212891,17.146484 Z m -7.4375,17.126954 h 1.314453 c 1.253161,0 1.331576,0.01297 1.65039,0.28125 0.707518,0.5953 0.663482,1.697397 -0.08789,2.203124 -0.329204,0.221584 -0.504157,0.25033 -1.53125,0.25 -0.970003,-2.19e-4 -1.21853,-0.03598 -1.521485,-0.220703 -0.763403,-0.465478 -0.852579,-1.485311 -0.1875,-2.15039 z m 19.796875,0 c 1.04503,0 1.2302,0.02859 1.484375,0.228515 0.355781,0.279878 0.615234,0.758939 0.615234,1.138672 0,0.379732 -0.259453,0.858794 -0.615234,1.138672 -0.255816,0.20124 -0.434691,0.228409 -1.50586,0.224609 -0.860961,-0.0031 -1.303666,-0.05291 -1.515625,-0.167968 -0.844666,-0.458371 -0.82965,-1.955396 0.02344,-2.396485 0.229349,-0.118554 0.660586,-0.166015 1.513672,-0.166015 z m 0.07617,4.265624 c 0.632376,0 1.020398,0.198777 1.515624,0.777344 1.044371,1.220241 1.035985,3.546679 -0.01758,4.712891 -0.2136,0.236349 -0.515052,0.495149 -0.669922,0.574219 -0.977767,0.499274 -2.147886,0.01128 -2.740234,-1.142578 -0.661251,-1.28816 -0.487429,-3.114157 0.394531,-4.144532 0.495227,-0.578567 0.885202,-0.777344 1.517579,-0.777344 z m -18.464844,0.002 c 0.04559,-0.0014 0.09157,-3.25e-4 0.136718,0.002 1.083646,0.05466 2.022991,1.162439 2.16211,2.822265 0.106636,1.272082 -0.461664,2.651727 -1.304688,3.169922 -2.130965,1.309705 -4.130127,-1.98009 -2.820312,-4.640625 0.275503,-0.559537 0.465237,-0.789605 0.855469,-1.037109 0.32327,-0.205011 0.651553,-0.30658 0.970703,-0.316406 z m 9.927734,7.132812 c 0.354743,-0.01009 0.808183,-0.0081 1.382813,0 l 2.11914,0.0293 0.220703,0.34375 0.220704,0.34375 2.078124,0.03906 c 2.066657,0.03872 2.081558,0.04064 2.664063,0.363281 0.696687,0.385967 1.150323,0.905734 1.378906,1.576172 0.466135,1.368328 -0.114401,2.812375 -1.402343,3.488281 -0.532962,0.279658 -0.658061,0.297894 -2.339844,0.333984 l -1.777344,0.03711 v 0.61914 c -1.09e-4,0.755091 -0.249914,1.290955 -0.755859,1.628906 C 38.167395,54.966328 37.01072,54.6942 36.683594,53.955078 36.53507,53.61964 36.375,53.527012 36.375,53.775391 c 0,0.07842 -0.172931,0.30829 -0.382812,0.511718 -0.327672,0.317504 -0.470884,0.374624 -1.011719,0.408203 -1.095559,0.06792 -1.647833,-0.4992 -1.751953,-1.796874 l -0.05664,-0.6875 h -1.550781 c -1.827464,0 -2.42447,-0.140964 -3.113282,-0.730469 -1.323443,-1.132854 -1.322563,-3.204161 0.002,-4.337891 0.736717,-0.630515 1.294053,-0.744981 3.480468,-0.707031 l 1.869141,0.0332 v -0.244141 c -2.46e-4,-0.385201 0.187723,-0.520507 1.251953,-0.550781 z" sodipodi:nodetypes="sccsscccccccccscscsccccscscscsscscsscccssccccssscccccsscccccccccccccsccccscccccs"/><path d="m 35.882355,49.268336 c -1.264317,-0.323517 -2.016345,-1.291769 -2.020939,-2.602459 -0.0036,-1.009923 0.01662,-1.017907 2.584194,-1.017907 h 2.100451 l 0.238318,0.300767 c 0.432777,0.546194 0.167992,1.821558 -0.535695,2.580258 -0.561833,0.605691 -1.609489,0.932926 -2.366329,0.739341 M 25.082067,44.809977 c 0.07525,-0.03041 0.198288,-0.03041 0.273425,0 0.07525,0.0303 0.01367,0.05512 -0.136712,0.05512 -0.150384,0 -0.21185,-0.02483 -0.136713,-0.05512 m 18.490421,-0.0023 c 0.07886,-0.03161 0.173242,-0.02767 0.209553,0.0086 0.03631,0.03631 -0.02822,0.06212 -0.143494,0.05742 -0.127416,-0.0052 -0.153336,-0.03117 -0.06606,-0.06606 m -19.78383,-0.663548 -0.265113,-0.300767 0.300767,0.265113 c 0.281081,0.247832 0.350969,0.336422 0.265113,0.336422 -0.01958,0 -0.154868,-0.135291 -0.300767,-0.300768 m 2.687877,0.08203 c 0.108823,-0.120307 0.222568,-0.21874 0.252645,-0.21874 0.03008,0 -0.03445,0.09843 -0.143275,0.21874 -0.108823,0.120307 -0.222568,0.21874 -0.252645,0.21874 -0.03008,0 0.03445,-0.09843 0.143275,-0.21874 m 0.55385,-0.797635 c 0.04112,-0.107839 0.102261,-0.16854 0.135947,-0.134854 0.03369,0.03369 0,0.121839 -0.0747,0.196101 -0.108058,0.107182 -0.120526,0.09461 -0.06125,-0.06125 m -4.072502,-1.77256 c 4.38e-4,-0.421075 0.02023,-0.57988 0.04397,-0.353046 0.02362,0.226942 0.0233,0.571458 -8.75e-4,0.76559 -0.02417,0.194131 -0.04353,0.0085 -0.04309,-0.412544 m 4.483295,0.05468 c 0,-0.390998 0.01991,-0.550897 0.04408,-0.355452 0.02428,0.195553 0.02428,0.51546 0,0.710904 -0.02417,0.195554 -0.04408,0.03555 -0.04408,-0.355452 m 13.886272,-0.05468 c 8.75e-4,-0.300767 0.02209,-0.410794 0.04725,-0.244551 0.02515,0.166242 0.02439,0.412325 -0.0015,0.54685 -0.02592,0.134525 -0.04648,-0.0015 -0.04572,-0.302299 m 4.592009,0.05468 c 0,-0.270691 0.02133,-0.381373 0.04747,-0.246083 0.02603,0.135401 0.02603,0.356875 0,0.492165 -0.02614,0.135401 -0.04747,0.02461 -0.04747,-0.246082 M 23.6876,39.263168 c 0,-0.02264 0.08618,-0.108823 0.191397,-0.191397 0.173461,-0.135947 0.177289,-0.132119 0.04134,0.04134 -0.142946,0.182211 -0.232739,0.240068 -0.232739,0.150056 m -0.08859,-2.477012 c -0.763621,-0.465478 -0.852211,-1.484369 -0.187132,-2.149448 l 0.363218,-0.363218 h 1.314956 c 1.253161,0 1.330704,0.01323 1.649518,0.281518 0.707514,0.595301 0.663548,1.696985 -0.08782,2.202712 -0.329204,0.221474 -0.504087,0.25002 -1.53118,0.249583 -0.970112,-3.29e-4 -1.21871,-0.03642 -1.521556,-0.221147 m 18.436829,0.05031 c -0.844664,-0.458261 -0.830665,-1.955974 0.02231,-2.397063 0.229349,-0.118557 0.66147,-0.165914 1.514556,-0.165914 1.31408,0 1.596364,0.112214 1.936395,0.769855 0.307221,0.593989 0.128729,1.278973 -0.452245,1.73603 -0.255816,0.201241 -0.434855,0.227818 -1.506024,0.22399 -0.860961,-0.0031 -1.303035,-0.05173 -1.514994,-0.166789 M 8.8420443,32.014234 C 7.9645688,31.703623 6.590116,29.894971 6.0708273,28.367619 5.7389987,27.391601 5.663424,25.64015 5.9081941,24.597417 c 0.8901624,-3.792296 4.6762239,-6.170218 8.5376409,-5.362302 0.940035,0.196757 2.324878,0.870585 3.080406,1.498916 0.743716,0.618597 1.734499,1.839931 1.900413,2.342705 0.175867,0.532742 0.06901,1.482182 -0.219068,1.948427 -0.340906,0.551553 -8.288277,6.903215 -8.823425,7.051849 -0.5559274,0.154431 -0.9771113,0.13726 -1.5421167,-0.06278 M 55.025933,29.929314 C 52.99351,26.629621 49.693052,23.314507 46.443669,21.30877 46.078811,21.083577 45.78034,20.863962 45.78034,20.820761 c 0,-0.143931 1.246818,-0.742075 2.07803,-0.996798 0.968909,-0.296939 2.645442,-0.346812 3.60921,-0.107401 1.452652,0.360811 3.021237,1.324252 3.895431,2.392578 1.208867,1.47726 1.833807,3.565024 1.597021,5.335068 -0.06529,0.488009 -0.218412,1.170916 -0.340141,1.517509 -0.251441,0.715061 -0.797307,1.727499 -0.960815,1.781966 -0.06004,0.02001 -0.344953,-0.346485 -0.633252,-0.814369" style="fill:#be580e;stroke-width:0.10937" id="path7"/><path d="m 24.500875,44.61847 c -0.184288,-0.08017 -0.510211,-0.350531 -0.724357,-0.60066 -1.097528,-1.282254 -0.969237,-3.953179 0.238755,-4.969554 1.036827,-0.872444 2.259474,-0.539194 3.013143,0.821369 0.302955,0.54685 0.323079,0.658407 0.323079,1.78634 0,1.092059 -0.0268,1.25349 -0.290596,1.74992 -0.631174,1.187977 -1.582147,1.638472 -2.560024,1.212585 z m 18.297164,-0.07262 c -1.880836,-0.992861 -1.835776,-4.858872 0.06737,-5.780205 0.592676,-0.286768 0.973174,-0.286112 1.570115,0.0028 0.849587,0.411231 1.454184,1.605114 1.454184,2.8714 0,2.231476 -1.571319,3.708408 -3.091671,2.905961 z" style="fill:#5c1a00;stroke:#340f00;stroke-width:0.309002;stroke-dasharray:none;stroke-opacity:1" id="path8"/></g>
  
  
  
  
</svg>
