<svg width="64" height="64" viewBox="0 0 64 64" fill="none" xmlns="http://www.w3.org/2000/svg">
<g id="application-x-blender" clip-path="url(#clip0_1152_6064)">
<g id="Blank-File" clip-path="url(#clip1_1152_6064)">
<g id="Shadow 2" opacity="0.1">
<path id="Vector" d="M11.9792 59.0258H51.9787V65.024H11.9792V59.0258Z" fill="url(#paint0_linear_1152_6064)"/>
<path id="Vector_2" d="M34.979 1.02399V8.02399L41.979 1.02399H34.979Z" fill="url(#paint1_radial_1152_6064)"/>
<path id="Vector_3" d="M41.979 1.02399L34.979 8.02399L48.979 23.024L57.979 14.024V4.56899L54.434 1.02399H41.979Z" fill="url(#paint2_linear_1152_6064)"/>
<path id="Vector_4" d="M57.979 14.024L48.979 23.024H57.979V14.024Z" fill="url(#paint3_radial_1152_6064)"/>
<path id="Vector_5" d="M11.9792 1.02399H34.9781V5.0228H11.9792V1.02399Z" fill="url(#paint4_linear_1152_6064)"/>
<path id="Vector_6" d="M5.97722 1.02399H11.9754V5.0228H5.97722V1.02399Z" fill="url(#paint5_radial_1152_6064)"/>
<path id="Vector_7" d="M51.9787 23.025H57.977V59.0257H51.9787V23.025Z" fill="url(#paint6_linear_1152_6064)"/>
<path id="Vector_8" d="M5.97722 5.02283H11.9754V59.022H5.97722V5.02283Z" fill="url(#paint7_linear_1152_6064)"/>
<path id="Vector_9" d="M51.9787 59.0258H57.977V65.024H51.9787V59.0258Z" fill="url(#paint8_radial_1152_6064)"/>
<path id="Vector_10" d="M5.97722 59.0258H11.9754V65.024H5.97722V59.0258Z" fill="url(#paint9_radial_1152_6064)"/>
</g>
<g id="Shadow 1" opacity="0.2">
<path id="Vector_11" d="M11.9792 59.0258H51.9787V65.024H11.9792V59.0258Z" fill="url(#paint10_linear_1152_6064)"/>
<path id="Vector_12" d="M34.9792 1.02399V8.02403L41.9793 1.02399H34.9792Z" fill="url(#paint11_radial_1152_6064)"/>
<path id="Vector_13" d="M41.9793 1.02399L34.9792 8.02403L48.9793 23.0241L57.9794 14.0241V4.56901L54.4343 1.02399H41.9793Z" fill="url(#paint12_linear_1152_6064)"/>
<path id="Vector_14" d="M57.9794 14.024L48.9793 23.0241H57.9794V14.024Z" fill="url(#paint13_radial_1152_6064)"/>
<path id="Vector_15" d="M11.9792 1.02399H34.9781V5.0228H11.9792V1.02399Z" fill="url(#paint14_linear_1152_6064)"/>
<path id="Vector_16" d="M11.9754 1.02399H5.97722V5.0228H11.9754V1.02399Z" fill="url(#paint15_radial_1152_6064)"/>
<path id="Vector_17" d="M51.9787 23.025H57.977V59.0257H51.9787V23.025Z" fill="url(#paint16_linear_1152_6064)"/>
<path id="Vector_18" d="M5.97722 5.02283H11.9754V59.022H5.97722V5.02283Z" fill="url(#paint17_linear_1152_6064)"/>
<path id="Vector_19" d="M51.9787 59.0258H57.977V65.024H51.9787V59.0258Z" fill="url(#paint18_radial_1152_6064)"/>
<path id="Vector_20" d="M5.97722 59.0258H11.9754V65.024H5.97722V59.0258Z" fill="url(#paint19_radial_1152_6064)"/>
</g>
<path id="Paper" d="M10.9776 2.02557C10.4477 2.02657 9.93969 2.23754 9.56494 2.61229C9.1902 2.98704 8.97922 3.49501 8.97823 4.02498V60.0235C8.97823 61.131 9.87021 62.0229 10.9814 62.0229H52.9766C54.0878 62.0229 54.9797 61.131 54.9797 60.0198V21.0256C54.9797 20.024 54.3674 18.4177 52.9766 17.023L39.9747 4.0212C39.508 3.40374 38.905 2.90239 38.2127 2.55624C37.5204 2.21009 36.7575 2.02848 35.9835 2.02557H10.9776Z" fill="url(#paint20_linear_1152_6064)"/>
</g>
<g id="Logo">
<g id="Vector_21" opacity="0.9">
<path d="M32.5102 37.8424C32.5626 36.8986 33.0188 36.0646 33.7101 35.4753C34.3866 34.896 35.2952 34.5415 36.2926 34.5415C37.2851 34.5415 38.1937 34.8955 38.8702 35.4753C39.5615 36.0646 40.0157 36.8986 40.0701 37.8424C40.1224 38.8112 39.7367 39.7151 39.0627 40.3843C38.3714 41.0635 37.3937 41.493 36.2926 41.493C35.1915 41.493 34.2088 41.0665 33.5225 40.3843C32.846 39.7151 32.4608 38.8162 32.5151 37.8474L32.5102 37.8424Z" fill="#265787"/>
<path d="M26.5848 39.84C26.5912 40.2095 26.7078 40.9286 26.8826 41.488C27.2499 42.6765 27.8751 43.7752 28.7392 44.739C29.628 45.7328 30.7242 46.5318 31.9883 47.1011C33.3166 47.6954 34.7584 48 36.2546 48C37.7508 47.998 39.1926 47.6884 40.5209 47.0861C41.785 46.5118 42.8812 45.7128 43.77 44.714C44.6391 43.7402 45.2612 42.6416 45.6266 41.453C45.8118 40.8537 45.9288 40.2445 45.9757 39.6352C46.0217 39.036 46.0024 38.4317 45.918 37.8274C45.753 36.6539 45.3501 35.5502 44.7329 34.5515C44.17 33.6276 43.4392 32.8236 42.5701 32.1444L42.5721 32.1429L33.8321 25.3512C33.8242 25.3452 33.8178 25.3387 33.8094 25.3332C33.2366 24.8878 32.2688 24.8893 31.6417 25.3357C31.0047 25.7872 30.9306 26.5342 31.4985 27.0037L31.496 27.0062L35.1451 30.0075L24.0349 30.0195H24.0201C23.1016 30.0205 22.2178 30.6288 22.0449 31.4028C21.8652 32.1868 22.4893 32.841 23.4473 32.841L23.4458 32.8445L29.075 32.8336L19.0018 40.624C18.9889 40.6335 18.9751 40.6435 18.9632 40.653C18.0152 41.3871 17.709 42.6106 18.3065 43.3797C18.9139 44.1637 20.2026 44.1687 21.1606 43.3841L26.6416 38.8397C26.6416 38.8397 26.5616 39.454 26.568 39.8185L26.5848 39.84ZM40.7071 41.8925C39.5763 43.056 37.9912 43.7202 36.2827 43.7202C34.5693 43.7232 32.9843 43.071 31.8535 41.9075C31.3004 41.3382 30.8955 40.6889 30.6437 39.9948C30.3983 39.3106 30.303 38.5865 30.3662 37.8574C30.426 37.1433 30.6363 36.4591 30.9736 35.8449C31.3034 35.2406 31.7587 34.6913 32.3167 34.2269C33.4178 33.323 34.8152 32.8286 36.2768 32.8286C37.7434 32.8266 39.1408 33.3125 40.2419 34.2169C40.7999 34.6783 41.2542 35.2256 41.585 35.8299C41.9223 36.4441 42.1331 37.1233 42.1924 37.8424C42.2546 38.5715 42.1593 39.2956 41.9139 39.9798C41.663 40.679 41.2571 41.3282 40.7041 41.8975L40.7071 41.8925Z" fill="#EA7600"/>
</g>
</g>
<g id="Blank-File-Top">
<g id="Curl">
<g id="Shadow">
<path id="Vector_22" opacity="0.05" d="M39.9785 17.0229H23.9795V33.0219H39.9785V17.0229Z" fill="url(#paint21_radial_1152_6064)"/>
<path id="Vector_23" opacity="0.05" d="M23.9792 2.02386V11.0239H39.9793V4.02388C38.6413 2.33087 36.9792 2.02386 35.9792 2.02386H23.9792Z" fill="url(#paint22_radial_1152_6064)"/>
<path id="Vector_24" opacity="0.05" d="M39.9785 11.0247H23.9795V17.0229H39.9785V11.0247Z" fill="url(#paint23_linear_1152_6064)"/>
<path id="Vector_25" opacity="0.2" d="M39.9785 11.0247H28.9799V17.0229H39.9785V11.0247Z" fill="url(#paint24_linear_1152_6064)"/>
<path id="Vector_26" opacity="0.2" d="M39.9785 17.0229H28.9799V28.0215H39.9785V17.0229Z" fill="url(#paint25_radial_1152_6064)"/>
<path id="Vector_27" opacity="0.2" d="M28.9792 2.02386V11.0239H39.9793V4.02388C39.5247 3.43826 38.9524 2.9545 38.2992 2.60387L35.9792 2.02386H28.9792Z" fill="url(#paint26_radial_1152_6064)"/>
<path id="Vector_28" opacity="0.05" d="M39.9785 17.0229V33.022H45.9767V17.0229H39.9785Z" fill="url(#paint27_linear_1152_6064)"/>
<path id="Vector_29" opacity="0.2" d="M39.9785 17.0267V28.0253H45.9767V17.0267H39.9785Z" fill="url(#paint28_linear_1152_6064)"/>
<path id="Vector_30" opacity="0.2" d="M45.9793 17.024V28.0241H54.9794V21.024L54.5394 19.264C54.1608 18.4282 53.632 17.6689 52.9794 17.024H45.9793Z" fill="url(#paint29_radial_1152_6064)"/>
<path id="Vector_31" opacity="0.05" d="M45.979 17.0239V33.0239H54.979V21.0239C54.979 20.8919 54.953 20.7239 54.939 20.5709C54.791 19.5779 54.176 18.2209 52.979 17.0239H45.979Z" fill="url(#paint30_radial_1152_6064)"/>
</g>
<path id="Paper_2" d="M37.9791 2.44135V17.0193C37.9791 18.1267 38.8711 19.0187 39.9823 19.0187H54.443C54.0748 18.2763 53.587 17.5996 52.9992 17.0155L39.9974 4.01366C39.4687 3.33478 38.7824 2.79509 37.998 2.44135H37.9791Z" fill="url(#paint31_linear_1152_6064)"/>
</g>
</g>
</g>
<defs>
<linearGradient id="paint0_linear_1152_6064" x1="29.9777" y1="59.0258" x2="29.9777" y2="65.024" gradientUnits="userSpaceOnUse">
<stop/>
<stop offset="1" stop-opacity="0"/>
</linearGradient>
<radialGradient id="paint1_radial_1152_6064" cx="0" cy="0" r="1" gradientUnits="userSpaceOnUse" gradientTransform="translate(34.978 5.02439) scale(6.32269 4.00052)">
<stop/>
<stop offset="1" stop-opacity="0"/>
</radialGradient>
<linearGradient id="paint2_linear_1152_6064" x1="42.979" y1="13.024" x2="46.727" y2="9.27599" gradientUnits="userSpaceOnUse">
<stop/>
<stop offset="1" stop-opacity="0"/>
</linearGradient>
<radialGradient id="paint3_radial_1152_6064" cx="0" cy="0" r="1" gradientUnits="userSpaceOnUse" gradientTransform="translate(51.9788 23.0242) scale(4.99995 6.94012)">
<stop/>
<stop offset="1" stop-opacity="0"/>
</radialGradient>
<linearGradient id="paint4_linear_1152_6064" x1="21.98" y1="5.0228" x2="21.98" y2="1.02399" gradientUnits="userSpaceOnUse">
<stop/>
<stop offset="1" stop-opacity="0"/>
</linearGradient>
<radialGradient id="paint5_radial_1152_6064" cx="0" cy="0" r="1" gradientUnits="userSpaceOnUse" gradientTransform="translate(11.9794 5.02572) rotate(-90) scale(4.00124 5.00177)">
<stop/>
<stop offset="1" stop-opacity="0"/>
</radialGradient>
<linearGradient id="paint6_linear_1152_6064" x1="51.9787" y1="41.0235" x2="56.9791" y2="41.0235" gradientUnits="userSpaceOnUse">
<stop/>
<stop offset="1" stop-opacity="0"/>
</linearGradient>
<linearGradient id="paint7_linear_1152_6064" x1="11.9792" y1="33.0221" x2="6.97881" y2="33.0221" gradientUnits="userSpaceOnUse">
<stop/>
<stop offset="1" stop-opacity="0"/>
</linearGradient>
<radialGradient id="paint8_radial_1152_6064" cx="0" cy="0" r="1" gradientUnits="userSpaceOnUse" gradientTransform="translate(51.9743 59.022) rotate(90) scale(6.00201 5.00177)">
<stop/>
<stop offset="1" stop-opacity="0"/>
</radialGradient>
<radialGradient id="paint9_radial_1152_6064" cx="0" cy="0" r="1" gradientUnits="userSpaceOnUse" gradientTransform="translate(11.9763 59.022) rotate(180) scale(5.00177 6.00201)">
<stop/>
<stop offset="1" stop-opacity="0"/>
</radialGradient>
<linearGradient id="paint10_linear_1152_6064" x1="29.9777" y1="59.0258" x2="29.9777" y2="64.0224" gradientUnits="userSpaceOnUse">
<stop/>
<stop offset="1" stop-opacity="0"/>
</linearGradient>
<radialGradient id="paint11_radial_1152_6064" cx="0" cy="0" r="1" gradientUnits="userSpaceOnUse" gradientTransform="translate(34.9787 5.02329) scale(6.00771 3.00039)">
<stop/>
<stop offset="1" stop-opacity="0"/>
</radialGradient>
<linearGradient id="paint12_linear_1152_6064" x1="42.9793" y1="13.0241" x2="45.9833" y2="10.02" gradientUnits="userSpaceOnUse">
<stop/>
<stop offset="1" stop-opacity="0"/>
</linearGradient>
<radialGradient id="paint13_radial_1152_6064" cx="0" cy="0" r="1" gradientUnits="userSpaceOnUse" gradientTransform="translate(51.98 23.0235) scale(4 6.38885)">
<stop/>
<stop offset="1" stop-opacity="0"/>
</radialGradient>
<linearGradient id="paint14_linear_1152_6064" x1="21.98" y1="5.0228" x2="21.98" y2="2.02558" gradientUnits="userSpaceOnUse">
<stop/>
<stop offset="1" stop-opacity="0"/>
</linearGradient>
<radialGradient id="paint15_radial_1152_6064" cx="0" cy="0" r="1" gradientUnits="userSpaceOnUse" gradientTransform="translate(11.9791 5.0228) rotate(-90) scale(3.001 4.00124)">
<stop/>
<stop offset="1" stop-opacity="0"/>
</radialGradient>
<linearGradient id="paint16_linear_1152_6064" x1="51.9787" y1="41.0235" x2="55.9775" y2="41.0235" gradientUnits="userSpaceOnUse">
<stop/>
<stop offset="1" stop-opacity="0"/>
</linearGradient>
<linearGradient id="paint17_linear_1152_6064" x1="11.9792" y1="33.0221" x2="7.98041" y2="33.0221" gradientUnits="userSpaceOnUse">
<stop/>
<stop offset="1" stop-opacity="0"/>
</linearGradient>
<radialGradient id="paint18_radial_1152_6064" cx="0" cy="0" r="1" gradientUnits="userSpaceOnUse" gradientTransform="translate(51.9794 59.0237) rotate(90) scale(5.00177 4.00124)">
<stop/>
<stop offset="1" stop-opacity="0"/>
</radialGradient>
<radialGradient id="paint19_radial_1152_6064" cx="0" cy="0" r="1" gradientUnits="userSpaceOnUse" gradientTransform="translate(11.9784 59.0175) rotate(180) scale(4.00124 5.00177)">
<stop/>
<stop offset="1" stop-opacity="0"/>
</radialGradient>
<linearGradient id="paint20_linear_1152_6064" x1="45.9758" y1="10.025" x2="9.98042" y2="61.0233" gradientUnits="userSpaceOnUse">
<stop stop-color="#EDEDED"/>
<stop offset="1" stop-color="#FCFCFC"/>
</linearGradient>
<radialGradient id="paint21_radial_1152_6064" cx="0" cy="0" r="1" gradientUnits="userSpaceOnUse" gradientTransform="translate(39.9785 17.0267) rotate(180) scale(16.0028 16.0028)">
<stop/>
<stop offset="1" stop-opacity="0"/>
</radialGradient>
<radialGradient id="paint22_radial_1152_6064" cx="0" cy="0" r="1" gradientUnits="userSpaceOnUse" gradientTransform="translate(39.9793 11.0239) rotate(-90) scale(12.0001 16.0001)">
<stop/>
<stop offset="1" stop-opacity="0"/>
</radialGradient>
<linearGradient id="paint23_linear_1152_6064" x1="39.9785" y1="14.357" x2="23.9795" y2="14.357" gradientUnits="userSpaceOnUse">
<stop/>
<stop offset="1" stop-opacity="0"/>
</linearGradient>
<linearGradient id="paint24_linear_1152_6064" x1="39.9785" y1="14.0244" x2="32.9787" y2="14.0244" gradientUnits="userSpaceOnUse">
<stop/>
<stop offset="1" stop-opacity="0"/>
</linearGradient>
<radialGradient id="paint25_radial_1152_6064" cx="0" cy="0" r="1" gradientUnits="userSpaceOnUse" gradientTransform="translate(39.978 17.0242) rotate(180) scale(7.00124 7.02916)">
<stop/>
<stop offset="1" stop-opacity="0"/>
</radialGradient>
<radialGradient id="paint26_radial_1152_6064" cx="0" cy="0" r="1" gradientUnits="userSpaceOnUse" gradientTransform="translate(39.9792 11.0229) rotate(-90) scale(10.4625 7.03869)">
<stop/>
<stop offset="1" stop-opacity="0"/>
</radialGradient>
<linearGradient id="paint27_linear_1152_6064" x1="43.3109" y1="17.0229" x2="43.3109" y2="33.022" gradientUnits="userSpaceOnUse">
<stop/>
<stop offset="1" stop-opacity="0"/>
</linearGradient>
<linearGradient id="paint28_linear_1152_6064" x1="42.9783" y1="17.0229" x2="42.9783" y2="24.0492" gradientUnits="userSpaceOnUse">
<stop/>
<stop offset="1" stop-opacity="0"/>
</linearGradient>
<radialGradient id="paint29_radial_1152_6064" cx="0" cy="0" r="1" gradientUnits="userSpaceOnUse" gradientTransform="translate(45.9793 17.0241) scale(11.4689 7.02797)">
<stop/>
<stop offset="1" stop-opacity="0"/>
</radialGradient>
<radialGradient id="paint30_radial_1152_6064" cx="0" cy="0" r="1" gradientUnits="userSpaceOnUse" gradientTransform="translate(45.979 17.0239) scale(12 16)">
<stop/>
<stop offset="1" stop-opacity="0"/>
</radialGradient>
<linearGradient id="paint31_linear_1152_6064" x1="39.9793" y1="17.0225" x2="45.9793" y2="11.0225" gradientUnits="userSpaceOnUse">
<stop stop-color="#FEFEFE"/>
<stop offset="1" stop-color="#E9E9E9"/>
</linearGradient>
<clipPath id="clip0_1152_6064">
<rect width="64" height="64" fill="white"/>
</clipPath>
<clipPath id="clip1_1152_6064">
<rect width="64" height="64" fill="white"/>
</clipPath>
</defs>
</svg>
