<svg width="16" height="16" viewBox="0 0 16 16" fill="none" xmlns="http://www.w3.org/2000/svg">
<g id="edit-clear-rtl-symbolic">
<path id="Bs" fill-rule="evenodd" clip-rule="evenodd" d="M2.99998 2C2.42475 2 1.9333 2.27762 1.60545 2.60547C1.27761 2.93331 0.999985 3.42477 0.999985 4V12C0.999985 12.5752 1.27761 13.0667 1.60545 13.3945C1.9333 13.7224 2.42475 14 2.99998 14H9.99999C10.3038 14 10.5915 13.8622 10.7812 13.625L14.7812 8.625C15.0734 8.25978 15.0734 7.74022 14.7812 7.375L10.7812 2.375L10.7051 2.29102C10.5188 2.10575 10.2657 2 9.99999 2H2.99998ZM9.99999 3H2.99998C2.49998 3 1.99998 3.5 1.99998 4V12C1.99998 12.5 2.49998 13 2.99998 13H9.99999L14 8L9.99999 3Z" fill="#363636"/>
<path id="Icon" d="M4.08763 5.54585C3.85984 5.77366 3.85984 6.14301 4.08763 6.37081L5.71682 8L4.08763 9.62919C3.85984 9.85698 3.85984 10.2264 4.08763 10.4541C4.31548 10.6819 4.68479 10.6819 4.91264 10.4541L6.54177 8.82495L8.17097 10.4541C8.39882 10.6819 8.76812 10.6819 8.99597 10.4541C9.22375 10.2264 9.22375 9.85698 8.99597 9.62919L7.36678 8L8.99597 6.37081C9.22375 6.14301 9.22375 5.77366 8.99597 5.54585C8.76812 5.31805 8.39882 5.31805 8.17097 5.54585L6.54177 7.17505L4.91264 5.54585C4.68479 5.31805 4.31548 5.31805 4.08763 5.54585Z" fill="#363636"/>
</g>
</svg>
