<svg width="64" height="64" viewBox="0 0 64 64" fill="none" xmlns="http://www.w3.org/2000/svg">
<g id="drive-harddisk" clip-path="url(#clip0_53_155)">
<g id="shadow" opacity="0.15" filter="url(#filter0_f_53_155)">
<path d="M17.018 7.36266C13.2487 7.36266 10.7793 10.1707 10.214 13.5727L3.41264 54.5544C3.33549 55.0422 3.34298 55.5396 3.43478 56.0248C3.68485 59.4086 6.61146 62.0656 10.214 62.0656H53.7576C57.2221 62.0656 60.0614 59.6079 60.4978 56.4077C60.6567 55.8216 60.6892 55.1978 60.5616 54.5544L52.3965 13.5727C51.7231 10.1877 49.3618 7.36266 45.5938 7.36266H17.018Z" fill="black"/>
</g>
<path id="fill" d="M17.3612 4.0035H45.2947C48.98 4.0035 51.2877 6.89105 51.9463 10.3531L59.9251 52.3056C60.5837 55.7727 56.9588 58.6653 53.2736 58.6653H10.7147C7.02947 58.6653 3.51516 55.7928 4.06317 52.3056L10.7147 10.3531C11.2678 6.87593 13.681 4.0035 17.3663 4.0035" fill="url(#paint0_linear_53_155)"/>
<path id="border" opacity="0.1" d="M17.3563 4.0035C13.6761 4.0035 11.2578 6.87593 10.7098 10.3531L4.05823 52.3056C3.50519 55.7878 7.02453 58.6653 10.7098 58.6653H53.2737C56.9589 58.6653 60.5838 55.7727 59.9252 52.3056L51.9464 10.3531C51.2877 6.89105 48.9801 4.0035 45.2898 4.0035H17.3563ZM17.3563 4.30586H45.2948C47.0545 4.30586 48.4622 4.9761 49.5331 6.08475C50.604 7.19341 51.328 8.73041 51.6447 10.4186L59.6286 52.361C59.9353 53.9837 59.2565 55.4653 58.0298 56.5638C56.7132 57.7168 55.027 58.3571 53.2787 58.3679H10.7098C8.94508 58.3679 7.20552 57.6675 5.99386 56.5638C4.7822 55.4602 4.09845 53.9837 4.35486 52.356L11.0014 10.4035C11.5393 7.03215 13.8269 4.30586 17.3563 4.30586Z" fill="black"/>
<g id="front">
<path id="Vector" d="M53.2737 46.6666H10.7098C7.03623 46.6666 4.05823 49.6515 4.05823 53.3336C4.05823 57.0158 7.03623 60.0007 10.7098 60.0007H53.2737C56.9472 60.0007 59.9252 57.0158 59.9252 53.3336C59.9252 49.6515 56.9472 46.6666 53.2737 46.6666Z" fill="url(#paint1_linear_53_155)"/>
<path id="Vector_2" d="M39.3976 52H10.6024C9.71743 52 9 52.6716 9 53.5C9 54.3284 9.71743 55 10.6024 55H39.3976C40.2826 55 41 54.3284 41 53.5C41 52.6716 40.2826 52 39.3976 52Z" fill="url(#paint2_linear_53_155)"/>
<g id="IO btn">
<g id="Vector_3" opacity="0.452">
<path d="M51.9464 55.9995C53.4152 55.9995 54.606 54.8059 54.606 53.3337C54.606 51.8614 53.4152 50.6678 51.9464 50.6678C50.4775 50.6678 49.2867 51.8614 49.2867 53.3337C49.2867 54.8059 50.4775 55.9995 51.9464 55.9995Z" fill="url(#paint3_linear_53_155)"/>
<path d="M51.9459 50.5682C53.4702 50.5682 54.7057 51.8066 54.7057 53.3339C54.7056 54.8611 53.4702 56.0995 51.9459 56.0995C50.4219 56.0993 49.1872 54.8609 49.1871 53.3339C49.1871 51.8067 50.4218 50.5685 51.9459 50.5682Z" stroke="white" stroke-opacity="0.5" stroke-width="0.2"/>
</g>
<path id="Vector_4" d="M51.943 52.0981C51.9168 52.0979 51.8908 52.1032 51.8667 52.1136C51.8427 52.124 51.821 52.1393 51.8032 52.1585C51.7851 52.1763 51.7708 52.1974 51.761 52.2208C51.7513 52.2442 51.7463 52.2693 51.7465 52.2946V53.2886C51.7465 53.3415 51.7654 53.3882 51.8032 53.4285C51.8637 53.4852 51.8901 53.4852 51.943 53.4852C51.969 53.4858 51.9948 53.4811 52.0189 53.4714C52.0429 53.4616 52.0647 53.447 52.0829 53.4285C52.1014 53.4103 52.116 53.3885 52.1258 53.3645C52.1355 53.3404 52.1402 53.3146 52.1396 53.2886V52.2946C52.1397 52.2693 52.1348 52.2442 52.125 52.2208C52.1153 52.1974 52.101 52.1763 52.0829 52.1585C52.065 52.1393 52.0434 52.124 52.0193 52.1136C51.9952 52.1032 51.9693 52.0979 51.943 52.0981ZM51.3761 52.3929C51.3232 52.3929 51.274 52.3929 51.2287 52.4307C51.0803 52.539 50.9597 52.6811 50.8769 52.8454C50.7941 53.0097 50.7514 53.1915 50.7525 53.3756C50.7525 53.5368 50.7852 53.6918 50.8507 53.8405C50.9162 53.9891 51.0007 54.1151 51.104 54.2184C51.3279 54.4389 51.6288 54.5636 51.943 54.5661C52.1018 54.5661 52.2542 54.5346 52.4004 54.4716C52.542 54.4135 52.6706 54.3278 52.779 54.2195C52.8873 54.1111 52.9732 53.9823 53.0316 53.8405C53.1373 53.5974 53.1576 53.3256 53.0889 53.0695C53.0203 52.8134 52.8668 52.5882 52.6536 52.4307C52.6325 52.414 52.6082 52.402 52.5821 52.3955C52.556 52.3889 52.5289 52.3881 52.5024 52.3929C52.452 52.3954 52.4092 52.4206 52.3739 52.4685C52.3582 52.4886 52.3468 52.5117 52.3403 52.5364C52.3338 52.5611 52.3324 52.5868 52.3361 52.6121C52.3462 52.665 52.3726 52.7091 52.4155 52.7444C52.5707 52.8596 52.6783 53.0281 52.7178 53.2179C52.7574 53.4076 52.7261 53.6054 52.6299 53.7735C52.5337 53.9416 52.3794 54.0682 52.1963 54.1294C52.0131 54.1905 51.814 54.1818 51.6369 54.105C51.5416 54.0674 51.4549 54.0109 51.3821 53.9387C51.3094 53.8666 51.252 53.7805 51.2136 53.6855C51.1451 53.5228 51.1329 53.3419 51.1787 53.1715C51.2246 53.001 51.326 52.8507 51.4668 52.7444C51.4879 52.7288 51.5055 52.709 51.5185 52.6862C51.5315 52.6634 51.5397 52.6382 51.5424 52.6121C51.5467 52.5862 51.5455 52.5598 51.539 52.5344C51.5325 52.509 51.5208 52.4853 51.5046 52.4647C51.4894 52.444 51.4702 52.4267 51.4481 52.4137C51.426 52.4007 51.4015 52.3923 51.3761 52.3891" fill="white"/>
</g>
<path id="Vector_5" opacity="0.25" d="M10.6674 47C9.79127 46.998 8.92337 47.1716 8.11355 47.5108C7.30372 47.8501 6.56792 48.3483 5.9484 48.9769C5.32888 49.6054 4.83784 50.352 4.50348 51.1736C4.16912 51.9953 3.99802 52.8759 4.00002 53.7648L4.0101 54C4.03658 52.3209 4.71332 50.7198 5.89403 49.5429C7.07473 48.366 8.66451 47.7079 10.3197 47.7108H53.6803C55.3355 47.7079 56.9253 48.366 58.106 49.5429C59.2867 50.7198 59.9634 52.3209 59.9899 54L60 53.7648C60.002 52.8759 59.8309 51.9953 59.4965 51.1736C59.1622 50.352 58.6711 49.6054 58.0516 48.9769C57.4321 48.3483 56.6963 47.8501 55.8865 47.5108C55.0766 47.1716 54.2087 46.998 53.3326 47H10.6674Z" fill="black"/>
<path id="Vector_6" d="M10.7096 46.9166H53.274C56.8088 46.9168 59.6754 49.7892 59.6754 53.3336C59.6754 56.878 56.8088 59.7504 53.274 59.7506H10.7096C7.17475 59.7505 4.30823 56.8781 4.30823 53.3336C4.30826 49.7891 7.17477 46.9167 10.7096 46.9166Z" stroke="#898989" stroke-width="0.5"/>
</g>
<path id="Vector_7" opacity="0.15" d="M31.994 13.521C27.574 13.521 23.57 14.759 20.656 16.777C17.742 18.794 15.912 21.607 15.912 24.73C15.912 27.853 17.742 30.668 20.656 32.685C23.57 34.703 27.574 35.941 31.994 35.941C36.414 35.941 40.42 34.703 43.334 32.685C46.248 30.668 48.078 27.853 48.078 24.73C48.078 21.607 46.248 18.794 43.334 16.777C40.42 14.759 36.414 13.521 31.994 13.521ZM31.994 14.007C33.164 14.007 34.301 14.099 35.396 14.267C34.7468 14.1683 34.0892 14.0982 33.427 14.057C33.485 14.097 33.509 14.184 33.56 14.228C33.662 14.321 33.785 14.322 33.8 14.421C33.838 14.659 33.488 14.678 33.521 14.943C33.449 15.045 33.269 15.038 33.283 15.175C33.306 15.383 33.759 15.227 33.883 15.396C33.949 15.487 33.871 15.553 33.822 15.683C33.978 15.81 33.976 16.013 33.701 16.013C33.534 16.013 33.487 15.892 33.318 15.863C33.224 15.848 33.098 15.851 32.978 15.835C32.876 15.825 32.753 15.808 32.656 15.796C32.408 15.776 32.142 15.826 31.996 15.728C32.235 15.511 32.552 15.296 32.859 15.108C32.95 15.053 33.145 15.018 33.099 14.904C32.929 14.801 32.718 14.91 32.556 14.972C32.386 15.037 32.187 15.129 31.996 15.148C31.664 15.181 31.224 15.083 30.953 15.205C30.915 15.308 31.26 15.269 31.213 15.425C31.08 15.439 30.953 15.447 30.851 15.382C30.755 15.324 30.809 15.241 30.75 15.205C30.647 15.14 30.259 15.129 30.086 15.15C29.875 15.174 29.689 15.259 29.664 15.382C29.917 15.462 30.335 15.3 30.427 15.507C30.289 15.678 29.962 15.772 30.006 16.001C30.023 16.09 30.178 16.209 30.289 16.221C30.4 16.234 30.46 16.156 30.569 16.167C30.682 16.176 30.657 16.267 30.791 16.251C30.984 16.195 31.091 16.005 31.312 16.017C31.578 16.237 31.072 16.347 30.791 16.417C30.469 16.497 30.047 16.539 29.802 16.609C29.674 16.645 29.19 16.967 29.122 16.719C29.074 16.539 29.362 16.59 29.424 16.443C29.113 16.401 28.822 16.535 28.539 16.609C28.135 16.713 27.453 16.781 27.355 17.091C27.334 17.153 27.393 17.269 27.334 17.311C27.286 17.344 26.997 17.348 26.871 17.378C26.677 17.424 26.509 17.52 26.391 17.542C26.3 17.56 26.166 17.557 26.109 17.572C25.949 17.614 25.889 17.761 25.707 17.859C25.632 17.899 25.468 17.932 25.407 17.972C25.304 18.043 25.287 18.219 25.103 18.246C24.987 18.253 24.891 18.188 24.781 18.234C24.771 18.409 24.871 18.646 24.761 18.824C24.524 18.956 24.263 19.048 23.959 19.166C23.79 19.23 23.639 19.246 23.435 19.316C23.291 19.366 23.162 19.484 22.995 19.552C22.612 19.707 22.147 19.888 22.15 20.279C22.151 20.364 22.215 20.455 22.23 20.554C22.243 20.612 22.227 20.669 22.23 20.732C22.254 20.876 22.406 21.06 22.23 21.16C21.96 21.084 21.615 21.057 21.425 20.925C21.374 20.789 21.533 20.678 21.508 20.555C21.488 20.455 21.284 20.28 21.166 20.267C21.044 20.252 20.931 20.345 20.804 20.333C20.654 20.325 20.517 20.185 20.324 20.169C20.041 20.147 19.832 20.215 19.519 20.185C19.216 20.295 19.129 20.493 18.757 20.475C18.627 20.468 18.504 20.399 18.353 20.376C18.1687 20.3489 17.9831 20.3315 17.797 20.324C17.19 21.2493 16.7775 22.2291 16.572 23.234C16.597 23.24 16.624 23.249 16.644 23.25C16.791 23.252 16.966 23.199 17.109 23.181C17.274 23.161 17.48 23.158 17.631 23.125C18.065 23.029 17.981 22.629 18.416 22.494C18.606 22.435 18.824 22.424 19.158 22.412C19.264 22.472 19.314 22.581 19.3 22.673C19.289 22.743 19.194 22.806 19.14 22.906C19.096 22.994 19.083 23.097 19.039 23.168C18.979 23.26 18.844 23.328 18.797 23.416C18.769 23.472 18.786 23.541 18.759 23.591C18.714 23.682 18.535 23.746 18.617 23.839C19.047 23.958 19.567 23.809 19.943 23.855C20.101 23.875 20.429 24.005 20.425 24.171C20.423 24.296 20.287 24.378 20.265 24.515C20.242 24.687 20.126 24.898 20.123 25.037C20.105 25.265 20.613 25.669 20.967 25.657C21.348 25.654 21.571 25.397 22.031 25.533C22.184 25.578 22.345 25.75 22.513 25.738C22.653 25.731 22.863 25.565 22.955 25.448C23.068 25.308 23.078 25.19 23.277 25.118C23.493 25.043 23.663 25.078 23.939 25.008C24.062 24.977 24.168 24.922 24.279 24.871C24.376 24.825 24.479 24.704 24.601 24.787C24.761 24.897 24.405 24.96 24.541 25.077C24.819 25.179 24.962 24.896 25.164 24.884C25.228 24.883 25.454 24.971 25.568 25.021C25.725 25.091 25.778 25.19 25.949 25.214C26.059 25.23 26.236 25.184 26.39 25.199C26.595 25.219 26.716 25.349 26.87 25.337C27.06 25.334 27.15 25.194 27.312 25.173C27.667 25.129 27.799 25.202 27.955 25.353C28.13 25.373 28.135 25.211 28.295 25.267C28.206 25.387 28.324 25.443 28.395 25.543C28.44 25.607 28.434 25.653 28.476 25.681C28.572 25.744 28.758 25.742 28.898 25.804C29.046 25.868 29.131 25.987 29.301 26.121C29.475 26.257 29.768 26.396 30.001 26.408C30.222 26.416 30.403 26.363 30.586 26.378C31.001 26.414 31.258 26.558 31.549 26.71C31.711 26.796 31.859 26.856 31.912 26.959C31.949 27.03 31.93 27.124 31.972 27.205C32.062 27.375 32.425 27.459 32.292 27.755C32.353 27.842 32.489 27.872 32.635 27.933C32.751 27.981 32.85 28.08 32.976 28.095C33.058 28.105 33.146 28.084 33.216 28.084C33.445 28.094 33.601 28.154 33.799 28.204C33.921 28.239 34.082 28.251 34.162 28.291C34.264 28.338 34.277 28.495 34.402 28.537C34.484 28.566 34.666 28.525 34.802 28.537C35.018 28.554 35.312 28.637 35.508 28.648C35.626 28.649 35.723 28.607 35.828 28.618C36.32 28.644 36.598 29.046 37.072 29.168C37.219 29.208 37.452 29.178 37.554 29.208C37.732 29.261 37.884 29.635 37.896 29.8C37.936 30.3 37.376 30.458 37.052 30.789C36.985 30.858 36.948 30.969 36.852 31.064C36.659 31.258 36.444 31.297 36.47 31.654C36.476 31.752 36.55 31.847 36.55 31.957C36.55 32.089 36.532 32.263 36.488 32.382C36.454 32.474 36.346 32.545 36.328 32.628C36.312 32.712 36.364 32.778 36.349 32.849C36.332 32.929 36.217 33.039 36.129 33.152C35.943 33.386 35.903 33.661 35.527 33.755C35.306 33.81 35.005 33.781 34.763 33.837C34.666 33.86 34.542 33.924 34.422 33.962C34.072 34.074 33.574 34.225 33.478 34.472C33.392 34.692 33.596 34.866 33.537 35.117C33.475 35.191 33.391 35.264 33.297 35.349C33.28 35.364 33.269 35.38 33.256 35.396C33.4886 35.3892 33.721 35.3789 33.953 35.365C33.335 35.418 32.708 35.449 32.07 35.451L31.994 35.453C27.665 35.453 23.752 34.236 20.933 32.285C18.557 30.64 16.971 28.484 16.529 26.091C16.869 27.8959 17.8732 29.6117 19.447 31.0769C21.0208 32.5421 23.1125 33.7084 25.525 34.466C25.527 34.416 25.566 34.379 25.565 34.33C25.563 34.188 25.496 34.045 25.484 33.904C25.464 33.642 25.527 33.459 25.464 33.218C25.418 33.036 25.357 32.756 25.261 32.64C25.154 32.512 24.731 32.294 24.519 32.212C24.379 32.158 24.209 32.14 24.056 32.089C23.729 31.979 23.096 31.749 22.952 31.527C22.912 31.463 22.917 31.379 22.872 31.308C22.785 31.167 22.601 31.043 22.47 30.908C22.222 30.648 22.024 30.324 21.769 30.056C21.64 29.92 21.527 29.766 21.386 29.658C21.303 29.594 21.038 29.535 21.006 29.438C20.96 29.312 20.821 29.136 20.843 29.038C20.872 28.908 21.246 28.801 21.245 28.681C21.245 28.579 21.047 28.521 21.005 28.435C20.904 28.225 21.065 28.102 21.185 27.927C21.225 27.87 21.267 27.776 21.308 27.734C21.381 27.658 21.528 27.638 21.626 27.556C21.681 27.51 21.715 27.415 21.786 27.349C21.939 27.21 22.186 27.158 22.249 27.033C22.303 26.931 22.335 26.42 22.273 26.249C22.238 26.151 22.103 26.069 22.053 25.976C21.961 25.81 21.938 25.621 21.689 25.632C21.535 25.634 21.429 25.75 21.329 25.824C21.305 25.922 21.317 26.028 21.167 26.058C20.939 26.104 20.851 25.893 20.585 25.839C20.479 25.817 20.312 25.819 20.245 25.799C20.051 25.739 19.988 25.542 19.783 25.466C19.611 25.404 19.463 25.425 19.359 25.328C19.313 25.261 19.354 25.143 19.341 25.054C19.121 24.966 18.933 24.636 18.677 24.558C18.507 24.505 18.245 24.512 18.033 24.464C17.933 24.44 17.855 24.412 17.751 24.396C17.623 24.377 17.49 24.374 17.39 24.339C17.047 24.223 16.833 23.892 16.466 23.809C16.4247 24.1152 16.4027 24.4225 16.4 24.73C16.4008 25.1814 16.4433 25.6323 16.527 26.08C16.4428 25.6349 16.3993 25.183 16.397 24.73C16.397 21.797 18.114 19.129 20.933 17.177C23.752 15.225 27.665 14.007 31.994 14.007ZM32.07 35.451C32.4602 35.449 32.8504 35.4357 33.24 35.413L33.256 35.396C32.8618 35.4243 32.4662 35.4433 32.07 35.451ZM32.002 14.01C31.8796 14.0133 31.7572 14.0177 31.635 14.023C31.756 14.021 31.877 14.017 32 14.017L32.002 14.009V14.01ZM31.635 14.023C31.292 14.029 30.952 14.041 30.615 14.063C30.9543 14.042 31.2944 14.0287 31.635 14.023ZM30.225 14.093C29.8775 14.1184 29.5313 14.1517 29.187 14.193C29.529 14.15 29.877 14.121 30.225 14.093ZM28.662 14.275C28.3505 14.3185 28.041 14.3685 27.734 14.425C28.038 14.366 28.351 14.322 28.662 14.275ZM35.517 14.287C36.144 14.387 36.757 14.51 37.351 14.66C36.7513 14.5101 36.1388 14.3855 35.517 14.287ZM37.523 14.705C38.037 14.839 38.537 14.992 39.023 15.162C38.535 14.9918 38.0343 14.8392 37.523 14.705ZM26.394 14.732C26.2544 14.7723 26.1158 14.814 25.978 14.857L25.986 14.859C26.112 14.866 26.269 14.809 26.394 14.732ZM23.5 15.75C23.2849 15.8504 23.0735 15.9544 22.866 16.062C23.05 16.058 23.386 16.039 23.416 16.029C23.612 15.972 23.588 15.857 23.5 15.749V15.75ZM23.916 16.177C23.756 16.168 23.593 16.225 23.536 16.275C23.529 16.357 23.63 16.37 23.618 16.453C23.422 16.548 23.527 16.867 23.719 16.878C23.923 16.89 24.029 16.528 24.301 16.496C24.401 16.484 24.449 16.533 24.581 16.521C24.739 16.436 24.668 16.264 24.501 16.234C24.434 16.224 24.347 16.264 24.241 16.264C24.127 16.257 24.012 16.191 23.918 16.179V16.177H23.916ZM23.012 16.222C22.8282 16.2236 22.646 16.2561 22.473 16.318C22.384 16.36 22.325 16.463 22.233 16.538C22.138 16.617 22.03 16.673 21.95 16.742C21.877 16.802 21.469 17.207 21.787 17.252C21.923 17.271 22.207 17.077 22.233 17.003C22.323 16.752 22.488 16.573 22.773 16.455C22.939 16.386 23.106 16.396 23.133 16.25C23.0964 16.2297 23.0548 16.22 23.013 16.222H23.012ZM41.668 16.328C41.787 16.392 41.906 16.456 42.022 16.523C41.9054 16.4568 41.7874 16.3918 41.668 16.328ZM25.391 16.714C25.289 16.711 25.175 16.728 25.082 16.728C24.951 16.736 24.792 16.755 24.78 16.822C24.989 16.889 25.562 16.937 25.627 16.755C25.5524 16.7238 25.4716 16.7104 25.391 16.716V16.714ZM24.091 17.05V17.052C23.885 17.057 23.691 17.126 23.516 17.142C23.376 17.153 23.123 17.122 23.155 17.265C23.181 17.381 23.443 17.342 23.596 17.308C23.914 17.239 24.114 17.179 24.299 17.074C24.228 17.064 24.159 17.05 24.091 17.05ZM44.022 17.91C44.229 18.082 44.427 18.26 44.618 18.441C44.444 18.449 44.231 18.508 44.143 18.392C44.111 18.349 44.156 18.249 44.143 18.201C44.12 18.111 44.013 18.047 44.001 17.98C43.999 17.958 44.011 17.933 44.022 17.91ZM45.04 18.859C46.659 20.552 47.593 22.569 47.593 24.73C47.5925 25.2773 47.5322 25.8229 47.413 26.357C47.2176 26.3961 47.0241 26.4438 46.833 26.5C46.604 26.57 46.372 26.666 46.171 26.677C45.98 26.683 45.793 26.608 45.611 26.595C45.3487 26.5814 45.0857 26.5908 44.825 26.623C44.595 26.651 44.385 26.763 44.182 26.775C43.793 26.795 43.422 26.533 43.178 26.402C43.028 26.322 42.878 26.259 42.738 26.183C42.587 26.103 42.391 26.055 42.274 25.978C42.115 25.873 42.116 25.689 42.034 25.55C41.936 25.387 41.64 25.268 41.413 25.113C41.243 24.997 40.852 24.823 40.809 24.673C40.787 24.597 40.852 24.506 40.849 24.423C40.838 24.303 40.706 24.237 40.708 24.15C40.712 24.03 40.919 23.935 40.969 23.834C40.995 23.782 40.984 23.709 41.01 23.642C41.067 23.502 41.199 23.419 41.169 23.214C41.157 23.134 41.051 23.06 41.048 22.954C41.044 22.882 41.111 22.842 41.108 22.775C41.093 22.658 40.872 22.636 40.848 22.502C40.825 22.362 41.041 22.248 41.168 22.089C41.225 22.019 41.26 21.909 41.311 21.855C41.424 21.738 41.604 21.682 41.691 21.566C41.754 21.481 41.775 21.356 41.833 21.293C41.907 21.211 42.053 21.166 42.194 21.058C42.308 20.97 42.354 20.865 42.434 20.824C42.535 20.774 42.686 20.762 42.796 20.728C43.167 20.612 43.438 20.462 43.618 20.218C43.563 19.998 43.647 19.906 43.78 19.753C43.903 19.613 43.993 19.478 44.202 19.396C44.452 19.299 44.691 19.289 44.866 19.107C44.9364 19.0338 44.9951 18.9501 45.04 18.859ZM24.526 25.318C24.506 25.318 24.484 25.318 24.459 25.33C24.313 25.376 24.389 25.552 24.539 25.537C24.679 25.521 24.662 25.332 24.526 25.32V25.318ZM40.915 33.521C40.641 33.653 40.362 33.781 40.075 33.9C40.3608 33.7799 40.641 33.6535 40.915 33.521ZM39.45 34.148C39.01 34.313 38.557 34.465 38.093 34.601C38.5557 34.4651 39.0086 34.3139 39.45 34.148ZM37.694 34.708C37.185 34.846 36.664 34.967 36.13 35.068C36.6602 34.967 37.1823 34.8468 37.694 34.708ZM27.335 34.953C27.4791 34.9818 27.6238 35.0091 27.769 35.035C27.625 35.007 27.477 34.983 27.335 34.953ZM35.96 35.101C35.361 35.209 34.747 35.292 34.122 35.351C34.7414 35.2929 35.3552 35.2095 35.96 35.101ZM28.839 35.224C29.0635 35.2527 29.2889 35.2781 29.515 35.3C29.289 35.275 29.062 35.256 28.839 35.224ZM30.405 35.392C30.832 35.422 31.265 35.435 31.702 35.441C31.2689 35.437 30.8361 35.4206 30.405 35.392Z" fill="black"/>
<g id="Subtract" opacity="0.15">
<path d="M16.6914 27.2744C17.1343 28.8275 18.0738 30.2975 19.4473 31.5762C21.0211 33.0412 23.113 34.2073 25.5254 34.9648C25.5275 34.915 25.5664 34.878 25.5654 34.8291C25.5638 34.7111 25.5177 34.5922 25.4951 34.4746C27.4725 35.0999 29.6731 35.4531 31.9941 35.4531L32.0703 35.4512C32.5626 35.4496 33.0482 35.4293 33.5283 35.3965C33.545 35.4647 33.5559 35.5363 33.5371 35.6162C33.4751 35.6902 33.3908 35.7627 33.2969 35.8477C33.28 35.8626 33.2688 35.8786 33.2559 35.8945C33.4224 35.8897 33.5887 35.8806 33.7549 35.8721C33.5864 35.8848 33.4171 35.8942 33.2471 35.9033L33.2559 35.8945C33.0677 35.908 32.8792 35.9197 32.6904 35.9287C32.4595 35.9355 32.2274 35.9414 31.9941 35.9414C30.3605 35.9414 28.7838 35.7702 27.2979 35.4551C24.862 34.9257 22.6855 33.9973 20.9326 32.7842C18.7858 31.2978 17.2871 29.3931 16.6914 27.2744Z" fill="black"/>
<path d="M36.5273 35.4863C36.9213 35.4035 37.311 35.311 37.6943 35.207C37.3152 35.3098 36.929 35.4027 36.5361 35.4854C36.5333 35.4859 36.5302 35.4857 36.5273 35.4863Z" fill="black"/>
<path d="M33.2402 35.4131C32.8507 35.4358 32.4605 35.4492 32.0703 35.4512C32.4663 35.4435 32.8618 35.4248 33.2559 35.3965L33.2402 35.4131Z" fill="black"/>
<path d="M30.4053 35.3916C30.8363 35.4202 31.2691 35.4374 31.7021 35.4414C31.2652 35.4354 30.8322 35.4216 30.4053 35.3916Z" fill="black"/>
<path d="M33.4697 35.1855C33.485 35.2504 33.5076 35.3157 33.5254 35.3838C33.4356 35.3875 33.3457 35.3939 33.2559 35.3965C33.2689 35.3805 33.2799 35.3636 33.2969 35.3486C33.361 35.2906 33.4187 35.2365 33.4697 35.1855Z" fill="black"/>
<path d="M39.4502 34.6475C39.0102 34.8125 38.5568 34.9636 38.0928 35.0996C38.5555 34.9637 39.0088 34.8134 39.4502 34.6475Z" fill="black"/>
<path d="M36.5117 32.2988C36.5311 32.349 36.5498 32.4006 36.5498 32.4561C36.5498 32.588 36.5322 32.7619 36.4883 32.8809C36.4543 32.9728 36.3462 33.044 36.3281 33.127C36.3121 33.2108 36.3635 33.2768 36.3486 33.3477C36.3316 33.4277 36.2169 33.5384 36.1289 33.6514C35.9431 33.8852 35.9029 34.1599 35.5273 34.2539C35.3063 34.3089 35.0047 34.2799 34.7627 34.3359C34.6657 34.359 34.5418 34.423 34.4219 34.4609C34.1121 34.5601 33.6867 34.6899 33.5264 34.8896C33.4899 34.7467 33.42 34.619 33.4775 34.4717C33.5736 34.2248 34.0719 34.0739 34.4219 33.9619C34.5418 33.9239 34.6657 33.86 34.7627 33.8369C35.0047 33.7809 35.3063 33.8099 35.5273 33.7549C35.9029 33.6608 35.9431 33.3862 36.1289 33.1523C36.2169 33.0393 36.3316 32.9286 36.3486 32.8486C36.3634 32.7777 36.3121 32.7118 36.3281 32.6279C36.3462 32.545 36.4543 32.4738 36.4883 32.3818C36.4977 32.3565 36.5046 32.3283 36.5117 32.2988Z" fill="black"/>
<path d="M25.4902 33.9453C25.5097 34.0728 25.5636 34.202 25.5654 34.3301C25.5664 34.379 25.5275 34.4159 25.5254 34.4658C25.5144 34.4624 25.5032 34.4585 25.4922 34.4551C25.4893 34.4377 25.4859 34.4206 25.4844 34.4033C25.4711 34.2293 25.4915 34.0898 25.4902 33.9453Z" fill="black"/>
<path d="M21.0059 29.4385C21.0384 29.5352 21.3028 29.5943 21.3857 29.6582C21.5266 29.7661 21.6397 29.9198 21.7686 30.0557C22.0235 30.3237 22.2217 30.6482 22.4697 30.9082C22.6007 31.0431 22.785 31.1667 22.8721 31.3076C22.9171 31.3786 22.9121 31.4633 22.9521 31.5273C23.0965 31.7492 23.7287 31.9789 24.0557 32.0889C24.2085 32.1398 24.3786 32.158 24.5186 32.2119C24.7304 32.2938 25.1533 32.5116 25.2607 32.6396C25.3567 32.7556 25.4179 33.0358 25.4639 33.2178C25.5186 33.4272 25.4808 33.593 25.4824 33.8047C25.4781 33.7762 25.4717 33.7469 25.4639 33.7168C25.4179 33.5348 25.3567 33.2546 25.2607 33.1387C25.1533 33.0106 24.7304 32.7929 24.5186 32.7109C24.3786 32.6571 24.2085 32.6388 24.0557 32.5879C23.7287 32.4779 23.0965 32.2482 22.9521 32.0264C22.9121 31.9624 22.9171 31.8776 22.8721 31.8066C22.785 31.6657 22.6007 31.5422 22.4697 31.4072C22.2217 31.1472 22.0236 30.8227 21.7686 30.5547C21.6397 30.4188 21.5266 30.2651 21.3857 30.1572C21.3027 30.0932 21.0379 30.0335 21.0059 29.9365C20.9597 29.8106 20.821 29.635 20.8428 29.5371C20.8537 29.488 20.9147 29.4429 20.9854 29.3984C20.9919 29.4126 21.001 29.4253 21.0059 29.4385Z" fill="black"/>
<path d="M37.8408 30.0869C37.8712 30.1678 37.8915 30.2444 37.8955 30.2988C37.9355 30.7988 37.3758 30.9571 37.0518 31.2881C36.9849 31.3571 36.9475 31.4685 36.8516 31.5635C36.7325 31.683 36.6052 31.7436 36.5312 31.8564C36.509 31.7867 36.4739 31.7211 36.4697 31.6543C36.4437 31.2976 36.6587 31.2581 36.8516 31.0645C36.9475 30.9695 36.9848 30.8581 37.0518 30.7891C37.3038 30.5315 37.6967 30.3775 37.8408 30.0869Z" fill="black"/>
<path d="M21.1074 28.5283C21.1736 28.5734 21.2449 28.6194 21.2451 28.6807C21.2457 28.7541 21.1065 28.8245 20.9912 28.8965C20.9394 28.7497 21.0164 28.6453 21.1074 28.5283Z" fill="black"/>
<path d="M40.8428 24.4639C40.8301 24.5348 40.7904 24.6094 40.8086 24.6729C40.8516 24.8229 41.2431 24.9973 41.4131 25.1133C41.64 25.2682 41.9362 25.3869 42.0342 25.5498C42.1162 25.6888 42.1154 25.8725 42.2744 25.9775C42.3914 26.0545 42.5873 26.1026 42.7383 26.1826C42.8782 26.2586 43.0278 26.3224 43.1777 26.4023C43.4217 26.5333 43.7928 26.7952 44.1816 26.7754C44.3846 26.7634 44.5952 26.651 44.8252 26.623C45.0858 26.5908 45.3491 26.5811 45.6113 26.5947C45.7932 26.6078 45.98 26.6827 46.1709 26.6768C46.3719 26.6658 46.604 26.57 46.833 26.5C47.0241 26.4438 47.2177 26.3965 47.4131 26.3574C47.5159 25.8966 47.5714 25.4267 47.5859 24.9551C47.5893 25.0461 47.5928 25.1379 47.5928 25.2295C47.5923 25.7766 47.5322 26.3225 47.4131 26.8564C47.2177 26.8956 47.0241 26.9428 46.833 26.999C46.604 27.069 46.3719 27.1648 46.1709 27.1758C45.98 27.1818 45.7932 27.1068 45.6113 27.0938C45.3491 27.0801 45.0858 27.0899 44.8252 27.1221C44.5952 27.1501 44.3846 27.2624 44.1816 27.2744C43.7928 27.2942 43.4217 27.0323 43.1777 26.9014C43.0278 26.8214 42.8782 26.7576 42.7383 26.6816C42.5873 26.6017 42.3914 26.5535 42.2744 26.4766C42.1154 26.3716 42.1162 26.1878 42.0342 26.0488C41.9362 25.8859 41.64 25.7672 41.4131 25.6123C41.2431 25.4963 40.8516 25.3219 40.8086 25.1719C40.7868 25.0959 40.8516 25.0048 40.8486 24.9219C40.8375 24.8022 40.7064 24.7362 40.708 24.6494C40.7103 24.5819 40.7761 24.5211 40.8428 24.4639Z" fill="black"/>
<path d="M16.5293 23.8291C16.858 23.9334 17.0673 24.2297 17.3896 24.3389C17.4896 24.3739 17.623 24.3775 17.751 24.3965C17.8549 24.4125 17.9332 24.4399 18.0332 24.4639C18.245 24.5118 18.5068 24.5047 18.6768 24.5576C18.9327 24.6356 19.1209 24.9656 19.3408 25.0537C19.3538 25.1427 19.3134 25.2611 19.3594 25.3281C19.4634 25.4248 19.6114 25.4039 19.7832 25.4658C19.9881 25.5419 20.0512 25.7388 20.2451 25.7988C20.2489 25.7999 20.2534 25.7988 20.2578 25.7998C20.4293 25.9858 20.7312 26.1641 20.9668 26.1562C21.3478 26.1532 21.5712 25.8962 22.0312 26.0322C22.0674 26.0429 22.1036 26.0613 22.1406 26.082C22.1941 26.1357 22.2522 26.1896 22.2734 26.249C22.3146 26.3628 22.3107 26.6263 22.29 26.8203C22.2853 26.7925 22.2806 26.7679 22.2734 26.748C22.2384 26.65 22.1027 26.5676 22.0527 26.4746C21.961 26.3088 21.9378 26.1201 21.6895 26.1309C21.5355 26.1329 21.4291 26.2492 21.3291 26.3232C21.3052 26.4212 21.3168 26.5266 21.167 26.5566C20.939 26.6026 20.851 26.3919 20.585 26.3379C20.479 26.3159 20.3122 26.3178 20.2451 26.2979C20.0512 26.2379 19.9881 26.0409 19.7832 25.9648C19.6114 25.9029 19.4634 25.9238 19.3594 25.8271C19.3134 25.7601 19.3538 25.6417 19.3408 25.5527C19.1209 25.4646 18.9327 25.1346 18.6768 25.0566C18.5068 25.0038 18.245 25.0108 18.0332 24.9629C17.9332 24.9389 17.855 24.9105 17.751 24.8945C17.623 24.8755 17.4896 24.8729 17.3896 24.8379C17.0468 24.7218 16.8327 24.3906 16.4658 24.3076C16.4327 24.5533 16.4155 24.8002 16.4072 25.0469C16.4052 25.002 16.4055 24.957 16.4043 24.9121C16.4198 24.5464 16.4616 24.1851 16.5293 23.8291Z" fill="black"/>
<path d="M16.4023 24.9424C16.4038 24.9863 16.404 25.0303 16.4062 25.0742C16.4047 25.1258 16.4008 25.1779 16.4004 25.2295C16.4013 25.6807 16.4437 26.1315 16.5273 26.5791C16.4432 26.1341 16.3998 25.6823 16.3975 25.2295C16.3975 25.1337 16.3987 25.0376 16.4023 24.9424Z" fill="black"/>
<path d="M24.5264 25.3203C24.5741 25.3247 24.6064 25.351 24.623 25.3838C24.5833 25.4321 24.4946 25.4785 24.5107 25.5352C24.3802 25.5271 24.3226 25.3731 24.459 25.3301C24.484 25.3181 24.5064 25.3184 24.5264 25.3184V25.3203Z" fill="black"/>
<path d="M20.2744 24.4756C20.3611 24.5289 20.4266 24.5954 20.4248 24.6699C20.4228 24.7948 20.2868 24.8768 20.2646 25.0137C20.2552 25.0843 20.2287 25.1612 20.2021 25.2373C20.1489 25.1656 20.1185 25.0957 20.123 25.0371C20.126 24.8981 20.2416 24.6866 20.2646 24.5146C20.2668 24.5011 20.2702 24.4881 20.2744 24.4756Z" fill="black"/>
<path fill-rule="evenodd" clip-rule="evenodd" d="M31.9941 13.5205C36.4141 13.5205 40.42 14.7594 43.334 16.7773C46.2479 18.7943 48.0781 21.6075 48.0781 24.7305C48.0781 24.8081 48.0755 24.8856 48.0732 24.9629C47.9725 21.9465 46.1649 19.2359 43.334 17.2764C41.4739 15.9882 39.1684 15.0197 36.5947 14.4863C36.5658 14.4802 36.5369 14.4738 36.5078 14.4678C36.5336 14.4731 36.5592 14.479 36.585 14.4844C35.5733 14.2752 34.5204 14.1333 33.4365 14.0664C33.4331 14.0635 33.4304 14.0592 33.4268 14.0566C33.9193 14.0873 34.4096 14.1338 34.8955 14.1963C33.9558 14.0736 32.9869 14.0068 31.9941 14.0068C30.339 14.0068 28.7446 14.1856 27.249 14.5146C24.7341 15.0541 22.4815 16.0124 20.6562 17.2764C17.8201 19.2395 16.0106 21.9563 15.916 24.9795C15.9134 24.8967 15.9121 24.8137 15.9121 24.7305C15.9121 21.6075 17.7422 18.7943 20.6562 16.7773C23.5702 14.7593 27.5741 13.5205 31.9941 13.5205Z" fill="black"/>
<path d="M19.1582 22.9111C19.264 22.9711 19.3137 23.08 19.2998 23.1719C19.2888 23.2419 19.1936 23.3053 19.1396 23.4053C19.0958 23.4932 19.083 23.5961 19.0391 23.667C18.9887 23.7442 18.8868 23.8056 18.8271 23.875C18.7556 23.8678 18.6852 23.8577 18.6172 23.8389C18.5352 23.7459 18.7138 23.6818 18.7588 23.5908C18.7857 23.5408 18.7689 23.472 18.7969 23.416C18.8439 23.328 18.9791 23.26 19.0391 23.168C19.082 23.0986 19.0951 22.9987 19.1367 22.9121C19.1438 22.9119 19.1511 22.9114 19.1582 22.9111Z" fill="black"/>
<path d="M41.0615 22.6992C41.0863 22.7205 41.1045 22.7449 41.1084 22.7754C41.1111 22.8421 41.0439 22.8822 41.0479 22.9541C41.0509 23.06 41.1569 23.1339 41.1689 23.2139C41.1905 23.3612 41.1281 23.4455 41.0703 23.5332C41.0581 23.5083 41.0487 23.4821 41.0479 23.4531C41.0439 23.3813 41.1111 23.3412 41.1084 23.2744C41.0934 23.1574 40.8717 23.135 40.8477 23.001C40.8305 22.8958 40.9481 22.8051 41.0615 22.6992Z" fill="black"/>
<path d="M20.3242 20.1689C20.517 20.185 20.6539 20.3249 20.8037 20.333C20.9307 20.345 21.044 20.2516 21.166 20.2666C21.2839 20.2796 21.4874 20.4546 21.5078 20.5547C21.5328 20.6776 21.3741 20.7889 21.4248 20.9248C21.6148 21.0568 21.9605 21.0842 22.2305 21.1602L22.2324 21.1582C22.2306 21.1818 22.2293 21.2064 22.2305 21.2314C22.2547 21.3753 22.4058 21.5593 22.2305 21.6592C21.9605 21.5832 21.6148 21.5558 21.4248 21.4238C21.3741 21.2879 21.5328 21.1766 21.5078 21.0537C21.4874 20.9537 21.2839 20.7786 21.166 20.7656C21.044 20.7506 20.9307 20.844 20.8037 20.832C20.6539 20.8239 20.517 20.684 20.3242 20.668C20.0412 20.646 19.8316 20.7136 19.5186 20.6836C19.2158 20.7936 19.1287 20.9916 18.7568 20.9736C18.6269 20.9666 18.5035 20.898 18.3525 20.875C18.1684 20.8479 17.9828 20.8307 17.7969 20.8232C17.2885 21.5983 16.9186 22.412 16.6904 23.2461C16.6812 23.2466 16.6722 23.2479 16.6631 23.248C16.9421 22.2236 17.4342 21.249 18.1084 20.3467C18.19 20.3548 18.2714 20.364 18.3525 20.376C18.5035 20.399 18.6269 20.4676 18.7568 20.4746C19.1287 20.4926 19.2158 20.2946 19.5186 20.1846C19.8316 20.2146 20.0412 20.1469 20.3242 20.1689Z" fill="black"/>
<path d="M24.7832 18.7744C24.7879 18.9441 24.8623 19.159 24.7607 19.3232C24.5238 19.4552 24.2629 19.5471 23.959 19.665C23.79 19.729 23.6386 19.7454 23.4346 19.8154C23.2908 19.8655 23.1618 19.9828 22.9951 20.0508C22.7055 20.168 22.3682 20.2999 22.2227 20.5264C22.2016 20.4383 22.1514 20.3561 22.1504 20.2793C22.1474 19.8883 22.6121 19.7068 22.9951 19.5518C23.1618 19.4838 23.2908 19.3665 23.4346 19.3164C23.6386 19.2464 23.79 19.23 23.959 19.166C24.2629 19.0481 24.5238 18.9561 24.7607 18.8242C24.7705 18.8084 24.7765 18.791 24.7832 18.7744Z" fill="black"/>
<path d="M44.0225 18.4092C44.2293 18.5811 44.4273 18.7595 44.6182 18.9404C44.4442 18.9484 44.2306 19.0066 44.1426 18.8906C44.1112 18.8474 44.1555 18.7481 44.1426 18.7002C44.1196 18.6104 44.0134 18.5463 44.001 18.4795C43.999 18.4575 44.0115 18.4322 44.0225 18.4092Z" fill="black"/>
<path d="M29.4238 16.4434C29.3615 16.5899 29.0744 16.5391 29.1221 16.7188C29.19 16.9665 29.6733 16.6458 29.8018 16.6094C29.8678 16.5905 29.9469 16.5727 30.0332 16.5566C30.0856 16.6326 30.2008 16.7102 30.2891 16.7197C30.4 16.7327 30.4603 16.655 30.5693 16.666C30.6819 16.6752 30.6572 16.766 30.791 16.75C30.9839 16.694 31.0909 16.5039 31.3115 16.5156C31.5775 16.7356 31.072 16.846 30.791 16.916C30.469 16.996 30.0468 17.0384 29.8018 17.1084C29.6733 17.1448 29.19 17.4656 29.1221 17.2178C29.0744 17.0382 29.3615 17.0889 29.4238 16.9424C29.1129 16.9004 28.822 17.0344 28.5391 17.1084C28.1352 17.2124 27.4538 17.2801 27.3555 17.5898C27.3345 17.6518 27.3926 17.7674 27.334 17.8096C27.286 17.8426 26.9972 17.847 26.8711 17.877C26.6771 17.923 26.5086 18.019 26.3906 18.041C26.2998 18.0589 26.1665 18.0564 26.1094 18.0713C25.9494 18.1133 25.889 18.2604 25.707 18.3584C25.6321 18.3983 25.4684 18.4308 25.4072 18.4707C25.3042 18.5417 25.2865 18.7181 25.1025 18.7451C24.9929 18.7516 24.9015 18.6948 24.7988 18.7275C24.8381 18.5663 24.7731 18.3794 24.7812 18.2344C24.8911 18.1885 24.9868 18.2529 25.1025 18.2461C25.2865 18.2191 25.3042 18.0427 25.4072 17.9717C25.4684 17.9318 25.6321 17.8993 25.707 17.8594C25.889 17.7614 25.9494 17.6143 26.1094 17.5723C26.1665 17.5574 26.2998 17.5599 26.3906 17.542C26.5086 17.52 26.6771 17.4239 26.8711 17.3779C26.9972 17.348 27.286 17.3435 27.334 17.3105C27.3926 17.2684 27.3345 17.1527 27.3555 17.0908C27.4538 16.7811 28.1352 16.7133 28.5391 16.6094C28.822 16.5354 29.1129 16.4014 29.4238 16.4434Z" fill="black"/>
<path d="M23.5156 17.1406C23.5194 17.202 23.5452 17.2633 23.5869 17.3086C23.4329 17.3421 23.1808 17.3785 23.1553 17.2646C23.1237 17.1221 23.3756 17.1515 23.5156 17.1406Z" fill="black"/>
<path d="M22.3135 16.8291C22.2813 16.8825 22.2557 16.9408 22.2334 17.0029C22.2074 17.0769 21.9232 17.2708 21.7871 17.252C21.7288 17.2437 21.6947 17.2234 21.6787 17.1953C21.8856 17.0696 22.097 16.9473 22.3135 16.8291Z" fill="black"/>
<path d="M24.2988 17.0742C24.2006 17.1299 24.0977 17.1715 23.9756 17.21C24.0269 17.1544 24.0827 17.0981 24.1465 17.0557C24.1964 17.0602 24.2472 17.0669 24.2988 17.0742Z" fill="black"/>
<path d="M25.3906 16.7158C25.4712 16.7102 25.5524 16.7237 25.627 16.7549C25.562 16.9368 24.9896 16.8892 24.7803 16.8223C24.7923 16.7553 24.951 16.7355 25.082 16.7275C25.1749 16.7275 25.2887 16.7109 25.3906 16.7139V16.7158Z" fill="black"/>
<path d="M23.918 16.1768V16.1787C24.012 16.1907 24.1272 16.2567 24.2412 16.2637C24.3471 16.2636 24.434 16.2244 24.501 16.2344C24.6679 16.2644 24.739 16.4365 24.5811 16.5215C24.4491 16.5335 24.4008 16.4841 24.3008 16.4961C24.1689 16.5117 24.0751 16.6039 23.9912 16.6943C23.9658 16.6865 23.9411 16.6807 23.918 16.6777V16.6758H23.916C23.7674 16.6674 23.6172 16.7176 23.5508 16.7646C23.49 16.6601 23.4954 16.5126 23.6182 16.4531C23.6267 16.3938 23.5779 16.3697 23.5518 16.3311C23.5495 16.3257 23.5458 16.3209 23.543 16.3154C23.5379 16.3039 23.5349 16.291 23.5361 16.2754C23.5931 16.2254 23.756 16.1678 23.916 16.1768H23.918Z" fill="black"/>
<path d="M32.6562 15.7959C32.7531 15.8079 32.8757 15.825 32.9775 15.835C33.0975 15.851 33.2244 15.8483 33.3184 15.8633C33.487 15.8924 33.5343 16.0127 33.7012 16.0127C33.8074 16.0127 33.872 15.982 33.9033 15.9375C33.9237 16.009 33.8634 16.0727 33.8223 16.1816C33.9782 16.3086 33.976 16.5116 33.7012 16.5117C33.5343 16.5117 33.487 16.3914 33.3184 16.3623C33.2244 16.3473 33.0975 16.35 32.9775 16.334C32.8757 16.324 32.7531 16.3069 32.6562 16.2949C32.4083 16.2749 32.1421 16.3246 31.9961 16.2266C32.1591 16.0786 32.3588 15.9321 32.5664 15.7939C32.5963 15.7947 32.6266 15.7935 32.6562 15.7959Z" fill="black"/>
<path d="M30.0137 15.8984C30.198 15.8889 30.3713 15.8815 30.4268 16.0059C30.3698 16.0764 30.2811 16.1342 30.1992 16.1934C30.1084 16.1505 30.0186 16.0674 30.0059 16.001C29.9986 15.9633 30.0033 15.9298 30.0137 15.8984Z" fill="black"/>
<path d="M32.5557 14.9717C32.7176 14.9097 32.9287 14.8014 33.0986 14.9043C33.1444 15.0181 32.9504 15.0535 32.8594 15.1084C32.6017 15.2662 32.3379 15.444 32.1182 15.625C32.0773 15.6347 32.0366 15.6434 31.9961 15.6475C31.6641 15.6805 31.2241 15.5822 30.9531 15.7041C30.9152 15.807 31.2596 15.768 31.2129 15.9238C31.0799 15.9378 30.9526 15.9458 30.8506 15.8809C30.7551 15.8229 30.8088 15.7401 30.75 15.7041C30.6763 15.6576 30.4568 15.6389 30.2744 15.6396C30.3319 15.5983 30.3872 15.5559 30.4268 15.5068C30.3346 15.3002 29.917 15.4618 29.6641 15.3818C29.6892 15.2589 29.8751 15.1744 30.0859 15.1504C30.2589 15.1294 30.647 15.1401 30.75 15.2051C30.8089 15.241 30.7551 15.3239 30.8506 15.3818C30.9526 15.4468 31.0799 15.4388 31.2129 15.4248C31.2596 15.269 30.9152 15.308 30.9531 15.2051C31.2241 15.0831 31.6641 15.1814 31.9961 15.1484C32.187 15.1294 32.3857 15.0367 32.5557 14.9717Z" fill="black"/>
<path d="M37.5234 15.2041C38.0373 15.3381 38.5376 15.4912 39.0234 15.6611C38.5356 15.4909 38.0346 15.3383 37.5234 15.2041Z" fill="black"/>
<path d="M33.5859 14.7451C33.6822 14.8186 33.7859 14.8288 33.7998 14.9199C33.8295 15.106 33.624 15.1592 33.5479 15.2998C33.4152 15.2917 33.2948 15.2795 33.2832 15.1748C33.2694 15.0382 33.4483 15.0448 33.5205 14.9434C33.5096 14.8561 33.5413 14.7956 33.5859 14.7451Z" fill="black"/>
<path d="M36.5078 14.9668C36.7925 15.0254 37.0736 15.0892 37.3506 15.1592C37.0723 15.0896 36.7913 15.0254 36.5078 14.9668Z" fill="black"/>
<path d="M33.7578 14.5762C34.1415 14.6065 34.5208 14.6464 34.8955 14.6953C34.5173 14.6467 34.1364 14.6095 33.7539 14.5801C33.7551 14.5786 33.7567 14.5776 33.7578 14.5762Z" fill="black"/>
<path d="M30.6504 14.0615C30.6387 14.0622 30.6269 14.0628 30.6152 14.0635C30.6283 14.0626 30.6413 14.0614 30.6543 14.0605C30.653 14.0606 30.6517 14.0614 30.6504 14.0615Z" fill="black"/>
<path d="M32 14.0166C31.877 14.0166 31.7558 14.0214 31.6348 14.0234C31.7567 14.0181 31.8789 14.0131 32.001 14.0098L32 14.0166Z" fill="black"/>
</g>
</g>
<defs>
<filter id="filter0_f_53_155" x="0.559594" y="4.56239" width="62.8808" height="60.3035" filterUnits="userSpaceOnUse" color-interpolation-filters="sRGB">
<feFlood flood-opacity="0" result="BackgroundImageFix"/>
<feBlend mode="normal" in="SourceGraphic" in2="BackgroundImageFix" result="shape"/>
<feGaussianBlur stdDeviation="1.40013" result="effect1_foregroundBlur_53_155"/>
</filter>
<linearGradient id="paint0_linear_53_155" x1="34.6517" y1="43.9972" x2="34.6517" y2="6.66458" gradientUnits="userSpaceOnUse">
<stop stop-color="#B6B9BF"/>
<stop offset="1" stop-color="#DDDFE2"/>
</linearGradient>
<linearGradient id="paint1_linear_53_155" x1="4.05692" y1="53.3304" x2="59.9257" y2="53.3304" gradientUnits="userSpaceOnUse">
<stop stop-color="#27272A"/>
<stop offset="0.25" stop-color="#3F3F46"/>
<stop offset="0.752" stop-color="#3F3F46"/>
<stop offset="1" stop-color="#27272A"/>
</linearGradient>
<linearGradient id="paint2_linear_53_155" x1="24.9818" y1="54.9792" x2="24.9818" y2="51.9739" gradientUnits="userSpaceOnUse">
<stop stop-color="#00A63E"/>
<stop offset="1" stop-color="#00C950"/>
</linearGradient>
<linearGradient id="paint3_linear_53_155" x1="52.0768" y1="55.6719" x2="52.0768" y2="50.3204" gradientUnits="userSpaceOnUse">
<stop stop-color="#040404"/>
<stop offset="1" stop-color="#121212" stop-opacity="0.908"/>
</linearGradient>
<clipPath id="clip0_53_155">
<rect width="64" height="64" fill="white"/>
</clipPath>
</defs>
</svg>
