<svg width="64" height="64" viewBox="0 0 64 64" fill="none" xmlns="http://www.w3.org/2000/svg">
<g id="user-identity">
<path id="Vector" d="M62 32C62 15.4315 48.5685 2 32 2C15.4315 2 2 15.4315 2 32C2 48.5685 15.4315 62 32 62C48.5685 62 62 48.5685 62 32Z" fill="#60C0F0"/>
<path id="Vector_2" d="M48.364 46.897C48.364 41.5375 39.2703 38.8049 35.642 37.8335C35.642 37.8335 35.7932 34.8249 36.1447 33.7251C36.4925 32.6215 36.5454 31.3704 36.6928 31.0189C36.844 30.6712 38.6166 29.0648 38.7149 27.5643C38.6922 26.6685 38.5146 26.4569 38.0723 26.4569V21.7967C38.0723 19.2833 34.4061 17.0873 31.9985 17.0873C29.5947 17.0873 25.9285 19.2832 25.9285 21.7967V26.4569C25.4863 26.4569 25.3087 26.6686 25.286 27.5643C25.3843 29.0648 27.1569 30.6711 27.3081 31.0189C27.4593 31.3704 27.5047 32.6215 27.8562 33.7251C28.2077 34.825 28.3588 37.8297 28.3588 37.8297C24.7304 38.8048 15.6368 41.5375 15.6368 46.897H48.364Z" fill="white"/>
</g>
</svg>
