<?xml version="1.0" encoding="UTF-8" standalone="no"?>
<svg xmlns:dc="http://purl.org/dc/elements/1.1/" xmlns:cc="http://creativecommons.org/ns#" xmlns:rdf="http://www.w3.org/1999/02/22-rdf-syntax-ns#" xmlns:svg="http://www.w3.org/2000/svg" xmlns="http://www.w3.org/2000/svg" xmlns:sodipodi="http://sodipodi.sourceforge.net/DTD/sodipodi-0.dtd" xmlns:inkscape="http://www.inkscape.org/namespaces/inkscape" version="1.1" viewBox="0 0 64 64" id="svg35" sodipodi:docname="preferences-desktop-text-to-speech.svg" width="64" height="64" inkscape:version="1.0.2 (e86c870879, 2021-01-15)">
  <metadata id="metadata39">
    <rdf:RDF>
      <cc:Work rdf:about="">
        <dc:format>image/svg+xml</dc:format>
        <dc:type rdf:resource="http://purl.org/dc/dcmitype/StillImage"/>
        <dc:title/>
      </cc:Work>
    </rdf:RDF>
  </metadata>
  <defs id="defs7">
    <linearGradient id="linearGradient840" x2="0" y1="47" y2="1" gradientUnits="userSpaceOnUse">
      <stop style="stop-color:#3a568e" offset="0" id="stop2"/>
      <stop style="stop-color:#405f9b" offset="1" id="stop4"/>
    </linearGradient>
    <linearGradient id="linearGradient3764" x1="1" x2="47" gradientUnits="userSpaceOnUse" gradientTransform="rotate(-90,23.999998,24)">
      <stop style="stop-color:#43cd50;stop-opacity:1" id="stop2-6"/>
      <stop offset="1" style="stop-color:#54d160;stop-opacity:1" id="stop4-7"/>
    </linearGradient>
    
    
    
    
    <filter id="filter1057" x="-0.027000001" y="-0.027000001" width="1.054" height="1.054" color-interpolation-filters="sRGB">
      <feGaussianBlur stdDeviation="0.61875" id="feGaussianBlur884"/>
    </filter>
    <linearGradient id="linearGradient1053" x1="-127" x2="-72" y1="60" y2="5" gradientTransform="translate(131.5,-0.51)" gradientUnits="userSpaceOnUse">
      <stop stop-color="#02db96" offset="0" id="stop887"/>
      <stop stop-color="#13d39b" offset="1" id="stop889"/>
    </linearGradient>
    
    
    
  <radialGradient xmlns="http://www.w3.org/2000/svg" id="gradient_ds_br" cx="0" cy="0" r="1" gradientUnits="userSpaceOnUse" gradientTransform="matrix(13.998399,0.00477622,-0.00477841,14.004799,47.5016,48.4952)">
      <stop offset="0.65" id="stop1"/>
      <stop offset="1" stop-opacity="0" id="stop2"/>
    </radialGradient><linearGradient xmlns="http://www.w3.org/2000/svg" id="gradient_ds_b" x1="30.448999" y1="48.5" x2="30.492201" y2="62.500301" gradientUnits="userSpaceOnUse">
      <stop offset="0.653846" id="stop3"/>
      <stop offset="1" stop-opacity="0" id="stop4"/>
    </linearGradient><radialGradient xmlns="http://www.w3.org/2000/svg" id="gradient_ds_bl" cx="0" cy="0" r="1" gradientUnits="userSpaceOnUse" gradientTransform="matrix(0,14,-14,0,16.5,48.5)">
      <stop offset="0.65" id="stop5"/>
      <stop offset="1" stop-opacity="0" id="stop6"/>
    </radialGradient><linearGradient xmlns="http://www.w3.org/2000/svg" id="gradient_ds_r" x1="47.5" y1="33.5" x2="61.5" y2="33.5009" gradientUnits="userSpaceOnUse">
      <stop offset="0.649038" id="stop7"/>
      <stop offset="1" stop-opacity="0" id="stop8"/>
    </linearGradient><linearGradient xmlns="http://www.w3.org/2000/svg" id="gradient_ds_l" x1="16.5" y1="33.894699" x2="2.5" y2="33.894699" gradientUnits="userSpaceOnUse">
      <stop offset="0.649038" id="stop9"/>
      <stop offset="1" stop-opacity="0" id="stop10"/>
    </linearGradient><radialGradient xmlns="http://www.w3.org/2000/svg" id="gradient_ds_tr" cx="0" cy="0" r="1" gradientTransform="matrix(0.00843236,-14,14.0084,0.0189842,47.4916,18.5)" gradientUnits="userSpaceOnUse">
      <stop offset="0.65" id="stop11"/>
      <stop offset="1" stop-opacity="0" id="stop12"/>
    </radialGradient><linearGradient xmlns="http://www.w3.org/2000/svg" id="gradient_ds_t" x1="29.98" y1="18.5" x2="29.9158" y2="4.4998598" gradientUnits="userSpaceOnUse">
      <stop offset="0.649038" id="stop13"/>
      <stop offset="1" stop-opacity="0" id="stop14"/>
    </linearGradient><radialGradient xmlns="http://www.w3.org/2000/svg" id="gradient_ds_tl" cx="0" cy="0" r="1" gradientTransform="matrix(-0.00843236,-14,-14.0084,0.0189842,16.5084,18.5)" gradientUnits="userSpaceOnUse">
      <stop offset="0.65" id="stop15"/>
      <stop offset="1" stop-opacity="0" id="stop16"/>
    </radialGradient></defs>
  
  <g xmlns="http://www.w3.org/2000/svg" id="ds" opacity="0.25">
    <path id="ds-br" d="m 47.5,48.5 h 14 v 14 h -14 z" fill="url(#gradient_ds_br)" style="fill:url(#gradient_ds_br)"/>
    <path id="ds-b" d="m 16.5,48.5 h 31 v 14 h -31 z" fill="url(#gradient_ds_b)" style="fill:url(#gradient_ds_b)"/>
    <path id="ds-bl" d="m 2.5,48.5 h 14 v 14 h -14 z" fill="url(#gradient_ds_bl)" style="fill:url(#gradient_ds_bl)"/>
    <path id="ds-r" d="m 47.5,18.5 h 14 v 30 h -14 z" fill="url(#gradient_ds_r)" style="fill:url(#gradient_ds_r)"/>
    <path id="ds-l" d="m 2.5,18.5 h 14 v 30 h -14 z" fill="url(#gradient_ds_l)" style="fill:url(#gradient_ds_l)"/>
    <path id="ds-tr" d="m 47.5,4.5 h 14 v 14 h -14 z" fill="url(#gradient_ds_tr)" style="fill:url(#gradient_ds_tr)"/>
    <path id="ds-t" d="m 16.5,4.5 h 31 v 14 h -31 z" fill="url(#gradient_ds_t)" style="fill:url(#gradient_ds_t)"/>
    <path id="ds-tl" d="m 16.5,4.5 h -14 v 14 h 14 z" fill="url(#gradient_ds_tl)" style="fill:url(#gradient_ds_tl)"/>
  </g><rect x="4.5" y="4.5" width="55" height="55" fill="url(#linearGradient1053)" stroke-linecap="round" stroke-width="2.7444" id="bg" style="fill:url(#linearGradient1053)" rx="10"/>
  <g id="art" transform="matrix(1.7391304,0,0,1.7391304,1.8951216,-16.603907)">
    <path d="m 17.31022,32.370063 c 1.216402,0 2.257554,-0.43312 3.123625,-1.299022 0.866071,-0.865901 1.299191,-1.907392 1.299191,-3.123794 v -7.076844 c 0,-1.216402 -0.432781,-2.257554 -1.299191,-3.123794 -0.866071,-0.866072 -1.907223,-1.299362 -3.123625,-1.299362 -1.216401,0 -2.257553,0.43329 -3.123794,1.299362 -0.86624,0.866071 -1.299361,1.907392 -1.299361,3.123794 v 7.076844 c 0,1.216402 0.43329,2.257893 1.299361,3.123794 0.866072,0.865902 1.907393,1.299022 3.123794,1.299022 z" fill="#ffffff" fill-opacity="0.85" id="path971" style="stroke-width:0.223502"/>
    <path d="m 25.009008,25.556009 c -0.174741,-0.175081 -0.382395,-0.262621 -0.621943,-0.262621 -0.239548,0 -0.446862,0.08754 -0.621942,0.262621 -0.175081,0.17508 -0.262621,0.382394 -0.262621,0.621942 v 1.769296 c 0,1.704829 -0.605995,3.162814 -1.817647,4.374635 -1.211481,1.211821 -2.669806,1.817647 -4.374635,1.817647 -1.704828,0 -3.162983,-0.605826 -4.374804,-1.817647 -1.211651,-1.211481 -1.817477,-2.669806 -1.817477,-4.374635 v -1.769296 c 0,-0.239548 -0.08754,-0.446862 -0.262621,-0.621942 -0.17508,-0.175081 -0.382225,-0.262621 -0.621942,-0.262621 -0.2397179,0 -0.4470321,0.08754 -0.6221125,0.262621 -0.1750804,0.17508 -0.2626206,0.382394 -0.2626206,0.621942 v 1.769296 c 0,2.036498 0.6796241,3.807999 2.0387031,5.314505 1.359078,1.506506 3.038459,2.370371 5.038142,2.591427 v 1.824772 h -3.538423 c -0.239548,0 -0.446862,0.08754 -0.621942,0.262621 -0.175081,0.17508 -0.262621,0.382395 -0.262621,0.621943 0,0.239378 0.08754,0.447031 0.262621,0.621942 0.17508,0.175081 0.382394,0.26279 0.621942,0.26279 h 8.845971 c 0.239548,0 0.447202,-0.08771 0.621943,-0.26279 0.17525,-0.174911 0.26296,-0.382564 0.26296,-0.621942 0,-0.239548 -0.08771,-0.446863 -0.26296,-0.621943 -0.174741,-0.17508 -0.382395,-0.262621 -0.621943,-0.262621 h -3.538083 v -1.824772 c 1.999344,-0.221056 3.678724,-1.084921 5.037973,-2.591427 1.359248,-1.506506 2.039042,-3.278007 2.039042,-5.314505 v -1.769296 c 0,-0.239548 -0.08771,-0.446692 -0.26296,-0.621942 z" fill="#ffffff" fill-opacity="0.85" id="path973" style="stroke-width:0.223502"/>
  </g>
</svg>
