<?xml version="1.0" encoding="UTF-8" standalone="no"?>
<svg xmlns:inkscape="http://www.inkscape.org/namespaces/inkscape" xmlns:sodipodi="http://sodipodi.sourceforge.net/DTD/sodipodi-0.dtd" xmlns:xlink="http://www.w3.org/1999/xlink" xmlns="http://www.w3.org/2000/svg" xmlns:svg="http://www.w3.org/2000/svg" width="64" height="64" version="1.1" viewBox="0 0 64 64" id="svg745" sodipodi:docname="preferences-system-network-ethernet.svg" inkscape:version="1.4.2 (ebf0e940d0, 2025-05-08)">
  <defs id="defs749">
    <linearGradient id="linearGradient5781" x1="19.332001" x2="33.837002" y1="-82.949997" y2="-72.093002" gradientTransform="translate(-16.969,87.135)" gradientUnits="userSpaceOnUse">
      <stop stop-color="#23b4ff" offset="0" id="stop5777" style="stop-color:#3b3b3b;stop-opacity:1"/>
      <stop stop-color="#057ed6" offset="1" id="stop5779" style="stop-color:#181818;stop-opacity:1"/>
    </linearGradient>
    <linearGradient id="linearGradient1635" x1="19.332001" x2="33.837002" y1="-82.949997" y2="-72.093002" gradientTransform="translate(-16.969,87.135)" gradientUnits="userSpaceOnUse">
      <stop stop-color="#23b4ff" offset="0" id="stop1631" style="stop-color:#3a3a3a;stop-opacity:1"/>
      <stop stop-color="#057ed6" offset="1" id="stop1633" style="stop-color:#161616;stop-opacity:1"/>
    </linearGradient>
    <radialGradient id="radialGradient4437" cx="8.4665003" cy="10.191" r="7.9375" gradientTransform="matrix(0.91670279,0,0,0.7028177,0.705736,2.8646856)" gradientUnits="userSpaceOnUse" xlink:href="#linearGradient1635"/>
    <linearGradient id="linearGradient4461" x1="19.332001" x2="33.837002" y1="-82.949997" y2="-72.093002" gradientTransform="translate(-16.969,87.135)" gradientUnits="userSpaceOnUse">
      <stop stop-color="#23b4ff" offset="0" id="stop912" style="stop-color:#3b3b3b;stop-opacity:1"/>
      <stop stop-color="#057ed6" offset="1" id="stop914" style="stop-color:#161616;stop-opacity:1"/>
    </linearGradient>
    <radialGradient id="radialGradient4445" cx="8.4665003" cy="2.9338" r="6.6145" gradientTransform="matrix(0.91670279,0,0,0.07842942,0.705736,3.1441883)" gradientUnits="userSpaceOnUse" xlink:href="#linearGradient5781"/>
    <radialGradient id="radialGradient4447" cx="8.4678001" cy="1.2688" r="4.7252002" gradientTransform="matrix(0.91670279,0,0,0.11003184,0.705736,1.7083567)" gradientUnits="userSpaceOnUse" xlink:href="#linearGradient4461"/>
    <filter id="filter1057" x="-0.026999999" y="-0.026999999" width="1.054" height="1.054" color-interpolation-filters="sRGB">
      <feGaussianBlur stdDeviation="0.61875" id="feGaussianBlur521"/>
    </filter>
    <linearGradient id="linearGradient1053" x1="-127" x2="-72" y1="60" y2="5" gradientTransform="matrix(0.26459375,0,0,0.26459375,12.460693,-4.1526955)" gradientUnits="userSpaceOnUse">
      <stop stop-color="#2e55e7" offset="0" id="stop524"/>
      <stop stop-color="#0d7eef" offset="1" id="stop526"/>
    </linearGradient>
    <filter id="filter1057-2" x="-0.026999999" y="-0.026999999" width="1.054" height="1.054" color-interpolation-filters="sRGB">
      <feGaussianBlur stdDeviation="0.61875" id="feGaussianBlur5431"/>
    </filter>
    <linearGradient id="linearGradient1053-0" x1="-127" x2="-72" y1="60" y2="5" gradientTransform="translate(131.5,-0.51000105)" gradientUnits="userSpaceOnUse">
      <stop stop-color="#1d2123" offset="0" id="stop5434"/>
      <stop stop-color="#33393e" stop-opacity=".99608" offset="1" id="stop5436"/>
    </linearGradient>
    <filter id="filter1057-2-7" x="-0.026999999" y="-0.026999999" width="1.054" height="1.054" color-interpolation-filters="sRGB">
      <feGaussianBlur stdDeviation="0.61875" id="feGaussianBlur5431-5"/>
    </filter>
  <radialGradient id="gradient_ds_br" cx="0" cy="0" r="1" gradientUnits="userSpaceOnUse" gradientTransform="matrix(13.998399,0.00477622,-0.00477841,14.004799,47.5016,48.4952)">
      <stop offset="0.65" id="stop1"/>
      <stop offset="1" stop-opacity="0" id="stop2"/>
    </radialGradient><linearGradient id="gradient_ds_b" x1="30.448999" y1="48.5" x2="30.492201" y2="62.500301" gradientUnits="userSpaceOnUse">
      <stop offset="0.653846" id="stop3"/>
      <stop offset="1" stop-opacity="0" id="stop4"/>
    </linearGradient><radialGradient id="gradient_ds_bl" cx="0" cy="0" r="1" gradientUnits="userSpaceOnUse" gradientTransform="matrix(0,14,-14,0,16.5,48.5)">
      <stop offset="0.65" id="stop5"/>
      <stop offset="1" stop-opacity="0" id="stop6"/>
    </radialGradient><linearGradient id="gradient_ds_r" x1="47.5" y1="33.5" x2="61.5" y2="33.5009" gradientUnits="userSpaceOnUse">
      <stop offset="0.649038" id="stop7"/>
      <stop offset="1" stop-opacity="0" id="stop8"/>
    </linearGradient><linearGradient id="gradient_ds_l" x1="16.5" y1="33.894699" x2="2.5" y2="33.894699" gradientUnits="userSpaceOnUse">
      <stop offset="0.649038" id="stop9"/>
      <stop offset="1" stop-opacity="0" id="stop10"/>
    </linearGradient><radialGradient id="gradient_ds_tr" cx="0" cy="0" r="1" gradientTransform="matrix(0.00843236,-14,14.0084,0.0189842,47.4916,18.5)" gradientUnits="userSpaceOnUse">
      <stop offset="0.65" id="stop11"/>
      <stop offset="1" stop-opacity="0" id="stop12"/>
    </radialGradient><linearGradient id="gradient_ds_t" x1="29.98" y1="18.5" x2="29.9158" y2="4.4998598" gradientUnits="userSpaceOnUse">
      <stop offset="0.649038" id="stop13"/>
      <stop offset="1" stop-opacity="0" id="stop14"/>
    </linearGradient><radialGradient id="gradient_ds_tl" cx="0" cy="0" r="1" gradientTransform="matrix(-0.00843236,-14,-14.0084,0.0189842,16.5084,18.5)" gradientUnits="userSpaceOnUse">
      <stop offset="0.65" id="stop15"/>
      <stop offset="1" stop-opacity="0" id="stop16"/>
    </radialGradient></defs>
  
  <g id="ds" opacity="0.25">
    <path id="ds-br" d="m 47.5,48.5 h 14 v 14 h -14 z" fill="url(#gradient_ds_br)" style="fill:url(#gradient_ds_br)"/>
    <path id="ds-b" d="m 16.5,48.5 h 31 v 14 h -31 z" fill="url(#gradient_ds_b)" style="fill:url(#gradient_ds_b)"/>
    <path id="ds-bl" d="m 2.5,48.5 h 14 v 14 h -14 z" fill="url(#gradient_ds_bl)" style="fill:url(#gradient_ds_bl)"/>
    <path id="ds-r" d="m 47.5,18.5 h 14 v 30 h -14 z" fill="url(#gradient_ds_r)" style="fill:url(#gradient_ds_r)"/>
    <path id="ds-l" d="m 2.5,18.5 h 14 v 30 h -14 z" fill="url(#gradient_ds_l)" style="fill:url(#gradient_ds_l)"/>
    <path id="ds-tr" d="m 47.5,4.5 h 14 v 14 h -14 z" fill="url(#gradient_ds_tr)" style="fill:url(#gradient_ds_tr)"/>
    <path id="ds-t" d="m 16.5,4.5 h 31 v 14 h -31 z" fill="url(#gradient_ds_t)" style="fill:url(#gradient_ds_t)"/>
    <path id="ds-tl" d="m 16.5,4.5 h -14 v 14 h 14 z" fill="url(#gradient_ds_tl)" style="fill:url(#gradient_ds_tl)"/>
  </g><rect x="4.5" y="4.5" width="55" height="55" fill="url(#linearGradient1053-0)" stroke-linecap="round" stroke-width="2.7444" id="bg" style="fill:url(#linearGradient1053-0)" rx="10"/>
  <g id="art" transform="matrix(1.044302,0,0,1.044302,42.250704,13.474631)" style="fill:#fffffc;fill-opacity:1">
    <path d="M 6.0597826,30.969164 H -25.691469 c -0.529188,0 -0.88198,-0.352792 -0.88198,-0.881979 V 12.447601 c 0,-0.529188 0.352792,-0.88198 0.88198,-0.88198 h 6.173854 V 8.9196835 c 0,-0.5291875 0.352792,-0.8819794 0.881979,-0.8819794 h 4.409897 V 5.3917664 c 0,-0.5291875 0.352791,-0.8819789 0.881979,-0.8819789 h 7.0558337 c 0.5291875,0 0.8819789,0.3527914 0.8819789,0.8819789 v 2.6459377 h 4.40989643 c 0.52918753,0 0.88197887,0.3527919 0.88197887,0.8819794 v 2.6459375 h 6.1738547 c 0.5291876,0 0.8819794,0.352792 0.8819794,0.88198 v 17.639584 c 0,0.529187 -0.3527918,0.881979 -0.8819794,0.881979 z M -24.80949,29.205205 H 5.1778032 V 13.329579 h -6.17385417 c -0.52918753,0 -0.88197943,-0.352791 -0.88197943,-0.881978 V 9.8016629 h -4.4098959 c -0.5291875,0 -0.8819794,-0.3527919 -0.8819794,-0.8819794 V 6.2737458 h -5.2918753 v 2.6459377 c 0,0.5291875 -0.352792,0.8819794 -0.881979,0.8819794 h -4.409896 v 2.6459381 c 0,0.529187 -0.352792,0.881978 -0.88198,0.881978 h -6.173854 z" fill="" p-id="7604" id="path6072" style="fill:#fffffc;fill-opacity:1;stroke-width:0.0516785"/>
    <path d="m -20.399594,30.969164 c -0.529188,0 -0.881979,-0.352792 -0.881979,-0.881979 v -5.291876 c 0,-0.529187 0.352791,-0.881979 0.881979,-0.881979 0.529188,0 0.881979,0.352792 0.881979,0.881979 v 5.291876 c 0,0.529187 -0.352791,0.881979 -0.881979,0.881979 z m 5.291875,0 c -0.529187,0 -0.881979,-0.352792 -0.881979,-0.881979 v -5.291876 c 0,-0.529187 0.352792,-0.881979 0.881979,-0.881979 0.529188,0 0.88198,0.352792 0.88198,0.881979 v 5.291876 c 0,0.529187 -0.352792,0.881979 -0.88198,0.881979 z m 10.583751,0 c -0.5291876,0 -0.8819794,-0.352792 -0.8819794,-0.881979 v -5.291876 c 0,-0.529187 0.3527918,-0.881979 0.8819794,-0.881979 0.5291875,0 0.8819794,0.352792 0.8819794,0.881979 v 5.291876 c 0,0.529187 -0.3527919,0.881979 -0.8819794,0.881979 z m 5.2918753,0 c -0.52918754,0 -0.8819794,-0.352792 -0.8819794,-0.881979 v -5.291876 c 0,-0.529187 0.35279186,-0.881979 0.8819794,-0.881979 0.5291875,0 0.8819794,0.352792 0.8819794,0.881979 v 5.291876 c 0,0.529187 -0.3527919,0.881979 -0.8819794,0.881979 z m -10.5837507,0 c -0.5291876,0 -0.8819796,-0.352792 -0.8819796,-0.881979 v -5.291876 c 0,-0.529187 0.352792,-0.881979 0.8819796,-0.881979 0.5291876,0 0.8819794,0.352792 0.8819794,0.881979 v 5.291876 c 0,0.529187 -0.3527918,0.881979 -0.8819794,0.881979 z" fill="" p-id="7605" id="path6074" style="fill:#fffffc;fill-opacity:1;stroke-width:0.0516785"/>
  </g>
</svg>
