<?xml version="1.0" encoding="UTF-8" standalone="no"?>
<svg
   width="64"
   height="64"
   version="1.1"
   viewBox="0 0 64 64"
   id="svg6"
   sodipodi:docname="system-software-update.svg"
   inkscape:version="1.4.3 (0d15f75042, 2025-12-25)"
   xml:space="preserve"
   xmlns:inkscape="http://www.inkscape.org/namespaces/inkscape"
   xmlns:sodipodi="http://sodipodi.sourceforge.net/DTD/sodipodi-0.dtd"
   xmlns="http://www.w3.org/2000/svg"
   xmlns:svg="http://www.w3.org/2000/svg">
  <sodipodi:namedview
   id="namedview6"
   pagecolor="#ffffff"
   bordercolor="#000000"
   borderopacity="0.25"
   inkscape:showpageshadow="2"
   inkscape:pageopacity="0.0"
   inkscape:pagecheckerboard="0"
   inkscape:deskcolor="#d1d1d1"
   inkscape:current-layer="svg6"
   showgrid="false">
    <inkscape:grid
   id="grid1"
   units="px"
   originx="0"
   originy="0"
   spacingx="0.5"
   spacingy="0.5"
   empcolor="#0099e5"
   empopacity="0.30196078"
   color="#0099e5"
   opacity="0.14901961"
   empspacing="2"
   enabled="true"
   visible="false" />
  </sodipodi:namedview>
  <defs
   id="defs3">
    <filter
   id="filter1057-1"
   x="-0.026999999"
   y="-0.026999999"
   width="1.054"
   height="1.054"
   color-interpolation-filters="sRGB">
      <feGaussianBlur
   stdDeviation="0.61875"
   id="feGaussianBlur1" />
    </filter>
    <linearGradient
   id="linearGradient980-8"
   x1="-17.007"
   x2="-2.455"
   y1="15.742"
   y2="1.1906"
   gradientTransform="matrix(3.7796,0,0,3.7796,68.783,0)"
   gradientUnits="userSpaceOnUse">
      <stop
   stop-color="#ff8228"
   offset="0"
   id="stop1" />
      <stop
   stop-color="#ff7346"
   offset=".49173"
   id="stop2" />
      <stop
   stop-color="#ff8c55"
   offset="1"
   id="stop3" />
    </linearGradient>
    <filter
   id="filter859-2"
   x="-0.19863708"
   y="-0.085965605"
   width="1.3972742"
   height="1.1719312"
   color-interpolation-filters="sRGB">
      <feGaussianBlur
   stdDeviation="0.18176567"
   id="feGaussianBlur3" />
    </filter>
    <linearGradient
   id="paint0_linear_1117_2226-3"
   x1="4.5"
   y1="59.5"
   x2="59.5"
   y2="4.5"
   gradientUnits="userSpaceOnUse">
      <stop
   offset="0"
   stop-color="#E39862"
   id="stop7-7"
   style="stop-color:#e08239;stop-opacity:1;" />
      <stop
   offset="1"
   stop-color="#E6A86F"
   id="stop8-5"
   style="stop-color:#edab76;stop-opacity:1;" />
    </linearGradient>
    <radialGradient
   id="gradient_ds_br"
   cx="0"
   cy="0"
   r="1"
   gradientUnits="userSpaceOnUse"
   gradientTransform="matrix(13.998399,0.00477622,-0.00477841,14.004799,47.5016,48.4952)">
      <stop
   offset="0.65"
   id="stop4" />
      <stop
   offset="1"
   stop-opacity="0"
   id="stop5" />
    </radialGradient>
    <linearGradient
   id="gradient_ds_b"
   x1="30.448999"
   y1="48.5"
   x2="30.492201"
   y2="62.500301"
   gradientUnits="userSpaceOnUse">
      <stop
   offset="0.653846"
   id="stop6" />
      <stop
   offset="1"
   stop-opacity="0"
   id="stop7" />
    </linearGradient>
    <radialGradient
   id="gradient_ds_bl"
   cx="0"
   cy="0"
   r="1"
   gradientUnits="userSpaceOnUse"
   gradientTransform="matrix(0,14,-14,0,16.5,48.5)">
      <stop
   offset="0.65"
   id="stop8" />
      <stop
   offset="1"
   stop-opacity="0"
   id="stop9" />
    </radialGradient>
    <linearGradient
   id="gradient_ds_r"
   x1="47.5"
   y1="33.5"
   x2="61.5"
   y2="33.5009"
   gradientUnits="userSpaceOnUse">
      <stop
   offset="0.649038"
   id="stop10" />
      <stop
   offset="1"
   stop-opacity="0"
   id="stop11" />
    </linearGradient>
    <linearGradient
   id="gradient_ds_l"
   x1="16.5"
   y1="33.894699"
   x2="2.5"
   y2="33.894699"
   gradientUnits="userSpaceOnUse">
      <stop
   offset="0.649038"
   id="stop12" />
      <stop
   offset="1"
   stop-opacity="0"
   id="stop13" />
    </linearGradient>
    <radialGradient
   id="gradient_ds_tr"
   cx="0"
   cy="0"
   r="1"
   gradientTransform="matrix(0.00843236,-14,14.0084,0.0189842,47.4916,18.5)"
   gradientUnits="userSpaceOnUse">
      <stop
   offset="0.65"
   id="stop14" />
      <stop
   offset="1"
   stop-opacity="0"
   id="stop15" />
    </radialGradient>
    <linearGradient
   id="gradient_ds_t"
   x1="29.98"
   y1="18.5"
   x2="29.9158"
   y2="4.4998598"
   gradientUnits="userSpaceOnUse">
      <stop
   offset="0.649038"
   id="stop16" />
      <stop
   offset="1"
   stop-opacity="0"
   id="stop17" />
    </linearGradient>
    <radialGradient
   id="gradient_ds_tl"
   cx="0"
   cy="0"
   r="1"
   gradientTransform="matrix(-0.00843236,-14,-14.0084,0.0189842,16.5084,18.5)"
   gradientUnits="userSpaceOnUse">
      <stop
   offset="0.65"
   id="stop18" />
      <stop
   offset="1"
   stop-opacity="0"
   id="stop19" />
    </radialGradient>
  <linearGradient
   id="paint0_linear_1117_2226-3-6"
   x1="4.5"
   y1="59.5"
   x2="59.5"
   y2="4.5"
   gradientUnits="userSpaceOnUse"><stop
     offset="0"
     stop-color="#E39862"
     id="stop7-7-0"
     style="stop-color:#c48148;stop-opacity:1;" /><stop
     offset="1"
     stop-color="#E6A86F"
     id="stop8-5-6"
     style="stop-color:#ffbe6f;stop-opacity:1;" /></linearGradient></defs>
  <g
   id="ds"
   opacity="0.25">
    <path
   id="ds-br"
   d="m 47.5,48.5 h 14 v 14 h -14 z"
   fill="url(#gradient_ds_br)"
   style="fill:url(#gradient_ds_br)" />
    <path
   id="ds-b"
   d="m 16.5,48.5 h 31 v 14 h -31 z"
   fill="url(#gradient_ds_b)"
   style="fill:url(#gradient_ds_b)" />
    <path
   id="ds-bl"
   d="m 2.5,48.5 h 14 v 14 h -14 z"
   fill="url(#gradient_ds_bl)"
   style="fill:url(#gradient_ds_bl)" />
    <path
   id="ds-r"
   d="m 47.5,18.5 h 14 v 30 h -14 z"
   fill="url(#gradient_ds_r)"
   style="fill:url(#gradient_ds_r)" />
    <path
   id="ds-l"
   d="m 2.5,18.5 h 14 v 30 h -14 z"
   fill="url(#gradient_ds_l)"
   style="fill:url(#gradient_ds_l)" />
    <path
   id="ds-tr"
   d="m 47.5,4.5 h 14 v 14 h -14 z"
   fill="url(#gradient_ds_tr)"
   style="fill:url(#gradient_ds_tr)" />
    <path
   id="ds-t"
   d="m 16.5,4.5 h 31 v 14 h -31 z"
   fill="url(#gradient_ds_t)"
   style="fill:url(#gradient_ds_t)" />
    <path
   id="ds-tl"
   d="m 16.5,4.5 h -14 v 14 h 14 z"
   fill="url(#gradient_ds_tl)"
   style="fill:url(#gradient_ds_tl)" />
  </g>
  
  <rect
   x="4.5"
   y="4.5"
   width="55"
   height="55"
   fill="url(#linearGradient980-7)"
   id="bg"
   style="font-variation-settings:normal;display:inline;vector-effect:none;fill:url(#paint0_linear_1117_2226-3-6);fill-opacity:1;stroke-width:1;stroke-linecap:butt;stroke-linejoin:miter;stroke-miterlimit:4;stroke-dasharray:none;stroke-dashoffset:0;stroke-opacity:1;-inkscape-stroke:none;stop-color:#000000"
   rx="10" /><g
   id="art"
   style="display:inline">
    <g
   style="fill:#000000"
   id="g1"
   transform="translate(20,28.5)">
      <path
   id="primary"
   style="baseline-shift:baseline;display:inline;overflow:visible;vector-effect:none;fill-opacity:0.204564;stroke-linecap:round;stroke-linejoin:round;enable-background:accumulate;stop-color:#000000;stop-opacity:1;opacity:1"
   d="M 19 2 A 1 1 0 0 0 18 3 L 18 5.2558594 C 16.409606 3.8141611 14.433443 3.0867266 12.455078 3 C 11.513952 2.9587434 10.570761 3.0613844 9.6699219 3.3027344 C 6.0665663 4.2681344 2.9982341 7.4644016 3 12 A 1 1 0 0 0 4 13 A 1 1 0 0 0 5 12 C 4.9985778 8.3472237 7.3478084 5.9951765 10.1875 5.234375 C 12.511577 4.6117155 15.08492 5.0761816 16.943359 7 L 14 7 A 1 1 0 0 0 13 8 A 1 1 0 0 0 14 9 L 18.898438 9 L 18.962891 9 L 19 9 A 1.0001 1.0001 0 0 0 20 8 L 20 3 A 1 1 0 0 0 19 2 z " />
      <path
   id="primary-2"
   style="baseline-shift:baseline;display:inline;overflow:visible;vector-effect:none;fill-opacity:0.204564;stroke-linecap:round;stroke-linejoin:round;enable-background:accumulate;stop-color:#000000;stop-opacity:1;opacity:1"
   d="M 20 11 A 1 1 0 0 0 19 12 C 19.0014 15.652776 16.652192 18.004823 13.8125 18.765625 C 11.488423 19.388285 8.91508 18.923819 7.0566406 17 L 10 17 A 1 1 0 0 0 11 16 A 1 1 0 0 0 10 15 L 5.1015625 15 L 5.0371094 15 L 5 15 A 1.0001 1.0001 0 0 0 4 16 L 4 21 A 1 1 0 0 0 5 22 A 1 1 0 0 0 6 21 L 6 18.744141 C 8.347395 20.872315 11.535485 21.445985 14.330078 20.697266 C 17.933434 19.731866 21.001766 16.535598 21 12 A 1 1 0 0 0 20 11 z " />
    </g>
    <g
   id="g2"
   style="display:inline">
      <path
   opacity="0.15"
   d="m 44.4935,14.2416 c 0.0067,0.1666 0.0101,0.3333 0.0102,0.5 0,3.3151 -1.317,6.4945 -3.6612,8.8387 -2.3441,2.3442 -5.5235,3.6612 -8.8387,3.6612 -3.3152,0 -6.4946,-1.317 -8.8388,-3.6612 -2.3442,-2.3442 -3.6611,-5.5236 -3.6611,-8.8387 -1e-4,-0.167 0.0032,-0.3339 0.0098,-0.5007"
   stroke="#000000"
   stroke-width="2.5"
   stroke-linecap="round"
   id="path5-0"
   style="fill:none" />
      <path
   d="m 44.4935,12.2416 c 0.0067,0.1666 0.0101,0.3333 0.0102,0.5 0,3.3151 -1.317,6.4945 -3.6612,8.8387 -2.3441,2.3442 -5.5235,3.6612 -8.8387,3.6612 -3.3152,0 -6.4946,-1.317 -8.8388,-3.6612 -2.3442,-2.3442 -3.6611,-5.5236 -3.6611,-8.8387 -1e-4,-0.167 0.0032,-0.3339 0.0098,-0.5007"
   stroke="#ffffff"
   stroke-width="2.5"
   stroke-linecap="round"
   id="path6-6"
   style="fill:none;fill-opacity:1" />
    </g>
  </g>
</svg>
