<?xml version="1.0" encoding="UTF-8" standalone="no"?>
<svg xmlns:inkscape="http://www.inkscape.org/namespaces/inkscape" xmlns:sodipodi="http://sodipodi.sourceforge.net/DTD/sodipodi-0.dtd" xmlns:xlink="http://www.w3.org/1999/xlink" xmlns="http://www.w3.org/2000/svg" xmlns:svg="http://www.w3.org/2000/svg" width="64" height="64" version="1.1" id="svg40" sodipodi:docname="freedownloadmanager.svg" inkscape:version="1.4.2 (ebf0e940d0, 2025-05-08)">
  <sodipodi:namedview id="namedview1" pagecolor="#ffffff" bordercolor="#000000" borderopacity="0.25" inkscape:showpageshadow="2" inkscape:pageopacity="0.0" inkscape:pagecheckerboard="0" inkscape:deskcolor="#d1d1d1" inkscape:current-layer="svg40"/>
  <defs id="defs16">
    <linearGradient id="linearGradient1062" x1="399.57" x2="399.57" y1="545.8" y2="517.8" gradientTransform="matrix(2.1429,0,0,2.1429,-826.36,-1107.5)" gradientUnits="userSpaceOnUse">
      <stop stop-color="#3889e9" offset="0" id="stop2"/>
      <stop stop-color="#5ea5fb" offset="1" id="stop4"/>
    </linearGradient>
    <linearGradient id="linearGradient2677" x1="399.57" x2="399.57" y1="545.8" y2="517.8" gradientTransform="matrix(2.1429,0,0,2.1429,-826.36,-1107.5)" gradientUnits="userSpaceOnUse" xlink:href="#linearGradient1062"/>
    <linearGradient id="linearGradient1040" x1="7.9373" x2="7.9373" y1="15.081" y2="1.852" gradientTransform="matrix(3.7796,0,0,3.7796,-80.561494,0)" gradientUnits="userSpaceOnUse">
      <stop stop-color="#363636" offset="0" id="stop8"/>
      <stop stop-color="#6c6c6c" offset="1" id="stop10"/>
    </linearGradient>
    <filter id="filter6950" x="-0.14699994" y="-0.14700005" width="1.2939999" height="1.2940001" color-interpolation-filters="sRGB">
      <feGaussianBlur stdDeviation="3.3075061" id="feGaussianBlur13"/>
    </filter>
    <linearGradient id="linearGradient862" x1="7.9373002" x2="7.9373002" y1="15.081" y2="1.852" gradientTransform="matrix(3.7796021,0,0,3.7796021,111.88038,0.03039976)" gradientUnits="userSpaceOnUse">
      <stop stop-color="#202020" offset="0" id="stop878"/>
      <stop stop-color="#4d4d4d" offset="1" id="stop880"/>
    </linearGradient>
    <filter id="filter1057-4-4" x="-0.026999999" y="-0.026999999" width="1.054" height="1.054" color-interpolation-filters="sRGB">
      <feGaussianBlur stdDeviation="0.61875" id="feGaussianBlur255"/>
    </filter>
    <linearGradient id="linearGradient1053-5-2" x1="-127" x2="-72" y1="60" y2="5" gradientTransform="matrix(1.0000827,0,0,1.0000827,129.00899,-23.977277)" gradientUnits="userSpaceOnUse">
      <stop stop-color="#32d7ff" offset="0" id="stop258"/>
      <stop stop-color="#329bff" offset="1" id="stop260"/>
    </linearGradient>
    <filter id="filter1015" x="-0.084000711" y="-0.084000711" width="1.1680014" height="1.1680014" color-interpolation-filters="sRGB">
      <feGaussianBlur stdDeviation="0.3089756" id="feGaussianBlur263"/>
    </filter>
    <filter id="filter985" x="-0.05909655" y="-0.060921029" width="1.1181931" height="1.1218421" color-interpolation-filters="sRGB">
      <feGaussianBlur stdDeviation="0.21619832" id="feGaussianBlur266"/>
    </filter>
    <linearGradient id="linearGradient1025" x1="7.9875998" x2="12.91" y1="7.7203002" y2="12.495" gradientTransform="matrix(3.779602,0,0,3.779602,-90.994643,-0.57544534)" gradientUnits="userSpaceOnUse">
      <stop stop-color="#fafaff" offset="0" id="stop269"/>
      <stop stop-color="#a1d8ff" offset="1" id="stop271"/>
    </linearGradient>
    <filter id="filter1057-4" x="-0.026999999" y="-0.026999999" width="1.054" height="1.054" color-interpolation-filters="sRGB">
      <feGaussianBlur stdDeviation="0.61875" id="feGaussianBlur651"/>
    </filter>
    <linearGradient id="linearGradient1053-74" x1="-127" x2="-72" y1="60" y2="5" gradientTransform="matrix(1.0000071,0,0,1.0000071,131.49969,-0.5100961)" gradientUnits="userSpaceOnUse">
      <stop stop-color="#323741" offset="0" id="stop654"/>
      <stop stop-color="#465064" offset="1" id="stop656"/>
    </linearGradient>
  <radialGradient id="gradient_ds_br" cx="0" cy="0" r="1" gradientUnits="userSpaceOnUse" gradientTransform="matrix(13.998399,0.00477622,-0.00477841,14.004799,47.5016,48.4952)">
      <stop offset="0.65" id="stop1"/>
      <stop offset="1" stop-opacity="0" id="stop2"/>
    </radialGradient><linearGradient id="gradient_ds_b" x1="30.448999" y1="48.5" x2="30.492201" y2="62.500301" gradientUnits="userSpaceOnUse">
      <stop offset="0.653846" id="stop3"/>
      <stop offset="1" stop-opacity="0" id="stop4"/>
    </linearGradient><radialGradient id="gradient_ds_bl" cx="0" cy="0" r="1" gradientUnits="userSpaceOnUse" gradientTransform="matrix(0,14,-14,0,16.5,48.5)">
      <stop offset="0.65" id="stop5"/>
      <stop offset="1" stop-opacity="0" id="stop6"/>
    </radialGradient><linearGradient id="gradient_ds_r" x1="47.5" y1="33.5" x2="61.5" y2="33.5009" gradientUnits="userSpaceOnUse">
      <stop offset="0.649038" id="stop7"/>
      <stop offset="1" stop-opacity="0" id="stop8"/>
    </linearGradient><linearGradient id="gradient_ds_l" x1="16.5" y1="33.894699" x2="2.5" y2="33.894699" gradientUnits="userSpaceOnUse">
      <stop offset="0.649038" id="stop9"/>
      <stop offset="1" stop-opacity="0" id="stop10"/>
    </linearGradient><radialGradient id="gradient_ds_tr" cx="0" cy="0" r="1" gradientTransform="matrix(0.00843236,-14,14.0084,0.0189842,47.4916,18.5)" gradientUnits="userSpaceOnUse">
      <stop offset="0.65" id="stop11"/>
      <stop offset="1" stop-opacity="0" id="stop12"/>
    </radialGradient><linearGradient id="gradient_ds_t" x1="29.98" y1="18.5" x2="29.9158" y2="4.4998598" gradientUnits="userSpaceOnUse">
      <stop offset="0.649038" id="stop13"/>
      <stop offset="1" stop-opacity="0" id="stop14"/>
    </linearGradient><radialGradient id="gradient_ds_tl" cx="0" cy="0" r="1" gradientTransform="matrix(-0.00843236,-14,-14.0084,0.0189842,16.5084,18.5)" gradientUnits="userSpaceOnUse">
      <stop offset="0.65" id="stop15"/>
      <stop offset="1" stop-opacity="0" id="stop16"/>
    </radialGradient></defs>
  
  <g id="ds" opacity="0.25">
    <path id="ds-br" d="m 47.5,48.5 h 14 v 14 h -14 z" fill="url(#gradient_ds_br)" style="fill:url(#gradient_ds_br)"/>
    <path id="ds-b" d="m 16.5,48.5 h 31 v 14 h -31 z" fill="url(#gradient_ds_b)" style="fill:url(#gradient_ds_b)"/>
    <path id="ds-bl" d="m 2.5,48.5 h 14 v 14 h -14 z" fill="url(#gradient_ds_bl)" style="fill:url(#gradient_ds_bl)"/>
    <path id="ds-r" d="m 47.5,18.5 h 14 v 30 h -14 z" fill="url(#gradient_ds_r)" style="fill:url(#gradient_ds_r)"/>
    <path id="ds-l" d="m 2.5,18.5 h 14 v 30 h -14 z" fill="url(#gradient_ds_l)" style="fill:url(#gradient_ds_l)"/>
    <path id="ds-tr" d="m 47.5,4.5 h 14 v 14 h -14 z" fill="url(#gradient_ds_tr)" style="fill:url(#gradient_ds_tr)"/>
    <path id="ds-t" d="m 16.5,4.5 h 31 v 14 h -31 z" fill="url(#gradient_ds_t)" style="fill:url(#gradient_ds_t)"/>
    <path id="ds-tl" d="m 16.5,4.5 h -14 v 14 h 14 z" fill="url(#gradient_ds_tl)" style="fill:url(#gradient_ds_tl)"/>
  </g><rect x="4.5" y="4.5" width="55" height="55" fill="url(#linearGradient1053-74)" stroke-linecap="round" stroke-width="2.74437" id="bg" style="fill:url(#linearGradient1053-74)" rx="10"/>
  <g transform="matrix(0.71555173,0,0,0.71555173,9.1023727,8.1827443)" id="art">
    <path d="m 7.0064,6.2857 c -1.1123,0 -2.0065,0.89699 -2.0065,2.0118 v 24.988 c 0,2.254 0.68424,4.342 1.8562,6.0697 5.4902,8.1639 15.602,20.332 25.144,20.93 h 8.7381 l 1.2524,10e-7 h 14.438 c 0.27609,0 1.2857,0 1.8806,-0.50098 0.0015,-0.0013 0.0038,-0.0013 0.0052,-0.0026 0.41838,-0.36817 0.68562,-0.90352 0.68562,-1.5082 v -24.988 c 0,-2.254 -0.68425,-4.342 -1.8562,-6.0697 -2.9034,-4.3174 -7.1051,-9.742 -11.826,-13.996 -2.721,-2.3876 -5.5655,-4.3976 -8.2978,-5.6268 -1.6731,-0.72695 -3.3544,-1.2033 -5.0203,-1.3078 h -16.2 z" fill="#000000" filter="url(#filter6950)" opacity="0.15" id="path639"/>
    <path d="M 7.0064,5 C 5.8941,5 4.9999,5.89699 4.9999,7.0118 v 24.988 c 0,2.254 0.68424,4.342 1.8562,6.0697 5.4902,8.1639 15.602,20.332 25.144,20.93 h 8.7381 l 1.2524,-0.27158 h 15.543 c 0.27609,0 0.53705,-0.08482 0.7752,-0.2294 0.0015,-0.0013 0.0038,-0.0013 0.0052,-0.0026 0.41838,-0.36817 0.68562,-0.90352 0.68562,-1.5082 v -24.988 c 0,-2.254 -0.68425,-4.342 -1.8562,-6.0697 -2.9034,-4.3174 -7.1051,-9.742 -11.826,-13.996 -2.721,-2.3876 -5.5655,-4.3976 -8.2978,-5.6268 -1.6731,-0.72695 -3.3544,-1.2033 -5.0203,-1.3078 h -16.2 z" fill="#007ec2" id="path641"/>
    <path d="m 15.011,13 c -1.1147,0 -2.0109,0.89894 -2.0109,2.0162 v 27.614 c 1.2477,8.1514 11.981,15.742 18.941,16.37 h 7.4227 l 0.42544,-0.13478 h 17.2 c 1.1147,0 1.9927,-1.1105 2.0109,-2.2276 v -24.696 c 0,-2.2589 -0.68574,-4.3514 -1.8603,-6.083 -4.107,-6.4723 -9.6818,-12.532 -17.081,-12.858 h -16.235 z" fill="#ffffff" id="path643"/>
    <path d="m 23.017,21 c -1.1182,0 -2.0172,0.90173 -2.0172,2.0225 V 33 h 14 v -6.5714 l 18,11.571 -18,11.5 v -6.5 h -14 v 5.1429 c 0,6.0149 4.8423,10.857 10.857,10.857 h 25.126 C 58.101,58.9995 59,58.09777 59,56.977 V 31.857 C 59,25.8421 54.1577,21 48.143,21 H 31.857 Z" fill="#2fcdeb" id="path645"/>
  </g>
</svg>
