<?xml version="1.0" encoding="UTF-8" standalone="no"?>
<svg xmlns:inkscape="http://www.inkscape.org/namespaces/inkscape" xmlns:sodipodi="http://sodipodi.sourceforge.net/DTD/sodipodi-0.dtd" xmlns="http://www.w3.org/2000/svg" xmlns:svg="http://www.w3.org/2000/svg" xmlns:rdf="http://www.w3.org/1999/02/22-rdf-syntax-ns#" xmlns:cc="http://creativecommons.org/ns#" xmlns:dc="http://purl.org/dc/elements/1.1/" width="64" height="64" version="1.1" viewBox="0 0 64 64" id="svg8" sodipodi:docname="uget-icon.svg" inkscape:version="1.4.2 (ebf0e940d0, 2025-05-08)">
  <sodipodi:namedview id="namedview1" pagecolor="#ffffff" bordercolor="#000000" borderopacity="0.25" inkscape:showpageshadow="2" inkscape:pageopacity="0.0" inkscape:pagecheckerboard="0" inkscape:deskcolor="#d1d1d1" inkscape:current-layer="svg8"/>
  <defs id="defs5">
    <filter id="filter1057-2" x="-0.026999999" y="-0.026999999" width="1.054" height="1.054" color-interpolation-filters="sRGB">
      <feGaussianBlur stdDeviation="0.61875" id="feGaussianBlur1"/>
    </filter>
    <linearGradient id="linearGradient1053-7" x1="-127" x2="-72" y1="60" y2="5" gradientTransform="matrix(1.0000071,0,0,1.0000071,131.50256,-0.50986831)" gradientUnits="userSpaceOnUse">
      <stop stop-color="#8cd750" offset="0" id="stop1"/>
      <stop stop-color="#7dcd32" stop-opacity=".99608" offset=".49585" id="stop2"/>
      <stop stop-color="#87d241" stop-opacity=".99608" offset="1" id="stop3"/>
    </linearGradient>
    <linearGradient id="linearGradient1277" x1="32.153" x2="32.153" y1="46.592999" y2="4.0936999" gradientTransform="matrix(1.0289588,0,0,1.0289588,-0.89198607,-0.09184433)" gradientUnits="userSpaceOnUse">
      <stop stop-color="#d1ecba" offset="0" id="stop4"/>
      <stop stop-color="#d1ecba" stop-opacity="0" offset="1" id="stop5"/>
    </linearGradient>
    <filter id="filter2105" x="-0.2979593" y="-0.12894993" width="1.5959187" height="1.2578999" color-interpolation-filters="sRGB">
      <feGaussianBlur stdDeviation="0.44165673" id="feGaussianBlur5"/>
    </filter>
    <filter id="filter2105-3" x="-0.29795929" y="-0.12894993" width="1.5959186" height="1.2578999" color-interpolation-filters="sRGB">
      <feGaussianBlur stdDeviation="0.44165673" id="feGaussianBlur5-6"/>
    </filter>
    <filter id="filter1057-2-2" x="-0.026999999" y="-0.026999999" width="1.054" height="1.054" color-interpolation-filters="sRGB">
      <feGaussianBlur stdDeviation="0.61875" id="feGaussianBlur1-9"/>
    </filter>
  <radialGradient id="gradient_ds_br" cx="0" cy="0" r="1" gradientUnits="userSpaceOnUse" gradientTransform="matrix(13.998399,0.00477622,-0.00477841,14.004799,47.5016,48.4952)">
      <stop offset="0.65" id="stop1"/>
      <stop offset="1" stop-opacity="0" id="stop2"/>
    </radialGradient><linearGradient id="gradient_ds_b" x1="30.448999" y1="48.5" x2="30.492201" y2="62.500301" gradientUnits="userSpaceOnUse">
      <stop offset="0.653846" id="stop3"/>
      <stop offset="1" stop-opacity="0" id="stop4"/>
    </linearGradient><radialGradient id="gradient_ds_bl" cx="0" cy="0" r="1" gradientUnits="userSpaceOnUse" gradientTransform="matrix(0,14,-14,0,16.5,48.5)">
      <stop offset="0.65" id="stop5"/>
      <stop offset="1" stop-opacity="0" id="stop6"/>
    </radialGradient><linearGradient id="gradient_ds_r" x1="47.5" y1="33.5" x2="61.5" y2="33.5009" gradientUnits="userSpaceOnUse">
      <stop offset="0.649038" id="stop7"/>
      <stop offset="1" stop-opacity="0" id="stop8"/>
    </linearGradient><linearGradient id="gradient_ds_l" x1="16.5" y1="33.894699" x2="2.5" y2="33.894699" gradientUnits="userSpaceOnUse">
      <stop offset="0.649038" id="stop9"/>
      <stop offset="1" stop-opacity="0" id="stop10"/>
    </linearGradient><radialGradient id="gradient_ds_tr" cx="0" cy="0" r="1" gradientTransform="matrix(0.00843236,-14,14.0084,0.0189842,47.4916,18.5)" gradientUnits="userSpaceOnUse">
      <stop offset="0.65" id="stop11"/>
      <stop offset="1" stop-opacity="0" id="stop12"/>
    </radialGradient><linearGradient id="gradient_ds_t" x1="29.98" y1="18.5" x2="29.9158" y2="4.4998598" gradientUnits="userSpaceOnUse">
      <stop offset="0.649038" id="stop13"/>
      <stop offset="1" stop-opacity="0" id="stop14"/>
    </linearGradient><radialGradient id="gradient_ds_tl" cx="0" cy="0" r="1" gradientTransform="matrix(-0.00843236,-14,-14.0084,0.0189842,16.5084,18.5)" gradientUnits="userSpaceOnUse">
      <stop offset="0.65" id="stop15"/>
      <stop offset="1" stop-opacity="0" id="stop16"/>
    </radialGradient></defs>
  <metadata id="metadata5">
    <rdf:RDF>
      <cc:Work rdf:about="">
        <dc:format>image/svg+xml</dc:format>
        <dc:type rdf:resource="http://purl.org/dc/dcmitype/StillImage"/>
      </cc:Work>
    </rdf:RDF>
  </metadata>
  
  <g id="ds" opacity="0.25">
    <path id="ds-br" d="m 47.5,48.5 h 14 v 14 h -14 z" fill="url(#gradient_ds_br)" style="fill:url(#gradient_ds_br)"/>
    <path id="ds-b" d="m 16.5,48.5 h 31 v 14 h -31 z" fill="url(#gradient_ds_b)" style="fill:url(#gradient_ds_b)"/>
    <path id="ds-bl" d="m 2.5,48.5 h 14 v 14 h -14 z" fill="url(#gradient_ds_bl)" style="fill:url(#gradient_ds_bl)"/>
    <path id="ds-r" d="m 47.5,18.5 h 14 v 30 h -14 z" fill="url(#gradient_ds_r)" style="fill:url(#gradient_ds_r)"/>
    <path id="ds-l" d="m 2.5,18.5 h 14 v 30 h -14 z" fill="url(#gradient_ds_l)" style="fill:url(#gradient_ds_l)"/>
    <path id="ds-tr" d="m 47.5,4.5 h 14 v 14 h -14 z" fill="url(#gradient_ds_tr)" style="fill:url(#gradient_ds_tr)"/>
    <path id="ds-t" d="m 16.5,4.5 h 31 v 14 h -31 z" fill="url(#gradient_ds_t)" style="fill:url(#gradient_ds_t)"/>
    <path id="ds-tl" d="m 16.5,4.5 h -14 v 14 h 14 z" fill="url(#gradient_ds_tl)" style="fill:url(#gradient_ds_tl)"/>
  </g><rect x="4.5" y="4.5" width="55" height="55" fill="url(#linearGradient1053-7)" stroke-linecap="round" stroke-width="2.74441" id="bg" style="fill:url(#linearGradient1053-7)" rx="10"/>
  <g id="art">
    <path id="path6" style="fill:url(#linearGradient1277)" d="M 14.5 4.5 C 8.96 4.5 4.5 8.96 4.5 14.5 L 4.5 19.5 L 4.5 22.298828 L 32.191406 47.847656 L 59.5 22.308594 L 59.5 14.5 C 59.5 8.96 55.04 4.5 49.5 4.5 L 14.5 4.5 z "/>
    <rect transform="matrix(-0.70710678,0.70710678,0.70710678,0.70710678,0,0)" x="8.6390524" y="39.269463" width="3.1820612" height="17.693909" ry="1.5910306" fill="#fafafa" id="rect7" style="stroke-width:3.7796"/>
    <path d="m 8.0742,4.474 c -0.2332,0 -0.42064,0.18795 -0.42064,0.42115 v 7.3782 c 0,0.02186 0.00302,0.04261 0.0062,0.06356 8.244e-4,0.0053 5.196e-4,0.01072 0.00155,0.01602 0.00466,0.02441 0.012529,0.04758 0.021187,0.07028 0.00105,0.0027 0.00148,0.0056 0.00258,0.0083 0.042594,0.10511 0.12587,0.18891 0.23099,0.2315 0.00357,0.0015 0.00725,0.0023 0.010852,0.0036 0.021897,0.0082 0.044217,0.01515 0.067695,0.01964 0.026507,0.0052 0.053197,0.0078 0.080097,0.0078 0.027375,-3.4e-5 0.054209,-0.0028 0.080097,-0.0078 1.62e-4,-3.1e-5 3.551e-4,3.2e-5 5.168e-4,0 0.019902,-0.0039 0.03858,-0.01052 0.05736,-0.01705 0.00709,-0.0025 0.014792,-0.0034 0.021704,-0.0062 0.023,-0.0094 0.044382,-0.02147 0.065111,-0.03462 0.00234,-0.0015 0.00492,-0.0026 0.00723,-0.0041 0.023591,-0.01563 0.045719,-0.0338 0.065628,-0.05374 l 0.00258,-0.0026 2.7124002,-2.7124 c 0.1649,-0.1649 0.1649,-0.4304 0,-0.5953 -0.1649,-0.1649 -0.4304,-0.1649 -0.5953,0 l -1.9967002,1.9967 v -6.3618 c 0,-0.2332 -0.18795,-0.42115 -0.42115,-0.42115 z" fill="#80d03a" filter="url(#filter2105)" id="path7" style="filter:url(#filter2105-3)" transform="scale(3.779602)"/>
    <path d="m 31.921385,16.910317 c -0.881404,0 -1.58989,0.710377 -1.58989,1.591817 v 27.887038 c 0,0.08262 0.01141,0.161049 0.02343,0.240231 0.0031,0.02003 0.002,0.04052 0.0059,0.06055 0.01761,0.09226 0.04736,0.179833 0.08008,0.26563 0.004,0.01021 0.0056,0.02117 0.0098,0.03137 0.160992,0.397274 0.475739,0.714004 0.87305,0.874978 0.01349,0.0057 0.0274,0.0087 0.04102,0.01361 0.08276,0.03099 0.167127,0.05726 0.255868,0.07423 0.10019,0.01965 0.201067,0.02948 0.302739,0.02948 0.10347,-1.28e-4 0.204892,-0.01058 0.302742,-0.02948 6.12e-4,-1.18e-4 0.0013,1.21e-4 0.002,0 0.07522,-0.01474 0.145821,-0.03976 0.216802,-0.06444 0.0268,-0.0094 0.05591,-0.01285 0.08203,-0.02343 0.08693,-0.03553 0.16775,-0.08115 0.246097,-0.13085 0.0088,-0.0057 0.0186,-0.0098 0.02733,-0.0155 0.08916,-0.05908 0.172803,-0.127751 0.248052,-0.203116 l 0.0098,-0.0098 10.25217,-10.252171 c 0.623256,-0.623256 0.623256,-1.626778 0,-2.250034 -0.623257,-0.623257 -1.626779,-0.623257 -2.250035,0 l -7.546731,7.546731 v -24.04545 c 0,-0.881403 -0.710376,-1.591817 -1.591817,-1.591817 z" fill="#fafafa" id="path8" style="stroke-width:3.7796"/>
  </g>
</svg>
