<?xml version="1.0" encoding="UTF-8"?>
<svg xmlns="http://www.w3.org/2000/svg" xmlns:cc="http://creativecommons.org/ns#" xmlns:dc="http://purl.org/dc/elements/1.1/" xmlns:rdf="http://www.w3.org/1999/02/22-rdf-syntax-ns#" xmlns:xlink="http://www.w3.org/1999/xlink" width="64" height="64" version="1.1" viewBox="0 0 64 64">
  <metadata>
    <rdf:RDF>
      <cc:Work rdf:about="">
        <dc:format>image/svg+xml</dc:format>
        <dc:type rdf:resource="http://purl.org/dc/dcmitype/StillImage"/>
        <dc:title/>
      </cc:Work>
    </rdf:RDF>
  </metadata>
  <defs>
    
    
    
    <linearGradient id="linearGradient2735-5" x1="-76.928" x2="-83.608" y1="278.35" y2="285.69" gradientTransform="translate(14.056 .42995)" gradientUnits="userSpaceOnUse">
      <stop stop-color="#fafadc" offset="0"/>
      <stop stop-color="#faf0a0" offset="1"/>
    </linearGradient>
    <filter id="filter2747-6" x="-.062943" y="-.05732" width="1.1259" height="1.1146" color-interpolation-filters="sRGB">
      <feGaussianBlur stdDeviation="0.16528108"/>
    </filter>
    <linearGradient id="linearGradient1200" x1="-82.91" x2="-82.91" y1="280.31" y2="283.98" gradientTransform="translate(14.056 .42995)" gradientUnits="userSpaceOnUse">
      <stop stop-color="#faf0c8" offset="0"/>
      <stop stop-color="#ffc85a" offset="1"/>
    </linearGradient>
    
    
    
    <filter id="filter1057" x="-.027" y="-.027" width="1.054" height="1.054" color-interpolation-filters="sRGB">
      <feGaussianBlur stdDeviation="0.61875"/>
    </filter>
    <linearGradient id="linearGradient1053" x1="-127" x2="-72" y1="60" y2="5" gradientTransform="translate(131.5 -.51)" gradientUnits="userSpaceOnUse">
      <stop stop-color="#ff7832" offset="0"/>
      <stop stop-color="#ffdc32" offset="1"/>
    </linearGradient>
    
    
    
  <radialGradient id="gradient_ds_br" cx="0" cy="0" r="1" gradientUnits="userSpaceOnUse" gradientTransform="matrix(13.998399,0.00477622,-0.00477841,14.004799,47.5016,48.4952)">
      <stop offset="0.65" id="stop1"/>
      <stop offset="1" stop-opacity="0" id="stop2"/>
    </radialGradient><linearGradient id="gradient_ds_b" x1="30.448999" y1="48.5" x2="30.492201" y2="62.500301" gradientUnits="userSpaceOnUse">
      <stop offset="0.653846" id="stop3"/>
      <stop offset="1" stop-opacity="0" id="stop4"/>
    </linearGradient><radialGradient id="gradient_ds_bl" cx="0" cy="0" r="1" gradientUnits="userSpaceOnUse" gradientTransform="matrix(0,14,-14,0,16.5,48.5)">
      <stop offset="0.65" id="stop5"/>
      <stop offset="1" stop-opacity="0" id="stop6"/>
    </radialGradient><linearGradient id="gradient_ds_r" x1="47.5" y1="33.5" x2="61.5" y2="33.5009" gradientUnits="userSpaceOnUse">
      <stop offset="0.649038" id="stop7"/>
      <stop offset="1" stop-opacity="0" id="stop8"/>
    </linearGradient><linearGradient id="gradient_ds_l" x1="16.5" y1="33.894699" x2="2.5" y2="33.894699" gradientUnits="userSpaceOnUse">
      <stop offset="0.649038" id="stop9"/>
      <stop offset="1" stop-opacity="0" id="stop10"/>
    </linearGradient><radialGradient id="gradient_ds_tr" cx="0" cy="0" r="1" gradientTransform="matrix(0.00843236,-14,14.0084,0.0189842,47.4916,18.5)" gradientUnits="userSpaceOnUse">
      <stop offset="0.65" id="stop11"/>
      <stop offset="1" stop-opacity="0" id="stop12"/>
    </radialGradient><linearGradient id="gradient_ds_t" x1="29.98" y1="18.5" x2="29.9158" y2="4.4998598" gradientUnits="userSpaceOnUse">
      <stop offset="0.649038" id="stop13"/>
      <stop offset="1" stop-opacity="0" id="stop14"/>
    </linearGradient><radialGradient id="gradient_ds_tl" cx="0" cy="0" r="1" gradientTransform="matrix(-0.00843236,-14,-14.0084,0.0189842,16.5084,18.5)" gradientUnits="userSpaceOnUse">
      <stop offset="0.65" id="stop15"/>
      <stop offset="1" stop-opacity="0" id="stop16"/>
    </radialGradient></defs>
  
  <g id="ds" opacity="0.25">
    <path id="ds-br" d="m 47.5,48.5 h 14 v 14 h -14 z" fill="url(#gradient_ds_br)" style="fill:url(#gradient_ds_br)"/>
    <path id="ds-b" d="m 16.5,48.5 h 31 v 14 h -31 z" fill="url(#gradient_ds_b)" style="fill:url(#gradient_ds_b)"/>
    <path id="ds-bl" d="m 2.5,48.5 h 14 v 14 h -14 z" fill="url(#gradient_ds_bl)" style="fill:url(#gradient_ds_bl)"/>
    <path id="ds-r" d="m 47.5,18.5 h 14 v 30 h -14 z" fill="url(#gradient_ds_r)" style="fill:url(#gradient_ds_r)"/>
    <path id="ds-l" d="m 2.5,18.5 h 14 v 30 h -14 z" fill="url(#gradient_ds_l)" style="fill:url(#gradient_ds_l)"/>
    <path id="ds-tr" d="m 47.5,4.5 h 14 v 14 h -14 z" fill="url(#gradient_ds_tr)" style="fill:url(#gradient_ds_tr)"/>
    <path id="ds-t" d="m 16.5,4.5 h 31 v 14 h -31 z" fill="url(#gradient_ds_t)" style="fill:url(#gradient_ds_t)"/>
    <path id="ds-tl" d="m 16.5,4.5 h -14 v 14 h 14 z" fill="url(#gradient_ds_tl)" style="fill:url(#gradient_ds_tl)"/>
  </g><rect x="4.5" y="4.5" width="55" height="55" fill="url(#linearGradient1053)" stroke-linecap="round" stroke-width="2.7444" id="bg" rx="10"/>
  <g id="art"><g transform="matrix(1.3 0 0 1.3 -573.45 -648.94)" font-size="12.666px" stroke-width=".76923">
    <text x="730.88" y="132.19" font-family="'Droid Sans'" stroke-width=".76923"/>
  </g><g transform="matrix(1.3 0 0 1.3 -573.45 -648.94)" font-size="12.666px" stroke-width=".76923">
    <text x="730.88" y="132.19" font-family="'Droid Sans'" stroke-width=".76923"/>
  </g><g transform="matrix(5.5677 0 0 5.5677 401.89 -1541.9)" fill="#fa7846" fill-rule="evenodd" filter="url(#filter2747-6)">
    <path d="m-68.837 281.7a0.74769 0.74769 0 0 0-0.74776 0.74673 0.74769 0.74769 0 0 0 0 5.1e-4v2.5885h1.4955v-2.5885a0.74769 0.74769 0 0 0 0-5.1e-4 0.74769 0.74769 0 0 0-0.74776-0.74673z"/>
    <path d="m-68.604 279.23a0.73279 0.73279 0 0 0-0.65216 0.36639 0.73279 0.73279 0 0 0 0.2682 1.0004 0.73279 0.73279 0 0 0 5.18e-4 5.2e-4v5.2e-4l0.74259 0.42839 2.9755 1.7441s-1.7859 1.0253-2.9352 1.7033c-1.1493 0.67799-1.3808-0.50436-1.3808-0.50436v1.1327c0.1819 1.356 1.48 1.0335 1.6702 0.96739 0.1902-0.0661 4.1119-2.4102 4.1119-2.4102 0.66019-0.40426 0.70708-1.2998 0.05271-1.7715-0.10894-0.0934-3.2659-1.8506-3.6587-2.0691l0.0015-2e-3 -0.84646-0.48886-5.16e-4 5.2e-4a0.73279 0.73279 0 0 0-5.19e-4 0 0.73279 0.73279 0 0 0-0.34882-0.0982z"/>
  </g><g transform="matrix(5.5677 0 0 5.5677 401.89 -1541.9)" fill-rule="evenodd">
    <path d="m-68.837 281.7a0.74769 0.74769 0 0 0-0.74776 0.74673 0.74769 0.74769 0 0 0 0 5.1e-4v2.5885h1.4955v-2.5885a0.74769 0.74769 0 0 0 0-5.1e-4 0.74769 0.74769 0 0 0-0.74776-0.74673z" fill="url(#linearGradient1200)"/>
    <path d="m-68.604 279.23a0.73279 0.73279 0 0 0-0.65216 0.36639 0.73279 0.73279 0 0 0 0.2682 1.0004 0.73279 0.73279 0 0 0 5.18e-4 5.2e-4v5.2e-4l0.74259 0.42839 2.9755 1.7441s-1.7859 1.0253-2.9352 1.7033c-1.1493 0.67799-1.3808-0.50436-1.3808-0.50436v1.1327c0.1819 1.356 1.48 1.0335 1.6702 0.96739 0.1902-0.0661 4.1119-2.4102 4.1119-2.4102 0.66019-0.40426 0.70708-1.2998 0.05271-1.7715-0.10894-0.0934-3.2659-1.8506-3.6587-2.0691l0.0015-2e-3 -0.84646-0.48886-5.16e-4 5.2e-4a0.73279 0.73279 0 0 0-5.19e-4 0 0.73279 0.73279 0 0 0-0.34882-0.0982z" fill="url(#linearGradient2735-5)"/>
  </g></g>
  
  
  
  
</svg>
