<?xml version="1.0" encoding="UTF-8" standalone="no"?>
<svg xmlns:inkscape="http://www.inkscape.org/namespaces/inkscape" xmlns:sodipodi="http://sodipodi.sourceforge.net/DTD/sodipodi-0.dtd" xmlns="http://www.w3.org/2000/svg" xmlns:svg="http://www.w3.org/2000/svg" width="64" height="64" xml:space="preserve" version="1.1" id="svg17" sodipodi:docname="io.bassi.Amberol.svg" inkscape:version="1.4.2 (ebf0e940d0, 2025-05-08)"><sodipodi:namedview id="namedview18" pagecolor="#ffffff" bordercolor="#000000" borderopacity="0.25" inkscape:showpageshadow="2" inkscape:pageopacity="0.0" inkscape:pagecheckerboard="0" inkscape:deskcolor="#d1d1d1" inkscape:current-layer="art"/>
  
  <defs id="defs7">
    
    
    <linearGradient id="linearGradient1053-1" x1="-127" x2="-72" y1="60" y2="5" gradientTransform="translate(131.502,-0.509999)" gradientUnits="userSpaceOnUse">
      <stop stop-color="#32d7ff" offset="0" id="stop305"/>
      <stop stop-color="#329bff" offset="1" id="stop307"/>
    </linearGradient>
    
  <filter inkscape:collect="always" style="color-interpolation-filters:sRGB" id="filter18" x="-0.02700026" y="-0.02699974" width="1.0540005" height="1.0539995"><feGaussianBlur inkscape:collect="always" stdDeviation="0.44999305" id="feGaussianBlur18"/></filter><radialGradient id="gradient_ds_br" cx="0" cy="0" r="1" gradientUnits="userSpaceOnUse" gradientTransform="matrix(28.996698,0.00989361,-0.00989812,29.009898,32.0033,33.4901)">
      <stop offset="0.85" id="stop1"/>
      <stop offset="1" stop-opacity="0" id="stop2"/>
    </radialGradient><radialGradient id="gradient_ds_bl" cx="0" cy="0" r="1" gradientUnits="userSpaceOnUse" gradientTransform="matrix(0,29,-29,0,32,33.5)">
      <stop offset="0.846154" id="stop3"/>
      <stop offset="1" stop-opacity="0" id="stop4"/>
    </radialGradient><radialGradient id="gradient_ds_tr" cx="0" cy="0" r="1" gradientTransform="matrix(0.017467,-29,29.0175,0.0393245,31.9825,33.5)" gradientUnits="userSpaceOnUse">
      <stop offset="0.85" id="stop5"/>
      <stop offset="1" stop-opacity="0" id="stop6"/>
    </radialGradient><radialGradient id="gradient_ds_tl" cx="0" cy="0" r="1" gradientTransform="matrix(-0.017467,-29,-29.0175,0.0393245,32.0175,33.5)" gradientUnits="userSpaceOnUse">
      <stop offset="0.85" id="stop7"/>
      <stop offset="1" stop-opacity="0" id="stop8"/>
    </radialGradient></defs>
  
  <g id="ds" opacity="0.25">
    <path id="ds-br" d="m 32,33.5 h 29 v 29 H 32 Z" fill="url(#gradient_ds_br)" style="fill:url(#gradient_ds_br)"/>
    <path id="ds-bl" d="m 3,33.5 h 29 v 29 H 3 Z" fill="url(#gradient_ds_bl)" style="fill:url(#gradient_ds_bl)"/>
    <path id="ds-tr" d="m 32,4.5 h 29 v 29 H 32 Z" fill="url(#gradient_ds_tr)" style="fill:url(#gradient_ds_tr)"/>
    <path id="ds-tl" d="M 32,4.5 H 3 v 29 h 29 z" fill="url(#gradient_ds_tl)" style="fill:url(#gradient_ds_tl)"/>
  </g><rect x="4.5" y="4.5" width="55" height="55" fill="url(#linearGradient1053-1)" image-rendering="optimizeSpeed" stroke-linecap="round" stroke-width="2.7444" id="bg" style="fill:url(#linearGradient1053-1)" rx="27.5" ry="27.5"/>
  <g id="art"><path d="m 31.999998,13.000017 a 19.938,19.938 0 0 0 -14.141997,5.857 c -7.81,7.81 -7.81,20.476 0,28.286 7.809997,7.809 20.473997,7.809 28.283997,0 7.81,-7.81 7.81,-20.476 0,-28.286 a 19.938,19.938 0 0 0 -14.142,-5.857 z m -5.076,10.125 a 2.985,2.985 0 0 1 1.543001,0.387 l 12.5,7 c 2.043,1.146 2.043,4.087 0,5.234 l -12.5,7 c -2,1.119 -4.467,-0.327 -4.467,-2.618 v -14 c 0,-1.718 1.388999,-2.96 2.923999,-3.003 z" fill="#ffffff" id="path560-6" style="fill:#000000;fill-opacity:1;filter:url(#filter18);opacity:0.15"/><path d="m 31.999998,12.000134 a 19.938,19.938 0 0 0 -14.141997,5.857 c -7.81,7.81 -7.81,20.476 0,28.286 7.809997,7.809 20.473997,7.809 28.283997,0 7.81,-7.81 7.81,-20.476 0,-28.286 a 19.938,19.938 0 0 0 -14.142,-5.857 z m -5.076,10.125 a 2.985,2.985 0 0 1 1.543001,0.387 l 12.5,7 c 2.043,1.146 2.043,4.087 0,5.234 l -12.5,7 c -2,1.119 -4.467,-0.327 -4.467,-2.618 v -14 c 0,-1.718 1.388999,-2.96 2.923999,-3.003 z" fill="#ffffff" id="path560"/></g>
  
</svg>
