<?xml version="1.0" encoding="UTF-8" standalone="no"?>
<svg xmlns:dc="http://purl.org/dc/elements/1.1/" xmlns:cc="http://creativecommons.org/ns#" xmlns:rdf="http://www.w3.org/1999/02/22-rdf-syntax-ns#" xmlns:svg="http://www.w3.org/2000/svg" xmlns="http://www.w3.org/2000/svg" xmlns:xlink="http://www.w3.org/1999/xlink" xmlns:sodipodi="http://sodipodi.sourceforge.net/DTD/sodipodi-0.dtd" xmlns:inkscape="http://www.inkscape.org/namespaces/inkscape" height="64" width="64" version="1.1" id="svg11" sodipodi:docname="mkvinfo.svg" inkscape:version="1.0.2 (e86c870879, 2021-01-15)">
  <metadata id="metadata17">
    <rdf:RDF>
      <cc:Work rdf:about="">
        <dc:format>image/svg+xml</dc:format>
        <dc:type rdf:resource="http://purl.org/dc/dcmitype/StillImage"/>
        <dc:title/>
      </cc:Work>
    </rdf:RDF>
  </metadata>
  <defs id="defs15">
    <linearGradient id="lgrad" x1="32" y1="32" x2="32" y2="992" gradientUnits="userSpaceOnUse" gradientTransform="translate(0,-896)">
      <stop offset="0%" stop-color="#f8f8f8" id="stop2-3"/>
      <stop offset="100%" stop-color="#ccc" id="stop4-6"/>
    </linearGradient>
    <radialGradient id="rgrad" x1="0%" y1="0%" x2="0%" y2="100%" fx="512" fy="494.39999" cx="512" cy="512" r="440" gradientUnits="userSpaceOnUse" gradientTransform="translate(0,-896)">
      <stop offset="0%" stop-color="#00f0ff" id="stop7"/>
      <stop offset="100%" stop-color="#0070e0" id="stop9"/>
    </radialGradient>
    <radialGradient gradientTransform="matrix(0.03024122,0,0,0.02958968,1.132043,2.8247994)" gradientUnits="userSpaceOnUse" r="440" cy="306.1813" cx="523.57568" fy="306.1813" fx="523.57568" y2="100%" x2="0%" y1="0%" x1="0%" id="rgrad-3">
      <stop style="stop-color:#03d7e4;stop-opacity:1" id="stop7-6" stop-color="#00f0ff" offset="0%"/>
      <stop id="stop9-7" stop-color="#0070e0" offset="100%"/>
    </radialGradient>
    <clipPath clipPathUnits="userSpaceOnUse" id="clipPath971">
      <path style="opacity:1;fill:#917c6f;fill-opacity:1;stroke:none;stroke-width:0.30000001;stroke-linecap:round;stroke-linejoin:round;stroke-miterlimit:4;stroke-dasharray:none;stroke-opacity:1" d="m -0.55397135,-0.27595216 c -0.027071,2e-8 -0.0485759,0.0220216 -0.0485759,0.0490926 V 33.951415 c 2e-8,0.02707 0.0215048,0.04909 0.0485759,0.04909 H 33.76073 c 0.02707,0 0.04909,-0.02201 0.04909,-0.04909 V -0.22685954 c 0,-0.027071 -0.02201,-0.0490926 -0.04909,-0.0490926 z M 8.8459717,2.5187093 H 25.034131 c 3.572997,0 6.449735,2.8762216 6.449735,6.4492187 v 16.188676 c 0,3.572997 -2.876738,6.449219 -6.449735,6.449219 H 8.8459717 c -3.5729971,0 -6.4497356,-2.876222 -6.4497356,-6.449219 V 8.967928 c 0,-3.5729971 2.8767385,-6.4492187 6.4497356,-6.4492187 z" id="path973" inkscape:connector-curvature="0"/>
    </clipPath>
    <linearGradient id="linearGradient862-3" x1="7.9373" x2="7.9373" y1="15.081" y2="1.852" gradientTransform="matrix(3.7795,0,0,3.7795,-85.599291,-0.9685624)" gradientUnits="userSpaceOnUse">
      <stop stop-color="#f1efeb" offset="0" id="stop857"/>
      <stop stop-color="#fdfcfc" offset="1" id="stop859"/>
    </linearGradient>
    <linearGradient id="linearGradient898" x1="29.969" x2="29.969" y1="18.796" y2="45.449" gradientTransform="matrix(2.1429,0,0,2.1429,-911.94943,-1108.5001)" gradientUnits="userSpaceOnUse">
      <stop stop-color="#cf30ac" offset="0" id="stop862"/>
      <stop stop-color="#ab31f8" offset="1" id="stop864"/>
    </linearGradient>
    <filter id="filter1022" x="-.108" y="-.108" width="1.216" height="1.216" color-interpolation-filters="sRGB">
      <feGaussianBlur stdDeviation="1.44" id="feGaussianBlur867"/>
    </filter>
    <filter id="filter2761" x="-.024" y="-.024" width="1.048" height="1.048" color-interpolation-filters="sRGB">
      <feGaussianBlur stdDeviation="0.14552168" id="feGaussianBlur2"/>
    </filter>
    <linearGradient id="linearGradient4673" x1="1.2573" x2="15.644" y1="15.429" y2="1.1082" gradientUnits="userSpaceOnUse" gradientTransform="translate(0.66635014,-2.2680373)">
      <stop stop-color="#32dcff" offset="0" id="stop5"/>
      <stop stop-color="#3296ff" offset="1" id="stop7-3"/>
    </linearGradient>
    
    <filter id="filter1057" x="-.027" y="-.027" width="1.054" height="1.054" color-interpolation-filters="sRGB">
      <feGaussianBlur stdDeviation="0.61875" id="feGaussianBlur863"/>
    </filter>
    <linearGradient id="linearGradient1053" x1="-127" x2="-72" y1="60" y2="5" gradientTransform="translate(124.06087,-19.567871)" gradientUnits="userSpaceOnUse">
      <stop stop-color="#32d7ff" offset="0" id="stop866"/>
      <stop stop-color="#329bff" offset="1" id="stop868"/>
    </linearGradient>
    
    
    
    
    
    
    
    <filter color-interpolation-filters="sRGB" height="1.048" width="1.048" y="-.024" x="-.024" id="filter2761-2">
      <feGaussianBlur id="feGaussianBlur4" stdDeviation="0.14552168"/>
    </filter>
    <linearGradient gradientUnits="userSpaceOnUse" gradientTransform="matrix(3.7796,0,0,3.7796,93.808377,0.53085)" y2="1.1269" y1="15.576" x2="15.673" x1="1.3315" id="linearGradient1024">
      <stop id="stop7-9" offset="0" stop-color="#a53cff"/>
      <stop id="stop9-1" offset="1" stop-color="#b496ff"/>
    </linearGradient>
    <linearGradient gradientUnits="userSpaceOnUse" gradientTransform="matrix(1.2346,0,0,1.2346,2.3832028,3.6047)" y2="4" y1="44" x2="0" id="linearGradient890">
      <stop id="stop4-2" offset="0" stop-color="#FFB900"/>
      <stop id="stop6" offset="1" stop-color="#ff0"/>
    </linearGradient>
    <filter color-interpolation-filters="sRGB" height="1.048" width="1.048" y="-.024" x="-.024" id="filter2761-67">
      <feGaussianBlur id="feGaussianBlur9" stdDeviation="0.14552168"/>
    </filter>
    <linearGradient gradientUnits="userSpaceOnUse" gradientTransform="matrix(3.7796,0,0,3.7796,66.443573,0.53068)" y2="1.1082" y1="15.601" x2="15.644" x1="1.4377" id="linearGradient4673-7">
      <stop id="stop12" offset="0" stop-color="#dc2828"/>
      <stop id="stop14" offset="1" stop-color="#fa4141"/>
    </linearGradient>
    <linearGradient gradientUnits="userSpaceOnUse" y2="9.67" y1="54.592" x2="34.134" x1="34.134" id="linearGradient915">
      <stop id="stop17" offset="0" stop-color="#ffb900"/>
      <stop id="stop19" offset="1" stop-color="#ff0"/>
    </linearGradient>
    <filter inkscape:collect="always" style="color-interpolation-filters:sRGB" id="filter1057-0" x="-0.027000001" width="1.054" y="-0.027000001" height="1.054">
      <feGaussianBlur inkscape:collect="always" stdDeviation="0.61875" id="feGaussianBlur1059"/>
    </filter>
    <linearGradient inkscape:collect="always" xlink:href="#linearGradient1051" id="linearGradient1053-9" x1="-127" y1="60" x2="-72" y2="5" gradientUnits="userSpaceOnUse" gradientTransform="translate(131.5,-0.50999537)"/>
    <linearGradient inkscape:collect="always" id="linearGradient1051">
      <stop style="stop-color:#a53cff;stop-opacity:1" offset="0" id="stop1047"/>
      <stop style="stop-color:#b496ff;stop-opacity:1" offset="1" id="stop1049"/>
    </linearGradient>
    <linearGradient id="linearGradient890-3" x2="0" y1="44" y2="4" gradientTransform="matrix(1.2346,0,0,1.2346,3.1419,3.6047)" gradientUnits="userSpaceOnUse">
      <stop stop-color="#FFB900" offset="0" id="stop861"/>
      <stop stop-color="#ff0" offset="1" id="stop863"/>
    </linearGradient>
    <filter id="filter2761-6" x="-.024" y="-.024" width="1.048" height="1.048" color-interpolation-filters="sRGB">
      <feGaussianBlur stdDeviation="0.14552168" id="feGaussianBlur866"/>
    </filter>
    <linearGradient id="a" gradientUnits="userSpaceOnUse" x1="17.386789" x2="17.386789" y1="1045.8689" y2="1006.8689" gradientTransform="matrix(1.4999996,0,0,1.4999996,-57.966099,-1508.3029)">
      <stop offset="0" stop-color="#30cf41" id="stop2"/>
      <stop offset="1" stop-color="#47f383" id="stop4"/>
    </linearGradient>
  <radialGradient xmlns="http://www.w3.org/2000/svg" id="gradient_ds_br" cx="0" cy="0" r="1" gradientUnits="userSpaceOnUse" gradientTransform="matrix(13.998399,0.00477622,-0.00477841,14.004799,47.5016,48.4952)">
      <stop offset="0.65" id="stop1"/>
      <stop offset="1" stop-opacity="0" id="stop2"/>
    </radialGradient><linearGradient xmlns="http://www.w3.org/2000/svg" id="gradient_ds_b" x1="30.448999" y1="48.5" x2="30.492201" y2="62.500301" gradientUnits="userSpaceOnUse">
      <stop offset="0.653846" id="stop3"/>
      <stop offset="1" stop-opacity="0" id="stop4"/>
    </linearGradient><radialGradient xmlns="http://www.w3.org/2000/svg" id="gradient_ds_bl" cx="0" cy="0" r="1" gradientUnits="userSpaceOnUse" gradientTransform="matrix(0,14,-14,0,16.5,48.5)">
      <stop offset="0.65" id="stop5"/>
      <stop offset="1" stop-opacity="0" id="stop6"/>
    </radialGradient><linearGradient xmlns="http://www.w3.org/2000/svg" id="gradient_ds_r" x1="47.5" y1="33.5" x2="61.5" y2="33.5009" gradientUnits="userSpaceOnUse">
      <stop offset="0.649038" id="stop7"/>
      <stop offset="1" stop-opacity="0" id="stop8"/>
    </linearGradient><linearGradient xmlns="http://www.w3.org/2000/svg" id="gradient_ds_l" x1="16.5" y1="33.894699" x2="2.5" y2="33.894699" gradientUnits="userSpaceOnUse">
      <stop offset="0.649038" id="stop9"/>
      <stop offset="1" stop-opacity="0" id="stop10"/>
    </linearGradient><radialGradient xmlns="http://www.w3.org/2000/svg" id="gradient_ds_tr" cx="0" cy="0" r="1" gradientTransform="matrix(0.00843236,-14,14.0084,0.0189842,47.4916,18.5)" gradientUnits="userSpaceOnUse">
      <stop offset="0.65" id="stop11"/>
      <stop offset="1" stop-opacity="0" id="stop12"/>
    </radialGradient><linearGradient xmlns="http://www.w3.org/2000/svg" id="gradient_ds_t" x1="29.98" y1="18.5" x2="29.9158" y2="4.4998598" gradientUnits="userSpaceOnUse">
      <stop offset="0.649038" id="stop13"/>
      <stop offset="1" stop-opacity="0" id="stop14"/>
    </linearGradient><radialGradient xmlns="http://www.w3.org/2000/svg" id="gradient_ds_tl" cx="0" cy="0" r="1" gradientTransform="matrix(-0.00843236,-14,-14.0084,0.0189842,16.5084,18.5)" gradientUnits="userSpaceOnUse">
      <stop offset="0.65" id="stop15"/>
      <stop offset="1" stop-opacity="0" id="stop16"/>
    </radialGradient></defs>
  
  <g xmlns="http://www.w3.org/2000/svg" id="ds" opacity="0.25">
    <path id="ds-br" d="m 47.5,48.5 h 14 v 14 h -14 z" fill="url(#gradient_ds_br)" style="fill:url(#gradient_ds_br)"/>
    <path id="ds-b" d="m 16.5,48.5 h 31 v 14 h -31 z" fill="url(#gradient_ds_b)" style="fill:url(#gradient_ds_b)"/>
    <path id="ds-bl" d="m 2.5,48.5 h 14 v 14 h -14 z" fill="url(#gradient_ds_bl)" style="fill:url(#gradient_ds_bl)"/>
    <path id="ds-r" d="m 47.5,18.5 h 14 v 30 h -14 z" fill="url(#gradient_ds_r)" style="fill:url(#gradient_ds_r)"/>
    <path id="ds-l" d="m 2.5,18.5 h 14 v 30 h -14 z" fill="url(#gradient_ds_l)" style="fill:url(#gradient_ds_l)"/>
    <path id="ds-tr" d="m 47.5,4.5 h 14 v 14 h -14 z" fill="url(#gradient_ds_tr)" style="fill:url(#gradient_ds_tr)"/>
    <path id="ds-t" d="m 16.5,4.5 h 31 v 14 h -31 z" fill="url(#gradient_ds_t)" style="fill:url(#gradient_ds_t)"/>
    <path id="ds-tl" d="m 16.5,4.5 h -14 v 14 h 14 z" fill="url(#gradient_ds_tl)" style="fill:url(#gradient_ds_tl)"/>
  </g><rect style="fill:url(#linearGradient1053-9);fill-opacity:1;stroke-width:2.74436;stroke-linecap:round" id="bg" width="55" height="55" x="4.5" y="4.5" rx="10"/>
  <g id="art"><path d="m 32.000001,17.130237 a 16,16 0 0 0 -16,16 16,16 0 0 0 16,16 16,16 0 0 0 16,-16 16,16 0 0 0 -16,-16 z m -4.2598,6.6602 c 0.34816,0.01806 0.67355,0.13305 0.97656,0.34375 l 11.213,7.7266 c 0.3532,0.2488 0.59792,0.57707 0.73437,0.98242 0.13645,0.4054 0.13645,0.81524 0,1.2246 -0.13642,0.40535 -0.38109,0.7337 -0.73828,0.97852 l -11.209,7.7266 c -0.40534,0.27692 -0.84641,0.38832 -1.332,0.32812 -0.48561,-0.0602 -0.88781,-0.27346 -1.2129,-0.63867 -0.32508,-0.36523 -0.49023,-0.79357 -0.49023,-1.2832 v -15.451 c 0,-0.48963 0.16515,-0.91994 0.49023,-1.2852 0.32512,-0.36522 0.72727,-0.57847 1.2129,-0.63867 0.12107,-0.01538 0.23942,-0.01969 0.35547,-0.01367 z" filter="url(#filter1022)" opacity="0.15" stroke-width="0" id="path1011" style="image-rendering:optimizeSpeed"/><path id="rect1073" style="fill:#ffffff;fill-opacity:1;stroke-width:0.5;stroke-linecap:round;paint-order:stroke fill markers" d="M 32,16 A 16,16 0 0 0 16,32 16,16 0 0 0 32,48 16,16 0 0 0 48,32 16,16 0 0 0 32,16 Z m -4.259766,6.660156 c 0.34816,0.01806 0.673553,0.13305 0.976563,0.34375 l 11.212891,7.726563 c 0.3532,0.2488 0.597925,0.577072 0.734374,0.982422 0.136451,0.4054 0.136451,0.815249 0,1.224609 -0.13642,0.40535 -0.381091,0.733696 -0.738281,0.978516 l -11.208984,7.726562 c -0.40534,0.27692 -0.846441,0.388325 -1.332031,0.328125 -0.48561,-0.0602 -0.887801,-0.273462 -1.212891,-0.638672 -0.32508,-0.36523 -0.490234,-0.793573 -0.490234,-1.283203 V 24.597656 c 0,-0.48963 0.165154,-0.919896 0.490234,-1.285156 0.32512,-0.36522 0.727261,-0.578472 1.212891,-0.638672 0.12107,-0.01539 0.239418,-0.01969 0.355468,-0.01367 z"/></g>
  
</svg>
