<svg width="64" height="64" viewBox="0 0 64 64" fill="none" xmlns="http://www.w3.org/2000/svg">
<g id="video-mpeg" clip-path="url(#clip0_1272_5865)">
<g id="Blank-Film ">
<g id="Shadow 2" opacity="0.1">
<path id="Vector" d="M7 52H57V58H7V52Z" fill="url(#paint0_linear_1272_5865)"/>
<path id="Vector_2" d="M7 8H57V12H7V8Z" fill="url(#paint1_linear_1272_5865)"/>
<path id="Vector_3" d="M1 8H6.99823V11.9988H1V8Z" fill="url(#paint2_radial_1272_5865)"/>
<path id="Vector_4" d="M62.9982 8H57V11.9988H62.9982V8Z" fill="url(#paint3_radial_1272_5865)"/>
<path id="Vector_5" d="M57 12H63V52H57V12Z" fill="url(#paint4_linear_1272_5865)"/>
<path id="Vector_6" d="M1 12H7V52H1V12Z" fill="url(#paint5_linear_1272_5865)"/>
<path id="Vector_7" d="M57 52H62.9982V57.9982H57V52Z" fill="url(#paint6_radial_1272_5865)"/>
<path id="Vector_8" d="M1 52H6.99823V57.9982H1V52Z" fill="url(#paint7_radial_1272_5865)"/>
</g>
<g id="Shadow 1" opacity="0.2">
<path id="Vector_9" d="M7 52H57V58H7V52Z" fill="url(#paint8_linear_1272_5865)"/>
<path id="Vector_10" d="M7 8H57V12H7V8Z" fill="url(#paint9_linear_1272_5865)"/>
<path id="Vector_11" d="M6.99823 8H1V11.9988H6.99823V8Z" fill="url(#paint10_radial_1272_5865)"/>
<path id="Vector_12" d="M57 8H62.9982V11.9988H57V8Z" fill="url(#paint11_radial_1272_5865)"/>
<path id="Vector_13" d="M57 12H63V52H57V12Z" fill="url(#paint12_linear_1272_5865)"/>
<path id="Vector_14" d="M1 12H7V52H1V12Z" fill="url(#paint13_linear_1272_5865)"/>
<path id="Vector_15" d="M57 52H62.9982V57.9982H57V52Z" fill="url(#paint14_radial_1272_5865)"/>
<path id="Vector_16" d="M1 52H6.99823V57.9982H1V52Z" fill="url(#paint15_radial_1272_5865)"/>
</g>
<rect id="Paper" x="4" y="8" width="56" height="46" rx="3" fill="url(#paint16_linear_1272_5865)"/>
<g id="Screen">
<rect id="Bg" x="5" y="9" width="54" height="44" rx="2" fill="url(#paint17_radial_1272_5865)"/>
<g id="Birds">
<path d="M31.3716 29.378C31.4287 27.8297 31.9401 27.084 33.5442 25.9309C32.4062 27.5181 32.0192 28.3782 31.922 29.8415C31.9809 29.9237 32.0089 29.9863 32.0958 30.0443C32.1827 30.1022 32.2902 30.0818 32.4145 30.0443C32.456 30.2274 32.3887 30.3504 32.1538 30.5946H31.98V30.7105C31.7529 30.7436 31.6199 30.745 31.3716 30.7105C31.3825 30.639 31.382 30.6011 31.3716 30.5367C31.2468 30.4435 31.1697 30.4152 31.024 30.3919C29.7613 30.4243 28.931 30.8966 27.4321 31.8982C28.4081 30.4903 29.1349 30.0978 30.7344 29.9863V29.7836C30.7532 29.6352 30.8388 29.5832 31.1399 29.5518C31.2492 29.5474 31.302 29.5159 31.3716 29.378Z" fill="black"/>
<path d="M20.7407 35.4901C19.9006 35.7798 19.582 36.1643 18.5681 36.1563C19.0264 36.294 19.3114 36.271 19.8716 36.0694C20.2041 35.8672 20.383 35.7703 20.7407 35.6929C21.1101 35.7921 21.3456 35.8089 21.8124 35.7798C22.0599 35.6456 22.0984 35.5116 22.0442 35.2004C22.397 34.878 22.6599 34.7163 23.2898 34.4762C23.9044 34.1845 24.123 34.0001 24.3036 33.6362C24.0449 33.8978 23.8752 34.0279 23.4636 34.1866C22.643 34.4997 22.2856 34.6927 21.7545 35.0556L21.2621 35.3453L20.7407 35.4901Z" fill="black"/>
<path d="M45.8553 39.0241C44.7545 38.8503 44.291 39.1689 42.8716 39.8062C43.7418 39.4385 44.177 39.2896 44.8414 39.1689C45.1306 39.1279 45.277 39.1394 45.5077 39.2269C45.3377 39.2951 45.262 39.3393 45.1601 39.4296C45.3156 39.4473 45.3927 39.4655 45.5077 39.5165V39.6035C45.8977 39.6879 46.0729 39.6852 46.3187 39.6035C46.5908 39.5154 46.668 39.4149 46.5794 39.082C47.0798 38.8048 47.4399 38.7584 48.2306 38.8793C48.6683 38.9792 48.9201 39.0033 49.3603 38.9662C48.886 38.9079 48.6396 38.8488 48.2306 38.7055C47.3962 38.5606 46.9986 38.6224 46.4056 38.9662C46.2957 38.8737 46.1762 38.8842 45.8553 39.0241Z" fill="black"/>
</g>
</g>
<g id="Sprocket Holes R">
<rect id="Rectangle 15" opacity="0.25" x="53" y="12" width="4" height="4" rx="1" fill="white"/>
<rect id="Rectangle 16" opacity="0.25" x="53" y="19" width="4" height="4" rx="1" fill="white"/>
<rect id="Rectangle 17" opacity="0.25" x="53" y="26" width="4" height="4" rx="1" fill="white"/>
<rect id="Rectangle 18" opacity="0.25" x="53" y="33" width="4" height="4" rx="1" fill="white"/>
<rect id="Rectangle 19" opacity="0.25" x="53" y="40" width="4" height="4" rx="1" fill="white"/>
<rect id="Rectangle 20" opacity="0.25" x="53" y="47" width="4" height="4" rx="1" fill="white"/>
</g>
<g id="Sprocket Holes L">
<rect id="Rectangle 15_2" opacity="0.25" x="7" y="12" width="4" height="4" rx="1" fill="white"/>
<rect id="Rectangle 16_2" opacity="0.25" x="7" y="19" width="4" height="4" rx="1" fill="white"/>
<rect id="Rectangle 17_2" opacity="0.25" x="7" y="26" width="4" height="4" rx="1" fill="white"/>
<rect id="Rectangle 18_2" opacity="0.25" x="7" y="33" width="4" height="4" rx="1" fill="white"/>
<rect id="Rectangle 19_2" opacity="0.25" x="7" y="40" width="4" height="4" rx="1" fill="white"/>
<rect id="Rectangle 20_2" opacity="0.25" x="7" y="47" width="4" height="4" rx="1" fill="white"/>
</g>
<g id="Extension">
<path id="Bg_2" opacity="0.3" d="M5 41L33 41C34.1046 41 35 41.8954 35 43L35 49C35 50.1046 34.1046 51 33 51L5 51L5 41Z" fill="black"/>
</g>
</g>
<path id="Name" d="M9.2386 43.1818L10.0795 43.1818L12.0568 48.0114L12.125 48.0114L14.1022 43.1818L14.9431 43.1818L14.9431 49L14.2841 49L14.2841 44.5795L14.2272 44.5795L12.4091 49L11.7727 49L9.95451 44.5795L9.89769 44.5795L9.89769 49L9.2386 49L9.2386 43.1818ZM16.3558 49L16.3558 43.1818L18.3217 43.1818C18.7781 43.1818 19.1512 43.2642 19.441 43.429C19.7327 43.5919 19.9486 43.8125 20.0887 44.0909C20.2289 44.3693 20.299 44.6799 20.299 45.0227C20.299 45.3655 20.2289 45.6771 20.0887 45.9574C19.9505 46.2377 19.7365 46.4612 19.4467 46.6278C19.1569 46.7926 18.7857 46.875 18.3331 46.875L16.924 46.875L16.924 46.25L18.3103 46.25C18.6228 46.25 18.8738 46.196 19.0632 46.0881C19.2526 45.9801 19.3899 45.8343 19.4751 45.6506C19.5622 45.465 19.6058 45.2557 19.6058 45.0227C19.6058 44.7898 19.5622 44.5814 19.4751 44.3977C19.3899 44.214 19.2516 44.0701 19.0603 43.9659C18.869 43.8598 18.6153 43.8068 18.299 43.8068L17.0603 43.8068L17.0603 49L16.3558 49ZM21.4339 49L21.4339 43.1818L24.9453 43.1818L24.9453 43.8068L22.1385 43.8068L22.1385 45.7727L24.7635 45.7727L24.7635 46.3977L22.1385 46.3977L22.1385 48.375L24.9907 48.375L24.9907 49L21.4339 49ZM30.1924 45C30.1299 44.8087 30.0476 44.6373 29.9453 44.4858C29.8449 44.3324 29.7246 44.2017 29.5845 44.0937C29.4462 43.9858 29.289 43.9034 29.1129 43.8466C28.9368 43.7898 28.7436 43.7614 28.5333 43.7614C28.1887 43.7614 27.8752 43.8504 27.593 44.0284C27.3108 44.2064 27.0864 44.4687 26.9197 44.8153C26.753 45.1619 26.6697 45.5871 26.6697 46.0909C26.6697 46.5947 26.754 47.0199 26.9226 47.3665C27.0911 47.7131 27.3193 47.9754 27.6072 48.1534C27.8951 48.3314 28.219 48.4205 28.5788 48.4205C28.9121 48.4205 29.2057 48.3494 29.4595 48.2074C29.7152 48.0634 29.914 47.8608 30.0561 47.5994C30.2 47.3362 30.272 47.0265 30.272 46.6705L30.4879 46.7159L28.7379 46.7159L28.7379 46.0909L30.9538 46.0909L30.9538 46.7159C30.9538 47.1951 30.8515 47.6117 30.647 47.9659C30.4443 48.3201 30.164 48.5947 29.8061 48.7898C29.45 48.983 29.0409 49.0795 28.5788 49.0795C28.0637 49.0795 27.611 48.9583 27.2208 48.7159C26.8326 48.4735 26.5296 48.1288 26.3118 47.6818C26.0958 47.2348 25.9879 46.7045 25.9879 46.0909C25.9879 45.6307 26.0494 45.2169 26.1726 44.8494C26.2976 44.4801 26.4737 44.1657 26.701 43.9062C26.9282 43.6468 27.1972 43.4479 27.5078 43.3097C27.8184 43.1714 28.1602 43.1023 28.5333 43.1023C28.8402 43.1023 29.1262 43.1487 29.3913 43.2415C29.6583 43.3324 29.896 43.4621 30.1044 43.6307C30.3146 43.7973 30.4898 43.9972 30.6299 44.2301C30.7701 44.4612 30.8667 44.7178 30.9197 45L30.1924 45Z" fill="white"/>
</g>
<defs>
<linearGradient id="paint0_linear_1272_5865" x1="29.4983" y1="52" x2="29.4983" y2="58" gradientUnits="userSpaceOnUse">
<stop/>
<stop offset="1" stop-opacity="0"/>
</linearGradient>
<linearGradient id="paint1_linear_1272_5865" x1="28.742" y1="12" x2="28.742" y2="8" gradientUnits="userSpaceOnUse">
<stop/>
<stop offset="1" stop-opacity="0"/>
</linearGradient>
<radialGradient id="paint2_radial_1272_5865" cx="0" cy="0" r="1" gradientUnits="userSpaceOnUse" gradientTransform="translate(7.00217 12.0017) rotate(-90) scale(4.00124 5.00177)">
<stop/>
<stop offset="1" stop-opacity="0"/>
</radialGradient>
<radialGradient id="paint3_radial_1272_5865" cx="0" cy="0" r="1" gradientUnits="userSpaceOnUse" gradientTransform="translate(56.9961 12.0017) rotate(-90) scale(4.00124 5.00177)">
<stop/>
<stop offset="1" stop-opacity="0"/>
</radialGradient>
<linearGradient id="paint4_linear_1272_5865" x1="57" y1="31.9979" x2="62.0019" y2="31.9979" gradientUnits="userSpaceOnUse">
<stop/>
<stop offset="1" stop-opacity="0"/>
</linearGradient>
<linearGradient id="paint5_linear_1272_5865" x1="7.00378" y1="32.7405" x2="2.00189" y2="32.7405" gradientUnits="userSpaceOnUse">
<stop/>
<stop offset="1" stop-opacity="0"/>
</linearGradient>
<radialGradient id="paint6_radial_1272_5865" cx="0" cy="0" r="1" gradientUnits="userSpaceOnUse" gradientTransform="translate(56.9955 51.9962) rotate(90) scale(6.00201 5.00177)">
<stop/>
<stop offset="1" stop-opacity="0"/>
</radialGradient>
<radialGradient id="paint7_radial_1272_5865" cx="0" cy="0" r="1" gradientUnits="userSpaceOnUse" gradientTransform="translate(6.99909 51.9962) rotate(180) scale(5.00177 6.00201)">
<stop/>
<stop offset="1" stop-opacity="0"/>
</radialGradient>
<linearGradient id="paint8_linear_1272_5865" x1="29.4983" y1="52" x2="29.4983" y2="56.9981" gradientUnits="userSpaceOnUse">
<stop/>
<stop offset="1" stop-opacity="0"/>
</linearGradient>
<linearGradient id="paint9_linear_1272_5865" x1="28.742" y1="12" x2="28.742" y2="9.00189" gradientUnits="userSpaceOnUse">
<stop/>
<stop offset="1" stop-opacity="0"/>
</linearGradient>
<radialGradient id="paint10_radial_1272_5865" cx="0" cy="0" r="1" gradientUnits="userSpaceOnUse" gradientTransform="translate(7.00184 11.9988) rotate(-90) scale(3.001 4.00124)">
<stop/>
<stop offset="1" stop-opacity="0"/>
</radialGradient>
<radialGradient id="paint11_radial_1272_5865" cx="0" cy="0" r="1" gradientUnits="userSpaceOnUse" gradientTransform="translate(56.9964 11.9988) rotate(-90) scale(3.001 4.00124)">
<stop/>
<stop offset="1" stop-opacity="0"/>
</radialGradient>
<linearGradient id="paint12_linear_1272_5865" x1="57" y1="31.9979" x2="61" y2="31.9979" gradientUnits="userSpaceOnUse">
<stop/>
<stop offset="1" stop-opacity="0"/>
</linearGradient>
<linearGradient id="paint13_linear_1272_5865" x1="7.00378" y1="32.7405" x2="3.00378" y2="32.7405" gradientUnits="userSpaceOnUse">
<stop/>
<stop offset="1" stop-opacity="0"/>
</linearGradient>
<radialGradient id="paint14_radial_1272_5865" cx="0" cy="0" r="1" gradientUnits="userSpaceOnUse" gradientTransform="translate(57.0007 51.998) rotate(90) scale(5.00177 4.00124)">
<stop/>
<stop offset="1" stop-opacity="0"/>
</radialGradient>
<radialGradient id="paint15_radial_1272_5865" cx="0" cy="0" r="1" gradientUnits="userSpaceOnUse" gradientTransform="translate(7.00114 51.9918) rotate(180) scale(4.00124 5.00177)">
<stop/>
<stop offset="1" stop-opacity="0"/>
</radialGradient>
<linearGradient id="paint16_linear_1272_5865" x1="49.0391" y1="14.1331" x2="27.2955" y2="63.0468" gradientUnits="userSpaceOnUse">
<stop stop-color="#FCFCFC"/>
<stop offset="1" stop-color="#EDEDED"/>
</linearGradient>
<radialGradient id="paint17_radial_1272_5865" cx="0" cy="0" r="1" gradientUnits="userSpaceOnUse" gradientTransform="translate(42.9748 9) rotate(93.4282) scale(49.1307 100.712)">
<stop stop-color="#56C2DD"/>
<stop offset="0.604557" stop-color="#ABAEE3"/>
<stop offset="1" stop-color="#FCAEDD"/>
</radialGradient>
<clipPath id="clip0_1272_5865">
<rect width="64" height="64" fill="white"/>
</clipPath>
</defs>
</svg>
