<svg width="64" height="64" viewBox="0 0 64 64" fill="none" xmlns="http://www.w3.org/2000/svg">
<g id="video-x-matroska-3d" clip-path="url(#clip0_1272_5733)">
<g id="Blank-Film ">
<g id="Shadow 2" opacity="0.1">
<path id="Vector" d="M7 52H57V58H7V52Z" fill="url(#paint0_linear_1272_5733)"/>
<path id="Vector_2" d="M7 8H57V12H7V8Z" fill="url(#paint1_linear_1272_5733)"/>
<path id="Vector_3" d="M1 8H6.99823V11.9988H1V8Z" fill="url(#paint2_radial_1272_5733)"/>
<path id="Vector_4" d="M62.9982 8H57V11.9988H62.9982V8Z" fill="url(#paint3_radial_1272_5733)"/>
<path id="Vector_5" d="M57 12H63V52H57V12Z" fill="url(#paint4_linear_1272_5733)"/>
<path id="Vector_6" d="M1 12H7V52H1V12Z" fill="url(#paint5_linear_1272_5733)"/>
<path id="Vector_7" d="M57 52H62.9982V57.9982H57V52Z" fill="url(#paint6_radial_1272_5733)"/>
<path id="Vector_8" d="M1 52H6.99823V57.9982H1V52Z" fill="url(#paint7_radial_1272_5733)"/>
</g>
<g id="Shadow 1" opacity="0.2">
<path id="Vector_9" d="M7 52H57V58H7V52Z" fill="url(#paint8_linear_1272_5733)"/>
<path id="Vector_10" d="M7 8H57V12H7V8Z" fill="url(#paint9_linear_1272_5733)"/>
<path id="Vector_11" d="M6.99823 8H1V11.9988H6.99823V8Z" fill="url(#paint10_radial_1272_5733)"/>
<path id="Vector_12" d="M57 8H62.9982V11.9988H57V8Z" fill="url(#paint11_radial_1272_5733)"/>
<path id="Vector_13" d="M57 12H63V52H57V12Z" fill="url(#paint12_linear_1272_5733)"/>
<path id="Vector_14" d="M1 12H7V52H1V12Z" fill="url(#paint13_linear_1272_5733)"/>
<path id="Vector_15" d="M57 52H62.9982V57.9982H57V52Z" fill="url(#paint14_radial_1272_5733)"/>
<path id="Vector_16" d="M1 52H6.99823V57.9982H1V52Z" fill="url(#paint15_radial_1272_5733)"/>
</g>
<rect id="Paper" x="4" y="8" width="56" height="46" rx="3" fill="url(#paint16_linear_1272_5733)"/>
<g id="Screen">
<rect id="Bg" x="5" y="9" width="54" height="44" rx="2" fill="url(#paint17_radial_1272_5733)"/>
<g id="Birds">
<path d="M31.3716 29.378C31.4287 27.8297 31.9401 27.084 33.5442 25.9309C32.4062 27.5181 32.0192 28.3782 31.922 29.8415C31.9809 29.9237 32.0089 29.9863 32.0958 30.0443C32.1827 30.1022 32.2902 30.0818 32.4145 30.0443C32.456 30.2274 32.3887 30.3504 32.1538 30.5946H31.98V30.7105C31.7529 30.7436 31.6199 30.745 31.3716 30.7105C31.3825 30.639 31.382 30.6011 31.3716 30.5367C31.2468 30.4435 31.1697 30.4152 31.024 30.3919C29.7613 30.4243 28.931 30.8966 27.4321 31.8982C28.4081 30.4903 29.1349 30.0978 30.7344 29.9863V29.7836C30.7532 29.6352 30.8388 29.5832 31.1399 29.5518C31.2492 29.5474 31.302 29.5159 31.3716 29.378Z" fill="black"/>
<path d="M20.7407 35.4901C19.9006 35.7798 19.582 36.1643 18.5681 36.1563C19.0264 36.294 19.3114 36.271 19.8716 36.0694C20.2041 35.8672 20.383 35.7703 20.7407 35.6929C21.1101 35.7921 21.3456 35.8089 21.8124 35.7798C22.0599 35.6456 22.0984 35.5116 22.0442 35.2004C22.397 34.878 22.6599 34.7163 23.2898 34.4762C23.9044 34.1845 24.123 34.0001 24.3036 33.6362C24.0449 33.8978 23.8752 34.0279 23.4636 34.1866C22.643 34.4997 22.2856 34.6927 21.7545 35.0556L21.2621 35.3453L20.7407 35.4901Z" fill="black"/>
<path d="M45.8553 39.0241C44.7545 38.8503 44.291 39.1689 42.8716 39.8062C43.7418 39.4385 44.177 39.2896 44.8414 39.1689C45.1306 39.1279 45.277 39.1394 45.5077 39.2269C45.3377 39.2951 45.262 39.3393 45.1601 39.4296C45.3156 39.4473 45.3927 39.4655 45.5077 39.5165V39.6035C45.8977 39.6879 46.0729 39.6852 46.3187 39.6035C46.5908 39.5154 46.668 39.4149 46.5794 39.082C47.0798 38.8048 47.4399 38.7584 48.2306 38.8793C48.6683 38.9792 48.9201 39.0033 49.3603 38.9662C48.886 38.9079 48.6396 38.8488 48.2306 38.7055C47.3962 38.5606 46.9986 38.6224 46.4056 38.9662C46.2957 38.8737 46.1762 38.8842 45.8553 39.0241Z" fill="black"/>
</g>
</g>
<g id="Sprocket Holes R">
<rect id="Rectangle 15" opacity="0.25" x="53" y="12" width="4" height="4" rx="1" fill="white"/>
<rect id="Rectangle 16" opacity="0.25" x="53" y="19" width="4" height="4" rx="1" fill="white"/>
<rect id="Rectangle 17" opacity="0.25" x="53" y="26" width="4" height="4" rx="1" fill="white"/>
<rect id="Rectangle 18" opacity="0.25" x="53" y="33" width="4" height="4" rx="1" fill="white"/>
<rect id="Rectangle 19" opacity="0.25" x="53" y="40" width="4" height="4" rx="1" fill="white"/>
<rect id="Rectangle 20" opacity="0.25" x="53" y="47" width="4" height="4" rx="1" fill="white"/>
</g>
<g id="Sprocket Holes L">
<rect id="Rectangle 15_2" opacity="0.25" x="7" y="12" width="4" height="4" rx="1" fill="white"/>
<rect id="Rectangle 16_2" opacity="0.25" x="7" y="19" width="4" height="4" rx="1" fill="white"/>
<rect id="Rectangle 17_2" opacity="0.25" x="7" y="26" width="4" height="4" rx="1" fill="white"/>
<rect id="Rectangle 18_2" opacity="0.25" x="7" y="33" width="4" height="4" rx="1" fill="white"/>
<rect id="Rectangle 19_2" opacity="0.25" x="7" y="40" width="4" height="4" rx="1" fill="white"/>
<rect id="Rectangle 20_2" opacity="0.25" x="7" y="47" width="4" height="4" rx="1" fill="white"/>
</g>
<g id="Extension">
<path id="Bg_2" opacity="0.3" d="M5 41L33 41C34.1046 41 35 41.8954 35 43L35 49C35 50.1046 34.1046 51 33 51L5 51L5 41Z" fill="black"/>
</g>
</g>
<path id="Name" d="M9.1097 43.1818L9.95061 43.1818L11.9279 48.0114L11.9961 48.0114L13.9733 43.1818L14.8142 43.1818L14.8142 49L14.1552 49L14.1552 44.5795L14.0983 44.5795L12.2802 49L11.6438 49L9.82561 44.5795L9.76879 44.5795L9.76879 49L9.1097 49L9.1097 43.1818ZM16.2269 49L16.2269 43.1818L16.9314 43.1818L16.9314 46.0682L16.9996 46.0682L19.6132 43.1818L20.5337 43.1818L18.0905 45.8068L20.5337 49L19.6814 49L17.6587 46.2955L16.9314 47.1136L16.9314 49L16.2269 49ZM23.3093 49.0795C22.9343 49.0795 22.6 49.0152 22.3064 48.8864C22.0148 48.7576 21.7828 48.5786 21.6104 48.3494C21.44 48.1184 21.3471 47.8504 21.332 47.5455L22.0479 47.5455C22.0631 47.733 22.1275 47.8949 22.2411 48.0312C22.3547 48.1657 22.5034 48.2699 22.6871 48.3437C22.8708 48.4176 23.0744 48.4545 23.2979 48.4545C23.5479 48.4545 23.7695 48.411 23.9627 48.3239C24.1559 48.2367 24.3074 48.1155 24.4172 47.9602C24.5271 47.8049 24.582 47.625 24.582 47.4205C24.582 47.2064 24.529 47.018 24.4229 46.8551C24.3168 46.6903 24.1615 46.5616 23.957 46.4687C23.7525 46.3759 23.5025 46.3295 23.207 46.3295L22.7411 46.3295L22.7411 45.7045L23.207 45.7045C23.4381 45.7045 23.6407 45.6629 23.815 45.5795C23.9911 45.4962 24.1284 45.3788 24.2269 45.2273C24.3273 45.0758 24.3775 44.8977 24.3775 44.6932C24.3775 44.4962 24.3339 44.3248 24.2468 44.179C24.1596 44.0331 24.0365 43.9195 23.8775 43.8381C23.7203 43.7566 23.5346 43.7159 23.3206 43.7159C23.1199 43.7159 22.9305 43.7528 22.7525 43.8267C22.5763 43.8987 22.4324 44.0038 22.3206 44.142C22.2089 44.2784 22.1483 44.4432 22.1388 44.6364L21.457 44.6364C21.4684 44.3314 21.5602 44.0644 21.7326 43.8352C21.9049 43.6042 22.1303 43.4242 22.4087 43.2955C22.689 43.1667 22.9968 43.1023 23.332 43.1023C23.6918 43.1023 24.0006 43.1752 24.2581 43.321C24.5157 43.465 24.7136 43.6553 24.8519 43.892C24.9901 44.1288 25.0593 44.3845 25.0593 44.6591C25.0593 44.9867 24.9731 45.2661 24.8007 45.4972C24.6303 45.7282 24.3983 45.8883 24.1047 45.9773L24.1047 46.0227C24.4721 46.0833 24.7591 46.2396 24.9655 46.4915C25.172 46.7415 25.2752 47.0511 25.2752 47.4205C25.2752 47.7367 25.189 48.0208 25.0167 48.2727C24.8462 48.5227 24.6132 48.7197 24.3178 48.8636C24.0223 49.0076 23.6862 49.0795 23.3093 49.0795ZM28.3348 49L26.5394 49L26.5394 43.1818L28.4144 43.1818C28.9788 43.1818 29.4617 43.2983 29.8632 43.5312C30.2648 43.7623 30.5725 44.0947 30.7865 44.5284C31.0006 44.9602 31.1076 45.4773 31.1076 46.0795C31.1076 46.6856 30.9996 47.2074 30.7837 47.6449C30.5678 48.0805 30.2534 48.4157 29.8405 48.6506C29.4276 48.8835 28.9257 49 28.3348 49ZM27.2439 48.375L28.2894 48.375C28.7704 48.375 29.1691 48.2822 29.4854 48.0966C29.8017 47.911 30.0375 47.6468 30.1928 47.304C30.3481 46.9612 30.4257 46.553 30.4257 46.0795C30.4257 45.6098 30.349 45.2055 30.1956 44.8665C30.0422 44.5256 29.8131 44.2642 29.5081 44.0824C29.2032 43.8987 28.8235 43.8068 28.3689 43.8068L27.2439 43.8068L27.2439 48.375Z" fill="white"/>
</g>
<defs>
<linearGradient id="paint0_linear_1272_5733" x1="29.4983" y1="52" x2="29.4983" y2="58" gradientUnits="userSpaceOnUse">
<stop/>
<stop offset="1" stop-opacity="0"/>
</linearGradient>
<linearGradient id="paint1_linear_1272_5733" x1="28.742" y1="12" x2="28.742" y2="8" gradientUnits="userSpaceOnUse">
<stop/>
<stop offset="1" stop-opacity="0"/>
</linearGradient>
<radialGradient id="paint2_radial_1272_5733" cx="0" cy="0" r="1" gradientUnits="userSpaceOnUse" gradientTransform="translate(7.00217 12.0017) rotate(-90) scale(4.00124 5.00177)">
<stop/>
<stop offset="1" stop-opacity="0"/>
</radialGradient>
<radialGradient id="paint3_radial_1272_5733" cx="0" cy="0" r="1" gradientUnits="userSpaceOnUse" gradientTransform="translate(56.9961 12.0017) rotate(-90) scale(4.00124 5.00177)">
<stop/>
<stop offset="1" stop-opacity="0"/>
</radialGradient>
<linearGradient id="paint4_linear_1272_5733" x1="57" y1="31.9979" x2="62.0019" y2="31.9979" gradientUnits="userSpaceOnUse">
<stop/>
<stop offset="1" stop-opacity="0"/>
</linearGradient>
<linearGradient id="paint5_linear_1272_5733" x1="7.00378" y1="32.7405" x2="2.00189" y2="32.7405" gradientUnits="userSpaceOnUse">
<stop/>
<stop offset="1" stop-opacity="0"/>
</linearGradient>
<radialGradient id="paint6_radial_1272_5733" cx="0" cy="0" r="1" gradientUnits="userSpaceOnUse" gradientTransform="translate(56.9955 51.9962) rotate(90) scale(6.00201 5.00177)">
<stop/>
<stop offset="1" stop-opacity="0"/>
</radialGradient>
<radialGradient id="paint7_radial_1272_5733" cx="0" cy="0" r="1" gradientUnits="userSpaceOnUse" gradientTransform="translate(6.99909 51.9962) rotate(180) scale(5.00177 6.00201)">
<stop/>
<stop offset="1" stop-opacity="0"/>
</radialGradient>
<linearGradient id="paint8_linear_1272_5733" x1="29.4983" y1="52" x2="29.4983" y2="56.9981" gradientUnits="userSpaceOnUse">
<stop/>
<stop offset="1" stop-opacity="0"/>
</linearGradient>
<linearGradient id="paint9_linear_1272_5733" x1="28.742" y1="12" x2="28.742" y2="9.00189" gradientUnits="userSpaceOnUse">
<stop/>
<stop offset="1" stop-opacity="0"/>
</linearGradient>
<radialGradient id="paint10_radial_1272_5733" cx="0" cy="0" r="1" gradientUnits="userSpaceOnUse" gradientTransform="translate(7.00184 11.9988) rotate(-90) scale(3.001 4.00124)">
<stop/>
<stop offset="1" stop-opacity="0"/>
</radialGradient>
<radialGradient id="paint11_radial_1272_5733" cx="0" cy="0" r="1" gradientUnits="userSpaceOnUse" gradientTransform="translate(56.9964 11.9988) rotate(-90) scale(3.001 4.00124)">
<stop/>
<stop offset="1" stop-opacity="0"/>
</radialGradient>
<linearGradient id="paint12_linear_1272_5733" x1="57" y1="31.9979" x2="61" y2="31.9979" gradientUnits="userSpaceOnUse">
<stop/>
<stop offset="1" stop-opacity="0"/>
</linearGradient>
<linearGradient id="paint13_linear_1272_5733" x1="7.00378" y1="32.7405" x2="3.00378" y2="32.7405" gradientUnits="userSpaceOnUse">
<stop/>
<stop offset="1" stop-opacity="0"/>
</linearGradient>
<radialGradient id="paint14_radial_1272_5733" cx="0" cy="0" r="1" gradientUnits="userSpaceOnUse" gradientTransform="translate(57.0007 51.998) rotate(90) scale(5.00177 4.00124)">
<stop/>
<stop offset="1" stop-opacity="0"/>
</radialGradient>
<radialGradient id="paint15_radial_1272_5733" cx="0" cy="0" r="1" gradientUnits="userSpaceOnUse" gradientTransform="translate(7.00114 51.9918) rotate(180) scale(4.00124 5.00177)">
<stop/>
<stop offset="1" stop-opacity="0"/>
</radialGradient>
<linearGradient id="paint16_linear_1272_5733" x1="49.0391" y1="14.1331" x2="27.2955" y2="63.0468" gradientUnits="userSpaceOnUse">
<stop stop-color="#FCFCFC"/>
<stop offset="1" stop-color="#EDEDED"/>
</linearGradient>
<radialGradient id="paint17_radial_1272_5733" cx="0" cy="0" r="1" gradientUnits="userSpaceOnUse" gradientTransform="translate(42.9748 9) rotate(93.4282) scale(49.1307 100.712)">
<stop stop-color="#56C2DD"/>
<stop offset="0.604557" stop-color="#ABAEE3"/>
<stop offset="1" stop-color="#FCAEDD"/>
</radialGradient>
<clipPath id="clip0_1272_5733">
<rect width="64" height="64" fill="white"/>
</clipPath>
</defs>
</svg>
