<svg width="24" height="24" viewBox="0 0 24 24" fill="none" xmlns="http://www.w3.org/2000/svg">
<g id="emblem-shared" clip-path="url(#clip0_2025_776)">
<g id="Emblem" clip-path="url(#clip1_2025_776)">
<g id="Shadow" filter="url(#filter0_f_2025_776)">
<path d="M11.9987 1.5C17.7969 1.5 22.4973 6.20049 22.4973 11.9987C22.4973 17.797 17.7969 22.4973 11.9987 22.4973C6.20042 22.4973 1.50002 17.797 1.50002 11.9987C1.50002 6.20049 6.20042 1.5 11.9987 1.5Z" fill="black" fill-opacity="0.25"/>
</g>
<path id="Background" d="M11.9987 1.5C17.7969 1.5 22.4973 6.20049 22.4973 11.9987C22.4973 17.797 17.7969 22.4973 11.9987 22.4973C6.20042 22.4973 1.50002 17.797 1.50002 11.9987C1.50002 6.20049 6.20042 1.5 11.9987 1.5Z" fill="url(#paint0_linear_2025_776)"/>
<path id="Border" d="M11.9987 1.5C17.7969 1.5 22.4973 6.20049 22.4973 11.9987C22.4973 17.797 17.7969 22.4973 11.9987 22.4973C6.20042 22.4973 1.50002 17.797 1.50002 11.9987C1.50002 6.20049 6.20042 1.5 11.9987 1.5Z" stroke="#65275C" stroke-opacity="0.5" stroke-width="0.5"/>
<path id="Light" d="M11.9975 2.15389C17.4339 2.15389 21.8411 6.56109 21.8411 11.9976C21.8411 17.434 17.4339 21.8411 11.9975 21.8411C6.56101 21.8411 2.15388 17.434 2.15388 11.9976C2.15388 6.56109 6.56101 2.15389 11.9975 2.15389Z" stroke="url(#paint1_linear_2025_776)" stroke-width="0.5"/>
</g>
<g id="Frame">
<path id="Vector" d="M13.0506 16.0176L9.6438 14.1593C9.22204 14.578 8.64121 14.8367 7.99996 14.8367C6.71129 14.8367 5.66663 13.792 5.66663 12.5033C5.66663 11.2147 6.71129 10.17 7.99996 10.17C8.64117 10.17 9.22197 10.4286 9.64372 10.8473L13.0506 8.98903C13.0174 8.83236 13 8.66988 13 8.50333C13 7.21466 14.0446 6.17 15.3333 6.17C16.622 6.17 17.6666 7.21466 17.6666 8.50333C17.6666 9.792 16.622 10.8367 15.3333 10.8367C14.692 10.8367 14.1112 10.578 13.6895 10.1593L10.2827 12.0175C10.3158 12.1743 10.3333 12.3367 10.3333 12.5033C10.3333 12.6699 10.3158 12.8323 10.2827 12.989L13.6895 14.8473C14.1113 14.4287 14.6921 14.17 15.3333 14.17C16.622 14.17 17.6666 15.2147 17.6666 16.5033C17.6666 17.792 16.622 18.8367 15.3333 18.8367C14.0446 18.8367 13 17.792 13 16.5033C13 16.3368 13.0174 16.1743 13.0506 16.0176Z" fill="#65275C" fill-opacity="0.5"/>
<path id="Vector_2" d="M13.0506 15.5143L9.6438 13.656C9.22204 14.0747 8.64121 14.3333 7.99996 14.3333C6.71129 14.3333 5.66663 13.2887 5.66663 12C5.66663 10.7113 6.71129 9.66667 7.99996 9.66667C8.64117 9.66667 9.22197 9.92531 9.64372 10.344L13.0506 8.4857C13.0174 8.32903 13 8.16655 13 8C13 6.71133 14.0446 5.66667 15.3333 5.66667C16.622 5.66667 17.6666 6.71133 17.6666 8C17.6666 9.28867 16.622 10.3333 15.3333 10.3333C14.692 10.3333 14.1112 10.0747 13.6895 9.65599L10.2827 11.5142C10.3158 11.6709 10.3333 11.8334 10.3333 12C10.3333 12.1665 10.3158 12.329 10.2827 12.4857L13.6895 14.344C14.1113 13.9253 14.6921 13.6667 15.3333 13.6667C16.622 13.6667 17.6666 14.7113 17.6666 16C17.6666 17.2887 16.622 18.3333 15.3333 18.3333C14.0446 18.3333 13 17.2887 13 16C13 15.8335 13.0174 15.6709 13.0506 15.5143Z" fill="white"/>
</g>
</g>
<defs>
<filter id="filter0_f_2025_776" x="0.26" y="0.26" width="23.4773" height="23.4773" filterUnits="userSpaceOnUse" color-interpolation-filters="sRGB">
<feFlood flood-opacity="0" result="BackgroundImageFix"/>
<feBlend mode="normal" in="SourceGraphic" in2="BackgroundImageFix" result="shape"/>
<feGaussianBlur stdDeviation="0.62" result="effect1_foregroundBlur_2025_776"/>
</filter>
<linearGradient id="paint0_linear_2025_776" x1="11.9975" y1="1.49765" x2="11.9975" y2="22.4973" gradientUnits="userSpaceOnUse">
<stop stop-color="#CC5A90"/>
<stop offset="1" stop-color="#AD45A5"/>
</linearGradient>
<linearGradient id="paint1_linear_2025_776" x1="11.9975" y1="21.8411" x2="11.9975" y2="2.15389" gradientUnits="userSpaceOnUse">
<stop stop-color="white" stop-opacity="0.3"/>
<stop offset="0.211538" stop-color="white" stop-opacity="0.15"/>
<stop offset="0.798077" stop-color="white" stop-opacity="0.25"/>
<stop offset="1" stop-color="white" stop-opacity="0.4"/>
</linearGradient>
<clipPath id="clip0_2025_776">
<rect width="24" height="24" fill="white"/>
</clipPath>
<clipPath id="clip1_2025_776">
<rect width="24" height="24" fill="white"/>
</clipPath>
</defs>
</svg>
