<svg width="24" height="24" viewBox="0 0 24 24" fill="none" xmlns="http://www.w3.org/2000/svg">
<g id="emblem-symbolic-link" clip-path="url(#clip0_2025_821)">
<g id="Emblem" clip-path="url(#clip1_2025_821)">
<g id="Shadow" filter="url(#filter0_f_2025_821)">
<path d="M11.9987 1.5C17.7969 1.5 22.4973 6.20049 22.4973 11.9987C22.4973 17.797 17.7969 22.4973 11.9987 22.4973C6.20042 22.4973 1.50002 17.797 1.50002 11.9987C1.50002 6.20049 6.20042 1.5 11.9987 1.5Z" fill="black" fill-opacity="0.25"/>
</g>
<path id="Background" d="M11.9987 1.5C17.7969 1.5 22.4973 6.20049 22.4973 11.9987C22.4973 17.797 17.7969 22.4973 11.9987 22.4973C6.20042 22.4973 1.50002 17.797 1.50002 11.9987C1.50002 6.20049 6.20042 1.5 11.9987 1.5Z" fill="url(#paint0_linear_2025_821)"/>
<path id="Border" d="M11.9987 1.5C17.7969 1.5 22.4973 6.20049 22.4973 11.9987C22.4973 17.797 17.7969 22.4973 11.9987 22.4973C6.20042 22.4973 1.50002 17.797 1.50002 11.9987C1.50002 6.20049 6.20042 1.5 11.9987 1.5Z" stroke="#1A1A1A" stroke-opacity="0.5" stroke-width="0.5"/>
<path id="Light" d="M11.9975 2.15389C17.4339 2.15389 21.8411 6.56109 21.8411 11.9976C21.8411 17.434 17.4339 21.8411 11.9975 21.8411C6.56101 21.8411 2.15388 17.434 2.15388 11.9976C2.15388 6.56109 6.56101 2.15389 11.9975 2.15389Z" stroke="url(#paint1_linear_2025_821)" stroke-width="0.5"/>
</g>
<g id="Frame">
<path id="Vector" d="M16.2426 14.8593L15.2998 13.9165L16.2426 12.9737C17.5443 11.672 17.5443 9.5614 16.2426 8.25965C14.9408 6.9579 12.8302 6.9579 11.5285 8.25965L10.5857 9.20246L9.64289 8.25965L10.5857 7.31684C12.4082 5.49439 15.3629 5.49439 17.1854 7.31684C19.0078 9.13928 19.0078 12.094 17.1854 13.9165L16.2426 14.8593ZM14.3569 16.745L13.4141 17.6878C11.5917 19.5102 8.63691 19.5102 6.81447 17.6878C4.99202 15.8653 4.99202 12.9105 6.81447 11.0881L7.75727 10.1453L8.70009 11.0881L7.75727 12.0309C6.45553 13.3326 6.45553 15.4432 7.75727 16.745C9.05902 18.0467 11.1696 18.0467 12.4713 16.745L13.4141 15.8021L14.3569 16.745ZM13.8855 9.67386L14.8284 10.6167L10.1143 15.3307L9.17149 14.3879L13.8855 9.67386Z" fill="#1A1A1A" fill-opacity="0.5"/>
<path id="Vector_2" d="M16.2426 14.357L15.2998 13.4142L16.2426 12.4714C17.5443 11.1697 17.5443 9.05911 16.2426 7.75736C14.9408 6.45561 12.8302 6.45561 11.5285 7.75736L10.5857 8.70017L9.64289 7.75736L10.5857 6.81455C12.4082 4.9921 15.3629 4.9921 17.1854 6.81455C19.0078 8.63699 19.0078 11.5917 17.1854 13.4142L16.2426 14.357ZM14.3569 16.2427L13.4141 17.1855C11.5917 19.0079 8.63691 19.0079 6.81447 17.1855C4.99202 15.363 4.99202 12.4082 6.81447 10.5858L7.75727 9.64297L8.70009 10.5858L7.75727 11.5286C6.45553 12.8303 6.45553 14.9409 7.75727 16.2427C9.05902 17.5444 11.1696 17.5444 12.4713 16.2427L13.4141 15.2998L14.3569 16.2427ZM13.8855 9.17157L14.8284 10.1144L10.1143 14.8284L9.17149 13.8856L13.8855 9.17157Z" fill="white"/>
</g>
</g>
<defs>
<filter id="filter0_f_2025_821" x="0.26" y="0.26" width="23.4773" height="23.4773" filterUnits="userSpaceOnUse" color-interpolation-filters="sRGB">
<feFlood flood-opacity="0" result="BackgroundImageFix"/>
<feBlend mode="normal" in="SourceGraphic" in2="BackgroundImageFix" result="shape"/>
<feGaussianBlur stdDeviation="0.62" result="effect1_foregroundBlur_2025_821"/>
</filter>
<linearGradient id="paint0_linear_2025_821" x1="12.0001" y1="1.5" x2="12.0001" y2="22.5" gradientUnits="userSpaceOnUse">
<stop stop-color="#808080"/>
<stop offset="1" stop-color="#4D4D4D"/>
</linearGradient>
<linearGradient id="paint1_linear_2025_821" x1="11.9975" y1="21.8411" x2="11.9975" y2="2.15389" gradientUnits="userSpaceOnUse">
<stop stop-color="white" stop-opacity="0.3"/>
<stop offset="0.211538" stop-color="white" stop-opacity="0.15"/>
<stop offset="0.798077" stop-color="white" stop-opacity="0.25"/>
<stop offset="1" stop-color="white" stop-opacity="0.4"/>
</linearGradient>
<clipPath id="clip0_2025_821">
<rect width="24" height="24" fill="white"/>
</clipPath>
<clipPath id="clip1_2025_821">
<rect width="24" height="24" fill="white"/>
</clipPath>
</defs>
</svg>
