<svg width="24" height="24" viewBox="0 0 24 24" fill="none" xmlns="http://www.w3.org/2000/svg">
<g id="emblem-checked" clip-path="url(#clip0_2024_511)">
<g id="Emblem" clip-path="url(#clip1_2024_511)">
<g id="Shadow" filter="url(#filter0_f_2024_511)">
<path d="M11.9987 1.5C17.7969 1.5 22.4973 6.20049 22.4973 11.9987C22.4973 17.797 17.7969 22.4973 11.9987 22.4973C6.20042 22.4973 1.50002 17.797 1.50002 11.9987C1.50002 6.20049 6.20042 1.5 11.9987 1.5Z" fill="black" fill-opacity="0.25"/>
</g>
<path id="Background" d="M11.9987 1.5C17.7969 1.5 22.4973 6.20049 22.4973 11.9987C22.4973 17.797 17.7969 22.4973 11.9987 22.4973C6.20042 22.4973 1.50002 17.797 1.50002 11.9987C1.50002 6.20049 6.20042 1.5 11.9987 1.5Z" fill="url(#paint0_linear_2024_511)"/>
<path id="Border" d="M11.9987 1.5C17.7969 1.5 22.4973 6.20049 22.4973 11.9987C22.4973 17.797 17.7969 22.4973 11.9987 22.4973C6.20042 22.4973 1.50002 17.797 1.50002 11.9987C1.50002 6.20049 6.20042 1.5 11.9987 1.5Z" stroke="#0A3BAD" stroke-opacity="0.5" stroke-width="0.5"/>
<path id="Light" d="M11.9975 2.15389C17.4339 2.15389 21.8411 6.56109 21.8411 11.9976C21.8411 17.434 17.4339 21.8411 11.9975 21.8411C6.56101 21.8411 2.15388 17.434 2.15388 11.9976C2.15388 6.56109 6.56101 2.15389 11.9975 2.15389Z" stroke="url(#paint1_linear_2024_511)" stroke-width="0.5"/>
</g>
<g id="Frame">
<path id="Vector" d="M10.6665 14.6183L16.7947 8.49L17.7375 9.4328L10.6665 16.5039L6.42383 12.2613L7.36664 11.3185L10.6665 14.6183Z" fill="#0A3BAD" fill-opacity="0.5"/>
<path id="Vector_2" d="M10.6665 14.1139L16.7947 7.98568L17.7375 8.92849L10.6665 15.9995L6.42383 11.7569L7.36664 10.8141L10.6665 14.1139Z" fill="white"/>
</g>
</g>
<defs>
<filter id="filter0_f_2024_511" x="0.26" y="0.26" width="23.4773" height="23.4773" filterUnits="userSpaceOnUse" color-interpolation-filters="sRGB">
<feFlood flood-opacity="0" result="BackgroundImageFix"/>
<feBlend mode="normal" in="SourceGraphic" in2="BackgroundImageFix" result="shape"/>
<feGaussianBlur stdDeviation="0.62" result="effect1_foregroundBlur_2024_511"/>
</filter>
<linearGradient id="paint0_linear_2024_511" x1="11.9975" y1="1.49765" x2="11.9975" y2="22.4973" gradientUnits="userSpaceOnUse">
<stop stop-color="#2AC9F2"/>
<stop offset="1" stop-color="#2C74F1"/>
</linearGradient>
<linearGradient id="paint1_linear_2024_511" x1="11.9975" y1="21.8411" x2="11.9975" y2="2.15389" gradientUnits="userSpaceOnUse">
<stop stop-color="white" stop-opacity="0.3"/>
<stop offset="0.211538" stop-color="white" stop-opacity="0.15"/>
<stop offset="0.798077" stop-color="white" stop-opacity="0.25"/>
<stop offset="1" stop-color="white" stop-opacity="0.4"/>
</linearGradient>
<clipPath id="clip0_2024_511">
<rect width="24" height="24" fill="white"/>
</clipPath>
<clipPath id="clip1_2024_511">
<rect width="24" height="24" fill="white"/>
</clipPath>
</defs>
</svg>
