<?xml version="1.0" encoding="UTF-8" standalone="no"?>
<svg xmlns:dc="http://purl.org/dc/elements/1.1/" xmlns:cc="http://creativecommons.org/ns#" xmlns:rdf="http://www.w3.org/1999/02/22-rdf-syntax-ns#" xmlns:svg="http://www.w3.org/2000/svg" xmlns="http://www.w3.org/2000/svg" xmlns:sodipodi="http://sodipodi.sourceforge.net/DTD/sodipodi-0.dtd" xmlns:inkscape="http://www.inkscape.org/namespaces/inkscape" width="64" height="64" version="1.1" id="svg17" sodipodi:docname="preferences-web-browser-stylesheets.svg" inkscape:version="1.0.1 (3bc2e813f5, 2020-09-07)">
  <metadata id="metadata21">
    <rdf:RDF>
      <cc:Work rdf:about="">
        <dc:format>image/svg+xml</dc:format>
        <dc:type rdf:resource="http://purl.org/dc/dcmitype/StillImage"/>
        <dc:title/>
      </cc:Work>
    </rdf:RDF>
  </metadata>
  <defs id="defs7">
    <linearGradient id="a" x1="40" x2="40" y1="59" y2="15" gradientUnits="userSpaceOnUse" gradientTransform="translate(95.085096)">
      <stop offset="0" id="stop2"/>
      <stop stop-opacity="0" offset="1" id="stop4"/>
    </linearGradient>
    <linearGradient id="a-35" x1="40" x2="40" y1="59" y2="15" gradientUnits="userSpaceOnUse" gradientTransform="translate(70.885227)">
      <stop offset="0" id="stop2-6"/>
      <stop stop-opacity="0" offset="1" id="stop4-2"/>
    </linearGradient>
    <linearGradient id="a-3" x1="40" x2="40" y1="59" y2="15" gradientUnits="userSpaceOnUse" gradientTransform="translate(73.448499)">
      <stop offset="0" id="stop2-5"/>
      <stop stop-opacity="0" offset="1" id="stop4-6"/>
    </linearGradient>
    <filter id="filter2761" x="-.024" y="-.024" width="1.048" height="1.048" color-interpolation-filters="sRGB">
      <feGaussianBlur stdDeviation="0.14552168" id="feGaussianBlur846"/>
    </filter>
    <linearGradient id="linearGradient1024" x1="1.3315" x2="15.65" y1="15.576" y2="1.17" gradientUnits="userSpaceOnUse" gradientTransform="matrix(3.779602,0,0,3.779602,-0.00321238,0.53084538)">
      <stop stop-color="#00c8ff" offset="0" id="stop849"/>
      <stop stop-color="#14a0ff" offset="1" id="stop851"/>
    </linearGradient>
    <filter id="filter985" x="-.059096" y="-.060921" width="1.1182" height="1.1218" color-interpolation-filters="sRGB">
      <feGaussianBlur stdDeviation="0.21619832" id="feGaussianBlur854"/>
    </filter>
    <filter id="filter1015" x="-.084" y="-.084" width="1.168" height="1.168" color-interpolation-filters="sRGB">
      <feGaussianBlur stdDeviation="0.3089756" id="feGaussianBlur857"/>
    </filter>
    <linearGradient id="linearGradient1025" x1="7.9876" x2="12.91" y1="7.7203" y2="12.495" gradientUnits="userSpaceOnUse">
      <stop stop-color="#fafaff" offset="0" id="stop860"/>
      <stop stop-color="#a1d8ff" offset="1" id="stop862"/>
    </linearGradient>
    <filter id="filter2761-3" x="-.024" y="-.024" width="1.048" height="1.048" color-interpolation-filters="sRGB">
      <feGaussianBlur stdDeviation="0.14552168" id="feGaussianBlur2"/>
    </filter>
    <linearGradient id="linearGradient1024-6" x1="1.3315" x2="15.65" y1="15.576" y2="1.17" gradientUnits="userSpaceOnUse" gradientTransform="translate(0.7523229,-6.0494795)">
      <stop stop-color="#00c8ff" offset="0" id="stop5"/>
      <stop stop-color="#14a0ff" offset="1" id="stop7"/>
    </linearGradient>
    <filter id="filter914" x="-.085107" y="-.082922" width="1.1702" height="1.1658" color-interpolation-filters="sRGB">
      <feGaussianBlur stdDeviation="0.33551342" id="feGaussianBlur10"/>
    </filter>
    
    <filter id="filter1057" x="-.027" y="-.027" width="1.054" height="1.054" color-interpolation-filters="sRGB">
      <feGaussianBlur stdDeviation="0.61875" id="feGaussianBlur864"/>
    </filter>
    <linearGradient id="linearGradient1053" x1="-127" x2="-72" y1="60" y2="5" gradientTransform="translate(131.5,-0.51000031)" gradientUnits="userSpaceOnUse">
      <stop stop-color="#32d7ff" offset="0" id="stop867"/>
      <stop stop-color="#329bff" offset="1" id="stop869"/>
    </linearGradient>
    
    
    
    
    
    
    
  <radialGradient xmlns="http://www.w3.org/2000/svg" id="gradient_ds_br" cx="0" cy="0" r="1" gradientUnits="userSpaceOnUse" gradientTransform="matrix(13.998399,0.00477622,-0.00477841,14.004799,47.5016,48.4952)">
      <stop offset="0.65" id="stop1"/>
      <stop offset="1" stop-opacity="0" id="stop2"/>
    </radialGradient><linearGradient xmlns="http://www.w3.org/2000/svg" id="gradient_ds_b" x1="30.448999" y1="48.5" x2="30.492201" y2="62.500301" gradientUnits="userSpaceOnUse">
      <stop offset="0.653846" id="stop3"/>
      <stop offset="1" stop-opacity="0" id="stop4"/>
    </linearGradient><radialGradient xmlns="http://www.w3.org/2000/svg" id="gradient_ds_bl" cx="0" cy="0" r="1" gradientUnits="userSpaceOnUse" gradientTransform="matrix(0,14,-14,0,16.5,48.5)">
      <stop offset="0.65" id="stop5"/>
      <stop offset="1" stop-opacity="0" id="stop6"/>
    </radialGradient><linearGradient xmlns="http://www.w3.org/2000/svg" id="gradient_ds_r" x1="47.5" y1="33.5" x2="61.5" y2="33.5009" gradientUnits="userSpaceOnUse">
      <stop offset="0.649038" id="stop7"/>
      <stop offset="1" stop-opacity="0" id="stop8"/>
    </linearGradient><linearGradient xmlns="http://www.w3.org/2000/svg" id="gradient_ds_l" x1="16.5" y1="33.894699" x2="2.5" y2="33.894699" gradientUnits="userSpaceOnUse">
      <stop offset="0.649038" id="stop9"/>
      <stop offset="1" stop-opacity="0" id="stop10"/>
    </linearGradient><radialGradient xmlns="http://www.w3.org/2000/svg" id="gradient_ds_tr" cx="0" cy="0" r="1" gradientTransform="matrix(0.00843236,-14,14.0084,0.0189842,47.4916,18.5)" gradientUnits="userSpaceOnUse">
      <stop offset="0.65" id="stop11"/>
      <stop offset="1" stop-opacity="0" id="stop12"/>
    </radialGradient><linearGradient xmlns="http://www.w3.org/2000/svg" id="gradient_ds_t" x1="29.98" y1="18.5" x2="29.9158" y2="4.4998598" gradientUnits="userSpaceOnUse">
      <stop offset="0.649038" id="stop13"/>
      <stop offset="1" stop-opacity="0" id="stop14"/>
    </linearGradient><radialGradient xmlns="http://www.w3.org/2000/svg" id="gradient_ds_tl" cx="0" cy="0" r="1" gradientTransform="matrix(-0.00843236,-14,-14.0084,0.0189842,16.5084,18.5)" gradientUnits="userSpaceOnUse">
      <stop offset="0.65" id="stop15"/>
      <stop offset="1" stop-opacity="0" id="stop16"/>
    </radialGradient></defs>
  
  <g xmlns="http://www.w3.org/2000/svg" id="ds" opacity="0.25">
    <path id="ds-br" d="m 47.5,48.5 h 14 v 14 h -14 z" fill="url(#gradient_ds_br)" style="fill:url(#gradient_ds_br)"/>
    <path id="ds-b" d="m 16.5,48.5 h 31 v 14 h -31 z" fill="url(#gradient_ds_b)" style="fill:url(#gradient_ds_b)"/>
    <path id="ds-bl" d="m 2.5,48.5 h 14 v 14 h -14 z" fill="url(#gradient_ds_bl)" style="fill:url(#gradient_ds_bl)"/>
    <path id="ds-r" d="m 47.5,18.5 h 14 v 30 h -14 z" fill="url(#gradient_ds_r)" style="fill:url(#gradient_ds_r)"/>
    <path id="ds-l" d="m 2.5,18.5 h 14 v 30 h -14 z" fill="url(#gradient_ds_l)" style="fill:url(#gradient_ds_l)"/>
    <path id="ds-tr" d="m 47.5,4.5 h 14 v 14 h -14 z" fill="url(#gradient_ds_tr)" style="fill:url(#gradient_ds_tr)"/>
    <path id="ds-t" d="m 16.5,4.5 h 31 v 14 h -31 z" fill="url(#gradient_ds_t)" style="fill:url(#gradient_ds_t)"/>
    <path id="ds-tl" d="m 16.5,4.5 h -14 v 14 h 14 z" fill="url(#gradient_ds_tl)" style="fill:url(#gradient_ds_tl)"/>
  </g><rect x="4.5" y="4.5" width="55" height="55" fill="url(#linearGradient1053)" stroke-linecap="round" stroke-width="2.7444" id="bg" style="fill:url(#linearGradient1053)" rx="10"/>
  <g id="art"><circle cx="8.4673996" cy="8.3260002" r="4.4138999" fill="#1496ff" filter="url(#filter1015)" id="circle873" transform="matrix(3.779602,0,0,3.779602,-0.00321238,0.53084538)"/><g transform="matrix(3.779602,0,0,3.779602,-0.91194209,-0.57431024)" id="g885">
    <path d="m 13.048,7.8742 a 2.6848,5.7985 52.956 0 1 -0.18913,0.32349 2.6848,5.7985 52.956 0 1 -0.27698,0.40824 2.6848,5.7985 52.956 0 1 -0.31625,0.40927 2.6848,5.7985 52.956 0 1 -0.35191,0.4072 2.6848,5.7985 52.956 0 1 -0.38395,0.39997 2.6848,5.7985 52.956 0 1 -0.41289,0.38912 2.6848,5.7985 52.956 0 1 -0.43666,0.37465 2.6848,5.7985 52.956 0 1 -0.32194,0.25424 2.6848,5.7985 52.956 0 1 -0.46818,0.34106 2.6848,5.7985 52.956 0 1 -0.48058,0.31677 2.6848,5.7985 52.956 0 1 -0.48782,0.28887 2.6848,5.7985 52.956 0 1 -0.48988,0.25838 2.6848,5.7985 52.956 0 1 -0.4873,0.22582 2.6848,5.7985 52.956 0 1 -0.48058,0.19068 2.6848,5.7985 52.956 0 1 -0.3979,0.13022 4.4139,4.4139 0 0 0 1.6159,0.31057 4.4139,4.4139 0 0 0 4.4136,-4.4141 4.4139,4.4139 0 0 0 -0.04754,-0.61442 z" fill="#ffffff" opacity="0.55" id="path875"/>
    <path transform="matrix(0.93108,0,0,0.94458,0.98435,0.77737)" d="m 8.6817,4.075 a 4.4139,4.4139 0 0 0 -4.4141,4.4136 4.4139,4.4139 0 0 0 0.11989,0.99889 4.4139,4.4139 0 0 0 2.6783,3.1047 2.6848,5.7985 52.956 0 0 0.3979,-0.13022 2.6848,5.7985 52.956 0 0 0.48058,-0.19068 2.6848,5.7985 52.956 0 0 0.4873,-0.22582 2.6848,5.7985 52.956 0 0 0.48988,-0.25838 2.6848,5.7985 52.956 0 0 0.48782,-0.28887 2.6848,5.7985 52.956 0 0 0.48058,-0.31677 2.6848,5.7985 52.956 0 0 0.46818,-0.34106 2.6848,5.7985 52.956 0 0 0.32194,-0.25424 2.6848,5.7985 52.956 0 0 0.43666,-0.37465 2.6848,5.7985 52.956 0 0 0.41289,-0.38912 2.6848,5.7985 52.956 0 0 0.38395,-0.39997 2.6848,5.7985 52.956 0 0 0.35191,-0.4072 2.6848,5.7985 52.956 0 0 0.31625,-0.40927 2.6848,5.7985 52.956 0 0 0.27698,-0.40824 2.6848,5.7985 52.956 0 0 0.18913,-0.32349 4.4139,4.4139 0 0 0 -2.0665,-3.147 4.4139,4.4139 0 0 0 -2.2996,-0.65214 z" fill="#0096ff" filter="url(#filter985)" opacity="0.25" id="path877"/>
    <path d="m 8.6817,4.075 a 4.4139,4.4139 0 0 0 -4.4141,4.4136 4.4139,4.4139 0 0 0 0.11989,0.99889 4.4139,4.4139 0 0 0 2.6783,3.1047 2.6848,5.7985 52.956 0 0 0.3979,-0.13022 2.6848,5.7985 52.956 0 0 0.48058,-0.19068 2.6848,5.7985 52.956 0 0 0.4873,-0.22582 2.6848,5.7985 52.956 0 0 0.48988,-0.25838 2.6848,5.7985 52.956 0 0 0.48782,-0.28887 2.6848,5.7985 52.956 0 0 0.48058,-0.31677 2.6848,5.7985 52.956 0 0 0.46818,-0.34106 2.6848,5.7985 52.956 0 0 0.32194,-0.25424 2.6848,5.7985 52.956 0 0 0.43666,-0.37465 2.6848,5.7985 52.956 0 0 0.41289,-0.38912 2.6848,5.7985 52.956 0 0 0.38395,-0.39997 2.6848,5.7985 52.956 0 0 0.35191,-0.4072 2.6848,5.7985 52.956 0 0 0.31625,-0.40927 2.6848,5.7985 52.956 0 0 0.27698,-0.40824 2.6848,5.7985 52.956 0 0 0.18913,-0.32349 4.4139,4.4139 0 0 0 -2.0665,-3.147 4.4139,4.4139 0 0 0 -2.2996,-0.65214 z" fill="url(#linearGradient1025)" id="path879" style="fill:url(#linearGradient1025)"/>
    <path d="m 13.039,7.8737 a 2.6848,5.7985 52.956 0 0 0.2408,-2.6515 2.6848,5.7985 52.956 0 0 -2.3083,-0.49505 4.4139,4.4139 0 0 1 0.19327,0.11885 4.4139,4.4139 0 0 1 0.35139,0.26665 4.4139,4.4139 0 0 1 0.32297,0.30075 4.4139,4.4139 0 0 1 0.29093,0.33176 4.4139,4.4139 0 0 1 0.25683,0.35863 4.4139,4.4139 0 0 1 0.21962,0.38292 4.4139,4.4139 0 0 1 0.18035,0.40255 4.4139,4.4139 0 0 1 0.13901,0.41857 4.4139,4.4139 0 0 1 0.09663,0.43046 4.4139,4.4139 0 0 1 0.01654,0.13539 z" fill="#ffffff" opacity="0.55" id="path881"/>
    <path d="M 4.4055,9.4875 A 2.6848,5.7985 52.956 0 0 4.09235,12.263 2.6848,5.7985 52.956 0 0 7.08385,12.59217 4.4139,4.4139 0 0 1 6.9805,12.55445 4.4139,4.4139 0 0 1 6.58311,12.36222 4.4139,4.4139 0 0 1 6.20743,12.13175 4.4139,4.4139 0 0 1 5.85604,11.86459 4.4139,4.4139 0 0 1 5.53307,11.56384 4.4139,4.4139 0 0 1 5.24214,11.2326 4.4139,4.4139 0 0 1 4.98531,10.87346 4.4139,4.4139 0 0 1 4.76569,10.49106 4.4139,4.4139 0 0 1 4.58534,10.08799 4.4139,4.4139 0 0 1 4.44633,9.66942 4.4139,4.4139 0 0 1 4.40551,9.48752 Z" fill="#ffffff" opacity="0.55" id="path883"/>
  </g><path style="color:#000000;font-style:normal;font-variant:normal;font-weight:normal;font-stretch:normal;font-size:medium;line-height:normal;font-family:sans-serif;font-variant-ligatures:normal;font-variant-position:normal;font-variant-caps:normal;font-variant-numeric:normal;font-variant-alternates:normal;font-variant-east-asian:normal;font-feature-settings:normal;font-variation-settings:normal;text-indent:0;text-align:start;text-decoration:none;text-decoration-line:none;text-decoration-style:solid;text-decoration-color:#000000;letter-spacing:normal;word-spacing:normal;text-transform:none;writing-mode:lr-tb;direction:ltr;text-orientation:mixed;dominant-baseline:auto;baseline-shift:baseline;text-anchor:start;white-space:normal;shape-padding:0;shape-margin:0;inline-size:0;clip-rule:nonzero;display:inline;overflow:visible;visibility:visible;isolation:auto;mix-blend-mode:normal;color-interpolation:sRGB;color-interpolation-filters:linearRGB;solid-color:#000000;solid-opacity:1;vector-effect:none;fill:#004b87;fill-opacity:1;fill-rule:nonzero;stroke:none;stroke-width:0.714286;stroke-linecap:butt;stroke-linejoin:miter;stroke-miterlimit:4;stroke-dasharray:none;stroke-dashoffset:0;stroke-opacity:1;color-rendering:auto;image-rendering:auto;shape-rendering:auto;text-rendering:auto;enable-background:accumulate;stop-color:#000000" d="m 43.623641,30.969522 c -2.538571,0 -3.602857,1.008571 -3.602857,3.585714 v 2.058572 c 0,1.591428 -0.04857,3.434285 -1.45,3.434285 H 37.84507 v 1.842858 h 0.725714 c 1.401429,0 1.45,1.842857 1.45,3.434285 v 2.058572 c 0,2.577143 1.064286,3.585714 3.602857,3.585714 v -1.691429 c -1.692857,0 -1.715714,-0.682857 -1.715714,-3.157142 v -1.451429 c 0,-1.187143 -0.292857,-2.954286 -1.718571,-3.685714 1.425714,-0.732857 1.718571,-2.501429 1.718571,-3.688572 v -1.477143 c 0,-2.474285 0.02286,-3.157142 1.714286,-3.157142 z m 2.705715,0 v 1.691429 c 1.692857,0 1.738571,0.682857 1.738571,3.157142 v 1.477143 c 0,1.185715 0.292857,2.957143 1.718572,3.688572 -1.425715,0.731428 -1.718572,2.498571 -1.718572,3.685714 v 1.451429 c 0,2.474285 -0.04571,3.157142 -1.738571,3.157142 v 1.691429 c 2.538571,0 3.625714,-1.008571 3.625714,-3.585714 v -2.057143 c 0,-1.591429 0.09714,-3.434286 1.475714,-3.434286 h 0.7 v -1.842857 h -0.7 c -1.378571,0 -1.475714,-1.842857 -1.475714,-3.434286 v -2.06 c 0,-2.577143 -1.085714,-3.585714 -3.625714,-3.585714 z" id="path1016"/></g>
  
  
</svg>
