<?xml version="1.0" encoding="UTF-8" standalone="no"?>
<svg xmlns:inkscape="http://www.inkscape.org/namespaces/inkscape" xmlns:sodipodi="http://sodipodi.sourceforge.net/DTD/sodipodi-0.dtd" xmlns="http://www.w3.org/2000/svg" xmlns:svg="http://www.w3.org/2000/svg" xmlns:rdf="http://www.w3.org/1999/02/22-rdf-syntax-ns#" xmlns:cc="http://creativecommons.org/ns#" xmlns:dc="http://purl.org/dc/elements/1.1/" width="64" height="64" version="1.1" viewBox="0 0 64 64" id="svg10" sodipodi:docname="preferences-system-privacy.svg" inkscape:version="1.4.2 (ebf0e940d0, 2025-05-08)">
  <defs id="defs4">
    <filter id="filter1057-6" x="-0.026999999" y="-0.026999999" width="1.054" height="1.054" color-interpolation-filters="sRGB">
      <feGaussianBlur stdDeviation="0.61875" id="feGaussianBlur1"/>
    </filter>
    <linearGradient id="linearGradient1053-1" x1="-127" x2="-72" y1="60" y2="5" gradientTransform="matrix(1.0000071,0,0,1.0000071,131.5018,-0.51001949)" gradientUnits="userSpaceOnUse">
      <stop stop-color="#a53cff" offset="0" id="stop1"/>
      <stop stop-color="#b496ff" offset="1" id="stop2"/>
    </linearGradient>
    <linearGradient id="linearGradient2997" x1="26.531" x2="44.536999" y1="35.030998" y2="35.030998" gradientTransform="matrix(0.294,0,0,0.294,-0.85623,-1.9307)" gradientUnits="userSpaceOnUse">
      <stop stop-color="#32dcff" offset="0" id="stop3"/>
      <stop stop-color="#3296ff" offset="1" id="stop4"/>
    </linearGradient>
    <filter id="filter1057-6-3" x="-0.026999999" y="-0.026999999" width="1.054" height="1.054" color-interpolation-filters="sRGB">
      <feGaussianBlur stdDeviation="0.61875" id="feGaussianBlur1-6"/>
    </filter>
  <radialGradient id="gradient_ds_br" cx="0" cy="0" r="1" gradientUnits="userSpaceOnUse" gradientTransform="matrix(13.998399,0.00477622,-0.00477841,14.004799,47.5016,48.4952)">
      <stop offset="0.65" id="stop1"/>
      <stop offset="1" stop-opacity="0" id="stop2"/>
    </radialGradient><linearGradient id="gradient_ds_b" x1="30.448999" y1="48.5" x2="30.492201" y2="62.500301" gradientUnits="userSpaceOnUse">
      <stop offset="0.653846" id="stop3"/>
      <stop offset="1" stop-opacity="0" id="stop4"/>
    </linearGradient><radialGradient id="gradient_ds_bl" cx="0" cy="0" r="1" gradientUnits="userSpaceOnUse" gradientTransform="matrix(0,14,-14,0,16.5,48.5)">
      <stop offset="0.65" id="stop5"/>
      <stop offset="1" stop-opacity="0" id="stop6"/>
    </radialGradient><linearGradient id="gradient_ds_r" x1="47.5" y1="33.5" x2="61.5" y2="33.5009" gradientUnits="userSpaceOnUse">
      <stop offset="0.649038" id="stop7"/>
      <stop offset="1" stop-opacity="0" id="stop8"/>
    </linearGradient><linearGradient id="gradient_ds_l" x1="16.5" y1="33.894699" x2="2.5" y2="33.894699" gradientUnits="userSpaceOnUse">
      <stop offset="0.649038" id="stop9"/>
      <stop offset="1" stop-opacity="0" id="stop10"/>
    </linearGradient><radialGradient id="gradient_ds_tr" cx="0" cy="0" r="1" gradientTransform="matrix(0.00843236,-14,14.0084,0.0189842,47.4916,18.5)" gradientUnits="userSpaceOnUse">
      <stop offset="0.65" id="stop11"/>
      <stop offset="1" stop-opacity="0" id="stop12"/>
    </radialGradient><linearGradient id="gradient_ds_t" x1="29.98" y1="18.5" x2="29.9158" y2="4.4998598" gradientUnits="userSpaceOnUse">
      <stop offset="0.649038" id="stop13"/>
      <stop offset="1" stop-opacity="0" id="stop14"/>
    </linearGradient><radialGradient id="gradient_ds_tl" cx="0" cy="0" r="1" gradientTransform="matrix(-0.00843236,-14,-14.0084,0.0189842,16.5084,18.5)" gradientUnits="userSpaceOnUse">
      <stop offset="0.65" id="stop15"/>
      <stop offset="1" stop-opacity="0" id="stop16"/>
    </radialGradient></defs>
  <metadata id="metadata4">
    <rdf:RDF>
      <cc:Work rdf:about="">
        <dc:format>image/svg+xml</dc:format>
        <dc:type rdf:resource="http://purl.org/dc/dcmitype/StillImage"/>
      </cc:Work>
    </rdf:RDF>
  </metadata>
  
  <g id="ds" opacity="0.25">
    <path id="ds-br" d="m 47.5,48.5 h 14 v 14 h -14 z" fill="url(#gradient_ds_br)" style="fill:url(#gradient_ds_br)"/>
    <path id="ds-b" d="m 16.5,48.5 h 31 v 14 h -31 z" fill="url(#gradient_ds_b)" style="fill:url(#gradient_ds_b)"/>
    <path id="ds-bl" d="m 2.5,48.5 h 14 v 14 h -14 z" fill="url(#gradient_ds_bl)" style="fill:url(#gradient_ds_bl)"/>
    <path id="ds-r" d="m 47.5,18.5 h 14 v 30 h -14 z" fill="url(#gradient_ds_r)" style="fill:url(#gradient_ds_r)"/>
    <path id="ds-l" d="m 2.5,18.5 h 14 v 30 h -14 z" fill="url(#gradient_ds_l)" style="fill:url(#gradient_ds_l)"/>
    <path id="ds-tr" d="m 47.5,4.5 h 14 v 14 h -14 z" fill="url(#gradient_ds_tr)" style="fill:url(#gradient_ds_tr)"/>
    <path id="ds-t" d="m 16.5,4.5 h 31 v 14 h -31 z" fill="url(#gradient_ds_t)" style="fill:url(#gradient_ds_t)"/>
    <path id="ds-tl" d="m 16.5,4.5 h -14 v 14 h 14 z" fill="url(#gradient_ds_tl)" style="fill:url(#gradient_ds_tl)"/>
  </g><rect x="4.5" y="4.5" width="55" height="55" fill="url(#linearGradient1053-1)" stroke-linecap="round" stroke-width="2.74444" id="bg" style="fill:url(#linearGradient1053-1)" rx="10"/>
  <g stroke-width="1.1112" id="art" transform="matrix(3.779602,0,0,3.779602,-4.2501624,0.57143803)">
    <path d="M 14.774,7.9867 C 14.66288,7.83113 14.54176,7.68667 14.4184,7.54222 13.75945,6.76993 13.0027,6.08212 12.1737,5.58312 11.64476,5.2631 11.0769,5.00528 10.4902,4.88306 A 4.4415,4.4415 0 0 0 9.5901,4.786385 c -0.2978,0 -0.59671,0.033337 -0.89566,0.095563 -0.58783,0.12446 -1.1523,0.38115 -1.6824,0.70009 -0.82898,0.50004 -1.5868,1.189 -2.2491,1.9602 -0.12224,0.14335 -0.24002,0.28892 -0.35116,0.44448 a 0.53338,0.53338 0 0 0 0,0.65563 c 0.33669,0.47338 0.73895,0.89231 1.1446,1.2779 0.88007,0.82454 1.888,1.5157 2.998,1.7957 a 4.2316,4.2316 0 0 0 2.0702,0 c 1.1101,-0.28003 2.1191,-0.97122 3.0003,-1.7968 a 8.7599,8.7599 0 0 0 1.1468,-1.2757 0.54117,0.54117 0 0 0 0,-0.65672" fill="#fafafa" id="path5"/>
    <path d="m 12.24,8.3145 a 2.6469,2.6469 0 1 1 -5.2927,0 2.6469,2.6469 0 0 1 5.2927,0" fill="url(#linearGradient2997)" id="path6" style="fill:url(#linearGradient2997)"/>
    <path d="m 11.064,8.3145 a 1.4696,1.4696 0 1 1 -2.9392,0 1.4696,1.4696 0 0 1 2.9392,0" fill="#141414" id="path7"/>
    <path d="m 10.769,7.7265 a 0.58785,0.58785 0 1 1 -1.1757,0 0.58785,0.58785 0 0 1 1.1757,0" fill="#f9f9f9" id="path8"/>
    <path d="M 11.647,5.2919 6.8688,10.958 c 0.2178,0.14112 0.44004,0.26669 0.66895,0.38003 l 4.7749,-5.6672 C 12.10041,5.52193 11.85259,5.39747 11.64591,5.293" fill="#d5122d" id="path9"/>
  </g>
</svg>
