<?xml version="1.0" encoding="UTF-8" standalone="no"?>
<svg xmlns:inkscape="http://www.inkscape.org/namespaces/inkscape" xmlns:sodipodi="http://sodipodi.sourceforge.net/DTD/sodipodi-0.dtd" xmlns:xlink="http://www.w3.org/1999/xlink" xmlns="http://www.w3.org/2000/svg" xmlns:svg="http://www.w3.org/2000/svg" width="64" height="64" version="1.1" id="svg2" sodipodi:docname="betterbird.svg" xml:space="preserve" inkscape:version="1.4 (e7c3feb100, 2024-10-09)">
  
  <defs id="defs2">
    <linearGradient id="linearGradient3" inkscape:collect="always">
      <stop style="stop-color:#f2a416;stop-opacity:1" offset="0" id="stop3"/>
      <stop style="stop-color:#e30000;stop-opacity:1" offset="1" id="stop4"/>
    </linearGradient>
    <linearGradient id="a" x1="7.937" x2="7.937" y1="15.081" y2="1.852" gradientTransform="matrix(3.7796,0,0,3.7796,82.02584,0)" gradientUnits="userSpaceOnUse">
      <stop offset="0" stop-color="#f1efeb" id="stop1"/>
      <stop offset="1" stop-color="#fdfcfc" id="stop2"/>
    </linearGradient>
    <filter inkscape:collect="always" style="color-interpolation-filters:sRGB" id="filter1057" x="-0.026999999" width="1.054" y="-0.026999999" height="1.054">
      <feGaussianBlur inkscape:collect="always" stdDeviation="0.61875" id="feGaussianBlur1059"/>
    </filter>
    <linearGradient inkscape:collect="always" xlink:href="#linearGradient1051" id="linearGradient1053" x1="-127" y1="60" x2="-72" y2="5" gradientUnits="userSpaceOnUse" gradientTransform="translate(131.5,-0.50999771)"/>
    <linearGradient inkscape:collect="always" id="linearGradient1051">
      <stop style="stop-color:#dee0e2;stop-opacity:1" offset="0" id="stop1047"/>
      <stop style="stop-color:#f1f3f5;stop-opacity:0.99607843" offset="1" id="stop1049"/>
    </linearGradient>
    <linearGradient inkscape:collect="always" xlink:href="#linearGradient3" id="linearGradient4" x1="31.252213" y1="18.072605" x2="31.252213" y2="53.986916" gradientUnits="userSpaceOnUse"/>
  <radialGradient id="gradient_ds_br" cx="0" cy="0" r="1" gradientUnits="userSpaceOnUse" gradientTransform="matrix(13.998399,0.00477622,-0.00477841,14.004799,47.5016,48.4952)">
      <stop offset="0.65" id="stop1"/>
      <stop offset="1" stop-opacity="0" id="stop2"/>
    </radialGradient><linearGradient id="gradient_ds_b" x1="30.448999" y1="48.5" x2="30.492201" y2="62.500301" gradientUnits="userSpaceOnUse">
      <stop offset="0.653846" id="stop3"/>
      <stop offset="1" stop-opacity="0" id="stop4"/>
    </linearGradient><radialGradient id="gradient_ds_bl" cx="0" cy="0" r="1" gradientUnits="userSpaceOnUse" gradientTransform="matrix(0,14,-14,0,16.5,48.5)">
      <stop offset="0.65" id="stop5"/>
      <stop offset="1" stop-opacity="0" id="stop6"/>
    </radialGradient><linearGradient id="gradient_ds_r" x1="47.5" y1="33.5" x2="61.5" y2="33.5009" gradientUnits="userSpaceOnUse">
      <stop offset="0.649038" id="stop7"/>
      <stop offset="1" stop-opacity="0" id="stop8"/>
    </linearGradient><linearGradient id="gradient_ds_l" x1="16.5" y1="33.894699" x2="2.5" y2="33.894699" gradientUnits="userSpaceOnUse">
      <stop offset="0.649038" id="stop9"/>
      <stop offset="1" stop-opacity="0" id="stop10"/>
    </linearGradient><radialGradient id="gradient_ds_tr" cx="0" cy="0" r="1" gradientTransform="matrix(0.00843236,-14,14.0084,0.0189842,47.4916,18.5)" gradientUnits="userSpaceOnUse">
      <stop offset="0.65" id="stop11"/>
      <stop offset="1" stop-opacity="0" id="stop12"/>
    </radialGradient><linearGradient id="gradient_ds_t" x1="29.98" y1="18.5" x2="29.9158" y2="4.4998598" gradientUnits="userSpaceOnUse">
      <stop offset="0.649038" id="stop13"/>
      <stop offset="1" stop-opacity="0" id="stop14"/>
    </linearGradient><radialGradient id="gradient_ds_tl" cx="0" cy="0" r="1" gradientTransform="matrix(-0.00843236,-14,-14.0084,0.0189842,16.5084,18.5)" gradientUnits="userSpaceOnUse">
      <stop offset="0.65" id="stop15"/>
      <stop offset="1" stop-opacity="0" id="stop16"/>
    </radialGradient></defs>
  
  <g id="ds" opacity="0.25">
    <path id="ds-br" d="m 47.5,48.5 h 14 v 14 h -14 z" fill="url(#gradient_ds_br)" style="fill:url(#gradient_ds_br)"/>
    <path id="ds-b" d="m 16.5,48.5 h 31 v 14 h -31 z" fill="url(#gradient_ds_b)" style="fill:url(#gradient_ds_b)"/>
    <path id="ds-bl" d="m 2.5,48.5 h 14 v 14 h -14 z" fill="url(#gradient_ds_bl)" style="fill:url(#gradient_ds_bl)"/>
    <path id="ds-r" d="m 47.5,18.5 h 14 v 30 h -14 z" fill="url(#gradient_ds_r)" style="fill:url(#gradient_ds_r)"/>
    <path id="ds-l" d="m 2.5,18.5 h 14 v 30 h -14 z" fill="url(#gradient_ds_l)" style="fill:url(#gradient_ds_l)"/>
    <path id="ds-tr" d="m 47.5,4.5 h 14 v 14 h -14 z" fill="url(#gradient_ds_tr)" style="fill:url(#gradient_ds_tr)"/>
    <path id="ds-t" d="m 16.5,4.5 h 31 v 14 h -31 z" fill="url(#gradient_ds_t)" style="fill:url(#gradient_ds_t)"/>
    <path id="ds-tl" d="m 16.5,4.5 h -14 v 14 h 14 z" fill="url(#gradient_ds_tl)" style="fill:url(#gradient_ds_tl)"/>
  </g><rect style="fill:url(#linearGradient1053);fill-opacity:1;stroke-width:2.74436;stroke-linecap:round" id="bg" width="55" height="55" x="4.5" y="4.5" rx="10"/>
  <g id="art"><path fill="#ff5e00" d="m 31.998212,10.000494 c 0.29,0 0.578,0.016 0.867,0.027 a 15,15 0 0 0 -0.867,-0.027 m 0.867,0.027 c 7.61,0.449 13.644,6.761 13.644,14.483 0,5.808 -3.542,12.026 -10.16,11.49 -5.559,-0.566 -7.037,-2.75 -7.35,-5.588 -0.303,-2.74 2.077,-5.408 6.362,-5.412 2.774,-0.004 5.38,1.436 4.74,3.718 3.972,-4.017 -2.769,-10.55 -9.379,-10.669 -2.594,-0.046 -5.167,0.954 -7.065,3.29 1.563,-1.091 2.817,-1.48 4.38,-1.527 -0.799,0.379 -1.926,0.86 -2.619,1.898 1.265,-0.784 2.668,-1.104 4.365,-0.934 -4.885,1.034 -8.318,7.323 -7.87,14.162 a 14.46,14.46 0 0 1 -4.425,-10.428 c 0,-7.763 6.098,-14.103 13.764,-14.491 a 22,22 0 0 0 -7.313,1.506 22.06,22.06 0 0 0 -9.086,6.69 q -0.048,4.365 1.128,9.343 c -1.213,-2.608 -2.094,-5.215 -2.248,-7.823 a 21.9,21.9 0 0 0 -3.12,7.087 19.5,19.5 0 0 0 3.491,5.992 q -1.94,-1.217 -3.88,-3.959 a 22.2,22.2 0 0 0 0.08,6.81 c 1.582,1.593 3.16,2.613 4.74,3.468 q -1.926,0.14 -4.147,-0.89 c 2.258,7.637 8.647,13.55 16.37,15.244 1.297,-1.363 1.84,-2.926 2.987,-4.917 0.063,1.231 -0.583,3.147 -1.483,5.193 a 22.2,22.2 0 0 0 6.457,0 c -0.9,-2.046 -1.546,-3.962 -1.483,-5.193 1.148,1.991 1.69,3.552 2.987,4.917 7.727,-1.7 14.112,-7.603 16.37,-15.243 q -2.221,1.03 -4.147,0.889 c 1.58,-0.855 3.159,-1.875 4.74,-3.467 0.377,-2.253 0.405,-4.55 0.08,-6.81 q -1.94,2.74 -3.88,3.958 a 19.4,19.4 0 0 0 3.492,-5.992 21.8,21.8 0 0 0 -3.121,-7.09 c -0.154,2.609 -1.035,5.218 -2.248,7.826 q 1.177,-4.98 1.128,-9.343 a 22.03,22.03 0 0 0 -11.56,-7.498 v -0.003 a 22,22 0 0 0 -4.718,-0.687 z m 0.723,10.41 c 1.71,0.643 3.269,0.18 2.535,1.184 -0.922,-0.276 -1.75,-0.699 -2.535,-1.184" id="path3" style="fill:url(#linearGradient4);fill-opacity:1"/></g>
</svg>
