<?xml version="1.0" encoding="UTF-8" standalone="no"?>
<svg
   width="64"
   height="64"
   version="1.1"
   id="svg14"
   sodipodi:docname="franz.svg"
   inkscape:version="1.4.4 (dcaf3e7d9e, 2026-05-05)"
   xmlns:inkscape="http://www.inkscape.org/namespaces/inkscape"
   xmlns:sodipodi="http://sodipodi.sourceforge.net/DTD/sodipodi-0.dtd"
   xmlns:xlink="http://www.w3.org/1999/xlink"
   xmlns="http://www.w3.org/2000/svg"
   xmlns:svg="http://www.w3.org/2000/svg"
   xmlns:rdf="http://www.w3.org/1999/02/22-rdf-syntax-ns#"
   xmlns:cc="http://creativecommons.org/ns#"
   xmlns:dc="http://purl.org/dc/elements/1.1/">
  <sodipodi:namedview
     id="namedview14"
     pagecolor="#ffffff"
     bordercolor="#000000"
     borderopacity="0.25"
     inkscape:showpageshadow="2"
     inkscape:pageopacity="0.0"
     inkscape:pagecheckerboard="0"
     inkscape:deskcolor="#d1d1d1"
     inkscape:current-layer="svg14" />
  <metadata
     id="metadata2">
    <rdf:RDF>
      <cc:Work
         rdf:about="">
        <dc:format>image/svg+xml</dc:format>
        <dc:type
           rdf:resource="http://purl.org/dc/dcmitype/StillImage" />
      </cc:Work>
    </rdf:RDF>
  </metadata>
  <defs
     id="defs11">
    <linearGradient
       inkscape:collect="always"
       id="linearGradient25">
      <stop
         style="stop-color:#008fde;stop-opacity:1;"
         offset="0"
         id="stop24" />
      <stop
         style="stop-color:#66c1ff;stop-opacity:1;"
         offset="1"
         id="stop25" />
    </linearGradient>
    <linearGradient
       id="linearGradient882"
       x1="38.775"
       x2="38.775"
       y1="33.726"
       y2="14.795"
       gradientTransform="matrix(1.3043,0,0,1.3043,-19.132,0.1443)"
       gradientUnits="userSpaceOnUse">
      <stop
         stop-color="#dadde2"
         offset="0"
         id="stop2" />
      <stop
         stop-color="#f1f3f8"
         offset="1"
         id="stop3" />
    </linearGradient>
    <filter
       id="filter1057"
       x="-0.026999999"
       y="-0.026999999"
       width="1.054"
       height="1.054"
       color-interpolation-filters="sRGB">
      <feGaussianBlur
         stdDeviation="0.61875"
         id="feGaussianBlur3" />
    </filter>
    <linearGradient
       id="linearGradient1053"
       x1="-127"
       x2="-72"
       y1="60"
       y2="5"
       gradientTransform="translate(131.5,-0.51)"
       gradientUnits="userSpaceOnUse">
      <stop
         stop-color="#55d6f7"
         offset="0"
         id="stop4" />
      <stop
         stop-color="#408eff"
         offset="1"
         id="stop5" />
    </linearGradient>
    <filter
       id="filter1057-5"
       x="-0.026999999"
       y="-0.026999999"
       width="1.054"
       height="1.054"
       color-interpolation-filters="sRGB">
      <feGaussianBlur
         stdDeviation="0.61875"
         id="feGaussianBlur3-6" />
    </filter>
    <radialGradient
       id="gradient_ds_br"
       cx="0"
       cy="0"
       r="1"
       gradientUnits="userSpaceOnUse"
       gradientTransform="matrix(13.998399,0.00477622,-0.00477841,14.004799,47.5016,48.4952)">
      <stop
         offset="0.65"
         id="stop1" />
      <stop
         offset="1"
         stop-opacity="0"
         id="stop6" />
    </radialGradient>
    <linearGradient
       id="gradient_ds_b"
       x1="30.448999"
       y1="48.5"
       x2="30.492201"
       y2="62.500301"
       gradientUnits="userSpaceOnUse">
      <stop
         offset="0.653846"
         id="stop7" />
      <stop
         offset="1"
         stop-opacity="0"
         id="stop8" />
    </linearGradient>
    <radialGradient
       id="gradient_ds_bl"
       cx="0"
       cy="0"
       r="1"
       gradientUnits="userSpaceOnUse"
       gradientTransform="matrix(0,14,-14,0,16.5,48.5)">
      <stop
         offset="0.65"
         id="stop9" />
      <stop
         offset="1"
         stop-opacity="0"
         id="stop10" />
    </radialGradient>
    <linearGradient
       id="gradient_ds_r"
       x1="47.5"
       y1="33.5"
       x2="61.5"
       y2="33.5009"
       gradientUnits="userSpaceOnUse">
      <stop
         offset="0.649038"
         id="stop11" />
      <stop
         offset="1"
         stop-opacity="0"
         id="stop12" />
    </linearGradient>
    <linearGradient
       id="gradient_ds_l"
       x1="16.5"
       y1="33.894699"
       x2="2.5"
       y2="33.894699"
       gradientUnits="userSpaceOnUse">
      <stop
         offset="0.649038"
         id="stop13" />
      <stop
         offset="1"
         stop-opacity="0"
         id="stop14" />
    </linearGradient>
    <radialGradient
       id="gradient_ds_tr"
       cx="0"
       cy="0"
       r="1"
       gradientTransform="matrix(0.00843236,-14,14.0084,0.0189842,47.4916,18.5)"
       gradientUnits="userSpaceOnUse">
      <stop
         offset="0.65"
         id="stop15" />
      <stop
         offset="1"
         stop-opacity="0"
         id="stop16" />
    </radialGradient>
    <linearGradient
       id="gradient_ds_t"
       x1="29.98"
       y1="18.5"
       x2="29.9158"
       y2="4.4998598"
       gradientUnits="userSpaceOnUse">
      <stop
         offset="0.649038"
         id="stop17" />
      <stop
         offset="1"
         stop-opacity="0"
         id="stop18" />
    </linearGradient>
    <radialGradient
       id="gradient_ds_tl"
       cx="0"
       cy="0"
       r="1"
       gradientTransform="matrix(-0.00843236,-14,-14.0084,0.0189842,16.5084,18.5)"
       gradientUnits="userSpaceOnUse">
      <stop
         offset="0.65"
         id="stop19" />
      <stop
         offset="1"
         stop-opacity="0"
         id="stop20" />
    </radialGradient>
    <linearGradient
       id="b"
       x1="21.596732"
       x2="49.211082"
       y1="69.292037"
       y2="1.946849"
       gradientUnits="userSpaceOnUse">
      <stop
         offset="0%"
         stop-color="#008fde"
         id="stop1-2" />
      <stop
         offset="100%"
         stop-color="#66c1ff"
         id="stop2-2" />
    </linearGradient>
    <filter
       id="a"
       width="1.1028749"
       height="1.1169673"
       x="-0.05143743"
       y="-0.05143743"
       filterUnits="objectBoundingBox">
      <feOffset
         dy="1"
         in="SourceAlpha"
         result="shadowOffsetOuter1"
         id="feOffset2" />
      <feGaussianBlur
         in="shadowOffsetOuter1"
         result="shadowBlurOuter1"
         stdDeviation="1"
         id="feGaussianBlur2" />
      <feColorMatrix
         in="shadowBlurOuter1"
         result="shadowMatrixOuter1"
         values="0 0 0 0 0 0 0 0 0 0 0 0 0 0 0 0 0 0 0.3 0"
         id="feColorMatrix2" />
      <feMerge
         id="feMerge3">
        <feMergeNode
           in="shadowMatrixOuter1"
           id="feMergeNode2" />
        <feMergeNode
           in="SourceGraphic"
           id="feMergeNode3" />
      </feMerge>
    </filter>
    <radialGradient
       id="gradient_ds_br-8"
       cx="0"
       cy="0"
       r="1"
       gradientUnits="userSpaceOnUse"
       gradientTransform="matrix(28.996698,0.00989361,-0.00989812,29.009898,32.0033,33.4901)">
      <stop
         offset="0.85"
         id="stop1-9" />
      <stop
         offset="1"
         stop-opacity="0"
         id="stop6-7" />
    </radialGradient>
    <radialGradient
       id="gradient_ds_bl-3"
       cx="0"
       cy="0"
       r="1"
       gradientUnits="userSpaceOnUse"
       gradientTransform="matrix(0,29,-29,0,32,33.5)">
      <stop
         offset="0.846154"
         id="stop8-6" />
      <stop
         offset="1"
         stop-opacity="0"
         id="stop14-1" />
    </radialGradient>
    <radialGradient
       id="gradient_ds_tr-2"
       cx="0"
       cy="0"
       r="1"
       gradientTransform="matrix(0.017467,-29,29.0175,0.0393245,31.9825,33.5)"
       gradientUnits="userSpaceOnUse">
      <stop
         offset="0.85"
         id="stop16-9" />
      <stop
         offset="1"
         stop-opacity="0"
         id="stop18-3" />
    </radialGradient>
    <radialGradient
       id="gradient_ds_tl-1"
       cx="0"
       cy="0"
       r="1"
       gradientTransform="matrix(-0.017467,-29,-29.0175,0.0393245,32.0175,33.5)"
       gradientUnits="userSpaceOnUse">
      <stop
         offset="0.85"
         id="stop20-9" />
      <stop
         offset="1"
         stop-opacity="0"
         id="stop21" />
    </radialGradient>
    <linearGradient
       inkscape:collect="always"
       xlink:href="#linearGradient1051-5"
       id="linearGradient1053-7"
       x1="-127"
       y1="60"
       x2="-72"
       y2="5"
       gradientUnits="userSpaceOnUse"
       gradientTransform="translate(131.5,-0.50999712)" />
    <linearGradient
       inkscape:collect="always"
       id="linearGradient1051-5">
      <stop
         style="stop-color:#dadde2;stop-opacity:1;"
         offset="0"
         id="stop1047-3" />
      <stop
         style="stop-color:#f3f3f3;stop-opacity:1;"
         offset="1"
         id="stop1049-5" />
    </linearGradient>
    <linearGradient
       inkscape:collect="always"
       xlink:href="#linearGradient25"
       id="linearGradient20"
       gradientUnits="userSpaceOnUse"
       gradientTransform="matrix(0.90909094,0,0,0.90909094,122.45456,2.4454573)"
       x1="-127"
       y1="60"
       x2="-72"
       y2="5" />
  </defs>
  <g
     id="ds"
     opacity="0.25">
    <path
       id="ds-br"
       d="m 32,33.5 h 29 v 29 H 32 Z"
       fill="url(#gradient_ds_br)"
       style="fill:url(#gradient_ds_br-8)" />
    <path
       id="ds-bl"
       d="m 3,33.5 h 29 v 29 H 3 Z"
       fill="url(#gradient_ds_bl)"
       style="fill:url(#gradient_ds_bl-3)" />
    <path
       id="ds-tr"
       d="m 32,4.5 h 29 v 29 H 32 Z"
       fill="url(#gradient_ds_tr)"
       style="fill:url(#gradient_ds_tr-2)" />
    <path
       id="ds-tl"
       d="M 32,4.5 H 3 v 29 h 29 z"
       fill="url(#gradient_ds_tl)"
       style="fill:url(#gradient_ds_tl-1)" />
  </g>
  <rect
     style="fill:url(#linearGradient1053-7);fill-opacity:1;stroke-width:2.74436;stroke-linecap:round"
     id="bg"
     width="55"
     height="55"
     x="4.5"
     y="4.5"
     rx="27.5"
     ry="27.5" />
  <g
     id="art">
    <rect
       style="fill:url(#linearGradient20);fill-opacity:1;stroke-width:2.85871;stroke-linecap:round"
       id="bg-4"
       width="50"
       height="50"
       x="7"
       y="7"
       rx="28.645834"
       ry="28.645834" />
    <g
       id="g25"
       transform="matrix(0.64754369,0,0,0.64754369,-18.082097,40.66147)"
       style="stroke-width:1.54431">
      <path
         fill="#f3f3f3"
         d="m 90.358149,-1.862 q -0.937,0 -1.876,-0.105 v 4.174 c 0,1.323 1.411,2.029 3.352,2.029 1.941,0 6.35,0.353 8.114,-2.734 0.907001,-1.588 1.487001,-3.361 1.837001,-4.848 -3.085001,0.972 -6.954001,1.485 -11.427001,1.485 m 11.883001,-4.506 v -0.026 c 0,-0.354 -0.086,-2.374 -0.198,-4.983 h -0.025 c -2.266001,0 -5.617001,-1.117 -7.319001,-2.44 -0.41,-0.32 -0.87,-0.747 -1.36,-1.236 -2.258,2.94 -4.414,7.086 -4.795,10.37 q 0.893,0.116 1.814,0.117 c 4.846,0 8.944,-0.636 11.883001,-1.802 m -5.882001,-9.583 c 1.215,0.945 3.889001,1.839 5.568001,1.87 -0.189,-4.418 -0.392,-9.399 -0.392,-11.055 0,-3.086 0.09,-5.864 -0.882,-5.864 -2.470001,0 -1.852001,10.715 -4.939001,13.361 q -0.29,0.25 -0.592,0.546 c 0.467,0.47 0.895,0.876 1.237,1.142 m -42.911,1.817 c 1.651,-0.21 3.818,-0.994 4.876,-1.817 0.422,-0.328 0.974,-0.868 1.568,-1.48 a 11,11 0 0 0 -0.234,-0.208 c -3.087,-2.646 -2.47,-13.362 -4.939,-13.362 -0.97,0 -0.882,2.779 -0.882,5.866 0,1.649 -0.201,6.596 -0.389,11.001 m 13.367,9.347 c -0.432,-3.415 -2.744,-7.73 -5.087,-10.655 -0.636,0.652 -1.228,1.223 -1.744,1.625 -1.541,1.198 -4.437,2.229 -6.653,2.412 -0.112,2.622 -0.2,4.655 -0.2,5.011 q 0,0.118 0.01,0.285 c 2.876,1 6.71,1.543 11.184,1.543 0.847,0 1.68,-0.08 2.49,-0.22 m -2.49,2.923 c -4.12,0 -7.729,-0.434 -10.684,-1.263 0.355,1.44 0.921,3.117 1.784,4.626 1.764,3.087 6.174,2.734 8.114,2.734 1.94,0 3.351,-0.706 3.351,-2.029 v -4.263 q -1.285,0.195 -2.565,0.195"
         id="path4-0"
         style="display:inline;fill:#f3f3f3;fill-opacity:1;stroke-width:1.54431" />
      <path
         fill="#f3f3f3"
         d="m 104.92015,-12.123 c -0.522,0 -1.077,0.18 -1.649,0.533 -0.081,0.05 -0.413,0.215 -1.253,0.215 -2.266001,0 -5.617001,-1.118 -7.319001,-2.442 -0.85,-0.66 -1.902,-1.777 -3.016,-2.96 -2.344,-2.486 -4.558,-4.834 -6.474,-4.834 -1.362,0 -2.93,0.635 -4.447,1.249 -1.264,0.51 -2.57,1.04 -3.42,1.04 -0.85,0 -2.157,-0.53 -3.42,-1.04 -1.517,-0.614 -3.086,-1.249 -4.448,-1.249 -1.916,0 -4.13,2.349 -6.474,4.835 -1.114,1.182 -2.167,2.299 -3.016,2.96 -1.702,1.323 -5.053,2.44 -7.319,2.44 -0.84,0 -1.171,-0.164 -1.253,-0.214 -0.572,-0.353 -1.127,-0.533 -1.65,-0.533 -0.738,0 -1.362,0.387 -1.627,1.009 -0.326,0.767 -0.054,1.709 0.727,2.52 2.466,2.56 8.102,4.03 15.463,4.03 4.833,0 9.197,-2.536 11.668,-4.909 0.502,-0.481 1.156,-0.506 1.282,-0.506 h 0.004 l 0.024,0.008 0.088,-0.007 h 0.017 c 0.126,0 0.78,0.024 1.282,0.505 2.472,2.373 6.835,4.908 11.668,4.908 7.361,0 12.997001,-1.468 15.463001,-4.03 0.781,-0.81 1.053,-1.752 0.727,-2.52 -0.265,-0.621 -0.889,-1.008 -1.628,-1.008"
         id="path5-3"
         style="display:inline;fill:#f3f3f3;fill-opacity:1;stroke-width:1.54431" />
    </g>
  </g>
</svg>
