<?xml version="1.0" encoding="UTF-8" standalone="no"?>
<svg
   width="64"
   height="64"
   version="1.1"
   viewBox="0 0 64 64"
   id="svg42"
   sodipodi:docname="hexchat.v2.svg"
   inkscape:version="1.4.4 (dcaf3e7d9e, 2026-05-05)"
   xmlns:inkscape="http://www.inkscape.org/namespaces/inkscape"
   xmlns:sodipodi="http://sodipodi.sourceforge.net/DTD/sodipodi-0.dtd"
   xmlns:xlink="http://www.w3.org/1999/xlink"
   xmlns="http://www.w3.org/2000/svg"
   xmlns:svg="http://www.w3.org/2000/svg"
   xmlns:rdf="http://www.w3.org/1999/02/22-rdf-syntax-ns#"
   xmlns:cc="http://creativecommons.org/ns#"
   xmlns:dc="http://purl.org/dc/elements/1.1/">
  <sodipodi:namedview
     id="namedview1"
     pagecolor="#ffffff"
     bordercolor="#000000"
     borderopacity="0.25"
     inkscape:showpageshadow="2"
     inkscape:pageopacity="0.0"
     inkscape:pagecheckerboard="0"
     inkscape:deskcolor="#d1d1d1"
     inkscape:current-layer="art" />
  <metadata
     id="metadata46">
    <rdf:RDF>
      <cc:Work
         rdf:about="">
        <dc:format>image/svg+xml</dc:format>
        <dc:type
           rdf:resource="http://purl.org/dc/dcmitype/StillImage" />
      </cc:Work>
    </rdf:RDF>
  </metadata>
  <defs
     id="defs18">
    <linearGradient
       id="linearGradient31"
       inkscape:collect="always">
      <stop
         style="stop-color:#f15907;stop-opacity:1;"
         offset="0"
         id="stop32" />
      <stop
         style="stop-color:#f7c800;stop-opacity:1;"
         offset="1"
         id="stop33" />
    </linearGradient>
    <filter
       id="filter909"
       x="-0.058848668"
       y="-0.061197285"
       width="1.1176973"
       height="1.1223946"
       color-interpolation-filters="sRGB">
      <feGaussianBlur
         stdDeviation="0.90087503"
         id="feGaussianBlur2" />
    </filter>
    <filter
       id="filter935"
       x="-.056768"
       y="-.063623"
       width="1.1135"
       height="1.1272"
       color-interpolation-filters="sRGB">
      <feGaussianBlur
         stdDeviation="1.060375"
         id="feGaussianBlur5" />
    </filter>
    <linearGradient
       id="linearGradient949"
       x1="30.242"
       x2="31.073"
       y1="56.798"
       y2="10.968"
       gradientUnits="userSpaceOnUse"
       gradientTransform="matrix(0.83330557,0,0,0.83330557,5.3342218,5.3342218)">
      <stop
         stop-color="#fb8922"
         offset="0"
         id="stop8" />
      <stop
         stop-color="#f7ce43"
         offset="1"
         id="stop10" />
    </linearGradient>
    <linearGradient
       id="linearGradient879"
       x1="525.29"
       x2="525.29"
       y1="540.16"
       y2="508.15"
       gradientTransform="matrix(1.5,0,0,1.5,-761.54264,-761.70683)"
       gradientUnits="userSpaceOnUse">
      <stop
         stop-color="#141922"
         offset="0"
         id="stop13" />
      <stop
         stop-color="#5b6068"
         offset="1"
         id="stop15" />
    </linearGradient>
    <linearGradient
       id="b"
       x1="45.628"
       x2="45.628"
       y1="57.955"
       y2="12.461"
       gradientUnits="userSpaceOnUse">
      <stop
         offset="0"
         id="stop2" />
      <stop
         stop-opacity="0"
         offset="1"
         id="stop4" />
    </linearGradient>
    <linearGradient
       gradientUnits="userSpaceOnUse"
       gradientTransform="matrix(2.1429,0,0,2.1429,-932.88889,-1107.544)"
       y2="517.8"
       y1="545.8"
       x2="399.57"
       x1="399.57"
       id="b-3">
      <stop
         id="stop850"
         offset="0"
         stop-color="#3581f6" />
      <stop
         id="stop852"
         offset="1"
         stop-color="#5a9eff" />
    </linearGradient>
    <linearGradient
       gradientUnits="userSpaceOnUse"
       gradientTransform="matrix(0.26457812,0,0,0.26457812,-31.030853,-6.0244504)"
       y2="1.6692"
       y1="61.873"
       x2="32.431"
       x1="32.431"
       id="linearGradient1001">
      <stop
         id="stop855"
         offset="0"
         stop-color="#191919" />
      <stop
         id="stop857"
         offset="1"
         stop-color="#353b44" />
    </linearGradient>
    <linearGradient
       id="linearGradient1057">
      <stop
         id="stop4-3"
         offset="0"
         stop-color="#fff" />
      <stop
         id="stop6"
         offset="1"
         stop-opacity="0"
         stop-color="#fff" />
    </linearGradient>
    <linearGradient
       gradientUnits="userSpaceOnUse"
       gradientTransform="matrix(1.5625,0,0,1.5625,0.40633,-5.1891)"
       y2="52.847"
       y1="27.545"
       x2="34.999"
       x1="34.999"
       id="linearGradient982">
      <stop
         id="stop9"
         offset="0"
         stop-color="#49b5fe" />
      <stop
         id="stop11"
         offset="1"
         stop-color="#3581f6" />
    </linearGradient>
    <linearGradient
       gradientUnits="userSpaceOnUse"
       gradientTransform="matrix(1.5625,0,0,1.5625,-9.2253,1.3231)"
       y2="43.681"
       y1="18.052"
       x2="21.314"
       x1="21.314"
       id="linearGradient1047">
      <stop
         id="stop18"
         offset="0"
         stop-color="#4dd169" />
      <stop
         id="stop20"
         offset="1"
         stop-color="#089927" />
    </linearGradient>
    <linearGradient
       gradientUnits="userSpaceOnUse"
       gradientTransform="matrix(1.5625,0,0,1.5625,-8.1072,-10.908)"
       y2="37.368"
       y1="12.316"
       x2="41.729"
       x1="41.729"
       id="linearGradient1049">
      <stop
         id="stop23"
         offset="0"
         stop-color="#fa3a59" />
      <stop
         id="stop25"
         offset="1"
         stop-color="#fc3f40" />
    </linearGradient>
    <linearGradient
       xlink:href="#linearGradient1057"
       gradientUnits="userSpaceOnUse"
       gradientTransform="matrix(1,0,0,1.2271,0.20646,-10.975)"
       y2="39.768"
       y1="32.234"
       x2="34.427"
       x1="34.427"
       id="linearGradient1059" />
    <linearGradient
       xlink:href="#linearGradient1057"
       gradientUnits="userSpaceOnUse"
       gradientTransform="matrix(1,0,0,1.2271,-12.55,-19.793)"
       y2="39.768"
       y1="32.234"
       x2="34.427"
       x1="34.427"
       id="linearGradient1063" />
    <linearGradient
       xlink:href="#linearGradient1057"
       gradientUnits="userSpaceOnUse"
       gradientTransform="matrix(1,0,0,1.2271,5.7554,-25.761)"
       y2="39.768"
       y1="32.234"
       x2="34.427"
       x1="34.427"
       id="linearGradient1067" />
    <filter
       color-interpolation-filters="sRGB"
       height="1.048"
       width="1.048"
       y="-.024"
       x="-.024"
       id="filter2761">
      <feGaussianBlur
         id="feGaussianBlur31"
         stdDeviation="0.14552168" />
    </filter>
    <linearGradient
       gradientUnits="userSpaceOnUse"
       gradientTransform="matrix(3.7796,0,0,3.7796,72.4059,0.53085)"
       y2="1.17"
       y1="15.576"
       x2="15.65"
       x1="1.3315"
       id="linearGradient1024">
      <stop
         id="stop34"
         offset="0"
         stop-color="#dadde2" />
      <stop
         id="stop36"
         offset="1"
         stop-opacity=".99608"
         stop-color="#f3f3f3" />
    </linearGradient>
    <filter
       color-interpolation-filters="sRGB"
       height="1.048"
       width="1.048"
       y="-.024"
       x="-.024"
       id="filter2761-3">
      <feGaussianBlur
         id="feGaussianBlur2-3"
         stdDeviation="0.14552168" />
    </filter>
    <linearGradient
       gradientUnits="userSpaceOnUse"
       gradientTransform="translate(0 -.07421)"
       y2="1.17"
       y1="15.576"
       x2="15.65"
       x1="1.3315"
       id="linearGradient1024-6">
      <stop
         id="stop5"
         offset="0"
         stop-color="#dadde2" />
      <stop
         id="stop7"
         offset="1"
         stop-opacity=".99608"
         stop-color="#f3f3f3" />
    </linearGradient>
    <linearGradient
       inkscape:collect="always"
       xlink:href="#linearGradient1051"
       id="linearGradient1053"
       x1="-127"
       y1="60"
       x2="-72"
       y2="5"
       gradientUnits="userSpaceOnUse"
       gradientTransform="translate(131.49999,-0.50999944)" />
    <linearGradient
       inkscape:collect="always"
       id="linearGradient1051">
      <stop
         style="stop-color:#191919;stop-opacity:1"
         offset="0"
         id="stop1047" />
      <stop
         style="stop-color:#353b44;stop-opacity:0.99607843"
         offset="1"
         id="stop1049" />
    </linearGradient>
    <radialGradient
       id="gradient_ds_br"
       cx="0"
       cy="0"
       r="1"
       gradientUnits="userSpaceOnUse"
       gradientTransform="matrix(13.998399,0.00477622,-0.00477841,14.004799,47.5016,48.4952)">
      <stop
         offset="0.65"
         id="stop1" />
      <stop
         offset="1"
         stop-opacity="0"
         id="stop3" />
    </radialGradient>
    <linearGradient
       id="gradient_ds_b"
       x1="30.448999"
       y1="48.5"
       x2="30.492201"
       y2="62.500301"
       gradientUnits="userSpaceOnUse">
      <stop
         offset="0.653846"
         id="stop12" />
      <stop
         offset="1"
         stop-opacity="0"
         id="stop14" />
    </linearGradient>
    <radialGradient
       id="gradient_ds_bl"
       cx="0"
       cy="0"
       r="1"
       gradientUnits="userSpaceOnUse"
       gradientTransform="matrix(0,14,-14,0,16.5,48.5)">
      <stop
         offset="0.65"
         id="stop16" />
      <stop
         offset="1"
         stop-opacity="0"
         id="stop17" />
    </radialGradient>
    <linearGradient
       id="gradient_ds_r"
       x1="47.5"
       y1="33.5"
       x2="61.5"
       y2="33.5009"
       gradientUnits="userSpaceOnUse">
      <stop
         offset="0.649038"
         id="stop19" />
      <stop
         offset="1"
         stop-opacity="0"
         id="stop21" />
    </linearGradient>
    <linearGradient
       id="gradient_ds_l"
       x1="16.5"
       y1="33.894699"
       x2="2.5"
       y2="33.894699"
       gradientUnits="userSpaceOnUse">
      <stop
         offset="0.649038"
         id="stop22" />
      <stop
         offset="1"
         stop-opacity="0"
         id="stop24" />
    </linearGradient>
    <radialGradient
       id="gradient_ds_tr"
       cx="0"
       cy="0"
       r="1"
       gradientTransform="matrix(0.00843236,-14,14.0084,0.0189842,47.4916,18.5)"
       gradientUnits="userSpaceOnUse">
      <stop
         offset="0.65"
         id="stop26" />
      <stop
         offset="1"
         stop-opacity="0"
         id="stop27" />
    </radialGradient>
    <linearGradient
       id="gradient_ds_t"
       x1="29.98"
       y1="18.5"
       x2="29.9158"
       y2="4.4998598"
       gradientUnits="userSpaceOnUse">
      <stop
         offset="0.649038"
         id="stop28" />
      <stop
         offset="1"
         stop-opacity="0"
         id="stop29" />
    </linearGradient>
    <radialGradient
       id="gradient_ds_tl"
       cx="0"
       cy="0"
       r="1"
       gradientTransform="matrix(-0.00843236,-14,-14.0084,0.0189842,16.5084,18.5)"
       gradientUnits="userSpaceOnUse">
      <stop
         offset="0.65"
         id="stop30" />
      <stop
         offset="1"
         stop-opacity="0"
         id="stop31" />
    </radialGradient>
    <linearGradient
       inkscape:collect="always"
       xlink:href="#linearGradient31"
       id="linearGradient33"
       x1="32"
       y1="51.092773"
       x2="32"
       y2="15.885742"
       gradientUnits="userSpaceOnUse" />
    <filter
       inkscape:collect="always"
       style="color-interpolation-filters:sRGB"
       id="filter33"
       x="-0.026482497"
       y="-0.027538131"
       width="1.052965"
       height="1.0550763">
      <feGaussianBlur
         inkscape:collect="always"
         stdDeviation="0.38848755"
         id="feGaussianBlur33" />
    </filter>
  </defs>
  <g
     id="ds"
     opacity="0.25">
    <path
       id="ds-br"
       d="m 47.5,48.5 h 14 v 14 h -14 z"
       fill="url(#gradient_ds_br)"
       style="fill:url(#gradient_ds_br)" />
    <path
       id="ds-b"
       d="m 16.5,48.5 h 31 v 14 h -31 z"
       fill="url(#gradient_ds_b)"
       style="fill:url(#gradient_ds_b)" />
    <path
       id="ds-bl"
       d="m 2.5,48.5 h 14 v 14 h -14 z"
       fill="url(#gradient_ds_bl)"
       style="fill:url(#gradient_ds_bl)" />
    <path
       id="ds-r"
       d="m 47.5,18.5 h 14 v 30 h -14 z"
       fill="url(#gradient_ds_r)"
       style="fill:url(#gradient_ds_r)" />
    <path
       id="ds-l"
       d="m 2.5,18.5 h 14 v 30 h -14 z"
       fill="url(#gradient_ds_l)"
       style="fill:url(#gradient_ds_l)" />
    <path
       id="ds-tr"
       d="m 47.5,4.5 h 14 v 14 h -14 z"
       fill="url(#gradient_ds_tr)"
       style="fill:url(#gradient_ds_tr)" />
    <path
       id="ds-t"
       d="m 16.5,4.5 h 31 v 14 h -31 z"
       fill="url(#gradient_ds_t)"
       style="fill:url(#gradient_ds_t)" />
    <path
       id="ds-tl"
       d="m 16.5,4.5 h -14 v 14 h 14 z"
       fill="url(#gradient_ds_tl)"
       style="fill:url(#gradient_ds_tl)" />
  </g>
  <rect
     style="fill:url(#linearGradient1053);fill-opacity:1;stroke-width:2.74436;stroke-linecap:round"
     id="bg"
     width="55"
     height="55"
     x="4.5"
     y="4.5"
     rx="10" />
  <g
     id="art">
    <path
       id="rect1112-5"
       style="opacity:0.25;fill:#000000;fill-opacity:1;stroke-width:1.5;stroke-linecap:round;stroke-linejoin:round;paint-order:stroke fill markers;filter:url(#filter33)"
       d="m 32,17.56037 v 0.002 c -1.877271,0 -3.750228,0.03157 -5.246094,0.09961 -0.747476,0.03546 -1.396028,0.07822 -1.933594,0.134766 -0.267365,0.02875 -0.505451,0.06139 -0.740234,0.105469 -0.233826,0.04408 -0.411291,0.03238 -0.880859,0.296875 -0.469568,0.262575 -0.549869,0.418381 -0.707031,0.59375 a 8.5822141,8.5822141 0 0 0 -0.462891,0.570312 31.628946,31.628946 0 0 0 -1.085938,1.556641 112.13793,112.13793 0 0 0 -2.714843,4.361328 111.61295,111.61295 0 0 0 -2.529297,4.462891 31.396454,31.396454 0 0 0 -0.84961,1.691406 c -0.108288,0.239576 -0.198726,0.454377 -0.27539,0.673828 -0.07762,0.219451 -0.177735,0.364476 -0.177735,0.890625 0,0.526149 0.10011,0.671132 0.177735,0.890625 0.07666,0.219451 0.167102,0.434252 0.27539,0.673828 0.217535,0.47915 0.506496,1.047547 0.84961,1.693359 0.686144,1.29179 1.591078,2.883574 2.529297,4.460938 A 128.43739,128.43739 0 0 0 20,43.601385 l -2.447266,7.816407 6.136719,-3.398438 c 0.149495,0.04408 0.263207,0.0532 0.392578,0.07813 0.232867,0.04504 0.470916,0.07672 0.738281,0.105469 0.53665,0.05654 1.185202,0.100272 1.933594,0.134766 1.49495,0.069 3.36874,0.101562 5.246094,0.101562 1.877354,0 3.749191,-0.03352 5.244141,-0.101562 a 33.583048,33.583048 0 0 0 1.935547,-0.134766 c 0.267366,-0.02875 0.506408,-0.06139 0.740234,-0.105469 0.234784,-0.04408 0.411291,-0.03238 0.880859,-0.296875 0.469568,-0.262575 0.54987,-0.416428 0.707031,-0.591797 A 8.873871,8.873871 0 0 0 41.970703,46.6385 c 0.318156,-0.421653 0.681493,-0.947115 1.085938,-1.558594 a 112.14626,112.14626 0 0 0 2.714843,-4.359375 111.62128,111.62128 0 0 0 2.529297,-4.462891 30.703977,30.703977 0 0 0 0.847657,-1.693359 8.4397188,8.4397188 0 0 0 0.279296,-0.673828 c 0.07762,-0.219456 0.175782,-0.364481 0.175782,-0.89063 0,-0.526149 -0.09816,-0.671133 -0.175782,-0.890625 A 8.4380522,8.4380522 0 0 0 49.148438,31.43537 31.289791,31.289791 0 0 0 48.300781,29.743964 111.62128,111.62128 0 0 0 45.771484,25.281073 112.1546,112.1546 0 0 0 43.056641,20.921698 31.635613,31.635613 0 0 0 41.970703,19.363104 8.5838807,8.5838807 0 0 0 41.507812,18.792792 c -0.157161,-0.17537 -0.236505,-0.330217 -0.707031,-0.59375 -0.469568,-0.263533 -0.647033,-0.251834 -0.880859,-0.296875 A 9.0421987,9.0421987 0 0 0 39.179688,17.798651 33.578881,33.578881 0 0 0 37.246094,17.663885 C 35.751144,17.594886 33.877271,17.56037 32,17.56037 Z m 0,3.513672 c 1.832272,0 3.668349,0.03346 5.074219,0.09766 0.20316,0.0096 0.313058,0.02462 0.496093,0.03516 l -5.601562,8.337891 -5.669922,-8.330078 c 0.225201,-0.01437 0.36917,-0.03051 0.626953,-0.04297 1.405787,-0.06421 3.241946,-0.09766 5.074219,-0.09766 z m 8.855469,3.066406 a 122.39592,122.39592 0 0 1 1.78125,2.896484 109.16303,109.16303 0 0 1 2.451172,4.314453 c 0.321989,0.608523 0.584214,1.133929 0.75,1.5 0.03067,0.06804 0.03854,0.09189 0.0625,0.148438 -0.023,0.05654 -0.03183,0.0814 -0.0625,0.150391 -0.165786,0.366071 -0.428011,0.890483 -0.75,1.498047 a 109.17136,109.17136 0 0 1 -2.451172,4.314453 117.87107,117.87107 0 0 1 -2.025391,3.279297 l -5.996094,-8.810547 z m -17.777344,0.09961 6.267578,9.208985 -5.931641,8.832031 a 117.40442,117.40442 0 0 1 -2.050781,-3.318359 109.17136,109.17136 0 0 1 -2.451172,-4.314453 28.843206,28.843206 0 0 1 -0.75,-1.498047 c -0.03067,-0.06804 -0.03854,-0.09386 -0.0625,-0.150391 0.023,-0.05654 0.03183,-0.07944 0.0625,-0.148438 0.165786,-0.366071 0.428011,-0.892436 0.75,-1.5 0.645895,-1.214126 1.534036,-2.774421 2.451172,-4.314453 a 123.80421,123.80421 0 0 1 1.714844,-2.796875 z m 8.914063,13.091797 5.101562,7.494141 -0.01953,0.002 c -1.406786,0.06421 -3.241947,0.09766 -5.074219,0.09766 -1.819773,0 -3.641968,-0.03341 -5.044922,-0.0957 z" />
    <path
       id="rect1112"
       style="opacity:1;fill:url(#linearGradient33);fill-opacity:1;stroke-width:1.5;stroke-linecap:round;stroke-linejoin:round;paint-order:stroke fill markers"
       d="M 32 16.560547 L 32 16.5625 C 30.122729 16.5625 28.249772 16.594067 26.753906 16.662109 C 26.00643 16.697569 25.357878 16.740333 24.820312 16.796875 C 24.552947 16.825625 24.314861 16.858261 24.080078 16.902344 C 23.846252 16.946424 23.668787 16.934726 23.199219 17.199219 C 22.729651 17.461794 22.64935 17.6176 22.492188 17.792969 A 8.5822141 8.5822141 0 0 0 22.029297 18.363281 A 31.628946 31.628946 0 0 0 20.943359 19.919922 A 112.13793 112.13793 0 0 0 18.228516 24.28125 A 111.61295 111.61295 0 0 0 15.699219 28.744141 A 31.396454 31.396454 0 0 0 14.849609 30.435547 C 14.741321 30.675123 14.650883 30.889924 14.574219 31.109375 C 14.496599 31.328826 14.396484 31.473851 14.396484 32 C 14.396484 32.526149 14.496594 32.671132 14.574219 32.890625 C 14.650879 33.110076 14.741321 33.324877 14.849609 33.564453 C 15.067144 34.043603 15.356105 34.612 15.699219 35.257812 C 16.385363 36.549602 17.290297 38.141386 18.228516 39.71875 A 128.43739 128.43739 0 0 0 20 42.601562 L 17.552734 50.417969 L 23.689453 47.019531 C 23.838948 47.063611 23.95266 47.072736 24.082031 47.097656 C 24.314898 47.142696 24.552947 47.174372 24.820312 47.203125 C 25.356962 47.259665 26.005514 47.303397 26.753906 47.337891 C 28.248856 47.406891 30.122646 47.439453 32 47.439453 C 33.877354 47.439453 35.749191 47.405931 37.244141 47.337891 A 33.583048 33.583048 0 0 0 39.179688 47.203125 C 39.447054 47.174375 39.686096 47.141739 39.919922 47.097656 C 40.154706 47.053576 40.331213 47.065274 40.800781 46.800781 C 41.270349 46.538206 41.350651 46.384353 41.507812 46.208984 A 8.873871 8.873871 0 0 0 41.970703 45.638672 C 42.288859 45.217019 42.652196 44.691557 43.056641 44.080078 A 112.14626 112.14626 0 0 0 45.771484 39.720703 A 111.62128 111.62128 0 0 0 48.300781 35.257812 A 30.703977 30.703977 0 0 0 49.148438 33.564453 A 8.4397188 8.4397188 0 0 0 49.427734 32.890625 C 49.505354 32.671174 49.603516 32.526149 49.603516 32 C 49.603516 31.473851 49.50536 31.328867 49.427734 31.109375 A 8.4380522 8.4380522 0 0 0 49.148438 30.435547 A 31.289791 31.289791 0 0 0 48.300781 28.744141 A 111.62128 111.62128 0 0 0 45.771484 24.28125 A 112.1546 112.1546 0 0 0 43.056641 19.921875 A 31.635613 31.635613 0 0 0 41.970703 18.363281 A 8.5838807 8.5838807 0 0 0 41.507812 17.792969 C 41.350651 17.617599 41.271307 17.462752 40.800781 17.199219 C 40.331213 16.935686 40.153748 16.947385 39.919922 16.902344 A 9.0421987 9.0421987 0 0 0 39.179688 16.798828 A 33.578881 33.578881 0 0 0 37.246094 16.664062 C 35.751144 16.595063 33.877271 16.560547 32 16.560547 z M 32 20.074219 C 33.832272 20.074219 35.668349 20.107675 37.074219 20.171875 C 37.277379 20.181475 37.387277 20.196491 37.570312 20.207031 L 31.96875 28.544922 L 26.298828 20.214844 C 26.524029 20.200474 26.667998 20.184335 26.925781 20.171875 C 28.331568 20.107665 30.167727 20.074219 32 20.074219 z M 40.855469 23.140625 A 122.39592 122.39592 0 0 1 42.636719 26.037109 A 109.16303 109.16303 0 0 1 45.087891 30.351562 C 45.40988 30.960085 45.672105 31.485491 45.837891 31.851562 C 45.868561 31.919602 45.876431 31.943455 45.900391 32 C 45.877391 32.05654 45.868561 32.081396 45.837891 32.150391 C 45.672105 32.516462 45.40988 33.040874 45.087891 33.648438 A 109.17136 109.17136 0 0 1 42.636719 37.962891 A 117.87107 117.87107 0 0 1 40.611328 41.242188 L 34.615234 32.431641 L 40.855469 23.140625 z M 23.078125 23.240234 L 29.345703 32.449219 L 23.414062 41.28125 A 117.40442 117.40442 0 0 1 21.363281 37.962891 A 109.17136 109.17136 0 0 1 18.912109 33.648438 A 28.843206 28.843206 0 0 1 18.162109 32.150391 C 18.131439 32.082351 18.123569 32.056535 18.099609 32 C 18.122609 31.94346 18.131439 31.920558 18.162109 31.851562 C 18.327895 31.485491 18.59012 30.959126 18.912109 30.351562 C 19.558004 29.137436 20.446145 27.577141 21.363281 26.037109 A 123.80421 123.80421 0 0 1 23.078125 23.240234 z M 31.992188 36.332031 L 37.09375 43.826172 L 37.074219 43.828125 C 35.667433 43.892335 33.832272 43.925781 32 43.925781 C 30.180227 43.925781 28.358032 43.892368 26.955078 43.830078 L 31.992188 36.332031 z " />
  </g>
</svg>
