<?xml version="1.0" encoding="UTF-8" standalone="no"?>
<svg
   height="64"
   width="64"
   version="1.1"
   id="svg28"
   sodipodi:docname="mumble.svg"
   inkscape:version="1.4.4 (dcaf3e7d9e, 2026-05-05)"
   xmlns:inkscape="http://www.inkscape.org/namespaces/inkscape"
   xmlns:sodipodi="http://sodipodi.sourceforge.net/DTD/sodipodi-0.dtd"
   xmlns:xlink="http://www.w3.org/1999/xlink"
   xmlns="http://www.w3.org/2000/svg"
   xmlns:svg="http://www.w3.org/2000/svg"
   xmlns:rdf="http://www.w3.org/1999/02/22-rdf-syntax-ns#"
   xmlns:cc="http://creativecommons.org/ns#"
   xmlns:dc="http://purl.org/dc/elements/1.1/">
  <sodipodi:namedview
     id="namedview20"
     pagecolor="#ffffff"
     bordercolor="#000000"
     borderopacity="0.25"
     inkscape:showpageshadow="2"
     inkscape:pageopacity="0.0"
     inkscape:pagecheckerboard="0"
     inkscape:deskcolor="#d1d1d1"
     inkscape:current-layer="svg28" />
  <metadata
     id="metadata34">
    <rdf:RDF>
      <cc:Work
         rdf:about="">
        <dc:format>image/svg+xml</dc:format>
        <dc:type
           rdf:resource="http://purl.org/dc/dcmitype/StillImage" />
      </cc:Work>
    </rdf:RDF>
  </metadata>
  <defs
     id="defs32">
    <linearGradient
       id="linearGradient11422"
       x1="-6.1472001"
       x2="-6.1472001"
       y1="-137.82001"
       y2="-100.78"
       gradientTransform="matrix(2.0044,0,0,2.0044,121.65141,271.61)"
       gradientUnits="userSpaceOnUse">
      <stop
         stop-color="#49b5fe"
         offset="0"
         id="stop860" />
      <stop
         stop-color="#3581f6"
         offset="1"
         id="stop862" />
    </linearGradient>
    <filter
       id="filter1057"
       x="-.027"
       y="-.027"
       width="1.054"
       height="1.054"
       color-interpolation-filters="sRGB">
      <feGaussianBlur
         stdDeviation="0.61875"
         id="feGaussianBlur854" />
    </filter>
    <linearGradient
       id="linearGradient1053"
       x1="-127"
       x2="-72"
       y1="60"
       y2="5"
       gradientTransform="translate(131.5,-0.51)"
       gradientUnits="userSpaceOnUse">
      <stop
         stop-color="#55d6f7"
         offset="0"
         id="stop857" />
      <stop
         stop-color="#408eff"
         offset="1"
         id="stop859" />
    </linearGradient>
    <linearGradient
       id="a"
       gradientUnits="userSpaceOnUse"
       x1="399.57144"
       x2="399.57144"
       y1="545.79797"
       y2="517.79797">
      <stop
         offset="0"
         stop-color="#3581f6"
         id="stop2" />
      <stop
         offset="1"
         stop-color="#5a9eff"
         id="stop4" />
    </linearGradient>
    <linearGradient
       id="b"
       gradientUnits="userSpaceOnUse"
       x1="-318.57867"
       x2="-318.57867"
       y1="653.95679"
       y2="301.29816"
       gradientTransform="matrix(0.17296349,0,0,0.17296349,193.62459,-52.645695)">
      <stop
         offset="0"
         stop-color="#3581f6"
         id="stop7" />
      <stop
         offset="1"
         stop-color="#66c1ff"
         id="stop9" />
    </linearGradient>
    <radialGradient
       id="gradient_ds_br"
       cx="0"
       cy="0"
       r="1"
       gradientUnits="userSpaceOnUse"
       gradientTransform="matrix(13.998399,0.00477622,-0.00477841,14.004799,47.5016,48.4952)">
      <stop
         offset="0.65"
         id="stop1" />
      <stop
         offset="1"
         stop-opacity="0"
         id="stop3" />
    </radialGradient>
    <linearGradient
       id="gradient_ds_b"
       x1="30.448999"
       y1="48.5"
       x2="30.492201"
       y2="62.500301"
       gradientUnits="userSpaceOnUse">
      <stop
         offset="0.653846"
         id="stop5" />
      <stop
         offset="1"
         stop-opacity="0"
         id="stop6" />
    </linearGradient>
    <radialGradient
       id="gradient_ds_bl"
       cx="0"
       cy="0"
       r="1"
       gradientUnits="userSpaceOnUse"
       gradientTransform="matrix(0,14,-14,0,16.5,48.5)">
      <stop
         offset="0.65"
         id="stop8" />
      <stop
         offset="1"
         stop-opacity="0"
         id="stop10" />
    </radialGradient>
    <linearGradient
       id="gradient_ds_r"
       x1="47.5"
       y1="33.5"
       x2="61.5"
       y2="33.5009"
       gradientUnits="userSpaceOnUse">
      <stop
         offset="0.649038"
         id="stop11" />
      <stop
         offset="1"
         stop-opacity="0"
         id="stop12" />
    </linearGradient>
    <linearGradient
       id="gradient_ds_l"
       x1="16.5"
       y1="33.894699"
       x2="2.5"
       y2="33.894699"
       gradientUnits="userSpaceOnUse">
      <stop
         offset="0.649038"
         id="stop13" />
      <stop
         offset="1"
         stop-opacity="0"
         id="stop14" />
    </linearGradient>
    <radialGradient
       id="gradient_ds_tr"
       cx="0"
       cy="0"
       r="1"
       gradientTransform="matrix(0.00843236,-14,14.0084,0.0189842,47.4916,18.5)"
       gradientUnits="userSpaceOnUse">
      <stop
         offset="0.65"
         id="stop15" />
      <stop
         offset="1"
         stop-opacity="0"
         id="stop16" />
    </radialGradient>
    <linearGradient
       id="gradient_ds_t"
       x1="29.98"
       y1="18.5"
       x2="29.9158"
       y2="4.4998598"
       gradientUnits="userSpaceOnUse">
      <stop
         offset="0.649038"
         id="stop17" />
      <stop
         offset="1"
         stop-opacity="0"
         id="stop18" />
    </linearGradient>
    <radialGradient
       id="gradient_ds_tl"
       cx="0"
       cy="0"
       r="1"
       gradientTransform="matrix(-0.00843236,-14,-14.0084,0.0189842,16.5084,18.5)"
       gradientUnits="userSpaceOnUse">
      <stop
         offset="0.65"
         id="stop19" />
      <stop
         offset="1"
         stop-opacity="0"
         id="stop20" />
    </radialGradient>
    <radialGradient
       id="gradient_ds_br-7"
       cx="0"
       cy="0"
       r="1"
       gradientUnits="userSpaceOnUse"
       gradientTransform="matrix(28.996698,0.00989361,-0.00989812,29.009898,32.0033,33.4901)">
      <stop
         offset="0.85"
         id="stop1-5" />
      <stop
         offset="1"
         stop-opacity="0"
         id="stop6-3" />
    </radialGradient>
    <radialGradient
       id="gradient_ds_bl-5"
       cx="0"
       cy="0"
       r="1"
       gradientUnits="userSpaceOnUse"
       gradientTransform="matrix(0,29,-29,0,32,33.5)">
      <stop
         offset="0.846154"
         id="stop8-6" />
      <stop
         offset="1"
         stop-opacity="0"
         id="stop14-2" />
    </radialGradient>
    <radialGradient
       id="gradient_ds_tr-9"
       cx="0"
       cy="0"
       r="1"
       gradientTransform="matrix(0.017467,-29,29.0175,0.0393245,31.9825,33.5)"
       gradientUnits="userSpaceOnUse">
      <stop
         offset="0.85"
         id="stop16-1" />
      <stop
         offset="1"
         stop-opacity="0"
         id="stop18-2" />
    </radialGradient>
    <radialGradient
       id="gradient_ds_tl-7"
       cx="0"
       cy="0"
       r="1"
       gradientTransform="matrix(-0.017467,-29,-29.0175,0.0393245,32.0175,33.5)"
       gradientUnits="userSpaceOnUse">
      <stop
         offset="0.85"
         id="stop20-0" />
      <stop
         offset="1"
         stop-opacity="0"
         id="stop21" />
    </radialGradient>
    <linearGradient
       inkscape:collect="always"
       xlink:href="#linearGradient1051"
       id="linearGradient1053-3"
       x1="-127"
       y1="60"
       x2="-72"
       y2="5"
       gradientUnits="userSpaceOnUse"
       gradientTransform="translate(131.5,-0.50999685)" />
    <linearGradient
       inkscape:collect="always"
       id="linearGradient1051">
      <stop
         style="stop-color:#dadde2;stop-opacity:1;"
         offset="0"
         id="stop1047" />
      <stop
         style="stop-color:#f3f3f3;stop-opacity:1;"
         offset="1"
         id="stop1049" />
    </linearGradient>
    <radialGradient
       id="gradient_ds_br-6"
       cx="0"
       cy="0"
       r="1"
       gradientUnits="userSpaceOnUse"
       gradientTransform="matrix(13.998399,0.00477622,-0.00477841,14.004799,47.5016,48.4952)">
      <stop
         offset="0.65"
         id="stop3-7" />
      <stop
         offset="1"
         stop-opacity="0"
         id="stop4-5" />
    </radialGradient>
    <radialGradient
       id="gradient_ds_bl-9"
       cx="0"
       cy="0"
       r="1"
       gradientUnits="userSpaceOnUse"
       gradientTransform="matrix(0,14,-14,0,16.5,48.5)">
      <stop
         offset="0.65"
         id="stop10-1" />
      <stop
         offset="1"
         stop-opacity="0"
         id="stop11-2" />
    </radialGradient>
    <radialGradient
       id="gradient_ds_tr-6"
       cx="0"
       cy="0"
       r="1"
       gradientTransform="matrix(0.00843236,-14,14.0084,0.0189842,47.4916,18.5)"
       gradientUnits="userSpaceOnUse">
      <stop
         offset="0.65"
         id="stop16-0" />
      <stop
         offset="1"
         stop-opacity="0"
         id="stop17-6" />
    </radialGradient>
    <radialGradient
       id="gradient_ds_tl-8"
       cx="0"
       cy="0"
       r="1"
       gradientTransform="matrix(-0.00843236,-14,-14.0084,0.0189842,16.5084,18.5)"
       gradientUnits="userSpaceOnUse">
      <stop
         offset="0.65"
         id="stop20-7" />
      <stop
         offset="1"
         stop-opacity="0"
         id="stop21-9" />
    </radialGradient>
  </defs>
  <style
     id="style1">.st1,.st3{fill-rule:evenodd;clip-rule:evenodd;stroke:#fff;stroke-width:1.05;stroke-miterlimit:4.2}.st3{opacity:.9666;enable-background:new}</style>
  <g
     id="ds"
     opacity="0.25">
    <path
       id="ds-br"
       d="m 47.5,48.5 h 14 v 14 h -14 z"
       fill="url(#gradient_ds_br)"
       style="fill:url(#gradient_ds_br-6)" />
    <path
       id="ds-b"
       d="m 16.5,48.5 h 31 v 14 h -31 z"
       fill="url(#gradient_ds_b)"
       style="fill:url(#gradient_ds_b)" />
    <path
       id="ds-bl"
       d="m 2.5,48.5 h 14 v 14 h -14 z"
       fill="url(#gradient_ds_bl)"
       style="fill:url(#gradient_ds_bl-9)" />
    <path
       id="ds-r"
       d="m 47.5,18.5 h 14 v 30 h -14 z"
       fill="url(#gradient_ds_r)"
       style="fill:url(#gradient_ds_r)" />
    <path
       id="ds-l"
       d="m 2.5,18.5 h 14 v 30 h -14 z"
       fill="url(#gradient_ds_l)"
       style="fill:url(#gradient_ds_l)" />
    <path
       id="ds-tr"
       d="m 47.5,4.5 h 14 v 14 h -14 z"
       fill="url(#gradient_ds_tr)"
       style="fill:url(#gradient_ds_tr-6)" />
    <path
       id="ds-t"
       d="m 16.5,4.5 h 31 v 14 h -31 z"
       fill="url(#gradient_ds_t)"
       style="fill:url(#gradient_ds_t)" />
    <path
       id="ds-tl"
       d="m 16.5,4.5 h -14 v 14 h 14 z"
       fill="url(#gradient_ds_tl)"
       style="fill:url(#gradient_ds_tl-8)" />
  </g>
  <rect
     style="fill:url(#linearGradient1053-3);fill-opacity:1;stroke-width:2.74436;stroke-linecap:round"
     id="bg"
     width="55"
     height="55"
     x="4.5"
     y="4.5"
     rx="10" />
  <g
     transform="matrix(1.3072754,0,0,1.3072754,8.4690448,8.1344746)"
     id="art">
    <g
       id="g20"
       style="display:inline"
       transform="matrix(0.06196713,0,0,0.06196713,-3.2027776,21.590305)">
      <path
         id="rect1019"
         class="st1"
         d="m 201.83755,32.730469 c -1.24199,-0.0029 -2.48709,0.07771 -3.73709,0.265213 h -1.59127 L 194.79736,32.8028 c -34.2,-0.9 -68.88675,21.794655 -77.58675,55.694655 -2,8.2 -2.81378,16.013795 -3.01378,24.013795 v 86.72454 c -37.624443,14.37403 -65.194093,59.72371 -65.194093,113.36635 0,61.8 36.487447,112.50975 82.987443,117.60975 V 200.8994 h 16.90128 c 0.1,-31.1 -0.18301,-62.01019 0.21699,-93.21019 1.1,-19.800003 16.38787,-40.584656 37.58787,-40.384656 0.2,31.5 -0.28657,62.988036 0.31343,94.488036 1.8,25.6 26.09236,46.80394 51.69236,44.60394 16,-0.4 32.19993,0.91148 48.09993,-0.98852 24.3,-4.5 41.09337,-29.30418 38.79337,-53.40418 V 67.497436 c 22.1,-1.6 38.80601,19.808763 39.80601,40.408764 0.4,31.2 0.0929,62.08608 0.19288,93.18608 h 34.69464 v -93.78884 c -1.1,-10.099997 -2.69748,-22.511278 -8.19748,-32.211278 -14.2,-28.8 -47.39227,-44.400039 -78.79227,-42.000039 -9.2,-1.2 -19.00633,5.018727 -21.50633,13.718727 0.2,37.1 0.3,74.28931 0,111.38931 -1,15.6 -16.38086,27.50863 -31.68086,25.50863 -10.8,0.5 -23.10301,-0.007 -30.40301,-9.30655 -9.9,-10.5 -6.60896,-25.60049 -7.20896,-38.60049 0,-30.2 -0.10712,-60.313404 0.19288,-90.413404 -3.9375,-8.05 -12.16141,-12.637369 -20.85536,-12.657877 z"
         style="display:inline;fill:#191919;fill-opacity:1"
         transform="translate(85.111659,-308.22084)" />
      <path
         id="rect134"
         class="st1"
         d="m 368.51164,191.30352 c -2.9,0 -5.30069,2.19438 -5.40069,4.89438 v 228.99906 c 0,2.7 2.40069,4.89438 5.40069,4.89438 h 7.69117 c 0.0745,0 0.14322,0.003 0.21699,0 -0.5463,0.50278 -1.13781,1.02281 -1.80827,1.51895 -4.4,3.2 -8.52309,6.28244 -12.92309,9.28244 -4,2.6 -8.19978,5.40184 -12.19978,7.40184 -3.1,1.5 -5.69001,1.71183 -5.69001,1.71183 h -44.79683 c -0.12785,0 -0.26018,-0.009 -0.38577,0 -3.15465,-10.43382 -18.78754,-18.29967 -37.61197,-18.29967 -21.1,0 -38.21473,9.88142 -38.21473,22.18142 0,12.3 17.11473,22.20553 38.21473,22.20553 16.95529,0 31.31786,-6.39221 36.31002,-15.28589 0.52694,0.18503 1.1001,0.28932 1.68772,0.28932 h 47.0873 c 1.1,0 5.0054,-1.09403 7.3054,-2.19403 5.8,-2.5 9.59852,-5.81287 16.29852,-9.81287 7.1,-4.5 20.20438,-15.09301 20.20438,-15.09301 1.72962,-1.12801 2.54765,-3.14614 2.16993,-5.06315 42.33393,-9.98904 74.42831,-58.19313 74.42831,-116.13903 0,-61.8 -36.58745,-112.60619 -82.98745,-117.70619 v 228.46863 c -0.70823,-0.0716 -1.40016,-0.11569 -1.90471,-0.0482 V 196.1979 c 0,-2.7 -2.40069,-4.89438 -5.40069,-4.89438 z m -231.12076,1.30195 c -2.9,0 -5.28014,2.19438 -5.28014,4.89438 v 228.99906 c 0,2.7 2.38014,4.89438 5.28014,4.89438 h 7.49828 c 2.9,0 5.30426,-2.19438 5.30426,-4.89438 V 197.49985 c 0,-2.7 -2.40426,-4.89438 -5.30426,-4.89438 z m -6.79909,3.68887 c -46.5,5.1 -82.987447,55.90619 -82.987447,117.70619 0,61.8 36.487447,112.50976 82.987447,117.60976 z"
         style="display:inline;fill:#191919;fill-opacity:1"
         transform="translate(85.111659,-308.22084)" />
    </g>
  </g>
</svg>
