<?xml version="1.0" encoding="UTF-8" standalone="no"?>
<svg
   width="64"
   height="64"
   version="1.1"
   viewBox="0 0 64 64"
   id="svg30"
   sodipodi:docname="polari.svg"
   inkscape:version="1.4.4 (dcaf3e7d9e, 2026-05-05)"
   xml:space="preserve"
   xmlns:inkscape="http://www.inkscape.org/namespaces/inkscape"
   xmlns:sodipodi="http://sodipodi.sourceforge.net/DTD/sodipodi-0.dtd"
   xmlns:xlink="http://www.w3.org/1999/xlink"
   xmlns="http://www.w3.org/2000/svg"
   xmlns:svg="http://www.w3.org/2000/svg"
   xmlns:rdf="http://www.w3.org/1999/02/22-rdf-syntax-ns#"
   xmlns:cc="http://creativecommons.org/ns#"
   xmlns:dc="http://purl.org/dc/elements/1.1/"><sodipodi:namedview
     id="namedview30"
     pagecolor="#ffffff"
     bordercolor="#000000"
     borderopacity="0.25"
     inkscape:showpageshadow="2"
     inkscape:pageopacity="0.0"
     inkscape:pagecheckerboard="0"
     inkscape:deskcolor="#d1d1d1"
     inkscape:current-layer="g30" /><defs
     id="defs20"><linearGradient
       id="linearGradient3"
       inkscape:collect="always"><stop
         style="stop-color:#4dd169;stop-opacity:1;"
         offset="0"
         id="stop31" /><stop
         style="stop-color:#34c759;stop-opacity:1;"
         offset="1"
         id="stop32" /></linearGradient><filter
       id="filter2761"
       x="-0.024"
       y="-0.024"
       width="1.048"
       height="1.048"
       color-interpolation-filters="sRGB"><feGaussianBlur
         stdDeviation="0.14552168"
         id="feGaussianBlur2" /></filter><linearGradient
       id="c"
       x1="352.60999"
       x2="394.95001"
       y1="507.72"
       y2="546.21002"
       gradientTransform="matrix(0.90672652,0,0,0.96837183,-306.46903,-478.6488)"
       gradientUnits="userSpaceOnUse"><stop
         stop-color="#f3f3f3"
         offset="0"
         id="stop5" /><stop
         stop-color="#c8f2ff"
         offset="1"
         id="stop7" /></linearGradient><linearGradient
       id="linearGradient2645-3"
       x1="15.752"
       x2="1.3927"
       y1="281.23999"
       y2="295.60001"
       gradientTransform="translate(-1.428645,-283.22604)"
       gradientUnits="userSpaceOnUse"><stop
         stop-color="#3581f6"
         offset="0"
         id="stop10" /><stop
         stop-color="#205bcb"
         offset="1"
         id="stop12" /></linearGradient><linearGradient
       id="linearGradient981"
       x1="2.5804"
       x2="14.354"
       y1="8.3260002"
       y2="8.3260002"
       gradientTransform="matrix(3.5390681,0,0,3.779602,2.0365629,-7.559204e-7)"
       gradientUnits="userSpaceOnUse"><stop
         stop-color="#2a74ed"
         offset="0"
         id="stop15" /><stop
         stop-color="#2567dc"
         offset="1"
         id="stop17" /></linearGradient><filter
       color-interpolation-filters="sRGB"
       height="1.048"
       width="1.048"
       y="-0.024"
       x="-0.024"
       id="filter2761-36"><feGaussianBlur
         id="feGaussianBlur849"
         stdDeviation="0.14552168" /></filter><linearGradient
       gradientUnits="userSpaceOnUse"
       y2="1.17"
       y1="15.576"
       x2="15.65"
       x1="1.3315001"
       id="linearGradient1024-6"
       gradientTransform="translate(1.2431278,-8.3827998)"><stop
         id="stop852"
         offset="0"
         stop-color="#dadde2" /><stop
         id="stop854"
         offset="1"
         stop-opacity=".99608"
         stop-color="#f3f3f3" /></linearGradient><linearGradient
       id="linearGradient1057"><stop
         id="stop4"
         offset="0"
         stop-color="#fff" /><stop
         id="stop6"
         offset="1"
         stop-opacity="0"
         stop-color="#fff" /></linearGradient><linearGradient
       gradientUnits="userSpaceOnUse"
       gradientTransform="matrix(1.5625,0,0,1.5625,0.40633,-5.1891)"
       y2="52.847"
       y1="27.545"
       x2="34.999001"
       x1="34.999001"
       id="linearGradient982"><stop
         id="stop9"
         offset="0"
         stop-color="#49b5fe" /><stop
         id="stop11"
         offset="1"
         stop-color="#3581f6" /></linearGradient><linearGradient
       gradientUnits="userSpaceOnUse"
       gradientTransform="matrix(1.5625,0,0,1.5625,-9.2253,1.3231)"
       y2="43.681"
       y1="18.052"
       x2="21.313999"
       x1="21.313999"
       id="linearGradient1047"><stop
         id="stop18"
         offset="0"
         stop-color="#4dd169" /><stop
         id="stop20"
         offset="1"
         stop-color="#089927" /></linearGradient><linearGradient
       gradientUnits="userSpaceOnUse"
       gradientTransform="matrix(1.5625,0,0,1.5625,-8.1072,-10.908)"
       y2="37.368"
       y1="12.316"
       x2="41.729"
       x1="41.729"
       id="linearGradient1049"><stop
         id="stop23"
         offset="0"
         stop-color="#fa3a59" /><stop
         id="stop25"
         offset="1"
         stop-color="#fc3f40" /></linearGradient><linearGradient
       xlink:href="#linearGradient1057"
       gradientUnits="userSpaceOnUse"
       gradientTransform="matrix(1,0,0,1.2271,0.20646,-10.975)"
       y2="39.768002"
       y1="32.234001"
       x2="34.426998"
       x1="34.426998"
       id="linearGradient1059" /><linearGradient
       xlink:href="#linearGradient1057"
       gradientUnits="userSpaceOnUse"
       gradientTransform="matrix(1,0,0,1.2271,-12.55,-19.793)"
       y2="39.768002"
       y1="32.234001"
       x2="34.426998"
       x1="34.426998"
       id="linearGradient1063" /><linearGradient
       xlink:href="#linearGradient1057"
       gradientUnits="userSpaceOnUse"
       gradientTransform="matrix(1,0,0,1.2271,5.7554,-25.761)"
       y2="39.768002"
       y1="32.234001"
       x2="34.426998"
       x1="34.426998"
       id="linearGradient1067" /><filter
       color-interpolation-filters="sRGB"
       height="1.048"
       width="1.048"
       y="-0.024"
       x="-0.024"
       id="filter2761-6"><feGaussianBlur
         id="feGaussianBlur31"
         stdDeviation="0.14552168" /></filter><linearGradient
       gradientUnits="userSpaceOnUse"
       gradientTransform="matrix(3.7796,0,0,3.7796,72.4059,0.53085)"
       y2="1.17"
       y1="15.576"
       x2="15.65"
       x1="1.3315001"
       id="linearGradient1024"><stop
         id="stop34"
         offset="0"
         stop-color="#dadde2" /><stop
         id="stop36"
         offset="1"
         stop-opacity=".99608"
         stop-color="#f3f3f3" /></linearGradient><filter
       color-interpolation-filters="sRGB"
       height="1.048"
       width="1.048"
       y="-0.024"
       x="-0.024"
       id="filter2761-3"><feGaussianBlur
         id="feGaussianBlur2-7"
         stdDeviation="0.14552168" /></filter><linearGradient
       gradientUnits="userSpaceOnUse"
       gradientTransform="translate(0,-0.07421)"
       y2="1.17"
       y1="15.576"
       x2="15.65"
       x1="1.3315001"
       id="linearGradient1024-6-7"><stop
         id="stop5-5"
         offset="0"
         stop-color="#dadde2" /><stop
         id="stop7-3"
         offset="1"
         stop-opacity=".99608"
         stop-color="#f3f3f3" /></linearGradient><radialGradient
       id="gradient_ds_br"
       cx="0"
       cy="0"
       r="1"
       gradientUnits="userSpaceOnUse"
       gradientTransform="matrix(13.998399,0.00477622,-0.00477841,14.004799,47.5016,48.4952)"><stop
         offset="0.65"
         id="stop1" /><stop
         offset="1"
         stop-opacity="0"
         id="stop2" /></radialGradient><linearGradient
       id="gradient_ds_b"
       x1="30.448999"
       y1="48.5"
       x2="30.492201"
       y2="62.500301"
       gradientUnits="userSpaceOnUse"><stop
         offset="0.653846"
         id="stop3" /><stop
         offset="1"
         stop-opacity="0"
         id="stop8" /></linearGradient><radialGradient
       id="gradient_ds_bl"
       cx="0"
       cy="0"
       r="1"
       gradientUnits="userSpaceOnUse"
       gradientTransform="matrix(0,14,-14,0,16.5,48.5)"><stop
         offset="0.65"
         id="stop13" /><stop
         offset="1"
         stop-opacity="0"
         id="stop14" /></radialGradient><linearGradient
       id="gradient_ds_r"
       x1="47.5"
       y1="33.5"
       x2="61.5"
       y2="33.5009"
       gradientUnits="userSpaceOnUse"><stop
         offset="0.649038"
         id="stop16" /><stop
         offset="1"
         stop-opacity="0"
         id="stop19" /></linearGradient><linearGradient
       id="gradient_ds_l"
       x1="16.5"
       y1="33.894699"
       x2="2.5"
       y2="33.894699"
       gradientUnits="userSpaceOnUse"><stop
         offset="0.649038"
         id="stop21" /><stop
         offset="1"
         stop-opacity="0"
         id="stop22" /></linearGradient><radialGradient
       id="gradient_ds_tr"
       cx="0"
       cy="0"
       r="1"
       gradientTransform="matrix(0.00843236,-14,14.0084,0.0189842,47.4916,18.5)"
       gradientUnits="userSpaceOnUse"><stop
         offset="0.65"
         id="stop24" /><stop
         offset="1"
         stop-opacity="0"
         id="stop26" /></radialGradient><linearGradient
       id="gradient_ds_t"
       x1="29.98"
       y1="18.5"
       x2="29.9158"
       y2="4.4998598"
       gradientUnits="userSpaceOnUse"><stop
         offset="0.649038"
         id="stop27" /><stop
         offset="1"
         stop-opacity="0"
         id="stop28" /></linearGradient><radialGradient
       id="gradient_ds_tl"
       cx="0"
       cy="0"
       r="1"
       gradientTransform="matrix(-0.00843236,-14,-14.0084,0.0189842,16.5084,18.5)"
       gradientUnits="userSpaceOnUse"><stop
         offset="0.65"
         id="stop29" /><stop
         offset="1"
         stop-opacity="0"
         id="stop30" /></radialGradient><radialGradient
       id="gradient_ds_br-3"
       cx="0"
       cy="0"
       r="1"
       gradientUnits="userSpaceOnUse"
       gradientTransform="matrix(13.998399,0.00477622,-0.00477841,14.004799,47.5016,48.4952)"><stop
         offset="0.65"
         id="stop3-6" /><stop
         offset="1"
         stop-opacity="0"
         id="stop4-7" /></radialGradient><radialGradient
       id="gradient_ds_bl-5"
       cx="0"
       cy="0"
       r="1"
       gradientUnits="userSpaceOnUse"
       gradientTransform="matrix(0,14,-14,0,16.5,48.5)"><stop
         offset="0.65"
         id="stop10-6" /><stop
         offset="1"
         stop-opacity="0"
         id="stop11-2" /></radialGradient><radialGradient
       id="gradient_ds_tr-0"
       cx="0"
       cy="0"
       r="1"
       gradientTransform="matrix(0.00843236,-14,14.0084,0.0189842,47.4916,18.5)"
       gradientUnits="userSpaceOnUse"><stop
         offset="0.65"
         id="stop16-9" /><stop
         offset="1"
         stop-opacity="0"
         id="stop17-3" /></radialGradient><radialGradient
       id="gradient_ds_tl-6"
       cx="0"
       cy="0"
       r="1"
       gradientTransform="matrix(-0.00843236,-14,-14.0084,0.0189842,16.5084,18.5)"
       gradientUnits="userSpaceOnUse"><stop
         offset="0.65"
         id="stop20-2" /><stop
         offset="1"
         stop-opacity="0"
         id="stop21-6" /></radialGradient><linearGradient
       inkscape:collect="always"
       xlink:href="#linearGradient1051"
       id="linearGradient1053"
       x1="-127"
       y1="60"
       x2="-72"
       y2="5"
       gradientUnits="userSpaceOnUse"
       gradientTransform="translate(131.5,-0.50999685)" /><linearGradient
       inkscape:collect="always"
       id="linearGradient1051"><stop
         style="stop-color:#3a3a3a;stop-opacity:1;"
         offset="0"
         id="stop1047" /><stop
         style="stop-color:#5f5f5f;stop-opacity:1;"
         offset="1"
         id="stop1049" /></linearGradient><filter
       inkscape:collect="always"
       style="color-interpolation-filters:sRGB"
       id="filter1"
       x="-0.027"
       y="-0.027"
       width="1.054"
       height="1.054"><feGaussianBlur
         inkscape:collect="always"
         stdDeviation="9"
         id="feGaussianBlur1" /></filter><linearGradient
       inkscape:collect="always"
       xlink:href="#linearGradient3"
       id="linearGradient32"
       x1="245.82031"
       y1="-356"
       x2="-248.72656"
       y2="144.20155"
       gradientUnits="userSpaceOnUse" /></defs><metadata
     id="metadata22"><rdf:RDF><cc:Work
         rdf:about=""><dc:format>image/svg+xml</dc:format><dc:type
           rdf:resource="http://purl.org/dc/dcmitype/StillImage" /></cc:Work></rdf:RDF></metadata><g
     id="ds"
     opacity="0.25"><path
       id="ds-br"
       d="m 47.5,48.5 h 14 v 14 h -14 z"
       fill="url(#gradient_ds_br)"
       style="fill:url(#gradient_ds_br-3)" /><path
       id="ds-b"
       d="m 16.5,48.5 h 31 v 14 h -31 z"
       fill="url(#gradient_ds_b)"
       style="fill:url(#gradient_ds_b)" /><path
       id="ds-bl"
       d="m 2.5,48.5 h 14 v 14 h -14 z"
       fill="url(#gradient_ds_bl)"
       style="fill:url(#gradient_ds_bl-5)" /><path
       id="ds-r"
       d="m 47.5,18.5 h 14 v 30 h -14 z"
       fill="url(#gradient_ds_r)"
       style="fill:url(#gradient_ds_r)" /><path
       id="ds-l"
       d="m 2.5,18.5 h 14 v 30 h -14 z"
       fill="url(#gradient_ds_l)"
       style="fill:url(#gradient_ds_l)" /><path
       id="ds-tr"
       d="m 47.5,4.5 h 14 v 14 h -14 z"
       fill="url(#gradient_ds_tr)"
       style="fill:url(#gradient_ds_tr-0)" /><path
       id="ds-t"
       d="m 16.5,4.5 h 31 v 14 h -31 z"
       fill="url(#gradient_ds_t)"
       style="fill:url(#gradient_ds_t)" /><path
       id="ds-tl"
       d="m 16.5,4.5 h -14 v 14 h 14 z"
       fill="url(#gradient_ds_tl)"
       style="fill:url(#gradient_ds_tl-6)" /></g><rect
     style="fill:url(#linearGradient1053);fill-opacity:1;stroke-width:2.74436;stroke-linecap:round"
     id="bg"
     width="55"
     height="55"
     x="4.5"
     y="4.5"
     rx="10" /><g
     transform="matrix(3.779602,0,0,3.779602,0.21035375,-0.1656146)"
     fill="#3a3a3a"
     stroke-width="0.65762"
     id="art" /><g
     id="g30"
     transform="matrix(0.045,0,0,0.045,29.12,30.019965)"><path
       id="path1-6"
       style="opacity:0.2;fill:#000000;fill-opacity:1;stroke-width:1.5625;filter:url(#filter1)"
       d="m -299.62847,-333.777 c -20.08281,0 -36.37153,16.28872 -36.37153,36.37153 v 427.47395 c 0,20.08281 16.28872,36.37153 36.37153,36.37153 h 50.91146 v 93.7066 c 0,13.55938 7.54809,25.98576 19.57465,32.24826 5.28281,2.75156 11.05312,4.12327 16.79687,4.12327 7.32812,0 14.60521,-2.19601 20.83334,-6.55382 l 73.69791,-51.60591 v 61.41493 c 0,20.08282 16.28872,36.37153 36.371532,36.37153 H 143.03646 l 176.47569,123.52431 c 6.22813,4.35937 13.50209,6.55695 20.83334,6.55382 5.74375,0 11.51406,-1.37327 16.79687,-4.12327 12.02656,-6.2625 19.57465,-18.68889 19.57465,-32.24826 v -93.75 h 50.91146 C 447.71128,336.10147 464,319.85615 464,299.77334 v -427.47395 c 0,-20.08281 -16.28872,-36.37153 -36.37153,-36.37153 H 245.81424 v -133.33333 c -0.002,-20.08281 -16.28872,-36.37153 -36.37153,-36.37153 H -45.071181 Z" /><path
       style="fill:#f3f3f3;stroke-width:1.5625;fill-opacity:1"
       d="M 427.63594,-186.30313 H 245.81875 v 36.36407 36.36406 221.41406 c 0,20.08281 -16.28125,36.36406 -36.36406,36.36406 H -15.042187 l -30.048438,21.03438 -36.364062,25.45469 -36.364063,25.45468 v 61.39219 c 0,20.08281 16.28125,36.36407 36.364063,36.36407 H 143.04219 l 176.46718,123.52656 c 6.22813,4.35937 13.525,6.575 20.85625,6.57187 5.74375,0 11.50782,-1.35937 16.79063,-4.10937 12.02656,-6.2625 19.57031,-18.69532 19.57031,-32.25469 V 313.9 h 50.90938 C 447.71875,313.9 464,297.61875 464,277.53594 v -427.475 c 0,-20.08281 -16.28125,-36.36407 -36.36406,-36.36407 z"
       id="path1" /><path
       style="fill:url(#linearGradient32);stroke-width:1.5625;fill-opacity:1"
       d="M 209.45469,-356 H -45.090625 -299.63594 C -319.71875,-356 -336,-339.71875 -336,-319.63594 V 107.8375 c 0,20.08281 16.28125,36.36406 36.36406,36.36406 h 50.90938 v 93.7375 c 0,13.55938 7.54375,25.99219 19.57031,32.25469 5.28281,2.75156 11.04688,4.10938 16.79063,4.10938 7.32812,0 14.62812,-2.21407 20.85625,-6.57188 l 73.69218,-51.58594 36.364065,-25.45468 36.364062,-25.45469 30.048438,-21.03281 H 209.45625 c 20.08281,0 36.36406,-16.28125 36.36406,-36.36407 V -113.575 -149.93906 -186.30313 -319.63594 C 245.81875,-339.71875 229.5375,-356 209.45469,-356 Z"
       id="path2" /><rect
       style="display:none;opacity:0.2;fill:#000000;fill-opacity:1;stroke-width:4.37021;stroke-linecap:round;paint-order:stroke fill markers"
       id="rect3"
       width="581.82031"
       height="498.34259"
       x="-336"
       y="-355.37701" /><path
       style="fill:#f3f3f3;fill-opacity:1;stroke-width:0.179688"
       d="m -108.97872,-10.372385 v -31.944451 h -31.94445 -31.94445 v -15.972221 -15.972226 h 31.94445 31.94445 v -31.944427 -31.94446 h -31.94445 -31.94445 v -15.97219 -15.97224 h 31.94445 31.94445 v -31.94444 -31.94444 h 15.972224 15.972217 v 31.94444 31.94444 h 31.944448 31.944442 v -31.94444 -31.94444 H 2.8268606 18.799058 v 31.94444 31.94444 h 31.944438 31.944438 v 15.97224 15.97219 H 50.743496 18.799058 v 31.94446 31.944427 h 31.944438 31.944438 v 15.972226 15.972221 H 50.743496 18.799058 v 31.944451 31.94443 H 2.8268606 -13.145389 v -31.94443 -31.944451 h -31.944442 -31.944448 v 31.944451 31.94443 h -15.972217 -15.972224 z m 95.833331,-95.833325 v -31.94446 h -31.944442 -31.944448 v 31.94446 31.944427 h 31.944448 31.944442 z"
       id="path3" /></g></svg>
