<?xml version="1.0" encoding="UTF-8" standalone="no"?>
<svg xmlns:inkscape="http://www.inkscape.org/namespaces/inkscape" xmlns:sodipodi="http://sodipodi.sourceforge.net/DTD/sodipodi-0.dtd" xmlns:xlink="http://www.w3.org/1999/xlink" xmlns="http://www.w3.org/2000/svg" xmlns:rdf="http://www.w3.org/1999/02/22-rdf-syntax-ns#" xmlns:cc="http://creativecommons.org/ns#" xmlns:dc="http://purl.org/dc/elements/1.1/" width="64" height="64" version="1.1" viewBox="0 0 64 64" id="svg24" sodipodi:docname="protonmail-bridge.svg" inkscape:version="1.4.4 (dcaf3e7d9e, 2026-05-05)">
  <sodipodi:namedview id="namedview1" pagecolor="#ffffff" bordercolor="#000000" borderopacity="0.25" inkscape:showpageshadow="2" inkscape:pageopacity="0.0" inkscape:pagecheckerboard="0" inkscape:deskcolor="#d1d1d1" showgrid="false" inkscape:current-layer="art">
    <inkscape:grid id="grid2" units="px" originx="0" originy="0" spacingx="0.5" spacingy="0.5" empcolor="#0099e5" empopacity="0.30196078" color="#0099e5" opacity="0.14901961" empspacing="2" enabled="true" visible="false"/>
  </sodipodi:namedview>
  <metadata id="metadata2">
    <rdf:RDF>
      <cc:Work rdf:about="">
        <dc:format>image/svg+xml</dc:format>
        <dc:type rdf:resource="http://purl.org/dc/dcmitype/StillImage"/>
      </cc:Work>
    </rdf:RDF>
  </metadata>
  <defs id="defs12">
    <filter id="filter2761-3" x="-0.024" y="-0.024" width="1.048" height="1.048" color-interpolation-filters="sRGB">
      <feGaussianBlur stdDeviation="0.14552168" id="feGaussianBlur4"/>
    </filter>
    <linearGradient id="linearGradient1024" x1="1.3315001" x2="15.65" y1="15.576" y2="1.17" gradientTransform="translate(-8.4984e-4,0.14045)" gradientUnits="userSpaceOnUse">
      <stop stop-color="#dadde2" offset="0" id="stop7"/>
      <stop stop-color="#f3f3f3" stop-opacity=".99608" offset="1" id="stop9"/>
    </linearGradient>
    <filter color-interpolation-filters="sRGB" height="1.048" width="1.048" y="-0.024" x="-0.024" id="filter2761-3-3">
      <feGaussianBlur id="feGaussianBlur2" stdDeviation="0.14552168"/>
    </filter>
    <linearGradient gradientUnits="userSpaceOnUse" gradientTransform="matrix(3.7796,0,0,3.7796,-0.0026448,0.53066)" y2="1.17" y1="15.576" x2="15.65" x1="1.3315001" id="linearGradient1024-6">
      <stop id="stop5" offset="0" stop-color="#dadde2"/>
      <stop id="stop7-7" offset="1" stop-opacity=".99608" stop-color="#f3f3f3"/>
    </linearGradient>
    <linearGradient inkscape:collect="always" xlink:href="#linearGradient1051" id="linearGradient1053" x1="-127" y1="60" x2="-72" y2="5" gradientUnits="userSpaceOnUse" gradientTransform="translate(131.5,-0.50999685)"/>
    <linearGradient inkscape:collect="always" id="linearGradient1051">
      <stop style="stop-color:#292929;stop-opacity:1;" offset="0" id="stop1047"/>
      <stop style="stop-color:#353b44;stop-opacity:1;" offset="1" id="stop1049"/>
    </linearGradient>
    <radialGradient id="gradient_ds_br" cx="0" cy="0" r="1" gradientUnits="userSpaceOnUse" gradientTransform="matrix(13.998399,0.00477622,-0.00477841,14.004799,47.5016,48.4952)">
      <stop offset="0.65" id="stop3"/>
      <stop offset="1" stop-opacity="0" id="stop4"/>
    </radialGradient>
    <linearGradient id="gradient_ds_b" x1="30.448999" y1="48.5" x2="30.492201" y2="62.500301" gradientUnits="userSpaceOnUse">
      <stop offset="0.653846" id="stop6"/>
      <stop offset="1" stop-opacity="0" id="stop8"/>
    </linearGradient>
    <radialGradient id="gradient_ds_bl" cx="0" cy="0" r="1" gradientUnits="userSpaceOnUse" gradientTransform="matrix(0,14,-14,0,16.5,48.5)">
      <stop offset="0.65" id="stop10"/>
      <stop offset="1" stop-opacity="0" id="stop11"/>
    </radialGradient>
    <linearGradient id="gradient_ds_r" x1="47.5" y1="33.5" x2="61.5" y2="33.5009" gradientUnits="userSpaceOnUse">
      <stop offset="0.649038" id="stop12"/>
      <stop offset="1" stop-opacity="0" id="stop13"/>
    </linearGradient>
    <linearGradient id="gradient_ds_l" x1="16.5" y1="33.894699" x2="2.5" y2="33.894699" gradientUnits="userSpaceOnUse">
      <stop offset="0.649038" id="stop14"/>
      <stop offset="1" stop-opacity="0" id="stop15"/>
    </linearGradient>
    <radialGradient id="gradient_ds_tr" cx="0" cy="0" r="1" gradientTransform="matrix(0.00843236,-14,14.0084,0.0189842,47.4916,18.5)" gradientUnits="userSpaceOnUse">
      <stop offset="0.65" id="stop16"/>
      <stop offset="1" stop-opacity="0" id="stop17"/>
    </radialGradient>
    <linearGradient id="gradient_ds_t" x1="29.98" y1="18.5" x2="29.9158" y2="4.4998598" gradientUnits="userSpaceOnUse">
      <stop offset="0.649038" id="stop18"/>
      <stop offset="1" stop-opacity="0" id="stop19"/>
    </linearGradient>
    <radialGradient id="gradient_ds_tl" cx="0" cy="0" r="1" gradientTransform="matrix(-0.00843236,-14,-14.0084,0.0189842,16.5084,18.5)" gradientUnits="userSpaceOnUse">
      <stop offset="0.65" id="stop20"/>
      <stop offset="1" stop-opacity="0" id="stop21"/>
    </radialGradient>
    <linearGradient id="paint0_linear_11985_190892" x1="95.039055" y1="86.000397" x2="19.595253" y2="-32.821171" gradientUnits="userSpaceOnUse">
      <stop offset="0.271" stop-color="#e6d8fb" id="stop13-7" style="stop-color:#ccaef9;stop-opacity:1;"/>
      <stop offset="1" stop-color="#625be9" id="stop14-5" style="stop-color:#625be9;stop-opacity:1;"/>
    </linearGradient>
    <linearGradient id="paint1_linear_11985_190892" x1="62.634602" y1="86.798401" x2="18.552999" y2="-87.2799" gradientUnits="userSpaceOnUse">
      <stop stop-color="#e6d8fb" id="stop15-3"/>
      <stop offset="1" stop-color="#625be9" id="stop16-5"/>
    </linearGradient>
    <radialGradient id="paint2_radial_11985_190892" cx="0" cy="0" r="1" gradientUnits="userSpaceOnUse" gradientTransform="matrix(123.614,0,0,125.045,105.538,10.5272)">
      <stop offset="0.5561" stop-color="#625be9" id="stop17-6"/>
      <stop offset="0.9944" stop-color="#b37ef5" id="stop18-2"/>
    </radialGradient>
    <linearGradient id="paint0_linear_11985_190892-7" x1="95.039055" y1="86.000397" x2="19.595253" y2="-32.821171" gradientUnits="userSpaceOnUse" gradientTransform="matrix(0.07284534,0,0,0.07284534,4.5500426,7.0079965)">
      <stop offset="0.271" stop-color="#e6d8fb" id="stop13-7-5" style="stop-color:#ccaef9;stop-opacity:1;"/>
      <stop offset="1" stop-color="#625be9" id="stop14-5-9" style="stop-color:#625be9;stop-opacity:1;"/>
    </linearGradient>
    <radialGradient id="paint2_radial_11985_190892-2" cx="0" cy="0" r="1" gradientUnits="userSpaceOnUse" gradientTransform="matrix(123.614,0,0,125.045,105.538,10.5272)">
      <stop offset="0.5561" stop-color="#625be9" id="stop17-6-2"/>
      <stop offset="0.9944" stop-color="#b37ef5" id="stop18-2-8"/>
    </radialGradient>
    <filter inkscape:collect="always" style="color-interpolation-filters:sRGB" id="filter2" x="-0.053605968" y="-0.043455536" width="1.1072119" height="1.0869111">
      <feGaussianBlur inkscape:collect="always" stdDeviation="0.16287956" id="feGaussianBlur3"/>
    </filter>
  </defs>
  <g id="ds" opacity="0.25">
    <path id="ds-br" d="m 47.5,48.5 h 14 v 14 h -14 z" fill="url(#gradient_ds_br)" style="fill:url(#gradient_ds_br)"/>
    <path id="ds-b" d="m 16.5,48.5 h 31 v 14 h -31 z" fill="url(#gradient_ds_b)" style="fill:url(#gradient_ds_b)"/>
    <path id="ds-bl" d="m 2.5,48.5 h 14 v 14 h -14 z" fill="url(#gradient_ds_bl)" style="fill:url(#gradient_ds_bl)"/>
    <path id="ds-r" d="m 47.5,18.5 h 14 v 30 h -14 z" fill="url(#gradient_ds_r)" style="fill:url(#gradient_ds_r)"/>
    <path id="ds-l" d="m 2.5,18.5 h 14 v 30 h -14 z" fill="url(#gradient_ds_l)" style="fill:url(#gradient_ds_l)"/>
    <path id="ds-tr" d="m 47.5,4.5 h 14 v 14 h -14 z" fill="url(#gradient_ds_tr)" style="fill:url(#gradient_ds_tr)"/>
    <path id="ds-t" d="m 16.5,4.5 h 31 v 14 h -31 z" fill="url(#gradient_ds_t)" style="fill:url(#gradient_ds_t)"/>
    <path id="ds-tl" d="m 16.5,4.5 h -14 v 14 h 14 z" fill="url(#gradient_ds_tl)" style="fill:url(#gradient_ds_tl)"/>
  </g>
  <rect style="fill:url(#linearGradient1053);fill-opacity:1;stroke-width:2.74436;stroke-linecap:round" id="bg" width="55" height="55" x="4.5" y="4.5" rx="10"/>
  <g transform="matrix(3.779602,0,0,3.779602,0.21035375,-0.1656146)" fill="#3a3a3a" stroke-width="0.65762" id="art">
    <path id="path11-6" style="opacity:0.25;fill:#000000;fill-opacity:1;stroke-width:0.045243;filter:url(#filter2)" d="M 8.4108077,4.0124897 C 5.5339538,4.0125238 4.7646565,6.885431 4.7646565,7.2623851 v 0.4104463 0.00244 0.00195 0.836022 3.7311086 c 0,0.421348 0.3374941,0.763791 0.7540226,0.763791 h 4.9877749 0.796482 c 0.41655,0 0.754023,-0.342436 0.754023,-0.763791 V 7.6752716 7.261409 c 0,-0.3762604 -0.769368,-3.248961 -3.6461513,-3.2489193 z m 0,1.5573534 c 1.0915669,-6.5e-6 2.0003653,0.8418005 2.0888143,1.9346126 h 0.0068 v 0.1708159 0.5275773 9.727e-4 L 9.3956412,9.1374527 8.8934474,9.5596122 c -0.2794217,0.2351735 -0.6849465,0.2351735 -0.9643681,0 L 6.3151614,8.2033369 V 7.6752716 7.5044557 h 0.00683 C 6.4104415,6.4116436 7.3192407,5.5698366 8.4108077,5.5698431 Z"/>
    <g id="g1" transform="matrix(0.06879837,0,0,0.06879837,4.7645317,6.8268805)">
      <path id="path11" style="fill:url(#paint0_linear_11985_190892)" d="M 52.999993,-44.753514 C 11.183841,-44.753018 -6.875e-6,-2.9962992 -6.875e-6,2.4828145 v 5.9667968 0.033203 0.033203 12.1523437 l 1.781249975,1.5 C 4.9863411,34.270311 12.33636,44.849968 22.539056,52.047268 v -12.40625 l 10.939453,9.207031 c 3.6932,3.1116 9.07504,3.035553 12.68164,-0.185547 l 21.152344,-18.921875 -7.298828,6.134766 c -4.0615,3.4183 -9.954125,3.4183 -14.015625,0 L 22.539056,16.160549 V 8.4828145 6.0023457 h 0.09961 c 1.285618,-15.8842725 14.494992,-28.1172827 30.361328,-28.1171877 15.866336,-9.5e-5 29.07571,12.2329152 30.361328,28.1171877 h 0.09961 V 8.4828145 16.154689 52.045314 C 74.539347,58.339406 63.902349,61.716837 52.999994,61.717189 42.097849,61.717409 31.46087,58.340666 22.539057,52.047268 V 68.46133 h 60.921875 v 17.539063 h 11.578125 c 6.054703,0 10.960933,-4.97511 10.960933,-11.09961 V 8.4828145 2.4710957 c 0,-5.4690299 -11.184873,-47.2252157 -52.999997,-47.2246097 z" sodipodi:nodetypes="cscccccccccccccccccccccccccccsscsc"/>
      <path d="m 83.4613,16.1661 -16.1485,13.5746 0.0108,-10e-5 -21.1632,18.9212 c -3.6066,3.2211 -8.9895,3.2978 -12.6827,0.1862 L 0,20.6691 V 74.9015 C 0,81.0259 4.9063,86 10.9607,86 h 72.5006 z" fill="url(#paint2_radial_11985_190892)" id="path13" style="fill:url(#paint2_radial_11985_190892)"/>
    </g>
  </g>
</svg>
