<?xml version="1.0" encoding="UTF-8" standalone="no"?>
<svg
   width="64"
   height="64"
   version="1.1"
   viewBox="0 0 64 64"
   id="svg62"
   sodipodi:docname="qq.svg"
   inkscape:version="1.4.4 (dcaf3e7d9e, 2026-05-05)"
   xmlns:inkscape="http://www.inkscape.org/namespaces/inkscape"
   xmlns:sodipodi="http://sodipodi.sourceforge.net/DTD/sodipodi-0.dtd"
   xmlns:xlink="http://www.w3.org/1999/xlink"
   xmlns="http://www.w3.org/2000/svg"
   xmlns:svg="http://www.w3.org/2000/svg"
   xmlns:rdf="http://www.w3.org/1999/02/22-rdf-syntax-ns#"
   xmlns:cc="http://creativecommons.org/ns#"
   xmlns:dc="http://purl.org/dc/elements/1.1/">
  <sodipodi:namedview
     id="namedview20"
     pagecolor="#ffffff"
     bordercolor="#000000"
     borderopacity="0.25"
     inkscape:showpageshadow="2"
     inkscape:pageopacity="0.0"
     inkscape:pagecheckerboard="0"
     inkscape:deskcolor="#d1d1d1"
     inkscape:current-layer="svg62" />
  <defs
     id="defs15">
    <filter
       id="filter2761"
       x="-0.024"
       y="-0.024"
       width="1.048"
       height="1.048"
       color-interpolation-filters="sRGB">
      <feGaussianBlur
         stdDeviation="0.14552168"
         id="feGaussianBlur2" />
    </filter>
    <linearGradient
       id="linearGradient1024"
       x1="1.3315001"
       x2="15.65"
       y1="15.576"
       y2="1.17"
       gradientUnits="userSpaceOnUse"
       gradientTransform="translate(1.1902151,-4.762997)">
      <stop
         stop-color="#3cccef"
         offset="0"
         id="stop5" />
      <stop
         stop-color="#21a9fa"
         offset="1"
         id="stop7" />
    </linearGradient>
    <linearGradient
       id="linearGradient968"
       x1="0.22194999"
       x2="25.798"
       y1="31.117001"
       y2="-0.031266998"
       gradientUnits="userSpaceOnUse">
      <stop
         stop-color="#f1f3f8"
         offset="0"
         id="stop10" />
      <stop
         stop-color="#74defb"
         offset="1"
         id="stop12" />
    </linearGradient>
    <filter
       id="filter1057"
       x="-0.026999999"
       y="-0.026999999"
       width="1.054"
       height="1.054"
       color-interpolation-filters="sRGB">
      <feGaussianBlur
         stdDeviation="0.61875"
         id="feGaussianBlur843" />
    </filter>
    <linearGradient
       id="linearGradient1053"
       x1="-127"
       x2="-72"
       y1="60"
       y2="5"
       gradientTransform="translate(131.5,-0.51000022)"
       gradientUnits="userSpaceOnUse">
      <stop
         stop-color="#55d6f7"
         offset="0"
         id="stop846" />
      <stop
         stop-color="#408eff"
         offset="1"
         id="stop848" />
    </linearGradient>
    <filter
       id="filter1057-6"
       x="-0.026999999"
       y="-0.026999999"
       width="1.054"
       height="1.054"
       color-interpolation-filters="sRGB">
      <feGaussianBlur
         stdDeviation="0.61875"
         id="feGaussianBlur843-2" />
    </filter>
    <radialGradient
       id="gradient_ds_br"
       cx="0"
       cy="0"
       r="1"
       gradientUnits="userSpaceOnUse"
       gradientTransform="matrix(13.998399,0.00477622,-0.00477841,14.004799,47.5016,48.4952)">
      <stop
         offset="0.65"
         id="stop1" />
      <stop
         offset="1"
         stop-opacity="0"
         id="stop2" />
    </radialGradient>
    <linearGradient
       id="gradient_ds_b"
       x1="30.448999"
       y1="48.5"
       x2="30.492201"
       y2="62.500301"
       gradientUnits="userSpaceOnUse">
      <stop
         offset="0.653846"
         id="stop3" />
      <stop
         offset="1"
         stop-opacity="0"
         id="stop4" />
    </linearGradient>
    <radialGradient
       id="gradient_ds_bl"
       cx="0"
       cy="0"
       r="1"
       gradientUnits="userSpaceOnUse"
       gradientTransform="matrix(0,14,-14,0,16.5,48.5)">
      <stop
         offset="0.65"
         id="stop6" />
      <stop
         offset="1"
         stop-opacity="0"
         id="stop8" />
    </radialGradient>
    <linearGradient
       id="gradient_ds_r"
       x1="47.5"
       y1="33.5"
       x2="61.5"
       y2="33.5009"
       gradientUnits="userSpaceOnUse">
      <stop
         offset="0.649038"
         id="stop9" />
      <stop
         offset="1"
         stop-opacity="0"
         id="stop11" />
    </linearGradient>
    <linearGradient
       id="gradient_ds_l"
       x1="16.5"
       y1="33.894699"
       x2="2.5"
       y2="33.894699"
       gradientUnits="userSpaceOnUse">
      <stop
         offset="0.649038"
         id="stop13" />
      <stop
         offset="1"
         stop-opacity="0"
         id="stop14" />
    </linearGradient>
    <radialGradient
       id="gradient_ds_tr"
       cx="0"
       cy="0"
       r="1"
       gradientTransform="matrix(0.00843236,-14,14.0084,0.0189842,47.4916,18.5)"
       gradientUnits="userSpaceOnUse">
      <stop
         offset="0.65"
         id="stop15" />
      <stop
         offset="1"
         stop-opacity="0"
         id="stop16" />
    </radialGradient>
    <linearGradient
       id="gradient_ds_t"
       x1="29.98"
       y1="18.5"
       x2="29.9158"
       y2="4.4998598"
       gradientUnits="userSpaceOnUse">
      <stop
         offset="0.649038"
         id="stop17" />
      <stop
         offset="1"
         stop-opacity="0"
         id="stop18" />
    </linearGradient>
    <radialGradient
       id="gradient_ds_tl"
       cx="0"
       cy="0"
       r="1"
       gradientTransform="matrix(-0.00843236,-14,-14.0084,0.0189842,16.5084,18.5)"
       gradientUnits="userSpaceOnUse">
      <stop
         offset="0.65"
         id="stop19" />
      <stop
         offset="1"
         stop-opacity="0"
         id="stop20" />
    </radialGradient>
    <linearGradient
       inkscape:collect="always"
       xlink:href="#linearGradient1051"
       id="linearGradient1053-3"
       x1="-127"
       y1="60"
       x2="-72"
       y2="5"
       gradientUnits="userSpaceOnUse"
       gradientTransform="translate(131.5,-0.50999685)" />
    <linearGradient
       inkscape:collect="always"
       id="linearGradient1051">
      <stop
         style="stop-color:#dadde2;stop-opacity:1;"
         offset="0"
         id="stop1047" />
      <stop
         style="stop-color:#f3f3f3;stop-opacity:1;"
         offset="1"
         id="stop1049" />
    </linearGradient>
    <radialGradient
       inkscape:collect="always"
       xlink:href="#linearGradient3106"
       id="radialGradient3127-6"
       cx="23.991123"
       cy="44.514973"
       fx="23.991123"
       fy="44.514973"
       r="20.85965"
       gradientTransform="matrix(0.19659779,0,0,0.04114472,3.6942434,11.905739)"
       gradientUnits="userSpaceOnUse" />
    <linearGradient
       inkscape:collect="always"
       id="linearGradient3106">
      <stop
         style="stop-color:black;stop-opacity:1;"
         offset="0"
         id="stop3108" />
      <stop
         style="stop-color:black;stop-opacity:0;"
         offset="1"
         id="stop3110" />
    </linearGradient>
  </defs>
  <metadata
     id="metadata17">
    <rdf:RDF>
      <cc:Work
         rdf:about="">
        <dc:format>image/svg+xml</dc:format>
        <dc:type
           rdf:resource="http://purl.org/dc/dcmitype/StillImage" />
      </cc:Work>
    </rdf:RDF>
  </metadata>
  <g
     id="ds"
     opacity="0.25">
    <path
       id="ds-br"
       d="m 47.5,48.5 h 14 v 14 h -14 z"
       fill="url(#gradient_ds_br)"
       style="fill:url(#gradient_ds_br)" />
    <path
       id="ds-b"
       d="m 16.5,48.5 h 31 v 14 h -31 z"
       fill="url(#gradient_ds_b)"
       style="fill:url(#gradient_ds_b)" />
    <path
       id="ds-bl"
       d="m 2.5,48.5 h 14 v 14 h -14 z"
       fill="url(#gradient_ds_bl)"
       style="fill:url(#gradient_ds_bl)" />
    <path
       id="ds-r"
       d="m 47.5,18.5 h 14 v 30 h -14 z"
       fill="url(#gradient_ds_r)"
       style="fill:url(#gradient_ds_r)" />
    <path
       id="ds-l"
       d="m 2.5,18.5 h 14 v 30 h -14 z"
       fill="url(#gradient_ds_l)"
       style="fill:url(#gradient_ds_l)" />
    <path
       id="ds-tr"
       d="m 47.5,4.5 h 14 v 14 h -14 z"
       fill="url(#gradient_ds_tr)"
       style="fill:url(#gradient_ds_tr)" />
    <path
       id="ds-t"
       d="m 16.5,4.5 h 31 v 14 h -31 z"
       fill="url(#gradient_ds_t)"
       style="fill:url(#gradient_ds_t)" />
    <path
       id="ds-tl"
       d="m 16.5,4.5 h -14 v 14 h 14 z"
       fill="url(#gradient_ds_tl)"
       style="fill:url(#gradient_ds_tl)" />
  </g>
  <rect
     style="fill:url(#linearGradient1053-3);fill-opacity:1;stroke-width:2.74436;stroke-linecap:round"
     id="bg"
     width="55"
     height="55"
     x="4.5"
     y="4.5"
     rx="10" />
  <g
     transform="matrix(3.779602,0,0,3.779602,0.21035375,-0.1656146)"
     fill="#333333"
     stroke-width="0.65762"
     id="art">
    <ellipse
       style="color:#000000;display:inline;overflow:visible;visibility:visible;opacity:0.2;fill:url(#radialGradient3127-6);fill-opacity:1;fill-rule:nonzero;stroke:none;stroke-width:0.220037;stroke-linecap:butt;stroke-linejoin:miter;stroke-miterlimit:4;stroke-dasharray:none;stroke-dashoffset:0;stroke-opacity:1;marker:none;marker-start:none;marker-mid:none;marker-end:none;enable-background:accumulate"
       id="path3119-9"
       cx="8.4108448"
       cy="13.737297"
       rx="4.1009612"
       ry="0.85826558" />
    <g
       fill-rule="nonzero"
       id="g8"
       transform="matrix(0.02116625,0,0,0.02116625,2.992277,3.0917592)"
       style="opacity:1">
      <path
         d="m 256.012,500.255 c -43.552,0 -83.53,-14.575 -109.269,-36.349 -13.072,3.908 -29.794,10.19 -40.343,17.986 -9.032,6.665 -7.907,13.46 -6.277,16.205 7.144,12.057 122.566,7.7 155.889,3.944 z m 0,0 c 43.557,0 83.53,-14.575 109.274,-36.349 13.068,3.908 29.79,10.19 40.343,17.986 9.027,6.665 7.902,13.46 6.273,16.205 -7.145,12.057 -122.567,7.7 -155.89,3.944 z"
         fill="#faab07"
         id="path1" />
      <path
         d="m 256.266,239.23 c 71.923,-0.49 129.563,-14.41 149.096,-19.75 4.653,-1.273 7.144,-3.557 7.144,-3.557 0.018,-0.656 0.297,-11.708 0.297,-17.41 0,-96.02 -45.329,-192.508 -156.805,-192.513 -111.472,0.005 -156.8,96.493 -156.8,192.512 0,5.703 0.277,16.755 0.297,17.411 0,0 2.025,2.136 5.736,3.17 18.033,5.019 76.76,19.634 150.503,20.136 h 0.532 z m 195.443,79.992 c -4.458,-14.347 -10.544,-31.078 -16.707,-47.148 0,0 -3.543,-0.437 -5.339,0.08 -55.298,16.067 -122.322,26.304 -173.397,25.686 h -0.532 c -50.792,0.608 -117.36,-9.51 -172.472,-25.417 -2.107,-0.608 -6.264,-0.35 -6.264,-0.35 -6.162,16.07 -12.249,32.802 -16.707,47.149 -21.26,68.417 -14.37,96.732 -9.127,97.368 11.254,1.361 43.805,-51.504 43.805,-51.504 0,53.717 48.499,136.2 159.56,136.955 0.492,-0.004 2.45,-0.004 2.944,0 111.06,-0.756 159.558,-83.238 159.558,-136.955 0,0 32.552,52.865 43.805,51.504 5.244,-0.636 12.134,-28.95 -9.127,-97.368"
         id="path2"
         style="fill:#191919;fill-opacity:1" />
      <path
         d="m 216.334,147.86 c -15.122,0.684 -28.041,-16.544 -28.855,-38.443 -0.82,-21.912 10.764,-40.228 25.886,-40.913 15.109,-0.676 28.023,16.544 28.842,38.451 0.829,21.913 -10.76,40.23 -25.873,40.905 m 108.182,-38.443 c -0.809,21.899 -13.728,39.127 -28.85,38.443 -15.113,-0.68 -26.7,-18.992 -25.872,-40.905 0.819,-21.907 13.733,-39.127 28.84,-38.451 15.123,0.685 26.706,19 25.882,40.913"
         fill="#ffffff"
         id="path3" />
      <path
         d="m 351.394,178.788 c -4.041,-8.95 -44.739,-18.923 -95.124,-18.923 h -0.54 c -50.386,0 -91.083,9.973 -95.125,18.923 a 3.009,3.009 0 0 0 -0.296,1.274 c 0,0.647 0.22,1.226 0.555,1.723 3.41,4.962 48.6,29.493 94.866,29.493 h 0.54 c 46.268,0 91.457,-24.527 94.86,-29.493 0.342,-0.492 0.556,-1.08 0.556,-1.728 0,-0.455 -0.109,-0.88 -0.292,-1.269"
         fill="#faab07"
         id="path4" />
      <path
         d="m 234.923,109.738 c 0.69,8.653 -4.055,16.338 -10.586,17.177 -6.542,0.842 -12.399,-5.488 -13.093,-14.145 -0.685,-8.659 4.057,-16.344 10.573,-17.177 6.556,-0.847 12.422,5.492 13.106,14.145 m 41.546,2.892 c 1.336,-2.394 10.44,-14.983 29.282,-10.4 4.951,1.206 7.24,2.978 7.723,3.672 0.714,1.03 0.91,2.495 0.187,4.469 -1.432,3.911 -4.39,3.806 -6.029,3.04 -1.057,-0.493 -14.183,-9.242 -26.275,3.81 -0.832,0.897 -2.321,1.203 -3.73,0.14 -1.412,-1.067 -1.992,-3.227 -1.158,-4.731"
         id="path5"
         style="fill:#0a0a0a;fill-opacity:1" />
      <path
         d="m 256.266,294.69 h -0.532 c -34.736,0.421 -76.85,-4.18 -117.64,-12.22 -3.49,20.216 -5.596,45.63 -3.787,75.936 4.574,76.597 50.064,124.745 120.278,125.445 h 2.855 c 70.218,-0.7 115.704,-48.848 120.282,-125.445 1.81,-30.312 -0.301,-55.72 -3.793,-75.942 -40.793,8.045 -82.918,12.647 -117.663,12.226"
         fill="#ffffff"
         id="path6"
         style="fill:#f3f3f3;fill-opacity:1" />
      <path
         d="m 157.321,288.282 v 75.382 c 0,0 34.53,6.962 69.126,2.14 v -69.53 c -21.917,-1.24 -45.553,-4.003 -69.126,-7.992"
         fill="#eb1923"
         id="path7" />
      <path
         d="m 412.506,215.923 c 0,0 -67.169,21.204 -156.24,21.807 h -0.532 C 166.807,237.132 99.724,215.996 99.494,215.923 l -22.496,56.15 c 56.27,16.967 126.005,27.899 178.736,27.261 h 0.532 c 52.73,0.638 122.461,-10.294 178.736,-27.26 l -22.496,-56.15 z"
         fill="#eb1923"
         id="path8" />
    </g>
  </g>
</svg>
