<?xml version="1.0" encoding="UTF-8" standalone="no"?>
<svg xmlns:inkscape="http://www.inkscape.org/namespaces/inkscape" xmlns:sodipodi="http://sodipodi.sourceforge.net/DTD/sodipodi-0.dtd" xmlns:xlink="http://www.w3.org/1999/xlink" xmlns="http://www.w3.org/2000/svg" xmlns:svg="http://www.w3.org/2000/svg" xmlns:rdf="http://www.w3.org/1999/02/22-rdf-syntax-ns#" xmlns:cc="http://creativecommons.org/ns#" xmlns:dc="http://purl.org/dc/elements/1.1/" width="64" height="64" version="1" id="svg18" sodipodi:docname="yahoo-mail.svg" inkscape:version="1.4.2 (ebf0e940d0, 2025-05-08)">
  <sodipodi:namedview id="namedview1" pagecolor="#ffffff" bordercolor="#000000" borderopacity="0.25" inkscape:showpageshadow="2" inkscape:pageopacity="0.0" inkscape:pagecheckerboard="0" inkscape:deskcolor="#d1d1d1" inkscape:current-layer="svg18"/>
  <metadata id="metadata24">
    <rdf:RDF>
      <cc:Work rdf:about="">
        <dc:format>image/svg+xml</dc:format>
        <dc:type rdf:resource="http://purl.org/dc/dcmitype/StillImage"/>
        <dc:title/>
      </cc:Work>
    </rdf:RDF>
  </metadata>
  <defs id="defs22">
    <linearGradient inkscape:collect="always" id="linearGradient1077">
      <stop style="stop-color:#7139d2;stop-opacity:1;" offset="0" id="stop1073"/>
      <stop style="stop-color:#a53cff;stop-opacity:1" offset="1" id="stop1075"/>
    </linearGradient>
    <linearGradient id="g" x1="-322.18" x2="-320.91" y1="509.99" y2="594.99" gradientTransform="matrix(0.26453,0,0,0.23277,15.931001,-91.006)" gradientUnits="userSpaceOnUse">
      <stop stop-color="#eff0f1" offset="0" id="stop2"/>
      <stop stop-color="#ccd2d7" offset="1" id="stop4"/>
    </linearGradient>
    <linearGradient id="e" x1="-303.15" x2="-301.88" y1="591.82" y2="515.06" gradientTransform="matrix(0.26453,0,0,0.22561,17.931001,-94.346)" gradientUnits="userSpaceOnUse">
      <stop stop-color="#ffee5e" offset="0" id="stop7"/>
      <stop stop-color="#feff9f" offset="1" id="stop9"/>
    </linearGradient>
    <linearGradient id="f" x1="-322.73" x2="-320.91" y1="595.62" y2="510.62" gradientTransform="matrix(0.26757,0,0,0.22024,21.111001,-98.601)" gradientUnits="userSpaceOnUse">
      <stop stop-color="#ff594d" offset="0" id="stop12"/>
      <stop stop-color="#ff7f76" offset="1" id="stop14"/>
    </linearGradient>
    <linearGradient id="a" x1="32.079" x2="31.961" y1="62.104" y2="3.0577" gradientTransform="matrix(1.2321,0,0,1.2321,-105.0272,-8.4535)" gradientUnits="userSpaceOnUse">
      <stop stop-color="#957d75" offset="0" id="stop17"/>
      <stop stop-color="#d1b0a4" offset="1" id="stop19"/>
    </linearGradient>
    <filter id="j" x="-.027881" y="-.05079" width="1.0558" height="1.1016" color-interpolation-filters="sRGB">
      <feGaussianBlur stdDeviation="0.4249491" id="feGaussianBlur22"/>
    </filter>
    <filter id="i" x="-.027577" y="-.05183" width="1.0552" height="1.1037" color-interpolation-filters="sRGB">
      <feGaussianBlur stdDeviation="0.42031726" id="feGaussianBlur25"/>
    </filter>
    <filter id="h" x="-.027243" y="-.053053" width="1.0545" height="1.1061" color-interpolation-filters="sRGB">
      <feGaussianBlur stdDeviation="0.41999768" id="feGaussianBlur28"/>
    </filter>
    <filter id="k" x="-.084" y="-.084" width="1.168" height="1.168" color-interpolation-filters="sRGB">
      <feGaussianBlur stdDeviation="1.4069033" id="feGaussianBlur31"/>
    </filter>
    <linearGradient id="linearGradient862-3" x1="7.9373" x2="7.9373" y1="15.081" y2="1.852" gradientTransform="matrix(3.7796,0,0,3.7796,-96.578999,0)" gradientUnits="userSpaceOnUse">
      <stop stop-color="#846458" offset="0" id="stop34"/>
      <stop stop-color="#ad8578" offset="1" id="stop36"/>
    </linearGradient>
    
    <filter id="filter968" x="-.12009" y="-.12009" width="1.2402" height="1.2402" color-interpolation-filters="sRGB">
      <feGaussianBlur stdDeviation="0.066194553" id="feGaussianBlur952"/>
    </filter>
    <filter id="filter1016" x="-.036858" y="-.17692" width="1.0737" height="1.3538" color-interpolation-filters="sRGB">
      <feGaussianBlur stdDeviation="0.097518237" id="feGaussianBlur955"/>
    </filter>
    <filter id="filter1024" x="-.10615" y="-.50953" width="1.2123" height="2.0191" color-interpolation-filters="sRGB">
      <feGaussianBlur stdDeviation="0.28085546" id="feGaussianBlur958"/>
    </filter>
    <linearGradient id="linearGradient1154" x1="-184.76" x2="-170.21" y1="-15.818" y2="-1.2664" gradientTransform="matrix(3.7796,0,0,3.7796,621.76892,91.918188)" gradientUnits="userSpaceOnUse">
      <stop stop-color="#fed54f" offset="0" id="stop961"/>
      <stop stop-color="#ffbb4d" offset="1" id="stop963"/>
    </linearGradient>
    <linearGradient id="linearGradient1190" x1="-38.893" x2="-38.893" y1="8.9957" y2="10.583" gradientTransform="matrix(0.96,0,0,0.83333,-12.871,2.9791)" gradientUnits="userSpaceOnUse">
      <stop stop-color="#c6d4e7" offset="0" id="stop966"/>
      <stop stop-color="#d8e5f8" offset=".097346" id="stop968"/>
      <stop stop-color="#fff" offset=".20734" id="stop970"/>
      <stop stop-color="#f1f4f5" offset=".49769" id="stop972"/>
      <stop stop-color="#a1aab0" offset=".73738" id="stop974"/>
      <stop stop-color="#a2abb0" offset=".78932" id="stop976"/>
      <stop stop-color="#a2a7a2" offset=".94113" id="stop978"/>
      <stop stop-color="#d6d1b4" offset="1" id="stop980"/>
    </linearGradient>
    <filter id="filter1221" x="-.018237" y="-.035087" width="1.0365" height="1.0702" color-interpolation-filters="sRGB">
      <feGaussianBlur stdDeviation="0.096503745" id="feGaussianBlur983"/>
    </filter>
    <filter id="filter1227" x="-.021559" y="-.027064" width="1.0431" height="1.0541" color-interpolation-filters="sRGB">
      <feGaussianBlur stdDeviation="0.1140825" id="feGaussianBlur986"/>
    </filter>
    <filter id="filter1233" x="-.024" y="-.024" width="1.048" height="1.048" color-interpolation-filters="sRGB">
      <feGaussianBlur stdDeviation="0.1269975" id="feGaussianBlur989"/>
    </filter>
    <filter id="filter1057" x="-0.026999999" y="-0.026999999" width="1.054" height="1.054" color-interpolation-filters="sRGB">
      <feGaussianBlur stdDeviation="0.61875" id="feGaussianBlur904"/>
    </filter>
    <linearGradient id="linearGradient1053" x1="-127" x2="-72" y1="60" y2="5" gradientTransform="translate(131.5,-0.51)" gradientUnits="userSpaceOnUse">
      <stop stop-color="#a53cff" offset="0" id="stop907"/>
      <stop stop-color="#b496ff" offset="1" id="stop909" style="stop-color:#7139d2;stop-opacity:1"/>
    </linearGradient>
    <linearGradient inkscape:collect="always" xlink:href="#linearGradient1077" id="linearGradient1079" x1="148.23561" y1="4.8554082" x2="93.894279" y2="59.433609" gradientUnits="userSpaceOnUse" gradientTransform="translate(-88.964842)"/>
    <filter inkscape:collect="always" style="color-interpolation-filters:sRGB" id="filter1057-0" x="-0.026999999" width="1.054" y="-0.026999999" height="1.054">
      <feGaussianBlur inkscape:collect="always" stdDeviation="0.61875" id="feGaussianBlur1059"/>
    </filter>
  <radialGradient id="gradient_ds_br" cx="0" cy="0" r="1" gradientUnits="userSpaceOnUse" gradientTransform="matrix(13.998399,0.00477622,-0.00477841,14.004799,47.5016,48.4952)">
      <stop offset="0.65" id="stop1"/>
      <stop offset="1" stop-opacity="0" id="stop2"/>
    </radialGradient><linearGradient id="gradient_ds_b" x1="30.448999" y1="48.5" x2="30.492201" y2="62.500301" gradientUnits="userSpaceOnUse">
      <stop offset="0.653846" id="stop3"/>
      <stop offset="1" stop-opacity="0" id="stop4"/>
    </linearGradient><radialGradient id="gradient_ds_bl" cx="0" cy="0" r="1" gradientUnits="userSpaceOnUse" gradientTransform="matrix(0,14,-14,0,16.5,48.5)">
      <stop offset="0.65" id="stop5"/>
      <stop offset="1" stop-opacity="0" id="stop6"/>
    </radialGradient><linearGradient id="gradient_ds_r" x1="47.5" y1="33.5" x2="61.5" y2="33.5009" gradientUnits="userSpaceOnUse">
      <stop offset="0.649038" id="stop7"/>
      <stop offset="1" stop-opacity="0" id="stop8"/>
    </linearGradient><linearGradient id="gradient_ds_l" x1="16.5" y1="33.894699" x2="2.5" y2="33.894699" gradientUnits="userSpaceOnUse">
      <stop offset="0.649038" id="stop9"/>
      <stop offset="1" stop-opacity="0" id="stop10"/>
    </linearGradient><radialGradient id="gradient_ds_tr" cx="0" cy="0" r="1" gradientTransform="matrix(0.00843236,-14,14.0084,0.0189842,47.4916,18.5)" gradientUnits="userSpaceOnUse">
      <stop offset="0.65" id="stop11"/>
      <stop offset="1" stop-opacity="0" id="stop12"/>
    </radialGradient><linearGradient id="gradient_ds_t" x1="29.98" y1="18.5" x2="29.9158" y2="4.4998598" gradientUnits="userSpaceOnUse">
      <stop offset="0.649038" id="stop13"/>
      <stop offset="1" stop-opacity="0" id="stop14"/>
    </linearGradient><radialGradient id="gradient_ds_tl" cx="0" cy="0" r="1" gradientTransform="matrix(-0.00843236,-14,-14.0084,0.0189842,16.5084,18.5)" gradientUnits="userSpaceOnUse">
      <stop offset="0.65" id="stop15"/>
      <stop offset="1" stop-opacity="0" id="stop16"/>
    </radialGradient></defs>
  
  <g id="ds" opacity="0.25">
    <path id="ds-br" d="m 47.5,48.5 h 14 v 14 h -14 z" fill="url(#gradient_ds_br)" style="fill:url(#gradient_ds_br)"/>
    <path id="ds-b" d="m 16.5,48.5 h 31 v 14 h -31 z" fill="url(#gradient_ds_b)" style="fill:url(#gradient_ds_b)"/>
    <path id="ds-bl" d="m 2.5,48.5 h 14 v 14 h -14 z" fill="url(#gradient_ds_bl)" style="fill:url(#gradient_ds_bl)"/>
    <path id="ds-r" d="m 47.5,18.5 h 14 v 30 h -14 z" fill="url(#gradient_ds_r)" style="fill:url(#gradient_ds_r)"/>
    <path id="ds-l" d="m 2.5,18.5 h 14 v 30 h -14 z" fill="url(#gradient_ds_l)" style="fill:url(#gradient_ds_l)"/>
    <path id="ds-tr" d="m 47.5,4.5 h 14 v 14 h -14 z" fill="url(#gradient_ds_tr)" style="fill:url(#gradient_ds_tr)"/>
    <path id="ds-t" d="m 16.5,4.5 h 31 v 14 h -31 z" fill="url(#gradient_ds_t)" style="fill:url(#gradient_ds_t)"/>
    <path id="ds-tl" d="m 16.5,4.5 h -14 v 14 h 14 z" fill="url(#gradient_ds_tl)" style="fill:url(#gradient_ds_tl)"/>
  </g><rect y="4.5" x="4.5" height="55" width="55" id="bg" style="fill:url(#linearGradient1079);fill-opacity:1;stroke-width:2;stroke-linecap:round;font-variation-settings:normal;opacity:1;vector-effect:none;stroke-linejoin:round;stroke-miterlimit:4;stroke-dasharray:none;stroke-dashoffset:0;stroke-opacity:1;-inkscape-stroke:none;paint-order:stroke fill markers;stop-color:#000000;stop-opacity:1" rx="10"/>
  <g id="art"><rect style="fill:#ffffff" width="34" height="23" x="15" y="15" rx="1.4170001" ry="1.438" id="rect963"/><path style="fill:#a766fa" d="m 18,18 h 28 v 4.125 L 32,29 18,22.125 Z" id="path965"/><path style="fill:#ffffff" d="m 17.41038,42.473036 c -7e-5,1.69e-4 -2.5e-4,3.34e-4 -3.3e-4,5.04e-4 -4.2e-4,-8.4e-5 -7.6e-4,-2.54e-4 -10e-4,-3.35e-4 l 6.6e-4,0.0013 c -0.36523,0.679948 -1.70736,2.873281 -2.56234,4.27912 C 13.97995,45.316867 12.9531,43.65865 12.2842,42.473189 l -0.004,0.0015 0.003,-0.0015 c -0.53056,0.113138 -0.75245,0.120337 -1.28192,0 l 0.003,0.0032 c -10e-4,-0.0011 -0.003,-0.0021 -0.004,-0.0032 1.05076,1.583379 2.7346,4.599223 3.30741,5.589282 l -0.0769,4.127539 0.004,-0.0021 -0.003,0.0021 c 0,0 0.36951,-0.06206 0.61648,-0.06206 0.27375,0 0.6142,0.06206 0.6142,0.06206 l -10e-4,-0.0013 0.003,0.0013 -0.0769,-4.12787 -0.003,-9.85e-4 c 1.06772,-1.873299 2.82861,-4.926721 3.3153,-5.585662 l 0.003,-0.0027 c -2.5e-4,5.1e-5 -4.3e-4,8.6e-5 -6.8e-4,1.67e-4 6e-5,-8e-5 9e-5,-2.51e-4 1.8e-4,-3.35e-4 -1.8e-4,1.68e-4 -4.3e-4,1.68e-4 -6.9e-4,3.35e-4 -0.46031,0.104268 -0.87557,0.107903 -1.28782,5.06e-4 z m 34.91744,0.101163 c -0.30776,0 -0.61288,0.180463 -0.61288,0.641942 -0.18252,2.314914 -0.37254,4.636301 -0.68496,6.845245 l -0.001,0.0015 c 5e-4,-9.3e-5 9.7e-4,-7.4e-5 0.001,-1.7e-4 -3e-5,1.6e-4 10e-6,3.39e-4 0,4.98e-4 l 0.005,-9.85e-4 c 0.18741,-0.03141 0.33306,0.01752 0.4746,0.07457 l -6.8e-4,-9.84e-4 c 0.3549,-2.243712 1.19781,-5.604903 1.41362,-6.556217 0.031,-0.133691 0.0772,-0.291803 0.0772,-0.404149 0,-0.339444 -0.21507,-0.536686 -0.53717,-0.590539 l -3.3e-4,3.37e-4 c 0,0 -0.0796,-0.011 -0.1335,-0.011 z m -6.9653,0.357346 c -2.70826,0 -4.77834,1.5378 -4.77834,4.39703 0,2.355752 1.37717,4.428889 4.80117,4.428889 2.89867,0 4.79132,-1.59361 4.79132,-4.38734 0,-2.634566 -1.76553,-4.438579 -4.81365,-4.438579 z m -9.38853,0.46327 c -2.71954,0 -4.14628,1.72428 -4.14628,3.959545 0,2.446599 1.55762,3.93885 4.14234,3.93885 2.79435,0 4.15906,-1.681754 4.15906,-3.913233 0,-2.487969 -1.62971,-3.985162 -4.15496,-3.985162 z m 9.39182,0.01511 c 2.03376,0 3.53175,1.235456 3.53175,3.960365 0,2.962147 -1.81215,3.922757 -3.52862,3.922757 -1.83391,0 -3.50449,-1.076208 -3.50449,-3.98122 0,-3.010998 1.85177,-3.901902 3.50136,-3.901902 z m -25.22869,0.0854 c -1.03237,2.590887 -2.22183,5.514546 -3.29148,7.694923 v 1.69e-4 l -1.8e-4,8.43e-4 0.004,-0.0018 c -0.001,2.53e-4 -0.001,4.19e-4 -0.003,6.71e-4 l 0.008,-0.0027 -0.004,0.002 c 0.48919,-0.121438 0.9561,-0.08404 1.26482,-5.07e-4 -0.002,-6.72e-4 -0.003,-0.0015 -0.004,-0.0022 l 0.004,0.0015 c 0.27291,-0.689624 0.58252,-1.469656 0.89337,-2.255583 l 0.001,0.0013 c 1.05054,-0.02995 2.10104,-0.03399 3.15157,0 0.2989,0.751785 0.59829,1.504368 0.89057,2.257226 6.8e-4,-3.35e-4 0.001,-6.71e-4 0.001,-9.82e-4 l -3.3e-4,8.39e-4 c 0.46841,-0.122315 0.93461,-0.08911 1.27895,-0.0022 l -0.001,-5.01e-4 0.001,5.01e-4 c -0.77053,-1.439147 -2.31754,-5.204836 -3.30057,-7.69272 l -0.008,0.0032 0.006,-0.0036 c -0.31931,0.111523 -0.57961,0.105089 -0.89319,1.67e-4 z m 4.65683,0.0032 v 1.67e-4 c 0.11157,2.568214 0.10194,5.131719 0,7.691479 0.41626,-0.100286 0.84248,-0.104589 1.2801,1.71e-4 l -0.003,-0.0018 0.004,0.0018 c -0.0631,-1.193491 -0.095,-2.385833 -0.099,-3.577236 1.43257,-0.02001 2.86534,-0.02086 4.298,-0.0015 -0.005,1.191951 -0.036,2.384841 -0.0991,3.578879 l 0.004,-0.0015 -0.003,0.0015 c 0.43751,-0.104728 0.86378,-0.100383 1.27994,-1.7e-4 1.6e-4,4.2e-5 3.4e-4,8.3e-5 5.1e-4,1.7e-4 l -1.7e-4,-1.7e-4 c -0.10194,-2.559759 -0.11159,-5.123266 0,-7.691478 l 1.7e-4,-1.67e-4 c -5e-5,1.1e-5 -8e-5,-1.3e-5 -1.7e-4,0 h -1.8e-4 c -0.43487,0.104073 -0.86182,0.101274 -1.28157,0 l 6.7e-4,8.39e-4 -9.8e-4,-6.72e-4 c 0.0621,1.195504 0.0945,2.392086 0.099,3.589553 -1.43394,0.03336 -2.86678,0.03606 -4.29784,0 0.005,-1.197467 0.0369,-2.394049 0.099,-3.589553 l -9.9e-4,6.72e-4 6.8e-4,-8.39e-4 c -0.41976,0.101274 -0.84687,0.104073 -1.28175,0 z m 11.11352,0.362438 h 1.7e-4 c 0.0237,-5.05e-4 0.0476,0 0.0713,0 1.66306,0 2.88439,1.132749 2.88439,3.499723 0,2.363993 -1.21982,3.496605 -2.88127,3.496605 -1.81278,0 -2.87798,-1.299122 -2.87798,-3.490202 0,-2.478045 1.31245,-3.475606 2.80342,-3.506126 z m -15.32449,0.964306 c 0.42464,1.183439 0.89177,2.376005 1.36616,3.571983 l -5e-4,-1.67e-4 c -0.90914,0.0315 -1.81809,0.03196 -2.72723,0 l -10e-4,8.23e-4 c 0.55561,-1.409247 1.08465,-2.770681 1.36336,-3.572639 z m 30.40709,6.166354 c -0.40329,0 -0.6045,0.307686 -0.6045,0.638496 0,0.390013 0.31162,0.589881 0.69679,0.589881 0.27858,0 0.5825,-0.169383 0.5825,-0.628804 0,-0.368729 -0.28879,-0.599573 -0.67479,-0.599573 z" id="path969"/></g>
  
  
</svg>
