<?xml version="1.0" encoding="UTF-8" standalone="no"?>
<svg xmlns:inkscape="http://www.inkscape.org/namespaces/inkscape" xmlns:sodipodi="http://sodipodi.sourceforge.net/DTD/sodipodi-0.dtd" xmlns="http://www.w3.org/2000/svg" width="64" height="64" viewBox="0 0 64 64" version="1.1" id="svg3" sodipodi:docname="distributor-logo-solus.svg" inkscape:version="1.4.4 (dcaf3e7d9e, 2026-05-05)">
  <sodipodi:namedview id="namedview1" pagecolor="#ffffff" bordercolor="#000000" borderopacity="0.25" inkscape:showpageshadow="2" inkscape:pageopacity="0.0" inkscape:pagecheckerboard="0" inkscape:deskcolor="#d1d1d1" inkscape:current-layer="art"/>
  <defs id="defs3">
    <filter id="filter1057" x="-0.026999999" y="-0.026999999" width="1.054" height="1.054" color-interpolation-filters="sRGB">
      <feGaussianBlur stdDeviation="0.61875" id="feGaussianBlur1"/>
    </filter>
    <linearGradient id="linearGradient1053" x1="-127" x2="-72" y1="60" y2="5" gradientTransform="matrix(1.0000071,0,0,1.0000071,131.50248,-0.51020908)" gradientUnits="userSpaceOnUse">
      <stop stop-color="#353b44" offset="0" id="stop1" style="stop-color:#dadde2;stop-opacity:1;"/>
      <stop stop-color="#484d56" offset="1" id="stop2" style="stop-color:#f3f3f3;stop-opacity:1;"/>
    </linearGradient>
    <filter id="filter1057-7" x="-0.026999999" y="-0.026999999" width="1.054" height="1.054" color-interpolation-filters="sRGB">
      <feGaussianBlur stdDeviation="0.61875" id="feGaussianBlur1-5"/>
    </filter>
    <radialGradient id="gradient_ds_br" cx="0" cy="0" r="1" gradientUnits="userSpaceOnUse" gradientTransform="matrix(13.998399,0.00477622,-0.00477841,14.004799,47.5016,48.4952)">
      <stop offset="0.65" id="stop3"/>
      <stop offset="1" stop-opacity="0" id="stop4"/>
    </radialGradient>
    <linearGradient id="gradient_ds_b" x1="30.448999" y1="48.5" x2="30.492201" y2="62.500301" gradientUnits="userSpaceOnUse">
      <stop offset="0.653846" id="stop5"/>
      <stop offset="1" stop-opacity="0" id="stop6"/>
    </linearGradient>
    <radialGradient id="gradient_ds_bl" cx="0" cy="0" r="1" gradientUnits="userSpaceOnUse" gradientTransform="matrix(0,14,-14,0,16.5,48.5)">
      <stop offset="0.65" id="stop7"/>
      <stop offset="1" stop-opacity="0" id="stop8"/>
    </radialGradient>
    <linearGradient id="gradient_ds_r" x1="47.5" y1="33.5" x2="61.5" y2="33.5009" gradientUnits="userSpaceOnUse">
      <stop offset="0.649038" id="stop9"/>
      <stop offset="1" stop-opacity="0" id="stop10"/>
    </linearGradient>
    <linearGradient id="gradient_ds_l" x1="16.5" y1="33.894699" x2="2.5" y2="33.894699" gradientUnits="userSpaceOnUse">
      <stop offset="0.649038" id="stop11"/>
      <stop offset="1" stop-opacity="0" id="stop12"/>
    </linearGradient>
    <radialGradient id="gradient_ds_tr" cx="0" cy="0" r="1" gradientTransform="matrix(0.00843236,-14,14.0084,0.0189842,47.4916,18.5)" gradientUnits="userSpaceOnUse">
      <stop offset="0.65" id="stop13"/>
      <stop offset="1" stop-opacity="0" id="stop14"/>
    </radialGradient>
    <linearGradient id="gradient_ds_t" x1="29.98" y1="18.5" x2="29.9158" y2="4.4998598" gradientUnits="userSpaceOnUse">
      <stop offset="0.649038" id="stop15"/>
      <stop offset="1" stop-opacity="0" id="stop16"/>
    </linearGradient>
    <radialGradient id="gradient_ds_tl" cx="0" cy="0" r="1" gradientTransform="matrix(-0.00843236,-14,-14.0084,0.0189842,16.5084,18.5)" gradientUnits="userSpaceOnUse">
      <stop offset="0.65" id="stop17"/>
      <stop offset="1" stop-opacity="0" id="stop18"/>
    </radialGradient>
  </defs>
  <g id="ds" opacity="0.25">
    <path id="ds-br" d="m 47.5,48.5 h 14 v 14 h -14 z" fill="url(#gradient_ds_br)" style="fill:url(#gradient_ds_br)"/>
    <path id="ds-b" d="m 16.5,48.5 h 31 v 14 h -31 z" fill="url(#gradient_ds_b)" style="fill:url(#gradient_ds_b)"/>
    <path id="ds-bl" d="m 2.5,48.5 h 14 v 14 h -14 z" fill="url(#gradient_ds_bl)" style="fill:url(#gradient_ds_bl)"/>
    <path id="ds-r" d="m 47.5,18.5 h 14 v 30 h -14 z" fill="url(#gradient_ds_r)" style="fill:url(#gradient_ds_r)"/>
    <path id="ds-l" d="m 2.5,18.5 h 14 v 30 h -14 z" fill="url(#gradient_ds_l)" style="fill:url(#gradient_ds_l)"/>
    <path id="ds-tr" d="m 47.5,4.5 h 14 v 14 h -14 z" fill="url(#gradient_ds_tr)" style="fill:url(#gradient_ds_tr)"/>
    <path id="ds-t" d="m 16.5,4.5 h 31 v 14 h -31 z" fill="url(#gradient_ds_t)" style="fill:url(#gradient_ds_t)"/>
    <path id="ds-tl" d="m 16.5,4.5 h -14 v 14 h 14 z" fill="url(#gradient_ds_tl)" style="fill:url(#gradient_ds_tl)"/>
  </g>
  <rect y="4.5" x="4.5" height="55" width="55" id="bg" style="fill:url(#linearGradient1053);fill-opacity:1;stroke-width:3.7796;stroke-linecap:butt;font-variation-settings:normal;opacity:1;vector-effect:none;stroke-linejoin:miter;stroke-miterlimit:4;stroke-dasharray:none;stroke-dashoffset:0;stroke-opacity:1;-inkscape-stroke:none;stop-color:#000000;stop-opacity:1" rx="10"/>
  <g id="art">
    <g id="g1" transform="matrix(0.27259835,0,0,0.27259835,250.83806,235.50413)">
      <circle style="fill:#484d56;fill-opacity:1;stroke:none;stroke-width:3;stroke-miterlimit:4;stroke-dasharray:none;stroke-opacity:1" id="circle4804-0" cx="-804.78571" cy="-744.56592" r="63.999992" inkscape:export-xdpi="90" inkscape:export-ydpi="90"/>
      <path style="color:#000000;font-style:normal;font-variant:normal;font-weight:normal;font-stretch:normal;font-size:medium;line-height:normal;font-family:sans-serif;text-indent:0;text-align:start;text-decoration:none;text-decoration-line:none;text-decoration-style:solid;text-decoration-color:#000000;letter-spacing:normal;word-spacing:normal;text-transform:none;writing-mode:lr-tb;direction:ltr;baseline-shift:baseline;text-anchor:start;white-space:normal;clip-rule:nonzero;display:inline;overflow:visible;visibility:visible;opacity:1;isolation:auto;mix-blend-mode:normal;color-interpolation:sRGB;color-interpolation-filters:linearRGB;solid-color:#000000;solid-opacity:1;fill:#484d56;fill-opacity:1;fill-rule:evenodd;stroke:none;stroke-width:4.31807;stroke-linecap:butt;stroke-linejoin:miter;stroke-miterlimit:4;stroke-dasharray:none;stroke-dashoffset:0;stroke-opacity:1;color-rendering:auto;image-rendering:auto;shape-rendering:auto;text-rendering:auto;enable-background:accumulate" d="m -827.7857,-812.56593 c -9.63078,31.4588 -23.86733,61.39685 -40.00001,90 l -1,2 1.54157,0.79445 c 1.35333,0.62831 3.13495,1.05082 5.54687,1.5332 2.41193,0.48238 5.37886,0.96316 8.71289,1.43945 6.66808,0.95258 14.7982,1.88366 22.68555,2.70313 15.77471,1.63893 30.58203,2.83398 30.58203,2.83398 l 2.51953,0.20313 -0.19335,-2.52149 c 0,0 -3.90695,-50.82991 -4.63672,-59.18164 l -0.0391,-0.45117 -0.21875,-0.39844 c -4.62375,-7.38388 -22.58402,-38.08494 -25.50051,-38.9546 z m 1.99999,9 c 6.82802,12.01186 12.72677,18.82237 20,32 0.72571,8.39811 3.58298,51.7588 3.89118,55.76515 -2.15756,-0.17632 -13.54785,-1.09258 -27.95899,-2.58984 -7.85641,-0.81626 -15.94849,-1.74293 -22.51953,-2.68165 -3.28551,-0.46935 -6.19216,-0.94351 -8.47656,-1.40039 -1.12711,-0.22542 -1.15187,-0.88079 -1.9361,-1.09327 11.78263,-20.81853 30.49883,-53.46772 37,-80 z" id="path4806-5" inkscape:connector-curvature="0" sodipodi:nodetypes="ccccsssccccccccccssscc"/>
      <path style="color:#000000;font-style:normal;font-variant:normal;font-weight:normal;font-stretch:normal;font-size:medium;line-height:normal;font-family:sans-serif;text-indent:0;text-align:start;text-decoration:none;text-decoration-line:none;text-decoration-style:solid;text-decoration-color:#000000;letter-spacing:normal;word-spacing:normal;text-transform:none;writing-mode:lr-tb;direction:ltr;baseline-shift:baseline;text-anchor:start;white-space:normal;clip-rule:nonzero;display:inline;overflow:visible;visibility:visible;opacity:1;isolation:auto;mix-blend-mode:normal;color-interpolation:sRGB;color-interpolation-filters:linearRGB;solid-color:#000000;solid-opacity:1;fill:#ffffff;fill-opacity:1;fill-rule:evenodd;stroke:none;stroke-width:4.31807;stroke-linecap:butt;stroke-linejoin:miter;stroke-miterlimit:4;stroke-dasharray:none;stroke-dashoffset:0;stroke-opacity:1;color-rendering:auto;image-rendering:auto;shape-rendering:auto;text-rendering:auto;enable-background:accumulate" d="m -742.14317,-731.41513 c -9.34571,12.60787 -26.60918,19.34605 -47.17544,22.33421 -21.45726,3.11762 -46.33823,2.1913 -68.53889,0.29492 1.06332,1.58839 2.23042,3.12835 3.43158,4.61524 21.3716,1.69438 44.91786,2.38689 65.7284,-0.63672 17.35633,-2.52178 33.03962,-7.63814 43.79912,-17.14649 1.17402,-3.05709 2.13941,-6.44331 2.75523,-9.46116 z" id="path4808-8" inkscape:connector-curvature="0" sodipodi:nodetypes="csccscc"/>
      <path style="color:#000000;font-style:normal;font-variant:normal;font-weight:normal;font-stretch:normal;font-size:medium;line-height:normal;font-family:sans-serif;text-indent:0;text-align:start;text-decoration:none;text-decoration-line:none;text-decoration-style:solid;text-decoration-color:#000000;letter-spacing:normal;word-spacing:normal;text-transform:none;writing-mode:lr-tb;direction:ltr;baseline-shift:baseline;text-anchor:start;white-space:normal;clip-rule:nonzero;display:inline;overflow:visible;visibility:visible;opacity:1;isolation:auto;mix-blend-mode:normal;color-interpolation:sRGB;color-interpolation-filters:linearRGB;solid-color:#000000;solid-opacity:1;fill:#484d56;fill-opacity:1;fill-rule:evenodd;stroke:none;stroke-width:4.31807;stroke-linecap:butt;stroke-linejoin:miter;stroke-miterlimit:4;stroke-dasharray:none;stroke-dashoffset:0;stroke-opacity:1;color-rendering:auto;image-rendering:auto;shape-rendering:auto;text-rendering:auto;enable-background:accumulate" d="m -793.78571,-765.56593 -1.02874,4.49952 c 10.04859,6.72143 19.62481,12.58987 25.84375,18.83008 6.21893,6.24022 9.13316,12.3812 6.76953,20.98047 l -1.10156,4.01367 3.91601,-1.41015 c 12.23548,-4.4024 18.0492,-12.93321 21.60101,-19.91359 l 1,-2 -2,-2 c -5.96313,-6.27973 -15.17389,-10.44201 -25.86077,-14.23095 -10.68689,-3.78893 -22.32622,-7.12618 -29.13923,-8.76905 z m 11.9361,7.9507 c 4.9734,1.36682 10.39142,2.98537 15.75977,4.88867 9.74062,3.45345 18.96263,7.89396 24.17382,12.69336 -2.97972,5.49491 -7.52402,11.83259 -15.36328,15.77148 0.8405,-8.22187 -2.78232,-15.15097 -8.63281,-21.02148 -4.31849,-4.33327 -9.95794,-8.32505 -15.9375,-12.33203 z" id="path4810-6" inkscape:connector-curvature="0" sodipodi:nodetypes="ccsccccccsccsccsc"/>
      <circle inkscape:export-ydpi="90" inkscape:export-xdpi="90" r="64.075058" cy="-744.64099" cx="-804.71063" id="circle4812-0" style="fill:#930b06;fill-opacity:0;stroke:none;stroke-width:3;stroke-miterlimit:4;stroke-dasharray:none;stroke-opacity:1"/>
      <path style="fill:#5a9eff;fill-opacity:1;stroke:none;stroke-width:3;stroke-miterlimit:4;stroke-dasharray:none;stroke-opacity:1" d="m -788.70147,-704.80948 c -21.74774,3.06876 -43.90018,2.30793 -65.72445,0.63872 14.04431,17.91048 38.45322,26.93623 60.99997,22.586 21.76014,-3.74023 40.83336,-19.67568 48.51661,-40.35033 -12.92189,9.16602 -28.18857,14.72923 -43.79213,17.12561 z" id="path4814-1" inkscape:connector-curvature="0" sodipodi:nodetypes="ccccc"/>
      <path inkscape:export-ydpi="90" inkscape:export-xdpi="90" sodipodi:nodetypes="cccc" inkscape:connector-curvature="0" id="path4816-6" d="m -800.78571,-769.56593 c 9.63852,19.85542 9.64724,39.49909 4,54 7.95178,0.0481 20.92769,0.93977 35,-6 -11.56629,-26.40963 -39.00001,-48 -39,-48 z" style="fill:#ffffff;fill-opacity:1;fill-rule:evenodd;stroke:none;stroke-width:1px;stroke-linecap:butt;stroke-linejoin:miter;stroke-opacity:1"/>
      <path style="fill:#ffffff;fill-opacity:1;fill-rule:evenodd;stroke:none;stroke-width:4.31807;stroke-linecap:butt;stroke-linejoin:miter;stroke-miterlimit:4;stroke-dasharray:none;stroke-opacity:1" d="m -825.78571,-803.56593 c -6.50145,26.53211 -25.21755,59.18176 -37,80 l 10.41462,2.49562 c 6.57103,0.93871 14.66311,1.86538 22.51953,2.68164 14.41013,1.49715 25.90684,2.6463 28.06585,2.82274 -0.3084,-4.00889 -3.27414,-47.59986 -4,-56 -7.27323,-13.17763 -13.17198,-19.98814 -20,-32 z" id="path4819-6" inkscape:connector-curvature="0" sodipodi:nodetypes="cccsccc"/>
      <path style="fill:#ffffff;fill-opacity:1;fill-rule:evenodd;stroke:none;stroke-width:4.31807;stroke-linecap:butt;stroke-linejoin:miter;stroke-miterlimit:4;stroke-dasharray:none;stroke-opacity:1" d="m -781.78571,-757.56593 c 5.9813,4.00802 11.68042,7.66564 16,12 5.85007,5.8701 8.8398,13.77887 8,22 7.83834,-3.93845 13.02025,-10.50552 16,-16 -5.21142,-4.79902 -14.26004,-9.54678 -24,-13 -5.37059,-1.90409 -11.02494,-3.63283 -16,-5 z" id="path4821-7" inkscape:connector-curvature="0" sodipodi:nodetypes="csccsc"/>
    </g>
  </g>
</svg>
