<?xml version="1.0" encoding="UTF-8" standalone="no"?>
<svg xmlns:inkscape="http://www.inkscape.org/namespaces/inkscape" xmlns:sodipodi="http://sodipodi.sourceforge.net/DTD/sodipodi-0.dtd" xmlns="http://www.w3.org/2000/svg" width="64" height="64" viewBox="0 0 64 64" version="1.1" id="svg2" sodipodi:docname="distributor-logo-slackware.svg" inkscape:version="1.4.4 (dcaf3e7d9e, 2026-05-05)">
  <sodipodi:namedview id="namedview1" pagecolor="#ffffff" bordercolor="#000000" borderopacity="0.25" inkscape:showpageshadow="2" inkscape:pageopacity="0.0" inkscape:pagecheckerboard="0" inkscape:deskcolor="#d1d1d1" inkscape:current-layer="svg2"/>
  <defs id="defs2">
    <filter id="filter1057-9" x="-0.026999999" y="-0.026999999" width="1.054" height="1.054" color-interpolation-filters="sRGB">
      <feGaussianBlur stdDeviation="0.61875" id="feGaussianBlur1"/>
    </filter>
    <linearGradient id="linearGradient1053-1" x1="-127" x2="-72" y1="60" y2="5" gradientTransform="matrix(1.0000071,0,0,1.0000071,131.49576,-0.51035985)" gradientUnits="userSpaceOnUse">
      <stop stop-color="#191919" offset="0" id="stop1" style="stop-color:#dadde2;stop-opacity:1;"/>
      <stop stop-color="#353b44" stop-opacity=".99608" offset="1" id="stop2" style="stop-color:#f3f3f3;stop-opacity:0.99607843;"/>
    </linearGradient>
    <filter id="filter1057-9-7" x="-0.026999999" y="-0.026999999" width="1.054" height="1.054" color-interpolation-filters="sRGB">
      <feGaussianBlur stdDeviation="0.61875" id="feGaussianBlur1-5"/>
    </filter>
    <radialGradient id="gradient_ds_br" cx="0" cy="0" r="1" gradientUnits="userSpaceOnUse" gradientTransform="matrix(13.998399,0.00477622,-0.00477841,14.004799,47.5016,48.4952)">
      <stop offset="0.65" id="stop3"/>
      <stop offset="1" stop-opacity="0" id="stop4"/>
    </radialGradient>
    <linearGradient id="gradient_ds_b" x1="30.448999" y1="48.5" x2="30.492201" y2="62.500301" gradientUnits="userSpaceOnUse">
      <stop offset="0.653846" id="stop5"/>
      <stop offset="1" stop-opacity="0" id="stop6"/>
    </linearGradient>
    <radialGradient id="gradient_ds_bl" cx="0" cy="0" r="1" gradientUnits="userSpaceOnUse" gradientTransform="matrix(0,14,-14,0,16.5,48.5)">
      <stop offset="0.65" id="stop7"/>
      <stop offset="1" stop-opacity="0" id="stop8"/>
    </radialGradient>
    <linearGradient id="gradient_ds_r" x1="47.5" y1="33.5" x2="61.5" y2="33.5009" gradientUnits="userSpaceOnUse">
      <stop offset="0.649038" id="stop9"/>
      <stop offset="1" stop-opacity="0" id="stop10"/>
    </linearGradient>
    <linearGradient id="gradient_ds_l" x1="16.5" y1="33.894699" x2="2.5" y2="33.894699" gradientUnits="userSpaceOnUse">
      <stop offset="0.649038" id="stop11"/>
      <stop offset="1" stop-opacity="0" id="stop12"/>
    </linearGradient>
    <radialGradient id="gradient_ds_tr" cx="0" cy="0" r="1" gradientTransform="matrix(0.00843236,-14,14.0084,0.0189842,47.4916,18.5)" gradientUnits="userSpaceOnUse">
      <stop offset="0.65" id="stop13"/>
      <stop offset="1" stop-opacity="0" id="stop14"/>
    </radialGradient>
    <linearGradient id="gradient_ds_t" x1="29.98" y1="18.5" x2="29.9158" y2="4.4998598" gradientUnits="userSpaceOnUse">
      <stop offset="0.649038" id="stop15"/>
      <stop offset="1" stop-opacity="0" id="stop16"/>
    </linearGradient>
    <radialGradient id="gradient_ds_tl" cx="0" cy="0" r="1" gradientTransform="matrix(-0.00843236,-14,-14.0084,0.0189842,16.5084,18.5)" gradientUnits="userSpaceOnUse">
      <stop offset="0.65" id="stop17"/>
      <stop offset="1" stop-opacity="0" id="stop18"/>
    </radialGradient>
  </defs>
  <g id="ds" opacity="0.25">
    <path id="ds-br" d="m 47.5,48.5 h 14 v 14 h -14 z" fill="url(#gradient_ds_br)" style="fill:url(#gradient_ds_br)"/>
    <path id="ds-b" d="m 16.5,48.5 h 31 v 14 h -31 z" fill="url(#gradient_ds_b)" style="fill:url(#gradient_ds_b)"/>
    <path id="ds-bl" d="m 2.5,48.5 h 14 v 14 h -14 z" fill="url(#gradient_ds_bl)" style="fill:url(#gradient_ds_bl)"/>
    <path id="ds-r" d="m 47.5,18.5 h 14 v 30 h -14 z" fill="url(#gradient_ds_r)" style="fill:url(#gradient_ds_r)"/>
    <path id="ds-l" d="m 2.5,18.5 h 14 v 30 h -14 z" fill="url(#gradient_ds_l)" style="fill:url(#gradient_ds_l)"/>
    <path id="ds-tr" d="m 47.5,4.5 h 14 v 14 h -14 z" fill="url(#gradient_ds_tr)" style="fill:url(#gradient_ds_tr)"/>
    <path id="ds-t" d="m 16.5,4.5 h 31 v 14 h -31 z" fill="url(#gradient_ds_t)" style="fill:url(#gradient_ds_t)"/>
    <path id="ds-tl" d="m 16.5,4.5 h -14 v 14 h 14 z" fill="url(#gradient_ds_tl)" style="fill:url(#gradient_ds_tl)"/>
  </g>
  <rect y="4.5" x="4.5" height="55" width="55" id="bg" style="fill:url(#linearGradient1053-1);fill-opacity:1;stroke-width:2.74444;stroke-linecap:round;font-variation-settings:normal;opacity:1;vector-effect:none;stroke-linejoin:miter;stroke-miterlimit:4;stroke-dasharray:none;stroke-dashoffset:0;stroke-opacity:1;-inkscape-stroke:none;stop-color:#000000;stop-opacity:1" rx="10"/>
  <g id="art">
    <path fill="#ffffff" d="m 21.819041,47.417908 h 1.356957 c 0.257028,-0.517837 0.582093,-0.774865 0.967636,-0.774865 0.260807,0 0.842901,0.128514 1.746279,0.385543 C 28.736121,47.674936 31.000237,48 32.678479,48 c 6.595795,-0.257028 10.152611,-3.23175 10.666666,-8.920387 0,-2.328372 -0.967635,-4.528231 -2.910465,-6.595795 -1.549729,-1.549729 -4.135129,-3.231751 -7.756201,-5.042287 -4.006614,-2.199858 -6.009922,-4.138909 -6.009922,-5.820931 0.257028,-2.196079 1.874793,-3.360264 4.845735,-3.488779 4.006616,0.128515 6.72809,2.328372 8.149304,6.592015 h 1.93905 l -0.971415,-7.945192 h -0.967635 c -0.260808,0.128514 -0.325064,0.188991 -0.196551,0.188991 a 1.8861328,1.8861328 0 0 1 -0.967635,0.393102 c -0.132294,0 -0.582093,-0.132293 -1.360737,-0.389322 C 34.81408,16.325065 32.742736,16 30.9322,16 c -6.334987,0.389322 -9.695252,3.103236 -10.084574,8.145523 0.774864,4.785259 3.68533,8.01701 8.731396,9.699032 4.263643,1.682022 6.656272,4.074652 7.174109,7.177888 -0.260809,3.099457 -2.135601,4.717221 -5.62438,4.849515 -4.138909,0 -6.985117,-2.456886 -8.534845,-7.370658 h -1.939051 l 1.164186,8.920387" font-family="'刘德华字体叶根友仿版'" font-size="62.261px" font-weight="700" letter-spacing="0" word-spacing="0" id="path2" style="stroke-width:3.77982;fill:#292929;fill-opacity:1"/>
  </g>
</svg>
