<?xml version="1.0" encoding="UTF-8" standalone="no"?>
<svg xmlns:inkscape="http://www.inkscape.org/namespaces/inkscape" xmlns:sodipodi="http://sodipodi.sourceforge.net/DTD/sodipodi-0.dtd" xmlns:xlink="http://www.w3.org/1999/xlink" xmlns="http://www.w3.org/2000/svg" xmlns:svg="http://www.w3.org/2000/svg" xmlns:rdf="http://www.w3.org/1999/02/22-rdf-syntax-ns#" xmlns:cc="http://creativecommons.org/ns#" xmlns:dc="http://purl.org/dc/elements/1.1/" viewBox="0 0 64 64" version="1.1" id="svg39" sodipodi:docname="aegisub.svg" width="64" height="64" inkscape:version="1.4.2 (ebf0e940d0, 2025-05-08)">
  <sodipodi:namedview id="namedview1" pagecolor="#ffffff" bordercolor="#000000" borderopacity="0.25" inkscape:showpageshadow="2" inkscape:pageopacity="0.0" inkscape:pagecheckerboard="0" inkscape:deskcolor="#d1d1d1" inkscape:current-layer="svg39"/>
  <metadata id="metadata45">
    <rdf:RDF>
      <cc:Work rdf:about="">
        <dc:format>image/svg+xml</dc:format>
        <dc:type rdf:resource="http://purl.org/dc/dcmitype/StillImage"/>
        <dc:title/>
      </cc:Work>
    </rdf:RDF>
  </metadata>
  <defs id="defs43">
    <linearGradient id="linearGradient1001" x1="31.667999" x2="31.667999" y1="49.681999" y2="14.323" gradientUnits="userSpaceOnUse">
      <stop stop-color="#14a03c" offset="0" id="stop872"/>
      <stop stop-color="#14dc78" offset="1" id="stop874"/>
    </linearGradient>
    <filter color-interpolation-filters="sRGB" height="1.048" width="1.048" y="-.024" x="-.024" id="filter2761">
      <feGaussianBlur id="feGaussianBlur4" stdDeviation="0.14552168"/>
    </filter>
    <linearGradient gradientUnits="userSpaceOnUse" gradientTransform="translate(31.146088,0.14045)" y2="1.1082" y1="14.536" x2="15.644" x1="2.2495" id="linearGradient4673">
      <stop id="stop7-3" offset="0" stop-color="#ff5050"/>
      <stop id="stop9-6" offset=".47728" stop-color="#fa4b5a"/>
      <stop id="stop11" offset="1" stop-color="#ff7864"/>
    </linearGradient>
    <linearGradient gradientUnits="userSpaceOnUse" gradientTransform="matrix(0.32664815,0,0,0.32664815,0.63054332,0.95372475)" y2="4" y1="44" x2="0" id="linearGradient890">
      <stop id="stop4-7" offset="0" stop-color="#FFB900"/>
      <stop id="stop6" offset="1" stop-color="#ff0"/>
    </linearGradient>
    <filter color-interpolation-filters="sRGB" height="1.048" width="1.048" y="-.024" x="-.024" id="filter2761-67">
      <feGaussianBlur id="feGaussianBlur9" stdDeviation="0.14552168"/>
    </filter>
    <linearGradient gradientUnits="userSpaceOnUse" gradientTransform="matrix(3.7796,0,0,3.7796,66.443573,0.53068)" y2="1.1082" y1="15.601" x2="15.644" x1="1.4377" id="linearGradient4673-5">
      <stop id="stop12-5" offset="0" stop-color="#dc2828"/>
      <stop id="stop14-3" offset="1" stop-color="#fa4141"/>
    </linearGradient>
    <linearGradient gradientTransform="scale(0.26457812)" gradientUnits="userSpaceOnUse" y2="9.67" y1="54.592" x2="34.134" x1="34.134" id="linearGradient915">
      <stop id="stop17-5" offset="0" stop-color="#ffb900"/>
      <stop id="stop19-6" offset="1" stop-color="#ff0"/>
    </linearGradient>
    <filter inkscape:collect="always" style="color-interpolation-filters:sRGB" id="filter1057" x="-0.026999999" width="1.054" y="-0.026999999" height="1.054">
      <feGaussianBlur inkscape:collect="always" stdDeviation="0.61875" id="feGaussianBlur1059"/>
    </filter>
    <linearGradient inkscape:collect="always" xlink:href="#linearGradient1051" id="linearGradient1053" x1="-127" y1="60" x2="-72" y2="5" gradientUnits="userSpaceOnUse" gradientTransform="translate(131.5,-0.50999746)"/>
    <linearGradient inkscape:collect="always" id="linearGradient1051">
      <stop style="stop-color:#df2a2a;stop-opacity:1" offset="0" id="stop1047"/>
      <stop style="stop-color:#f83f3f;stop-opacity:1" offset="1" id="stop1049"/>
    </linearGradient>
    <linearGradient id="linearGradient890-3" x2="0" y1="44" y2="4" gradientTransform="matrix(1.2346,0,0,1.2346,3.1419,3.6047)" gradientUnits="userSpaceOnUse">
      <stop stop-color="#FFB900" offset="0" id="stop861"/>
      <stop stop-color="#ff0" offset="1" id="stop863"/>
    </linearGradient>
    <filter id="filter2761-6" x="-.024" y="-.024" width="1.048" height="1.048" color-interpolation-filters="sRGB">
      <feGaussianBlur stdDeviation="0.14552168" id="feGaussianBlur866"/>
    </filter>
    <filter id="filter2761-3" x="-.024" y="-.024" width="1.048" height="1.048" color-interpolation-filters="sRGB">
      <feGaussianBlur stdDeviation="0.14552168" id="feGaussianBlur935"/>
    </filter>
    <linearGradient id="linearGradient4673-56" x1="1.4377" x2="15.644" y1="15.601" y2="1.1082" gradientTransform="translate(-8.4984e-4,0.14045)" gradientUnits="userSpaceOnUse">
      <stop stop-color="#dc2828" offset="0" id="stop938"/>
      <stop stop-color="#fa4141" offset="1" id="stop940"/>
    </linearGradient>
    <filter id="filter909" x="-.084" y="-.084" width="1.168" height="1.168" color-interpolation-filters="sRGB">
      <feGaussianBlur stdDeviation="0.27781045" id="feGaussianBlur943"/>
    </filter>
    <linearGradient id="a" gradientUnits="userSpaceOnUse" x1="399.57144" x2="399.57144" y1="545.79797" y2="517.79797">
      <stop offset="0" stop-color="#3889e9" id="stop2"/>
      <stop offset="1" stop-color="#5ea5fb" id="stop4"/>
    </linearGradient>
    <linearGradient id="b" gradientUnits="userSpaceOnUse" x1="400.55615" x2="400.55615" y1="546.92657" y2="516.4751">
      <stop offset="0" stop-color="#d5dbff" id="stop7"/>
      <stop offset="1" stop-color="#f9ffff" id="stop9"/>
    </linearGradient>
    <linearGradient id="c">
      <stop offset="0" stop-color="#016ed4" id="stop12"/>
      <stop offset="1" stop-color="#00b1ff" id="stop14"/>
    </linearGradient>
    <linearGradient id="d" gradientUnits="userSpaceOnUse" x1="467.20358" x2="485.25964" y1="824.94153" y2="39.497837">
      <stop offset="0" stop-color="#ff9300" id="stop17"/>
      <stop offset="1" stop-color="#ffd702" id="stop19"/>
    </linearGradient>
    <linearGradient id="e" gradientUnits="userSpaceOnUse" x1="467.20358" x2="485.25964" xlink:href="#c" y1="824.94153" y2="39.497837"/>
  <radialGradient id="gradient_ds_br" cx="0" cy="0" r="1" gradientUnits="userSpaceOnUse" gradientTransform="matrix(13.998399,0.00477622,-0.00477841,14.004799,47.5016,48.4952)">
      <stop offset="0.65" id="stop1"/>
      <stop offset="1" stop-opacity="0" id="stop2"/>
    </radialGradient><linearGradient id="gradient_ds_b" x1="30.448999" y1="48.5" x2="30.492201" y2="62.500301" gradientUnits="userSpaceOnUse">
      <stop offset="0.653846" id="stop3"/>
      <stop offset="1" stop-opacity="0" id="stop4"/>
    </linearGradient><radialGradient id="gradient_ds_bl" cx="0" cy="0" r="1" gradientUnits="userSpaceOnUse" gradientTransform="matrix(0,14,-14,0,16.5,48.5)">
      <stop offset="0.65" id="stop5"/>
      <stop offset="1" stop-opacity="0" id="stop6"/>
    </radialGradient><linearGradient id="gradient_ds_r" x1="47.5" y1="33.5" x2="61.5" y2="33.5009" gradientUnits="userSpaceOnUse">
      <stop offset="0.649038" id="stop7"/>
      <stop offset="1" stop-opacity="0" id="stop8"/>
    </linearGradient><linearGradient id="gradient_ds_l" x1="16.5" y1="33.894699" x2="2.5" y2="33.894699" gradientUnits="userSpaceOnUse">
      <stop offset="0.649038" id="stop9"/>
      <stop offset="1" stop-opacity="0" id="stop10"/>
    </linearGradient><radialGradient id="gradient_ds_tr" cx="0" cy="0" r="1" gradientTransform="matrix(0.00843236,-14,14.0084,0.0189842,47.4916,18.5)" gradientUnits="userSpaceOnUse">
      <stop offset="0.65" id="stop11"/>
      <stop offset="1" stop-opacity="0" id="stop12"/>
    </radialGradient><linearGradient id="gradient_ds_t" x1="29.98" y1="18.5" x2="29.9158" y2="4.4998598" gradientUnits="userSpaceOnUse">
      <stop offset="0.649038" id="stop13"/>
      <stop offset="1" stop-opacity="0" id="stop14"/>
    </linearGradient><radialGradient id="gradient_ds_tl" cx="0" cy="0" r="1" gradientTransform="matrix(-0.00843236,-14,-14.0084,0.0189842,16.5084,18.5)" gradientUnits="userSpaceOnUse">
      <stop offset="0.65" id="stop15"/>
      <stop offset="1" stop-opacity="0" id="stop16"/>
    </radialGradient></defs>
  
  <g id="ds" opacity="0.25">
    <path id="ds-br" d="m 47.5,48.5 h 14 v 14 h -14 z" fill="url(#gradient_ds_br)" style="fill:url(#gradient_ds_br)"/>
    <path id="ds-b" d="m 16.5,48.5 h 31 v 14 h -31 z" fill="url(#gradient_ds_b)" style="fill:url(#gradient_ds_b)"/>
    <path id="ds-bl" d="m 2.5,48.5 h 14 v 14 h -14 z" fill="url(#gradient_ds_bl)" style="fill:url(#gradient_ds_bl)"/>
    <path id="ds-r" d="m 47.5,18.5 h 14 v 30 h -14 z" fill="url(#gradient_ds_r)" style="fill:url(#gradient_ds_r)"/>
    <path id="ds-l" d="m 2.5,18.5 h 14 v 30 h -14 z" fill="url(#gradient_ds_l)" style="fill:url(#gradient_ds_l)"/>
    <path id="ds-tr" d="m 47.5,4.5 h 14 v 14 h -14 z" fill="url(#gradient_ds_tr)" style="fill:url(#gradient_ds_tr)"/>
    <path id="ds-t" d="m 16.5,4.5 h 31 v 14 h -31 z" fill="url(#gradient_ds_t)" style="fill:url(#gradient_ds_t)"/>
    <path id="ds-tl" d="m 16.5,4.5 h -14 v 14 h 14 z" fill="url(#gradient_ds_tl)" style="fill:url(#gradient_ds_tl)"/>
  </g><rect style="display:inline;fill:url(#linearGradient1053);fill-opacity:1;stroke-width:2.74436;stroke-linecap:round" id="bg" width="55" height="55" x="4.5" y="4.5" rx="10"/>
  <g id="art"><path id="path1049" style="opacity:0.5;fill:#ffffff;fill-opacity:1;stroke:none;stroke-width:1.77442px;stroke-linecap:butt;stroke-linejoin:miter;stroke-opacity:1" d="M 35.380859 23.931641 C 34.28743 23.665908 33.175353 23.435547 32 23.435547 C 30.824647 23.435547 29.71257 23.665908 28.619141 23.931641 L 30.089844 26.478516 C 30.696203 26.268465 31.322276 26.091797 32 26.091797 C 32.677755 26.091797 33.304044 26.268626 33.910156 26.478516 L 35.380859 23.931641 z "/><path id="path1047" style="opacity:0.5;fill:#ffffff;fill-opacity:1;stroke:none;stroke-width:1.77442px;stroke-linecap:butt;stroke-linejoin:miter;stroke-opacity:1" d="M 22.958984 14.126953 L 28.619141 23.931641 C 29.71257 23.665908 30.824647 23.435547 32 23.435547 C 33.175353 23.435547 34.28743 23.665908 35.380859 23.931641 L 41.041016 14.126953 L 22.958984 14.126953 z "/><path id="path1090" style="opacity:0.5;fill:#ffffff;fill-opacity:1;stroke:none;stroke-width:1.77442px;stroke-linecap:butt;stroke-linejoin:miter;stroke-opacity:1" d="M 28.619141 40.068359 L 22.958984 49.873047 L 41.041016 49.873047 L 35.380859 40.068359 C 34.287432 40.334092 33.175347 40.564453 32 40.564453 C 30.824653 40.564453 29.712568 40.334094 28.619141 40.068359 z "/><path id="path1088" style="opacity:0.5;fill:#ffffff;fill-opacity:1;stroke:none;stroke-width:1.77442px;stroke-linecap:butt;stroke-linejoin:miter;stroke-opacity:1" d="M 28.619141 40.068359 C 29.712568 40.334094 30.824653 40.564453 32 40.564453 C 33.175347 40.564453 34.287432 40.334092 35.380859 40.068359 L 33.912109 37.523438 C 33.305243 37.734052 32.67839 37.910156 32 37.910156 C 31.321579 37.910156 30.69451 37.733724 30.087891 37.523438 L 28.619141 40.068359 z "/><path id="path1069" style="opacity:0.5;fill:#ffffff;fill-opacity:1;stroke:none;stroke-width:1.77442px;stroke-linecap:butt;stroke-linejoin:miter;stroke-opacity:1" d="M 31.150391 35.683594 A 3.7826335 3.7826335 0 0 0 31.189453 35.693359 A 3.7826335 3.7826335 0 0 0 31.349609 35.724609 A 3.7826335 3.7826335 0 0 0 31.509766 35.75 A 3.7826335 3.7826335 0 0 0 31.673828 35.767578 A 3.7826335 3.7826335 0 0 0 31.835938 35.777344 A 3.7826335 3.7826335 0 0 0 32 35.78125 A 3.7826335 3.7826335 0 0 0 32.054688 35.78125 A 3.7826335 3.7826335 0 0 0 32.216797 35.775391 A 3.7826335 3.7826335 0 0 0 32.380859 35.761719 A 3.7826335 3.7826335 0 0 0 32.542969 35.742188 A 3.7826335 3.7826335 0 0 0 32.705078 35.714844 A 3.7826335 3.7826335 0 0 0 32.849609 35.683594 L 32 34.212891 L 31.150391 35.683594 z "/><path id="path1056" style="opacity:0.5;fill:#ffffff;fill-opacity:1;stroke:none;stroke-width:1.77442px;stroke-linecap:butt;stroke-linejoin:miter;stroke-opacity:1" d="M 44.490234 30.892578 C 44.002373 30.017126 43.516261 29.137544 42.863281 28.386719 C 41.983801 27.375453 40.965298 26.487407 39.837891 25.753906 C 39.124002 25.289445 38.301714 25.00554 37.507812 24.671875 L 35.826172 27.585938 C 35.933724 27.679088 36.079145 27.723643 36.179688 27.824219 C 36.714213 28.35892 37.146455 28.994301 37.445312 29.701172 C 37.600083 30.06724 37.606843 30.493251 37.685547 30.892578 L 44.490234 30.892578 z "/><path id="path1054" style="opacity:0.5;fill:#ffffff;fill-opacity:1;stroke:none;stroke-width:1.77442px;stroke-linecap:butt;stroke-linejoin:miter;stroke-opacity:1" d="M 42.958984 15.232422 L 37.507812 24.671875 C 38.301714 25.00554 39.124002 25.289445 39.837891 25.753906 C 40.965298 26.487407 41.983801 27.375453 42.863281 28.386719 C 43.516261 29.137544 44.002373 30.017126 44.490234 30.892578 L 52 30.892578 L 42.958984 15.232422 z "/><path id="path1076" style="opacity:0.5;fill:#ffffff;fill-opacity:1;stroke:none;stroke-width:1.77442px;stroke-linecap:butt;stroke-linejoin:miter;stroke-opacity:1" d="M 19.509766 33.107422 L 12 33.107422 L 21.041016 48.767578 L 26.492188 39.328125 C 25.698286 38.994458 24.875999 38.710556 24.162109 38.246094 C 23.0347 37.512592 22.016201 36.624545 21.136719 35.613281 C 20.483737 34.862457 19.997627 33.98287 19.509766 33.107422 z "/><path id="path1074" style="opacity:0.5;fill:#ffffff;fill-opacity:1;stroke:none;stroke-width:1.77442px;stroke-linecap:butt;stroke-linejoin:miter;stroke-opacity:1" d="M 19.509766 33.107422 C 19.997627 33.98287 20.483737 34.862457 21.136719 35.613281 C 22.016201 36.624545 23.0347 37.512592 24.162109 38.246094 C 24.875999 38.710556 25.698286 38.994458 26.492188 39.328125 L 28.171875 36.417969 C 28.064702 36.325101 27.920521 36.27993 27.820312 36.179688 C 27.285787 35.644983 26.853545 35.007655 26.554688 34.300781 C 26.399547 33.933835 26.393153 33.507775 26.314453 33.107422 L 19.509766 33.107422 z "/><path id="path1063" style="opacity:0.5;fill:#ffffff;fill-opacity:1;stroke:none;stroke-width:1.77442px;stroke-linecap:butt;stroke-linejoin:miter;stroke-opacity:1" d="M 37.507812 39.328125 L 42.958984 48.767578 L 52 33.107422 L 44.490234 33.107422 C 44.002373 33.982874 43.516263 34.862456 42.863281 35.613281 C 41.983799 36.624547 40.9653 37.512593 39.837891 38.246094 C 39.124001 38.710555 38.301714 38.99446 37.507812 39.328125 z "/><path id="path1061" style="opacity:0.5;fill:#ffffff;fill-opacity:1;stroke:none;stroke-width:1.77442px;stroke-linecap:butt;stroke-linejoin:miter;stroke-opacity:1" d="M 37.507812 39.328125 C 38.301714 38.99446 39.124001 38.710555 39.837891 38.246094 C 40.9653 37.512593 41.983799 36.624547 42.863281 35.613281 C 43.516263 34.862456 44.002373 33.982874 44.490234 33.107422 L 37.685547 33.107422 C 37.606776 33.507841 37.598638 33.933779 37.443359 34.300781 C 37.144282 35.007655 36.712436 35.644983 36.177734 36.179688 C 36.07775 36.279673 35.933078 36.323367 35.826172 36.416016 L 37.507812 39.328125 z "/><path id="path1083" style="opacity:0.5;fill:#ffffff;fill-opacity:1;stroke:none;stroke-width:1.77442px;stroke-linecap:butt;stroke-linejoin:miter;stroke-opacity:1" d="M 26.492188 24.671875 C 25.698286 25.00554 24.875998 25.289445 24.162109 25.753906 C 23.034702 26.487407 22.016199 27.375453 21.136719 28.386719 C 20.483739 29.137544 19.997627 30.017126 19.509766 30.892578 L 26.316406 30.892578 C 26.395183 30.493117 26.401782 30.067249 26.556641 29.701172 C 26.855718 28.994169 27.287564 28.356791 27.822266 27.822266 C 27.92225 27.722314 28.066922 27.678547 28.173828 27.585938 L 26.492188 24.671875 z "/><path id="path1081" style="opacity:0.5;fill:#ffffff;fill-opacity:1;stroke:none;stroke-width:1.77442px;stroke-linecap:butt;stroke-linejoin:miter;stroke-opacity:1" d="M 21.041016 15.232422 L 12 30.892578 L 19.509766 30.892578 C 19.997627 30.017126 20.483739 29.137544 21.136719 28.386719 C 22.016199 27.375453 23.034702 26.487407 24.162109 25.753906 C 24.875998 25.289445 25.698286 25.00554 26.492188 24.671875 L 21.041016 15.232422 z "/><path id="rect1141" style="opacity:1;fill:#ffffff;fill-opacity:1;stroke:none;stroke-width:4.648;stroke-linecap:round" d="M 31.945312 28.216797 A 3.7826335 3.7826335 0 0 0 28.216797 31.998047 A 3.7826335 3.7826335 0 0 0 32 35.78125 A 3.7826335 3.7826335 0 0 0 35.783203 31.998047 A 3.7826335 3.7826335 0 0 0 32 28.216797 A 3.7826335 3.7826335 0 0 0 31.945312 28.216797 z "/><path id="rect1146" style="opacity:1;fill:#ffffff;fill-opacity:1;stroke:none;stroke-width:4.648;stroke-linecap:round" d="M 32 23.435547 C 26.217774 23.435547 21.234579 26.84289 18.945312 31.761719 C 18.875003 31.910775 18.875003 32.086413 18.945312 32.238281 C 21.234579 37.157082 26.217802 40.564453 32 40.564453 C 37.782199 40.564453 42.76542 37.15711 45.054688 32.238281 C 45.124997 32.089225 45.124998 31.913587 45.054688 31.761719 C 42.76542 26.84289 37.782227 23.435547 32 23.435547 z M 32 26.091797 C 35.265159 26.091797 37.908203 28.739607 37.908203 32.001953 C 37.908203 35.264298 35.262346 37.910156 32 37.910156 C 28.734842 37.910156 26.091797 35.264298 26.091797 32.001953 C 26.091797 28.736795 28.737655 26.091797 32 26.091797 z "/></g>
  
  
  
  
  
  
  
  
  
  
  
  
  
  
</svg>
