<?xml version="1.0" encoding="UTF-8" standalone="no"?>
<svg xmlns:inkscape="http://www.inkscape.org/namespaces/inkscape" xmlns:sodipodi="http://sodipodi.sourceforge.net/DTD/sodipodi-0.dtd" xmlns="http://www.w3.org/2000/svg" xmlns:svg="http://www.w3.org/2000/svg" xmlns:rdf="http://www.w3.org/1999/02/22-rdf-syntax-ns#" xmlns:cc="http://creativecommons.org/ns#" xmlns:dc="http://purl.org/dc/elements/1.1/" width="64" height="64" version="1.1" id="svg12" sodipodi:docname="amazonmp3.svg" inkscape:version="1.4.2 (ebf0e940d0, 2025-05-08)">
  <metadata id="metadata1">
    <rdf:RDF>
      <cc:Work rdf:about="">
        <dc:format>image/svg+xml</dc:format>
        <dc:type rdf:resource="http://purl.org/dc/dcmitype/StillImage"/>
      </cc:Work>
    </rdf:RDF>
  </metadata>
  <defs id="defs7">
    
    
    
    
    <filter id="filter1057" x="-0.026999999" y="-0.026999999" width="1.054" height="1.054" color-interpolation-filters="sRGB">
      <feGaussianBlur stdDeviation="0.61875" id="feGaussianBlur4"/>
    </filter>
    <linearGradient id="linearGradient1053" x1="-127" x2="-72" y1="60" y2="5" gradientTransform="translate(131.5,-0.51)" gradientUnits="userSpaceOnUse">
      <stop stop-color="#02db96" offset="0" id="stop4"/>
      <stop stop-color="#13d39b" offset="1" id="stop5"/>
    </linearGradient>
    
    
    
  <radialGradient id="gradient_ds_br" cx="0" cy="0" r="1" gradientUnits="userSpaceOnUse" gradientTransform="matrix(13.998399,0.00477622,-0.00477841,14.004799,47.5016,48.4952)">
      <stop offset="0.65" id="stop1"/>
      <stop offset="1" stop-opacity="0" id="stop2"/>
    </radialGradient><linearGradient id="gradient_ds_b" x1="30.448999" y1="48.5" x2="30.492201" y2="62.500301" gradientUnits="userSpaceOnUse">
      <stop offset="0.653846" id="stop3"/>
      <stop offset="1" stop-opacity="0" id="stop4"/>
    </linearGradient><radialGradient id="gradient_ds_bl" cx="0" cy="0" r="1" gradientUnits="userSpaceOnUse" gradientTransform="matrix(0,14,-14,0,16.5,48.5)">
      <stop offset="0.65" id="stop5"/>
      <stop offset="1" stop-opacity="0" id="stop6"/>
    </radialGradient><linearGradient id="gradient_ds_r" x1="47.5" y1="33.5" x2="61.5" y2="33.5009" gradientUnits="userSpaceOnUse">
      <stop offset="0.649038" id="stop7"/>
      <stop offset="1" stop-opacity="0" id="stop8"/>
    </linearGradient><linearGradient id="gradient_ds_l" x1="16.5" y1="33.894699" x2="2.5" y2="33.894699" gradientUnits="userSpaceOnUse">
      <stop offset="0.649038" id="stop9"/>
      <stop offset="1" stop-opacity="0" id="stop10"/>
    </linearGradient><radialGradient id="gradient_ds_tr" cx="0" cy="0" r="1" gradientTransform="matrix(0.00843236,-14,14.0084,0.0189842,47.4916,18.5)" gradientUnits="userSpaceOnUse">
      <stop offset="0.65" id="stop11"/>
      <stop offset="1" stop-opacity="0" id="stop12"/>
    </radialGradient><linearGradient id="gradient_ds_t" x1="29.98" y1="18.5" x2="29.9158" y2="4.4998598" gradientUnits="userSpaceOnUse">
      <stop offset="0.649038" id="stop13"/>
      <stop offset="1" stop-opacity="0" id="stop14"/>
    </linearGradient><radialGradient id="gradient_ds_tl" cx="0" cy="0" r="1" gradientTransform="matrix(-0.00843236,-14,-14.0084,0.0189842,16.5084,18.5)" gradientUnits="userSpaceOnUse">
      <stop offset="0.65" id="stop15"/>
      <stop offset="1" stop-opacity="0" id="stop16"/>
    </radialGradient></defs>
  
  <g id="ds" opacity="0.25">
    <path id="ds-br" d="m 47.5,48.5 h 14 v 14 h -14 z" fill="url(#gradient_ds_br)" style="fill:url(#gradient_ds_br)"/>
    <path id="ds-b" d="m 16.5,48.5 h 31 v 14 h -31 z" fill="url(#gradient_ds_b)" style="fill:url(#gradient_ds_b)"/>
    <path id="ds-bl" d="m 2.5,48.5 h 14 v 14 h -14 z" fill="url(#gradient_ds_bl)" style="fill:url(#gradient_ds_bl)"/>
    <path id="ds-r" d="m 47.5,18.5 h 14 v 30 h -14 z" fill="url(#gradient_ds_r)" style="fill:url(#gradient_ds_r)"/>
    <path id="ds-l" d="m 2.5,18.5 h 14 v 30 h -14 z" fill="url(#gradient_ds_l)" style="fill:url(#gradient_ds_l)"/>
    <path id="ds-tr" d="m 47.5,4.5 h 14 v 14 h -14 z" fill="url(#gradient_ds_tr)" style="fill:url(#gradient_ds_tr)"/>
    <path id="ds-t" d="m 16.5,4.5 h 31 v 14 h -31 z" fill="url(#gradient_ds_t)" style="fill:url(#gradient_ds_t)"/>
    <path id="ds-tl" d="m 16.5,4.5 h -14 v 14 h 14 z" fill="url(#gradient_ds_tl)" style="fill:url(#gradient_ds_tl)"/>
  </g><rect x="4.5" y="4.5" width="55" height="55" fill="url(#linearGradient1053)" stroke-linecap="round" stroke-width="2.7444" id="bg" style="fill:url(#linearGradient1053)" rx="10"/>
  <g id="art"><path d="M 46.606,42.388 C 46.15225,41.79175 43.5985,42.10425 42.456,42.24675 42.10475,42.2905 42.051,41.978 42.3685,41.753 c 2.0312,-1.465 5.3713,-1.045 5.7563,-0.55125 0.39125,0.49375 -0.0975,3.9213 -2.0113,5.5563 -0.2925,0.25375 -0.57125,0.1175 -0.44,-0.215 0.425,-1.0987 1.3912,-3.56 0.9325,-4.155 m -1.48,1.735 c -3.56,2.685 -8.7163,4.1213 -13.159,4.1213 -6.225,0 -11.831,-2.3588 -16.074,-6.2875 -0.3325,-0.3075 -0.03376,-0.7275 0.36625,-0.48875 4.575,2.73 10.239,4.37 16.084,4.37 3.94,0 8.2812,-0.835 12.266,-2.5738 0.605,-0.25875 1.1088,0.405 0.5175,0.855 m -10.801,-14.406 c 0,1.7088 0.04375,3.13 -0.78125,4.6438 -0.66375,1.23 -1.7188,1.9875 -2.895,1.9875 -1.6062,0 -2.5387,-1.2788 -2.5387,-3.1688 0,-3.73 3.1937,-4.4088 6.2162,-4.4088 v 0.9475 m 4.2188,10.664 c -0.27375,0.25875 -0.67375,0.27875 -0.98625,0.1075 -1.3862,-1.2062 -1.6362,-1.7675 -2.4025,-2.92 -2.295,2.4513 -3.9163,3.1838 -6.895,3.1838 -3.52,0 -6.2625,-2.27 -6.2625,-6.8162 0,-3.55 1.8412,-5.9713 4.4575,-7.1538 2.2663,-1.045 5.44,-1.23 7.8663,-1.5187 v -0.56625 c 0,-1.04 0.07875,-2.27 -0.5025,-3.1688 -0.5125,-0.80625 -1.4888,-1.1375 -2.3487,-1.1375 -1.5962,0 -3.0175,0.855 -3.3638,2.6275 -0.07375,0.395 -0.34625,0.78125 -0.7275,0.80125 l -4.0575,-0.45375 c -0.34125,-0.0825 -0.7175,-0.37125 -0.625,-0.9175 0.9375,-5.1363 5.3812,-6.69 9.355,-6.69 2.0362,0 4.6975,0.56625 6.3,2.1775 2.0363,1.9875 1.8412,4.6387 1.8412,7.525 v 6.8162 c 0,2.0513 0.81,2.9488 1.5775,4.0575 0.26875,0.39125 0.3275,0.86875 -0.01,1.1625 -0.855,0.7525 -2.3725,2.1288 -3.2075,2.905 l -0.01501,-0.01501" fill="#ffffff" fill-rule="evenodd" stroke-width="0.33891" id="path8"/></g>
</svg>
