<?xml version="1.0" encoding="UTF-8" standalone="no"?>
<svg xmlns:inkscape="http://www.inkscape.org/namespaces/inkscape" xmlns:sodipodi="http://sodipodi.sourceforge.net/DTD/sodipodi-0.dtd" xmlns:xlink="http://www.w3.org/1999/xlink" xmlns="http://www.w3.org/2000/svg" xmlns:svg="http://www.w3.org/2000/svg" width="64" height="64" version="1.1" id="svg1" sodipodi:docname="auryo.svg" inkscape:version="1.3 (0e150ed6c4, 2023-07-21)">
  <defs id="defs1">
    <filter id="filter1057" x="-0.026999999" y="-0.026999999" width="1.054" height="1.054" color-interpolation-filters="sRGB">
      <feGaussianBlur stdDeviation="0.61875" id="feGaussianBlur2"/>
    </filter>
    <linearGradient id="linearGradient1053" x1="-127" x2="-72" y1="60" y2="5" gradientTransform="matrix(1.0000071,0,0,1.0000071,131.49954,-0.51035929)" gradientUnits="userSpaceOnUse">
      <stop stop-color="#32d7ff" offset="0" id="stop3"/>
      <stop stop-color="#329bff" offset="1" id="stop4"/>
    </linearGradient>
    <linearGradient id="linearGradient1050" x1="31.802999" x2="31.802999" y1="8.0243998" y2="8.2410002" gradientTransform="matrix(0.82927,0,0,0.8636,-17.745,1.0542)" gradientUnits="userSpaceOnUse" xlink:href="#linearGradient64681"/>
    <linearGradient id="linearGradient64681">
      <stop stop-color="#99c2e6" offset="0" id="stop1"/>
      <stop stop-color="#6493bd" offset="1" id="stop2"/>
    </linearGradient>
    <linearGradient id="linearGradient1052" x1="31.802999" x2="31.802999" y1="8.0243998" y2="8.2410002" gradientTransform="matrix(0.8636,0,0,0.8636,-18.831,0.94954)" gradientUnits="userSpaceOnUse" xlink:href="#linearGradient64681"/>
  <radialGradient id="gradient_ds_br" cx="0" cy="0" r="1" gradientUnits="userSpaceOnUse" gradientTransform="matrix(13.998399,0.00477622,-0.00477841,14.004799,47.5016,48.4952)">
      <stop offset="0.65" id="stop1"/>
      <stop offset="1" stop-opacity="0" id="stop2"/>
    </radialGradient><linearGradient id="gradient_ds_b" x1="30.448999" y1="48.5" x2="30.492201" y2="62.500301" gradientUnits="userSpaceOnUse">
      <stop offset="0.653846" id="stop3"/>
      <stop offset="1" stop-opacity="0" id="stop4"/>
    </linearGradient><radialGradient id="gradient_ds_bl" cx="0" cy="0" r="1" gradientUnits="userSpaceOnUse" gradientTransform="matrix(0,14,-14,0,16.5,48.5)">
      <stop offset="0.65" id="stop5"/>
      <stop offset="1" stop-opacity="0" id="stop6"/>
    </radialGradient><linearGradient id="gradient_ds_r" x1="47.5" y1="33.5" x2="61.5" y2="33.5009" gradientUnits="userSpaceOnUse">
      <stop offset="0.649038" id="stop7"/>
      <stop offset="1" stop-opacity="0" id="stop8"/>
    </linearGradient><linearGradient id="gradient_ds_l" x1="16.5" y1="33.894699" x2="2.5" y2="33.894699" gradientUnits="userSpaceOnUse">
      <stop offset="0.649038" id="stop9"/>
      <stop offset="1" stop-opacity="0" id="stop10"/>
    </linearGradient><radialGradient id="gradient_ds_tr" cx="0" cy="0" r="1" gradientTransform="matrix(0.00843236,-14,14.0084,0.0189842,47.4916,18.5)" gradientUnits="userSpaceOnUse">
      <stop offset="0.65" id="stop11"/>
      <stop offset="1" stop-opacity="0" id="stop12"/>
    </radialGradient><linearGradient id="gradient_ds_t" x1="29.98" y1="18.5" x2="29.9158" y2="4.4998598" gradientUnits="userSpaceOnUse">
      <stop offset="0.649038" id="stop13"/>
      <stop offset="1" stop-opacity="0" id="stop14"/>
    </linearGradient><radialGradient id="gradient_ds_tl" cx="0" cy="0" r="1" gradientTransform="matrix(-0.00843236,-14,-14.0084,0.0189842,16.5084,18.5)" gradientUnits="userSpaceOnUse">
      <stop offset="0.65" id="stop15"/>
      <stop offset="1" stop-opacity="0" id="stop16"/>
    </radialGradient></defs>
  
  <g id="ds" opacity="0.25">
    <path id="ds-br" d="m 47.5,48.5 h 14 v 14 h -14 z" fill="url(#gradient_ds_br)" style="fill:url(#gradient_ds_br)"/>
    <path id="ds-b" d="m 16.5,48.5 h 31 v 14 h -31 z" fill="url(#gradient_ds_b)" style="fill:url(#gradient_ds_b)"/>
    <path id="ds-bl" d="m 2.5,48.5 h 14 v 14 h -14 z" fill="url(#gradient_ds_bl)" style="fill:url(#gradient_ds_bl)"/>
    <path id="ds-r" d="m 47.5,18.5 h 14 v 30 h -14 z" fill="url(#gradient_ds_r)" style="fill:url(#gradient_ds_r)"/>
    <path id="ds-l" d="m 2.5,18.5 h 14 v 30 h -14 z" fill="url(#gradient_ds_l)" style="fill:url(#gradient_ds_l)"/>
    <path id="ds-tr" d="m 47.5,4.5 h 14 v 14 h -14 z" fill="url(#gradient_ds_tr)" style="fill:url(#gradient_ds_tr)"/>
    <path id="ds-t" d="m 16.5,4.5 h 31 v 14 h -31 z" fill="url(#gradient_ds_t)" style="fill:url(#gradient_ds_t)"/>
    <path id="ds-tl" d="m 16.5,4.5 h -14 v 14 h 14 z" fill="url(#gradient_ds_tl)" style="fill:url(#gradient_ds_tl)"/>
  </g><rect x="4.5" y="4.5" width="55" height="55" fill="url(#linearGradient1053)" stroke-width="2.74441" id="bg" style="fill:url(#linearGradient1053);stroke-linecap:round" rx="10"/>
  <g id="art"><path d="m 31.9995,15.043 c -7.203,0 -13.043,5.84 -13.043,13.043 v 6.865 a 5.87,5.87 0 0 0 -3.913,5.526 5.87,5.87 0 0 0 9.186,4.843 c 0.13,0.583 0.624,1.026 1.249,1.026 0.722,0 1.304,-0.582 1.304,-1.304 v -9.13 c 0,-0.723 -0.582,-1.304 -1.304,-1.304 -0.626,0 -1.123,0.445 -1.251,1.031 a 5.87,5.87 0 0 0 -1.358,-0.688 v -6.865 a 9.13,9.13 0 0 1 18.26,0 v 6.865 a 5.867,5.867 0 0 0 -3.913,5.526 c -0.002,3.241 2.628,5.87 5.87,5.87 3.242,0 5.871,-2.629 5.87,-5.87 a 5.867,5.867 0 0 0 -3.914,-5.526 v -6.865 c 0,-7.203 -5.84,-13.043 -13.043,-13.043 z m -11.087,22.173 a 3.261,3.261 0 1 1 0,6.522 3.261,3.261 0 0 1 0,-6.522 z m 22.173,0 a 3.261,3.261 0 1 1 0,6.522 3.261,3.261 0 0 1 0,-6.522 z" style="paint-order:normal;fill:#ffffff;fill-opacity:1" id="path2"/></g>
</svg>
