<?xml version="1.0" encoding="UTF-8" standalone="no"?>
<svg xmlns:inkscape="http://www.inkscape.org/namespaces/inkscape" xmlns:sodipodi="http://sodipodi.sourceforge.net/DTD/sodipodi-0.dtd" xmlns="http://www.w3.org/2000/svg" xmlns:svg="http://www.w3.org/2000/svg" version="1.1" viewBox="0 0 64 64" id="svg59" sodipodi:docname="bitwig-studio.svg" width="64" height="64" xml:space="preserve" inkscape:version="1.2.1 (9c6d41e410, 2022-07-14)">
  
  <defs id="defs7">
    <linearGradient id="linearGradient3764" x2="47" gradientUnits="userSpaceOnUse" x1="1" gradientTransform="rotate(-90,23.999999,24.000001)">
      <stop style="stop-color:#d41c31" offset="0" id="stop2"/>
      <stop style="stop-color:#e22137" offset="1" id="stop4"/>
    </linearGradient>
    <linearGradient id="linearGradient936" x1="29.312" x2="29.312" y1="57.119999" y2="7.4541998" gradientTransform="translate(2.01e-4,-4.996e-4)" gradientUnits="userSpaceOnUse">
      <stop stop-color="#ea2424" offset="0" id="stop351" style="stop-color:#fa4819;stop-opacity:1"/>
      <stop stop-color="#ff674d" offset="1" id="stop353" style="stop-color:#f9562b;stop-opacity:1"/>
    </linearGradient>
    <linearGradient id="linearGradient924" x1="62.226002" x2="62.226002" y1="27.346001" y2="-27.767" gradientTransform="matrix(0.50103,0,0,0.50103,-0.373921,31.913001)" gradientUnits="userSpaceOnUse">
      <stop stop-color="#e9afaf" offset="0" id="stop346"/>
      <stop stop-color="#fff" offset="1" id="stop348"/>
    </linearGradient>
    <filter id="filter1057" x="-0.026999999" y="-0.026999999" width="1.054" height="1.054" color-interpolation-filters="sRGB">
      <feGaussianBlur stdDeviation="0.61875" id="feGaussianBlur886"/>
    </filter>
    <linearGradient id="linearGradient1053" x1="-127" x2="-72" y1="60" y2="5" gradientTransform="matrix(1.0000071,0,0,1.0000071,131.49969,-0.51020942)" gradientUnits="userSpaceOnUse">
      <stop stop-color="#ff7d50" offset="0" id="stop889"/>
      <stop stop-color="#ff4b5a" offset=".50594" id="stop891"/>
      <stop stop-color="#ff509b" offset="1" id="stop893"/>
    </linearGradient>
  <radialGradient id="gradient_ds_br" cx="0" cy="0" r="1" gradientUnits="userSpaceOnUse" gradientTransform="matrix(13.998399,0.00477622,-0.00477841,14.004799,47.5016,48.4952)">
      <stop offset="0.65" id="stop1"/>
      <stop offset="1" stop-opacity="0" id="stop2"/>
    </radialGradient><linearGradient id="gradient_ds_b" x1="30.448999" y1="48.5" x2="30.492201" y2="62.500301" gradientUnits="userSpaceOnUse">
      <stop offset="0.653846" id="stop3"/>
      <stop offset="1" stop-opacity="0" id="stop4"/>
    </linearGradient><radialGradient id="gradient_ds_bl" cx="0" cy="0" r="1" gradientUnits="userSpaceOnUse" gradientTransform="matrix(0,14,-14,0,16.5,48.5)">
      <stop offset="0.65" id="stop5"/>
      <stop offset="1" stop-opacity="0" id="stop6"/>
    </radialGradient><linearGradient id="gradient_ds_r" x1="47.5" y1="33.5" x2="61.5" y2="33.5009" gradientUnits="userSpaceOnUse">
      <stop offset="0.649038" id="stop7"/>
      <stop offset="1" stop-opacity="0" id="stop8"/>
    </linearGradient><linearGradient id="gradient_ds_l" x1="16.5" y1="33.894699" x2="2.5" y2="33.894699" gradientUnits="userSpaceOnUse">
      <stop offset="0.649038" id="stop9"/>
      <stop offset="1" stop-opacity="0" id="stop10"/>
    </linearGradient><radialGradient id="gradient_ds_tr" cx="0" cy="0" r="1" gradientTransform="matrix(0.00843236,-14,14.0084,0.0189842,47.4916,18.5)" gradientUnits="userSpaceOnUse">
      <stop offset="0.65" id="stop11"/>
      <stop offset="1" stop-opacity="0" id="stop12"/>
    </radialGradient><linearGradient id="gradient_ds_t" x1="29.98" y1="18.5" x2="29.9158" y2="4.4998598" gradientUnits="userSpaceOnUse">
      <stop offset="0.649038" id="stop13"/>
      <stop offset="1" stop-opacity="0" id="stop14"/>
    </linearGradient><radialGradient id="gradient_ds_tl" cx="0" cy="0" r="1" gradientTransform="matrix(-0.00843236,-14,-14.0084,0.0189842,16.5084,18.5)" gradientUnits="userSpaceOnUse">
      <stop offset="0.65" id="stop15"/>
      <stop offset="1" stop-opacity="0" id="stop16"/>
    </radialGradient></defs>
  
  <g id="ds" opacity="0.25">
    <path id="ds-br" d="m 47.5,48.5 h 14 v 14 h -14 z" fill="url(#gradient_ds_br)" style="fill:url(#gradient_ds_br)"/>
    <path id="ds-b" d="m 16.5,48.5 h 31 v 14 h -31 z" fill="url(#gradient_ds_b)" style="fill:url(#gradient_ds_b)"/>
    <path id="ds-bl" d="m 2.5,48.5 h 14 v 14 h -14 z" fill="url(#gradient_ds_bl)" style="fill:url(#gradient_ds_bl)"/>
    <path id="ds-r" d="m 47.5,18.5 h 14 v 30 h -14 z" fill="url(#gradient_ds_r)" style="fill:url(#gradient_ds_r)"/>
    <path id="ds-l" d="m 2.5,18.5 h 14 v 30 h -14 z" fill="url(#gradient_ds_l)" style="fill:url(#gradient_ds_l)"/>
    <path id="ds-tr" d="m 47.5,4.5 h 14 v 14 h -14 z" fill="url(#gradient_ds_tr)" style="fill:url(#gradient_ds_tr)"/>
    <path id="ds-t" d="m 16.5,4.5 h 31 v 14 h -31 z" fill="url(#gradient_ds_t)" style="fill:url(#gradient_ds_t)"/>
    <path id="ds-tl" d="m 16.5,4.5 h -14 v 14 h 14 z" fill="url(#gradient_ds_tl)" style="fill:url(#gradient_ds_tl)"/>
  </g><rect x="4.5" y="4.5" width="55" height="55" fill="url(#linearGradient1053)" stroke-linecap="round" stroke-width="2.74437" id="bg" style="fill:url(#linearGradient1053)" rx="10"/>
  
  
  <g style="fill:#f9f9f9" id="art" transform="matrix(1.1785714,0,0,1.1785714,3.7142864,4.3035721)">
    <path d="M 23,18.5 A 1.5,1.5 0 0 1 21.5,20 1.5,1.5 0 0 1 20,18.5 1.5,1.5 0 0 1 21.5,17 1.5,1.5 0 0 1 23,18.5 Z" id="path797"/>
    <path d="M 28,18.5 A 1.5,1.5 0 0 1 26.5,20 1.5,1.5 0 0 1 25,18.5 1.5,1.5 0 0 1 26.5,17 1.5,1.5 0 0 1 28,18.5 Z" id="path799"/>
    <path d="M 33,18.5 A 1.5,1.5 0 0 1 31.5,20 1.5,1.5 0 0 1 30,18.5 1.5,1.5 0 0 1 31.5,17 1.5,1.5 0 0 1 33,18.5 Z" id="path801"/>
    <path d="M 18,18.5 A 1.5,1.5 0 0 1 16.5,20 1.5,1.5 0 0 1 15,18.5 1.5,1.5 0 0 1 16.5,17 1.5,1.5 0 0 1 18,18.5 Z" id="path803"/>
    <path d="M 13,23.5 A 1.5,1.5 0 0 1 11.5,25 1.5,1.5 0 0 1 10,23.5 1.5,1.5 0 0 1 11.5,22 1.5,1.5 0 0 1 13,23.5 Z" id="path805"/>
    <path d="M 18,23.5 A 1.5,1.5 0 0 1 16.5,25 1.5,1.5 0 0 1 15,23.5 1.5,1.5 0 0 1 16.5,22 1.5,1.5 0 0 1 18,23.5 Z" id="path807"/>
    <path d="M 23,23.5 A 1.5,1.5 0 0 1 21.5,25 1.5,1.5 0 0 1 20,23.5 1.5,1.5 0 0 1 21.5,22 1.5,1.5 0 0 1 23,23.5 Z" id="path809"/>
    <path d="M 28,23.5 A 1.5,1.5 0 0 1 26.5,25 1.5,1.5 0 0 1 25,23.5 1.5,1.5 0 0 1 26.5,22 1.5,1.5 0 0 1 28,23.5 Z" id="path811"/>
    <path d="M 33,23.5 A 1.5,1.5 0 0 1 31.5,25 1.5,1.5 0 0 1 30,23.5 1.5,1.5 0 0 1 31.5,22 1.5,1.5 0 0 1 33,23.5 Z" id="path813"/>
    <path d="M 38,23.5 A 1.5,1.5 0 0 1 36.5,25 1.5,1.5 0 0 1 35,23.5 1.5,1.5 0 0 1 36.5,22 1.5,1.5 0 0 1 38,23.5 Z" id="path815"/>
    <path d="M 13,28.5 A 1.5,1.5 0 0 1 11.5,30 1.5,1.5 0 0 1 10,28.5 1.5,1.5 0 0 1 11.5,27 1.5,1.5 0 0 1 13,28.5 Z" id="path817"/>
    <path d="M 18,28.5 A 1.5,1.5 0 0 1 16.5,30 1.5,1.5 0 0 1 15,28.5 1.5,1.5 0 0 1 16.5,27 1.5,1.5 0 0 1 18,28.5 Z" id="path819"/>
    <path d="M 33,28.5 A 1.5,1.5 0 0 1 31.5,30 1.5,1.5 0 0 1 30,28.5 1.5,1.5 0 0 1 31.5,27 1.5,1.5 0 0 1 33,28.5 Z" id="path821"/>
    <path d="M 38,28.5 A 1.5,1.5 0 0 1 36.5,30 1.5,1.5 0 0 1 35,28.5 1.5,1.5 0 0 1 36.5,27 1.5,1.5 0 0 1 38,28.5 Z" id="path823"/>
  </g>
</svg>
