<?xml version="1.0" encoding="UTF-8" standalone="no"?>
<svg xmlns:inkscape="http://www.inkscape.org/namespaces/inkscape" xmlns:sodipodi="http://sodipodi.sourceforge.net/DTD/sodipodi-0.dtd" xmlns:xlink="http://www.w3.org/1999/xlink" xmlns="http://www.w3.org/2000/svg" xmlns:svg="http://www.w3.org/2000/svg" width="64" height="64" version="1.1" id="svg4" sodipodi:docname="blackmagicraw-speedtest.svg" inkscape:version="1.4.2 (ebf0e940d0, 2025-05-08)">
  <sodipodi:namedview id="namedview1" pagecolor="#ffffff" bordercolor="#000000" borderopacity="0.25" inkscape:showpageshadow="2" inkscape:pageopacity="0.0" inkscape:pagecheckerboard="0" inkscape:deskcolor="#d1d1d1" inkscape:current-layer="svg4"/>
  <defs id="defs4">
    <linearGradient inkscape:collect="always" xlink:href="#linearGradient4" id="linearGradient5" x1="32" y1="2" x2="32" y2="62" gradientUnits="userSpaceOnUse" gradientTransform="matrix(0.93333333,0,0,0.93333333,-69.866667,6.1333333)"/>
    <linearGradient id="linearGradient4" inkscape:collect="always">
      <stop style="stop-color:#403535;stop-opacity:1" offset="0" id="stop4"/>
      <stop style="stop-color:#d1c4ca;stop-opacity:1" offset="1" id="stop5"/>
    </linearGradient>
    <linearGradient inkscape:collect="always" xlink:href="#linearGradient6" id="linearGradient7" x1="32" y1="6" x2="32" y2="58" gradientUnits="userSpaceOnUse" gradientTransform="translate(-72,4)"/>
    <linearGradient id="linearGradient6" inkscape:collect="always">
      <stop style="stop-color:#1c2a20;stop-opacity:1" offset="0" id="stop6"/>
      <stop style="stop-color:#0e0201;stop-opacity:1" offset="1" id="stop7"/>
    </linearGradient>
    <radialGradient inkscape:collect="always" xlink:href="#linearGradient9" id="radialGradient7" cx="32" cy="32" fx="32" fy="32" r="26" gradientUnits="userSpaceOnUse" gradientTransform="translate(-72,4)"/>
    <linearGradient id="linearGradient9" inkscape:collect="always">
      <stop style="stop-color:#1c2a20;stop-opacity:1" offset="0" id="stop8"/>
      <stop style="stop-color:#8e382d;stop-opacity:1" offset="1" id="stop9"/>
    </linearGradient>
    <radialGradient inkscape:collect="always" xlink:href="#linearGradient37376" id="radialGradient37378" cx="8.4665003" cy="8.4665003" fx="8.4665003" fy="8.4665003" r="7.276" gradientUnits="userSpaceOnUse" gradientTransform="scale(3.779602)"/>
    <linearGradient inkscape:collect="always" id="linearGradient37376">
      <stop style="stop-color:#5e6a76;stop-opacity:1;" offset="0" id="stop37372"/>
      <stop style="stop-color:#1d2123;stop-opacity:1;" offset="1" id="stop37374"/>
    </linearGradient>
    <filter inkscape:collect="always" style="color-interpolation-filters:sRGB" id="filter1057-5" x="-0.026999999" width="1.054" y="-0.026999999" height="1.054">
      <feGaussianBlur inkscape:collect="always" stdDeviation="0.61875" id="feGaussianBlur1059-6"/>
    </filter>
    <radialGradient inkscape:collect="always" xlink:href="#linearGradient37376" id="radialGradient37378-4" cx="8.4665003" cy="8.4665003" fx="8.4665003" fy="8.4665003" r="7.276" gradientUnits="userSpaceOnUse" gradientTransform="scale(3.779602)"/>
  <radialGradient id="gradient_ds_br" cx="0" cy="0" r="1" gradientUnits="userSpaceOnUse" gradientTransform="matrix(13.998399,0.00477622,-0.00477841,14.004799,47.5016,48.4952)">
      <stop offset="0.65" id="stop1"/>
      <stop offset="1" stop-opacity="0" id="stop2"/>
    </radialGradient><linearGradient id="gradient_ds_b" x1="30.448999" y1="48.5" x2="30.492201" y2="62.500301" gradientUnits="userSpaceOnUse">
      <stop offset="0.653846" id="stop3"/>
      <stop offset="1" stop-opacity="0" id="stop4"/>
    </linearGradient><radialGradient id="gradient_ds_bl" cx="0" cy="0" r="1" gradientUnits="userSpaceOnUse" gradientTransform="matrix(0,14,-14,0,16.5,48.5)">
      <stop offset="0.65" id="stop5"/>
      <stop offset="1" stop-opacity="0" id="stop6"/>
    </radialGradient><linearGradient id="gradient_ds_r" x1="47.5" y1="33.5" x2="61.5" y2="33.5009" gradientUnits="userSpaceOnUse">
      <stop offset="0.649038" id="stop7"/>
      <stop offset="1" stop-opacity="0" id="stop8"/>
    </linearGradient><linearGradient id="gradient_ds_l" x1="16.5" y1="33.894699" x2="2.5" y2="33.894699" gradientUnits="userSpaceOnUse">
      <stop offset="0.649038" id="stop9"/>
      <stop offset="1" stop-opacity="0" id="stop10"/>
    </linearGradient><radialGradient id="gradient_ds_tr" cx="0" cy="0" r="1" gradientTransform="matrix(0.00843236,-14,14.0084,0.0189842,47.4916,18.5)" gradientUnits="userSpaceOnUse">
      <stop offset="0.65" id="stop11"/>
      <stop offset="1" stop-opacity="0" id="stop12"/>
    </radialGradient><linearGradient id="gradient_ds_t" x1="29.98" y1="18.5" x2="29.9158" y2="4.4998598" gradientUnits="userSpaceOnUse">
      <stop offset="0.649038" id="stop13"/>
      <stop offset="1" stop-opacity="0" id="stop14"/>
    </linearGradient><radialGradient id="gradient_ds_tl" cx="0" cy="0" r="1" gradientTransform="matrix(-0.00843236,-14,-14.0084,0.0189842,16.5084,18.5)" gradientUnits="userSpaceOnUse">
      <stop offset="0.65" id="stop15"/>
      <stop offset="1" stop-opacity="0" id="stop16"/>
    </radialGradient></defs>
  
  <g id="ds" opacity="0.25">
    <path id="ds-br" d="m 47.5,48.5 h 14 v 14 h -14 z" fill="url(#gradient_ds_br)" style="fill:url(#gradient_ds_br)"/>
    <path id="ds-b" d="m 16.5,48.5 h 31 v 14 h -31 z" fill="url(#gradient_ds_b)" style="fill:url(#gradient_ds_b)"/>
    <path id="ds-bl" d="m 2.5,48.5 h 14 v 14 h -14 z" fill="url(#gradient_ds_bl)" style="fill:url(#gradient_ds_bl)"/>
    <path id="ds-r" d="m 47.5,18.5 h 14 v 30 h -14 z" fill="url(#gradient_ds_r)" style="fill:url(#gradient_ds_r)"/>
    <path id="ds-l" d="m 2.5,18.5 h 14 v 30 h -14 z" fill="url(#gradient_ds_l)" style="fill:url(#gradient_ds_l)"/>
    <path id="ds-tr" d="m 47.5,4.5 h 14 v 14 h -14 z" fill="url(#gradient_ds_tr)" style="fill:url(#gradient_ds_tr)"/>
    <path id="ds-t" d="m 16.5,4.5 h 31 v 14 h -31 z" fill="url(#gradient_ds_t)" style="fill:url(#gradient_ds_t)"/>
    <path id="ds-tl" d="m 16.5,4.5 h -14 v 14 h 14 z" fill="url(#gradient_ds_tl)" style="fill:url(#gradient_ds_tl)"/>
  </g><rect y="4.5" x="4.5" height="55" width="55" id="bg" style="fill:url(#radialGradient37378);fill-opacity:1;stroke-width:2.74441;stroke-linecap:round;font-variation-settings:normal;opacity:1;vector-effect:none;stroke-linejoin:miter;stroke-miterlimit:4;stroke-dasharray:none;stroke-dashoffset:0;stroke-opacity:1;-inkscape-stroke:none;stop-color:#000000;stop-opacity:1" rx="10"/>
  <g id="art" transform="matrix(0.75,0,0,0.75,62,5)">
    <circle cx="-40" cy="36" r="30" id="circle5" style="fill:#141414;fill-opacity:1;stroke-width:1.11111"/>
    <circle cx="-40" cy="36" r="28" id="circle4" style="fill:url(#linearGradient5);fill-opacity:1;stroke-width:1.03704"/>
    <circle cx="-40" cy="36" r="26" id="circle1-3" style="fill:url(#linearGradient7);fill-opacity:1;stroke-width:0.962963"/>
    <path fill="#9def75" d="m -40,14.4 13.5,4.05 6.75,10.8 L -40,36 Z" opacity="0.2" id="path1-6"/>
    <path fill="#9def75" d="m -39.967,12.79 c -12.837,0 -23.244,10.407 -23.244,23.244 a 23.242,23.242 0 0 0 6.819,16.425 c 0.93,0.811 1.69,0.17 2.668,-0.726 l 3.332,-3.33 c 0.911,-0.885 0.278,-2.435 -0.995,-2.437 a 1.41,1.41 0 0 0 -1.016,0.425 l -3.053,3.055 c -2.901,-3.362 -4.57,-7.584 -4.861,-12.025 h 4.198 a 1.417,1.417 0 0 0 1.434,-1.443 1.417,1.417 0 0 0 -1.434,-1.399 h -4.194 a 20.288,20.288 0 0 1 4.94,-11.942 l 2.97,2.972 a 1.417,1.417 0 0 0 2.035,-0.008 1.417,1.417 0 0 0 -0.024,-2.004 l -2.971,-2.97 a 20.288,20.288 0 0 1 11.942,-4.94 v 4.195 c -0.028,1.911 2.869,1.911 2.842,0 v -4.199 a 20.315,20.315 0 0 1 11.986,4.9 l -3.016,3.014 c -0.56,0.544 -0.57,1.441 -0.024,2.004 0.558,0.577 1.48,0.58 2.035,0.008 l 3.027,-3.03 c 2.816,3.228 4.63,7.37 4.939,12 h 2.842 C -17.513,22.304 -27.671,12.804 -39.967,12.789 Z" id="path2-7"/>
    <path fill="none" stroke="#9def75" stroke-linecap="round" stroke-linejoin="round" stroke-width="2.842" d="m -20.105,29.368 -19.876,6.625" id="path3-5"/>
    <path fill="#f14133" d="m -23.848,34.579 a 1.417,1.417 0 0 0 -1.434,1.399 1.417,1.417 0 0 0 1.434,1.443 h 4.198 a 21.15,21.15 0 0 1 -0.453,3.173 l -3.242,-0.867 -0.366,1.373 3.247,0.87 c -0.37,1.26 -0.859,2.479 -1.463,3.642 l -2.95,-1.702 -0.71,1.232 2.966,1.712 a 19.848,19.848 0 0 1 -1.89,2.592 l -3.052,-3.055 a 1.41,1.41 0 0 0 -1.016,-0.425 c -1.274,0.002 -1.907,1.552 -0.996,2.437 l 3.333,3.33 c 0.977,0.896 1.737,1.538 2.668,0.726 a 23.243,23.243 0 0 0 6.818,-16.425 c 0,-0.49 -0.003,-0.973 -0.033,-1.455 h -2.864 z" id="path4-3"/>
    <path id="circle7" style="fill:url(#radialGradient7);fill-opacity:1;stroke-width:0.962963" d="m -40,10 a 26,26 0 0 0 -26,26 26,26 0 0 0 26,26 26,26 0 0 0 26,-26 26,26 0 0 0 -26,-26 z m 0,2 a 24,24 0 0 1 24,24 24,24 0 0 1 -24,24 24,24 0 0 1 -24,-24 24,24 0 0 1 24,-24 z"/>
  </g>
</svg>
