<?xml version="1.0" encoding="UTF-8" standalone="no"?>
<svg xmlns:inkscape="http://www.inkscape.org/namespaces/inkscape" xmlns:sodipodi="http://sodipodi.sourceforge.net/DTD/sodipodi-0.dtd" xmlns:xlink="http://www.w3.org/1999/xlink" xmlns="http://www.w3.org/2000/svg" xmlns:svg="http://www.w3.org/2000/svg" width="64" height="64" version="1.1" id="svg28" sodipodi:docname="resolve.svg" inkscape:version="1.4.2 (ebf0e940d0, 2025-05-08)">
  <sodipodi:namedview id="namedview28" pagecolor="#ffffff" bordercolor="#000000" borderopacity="0.25" inkscape:showpageshadow="2" inkscape:pageopacity="0.0" inkscape:pagecheckerboard="0" inkscape:deskcolor="#d1d1d1" inkscape:current-layer="svg28"/>
  <defs id="defs18">
    <radialGradient id="radialGradient13706" cx="4" cy="59.971" r="28.001" gradientTransform="matrix(1.438 0 0 2.1034 -1.2521 -66.643)" gradientUnits="userSpaceOnUse">
      <stop stop-color="#cdd74e" offset="0" id="stop1"/>
      <stop stop-color="#cdd74e" stop-opacity="0" offset="1" id="stop2"/>
    </radialGradient>
    <radialGradient id="radialGradient20272" cx="60" cy="60" r="28.001" gradientTransform="matrix(9.6454e-8 -1.9291 1.9291 1.101e-7 -56.246 175.27)" gradientUnits="userSpaceOnUse">
      <stop stop-color="#d55048" offset="0" id="stop3"/>
      <stop stop-color="#d55048" stop-opacity="0" offset="1" id="stop4"/>
    </radialGradient>
    <radialGradient id="radialGradient24223" cx="32.001" cy="5" r="28.001" gradientTransform="matrix(1.5081 0 0 1.212 -16.262 -.54715)" gradientUnits="userSpaceOnUse">
      <stop stop-color="#52b1ec" offset="0" id="stop5"/>
      <stop stop-color="#52b1ec" stop-opacity="0" offset="1" id="stop6"/>
    </radialGradient>
    <linearGradient id="linearGradient44211" x1="4" x2="60.002" y1="31.97" y2="31.97" gradientTransform="matrix(.98211 0 0 .98211 .57157 .60241)" gradientUnits="userSpaceOnUse">
      <stop stop-color="#9ed580" stop-opacity=".99216" offset="0" id="stop7"/>
      <stop stop-color="#b16974" offset="1" id="stop8"/>
    </linearGradient>
    <filter id="filter77217" x="-0.27457884" y="-0.33061136" width="1.5491577" height="1.6612227" color-interpolation-filters="sRGB">
      <feGaussianBlur stdDeviation="1.3724366" id="feGaussianBlur8"/>
    </filter>
    <linearGradient id="linearGradient82797" x1="30" x2="20" y1="35" y2="40" gradientTransform="matrix(1 0 0 .88616 -.027923 4.0663)" gradientUnits="userSpaceOnUse">
      <stop stop-color="#fff" offset="0" id="stop9"/>
      <stop stop-color="#fff" stop-opacity="0" offset="1" id="stop10"/>
    </linearGradient>
    <filter id="filter1057" x="-0.026999999" y="-0.026999999" width="1.054" height="1.054" color-interpolation-filters="sRGB">
      <feGaussianBlur stdDeviation="0.61875" id="feGaussianBlur10"/>
    </filter>
    <linearGradient id="linearGradient7333" x1="15" x2="25" y1="35" y2="50" gradientTransform="translate(-65.521)" gradientUnits="userSpaceOnUse">
      <stop stop-color="#ddeb62" offset="0" id="stop11"/>
      <stop stop-color="#d9ce55" offset="1" id="stop12"/>
    </linearGradient>
    <linearGradient id="linearGradient7335" x1="23.997" x2="40.707" y1="22.802" y2="22.802" gradientTransform="translate(-65.873)" gradientUnits="userSpaceOnUse">
      <stop stop-color="#64bdb8" offset="0" id="stop13"/>
      <stop stop-color="#598bbc" offset="1" id="stop14"/>
    </linearGradient>
    <radialGradient id="radialGradient7337" cx="32.352" cy="17.967" r="8.3553" gradientTransform="matrix(.91534 0 0 1.2 -63.134 -4.5603)" gradientUnits="userSpaceOnUse">
      <stop stop-color="#6eebf9" offset="0" id="stop15"/>
      <stop stop-color="#6eebf9" stop-opacity="0" offset="1" id="stop16"/>
    </radialGradient>
    <linearGradient id="linearGradient7339" x1="35" x2="48" y1="36" y2="43" gradientTransform="translate(-65.521)" gradientUnits="userSpaceOnUse">
      <stop stop-color="#f1b1b6" offset="0" id="stop17"/>
      <stop stop-color="#e15862" stop-opacity=".98936" offset="1" id="stop18"/>
    </linearGradient>
    <linearGradient id="linearGradient7341" x1="30" x2="20" y1="35" y2="40" gradientTransform="matrix(1 0 0 .88616 -65.549 4.0663)" gradientUnits="userSpaceOnUse" xlink:href="#linearGradient82797"/>
    <linearGradient id="linearGradient7343" x1="33.018" x2="42.432" y1="34.408" y2="39.818" gradientTransform="translate(-65.521)" gradientUnits="userSpaceOnUse" xlink:href="#linearGradient82797"/>
    <linearGradient id="linearGradient7345" x1="32.645" x2="32.645" y1="33.842" y2="25.292" gradientTransform="matrix(.85239 0 0 .85239 -61.097 4.1755)" gradientUnits="userSpaceOnUse" xlink:href="#linearGradient82797"/>
    <filter inkscape:collect="always" style="color-interpolation-filters:sRGB" id="filter1057-8" x="-0.026999999" width="1.054" y="-0.026999999" height="1.054">
      <feGaussianBlur inkscape:collect="always" stdDeviation="0.61875" id="feGaussianBlur1059"/>
    </filter>
    <radialGradient id="radialGradient13706-7" cx="4" cy="59.971001" r="28.000999" gradientTransform="matrix(1.438,0,0,2.1034,-1.2521,-66.643)" gradientUnits="userSpaceOnUse">
      <stop stop-color="#cdd74e" offset="0" id="stop1-8"/>
      <stop stop-color="#cdd74e" stop-opacity="0" offset="1" id="stop2-8"/>
    </radialGradient>
    <radialGradient id="radialGradient20272-7" cx="60" cy="60" r="28.000999" gradientTransform="matrix(9.6454e-8,-1.9291,1.9291,1.101e-7,-56.246,175.27)" gradientUnits="userSpaceOnUse">
      <stop stop-color="#d55048" offset="0" id="stop3-6"/>
      <stop stop-color="#d55048" stop-opacity="0" offset="1" id="stop4-0"/>
    </radialGradient>
    <radialGradient id="radialGradient24223-5" cx="32.000999" cy="5" r="28.000999" gradientTransform="matrix(1.5081,0,0,1.212,-16.262,-0.54715)" gradientUnits="userSpaceOnUse">
      <stop stop-color="#52b1ec" offset="0" id="stop5-3"/>
      <stop stop-color="#52b1ec" stop-opacity="0" offset="1" id="stop6-3"/>
    </radialGradient>
  <radialGradient id="gradient_ds_br" cx="0" cy="0" r="1" gradientUnits="userSpaceOnUse" gradientTransform="matrix(13.998399,0.00477622,-0.00477841,14.004799,47.5016,48.4952)">
      <stop offset="0.65" id="stop1"/>
      <stop offset="1" stop-opacity="0" id="stop2"/>
    </radialGradient><linearGradient id="gradient_ds_b" x1="30.448999" y1="48.5" x2="30.492201" y2="62.500301" gradientUnits="userSpaceOnUse">
      <stop offset="0.653846" id="stop3"/>
      <stop offset="1" stop-opacity="0" id="stop4"/>
    </linearGradient><radialGradient id="gradient_ds_bl" cx="0" cy="0" r="1" gradientUnits="userSpaceOnUse" gradientTransform="matrix(0,14,-14,0,16.5,48.5)">
      <stop offset="0.65" id="stop5"/>
      <stop offset="1" stop-opacity="0" id="stop6"/>
    </radialGradient><linearGradient id="gradient_ds_r" x1="47.5" y1="33.5" x2="61.5" y2="33.5009" gradientUnits="userSpaceOnUse">
      <stop offset="0.649038" id="stop7"/>
      <stop offset="1" stop-opacity="0" id="stop8"/>
    </linearGradient><linearGradient id="gradient_ds_l" x1="16.5" y1="33.894699" x2="2.5" y2="33.894699" gradientUnits="userSpaceOnUse">
      <stop offset="0.649038" id="stop9"/>
      <stop offset="1" stop-opacity="0" id="stop10"/>
    </linearGradient><radialGradient id="gradient_ds_tr" cx="0" cy="0" r="1" gradientTransform="matrix(0.00843236,-14,14.0084,0.0189842,47.4916,18.5)" gradientUnits="userSpaceOnUse">
      <stop offset="0.65" id="stop11"/>
      <stop offset="1" stop-opacity="0" id="stop12"/>
    </radialGradient><linearGradient id="gradient_ds_t" x1="29.98" y1="18.5" x2="29.9158" y2="4.4998598" gradientUnits="userSpaceOnUse">
      <stop offset="0.649038" id="stop13"/>
      <stop offset="1" stop-opacity="0" id="stop14"/>
    </linearGradient><radialGradient id="gradient_ds_tl" cx="0" cy="0" r="1" gradientTransform="matrix(-0.00843236,-14,-14.0084,0.0189842,16.5084,18.5)" gradientUnits="userSpaceOnUse">
      <stop offset="0.65" id="stop15"/>
      <stop offset="1" stop-opacity="0" id="stop16"/>
    </radialGradient></defs>
  
  <g id="ds" opacity="0.25">
    <path id="ds-br" d="m 47.5,48.5 h 14 v 14 h -14 z" fill="url(#gradient_ds_br)" style="fill:url(#gradient_ds_br)"/>
    <path id="ds-b" d="m 16.5,48.5 h 31 v 14 h -31 z" fill="url(#gradient_ds_b)" style="fill:url(#gradient_ds_b)"/>
    <path id="ds-bl" d="m 2.5,48.5 h 14 v 14 h -14 z" fill="url(#gradient_ds_bl)" style="fill:url(#gradient_ds_bl)"/>
    <path id="ds-r" d="m 47.5,18.5 h 14 v 30 h -14 z" fill="url(#gradient_ds_r)" style="fill:url(#gradient_ds_r)"/>
    <path id="ds-l" d="m 2.5,18.5 h 14 v 30 h -14 z" fill="url(#gradient_ds_l)" style="fill:url(#gradient_ds_l)"/>
    <path id="ds-tr" d="m 47.5,4.5 h 14 v 14 h -14 z" fill="url(#gradient_ds_tr)" style="fill:url(#gradient_ds_tr)"/>
    <path id="ds-t" d="m 16.5,4.5 h 31 v 14 h -31 z" fill="url(#gradient_ds_t)" style="fill:url(#gradient_ds_t)"/>
    <path id="ds-tl" d="m 16.5,4.5 h -14 v 14 h 14 z" fill="url(#gradient_ds_tl)" style="fill:url(#gradient_ds_tl)"/>
  </g><rect y="4.5" x="4.5" height="55" width="55" id="bg" style="fill:#202d3f;fill-opacity:1;stroke-width:2.445;stroke-linecap:round;font-variation-settings:normal;opacity:1;vector-effect:none;stroke-linejoin:miter;stroke-miterlimit:4;stroke-dasharray:none;stroke-dashoffset:0;stroke-opacity:1;-inkscape-stroke:none;stop-color:#000000;stop-opacity:1" rx="10"/>
  <g id="art"><g stroke-width="3.712" id="g21">
    <path id="bg-9" style="font-variation-settings:normal;vector-effect:none;fill:url(#linearGradient44211);fill-opacity:1;stroke-width:3.712;stroke-linecap:butt;stroke-linejoin:miter;stroke-miterlimit:4;stroke-dasharray:none;stroke-dashoffset:0;stroke-opacity:1;-inkscape-stroke:none;stop-color:#000000;opacity:1;stop-opacity:1" d="M 14.5 4.5 C 8.96 4.5 4.5 8.96 4.5 14.5 L 4.5 19.5 L 4.5 44.5 L 4.5 49.5 C 4.5 55.04 8.96 59.5 14.5 59.5 L 19.5 59.5 L 44.5 59.5 L 49.5 59.5 C 55.04 59.5 59.5 55.04 59.5 49.5 L 59.5 44.5 L 59.5 19.5 L 59.5 14.5 C 59.5 8.96 55.04 4.5 49.5 4.5 L 44.5 4.5 L 19.5 4.5 L 14.5 4.5 z "/>
    <path id="bg-8" style="font-variation-settings:normal;vector-effect:none;fill:url(#radialGradient24223);fill-opacity:1;stroke-width:3.712;stroke-linecap:butt;stroke-linejoin:miter;stroke-miterlimit:4;stroke-dasharray:none;stroke-dashoffset:0;stroke-opacity:1;-inkscape-stroke:none;stop-color:#000000;opacity:1;stop-opacity:1" d="M 14.5 4.5 C 8.96 4.5 4.5 8.96 4.5 14.5 L 4.5 19.5 L 4.5 44.5 L 4.5 49.5 C 4.5 55.04 8.96 59.5 14.5 59.5 L 19.5 59.5 L 44.5 59.5 L 49.5 59.5 C 55.04 59.5 59.5 55.04 59.5 49.5 L 59.5 44.5 L 59.5 19.5 L 59.5 14.5 C 59.5 8.96 55.04 4.5 49.5 4.5 L 44.5 4.5 L 19.5 4.5 L 14.5 4.5 z "/>
    <path id="bg-6" style="font-variation-settings:normal;vector-effect:none;fill:url(#radialGradient20272);fill-opacity:1;stroke-width:3.712;stroke-linecap:butt;stroke-linejoin:miter;stroke-miterlimit:4;stroke-dasharray:none;stroke-dashoffset:0;stroke-opacity:1;-inkscape-stroke:none;stop-color:#000000;opacity:1;stop-opacity:1" d="M 14.5 4.5 C 8.96 4.5 4.5 8.96 4.5 14.5 L 4.5 19.5 L 4.5 44.5 L 4.5 49.5 C 4.5 55.04 8.96 59.5 14.5 59.5 L 19.5 59.5 L 44.5 59.5 L 49.5 59.5 C 55.04 59.5 59.5 55.04 59.5 49.5 L 59.5 44.5 L 59.5 19.5 L 59.5 14.5 C 59.5 8.96 55.04 4.5 49.5 4.5 L 44.5 4.5 L 19.5 4.5 L 14.5 4.5 z "/>
    <path id="bg-3" style="font-variation-settings:normal;vector-effect:none;fill:url(#radialGradient13706);fill-opacity:1;stroke-width:3.712;stroke-linecap:butt;stroke-linejoin:miter;stroke-miterlimit:4;stroke-dasharray:none;stroke-dashoffset:0;stroke-opacity:1;-inkscape-stroke:none;stop-color:#000000;opacity:1;stop-opacity:1" d="M 14.5 4.5 C 8.96 4.5 4.5 8.96 4.5 14.5 L 4.5 19.5 L 4.5 44.5 L 4.5 49.5 C 4.5 55.04 8.96 59.5 14.5 59.5 L 19.5 59.5 L 44.5 59.5 L 49.5 59.5 C 55.04 59.5 59.5 55.04 59.5 49.5 L 59.5 44.5 L 59.5 19.5 L 59.5 14.5 C 59.5 8.96 55.04 4.5 49.5 4.5 L 44.5 4.5 L 19.5 4.5 L 14.5 4.5 z "/>
  </g><rect x="7.5" y="7.5" width="49" height="49" ry="7" fill="#202d3f" stroke-linecap="round" stroke-width="2.445" id="rect21"/><g transform="translate(65.521 2.1733)" id="g28">
    <g stroke-width="3.3421" id="g25">
      <path d="m-45.521 49c0.54539 0.01571 1.1577-0.04846 1.7699-0.17232 1.8112-0.3776 3.3496-1.1619 4.5318-2.5524 0.71898-0.84793 1.3234-1.7668 1.8444-2.7333 0.61254-1.1388 1.1243-2.3252 1.5706-3.5262 0.54539-1.4527 1.0085-2.9372 1.3649-4.4376 0.19786-0.84058-0.0234-1.3672-1.0007-1.6568-1.24-0.369-2.4892-0.69891-3.7626-0.96644-2.1083-0.43999-4.2333-0.72222-6.4008-0.65264-0.61234 0.0234-1.2234 0.08599-1.8278 0.18809-1.7533 0.291-3.2415 1.0607-4.4569 2.2777-2.0762 2.0735-2.902 4.5475-2.39 7.3676 0.73577 4.0297 4.4905 6.896 8.7572 6.8643z" fill="url(#linearGradient7333)" id="path22"/>
      <path d="m-41.873 21c-0.0234 0.57315 0.0856 1.1997 0.2667 1.8264 0.34467 1.1924 0.91593 2.285 1.5896 3.317 1.5346 2.3469 3.4689 4.3562 5.5675 6.2217 0.17179 0.15334 0.37649 0.28284 0.5956 0.38159 0.21957 0.10655 0.43848 0.10655 0.66521 0.01504 0.21924-0.09131 0.41512-0.22125 0.57968-0.38996 0.72834-0.70278 1.4483-1.4066 2.1376-2.133 0.97077-1.032 1.8953-2.0937 2.7332-3.2327 0.76012-1.0316 1.4409-2.1172 1.9416-3.2942 0.50067-1.1699 0.74408-2.3766 0.57968-3.6454-0.27405-2.0937-1.1899-3.8677-2.8269-5.2586-1.9355-1.6421-4.19-2.2995-6.7272-1.9333-4.1266 0.59688-7.1182 4.1434-7.1023 8.1251z" fill="url(#linearGradient7335)" id="path23"/>
      <path d="m-33.521 13.945a5.9988 4.9809 0 0 0-5.998 4.9805 5.9988 4.9809 0 0 0 5.998 4.9824 5.9988 4.9809 0 0 0 5.998-4.9824 5.9988 4.9809 0 0 0-5.998-4.9805z" fill="url(#radialGradient7337)" filter="url(#filter77217)" id="path24"/>
      <path d="m-21.521 49c-0.54536 0.01571-1.1577-0.04846-1.7699-0.17232-1.8112-0.3776-3.3496-1.1619-4.5318-2.5524-0.71899-0.84793-1.3234-1.7668-1.8444-2.7333-0.61253-1.1388-1.1243-2.3252-1.5706-3.5262-0.54537-1.4527-1.0084-2.9372-1.3649-4.4376-0.19819-0.84058 0.0234-1.3672 1.0007-1.6568 1.24-0.369 2.4892-0.69892 3.7626-0.96645 2.1083-0.43999 4.2333-0.72222 6.4008-0.65264 0.61233 0.0234 1.2234 0.08599 1.8278 0.18809 1.7533 0.291 3.2415 1.0607 4.4569 2.2777 2.0762 2.0735 2.902 4.5475 2.39 7.3676-0.73577 4.0297-4.4905 6.896-8.7572 6.8643z" fill="url(#linearGradient7339)" id="path25"/>
    </g>
    <path d="m-44.549 45.716c0.4596 0.01173 0.97563-0.03619 1.4915-0.12868 1.5263-0.28198 2.8227-0.86767 3.819-1.906 0.60589-0.63321 1.1153-1.3194 1.5543-2.0411 0.51619-0.85039 0.94746-1.7364 1.3236-2.6333 0.4596-1.0848 0.84984-2.1934 1.1502-3.3139 0.16674-0.62772-0.0197-1.021-0.84331-1.2372-1.0449-0.27556-2.0977-0.52193-3.1708-0.72171-1.7766-0.32857-3.5674-0.53933-5.394-0.48737-0.51602 0.01747-1.0309 0.06421-1.5403 0.14046-1.4775 0.21731-2.7316 0.79213-3.7559 1.7009-1.7496 1.5484-2.4455 3.396-2.0141 5.5019 0.62004 3.0092 3.7842 5.1497 7.3797 5.126z" fill="url(#linearGradient7341)" opacity=".5" stroke-width="2.6512" id="path26"/>
    <path d="m-22.238 47.184c-0.46546 0.01341-0.98808-0.04136-1.5106-0.14707-1.5458-0.32228-2.8588-0.99166-3.8678-2.1784-0.61365-0.7237-1.1295-1.5079-1.5742-2.3328-0.52279-0.97195-0.95957-1.9845-1.3405-3.0096-0.46547-1.2399-0.86066-2.5069-1.1649-3.7874-0.16915-0.71742 0.02-1.1669 0.85408-1.4141 1.0583-0.31494 2.1245-0.59652 3.2113-0.82485 1.7994-0.37552 3.6131-0.6164 5.463-0.55702 0.52261 0.01997 1.0442 0.07339 1.56 0.16053 1.4964 0.24836 2.7666 0.90529 3.8039 1.944 1.772 1.7697 2.4768 3.8812 2.0398 6.2881-0.62797 3.4393-3.8326 5.8856-7.4741 5.8586z" fill="url(#linearGradient7343)" opacity=".5" stroke-width="2.8524" id="path27"/>
    <path d="m-40.64 22.076c-0.02 0.48855 0.073 1.0226 0.22733 1.5568 0.2938 1.0164 0.78073 1.9477 1.355 2.8274 1.3081 2.0005 2.9569 3.7132 4.7457 5.3033 0.14643 0.13071 0.32092 0.24109 0.50769 0.32527 0.18716 0.09082 0.37376 0.09082 0.56702 0.01282 0.18688-0.07783 0.35385-0.18859 0.49412-0.3324 0.62083-0.59905 1.2345-1.199 1.8221-1.8182 0.82748-0.87967 1.6155-1.7847 2.3298-2.7555 0.64792-0.87933 1.2282-1.8047 1.655-2.808 0.42677-0.99722 0.63425-2.0258 0.49412-3.1073-0.2336-1.7847-1.0143-3.2968-2.4096-4.4824-1.6498-1.3997-3.5715-1.9601-5.7342-1.6479-3.5175 0.50878-6.0675 3.5318-6.054 6.9258z" fill="url(#linearGradient7345)" opacity=".5" stroke-width="2.8488" id="path28"/>
  </g></g>
  
  
</svg>
