<?xml version="1.0" encoding="UTF-8" standalone="no"?>
<svg xmlns:inkscape="http://www.inkscape.org/namespaces/inkscape" xmlns:sodipodi="http://sodipodi.sourceforge.net/DTD/sodipodi-0.dtd" xmlns="http://www.w3.org/2000/svg" xmlns:svg="http://www.w3.org/2000/svg" xmlns:rdf="http://www.w3.org/1999/02/22-rdf-syntax-ns#" xmlns:cc="http://creativecommons.org/ns#" xmlns:dc="http://purl.org/dc/elements/1.1/" width="64" height="64" version="1.1" id="svg22" sodipodi:docname="spotify-client.svg" inkscape:version="1.4.2 (ebf0e940d0, 2025-05-08)" xml:space="preserve">
  <sodipodi:namedview id="namedview1" pagecolor="#ffffff" bordercolor="#000000" borderopacity="0.25" inkscape:showpageshadow="2" inkscape:pageopacity="0.0" inkscape:pagecheckerboard="0" inkscape:deskcolor="#d1d1d1" inkscape:current-layer="art"/>
  <metadata id="metadata2">
    <rdf:RDF>
      <cc:Work rdf:about="">
        <dc:format>image/svg+xml</dc:format>
        <dc:type rdf:resource="http://purl.org/dc/dcmitype/StillImage"/>
        <dc:title/>
      </cc:Work>
    </rdf:RDF>
  </metadata>
  <defs id="defs14">
    <filter id="filter2761" x="-.024" y="-.024" width="1.048" height="1.048" color-interpolation-filters="sRGB">
      <feGaussianBlur stdDeviation="0.14552168" id="feGaussianBlur4"/>
    </filter>
    <linearGradient id="linearGradient4673" x1="1.2573" x2="15.644" y1="15.429" y2="1.1082" gradientTransform="matrix(3.7796,0,0,3.7796,-98.960821,0.53085)" gradientUnits="userSpaceOnUse">
      <stop stop-color="#16ff6c" offset="0" id="stop7"/>
      <stop stop-color="#28ff61" offset=".47728" id="stop9"/>
      <stop stop-color="#9fff1b" offset="1" id="stop11"/>
    </linearGradient>
    <linearGradient id="linearGradient3764" x1="1" x2="47" gradientUnits="userSpaceOnUse" gradientTransform="rotate(-90,23.999998,24)">
      <stop style="stop-color:#43cd50;stop-opacity:1" id="stop2"/>
      <stop offset="1" style="stop-color:#54d160;stop-opacity:1" id="stop4"/>
    </linearGradient>
    <style type="text/css" id="style876"/>
    <style type="text/css" id="style878"/>
    <style type="text/css" id="style880"/>
    <style type="text/css" id="style882"/>
    <filter id="filter1057" x="-0.026999999" y="-0.026999999" width="1.054" height="1.054" color-interpolation-filters="sRGB">
      <feGaussianBlur stdDeviation="0.61875" id="feGaussianBlur884"/>
    </filter>
    <linearGradient id="linearGradient1053" x1="-127" x2="-72" y1="60" y2="5" gradientTransform="translate(131.5,-0.51)" gradientUnits="userSpaceOnUse">
      <stop stop-color="#02db96" offset="0" id="stop887" style="stop-color:#14ff6e;stop-opacity:1"/>
      <stop stop-color="#13d39b" offset="1" id="stop889" style="stop-color:#a0ff1e;stop-opacity:1"/>
    </linearGradient>
    <style type="text/css" id="style892"/>
    <style type="text/css" id="style894"/>
    <style type="text/css" id="style896"/>
    <linearGradient id="linearGradient1053-9" x1="-127" x2="-72" y1="60" y2="5" gradientTransform="matrix(1.0000071,0,0,1.0000071,131.50352,-0.50986828)" gradientUnits="userSpaceOnUse">
      <stop stop-color="#96aab4" offset="0" id="stop1"/>
      <stop stop-color="#a0b4c3" stop-opacity=".99608" offset="1" id="stop2-3"/>
    </linearGradient>
    <filter id="filter1057-2-3" x="-0.026999999" y="-0.026999999" width="1.054" height="1.054" color-interpolation-filters="sRGB">
      <feGaussianBlur stdDeviation="0.61875" id="feGaussianBlur1-6"/>
    </filter>
    <radialGradient id="gradient_ds_br" cx="0" cy="0" r="1" gradientUnits="userSpaceOnUse" gradientTransform="matrix(28.996698,0.00989361,-0.00989812,29.009898,32.0033,33.4901)">
      <stop offset="0.85" id="stop1"/>
      <stop offset="1" stop-opacity="0" id="stop2"/>
    </radialGradient>
    <radialGradient id="gradient_ds_bl" cx="0" cy="0" r="1" gradientUnits="userSpaceOnUse" gradientTransform="matrix(0,29,-29,0,32,33.5)">
      <stop offset="0.846154" id="stop3"/>
      <stop offset="1" stop-opacity="0" id="stop4"/>
    </radialGradient>
    <radialGradient id="gradient_ds_tr" cx="0" cy="0" r="1" gradientTransform="matrix(0.017467,-29,29.0175,0.0393245,31.9825,33.5)" gradientUnits="userSpaceOnUse">
      <stop offset="0.85" id="stop5"/>
      <stop offset="1" stop-opacity="0" id="stop6"/>
    </radialGradient>
    <radialGradient id="gradient_ds_tl" cx="0" cy="0" r="1" gradientTransform="matrix(-0.017467,-29,-29.0175,0.0393245,32.0175,33.5)" gradientUnits="userSpaceOnUse">
      <stop offset="0.85" id="stop7"/>
      <stop offset="1" stop-opacity="0" id="stop8"/>
    </radialGradient>
  </defs>
  <g id="ds" opacity="0.25">
    <path id="ds-br" d="m 32,33.5 h 29 v 29 H 32 Z" fill="url(#gradient_ds_br)" style="fill:url(#gradient_ds_br)"/>
    <path id="ds-bl" d="m 3,33.5 h 29 v 29 H 3 Z" fill="url(#gradient_ds_bl)" style="fill:url(#gradient_ds_bl)"/>
    <path id="ds-tr" d="m 32,4.5 h 29 v 29 H 32 Z" fill="url(#gradient_ds_tr)" style="fill:url(#gradient_ds_tr)"/>
    <path id="ds-tl" d="M 32,4.5 H 3 v 29 h 29 z" fill="url(#gradient_ds_tl)" style="fill:url(#gradient_ds_tl)"/>
  </g>
  <rect x="4.5" y="4.5" width="55" height="55" fill="url(#linearGradient1053-9)" stroke-linecap="round" stroke-width="2.74441" id="bg" style="display:inline;fill:#1ed760;fill-opacity:1;font-variation-settings:normal;opacity:1;vector-effect:none;stroke-width:0.99999983;stroke-linecap:butt;stroke-linejoin:miter;stroke-miterlimit:4;stroke-dasharray:none;stroke-dashoffset:0;stroke-opacity:1;-inkscape-stroke:none;stop-color:#000000;stop-opacity:1" rx="27.5"/>
  <g id="art" style="display:inline">
    <path d="m 49.586694,29.238911 c -0.576613,0 -0.931452,-0.144153 -1.430444,-0.432459 -7.895161,-4.712702 -22.011089,-5.843751 -31.148186,-3.293347 -0.399193,0.110887 -0.898185,0.288306 -1.430444,0.288306 -1.463709,0 -2.583669,-1.142137 -2.583669,-2.616935 0,-1.508065 0.931452,-2.361896 1.929436,-2.650202 3.903226,-1.142137 8.272177,-1.685484 13.029234,-1.685484 8.094758,0 16.577621,1.685484 22.77621,5.300403 0.86492,0.498992 1.430444,1.186492 1.430444,2.506049 0,1.508064 -1.219758,2.583669 -2.572581,2.583669 z m -3.4375,8.449597 c -0.576613,0 -0.964718,-0.25504 -1.363911,-0.465726 -6.930444,-4.102822 -17.265122,-5.75504 -26.457662,-3.26008 -0.532259,0.144153 -0.820565,0.288306 -1.319557,0.288306 -1.186492,0 -2.15121,-0.964718 -2.15121,-2.15121 0,-1.186492 0.576613,-1.97379 1.71875,-2.295363 3.082662,-0.864919 6.231855,-1.508064 10.844759,-1.508064 7.196573,0 14.149194,1.785282 19.627016,5.045363 0.898186,0.532258 1.253025,1.219758 1.253025,2.184476 -0.01109,1.19758 -0.942541,2.162298 -2.15121,2.162298 z m -2.982863,7.274194 c -0.465726,0 -0.754032,-0.144153 -1.186492,-0.399194 -6.919355,-4.169355 -14.969758,-4.346774 -22.920364,-2.716734 -0.432459,0.110888 -0.997983,0.288307 -1.319556,0.288307 -1.075605,0 -1.752016,-0.853831 -1.752016,-1.752016 0,-1.142137 0.676411,-1.685484 1.508064,-1.862904 9.081654,-2.007056 18.362904,-1.829637 26.280243,2.905242 0.676411,0.43246 1.075605,0.820565 1.075605,1.829638 0,1.009072 -0.787299,1.707661 -1.685484,1.707661 z" id="path2-2" style="display:inline;stroke-width:1"/>
  </g>
</svg>
