<svg width="64" height="64" viewBox="0 0 64 64" fill="none" xmlns="http://www.w3.org/2000/svg">
<g id="application-x-trash" clip-path="url(#clip0_1235_8102)">
<g id="Blank-File" clip-path="url(#clip1_1235_8102)">
<g id="Shadow 2" opacity="0.1">
<path id="Vector" d="M11.9791 59.0256H51.9786V65.0239H11.9791V59.0256Z" fill="url(#paint0_linear_1235_8102)"/>
<path id="Vector_2" d="M34.979 1.02393V8.02393L41.979 1.02393H34.979Z" fill="url(#paint1_radial_1235_8102)"/>
<path id="Vector_3" d="M41.979 1.02393L34.979 8.02393L48.979 23.0239L57.979 14.0239V4.56893L54.434 1.02393H41.979Z" fill="url(#paint2_linear_1235_8102)"/>
<path id="Vector_4" d="M57.979 14.0239L48.979 23.0239H57.979V14.0239Z" fill="url(#paint3_radial_1235_8102)"/>
<path id="Vector_5" d="M11.9791 1.02393H34.978V5.02274H11.9791V1.02393Z" fill="url(#paint4_linear_1235_8102)"/>
<path id="Vector_6" d="M5.97717 1.02393H11.9754V5.02274H5.97717V1.02393Z" fill="url(#paint5_radial_1235_8102)"/>
<path id="Vector_7" d="M51.9786 23.0249H57.9769V59.0256H51.9786V23.0249Z" fill="url(#paint6_linear_1235_8102)"/>
<path id="Vector_8" d="M5.97717 5.02271H11.9754V59.0219H5.97717V5.02271Z" fill="url(#paint7_linear_1235_8102)"/>
<path id="Vector_9" d="M51.9786 59.0256H57.9769V65.0239H51.9786V59.0256Z" fill="url(#paint8_radial_1235_8102)"/>
<path id="Vector_10" d="M5.97717 59.0256H11.9754V65.0239H5.97717V59.0256Z" fill="url(#paint9_radial_1235_8102)"/>
</g>
<g id="Shadow 1" opacity="0.2">
<path id="Vector_11" d="M11.9791 59.0256H51.9786V65.0239H11.9791V59.0256Z" fill="url(#paint10_linear_1235_8102)"/>
<path id="Vector_12" d="M34.9791 1.02393V8.02397L41.9792 1.02393H34.9791Z" fill="url(#paint11_radial_1235_8102)"/>
<path id="Vector_13" d="M41.9792 1.02393L34.9791 8.02397L48.9792 23.0241L57.9793 14.024V4.56895L54.4343 1.02393H41.9792Z" fill="url(#paint12_linear_1235_8102)"/>
<path id="Vector_14" d="M57.9793 14.0239L48.9792 23.024H57.9793V14.0239Z" fill="url(#paint13_radial_1235_8102)"/>
<path id="Vector_15" d="M11.9791 1.02393H34.978V5.02274H11.9791V1.02393Z" fill="url(#paint14_linear_1235_8102)"/>
<path id="Vector_16" d="M11.9754 1.02393H5.97717V5.02274H11.9754V1.02393Z" fill="url(#paint15_radial_1235_8102)"/>
<path id="Vector_17" d="M51.9786 23.0249H57.9769V59.0256H51.9786V23.0249Z" fill="url(#paint16_linear_1235_8102)"/>
<path id="Vector_18" d="M5.97717 5.02271H11.9754V59.0219H5.97717V5.02271Z" fill="url(#paint17_linear_1235_8102)"/>
<path id="Vector_19" d="M51.9786 59.0256H57.9769V65.0239H51.9786V59.0256Z" fill="url(#paint18_radial_1235_8102)"/>
<path id="Vector_20" d="M5.97717 59.0256H11.9754V65.0239H5.97717V59.0256Z" fill="url(#paint19_radial_1235_8102)"/>
</g>
<path id="Paper" d="M10.9777 2.02563C10.4477 2.02663 9.93973 2.23761 9.56499 2.61235C9.19024 2.9871 8.97927 3.49507 8.97827 4.02504V60.0236C8.97827 61.131 9.87026 62.023 10.9815 62.023H52.9766C54.0878 62.023 54.9798 61.131 54.9798 60.0198V21.0257C54.9798 20.0241 54.3675 18.4178 52.9766 17.0231L39.9748 4.02126C39.508 3.4038 38.905 2.90245 38.2127 2.5563C37.5204 2.21015 36.7575 2.02854 35.9835 2.02563H10.9777Z" fill="url(#paint20_linear_1235_8102)"/>
</g>
<g id="Logo">
<path id="Vector_21" fill-rule="evenodd" clip-rule="evenodd" d="M36.1767 25L29.7854 25.0151C30.4771 25.4536 31.3993 26.44 32.1665 27.5701C33.0132 28.8287 33.6897 30.2801 34.2 31.5463L32.3933 32.5894L38.1496 32.5781L40.8332 27.5437L39.4045 28.4961L38.4974 26.7802C37.8889 25.8126 37.3257 25.1096 36.1805 25.0038L36.1767 25ZM26.9923 25.446L24.2029 29.5506L29.1164 32.82L31.7546 27.8763C31.0251 26.8067 29.9555 25.2419 28.2622 25.2041H28.2017C27.7872 25.2104 27.3773 25.2923 26.9923 25.446ZM36.8041 35.3486L39.0983 40.2809L41.0637 40.2961C42.19 40.3074 43.974 38.7086 44.0005 37.4991V37.4122L41.7592 32.1888L36.8041 35.3486ZM20 33.7082L21.7122 34.638L21.1377 35.8475C19.2781 39.7934 21.629 41.7172 24.4108 45.5573C24.0286 44.608 24.0205 43.5491 24.3881 42.594L26.8524 37.3442L28.4021 38.1455L25.3406 33.4172L20 33.7082ZM33.2135 44.0681L35.8441 49.0005L35.8592 46.967H37.1481C41.317 46.967 41.8952 43.8905 43.9022 39.5439C43.5984 39.9236 43.2207 40.2377 42.7919 40.467C42.3631 40.6964 41.8921 40.8362 41.4077 40.8781L35.8592 40.8932L35.8441 39.0752L33.2135 44.0681ZM25.9453 40.8932L25.0495 42.7339C24.5204 43.8186 25.1251 46.3283 26.1834 46.8045H31.6487L31.6865 40.7005L25.9453 40.8932Z" fill="url(#paint21_linear_1235_8102)"/>
</g>
<g id="Blank-File-Top">
<g id="Curl">
<g id="Shadow">
<path id="Vector_22" opacity="0.05" d="M39.9784 17.0229H23.9794V33.022H39.9784V17.0229Z" fill="url(#paint22_radial_1235_8102)"/>
<path id="Vector_23" opacity="0.05" d="M23.9791 2.02393V11.024H39.9792V4.02394C38.6412 2.33093 36.9792 2.02393 35.9792 2.02393H23.9791Z" fill="url(#paint23_radial_1235_8102)"/>
<path id="Vector_24" opacity="0.05" d="M39.9784 11.0247H23.9794V17.0229H39.9784V11.0247Z" fill="url(#paint24_linear_1235_8102)"/>
<path id="Vector_25" opacity="0.2" d="M39.9785 11.0247H28.9799V17.0229H39.9785V11.0247Z" fill="url(#paint25_linear_1235_8102)"/>
<path id="Vector_26" opacity="0.2" d="M39.9785 17.0229H28.9799V28.0216H39.9785V17.0229Z" fill="url(#paint26_radial_1235_8102)"/>
<path id="Vector_27" opacity="0.2" d="M28.9791 2.02393V11.024H39.9792V4.02394C39.5247 3.43832 38.9523 2.95457 38.2992 2.60393L35.9792 2.02393H28.9791Z" fill="url(#paint27_radial_1235_8102)"/>
<path id="Vector_28" opacity="0.05" d="M39.9785 17.0229V33.022H45.9767V17.0229H39.9785Z" fill="url(#paint28_linear_1235_8102)"/>
<path id="Vector_29" opacity="0.2" d="M39.9785 17.0268V28.0254H45.9767V17.0268H39.9785Z" fill="url(#paint29_linear_1235_8102)"/>
<path id="Vector_30" opacity="0.2" d="M45.9792 17.0239V28.024H54.9793V21.024L54.5393 19.2639C54.1607 18.4281 53.6319 17.6689 52.9793 17.0239H45.9792Z" fill="url(#paint30_radial_1235_8102)"/>
<path id="Vector_31" opacity="0.05" d="M45.979 17.0239V33.0239H54.979V21.0239C54.979 20.8919 54.953 20.7239 54.939 20.5709C54.791 19.5779 54.176 18.2209 52.979 17.0239H45.979Z" fill="url(#paint31_radial_1235_8102)"/>
</g>
<path id="Paper_2" d="M37.9791 2.44141V17.0193C37.9791 18.1267 38.8711 19.0187 39.9823 19.0187H54.4431C54.0748 18.2764 53.5871 17.5996 52.9993 17.0155L39.9974 4.01372C39.4687 3.33484 38.7824 2.79515 37.998 2.44141H37.9791Z" fill="url(#paint32_linear_1235_8102)"/>
</g>
</g>
</g>
<defs>
<linearGradient id="paint0_linear_1235_8102" x1="29.9776" y1="59.0256" x2="29.9776" y2="65.0239" gradientUnits="userSpaceOnUse">
<stop/>
<stop offset="1" stop-opacity="0"/>
</linearGradient>
<radialGradient id="paint1_radial_1235_8102" cx="0" cy="0" r="1" gradientUnits="userSpaceOnUse" gradientTransform="translate(34.978 5.02433) scale(6.32269 4.00052)">
<stop/>
<stop offset="1" stop-opacity="0"/>
</radialGradient>
<linearGradient id="paint2_linear_1235_8102" x1="42.979" y1="13.0239" x2="46.727" y2="9.27593" gradientUnits="userSpaceOnUse">
<stop/>
<stop offset="1" stop-opacity="0"/>
</linearGradient>
<radialGradient id="paint3_radial_1235_8102" cx="0" cy="0" r="1" gradientUnits="userSpaceOnUse" gradientTransform="translate(51.9788 23.0241) scale(4.99995 6.94012)">
<stop/>
<stop offset="1" stop-opacity="0"/>
</radialGradient>
<linearGradient id="paint4_linear_1235_8102" x1="21.9799" y1="5.02274" x2="21.9799" y2="1.02393" gradientUnits="userSpaceOnUse">
<stop/>
<stop offset="1" stop-opacity="0"/>
</linearGradient>
<radialGradient id="paint5_radial_1235_8102" cx="0" cy="0" r="1" gradientUnits="userSpaceOnUse" gradientTransform="translate(11.9793 5.02566) rotate(-90) scale(4.00124 5.00177)">
<stop/>
<stop offset="1" stop-opacity="0"/>
</radialGradient>
<linearGradient id="paint6_linear_1235_8102" x1="51.9786" y1="41.0234" x2="56.979" y2="41.0234" gradientUnits="userSpaceOnUse">
<stop/>
<stop offset="1" stop-opacity="0"/>
</linearGradient>
<linearGradient id="paint7_linear_1235_8102" x1="11.9792" y1="33.022" x2="6.97877" y2="33.022" gradientUnits="userSpaceOnUse">
<stop/>
<stop offset="1" stop-opacity="0"/>
</linearGradient>
<radialGradient id="paint8_radial_1235_8102" cx="0" cy="0" r="1" gradientUnits="userSpaceOnUse" gradientTransform="translate(51.9742 59.0219) rotate(90) scale(6.00201 5.00177)">
<stop/>
<stop offset="1" stop-opacity="0"/>
</radialGradient>
<radialGradient id="paint9_radial_1235_8102" cx="0" cy="0" r="1" gradientUnits="userSpaceOnUse" gradientTransform="translate(11.9763 59.0219) rotate(180) scale(5.00177 6.00201)">
<stop/>
<stop offset="1" stop-opacity="0"/>
</radialGradient>
<linearGradient id="paint10_linear_1235_8102" x1="29.9776" y1="59.0256" x2="29.9776" y2="64.0223" gradientUnits="userSpaceOnUse">
<stop/>
<stop offset="1" stop-opacity="0"/>
</linearGradient>
<radialGradient id="paint11_radial_1235_8102" cx="0" cy="0" r="1" gradientUnits="userSpaceOnUse" gradientTransform="translate(34.9786 5.02323) scale(6.00771 3.00039)">
<stop/>
<stop offset="1" stop-opacity="0"/>
</radialGradient>
<linearGradient id="paint12_linear_1235_8102" x1="42.9792" y1="13.024" x2="45.9832" y2="10.02" gradientUnits="userSpaceOnUse">
<stop/>
<stop offset="1" stop-opacity="0"/>
</linearGradient>
<radialGradient id="paint13_radial_1235_8102" cx="0" cy="0" r="1" gradientUnits="userSpaceOnUse" gradientTransform="translate(51.9799 23.0234) scale(4 6.38885)">
<stop/>
<stop offset="1" stop-opacity="0"/>
</radialGradient>
<linearGradient id="paint14_linear_1235_8102" x1="21.9799" y1="5.02274" x2="21.9799" y2="2.02552" gradientUnits="userSpaceOnUse">
<stop/>
<stop offset="1" stop-opacity="0"/>
</linearGradient>
<radialGradient id="paint15_radial_1235_8102" cx="0" cy="0" r="1" gradientUnits="userSpaceOnUse" gradientTransform="translate(11.979 5.02274) rotate(-90) scale(3.001 4.00124)">
<stop/>
<stop offset="1" stop-opacity="0"/>
</radialGradient>
<linearGradient id="paint16_linear_1235_8102" x1="51.9786" y1="41.0234" x2="55.9775" y2="41.0234" gradientUnits="userSpaceOnUse">
<stop/>
<stop offset="1" stop-opacity="0"/>
</linearGradient>
<linearGradient id="paint17_linear_1235_8102" x1="11.9792" y1="33.022" x2="7.98036" y2="33.022" gradientUnits="userSpaceOnUse">
<stop/>
<stop offset="1" stop-opacity="0"/>
</linearGradient>
<radialGradient id="paint18_radial_1235_8102" cx="0" cy="0" r="1" gradientUnits="userSpaceOnUse" gradientTransform="translate(51.9793 59.0236) rotate(90) scale(5.00177 4.00124)">
<stop/>
<stop offset="1" stop-opacity="0"/>
</radialGradient>
<radialGradient id="paint19_radial_1235_8102" cx="0" cy="0" r="1" gradientUnits="userSpaceOnUse" gradientTransform="translate(11.9783 59.0174) rotate(180) scale(4.00124 5.00177)">
<stop/>
<stop offset="1" stop-opacity="0"/>
</radialGradient>
<linearGradient id="paint20_linear_1235_8102" x1="45.9759" y1="10.025" x2="9.98047" y2="61.0233" gradientUnits="userSpaceOnUse">
<stop stop-color="#EDEDED"/>
<stop offset="1" stop-color="#FCFCFC"/>
</linearGradient>
<linearGradient id="paint21_linear_1235_8102" x1="32.0002" y1="25" x2="32.0002" y2="49.0005" gradientUnits="userSpaceOnUse">
<stop stop-color="#0EB95F"/>
<stop offset="1" stop-color="#059C56"/>
</linearGradient>
<radialGradient id="paint22_radial_1235_8102" cx="0" cy="0" r="1" gradientUnits="userSpaceOnUse" gradientTransform="translate(39.9784 17.0267) rotate(180) scale(16.0028 16.0028)">
<stop/>
<stop offset="1" stop-opacity="0"/>
</radialGradient>
<radialGradient id="paint23_radial_1235_8102" cx="0" cy="0" r="1" gradientUnits="userSpaceOnUse" gradientTransform="translate(39.9792 11.024) rotate(-90) scale(12.0001 16.0001)">
<stop/>
<stop offset="1" stop-opacity="0"/>
</radialGradient>
<linearGradient id="paint24_linear_1235_8102" x1="39.9784" y1="14.357" x2="23.9794" y2="14.357" gradientUnits="userSpaceOnUse">
<stop/>
<stop offset="1" stop-opacity="0"/>
</linearGradient>
<linearGradient id="paint25_linear_1235_8102" x1="39.9785" y1="14.0244" x2="32.9787" y2="14.0244" gradientUnits="userSpaceOnUse">
<stop/>
<stop offset="1" stop-opacity="0"/>
</linearGradient>
<radialGradient id="paint26_radial_1235_8102" cx="0" cy="0" r="1" gradientUnits="userSpaceOnUse" gradientTransform="translate(39.978 17.0243) rotate(180) scale(7.00124 7.02916)">
<stop/>
<stop offset="1" stop-opacity="0"/>
</radialGradient>
<radialGradient id="paint27_radial_1235_8102" cx="0" cy="0" r="1" gradientUnits="userSpaceOnUse" gradientTransform="translate(39.9792 11.023) rotate(-90) scale(10.4625 7.03869)">
<stop/>
<stop offset="1" stop-opacity="0"/>
</radialGradient>
<linearGradient id="paint28_linear_1235_8102" x1="43.3109" y1="17.0229" x2="43.3109" y2="33.022" gradientUnits="userSpaceOnUse">
<stop/>
<stop offset="1" stop-opacity="0"/>
</linearGradient>
<linearGradient id="paint29_linear_1235_8102" x1="42.9783" y1="17.023" x2="42.9783" y2="24.0493" gradientUnits="userSpaceOnUse">
<stop/>
<stop offset="1" stop-opacity="0"/>
</linearGradient>
<radialGradient id="paint30_radial_1235_8102" cx="0" cy="0" r="1" gradientUnits="userSpaceOnUse" gradientTransform="translate(45.9792 17.024) scale(11.4689 7.02797)">
<stop/>
<stop offset="1" stop-opacity="0"/>
</radialGradient>
<radialGradient id="paint31_radial_1235_8102" cx="0" cy="0" r="1" gradientUnits="userSpaceOnUse" gradientTransform="translate(45.979 17.0239) scale(12 16)">
<stop/>
<stop offset="1" stop-opacity="0"/>
</radialGradient>
<linearGradient id="paint32_linear_1235_8102" x1="39.9793" y1="17.0226" x2="45.9793" y2="11.0225" gradientUnits="userSpaceOnUse">
<stop stop-color="#FEFEFE"/>
<stop offset="1" stop-color="#E9E9E9"/>
</linearGradient>
<clipPath id="clip0_1235_8102">
<rect width="64" height="64" fill="white"/>
</clipPath>
<clipPath id="clip1_1235_8102">
<rect width="64" height="64" fill="white"/>
</clipPath>
</defs>
</svg>
