<?xml version="1.0" encoding="UTF-8" standalone="no"?>
<svg xmlns:inkscape="http://www.inkscape.org/namespaces/inkscape" xmlns:sodipodi="http://sodipodi.sourceforge.net/DTD/sodipodi-0.dtd" xmlns:xlink="http://www.w3.org/1999/xlink" xmlns="http://www.w3.org/2000/svg" xmlns:svg="http://www.w3.org/2000/svg" width="64" height="64" version="1.1" id="svg13793" sodipodi:docname="gnucash-icon.svg" inkscape:version="1.2.2 (b0a8486541, 2022-12-01)">
  <defs id="defs13661">
    <linearGradient id="linearGradient862-3" x1="7.9373" x2="7.9373" y1="15.081" y2="1.852" gradientTransform="matrix(3.7796,0,0,3.7796,115.74839,0)" gradientUnits="userSpaceOnUse">
      <stop stop-color="#f1efeb" offset="0" id="stop13631"/>
      <stop stop-color="#fdfcfc" offset="1" id="stop13633"/>
    </linearGradient>
    <radialGradient id="radialGradient2596" cx="17.984" cy="40.604" r="21.031" gradientTransform="matrix(1.2711,0,0,0.45018,124.02709,27.74)" gradientUnits="userSpaceOnUse">
      <stop stop-color="#555753" offset="0" id="stop13636"/>
      <stop stop-color="#555753" stop-opacity="0" offset="1" id="stop13638"/>
    </radialGradient>
    <radialGradient id="radialGradient2655" cx="24.013" cy="31.644" r="14.987" gradientTransform="matrix(3.3235,0,0,2.7721,67.952391,-41.867)" gradientUnits="userSpaceOnUse">
      <stop stop-color="#d3d7cf" offset="0" id="stop13641"/>
      <stop stop-color="#d3d7cf" stop-opacity="0" offset="1" id="stop13643"/>
    </radialGradient>
    <radialGradient id="radialGradient2629" cx="24.5" cy="18.593" r="14.5" gradientTransform="matrix(2.9403,0,0,2.4333,76.211391,-16.367)" gradientUnits="userSpaceOnUse">
      <stop stop-color="#babdb6" offset="0" id="stop13646"/>
      <stop stop-color="#babdb6" stop-opacity="0" offset="1" id="stop13648"/>
    </radialGradient>
    <linearGradient id="linearGradient2639" x1="24.613" x2="29.182" y1="20.16" y2="12.246" gradientTransform="translate(123.74839,7.9992)" gradientUnits="userSpaceOnUse">
      <stop stop-color="#204a87" offset="0" id="stop13651"/>
      <stop stop-color="#204a87" stop-opacity="0" offset="1" id="stop13653"/>
    </linearGradient>
    <linearGradient id="linearGradient2713" x1="18" x2="18" y1="39" y2="45.78" gradientTransform="matrix(1,0,0,0.83333,123.74839,14.499)" gradientUnits="userSpaceOnUse">
      <stop stop-color="#eeeeec" offset="0" id="stop13656"/>
      <stop stop-color="#eeeeec" stop-opacity="0" offset="1" id="stop13658"/>
    </linearGradient>
    <filter id="filter1057" x="-0.026999999" y="-0.026999999" width="1.054" height="1.054" color-interpolation-filters="sRGB">
      <feGaussianBlur stdDeviation="0.61875" id="feGaussianBlur13921"/>
    </filter>
    <linearGradient id="linearGradient1053" x1="-127" x2="-72" y1="60" y2="5" gradientTransform="matrix(1.0000071,0,0,1.0000071,131.49968,-0.5102094)" gradientUnits="userSpaceOnUse">
      <stop stop-color="#32d7ff" offset="0" id="stop13924"/>
      <stop stop-color="#329bff" offset="1" id="stop13926"/>
    </linearGradient>
    <linearGradient id="linearGradient1050" x1="31.802999" x2="31.802999" y1="8.0243998" y2="8.2410002" gradientTransform="matrix(0.82927,0,0,0.8636,-17.745,1.0542)" gradientUnits="userSpaceOnUse" xlink:href="#linearGradient64681"/>
    <linearGradient id="linearGradient64681">
      <stop stop-color="#99c2e6" offset="0" id="stop13916"/>
      <stop stop-color="#6493bd" offset="1" id="stop13918"/>
    </linearGradient>
    <linearGradient id="linearGradient1052" x1="31.802999" x2="31.802999" y1="8.0243998" y2="8.2410002" gradientTransform="matrix(0.8636,0,0,0.8636,-18.831,0.94954)" gradientUnits="userSpaceOnUse" xlink:href="#linearGradient64681"/>
    <linearGradient inkscape:collect="always" xlink:href="#linearGradient2639" id="linearGradient14494" gradientUnits="userSpaceOnUse" gradientTransform="matrix(1.3333333,0,0,1.3333333,3.71777e-7,8.6669352)" x1="24.500351" y1="20.876148" x2="29.182" y2="12.246"/>
  <radialGradient id="gradient_ds_br" cx="0" cy="0" r="1" gradientUnits="userSpaceOnUse" gradientTransform="matrix(13.998399,0.00477622,-0.00477841,14.004799,47.5016,48.4952)">
      <stop offset="0.65" id="stop1"/>
      <stop offset="1" stop-opacity="0" id="stop2"/>
    </radialGradient><linearGradient id="gradient_ds_b" x1="30.448999" y1="48.5" x2="30.492201" y2="62.500301" gradientUnits="userSpaceOnUse">
      <stop offset="0.653846" id="stop3"/>
      <stop offset="1" stop-opacity="0" id="stop4"/>
    </linearGradient><radialGradient id="gradient_ds_bl" cx="0" cy="0" r="1" gradientUnits="userSpaceOnUse" gradientTransform="matrix(0,14,-14,0,16.5,48.5)">
      <stop offset="0.65" id="stop5"/>
      <stop offset="1" stop-opacity="0" id="stop6"/>
    </radialGradient><linearGradient id="gradient_ds_r" x1="47.5" y1="33.5" x2="61.5" y2="33.5009" gradientUnits="userSpaceOnUse">
      <stop offset="0.649038" id="stop7"/>
      <stop offset="1" stop-opacity="0" id="stop8"/>
    </linearGradient><linearGradient id="gradient_ds_l" x1="16.5" y1="33.894699" x2="2.5" y2="33.894699" gradientUnits="userSpaceOnUse">
      <stop offset="0.649038" id="stop9"/>
      <stop offset="1" stop-opacity="0" id="stop10"/>
    </linearGradient><radialGradient id="gradient_ds_tr" cx="0" cy="0" r="1" gradientTransform="matrix(0.00843236,-14,14.0084,0.0189842,47.4916,18.5)" gradientUnits="userSpaceOnUse">
      <stop offset="0.65" id="stop11"/>
      <stop offset="1" stop-opacity="0" id="stop12"/>
    </radialGradient><linearGradient id="gradient_ds_t" x1="29.98" y1="18.5" x2="29.9158" y2="4.4998598" gradientUnits="userSpaceOnUse">
      <stop offset="0.649038" id="stop13"/>
      <stop offset="1" stop-opacity="0" id="stop14"/>
    </linearGradient><radialGradient id="gradient_ds_tl" cx="0" cy="0" r="1" gradientTransform="matrix(-0.00843236,-14,-14.0084,0.0189842,16.5084,18.5)" gradientUnits="userSpaceOnUse">
      <stop offset="0.65" id="stop15"/>
      <stop offset="1" stop-opacity="0" id="stop16"/>
    </radialGradient></defs>
  
  <g id="ds" opacity="0.25">
    <path id="ds-br" d="m 47.5,48.5 h 14 v 14 h -14 z" fill="url(#gradient_ds_br)" style="fill:url(#gradient_ds_br)"/>
    <path id="ds-b" d="m 16.5,48.5 h 31 v 14 h -31 z" fill="url(#gradient_ds_b)" style="fill:url(#gradient_ds_b)"/>
    <path id="ds-bl" d="m 2.5,48.5 h 14 v 14 h -14 z" fill="url(#gradient_ds_bl)" style="fill:url(#gradient_ds_bl)"/>
    <path id="ds-r" d="m 47.5,18.5 h 14 v 30 h -14 z" fill="url(#gradient_ds_r)" style="fill:url(#gradient_ds_r)"/>
    <path id="ds-l" d="m 2.5,18.5 h 14 v 30 h -14 z" fill="url(#gradient_ds_l)" style="fill:url(#gradient_ds_l)"/>
    <path id="ds-tr" d="m 47.5,4.5 h 14 v 14 h -14 z" fill="url(#gradient_ds_tr)" style="fill:url(#gradient_ds_tr)"/>
    <path id="ds-t" d="m 16.5,4.5 h 31 v 14 h -31 z" fill="url(#gradient_ds_t)" style="fill:url(#gradient_ds_t)"/>
    <path id="ds-tl" d="m 16.5,4.5 h -14 v 14 h 14 z" fill="url(#gradient_ds_tl)" style="fill:url(#gradient_ds_tl)"/>
  </g><rect x="4.5" y="4.5" width="55" height="55" fill="url(#linearGradient1053)" stroke-width="2.74441" id="bg" style="fill:url(#linearGradient1053);stroke-linecap:round" rx="10"/>
  <g id="art"><rect x="12.034657" y="15.333334" width="39.965332" height="33.333332" rx="2.1666665" ry="2.1666665" id="rect14484" style="fill:#99d8ff;fill-opacity:0.80000001"/><path d="m 18.708,15.333335 v 5.333333 h -5.374933 v 1.333334 H 18.708 v 5.333333 h -5.374933 v 1.333333 H 18.708 v 5.333333 h -5.374933 v 1.333334 H 18.708 v 5.333333 h -5.374933 v 1.333333 H 18.708 v 5.333333 h 1.333333 v -5.333333 h 5.333333 v 5.333333 H 26.708 v -5.333333 h 5.333333 v 5.333333 h 1.333333 v -5.333333 h 5.333333 v 5.333333 h 1.333334 v -5.333333 h 5.333333 v 5.333333 h 1.333333 v -5.333333 h 5.291733 v -1.333333 h -5.291733 v -5.333333 h 5.291733 v -1.333334 h -5.291733 v -5.333333 h 5.291733 v -1.333333 h -5.291733 v -5.333333 h 5.291733 v -1.333334 h -5.291733 v -5.333333 h -1.333333 v 5.333333 h -5.333333 v -5.333333 h -1.333334 v 5.333333 h -5.333333 v -5.333333 h -1.333333 v 5.333333 H 26.708 v -5.333333 h -1.333334 v 5.333333 h -5.333333 v -5.333333 z m 1.333333,6.666667 h 5.333333 v 5.333333 h -5.333333 z m 6.666667,0 h 5.333333 v 5.333333 H 26.708 Z m 6.666666,0 h 5.333333 v 5.333333 h -5.333333 z m 6.666667,0 h 5.333333 v 5.333333 h -5.333333 z m -20,6.666666 h 5.333333 v 5.333333 h -5.333333 z m 6.666667,0 h 5.333333 v 5.333333 H 26.708 Z m 6.666666,0 h 5.333333 v 5.333333 h -5.333333 z m 6.666667,0 h 5.333333 v 5.333333 h -5.333333 z m -20,6.666667 h 5.333333 v 5.333333 h -5.333333 z m 6.666667,0 h 5.333333 v 5.333333 H 26.708 Z m 6.666666,0 h 5.333333 v 5.333333 h -5.333333 z m 6.666667,0 h 5.333333 v 5.333333 h -5.333333 z" id="path14486" style="fill:#ffffff;fill-opacity:1"/><path d="m 38.041333,24.666668 -6.510667,11.756133 -11.479733,-6.3964 -8.0096,12.640133 1.166667,0.666667 7.216267,-11.635733 11.601866,6.374933 7.181866,-12.739333 z" fill="url(#linearGradient2639)" fill-rule="evenodd" id="path14488" style="fill:url(#linearGradient14494);stroke-width:1.33333"/><rect x="12.034657" y="15.333334" width="1.3333333" height="33.333332" fill-rule="evenodd" style="fill:#3f75a7;fill-opacity:1" id="rect17750"/><path d="M 12,15.333335 H 51.999999 C 35.785333,20.546802 36.882666,39.333334 12,39.333334 Z" fill="#ffffff" fill-rule="evenodd" opacity="0.2" id="path14492" style="stroke-width:1.33333"/></g>
  
  
  
  
</svg>
