<svg width="64" height="64" viewBox="0 0 64 64" fill="none" xmlns="http://www.w3.org/2000/svg">
<g id="video-ogg" clip-path="url(#clip0_1272_5821)">
<g id="Blank-Film ">
<g id="Shadow 2" opacity="0.1">
<path id="Vector" d="M7 52H57V58H7V52Z" fill="url(#paint0_linear_1272_5821)"/>
<path id="Vector_2" d="M7 8H57V12H7V8Z" fill="url(#paint1_linear_1272_5821)"/>
<path id="Vector_3" d="M1 8H6.99823V11.9988H1V8Z" fill="url(#paint2_radial_1272_5821)"/>
<path id="Vector_4" d="M62.9982 8H57V11.9988H62.9982V8Z" fill="url(#paint3_radial_1272_5821)"/>
<path id="Vector_5" d="M57 12H63V52H57V12Z" fill="url(#paint4_linear_1272_5821)"/>
<path id="Vector_6" d="M1 12H7V52H1V12Z" fill="url(#paint5_linear_1272_5821)"/>
<path id="Vector_7" d="M57 52H62.9982V57.9982H57V52Z" fill="url(#paint6_radial_1272_5821)"/>
<path id="Vector_8" d="M1 52H6.99823V57.9982H1V52Z" fill="url(#paint7_radial_1272_5821)"/>
</g>
<g id="Shadow 1" opacity="0.2">
<path id="Vector_9" d="M7 52H57V58H7V52Z" fill="url(#paint8_linear_1272_5821)"/>
<path id="Vector_10" d="M7 8H57V12H7V8Z" fill="url(#paint9_linear_1272_5821)"/>
<path id="Vector_11" d="M6.99823 8H1V11.9988H6.99823V8Z" fill="url(#paint10_radial_1272_5821)"/>
<path id="Vector_12" d="M57 8H62.9982V11.9988H57V8Z" fill="url(#paint11_radial_1272_5821)"/>
<path id="Vector_13" d="M57 12H63V52H57V12Z" fill="url(#paint12_linear_1272_5821)"/>
<path id="Vector_14" d="M1 12H7V52H1V12Z" fill="url(#paint13_linear_1272_5821)"/>
<path id="Vector_15" d="M57 52H62.9982V57.9982H57V52Z" fill="url(#paint14_radial_1272_5821)"/>
<path id="Vector_16" d="M1 52H6.99823V57.9982H1V52Z" fill="url(#paint15_radial_1272_5821)"/>
</g>
<rect id="Paper" x="4" y="8" width="56" height="46" rx="3" fill="url(#paint16_linear_1272_5821)"/>
<g id="Screen">
<rect id="Bg" x="5" y="9" width="54" height="44" rx="2" fill="url(#paint17_radial_1272_5821)"/>
<g id="Birds">
<path d="M31.3716 29.378C31.4287 27.8297 31.9401 27.084 33.5442 25.9309C32.4062 27.5181 32.0192 28.3782 31.922 29.8415C31.9809 29.9237 32.0089 29.9863 32.0958 30.0443C32.1827 30.1022 32.2902 30.0818 32.4145 30.0443C32.456 30.2274 32.3887 30.3504 32.1538 30.5946H31.98V30.7105C31.7529 30.7436 31.6199 30.745 31.3716 30.7105C31.3825 30.639 31.382 30.6011 31.3716 30.5367C31.2468 30.4435 31.1697 30.4152 31.024 30.3919C29.7613 30.4243 28.931 30.8966 27.4321 31.8982C28.4081 30.4903 29.1349 30.0978 30.7344 29.9863V29.7836C30.7532 29.6352 30.8388 29.5832 31.1399 29.5518C31.2492 29.5474 31.302 29.5159 31.3716 29.378Z" fill="black"/>
<path d="M20.7407 35.4901C19.9006 35.7798 19.582 36.1643 18.5681 36.1563C19.0264 36.294 19.3114 36.271 19.8716 36.0694C20.2041 35.8672 20.383 35.7703 20.7407 35.6929C21.1101 35.7921 21.3456 35.8089 21.8124 35.7798C22.0599 35.6456 22.0984 35.5116 22.0442 35.2004C22.397 34.878 22.6599 34.7163 23.2898 34.4762C23.9044 34.1845 24.123 34.0001 24.3036 33.6362C24.0449 33.8978 23.8752 34.0279 23.4636 34.1866C22.643 34.4997 22.2856 34.6927 21.7545 35.0556L21.2621 35.3453L20.7407 35.4901Z" fill="black"/>
<path d="M45.8553 39.0241C44.7545 38.8503 44.291 39.1689 42.8716 39.8062C43.7418 39.4385 44.177 39.2896 44.8414 39.1689C45.1306 39.1279 45.277 39.1394 45.5077 39.2269C45.3377 39.2951 45.262 39.3393 45.1601 39.4296C45.3156 39.4473 45.3927 39.4655 45.5077 39.5165V39.6035C45.8977 39.6879 46.0729 39.6852 46.3187 39.6035C46.5908 39.5154 46.668 39.4149 46.5794 39.082C47.0798 38.8048 47.4399 38.7584 48.2306 38.8793C48.6683 38.9792 48.9201 39.0033 49.3603 38.9662C48.886 38.9079 48.6396 38.8488 48.2306 38.7055C47.3962 38.5606 46.9986 38.6224 46.4056 38.9662C46.2957 38.8737 46.1762 38.8842 45.8553 39.0241Z" fill="black"/>
</g>
</g>
<g id="Sprocket Holes R">
<rect id="Rectangle 15" opacity="0.25" x="53" y="12" width="4" height="4" rx="1" fill="white"/>
<rect id="Rectangle 16" opacity="0.25" x="53" y="19" width="4" height="4" rx="1" fill="white"/>
<rect id="Rectangle 17" opacity="0.25" x="53" y="26" width="4" height="4" rx="1" fill="white"/>
<rect id="Rectangle 18" opacity="0.25" x="53" y="33" width="4" height="4" rx="1" fill="white"/>
<rect id="Rectangle 19" opacity="0.25" x="53" y="40" width="4" height="4" rx="1" fill="white"/>
<rect id="Rectangle 20" opacity="0.25" x="53" y="47" width="4" height="4" rx="1" fill="white"/>
</g>
<g id="Sprocket Holes L">
<rect id="Rectangle 15_2" opacity="0.25" x="7" y="12" width="4" height="4" rx="1" fill="white"/>
<rect id="Rectangle 16_2" opacity="0.25" x="7" y="19" width="4" height="4" rx="1" fill="white"/>
<rect id="Rectangle 17_2" opacity="0.25" x="7" y="26" width="4" height="4" rx="1" fill="white"/>
<rect id="Rectangle 18_2" opacity="0.25" x="7" y="33" width="4" height="4" rx="1" fill="white"/>
<rect id="Rectangle 19_2" opacity="0.25" x="7" y="40" width="4" height="4" rx="1" fill="white"/>
<rect id="Rectangle 20_2" opacity="0.25" x="7" y="47" width="4" height="4" rx="1" fill="white"/>
</g>
<g id="Extension">
<path id="Bg_2" opacity="0.3" d="M5 41L33 41C34.1046 41 35 41.8954 35 43L35 49C35 50.1046 34.1046 51 33 51L5 51L5 41Z" fill="black"/>
</g>
</g>
<path id="Name" d="M16.6164 46.0909C16.6164 46.7045 16.5056 47.2348 16.2841 47.6818C16.0625 48.1288 15.7585 48.4735 15.3721 48.7159C14.9858 48.9583 14.5445 49.0795 14.0483 49.0795C13.5521 49.0795 13.1108 48.9583 12.7244 48.7159C12.338 48.4735 12.0341 48.1288 11.8125 47.6818C11.5909 47.2348 11.4801 46.7045 11.4801 46.0909C11.4801 45.4773 11.5909 44.947 11.8125 44.5C12.0341 44.053 12.338 43.7083 12.7244 43.4659C13.1108 43.2235 13.5521 43.1023 14.0483 43.1023C14.5445 43.1023 14.9858 43.2235 15.3721 43.4659C15.7585 43.7083 16.0625 44.053 16.2841 44.5C16.5056 44.947 16.6164 45.4773 16.6164 46.0909ZM15.9346 46.0909C15.9346 45.5871 15.8503 45.1619 15.6818 44.8153C15.5151 44.4687 15.2888 44.2064 15.0028 44.0284C14.7187 43.8504 14.4005 43.7614 14.0483 43.7614C13.696 43.7614 13.3769 43.8504 13.0909 44.0284C12.8068 44.2064 12.5805 44.4687 12.4119 44.8153C12.2452 45.1619 12.1619 45.5871 12.1619 46.0909C12.1619 46.5947 12.2452 47.0199 12.4119 47.3665C12.5805 47.7131 12.8068 47.9754 13.0909 48.1534C13.3769 48.3314 13.696 48.4205 14.0483 48.4205C14.4005 48.4205 14.7187 48.3314 15.0028 48.1534C15.2888 47.9754 15.5151 47.7131 15.6818 47.3665C15.8503 47.0199 15.9346 46.5947 15.9346 46.0909ZM21.7784 45C21.7159 44.8087 21.6335 44.6373 21.5312 44.4858C21.4308 44.3324 21.3106 44.2017 21.1704 44.0937C21.0322 43.9858 20.875 43.9034 20.6988 43.8466C20.5227 43.7898 20.3295 43.7614 20.1193 43.7614C19.7746 43.7614 19.4611 43.8504 19.1789 44.0284C18.8967 44.2064 18.6723 44.4687 18.5056 44.8153C18.339 45.1619 18.2556 45.5871 18.2556 46.0909C18.2556 46.5947 18.3399 47.0199 18.5085 47.3665C18.6771 47.7131 18.9053 47.9754 19.1931 48.1534C19.481 48.3314 19.8049 48.4205 20.1647 48.4205C20.4981 48.4205 20.7916 48.3494 21.0454 48.2074C21.3011 48.0634 21.5 47.8608 21.642 47.5994C21.786 47.3362 21.8579 47.0265 21.8579 46.6705L22.0738 46.7159L20.3238 46.7159L20.3238 46.0909L22.5397 46.0909L22.5397 46.7159C22.5397 47.1951 22.4375 47.6117 22.2329 47.9659C22.0303 48.3201 21.75 48.5947 21.392 48.7898C21.036 48.983 20.6269 49.0795 20.1647 49.0795C19.6496 49.0795 19.1969 48.9583 18.8068 48.7159C18.4185 48.4735 18.1155 48.1288 17.8977 47.6818C17.6818 47.2348 17.5738 46.7045 17.5738 46.0909C17.5738 45.6307 17.6354 45.2169 17.7585 44.8494C17.8835 44.4801 18.0596 44.1657 18.2869 43.9062C18.5142 43.6468 18.7831 43.4479 19.0937 43.3097C19.4043 43.1714 19.7462 43.1023 20.1193 43.1023C20.4261 43.1023 20.7121 43.1487 20.9772 43.2415C21.2443 43.3324 21.482 43.4621 21.6903 43.6307C21.9005 43.7973 22.0757 43.9972 22.2159 44.2301C22.356 44.4612 22.4526 44.7178 22.5056 45L21.7784 45ZM27.7237 45C27.6612 44.8087 27.5788 44.6373 27.4765 44.4858C27.3762 44.3324 27.2559 44.2017 27.1157 44.0937C26.9775 43.9858 26.8203 43.9034 26.6441 43.8466C26.468 43.7898 26.2748 43.7614 26.0646 43.7614C25.7199 43.7614 25.4065 43.8504 25.1243 44.0284C24.8421 44.2064 24.6176 44.4687 24.451 44.8153C24.2843 45.1619 24.201 45.5871 24.201 46.0909C24.201 46.5947 24.2852 47.0199 24.4538 47.3665C24.6224 47.7131 24.8506 47.9754 25.1385 48.1534C25.4263 48.3314 25.7502 48.4205 26.1101 48.4205C26.4434 48.4205 26.7369 48.3494 26.9907 48.2074C27.2464 48.0634 27.4453 47.8608 27.5873 47.5994C27.7313 47.3362 27.8032 47.0265 27.8032 46.6705L28.0191 46.7159L26.2691 46.7159L26.2691 46.0909L28.4851 46.0909L28.4851 46.7159C28.4851 47.1951 28.3828 47.6117 28.1782 47.9659C27.9756 48.3201 27.6953 48.5947 27.3373 48.7898C26.9813 48.983 26.5722 49.0795 26.1101 49.0795C25.5949 49.0795 25.1422 48.9583 24.7521 48.7159C24.3638 48.4735 24.0608 48.1288 23.843 47.6818C23.6271 47.2348 23.5191 46.7045 23.5191 46.0909C23.5191 45.6307 23.5807 45.2169 23.7038 44.8494C23.8288 44.4801 24.0049 44.1657 24.2322 43.9062C24.4595 43.6468 24.7284 43.4479 25.039 43.3097C25.3496 43.1714 25.6915 43.1023 26.0646 43.1023C26.3714 43.1023 26.6574 43.1487 26.9226 43.2415C27.1896 43.3324 27.4273 43.4621 27.6356 43.6307C27.8458 43.7973 28.021 43.9972 28.1612 44.2301C28.3013 44.4612 28.3979 44.7178 28.451 45L27.7237 45Z" fill="white"/>
</g>
<defs>
<linearGradient id="paint0_linear_1272_5821" x1="29.4983" y1="52" x2="29.4983" y2="58" gradientUnits="userSpaceOnUse">
<stop/>
<stop offset="1" stop-opacity="0"/>
</linearGradient>
<linearGradient id="paint1_linear_1272_5821" x1="28.742" y1="12" x2="28.742" y2="8" gradientUnits="userSpaceOnUse">
<stop/>
<stop offset="1" stop-opacity="0"/>
</linearGradient>
<radialGradient id="paint2_radial_1272_5821" cx="0" cy="0" r="1" gradientUnits="userSpaceOnUse" gradientTransform="translate(7.00217 12.0017) rotate(-90) scale(4.00124 5.00177)">
<stop/>
<stop offset="1" stop-opacity="0"/>
</radialGradient>
<radialGradient id="paint3_radial_1272_5821" cx="0" cy="0" r="1" gradientUnits="userSpaceOnUse" gradientTransform="translate(56.9961 12.0017) rotate(-90) scale(4.00124 5.00177)">
<stop/>
<stop offset="1" stop-opacity="0"/>
</radialGradient>
<linearGradient id="paint4_linear_1272_5821" x1="57" y1="31.9979" x2="62.0019" y2="31.9979" gradientUnits="userSpaceOnUse">
<stop/>
<stop offset="1" stop-opacity="0"/>
</linearGradient>
<linearGradient id="paint5_linear_1272_5821" x1="7.00378" y1="32.7405" x2="2.00189" y2="32.7405" gradientUnits="userSpaceOnUse">
<stop/>
<stop offset="1" stop-opacity="0"/>
</linearGradient>
<radialGradient id="paint6_radial_1272_5821" cx="0" cy="0" r="1" gradientUnits="userSpaceOnUse" gradientTransform="translate(56.9955 51.9962) rotate(90) scale(6.00201 5.00177)">
<stop/>
<stop offset="1" stop-opacity="0"/>
</radialGradient>
<radialGradient id="paint7_radial_1272_5821" cx="0" cy="0" r="1" gradientUnits="userSpaceOnUse" gradientTransform="translate(6.99909 51.9962) rotate(180) scale(5.00177 6.00201)">
<stop/>
<stop offset="1" stop-opacity="0"/>
</radialGradient>
<linearGradient id="paint8_linear_1272_5821" x1="29.4983" y1="52" x2="29.4983" y2="56.9981" gradientUnits="userSpaceOnUse">
<stop/>
<stop offset="1" stop-opacity="0"/>
</linearGradient>
<linearGradient id="paint9_linear_1272_5821" x1="28.742" y1="12" x2="28.742" y2="9.00189" gradientUnits="userSpaceOnUse">
<stop/>
<stop offset="1" stop-opacity="0"/>
</linearGradient>
<radialGradient id="paint10_radial_1272_5821" cx="0" cy="0" r="1" gradientUnits="userSpaceOnUse" gradientTransform="translate(7.00184 11.9988) rotate(-90) scale(3.001 4.00124)">
<stop/>
<stop offset="1" stop-opacity="0"/>
</radialGradient>
<radialGradient id="paint11_radial_1272_5821" cx="0" cy="0" r="1" gradientUnits="userSpaceOnUse" gradientTransform="translate(56.9964 11.9988) rotate(-90) scale(3.001 4.00124)">
<stop/>
<stop offset="1" stop-opacity="0"/>
</radialGradient>
<linearGradient id="paint12_linear_1272_5821" x1="57" y1="31.9979" x2="61" y2="31.9979" gradientUnits="userSpaceOnUse">
<stop/>
<stop offset="1" stop-opacity="0"/>
</linearGradient>
<linearGradient id="paint13_linear_1272_5821" x1="7.00378" y1="32.7405" x2="3.00378" y2="32.7405" gradientUnits="userSpaceOnUse">
<stop/>
<stop offset="1" stop-opacity="0"/>
</linearGradient>
<radialGradient id="paint14_radial_1272_5821" cx="0" cy="0" r="1" gradientUnits="userSpaceOnUse" gradientTransform="translate(57.0007 51.998) rotate(90) scale(5.00177 4.00124)">
<stop/>
<stop offset="1" stop-opacity="0"/>
</radialGradient>
<radialGradient id="paint15_radial_1272_5821" cx="0" cy="0" r="1" gradientUnits="userSpaceOnUse" gradientTransform="translate(7.00114 51.9918) rotate(180) scale(4.00124 5.00177)">
<stop/>
<stop offset="1" stop-opacity="0"/>
</radialGradient>
<linearGradient id="paint16_linear_1272_5821" x1="49.0391" y1="14.1331" x2="27.2955" y2="63.0468" gradientUnits="userSpaceOnUse">
<stop stop-color="#FCFCFC"/>
<stop offset="1" stop-color="#EDEDED"/>
</linearGradient>
<radialGradient id="paint17_radial_1272_5821" cx="0" cy="0" r="1" gradientUnits="userSpaceOnUse" gradientTransform="translate(42.9748 9) rotate(93.4282) scale(49.1307 100.712)">
<stop stop-color="#56C2DD"/>
<stop offset="0.604557" stop-color="#ABAEE3"/>
<stop offset="1" stop-color="#FCAEDD"/>
</radialGradient>
<clipPath id="clip0_1272_5821">
<rect width="64" height="64" fill="white"/>
</clipPath>
</defs>
</svg>
