<svg width="64" height="64" viewBox="0 0 64 64" fill="none" xmlns="http://www.w3.org/2000/svg">
<g id="application-x-srt" clip-path="url(#clip0_3139_2731)">
<g id="Blank-File" clip-path="url(#clip1_3139_2731)">
<g id="Shadow 2" opacity="0.1">
<path id="Vector" d="M11.9792 59.0258H51.9787V65.024H11.9792V59.0258Z" fill="url(#paint0_linear_3139_2731)"/>
<path id="Vector_2" d="M34.979 1.02399V8.02399L41.979 1.02399H34.979Z" fill="url(#paint1_radial_3139_2731)"/>
<path id="Vector_3" d="M41.979 1.02399L34.979 8.02399L48.979 23.024L57.979 14.024V4.56899L54.434 1.02399H41.979Z" fill="url(#paint2_linear_3139_2731)"/>
<path id="Vector_4" d="M57.979 14.024L48.979 23.024H57.979V14.024Z" fill="url(#paint3_radial_3139_2731)"/>
<path id="Vector_5" d="M11.9792 1.02399H34.9781V5.0228H11.9792V1.02399Z" fill="url(#paint4_linear_3139_2731)"/>
<path id="Vector_6" d="M5.97723 1.02399H11.9755V5.0228H5.97723V1.02399Z" fill="url(#paint5_radial_3139_2731)"/>
<path id="Vector_7" d="M51.9787 23.025H57.977V59.0257H51.9787V23.025Z" fill="url(#paint6_linear_3139_2731)"/>
<path id="Vector_8" d="M5.97723 5.02283H11.9755V59.022H5.97723V5.02283Z" fill="url(#paint7_linear_3139_2731)"/>
<path id="Vector_9" d="M51.9787 59.0258H57.977V65.024H51.9787V59.0258Z" fill="url(#paint8_radial_3139_2731)"/>
<path id="Vector_10" d="M5.97723 59.0258H11.9755V65.024H5.97723V59.0258Z" fill="url(#paint9_radial_3139_2731)"/>
</g>
<g id="Shadow 1" opacity="0.2">
<path id="Vector_11" d="M11.9792 59.0258H51.9787V65.024H11.9792V59.0258Z" fill="url(#paint10_linear_3139_2731)"/>
<path id="Vector_12" d="M34.9792 1.02399V8.02403L41.9793 1.02399H34.9792Z" fill="url(#paint11_radial_3139_2731)"/>
<path id="Vector_13" d="M41.9793 1.02399L34.9792 8.02403L48.9793 23.0241L57.9794 14.0241V4.56901L54.4344 1.02399H41.9793Z" fill="url(#paint12_linear_3139_2731)"/>
<path id="Vector_14" d="M57.9794 14.024L48.9793 23.0241H57.9794V14.024Z" fill="url(#paint13_radial_3139_2731)"/>
<path id="Vector_15" d="M11.9792 1.02399H34.9781V5.0228H11.9792V1.02399Z" fill="url(#paint14_linear_3139_2731)"/>
<path id="Vector_16" d="M11.9755 1.02399H5.97723V5.0228H11.9755V1.02399Z" fill="url(#paint15_radial_3139_2731)"/>
<path id="Vector_17" d="M51.9787 23.025H57.977V59.0257H51.9787V23.025Z" fill="url(#paint16_linear_3139_2731)"/>
<path id="Vector_18" d="M5.97723 5.02283H11.9755V59.022H5.97723V5.02283Z" fill="url(#paint17_linear_3139_2731)"/>
<path id="Vector_19" d="M51.9787 59.0258H57.977V65.024H51.9787V59.0258Z" fill="url(#paint18_radial_3139_2731)"/>
<path id="Vector_20" d="M5.97723 59.0258H11.9755V65.024H5.97723V59.0258Z" fill="url(#paint19_radial_3139_2731)"/>
</g>
<path id="Paper" d="M10.9776 2.02557C10.4477 2.02657 9.93969 2.23754 9.56494 2.61229C9.1902 2.98704 8.97922 3.49501 8.97823 4.02498V60.0235C8.97823 61.131 9.87021 62.0229 10.9814 62.0229H52.9766C54.0878 62.0229 54.9797 61.131 54.9797 60.0198V21.0256C54.9797 20.024 54.3674 18.4177 52.9766 17.023L39.9747 4.0212C39.508 3.40374 38.905 2.90239 38.2127 2.55624C37.5204 2.21009 36.7575 2.02848 35.9835 2.02557H10.9776Z" fill="url(#paint20_linear_3139_2731)"/>
</g>
<g id="Logo">
<path id="Subtract" opacity="0.5" fill-rule="evenodd" clip-rule="evenodd" d="M39.1429 23.9999C39.3702 23.9999 39.5881 24.0896 39.7489 24.249C39.9096 24.4084 40 24.6245 40 24.8499V40.1499C40 40.6203 39.6183 40.9999 39.1429 40.9999H24.8571C24.3829 40.9999 24 40.6203 24 40.1499V24.8499C24 24.6245 24.0904 24.4084 24.2511 24.249C24.4119 24.0896 24.6298 23.9999 24.8571 23.9999H39.1429ZM25.1429 38.7333V39.8666H26.2857V38.7333H25.1429ZM28 33.0666C27.6834 33.0666 27.4286 33.3193 27.4286 33.6333V39.2999C27.4286 39.4502 27.4888 39.5943 27.596 39.7006C27.7031 39.8069 27.8484 39.8666 28 39.8666H36C36.3166 39.8666 36.5714 39.6139 36.5714 39.2999V33.6333C36.5714 33.3193 36.3166 33.0666 36 33.0666H28ZM37.7143 38.7333V39.8666H38.8571V38.7333H37.7143ZM25.1429 36.4666V37.5999H26.2857V36.4666H25.1429ZM37.7143 36.4666V37.5999H38.8571V36.4666H37.7143ZM25.1429 34.1999V35.3333H26.2857V34.1999H25.1429ZM37.7143 34.1999V35.3333H38.8571V34.1999H37.7143ZM25.1429 31.9333V33.0666H26.2857V31.9333H25.1429ZM37.7143 31.9333V33.0666H38.8571V31.9333H37.7143ZM28 25.1333C27.6834 25.1333 27.4286 25.386 27.4286 25.6999V31.3666C27.4286 31.5169 27.4888 31.661 27.596 31.7673C27.7031 31.8735 27.8484 31.9333 28 31.9333H36C36.3166 31.9333 36.5714 31.6805 36.5714 31.3666V25.6999C36.5714 25.386 36.3166 25.1333 36 25.1333H28ZM25.1429 29.6666V30.7999H26.2857V29.6666H25.1429ZM37.7143 29.6666V30.7999H38.8571V29.6666H37.7143ZM25.1429 27.3999V28.5333H26.2857V27.3999H25.1429ZM37.7143 27.3999V28.5333H38.8571V27.3999H37.7143ZM25.1429 25.1333V26.2666H26.2857V25.1333H25.1429ZM37.7143 25.1333V26.2666H38.8571V25.1333H37.7143Z" fill="#7E8087"/>
<circle id="Ellipse 4" opacity="0.5" cx="29.5" cy="48.4999" r="1.5" fill="#0088FF"/>
<circle id="Ellipse 7" opacity="0.5" cx="24.5" cy="48.4999" r="1.5" fill="#0088FF"/>
<circle id="Ellipse 8" opacity="0.5" cx="19.5" cy="48.4999" r="1.5" fill="#0088FF"/>
<circle id="Ellipse 5" opacity="0.5" cx="34.5" cy="48.4999" r="1.5" fill="#0088FF"/>
<circle id="Ellipse 6" opacity="0.5" cx="39.5" cy="48.4999" r="1.5" fill="#0088FF"/>
<circle id="Ellipse 9" opacity="0.5" cx="44.5" cy="48.4999" r="1.5" fill="#0088FF"/>
</g>
<g id="Blank-File-Top">
<g id="Curl">
<g id="Shadow">
<path id="Vector_21" opacity="0.05" d="M39.9785 17.0229H23.9795V33.0219H39.9785V17.0229Z" fill="url(#paint21_radial_3139_2731)"/>
<path id="Vector_22" opacity="0.05" d="M23.9792 2.02386V11.0239H39.9793V4.02388C38.6413 2.33087 36.9792 2.02386 35.9792 2.02386H23.9792Z" fill="url(#paint22_radial_3139_2731)"/>
<path id="Vector_23" opacity="0.05" d="M39.9785 11.0247H23.9795V17.0229H39.9785V11.0247Z" fill="url(#paint23_linear_3139_2731)"/>
<path id="Vector_24" opacity="0.2" d="M39.9785 11.0247H28.9799V17.0229H39.9785V11.0247Z" fill="url(#paint24_linear_3139_2731)"/>
<path id="Vector_25" opacity="0.2" d="M39.9785 17.0229H28.9799V28.0215H39.9785V17.0229Z" fill="url(#paint25_radial_3139_2731)"/>
<path id="Vector_26" opacity="0.2" d="M28.9792 2.02386V11.0239H39.9793V4.02388C39.5247 3.43826 38.9524 2.9545 38.2992 2.60387L35.9792 2.02386H28.9792Z" fill="url(#paint26_radial_3139_2731)"/>
<path id="Vector_27" opacity="0.05" d="M39.9785 17.0229V33.022H45.9767V17.0229H39.9785Z" fill="url(#paint27_linear_3139_2731)"/>
<path id="Vector_28" opacity="0.2" d="M39.9785 17.0267V28.0253H45.9767V17.0267H39.9785Z" fill="url(#paint28_linear_3139_2731)"/>
<path id="Vector_29" opacity="0.2" d="M45.9793 17.024V28.0241H54.9794V21.024L54.5394 19.264C54.1608 18.4282 53.632 17.6689 52.9794 17.024H45.9793Z" fill="url(#paint29_radial_3139_2731)"/>
<path id="Vector_30" opacity="0.05" d="M45.979 17.0239V33.0239H54.979V21.0239C54.979 20.8919 54.953 20.7239 54.939 20.5709C54.791 19.5779 54.176 18.2209 52.979 17.0239H45.979Z" fill="url(#paint30_radial_3139_2731)"/>
</g>
<path id="Paper_2" d="M37.9791 2.44135V17.0193C37.9791 18.1267 38.8711 19.0187 39.9823 19.0187H54.443C54.0748 18.2763 53.587 17.5996 52.9992 17.0155L39.9974 4.01366C39.4687 3.33478 38.7824 2.79509 37.998 2.44135H37.9791Z" fill="url(#paint31_linear_3139_2731)"/>
</g>
</g>
</g>
<defs>
<linearGradient id="paint0_linear_3139_2731" x1="29.9777" y1="59.0258" x2="29.9777" y2="65.024" gradientUnits="userSpaceOnUse">
<stop/>
<stop offset="1" stop-opacity="0"/>
</linearGradient>
<radialGradient id="paint1_radial_3139_2731" cx="0" cy="0" r="1" gradientUnits="userSpaceOnUse" gradientTransform="translate(34.978 5.02439) scale(6.32269 4.00052)">
<stop/>
<stop offset="1" stop-opacity="0"/>
</radialGradient>
<linearGradient id="paint2_linear_3139_2731" x1="42.979" y1="13.024" x2="46.727" y2="9.27599" gradientUnits="userSpaceOnUse">
<stop/>
<stop offset="1" stop-opacity="0"/>
</linearGradient>
<radialGradient id="paint3_radial_3139_2731" cx="0" cy="0" r="1" gradientUnits="userSpaceOnUse" gradientTransform="translate(51.9788 23.0242) scale(4.99995 6.94012)">
<stop/>
<stop offset="1" stop-opacity="0"/>
</radialGradient>
<linearGradient id="paint4_linear_3139_2731" x1="21.9801" y1="5.0228" x2="21.9801" y2="1.02399" gradientUnits="userSpaceOnUse">
<stop/>
<stop offset="1" stop-opacity="0"/>
</linearGradient>
<radialGradient id="paint5_radial_3139_2731" cx="0" cy="0" r="1" gradientUnits="userSpaceOnUse" gradientTransform="translate(11.9794 5.02572) rotate(-90) scale(4.00124 5.00177)">
<stop/>
<stop offset="1" stop-opacity="0"/>
</radialGradient>
<linearGradient id="paint6_linear_3139_2731" x1="51.9787" y1="41.0235" x2="56.9791" y2="41.0235" gradientUnits="userSpaceOnUse">
<stop/>
<stop offset="1" stop-opacity="0"/>
</linearGradient>
<linearGradient id="paint7_linear_3139_2731" x1="11.9792" y1="33.0221" x2="6.97882" y2="33.0221" gradientUnits="userSpaceOnUse">
<stop/>
<stop offset="1" stop-opacity="0"/>
</linearGradient>
<radialGradient id="paint8_radial_3139_2731" cx="0" cy="0" r="1" gradientUnits="userSpaceOnUse" gradientTransform="translate(51.9743 59.022) rotate(90) scale(6.00201 5.00177)">
<stop/>
<stop offset="1" stop-opacity="0"/>
</radialGradient>
<radialGradient id="paint9_radial_3139_2731" cx="0" cy="0" r="1" gradientUnits="userSpaceOnUse" gradientTransform="translate(11.9763 59.022) rotate(180) scale(5.00177 6.00201)">
<stop/>
<stop offset="1" stop-opacity="0"/>
</radialGradient>
<linearGradient id="paint10_linear_3139_2731" x1="29.9777" y1="59.0258" x2="29.9777" y2="64.0224" gradientUnits="userSpaceOnUse">
<stop/>
<stop offset="1" stop-opacity="0"/>
</linearGradient>
<radialGradient id="paint11_radial_3139_2731" cx="0" cy="0" r="1" gradientUnits="userSpaceOnUse" gradientTransform="translate(34.9787 5.02329) scale(6.00771 3.00039)">
<stop/>
<stop offset="1" stop-opacity="0"/>
</radialGradient>
<linearGradient id="paint12_linear_3139_2731" x1="42.9793" y1="13.0241" x2="45.9833" y2="10.02" gradientUnits="userSpaceOnUse">
<stop/>
<stop offset="1" stop-opacity="0"/>
</linearGradient>
<radialGradient id="paint13_radial_3139_2731" cx="0" cy="0" r="1" gradientUnits="userSpaceOnUse" gradientTransform="translate(51.98 23.0235) scale(4 6.38885)">
<stop/>
<stop offset="1" stop-opacity="0"/>
</radialGradient>
<linearGradient id="paint14_linear_3139_2731" x1="21.9801" y1="5.0228" x2="21.9801" y2="2.02558" gradientUnits="userSpaceOnUse">
<stop/>
<stop offset="1" stop-opacity="0"/>
</linearGradient>
<radialGradient id="paint15_radial_3139_2731" cx="0" cy="0" r="1" gradientUnits="userSpaceOnUse" gradientTransform="translate(11.9791 5.0228) rotate(-90) scale(3.001 4.00124)">
<stop/>
<stop offset="1" stop-opacity="0"/>
</radialGradient>
<linearGradient id="paint16_linear_3139_2731" x1="51.9787" y1="41.0235" x2="55.9775" y2="41.0235" gradientUnits="userSpaceOnUse">
<stop/>
<stop offset="1" stop-opacity="0"/>
</linearGradient>
<linearGradient id="paint17_linear_3139_2731" x1="11.9792" y1="33.0221" x2="7.98041" y2="33.0221" gradientUnits="userSpaceOnUse">
<stop/>
<stop offset="1" stop-opacity="0"/>
</linearGradient>
<radialGradient id="paint18_radial_3139_2731" cx="0" cy="0" r="1" gradientUnits="userSpaceOnUse" gradientTransform="translate(51.9794 59.0237) rotate(90) scale(5.00177 4.00124)">
<stop/>
<stop offset="1" stop-opacity="0"/>
</radialGradient>
<radialGradient id="paint19_radial_3139_2731" cx="0" cy="0" r="1" gradientUnits="userSpaceOnUse" gradientTransform="translate(11.9784 59.0175) rotate(180) scale(4.00124 5.00177)">
<stop/>
<stop offset="1" stop-opacity="0"/>
</radialGradient>
<linearGradient id="paint20_linear_3139_2731" x1="45.9758" y1="10.025" x2="9.98042" y2="61.0233" gradientUnits="userSpaceOnUse">
<stop stop-color="#EDEDED"/>
<stop offset="1" stop-color="#FCFCFC"/>
</linearGradient>
<radialGradient id="paint21_radial_3139_2731" cx="0" cy="0" r="1" gradientUnits="userSpaceOnUse" gradientTransform="translate(39.9785 17.0267) rotate(180) scale(16.0028 16.0028)">
<stop/>
<stop offset="1" stop-opacity="0"/>
</radialGradient>
<radialGradient id="paint22_radial_3139_2731" cx="0" cy="0" r="1" gradientUnits="userSpaceOnUse" gradientTransform="translate(39.9793 11.0239) rotate(-90) scale(12.0001 16.0001)">
<stop/>
<stop offset="1" stop-opacity="0"/>
</radialGradient>
<linearGradient id="paint23_linear_3139_2731" x1="39.9785" y1="14.357" x2="23.9795" y2="14.357" gradientUnits="userSpaceOnUse">
<stop/>
<stop offset="1" stop-opacity="0"/>
</linearGradient>
<linearGradient id="paint24_linear_3139_2731" x1="39.9785" y1="14.0244" x2="32.9787" y2="14.0244" gradientUnits="userSpaceOnUse">
<stop/>
<stop offset="1" stop-opacity="0"/>
</linearGradient>
<radialGradient id="paint25_radial_3139_2731" cx="0" cy="0" r="1" gradientUnits="userSpaceOnUse" gradientTransform="translate(39.978 17.0242) rotate(180) scale(7.00124 7.02916)">
<stop/>
<stop offset="1" stop-opacity="0"/>
</radialGradient>
<radialGradient id="paint26_radial_3139_2731" cx="0" cy="0" r="1" gradientUnits="userSpaceOnUse" gradientTransform="translate(39.9792 11.0229) rotate(-90) scale(10.4625 7.03869)">
<stop/>
<stop offset="1" stop-opacity="0"/>
</radialGradient>
<linearGradient id="paint27_linear_3139_2731" x1="43.3109" y1="17.0229" x2="43.3109" y2="33.022" gradientUnits="userSpaceOnUse">
<stop/>
<stop offset="1" stop-opacity="0"/>
</linearGradient>
<linearGradient id="paint28_linear_3139_2731" x1="42.9783" y1="17.0229" x2="42.9783" y2="24.0492" gradientUnits="userSpaceOnUse">
<stop/>
<stop offset="1" stop-opacity="0"/>
</linearGradient>
<radialGradient id="paint29_radial_3139_2731" cx="0" cy="0" r="1" gradientUnits="userSpaceOnUse" gradientTransform="translate(45.9793 17.0241) scale(11.4689 7.02797)">
<stop/>
<stop offset="1" stop-opacity="0"/>
</radialGradient>
<radialGradient id="paint30_radial_3139_2731" cx="0" cy="0" r="1" gradientUnits="userSpaceOnUse" gradientTransform="translate(45.979 17.0239) scale(12 16)">
<stop/>
<stop offset="1" stop-opacity="0"/>
</radialGradient>
<linearGradient id="paint31_linear_3139_2731" x1="39.9793" y1="17.0225" x2="45.9793" y2="11.0225" gradientUnits="userSpaceOnUse">
<stop stop-color="#FEFEFE"/>
<stop offset="1" stop-color="#E9E9E9"/>
</linearGradient>
<clipPath id="clip0_3139_2731">
<rect width="64" height="64" fill="white"/>
</clipPath>
<clipPath id="clip1_3139_2731">
<rect width="64" height="64" fill="white"/>
</clipPath>
</defs>
</svg>
