<svg width="64" height="64" viewBox="0 0 64 64" fill="none" xmlns="http://www.w3.org/2000/svg">
<g id="video-webm" clip-path="url(#clip0_1272_5777)">
<g id="Blank-Film ">
<g id="Shadow 2" opacity="0.1">
<path id="Vector" d="M7 52H57V58H7V52Z" fill="url(#paint0_linear_1272_5777)"/>
<path id="Vector_2" d="M7 8H57V12H7V8Z" fill="url(#paint1_linear_1272_5777)"/>
<path id="Vector_3" d="M1 8H6.99823V11.9988H1V8Z" fill="url(#paint2_radial_1272_5777)"/>
<path id="Vector_4" d="M62.9982 8H57V11.9988H62.9982V8Z" fill="url(#paint3_radial_1272_5777)"/>
<path id="Vector_5" d="M57 12H63V52H57V12Z" fill="url(#paint4_linear_1272_5777)"/>
<path id="Vector_6" d="M1 12H7V52H1V12Z" fill="url(#paint5_linear_1272_5777)"/>
<path id="Vector_7" d="M57 52H62.9982V57.9982H57V52Z" fill="url(#paint6_radial_1272_5777)"/>
<path id="Vector_8" d="M1 52H6.99823V57.9982H1V52Z" fill="url(#paint7_radial_1272_5777)"/>
</g>
<g id="Shadow 1" opacity="0.2">
<path id="Vector_9" d="M7 52H57V58H7V52Z" fill="url(#paint8_linear_1272_5777)"/>
<path id="Vector_10" d="M7 8H57V12H7V8Z" fill="url(#paint9_linear_1272_5777)"/>
<path id="Vector_11" d="M6.99823 8H1V11.9988H6.99823V8Z" fill="url(#paint10_radial_1272_5777)"/>
<path id="Vector_12" d="M57 8H62.9982V11.9988H57V8Z" fill="url(#paint11_radial_1272_5777)"/>
<path id="Vector_13" d="M57 12H63V52H57V12Z" fill="url(#paint12_linear_1272_5777)"/>
<path id="Vector_14" d="M1 12H7V52H1V12Z" fill="url(#paint13_linear_1272_5777)"/>
<path id="Vector_15" d="M57 52H62.9982V57.9982H57V52Z" fill="url(#paint14_radial_1272_5777)"/>
<path id="Vector_16" d="M1 52H6.99823V57.9982H1V52Z" fill="url(#paint15_radial_1272_5777)"/>
</g>
<rect id="Paper" x="4" y="8" width="56" height="46" rx="3" fill="url(#paint16_linear_1272_5777)"/>
<g id="Screen">
<rect id="Bg" x="5" y="9" width="54" height="44" rx="2" fill="url(#paint17_radial_1272_5777)"/>
<g id="Birds">
<path d="M31.3716 29.378C31.4287 27.8297 31.9401 27.084 33.5442 25.9309C32.4062 27.5181 32.0192 28.3782 31.922 29.8415C31.9809 29.9237 32.0089 29.9863 32.0958 30.0443C32.1827 30.1022 32.2902 30.0818 32.4145 30.0443C32.456 30.2274 32.3887 30.3504 32.1538 30.5946H31.98V30.7105C31.7529 30.7436 31.6199 30.745 31.3716 30.7105C31.3825 30.639 31.382 30.6011 31.3716 30.5367C31.2468 30.4435 31.1697 30.4152 31.024 30.3919C29.7613 30.4243 28.931 30.8966 27.4321 31.8982C28.4081 30.4903 29.1349 30.0978 30.7344 29.9863V29.7836C30.7532 29.6352 30.8388 29.5832 31.1399 29.5518C31.2492 29.5474 31.302 29.5159 31.3716 29.378Z" fill="black"/>
<path d="M20.7407 35.4901C19.9006 35.7798 19.582 36.1643 18.5681 36.1563C19.0264 36.294 19.3114 36.271 19.8716 36.0694C20.2041 35.8672 20.383 35.7703 20.7407 35.6929C21.1101 35.7921 21.3456 35.8089 21.8124 35.7798C22.0599 35.6456 22.0984 35.5116 22.0442 35.2004C22.397 34.878 22.6599 34.7163 23.2898 34.4762C23.9044 34.1845 24.123 34.0001 24.3036 33.6362C24.0449 33.8978 23.8752 34.0279 23.4636 34.1866C22.643 34.4997 22.2856 34.6927 21.7545 35.0556L21.2621 35.3453L20.7407 35.4901Z" fill="black"/>
<path d="M45.8553 39.0241C44.7545 38.8503 44.291 39.1689 42.8716 39.8062C43.7418 39.4385 44.177 39.2896 44.8414 39.1689C45.1306 39.1279 45.277 39.1394 45.5077 39.2269C45.3377 39.2951 45.262 39.3393 45.1601 39.4296C45.3156 39.4473 45.3927 39.4655 45.5077 39.5165V39.6035C45.8977 39.6879 46.0729 39.6852 46.3187 39.6035C46.5908 39.5154 46.668 39.4149 46.5794 39.082C47.0798 38.8048 47.4399 38.7584 48.2306 38.8793C48.6683 38.9792 48.9201 39.0033 49.3603 38.9662C48.886 38.9079 48.6396 38.8488 48.2306 38.7055C47.3962 38.5606 46.9986 38.6224 46.4056 38.9662C46.2957 38.8737 46.1762 38.8842 45.8553 39.0241Z" fill="black"/>
</g>
</g>
<g id="Sprocket Holes R">
<rect id="Rectangle 15" opacity="0.25" x="53" y="12" width="4" height="4" rx="1" fill="white"/>
<rect id="Rectangle 16" opacity="0.25" x="53" y="19" width="4" height="4" rx="1" fill="white"/>
<rect id="Rectangle 17" opacity="0.25" x="53" y="26" width="4" height="4" rx="1" fill="white"/>
<rect id="Rectangle 18" opacity="0.25" x="53" y="33" width="4" height="4" rx="1" fill="white"/>
<rect id="Rectangle 19" opacity="0.25" x="53" y="40" width="4" height="4" rx="1" fill="white"/>
<rect id="Rectangle 20" opacity="0.25" x="53" y="47" width="4" height="4" rx="1" fill="white"/>
</g>
<g id="Sprocket Holes L">
<rect id="Rectangle 15_2" opacity="0.25" x="7" y="12" width="4" height="4" rx="1" fill="white"/>
<rect id="Rectangle 16_2" opacity="0.25" x="7" y="19" width="4" height="4" rx="1" fill="white"/>
<rect id="Rectangle 17_2" opacity="0.25" x="7" y="26" width="4" height="4" rx="1" fill="white"/>
<rect id="Rectangle 18_2" opacity="0.25" x="7" y="33" width="4" height="4" rx="1" fill="white"/>
<rect id="Rectangle 19_2" opacity="0.25" x="7" y="40" width="4" height="4" rx="1" fill="white"/>
<rect id="Rectangle 20_2" opacity="0.25" x="7" y="47" width="4" height="4" rx="1" fill="white"/>
</g>
<g id="Extension">
<path id="Bg_2" opacity="0.3" d="M5 41L33 41C34.1046 41 35 41.8954 35 43L35 49C35 50.1046 34.1046 51 33 51L5 51L5 41Z" fill="black"/>
</g>
</g>
<path id="Name" d="M9.4087 49L7.81779 43.1818L8.5337 43.1818L9.74961 47.9205L9.80643 47.9205L11.0451 43.1818L11.8405 43.1818L13.0792 47.9205L13.136 47.9205L14.3519 43.1818L15.0678 43.1818L13.4769 49L12.7496 49L11.4655 44.3636L11.4201 44.3636L10.136 49L9.4087 49ZM15.9456 49L15.9456 43.1818L19.457 43.1818L19.457 43.8068L16.6502 43.8068L16.6502 45.7727L19.2752 45.7727L19.2752 46.3977L16.6502 46.3977L16.6502 48.375L19.5025 48.375L19.5025 49L15.9456 49ZM20.7269 49L20.7269 43.1818L22.761 43.1818C23.1663 43.1818 23.5006 43.2519 23.7638 43.392C24.0271 43.5303 24.2231 43.7169 24.3519 43.9517C24.4807 44.1847 24.5451 44.4432 24.5451 44.7273C24.5451 44.9773 24.5006 45.1837 24.4115 45.3466C24.3244 45.5095 24.2089 45.6383 24.065 45.733C23.9229 45.8277 23.7686 45.8977 23.6019 45.9432L23.6019 46C23.7799 46.0114 23.9589 46.0739 24.1388 46.1875C24.3187 46.3011 24.4693 46.464 24.5905 46.6761C24.7117 46.8883 24.7723 47.1477 24.7723 47.4545C24.7723 47.7462 24.7061 48.0085 24.5735 48.2415C24.4409 48.4744 24.2316 48.6591 23.9456 48.7955C23.6596 48.9318 23.2875 49 22.8292 49L20.7269 49ZM21.4314 48.375L22.8292 48.375C23.2894 48.375 23.6161 48.286 23.8093 48.108C24.0043 47.928 24.1019 47.7102 24.1019 47.4545C24.1019 47.2576 24.0517 47.0758 23.9513 46.9091C23.8509 46.7405 23.7079 46.6061 23.5223 46.5057C23.3367 46.4034 23.117 46.3523 22.8632 46.3523L21.4314 46.3523L21.4314 48.375ZM21.4314 45.7386L22.7382 45.7386C22.9504 45.7386 23.1417 45.697 23.3121 45.6136C23.4845 45.5303 23.6208 45.4129 23.7212 45.2614C23.8235 45.1098 23.8746 44.9318 23.8746 44.7273C23.8746 44.4716 23.7856 44.2547 23.6076 44.0767C23.4295 43.8968 23.1473 43.8068 22.761 43.8068L21.4314 43.8068L21.4314 45.7386ZM25.93 43.1818L26.7709 43.1818L28.7482 48.0114L28.8164 48.0114L30.7936 43.1818L31.6346 43.1818L31.6346 49L30.9755 49L30.9755 44.5795L30.9186 44.5795L29.1005 49L28.4641 49L26.6459 44.5795L26.5891 44.5795L26.5891 49L25.93 49L25.93 43.1818Z" fill="white"/>
</g>
<defs>
<linearGradient id="paint0_linear_1272_5777" x1="29.4983" y1="52" x2="29.4983" y2="58" gradientUnits="userSpaceOnUse">
<stop/>
<stop offset="1" stop-opacity="0"/>
</linearGradient>
<linearGradient id="paint1_linear_1272_5777" x1="28.742" y1="12" x2="28.742" y2="8" gradientUnits="userSpaceOnUse">
<stop/>
<stop offset="1" stop-opacity="0"/>
</linearGradient>
<radialGradient id="paint2_radial_1272_5777" cx="0" cy="0" r="1" gradientUnits="userSpaceOnUse" gradientTransform="translate(7.00217 12.0017) rotate(-90) scale(4.00124 5.00177)">
<stop/>
<stop offset="1" stop-opacity="0"/>
</radialGradient>
<radialGradient id="paint3_radial_1272_5777" cx="0" cy="0" r="1" gradientUnits="userSpaceOnUse" gradientTransform="translate(56.9961 12.0017) rotate(-90) scale(4.00124 5.00177)">
<stop/>
<stop offset="1" stop-opacity="0"/>
</radialGradient>
<linearGradient id="paint4_linear_1272_5777" x1="57" y1="31.9979" x2="62.0019" y2="31.9979" gradientUnits="userSpaceOnUse">
<stop/>
<stop offset="1" stop-opacity="0"/>
</linearGradient>
<linearGradient id="paint5_linear_1272_5777" x1="7.00378" y1="32.7405" x2="2.00189" y2="32.7405" gradientUnits="userSpaceOnUse">
<stop/>
<stop offset="1" stop-opacity="0"/>
</linearGradient>
<radialGradient id="paint6_radial_1272_5777" cx="0" cy="0" r="1" gradientUnits="userSpaceOnUse" gradientTransform="translate(56.9955 51.9962) rotate(90) scale(6.00201 5.00177)">
<stop/>
<stop offset="1" stop-opacity="0"/>
</radialGradient>
<radialGradient id="paint7_radial_1272_5777" cx="0" cy="0" r="1" gradientUnits="userSpaceOnUse" gradientTransform="translate(6.99909 51.9962) rotate(180) scale(5.00177 6.00201)">
<stop/>
<stop offset="1" stop-opacity="0"/>
</radialGradient>
<linearGradient id="paint8_linear_1272_5777" x1="29.4983" y1="52" x2="29.4983" y2="56.9981" gradientUnits="userSpaceOnUse">
<stop/>
<stop offset="1" stop-opacity="0"/>
</linearGradient>
<linearGradient id="paint9_linear_1272_5777" x1="28.742" y1="12" x2="28.742" y2="9.00189" gradientUnits="userSpaceOnUse">
<stop/>
<stop offset="1" stop-opacity="0"/>
</linearGradient>
<radialGradient id="paint10_radial_1272_5777" cx="0" cy="0" r="1" gradientUnits="userSpaceOnUse" gradientTransform="translate(7.00184 11.9988) rotate(-90) scale(3.001 4.00124)">
<stop/>
<stop offset="1" stop-opacity="0"/>
</radialGradient>
<radialGradient id="paint11_radial_1272_5777" cx="0" cy="0" r="1" gradientUnits="userSpaceOnUse" gradientTransform="translate(56.9964 11.9988) rotate(-90) scale(3.001 4.00124)">
<stop/>
<stop offset="1" stop-opacity="0"/>
</radialGradient>
<linearGradient id="paint12_linear_1272_5777" x1="57" y1="31.9979" x2="61" y2="31.9979" gradientUnits="userSpaceOnUse">
<stop/>
<stop offset="1" stop-opacity="0"/>
</linearGradient>
<linearGradient id="paint13_linear_1272_5777" x1="7.00378" y1="32.7405" x2="3.00378" y2="32.7405" gradientUnits="userSpaceOnUse">
<stop/>
<stop offset="1" stop-opacity="0"/>
</linearGradient>
<radialGradient id="paint14_radial_1272_5777" cx="0" cy="0" r="1" gradientUnits="userSpaceOnUse" gradientTransform="translate(57.0007 51.998) rotate(90) scale(5.00177 4.00124)">
<stop/>
<stop offset="1" stop-opacity="0"/>
</radialGradient>
<radialGradient id="paint15_radial_1272_5777" cx="0" cy="0" r="1" gradientUnits="userSpaceOnUse" gradientTransform="translate(7.00114 51.9918) rotate(180) scale(4.00124 5.00177)">
<stop/>
<stop offset="1" stop-opacity="0"/>
</radialGradient>
<linearGradient id="paint16_linear_1272_5777" x1="49.0391" y1="14.1331" x2="27.2955" y2="63.0468" gradientUnits="userSpaceOnUse">
<stop stop-color="#FCFCFC"/>
<stop offset="1" stop-color="#EDEDED"/>
</linearGradient>
<radialGradient id="paint17_radial_1272_5777" cx="0" cy="0" r="1" gradientUnits="userSpaceOnUse" gradientTransform="translate(42.9748 9) rotate(93.4282) scale(49.1307 100.712)">
<stop stop-color="#56C2DD"/>
<stop offset="0.604557" stop-color="#ABAEE3"/>
<stop offset="1" stop-color="#FCAEDD"/>
</radialGradient>
<clipPath id="clip0_1272_5777">
<rect width="64" height="64" fill="white"/>
</clipPath>
</defs>
</svg>
