<?xml version="1.0" encoding="UTF-8" standalone="no"?>
<svg xmlns:inkscape="http://www.inkscape.org/namespaces/inkscape" xmlns:sodipodi="http://sodipodi.sourceforge.net/DTD/sodipodi-0.dtd" xmlns:xlink="http://www.w3.org/1999/xlink" xmlns="http://www.w3.org/2000/svg" xmlns:svg="http://www.w3.org/2000/svg" width="64" height="64" viewBox="0 0 64 64" version="1.1" id="svg3" sodipodi:docname="gmail-offline.svg" inkscape:version="1.4.2 (ebf0e940d0, 2025-05-08)">
  <defs id="defs3">
    <linearGradient inkscape:collect="always" xlink:href="#linearGradient1051" id="linearGradient1053" x1="-127" y1="60" x2="-72" y2="5" gradientUnits="userSpaceOnUse" gradientTransform="translate(131.5,-0.50999693)"/>
    <linearGradient inkscape:collect="always" id="linearGradient1051">
      <stop style="stop-color:#dee0e2;stop-opacity:1" offset="0" id="stop1047"/>
      <stop style="stop-color:#f1f3f5;stop-opacity:0.99607843" offset="1" id="stop1049"/>
    </linearGradient>
    <filter inkscape:collect="always" style="color-interpolation-filters:sRGB" id="filter1057" x="-0.026999999" width="1.054" y="-0.026999999" height="1.054">
      <feGaussianBlur inkscape:collect="always" stdDeviation="0.61875" id="feGaussianBlur1059"/>
    </filter>
  <radialGradient id="gradient_ds_br" cx="0" cy="0" r="1" gradientUnits="userSpaceOnUse" gradientTransform="matrix(13.998399,0.00477622,-0.00477841,14.004799,47.5016,48.4952)">
      <stop offset="0.65" id="stop1"/>
      <stop offset="1" stop-opacity="0" id="stop2"/>
    </radialGradient><linearGradient id="gradient_ds_b" x1="30.448999" y1="48.5" x2="30.492201" y2="62.500301" gradientUnits="userSpaceOnUse">
      <stop offset="0.653846" id="stop3"/>
      <stop offset="1" stop-opacity="0" id="stop4"/>
    </linearGradient><radialGradient id="gradient_ds_bl" cx="0" cy="0" r="1" gradientUnits="userSpaceOnUse" gradientTransform="matrix(0,14,-14,0,16.5,48.5)">
      <stop offset="0.65" id="stop5"/>
      <stop offset="1" stop-opacity="0" id="stop6"/>
    </radialGradient><linearGradient id="gradient_ds_r" x1="47.5" y1="33.5" x2="61.5" y2="33.5009" gradientUnits="userSpaceOnUse">
      <stop offset="0.649038" id="stop7"/>
      <stop offset="1" stop-opacity="0" id="stop8"/>
    </linearGradient><linearGradient id="gradient_ds_l" x1="16.5" y1="33.894699" x2="2.5" y2="33.894699" gradientUnits="userSpaceOnUse">
      <stop offset="0.649038" id="stop9"/>
      <stop offset="1" stop-opacity="0" id="stop10"/>
    </linearGradient><radialGradient id="gradient_ds_tr" cx="0" cy="0" r="1" gradientTransform="matrix(0.00843236,-14,14.0084,0.0189842,47.4916,18.5)" gradientUnits="userSpaceOnUse">
      <stop offset="0.65" id="stop11"/>
      <stop offset="1" stop-opacity="0" id="stop12"/>
    </radialGradient><linearGradient id="gradient_ds_t" x1="29.98" y1="18.5" x2="29.9158" y2="4.4998598" gradientUnits="userSpaceOnUse">
      <stop offset="0.649038" id="stop13"/>
      <stop offset="1" stop-opacity="0" id="stop14"/>
    </linearGradient><radialGradient id="gradient_ds_tl" cx="0" cy="0" r="1" gradientTransform="matrix(-0.00843236,-14,-14.0084,0.0189842,16.5084,18.5)" gradientUnits="userSpaceOnUse">
      <stop offset="0.65" id="stop15"/>
      <stop offset="1" stop-opacity="0" id="stop16"/>
    </radialGradient></defs>
  
  <g id="ds" opacity="0.25">
    <path id="ds-br" d="m 47.5,48.5 h 14 v 14 h -14 z" fill="url(#gradient_ds_br)" style="fill:url(#gradient_ds_br)"/>
    <path id="ds-b" d="m 16.5,48.5 h 31 v 14 h -31 z" fill="url(#gradient_ds_b)" style="fill:url(#gradient_ds_b)"/>
    <path id="ds-bl" d="m 2.5,48.5 h 14 v 14 h -14 z" fill="url(#gradient_ds_bl)" style="fill:url(#gradient_ds_bl)"/>
    <path id="ds-r" d="m 47.5,18.5 h 14 v 30 h -14 z" fill="url(#gradient_ds_r)" style="fill:url(#gradient_ds_r)"/>
    <path id="ds-l" d="m 2.5,18.5 h 14 v 30 h -14 z" fill="url(#gradient_ds_l)" style="fill:url(#gradient_ds_l)"/>
    <path id="ds-tr" d="m 47.5,4.5 h 14 v 14 h -14 z" fill="url(#gradient_ds_tr)" style="fill:url(#gradient_ds_tr)"/>
    <path id="ds-t" d="m 16.5,4.5 h 31 v 14 h -31 z" fill="url(#gradient_ds_t)" style="fill:url(#gradient_ds_t)"/>
    <path id="ds-tl" d="m 16.5,4.5 h -14 v 14 h 14 z" fill="url(#gradient_ds_tl)" style="fill:url(#gradient_ds_tl)"/>
  </g><rect style="fill:url(#linearGradient1053);fill-opacity:1;stroke-width:2.74436;stroke-linecap:round" id="bg" width="55" height="55" x="4.5" y="4.5" rx="10"/>
  <g id="art" transform="matrix(2.9838805,0,0,2.9838805,6.7369085,6.736975)">
    <path id="rect3" style="fill:#6a6b6b;fill-opacity:1;stroke-width:0.709276;stroke-linecap:round;stroke-linejoin:round" d="M 4.3891489,8.3183499 0.92604012,5.7070362 v 2.8947079 2.2709179 2.267154 c 0,0.565013 0.45509978,1.019574 1.02011098,1.019574 h 0.7114434 0.7114434 1.020111 V 13.139816 8.6017441 Z"/>
    <path id="path8" style="fill:#808080;fill-opacity:1;stroke-width:0.709276;stroke-linecap:round;stroke-linejoin:round" d="m 4.3891489,3.8103924 v 0.4845125 3.2867276 0.7367174 l 4.0116147,3.0248431 v 0.09948 l 0.066144,-0.04947 0.065606,0.04947 v -0.09948 L 12.544127,8.3183499 V 7.5816325 4.2949049 3.8103924 L 8.4669071,6.8916993 Z"/>
    <path id="path12" style="fill:#808080;fill-opacity:1;stroke-width:0.709276;stroke-linecap:round;stroke-linejoin:round" d="M 2.4774479,2.7736104 A 1.551539,1.551539 0 0 0 0.9281911,4.2949049 h -0.002185 v 0.030652 1.3814795 L 4.3891145,8.3183499 V 7.5816325 4.2949049 3.8103924 L 3.4050323,3.0817412 3.4018063,3.0790564 A 1.551539,1.551539 0 0 0 3.4001413,3.0779845 1.551539,1.551539 0 0 0 2.4773626,2.773618 Z"/>
    <path id="path13" style="fill:#6a6b6b;fill-opacity:1;stroke-width:0.709276;stroke-linecap:round;stroke-linejoin:round" d="M 12.543881,8.3183499 16.00699,5.7070362 v 2.8947079 2.2709179 2.267154 c 0,0.565013 -0.4551,1.019574 -1.020111,1.019574 H 14.275436 13.563992 12.543881 V 13.139816 8.6017441 Z"/>
    <path id="path15" style="fill:#808080;fill-opacity:1;stroke-width:0.709276;stroke-linecap:round;stroke-linejoin:round" d="m 14.455582,2.7736104 a 1.551539,1.551539 0 0 1 1.549257,1.5212945 h 0.0022 v 0.030652 1.3814795 L 12.543881,8.3183499 V 7.5816325 4.2949049 3.8103924 l 0.984083,-0.7286512 0.0032,-0.00268 a 1.551539,1.551539 0 0 1 0.0017,-0.00107 1.551539,1.551539 0 0 1 0.922778,-0.3043665 z"/>
    <path id="path4" style="fill:#6a6b6b;fill-opacity:1;stroke-width:0.709276;stroke-linecap:round;stroke-linejoin:round" d="M 4.3891489,8.3183499 0.92604012,5.7070362 v 2.8947079 2.2709179 2.267154 c 0,0.565013 0.45509978,1.019574 1.02011098,1.019574 h 0.7114434 0.7114434 1.020111 V 13.139816 8.6017441 Z"/>
    <path id="path5" style="fill:#808080;fill-opacity:1;stroke-width:0.709276;stroke-linecap:round;stroke-linejoin:round" d="m 4.3891489,3.8103924 v 0.4845125 3.2867276 0.7367174 l 4.0116147,3.0248431 v 0.09948 l 0.066144,-0.04947 0.065606,0.04947 v -0.09948 L 12.544127,8.3183499 V 7.5816325 4.2949049 3.8103924 L 8.4669071,6.8916993 Z"/>
    <path id="path6" style="fill:#808080;fill-opacity:1;stroke-width:0.709276;stroke-linecap:round;stroke-linejoin:round" d="M 2.4774479,2.7736104 A 1.551539,1.551539 0 0 0 0.9281911,4.2949049 h -0.002185 v 0.030652 1.3814795 L 4.3891145,8.3183499 V 7.5816325 4.2949049 3.8103924 L 3.4050323,3.0817412 3.4018063,3.0790564 A 1.551539,1.551539 0 0 0 3.4001413,3.0779845 1.551539,1.551539 0 0 0 2.4773626,2.773618 Z"/>
    <path id="path7" style="fill:#6a6b6b;fill-opacity:1;stroke-width:0.709276;stroke-linecap:round;stroke-linejoin:round" d="M 12.543881,8.3183499 16.00699,5.7070362 v 2.8947079 2.2709179 2.267154 c 0,0.565013 -0.4551,1.019574 -1.020111,1.019574 H 14.275436 13.563992 12.543881 V 13.139816 8.6017441 Z"/>
    <path id="path9" style="fill:#808080;fill-opacity:1;stroke-width:0.709276;stroke-linecap:round;stroke-linejoin:round" d="m 14.455582,2.7736104 a 1.551539,1.551539 0 0 1 1.549257,1.5212945 h 0.0022 v 0.030652 1.3814795 L 12.543881,8.3183499 V 7.5816325 4.2949049 3.8103924 l 0.984083,-0.7286512 0.0032,-0.00268 a 1.551539,1.551539 0 0 1 0.0017,-0.00107 1.551539,1.551539 0 0 1 0.922778,-0.3043665 z"/>
  </g>
</svg>
