<?xml version="1.0" encoding="UTF-8" standalone="no"?>
<svg xmlns:inkscape="http://www.inkscape.org/namespaces/inkscape" xmlns:sodipodi="http://sodipodi.sourceforge.net/DTD/sodipodi-0.dtd" xmlns="http://www.w3.org/2000/svg" xmlns:svg="http://www.w3.org/2000/svg" xmlns:rdf="http://www.w3.org/1999/02/22-rdf-syntax-ns#" xmlns:cc="http://creativecommons.org/ns#" xmlns:dc="http://purl.org/dc/elements/1.1/" width="64" height="64" version="1.1" viewBox="0 0 64 64" id="svg11" sodipodi:docname="goa-account-exchange.svg" inkscape:version="1.4.2 (ebf0e940d0, 2025-05-08)">
  <sodipodi:namedview id="namedview1" pagecolor="#ffffff" bordercolor="#000000" borderopacity="0.25" inkscape:showpageshadow="2" inkscape:pageopacity="0.0" inkscape:pagecheckerboard="0" inkscape:deskcolor="#d1d1d1" showgrid="true" inkscape:current-layer="svg11">
    <inkscape:grid id="grid1" units="px" originx="0" originy="0" spacingx="0.5" spacingy="0.5" empcolor="#0099e5" empopacity="0.30196078" color="#0099e5" opacity="0.14901961" empspacing="2" enabled="true" visible="true"/>
  </sodipodi:namedview>
  <defs id="defs6">
    <filter id="filter2076-3" x="-0.048" y="-0.048" width="1.096" height="1.096" color-interpolation-filters="sRGB">
      <feGaussianBlur stdDeviation="1.1" id="feGaussianBlur1"/>
    </filter>
    <linearGradient id="linearGradient3750" x1="86.345001" x2="97.987999" y1="58.764999" y2="56.894001" gradientTransform="matrix(0.32147027,0,-0.04934648,0.47853541,13.553653,3.6265278)" gradientUnits="userSpaceOnUse">
      <stop offset="0" id="stop1"/>
      <stop stop-opacity=".054902" offset=".8249" id="stop2"/>
      <stop stop-opacity=".027451" offset=".90864" id="stop3"/>
      <stop stop-opacity=".019608" offset=".92884" id="stop4"/>
      <stop stop-opacity=".011765" offset=".95191" id="stop5"/>
      <stop stop-opacity="0" offset="1" id="stop6"/>
    </linearGradient>
    <filter id="filter2076-3-3" x="-0.048000001" y="-0.048000001" width="1.096" height="1.096" color-interpolation-filters="sRGB">
      <feGaussianBlur stdDeviation="1.1" id="feGaussianBlur1-6"/>
    </filter>
  <radialGradient id="gradient_ds_br" cx="0" cy="0" r="1" gradientUnits="userSpaceOnUse" gradientTransform="matrix(13.998399,0.00477622,-0.00477841,14.004799,47.5016,48.4952)">
      <stop offset="0.65" id="stop1"/>
      <stop offset="1" stop-opacity="0" id="stop2"/>
    </radialGradient><linearGradient id="gradient_ds_b" x1="30.448999" y1="48.5" x2="30.492201" y2="62.500301" gradientUnits="userSpaceOnUse">
      <stop offset="0.653846" id="stop3"/>
      <stop offset="1" stop-opacity="0" id="stop4"/>
    </linearGradient><radialGradient id="gradient_ds_bl" cx="0" cy="0" r="1" gradientUnits="userSpaceOnUse" gradientTransform="matrix(0,14,-14,0,16.5,48.5)">
      <stop offset="0.65" id="stop5"/>
      <stop offset="1" stop-opacity="0" id="stop6"/>
    </radialGradient><linearGradient id="gradient_ds_r" x1="47.5" y1="33.5" x2="61.5" y2="33.5009" gradientUnits="userSpaceOnUse">
      <stop offset="0.649038" id="stop7"/>
      <stop offset="1" stop-opacity="0" id="stop8"/>
    </linearGradient><linearGradient id="gradient_ds_l" x1="16.5" y1="33.894699" x2="2.5" y2="33.894699" gradientUnits="userSpaceOnUse">
      <stop offset="0.649038" id="stop9"/>
      <stop offset="1" stop-opacity="0" id="stop10"/>
    </linearGradient><radialGradient id="gradient_ds_tr" cx="0" cy="0" r="1" gradientTransform="matrix(0.00843236,-14,14.0084,0.0189842,47.4916,18.5)" gradientUnits="userSpaceOnUse">
      <stop offset="0.65" id="stop11"/>
      <stop offset="1" stop-opacity="0" id="stop12"/>
    </radialGradient><linearGradient id="gradient_ds_t" x1="29.98" y1="18.5" x2="29.9158" y2="4.4998598" gradientUnits="userSpaceOnUse">
      <stop offset="0.649038" id="stop13"/>
      <stop offset="1" stop-opacity="0" id="stop14"/>
    </linearGradient><radialGradient id="gradient_ds_tl" cx="0" cy="0" r="1" gradientTransform="matrix(-0.00843236,-14,-14.0084,0.0189842,16.5084,18.5)" gradientUnits="userSpaceOnUse">
      <stop offset="0.65" id="stop15"/>
      <stop offset="1" stop-opacity="0" id="stop16"/>
    </radialGradient></defs>
  <metadata id="metadata6">
    <rdf:RDF>
      <cc:Work rdf:about="">
        <dc:format>image/svg+xml</dc:format>
        <dc:type rdf:resource="http://purl.org/dc/dcmitype/StillImage"/>
      </cc:Work>
    </rdf:RDF>
  </metadata>
  
  <g id="ds" opacity="0.25">
    <path id="ds-br" d="m 47.5,48.5 h 14 v 14 h -14 z" fill="url(#gradient_ds_br)" style="fill:url(#gradient_ds_br)"/>
    <path id="ds-b" d="m 16.5,48.5 h 31 v 14 h -31 z" fill="url(#gradient_ds_b)" style="fill:url(#gradient_ds_b)"/>
    <path id="ds-bl" d="m 2.5,48.5 h 14 v 14 h -14 z" fill="url(#gradient_ds_bl)" style="fill:url(#gradient_ds_bl)"/>
    <path id="ds-r" d="m 47.5,18.5 h 14 v 30 h -14 z" fill="url(#gradient_ds_r)" style="fill:url(#gradient_ds_r)"/>
    <path id="ds-l" d="m 2.5,18.5 h 14 v 30 h -14 z" fill="url(#gradient_ds_l)" style="fill:url(#gradient_ds_l)"/>
    <path id="ds-tr" d="m 47.5,4.5 h 14 v 14 h -14 z" fill="url(#gradient_ds_tr)" style="fill:url(#gradient_ds_tr)"/>
    <path id="ds-t" d="m 16.5,4.5 h 31 v 14 h -31 z" fill="url(#gradient_ds_t)" style="fill:url(#gradient_ds_t)"/>
    <path id="ds-tl" d="m 16.5,4.5 h -14 v 14 h 14 z" fill="url(#gradient_ds_tl)" style="fill:url(#gradient_ds_tl)"/>
  </g><rect x="4.5" y="4.5" width="55" height="55" rx="10" fill="#007dcd" stroke-width="1.00001" id="bg"/>
  <g id="art">
    <rect x="6.6709967" y="6.999824" width="50.000355" height="50.000355" rx="8.0001755" ry="8.0001755" fill="#e2e4e6" stroke-width="0.90907" id="rect8"/>
    <path d="m 17.499558,4.4999939 c -7.203166,0 -13.0018313,5.7986651 -13.0018313,13.0018311 v 28.995972 c 0,7.203166 5.7990433,13.001831 13.0018313,13.001831 H 40.2864 V 4.49886 Z" fill="#007dcd" stroke-width="1.00001" id="path8"/>
    <path d="m 41.537826,16.465458 -0.0091,5.743861 -5.743861,-0.0091 -0.0049,3.471186 5.743861,0.0091 -0.0091,5.743861 3.471186,0.0053 0.0091,-5.743861 5.744239,0.0091 0.0049,-3.471186 -5.744239,-0.0091 0.0091,-5.743861 z m -5.788082,27.574842 -0.0049,3.471187 14.958909,0.02381 0.0049,-3.471186 z" fill="#007dcd" stroke-width="0.173559" id="path9"/>
    <path d="M 40.286778,6.9998226 V 57.000177 l 3.703783,0.393722 c 1.105194,0.113501 2.194286,-1.133881 2.441888,-2.79649 l 6.444977,-43.261325 c 0.2477,-1.6626843 -0.44278,-3.0923944 -1.548012,-3.2060092 z" fill="url(#linearGradient3750)" stroke-width="1.1024" id="path10" style="fill:url(#linearGradient3750)"/>
    <path d="M 30.531625,24.791921 H 19.208694 v 5.39009 h 10.757125 v 3.455917 H 19.208694 v 5.598347 h 11.813902 v 3.44042 H 15.022784 V 21.32081 h 15.508841 z" fill="#ffffff" stroke-width="0.649978" id="path11"/>
  </g>
</svg>
