<?xml version="1.0" encoding="UTF-8" standalone="no"?>
<svg xmlns:inkscape="http://www.inkscape.org/namespaces/inkscape" xmlns:sodipodi="http://sodipodi.sourceforge.net/DTD/sodipodi-0.dtd" xmlns="http://www.w3.org/2000/svg" xmlns:svg="http://www.w3.org/2000/svg" width="64" height="64" version="1.1" id="svg1" sodipodi:docname="foot.svg" inkscape:version="1.4.2 (ebf0e940d0, 2025-05-08)">
  <sodipodi:namedview id="namedview1" pagecolor="#ffffff" bordercolor="#000000" borderopacity="0.25" inkscape:showpageshadow="2" inkscape:pageopacity="0.0" inkscape:pagecheckerboard="0" inkscape:deskcolor="#d1d1d1" inkscape:current-layer="svg1"/>
  <defs id="defs1">
    <filter id="filter1057-9" x="-0.026999999" y="-0.026999999" width="1.054" height="1.054" color-interpolation-filters="sRGB">
      <feGaussianBlur stdDeviation="0.61875" id="feGaussianBlur1"/>
    </filter>
    <linearGradient id="linearGradient1053-1" x1="-127" x2="-72" y1="60" y2="5" gradientTransform="matrix(1.0000071,0,0,1.0000071,131.49576,-0.51035921)" gradientUnits="userSpaceOnUse">
      <stop stop-color="#1d2123" offset="0" id="stop1"/>
      <stop stop-color="#33393e" stop-opacity=".99608" offset="1" id="stop2"/>
    </linearGradient>
    <filter inkscape:collect="always" style="color-interpolation-filters:sRGB" id="filter1057" x="-0.026999999" width="1.054" y="-0.026999999" height="1.054">
      <feGaussianBlur inkscape:collect="always" stdDeviation="0.61875" id="feGaussianBlur1059"/>
    </filter>
  <radialGradient id="gradient_ds_br" cx="0" cy="0" r="1" gradientUnits="userSpaceOnUse" gradientTransform="matrix(13.998399,0.00477622,-0.00477841,14.004799,47.5016,48.4952)">
      <stop offset="0.65" id="stop1"/>
      <stop offset="1" stop-opacity="0" id="stop2"/>
    </radialGradient><linearGradient id="gradient_ds_b" x1="30.448999" y1="48.5" x2="30.492201" y2="62.500301" gradientUnits="userSpaceOnUse">
      <stop offset="0.653846" id="stop3"/>
      <stop offset="1" stop-opacity="0" id="stop4"/>
    </linearGradient><radialGradient id="gradient_ds_bl" cx="0" cy="0" r="1" gradientUnits="userSpaceOnUse" gradientTransform="matrix(0,14,-14,0,16.5,48.5)">
      <stop offset="0.65" id="stop5"/>
      <stop offset="1" stop-opacity="0" id="stop6"/>
    </radialGradient><linearGradient id="gradient_ds_r" x1="47.5" y1="33.5" x2="61.5" y2="33.5009" gradientUnits="userSpaceOnUse">
      <stop offset="0.649038" id="stop7"/>
      <stop offset="1" stop-opacity="0" id="stop8"/>
    </linearGradient><linearGradient id="gradient_ds_l" x1="16.5" y1="33.894699" x2="2.5" y2="33.894699" gradientUnits="userSpaceOnUse">
      <stop offset="0.649038" id="stop9"/>
      <stop offset="1" stop-opacity="0" id="stop10"/>
    </linearGradient><radialGradient id="gradient_ds_tr" cx="0" cy="0" r="1" gradientTransform="matrix(0.00843236,-14,14.0084,0.0189842,47.4916,18.5)" gradientUnits="userSpaceOnUse">
      <stop offset="0.65" id="stop11"/>
      <stop offset="1" stop-opacity="0" id="stop12"/>
    </radialGradient><linearGradient id="gradient_ds_t" x1="29.98" y1="18.5" x2="29.9158" y2="4.4998598" gradientUnits="userSpaceOnUse">
      <stop offset="0.649038" id="stop13"/>
      <stop offset="1" stop-opacity="0" id="stop14"/>
    </linearGradient><radialGradient id="gradient_ds_tl" cx="0" cy="0" r="1" gradientTransform="matrix(-0.00843236,-14,-14.0084,0.0189842,16.5084,18.5)" gradientUnits="userSpaceOnUse">
      <stop offset="0.65" id="stop15"/>
      <stop offset="1" stop-opacity="0" id="stop16"/>
    </radialGradient></defs>
  
  <g id="ds" opacity="0.25">
    <path id="ds-br" d="m 47.5,48.5 h 14 v 14 h -14 z" fill="url(#gradient_ds_br)" style="fill:url(#gradient_ds_br)"/>
    <path id="ds-b" d="m 16.5,48.5 h 31 v 14 h -31 z" fill="url(#gradient_ds_b)" style="fill:url(#gradient_ds_b)"/>
    <path id="ds-bl" d="m 2.5,48.5 h 14 v 14 h -14 z" fill="url(#gradient_ds_bl)" style="fill:url(#gradient_ds_bl)"/>
    <path id="ds-r" d="m 47.5,18.5 h 14 v 30 h -14 z" fill="url(#gradient_ds_r)" style="fill:url(#gradient_ds_r)"/>
    <path id="ds-l" d="m 2.5,18.5 h 14 v 30 h -14 z" fill="url(#gradient_ds_l)" style="fill:url(#gradient_ds_l)"/>
    <path id="ds-tr" d="m 47.5,4.5 h 14 v 14 h -14 z" fill="url(#gradient_ds_tr)" style="fill:url(#gradient_ds_tr)"/>
    <path id="ds-t" d="m 16.5,4.5 h 31 v 14 h -31 z" fill="url(#gradient_ds_t)" style="fill:url(#gradient_ds_t)"/>
    <path id="ds-tl" d="m 16.5,4.5 h -14 v 14 h 14 z" fill="url(#gradient_ds_tl)" style="fill:url(#gradient_ds_tl)"/>
  </g><rect y="4.5" x="4.5" height="55" width="55" id="bg" style="fill:url(#linearGradient1053-1);fill-opacity:1;stroke-width:2.74444;stroke-linecap:round;font-variation-settings:normal;opacity:1;vector-effect:none;stroke-linejoin:miter;stroke-miterlimit:4;stroke-dasharray:none;stroke-dashoffset:0;stroke-opacity:1;-inkscape-stroke:none;stop-color:#000000;stop-opacity:1" rx="10"/>
  <g id="art"><path fill="#f6e390" d="m 22.872919,20.824 a 1.37,1.62 0 0 0 -1.371,1.623 1.37,1.62 0 0 0 1.371,1.617 1.37,1.62 0 0 0 1.371,-1.617 1.37,1.62 0 0 0 -1.371,-1.623 z m 2.59,1.084 a 0.9,1.08 0 0 0 -0.862,1.078 0.9,1.08 0 0 0 0.903,1.078 0.9,1.08 0 0 0 0.902,-1.078 0.9,1.08 0 0 0 -0.902,-1.078 0.9,1.08 0 0 0 -0.041,0 z m 1.998,1.236 a 0.72,0.819 0 0 0 -0.698,0.82 0.72,0.819 0 0 0 0.721,0.82 0.72,0.819 0 0 0 0.72,-0.82 0.72,0.819 0 0 0 -0.72,-0.82 0.72,0.819 0 0 0 -0.023,0 z m 1.558,1.277 a 0.584,0.643 0 0 0 -0.545,0.645 0.584,0.643 0 0 0 0.58,0.644 0.584,0.643 0 0 0 0.586,-0.644 0.584,0.643 0 0 0 -0.586,-0.645 0.584,0.643 0 0 0 -0.035,0 z m -6.304,0.58 c -0.877,0.014 -1.457,0.25 -2.016,0.868 -1.021,1.128 -0.813,2.733 0.528,4.107 2.907,2.978 3.256,4.972 0.474,7.224 -1.145,0.927 -1.974,3.106 -1.617,4.247 0.45,1.438 2.163,1.99 3.656,1.178 1.4,-0.76 2.984,-3.365 4.066,-6.474 0.09,-0.26 0.181,-0.52 0.264,-0.785 0.248,-0.797 0.459,-1.62 0.627,-2.443 0.507,-2.49 0.383,-4.425 -0.358,-5.59 -0.462,-0.727 -2.176,-1.664 -3.661,-2.08 a 6.101,6.101 0 0 0 -0.979,-0.199 8.28,8.28 0 0 0 -0.984,-0.053 z m 7.148,0.862 a 0.48,0.54 0 0 0 -0.463,0.539 0.48,0.54 0 0 0 0.48,0.539 0.48,0.54 0 0 0 0.48,-0.54 0.48,0.54 0 0 0 -0.48,-0.538 0.48,0.54 0 0 0 -0.017,0 z m 2.137,14.735 V 43 h 12 v -2.402 z" id="path2"/></g>
</svg>
