<svg width="16" height="16" viewBox="0 0 16 16" fill="none" xmlns="http://www.w3.org/2000/svg">
<g id="folder-bookmark" clip-path="url(#clip0_58_157)">
<path id="Glyph (Stroke)" d="M6.76013 1.38453C7.15244 0.205158 8.84784 0.205155 9.24015 1.38453L10.4586 5.04826C10.4963 5.16164 10.609 5.2475 10.7458 5.24751H14.6903C15.933 5.24751 16.4994 6.83063 15.4539 7.57311L12.2623 9.83816C12.1575 9.91248 12.1183 10.0392 12.1554 10.1507L13.3748 13.8144C13.7794 15.0305 12.3665 15.9616 11.3722 15.2561L8.18051 12.9911C8.0736 12.9153 7.92673 12.9154 7.81977 12.9911L4.62809 15.2561C3.6338 15.9617 2.22092 15.0305 2.62545 13.8144L3.84389 10.1507C3.88097 10.0392 3.84273 9.91249 3.73803 9.83816L0.546345 7.57311C-0.499194 6.83077 0.0665504 5.24789 1.30898 5.24751H5.25447C5.39113 5.24739 5.50399 5.16157 5.54168 5.04826L6.76013 1.38453ZM8.28735 1.69904C8.19908 1.43367 7.8012 1.43366 7.71293 1.69904L6.49448 5.36374C6.31726 5.89626 5.813 6.24756 5.25447 6.24769H1.30898C0.99712 6.24803 0.916907 6.60792 1.12861 6.75852L4.32029 9.02356C4.77822 9.34857 4.97453 9.93061 4.79669 10.4652L3.57825 14.1299C3.53642 14.256 3.57946 14.3672 3.68411 14.4415C3.79019 14.5168 3.92486 14.5274 4.04583 14.4415L7.23751 12.1765C7.69299 11.8535 8.30734 11.8534 8.76277 12.1765L11.9545 14.4415C12.0754 14.5273 12.2101 14.5168 12.3162 14.4415C12.4207 14.3672 12.4638 14.2559 12.422 14.1299L11.2026 10.4652C11.0248 9.93059 11.222 9.34856 11.68 9.02356L14.8717 6.75852C15.0833 6.60778 15.0025 6.24769 14.6903 6.24769H10.7458C10.1872 6.24767 9.68308 5.8963 9.5058 5.36374L8.28735 1.69904Z" fill="black"/>
</g>
<defs>
<clipPath id="clip0_58_157">
<rect width="16" height="16" fill="white"/>
</clipPath>
</defs>
</svg>
