<svg width="16" height="16" viewBox="0 0 16 16" fill="none" xmlns="http://www.w3.org/2000/svg">
<g id="folder-public">
<path id="Glyph" d="M12 0.5C13.3807 0.5 14.5 1.61929 14.5 3C14.5 4.38071 13.3807 5.5 12 5.5C11.3793 5.5 10.8131 5.27192 10.376 4.89746L6.41699 7.37207C6.46904 7.57297 6.5 7.78283 6.5 8C6.5 8.21684 6.46888 8.42633 6.41699 8.62695L10.376 11.1006C10.8129 10.7266 11.3798 10.5 12 10.5C13.3807 10.5 14.5 11.6193 14.5 13C14.5 14.3807 13.3807 15.5 12 15.5C10.6193 15.5 9.5 14.3807 9.5 13C9.5 12.7832 9.53018 12.5736 9.58203 12.373L5.62305 9.89844C5.18609 10.2724 4.62019 10.5 4 10.5C2.61929 10.5 1.5 9.38071 1.5 8C1.5 6.61929 2.61929 5.5 4 5.5C4.61997 5.5 5.18616 5.72691 5.62305 6.10059L9.58203 3.62598C9.53033 3.4257 9.5 3.21643 9.5 3C9.5 1.61929 10.6193 0.5 12 0.5Z" fill="black"/>
</g>
</svg>
