<svg width="16" height="16" viewBox="0 0 16 16" fill="none" xmlns="http://www.w3.org/2000/svg">
<g id="folder-remote">
<path id="Glyph" d="M7.99948 3.00006C4.9787 3.00006 2.12558 4.28851 0.170959 6.53559C0.0815276 6.63848 0.0243769 6.76394 0.0062368 6.89717C-0.0119033 7.0304 0.00972252 7.16587 0.0685678 7.28762C0.127413 7.40938 0.221028 7.51235 0.338389 7.58441C0.45575 7.65647 0.591971 7.69462 0.731013 7.69437C0.939263 7.69437 1.14592 7.60898 1.29068 7.44317C2.96575 5.51707 5.41145 4.41164 7.99955 4.41164C10.5877 4.41164 13.0333 5.51751 14.7084 7.44317C14.8528 7.61013 15.0594 7.69475 15.2681 7.69475C15.4073 7.69531 15.5438 7.65732 15.6614 7.58527C15.779 7.51322 15.8728 7.41013 15.9316 7.28819C15.9905 7.16624 16.012 7.03056 15.9936 6.89717C15.9752 6.76379 15.9176 6.6383 15.8277 6.53553C13.8738 4.28845 11.0207 3.00006 7.99948 3.00006ZM7.99948 5.99005C5.84212 5.99005 3.80419 6.911 2.40843 8.51537C2.34672 8.58633 2.30007 8.66834 2.27115 8.75672C2.24223 8.8451 2.23161 8.93812 2.2399 9.03046C2.24818 9.12281 2.27521 9.21268 2.31943 9.29493C2.36366 9.37718 2.42422 9.4502 2.49765 9.50983C2.57108 9.56946 2.65594 9.61453 2.7474 9.64245C2.83885 9.67038 2.9351 9.68062 3.03065 9.67259C3.12619 9.66455 3.21917 9.63841 3.30426 9.59565C3.38935 9.55288 3.4649 9.49434 3.52657 9.42335C4.07385 8.79091 4.75796 8.28214 5.53071 7.93288C6.30346 7.58363 7.14605 7.40239 7.99912 7.40193C9.72505 7.40193 11.3556 8.13914 12.4725 9.42335C12.6168 9.59032 12.8243 9.67493 13.0321 9.67493C13.1711 9.67489 13.3071 9.6365 13.4243 9.56428C13.5414 9.49206 13.6348 9.389 13.6935 9.26724C13.7521 9.14547 13.7735 9.01006 13.7552 8.87693C13.7369 8.7438 13.6797 8.61848 13.5902 8.51572C12.194 6.91092 10.1576 5.99005 7.99948 5.99005ZM7.99948 9.09669C7.35972 9.09649 6.7277 9.23193 6.14799 9.49347C5.56828 9.755 5.05499 10.1363 4.6443 10.6104C4.5826 10.6814 4.53599 10.7635 4.50715 10.8519C4.47831 10.9403 4.4678 11.0334 4.47622 11.1258C4.48465 11.2182 4.51184 11.308 4.55625 11.3902C4.60066 11.4725 4.66141 11.5454 4.73502 11.6049C4.80821 11.665 4.893 11.7104 4.98449 11.7387C5.07597 11.7669 5.17234 11.7773 5.26802 11.7693C5.3637 11.7614 5.45679 11.7351 5.54193 11.6922C5.62706 11.6492 5.70254 11.5904 5.76402 11.5191C6.03753 11.203 6.37947 10.9487 6.76573 10.7741C7.15198 10.5996 7.57316 10.5091 7.99954 10.509C8.86211 10.509 9.67691 10.8768 10.2359 11.5191C10.2974 11.5902 10.3729 11.6489 10.458 11.6917C10.5431 11.7345 10.6361 11.7607 10.7317 11.7687C10.8273 11.7766 10.9236 11.7663 11.015 11.7382C11.1065 11.71 11.1912 11.6648 11.2645 11.6049C11.3381 11.5454 11.3988 11.4725 11.4432 11.3902C11.4877 11.308 11.5148 11.2182 11.5233 11.1258C11.5317 11.0334 11.5212 10.9403 11.4923 10.8519C11.4635 10.7635 11.4169 10.6814 11.3552 10.6104C10.9445 10.1362 10.4311 9.75491 9.8513 9.49337C9.2715 9.23184 8.63932 9.09643 7.99948 9.09669ZM7.93717 11.7768C7.36608 11.8301 6.81627 12.2426 6.79734 12.8574C6.80266 13.1622 6.93168 13.4528 7.15658 13.6665C7.38148 13.8802 7.68426 14 7.99967 14C8.31508 14 8.61786 13.8802 8.84276 13.6665C9.06767 13.4528 9.19668 13.1622 9.20201 12.8574C9.10065 12.0322 8.50871 11.7242 7.93717 11.7768Z" fill="black"/>
</g>
</svg>
