<svg width="16" height="16" viewBox="0 0 16 16" fill="none" xmlns="http://www.w3.org/2000/svg">
<g id="folder-images">
<g id="Glyph">
<path d="M4.5 4C3.67157 4 3 4.67157 3 5.5C3 6.32843 3.67157 7 4.5 7C5.32843 7 6 6.32843 6 5.5C6 4.67157 5.32843 4 4.5 4Z" fill="black"/>
<path fill-rule="evenodd" clip-rule="evenodd" d="M0 3C0 1.892 0.892 1 2 1H14C15.108 1 16 1.892 16 3V13C16 14.108 15.108 15 14 15H2C0.892 15 0 14.108 0 13V3ZM14 2H2C1.446 2 1 2.446 1 3V13L3 11C3.47767 10.5223 3.72717 10.2728 3.99486 10.2515C4.28756 10.2282 4.60201 10.4777 5.2603 11L6.5206 12L9.13015 9C10 8 10.5 8.5 11 9L15 13V3C15 2.446 14.554 2 14 2ZM4.5 4C3.67157 4 3 4.67157 3 5.5C3 6.32843 3.67157 7 4.5 7C5.32843 7 6 6.32843 6 5.5C6 4.67157 5.32843 4 4.5 4Z" fill="black"/>
</g>
</g>
</svg>
