<svg width="16" height="16" viewBox="0 0 16 16" fill="none" xmlns="http://www.w3.org/2000/svg">
<g id="folder-music">
<path id="Glyph" d="M13.375 0L5.9976 1.9053C5.44338 2.05366 4.9967 2.64367 4.9967 3.2169V12.3061C4.4347 12.0121 3.7128 11.8931 2.9645 12.0874C1.6142 12.4379 0.767896 13.5712 1.0574 14.6177C1.34685 15.6642 2.6777 16.2486 4.028 15.8981C5.1053 15.6184 5.848 14.8271 5.9664 13.9928L5.99768 5.40356L12.9998 3.52946V10.3071C12.4378 10.0131 11.7167 9.89407 10.9684 10.0883C9.61808 10.4388 8.77178 11.5721 9.06128 12.6186C9.35073 13.6651 10.6807 14.2495 12.031 13.899C13.1083 13.6194 13.851 12.828 13.9694 11.9937L14.0007 0.81272C14.0007 0.38279 13.7343 0.06048 13.375 0Z" fill="black"/>
</g>
</svg>
