<svg width="16" height="16" viewBox="0 0 16 16" fill="none" xmlns="http://www.w3.org/2000/svg">
<path d="M10.5355 3.46447C10.0712 3.00017 9.52004 2.63188 8.91342 2.3806C8.30679 2.12933 7.65661 2 7 2C5.67392 2 4.40215 2.52678 3.46447 3.46447C2.52678 4.40215 2 5.67392 2 7C2 7.65661 2.12933 8.30679 2.3806 8.91342C2.63188 9.52005 3.00017 10.0712 3.46447 10.5355C4.40215 11.4732 5.67392 12 7 12C8.32608 12 9.59785 11.4732 10.5355 10.5355C11.4732 9.59785 12 8.32608 12 7C12 5.67392 11.4732 4.40215 10.5355 3.46447ZM9.82843 4.17157C10.5786 4.92172 11 5.93913 11 7C11 8.06087 10.5786 9.07828 9.82843 9.82843C9.07828 10.5786 8.06087 11 7 11C5.93913 11 4.92172 10.5786 4.17157 9.82843C3.42143 9.07828 3 8.06087 3 7C3 5.93913 3.42143 4.92172 4.17157 4.17157C4.92172 3.42143 5.93913 3 7 3C8.06087 3 9.07828 3.42143 9.82843 4.17157Z" fill="#363636"/>
<path d="M14.6995 13.9923C14.8877 14.1881 14.8862 14.499 14.6933 14.6918C14.498 14.8868 14.1814 14.8868 13.9862 14.6918L14.4246 15.1317L9.47491 10.182L10.182 9.47485L14.6995 13.9923Z" fill="#363636"/>
<path d="M7.75 8.4L12.5 3.6L10.4 1.5L5.65 6.25L5.5 8.5L7.75 8.4Z" stroke="#363636" stroke-linecap="round" stroke-linejoin="round"/>
</svg>
