<svg width="64" height="64" viewBox="0 0 64 64" fill="none" xmlns="http://www.w3.org/2000/svg">
<g id="application-audio-playlist" clip-path="url(#clip0_1146_25892)">
<g id="Blank-File" clip-path="url(#clip1_1146_25892)">
<g id="Shadow 2" opacity="0.1">
<path id="Vector" d="M11.9792 59.0257H51.9787V65.024H11.9792V59.0257Z" fill="url(#paint0_linear_1146_25892)"/>
<path id="Vector_2" d="M34.979 1.024V8.024L41.979 1.024H34.979Z" fill="url(#paint1_radial_1146_25892)"/>
<path id="Vector_3" d="M41.979 1.024L34.979 8.024L48.979 23.024L57.979 14.024V4.569L54.434 1.024H41.979Z" fill="url(#paint2_linear_1146_25892)"/>
<path id="Vector_4" d="M57.979 14.024L48.979 23.024H57.979V14.024Z" fill="url(#paint3_radial_1146_25892)"/>
<path id="Vector_5" d="M11.9792 1.024H34.9781V5.02282H11.9792V1.024Z" fill="url(#paint4_linear_1146_25892)"/>
<path id="Vector_6" d="M5.97722 1.024H11.9754V5.02282H5.97722V1.024Z" fill="url(#paint5_radial_1146_25892)"/>
<path id="Vector_7" d="M51.9787 23.0251H57.977V59.0257H51.9787V23.0251Z" fill="url(#paint6_linear_1146_25892)"/>
<path id="Vector_8" d="M5.97722 5.02282H11.9754V59.022H5.97722V5.02282Z" fill="url(#paint7_linear_1146_25892)"/>
<path id="Vector_9" d="M51.9787 59.0257H57.977V65.024H51.9787V59.0257Z" fill="url(#paint8_radial_1146_25892)"/>
<path id="Vector_10" d="M5.97722 59.0257H11.9754V65.024H5.97722V59.0257Z" fill="url(#paint9_radial_1146_25892)"/>
</g>
<g id="Shadow 1" opacity="0.2">
<path id="Vector_11" d="M11.9792 59.0257H51.9787V65.024H11.9792V59.0257Z" fill="url(#paint10_linear_1146_25892)"/>
<path id="Vector_12" d="M34.9792 1.024V8.02405L41.9793 1.024H34.9792Z" fill="url(#paint11_radial_1146_25892)"/>
<path id="Vector_13" d="M41.9793 1.024L34.9792 8.02405L48.9793 23.0241L57.9794 14.0241V4.56902L54.4343 1.024H41.9793Z" fill="url(#paint12_linear_1146_25892)"/>
<path id="Vector_14" d="M57.9794 14.0241L48.9793 23.0241H57.9794V14.0241Z" fill="url(#paint13_radial_1146_25892)"/>
<path id="Vector_15" d="M11.9792 1.024H34.9781V5.02282H11.9792V1.024Z" fill="url(#paint14_linear_1146_25892)"/>
<path id="Vector_16" d="M11.9754 1.024H5.97722V5.02282H11.9754V1.024Z" fill="url(#paint15_radial_1146_25892)"/>
<path id="Vector_17" d="M51.9787 23.0251H57.977V59.0257H51.9787V23.0251Z" fill="url(#paint16_linear_1146_25892)"/>
<path id="Vector_18" d="M5.97722 5.02282H11.9754V59.022H5.97722V5.02282Z" fill="url(#paint17_linear_1146_25892)"/>
<path id="Vector_19" d="M51.9787 59.0257H57.977V65.024H51.9787V59.0257Z" fill="url(#paint18_radial_1146_25892)"/>
<path id="Vector_20" d="M5.97722 59.0257H11.9754V65.024H5.97722V59.0257Z" fill="url(#paint19_radial_1146_25892)"/>
</g>
<path id="Paper" d="M10.9776 2.02557C10.4477 2.02657 9.93969 2.23754 9.56494 2.61229C9.1902 2.98704 8.97922 3.49501 8.97823 4.02498V60.0235C8.97823 61.131 9.87021 62.0229 10.9814 62.0229H52.9766C54.0878 62.0229 54.9797 61.131 54.9797 60.0198V21.0256C54.9797 20.024 54.3674 18.4177 52.9766 17.023L39.9747 4.0212C39.508 3.40374 38.905 2.90239 38.2127 2.55624C37.5204 2.21009 36.7575 2.02848 35.9835 2.02557H10.9776Z" fill="url(#paint20_linear_1146_25892)"/>
</g>
<g id="Pages">
<path id="Vector_21" opacity="0.1" d="M54.975 58.9961C54.9752 59.5269 54.7646 60.0362 54.3896 60.4119C54.0146 60.7876 53.5058 60.9991 52.975 61H10.977C9.86958 61 8.97308 60.1074 8.97308 59V60C8.97308 61.1074 9.86956 61.998 10.977 61.998H52.975C53.5055 61.9971 54.014 61.7859 54.389 61.4106C54.7639 61.0352 54.9747 60.5265 54.975 59.996V58.9961Z" fill="black"/>
<path id="Vector_22" opacity="0.1" d="M54.975 56.9961C54.9752 57.5269 54.7646 58.0362 54.3896 58.4119C54.0146 58.7876 53.5058 58.9991 52.975 59H10.977C9.86958 59 8.97308 58.1074 8.97308 57V58C8.97308 59.1074 9.86956 59.998 10.977 59.998H52.975C53.5055 59.9971 54.014 59.7859 54.389 59.4106C54.7639 59.0352 54.9747 58.5265 54.975 57.996V56.9961Z" fill="black"/>
<path id="Vector_23" opacity="0.1" d="M54.975 54.9961C54.9752 55.5269 54.7646 56.0362 54.3896 56.4119C54.0146 56.7876 53.5058 56.9991 52.975 57H10.977C9.86958 57 8.97308 56.1074 8.97308 55V56C8.97308 57.1074 9.86956 57.998 10.977 57.998H52.975C53.5055 57.9971 54.014 57.7859 54.389 57.4106C54.7639 57.0352 54.9747 56.5265 54.975 55.996V54.9961Z" fill="black"/>
</g>
<g id="Blank-File-Top">
<g id="Curl">
<g id="Shadow">
<path id="Vector_24" opacity="0.05" d="M39.9785 17.0229H23.9795V33.0219H39.9785V17.0229Z" fill="url(#paint21_radial_1146_25892)"/>
<path id="Vector_25" opacity="0.05" d="M23.9792 2.02386V11.0239H39.9793V4.02388C38.6413 2.33087 36.9792 2.02386 35.9792 2.02386H23.9792Z" fill="url(#paint22_radial_1146_25892)"/>
<path id="Vector_26" opacity="0.05" d="M39.9785 11.0247H23.9795V17.0229H39.9785V11.0247Z" fill="url(#paint23_linear_1146_25892)"/>
<path id="Vector_27" opacity="0.2" d="M39.9785 11.0247H28.9799V17.0229H39.9785V11.0247Z" fill="url(#paint24_linear_1146_25892)"/>
<path id="Vector_28" opacity="0.2" d="M39.9785 17.0229H28.9799V28.0215H39.9785V17.0229Z" fill="url(#paint25_radial_1146_25892)"/>
<path id="Vector_29" opacity="0.2" d="M28.9792 2.02386V11.0239H39.9793V4.02388C39.5247 3.43826 38.9524 2.9545 38.2992 2.60387L35.9792 2.02386H28.9792Z" fill="url(#paint26_radial_1146_25892)"/>
<path id="Vector_30" opacity="0.05" d="M39.9785 17.0229V33.0219H45.9767V17.0229H39.9785Z" fill="url(#paint27_linear_1146_25892)"/>
<path id="Vector_31" opacity="0.2" d="M39.9785 17.0267V28.0253H45.9767V17.0267H39.9785Z" fill="url(#paint28_linear_1146_25892)"/>
<path id="Vector_32" opacity="0.2" d="M45.9793 17.024V28.024H54.9794V21.024L54.5394 19.264C54.1608 18.4282 53.632 17.6689 52.9794 17.024H45.9793Z" fill="url(#paint29_radial_1146_25892)"/>
<path id="Vector_33" opacity="0.05" d="M45.979 17.0239V33.0239H54.979V21.0239C54.979 20.8919 54.953 20.7239 54.939 20.5709C54.791 19.5779 54.176 18.2209 52.979 17.0239H45.979Z" fill="url(#paint30_radial_1146_25892)"/>
</g>
<path id="Paper_2" d="M37.9791 2.44135V17.0193C37.9791 18.1267 38.8711 19.0187 39.9823 19.0187H54.443C54.0748 18.2763 53.587 17.5996 52.9992 17.0155L39.9974 4.01366C39.4687 3.33478 38.7824 2.79509 37.998 2.44135H37.9791Z" fill="url(#paint31_linear_1146_25892)"/>
</g>
</g>
<g id="Logo Frame">
<path id="Vector_34" d="M43.1356 23L32.919 25.8576C32.1515 26.0809 31.5337 26.967 31.5337 27.8261V41.4602C30.6661 40.9763 29.6633 40.8588 28.7201 41.1303C26.85 41.6581 25.678 43.3567 26.0784 44.9264C26.4801 46.4961 28.3225 47.3732 30.1927 46.8469C31.6833 46.4272 32.7112 45.2413 32.876 43.9894L32.9176 31.1049L42.6147 28.2938V38.4617C41.7475 37.9782 40.7453 37.8607 39.8025 38.1319C37.9324 38.6596 36.7604 40.3582 37.1608 41.9279C37.5625 43.4976 39.405 44.3747 41.2737 43.8485C42.7657 43.4287 43.795 42.2428 43.9584 40.9909L44 24.2189C44 23.5742 43.6329 23.0915 43.1342 23H43.1356Z" fill="#404040"/>
<g id="Subtract" opacity="0.25">
<path d="M24.0547 45C24.0772 45.1393 24.1047 45.2799 24.1406 45.4209C24.1921 45.6221 24.2558 45.8157 24.3291 46H20V45H24.0547Z" fill="black"/>
<path d="M24.5918 42C24.4173 42.3169 24.2766 42.6512 24.1758 43H20V42H24.5918Z" fill="black"/>
<path d="M29.3994 39C28.9897 39.0241 28.5794 39.09 28.1768 39.2051C27.5704 39.3762 26.9876 39.6481 26.459 40H20V39H29.3994Z" fill="black"/>
<path d="M29.5332 37H20V36H29.5332V37Z" fill="black"/>
<path d="M29.5332 34H20V33H29.5332V34Z" fill="black"/>
<path d="M29.5332 31H20V30H29.5332V31Z" fill="black"/>
<path d="M29.626 27C29.5683 27.2668 29.5332 27.543 29.5332 27.8262V28H20V27H29.626Z" fill="black"/>
<path d="M31.666 27.1201C31.6767 27.0914 31.6873 27.0625 31.6992 27.0342C31.7041 27.0227 31.7098 27.0114 31.7148 27H31.7168C31.6992 27.0398 31.6812 27.0794 31.666 27.1201Z" fill="black"/>
<path d="M32 24.0645C31.4694 24.2845 31.0248 24.6217 30.6719 25H20V24H32V24.0645Z" fill="black"/>
</g>
</g>
</g>
<defs>
<linearGradient id="paint0_linear_1146_25892" x1="29.9777" y1="59.0257" x2="29.9777" y2="65.024" gradientUnits="userSpaceOnUse">
<stop/>
<stop offset="1" stop-opacity="0"/>
</linearGradient>
<radialGradient id="paint1_radial_1146_25892" cx="0" cy="0" r="1" gradientUnits="userSpaceOnUse" gradientTransform="translate(34.978 5.0244) scale(6.32269 4.00052)">
<stop/>
<stop offset="1" stop-opacity="0"/>
</radialGradient>
<linearGradient id="paint2_linear_1146_25892" x1="42.979" y1="13.024" x2="46.727" y2="9.276" gradientUnits="userSpaceOnUse">
<stop/>
<stop offset="1" stop-opacity="0"/>
</linearGradient>
<radialGradient id="paint3_radial_1146_25892" cx="0" cy="0" r="1" gradientUnits="userSpaceOnUse" gradientTransform="translate(51.9788 23.0242) scale(4.99995 6.94012)">
<stop/>
<stop offset="1" stop-opacity="0"/>
</radialGradient>
<linearGradient id="paint4_linear_1146_25892" x1="21.98" y1="5.02282" x2="21.98" y2="1.024" gradientUnits="userSpaceOnUse">
<stop/>
<stop offset="1" stop-opacity="0"/>
</linearGradient>
<radialGradient id="paint5_radial_1146_25892" cx="0" cy="0" r="1" gradientUnits="userSpaceOnUse" gradientTransform="translate(11.9794 5.02574) rotate(-90) scale(4.00124 5.00177)">
<stop/>
<stop offset="1" stop-opacity="0"/>
</radialGradient>
<linearGradient id="paint6_linear_1146_25892" x1="51.9787" y1="41.0235" x2="56.9791" y2="41.0235" gradientUnits="userSpaceOnUse">
<stop/>
<stop offset="1" stop-opacity="0"/>
</linearGradient>
<linearGradient id="paint7_linear_1146_25892" x1="11.9792" y1="33.0221" x2="6.97881" y2="33.0221" gradientUnits="userSpaceOnUse">
<stop/>
<stop offset="1" stop-opacity="0"/>
</linearGradient>
<radialGradient id="paint8_radial_1146_25892" cx="0" cy="0" r="1" gradientUnits="userSpaceOnUse" gradientTransform="translate(51.9743 59.022) rotate(90) scale(6.00201 5.00177)">
<stop/>
<stop offset="1" stop-opacity="0"/>
</radialGradient>
<radialGradient id="paint9_radial_1146_25892" cx="0" cy="0" r="1" gradientUnits="userSpaceOnUse" gradientTransform="translate(11.9763 59.022) rotate(180) scale(5.00177 6.00201)">
<stop/>
<stop offset="1" stop-opacity="0"/>
</radialGradient>
<linearGradient id="paint10_linear_1146_25892" x1="29.9777" y1="59.0257" x2="29.9777" y2="64.0224" gradientUnits="userSpaceOnUse">
<stop/>
<stop offset="1" stop-opacity="0"/>
</linearGradient>
<radialGradient id="paint11_radial_1146_25892" cx="0" cy="0" r="1" gradientUnits="userSpaceOnUse" gradientTransform="translate(34.9787 5.02331) scale(6.00771 3.00039)">
<stop/>
<stop offset="1" stop-opacity="0"/>
</radialGradient>
<linearGradient id="paint12_linear_1146_25892" x1="42.9793" y1="13.0241" x2="45.9833" y2="10.0201" gradientUnits="userSpaceOnUse">
<stop/>
<stop offset="1" stop-opacity="0"/>
</linearGradient>
<radialGradient id="paint13_radial_1146_25892" cx="0" cy="0" r="1" gradientUnits="userSpaceOnUse" gradientTransform="translate(51.98 23.0235) scale(4 6.38885)">
<stop/>
<stop offset="1" stop-opacity="0"/>
</radialGradient>
<linearGradient id="paint14_linear_1146_25892" x1="21.98" y1="5.02282" x2="21.98" y2="2.02559" gradientUnits="userSpaceOnUse">
<stop/>
<stop offset="1" stop-opacity="0"/>
</linearGradient>
<radialGradient id="paint15_radial_1146_25892" cx="0" cy="0" r="1" gradientUnits="userSpaceOnUse" gradientTransform="translate(11.9791 5.02282) rotate(-90) scale(3.001 4.00124)">
<stop/>
<stop offset="1" stop-opacity="0"/>
</radialGradient>
<linearGradient id="paint16_linear_1146_25892" x1="51.9787" y1="41.0235" x2="55.9775" y2="41.0235" gradientUnits="userSpaceOnUse">
<stop/>
<stop offset="1" stop-opacity="0"/>
</linearGradient>
<linearGradient id="paint17_linear_1146_25892" x1="11.9792" y1="33.0221" x2="7.98041" y2="33.0221" gradientUnits="userSpaceOnUse">
<stop/>
<stop offset="1" stop-opacity="0"/>
</linearGradient>
<radialGradient id="paint18_radial_1146_25892" cx="0" cy="0" r="1" gradientUnits="userSpaceOnUse" gradientTransform="translate(51.9794 59.0237) rotate(90) scale(5.00177 4.00124)">
<stop/>
<stop offset="1" stop-opacity="0"/>
</radialGradient>
<radialGradient id="paint19_radial_1146_25892" cx="0" cy="0" r="1" gradientUnits="userSpaceOnUse" gradientTransform="translate(11.9784 59.0175) rotate(180) scale(4.00124 5.00177)">
<stop/>
<stop offset="1" stop-opacity="0"/>
</radialGradient>
<linearGradient id="paint20_linear_1146_25892" x1="45.9758" y1="10.025" x2="9.98042" y2="61.0233" gradientUnits="userSpaceOnUse">
<stop stop-color="#EDEDED"/>
<stop offset="1" stop-color="#FCFCFC"/>
</linearGradient>
<radialGradient id="paint21_radial_1146_25892" cx="0" cy="0" r="1" gradientUnits="userSpaceOnUse" gradientTransform="translate(39.9785 17.0267) rotate(180) scale(16.0028 16.0028)">
<stop/>
<stop offset="1" stop-opacity="0"/>
</radialGradient>
<radialGradient id="paint22_radial_1146_25892" cx="0" cy="0" r="1" gradientUnits="userSpaceOnUse" gradientTransform="translate(39.9793 11.0239) rotate(-90) scale(12.0001 16.0001)">
<stop/>
<stop offset="1" stop-opacity="0"/>
</radialGradient>
<linearGradient id="paint23_linear_1146_25892" x1="39.9785" y1="14.3571" x2="23.9795" y2="14.3571" gradientUnits="userSpaceOnUse">
<stop/>
<stop offset="1" stop-opacity="0"/>
</linearGradient>
<linearGradient id="paint24_linear_1146_25892" x1="39.9785" y1="14.0245" x2="32.9787" y2="14.0245" gradientUnits="userSpaceOnUse">
<stop/>
<stop offset="1" stop-opacity="0"/>
</linearGradient>
<radialGradient id="paint25_radial_1146_25892" cx="0" cy="0" r="1" gradientUnits="userSpaceOnUse" gradientTransform="translate(39.978 17.0242) rotate(180) scale(7.00124 7.02916)">
<stop/>
<stop offset="1" stop-opacity="0"/>
</radialGradient>
<radialGradient id="paint26_radial_1146_25892" cx="0" cy="0" r="1" gradientUnits="userSpaceOnUse" gradientTransform="translate(39.9792 11.0229) rotate(-90) scale(10.4625 7.03869)">
<stop/>
<stop offset="1" stop-opacity="0"/>
</radialGradient>
<linearGradient id="paint27_linear_1146_25892" x1="43.3109" y1="17.0229" x2="43.3109" y2="33.0219" gradientUnits="userSpaceOnUse">
<stop/>
<stop offset="1" stop-opacity="0"/>
</linearGradient>
<linearGradient id="paint28_linear_1146_25892" x1="42.9783" y1="17.0229" x2="42.9783" y2="24.0492" gradientUnits="userSpaceOnUse">
<stop/>
<stop offset="1" stop-opacity="0"/>
</linearGradient>
<radialGradient id="paint29_radial_1146_25892" cx="0" cy="0" r="1" gradientUnits="userSpaceOnUse" gradientTransform="translate(45.9793 17.0241) scale(11.4689 7.02797)">
<stop/>
<stop offset="1" stop-opacity="0"/>
</radialGradient>
<radialGradient id="paint30_radial_1146_25892" cx="0" cy="0" r="1" gradientUnits="userSpaceOnUse" gradientTransform="translate(45.979 17.0239) scale(12 16)">
<stop/>
<stop offset="1" stop-opacity="0"/>
</radialGradient>
<linearGradient id="paint31_linear_1146_25892" x1="39.9793" y1="17.0225" x2="45.9793" y2="11.0225" gradientUnits="userSpaceOnUse">
<stop stop-color="#FEFEFE"/>
<stop offset="1" stop-color="#E9E9E9"/>
</linearGradient>
<clipPath id="clip0_1146_25892">
<rect width="64" height="64" fill="white"/>
</clipPath>
<clipPath id="clip1_1146_25892">
<rect width="64" height="64" fill="white"/>
</clipPath>
</defs>
</svg>
