<svg width="64" height="64" viewBox="0 0 64 64" fill="none" xmlns="http://www.w3.org/2000/svg">
<g id="audio-ogg" clip-path="url(#clip0_1146_26008)">
<g id="Blank-File" clip-path="url(#clip1_1146_26008)">
<g id="Shadow 2" opacity="0.1">
<path id="Vector" d="M11.9792 59.0257H51.9788V65.024H11.9792V59.0257Z" fill="url(#paint0_linear_1146_26008)"/>
<path id="Vector_2" d="M34.979 1.024V8.024L41.979 1.024H34.979Z" fill="url(#paint1_radial_1146_26008)"/>
<path id="Vector_3" d="M41.979 1.024L34.979 8.024L48.979 23.024L57.979 14.024V4.569L54.434 1.024H41.979Z" fill="url(#paint2_linear_1146_26008)"/>
<path id="Vector_4" d="M57.979 14.024L48.979 23.024H57.979V14.024Z" fill="url(#paint3_radial_1146_26008)"/>
<path id="Vector_5" d="M11.9792 1.024H34.9781V5.02282H11.9792V1.024Z" fill="url(#paint4_linear_1146_26008)"/>
<path id="Vector_6" d="M5.97723 1.024H11.9755V5.02282H5.97723V1.024Z" fill="url(#paint5_radial_1146_26008)"/>
<path id="Vector_7" d="M51.9788 23.0251H57.977V59.0257H51.9788V23.0251Z" fill="url(#paint6_linear_1146_26008)"/>
<path id="Vector_8" d="M5.97723 5.02282H11.9755V59.022H5.97723V5.02282Z" fill="url(#paint7_linear_1146_26008)"/>
<path id="Vector_9" d="M51.9788 59.0257H57.977V65.024H51.9788V59.0257Z" fill="url(#paint8_radial_1146_26008)"/>
<path id="Vector_10" d="M5.97723 59.0257H11.9755V65.024H5.97723V59.0257Z" fill="url(#paint9_radial_1146_26008)"/>
</g>
<g id="Shadow 1" opacity="0.2">
<path id="Vector_11" d="M11.9792 59.0257H51.9788V65.024H11.9792V59.0257Z" fill="url(#paint10_linear_1146_26008)"/>
<path id="Vector_12" d="M34.9792 1.024V8.02405L41.9793 1.024H34.9792Z" fill="url(#paint11_radial_1146_26008)"/>
<path id="Vector_13" d="M41.9793 1.024L34.9792 8.02405L48.9793 23.0241L57.9794 14.0241V4.56902L54.4344 1.024H41.9793Z" fill="url(#paint12_linear_1146_26008)"/>
<path id="Vector_14" d="M57.9794 14.0241L48.9793 23.0241H57.9794V14.0241Z" fill="url(#paint13_radial_1146_26008)"/>
<path id="Vector_15" d="M11.9792 1.024H34.9781V5.02282H11.9792V1.024Z" fill="url(#paint14_linear_1146_26008)"/>
<path id="Vector_16" d="M11.9755 1.024H5.97723V5.02282H11.9755V1.024Z" fill="url(#paint15_radial_1146_26008)"/>
<path id="Vector_17" d="M51.9788 23.0251H57.977V59.0257H51.9788V23.0251Z" fill="url(#paint16_linear_1146_26008)"/>
<path id="Vector_18" d="M5.97723 5.02282H11.9755V59.022H5.97723V5.02282Z" fill="url(#paint17_linear_1146_26008)"/>
<path id="Vector_19" d="M51.9788 59.0257H57.977V65.024H51.9788V59.0257Z" fill="url(#paint18_radial_1146_26008)"/>
<path id="Vector_20" d="M5.97723 59.0257H11.9755V65.024H5.97723V59.0257Z" fill="url(#paint19_radial_1146_26008)"/>
</g>
<path id="Paper" d="M10.9776 2.02557C10.4476 2.02657 9.93967 2.23754 9.56493 2.61229C9.19018 2.98704 8.97921 3.49501 8.97821 4.02498V60.0235C8.97821 61.131 9.8702 62.0229 10.9814 62.0229H52.9765C54.0877 62.0229 54.9797 61.131 54.9797 60.0198V21.0256C54.9797 20.024 54.3674 18.4177 52.9765 17.023L39.9747 4.0212C39.508 3.40374 38.905 2.90239 38.2127 2.55624C37.5204 2.21009 36.7575 2.02848 35.9835 2.02557H10.9776Z" fill="url(#paint20_linear_1146_26008)"/>
</g>
<path id="name" d="M28.6214 53.0909C28.6214 53.7045 28.5107 54.2348 28.2891 54.6818C28.0675 55.1288 27.7635 55.4735 27.3771 55.7159C26.9908 55.9583 26.5495 56.0795 26.0533 56.0795C25.5571 56.0795 25.1158 55.9583 24.7294 55.7159C24.343 55.4735 24.0391 55.1288 23.8175 54.6818C23.5959 54.2348 23.4851 53.7045 23.4851 53.0909C23.4851 52.4773 23.5959 51.947 23.8175 51.5C24.0391 51.053 24.343 50.7083 24.7294 50.4659C25.1158 50.2235 25.5571 50.1023 26.0533 50.1023C26.5495 50.1023 26.9908 50.2235 27.3771 50.4659C27.7635 50.7083 28.0675 51.053 28.2891 51.5C28.5107 51.947 28.6214 52.4773 28.6214 53.0909ZM27.9396 53.0909C27.9396 52.5871 27.8554 52.1619 27.6868 51.8153C27.5201 51.4688 27.2938 51.2064 27.0078 51.0284C26.7237 50.8504 26.4055 50.7614 26.0533 50.7614C25.701 50.7614 25.3819 50.8504 25.0959 51.0284C24.8118 51.2064 24.5855 51.4688 24.4169 51.8153C24.2502 52.1619 24.1669 52.5871 24.1669 53.0909C24.1669 53.5947 24.2502 54.0199 24.4169 54.3665C24.5855 54.7131 24.8118 54.9754 25.0959 55.1534C25.3819 55.3314 25.701 55.4205 26.0533 55.4205C26.4055 55.4205 26.7237 55.3314 27.0078 55.1534C27.2938 54.9754 27.5201 54.7131 27.6868 54.3665C27.8554 54.0199 27.9396 53.5947 27.9396 53.0909ZM33.7834 52C33.7209 51.8087 33.6385 51.6373 33.5362 51.4858C33.4358 51.3324 33.3156 51.2017 33.1754 51.0938C33.0372 50.9858 32.88 50.9034 32.7038 50.8466C32.5277 50.7898 32.3345 50.7614 32.1243 50.7614C31.7796 50.7614 31.4661 50.8504 31.1839 51.0284C30.9018 51.2064 30.6773 51.4688 30.5107 51.8153C30.344 52.1619 30.2607 52.5871 30.2607 53.0909C30.2607 53.5947 30.3449 54.0199 30.5135 54.3665C30.6821 54.7131 30.9103 54.9754 31.1982 55.1534C31.486 55.3314 31.8099 55.4205 32.1697 55.4205C32.5031 55.4205 32.7966 55.3494 33.0504 55.2074C33.3061 55.0634 33.505 54.8608 33.647 54.5994C33.791 54.3362 33.8629 54.0265 33.8629 53.6705L34.0788 53.7159H32.3288V53.0909H34.5447V53.7159C34.5447 54.1951 34.4425 54.6117 34.2379 54.9659C34.0353 55.3201 33.755 55.5947 33.397 55.7898C33.041 55.983 32.6319 56.0795 32.1697 56.0795C31.6546 56.0795 31.2019 55.9583 30.8118 55.7159C30.4235 55.4735 30.1205 55.1288 29.9027 54.6818C29.6868 54.2348 29.5788 53.7045 29.5788 53.0909C29.5788 52.6307 29.6404 52.2169 29.7635 51.8494C29.8885 51.4801 30.0646 51.1657 30.2919 50.9062C30.5192 50.6468 30.7881 50.4479 31.0987 50.3097C31.4093 50.1714 31.7512 50.1023 32.1243 50.1023C32.4311 50.1023 32.7171 50.1487 32.9822 50.2415C33.2493 50.3324 33.487 50.4621 33.6953 50.6307C33.9055 50.7973 34.0807 50.9972 34.2209 51.2301C34.361 51.4612 34.4576 51.7178 34.5107 52H33.7834ZM39.7287 52C39.6662 51.8087 39.5838 51.6373 39.4815 51.4858C39.3812 51.3324 39.2609 51.2017 39.1207 51.0938C38.9825 50.9858 38.8253 50.9034 38.6491 50.8466C38.473 50.7898 38.2798 50.7614 38.0696 50.7614C37.7249 50.7614 37.4115 50.8504 37.1293 51.0284C36.8471 51.2064 36.6226 51.4688 36.456 51.8153C36.2893 52.1619 36.206 52.5871 36.206 53.0909C36.206 53.5947 36.2902 54.0199 36.4588 54.3665C36.6274 54.7131 36.8556 54.9754 37.1435 55.1534C37.4313 55.3314 37.7552 55.4205 38.1151 55.4205C38.4484 55.4205 38.742 55.3494 38.9957 55.2074C39.2514 55.0634 39.4503 54.8608 39.5923 54.5994C39.7363 54.3362 39.8082 54.0265 39.8082 53.6705L40.0241 53.7159H38.2741V53.0909H40.4901V53.7159C40.4901 54.1951 40.3878 54.6117 40.1832 54.9659C39.9806 55.3201 39.7003 55.5947 39.3423 55.7898C38.9863 55.983 38.5772 56.0795 38.1151 56.0795C37.5999 56.0795 37.1473 55.9583 36.7571 55.7159C36.3688 55.4735 36.0658 55.1288 35.848 54.6818C35.6321 54.2348 35.5241 53.7045 35.5241 53.0909C35.5241 52.6307 35.5857 52.2169 35.7088 51.8494C35.8338 51.4801 36.0099 51.1657 36.2372 50.9062C36.4645 50.6468 36.7334 50.4479 37.044 50.3097C37.3546 50.1714 37.6965 50.1023 38.0696 50.1023C38.3764 50.1023 38.6624 50.1487 38.9276 50.2415C39.1946 50.3324 39.4323 50.4621 39.6406 50.6307C39.8509 50.7973 40.026 50.9972 40.1662 51.2301C40.3063 51.4612 40.4029 51.7178 40.456 52H39.7287Z" fill="#737373"/>
<g id="logo">
<path id="Vector_21" d="M40.1356 23L29.919 25.8576C29.1515 26.0809 28.5337 26.967 28.5337 27.8261V41.4602C27.6661 40.9763 26.6633 40.8588 25.7201 41.1303C23.85 41.6581 22.678 43.3567 23.0784 44.9264C23.4801 46.4961 25.3225 47.3732 27.1927 46.8469C28.6833 46.4272 29.7112 45.2413 29.876 43.9894L29.9176 31.1049L39.6147 28.2938V38.4617C38.7475 37.9782 37.7453 37.8607 36.8025 38.1319C34.9324 38.6596 33.7604 40.3582 34.1608 41.9279C34.5625 43.4976 36.405 44.3747 38.2737 43.8485C39.7657 43.4287 40.795 42.2428 40.9584 40.9909L41 24.2189C41 23.5742 40.6329 23.0915 40.1342 23H40.1356Z" fill="url(#paint21_linear_1146_26008)"/>
</g>
<g id="Blank-File-Top">
<g id="Curl">
<g id="Shadow">
<path id="Vector_22" opacity="0.05" d="M39.9785 17.0229H23.9794V33.0219H39.9785V17.0229Z" fill="url(#paint22_radial_1146_26008)"/>
<path id="Vector_23" opacity="0.05" d="M23.9791 2.02386V11.0239H39.9792V4.02388C38.6412 2.33087 36.9792 2.02386 35.9792 2.02386H23.9791Z" fill="url(#paint23_radial_1146_26008)"/>
<path id="Vector_24" opacity="0.05" d="M39.9785 11.0247H23.9794V17.0229H39.9785V11.0247Z" fill="url(#paint24_linear_1146_26008)"/>
<path id="Vector_25" opacity="0.2" d="M39.9785 11.0247H28.9799V17.0229H39.9785V11.0247Z" fill="url(#paint25_linear_1146_26008)"/>
<path id="Vector_26" opacity="0.2" d="M39.9785 17.0229H28.9799V28.0215H39.9785V17.0229Z" fill="url(#paint26_radial_1146_26008)"/>
<path id="Vector_27" opacity="0.2" d="M28.9792 2.02386V11.0239H39.9793V4.02388C39.5247 3.43826 38.9524 2.9545 38.2992 2.60387L35.9792 2.02386H28.9792Z" fill="url(#paint27_radial_1146_26008)"/>
<path id="Vector_28" opacity="0.05" d="M39.9785 17.0229V33.0219H45.9767V17.0229H39.9785Z" fill="url(#paint28_linear_1146_26008)"/>
<path id="Vector_29" opacity="0.2" d="M39.9785 17.0267V28.0253H45.9767V17.0267H39.9785Z" fill="url(#paint29_linear_1146_26008)"/>
<path id="Vector_30" opacity="0.2" d="M45.9792 17.024V28.024H54.9793V21.024L54.5393 19.264C54.1607 18.4282 53.6319 17.6689 52.9793 17.024H45.9792Z" fill="url(#paint30_radial_1146_26008)"/>
<path id="Vector_31" opacity="0.05" d="M45.9789 17.0239V33.0239H54.9789V21.0239C54.9789 20.8919 54.9529 20.7239 54.9389 20.5709C54.7909 19.5779 54.1759 18.2209 52.9789 17.0239H45.9789Z" fill="url(#paint31_radial_1146_26008)"/>
</g>
<path id="Paper_2" d="M37.9791 2.44135V17.0193C37.9791 18.1267 38.871 19.0187 39.9823 19.0187H54.443C54.0748 18.2763 53.587 17.5996 52.9992 17.0155L39.9974 4.01366C39.4687 3.33478 38.7824 2.79509 37.998 2.44135H37.9791Z" fill="url(#paint32_linear_1146_26008)"/>
</g>
</g>
</g>
<defs>
<linearGradient id="paint0_linear_1146_26008" x1="29.9777" y1="59.0257" x2="29.9777" y2="65.024" gradientUnits="userSpaceOnUse">
<stop/>
<stop offset="1" stop-opacity="0"/>
</linearGradient>
<radialGradient id="paint1_radial_1146_26008" cx="0" cy="0" r="1" gradientUnits="userSpaceOnUse" gradientTransform="translate(34.978 5.0244) scale(6.32269 4.00052)">
<stop/>
<stop offset="1" stop-opacity="0"/>
</radialGradient>
<linearGradient id="paint2_linear_1146_26008" x1="42.979" y1="13.024" x2="46.727" y2="9.276" gradientUnits="userSpaceOnUse">
<stop/>
<stop offset="1" stop-opacity="0"/>
</linearGradient>
<radialGradient id="paint3_radial_1146_26008" cx="0" cy="0" r="1" gradientUnits="userSpaceOnUse" gradientTransform="translate(51.9788 23.0242) scale(4.99995 6.94012)">
<stop/>
<stop offset="1" stop-opacity="0"/>
</radialGradient>
<linearGradient id="paint4_linear_1146_26008" x1="21.9801" y1="5.02282" x2="21.9801" y2="1.024" gradientUnits="userSpaceOnUse">
<stop/>
<stop offset="1" stop-opacity="0"/>
</linearGradient>
<radialGradient id="paint5_radial_1146_26008" cx="0" cy="0" r="1" gradientUnits="userSpaceOnUse" gradientTransform="translate(11.9794 5.02574) rotate(-90) scale(4.00124 5.00177)">
<stop/>
<stop offset="1" stop-opacity="0"/>
</radialGradient>
<linearGradient id="paint6_linear_1146_26008" x1="51.9788" y1="41.0235" x2="56.9792" y2="41.0235" gradientUnits="userSpaceOnUse">
<stop/>
<stop offset="1" stop-opacity="0"/>
</linearGradient>
<linearGradient id="paint7_linear_1146_26008" x1="11.9792" y1="33.0221" x2="6.97883" y2="33.0221" gradientUnits="userSpaceOnUse">
<stop/>
<stop offset="1" stop-opacity="0"/>
</linearGradient>
<radialGradient id="paint8_radial_1146_26008" cx="0" cy="0" r="1" gradientUnits="userSpaceOnUse" gradientTransform="translate(51.9743 59.022) rotate(90) scale(6.00201 5.00177)">
<stop/>
<stop offset="1" stop-opacity="0"/>
</radialGradient>
<radialGradient id="paint9_radial_1146_26008" cx="0" cy="0" r="1" gradientUnits="userSpaceOnUse" gradientTransform="translate(11.9763 59.022) rotate(180) scale(5.00177 6.00201)">
<stop/>
<stop offset="1" stop-opacity="0"/>
</radialGradient>
<linearGradient id="paint10_linear_1146_26008" x1="29.9777" y1="59.0257" x2="29.9777" y2="64.0224" gradientUnits="userSpaceOnUse">
<stop/>
<stop offset="1" stop-opacity="0"/>
</linearGradient>
<radialGradient id="paint11_radial_1146_26008" cx="0" cy="0" r="1" gradientUnits="userSpaceOnUse" gradientTransform="translate(34.9787 5.02331) scale(6.00771 3.00039)">
<stop/>
<stop offset="1" stop-opacity="0"/>
</radialGradient>
<linearGradient id="paint12_linear_1146_26008" x1="42.9793" y1="13.0241" x2="45.9833" y2="10.0201" gradientUnits="userSpaceOnUse">
<stop/>
<stop offset="1" stop-opacity="0"/>
</linearGradient>
<radialGradient id="paint13_radial_1146_26008" cx="0" cy="0" r="1" gradientUnits="userSpaceOnUse" gradientTransform="translate(51.98 23.0235) scale(4 6.38885)">
<stop/>
<stop offset="1" stop-opacity="0"/>
</radialGradient>
<linearGradient id="paint14_linear_1146_26008" x1="21.9801" y1="5.02282" x2="21.9801" y2="2.02559" gradientUnits="userSpaceOnUse">
<stop/>
<stop offset="1" stop-opacity="0"/>
</linearGradient>
<radialGradient id="paint15_radial_1146_26008" cx="0" cy="0" r="1" gradientUnits="userSpaceOnUse" gradientTransform="translate(11.9791 5.02282) rotate(-90) scale(3.001 4.00124)">
<stop/>
<stop offset="1" stop-opacity="0"/>
</radialGradient>
<linearGradient id="paint16_linear_1146_26008" x1="51.9788" y1="41.0235" x2="55.9776" y2="41.0235" gradientUnits="userSpaceOnUse">
<stop/>
<stop offset="1" stop-opacity="0"/>
</linearGradient>
<linearGradient id="paint17_linear_1146_26008" x1="11.9792" y1="33.0221" x2="7.98042" y2="33.0221" gradientUnits="userSpaceOnUse">
<stop/>
<stop offset="1" stop-opacity="0"/>
</linearGradient>
<radialGradient id="paint18_radial_1146_26008" cx="0" cy="0" r="1" gradientUnits="userSpaceOnUse" gradientTransform="translate(51.9794 59.0237) rotate(90) scale(5.00177 4.00124)">
<stop/>
<stop offset="1" stop-opacity="0"/>
</radialGradient>
<radialGradient id="paint19_radial_1146_26008" cx="0" cy="0" r="1" gradientUnits="userSpaceOnUse" gradientTransform="translate(11.9784 59.0175) rotate(180) scale(4.00124 5.00177)">
<stop/>
<stop offset="1" stop-opacity="0"/>
</radialGradient>
<linearGradient id="paint20_linear_1146_26008" x1="45.9758" y1="10.025" x2="9.98041" y2="61.0233" gradientUnits="userSpaceOnUse">
<stop stop-color="#EDEDED"/>
<stop offset="1" stop-color="#FCFCFC"/>
</linearGradient>
<linearGradient id="paint21_linear_1146_26008" x1="32" y1="23" x2="32" y2="47" gradientUnits="userSpaceOnUse">
<stop stop-color="#404040"/>
<stop offset="1" stop-color="#737373"/>
</linearGradient>
<radialGradient id="paint22_radial_1146_26008" cx="0" cy="0" r="1" gradientUnits="userSpaceOnUse" gradientTransform="translate(39.9785 17.0267) rotate(180) scale(16.0028 16.0028)">
<stop/>
<stop offset="1" stop-opacity="0"/>
</radialGradient>
<radialGradient id="paint23_radial_1146_26008" cx="0" cy="0" r="1" gradientUnits="userSpaceOnUse" gradientTransform="translate(39.9792 11.0239) rotate(-90) scale(12.0001 16.0001)">
<stop/>
<stop offset="1" stop-opacity="0"/>
</radialGradient>
<linearGradient id="paint24_linear_1146_26008" x1="39.9785" y1="14.3571" x2="23.9794" y2="14.3571" gradientUnits="userSpaceOnUse">
<stop/>
<stop offset="1" stop-opacity="0"/>
</linearGradient>
<linearGradient id="paint25_linear_1146_26008" x1="39.9785" y1="14.0245" x2="32.9787" y2="14.0245" gradientUnits="userSpaceOnUse">
<stop/>
<stop offset="1" stop-opacity="0"/>
</linearGradient>
<radialGradient id="paint26_radial_1146_26008" cx="0" cy="0" r="1" gradientUnits="userSpaceOnUse" gradientTransform="translate(39.978 17.0242) rotate(180) scale(7.00124 7.02916)">
<stop/>
<stop offset="1" stop-opacity="0"/>
</radialGradient>
<radialGradient id="paint27_radial_1146_26008" cx="0" cy="0" r="1" gradientUnits="userSpaceOnUse" gradientTransform="translate(39.9792 11.0229) rotate(-90) scale(10.4625 7.03869)">
<stop/>
<stop offset="1" stop-opacity="0"/>
</radialGradient>
<linearGradient id="paint28_linear_1146_26008" x1="43.3108" y1="17.0229" x2="43.3108" y2="33.0219" gradientUnits="userSpaceOnUse">
<stop/>
<stop offset="1" stop-opacity="0"/>
</linearGradient>
<linearGradient id="paint29_linear_1146_26008" x1="42.9782" y1="17.0229" x2="42.9782" y2="24.0492" gradientUnits="userSpaceOnUse">
<stop/>
<stop offset="1" stop-opacity="0"/>
</linearGradient>
<radialGradient id="paint30_radial_1146_26008" cx="0" cy="0" r="1" gradientUnits="userSpaceOnUse" gradientTransform="translate(45.9792 17.0241) scale(11.4689 7.02797)">
<stop/>
<stop offset="1" stop-opacity="0"/>
</radialGradient>
<radialGradient id="paint31_radial_1146_26008" cx="0" cy="0" r="1" gradientUnits="userSpaceOnUse" gradientTransform="translate(45.9789 17.0239) scale(12 16)">
<stop/>
<stop offset="1" stop-opacity="0"/>
</radialGradient>
<linearGradient id="paint32_linear_1146_26008" x1="39.9792" y1="17.0225" x2="45.9793" y2="11.0225" gradientUnits="userSpaceOnUse">
<stop stop-color="#FEFEFE"/>
<stop offset="1" stop-color="#E9E9E9"/>
</linearGradient>
<clipPath id="clip0_1146_26008">
<rect width="64" height="64" fill="white"/>
</clipPath>
<clipPath id="clip1_1146_26008">
<rect width="64" height="64" fill="white"/>
</clipPath>
</defs>
</svg>
