<svg width="64" height="64" viewBox="0 0 64 64" fill="none" xmlns="http://www.w3.org/2000/svg">
<g id="audio-aac" clip-path="url(#clip0_3126_2627)">
<g id="Blank-File" clip-path="url(#clip1_3126_2627)">
<g id="Shadow 2" opacity="0.1">
<path id="Vector" d="M11.9792 59.0257H51.9788V65.024H11.9792V59.0257Z" fill="url(#paint0_linear_3126_2627)"/>
<path id="Vector_2" d="M34.979 1.024V8.024L41.979 1.024H34.979Z" fill="url(#paint1_radial_3126_2627)"/>
<path id="Vector_3" d="M41.979 1.024L34.979 8.024L48.979 23.024L57.979 14.024V4.569L54.434 1.024H41.979Z" fill="url(#paint2_linear_3126_2627)"/>
<path id="Vector_4" d="M57.979 14.024L48.979 23.024H57.979V14.024Z" fill="url(#paint3_radial_3126_2627)"/>
<path id="Vector_5" d="M11.9792 1.024H34.9781V5.02282H11.9792V1.024Z" fill="url(#paint4_linear_3126_2627)"/>
<path id="Vector_6" d="M5.97723 1.024H11.9755V5.02282H5.97723V1.024Z" fill="url(#paint5_radial_3126_2627)"/>
<path id="Vector_7" d="M51.9788 23.0251H57.977V59.0257H51.9788V23.0251Z" fill="url(#paint6_linear_3126_2627)"/>
<path id="Vector_8" d="M5.97723 5.02282H11.9755V59.022H5.97723V5.02282Z" fill="url(#paint7_linear_3126_2627)"/>
<path id="Vector_9" d="M51.9788 59.0257H57.977V65.024H51.9788V59.0257Z" fill="url(#paint8_radial_3126_2627)"/>
<path id="Vector_10" d="M5.97723 59.0257H11.9755V65.024H5.97723V59.0257Z" fill="url(#paint9_radial_3126_2627)"/>
</g>
<g id="Shadow 1" opacity="0.2">
<path id="Vector_11" d="M11.9792 59.0257H51.9788V65.024H11.9792V59.0257Z" fill="url(#paint10_linear_3126_2627)"/>
<path id="Vector_12" d="M34.9792 1.024V8.02405L41.9793 1.024H34.9792Z" fill="url(#paint11_radial_3126_2627)"/>
<path id="Vector_13" d="M41.9793 1.024L34.9792 8.02405L48.9793 23.0241L57.9794 14.0241V4.56902L54.4344 1.024H41.9793Z" fill="url(#paint12_linear_3126_2627)"/>
<path id="Vector_14" d="M57.9794 14.0241L48.9793 23.0241H57.9794V14.0241Z" fill="url(#paint13_radial_3126_2627)"/>
<path id="Vector_15" d="M11.9792 1.024H34.9781V5.02282H11.9792V1.024Z" fill="url(#paint14_linear_3126_2627)"/>
<path id="Vector_16" d="M11.9755 1.024H5.97723V5.02282H11.9755V1.024Z" fill="url(#paint15_radial_3126_2627)"/>
<path id="Vector_17" d="M51.9788 23.0251H57.977V59.0257H51.9788V23.0251Z" fill="url(#paint16_linear_3126_2627)"/>
<path id="Vector_18" d="M5.97723 5.02282H11.9755V59.022H5.97723V5.02282Z" fill="url(#paint17_linear_3126_2627)"/>
<path id="Vector_19" d="M51.9788 59.0257H57.977V65.024H51.9788V59.0257Z" fill="url(#paint18_radial_3126_2627)"/>
<path id="Vector_20" d="M5.97723 59.0257H11.9755V65.024H5.97723V59.0257Z" fill="url(#paint19_radial_3126_2627)"/>
</g>
<path id="Paper" d="M10.9776 2.02557C10.4476 2.02657 9.93967 2.23754 9.56493 2.61229C9.19018 2.98704 8.97921 3.49501 8.97821 4.02498V60.0235C8.97821 61.131 9.8702 62.0229 10.9814 62.0229H52.9765C54.0877 62.0229 54.9797 61.131 54.9797 60.0198V21.0256C54.9797 20.024 54.3674 18.4177 52.9765 17.023L39.9747 4.0212C39.508 3.40374 38.905 2.90239 38.2127 2.55624C37.5204 2.21009 36.7575 2.02848 35.9835 2.02557H10.9776Z" fill="url(#paint20_linear_3126_2627)"/>
</g>
<path id="name" d="M25.2635 56H24.5249L26.6612 50.1818H27.3885L29.5249 56H28.7862L27.0476 51.1023H27.0021L25.2635 56ZM25.5362 53.7273H28.5135V54.3523H25.5362V53.7273ZM30.6697 56H29.9311L32.0675 50.1818H32.7947L34.9311 56H34.1925L32.4538 51.1023H32.4084L30.6697 56ZM30.9425 53.7273H33.9197V54.3523H30.9425V53.7273ZM40.2457 52H39.5412C39.4995 51.7973 39.4266 51.6193 39.3224 51.4659C39.2202 51.3125 39.0952 51.1837 38.9474 51.0795C38.8016 50.9735 38.6397 50.8939 38.4616 50.8409C38.2836 50.7879 38.098 50.7614 37.9048 50.7614C37.5526 50.7614 37.2334 50.8504 36.9474 51.0284C36.6634 51.2064 36.437 51.4688 36.2685 51.8153C36.1018 52.1619 36.0185 52.5871 36.0185 53.0909C36.0185 53.5947 36.1018 54.0199 36.2685 54.3665C36.437 54.7131 36.6634 54.9754 36.9474 55.1534C37.2334 55.3314 37.5526 55.4205 37.9048 55.4205C38.098 55.4205 38.2836 55.3939 38.4616 55.3409C38.6397 55.2879 38.8016 55.2093 38.9474 55.1051C39.0952 54.9991 39.2202 54.8693 39.3224 54.7159C39.4266 54.5606 39.4995 54.3826 39.5412 54.1818H40.2457C40.1927 54.4792 40.0961 54.7453 39.956 54.9801C39.8158 55.215 39.6416 55.4148 39.4332 55.5795C39.2249 55.7424 38.991 55.8665 38.7315 55.9517C38.474 56.0369 38.1984 56.0795 37.9048 56.0795C37.4086 56.0795 36.9673 55.9583 36.581 55.7159C36.1946 55.4735 35.8906 55.1288 35.669 54.6818C35.4474 54.2348 35.3366 53.7045 35.3366 53.0909C35.3366 52.4773 35.4474 51.947 35.669 51.5C35.8906 51.053 36.1946 50.7083 36.581 50.4659C36.9673 50.2235 37.4086 50.1023 37.9048 50.1023C38.1984 50.1023 38.474 50.1449 38.7315 50.2301C38.991 50.3153 39.2249 50.4403 39.4332 50.6051C39.6416 50.768 39.8158 50.9669 39.956 51.2017C40.0961 51.4347 40.1927 51.7008 40.2457 52Z" fill="#737373"/>
<g id="logo">
<path id="Vector_21" d="M40.1356 23L29.919 25.8576C29.1515 26.0809 28.5337 26.967 28.5337 27.8261V41.4602C27.6661 40.9763 26.6633 40.8588 25.7201 41.1303C23.85 41.6581 22.678 43.3567 23.0784 44.9264C23.4801 46.4961 25.3225 47.3732 27.1927 46.8469C28.6833 46.4272 29.7112 45.2413 29.876 43.9894L29.9176 31.1049L39.6147 28.2938V38.4617C38.7475 37.9782 37.7453 37.8607 36.8025 38.1319C34.9324 38.6596 33.7604 40.3582 34.1608 41.9279C34.5625 43.4976 36.405 44.3747 38.2737 43.8485C39.7657 43.4287 40.795 42.2428 40.9584 40.9909L41 24.2189C41 23.5742 40.6329 23.0915 40.1342 23H40.1356Z" fill="url(#paint21_linear_3126_2627)"/>
</g>
<g id="Blank-File-Top">
<g id="Curl">
<g id="Shadow">
<path id="Vector_22" opacity="0.05" d="M39.9785 17.0229H23.9794V33.0219H39.9785V17.0229Z" fill="url(#paint22_radial_3126_2627)"/>
<path id="Vector_23" opacity="0.05" d="M23.9791 2.02386V11.0239H39.9792V4.02388C38.6412 2.33087 36.9792 2.02386 35.9792 2.02386H23.9791Z" fill="url(#paint23_radial_3126_2627)"/>
<path id="Vector_24" opacity="0.05" d="M39.9785 11.0247H23.9794V17.0229H39.9785V11.0247Z" fill="url(#paint24_linear_3126_2627)"/>
<path id="Vector_25" opacity="0.2" d="M39.9785 11.0247H28.9799V17.0229H39.9785V11.0247Z" fill="url(#paint25_linear_3126_2627)"/>
<path id="Vector_26" opacity="0.2" d="M39.9785 17.0229H28.9799V28.0215H39.9785V17.0229Z" fill="url(#paint26_radial_3126_2627)"/>
<path id="Vector_27" opacity="0.2" d="M28.9792 2.02386V11.0239H39.9793V4.02388C39.5247 3.43826 38.9524 2.9545 38.2992 2.60387L35.9792 2.02386H28.9792Z" fill="url(#paint27_radial_3126_2627)"/>
<path id="Vector_28" opacity="0.05" d="M39.9785 17.0229V33.0219H45.9767V17.0229H39.9785Z" fill="url(#paint28_linear_3126_2627)"/>
<path id="Vector_29" opacity="0.2" d="M39.9785 17.0267V28.0253H45.9767V17.0267H39.9785Z" fill="url(#paint29_linear_3126_2627)"/>
<path id="Vector_30" opacity="0.2" d="M45.9792 17.024V28.024H54.9793V21.024L54.5393 19.264C54.1607 18.4282 53.6319 17.6689 52.9793 17.024H45.9792Z" fill="url(#paint30_radial_3126_2627)"/>
<path id="Vector_31" opacity="0.05" d="M45.9789 17.0239V33.0239H54.9789V21.0239C54.9789 20.8919 54.9529 20.7239 54.9389 20.5709C54.7909 19.5779 54.1759 18.2209 52.9789 17.0239H45.9789Z" fill="url(#paint31_radial_3126_2627)"/>
</g>
<path id="Paper_2" d="M37.9791 2.44135V17.0193C37.9791 18.1267 38.871 19.0187 39.9823 19.0187H54.443C54.0748 18.2763 53.587 17.5996 52.9992 17.0155L39.9974 4.01366C39.4687 3.33478 38.7824 2.79509 37.998 2.44135H37.9791Z" fill="url(#paint32_linear_3126_2627)"/>
</g>
</g>
</g>
<defs>
<linearGradient id="paint0_linear_3126_2627" x1="29.9777" y1="59.0257" x2="29.9777" y2="65.024" gradientUnits="userSpaceOnUse">
<stop/>
<stop offset="1" stop-opacity="0"/>
</linearGradient>
<radialGradient id="paint1_radial_3126_2627" cx="0" cy="0" r="1" gradientUnits="userSpaceOnUse" gradientTransform="translate(34.978 5.0244) scale(6.32269 4.00052)">
<stop/>
<stop offset="1" stop-opacity="0"/>
</radialGradient>
<linearGradient id="paint2_linear_3126_2627" x1="42.979" y1="13.024" x2="46.727" y2="9.276" gradientUnits="userSpaceOnUse">
<stop/>
<stop offset="1" stop-opacity="0"/>
</linearGradient>
<radialGradient id="paint3_radial_3126_2627" cx="0" cy="0" r="1" gradientUnits="userSpaceOnUse" gradientTransform="translate(51.9788 23.0242) scale(4.99995 6.94012)">
<stop/>
<stop offset="1" stop-opacity="0"/>
</radialGradient>
<linearGradient id="paint4_linear_3126_2627" x1="21.9801" y1="5.02282" x2="21.9801" y2="1.024" gradientUnits="userSpaceOnUse">
<stop/>
<stop offset="1" stop-opacity="0"/>
</linearGradient>
<radialGradient id="paint5_radial_3126_2627" cx="0" cy="0" r="1" gradientUnits="userSpaceOnUse" gradientTransform="translate(11.9794 5.02574) rotate(-90) scale(4.00124 5.00177)">
<stop/>
<stop offset="1" stop-opacity="0"/>
</radialGradient>
<linearGradient id="paint6_linear_3126_2627" x1="51.9788" y1="41.0235" x2="56.9792" y2="41.0235" gradientUnits="userSpaceOnUse">
<stop/>
<stop offset="1" stop-opacity="0"/>
</linearGradient>
<linearGradient id="paint7_linear_3126_2627" x1="11.9792" y1="33.0221" x2="6.97883" y2="33.0221" gradientUnits="userSpaceOnUse">
<stop/>
<stop offset="1" stop-opacity="0"/>
</linearGradient>
<radialGradient id="paint8_radial_3126_2627" cx="0" cy="0" r="1" gradientUnits="userSpaceOnUse" gradientTransform="translate(51.9743 59.022) rotate(90) scale(6.00201 5.00177)">
<stop/>
<stop offset="1" stop-opacity="0"/>
</radialGradient>
<radialGradient id="paint9_radial_3126_2627" cx="0" cy="0" r="1" gradientUnits="userSpaceOnUse" gradientTransform="translate(11.9763 59.022) rotate(180) scale(5.00177 6.00201)">
<stop/>
<stop offset="1" stop-opacity="0"/>
</radialGradient>
<linearGradient id="paint10_linear_3126_2627" x1="29.9777" y1="59.0257" x2="29.9777" y2="64.0224" gradientUnits="userSpaceOnUse">
<stop/>
<stop offset="1" stop-opacity="0"/>
</linearGradient>
<radialGradient id="paint11_radial_3126_2627" cx="0" cy="0" r="1" gradientUnits="userSpaceOnUse" gradientTransform="translate(34.9787 5.02331) scale(6.00771 3.00039)">
<stop/>
<stop offset="1" stop-opacity="0"/>
</radialGradient>
<linearGradient id="paint12_linear_3126_2627" x1="42.9793" y1="13.0241" x2="45.9833" y2="10.0201" gradientUnits="userSpaceOnUse">
<stop/>
<stop offset="1" stop-opacity="0"/>
</linearGradient>
<radialGradient id="paint13_radial_3126_2627" cx="0" cy="0" r="1" gradientUnits="userSpaceOnUse" gradientTransform="translate(51.98 23.0235) scale(4 6.38885)">
<stop/>
<stop offset="1" stop-opacity="0"/>
</radialGradient>
<linearGradient id="paint14_linear_3126_2627" x1="21.9801" y1="5.02282" x2="21.9801" y2="2.02559" gradientUnits="userSpaceOnUse">
<stop/>
<stop offset="1" stop-opacity="0"/>
</linearGradient>
<radialGradient id="paint15_radial_3126_2627" cx="0" cy="0" r="1" gradientUnits="userSpaceOnUse" gradientTransform="translate(11.9791 5.02282) rotate(-90) scale(3.001 4.00124)">
<stop/>
<stop offset="1" stop-opacity="0"/>
</radialGradient>
<linearGradient id="paint16_linear_3126_2627" x1="51.9788" y1="41.0235" x2="55.9776" y2="41.0235" gradientUnits="userSpaceOnUse">
<stop/>
<stop offset="1" stop-opacity="0"/>
</linearGradient>
<linearGradient id="paint17_linear_3126_2627" x1="11.9792" y1="33.0221" x2="7.98042" y2="33.0221" gradientUnits="userSpaceOnUse">
<stop/>
<stop offset="1" stop-opacity="0"/>
</linearGradient>
<radialGradient id="paint18_radial_3126_2627" cx="0" cy="0" r="1" gradientUnits="userSpaceOnUse" gradientTransform="translate(51.9794 59.0237) rotate(90) scale(5.00177 4.00124)">
<stop/>
<stop offset="1" stop-opacity="0"/>
</radialGradient>
<radialGradient id="paint19_radial_3126_2627" cx="0" cy="0" r="1" gradientUnits="userSpaceOnUse" gradientTransform="translate(11.9784 59.0175) rotate(180) scale(4.00124 5.00177)">
<stop/>
<stop offset="1" stop-opacity="0"/>
</radialGradient>
<linearGradient id="paint20_linear_3126_2627" x1="45.9758" y1="10.025" x2="9.98041" y2="61.0233" gradientUnits="userSpaceOnUse">
<stop stop-color="#EDEDED"/>
<stop offset="1" stop-color="#FCFCFC"/>
</linearGradient>
<linearGradient id="paint21_linear_3126_2627" x1="32" y1="23" x2="32" y2="47" gradientUnits="userSpaceOnUse">
<stop stop-color="#404040"/>
<stop offset="1" stop-color="#737373"/>
</linearGradient>
<radialGradient id="paint22_radial_3126_2627" cx="0" cy="0" r="1" gradientUnits="userSpaceOnUse" gradientTransform="translate(39.9785 17.0267) rotate(180) scale(16.0028 16.0028)">
<stop/>
<stop offset="1" stop-opacity="0"/>
</radialGradient>
<radialGradient id="paint23_radial_3126_2627" cx="0" cy="0" r="1" gradientUnits="userSpaceOnUse" gradientTransform="translate(39.9792 11.0239) rotate(-90) scale(12.0001 16.0001)">
<stop/>
<stop offset="1" stop-opacity="0"/>
</radialGradient>
<linearGradient id="paint24_linear_3126_2627" x1="39.9785" y1="14.3571" x2="23.9794" y2="14.3571" gradientUnits="userSpaceOnUse">
<stop/>
<stop offset="1" stop-opacity="0"/>
</linearGradient>
<linearGradient id="paint25_linear_3126_2627" x1="39.9785" y1="14.0245" x2="32.9787" y2="14.0245" gradientUnits="userSpaceOnUse">
<stop/>
<stop offset="1" stop-opacity="0"/>
</linearGradient>
<radialGradient id="paint26_radial_3126_2627" cx="0" cy="0" r="1" gradientUnits="userSpaceOnUse" gradientTransform="translate(39.978 17.0242) rotate(180) scale(7.00124 7.02916)">
<stop/>
<stop offset="1" stop-opacity="0"/>
</radialGradient>
<radialGradient id="paint27_radial_3126_2627" cx="0" cy="0" r="1" gradientUnits="userSpaceOnUse" gradientTransform="translate(39.9792 11.0229) rotate(-90) scale(10.4625 7.03869)">
<stop/>
<stop offset="1" stop-opacity="0"/>
</radialGradient>
<linearGradient id="paint28_linear_3126_2627" x1="43.3108" y1="17.0229" x2="43.3108" y2="33.0219" gradientUnits="userSpaceOnUse">
<stop/>
<stop offset="1" stop-opacity="0"/>
</linearGradient>
<linearGradient id="paint29_linear_3126_2627" x1="42.9782" y1="17.0229" x2="42.9782" y2="24.0492" gradientUnits="userSpaceOnUse">
<stop/>
<stop offset="1" stop-opacity="0"/>
</linearGradient>
<radialGradient id="paint30_radial_3126_2627" cx="0" cy="0" r="1" gradientUnits="userSpaceOnUse" gradientTransform="translate(45.9792 17.0241) scale(11.4689 7.02797)">
<stop/>
<stop offset="1" stop-opacity="0"/>
</radialGradient>
<radialGradient id="paint31_radial_3126_2627" cx="0" cy="0" r="1" gradientUnits="userSpaceOnUse" gradientTransform="translate(45.9789 17.0239) scale(12 16)">
<stop/>
<stop offset="1" stop-opacity="0"/>
</radialGradient>
<linearGradient id="paint32_linear_3126_2627" x1="39.9792" y1="17.0225" x2="45.9793" y2="11.0225" gradientUnits="userSpaceOnUse">
<stop stop-color="#FEFEFE"/>
<stop offset="1" stop-color="#E9E9E9"/>
</linearGradient>
<clipPath id="clip0_3126_2627">
<rect width="64" height="64" fill="white"/>
</clipPath>
<clipPath id="clip1_3126_2627">
<rect width="64" height="64" fill="white"/>
</clipPath>
</defs>
</svg>
