<svg width="64" height="64" viewBox="0 0 64 64" fill="none" xmlns="http://www.w3.org/2000/svg">
<g id="image-vnd.djvu" clip-path="url(#clip0_3125_2449)">
<g id="Blank-File" clip-path="url(#clip1_3125_2449)">
<g id="Shadow 2" opacity="0.1">
<path id="Vector" d="M11.9791 59.0257H51.9786V65.024H11.9791V59.0257Z" fill="url(#paint0_linear_3125_2449)"/>
<path id="Vector_2" d="M34.979 1.02399V8.02399L41.979 1.02399H34.979Z" fill="url(#paint1_radial_3125_2449)"/>
<path id="Vector_3" d="M41.979 1.02399L34.979 8.02399L48.979 23.024L57.979 14.024V4.56899L54.434 1.02399H41.979Z" fill="url(#paint2_linear_3125_2449)"/>
<path id="Vector_4" d="M57.979 14.024L48.979 23.024H57.979V14.024Z" fill="url(#paint3_radial_3125_2449)"/>
<path id="Vector_5" d="M11.9791 1.02399H34.978V5.0228H11.9791V1.02399Z" fill="url(#paint4_linear_3125_2449)"/>
<path id="Vector_6" d="M5.97717 1.02399H11.9754V5.0228H5.97717V1.02399Z" fill="url(#paint5_radial_3125_2449)"/>
<path id="Vector_7" d="M51.9786 23.025H57.9769V59.0257H51.9786V23.025Z" fill="url(#paint6_linear_3125_2449)"/>
<path id="Vector_8" d="M5.97717 5.0228H11.9754V59.0219H5.97717V5.0228Z" fill="url(#paint7_linear_3125_2449)"/>
<path id="Vector_9" d="M51.9786 59.0257H57.9769V65.024H51.9786V59.0257Z" fill="url(#paint8_radial_3125_2449)"/>
<path id="Vector_10" d="M5.97717 59.0257H11.9754V65.024H5.97717V59.0257Z" fill="url(#paint9_radial_3125_2449)"/>
</g>
<g id="Shadow 1" opacity="0.2">
<path id="Vector_11" d="M11.9791 59.0257H51.9786V65.024H11.9791V59.0257Z" fill="url(#paint10_linear_3125_2449)"/>
<path id="Vector_12" d="M34.9791 1.02399V8.02403L41.9792 1.02399H34.9791Z" fill="url(#paint11_radial_3125_2449)"/>
<path id="Vector_13" d="M41.9792 1.02399L34.9791 8.02403L48.9792 23.0241L57.9793 14.0241V4.56901L54.4343 1.02399H41.9792Z" fill="url(#paint12_linear_3125_2449)"/>
<path id="Vector_14" d="M57.9793 14.0241L48.9792 23.0241H57.9793V14.0241Z" fill="url(#paint13_radial_3125_2449)"/>
<path id="Vector_15" d="M11.9791 1.02399H34.978V5.0228H11.9791V1.02399Z" fill="url(#paint14_linear_3125_2449)"/>
<path id="Vector_16" d="M11.9754 1.02399H5.97717V5.0228H11.9754V1.02399Z" fill="url(#paint15_radial_3125_2449)"/>
<path id="Vector_17" d="M51.9786 23.025H57.9769V59.0257H51.9786V23.025Z" fill="url(#paint16_linear_3125_2449)"/>
<path id="Vector_18" d="M5.97717 5.0228H11.9754V59.0219H5.97717V5.0228Z" fill="url(#paint17_linear_3125_2449)"/>
<path id="Vector_19" d="M51.9786 59.0257H57.9769V65.024H51.9786V59.0257Z" fill="url(#paint18_radial_3125_2449)"/>
<path id="Vector_20" d="M5.97717 59.0257H11.9754V65.024H5.97717V59.0257Z" fill="url(#paint19_radial_3125_2449)"/>
</g>
<path id="Paper" d="M10.9777 2.02557C10.4477 2.02657 9.93973 2.23754 9.56499 2.61229C9.19024 2.98704 8.97927 3.49501 8.97827 4.02498V60.0235C8.97827 61.131 9.87026 62.0229 10.9815 62.0229H52.9766C54.0878 62.0229 54.9798 61.131 54.9798 60.0198V21.0256C54.9798 20.024 54.3675 18.4177 52.9766 17.023L39.9748 4.0212C39.508 3.40374 38.905 2.90239 38.2127 2.55624C37.5204 2.21009 36.7575 2.02848 35.9835 2.02557H10.9777Z" fill="url(#paint20_linear_3125_2449)"/>
</g>
<path id="name" d="M23.7852 56H21.9897V50.1818H23.8647C24.4291 50.1818 24.9121 50.2983 25.3136 50.5312C25.7151 50.7623 26.0228 51.0947 26.2369 51.5284C26.4509 51.9602 26.5579 52.4773 26.5579 53.0795C26.5579 53.6856 26.4499 54.2074 26.234 54.6449C26.0181 55.0805 25.7037 55.4157 25.2908 55.6506C24.878 55.8835 24.3761 56 23.7852 56ZM22.6942 55.375H23.7397C24.2208 55.375 24.6194 55.2822 24.9357 55.0966C25.252 54.911 25.4878 54.6468 25.6431 54.304C25.7984 53.9612 25.8761 53.553 25.8761 53.0795C25.8761 52.6098 25.7994 52.2055 25.646 51.8665C25.4925 51.5256 25.2634 51.2642 24.9585 51.0824C24.6535 50.8987 24.2738 50.8068 23.8192 50.8068H22.6942V55.375ZM29.967 50.1818H30.6715V54.3409C30.6715 54.7121 30.6033 55.0275 30.467 55.2869C30.3306 55.5464 30.1384 55.7434 29.8903 55.8778C29.6422 56.0123 29.3496 56.0795 29.0124 56.0795C28.6942 56.0795 28.4111 56.0218 28.163 55.9062C27.9149 55.7888 27.7198 55.6222 27.5778 55.4062C27.4357 55.1903 27.3647 54.9337 27.3647 54.6364H28.0579C28.0579 54.8011 28.0986 54.9451 28.18 55.0682C28.2634 55.1894 28.377 55.2841 28.521 55.3523C28.6649 55.4205 28.8287 55.4545 29.0124 55.4545C29.2151 55.4545 29.3874 55.4119 29.5295 55.3267C29.6715 55.2415 29.7795 55.1165 29.8533 54.9517C29.9291 54.785 29.967 54.5814 29.967 54.3409V50.1818ZM32.3221 50.1818L34.0494 55.0795H34.1175L35.8448 50.1818H36.5835L34.4471 56H33.7198L31.5835 50.1818H32.3221ZM41.3079 50.1818H42.0124V54.0341C42.0124 54.4318 41.9187 54.7869 41.7312 55.0994C41.5456 55.41 41.2833 55.6553 40.9442 55.8352C40.6052 56.0133 40.2075 56.1023 39.7511 56.1023C39.2946 56.1023 38.8969 56.0133 38.5579 55.8352C38.2189 55.6553 37.9556 55.41 37.7681 55.0994C37.5825 54.7869 37.4897 54.4318 37.4897 54.0341V50.1818H38.1942V53.9773C38.1942 54.2614 38.2567 54.5142 38.3817 54.7358C38.5067 54.9555 38.6848 55.1288 38.9158 55.2557C39.1488 55.3807 39.4272 55.4432 39.7511 55.4432C40.0749 55.4432 40.3533 55.3807 40.5863 55.2557C40.8192 55.1288 40.9973 54.9555 41.1204 54.7358C41.2454 54.5142 41.3079 54.2614 41.3079 53.9773V50.1818Z" fill="#737373"/>
<g id="Logo Frame">
<g id="Logo">
<g id="Union" opacity="0.25">
<path d="M44 45H20V44H44V45Z" fill="black"/>
<path d="M44 42H20V41H44V42Z" fill="black"/>
<path d="M44 39H20V38H44V39Z" fill="black"/>
<path d="M44 36H38V35H44V36Z" fill="black"/>
<path d="M44 33H38V32H44V33Z" fill="black"/>
<path d="M44 30H38V29H44V30Z" fill="black"/>
<path d="M44 27H38V26H44V27Z" fill="black"/>
<path d="M44 24H38V23H44V24Z" fill="black"/>
</g>
<path id="Img" fill-rule="evenodd" clip-rule="evenodd" d="M22 25H34V34H22V25Z" fill="url(#paint21_linear_3125_2449)"/>
<path id="Img Frame" opacity="0.25" fill-rule="evenodd" clip-rule="evenodd" d="M36 23V36H20V23H36ZM21 24V35H35V24H21Z" fill="black"/>
</g>
</g>
<g id="Blank-File-Top">
<g id="Curl">
<g id="Shadow">
<path id="Vector_21" opacity="0.05" d="M39.9784 17.0229H23.9794V33.022H39.9784V17.0229Z" fill="url(#paint22_radial_3125_2449)"/>
<path id="Vector_22" opacity="0.05" d="M23.9791 2.02386V11.0239H39.9792V4.02388C38.6412 2.33087 36.9792 2.02386 35.9792 2.02386H23.9791Z" fill="url(#paint23_radial_3125_2449)"/>
<path id="Vector_23" opacity="0.05" d="M39.9784 11.0247H23.9794V17.0229H39.9784V11.0247Z" fill="url(#paint24_linear_3125_2449)"/>
<path id="Vector_24" opacity="0.2" d="M39.9785 11.0247H28.9799V17.0229H39.9785V11.0247Z" fill="url(#paint25_linear_3125_2449)"/>
<path id="Vector_25" opacity="0.2" d="M39.9785 17.0229H28.9799V28.0216H39.9785V17.0229Z" fill="url(#paint26_radial_3125_2449)"/>
<path id="Vector_26" opacity="0.2" d="M28.9791 2.02386V11.0239H39.9792V4.02388C39.5247 3.43826 38.9523 2.9545 38.2992 2.60387L35.9792 2.02386H28.9791Z" fill="url(#paint27_radial_3125_2449)"/>
<path id="Vector_27" opacity="0.05" d="M39.9785 17.0229V33.0219H45.9767V17.0229H39.9785Z" fill="url(#paint28_linear_3125_2449)"/>
<path id="Vector_28" opacity="0.2" d="M39.9785 17.0267V28.0253H45.9767V17.0267H39.9785Z" fill="url(#paint29_linear_3125_2449)"/>
<path id="Vector_29" opacity="0.2" d="M45.9792 17.024V28.024H54.9793V21.024L54.5393 19.264C54.1607 18.4282 53.6319 17.6689 52.9793 17.024H45.9792Z" fill="url(#paint30_radial_3125_2449)"/>
<path id="Vector_30" opacity="0.05" d="M45.979 17.0239V33.0239H54.979V21.0239C54.979 20.8919 54.953 20.7239 54.939 20.5709C54.791 19.5779 54.176 18.2209 52.979 17.0239H45.979Z" fill="url(#paint31_radial_3125_2449)"/>
</g>
<path id="Paper_2" d="M37.9791 2.44135V17.0193C37.9791 18.1267 38.8711 19.0187 39.9823 19.0187H54.4431C54.0748 18.2763 53.5871 17.5996 52.9993 17.0155L39.9974 4.01366C39.4687 3.33478 38.7824 2.79509 37.998 2.44135H37.9791Z" fill="url(#paint32_linear_3125_2449)"/>
</g>
</g>
</g>
<defs>
<linearGradient id="paint0_linear_3125_2449" x1="29.9776" y1="59.0257" x2="29.9776" y2="65.024" gradientUnits="userSpaceOnUse">
<stop/>
<stop offset="1" stop-opacity="0"/>
</linearGradient>
<radialGradient id="paint1_radial_3125_2449" cx="0" cy="0" r="1" gradientUnits="userSpaceOnUse" gradientTransform="translate(34.978 5.02439) scale(6.32269 4.00052)">
<stop/>
<stop offset="1" stop-opacity="0"/>
</radialGradient>
<linearGradient id="paint2_linear_3125_2449" x1="42.979" y1="13.024" x2="46.727" y2="9.27599" gradientUnits="userSpaceOnUse">
<stop/>
<stop offset="1" stop-opacity="0"/>
</linearGradient>
<radialGradient id="paint3_radial_3125_2449" cx="0" cy="0" r="1" gradientUnits="userSpaceOnUse" gradientTransform="translate(51.9788 23.0242) scale(4.99995 6.94012)">
<stop/>
<stop offset="1" stop-opacity="0"/>
</radialGradient>
<linearGradient id="paint4_linear_3125_2449" x1="21.9799" y1="5.0228" x2="21.9799" y2="1.02399" gradientUnits="userSpaceOnUse">
<stop/>
<stop offset="1" stop-opacity="0"/>
</linearGradient>
<radialGradient id="paint5_radial_3125_2449" cx="0" cy="0" r="1" gradientUnits="userSpaceOnUse" gradientTransform="translate(11.9793 5.02572) rotate(-90) scale(4.00124 5.00177)">
<stop/>
<stop offset="1" stop-opacity="0"/>
</radialGradient>
<linearGradient id="paint6_linear_3125_2449" x1="51.9786" y1="41.0235" x2="56.979" y2="41.0235" gradientUnits="userSpaceOnUse">
<stop/>
<stop offset="1" stop-opacity="0"/>
</linearGradient>
<linearGradient id="paint7_linear_3125_2449" x1="11.9792" y1="33.0221" x2="6.97877" y2="33.0221" gradientUnits="userSpaceOnUse">
<stop/>
<stop offset="1" stop-opacity="0"/>
</linearGradient>
<radialGradient id="paint8_radial_3125_2449" cx="0" cy="0" r="1" gradientUnits="userSpaceOnUse" gradientTransform="translate(51.9742 59.0219) rotate(90) scale(6.00201 5.00177)">
<stop/>
<stop offset="1" stop-opacity="0"/>
</radialGradient>
<radialGradient id="paint9_radial_3125_2449" cx="0" cy="0" r="1" gradientUnits="userSpaceOnUse" gradientTransform="translate(11.9763 59.0219) rotate(180) scale(5.00177 6.00201)">
<stop/>
<stop offset="1" stop-opacity="0"/>
</radialGradient>
<linearGradient id="paint10_linear_3125_2449" x1="29.9776" y1="59.0257" x2="29.9776" y2="64.0224" gradientUnits="userSpaceOnUse">
<stop/>
<stop offset="1" stop-opacity="0"/>
</linearGradient>
<radialGradient id="paint11_radial_3125_2449" cx="0" cy="0" r="1" gradientUnits="userSpaceOnUse" gradientTransform="translate(34.9786 5.02329) scale(6.00771 3.00039)">
<stop/>
<stop offset="1" stop-opacity="0"/>
</radialGradient>
<linearGradient id="paint12_linear_3125_2449" x1="42.9792" y1="13.0241" x2="45.9832" y2="10.02" gradientUnits="userSpaceOnUse">
<stop/>
<stop offset="1" stop-opacity="0"/>
</linearGradient>
<radialGradient id="paint13_radial_3125_2449" cx="0" cy="0" r="1" gradientUnits="userSpaceOnUse" gradientTransform="translate(51.9799 23.0235) scale(4 6.38885)">
<stop/>
<stop offset="1" stop-opacity="0"/>
</radialGradient>
<linearGradient id="paint14_linear_3125_2449" x1="21.9799" y1="5.0228" x2="21.9799" y2="2.02558" gradientUnits="userSpaceOnUse">
<stop/>
<stop offset="1" stop-opacity="0"/>
</linearGradient>
<radialGradient id="paint15_radial_3125_2449" cx="0" cy="0" r="1" gradientUnits="userSpaceOnUse" gradientTransform="translate(11.979 5.0228) rotate(-90) scale(3.001 4.00124)">
<stop/>
<stop offset="1" stop-opacity="0"/>
</radialGradient>
<linearGradient id="paint16_linear_3125_2449" x1="51.9786" y1="41.0235" x2="55.9775" y2="41.0235" gradientUnits="userSpaceOnUse">
<stop/>
<stop offset="1" stop-opacity="0"/>
</linearGradient>
<linearGradient id="paint17_linear_3125_2449" x1="11.9792" y1="33.0221" x2="7.98036" y2="33.0221" gradientUnits="userSpaceOnUse">
<stop/>
<stop offset="1" stop-opacity="0"/>
</linearGradient>
<radialGradient id="paint18_radial_3125_2449" cx="0" cy="0" r="1" gradientUnits="userSpaceOnUse" gradientTransform="translate(51.9793 59.0237) rotate(90) scale(5.00177 4.00124)">
<stop/>
<stop offset="1" stop-opacity="0"/>
</radialGradient>
<radialGradient id="paint19_radial_3125_2449" cx="0" cy="0" r="1" gradientUnits="userSpaceOnUse" gradientTransform="translate(11.9783 59.0175) rotate(180) scale(4.00124 5.00177)">
<stop/>
<stop offset="1" stop-opacity="0"/>
</radialGradient>
<linearGradient id="paint20_linear_3125_2449" x1="45.9759" y1="10.025" x2="9.98047" y2="61.0233" gradientUnits="userSpaceOnUse">
<stop stop-color="#EDEDED"/>
<stop offset="1" stop-color="#FCFCFC"/>
</linearGradient>
<linearGradient id="paint21_linear_3125_2449" x1="28" y1="25" x2="28" y2="34" gradientUnits="userSpaceOnUse">
<stop stop-color="#6EC6FF"/>
<stop offset="0.600862" stop-color="#DFF6FF"/>
<stop offset="0.600962" stop-color="#57D987"/>
<stop offset="0.798077" stop-color="#3D9441"/>
<stop offset="1" stop-color="#1E864A"/>
</linearGradient>
<radialGradient id="paint22_radial_3125_2449" cx="0" cy="0" r="1" gradientUnits="userSpaceOnUse" gradientTransform="translate(39.9784 17.0267) rotate(180) scale(16.0028 16.0028)">
<stop/>
<stop offset="1" stop-opacity="0"/>
</radialGradient>
<radialGradient id="paint23_radial_3125_2449" cx="0" cy="0" r="1" gradientUnits="userSpaceOnUse" gradientTransform="translate(39.9792 11.0239) rotate(-90) scale(12.0001 16.0001)">
<stop/>
<stop offset="1" stop-opacity="0"/>
</radialGradient>
<linearGradient id="paint24_linear_3125_2449" x1="39.9784" y1="14.3571" x2="23.9794" y2="14.3571" gradientUnits="userSpaceOnUse">
<stop/>
<stop offset="1" stop-opacity="0"/>
</linearGradient>
<linearGradient id="paint25_linear_3125_2449" x1="39.9785" y1="14.0245" x2="32.9787" y2="14.0245" gradientUnits="userSpaceOnUse">
<stop/>
<stop offset="1" stop-opacity="0"/>
</linearGradient>
<radialGradient id="paint26_radial_3125_2449" cx="0" cy="0" r="1" gradientUnits="userSpaceOnUse" gradientTransform="translate(39.978 17.0242) rotate(180) scale(7.00124 7.02916)">
<stop/>
<stop offset="1" stop-opacity="0"/>
</radialGradient>
<radialGradient id="paint27_radial_3125_2449" cx="0" cy="0" r="1" gradientUnits="userSpaceOnUse" gradientTransform="translate(39.9792 11.0229) rotate(-90) scale(10.4625 7.03869)">
<stop/>
<stop offset="1" stop-opacity="0"/>
</radialGradient>
<linearGradient id="paint28_linear_3125_2449" x1="43.3109" y1="17.0229" x2="43.3109" y2="33.0219" gradientUnits="userSpaceOnUse">
<stop/>
<stop offset="1" stop-opacity="0"/>
</linearGradient>
<linearGradient id="paint29_linear_3125_2449" x1="42.9783" y1="17.0229" x2="42.9783" y2="24.0492" gradientUnits="userSpaceOnUse">
<stop/>
<stop offset="1" stop-opacity="0"/>
</linearGradient>
<radialGradient id="paint30_radial_3125_2449" cx="0" cy="0" r="1" gradientUnits="userSpaceOnUse" gradientTransform="translate(45.9792 17.0241) scale(11.4689 7.02797)">
<stop/>
<stop offset="1" stop-opacity="0"/>
</radialGradient>
<radialGradient id="paint31_radial_3125_2449" cx="0" cy="0" r="1" gradientUnits="userSpaceOnUse" gradientTransform="translate(45.979 17.0239) scale(12 16)">
<stop/>
<stop offset="1" stop-opacity="0"/>
</radialGradient>
<linearGradient id="paint32_linear_3125_2449" x1="39.9793" y1="17.0225" x2="45.9793" y2="11.0225" gradientUnits="userSpaceOnUse">
<stop stop-color="#FEFEFE"/>
<stop offset="1" stop-color="#E9E9E9"/>
</linearGradient>
<clipPath id="clip0_3125_2449">
<rect width="64" height="64" fill="white"/>
</clipPath>
<clipPath id="clip1_3125_2449">
<rect width="64" height="64" fill="white"/>
</clipPath>
</defs>
</svg>
