<?xml version="1.0" encoding="UTF-8" standalone="no"?>
<svg
   height="64"
   width="64"
   version="1.1"
   id="svg26"
   sodipodi:docname="multimedia-video-player.svg"
   inkscape:version="1.4.3 (0d15f75042, 2025-12-25)"
   xmlns:inkscape="http://www.inkscape.org/namespaces/inkscape"
   xmlns:sodipodi="http://sodipodi.sourceforge.net/DTD/sodipodi-0.dtd"
   xmlns:xlink="http://www.w3.org/1999/xlink"
   xmlns="http://www.w3.org/2000/svg"
   xmlns:svg="http://www.w3.org/2000/svg"
   xmlns:rdf="http://www.w3.org/1999/02/22-rdf-syntax-ns#"
   xmlns:cc="http://creativecommons.org/ns#"
   xmlns:dc="http://purl.org/dc/elements/1.1/">
  <sodipodi:namedview
     id="namedview21"
     pagecolor="#ffffff"
     bordercolor="#000000"
     borderopacity="0.25"
     inkscape:showpageshadow="2"
     inkscape:pageopacity="0.0"
     inkscape:pagecheckerboard="0"
     inkscape:deskcolor="#d1d1d1"
     inkscape:current-layer="svg26" />
  <metadata
     id="metadata32">
    <rdf:RDF>
      <cc:Work
         rdf:about="">
        <dc:format>image/svg+xml</dc:format>
        <dc:type
           rdf:resource="http://purl.org/dc/dcmitype/StillImage" />
        <dc:title />
      </cc:Work>
    </rdf:RDF>
  </metadata>
  <defs
     id="defs30">
    <linearGradient
       id="linearGradient862-3"
       x1="7.9373"
       x2="7.9373"
       y1="15.081"
       y2="1.852"
       gradientTransform="matrix(3.7795,0,0,3.7795,-85.599291,-0.9685624)"
       gradientUnits="userSpaceOnUse">
      <stop
         stop-color="#f1efeb"
         offset="0"
         id="stop857" />
      <stop
         stop-color="#fdfcfc"
         offset="1"
         id="stop859" />
    </linearGradient>
    <linearGradient
       id="linearGradient898"
       x1="29.969"
       x2="29.969"
       y1="18.796"
       y2="45.449"
       gradientTransform="matrix(2.1429,0,0,2.1429,-911.94943,-1108.5001)"
       gradientUnits="userSpaceOnUse">
      <stop
         stop-color="#cf30ac"
         offset="0"
         id="stop862" />
      <stop
         stop-color="#ab31f8"
         offset="1"
         id="stop864" />
    </linearGradient>
    <filter
       id="filter1022"
       x="-0.108"
       y="-0.108"
       width="1.216"
       height="1.216"
       color-interpolation-filters="sRGB">
      <feGaussianBlur
         stdDeviation="1.44"
         id="feGaussianBlur867" />
    </filter>
    <filter
       id="filter2761"
       x="-.024"
       y="-.024"
       width="1.048"
       height="1.048"
       color-interpolation-filters="sRGB">
      <feGaussianBlur
         stdDeviation="0.14552168"
         id="feGaussianBlur2" />
    </filter>
    <linearGradient
       id="linearGradient4673"
       x1="1.2573"
       x2="15.644"
       y1="15.429"
       y2="1.1082"
       gradientUnits="userSpaceOnUse"
       gradientTransform="translate(0.66635014,-2.2680373)">
      <stop
         stop-color="#32dcff"
         offset="0"
         id="stop5" />
      <stop
         stop-color="#3296ff"
         offset="1"
         id="stop7-3" />
    </linearGradient>
    <filter
       id="filter1057"
       x="-.027"
       y="-.027"
       width="1.054"
       height="1.054"
       color-interpolation-filters="sRGB">
      <feGaussianBlur
         stdDeviation="0.61875"
         id="feGaussianBlur863" />
    </filter>
    <linearGradient
       id="linearGradient1053"
       x1="-127"
       x2="-72"
       y1="60"
       y2="5"
       gradientTransform="translate(131.5,-0.51000007)"
       gradientUnits="userSpaceOnUse">
      <stop
         stop-color="#32d7ff"
         offset="0"
         id="stop866"
         style="stop-color:#241f31;stop-opacity:1;" />
      <stop
         stop-color="#329bff"
         offset="1"
         id="stop868"
         style="stop-color:#241f31;stop-opacity:1;" />
    </linearGradient>
    <linearGradient
       id="a"
       gradientUnits="userSpaceOnUse"
       x1="22.133511"
       x2="22.596601"
       y1="44.120548"
       y2="4.1789422">
      <stop
         offset="0"
         stop-color="#0cf"
         id="stop2" />
      <stop
         offset="1"
         stop-color="#80e5ff"
         id="stop4" />
    </linearGradient>
    <linearGradient
       id="b"
       gradientTransform="matrix(0.13328411,0,0,0.13300584,-1.879486,-222.45609)"
       gradientUnits="userSpaceOnUse"
       x1="72.850105"
       x2="72.285057"
       y1="491.14539"
       y2="462.67584">
      <stop
         offset="0"
         stop-color="#2e3436"
         id="stop7" />
      <stop
         offset="1"
         stop-color="#555753"
         id="stop9" />
    </linearGradient>
    <radialGradient
       id="gradient_ds_br"
       cx="0"
       cy="0"
       r="1"
       gradientUnits="userSpaceOnUse"
       gradientTransform="matrix(13.998399,0.00477622,-0.00477841,14.004799,47.5016,48.4952)">
      <stop
         offset="0.65"
         id="stop1" />
      <stop
         offset="1"
         stop-opacity="0"
         id="stop3" />
    </radialGradient>
    <linearGradient
       id="gradient_ds_b"
       x1="30.448999"
       y1="48.5"
       x2="30.492201"
       y2="62.500301"
       gradientUnits="userSpaceOnUse">
      <stop
         offset="0.653846"
         id="stop6" />
      <stop
         offset="1"
         stop-opacity="0"
         id="stop8" />
    </linearGradient>
    <radialGradient
       id="gradient_ds_bl"
       cx="0"
       cy="0"
       r="1"
       gradientUnits="userSpaceOnUse"
       gradientTransform="matrix(0,14,-14,0,16.5,48.5)">
      <stop
         offset="0.65"
         id="stop10" />
      <stop
         offset="1"
         stop-opacity="0"
         id="stop11" />
    </radialGradient>
    <linearGradient
       id="gradient_ds_r"
       x1="47.5"
       y1="33.5"
       x2="61.5"
       y2="33.5009"
       gradientUnits="userSpaceOnUse">
      <stop
         offset="0.649038"
         id="stop12" />
      <stop
         offset="1"
         stop-opacity="0"
         id="stop13" />
    </linearGradient>
    <linearGradient
       id="gradient_ds_l"
       x1="16.5"
       y1="33.894699"
       x2="2.5"
       y2="33.894699"
       gradientUnits="userSpaceOnUse">
      <stop
         offset="0.649038"
         id="stop14" />
      <stop
         offset="1"
         stop-opacity="0"
         id="stop15" />
    </linearGradient>
    <radialGradient
       id="gradient_ds_tr"
       cx="0"
       cy="0"
       r="1"
       gradientTransform="matrix(0.00843236,-14,14.0084,0.0189842,47.4916,18.5)"
       gradientUnits="userSpaceOnUse">
      <stop
         offset="0.65"
         id="stop16" />
      <stop
         offset="1"
         stop-opacity="0"
         id="stop17" />
    </radialGradient>
    <linearGradient
       id="gradient_ds_t"
       x1="29.98"
       y1="18.5"
       x2="29.9158"
       y2="4.4998598"
       gradientUnits="userSpaceOnUse">
      <stop
         offset="0.649038"
         id="stop18" />
      <stop
         offset="1"
         stop-opacity="0"
         id="stop19" />
    </linearGradient>
    <radialGradient
       id="gradient_ds_tl"
       cx="0"
       cy="0"
       r="1"
       gradientTransform="matrix(-0.00843236,-14,-14.0084,0.0189842,16.5084,18.5)"
       gradientUnits="userSpaceOnUse">
      <stop
         offset="0.65"
         id="stop20" />
      <stop
         offset="1"
         stop-opacity="0"
         id="stop21" />
    </radialGradient>
    <mask
       id="i"
       maskUnits="userSpaceOnUse"
       x="15"
       y="8"
       width="97"
       height="112">
      <path
         d="M 16,24 C 16.002,15.017 23.396,7.795 32.377,8.006 35.057,8.069 37.678,8.804 40,10.145 l 61.752,35.65 0.102,0.037 c 0.049,0.017 0.098,0.034 0.146,0.053 3.534,1.86 6.831,4.469 8.471,8.215 1.162,2.339 1.631,4.92 1.496,7.475 v 4.43 c 0,2.995 -0.477,5.918 -1.884,8.532 A 16.003,16.003 0 0 1 104,80.807 L 42.002,116.6 42,116.602 c -0.562,0.355 -1.144,0.686 -1.734,1.002 L 40,117.757 a 15.993,15.993 0 0 1 -6.121,2.023 c -0.445,0.059 -0.893,0.09 -1.344,0.106 l -0.078,0.006 c -0.354,0.01 -0.71,-0.003 -1.066,-0.022 a 15.21,15.21 0 0 1 -0.74,-0.039 c -0.034,-0.002 -0.066,-0.007 -0.099,-0.011 a 1.225,1.225 0 0 0 -0.085,-0.01 14.757,14.757 0 0 1 -5.621,-1.606 c -0.406,-0.206 -0.803,-0.43 -1.19,-0.67 a 16,16 0 0 1 -3.892,-3.326 15.982,15.982 0 0 1 -1.805,-2.637 15.735,15.735 0 0 1 -0.263,-0.546 16.183,16.183 0 0 1 -0.97,-2.364 l -0.013,-0.039 A 14.645,14.645 0 0 1 16,103.9 l 0.003,-5.334 A 14.216,14.216 0 0 1 16,97.9 Z"
         fill="#000000"
         id="path6" />
    </mask>
    <linearGradient
       id="j"
       x1="19.5"
       y1="54"
       x2="19.5"
       y2="74"
       gradientUnits="userSpaceOnUse">
      <stop
         stop-opacity=".5"
         id="stop29" />
      <stop
         offset="1"
         stop-color="#fff"
         stop-opacity=".2"
         id="stop30" />
    </linearGradient>
    <linearGradient
       id="k"
       x1="19.5"
       y1="78"
       x2="19.5"
       y2="98"
       gradientUnits="userSpaceOnUse">
      <stop
         stop-opacity=".5"
         id="stop31" />
      <stop
         offset="1"
         stop-color="#fff"
         stop-opacity=".2"
         id="stop32" />
    </linearGradient>
    <linearGradient
       id="l"
       x1="19.5"
       y1="102"
       x2="19.5"
       y2="122"
       gradientUnits="userSpaceOnUse">
      <stop
         stop-opacity=".5"
         id="stop33" />
      <stop
         offset="1"
         stop-color="#fff"
         stop-opacity=".2"
         id="stop34" />
    </linearGradient>
    <mask
       id="c"
       maskUnits="userSpaceOnUse"
       x="15"
       y="8"
       width="97"
       height="106">
      <path
         fill-rule="evenodd"
         clip-rule="evenodd"
         d="M 32.377,8.006 C 23.397,7.796 16.002,15.016 16,24 v 41.9 l 0.014,0.03 C 15.994,76.586 16.011,87.244 16,97.9 c -0.15,8.053 6.603,15.428 14.65,15.932 3.202,0.357 6.302,-0.538 9.127,-1.973 0.075,-0.036 0.148,-0.062 0.223,-0.101 l 0.266,-0.153 c 0.59,-0.316 1.172,-0.647 1.734,-1.001 L 42.002,110.602 104,74.752 c 7.048,-3.897 10.057,-13.431 6.471,-20.652 -1.64,-3.746 -4.937,-6.356 -8.471,-8.215 -0.082,-0.033 -0.165,-0.06 -0.248,-0.09 L 40,10.145 a 16.002,16.002 0 0 0 -7.623,-2.14 z"
         fill="#f6f5f4"
         id="path3" />
    </mask>
    <linearGradient
       id="d"
       x1="112"
       y1="92.353996"
       x2="19.33"
       y2="109.922"
       gradientUnits="userSpaceOnUse">
      <stop
         stop-color="#FFA348"
         id="stop24" />
      <stop
         offset=".475"
         stop-color="#C061CB"
         id="stop25" />
      <stop
         offset="1"
         stop-color="#1C71D8"
         id="stop26" />
    </linearGradient>
    <radialGradient
       id="e"
       cx="0"
       cy="0"
       r="1"
       gradientUnits="userSpaceOnUse"
       gradientTransform="matrix(0,71,-71,0,104,77)">
      <stop
         stop-color="#F8E45C"
         stop-opacity="0"
         id="stop35" />
      <stop
         offset="1"
         stop-color="#F8E45C"
         id="stop36" />
    </radialGradient>
    <radialGradient
       id="f"
       cx="0"
       cy="0"
       r="1"
       gradientUnits="userSpaceOnUse"
       gradientTransform="matrix(0,45,-45.5,0,105.5,77)">
      <stop
         stop-color="#F8E45C"
         stop-opacity="0"
         id="stop37" />
      <stop
         offset="1"
         stop-color="#F8E45C"
         id="stop38" />
    </radialGradient>
    <radialGradient
       id="g"
       cx="0"
       cy="0"
       r="1"
       gradientUnits="userSpaceOnUse"
       gradientTransform="matrix(0,26,-26,0,111,77)">
      <stop
         stop-color="#F8E45C"
         stop-opacity="0"
         id="stop39" />
      <stop
         offset="1"
         stop-color="#F8E45C"
         id="stop40" />
    </radialGradient>
    <linearGradient
       id="h"
       x1="99.5"
       y1="78"
       x2="18.749001"
       y2="61.801998"
       gradientUnits="userSpaceOnUse">
      <stop
         stop-color="#F8E45C"
         id="stop27" />
      <stop
         offset=".513"
         stop-color="#2EC27E"
         id="stop28" />
    </linearGradient>
    <linearGradient
       id="b-3"
       x1="16"
       y1="72"
       x2="112"
       y2="72"
       gradientUnits="userSpaceOnUse">
      <stop
         stop-color="#0E8266"
         id="stop17-6" />
      <stop
         offset=".086"
         stop-color="#2EC27E"
         id="stop18-7" />
      <stop
         offset=".27"
         stop-color="#0E8266"
         id="stop19-5" />
      <stop
         offset=".645"
         stop-color="#26A269"
         id="stop20-3" />
      <stop
         offset=".862"
         stop-color="#E5A50A"
         id="stop21-5" />
      <stop
         offset=".926"
         stop-color="#E66100"
         id="stop22" />
      <stop
         offset="1"
         stop-color="#C64600"
         id="stop23" />
    </linearGradient>
    <linearGradient
       inkscape:collect="always"
       xlink:href="#b-3"
       id="linearGradient22"
       gradientUnits="userSpaceOnUse"
       x1="16"
       y1="72"
       x2="112"
       y2="72"
       gradientTransform="translate(10.002545,-10.001532)" />
    <mask
       id="c-2"
       maskUnits="userSpaceOnUse"
       x="15"
       y="8"
       width="97"
       height="106">
      <path
         fill-rule="evenodd"
         clip-rule="evenodd"
         d="M 32.377,8.006 C 23.397,7.796 16.002,15.016 16,24 v 41.9 l 0.014,0.03 C 15.994,76.586 16.011,87.244 16,97.9 c -0.15,8.053 6.603,15.428 14.65,15.932 3.202,0.357 6.302,-0.538 9.127,-1.973 0.075,-0.036 0.148,-0.062 0.223,-0.101 l 0.266,-0.153 c 0.59,-0.316 1.172,-0.647 1.734,-1.001 L 42.002,110.602 104,74.752 c 7.048,-3.897 10.057,-13.431 6.471,-20.652 -1.64,-3.746 -4.937,-6.356 -8.471,-8.215 -0.082,-0.033 -0.165,-0.06 -0.248,-0.09 L 40,10.145 a 16.002,16.002 0 0 0 -7.623,-2.14 z"
         fill="#f6f5f4"
         id="path3-9" />
    </mask>
    <radialGradient
       id="e-0"
       cx="0"
       cy="0"
       r="1"
       gradientUnits="userSpaceOnUse"
       gradientTransform="matrix(0,71,-71,0,104,77)">
      <stop
         stop-color="#F8E45C"
         stop-opacity="0"
         id="stop35-9" />
      <stop
         offset="1"
         stop-color="#F8E45C"
         id="stop36-3" />
    </radialGradient>
    <radialGradient
       id="f-6"
       cx="0"
       cy="0"
       r="1"
       gradientUnits="userSpaceOnUse"
       gradientTransform="matrix(0,45,-45.5,0,105.5,77)">
      <stop
         stop-color="#F8E45C"
         stop-opacity="0"
         id="stop37-0" />
      <stop
         offset="1"
         stop-color="#F8E45C"
         id="stop38-6" />
    </radialGradient>
    <radialGradient
       id="g-2"
       cx="0"
       cy="0"
       r="1"
       gradientUnits="userSpaceOnUse"
       gradientTransform="matrix(0,26,-26,0,111,77)">
      <stop
         stop-color="#F8E45C"
         stop-opacity="0"
         id="stop39-6" />
      <stop
         offset="1"
         stop-color="#F8E45C"
         id="stop40-1" />
    </radialGradient>
    <radialGradient
       id="e-7"
       cx="0"
       cy="0"
       r="1"
       gradientUnits="userSpaceOnUse"
       gradientTransform="matrix(0,71,-71,0,104,77)">
      <stop
         stop-color="#F8E45C"
         stop-opacity="0"
         id="stop35-8" />
      <stop
         offset="1"
         stop-color="#F8E45C"
         id="stop36-4" />
    </radialGradient>
    <radialGradient
       id="f-5"
       cx="0"
       cy="0"
       r="1"
       gradientUnits="userSpaceOnUse"
       gradientTransform="matrix(0,45,-45.5,0,105.5,77)">
      <stop
         stop-color="#F8E45C"
         stop-opacity="0"
         id="stop37-03" />
      <stop
         offset="1"
         stop-color="#F8E45C"
         id="stop38-61" />
    </radialGradient>
    <radialGradient
       id="g-0"
       cx="0"
       cy="0"
       r="1"
       gradientUnits="userSpaceOnUse"
       gradientTransform="matrix(0,26,-26,0,111,77)">
      <stop
         stop-color="#F8E45C"
         stop-opacity="0"
         id="stop39-63" />
      <stop
         offset="1"
         stop-color="#F8E45C"
         id="stop40-2" />
    </radialGradient>
    <filter
       inkscape:collect="always"
       style="color-interpolation-filters:sRGB"
       id="filter6"
       x="-0.012619882"
       y="-0.011438163"
       width="1.0252398"
       height="1.0228763">
      <feGaussianBlur
         inkscape:collect="always"
         stdDeviation="0.16826491"
         id="feGaussianBlur6" />
    </filter>
    <linearGradient
       id="linearGradient2070-5-6"
       x1="145"
       x2="200"
       y1="59"
       y2="4"
       gradientTransform="matrix(0.87294422,0,0,0.87294422,-118.10538,2.3673058)"
       gradientUnits="userSpaceOnUse">
      <stop
         stop-color="#e1e1e1"
         offset="0"
         id="stop1-3-7"
         style="stop-color:#deddda;stop-opacity:1;" />
      <stop
         stop-color="#f5f5f5"
         offset="1"
         id="stop2-6-9"
         style="stop-color:#f6f5f4;stop-opacity:1;" />
    </linearGradient>
  </defs>
  <g
     id="ds"
     opacity="0.25">
    <path
       id="ds-br"
       d="m 47.5,48.5 h 14 v 14 h -14 z"
       fill="url(#gradient_ds_br)"
       style="fill:url(#gradient_ds_br)" />
    <path
       id="ds-b"
       d="m 16.5,48.5 h 31 v 14 h -31 z"
       fill="url(#gradient_ds_b)"
       style="fill:url(#gradient_ds_b)" />
    <path
       id="ds-bl"
       d="m 2.5,48.5 h 14 v 14 h -14 z"
       fill="url(#gradient_ds_bl)"
       style="fill:url(#gradient_ds_bl)" />
    <path
       id="ds-r"
       d="m 47.5,18.5 h 14 v 30 h -14 z"
       fill="url(#gradient_ds_r)"
       style="fill:url(#gradient_ds_r)" />
    <path
       id="ds-l"
       d="m 2.5,18.5 h 14 v 30 h -14 z"
       fill="url(#gradient_ds_l)"
       style="fill:url(#gradient_ds_l)" />
    <path
       id="ds-tr"
       d="m 47.5,4.5 h 14 v 14 h -14 z"
       fill="url(#gradient_ds_tr)"
       style="fill:url(#gradient_ds_tr)" />
    <path
       id="ds-t"
       d="m 16.5,4.5 h 31 v 14 h -31 z"
       fill="url(#gradient_ds_t)"
       style="fill:url(#gradient_ds_t)" />
    <path
       id="ds-tl"
       d="m 16.5,4.5 h -14 v 14 h 14 z"
       fill="url(#gradient_ds_tl)"
       style="fill:url(#gradient_ds_tl)" />
  </g>
  <rect
     x="4.5"
     y="4.5"
     width="55"
     height="55"
     fill="url(#linearGradient1053)"
     stroke-linecap="round"
     stroke-width="2.7444"
     id="bg"
     style="fill:url(#linearGradient2070-5-6);font-variation-settings:normal;vector-effect:none;fill-opacity:1;stroke-width:1.00001;stroke-linecap:round;stroke-linejoin:miter;stroke-miterlimit:4;stroke-dasharray:none;stroke-dashoffset:0;stroke-opacity:1;-inkscape-stroke:none;stop-color:#000000"
     rx="10" />
  <g
     id="art">
    <path
       fill-rule="evenodd"
       clip-rule="evenodd"
       d="m 23.460311,15.348489 c -2.993587,-0.07001 -5.458796,2.336865 -5.459463,5.331786 v 13.967851 l 0.0047,0.01 c -0.0067,3.552301 -0.001,7.105269 -0.0047,10.65757 -0.05,2.684561 2.201187,5.143103 4.883748,5.311118 1.067424,0.11901 2.100845,-0.179349 3.042591,-0.657723 0.025,-0.012 0.04934,-0.02067 0.07434,-0.03367 l 0.08867,-0.05101 c 0.196683,-0.105342 0.3907,-0.215685 0.578049,-0.333695 l 6.67e-4,-6.66e-4 20.667751,-11.951014 c 2.349535,-1.29911 3.35262,-4.47738 2.157186,-6.884584 -0.546713,-1.248773 -1.645806,-2.118846 -2.82391,-2.738566 -0.02734,-0.011 -0.055,-0.02 -0.08267,-0.03 L 26.001527,16.06155 a 5.3344523,5.3344523 0 0 0 -2.541216,-0.713394 z"
       fill="#f6f5f4"
       id="path3-3"
       style="display:inline;fill:#000000;fill-opacity:1;stroke-width:0.333362;filter:url(#filter6);opacity:0.25" />
    <g
       id="g22"
       transform="matrix(0.3333616,0,0,0.3333616,9.3325984,15.013724)"
       style="display:inline">
      <path
         d="m 121.96954,56.004468 v -5.006 c 0,0 -0.077,3.298 0,5.006 z"
         fill="url(#b)"
         id="path2"
         style="display:inline;fill:url(#linearGradient22)" />
      <g
         mask="url(#c)"
         id="g5"
         transform="translate(10.002545,-10.001532)"
         style="display:inline">
        <path
           fill="url(#d)"
           d="M 8,8 H 118 V 120 H 8 Z"
           id="path4"
           style="fill:url(#d)" />
        <circle
           opacity="0.25"
           cx="104"
           cy="77"
           r="71"
           fill="url(#e)"
           id="circle4"
           style="fill:url(#e)" />
        <ellipse
           opacity="0.25"
           cx="105.5"
           cy="77"
           rx="45.5"
           ry="45"
           fill="url(#f)"
           id="ellipse4"
           style="fill:url(#f)" />
        <circle
           opacity="0.25"
           cx="111"
           cy="77"
           r="26"
           fill="url(#g)"
           id="circle5"
           style="fill:url(#g)" />
        <path
           d="M 119,78 H 7 v 49 h 112 z"
           fill="url(#h)"
           id="path5"
           style="display:inline;fill:url(#h)" />
      </g>
    </g>
  </g>
</svg>
