<?xml version="1.0" encoding="UTF-8" standalone="no"?>
<svg xmlns:inkscape="http://www.inkscape.org/namespaces/inkscape" xmlns:sodipodi="http://sodipodi.sourceforge.net/DTD/sodipodi-0.dtd" xmlns:xlink="http://www.w3.org/1999/xlink" xmlns="http://www.w3.org/2000/svg" xmlns:svg="http://www.w3.org/2000/svg" xmlns:rdf="http://www.w3.org/1999/02/22-rdf-syntax-ns#" xmlns:cc="http://creativecommons.org/ns#" xmlns:dc="http://purl.org/dc/elements/1.1/" inkscape:version="1.4.2 (ebf0e940d0, 2025-05-08)" sodipodi:docname="5C12_World_of_Warcraft_Launcher.0.svg" id="svg28" viewBox="0 0 64 64" version="1.1" height="64" width="64">
  <metadata id="metadata2">
    <rdf:RDF>
      <cc:Work rdf:about="">
        <dc:format>image/svg+xml</dc:format>
        <dc:type rdf:resource="http://purl.org/dc/dcmitype/StillImage"/>
      </cc:Work>
    </rdf:RDF>
  </metadata>
  <defs id="defs12">
    <filter color-interpolation-filters="sRGB" height="1.048" width="1.048" y="-.024" x="-.024" id="filter2761">
      <feGaussianBlur id="feGaussianBlur4" stdDeviation="0.14552168"/>
    </filter>
    <linearGradient gradientUnits="userSpaceOnUse" gradientTransform="matrix(3.7796,0,0,3.7796,82.335486,0.53085)" y2="2.6243" y1="15.576" x2="14.217" x1="1.3315" id="linearGradient1024">
      <stop id="stop7" offset="0" stop-color="#ff7d1e"/>
      <stop id="stop9" offset="1" stop-color="#ffa53c"/>
    </linearGradient>
    <filter inkscape:collect="always" style="color-interpolation-filters:sRGB" id="filter1057" x="-0.026999999" width="1.054" y="-0.026999999" height="1.054">
      <feGaussianBlur inkscape:collect="always" stdDeviation="0.61875" id="feGaussianBlur1059"/>
    </filter>
    <linearGradient inkscape:collect="always" xlink:href="#linearGradient1051" id="linearGradient1053" x1="-127" y1="60" x2="-72" y2="5" gradientUnits="userSpaceOnUse" gradientTransform="translate(131.5,-0.50999766)"/>
    <linearGradient inkscape:collect="always" id="linearGradient1051">
      <stop style="stop-color:#ff8021;stop-opacity:1" offset="0" id="stop1047"/>
      <stop style="stop-color:#ffa53c;stop-opacity:1" offset="1" id="stop1049"/>
    </linearGradient>
    <filter id="filter2761-36" x="-.024" y="-.024" width="1.048" height="1.048" color-interpolation-filters="sRGB">
      <feGaussianBlur stdDeviation="0.14552168" id="feGaussianBlur867"/>
    </filter>
    <linearGradient gradientTransform="matrix(3.779602,0,0,3.779602,92.247577,13.530426)" id="linearGradient1024-75" x1="1.3315" x2="15.65" y1="15.576" y2="1.17" gradientUnits="userSpaceOnUse">
      <stop stop-color="#00c8ff" offset="0" id="stop870"/>
      <stop stop-color="#14a0ff" offset="1" id="stop872"/>
    </linearGradient>
    <filter id="filter914" x="-.085107" y="-.082922" width="1.1702" height="1.1658" color-interpolation-filters="sRGB">
      <feGaussianBlur stdDeviation="0.33551342" id="feGaussianBlur875"/>
    </filter>
    <filter id="filter2761-3" x="-.024" y="-.024" width="1.048" height="1.048" color-interpolation-filters="sRGB">
      <feGaussianBlur stdDeviation="0.14552168" id="feGaussianBlur935"/>
    </filter>
    <filter id="filter924" x="-.060054" y="-.059946" width="1.1201" height="1.1199" color-interpolation-filters="sRGB">
      <feGaussianBlur stdDeviation="0.2078715" id="feGaussianBlur938"/>
    </filter>
    <linearGradient id="linearGradient2645-3" x1="15.752" x2="1.3927" y1="281.24" y2="295.6" gradientTransform="translate(-.13126 -280.07)" gradientUnits="userSpaceOnUse">
      <stop stop-color="#ffdc32" offset="0" id="stop941"/>
      <stop stop-color="#ff7832" offset="1" id="stop943"/>
    </linearGradient>
    <filter id="filter905" x="-.055661" y="-.065073" width="1.1113" height="1.1301" color-interpolation-filters="sRGB">
      <feGaussianBlur stdDeviation="0.21113719" id="feGaussianBlur946"/>
    </filter>
    <linearGradient id="linearGradient892" x1="4.2408" x2="13.345" y1="8.4207" y2="8.4207" gradientTransform="translate(14.056 .42995)" gradientUnits="userSpaceOnUse">
      <stop stop-color="#fafadc" offset="0" id="stop949"/>
      <stop stop-color="#faf0a0" offset="1" id="stop951"/>
    </linearGradient>
    <filter id="filter2761-6" x="-.024" y="-.024" width="1.048" height="1.048" color-interpolation-filters="sRGB">
      <feGaussianBlur stdDeviation="0.14552168" id="feGaussianBlur997"/>
    </filter>
    <linearGradient id="linearGradient1024-7" x1="1.3315" x2="14.217" y1="15.576" y2="2.6243" gradientUnits="userSpaceOnUse">
      <stop stop-color="#ff7d1e" offset="0" id="stop1000"/>
      <stop stop-color="#ffa53c" offset="1" id="stop1002"/>
    </linearGradient>
  <radialGradient id="gradient_ds_br" cx="0" cy="0" r="1" gradientUnits="userSpaceOnUse" gradientTransform="matrix(13.998399,0.00477622,-0.00477841,14.004799,47.5016,48.4952)">
      <stop offset="0.65" id="stop1"/>
      <stop offset="1" stop-opacity="0" id="stop2"/>
    </radialGradient><linearGradient id="gradient_ds_b" x1="30.448999" y1="48.5" x2="30.492201" y2="62.500301" gradientUnits="userSpaceOnUse">
      <stop offset="0.653846" id="stop3"/>
      <stop offset="1" stop-opacity="0" id="stop4"/>
    </linearGradient><radialGradient id="gradient_ds_bl" cx="0" cy="0" r="1" gradientUnits="userSpaceOnUse" gradientTransform="matrix(0,14,-14,0,16.5,48.5)">
      <stop offset="0.65" id="stop5"/>
      <stop offset="1" stop-opacity="0" id="stop6"/>
    </radialGradient><linearGradient id="gradient_ds_r" x1="47.5" y1="33.5" x2="61.5" y2="33.5009" gradientUnits="userSpaceOnUse">
      <stop offset="0.649038" id="stop7"/>
      <stop offset="1" stop-opacity="0" id="stop8"/>
    </linearGradient><linearGradient id="gradient_ds_l" x1="16.5" y1="33.894699" x2="2.5" y2="33.894699" gradientUnits="userSpaceOnUse">
      <stop offset="0.649038" id="stop9"/>
      <stop offset="1" stop-opacity="0" id="stop10"/>
    </linearGradient><radialGradient id="gradient_ds_tr" cx="0" cy="0" r="1" gradientTransform="matrix(0.00843236,-14,14.0084,0.0189842,47.4916,18.5)" gradientUnits="userSpaceOnUse">
      <stop offset="0.65" id="stop11"/>
      <stop offset="1" stop-opacity="0" id="stop12"/>
    </radialGradient><linearGradient id="gradient_ds_t" x1="29.98" y1="18.5" x2="29.9158" y2="4.4998598" gradientUnits="userSpaceOnUse">
      <stop offset="0.649038" id="stop13"/>
      <stop offset="1" stop-opacity="0" id="stop14"/>
    </linearGradient><radialGradient id="gradient_ds_tl" cx="0" cy="0" r="1" gradientTransform="matrix(-0.00843236,-14,-14.0084,0.0189842,16.5084,18.5)" gradientUnits="userSpaceOnUse">
      <stop offset="0.65" id="stop15"/>
      <stop offset="1" stop-opacity="0" id="stop16"/>
    </radialGradient></defs>
  
  <g id="ds" opacity="0.25">
    <path id="ds-br" d="m 47.5,48.5 h 14 v 14 h -14 z" fill="url(#gradient_ds_br)" style="fill:url(#gradient_ds_br)"/>
    <path id="ds-b" d="m 16.5,48.5 h 31 v 14 h -31 z" fill="url(#gradient_ds_b)" style="fill:url(#gradient_ds_b)"/>
    <path id="ds-bl" d="m 2.5,48.5 h 14 v 14 h -14 z" fill="url(#gradient_ds_bl)" style="fill:url(#gradient_ds_bl)"/>
    <path id="ds-r" d="m 47.5,18.5 h 14 v 30 h -14 z" fill="url(#gradient_ds_r)" style="fill:url(#gradient_ds_r)"/>
    <path id="ds-l" d="m 2.5,18.5 h 14 v 30 h -14 z" fill="url(#gradient_ds_l)" style="fill:url(#gradient_ds_l)"/>
    <path id="ds-tr" d="m 47.5,4.5 h 14 v 14 h -14 z" fill="url(#gradient_ds_tr)" style="fill:url(#gradient_ds_tr)"/>
    <path id="ds-t" d="m 16.5,4.5 h 31 v 14 h -31 z" fill="url(#gradient_ds_t)" style="fill:url(#gradient_ds_t)"/>
    <path id="ds-tl" d="m 16.5,4.5 h -14 v 14 h 14 z" fill="url(#gradient_ds_tl)" style="fill:url(#gradient_ds_tl)"/>
  </g><rect y="4.5" x="4.5" height="55" width="55" id="bg" style="display:inline;fill:url(#linearGradient1053);fill-opacity:1;stroke-width:2.74436;stroke-linecap:round" rx="10"/>
  <g transform="matrix(4.1339,0,0,4.1339,-113.33139,-23.871477)" fill-opacity="0.8" id="art">
    <path d="m 35.156,9.2822 c -0.76017,0 -1.4647,0.20483 -2.0814,0.55562 h -1.5875 v 1.5699 c -0.35739,0.62089 -0.56444,1.34 -0.56444,2.1078 0,0.76784 0.20705,1.487 0.56444,2.1078 v 1.5522 h 1.5522 c 0.62434,0.36286 1.3425,0.57326 2.1167,0.57326 0.7742,0 1.5011,-0.21041 2.1255,-0.57326 h 1.5434 v -1.5434 c 0.36078,-0.62304 0.56444,-1.3449 0.56444,-2.1167 0,-0.77176 -0.20366,-1.4936 -0.56444,-2.1167 v -1.561 H 37.2462 C 36.62955,9.48692 35.9162,9.2821 35.156,9.2821 Z m 0.01764,0.71437 c 1.94,0 3.5101,1.5701 3.5101,3.5101 0,1.94 -1.5701,3.519 -3.5101,3.519 -1.94,0 -3.5101,-1.5789 -3.5101,-3.519 0,-1.9401 1.5701,-3.5101 3.5101,-3.5101 z" id="path949"/>
    <path d="m 35.978,11.878 0.15685,0.2166 -0.35105,2.3229 c -0.25831,-1.0459 -0.59628,-2.4318 -0.59753,-2.4349 l -0.56765,2.4275 -0.44068,-2.1138 0.08963,-0.4108 -1.2772,-0.01494 c 0.10218,0.07806 0.18006,0.20946 0.26142,0.3137 l 0.80666,3.2789 c -0.06637,0.12313 -0.16608,0.23927 -0.24648,0.34358 0.43074,0.0023 0.87079,0.0052 1.2399,0.0075 l -0.08963,-0.38838 0.24648,-1.1278 0.20914,1.2249 -0.03735,0.2913 1.2175,-0.0075 -0.0075,-0.0075 -0.16432,-0.3137 0.49296,-3.0773 0.37345,-0.54524 c -0.43819,0.0048 -0.87637,0.0099 -1.3146,0.01494 z" id="path951"/>
  </g>
</svg>
