<?xml version="1.0" encoding="UTF-8" standalone="no"?>
<svg xmlns:inkscape="http://www.inkscape.org/namespaces/inkscape" xmlns:sodipodi="http://sodipodi.sourceforge.net/DTD/sodipodi-0.dtd" xmlns="http://www.w3.org/2000/svg" xmlns:svg="http://www.w3.org/2000/svg" xmlns:rdf="http://www.w3.org/1999/02/22-rdf-syntax-ns#" xmlns:cc="http://creativecommons.org/ns#" xmlns:dc="http://purl.org/dc/elements/1.1/" width="64" height="64" version="1.1" viewBox="0 0 64 64" id="svg8" sodipodi:docname="blinken.svg" inkscape:version="1.4.2 (ebf0e940d0, 2025-05-08)">
  <sodipodi:namedview id="namedview1" pagecolor="#ffffff" bordercolor="#000000" borderopacity="0.25" inkscape:showpageshadow="2" inkscape:pageopacity="0.0" inkscape:pagecheckerboard="0" inkscape:deskcolor="#d1d1d1" inkscape:current-layer="svg8"/>
  <defs id="defs2">
    <filter id="filter1057-2" x="-0.026999999" y="-0.026999999" width="1.054" height="1.054" color-interpolation-filters="sRGB">
      <feGaussianBlur stdDeviation="0.61875" id="feGaussianBlur1"/>
    </filter>
    <linearGradient id="linearGradient1053-0" x1="-127" x2="-72" y1="60" y2="5" gradientTransform="matrix(1.0000071,0,0,1.0000071,131.50294,-0.5098683)" gradientUnits="userSpaceOnUse">
      <stop stop-color="#dee0e2" offset="0" id="stop1"/>
      <stop stop-color="#f1f3f5" stop-opacity=".99608" offset="1" id="stop2"/>
    </linearGradient>
    <filter id="filter1057-2-3" x="-0.026999999" y="-0.026999999" width="1.054" height="1.054" color-interpolation-filters="sRGB">
      <feGaussianBlur stdDeviation="0.61875" id="feGaussianBlur1-6"/>
    </filter>
  <radialGradient id="gradient_ds_br" cx="0" cy="0" r="1" gradientUnits="userSpaceOnUse" gradientTransform="matrix(13.998399,0.00477622,-0.00477841,14.004799,47.5016,48.4952)">
      <stop offset="0.65" id="stop1"/>
      <stop offset="1" stop-opacity="0" id="stop2"/>
    </radialGradient><linearGradient id="gradient_ds_b" x1="30.448999" y1="48.5" x2="30.492201" y2="62.500301" gradientUnits="userSpaceOnUse">
      <stop offset="0.653846" id="stop3"/>
      <stop offset="1" stop-opacity="0" id="stop4"/>
    </linearGradient><radialGradient id="gradient_ds_bl" cx="0" cy="0" r="1" gradientUnits="userSpaceOnUse" gradientTransform="matrix(0,14,-14,0,16.5,48.5)">
      <stop offset="0.65" id="stop5"/>
      <stop offset="1" stop-opacity="0" id="stop6"/>
    </radialGradient><linearGradient id="gradient_ds_r" x1="47.5" y1="33.5" x2="61.5" y2="33.5009" gradientUnits="userSpaceOnUse">
      <stop offset="0.649038" id="stop7"/>
      <stop offset="1" stop-opacity="0" id="stop8"/>
    </linearGradient><linearGradient id="gradient_ds_l" x1="16.5" y1="33.894699" x2="2.5" y2="33.894699" gradientUnits="userSpaceOnUse">
      <stop offset="0.649038" id="stop9"/>
      <stop offset="1" stop-opacity="0" id="stop10"/>
    </linearGradient><radialGradient id="gradient_ds_tr" cx="0" cy="0" r="1" gradientTransform="matrix(0.00843236,-14,14.0084,0.0189842,47.4916,18.5)" gradientUnits="userSpaceOnUse">
      <stop offset="0.65" id="stop11"/>
      <stop offset="1" stop-opacity="0" id="stop12"/>
    </radialGradient><linearGradient id="gradient_ds_t" x1="29.98" y1="18.5" x2="29.9158" y2="4.4998598" gradientUnits="userSpaceOnUse">
      <stop offset="0.649038" id="stop13"/>
      <stop offset="1" stop-opacity="0" id="stop14"/>
    </linearGradient><radialGradient id="gradient_ds_tl" cx="0" cy="0" r="1" gradientTransform="matrix(-0.00843236,-14,-14.0084,0.0189842,16.5084,18.5)" gradientUnits="userSpaceOnUse">
      <stop offset="0.65" id="stop15"/>
      <stop offset="1" stop-opacity="0" id="stop16"/>
    </radialGradient></defs>
  <metadata id="metadata2">
    <rdf:RDF>
      <cc:Work rdf:about="">
        <dc:format>image/svg+xml</dc:format>
        <dc:type rdf:resource="http://purl.org/dc/dcmitype/StillImage"/>
      </cc:Work>
    </rdf:RDF>
  </metadata>
  
  <g id="ds" opacity="0.25">
    <path id="ds-br" d="m 47.5,48.5 h 14 v 14 h -14 z" fill="url(#gradient_ds_br)" style="fill:url(#gradient_ds_br)"/>
    <path id="ds-b" d="m 16.5,48.5 h 31 v 14 h -31 z" fill="url(#gradient_ds_b)" style="fill:url(#gradient_ds_b)"/>
    <path id="ds-bl" d="m 2.5,48.5 h 14 v 14 h -14 z" fill="url(#gradient_ds_bl)" style="fill:url(#gradient_ds_bl)"/>
    <path id="ds-r" d="m 47.5,18.5 h 14 v 30 h -14 z" fill="url(#gradient_ds_r)" style="fill:url(#gradient_ds_r)"/>
    <path id="ds-l" d="m 2.5,18.5 h 14 v 30 h -14 z" fill="url(#gradient_ds_l)" style="fill:url(#gradient_ds_l)"/>
    <path id="ds-tr" d="m 47.5,4.5 h 14 v 14 h -14 z" fill="url(#gradient_ds_tr)" style="fill:url(#gradient_ds_tr)"/>
    <path id="ds-t" d="m 16.5,4.5 h 31 v 14 h -31 z" fill="url(#gradient_ds_t)" style="fill:url(#gradient_ds_t)"/>
    <path id="ds-tl" d="m 16.5,4.5 h -14 v 14 h 14 z" fill="url(#gradient_ds_tl)" style="fill:url(#gradient_ds_tl)"/>
  </g><rect x="4.5" y="4.5" width="55" height="55" fill="url(#linearGradient1053-0)" stroke-linecap="round" stroke-width="2.74441" id="bg" style="fill:url(#linearGradient1053-0)" rx="10"/>
  <g id="art">
    <g id="g6" transform="matrix(3.779602,0,0,3.779602,22.000307,-6.7499912)" style="display:inline">
      <path id="path3" d="m 2.6457,10.252917 v 7.275381 h 4.6301171 c 1.4657629,0 2.6457813,-1.180018 2.6457813,-2.645781 v -4.6296 z" style="display:inline;fill:#14d29b;fill-opacity:1"/>
      <path id="path4" d="M 2.6457,2.9765015 V 10.2524 H 9.9215984 V 5.6222828 c 0,-1.4657629 -1.1800184,-2.6457813 -2.6457813,-2.6457813 z" style="display:inline;fill:#fa4141;fill-opacity:1"/>
      <path id="path5" d="m -4.6301984,10.252917 v 4.6296 c 0,1.465763 1.1800184,2.645781 2.6457813,2.645781 H 2.6457 v -7.275381 z" style="display:inline;fill:#3296ff;fill-opacity:1"/>
      <path id="path6" d="m -1.9844171,2.9765015 c -1.4657629,0 -2.6457813,1.1800184 -2.6457813,2.6457813 V 10.2524 H 2.6457 V 2.9765015 Z" style="display:inline;fill:#ffa53c;fill-opacity:1"/>
    </g>
    <rect x="17.000271" y="17.000648" width="30.000591" height="30.000591" ry="8.1820822" fill="#464646" stroke-linecap="round" stroke-width="1.49695" id="rect6"/>
    <path d="m 34.140011,20.982461 -3.823446,0.358597 v 14.768417 l 3.781114,-0.516785 v -6.312314 l 5.044257,6.987351 3.950062,-1.191822 -5.16785,-6.708038 5.210182,-6.354645 -4.034348,-0.872785 -5.001925,6.351999 z m -9.281569,4.047197 c -0.0428,0 -0.0943,0.02464 -0.126564,0.04219 l -1.47121,1.429143 c -0.0626,0.0621 -0.0881,0.164942 -0.0422,0.237306 l 1.724443,2.700072 c -0.309315,0.491273 -0.537383,1.028921 -0.714571,1.58732 l -3.193046,0.635464 c -0.089,0.02306 -0.168751,0.07431 -0.168751,0.16086 v 1.982931 c 0,0.08372 0.083,0.177376 0.168751,0.197748 l 3.108647,0.717218 c 0.165585,0.647332 0.417382,1.261139 0.756752,1.824716 l -1.806234,2.581355 c -0.0501,0.07291 -0.024,0.176431 0.0422,0.237321 l 1.468716,1.389608 c 0.0626,0.05669 0.176693,0.0881 0.253124,0.04218 l 2.816068,-1.629462 c 0.553636,0.301725 1.132935,0.553636 1.76394,0.714571 l 0.672391,2.97946 c 0.01931,0.0864 0.0781,0.158215 0.168756,0.158215 h 2.101458 c 0.0886,0 0.189763,-0.07601 0.210944,-0.158215 l 0.754106,-2.97946 c 0.650469,-0.165924 1.283931,-0.438471 1.851022,-0.754106 l 2.77385,1.748141 c 0.0763,0.04588 0.185582,0.02117 0.250493,-0.04218 l 1.471248,-1.389608 c 0.063,-0.0621 0.0884,-0.165207 0.0422,-0.237284 l -1.007226,-1.587319 -0.337507,0.118642 c -0.048,0.02305 -0.0984,9.52e-4 -0.126564,-0.03957 0,0 -0.636107,-0.909523 -1.471247,-2.064645 -0.998458,1.846335 -3.033244,3.095645 -5.37913,3.095645 -3.332777,0 -6.051143,-2.528062 -6.051143,-5.676962 0,-2.316254 1.47344,-4.30988 3.572858,-5.202244 v -1.468754 c -0.382118,0.126904 -0.740764,0.256665 -1.091625,0.437716 h -0.0422 l -2.816068,-1.748142 c -0.0383,-0.02294 -0.0837,-0.04096 -0.126564,-0.03693 v -0.0027 z" color="#4d4d4d" fill="#ffffff" stroke-width="1.00001" id="path7"/>
  </g>
</svg>
