<?xml version="1.0" encoding="UTF-8" standalone="no"?>
<svg xmlns:inkscape="http://www.inkscape.org/namespaces/inkscape" xmlns:sodipodi="http://sodipodi.sourceforge.net/DTD/sodipodi-0.dtd" xmlns="http://www.w3.org/2000/svg" xmlns:svg="http://www.w3.org/2000/svg" xmlns:rdf="http://www.w3.org/1999/02/22-rdf-syntax-ns#" xmlns:cc="http://creativecommons.org/ns#" xmlns:dc="http://purl.org/dc/elements/1.1/" width="64" height="64" version="1.1" viewBox="0 0 64 64" id="svg3" sodipodi:docname="chess.svg" inkscape:version="1.4.2 (ebf0e940d0, 2025-05-08)" xml:space="preserve">
  <sodipodi:namedview id="namedview1" pagecolor="#ffffff" bordercolor="#000000" borderopacity="0.25" inkscape:showpageshadow="2" inkscape:pageopacity="0.0" inkscape:pagecheckerboard="0" inkscape:deskcolor="#d1d1d1" showgrid="false" inkscape:current-layer="art">
    <inkscape:grid id="grid1" units="px" originx="0" originy="0" spacingx="0.5" spacingy="0.5" empcolor="#0099e5" empopacity="0.30196078" color="#0099e5" opacity="0.14901961" empspacing="2" enabled="true" visible="false"/>
  </sodipodi:namedview>
  <defs id="defs2">
    <inkscape:path-effect effect="fillet_chamfer" id="path-effect2" is_visible="true" lpeversion="1" nodesatellites_param="F,0,0,1,0,0,0,1 @ F,0,0,1,0,9.9775773,0,1 @ F,0,0,1,0,0,0,1 @ F,0,0,1,0,0,0,1" radius="0" unit="px" method="auto" mode="F" chamfer_steps="1" flexible="false" use_knot_distance="true" apply_no_radius="true" apply_with_radius="true" only_selected="false" hide_knots="false"/>
    <filter id="filter1057-61" x="-0.026999999" y="-0.026999999" width="1.054" height="1.054" color-interpolation-filters="sRGB">
      <feGaussianBlur stdDeviation="0.61875" id="feGaussianBlur1"/>
    </filter>
    <linearGradient id="linearGradient1053-8" x1="-127" x2="-72" y1="60" y2="5" gradientTransform="matrix(1.0000071,0,0,1.0000071,131.49991,-0.50986815)" gradientUnits="userSpaceOnUse">
      <stop stop-color="#323741" offset="0" id="stop1"/>
      <stop stop-color="#465064" offset="1" id="stop2"/>
    </linearGradient>
    <filter id="filter1057-61-3" x="-0.026999999" y="-0.026999999" width="1.054" height="1.054" color-interpolation-filters="sRGB">
      <feGaussianBlur stdDeviation="0.61875" id="feGaussianBlur1-6"/>
    </filter>
    <linearGradient id="linearGradient1053" x1="-127" x2="-72" y1="60" y2="5" gradientTransform="translate(176,47.989999)" gradientUnits="userSpaceOnUse">
      <stop stop-color="#1d2123" offset="0" id="stop1-3"/>
      <stop stop-color="#33393e" stop-opacity=".99608" offset="1" id="stop2-6"/>
    </linearGradient>
    <linearGradient id="a" x1="7.9369998" x2="7.9369998" y1="15.081" y2="1.852" gradientTransform="matrix(1.8897,0,0,1.8897,-50,23.016)" gradientUnits="userSpaceOnUse">
      <stop offset="0" stop-color="#333" id="stop1-5"/>
      <stop offset="1" stop-color="#424242" id="stop2-7"/>
    </linearGradient>
    <inkscape:path-effect effect="fillet_chamfer" id="path-effect2-4" is_visible="true" lpeversion="1" nodesatellites_param="F,0,0,1,0,0,0,1 @ F,0,0,1,0,9.9775773,0,1 @ F,0,0,1,0,0,0,1 @ F,0,0,1,0,0,0,1" radius="0" unit="px" method="auto" mode="F" chamfer_steps="1" flexible="false" use_knot_distance="true" apply_no_radius="true" apply_with_radius="true" only_selected="false" hide_knots="false"/>
    <filter inkscape:collect="always" style="color-interpolation-filters:sRGB" id="filter2" x="-0.10549468" y="-0.058181765" width="1.2109894" height="1.1163635">
      <feGaussianBlur inkscape:collect="always" stdDeviation="0.77575689" id="feGaussianBlur2"/>
    </filter>
    <linearGradient id="linearGradient1053-2" x1="-127" x2="-72" y1="60" y2="5" gradientTransform="translate(231.99,-89.554156)" gradientUnits="userSpaceOnUse">
      <stop stop-color="#0a0a0a" offset="0" id="stop3-3"/>
      <stop stop-color="#323232" stop-opacity=".99608" offset="1" id="stop4-6"/>
    </linearGradient>
    <linearGradient id="linearGradient1053-5" x1="-127" x2="-72" y1="60" y2="5" gradientTransform="translate(221.99,-121.55416)" gradientUnits="userSpaceOnUse">
      <stop stop-color="#1d2123" offset="0" id="stop883"/>
      <stop stop-color="#33393e" stop-opacity=".99608" offset="1" id="stop885"/>
    </linearGradient>
    <radialGradient id="gradient_ds_br" cx="0" cy="0" r="1" gradientUnits="userSpaceOnUse" gradientTransform="matrix(13.998399,0.00477622,-0.00477841,14.004799,47.5016,48.4952)">
      <stop offset="0.65" id="stop1"/>
      <stop offset="1" stop-opacity="0" id="stop2"/>
    </radialGradient>
    <linearGradient id="gradient_ds_b" x1="30.448999" y1="48.5" x2="30.492201" y2="62.500301" gradientUnits="userSpaceOnUse">
      <stop offset="0.653846" id="stop3"/>
      <stop offset="1" stop-opacity="0" id="stop4"/>
    </linearGradient>
    <radialGradient id="gradient_ds_bl" cx="0" cy="0" r="1" gradientUnits="userSpaceOnUse" gradientTransform="matrix(0,14,-14,0,16.5,48.5)">
      <stop offset="0.65" id="stop5"/>
      <stop offset="1" stop-opacity="0" id="stop6"/>
    </radialGradient>
    <linearGradient id="gradient_ds_r" x1="47.5" y1="33.5" x2="61.5" y2="33.5009" gradientUnits="userSpaceOnUse">
      <stop offset="0.649038" id="stop7"/>
      <stop offset="1" stop-opacity="0" id="stop8"/>
    </linearGradient>
    <linearGradient id="gradient_ds_l" x1="16.5" y1="33.894699" x2="2.5" y2="33.894699" gradientUnits="userSpaceOnUse">
      <stop offset="0.649038" id="stop9"/>
      <stop offset="1" stop-opacity="0" id="stop10"/>
    </linearGradient>
    <radialGradient id="gradient_ds_tr" cx="0" cy="0" r="1" gradientTransform="matrix(0.00843236,-14,14.0084,0.0189842,47.4916,18.5)" gradientUnits="userSpaceOnUse">
      <stop offset="0.65" id="stop11"/>
      <stop offset="1" stop-opacity="0" id="stop12"/>
    </radialGradient>
    <linearGradient id="gradient_ds_t" x1="29.98" y1="18.5" x2="29.9158" y2="4.4998598" gradientUnits="userSpaceOnUse">
      <stop offset="0.649038" id="stop13"/>
      <stop offset="1" stop-opacity="0" id="stop14"/>
    </linearGradient>
    <radialGradient id="gradient_ds_tl" cx="0" cy="0" r="1" gradientTransform="matrix(-0.00843236,-14,-14.0084,0.0189842,16.5084,18.5)" gradientUnits="userSpaceOnUse">
      <stop offset="0.65" id="stop15"/>
      <stop offset="1" stop-opacity="0" id="stop16"/>
    </radialGradient>
  </defs>
  <metadata id="metadata2">
    <rdf:RDF>
      <cc:Work rdf:about="">
        <dc:format>image/svg+xml</dc:format>
        <dc:type rdf:resource="http://purl.org/dc/dcmitype/StillImage"/>
      </cc:Work>
    </rdf:RDF>
  </metadata>
  <g id="ds" opacity="0.25">
    <path id="ds-br" d="m 47.5,48.5 h 14 v 14 h -14 z" fill="url(#gradient_ds_br)" style="fill:url(#gradient_ds_br)"/>
    <path id="ds-b" d="m 16.5,48.5 h 31 v 14 h -31 z" fill="url(#gradient_ds_b)" style="fill:url(#gradient_ds_b)"/>
    <path id="ds-bl" d="m 2.5,48.5 h 14 v 14 h -14 z" fill="url(#gradient_ds_bl)" style="fill:url(#gradient_ds_bl)"/>
    <path id="ds-r" d="m 47.5,18.5 h 14 v 30 h -14 z" fill="url(#gradient_ds_r)" style="fill:url(#gradient_ds_r)"/>
    <path id="ds-l" d="m 2.5,18.5 h 14 v 30 h -14 z" fill="url(#gradient_ds_l)" style="fill:url(#gradient_ds_l)"/>
    <path id="ds-tr" d="m 47.5,4.5 h 14 v 14 h -14 z" fill="url(#gradient_ds_tr)" style="fill:url(#gradient_ds_tr)"/>
    <path id="ds-t" d="m 16.5,4.5 h 31 v 14 h -31 z" fill="url(#gradient_ds_t)" style="fill:url(#gradient_ds_t)"/>
    <path id="ds-tl" d="m 16.5,4.5 h -14 v 14 h 14 z" fill="url(#gradient_ds_tl)" style="fill:url(#gradient_ds_tl)"/>
  </g>
  <rect x="4.5" y="4.5" width="55" height="55" fill="url(#linearGradient1053-8)" stroke-linecap="round" stroke-width="2.74444" id="bg" style="fill:url(#linearGradient1053-5);font-variation-settings:normal;opacity:1;vector-effect:none;fill-opacity:1;stroke-width:2.7444;stroke-linecap:round;stroke-linejoin:miter;stroke-miterlimit:4;stroke-dasharray:none;stroke-dashoffset:0;stroke-opacity:1;-inkscape-stroke:none;stop-color:#000000;stop-opacity:1" rx="10"/>
  <g id="art">
    <g id="squares" style="display:inline">
      <path style="font-variation-settings:normal;vector-effect:none;fill:#ffffff;fill-opacity:0.1;stroke-width:0.723684;stroke-linecap:butt;stroke-linejoin:miter;stroke-miterlimit:4;stroke-dasharray:none;stroke-dashoffset:0;stroke-opacity:1;-inkscape-stroke:none;paint-order:stroke fill markers" id="rect1-3" width="27.5" height="27.5" x="32" y="4.5" sodipodi:type="rect" d="M 32,4.5 H 49.522423 A 9.9775773,9.9775773 45 0 1 59.5,14.477577 V 32 H 32 Z" inkscape:path-effect="#path-effect2"/>
      <path style="font-variation-settings:normal;vector-effect:none;fill:#ffffff;fill-opacity:0.1;stroke-width:0.723684;stroke-linecap:butt;stroke-linejoin:miter;stroke-miterlimit:4;stroke-dasharray:none;stroke-dashoffset:0;stroke-opacity:1;-inkscape-stroke:none;paint-order:stroke fill markers" id="rect1-3-2" width="27.5" height="27.5" x="32" y="4.5" sodipodi:type="rect" transform="rotate(180,32,32)" d="M 32,4.5 H 49.522423 A 9.9775773,9.9775773 45 0 1 59.5,14.477577 V 32 H 32 Z" inkscape:path-effect="#path-effect2-4"/>
    </g>
    <path d="M 37.969804,37.26736 H 25.527028 c -0.02754,-0.507549 -0.01314,-0.995697 0.04506,-1.46507 0.695298,-5.609951 7.191426,-5.586796 5.706954,-12.181805 -0.491277,2.149105 -1.741688,2.656654 -3.631698,2.401315 l -1.141516,1.11085 c -1.220371,1.187828 -2.934523,-0.900571 -1.809904,-2.186654 2.34937,-2.483298 3.061566,-4.037863 3.913948,-4.691231 0.324807,-0.248455 0.724713,-0.23719 0.705312,-0.709067 -0.0088,-0.200266 -0.185872,-0.488774 -0.341078,-0.577016 -0.07134,-0.656497 -0.092,-1.312994 0,-1.968865 1.062661,0.426191 2.01768,1.158414 2.81937,2.045216 l 0.06822,-1.15591 c 3.710553,0.246578 6.273332,2.228585 7.629508,6.696394 0.759759,7.745913 -1.122741,8.51944 -1.521395,12.681843 z m -11.957757,0.919346 h 11.975906 c 0.548228,0 0.996323,0.450599 0.996323,0.996324 0,0.545725 -0.450598,0.996323 -0.996323,0.996323 H 26.012047 c -0.545725,0 -0.996323,-0.448095 -0.996323,-0.996323 0,-0.548228 0.448095,-0.996324 0.996323,-0.996324 z m -1.805523,8.751624 h 15.586952 c 0.567003,0 1.030744,0.463741 1.030744,1.030744 0,0.567003 -0.463741,1.030744 -1.030744,1.030744 H 24.206524 c -0.567003,0 -1.030744,-0.463741 -1.030744,-1.030744 0,-0.567003 0.463741,-1.030744 1.030744,-1.030744 z m 13.543613,-5.839005 c 0.834859,1.464445 2.200422,2.947039 1.978878,4.918407 H 24.268481 c -0.221544,-1.971368 1.328014,-3.453962 2.162247,-4.918407 z" id="path1-1" style="clip-rule:evenodd;opacity:0.2;fill:#000000;fill-opacity:1;fill-rule:evenodd;stroke-width:0.0625831;filter:url(#filter2);image-rendering:optimizeQuality;shape-rendering:geometricPrecision;text-rendering:geometricPrecision"/>
    <path d="M 37.969804,36.267543 H 25.527028 c -0.02754,-0.507549 -0.01314,-0.995697 0.04506,-1.46507 0.695298,-5.609951 7.191426,-5.586796 5.706954,-12.181805 -0.491277,2.149105 -1.741688,2.656654 -3.631698,2.401315 l -1.141516,1.11085 c -1.220371,1.187828 -2.934523,-0.900571 -1.809904,-2.186654 2.34937,-2.483298 3.061566,-4.037863 3.913948,-4.691231 0.324807,-0.248455 0.724713,-0.23719 0.705312,-0.709067 -0.0088,-0.200266 -0.185872,-0.488774 -0.341078,-0.577016 -0.07134,-0.656497 -0.092,-1.312994 0,-1.968865 1.062661,0.426191 2.01768,1.158414 2.81937,2.045216 l 0.06822,-1.15591 c 3.710553,0.246578 6.273332,2.228585 7.629508,6.696394 0.759759,7.745913 -1.122741,8.51944 -1.521395,12.681843 z m -11.957757,0.919346 h 11.975906 c 0.548228,0 0.996323,0.450599 0.996323,0.996324 0,0.545725 -0.450598,0.996323 -0.996323,0.996323 H 26.012047 c -0.545725,0 -0.996323,-0.448095 -0.996323,-0.996323 0,-0.548228 0.448095,-0.996324 0.996323,-0.996324 z m -1.805523,8.751624 h 15.586952 c 0.567003,0 1.030744,0.463741 1.030744,1.030744 0,0.567003 -0.463741,1.030744 -1.030744,1.030744 H 24.206524 c -0.567003,0 -1.030744,-0.463741 -1.030744,-1.030744 0,-0.567003 0.463741,-1.030744 1.030744,-1.030744 z m 13.543613,-5.839005 c 0.834859,1.464445 2.200422,2.947039 1.978878,4.918407 H 24.268481 c -0.221544,-1.971368 1.328014,-3.453962 2.162247,-4.918407 z" id="path1" style="clip-rule:evenodd;fill:#ffffff;fill-opacity:1;fill-rule:evenodd;stroke-width:0.0625831;image-rendering:optimizeQuality;shape-rendering:geometricPrecision;text-rendering:geometricPrecision"/>
  </g>
</svg>
