<?xml version="1.0" encoding="UTF-8" standalone="no"?>
<svg xmlns:inkscape="http://www.inkscape.org/namespaces/inkscape" xmlns:sodipodi="http://sodipodi.sourceforge.net/DTD/sodipodi-0.dtd" xmlns="http://www.w3.org/2000/svg" xmlns:svg="http://www.w3.org/2000/svg" width="64" height="64" version="1" id="svg2" sodipodi:docname="dota2.svg" inkscape:version="1.4.2 (ebf0e940d0, 2025-05-08)">
  <sodipodi:namedview id="namedview1" pagecolor="#ffffff" bordercolor="#000000" borderopacity="0.25" inkscape:showpageshadow="2" inkscape:pageopacity="0.0" inkscape:pagecheckerboard="0" inkscape:deskcolor="#d1d1d1" inkscape:current-layer="svg2"/>
  <defs id="defs2">
    <filter id="filter1057" x="-0.026999999" y="-0.026999999" width="1.054" height="1.054" color-interpolation-filters="sRGB">
      <feGaussianBlur stdDeviation="0.61875" id="feGaussianBlur978"/>
    </filter>
    <linearGradient id="linearGradient1053" x1="-127" x2="-72" y1="60" y2="5" gradientTransform="translate(131.49,-0.054156)" gradientUnits="userSpaceOnUse">
      <stop stop-color="#1d2123" offset="0" id="stop981"/>
      <stop stop-color="#33393e" stop-opacity=".99608" offset="1" id="stop983"/>
    </linearGradient>
  <radialGradient id="gradient_ds_br" cx="0" cy="0" r="1" gradientUnits="userSpaceOnUse" gradientTransform="matrix(13.998399,0.00477622,-0.00477841,14.004799,47.5016,48.4952)">
      <stop offset="0.65" id="stop1"/>
      <stop offset="1" stop-opacity="0" id="stop2"/>
    </radialGradient><linearGradient id="gradient_ds_b" x1="30.448999" y1="48.5" x2="30.492201" y2="62.500301" gradientUnits="userSpaceOnUse">
      <stop offset="0.653846" id="stop3"/>
      <stop offset="1" stop-opacity="0" id="stop4"/>
    </linearGradient><radialGradient id="gradient_ds_bl" cx="0" cy="0" r="1" gradientUnits="userSpaceOnUse" gradientTransform="matrix(0,14,-14,0,16.5,48.5)">
      <stop offset="0.65" id="stop5"/>
      <stop offset="1" stop-opacity="0" id="stop6"/>
    </radialGradient><linearGradient id="gradient_ds_r" x1="47.5" y1="33.5" x2="61.5" y2="33.5009" gradientUnits="userSpaceOnUse">
      <stop offset="0.649038" id="stop7"/>
      <stop offset="1" stop-opacity="0" id="stop8"/>
    </linearGradient><linearGradient id="gradient_ds_l" x1="16.5" y1="33.894699" x2="2.5" y2="33.894699" gradientUnits="userSpaceOnUse">
      <stop offset="0.649038" id="stop9"/>
      <stop offset="1" stop-opacity="0" id="stop10"/>
    </linearGradient><radialGradient id="gradient_ds_tr" cx="0" cy="0" r="1" gradientTransform="matrix(0.00843236,-14,14.0084,0.0189842,47.4916,18.5)" gradientUnits="userSpaceOnUse">
      <stop offset="0.65" id="stop11"/>
      <stop offset="1" stop-opacity="0" id="stop12"/>
    </radialGradient><linearGradient id="gradient_ds_t" x1="29.98" y1="18.5" x2="29.9158" y2="4.4998598" gradientUnits="userSpaceOnUse">
      <stop offset="0.649038" id="stop13"/>
      <stop offset="1" stop-opacity="0" id="stop14"/>
    </linearGradient><radialGradient id="gradient_ds_tl" cx="0" cy="0" r="1" gradientTransform="matrix(-0.00843236,-14,-14.0084,0.0189842,16.5084,18.5)" gradientUnits="userSpaceOnUse">
      <stop offset="0.65" id="stop15"/>
      <stop offset="1" stop-opacity="0" id="stop16"/>
    </radialGradient></defs>
  
  <g id="ds" opacity="0.25">
    <path id="ds-br" d="m 47.5,48.5 h 14 v 14 h -14 z" fill="url(#gradient_ds_br)" style="fill:url(#gradient_ds_br)"/>
    <path id="ds-b" d="m 16.5,48.5 h 31 v 14 h -31 z" fill="url(#gradient_ds_b)" style="fill:url(#gradient_ds_b)"/>
    <path id="ds-bl" d="m 2.5,48.5 h 14 v 14 h -14 z" fill="url(#gradient_ds_bl)" style="fill:url(#gradient_ds_bl)"/>
    <path id="ds-r" d="m 47.5,18.5 h 14 v 30 h -14 z" fill="url(#gradient_ds_r)" style="fill:url(#gradient_ds_r)"/>
    <path id="ds-l" d="m 2.5,18.5 h 14 v 30 h -14 z" fill="url(#gradient_ds_l)" style="fill:url(#gradient_ds_l)"/>
    <path id="ds-tr" d="m 47.5,4.5 h 14 v 14 h -14 z" fill="url(#gradient_ds_tr)" style="fill:url(#gradient_ds_tr)"/>
    <path id="ds-t" d="m 16.5,4.5 h 31 v 14 h -31 z" fill="url(#gradient_ds_t)" style="fill:url(#gradient_ds_t)"/>
    <path id="ds-tl" d="m 16.5,4.5 h -14 v 14 h 14 z" fill="url(#gradient_ds_tl)" style="fill:url(#gradient_ds_tl)"/>
  </g><rect x="4.5" y="4.5" width="55" height="55" fill="url(#linearGradient1053)" stroke-linecap="round" stroke-width="2.7444" id="bg" style="fill:url(#linearGradient1053)" rx="10"/>
  <g id="art"><path id="path1" style="stroke-width:0.673077;fill:#c2352a;fill-opacity:1" d="M 34.757812 14.5 L 34.753906 14.503906 L 34.757812 14.503906 L 34.757812 14.5 z M 34.753906 14.503906 L 28.75 14.605469 L 27.53125 15.523438 L 27.630859 15.626953 L 23.662109 15.728516 L 23.966797 15.320312 L 14.908203 15.115234 L 14.804688 15.728516 L 14.703125 16.646484 L 15.314453 17.769531 L 15.009766 20.119141 L 14.5 22.158203 L 14.804688 24.099609 L 14.908203 25.630859 L 15.517578 27.669922 L 15.314453 28.691406 L 15.416016 29.814453 L 16.128906 30.630859 L 16.330078 31.957031 L 15.009766 32.46875 L 15.212891 36.552734 L 16.029297 37.166016 L 15.517578 40.736328 L 15.111328 40.941406 L 14.804688 47.78125 L 15.164062 47.732422 L 16.029297 47.912109 C 16.029297 47.912109 17.074959 48.27301 17.291016 48.345703 C 17.507073 48.417723 17.828125 48.021484 17.828125 48.021484 L 18.691406 48.021484 L 19.412109 47.876953 L 19.810547 48.058594 L 20.169922 48.021484 L 21.070312 47.951172 L 21.498047 47.767578 L 21.679688 48.203125 L 21.824219 48.09375 L 22.220703 47.912109 L 23.046875 47.839844 L 23.226562 48.09375 C 23.226562 48.09375 24.233654 48.201172 24.59375 48.201172 C 24.953846 48.201172 24.882812 47.910156 24.882812 47.910156 C 24.882812 47.910156 24.988257 47.876261 25.167969 48.056641 C 25.348353 48.237025 25.603516 47.984375 25.603516 47.984375 L 25.962891 47.802734 L 26.216797 48.056641 L 26.46875 48.238281 L 27.152344 48.09375 L 28.265625 48.09375 L 28.521484 48.019531 L 29.564453 49.5 L 29.630859 48.746094 L 31.324219 48.746094 C 31.467585 48.746094 31.400391 49.248047 31.400391 49.248047 L 32.513672 48.886719 L 33.089844 49.462891 L 34.277344 48.707031 L 34.925781 48.597656 L 36.183594 48.529297 L 37.984375 48.529297 L 40.035156 48.669922 L 40.576172 48.455078 L 40.970703 48.09375 L 42.050781 48.705078 L 42.841797 48.378906 C 42.841797 48.378906 43.707524 48.709748 43.851562 48.746094 C 43.9956 48.782444 45.328125 48.597656 45.328125 48.597656 L 46.152344 48.378906 L 45.615234 47.984375 L 45.974609 47.839844 L 47.486328 47.910156 L 49.5 48.417969 L 49.466797 35.246094 L 49.466797 34.414062 L 48.962891 34.490234 L 48.3125 34.597656 L 48.3125 34.199219 L 48.671875 33.871094 L 48.962891 33.443359 L 49.03125 31.888672 L 48.923828 30.769531 L 48.455078 29.396484 L 48.027344 28.820312 L 47.955078 28.279297 L 48.0625 27.919922 L 48.095703 27.8125 L 48.564453 27.628906 L 48.638672 27.447266 L 48.279297 26.835938 L 48.603516 26.650391 L 49.111328 26.34375 L 49.314453 24.507812 L 49.417969 23.283203 L 49.417969 18.994141 L 49.111328 17.765625 L 49.314453 16.441406 L 49.417969 15.927734 L 48.5 15.519531 L 45.039062 14.908203 L 44.527344 15.623047 L 44.326172 14.804688 L 37.708984 14.703125 L 37.505859 15.828125 L 35.876953 16.029297 L 35.673828 15.318359 L 34.248047 15.113281 L 34.753906 14.503906 z M 39.498047 19.501953 L 42 22.001953 L 42 27.001953 L 34.5 22.001953 L 39.498047 19.501953 z M 21.998047 20.751953 L 45.748047 37 L 43.248047 43.25 L 39.498047 43.25 L 18.25 22.001953 L 21.998047 20.751953 z M 19.498047 34.5 L 19.5 34.5 L 27 42 L 23.25 43.25 L 20.748047 43.25 L 18.25 40.75 L 19.498047 34.5 z "/></g>
</svg>
