<?xml version="1.0" encoding="UTF-8" standalone="no"?>
<svg xmlns:inkscape="http://www.inkscape.org/namespaces/inkscape" xmlns:sodipodi="http://sodipodi.sourceforge.net/DTD/sodipodi-0.dtd" xmlns="http://www.w3.org/2000/svg" xmlns:svg="http://www.w3.org/2000/svg" width="64" height="64" version="1.1" id="svg2276" sodipodi:docname="gnome-mahjongg.svg" inkscape:version="1.4.2 (ebf0e940d0, 2025-05-08)">
  <sodipodi:namedview id="namedview1" pagecolor="#ffffff" bordercolor="#000000" borderopacity="0.25" inkscape:showpageshadow="2" inkscape:pageopacity="0.0" inkscape:pagecheckerboard="0" inkscape:deskcolor="#d1d1d1" inkscape:current-layer="svg2276"/>
  <defs id="defs2248">
    <linearGradient id="b" x1="399.57" x2="399.57" y1="545.8" y2="517.8" gradientTransform="matrix(2.1429 0 0 2.1429 -826.36 -1107.5)" gradientUnits="userSpaceOnUse">
      <stop stop-color="#3889e9" offset="0" id="stop2235"/>
      <stop stop-color="#5ea5fb" offset="1" id="stop2237"/>
    </linearGradient>
    <filter id="filter932" x="-0.071538459" y="-0.051666665" width="1.1430769" height="1.1033333" color-interpolation-filters="sRGB">
      <feGaussianBlur stdDeviation="0.775" id="feGaussianBlur2240"/>
    </filter>
    <linearGradient id="linearGradient862-3" x1="7.9373" x2="7.9373" y1="15.081" y2="1.852" gradientTransform="matrix(3.7795,0,0,3.7795,3.1606371,-12.999151)" gradientUnits="userSpaceOnUse">
      <stop stop-color="#1a1a1a" offset="0" id="stop2243"/>
      <stop stop-color="#4d4d4d" offset="1" id="stop2245"/>
    </linearGradient>
    <filter id="filter1057" x="-0.026999999" y="-0.026999999" width="1.054" height="1.054" color-interpolation-filters="sRGB">
      <feGaussianBlur stdDeviation="0.61875" id="feGaussianBlur1443"/>
    </filter>
    <linearGradient id="linearGradient1053" x1="-127" x2="-72" y1="60" y2="5" gradientTransform="translate(131.49,-0.054156)" gradientUnits="userSpaceOnUse">
      <stop stop-color="#1d2123" offset="0" id="stop1446"/>
      <stop stop-color="#33393e" stop-opacity=".99608" offset="1" id="stop1448"/>
    </linearGradient>
  <radialGradient id="gradient_ds_br" cx="0" cy="0" r="1" gradientUnits="userSpaceOnUse" gradientTransform="matrix(13.998399,0.00477622,-0.00477841,14.004799,47.5016,48.4952)">
      <stop offset="0.65" id="stop1"/>
      <stop offset="1" stop-opacity="0" id="stop2"/>
    </radialGradient><linearGradient id="gradient_ds_b" x1="30.448999" y1="48.5" x2="30.492201" y2="62.500301" gradientUnits="userSpaceOnUse">
      <stop offset="0.653846" id="stop3"/>
      <stop offset="1" stop-opacity="0" id="stop4"/>
    </linearGradient><radialGradient id="gradient_ds_bl" cx="0" cy="0" r="1" gradientUnits="userSpaceOnUse" gradientTransform="matrix(0,14,-14,0,16.5,48.5)">
      <stop offset="0.65" id="stop5"/>
      <stop offset="1" stop-opacity="0" id="stop6"/>
    </radialGradient><linearGradient id="gradient_ds_r" x1="47.5" y1="33.5" x2="61.5" y2="33.5009" gradientUnits="userSpaceOnUse">
      <stop offset="0.649038" id="stop7"/>
      <stop offset="1" stop-opacity="0" id="stop8"/>
    </linearGradient><linearGradient id="gradient_ds_l" x1="16.5" y1="33.894699" x2="2.5" y2="33.894699" gradientUnits="userSpaceOnUse">
      <stop offset="0.649038" id="stop9"/>
      <stop offset="1" stop-opacity="0" id="stop10"/>
    </linearGradient><radialGradient id="gradient_ds_tr" cx="0" cy="0" r="1" gradientTransform="matrix(0.00843236,-14,14.0084,0.0189842,47.4916,18.5)" gradientUnits="userSpaceOnUse">
      <stop offset="0.65" id="stop11"/>
      <stop offset="1" stop-opacity="0" id="stop12"/>
    </radialGradient><linearGradient id="gradient_ds_t" x1="29.98" y1="18.5" x2="29.9158" y2="4.4998598" gradientUnits="userSpaceOnUse">
      <stop offset="0.649038" id="stop13"/>
      <stop offset="1" stop-opacity="0" id="stop14"/>
    </linearGradient><radialGradient id="gradient_ds_tl" cx="0" cy="0" r="1" gradientTransform="matrix(-0.00843236,-14,-14.0084,0.0189842,16.5084,18.5)" gradientUnits="userSpaceOnUse">
      <stop offset="0.65" id="stop15"/>
      <stop offset="1" stop-opacity="0" id="stop16"/>
    </radialGradient></defs>
  
  <g id="ds" opacity="0.25">
    <path id="ds-br" d="m 47.5,48.5 h 14 v 14 h -14 z" fill="url(#gradient_ds_br)" style="fill:url(#gradient_ds_br)"/>
    <path id="ds-b" d="m 16.5,48.5 h 31 v 14 h -31 z" fill="url(#gradient_ds_b)" style="fill:url(#gradient_ds_b)"/>
    <path id="ds-bl" d="m 2.5,48.5 h 14 v 14 h -14 z" fill="url(#gradient_ds_bl)" style="fill:url(#gradient_ds_bl)"/>
    <path id="ds-r" d="m 47.5,18.5 h 14 v 30 h -14 z" fill="url(#gradient_ds_r)" style="fill:url(#gradient_ds_r)"/>
    <path id="ds-l" d="m 2.5,18.5 h 14 v 30 h -14 z" fill="url(#gradient_ds_l)" style="fill:url(#gradient_ds_l)"/>
    <path id="ds-tr" d="m 47.5,4.5 h 14 v 14 h -14 z" fill="url(#gradient_ds_tr)" style="fill:url(#gradient_ds_tr)"/>
    <path id="ds-t" d="m 16.5,4.5 h 31 v 14 h -31 z" fill="url(#gradient_ds_t)" style="fill:url(#gradient_ds_t)"/>
    <path id="ds-tl" d="m 16.5,4.5 h -14 v 14 h 14 z" fill="url(#gradient_ds_tl)" style="fill:url(#gradient_ds_tl)"/>
  </g><rect x="4.5" y="4.5" width="55" height="55" fill="url(#linearGradient1053)" stroke-linecap="round" stroke-width="2.7444" id="bg" style="fill:url(#linearGradient1053)" rx="10"/>
  <g id="art"><rect x="19" y="14" width="26" height="36" rx="2" ry="2" filter="url(#filter932)" opacity="0.5" id="rect2270" style="display:inline"/><rect x="19" y="14" width="26" height="36" rx="2" ry="2" fill="#f2f2f2" id="rect2272" style="display:inline"/><path d="m 29.02,20.525 c -0.20882,0.15352 -0.26108,0.38357 -0.26108,0.65235 0,0.49888 0.20882,1.1128 0.31325,1.3431 0,0 0.15662,2.6862 0.20884,2.9932 -0.46988,0.03837 -1.3052,0.07676 -1.6184,0.1535 h -0.41766 c -0.88754,0.0385 -1.7228,0.07676 -2.0884,0.34531 l -0.15663,0.11512 0.15663,0.1535 c 0.26103,0.23024 0.36547,0.88261 0.46988,1.5734 0.26103,1.4198 0.57428,3.185 2.1406,3.8759 l 0.31325,0.11512 v -0.26862 c 0,0 0.0523,-0.11512 0.0523,-0.26862 0,-0.11512 -0.0523,-0.307 -0.10436,-0.57562 0.41766,0.03837 1.3052,0.11512 1.6184,0.11512 0.05226,0.30705 1.4097,12.818 1.4097,12.818 h 0.52216 c 0,0 0.57431,-12.356 0.57431,-12.74 0.36544,0 1.9839,0.03835 2.4538,0.07676 -0.10429,0.23028 -0.52193,1.1897 -0.52193,1.1897 l 0.73075,-0.49883 c 0.20882,-0.11526 4.7508,-3.1467 4.1255,-5.1423 -0.20998,-0.65235 -0.94027,-1.1129 -2.1418,-1.343 h -0.10466 c -0.67872,0 -2.7671,0.03837 -4.3334,0.11512 0.05234,-0.99773 0.05234,-1.535 0.05234,-1.8037 v -0.34538 c 0,-0.19188 0.26103,-0.4605 0.46988,-0.65238 0.20884,-0.23024 0.4699,-0.42212 0.4699,-0.65238 0,-0.07676 -0.05231,-0.1535 -0.10436,-0.23024 -0.31241,-0.34554 -2.6096,-1.2282 -3.6015,-1.3049 -0.31334,0.03826 -0.52216,0.07676 -0.62669,0.19178 z m 0.05232,6.2935 h 0.26103 c 0,0.34538 0.15663,2.7629 0.20882,3.1082 -0.41764,-0.0385 -1.4095,-0.11526 -1.7228,-0.11526 -0.15679,-0.49883 -0.20882,-1.0362 -0.26108,-1.5733 -0.05226,-0.46057 -0.10429,-0.92114 -0.20882,-1.3432 0.46988,0 1.7229,-0.07676 1.7229,-0.07676 z m 3.1848,1.1894 c 0,0 0.05217,-0.921 0.05217,-1.228 0.6787,0.07676 1.5662,0.11512 2.4015,0.11512 h 0.93975 c 0,0.1535 -0.05232,0.34538 -0.05232,0.34538 -0.10436,0.84423 -0.26103,1.8419 -0.73094,2.8397 -0.31323,0 -2.2449,-0.07676 -2.6626,-0.11512 0,-0.26862 0.05232,-1.9571 0.05232,-1.9571 z" fill="#e64c4c" stroke-width="2.3332" id="path2274" style="display:inline"/></g>
  
  
</svg>
