<?xml version="1.0" encoding="UTF-8" standalone="no"?>
<svg xmlns:dc="http://purl.org/dc/elements/1.1/" xmlns:cc="http://creativecommons.org/ns#" xmlns:rdf="http://www.w3.org/1999/02/22-rdf-syntax-ns#" xmlns:svg="http://www.w3.org/2000/svg" xmlns="http://www.w3.org/2000/svg" xmlns:xlink="http://www.w3.org/1999/xlink" xmlns:sodipodi="http://sodipodi.sourceforge.net/DTD/sodipodi-0.dtd" xmlns:inkscape="http://www.inkscape.org/namespaces/inkscape" width="64" height="64" version="1.1" id="svg88" sodipodi:docname="iagno.svg" inkscape:version="1.0.2 (e86c870879, 2021-01-15)">
  <metadata id="metadata92">
    <rdf:RDF>
      <cc:Work rdf:about="">
        <dc:format>image/svg+xml</dc:format>
        <dc:type rdf:resource="http://purl.org/dc/dcmitype/StillImage"/>
        <dc:title/>
      </cc:Work>
    </rdf:RDF>
  </metadata>
  <defs id="defs46">
    <linearGradient id="linearGradient905">
      <stop stop-color="#ffb22a" offset="0" id="stop2"/>
      <stop stop-color="#ffec4a" offset="1" id="stop4"/>
    </linearGradient>
    <linearGradient id="linearGradient889">
      <stop stop-color="#373737" offset="0" id="stop7"/>
      <stop stop-color="#646464" offset="1" id="stop9"/>
    </linearGradient>
    <linearGradient id="linearGradient873">
      <stop stop-color="#f9f9f9" offset="0" id="stop12"/>
      <stop stop-color="#dedede" offset="1" id="stop14"/>
    </linearGradient>
    <linearGradient id="linearGradient875" x1="22.169" x2="34.169" y1="31.424" y2="31.424" gradientUnits="userSpaceOnUse" xlink:href="#linearGradient873"/>
    <linearGradient id="linearGradient883" x1="34.169" x2="46.169" y1="43.424" y2="43.424" gradientUnits="userSpaceOnUse" xlink:href="#linearGradient873"/>
    <linearGradient id="linearGradient891" x1="22.169" x2="34.169" y1="43.424" y2="43.424" gradientUnits="userSpaceOnUse" xlink:href="#linearGradient889"/>
    <linearGradient id="linearGradient899" x1="34.169" x2="46.169" y1="31.424" y2="31.424" gradientUnits="userSpaceOnUse" xlink:href="#linearGradient889"/>
    <linearGradient id="linearGradient907" x1="23.978" x2="32.368" y1="43.424" y2="43.424" gradientUnits="userSpaceOnUse" xlink:href="#linearGradient905"/>
    <linearGradient id="linearGradient915" x1="35.978" x2="44.368" y1="31.424" y2="31.424" gradientUnits="userSpaceOnUse" xlink:href="#linearGradient905"/>
    <filter id="filter989" x="-.12" y="-.12" width="1.24" height="1.24" color-interpolation-filters="sRGB">
      <feGaussianBlur stdDeviation="0.6" id="feGaussianBlur23"/>
    </filter>
    <filter id="filter993" x="-.12" y="-.12" width="1.24" height="1.24" color-interpolation-filters="sRGB">
      <feGaussianBlur stdDeviation="0.6" id="feGaussianBlur26"/>
    </filter>
    <filter id="filter997" x="-.12" y="-.12" width="1.24" height="1.24" color-interpolation-filters="sRGB">
      <feGaussianBlur stdDeviation="0.6" id="feGaussianBlur29"/>
    </filter>
    <filter id="filter1001" x="-.12" y="-.12" width="1.24" height="1.24" color-interpolation-filters="sRGB">
      <feGaussianBlur stdDeviation="0.6" id="feGaussianBlur32"/>
    </filter>
    <filter id="filter1049" x="-.14442" y="-.15146" width="1.2888" height="1.3029" color-interpolation-filters="sRGB">
      <feGaussianBlur stdDeviation="0.504875" id="feGaussianBlur35"/>
    </filter>
    <filter id="filter1053" x="-.14442" y="-.15146" width="1.2888" height="1.3029" color-interpolation-filters="sRGB">
      <feGaussianBlur stdDeviation="0.504875" id="feGaussianBlur38"/>
    </filter>
    <linearGradient id="linearGradient862-3" x1="7.9373" x2="7.9373" y1="15.081" y2="1.852" gradientTransform="matrix(3.7795,0,0,3.7795,-4.3249124,-27.325736)" gradientUnits="userSpaceOnUse">
      <stop stop-color="#1a1a1a" offset="0" id="stop41"/>
      <stop stop-color="#4d4d4d" offset="1" id="stop43"/>
    </linearGradient>
    <linearGradient id="a" x1="24" x2="4" y1="4" y2="44" gradientUnits="userSpaceOnUse" gradientTransform="translate(8.02,5)">
      <stop stop-color="#006eeb" offset="0" id="stop2-3"/>
      <stop stop-color="#33c5ff" offset="1" id="stop4-6"/>
    </linearGradient>
    <linearGradient id="b" x1="44" x2="24" y1="44" y2="4" gradientUnits="userSpaceOnUse" gradientTransform="translate(8.02,5)">
      <stop stop-color="#c00010" offset="0" id="stop7-7"/>
      <stop stop-color="#ff5252" offset="1" id="stop9-5"/>
    </linearGradient>
    <linearGradient id="c" x1="44" x2="4" gradientUnits="userSpaceOnUse" gradientTransform="translate(8.02,5)">
      <stop stop-color="#3b9900" offset="0" id="stop12-3"/>
      <stop stop-color="#2bf333" offset="1" id="stop14-5"/>
    </linearGradient>
    <filter id="i" x="-.12008" y="-.060028" width="1.2402" height="1.1201" color-interpolation-filters="sRGB">
      <feGaussianBlur stdDeviation="1.0005375" id="feGaussianBlur17"/>
    </filter>
    <filter id="h" x="-.11018" y="-.060032" width="1.2204" height="1.1201" color-interpolation-filters="sRGB">
      <feGaussianBlur stdDeviation="1.0005375" id="feGaussianBlur20"/>
    </filter>
    <filter id="g" x="-.059975" y="-.21936" width="1.12" height="1.4387" color-interpolation-filters="sRGB">
      <feGaussianBlur stdDeviation="1.0005375" id="feGaussianBlur23-6"/>
    </filter>
    <linearGradient id="linearGradient862" x1="7.9373" x2="7.9373" y1="15.081" y2="1.852" gradientTransform="matrix(3.7796,0,0,3.7796,6.9708326,-17.574191)" gradientUnits="userSpaceOnUse">
      <stop stop-color="#333" offset="0" id="stop26"/>
      <stop stop-color="#6b6b6b" offset="1" id="stop28"/>
    </linearGradient>
    <linearGradient id="linearGradient938" x1="99.523003" x2="103.24" y1="38.493999" y2="41.915001" gradientTransform="matrix(1.3333,0,0,1.3333,-103.146,-21.795)" gradientUnits="userSpaceOnUse">
      <stop stop-color="#6eb92e" offset="0" id="stop866"/>
      <stop stop-color="#4592d6" offset="1" id="stop868"/>
    </linearGradient>
    <linearGradient id="b-3" x1="399.57001" x2="399.57001" y1="545.79999" y2="517.79999" gradientTransform="matrix(2.1429,0,0,2.1429,-753.926,-1107.5)" gradientUnits="userSpaceOnUse">
      <stop stop-color="#3889e9" offset="0" id="stop871"/>
      <stop stop-color="#5ea5fb" offset="1" id="stop873"/>
    </linearGradient>
    
    
    <filter id="filter1057" x="-0.027000001" y="-0.027000001" width="1.054" height="1.054" color-interpolation-filters="sRGB">
      <feGaussianBlur stdDeviation="0.61875" id="feGaussianBlur880"/>
    </filter>
    <linearGradient id="linearGradient1053" x1="-127" x2="-72" y1="60" y2="5" gradientTransform="translate(131.495,-0.50995606)" gradientUnits="userSpaceOnUse">
      <stop stop-color="#1d2123" offset="0" id="stop883"/>
      <stop stop-color="#33393e" stop-opacity=".99608" offset="1" id="stop885"/>
    </linearGradient>
    <filter id="filter1057-1" x="-0.027000001" y="-0.027000001" width="1.054" height="1.054" color-interpolation-filters="sRGB">
      <feGaussianBlur stdDeviation="0.61875" id="feGaussianBlur880-2"/>
    </filter>
  <radialGradient xmlns="http://www.w3.org/2000/svg" id="gradient_ds_br" cx="0" cy="0" r="1" gradientUnits="userSpaceOnUse" gradientTransform="matrix(13.998399,0.00477622,-0.00477841,14.004799,47.5016,48.4952)">
      <stop offset="0.65" id="stop1"/>
      <stop offset="1" stop-opacity="0" id="stop2"/>
    </radialGradient><linearGradient xmlns="http://www.w3.org/2000/svg" id="gradient_ds_b" x1="30.448999" y1="48.5" x2="30.492201" y2="62.500301" gradientUnits="userSpaceOnUse">
      <stop offset="0.653846" id="stop3"/>
      <stop offset="1" stop-opacity="0" id="stop4"/>
    </linearGradient><radialGradient xmlns="http://www.w3.org/2000/svg" id="gradient_ds_bl" cx="0" cy="0" r="1" gradientUnits="userSpaceOnUse" gradientTransform="matrix(0,14,-14,0,16.5,48.5)">
      <stop offset="0.65" id="stop5"/>
      <stop offset="1" stop-opacity="0" id="stop6"/>
    </radialGradient><linearGradient xmlns="http://www.w3.org/2000/svg" id="gradient_ds_r" x1="47.5" y1="33.5" x2="61.5" y2="33.5009" gradientUnits="userSpaceOnUse">
      <stop offset="0.649038" id="stop7"/>
      <stop offset="1" stop-opacity="0" id="stop8"/>
    </linearGradient><linearGradient xmlns="http://www.w3.org/2000/svg" id="gradient_ds_l" x1="16.5" y1="33.894699" x2="2.5" y2="33.894699" gradientUnits="userSpaceOnUse">
      <stop offset="0.649038" id="stop9"/>
      <stop offset="1" stop-opacity="0" id="stop10"/>
    </linearGradient><radialGradient xmlns="http://www.w3.org/2000/svg" id="gradient_ds_tr" cx="0" cy="0" r="1" gradientTransform="matrix(0.00843236,-14,14.0084,0.0189842,47.4916,18.5)" gradientUnits="userSpaceOnUse">
      <stop offset="0.65" id="stop11"/>
      <stop offset="1" stop-opacity="0" id="stop12"/>
    </radialGradient><linearGradient xmlns="http://www.w3.org/2000/svg" id="gradient_ds_t" x1="29.98" y1="18.5" x2="29.9158" y2="4.4998598" gradientUnits="userSpaceOnUse">
      <stop offset="0.649038" id="stop13"/>
      <stop offset="1" stop-opacity="0" id="stop14"/>
    </linearGradient><radialGradient xmlns="http://www.w3.org/2000/svg" id="gradient_ds_tl" cx="0" cy="0" r="1" gradientTransform="matrix(-0.00843236,-14,-14.0084,0.0189842,16.5084,18.5)" gradientUnits="userSpaceOnUse">
      <stop offset="0.65" id="stop15"/>
      <stop offset="1" stop-opacity="0" id="stop16"/>
    </radialGradient></defs>
  
  <g xmlns="http://www.w3.org/2000/svg" id="ds" opacity="0.25">
    <path id="ds-br" d="m 47.5,48.5 h 14 v 14 h -14 z" fill="url(#gradient_ds_br)" style="fill:url(#gradient_ds_br)"/>
    <path id="ds-b" d="m 16.5,48.5 h 31 v 14 h -31 z" fill="url(#gradient_ds_b)" style="fill:url(#gradient_ds_b)"/>
    <path id="ds-bl" d="m 2.5,48.5 h 14 v 14 h -14 z" fill="url(#gradient_ds_bl)" style="fill:url(#gradient_ds_bl)"/>
    <path id="ds-r" d="m 47.5,18.5 h 14 v 30 h -14 z" fill="url(#gradient_ds_r)" style="fill:url(#gradient_ds_r)"/>
    <path id="ds-l" d="m 2.5,18.5 h 14 v 30 h -14 z" fill="url(#gradient_ds_l)" style="fill:url(#gradient_ds_l)"/>
    <path id="ds-tr" d="m 47.5,4.5 h 14 v 14 h -14 z" fill="url(#gradient_ds_tr)" style="fill:url(#gradient_ds_tr)"/>
    <path id="ds-t" d="m 16.5,4.5 h 31 v 14 h -31 z" fill="url(#gradient_ds_t)" style="fill:url(#gradient_ds_t)"/>
    <path id="ds-tl" d="m 16.5,4.5 h -14 v 14 h 14 z" fill="url(#gradient_ds_tl)" style="fill:url(#gradient_ds_tl)"/>
  </g><rect x="4.5" y="4.5" width="55" height="55" fill="url(#linearGradient1053)" stroke-linecap="round" stroke-width="2.7444" id="bg" style="fill:url(#linearGradient1053);image-rendering:optimizeSpeed" rx="10"/>
  <g transform="matrix(1.3333 0 0 1.3333 -13.559 -17.898)" id="art">
    <path d="m34.169 31.424c0 3.313-2.688 6-6 6-3.313 0-6-2.688-6-6 0-3.313 2.688-6 6-6 3.313 0 6 2.688 6 6" filter="url(#filter989)" opacity=".25" id="path62"/>
    <path d="m46.169 43.424c0 3.313-2.688 6-6 6-3.313 0-6-2.688-6-6 0-3.313 2.688-6 6-6 3.313 0 6 2.688 6 6" filter="url(#filter993)" opacity=".25" id="path64"/>
    <path d="m34.169 43.424c0 3.313-2.688 6-6 6-3.313 0-6-2.688-6-6 0-3.313 2.688-6 6-6 3.313 0 6 2.688 6 6" filter="url(#filter997)" opacity=".25" id="path66"/>
    <path d="m46.169 31.424c0 3.313-2.688 6-6 6-3.313 0-6-2.688-6-6 0-3.313 2.688-6 6-6 3.313 0 6 2.688 6 6" filter="url(#filter1001)" opacity=".25" id="path68"/>
    <path d="m34.169 31.424c0 3.313-2.688 6-6 6-3.313 0-6-2.688-6-6 0-3.313 2.688-6 6-6 3.313 0 6 2.688 6 6" fill="url(#linearGradient875)" id="path70"/>
    <path d="m46.169 43.424c0 3.313-2.688 6-6 6-3.313 0-6-2.688-6-6 0-3.313 2.688-6 6-6 3.313 0 6 2.688 6 6" fill="url(#linearGradient883)" id="path72"/>
    <path d="m34.169 43.424c0 3.313-2.688 6-6 6-3.313 0-6-2.688-6-6 0-3.313 2.688-6 6-6 3.313 0 6 2.688 6 6" fill="url(#linearGradient891)" id="path74"/>
    <path d="m30.724 47.424-2.582-1.383-2.602 1.34 0.52-2.883-2.082-2.059 2.902-0.398 1.316-2.617 1.277 2.637 2.895 0.445-2.117 2.027" filter="url(#filter1049)" opacity=".25" id="path76"/>
    <path d="m30.724 47.424-2.582-1.383-2.602 1.34 0.52-2.883-2.082-2.059 2.902-0.398 1.316-2.617 1.277 2.637 2.895 0.445-2.117 2.027" fill="url(#linearGradient907)" id="path78"/>
    <path d="m46.169 31.424c0 3.313-2.688 6-6 6-3.313 0-6-2.688-6-6 0-3.313 2.688-6 6-6 3.313 0 6 2.688 6 6" fill="url(#linearGradient899)" id="path80"/>
    <path d="m42.724 35.424-2.582-1.383-2.602 1.34 0.52-2.883-2.082-2.059 2.902-0.398 1.316-2.617 1.277 2.637 2.895 0.445-2.117 2.027" filter="url(#filter1053)" opacity=".25" id="path82"/>
    <path d="m42.724 35.424-2.582-1.383-2.602 1.34 0.52-2.883-2.082-2.059 2.902-0.398 1.316-2.617 1.277 2.637 2.895 0.445-2.117 2.027" fill="url(#linearGradient915)" id="path84"/>
  </g>
</svg>
