<?xml version="1.0" encoding="UTF-8"?>
<svg xmlns="http://www.w3.org/2000/svg" id="Gimp" width="64" height="64" enable-background="new 0 0 1024 1024" image-rendering="optimizeSpeed" version="1.1" viewBox="0 0 64 64">
  <defs>
    <filter id="filter1057-3" x="-.027" y="-.027" width="1.054" height="1.054" color-interpolation-filters="sRGB">
      <feGaussianBlur stdDeviation="0.61875"/>
    </filter>
    <linearGradient id="linearGradient1053-7" x1="-127" x2="-72" y1="60" y2="5" gradientTransform="translate(131.5 -.51)" gradientUnits="userSpaceOnUse">
      <stop stop-color="#df2a2a" offset="0"/>
      <stop stop-color="#f83f3f" offset="1"/>
    </linearGradient>
  <radialGradient id="gradient_ds_br" cx="0" cy="0" r="1" gradientUnits="userSpaceOnUse" gradientTransform="matrix(13.998399,0.00477622,-0.00477841,14.004799,47.5016,48.4952)">
      <stop offset="0.65" id="stop1"/>
      <stop offset="1" stop-opacity="0" id="stop2"/>
    </radialGradient><linearGradient id="gradient_ds_b" x1="30.448999" y1="48.5" x2="30.492201" y2="62.500301" gradientUnits="userSpaceOnUse">
      <stop offset="0.653846" id="stop3"/>
      <stop offset="1" stop-opacity="0" id="stop4"/>
    </linearGradient><radialGradient id="gradient_ds_bl" cx="0" cy="0" r="1" gradientUnits="userSpaceOnUse" gradientTransform="matrix(0,14,-14,0,16.5,48.5)">
      <stop offset="0.65" id="stop5"/>
      <stop offset="1" stop-opacity="0" id="stop6"/>
    </radialGradient><linearGradient id="gradient_ds_r" x1="47.5" y1="33.5" x2="61.5" y2="33.5009" gradientUnits="userSpaceOnUse">
      <stop offset="0.649038" id="stop7"/>
      <stop offset="1" stop-opacity="0" id="stop8"/>
    </linearGradient><linearGradient id="gradient_ds_l" x1="16.5" y1="33.894699" x2="2.5" y2="33.894699" gradientUnits="userSpaceOnUse">
      <stop offset="0.649038" id="stop9"/>
      <stop offset="1" stop-opacity="0" id="stop10"/>
    </linearGradient><radialGradient id="gradient_ds_tr" cx="0" cy="0" r="1" gradientTransform="matrix(0.00843236,-14,14.0084,0.0189842,47.4916,18.5)" gradientUnits="userSpaceOnUse">
      <stop offset="0.65" id="stop11"/>
      <stop offset="1" stop-opacity="0" id="stop12"/>
    </radialGradient><linearGradient id="gradient_ds_t" x1="29.98" y1="18.5" x2="29.9158" y2="4.4998598" gradientUnits="userSpaceOnUse">
      <stop offset="0.649038" id="stop13"/>
      <stop offset="1" stop-opacity="0" id="stop14"/>
    </linearGradient><radialGradient id="gradient_ds_tl" cx="0" cy="0" r="1" gradientTransform="matrix(-0.00843236,-14,-14.0084,0.0189842,16.5084,18.5)" gradientUnits="userSpaceOnUse">
      <stop offset="0.65" id="stop15"/>
      <stop offset="1" stop-opacity="0" id="stop16"/>
    </radialGradient></defs>
  
  <g id="ds" opacity="0.25">
    <path id="ds-br" d="m 47.5,48.5 h 14 v 14 h -14 z" fill="url(#gradient_ds_br)" style="fill:url(#gradient_ds_br)"/>
    <path id="ds-b" d="m 16.5,48.5 h 31 v 14 h -31 z" fill="url(#gradient_ds_b)" style="fill:url(#gradient_ds_b)"/>
    <path id="ds-bl" d="m 2.5,48.5 h 14 v 14 h -14 z" fill="url(#gradient_ds_bl)" style="fill:url(#gradient_ds_bl)"/>
    <path id="ds-r" d="m 47.5,18.5 h 14 v 30 h -14 z" fill="url(#gradient_ds_r)" style="fill:url(#gradient_ds_r)"/>
    <path id="ds-l" d="m 2.5,18.5 h 14 v 30 h -14 z" fill="url(#gradient_ds_l)" style="fill:url(#gradient_ds_l)"/>
    <path id="ds-tr" d="m 47.5,4.5 h 14 v 14 h -14 z" fill="url(#gradient_ds_tr)" style="fill:url(#gradient_ds_tr)"/>
    <path id="ds-t" d="m 16.5,4.5 h 31 v 14 h -31 z" fill="url(#gradient_ds_t)" style="fill:url(#gradient_ds_t)"/>
    <path id="ds-tl" d="m 16.5,4.5 h -14 v 14 h 14 z" fill="url(#gradient_ds_tl)" style="fill:url(#gradient_ds_tl)"/>
  </g><rect x="4.5" y="4.5" width="55" height="55" fill="url(#linearGradient1053-7)" stroke-linecap="round" stroke-width="2.7444" id="bg" rx="10"/>
  <g fill="#fff" id="art">
    <path d="m-43.135 22.868s-2.5924-6.4388-8.9101-0.68692c-6.3177 5.7519-7.7607 20.912-7.2369 23.757 0.52379 2.8446 8.8118 3.5041 12.238-5.863l20.148-3.1235s1.7179 4.8462 5.6764 5.0194c3.9586 0.17329 7.959-1.6991 6.5499-8.4587s-3.0136-14.403-8.3835-16.786c-5.3698-2.3831-7.7499 4.0591-7.7499 4.0591z"/>
    <path d="m-39.841 35.095v-4.247l-3.2098-0.41734 6.0468-6.7078 6.0342 8.5816-2.9923-0.1632v4.0306z"/>
    <path d="m42.246 17.953c-3.3378 0.0015-4.8437 4.0781-4.8437 4.0781l-10.961 1.8516s-2.3062-5.7241-7.9219-0.61133c-5.6157 5.1128-6.8972 18.589-6.4316 21.117 0.46559 2.5285 7.8316 3.1154 10.877-5.2109l17.91-2.7773s1.5282 4.3089 5.0469 4.4629c3.5187 0.15404 7.0748-1.511 5.8223-7.5195-1.2525-6.0086-2.6799-12.804-7.4531-14.922-0.74582-0.33099-1.4268-0.46904-2.0449-0.46875zm-10.367 6.6895 5.375 5.9629-2.8535 0.37109v3.7734l-5.2266 0.95703v-3.582l-2.6582 0.14453z"/>
  </g>
</svg>
