<?xml version="1.0" encoding="UTF-8" standalone="no"?>
<svg xmlns:inkscape="http://www.inkscape.org/namespaces/inkscape" xmlns:sodipodi="http://sodipodi.sourceforge.net/DTD/sodipodi-0.dtd" xmlns="http://www.w3.org/2000/svg" xmlns:svg="http://www.w3.org/2000/svg" xmlns:rdf="http://www.w3.org/1999/02/22-rdf-syntax-ns#" xmlns:cc="http://creativecommons.org/ns#" xmlns:dc="http://purl.org/dc/elements/1.1/" width="64" height="64" version="1.1" viewBox="0 0 64 64" id="svg11" sodipodi:docname="alienarena.svg" inkscape:version="1.4.2 (ebf0e940d0, 2025-05-08)">
  <defs id="defs4">
    <filter id="filter1057" x="-0.026999999" y="-0.026999999" width="1.054" height="1.054" color-interpolation-filters="sRGB">
      <feGaussianBlur stdDeviation="0.61875" id="feGaussianBlur1"/>
    </filter>
    <linearGradient id="linearGradient1053" x1="-127" x2="-72" y1="60" y2="5" gradientTransform="matrix(1.0000071,0,0,1.0000071,131.50331,-0.51000816)" gradientUnits="userSpaceOnUse">
      <stop stop-color="#323741" offset="0" id="stop1"/>
      <stop stop-color="#465064" offset="1" id="stop2"/>
    </linearGradient>
    <filter id="filter999" x="-0.64801091" y="-0.6571272" width="2.2960217" height="2.3142543" color-interpolation-filters="sRGB">
      <feGaussianBlur stdDeviation="0.71436" id="feGaussianBlur2"/>
    </filter>
    <linearGradient id="e-3" x1="24.705" x2="24.705" y1="43.938999" y2="3.8297" gradientTransform="matrix(0.26459,0,0,0.26459,5.0838,2.1548)" gradientUnits="userSpaceOnUse">
      <stop stop-color="#008c28" offset="0" id="stop3"/>
      <stop stop-color="#00d25a" offset="1" id="stop4"/>
    </linearGradient>
    <filter id="filter1057-3" x="-0.026999999" y="-0.026999999" width="1.054" height="1.054" color-interpolation-filters="sRGB">
      <feGaussianBlur stdDeviation="0.61875" id="feGaussianBlur1-6"/>
    </filter>
    <filter id="filter999-3" x="-0.64801091" y="-0.6571272" width="2.2960218" height="2.3142544" color-interpolation-filters="sRGB">
      <feGaussianBlur stdDeviation="0.71436" id="feGaussianBlur2-5"/>
    </filter>
    <filter id="filter3" x="-0.64801091" y="-0.6571272" width="2.2960217" height="2.3142543" color-interpolation-filters="sRGB">
      <feGaussianBlur stdDeviation="0.71436" id="feGaussianBlur3"/>
    </filter>
    <filter id="filter4" x="-0.64801091" y="-0.6571272" width="2.2960217" height="2.3142543" color-interpolation-filters="sRGB">
      <feGaussianBlur stdDeviation="0.71436" id="feGaussianBlur4"/>
    </filter>
  <radialGradient id="gradient_ds_br" cx="0" cy="0" r="1" gradientUnits="userSpaceOnUse" gradientTransform="matrix(13.998399,0.00477622,-0.00477841,14.004799,47.5016,48.4952)">
      <stop offset="0.65" id="stop1"/>
      <stop offset="1" stop-opacity="0" id="stop2"/>
    </radialGradient><linearGradient id="gradient_ds_b" x1="30.448999" y1="48.5" x2="30.492201" y2="62.500301" gradientUnits="userSpaceOnUse">
      <stop offset="0.653846" id="stop3"/>
      <stop offset="1" stop-opacity="0" id="stop4"/>
    </linearGradient><radialGradient id="gradient_ds_bl" cx="0" cy="0" r="1" gradientUnits="userSpaceOnUse" gradientTransform="matrix(0,14,-14,0,16.5,48.5)">
      <stop offset="0.65" id="stop5"/>
      <stop offset="1" stop-opacity="0" id="stop6"/>
    </radialGradient><linearGradient id="gradient_ds_r" x1="47.5" y1="33.5" x2="61.5" y2="33.5009" gradientUnits="userSpaceOnUse">
      <stop offset="0.649038" id="stop7"/>
      <stop offset="1" stop-opacity="0" id="stop8"/>
    </linearGradient><linearGradient id="gradient_ds_l" x1="16.5" y1="33.894699" x2="2.5" y2="33.894699" gradientUnits="userSpaceOnUse">
      <stop offset="0.649038" id="stop9"/>
      <stop offset="1" stop-opacity="0" id="stop10"/>
    </linearGradient><radialGradient id="gradient_ds_tr" cx="0" cy="0" r="1" gradientTransform="matrix(0.00843236,-14,14.0084,0.0189842,47.4916,18.5)" gradientUnits="userSpaceOnUse">
      <stop offset="0.65" id="stop11"/>
      <stop offset="1" stop-opacity="0" id="stop12"/>
    </radialGradient><linearGradient id="gradient_ds_t" x1="29.98" y1="18.5" x2="29.9158" y2="4.4998598" gradientUnits="userSpaceOnUse">
      <stop offset="0.649038" id="stop13"/>
      <stop offset="1" stop-opacity="0" id="stop14"/>
    </linearGradient><radialGradient id="gradient_ds_tl" cx="0" cy="0" r="1" gradientTransform="matrix(-0.00843236,-14,-14.0084,0.0189842,16.5084,18.5)" gradientUnits="userSpaceOnUse">
      <stop offset="0.65" id="stop15"/>
      <stop offset="1" stop-opacity="0" id="stop16"/>
    </radialGradient></defs>
  <metadata id="metadata4">
    <rdf:RDF>
      <cc:Work rdf:about="">
        <dc:format>image/svg+xml</dc:format>
        <dc:type rdf:resource="http://purl.org/dc/dcmitype/StillImage"/>
      </cc:Work>
    </rdf:RDF>
  </metadata>
  
  <g id="ds" opacity="0.25">
    <path id="ds-br" d="m 47.5,48.5 h 14 v 14 h -14 z" fill="url(#gradient_ds_br)" style="fill:url(#gradient_ds_br)"/>
    <path id="ds-b" d="m 16.5,48.5 h 31 v 14 h -31 z" fill="url(#gradient_ds_b)" style="fill:url(#gradient_ds_b)"/>
    <path id="ds-bl" d="m 2.5,48.5 h 14 v 14 h -14 z" fill="url(#gradient_ds_bl)" style="fill:url(#gradient_ds_bl)"/>
    <path id="ds-r" d="m 47.5,18.5 h 14 v 30 h -14 z" fill="url(#gradient_ds_r)" style="fill:url(#gradient_ds_r)"/>
    <path id="ds-l" d="m 2.5,18.5 h 14 v 30 h -14 z" fill="url(#gradient_ds_l)" style="fill:url(#gradient_ds_l)"/>
    <path id="ds-tr" d="m 47.5,4.5 h 14 v 14 h -14 z" fill="url(#gradient_ds_tr)" style="fill:url(#gradient_ds_tr)"/>
    <path id="ds-t" d="m 16.5,4.5 h 31 v 14 h -31 z" fill="url(#gradient_ds_t)" style="fill:url(#gradient_ds_t)"/>
    <path id="ds-tl" d="m 16.5,4.5 h -14 v 14 h 14 z" fill="url(#gradient_ds_tl)" style="fill:url(#gradient_ds_tl)"/>
  </g><rect x="4.5" y="4.5" width="55" height="55" fill="url(#linearGradient1053)" stroke-linecap="round" stroke-width="2.74441" id="bg" style="fill:url(#linearGradient1053)" rx="10"/>
  <g id="art"><g fill="#00cf58" stroke-width="0.26458" id="g7" style="display:inline" transform="matrix(3.779602,0,0,3.779602,-11.214457,-0.1428614)">
    <path transform="translate(2.9671,0.037798)" d="m 4.2332,7.2704 c 0,2.7225 2.2479,6.4877 4.2332,6.4877 1.869,0 4.2333,-3.7655 4.2333,-6.4877 0,-2.7225 -1.8953,-4.0954 -4.2333,-4.0954 -2.338,0 -4.2332,1.3728 -4.2332,4.0954 z" filter="url(#filter999)" id="path5" style="display:inline;filter:url(#filter999-3)"/>
    <path transform="translate(2.9671,0.037798)" d="m 9.626,9.097 c 0.53461,-0.53461 1.2805,-0.72902 1.9689,-0.58353 0.14548,0.68838 -0.04894,1.4343 -0.58353,1.9688 -0.53461,0.53461 -1.2805,0.72902 -1.9688,0.58353 C 8.89707,10.3774 9.091504,9.6315 9.6261,9.097 Z" filter="url(#filter999)" id="path6" style="filter:url(#filter999-3)"/>
    <path transform="translate(2.9671,0.037798)" d="M 5.3382,8.5496 C 6.02658,8.40614 6.7725,8.597856 7.307,9.12503 7.84161,9.6522 8.03602,10.38773 7.89053,11.06653 7.20215,11.20999 6.45623,11.018277 5.92163,10.4911 5.38702,9.9639 5.19261,9.2284 5.3381,8.5496 Z" filter="url(#filter999)" id="path7" style="filter:url(#filter999-3)"/>
  </g><g stroke-width="0.26458" id="g10" transform="matrix(3.779602,0,0,3.779602,-11.214457,-0.1428614)">
    <path d="m 7.2004,7.3083 c 0,2.7226 2.2479,6.4878 4.2333,6.4878 1.869,0 4.2334,-3.7656 4.2334,-6.4878 0,-2.7226 -1.8953,-4.0955 -4.2334,-4.0955 -2.338,0 -4.2333,1.3728 -4.2333,4.0955 z" fill="url(#e-3)" id="path8" style="fill:url(#e-3)"/>
    <path d="m 12.593,9.135 c 0.53462,-0.53462 1.2805,-0.72903 1.9689,-0.58354 0.14548,0.68839 -0.04894,1.4343 -0.58354,1.9688 -0.53462,0.53462 -1.2805,0.72903 -1.9688,0.58354 -0.1455,-0.68841 0.04894,-1.4343 0.58354,-1.9688 z" fill="#363636" id="path9"/>
    <path d="m 8.3054,8.5876 c 0.68839,-0.14346 1.4343,0.048257 1.9688,0.57544 0.53462,0.52718 0.72903,1.2627 0.58354,1.9415 C 10.16935,11.248 9.42344,11.056286 8.88884,10.5291 8.35422,10.00189 8.15981,9.2664 8.3053,8.5876 Z" fill="#363636" id="path10"/>
  </g></g>
  
</svg>
