<?xml version="1.0" encoding="UTF-8" standalone="no"?>
<svg xmlns:inkscape="http://www.inkscape.org/namespaces/inkscape" xmlns:sodipodi="http://sodipodi.sourceforge.net/DTD/sodipodi-0.dtd" xmlns="http://www.w3.org/2000/svg" xmlns:svg="http://www.w3.org/2000/svg" xml:space="preserve" width="64" height="64" viewBox="0 0 64 64" version="1.1" id="svg2" sodipodi:docname="black-mesa.svg" inkscape:version="1.4.2 (ebf0e940d0, 2025-05-08)">
  
  <defs id="defs2">
    <linearGradient id="a" x1="7.9369998" x2="7.9369998" y1="15.081" y2="1.852" gradientUnits="userSpaceOnUse">
      <stop offset="0" stop-color="#2858e4" id="stop1"/>
      <stop offset="1" stop-color="#5ab9f4" id="stop2"/>
    </linearGradient>
    <filter id="filter2076" x="-0.048" y="-0.048" width="1.096" height="1.096" color-interpolation-filters="sRGB">
      <feGaussianBlur stdDeviation="1.1" id="feGaussianBlur161"/>
    </filter>
    <linearGradient id="linearGradient2070" x1="145" x2="200" y1="59" y2="4" gradientTransform="translate(-140.5,0.50000052)" gradientUnits="userSpaceOnUse">
      <stop stop-color="#ffc841" offset="0" id="stop154"/>
      <stop stop-color="#ffbe37" offset=".4925" id="stop156"/>
      <stop stop-color="#ffc841" offset="1" id="stop158"/>
    </linearGradient>
    <filter id="filter2076-5" x="-0.048000001" y="-0.048000001" width="1.096" height="1.096" color-interpolation-filters="sRGB">
      <feGaussianBlur stdDeviation="1.1" id="feGaussianBlur161-3"/>
    </filter>
  <radialGradient id="gradient_ds_br" cx="0" cy="0" r="1" gradientUnits="userSpaceOnUse" gradientTransform="matrix(13.998399,0.00477622,-0.00477841,14.004799,47.5016,48.4952)">
      <stop offset="0.65" id="stop1"/>
      <stop offset="1" stop-opacity="0" id="stop2"/>
    </radialGradient><linearGradient id="gradient_ds_b" x1="30.448999" y1="48.5" x2="30.492201" y2="62.500301" gradientUnits="userSpaceOnUse">
      <stop offset="0.653846" id="stop3"/>
      <stop offset="1" stop-opacity="0" id="stop4"/>
    </linearGradient><radialGradient id="gradient_ds_bl" cx="0" cy="0" r="1" gradientUnits="userSpaceOnUse" gradientTransform="matrix(0,14,-14,0,16.5,48.5)">
      <stop offset="0.65" id="stop5"/>
      <stop offset="1" stop-opacity="0" id="stop6"/>
    </radialGradient><linearGradient id="gradient_ds_r" x1="47.5" y1="33.5" x2="61.5" y2="33.5009" gradientUnits="userSpaceOnUse">
      <stop offset="0.649038" id="stop7"/>
      <stop offset="1" stop-opacity="0" id="stop8"/>
    </linearGradient><linearGradient id="gradient_ds_l" x1="16.5" y1="33.894699" x2="2.5" y2="33.894699" gradientUnits="userSpaceOnUse">
      <stop offset="0.649038" id="stop9"/>
      <stop offset="1" stop-opacity="0" id="stop10"/>
    </linearGradient><radialGradient id="gradient_ds_tr" cx="0" cy="0" r="1" gradientTransform="matrix(0.00843236,-14,14.0084,0.0189842,47.4916,18.5)" gradientUnits="userSpaceOnUse">
      <stop offset="0.65" id="stop11"/>
      <stop offset="1" stop-opacity="0" id="stop12"/>
    </radialGradient><linearGradient id="gradient_ds_t" x1="29.98" y1="18.5" x2="29.9158" y2="4.4998598" gradientUnits="userSpaceOnUse">
      <stop offset="0.649038" id="stop13"/>
      <stop offset="1" stop-opacity="0" id="stop14"/>
    </linearGradient><radialGradient id="gradient_ds_tl" cx="0" cy="0" r="1" gradientTransform="matrix(-0.00843236,-14,-14.0084,0.0189842,16.5084,18.5)" gradientUnits="userSpaceOnUse">
      <stop offset="0.65" id="stop15"/>
      <stop offset="1" stop-opacity="0" id="stop16"/>
    </radialGradient></defs>
  
  <g id="ds" opacity="0.25">
    <path id="ds-br" d="m 47.5,48.5 h 14 v 14 h -14 z" fill="url(#gradient_ds_br)" style="fill:url(#gradient_ds_br)"/>
    <path id="ds-b" d="m 16.5,48.5 h 31 v 14 h -31 z" fill="url(#gradient_ds_b)" style="fill:url(#gradient_ds_b)"/>
    <path id="ds-bl" d="m 2.5,48.5 h 14 v 14 h -14 z" fill="url(#gradient_ds_bl)" style="fill:url(#gradient_ds_bl)"/>
    <path id="ds-r" d="m 47.5,18.5 h 14 v 30 h -14 z" fill="url(#gradient_ds_r)" style="fill:url(#gradient_ds_r)"/>
    <path id="ds-l" d="m 2.5,18.5 h 14 v 30 h -14 z" fill="url(#gradient_ds_l)" style="fill:url(#gradient_ds_l)"/>
    <path id="ds-tr" d="m 47.5,4.5 h 14 v 14 h -14 z" fill="url(#gradient_ds_tr)" style="fill:url(#gradient_ds_tr)"/>
    <path id="ds-t" d="m 16.5,4.5 h 31 v 14 h -31 z" fill="url(#gradient_ds_t)" style="fill:url(#gradient_ds_t)"/>
    <path id="ds-tl" d="m 16.5,4.5 h -14 v 14 h 14 z" fill="url(#gradient_ds_tl)" style="fill:url(#gradient_ds_tl)"/>
  </g><rect x="4.5" y="4.5" width="55" height="55" rx="10" fill="url(#linearGradient2070)" id="bg" style="fill:url(#linearGradient2070);stroke-width:1"/>
  <g id="art"><path d="m 8.420954,7.8313353 0.00756,-0.00378 z m 23.720782,1.757515 A 23.055572,23.055572 0 0 0 21.475699,12.650328 c -2.260202,1.285065 -5.69586,4.422134 -7.294632,6.670997 a 25.701294,25.701294 0 0 0 -3.624638,7.937165 c -0.6992262,2.929191 -0.7030058,7.850233 -0.0038,10.764306 2.101458,8.764897 9.551054,15.658891 18.557845,17.170732 2.029647,0.340164 5.688301,0.28725 8.012757,-0.120947 4.410794,-0.767259 8.06567,-2.615485 11.403058,-5.763893 4.482608,-4.229375 6.84108,-9.441446 7.052737,-15.545503 V 31.771334 C 55.427863,27.957716 54.823127,25.482077 53.27349,22.322329 50.956594,17.609166 47.660781,14.313353 42.906042,11.96622 A 22.677612,22.677612 0 0 0 32.141736,9.5888503 m 0.706786,4.5468607 c 2.93675,0 5.556014,0.566941 8.016535,1.738617 6.122955,2.925412 10.507293,9.792949 10.499734,16.456388 0,1.859564 -0.393078,4.471269 -0.823953,5.529557 L 50.23469,38.604855 47.475581,35.063368 44.72781,31.521881 H 26.925885 V 43.367153 H 22.41682 c -5.136479,0 -4.543081,0.257013 -6.009567,-2.645721 A 18.066498,18.066498 0 0 1 15.443455,26.430757 c 0.929782,-2.672179 2.067442,-4.388118 4.55442,-6.882655 3.741806,-3.753145 7.672592,-5.412391 12.850647,-5.412391" style="fill:#833808;fill-opacity:1;stroke-width:4.00437" id="path3"/></g>
</svg>
