<?xml version="1.0" encoding="UTF-8" standalone="no"?>
<svg xmlns:inkscape="http://www.inkscape.org/namespaces/inkscape" xmlns:sodipodi="http://sodipodi.sourceforge.net/DTD/sodipodi-0.dtd" xmlns:xlink="http://www.w3.org/1999/xlink" xmlns="http://www.w3.org/2000/svg" xmlns:svg="http://www.w3.org/2000/svg" width="64" height="64" version="1.1" viewBox="0 0 64 64" id="svg1993" sodipodi:docname="gnome-glines.svg" inkscape:version="1.4.2 (ebf0e940d0, 2025-05-08)">
  <defs id="defs1933">
    <linearGradient id="linearGradient951">
      <stop stop-color="#ec4520" offset="0" id="stop1900"/>
      <stop stop-color="#f58517" offset="1" id="stop1902"/>
    </linearGradient>
    <linearGradient id="linearGradient935">
      <stop stop-color="#548fed" offset="0" id="stop1905"/>
      <stop stop-color="#5ebae3" offset="1" id="stop1907"/>
    </linearGradient>
    <linearGradient id="linearGradient913">
      <stop stop-color="#8ae234" offset="0" id="stop1910"/>
      <stop stop-color="#47e767" offset="1" id="stop1912"/>
    </linearGradient>
    <linearGradient id="linearGradient903" x1="4.9327998" x2="7.0493999" y1="4.3049998" y2="4.3049998" gradientUnits="userSpaceOnUse" xlink:href="#linearGradient913" gradientTransform="matrix(3.779602,0,0,3.779602,-2.6440584,3.7288041)"/>
    <linearGradient id="linearGradient905" x1="7.0493999" x2="9.1660995" y1="6.4215999" y2="6.4215999" gradientUnits="userSpaceOnUse" xlink:href="#linearGradient913" gradientTransform="matrix(3.779602,0,0,3.779602,-2.6440584,3.7288041)"/>
    <linearGradient id="linearGradient907" x1="11.283" x2="13.399" y1="10.655" y2="10.655" gradientUnits="userSpaceOnUse" xlink:href="#linearGradient913" gradientTransform="matrix(3.779602,0,0,3.779602,-2.6440584,3.7288041)"/>
    <linearGradient id="linearGradient921" x1="11.283" x2="13.399" y1="4.3049998" y2="4.3049998" gradientUnits="userSpaceOnUse" xlink:href="#linearGradient935" gradientTransform="matrix(3.779602,0,0,3.779602,-2.6440584,3.7288041)"/>
    <linearGradient id="linearGradient923" x1="4.9327998" x2="7.0493999" y1="10.655" y2="10.655" gradientUnits="userSpaceOnUse" xlink:href="#linearGradient935" gradientTransform="matrix(3.779602,0,0,3.779602,-2.6440584,3.7288041)"/>
    <linearGradient id="linearGradient925" x1="7.0493999" x2="9.1660995" y1="8.5382004" y2="8.5382004" gradientUnits="userSpaceOnUse" xlink:href="#linearGradient935" gradientTransform="matrix(3.779602,0,0,3.779602,-2.6440584,3.7288041)"/>
    <linearGradient id="linearGradient927" x1="9.1660995" x2="11.283" y1="10.655" y2="10.655" gradientUnits="userSpaceOnUse" xlink:href="#linearGradient935" gradientTransform="matrix(3.779602,0,0,3.779602,-2.6440584,3.7288041)"/>
    <linearGradient id="linearGradient929" x1="9.1660995" x2="11.283" y1="6.4215999" y2="6.4215999" gradientUnits="userSpaceOnUse" xlink:href="#linearGradient935" gradientTransform="matrix(3.779602,0,0,3.779602,-2.6440584,3.7288041)"/>
    <linearGradient id="linearGradient943" x1="11.283" x2="13.399" y1="8.5382004" y2="8.5382004" gradientUnits="userSpaceOnUse" xlink:href="#linearGradient951" gradientTransform="matrix(3.779602,0,0,3.779602,-2.6440584,3.7288041)"/>
    <linearGradient id="linearGradient945" x1="7.0493999" x2="9.1660995" y1="4.3049998" y2="4.3049998" gradientUnits="userSpaceOnUse" xlink:href="#linearGradient951" gradientTransform="matrix(3.779602,0,0,3.779602,-2.6440584,3.7288041)"/>
    <filter id="filter999" x="-0.059999995" y="-0.059999995" width="1.12" height="1.12" color-interpolation-filters="sRGB">
      <feGaussianBlur stdDeviation="0.21166249" id="feGaussianBlur1925"/>
    </filter>
    <linearGradient id="linearGradient862-3" x1="7.9373002" x2="7.9373002" y1="15.081" y2="1.852" gradientTransform="matrix(0.99997,0,0,0.99997,4.2334776,-5.3131921)" gradientUnits="userSpaceOnUse">
      <stop stop-color="#1a1a1a" offset="0" id="stop1928"/>
      <stop stop-color="#4d4d4d" offset="1" id="stop1930"/>
    </linearGradient>
    <filter id="filter1057" x="-0.026999999" y="-0.026999999" width="1.054" height="1.054" color-interpolation-filters="sRGB">
      <feGaussianBlur stdDeviation="0.61875" id="feGaussianBlur1443"/>
    </filter>
    <linearGradient id="linearGradient1053" x1="-127" x2="-72" y1="60" y2="5" gradientTransform="translate(131.49,-0.054156)" gradientUnits="userSpaceOnUse">
      <stop stop-color="#1d2123" offset="0" id="stop1446"/>
      <stop stop-color="#33393e" stop-opacity=".99608" offset="1" id="stop1448"/>
    </linearGradient>
    <filter id="filter999-6" x="-0.24000282" y="-0.24000282" width="1.4800056" height="1.4800056" color-interpolation-filters="sRGB">
      <feGaussianBlur stdDeviation="0.21166249" id="feGaussianBlur1925-2"/>
    </filter>
    <filter id="filter1057-9" x="-0.026999999" y="-0.026999999" width="1.054" height="1.054" color-interpolation-filters="sRGB">
      <feGaussianBlur stdDeviation="0.61875" id="feGaussianBlur1443-1"/>
    </filter>
  <radialGradient id="gradient_ds_br" cx="0" cy="0" r="1" gradientUnits="userSpaceOnUse" gradientTransform="matrix(13.998399,0.00477622,-0.00477841,14.004799,47.5016,48.4952)">
      <stop offset="0.65" id="stop1"/>
      <stop offset="1" stop-opacity="0" id="stop2"/>
    </radialGradient><linearGradient id="gradient_ds_b" x1="30.448999" y1="48.5" x2="30.492201" y2="62.500301" gradientUnits="userSpaceOnUse">
      <stop offset="0.653846" id="stop3"/>
      <stop offset="1" stop-opacity="0" id="stop4"/>
    </linearGradient><radialGradient id="gradient_ds_bl" cx="0" cy="0" r="1" gradientUnits="userSpaceOnUse" gradientTransform="matrix(0,14,-14,0,16.5,48.5)">
      <stop offset="0.65" id="stop5"/>
      <stop offset="1" stop-opacity="0" id="stop6"/>
    </radialGradient><linearGradient id="gradient_ds_r" x1="47.5" y1="33.5" x2="61.5" y2="33.5009" gradientUnits="userSpaceOnUse">
      <stop offset="0.649038" id="stop7"/>
      <stop offset="1" stop-opacity="0" id="stop8"/>
    </linearGradient><linearGradient id="gradient_ds_l" x1="16.5" y1="33.894699" x2="2.5" y2="33.894699" gradientUnits="userSpaceOnUse">
      <stop offset="0.649038" id="stop9"/>
      <stop offset="1" stop-opacity="0" id="stop10"/>
    </linearGradient><radialGradient id="gradient_ds_tr" cx="0" cy="0" r="1" gradientTransform="matrix(0.00843236,-14,14.0084,0.0189842,47.4916,18.5)" gradientUnits="userSpaceOnUse">
      <stop offset="0.65" id="stop11"/>
      <stop offset="1" stop-opacity="0" id="stop12"/>
    </radialGradient><linearGradient id="gradient_ds_t" x1="29.98" y1="18.5" x2="29.9158" y2="4.4998598" gradientUnits="userSpaceOnUse">
      <stop offset="0.649038" id="stop13"/>
      <stop offset="1" stop-opacity="0" id="stop14"/>
    </linearGradient><radialGradient id="gradient_ds_tl" cx="0" cy="0" r="1" gradientTransform="matrix(-0.00843236,-14,-14.0084,0.0189842,16.5084,18.5)" gradientUnits="userSpaceOnUse">
      <stop offset="0.65" id="stop15"/>
      <stop offset="1" stop-opacity="0" id="stop16"/>
    </radialGradient></defs>
  
  <g id="ds" opacity="0.25">
    <path id="ds-br" d="m 47.5,48.5 h 14 v 14 h -14 z" fill="url(#gradient_ds_br)" style="fill:url(#gradient_ds_br)"/>
    <path id="ds-b" d="m 16.5,48.5 h 31 v 14 h -31 z" fill="url(#gradient_ds_b)" style="fill:url(#gradient_ds_b)"/>
    <path id="ds-bl" d="m 2.5,48.5 h 14 v 14 h -14 z" fill="url(#gradient_ds_bl)" style="fill:url(#gradient_ds_bl)"/>
    <path id="ds-r" d="m 47.5,18.5 h 14 v 30 h -14 z" fill="url(#gradient_ds_r)" style="fill:url(#gradient_ds_r)"/>
    <path id="ds-l" d="m 2.5,18.5 h 14 v 30 h -14 z" fill="url(#gradient_ds_l)" style="fill:url(#gradient_ds_l)"/>
    <path id="ds-tr" d="m 47.5,4.5 h 14 v 14 h -14 z" fill="url(#gradient_ds_tr)" style="fill:url(#gradient_ds_tr)"/>
    <path id="ds-t" d="m 16.5,4.5 h 31 v 14 h -31 z" fill="url(#gradient_ds_t)" style="fill:url(#gradient_ds_t)"/>
    <path id="ds-tl" d="m 16.5,4.5 h -14 v 14 h 14 z" fill="url(#gradient_ds_tl)" style="fill:url(#gradient_ds_tl)"/>
  </g><rect x="4.5" y="4.5" width="55" height="55" fill="url(#linearGradient1053)" stroke-linecap="round" stroke-width="2.7444" id="bg" style="fill:url(#linearGradient1053)" rx="10"/>
  <g id="art"><g id="g2">
    <path d="m 5.9911,9.5966 c -0.58419,0 -1.0583,0.47412 -1.0583,1.0583 0,0.58418 0.47412,1.0583 1.0583,1.0583 0.58419,0 1.0583,-0.47412 1.0583,-1.0583 0,-0.58418 -0.47412,-1.0583 -1.0583,-1.0583 z" id="path1949" transform="matrix(3.779602,0,0,3.779602,-2.6440584,3.7288041)" style="opacity:0.35;filter:url(#filter999-6)"/>
    <path d="m 10.224,9.5966 c -0.58419,0 -1.0583,0.47412 -1.0583,1.0583 0,0.58418 0.47412,1.0583 1.0583,1.0583 0.58419,0 1.0583,-0.47412 1.0583,-1.0583 0,-0.58418 -0.47412,-1.0583 -1.0583,-1.0583 z" id="path1951" transform="matrix(3.779602,0,0,3.779602,-2.6440584,3.7288041)" style="opacity:0.35;filter:url(#filter999-6)"/>
    <path d="m 12.341,9.5966 c -0.58419,0 -1.0583,0.47412 -1.0583,1.0583 0,0.58418 0.47412,1.0583 1.0583,1.0583 0.58418,0 1.0583,-0.47412 1.0583,-1.0583 0,-0.58418 -0.47412,-1.0583 -1.0583,-1.0583 z" id="path1953" transform="matrix(3.779602,0,0,3.779602,-2.6440584,3.7288041)" style="opacity:0.35;filter:url(#filter999-6)"/>
    <path d="m 8.1078,7.4799 c -0.58419,0 -1.0583,0.47412 -1.0583,1.0583 0,0.58419 0.47412,1.0583 1.0583,1.0583 0.58418,0 1.0583,-0.47412 1.0583,-1.0583 0,-0.58419 -0.47412,-1.0583 -1.0583,-1.0583 z" id="path1955" transform="matrix(3.779602,0,0,3.779602,-2.6440584,3.7288041)" style="opacity:0.35;filter:url(#filter999-6)"/>
    <path d="m 12.341,7.4799 c -0.58419,0 -1.0583,0.47412 -1.0583,1.0583 0,0.58419 0.47412,1.0583 1.0583,1.0583 0.58418,0 1.0583,-0.47412 1.0583,-1.0583 0,-0.58419 -0.47412,-1.0583 -1.0583,-1.0583 z" id="path1957" transform="matrix(3.779602,0,0,3.779602,-2.6440584,3.7288041)" style="opacity:0.35;filter:url(#filter999-6)"/>
    <path d="m 8.1078,5.3633 c -0.58419,0 -1.0583,0.47412 -1.0583,1.0583 0,0.58418 0.47412,1.0583 1.0583,1.0583 0.58418,0 1.0583,-0.47412 1.0583,-1.0583 0,-0.58418 -0.47412,-1.0583 -1.0583,-1.0583 z" id="path1959" transform="matrix(3.779602,0,0,3.779602,-2.6440584,3.7288041)" style="opacity:0.35;filter:url(#filter999-6)"/>
    <path d="m 10.224,5.3633 c -0.58419,0 -1.0583,0.47412 -1.0583,1.0583 0,0.58418 0.47412,1.0583 1.0583,1.0583 0.58419,0 1.0583,-0.47412 1.0583,-1.0583 0,-0.58418 -0.47412,-1.0583 -1.0583,-1.0583 z" id="path1961" transform="matrix(3.779602,0,0,3.779602,-2.6440584,3.7288041)" style="opacity:0.35;filter:url(#filter999-6)"/>
    <path d="m 5.9911,3.2467 c -0.58419,0 -1.0583,0.47412 -1.0583,1.0583 0,0.58419 0.47412,1.0583 1.0583,1.0583 0.58419,0 1.0583,-0.47412 1.0583,-1.0583 0,-0.58419 -0.47412,-1.0583 -1.0583,-1.0583 z" id="path1963" transform="matrix(3.779602,0,0,3.779602,-2.6440584,3.7288041)" style="opacity:0.35;filter:url(#filter999-6)"/>
    <path d="m 8.1078,3.2467 c -0.58419,0 -1.0583,0.47412 -1.0583,1.0583 0,0.58419 0.47412,1.0583 1.0583,1.0583 0.58418,0 1.0583,-0.47412 1.0583,-1.0583 0,-0.58419 -0.47412,-1.0583 -1.0583,-1.0583 z" id="path1965" transform="matrix(3.779602,0,0,3.779602,-2.6440584,3.7288041)" style="opacity:0.35;filter:url(#filter999-6)"/>
    <path d="m 12.341,3.2467 c -0.58419,0 -1.0583,0.47412 -1.0583,1.0583 0,0.58419 0.47412,1.0583 1.0583,1.0583 0.58418,0 1.0583,-0.47412 1.0583,-1.0583 0,-0.58419 -0.47412,-1.0583 -1.0583,-1.0583 z" id="path1967" transform="matrix(3.779602,0,0,3.779602,-2.6440584,3.7288041)" style="display:inline;opacity:0.35;filter:url(#filter999-6)"/>
  </g><g id="g1">
    <path d="m 19.999915,40.000133 c -2.208006,0 -3.999953,1.791985 -3.999953,3.999952 0,2.207968 1.791985,3.999953 3.999953,3.999953 2.208006,0 3.999953,-1.791985 3.999953,-3.999953 0,-2.207967 -1.791985,-3.999952 -3.999953,-3.999952 z" fill="url(#linearGradient923)" id="path1971" style="fill:url(#linearGradient923);stroke-width:3.7796"/>
    <path d="m 35.998592,40.000133 c -2.208005,0 -3.999952,1.791985 -3.999952,3.999952 0,2.207968 1.791985,3.999953 3.999952,3.999953 2.208006,0 3.999953,-1.791985 3.999953,-3.999953 0,-2.207967 -1.791985,-3.999952 -3.999953,-3.999952 z" fill="url(#linearGradient927)" id="path1973" style="fill:url(#linearGradient927);stroke-width:3.7796"/>
    <path d="m 44.00001,40.000133 c -2.208006,0 -3.999953,1.791985 -3.999953,3.999952 0,2.207968 1.791985,3.999953 3.999953,3.999953 2.207968,0 3.999953,-1.791985 3.999953,-3.999953 0,-2.207967 -1.791985,-3.999952 -3.999953,-3.999952 z" fill="url(#linearGradient907)" id="path1975" style="fill:url(#linearGradient907);stroke-width:3.7796"/>
    <path d="m 28.000199,31.999849 c -2.208006,0 -3.999953,1.791985 -3.999953,3.999953 0,2.208006 1.791985,3.999953 3.999953,3.999953 2.207968,0 3.999952,-1.791985 3.999952,-3.999953 0,-2.208006 -1.791984,-3.999953 -3.999952,-3.999953 z" fill="url(#linearGradient925)" id="path1977" style="fill:url(#linearGradient925);stroke-width:3.7796"/>
    <path d="m 44.00001,31.999849 c -2.208006,0 -3.999953,1.791985 -3.999953,3.999953 0,2.208006 1.791985,3.999953 3.999953,3.999953 2.207968,0 3.999953,-1.791985 3.999953,-3.999953 0,-2.208006 -1.791985,-3.999953 -3.999953,-3.999953 z" fill="url(#linearGradient943)" id="path1979" style="fill:url(#linearGradient943);stroke-width:3.7796"/>
    <path d="m 28.000199,23.999944 c -2.208006,0 -3.999953,1.791984 -3.999953,3.999952 0,2.207968 1.791985,3.999953 3.999953,3.999953 2.207968,0 3.999952,-1.791985 3.999952,-3.999953 0,-2.207968 -1.791984,-3.999952 -3.999952,-3.999952 z" fill="url(#linearGradient905)" id="path1981" style="fill:url(#linearGradient905);stroke-width:3.7796"/>
    <path d="m 35.998592,23.999944 c -2.208005,0 -3.999952,1.791984 -3.999952,3.999952 0,2.207968 1.791985,3.999953 3.999952,3.999953 2.208006,0 3.999953,-1.791985 3.999953,-3.999953 0,-2.207968 -1.791985,-3.999952 -3.999953,-3.999952 z" fill="url(#linearGradient929)" id="path1983" style="fill:url(#linearGradient929);stroke-width:3.7796"/>
    <path d="m 19.999915,16.000038 c -2.208006,0 -3.999953,1.791985 -3.999953,3.999953 0,2.208005 1.791985,3.999953 3.999953,3.999953 2.208006,0 3.999953,-1.791985 3.999953,-3.999953 0,-2.208006 -1.791985,-3.999953 -3.999953,-3.999953 z" fill="url(#linearGradient903)" id="path1985" style="fill:url(#linearGradient903);stroke-width:3.7796"/>
    <path d="m 28.000199,16.000038 c -2.208006,0 -3.999953,1.791985 -3.999953,3.999953 0,2.208005 1.791985,3.999953 3.999953,3.999953 2.207968,0 3.999952,-1.791985 3.999952,-3.999953 0,-2.208006 -1.791984,-3.999953 -3.999952,-3.999953 z" fill="url(#linearGradient945)" id="path1987" style="fill:url(#linearGradient945);stroke-width:3.7796"/>
    <path d="m 44.00001,16.000038 c -2.208006,0 -3.999953,1.791985 -3.999953,3.999953 0,2.208005 1.791985,3.999953 3.999953,3.999953 2.207968,0 3.999953,-1.791985 3.999953,-3.999953 0,-2.208006 -1.791985,-3.999953 -3.999953,-3.999953 z" fill="url(#linearGradient921)" id="path1989" style="fill:url(#linearGradient921);stroke-width:3.7796"/>
  </g></g>
  
</svg>
