<?xml version="1.0" encoding="UTF-8" standalone="no"?>
<svg xmlns:inkscape="http://www.inkscape.org/namespaces/inkscape" xmlns:sodipodi="http://sodipodi.sourceforge.net/DTD/sodipodi-0.dtd" xmlns="http://www.w3.org/2000/svg" xmlns:svg="http://www.w3.org/2000/svg" width="64" height="64" version="1" id="svg4140" sodipodi:docname="team-fortress2.svg" inkscape:version="1.2.2 (b0a8486541, 2022-12-01)">
  <defs id="defs4130">
    <linearGradient id="linearGradient1092" x1="7.9373" x2="7.9373" y1="15.081" y2="1.852" gradientTransform="matrix(3.7796,0,0,3.7796,88.498342,0)" gradientUnits="userSpaceOnUse">
      <stop stop-color="#df162d" offset="0" id="stop4125"/>
      <stop stop-color="#ff881f" offset="1" id="stop4127"/>
    </linearGradient>
    <filter id="filter1057-1" x="-0.026999999" y="-0.026999999" width="1.054" height="1.054" color-interpolation-filters="sRGB">
      <feGaussianBlur stdDeviation="0.61875" id="feGaussianBlur4261"/>
    </filter>
    <linearGradient id="linearGradient980-8" x1="-17.007" x2="-2.4549999" y1="15.742" y2="1.1906" gradientTransform="matrix(3.7796,0,0,3.7796,68.783001,0)" gradientUnits="userSpaceOnUse">
      <stop stop-color="#ff8228" offset="0" id="stop4264"/>
      <stop stop-color="#ff7346" offset=".49173" id="stop4266"/>
      <stop stop-color="#ff8c55" offset="1" id="stop4268"/>
    </linearGradient>
    <filter id="filter859-2" x="-0.19863708" y="-0.085965605" width="1.3972742" height="1.1719312" color-interpolation-filters="sRGB">
      <feGaussianBlur stdDeviation="0.18176567" id="feGaussianBlur4271"/>
    </filter>
  <radialGradient id="gradient_ds_br" cx="0" cy="0" r="1" gradientUnits="userSpaceOnUse" gradientTransform="matrix(13.998399,0.00477622,-0.00477841,14.004799,47.5016,48.4952)">
      <stop offset="0.65" id="stop1"/>
      <stop offset="1" stop-opacity="0" id="stop2"/>
    </radialGradient><linearGradient id="gradient_ds_b" x1="30.448999" y1="48.5" x2="30.492201" y2="62.500301" gradientUnits="userSpaceOnUse">
      <stop offset="0.653846" id="stop3"/>
      <stop offset="1" stop-opacity="0" id="stop4"/>
    </linearGradient><radialGradient id="gradient_ds_bl" cx="0" cy="0" r="1" gradientUnits="userSpaceOnUse" gradientTransform="matrix(0,14,-14,0,16.5,48.5)">
      <stop offset="0.65" id="stop5"/>
      <stop offset="1" stop-opacity="0" id="stop6"/>
    </radialGradient><linearGradient id="gradient_ds_r" x1="47.5" y1="33.5" x2="61.5" y2="33.5009" gradientUnits="userSpaceOnUse">
      <stop offset="0.649038" id="stop7"/>
      <stop offset="1" stop-opacity="0" id="stop8"/>
    </linearGradient><linearGradient id="gradient_ds_l" x1="16.5" y1="33.894699" x2="2.5" y2="33.894699" gradientUnits="userSpaceOnUse">
      <stop offset="0.649038" id="stop9"/>
      <stop offset="1" stop-opacity="0" id="stop10"/>
    </linearGradient><radialGradient id="gradient_ds_tr" cx="0" cy="0" r="1" gradientTransform="matrix(0.00843236,-14,14.0084,0.0189842,47.4916,18.5)" gradientUnits="userSpaceOnUse">
      <stop offset="0.65" id="stop11"/>
      <stop offset="1" stop-opacity="0" id="stop12"/>
    </radialGradient><linearGradient id="gradient_ds_t" x1="29.98" y1="18.5" x2="29.9158" y2="4.4998598" gradientUnits="userSpaceOnUse">
      <stop offset="0.649038" id="stop13"/>
      <stop offset="1" stop-opacity="0" id="stop14"/>
    </linearGradient><radialGradient id="gradient_ds_tl" cx="0" cy="0" r="1" gradientTransform="matrix(-0.00843236,-14,-14.0084,0.0189842,16.5084,18.5)" gradientUnits="userSpaceOnUse">
      <stop offset="0.65" id="stop15"/>
      <stop offset="1" stop-opacity="0" id="stop16"/>
    </radialGradient></defs>
  
  <g id="ds" opacity="0.25">
    <path id="ds-br" d="m 47.5,48.5 h 14 v 14 h -14 z" fill="url(#gradient_ds_br)" style="fill:url(#gradient_ds_br)"/>
    <path id="ds-b" d="m 16.5,48.5 h 31 v 14 h -31 z" fill="url(#gradient_ds_b)" style="fill:url(#gradient_ds_b)"/>
    <path id="ds-bl" d="m 2.5,48.5 h 14 v 14 h -14 z" fill="url(#gradient_ds_bl)" style="fill:url(#gradient_ds_bl)"/>
    <path id="ds-r" d="m 47.5,18.5 h 14 v 30 h -14 z" fill="url(#gradient_ds_r)" style="fill:url(#gradient_ds_r)"/>
    <path id="ds-l" d="m 2.5,18.5 h 14 v 30 h -14 z" fill="url(#gradient_ds_l)" style="fill:url(#gradient_ds_l)"/>
    <path id="ds-tr" d="m 47.5,4.5 h 14 v 14 h -14 z" fill="url(#gradient_ds_tr)" style="fill:url(#gradient_ds_tr)"/>
    <path id="ds-t" d="m 16.5,4.5 h 31 v 14 h -31 z" fill="url(#gradient_ds_t)" style="fill:url(#gradient_ds_t)"/>
    <path id="ds-tl" d="m 16.5,4.5 h -14 v 14 h 14 z" fill="url(#gradient_ds_tl)" style="fill:url(#gradient_ds_tl)"/>
  </g><rect x="4.5" y="4.5" width="55" height="55" fill="url(#linearGradient980-8)" id="bg" style="fill:url(#linearGradient980-8)" rx="10"/>
  <g id="art"><path d="m 33.575847,12.061311 a 20.011425,20.011425 0 0 0 -19.62757,11.335563 l 10.94534,2.932584 a 9.0961024,9.0961024 0 0 1 5.746917,-3.311891 l 2.935313,-10.955346 z m 7.027648,1.886532 -2.932583,10.94534 a 9.0961024,9.0961024 0 0 1 3.311891,5.746918 l 10.955346,2.935312 A 20.011425,20.011425 0 0 0 40.602586,13.946024 Z m -28.541748,16.47577 a 20.011425,20.011425 0 0 0 11.334652,19.62757 l 2.933493,-10.94534 A 9.0961024,9.0961024 0 0 1 23.017091,33.357106 L 12.061747,30.422704 Z m 27.04453,7.246865 a 9.0961024,9.0961024 0 0 1 -5.746008,3.311891 l -2.936222,10.956255 a 20.011425,20.011425 0 0 0 19.62757,-11.333743 l -10.94534,-2.933493 z" fill="#ffffff" id="path4539" style="stroke-width:0.90961"/></g>
</svg>
