<?xml version="1.0" encoding="UTF-8" standalone="no"?>
<svg xmlns:dc="http://purl.org/dc/elements/1.1/" xmlns:cc="http://creativecommons.org/ns#" xmlns:rdf="http://www.w3.org/1999/02/22-rdf-syntax-ns#" xmlns:svg="http://www.w3.org/2000/svg" xmlns="http://www.w3.org/2000/svg" xmlns:sodipodi="http://sodipodi.sourceforge.net/DTD/sodipodi-0.dtd" xmlns:inkscape="http://www.inkscape.org/namespaces/inkscape" width="64" height="64" version="1.1" viewBox="0 0 64 64" id="svg74" sodipodi:docname="evernote.svg" inkscape:version="1.0.1 (3bc2e813f5, 2020-09-07)">
  <metadata id="metadata2">
    <rdf:RDF>
      <cc:Work rdf:about="">
        <dc:format>image/svg+xml</dc:format>
        <dc:type rdf:resource="http://purl.org/dc/dcmitype/StillImage"/>
        <dc:title/>
      </cc:Work>
    </rdf:RDF>
  </metadata>
  <defs id="defs18">
    
    
    
    <filter id="filter2761" x="-.024" y="-.024" width="1.048" height="1.048" color-interpolation-filters="sRGB">
      <feGaussianBlur stdDeviation="0.14552168" id="feGaussianBlur10"/>
    </filter>
    <linearGradient id="linearGradient1024-6" x1="1.3315" x2="15.65" y1="15.576" y2="1.17" gradientTransform="matrix(3.7796,0,0,3.7796,1.2128898,-6.4191942)" gradientUnits="userSpaceOnUse">
      <stop stop-color="#00dc96" offset="0" id="stop13"/>
      <stop stop-color="#14d29b" offset="1" id="stop15"/>
    </linearGradient>
    
    
    
    
    <filter id="filter1057" x="-.027" y="-.027" width="1.054" height="1.054" color-interpolation-filters="sRGB">
      <feGaussianBlur stdDeviation="0.61875" id="feGaussianBlur911"/>
    </filter>
    <linearGradient id="linearGradient1053" x1="-127" x2="-72" y1="60" y2="5" gradientTransform="translate(131.5,-0.51)" gradientUnits="userSpaceOnUse">
      <stop stop-color="#02db96" offset="0" id="stop914"/>
      <stop stop-color="#13d39b" offset="1" id="stop916"/>
    </linearGradient>
    
    
    
  <radialGradient xmlns="http://www.w3.org/2000/svg" id="gradient_ds_br" cx="0" cy="0" r="1" gradientUnits="userSpaceOnUse" gradientTransform="matrix(13.998399,0.00477622,-0.00477841,14.004799,47.5016,48.4952)">
      <stop offset="0.65" id="stop1"/>
      <stop offset="1" stop-opacity="0" id="stop2"/>
    </radialGradient><linearGradient xmlns="http://www.w3.org/2000/svg" id="gradient_ds_b" x1="30.448999" y1="48.5" x2="30.492201" y2="62.500301" gradientUnits="userSpaceOnUse">
      <stop offset="0.653846" id="stop3"/>
      <stop offset="1" stop-opacity="0" id="stop4"/>
    </linearGradient><radialGradient xmlns="http://www.w3.org/2000/svg" id="gradient_ds_bl" cx="0" cy="0" r="1" gradientUnits="userSpaceOnUse" gradientTransform="matrix(0,14,-14,0,16.5,48.5)">
      <stop offset="0.65" id="stop5"/>
      <stop offset="1" stop-opacity="0" id="stop6"/>
    </radialGradient><linearGradient xmlns="http://www.w3.org/2000/svg" id="gradient_ds_r" x1="47.5" y1="33.5" x2="61.5" y2="33.5009" gradientUnits="userSpaceOnUse">
      <stop offset="0.649038" id="stop7"/>
      <stop offset="1" stop-opacity="0" id="stop8"/>
    </linearGradient><linearGradient xmlns="http://www.w3.org/2000/svg" id="gradient_ds_l" x1="16.5" y1="33.894699" x2="2.5" y2="33.894699" gradientUnits="userSpaceOnUse">
      <stop offset="0.649038" id="stop9"/>
      <stop offset="1" stop-opacity="0" id="stop10"/>
    </linearGradient><radialGradient xmlns="http://www.w3.org/2000/svg" id="gradient_ds_tr" cx="0" cy="0" r="1" gradientTransform="matrix(0.00843236,-14,14.0084,0.0189842,47.4916,18.5)" gradientUnits="userSpaceOnUse">
      <stop offset="0.65" id="stop11"/>
      <stop offset="1" stop-opacity="0" id="stop12"/>
    </radialGradient><linearGradient xmlns="http://www.w3.org/2000/svg" id="gradient_ds_t" x1="29.98" y1="18.5" x2="29.9158" y2="4.4998598" gradientUnits="userSpaceOnUse">
      <stop offset="0.649038" id="stop13"/>
      <stop offset="1" stop-opacity="0" id="stop14"/>
    </linearGradient><radialGradient xmlns="http://www.w3.org/2000/svg" id="gradient_ds_tl" cx="0" cy="0" r="1" gradientTransform="matrix(-0.00843236,-14,-14.0084,0.0189842,16.5084,18.5)" gradientUnits="userSpaceOnUse">
      <stop offset="0.65" id="stop15"/>
      <stop offset="1" stop-opacity="0" id="stop16"/>
    </radialGradient></defs>
  
  <g xmlns="http://www.w3.org/2000/svg" id="ds" opacity="0.25">
    <path id="ds-br" d="m 47.5,48.5 h 14 v 14 h -14 z" fill="url(#gradient_ds_br)" style="fill:url(#gradient_ds_br)"/>
    <path id="ds-b" d="m 16.5,48.5 h 31 v 14 h -31 z" fill="url(#gradient_ds_b)" style="fill:url(#gradient_ds_b)"/>
    <path id="ds-bl" d="m 2.5,48.5 h 14 v 14 h -14 z" fill="url(#gradient_ds_bl)" style="fill:url(#gradient_ds_bl)"/>
    <path id="ds-r" d="m 47.5,18.5 h 14 v 30 h -14 z" fill="url(#gradient_ds_r)" style="fill:url(#gradient_ds_r)"/>
    <path id="ds-l" d="m 2.5,18.5 h 14 v 30 h -14 z" fill="url(#gradient_ds_l)" style="fill:url(#gradient_ds_l)"/>
    <path id="ds-tr" d="m 47.5,4.5 h 14 v 14 h -14 z" fill="url(#gradient_ds_tr)" style="fill:url(#gradient_ds_tr)"/>
    <path id="ds-t" d="m 16.5,4.5 h 31 v 14 h -31 z" fill="url(#gradient_ds_t)" style="fill:url(#gradient_ds_t)"/>
    <path id="ds-tl" d="m 16.5,4.5 h -14 v 14 h 14 z" fill="url(#gradient_ds_tl)" style="fill:url(#gradient_ds_tl)"/>
  </g><rect x="4.5" y="4.5" width="55" height="55" fill="url(#linearGradient1053)" stroke-linecap="round" stroke-width="2.7444" id="bg" style="fill:url(#linearGradient1053)" rx="10"/>
  <g transform="matrix(1.346 0 0 1.346 -.30326 -.31512)" fill="#fafafa" id="art">
    <g fill="#fafafa" id="g70">
      <!-- color: #6cce3d -->
      <g fill="#fafafa" id="g68">
        <path d="m15.199 16.04h2.469c0.141 0 0.254-0.113 0.254-0.254 0 0-0.031-2.09-0.031-2.672v-8e-3c0-0.477 0.102-0.895 0.281-1.242l0.082-0.156c-8e-3 0-0.02 4e-3 -0.027 0.016l-4.797 4.699c-8e-3 8e-3 -0.012 0.02-0.016 0.031 0.098-0.051 0.234-0.117 0.254-0.125 0.418-0.188 0.922-0.289 1.531-0.289m19.2-0.512c-0.195-1.039-0.816-1.547-1.383-1.75-0.609-0.219-1.844-0.441-3.391-0.621-1.25-0.148-2.715-0.137-3.602-0.109-0.105-0.719-0.617-1.375-1.188-1.605-1.523-0.602-3.875-0.457-4.48-0.289-0.477 0.129-1.012 0.402-1.305 0.82-0.199 0.281-0.328 0.641-0.328 1.141 0 0.281 8e-3 0.949 0.016 1.543 8e-3 0.602 0.016 1.129 0.016 1.129 0 0.531-0.434 0.961-0.973 0.973h-2.469c-0.527 0-0.93 0.086-1.234 0.223-0.309 0.141-0.527 0.324-0.691 0.547-0.332 0.438-0.387 0.977-0.387 1.527 0 0 4e-3 0.441 0.113 1.316 0.094 0.68 0.832 5.391 1.535 6.816 0.273 0.559 0.453 0.789 0.988 1.035 1.191 0.504 3.918 1.066 5.191 1.227 1.277 0.16 2.074 0.5 2.551-0.48 4e-3 0 0.098-0.246 0.227-0.605 0.414-1.238 0.469-2.34 0.469-3.137 0-0.078 0.121-0.082 0.121 0 0 0.563-0.109 2.551 1.41 3.086 0.602 0.211 1.844 0.398 3.109 0.543 1.145 0.129 1.973 0.574 1.973 3.477 0 1.766-0.375 2-2.332 2-1.59 0-2.195 0.043-2.195-1.207 0-1.012 1.012-0.898 1.758-0.898 0.332 0 0.09-0.246 0.09-0.867 0-0.617 0.391-0.977 0.02-0.984-2.582-0.07-4.105-4e-3 -4.105 3.191 0 2.902 1.125 3.441 4.793 3.441 2.875 0 3.891-0.098 5.078-3.738 0.234-0.719 0.805-2.914 1.148-6.602 0.215-2.328-0.207-9.359-0.543-11.141m-5.01 7.773c-0.355-0.016-0.699 0.012-1.023 0.063 0.098-0.719 0.395-1.598 1.445-1.559 1.176 0.039 1.34 1.137 1.344 1.879-0.496-0.219-1.102-0.359-1.77-0.383" fill="#fafafa" id="path66"/>
      </g>
    </g>
  </g>
</svg>
