<?xml version="1.0" encoding="UTF-8" standalone="no"?>
<svg xmlns:inkscape="http://www.inkscape.org/namespaces/inkscape" xmlns:sodipodi="http://sodipodi.sourceforge.net/DTD/sodipodi-0.dtd" xmlns="http://www.w3.org/2000/svg" xmlns:svg="http://www.w3.org/2000/svg" width="64" height="64" version="1.1" id="svg13" sodipodi:docname="kapow.svg" inkscape:version="1.4.2 (ebf0e940d0, 2025-05-08)">
  <sodipodi:namedview id="namedview13" pagecolor="#ffffff" bordercolor="#000000" borderopacity="0.25" inkscape:showpageshadow="2" inkscape:pageopacity="0.0" inkscape:pagecheckerboard="0" inkscape:deskcolor="#d1d1d1" inkscape:current-layer="svg13"/>
  <defs id="defs5">
    <filter id="e" x="-0.17916921" y="-0.020010184" width="1.3583384" height="1.0400204" color-interpolation-filters="sRGB">
      <feGaussianBlur stdDeviation="0.14989745" id="feGaussianBlur1"/>
    </filter>
    <filter id="c" x="-0.03599548" y="-0.036003846" width="1.071991" height="1.0720077" color-interpolation-filters="sRGB">
      <feGaussianBlur stdDeviation="0.24398276" id="feGaussianBlur2"/>
    </filter>
    <filter id="filter25919" x="-0.047999999" y="-0.047999999" width="1.096" height="1.096" color-interpolation-filters="sRGB">
      <feGaussianBlur stdDeviation="0.12" id="feGaussianBlur3"/>
    </filter>
    <filter id="filter1057" x="-0.026999999" y="-0.026999999" width="1.054" height="1.054" color-interpolation-filters="sRGB">
      <feGaussianBlur stdDeviation="0.61875" id="feGaussianBlur4"/>
    </filter>
    <linearGradient id="linearGradient1053" x1="-127" x2="-72" y1="60" y2="5" gradientTransform="matrix(1.0000066,0,0,1.0000066,131.49994,-0.5101066)" gradientUnits="userSpaceOnUse">
      <stop stop-color="#dee0e2" offset="0" id="stop4"/>
      <stop stop-color="#f1f3f5" stop-opacity=".99608" offset="1" id="stop5"/>
    </linearGradient>
  <radialGradient id="gradient_ds_br" cx="0" cy="0" r="1" gradientUnits="userSpaceOnUse" gradientTransform="matrix(13.998399,0.00477622,-0.00477841,14.004799,47.5016,48.4952)">
      <stop offset="0.65" id="stop1"/>
      <stop offset="1" stop-opacity="0" id="stop2"/>
    </radialGradient><linearGradient id="gradient_ds_b" x1="30.448999" y1="48.5" x2="30.492201" y2="62.500301" gradientUnits="userSpaceOnUse">
      <stop offset="0.653846" id="stop3"/>
      <stop offset="1" stop-opacity="0" id="stop4"/>
    </linearGradient><radialGradient id="gradient_ds_bl" cx="0" cy="0" r="1" gradientUnits="userSpaceOnUse" gradientTransform="matrix(0,14,-14,0,16.5,48.5)">
      <stop offset="0.65" id="stop5"/>
      <stop offset="1" stop-opacity="0" id="stop6"/>
    </radialGradient><linearGradient id="gradient_ds_r" x1="47.5" y1="33.5" x2="61.5" y2="33.5009" gradientUnits="userSpaceOnUse">
      <stop offset="0.649038" id="stop7"/>
      <stop offset="1" stop-opacity="0" id="stop8"/>
    </linearGradient><linearGradient id="gradient_ds_l" x1="16.5" y1="33.894699" x2="2.5" y2="33.894699" gradientUnits="userSpaceOnUse">
      <stop offset="0.649038" id="stop9"/>
      <stop offset="1" stop-opacity="0" id="stop10"/>
    </linearGradient><radialGradient id="gradient_ds_tr" cx="0" cy="0" r="1" gradientTransform="matrix(0.00843236,-14,14.0084,0.0189842,47.4916,18.5)" gradientUnits="userSpaceOnUse">
      <stop offset="0.65" id="stop11"/>
      <stop offset="1" stop-opacity="0" id="stop12"/>
    </radialGradient><linearGradient id="gradient_ds_t" x1="29.98" y1="18.5" x2="29.9158" y2="4.4998598" gradientUnits="userSpaceOnUse">
      <stop offset="0.649038" id="stop13"/>
      <stop offset="1" stop-opacity="0" id="stop14"/>
    </linearGradient><radialGradient id="gradient_ds_tl" cx="0" cy="0" r="1" gradientTransform="matrix(-0.00843236,-14,-14.0084,0.0189842,16.5084,18.5)" gradientUnits="userSpaceOnUse">
      <stop offset="0.65" id="stop15"/>
      <stop offset="1" stop-opacity="0" id="stop16"/>
    </radialGradient></defs>
  
  <g id="ds" opacity="0.25">
    <path id="ds-br" d="m 47.5,48.5 h 14 v 14 h -14 z" fill="url(#gradient_ds_br)" style="fill:url(#gradient_ds_br)"/>
    <path id="ds-b" d="m 16.5,48.5 h 31 v 14 h -31 z" fill="url(#gradient_ds_b)" style="fill:url(#gradient_ds_b)"/>
    <path id="ds-bl" d="m 2.5,48.5 h 14 v 14 h -14 z" fill="url(#gradient_ds_bl)" style="fill:url(#gradient_ds_bl)"/>
    <path id="ds-r" d="m 47.5,18.5 h 14 v 30 h -14 z" fill="url(#gradient_ds_r)" style="fill:url(#gradient_ds_r)"/>
    <path id="ds-l" d="m 2.5,18.5 h 14 v 30 h -14 z" fill="url(#gradient_ds_l)" style="fill:url(#gradient_ds_l)"/>
    <path id="ds-tr" d="m 47.5,4.5 h 14 v 14 h -14 z" fill="url(#gradient_ds_tr)" style="fill:url(#gradient_ds_tr)"/>
    <path id="ds-t" d="m 16.5,4.5 h 31 v 14 h -31 z" fill="url(#gradient_ds_t)" style="fill:url(#gradient_ds_t)"/>
    <path id="ds-tl" d="m 16.5,4.5 h -14 v 14 h 14 z" fill="url(#gradient_ds_tl)" style="fill:url(#gradient_ds_tl)"/>
  </g><rect x="4.5" y="4.5" width="55" height="55" fill="url(#linearGradient1053)" stroke-width="2.74437" id="bg" style="fill:url(#linearGradient1053);stroke-linecap:round" rx="10"/>
  <g id="art"><path d="m32 7.75a24.25 24.25 0 0 0 0 48.5 24.25 24.25 0 0 0 0-48.5zm0 4.7324a19.517 19.517 0 0 1 0 39.035 19.517 19.517 0 0 1 0-39.035z" fill="#f2c046" id="path6"/><path d="m36.144 16.546a16 16 0 0 1 11.313 11.314l-15.454 4.1412z" fill="#ee7923" stroke-linecap="square" stroke-width="2.1645" id="path7"/><path transform="matrix(.4 -.69282 .69282 .4 -2.9438 41.356)" d="m31.998 14.998a1.0016 1.0016 0 0 0-1.002 1.002 1.0016 1.0016 0 0 0 0.0039 0.07031v15.916a1.0016 1.0016 0 0 0 1.002 0.99023 1.0016 1.0016 0 0 0 1.002-1.002 1.0016 1.0016 0 0 0-0.0039-0.07031v-15.904a1.0016 1.0016 0 0 0 0-0.01172 1.0016 1.0016 0 0 0-1.002-0.99023z" filter="url(#e)" opacity=".5" stroke-width="3.7796" id="path8"/><path transform="matrix(.4 -.69282 .69282 .4 -2.9438 41.356)" d="m32.709 31.991 15.557 15.557-0.71056 0.70678-15.557-15.557z" filter="url(#c)" opacity=".35" stroke-width="3.7796" id="path9"/><path d="m35 32a3 3 0 0 1-3 3 3 3 0 0 1-3-3 3 3 0 0 1 3-3 3 3 0 0 1 3 3z" filter="url(#filter25919)" opacity=".5" id="path10"/><g fill="#333" id="g12">
    <path d="m32.276 31.505 17.002-4.5556 0.20544 0.775-17.002 4.5556z" stroke-width="3.0237" id="path11"/>
    <path d="m20.219 25.201a0.80128 0.80128 0 0 0 0.29341 1.095 0.80128 0.80128 0 0 0 0.05026 0.02544l11.027 6.3665a0.80128 0.80128 0 0 0 1.0868-0.29812 0.80128 0.80128 0 0 0-0.29341-1.095 0.80128 0.80128 0 0 0-0.05026-0.02544l-11.018-6.3615a0.80128 0.80128 0 0 0-0.0081-0.0047 0.80128 0.80128 0 0 0-1.0868 0.29812z" stroke-width="3.0237" id="path12"/>
    <circle cx="32" cy="32" r="3" stroke-linecap="square" stroke-width="3.6053" id="circle12"/>
  </g><circle cx="32" cy="32" r="2" fill="#ee7923" stroke-linecap="square" stroke-width="2.4035" id="circle13"/></g>
  
  
  
  
  
  
</svg>
