<?xml version="1.0" encoding="UTF-8" standalone="no"?>
<svg xmlns:inkscape="http://www.inkscape.org/namespaces/inkscape" xmlns:sodipodi="http://sodipodi.sourceforge.net/DTD/sodipodi-0.dtd" xmlns="http://www.w3.org/2000/svg" xmlns:svg="http://www.w3.org/2000/svg" width="64" height="64" version="1.1" id="svg39" sodipodi:docname="nota.svg" inkscape:version="1.2.2 (b0a8486541, 2022-12-01)">
  <defs id="defs17">
    <linearGradient id="c" x1="24" x2="24" y1="37" y2="12" gradientTransform="translate(4.207 3.965) scale(1.158)" gradientUnits="userSpaceOnUse">
      <stop stop-color="#2c3e50" offset="0" id="stop2"/>
      <stop stop-color="#34495e" offset="1" id="stop4"/>
    </linearGradient>
    <linearGradient id="b" x1="24" x2="24" y1="51" y2="4" gradientTransform="translate(4.207 3.965) scale(1.158)" gradientUnits="userSpaceOnUse">
      <stop stop-color="#7f8c8d" stop-opacity="0" offset="0" id="stop7"/>
      <stop stop-color="#7f8c8d" offset="1" id="stop9"/>
    </linearGradient>
    <linearGradient id="a" x1="351.47" x2="351.47" y1="546.44" y2="504.89" gradientTransform="matrix(1.4,0,0,1.4,-450.7298,-713.40706)" gradientUnits="userSpaceOnUse">
      <stop stop-color="#bdc3c7" offset="0" id="stop12"/>
      <stop stop-color="#eff0f1" offset="1" id="stop14"/>
    </linearGradient>
    <filter id="filter1057-3" x="-0.026999999" y="-0.026999999" width="1.054" height="1.054" color-interpolation-filters="sRGB">
      <feGaussianBlur stdDeviation="0.61875" id="feGaussianBlur270"/>
    </filter>
    <linearGradient id="linearGradient1053-94" x1="-127" x2="-72" y1="60" y2="5" gradientTransform="matrix(1.0000071,0,0,1.0000071,131.50181,-0.51213487)" gradientUnits="userSpaceOnUse">
      <stop stop-color="#dee0e2" offset="0" id="stop273"/>
      <stop stop-color="#f1f3f5" stop-opacity=".99608" offset="1" id="stop275"/>
    </linearGradient>
    <linearGradient id="linearGradient1993" x1="31.104" x2="31.104" y1="46.189999" y2="7.4303002" gradientTransform="matrix(1.0000071,0,0,1.0000071,-101.53957,-34.516521)" gradientUnits="userSpaceOnUse">
      <stop stop-color="#c8c8c8" offset="0" id="stop278"/>
      <stop stop-color="#c8c8c8" stop-opacity="0" offset="1" id="stop280"/>
    </linearGradient>
    <filter id="filter2286" x="-0.17876739" y="-0.077369616" width="1.3575348" height="1.1547392" color-interpolation-filters="sRGB">
      <feGaussianBlur stdDeviation="1.0015722" id="feGaussianBlur283"/>
    </filter>
  <radialGradient id="gradient_ds_br" cx="0" cy="0" r="1" gradientUnits="userSpaceOnUse" gradientTransform="matrix(13.998399,0.00477622,-0.00477841,14.004799,47.5016,48.4952)">
      <stop offset="0.65" id="stop1"/>
      <stop offset="1" stop-opacity="0" id="stop2"/>
    </radialGradient><linearGradient id="gradient_ds_b" x1="30.448999" y1="48.5" x2="30.492201" y2="62.500301" gradientUnits="userSpaceOnUse">
      <stop offset="0.653846" id="stop3"/>
      <stop offset="1" stop-opacity="0" id="stop4"/>
    </linearGradient><radialGradient id="gradient_ds_bl" cx="0" cy="0" r="1" gradientUnits="userSpaceOnUse" gradientTransform="matrix(0,14,-14,0,16.5,48.5)">
      <stop offset="0.65" id="stop5"/>
      <stop offset="1" stop-opacity="0" id="stop6"/>
    </radialGradient><linearGradient id="gradient_ds_r" x1="47.5" y1="33.5" x2="61.5" y2="33.5009" gradientUnits="userSpaceOnUse">
      <stop offset="0.649038" id="stop7"/>
      <stop offset="1" stop-opacity="0" id="stop8"/>
    </linearGradient><linearGradient id="gradient_ds_l" x1="16.5" y1="33.894699" x2="2.5" y2="33.894699" gradientUnits="userSpaceOnUse">
      <stop offset="0.649038" id="stop9"/>
      <stop offset="1" stop-opacity="0" id="stop10"/>
    </linearGradient><radialGradient id="gradient_ds_tr" cx="0" cy="0" r="1" gradientTransform="matrix(0.00843236,-14,14.0084,0.0189842,47.4916,18.5)" gradientUnits="userSpaceOnUse">
      <stop offset="0.65" id="stop11"/>
      <stop offset="1" stop-opacity="0" id="stop12"/>
    </radialGradient><linearGradient id="gradient_ds_t" x1="29.98" y1="18.5" x2="29.9158" y2="4.4998598" gradientUnits="userSpaceOnUse">
      <stop offset="0.649038" id="stop13"/>
      <stop offset="1" stop-opacity="0" id="stop14"/>
    </linearGradient><radialGradient id="gradient_ds_tl" cx="0" cy="0" r="1" gradientTransform="matrix(-0.00843236,-14,-14.0084,0.0189842,16.5084,18.5)" gradientUnits="userSpaceOnUse">
      <stop offset="0.65" id="stop15"/>
      <stop offset="1" stop-opacity="0" id="stop16"/>
    </radialGradient></defs>
  
  <g id="ds" opacity="0.25">
    <path id="ds-br" d="m 47.5,48.5 h 14 v 14 h -14 z" fill="url(#gradient_ds_br)" style="fill:url(#gradient_ds_br)"/>
    <path id="ds-b" d="m 16.5,48.5 h 31 v 14 h -31 z" fill="url(#gradient_ds_b)" style="fill:url(#gradient_ds_b)"/>
    <path id="ds-bl" d="m 2.5,48.5 h 14 v 14 h -14 z" fill="url(#gradient_ds_bl)" style="fill:url(#gradient_ds_bl)"/>
    <path id="ds-r" d="m 47.5,18.5 h 14 v 30 h -14 z" fill="url(#gradient_ds_r)" style="fill:url(#gradient_ds_r)"/>
    <path id="ds-l" d="m 2.5,18.5 h 14 v 30 h -14 z" fill="url(#gradient_ds_l)" style="fill:url(#gradient_ds_l)"/>
    <path id="ds-tr" d="m 47.5,4.5 h 14 v 14 h -14 z" fill="url(#gradient_ds_tr)" style="fill:url(#gradient_ds_tr)"/>
    <path id="ds-t" d="m 16.5,4.5 h 31 v 14 h -31 z" fill="url(#gradient_ds_t)" style="fill:url(#gradient_ds_t)"/>
    <path id="ds-tl" d="m 16.5,4.5 h -14 v 14 h 14 z" fill="url(#gradient_ds_tl)" style="fill:url(#gradient_ds_tl)"/>
  </g><rect x="4.5" y="4.5" width="55" height="55" fill="url(#linearGradient1053-94)" stroke-width="2.74437" id="bg" style="fill:url(#linearGradient1053-94);stroke-linecap:round" rx="10"/>
  <g id="art"><path d="M20.42 16.704v2.316h-4.632v1.158h4.632v6.948h-4.632v1.158h4.632v6.949h-4.632v1.158h4.632v6.948h-4.632v1.158h31.267v-1.158H43.58V36.39h3.474v-1.158H43.58v-6.949h3.474v-1.158H43.58v-6.948h3.474V19.02H43.58v-2.316h-3.474v2.316H25.602l-1.708-2.316zm6.034 3.474h13.652v6.948h-8.533zm-2.56 3.474 2.702 3.474h-2.702zm0 4.632h3.603l5.404 6.949h-9.007zm8.534 0h7.679v6.949h-2.56zm-8.534 8.107h9.908l5.404 6.948H23.894zm14.505 0h1.708v2.316z" color="#000" fill="url(#b)" style="font-feature-settings:normal;font-variant-alternates:normal;font-variant-caps:normal;font-variant-ligatures:normal;font-variant-numeric:normal;font-variant-position:normal;isolation:auto;mix-blend-mode:normal;paint-order:normal;shape-padding:0;text-decoration-color:#000;text-decoration-line:none;text-decoration-style:solid;text-indent:0;text-orientation:mixed;text-transform:none;white-space:normal" transform="translate(-.239 1.172) scale(1.0075)" id="path23"/><path d="M20.42 16.704v27.793h3.474V23.652l16.212 20.845h3.474V16.704h-3.474v22.003L23.894 16.704z" color="#000" fill="url(#c)" style="font-feature-settings:normal;font-variant-alternates:normal;font-variant-caps:normal;font-variant-ligatures:normal;font-variant-numeric:normal;font-variant-position:normal;isolation:auto;mix-blend-mode:normal;paint-order:normal;shape-padding:0;text-decoration-color:#000;text-decoration-line:none;text-decoration-style:solid;text-indent:0;text-orientation:mixed;text-transform:none;white-space:normal" transform="translate(-.239 1.172) scale(1.0075)" id="path25"/><path d="M7 6c-.554 0-1 .446-1 1v2c0 .554.446 1 1 1h2c.554 0 1-.446 1-1V7c0-.554-.446-1-1-1zm0 1h2v2H7zm32-1c-.554 0-1 .446-1 1v2c0 .554.446 1 1 1h2c.554 0 1-.446 1-1V7c0-.554-.446-1-1-1zm0 1h2v2h-2zM7 36c-.554 0-1 .446-1 1v2c0 .554.446 1 1 1h2c.554 0 1-.446 1-1v-2c0-.554-.446-1-1-1zm0 1h2v2H7zm32-1c-.554 0-1 .446-1 1v2c0 .554.446 1 1 1h2c.554 0 1-.446 1-1v-2c0-.554-.446-1-1-1zm0 1h2v2h-2z" style="paint-order:normal" transform="translate(4 5.167) scale(1.1667)" fill="#2c3e50" id="path27"/><g fill="#2c3e50" stroke-dashoffset="531.55" color="#000" id="g37">
    <path d="M7 13v4h2v-4zm0 8v4h2v-4zm0 8v4h2v-4z" opacity=".5" style="font-feature-settings:normal;font-variant-alternates:normal;font-variant-caps:normal;font-variant-ligatures:normal;font-variant-numeric:normal;font-variant-position:normal;isolation:auto;mix-blend-mode:normal;paint-order:normal;shape-padding:0;text-decoration-color:#000;text-decoration-line:none;text-decoration-style:solid;text-indent:0;text-orientation:mixed;text-transform:none;white-space:normal" transform="translate(4 5.167) scale(1.1667)" id="path29"/>
    <path d="M7 12v4h2v-4zm0 9v4h2v-4zm0 9v4h2v-4z" opacity=".5" style="font-feature-settings:normal;font-variant-alternates:normal;font-variant-caps:normal;font-variant-ligatures:normal;font-variant-numeric:normal;font-variant-position:normal;isolation:auto;mix-blend-mode:normal;paint-order:normal;shape-padding:0;text-decoration-color:#000;text-decoration-line:none;text-decoration-style:solid;text-indent:0;text-orientation:mixed;text-transform:none;white-space:normal" transform="rotate(90 9.334 49.501) scale(1.1667)" id="path31"/>
    <path d="M7 12v4h2v-4zm0 9v4h2v-4zm0 9v4h2v-4z" opacity=".5" style="font-feature-settings:normal;font-variant-alternates:normal;font-variant-caps:normal;font-variant-ligatures:normal;font-variant-numeric:normal;font-variant-position:normal;isolation:auto;mix-blend-mode:normal;paint-order:normal;shape-padding:0;text-decoration-color:#000;text-decoration-line:none;text-decoration-style:solid;text-indent:0;text-orientation:mixed;text-transform:none;white-space:normal" transform="rotate(90 26.834 32) scale(1.1667)" id="path33"/>
    <path d="M7 13v4h2v-4zm0 8v4h2v-4zm0 8v4h2v-4z" opacity=".5" style="font-feature-settings:normal;font-variant-alternates:normal;font-variant-caps:normal;font-variant-ligatures:normal;font-variant-numeric:normal;font-variant-position:normal;isolation:auto;mix-blend-mode:normal;paint-order:normal;shape-padding:0;text-decoration-color:#000;text-decoration-line:none;text-decoration-style:solid;text-indent:0;text-orientation:mixed;text-transform:none;white-space:normal" transform="translate(41.334 5.167) scale(1.1667)" id="path35"/>
  </g></g>
  
  
  
</svg>
