<?xml version="1.0" encoding="UTF-8" standalone="no"?>
<svg xmlns:inkscape="http://www.inkscape.org/namespaces/inkscape" xmlns:sodipodi="http://sodipodi.sourceforge.net/DTD/sodipodi-0.dtd" xmlns:xlink="http://www.w3.org/1999/xlink" xmlns="http://www.w3.org/2000/svg" xmlns:svg="http://www.w3.org/2000/svg" width="64" height="64" viewBox="0 0 64 64" version="1.1" id="svg4" sodipodi:docname="turtl.svg" inkscape:version="1.4.2 (ebf0e940d0, 2025-05-08)">
  <defs id="defs2">
    <linearGradient id="a" x1="7.9369998" x2="7.9369998" y1="15.081" y2="1.852" gradientUnits="userSpaceOnUse" gradientTransform="translate(-1.7190004,-5.3700563)">
      <stop offset="0" stop-color="#f1efeb" id="stop1"/>
      <stop offset="1" stop-color="#fdfcfc" id="stop2"/>
    </linearGradient>
    <linearGradient inkscape:collect="always" xlink:href="#linearGradient1051" id="linearGradient1053" x1="-127" y1="60" x2="-72" y2="5" gradientUnits="userSpaceOnUse" gradientTransform="translate(131.5,-0.5100006)"/>
    <linearGradient inkscape:collect="always" id="linearGradient1051">
      <stop style="stop-color:#dee0e2;stop-opacity:1" offset="0" id="stop1047"/>
      <stop style="stop-color:#f1f3f5;stop-opacity:0.99607843" offset="1" id="stop1049"/>
    </linearGradient>
    <filter inkscape:collect="always" style="color-interpolation-filters:sRGB" id="filter1057" x="-0.026999999" width="1.054" y="-0.026999999" height="1.054">
      <feGaussianBlur inkscape:collect="always" stdDeviation="0.61875" id="feGaussianBlur1059"/>
    </filter>
  <radialGradient id="gradient_ds_br" cx="0" cy="0" r="1" gradientUnits="userSpaceOnUse" gradientTransform="matrix(13.998399,0.00477622,-0.00477841,14.004799,47.5016,48.4952)">
      <stop offset="0.65" id="stop1"/>
      <stop offset="1" stop-opacity="0" id="stop2"/>
    </radialGradient><linearGradient id="gradient_ds_b" x1="30.448999" y1="48.5" x2="30.492201" y2="62.500301" gradientUnits="userSpaceOnUse">
      <stop offset="0.653846" id="stop3"/>
      <stop offset="1" stop-opacity="0" id="stop4"/>
    </linearGradient><radialGradient id="gradient_ds_bl" cx="0" cy="0" r="1" gradientUnits="userSpaceOnUse" gradientTransform="matrix(0,14,-14,0,16.5,48.5)">
      <stop offset="0.65" id="stop5"/>
      <stop offset="1" stop-opacity="0" id="stop6"/>
    </radialGradient><linearGradient id="gradient_ds_r" x1="47.5" y1="33.5" x2="61.5" y2="33.5009" gradientUnits="userSpaceOnUse">
      <stop offset="0.649038" id="stop7"/>
      <stop offset="1" stop-opacity="0" id="stop8"/>
    </linearGradient><linearGradient id="gradient_ds_l" x1="16.5" y1="33.894699" x2="2.5" y2="33.894699" gradientUnits="userSpaceOnUse">
      <stop offset="0.649038" id="stop9"/>
      <stop offset="1" stop-opacity="0" id="stop10"/>
    </linearGradient><radialGradient id="gradient_ds_tr" cx="0" cy="0" r="1" gradientTransform="matrix(0.00843236,-14,14.0084,0.0189842,47.4916,18.5)" gradientUnits="userSpaceOnUse">
      <stop offset="0.65" id="stop11"/>
      <stop offset="1" stop-opacity="0" id="stop12"/>
    </radialGradient><linearGradient id="gradient_ds_t" x1="29.98" y1="18.5" x2="29.9158" y2="4.4998598" gradientUnits="userSpaceOnUse">
      <stop offset="0.649038" id="stop13"/>
      <stop offset="1" stop-opacity="0" id="stop14"/>
    </linearGradient><radialGradient id="gradient_ds_tl" cx="0" cy="0" r="1" gradientTransform="matrix(-0.00843236,-14,-14.0084,0.0189842,16.5084,18.5)" gradientUnits="userSpaceOnUse">
      <stop offset="0.65" id="stop15"/>
      <stop offset="1" stop-opacity="0" id="stop16"/>
    </radialGradient></defs>
  
  <g id="ds" opacity="0.25">
    <path id="ds-br" d="m 47.5,48.5 h 14 v 14 h -14 z" fill="url(#gradient_ds_br)" style="fill:url(#gradient_ds_br)"/>
    <path id="ds-b" d="m 16.5,48.5 h 31 v 14 h -31 z" fill="url(#gradient_ds_b)" style="fill:url(#gradient_ds_b)"/>
    <path id="ds-bl" d="m 2.5,48.5 h 14 v 14 h -14 z" fill="url(#gradient_ds_bl)" style="fill:url(#gradient_ds_bl)"/>
    <path id="ds-r" d="m 47.5,18.5 h 14 v 30 h -14 z" fill="url(#gradient_ds_r)" style="fill:url(#gradient_ds_r)"/>
    <path id="ds-l" d="m 2.5,18.5 h 14 v 30 h -14 z" fill="url(#gradient_ds_l)" style="fill:url(#gradient_ds_l)"/>
    <path id="ds-tr" d="m 47.5,4.5 h 14 v 14 h -14 z" fill="url(#gradient_ds_tr)" style="fill:url(#gradient_ds_tr)"/>
    <path id="ds-t" d="m 16.5,4.5 h 31 v 14 h -31 z" fill="url(#gradient_ds_t)" style="fill:url(#gradient_ds_t)"/>
    <path id="ds-tl" d="m 16.5,4.5 h -14 v 14 h 14 z" fill="url(#gradient_ds_tl)" style="fill:url(#gradient_ds_tl)"/>
  </g><rect style="fill:url(#linearGradient1053);fill-opacity:1;stroke-width:2.74436;stroke-linecap:round" id="bg" width="55" height="55" x="4.5" y="4.5" rx="10"/>
  <g id="art"><path fill="#ffffff" d="M 32.00189,52.827497 H 24.605209 V 51.485738 L 23.93244,50.812969 20.576153,50.1402 h -4.029055 v -1.341759 l -1.345539,-1.345538 h -1.341758 v -1.341759 l -0.67277,-0.672769 -1.341758,-0.672769 -1.345539,-2.014528 v -3.360066 c 19.400697,-3.639757 21.316956,-3.639757 43.000532,0 v 3.360066 l -1.345538,2.014528 -1.341759,0.672769 -0.672769,0.672769 v 1.341759 h -1.341759 l -1.345538,1.345538 V 50.1402 h -4.025276 l -3.363846,0.672769 -0.668989,0.672769 v 1.341759 z" id="path2" style="stroke-width:3.7796"/><path fill="#8fc46a" d="m 32.00189,44.372527 h -9.910116 v -2.638162 h -5.291443 v -2.638162 h -5.291443 l -0.672769,-4.599776 0.672769,-4.599775 h 2.645721 v -5.268765 h 2.645722 v -5.276325 h 2.645721 V 16.71718 h 2.645722 v -2.638163 h 5.291442 v -2.626823 l 4.618674,-0.672769 4.618674,0.672769 v 2.634383 h 5.291443 v 2.638162 h 2.645721 v 2.634382 h 2.645721 v 5.272545 h 2.645722 v 5.264986 h 2.645721 l 0.66899,4.599775 -0.672769,4.599776 H 47.19967 v 2.638162 h -5.291443 v 2.634383 z" id="path3" style="stroke-width:3.7796"/><path d="m 32.00189,53.500266 h -8.065671 v -2.687297 h -8.061891 v -2.687297 h -2.683517 v -2.687297 h -2.691077 v -2.687297 h 2.687297 v 2.683518 h 2.687297 v 2.691076 h 8.061891 v 2.683518 h 16.127562 v -2.683518 h 8.061891 v -2.687297 h 2.683518 v -2.687297 h 2.691076 v 2.683518 h -2.687297 v 2.691076 h -2.687297 v 2.683518 h -8.061891 v 2.691076 z m 0,-8.061891 H 21.248922 V 42.751078 H 15.874328 V 40.063781 H 10.499734 V 29.310814 h 2.687297 v -5.374595 h 2.687297 v -5.374594 h 2.687297 v -2.683517 h 2.687297 v -2.691077 h 5.374594 v -2.683517 h 10.756748 v 2.683517 h 5.374594 v 2.687297 h 2.683517 v 2.687297 h 2.691077 v 5.374594 h 2.683517 v 5.374595 h 2.691077 v 10.752967 h -5.374594 v 2.683518 h -5.382153 v 2.691076 z m 0,-2.687297 h 8.061891 v -5.374594 h 2.683518 v 2.683518 h 2.691076 v -2.683518 h 5.374594 V 32.00189 h -8.06567 v -2.691076 h 5.374594 v -2.683518 h -2.687297 v -5.382153 h -2.687297 v -2.683518 h -5.370815 v -2.687297 h -2.687297 v -2.683517 h -5.378373 v 2.683517 h -2.683518 v 2.687297 h -5.382153 v 2.687297 h -2.683518 v 5.374594 h -2.687297 v 2.687298 h 5.374594 v 2.691076 h -8.058111 v 5.374594 h 5.374594 v 2.683518 h 2.687297 v -2.683518 h 2.687297 v 5.374594 z m -6.720132,-5.374594 h -1.345539 v -2.687297 h 2.687297 V 32.00189 h -2.683517 v -2.691076 h -2.691077 v -5.374595 h 2.687297 v -2.683517 h 2.687297 v -2.694856 h 10.756748 v 2.687297 h 2.683517 v 2.687297 h 2.691077 v 5.374594 h -2.691077 v 2.691077 h -2.687297 v 2.683517 h 2.683518 v 2.691077 H 37.376484 V 34.685408 H 26.623516 v 2.683517 z M 32.00189,32.00189 h 5.374594 v -2.691076 h 2.683518 V 23.936219 H 37.376484 V 21.252702 H 26.623516 v 2.683517 h -2.683517 v 5.374595 h 2.683517 v 2.691076 z" id="path4" style="stroke-width:3.7796"/></g>
  
  
</svg>
