<?xml version="1.0" encoding="UTF-8" standalone="no"?>
<svg xmlns:inkscape="http://www.inkscape.org/namespaces/inkscape" xmlns:sodipodi="http://sodipodi.sourceforge.net/DTD/sodipodi-0.dtd" xmlns:xlink="http://www.w3.org/1999/xlink" xmlns="http://www.w3.org/2000/svg" xmlns:svg="http://www.w3.org/2000/svg" width="64" height="64" version="1.1" viewBox="0 0 64 64" id="svg4" sodipodi:docname="zeal.svg" inkscape:version="1.4.2 (ebf0e940d0, 2025-05-08)">
  <sodipodi:namedview id="namedview4" pagecolor="#ffffff" bordercolor="#000000" borderopacity="0.25" inkscape:showpageshadow="2" inkscape:pageopacity="0.0" inkscape:pagecheckerboard="0" inkscape:deskcolor="#d1d1d1" inkscape:current-layer="art"/>
  <defs id="defs2">
    <filter id="filter1057-27" x="-0.026999999" y="-0.026999999" width="1.054" height="1.054" color-interpolation-filters="sRGB">
      <feGaussianBlur stdDeviation="0.61875" id="feGaussianBlur1"/>
    </filter>
    <linearGradient id="linearGradient1053-0" x1="-127" x2="-72" y1="60" y2="5" gradientTransform="translate(131.504,-0.51)" gradientUnits="userSpaceOnUse">
      <stop stop-color="#323741" offset="0" id="stop1"/>
      <stop stop-color="#465064" offset="1" id="stop2"/>
    </linearGradient>
    <filter inkscape:collect="always" style="color-interpolation-filters:sRGB" id="filter2" x="-0.053156251" y="-0.018095745" width="1.1063125" height="1.0361915">
      <feGaussianBlur inkscape:collect="always" stdDeviation="0.1771875" id="feGaussianBlur2"/>
    </filter>
    <linearGradient inkscape:collect="always" xlink:href="#linearGradient2" id="linearGradient4" x1="15" y1="28" x2="23" y2="5" gradientUnits="userSpaceOnUse"/>
    <linearGradient id="linearGradient2" inkscape:collect="always">
      <stop style="stop-color:#0593eb;stop-opacity:1;" offset="0" id="stop3"/>
      <stop style="stop-color:#28aafa;stop-opacity:1;" offset="1" id="stop4"/>
    </linearGradient>
  <radialGradient id="gradient_ds_br" cx="0" cy="0" r="1" gradientUnits="userSpaceOnUse" gradientTransform="matrix(13.998399,0.00477622,-0.00477841,14.004799,47.5016,48.4952)">
      <stop offset="0.65" id="stop1"/>
      <stop offset="1" stop-opacity="0" id="stop2"/>
    </radialGradient><linearGradient id="gradient_ds_b" x1="30.448999" y1="48.5" x2="30.492201" y2="62.500301" gradientUnits="userSpaceOnUse">
      <stop offset="0.653846" id="stop3"/>
      <stop offset="1" stop-opacity="0" id="stop4"/>
    </linearGradient><radialGradient id="gradient_ds_bl" cx="0" cy="0" r="1" gradientUnits="userSpaceOnUse" gradientTransform="matrix(0,14,-14,0,16.5,48.5)">
      <stop offset="0.65" id="stop5"/>
      <stop offset="1" stop-opacity="0" id="stop6"/>
    </radialGradient><linearGradient id="gradient_ds_r" x1="47.5" y1="33.5" x2="61.5" y2="33.5009" gradientUnits="userSpaceOnUse">
      <stop offset="0.649038" id="stop7"/>
      <stop offset="1" stop-opacity="0" id="stop8"/>
    </linearGradient><linearGradient id="gradient_ds_l" x1="16.5" y1="33.894699" x2="2.5" y2="33.894699" gradientUnits="userSpaceOnUse">
      <stop offset="0.649038" id="stop9"/>
      <stop offset="1" stop-opacity="0" id="stop10"/>
    </linearGradient><radialGradient id="gradient_ds_tr" cx="0" cy="0" r="1" gradientTransform="matrix(0.00843236,-14,14.0084,0.0189842,47.4916,18.5)" gradientUnits="userSpaceOnUse">
      <stop offset="0.65" id="stop11"/>
      <stop offset="1" stop-opacity="0" id="stop12"/>
    </radialGradient><linearGradient id="gradient_ds_t" x1="29.98" y1="18.5" x2="29.9158" y2="4.4998598" gradientUnits="userSpaceOnUse">
      <stop offset="0.649038" id="stop13"/>
      <stop offset="1" stop-opacity="0" id="stop14"/>
    </linearGradient><radialGradient id="gradient_ds_tl" cx="0" cy="0" r="1" gradientTransform="matrix(-0.00843236,-14,-14.0084,0.0189842,16.5084,18.5)" gradientUnits="userSpaceOnUse">
      <stop offset="0.65" id="stop15"/>
      <stop offset="1" stop-opacity="0" id="stop16"/>
    </radialGradient></defs>
  
  <g id="ds" opacity="0.25">
    <path id="ds-br" d="m 47.5,48.5 h 14 v 14 h -14 z" fill="url(#gradient_ds_br)" style="fill:url(#gradient_ds_br)"/>
    <path id="ds-b" d="m 16.5,48.5 h 31 v 14 h -31 z" fill="url(#gradient_ds_b)" style="fill:url(#gradient_ds_b)"/>
    <path id="ds-bl" d="m 2.5,48.5 h 14 v 14 h -14 z" fill="url(#gradient_ds_bl)" style="fill:url(#gradient_ds_bl)"/>
    <path id="ds-r" d="m 47.5,18.5 h 14 v 30 h -14 z" fill="url(#gradient_ds_r)" style="fill:url(#gradient_ds_r)"/>
    <path id="ds-l" d="m 2.5,18.5 h 14 v 30 h -14 z" fill="url(#gradient_ds_l)" style="fill:url(#gradient_ds_l)"/>
    <path id="ds-tr" d="m 47.5,4.5 h 14 v 14 h -14 z" fill="url(#gradient_ds_tr)" style="fill:url(#gradient_ds_tr)"/>
    <path id="ds-t" d="m 16.5,4.5 h 31 v 14 h -31 z" fill="url(#gradient_ds_t)" style="fill:url(#gradient_ds_t)"/>
    <path id="ds-tl" d="m 16.5,4.5 h -14 v 14 h 14 z" fill="url(#gradient_ds_tl)" style="fill:url(#gradient_ds_tl)"/>
  </g><rect x="4.5" y="4.5" width="55" height="55" fill="url(#linearGradient1053-0)" stroke-linecap="round" stroke-width="2.7444" id="bg" style="fill:url(#linearGradient1053-0)" rx="10"/>
  <g id="art">
    <path d="m 34.273,23.429 c -3.336,0 -5.4876,0.058 -6.866,0.25708 -0.69027,0.09954 -1.1935,0.24227 -1.5827,0.46274 -0.40793,0.23116 -0.69783,0.62564 -0.69783,1.0925 0,0.30438 0.14593,0.52775 0.38643,0.65565 0.17144,0.09131 0.34493,0.10859 0.49845,0.10284 0.29866,-0.01073 0.6157,-0.10448 0.97219,-0.24433 0.04078,-0.01603 0.31382,-0.08185 0.67311,-0.14149 0.35887,-0.05964 0.82104,-0.1234 1.3458,-0.18016 1.0515,-0.11312 2.369,-0.21389 3.6762,-0.26983 l 3.2276,-0.1415 -0.63562,0.60424 c -0.97574,0.91315 -4.1867,3.3683 -7.3525,5.6815 -1.5827,1.1566 -3.1538,2.2865 -4.4614,3.1878 -1.3071,0.9012 -2.3746,1.5906 -2.8033,1.8123 -0.55549,0.28094 -1.1058,0.57299 -1.6572,0.86133 0.09131,0.31632 0.15787,0.66922 0.22451,0.9514 0.68906,0.03099 1.3789,0.04441 2.0688,0.06418 0.40752,0.01096 1.5775,0.14355 3.0158,0.35989 1.4387,0.21634 3.1797,0.50756 4.8723,0.82267 3.5928,0.66842 6.2934,1.0633 8.3242,1.1698 2.0293,0.10613 3.409,-0.04399 4.3862,-0.56558 0.73491,-0.39198 1.4415,-1.1727 2.0313,-2.0052 0.58697,-0.83087 1.0862,-1.6848 1.0842,-2.4926 0,-0.05719 -0.0106,-0.21963 -0.0873,-0.35989 -0.0654,-0.12012 -0.14197,-0.17851 -0.22451,-0.23158 -0.0825,-0.05265 -0.17145,-0.09914 -0.3114,-0.10284 -0.13796,-0.0037 -0.2879,0.03863 -0.38643,0.10284 -0.37841,0.27969 -0.60372,0.74201 -0.82263,1.0411 -0.56543,0.95673 -1.0994,1.4762 -2.0189,1.8255 -0.91516,0.34716 -2.2685,0.48866 -4.3363,0.48866 -1.8343,0 -4.6878,-0.2575 -7.14,-0.59147 -1.2254,-0.1666 -2.3562,-0.34924 -3.202,-0.52691 H 26.4616 c -0.39799,-0.08391 -0.77796,-0.17235 -1.0172,-0.24435 0.28271,-0.3122 0.86889,-0.79262 1.6652,-1.4524 5.6146,-4.4115 10.325,-7.9081 15.986,-11.994 h -8.8204 z" color="#000000" fill="#f1f2f2" stroke-width="3.7796" id="path4"/>
    <g id="bookmark">
      <path id="path983-6" d="M 15,5.0000001 V 28.5 l 4,-3 4,3 V 4.9999999 Z" style="opacity:0.25;fill:#000000;fill-opacity:1;stroke-width:3.7796;filter:url(#filter2)" sodipodi:nodetypes="cccccc"/>
      <path id="path983-67" d="M 15,4.5000002 V 28 l 4,-3 4,3 V 4.5 Z" style="display:inline;fill:url(#linearGradient4);fill-opacity:1;stroke-width:3.7796" sodipodi:nodetypes="cccccc"/>
    </g>
  </g>
</svg>
