<?xml version="1.0" encoding="UTF-8" standalone="no"?>
<svg xmlns:inkscape="http://www.inkscape.org/namespaces/inkscape" xmlns:sodipodi="http://sodipodi.sourceforge.net/DTD/sodipodi-0.dtd" xmlns:xlink="http://www.w3.org/1999/xlink" xmlns="http://www.w3.org/2000/svg" xmlns:svg="http://www.w3.org/2000/svg" xmlns:rdf="http://www.w3.org/1999/02/22-rdf-syntax-ns#" xmlns:cc="http://creativecommons.org/ns#" xmlns:dc="http://purl.org/dc/elements/1.1/" width="64" height="64" version="1.1" viewBox="0 0 64 64" id="svg29047" sodipodi:docname="falkon.svg" inkscape:version="1.4.2 (ebf0e940d0, 2025-05-08)" xml:space="preserve">
  
  <defs id="defs29023">
    <filter id="filter1057-4-4" x="-0.026999999" y="-0.026999999" width="1.054" height="1.054" color-interpolation-filters="sRGB">
      <feGaussianBlur stdDeviation="0.61875" id="feGaussianBlur29015"/>
    </filter>
    <linearGradient id="linearGradient1053-5-2" x1="-127" x2="-72" y1="60" y2="5" gradientTransform="matrix(0.2646,0,0,0.2646,32.942,1.0363)" gradientUnits="userSpaceOnUse">
      <stop stop-color="#32d7ff" offset="0" id="stop29018" style="stop-color:#79c4f6;stop-opacity:1;"/>
      <stop stop-color="#329bff" offset="1" id="stop29020" style="stop-color:#b166ff;stop-opacity:1;"/>
    </linearGradient>
    <linearGradient inkscape:collect="always" xlink:href="#linearGradient73015" id="linearGradient62387" x1="20.350634" y1="8.8618183" x2="31.032265" y2="7.3881545" gradientUnits="userSpaceOnUse" gradientTransform="matrix(3.779602,0,0,3.779602,-64.000001,-1.1255782e-6)"/>
    <linearGradient inkscape:collect="always" id="linearGradient73015">
      <stop style="stop-color:#e9872a;stop-opacity:1" offset="0" id="stop73011"/>
      <stop style="stop-color:#e4e92a;stop-opacity:0;" offset="1" id="stop73013"/>
    </linearGradient>
    <linearGradient inkscape:collect="always" xlink:href="#linearGradient73015" id="linearGradient65500" x1="21.571705" y1="3.6104879" x2="24.159809" y2="3.8060186" gradientUnits="userSpaceOnUse" gradientTransform="matrix(3.779602,0,0,3.779602,-64.000001,-1.1255782e-6)"/>
    <linearGradient inkscape:collect="always" xlink:href="#linearGradient73015" id="linearGradient54996" x1="20.919655" y1="13.756975" x2="30.99036" y2="7.4407496" gradientUnits="userSpaceOnUse" gradientTransform="matrix(3.779602,0,0,3.779602,-64.000001,-1.1255782e-6)"/>
    <filter inkscape:collect="always" style="color-interpolation-filters:sRGB" id="filter68545" x="-0.14834202" y="-0.14568205" width="1.296684" height="1.2913641">
      <feGaussianBlur inkscape:collect="always" stdDeviation="0.66355061" id="feGaussianBlur68547"/>
    </filter>
    <filter id="filter1057-4-4-3" x="-0.026999999" y="-0.026999999" width="1.054" height="1.054" color-interpolation-filters="sRGB">
      <feGaussianBlur stdDeviation="0.61875" id="feGaussianBlur29015-6"/>
    </filter>
    <linearGradient inkscape:collect="always" xlink:href="#linearGradient1053-5-2" id="linearGradient54974" gradientUnits="userSpaceOnUse" gradientTransform="matrix(1.0000827,0,0,1.0000827,131.50811,-0.51175925)" x1="-127" y1="60" x2="-72" y2="5"/>
  <radialGradient id="gradient_ds_br" cx="0" cy="0" r="1" gradientUnits="userSpaceOnUse" gradientTransform="matrix(13.998399,0.00477622,-0.00477841,14.004799,47.5016,48.4952)">
      <stop offset="0.65" id="stop1"/>
      <stop offset="1" stop-opacity="0" id="stop2"/>
    </radialGradient><linearGradient id="gradient_ds_b" x1="30.448999" y1="48.5" x2="30.492201" y2="62.500301" gradientUnits="userSpaceOnUse">
      <stop offset="0.653846" id="stop3"/>
      <stop offset="1" stop-opacity="0" id="stop4"/>
    </linearGradient><radialGradient id="gradient_ds_bl" cx="0" cy="0" r="1" gradientUnits="userSpaceOnUse" gradientTransform="matrix(0,14,-14,0,16.5,48.5)">
      <stop offset="0.65" id="stop5"/>
      <stop offset="1" stop-opacity="0" id="stop6"/>
    </radialGradient><linearGradient id="gradient_ds_r" x1="47.5" y1="33.5" x2="61.5" y2="33.5009" gradientUnits="userSpaceOnUse">
      <stop offset="0.649038" id="stop7"/>
      <stop offset="1" stop-opacity="0" id="stop8"/>
    </linearGradient><linearGradient id="gradient_ds_l" x1="16.5" y1="33.894699" x2="2.5" y2="33.894699" gradientUnits="userSpaceOnUse">
      <stop offset="0.649038" id="stop9"/>
      <stop offset="1" stop-opacity="0" id="stop10"/>
    </linearGradient><radialGradient id="gradient_ds_tr" cx="0" cy="0" r="1" gradientTransform="matrix(0.00843236,-14,14.0084,0.0189842,47.4916,18.5)" gradientUnits="userSpaceOnUse">
      <stop offset="0.65" id="stop11"/>
      <stop offset="1" stop-opacity="0" id="stop12"/>
    </radialGradient><linearGradient id="gradient_ds_t" x1="29.98" y1="18.5" x2="29.9158" y2="4.4998598" gradientUnits="userSpaceOnUse">
      <stop offset="0.649038" id="stop13"/>
      <stop offset="1" stop-opacity="0" id="stop14"/>
    </linearGradient><radialGradient id="gradient_ds_tl" cx="0" cy="0" r="1" gradientTransform="matrix(-0.00843236,-14,-14.0084,0.0189842,16.5084,18.5)" gradientUnits="userSpaceOnUse">
      <stop offset="0.65" id="stop15"/>
      <stop offset="1" stop-opacity="0" id="stop16"/>
    </radialGradient></defs>
  <metadata id="metadata29025">
    <rdf:RDF>
      <cc:Work rdf:about="">
        <dc:format>image/svg+xml</dc:format>
        <dc:type rdf:resource="http://purl.org/dc/dcmitype/StillImage"/>
      </cc:Work>
    </rdf:RDF>
  </metadata>
  
  <g id="ds" opacity="0.25">
    <path id="ds-br" d="m 47.5,48.5 h 14 v 14 h -14 z" fill="url(#gradient_ds_br)" style="fill:url(#gradient_ds_br)"/>
    <path id="ds-b" d="m 16.5,48.5 h 31 v 14 h -31 z" fill="url(#gradient_ds_b)" style="fill:url(#gradient_ds_b)"/>
    <path id="ds-bl" d="m 2.5,48.5 h 14 v 14 h -14 z" fill="url(#gradient_ds_bl)" style="fill:url(#gradient_ds_bl)"/>
    <path id="ds-r" d="m 47.5,18.5 h 14 v 30 h -14 z" fill="url(#gradient_ds_r)" style="fill:url(#gradient_ds_r)"/>
    <path id="ds-l" d="m 2.5,18.5 h 14 v 30 h -14 z" fill="url(#gradient_ds_l)" style="fill:url(#gradient_ds_l)"/>
    <path id="ds-tr" d="m 47.5,4.5 h 14 v 14 h -14 z" fill="url(#gradient_ds_tr)" style="fill:url(#gradient_ds_tr)"/>
    <path id="ds-t" d="m 16.5,4.5 h 31 v 14 h -31 z" fill="url(#gradient_ds_t)" style="fill:url(#gradient_ds_t)"/>
    <path id="ds-tl" d="m 16.5,4.5 h -14 v 14 h 14 z" fill="url(#gradient_ds_tl)" style="fill:url(#gradient_ds_tl)"/>
  </g><rect x="4.5" y="4.5" width="55" height="55" fill="url(#linearGradient1053-5-2)" stroke-width="2.74448" id="bg" style="fill:url(#linearGradient54974);stroke-linecap:round" rx="10"/>
  <g id="art"><path id="path68538" style="mix-blend-mode:normal;fill:#4914ff;fill-opacity:1;fill-rule:evenodd;stroke-width:1.04117;filter:url(#filter68545)" d="m 7.3828675,3.0013081 c -0.79971,0.00562 -1.713781,0.1782344 -2.749133,0.6087364 1.455989,0.1140016 2.080007,0.3188639 2.115592,0.4743803 -2.518249,-0.4349193 -3.264272,3.1648648 -3.345983,4.7691241 0,0 4.289616,-4.7409175 10.6957765,-1.4655148 C 13.98446,6.4971088 13.226943,5.4920581 11.868809,5.2047478 11.634053,5.0925172 10.238972,2.9812455 7.3828675,3.0013081 Z m 2.553282,1.7672992 c 0.3316915,-0.00529 0.7732565,0.1275641 0.8603945,0.8433428 -1.0823535,0.10214 -1.2407255,-0.779782 -1.2407255,-0.779782 0,0 0.167708,-0.060168 0.380331,-0.063561 z m -0.167429,1.5885023 c -1.705954,-0.00883 -3.738624,0.4775199 -5.746822,2.1409124 -1.460277,3.397644 -0.03514,5.25849 -0.03514,5.25849 0.0015,-0.0053 2.061016,-7.2356844 10.0705045,-6.315769 0,0 -1.795225,-1.0707292 -4.2885425,-1.0836334 z m 2.7114085,1.1906015 c -5.7330315,0.091267 -7.8804995,5.2941459 -7.8804995,5.2941459 4.440793,2.691889 7.8877345,-0.445958 7.8877345,-0.445958 0,0 -4.3649975,-3.7816464 -0.0072,-4.8481879 z" transform="matrix(3.779602,0,0,3.779602,-1.3408268e-8,-1.1255782e-6)"/><path d="m 15.067967,51.995889 c 0,0 7.779525,-27.351002 38.063259,-23.872818 0,0 -19.246446,-11.479376 -37.930009,3.996238 -5.5192695,12.841754 -0.133231,19.875337 -0.133231,19.875337 z" fill="url(#r)" id="path31407" style="opacity:0.9;fill:#fafaff;fill-opacity:1;fill-rule:evenodd;stroke-width:3.93521"/><path d="m 17.384266,48.536385 c 0,0 8.117005,-19.66363 29.785605,-20.008584 -16.470626,4.031106 0.02721,18.323664 0.02721,18.323664 0,0 -13.028551,11.859197 -29.813,1.68492 z" fill="url(#q)" id="path31409" style="opacity:0.7;fill:#fafaff;fill-opacity:1;fill-rule:evenodd;stroke-width:3.93521"/><path id="path31411" style="fill:#fafaff;fill-opacity:1;fill-rule:evenodd;stroke-width:3.93521" d="m 27.904021,11.343504 c -3.022585,0.02124 -6.477429,0.6738 -10.390651,2.300927 5.503063,0.430881 7.8628,1.204791 7.997297,1.792582 -9.517986,-1.643823 -12.33896,11.96208 -12.647795,18.025548 0,0 16.213975,-17.918009 40.426738,-5.538278 -0.433369,-3.367346 -3.297034,-7.166769 -8.430243,-8.252689 -0.887288,-0.424187 -6.160396,-8.403918 -16.955346,-8.32809 z m 9.651244,6.679012 c 1.253666,-0.01999 2.92259,0.483343 3.251941,3.188705 -4.090873,0.386048 -4.689411,-2.94791 -4.689411,-2.94791 0,0 0.63384,-0.227971 1.43747,-0.240795 z"/><path d="m 14.959621,52.083062 c 0,0 7.090866,-23.240195 30.801793,-24.140563 0,0 -19.240221,-3.526751 -32.829175,18.099508 -0.07468,3.059758 2.027382,6.042298 2.027382,6.042298 z" fill="url(#o)" id="path31415" style="opacity:0.8;fill:url(#linearGradient54996);fill-opacity:1;fill-rule:evenodd;stroke-width:3.93521"/><path d="m 17.531213,13.646205 c 0,0 5.915278,0.3462 8.026099,1.805717 0.88169,-0.183061 1.631374,-0.789534 1.757152,-1.615182 -0.755913,-0.315068 -7.679898,-0.880443 -9.782003,-0.190534 z" fill="url(#n)" id="path31417" style="fill:url(#linearGradient65500);fill-opacity:1;fill-rule:evenodd;stroke-width:3.93521"/><path d="m 12.917294,33.494144 c 0,0 7.404687,-8.935184 22.351036,-10.002425 0,0 -20.348557,0.924029 -22.054647,6.696096 -0.475712,1.388533 -0.296396,3.306329 -0.296396,3.306329 z" fill="url(#m)" id="path31419" style="opacity:0.5;fill:url(#linearGradient62387);fill-opacity:1;fill-rule:evenodd;stroke-width:3.93521"/></g>
  
  
  
  
  
  
</svg>
