<?xml version="1.0" encoding="UTF-8" standalone="no"?>
<svg xmlns:inkscape="http://www.inkscape.org/namespaces/inkscape" xmlns:sodipodi="http://sodipodi.sourceforge.net/DTD/sodipodi-0.dtd" xmlns="http://www.w3.org/2000/svg" xmlns:svg="http://www.w3.org/2000/svg" xmlns:rdf="http://www.w3.org/1999/02/22-rdf-syntax-ns#" xmlns:cc="http://creativecommons.org/ns#" xmlns:dc="http://purl.org/dc/elements/1.1/" width="64" height="64" version="1.1" viewBox="0 0 64 64" id="svg83" sodipodi:docname="firefox.svg" inkscape:version="1.4.2 (ebf0e940d0, 2025-05-08)">
  <sodipodi:namedview id="namedview1" pagecolor="#ffffff" bordercolor="#000000" borderopacity="0.25" inkscape:showpageshadow="2" inkscape:pageopacity="0.0" inkscape:pagecheckerboard="0" inkscape:deskcolor="#d1d1d1" inkscape:current-layer="svg83"/>
  <defs id="defs69">
    <filter id="filter861" x="-0.027000001" y="-0.027000001" width="1.054" height="1.054" color-interpolation-filters="sRGB">
      <feGaussianBlur stdDeviation="0.16371" id="feGaussianBlur1"/>
    </filter>
    <linearGradient id="linearGradient1353" x1="30.900999" x2="30.900999" y1="1.2898" y2="15.843" gradientTransform="matrix(3.779602,0,0,3.779602,-85.498377,-0.50038151)" gradientUnits="userSpaceOnUse">
      <stop stop-color="#7364e9" offset="0" id="stop7"/>
      <stop stop-color="#6496ff" offset="1" id="stop8"/>
    </linearGradient>
    <linearGradient id="linearGradient1116" x1="70.786003" x2="6.447" y1="12.393" y2="74.468002" gradientTransform="matrix(0.80086,0,0,0.80086,-0.041784,3.643)" gradientUnits="userSpaceOnUse">
      <stop stop-color="#fff44f" offset=".048" id="stop9"/>
      <stop stop-color="#ffe847" offset=".111" id="stop10"/>
      <stop stop-color="#ffc830" offset=".225" id="stop11"/>
      <stop stop-color="#ff980e" offset=".368" id="stop12"/>
      <stop stop-color="#ff8b16" offset=".401" id="stop13"/>
      <stop stop-color="#ff672a" offset=".462" id="stop14"/>
      <stop stop-color="#ff3647" offset=".534" id="stop15"/>
      <stop stop-color="#e31587" offset=".705" id="stop16"/>
    </linearGradient>
    <radialGradient id="radialGradient1118" cx="-7907.2002" cy="-8515.0996" r="80.796997" gradientTransform="matrix(0.80086,0,0,0.80086,6386.9,6830.5)" gradientUnits="userSpaceOnUse">
      <stop stop-color="#ffbd4f" offset=".129" id="stop17"/>
      <stop stop-color="#ffac31" offset=".186" id="stop18"/>
      <stop stop-color="#ff9d17" offset=".247" id="stop19"/>
      <stop stop-color="#ff980e" offset=".283" id="stop20"/>
      <stop stop-color="#ff563b" offset=".403" id="stop21"/>
      <stop stop-color="#ff3750" offset=".467" id="stop22"/>
      <stop stop-color="#f5156c" offset=".71" id="stop23"/>
      <stop stop-color="#eb0878" offset=".782" id="stop24"/>
      <stop stop-color="#e50080" offset=".86" id="stop25"/>
    </radialGradient>
    <radialGradient id="radialGradient1120" cx="-7936.7002" cy="-8482.0996" r="80.796997" gradientTransform="matrix(0.80086,0,0,0.80086,6386.9,6830.5)" gradientUnits="userSpaceOnUse">
      <stop stop-color="#960e18" offset=".3" id="stop26"/>
      <stop stop-color="#b11927" stop-opacity=".74" offset=".351" id="stop27"/>
      <stop stop-color="#db293d" stop-opacity=".343" offset=".435" id="stop28"/>
      <stop stop-color="#f5334b" stop-opacity=".094" offset=".497" id="stop29"/>
      <stop stop-color="#ff3750" stop-opacity="0" offset=".53" id="stop30"/>
    </radialGradient>
    <radialGradient id="radialGradient1122" cx="-7927" cy="-8533.5" r="58.534" gradientTransform="matrix(0.21189,0,0,0.21189,1689.8,1807.2)" gradientUnits="userSpaceOnUse">
      <stop stop-color="#fff44f" offset=".132" id="stop31"/>
      <stop stop-color="#ffdc3e" offset=".252" id="stop32"/>
      <stop stop-color="#ff9d12" offset=".506" id="stop33"/>
      <stop stop-color="#ff980e" offset=".526" id="stop34"/>
    </radialGradient>
    <radialGradient id="radialGradient1124" cx="-7937.7002" cy="-8518.4004" r="27.676001" gradientTransform="matrix(0.21189,0,0,0.21189,1689.8,1807.2)" gradientUnits="userSpaceOnUse">
      <stop stop-color="#ffe226" offset="0" id="stop35"/>
      <stop stop-color="#ffdb27" offset=".121" id="stop36"/>
      <stop stop-color="#ffc82a" offset=".295" id="stop37"/>
      <stop stop-color="#ffa930" offset=".502" id="stop38"/>
      <stop stop-color="#ff7e37" offset=".732" id="stop39"/>
      <stop stop-color="#ff7139" offset=".792" id="stop40"/>
    </radialGradient>
    <radialGradient id="radialGradient1126" cx="-7916" cy="-8536" r="118.08" gradientTransform="matrix(0.80086,0,0,0.80086,6386.9,6830.5)" gradientUnits="userSpaceOnUse">
      <stop stop-color="#fff44f" offset=".113" id="stop41"/>
      <stop stop-color="#ff980e" offset=".456" id="stop42"/>
      <stop stop-color="#ff5634" offset=".622" id="stop43"/>
      <stop stop-color="#ff3647" offset=".716" id="stop44"/>
      <stop stop-color="#e31587" offset=".904" id="stop45"/>
    </radialGradient>
    <radialGradient id="radialGradient1128" cx="-7927.2002" cy="-8522.9004" r="86.499001" gradientTransform="matrix(0.022249,0.21084,-0.13837,0.014621,-992.52,1795.8)" gradientUnits="userSpaceOnUse">
      <stop stop-color="#fff44f" offset="0" id="stop46"/>
      <stop stop-color="#ffe847" offset=".06" id="stop47"/>
      <stop stop-color="#ffc830" offset=".168" id="stop48"/>
      <stop stop-color="#ff980e" offset=".304" id="stop49"/>
      <stop stop-color="#ff8b16" offset=".356" id="stop50"/>
      <stop stop-color="#ff672a" offset=".455" id="stop51"/>
      <stop stop-color="#ff3647" offset=".57" id="stop52"/>
      <stop stop-color="#e31587" offset=".737" id="stop53"/>
    </radialGradient>
    <radialGradient id="radialGradient1130" cx="-7938.3999" cy="-8508.2002" r="73.720001" gradientTransform="matrix(0.21189,0,0,0.21189,1689.8,1807.2)" gradientUnits="userSpaceOnUse">
      <stop stop-color="#fff44f" offset=".137" id="stop54"/>
      <stop stop-color="#ff980e" offset=".48" id="stop55"/>
      <stop stop-color="#ff5634" offset=".592" id="stop56"/>
      <stop stop-color="#ff3647" offset=".655" id="stop57"/>
      <stop stop-color="#e31587" offset=".904" id="stop58"/>
    </radialGradient>
    <radialGradient id="radialGradient1132" cx="-7918.8999" cy="-8503.9004" r="80.685997" gradientTransform="matrix(0.21189,0,0,0.21189,1689.8,1807.2)" gradientUnits="userSpaceOnUse">
      <stop stop-color="#fff44f" offset=".094" id="stop59"/>
      <stop stop-color="#ffe141" offset=".231" id="stop60"/>
      <stop stop-color="#ffaf1e" offset=".509" id="stop61"/>
      <stop stop-color="#ff980e" offset=".626" id="stop62"/>
    </radialGradient>
    <linearGradient id="linearGradient1134" x1="6.8421001" x2="12.104" y1="13.003" y2="4.0900998" gradientTransform="matrix(1.0334,0,0,1.0334,-0.32313,0.47158)" gradientUnits="userSpaceOnUse">
      <stop stop-color="#0014f0" offset="0" id="stop63"/>
      <stop stop-color="#a032ff" offset=".55304" id="stop64"/>
      <stop stop-color="#b432ff" offset="1" id="stop65"/>
    </linearGradient>
    <linearGradient id="linearGradient1136" x1="70.013" x2="15.267" y1="12.061" y2="66.806" gradientTransform="matrix(0.80086569,0,0,0.80086569,-0.0417843,3.6430259)" gradientUnits="userSpaceOnUse">
      <stop stop-color="#fff44f" stop-opacity=".8" offset=".167" id="stop66"/>
      <stop stop-color="#fff44f" stop-opacity=".634" offset=".266" id="stop67"/>
      <stop stop-color="#fff44f" stop-opacity=".217" offset=".489" id="stop68"/>
      <stop stop-color="#fff44f" stop-opacity="0" offset=".6" id="stop69"/>
    </linearGradient>
    <radialGradient id="radialGradient1128-3" cx="-7927.2002" cy="-8522.9004" r="86.499001" gradientTransform="matrix(0.022249,0.21084,-0.13837,0.014621,-992.52,1795.8)" gradientUnits="userSpaceOnUse">
      <stop stop-color="#fff44f" offset="0" id="stop46-5"/>
      <stop stop-color="#ffe847" offset=".06" id="stop47-6"/>
      <stop stop-color="#ffc830" offset=".168" id="stop48-2"/>
      <stop stop-color="#ff980e" offset=".304" id="stop49-9"/>
      <stop stop-color="#ff8b16" offset=".356" id="stop50-1"/>
      <stop stop-color="#ff672a" offset=".455" id="stop51-2"/>
      <stop stop-color="#ff3647" offset=".57" id="stop52-7"/>
      <stop stop-color="#e31587" offset=".737" id="stop53-0"/>
    </radialGradient>
    <radialGradient id="radialGradient1130-9" cx="-7938.3999" cy="-8508.2002" r="73.720001" gradientTransform="matrix(0.21189,0,0,0.21189,1689.8,1807.2)" gradientUnits="userSpaceOnUse">
      <stop stop-color="#fff44f" offset=".137" id="stop54-3"/>
      <stop stop-color="#ff980e" offset=".48" id="stop55-6"/>
      <stop stop-color="#ff5634" offset=".592" id="stop56-0"/>
      <stop stop-color="#ff3647" offset=".655" id="stop57-6"/>
      <stop stop-color="#e31587" offset=".904" id="stop58-2"/>
    </radialGradient>
    <radialGradient id="radialGradient1132-6" cx="-7918.8999" cy="-8503.9004" r="80.685997" gradientTransform="matrix(0.21189,0,0,0.21189,1689.8,1807.2)" gradientUnits="userSpaceOnUse">
      <stop stop-color="#fff44f" offset=".094" id="stop59-1"/>
      <stop stop-color="#ffe141" offset=".231" id="stop60-8"/>
      <stop stop-color="#ffaf1e" offset=".509" id="stop61-7"/>
      <stop stop-color="#ff980e" offset=".626" id="stop62-9"/>
    </radialGradient>
    <radialGradient id="radialGradient1126-3" cx="-7916" cy="-8536" r="118.08" gradientTransform="matrix(0.80086569,0,0,0.80086569,6386.9453,6830.5485)" gradientUnits="userSpaceOnUse">
      <stop stop-color="#fff44f" offset=".113" id="stop41-7"/>
      <stop stop-color="#ff980e" offset=".456" id="stop42-5"/>
      <stop stop-color="#ff5634" offset=".622" id="stop43-9"/>
      <stop stop-color="#ff3647" offset=".716" id="stop44-2"/>
      <stop stop-color="#e31587" offset=".904" id="stop45-2"/>
    </radialGradient>
    <radialGradient id="radialGradient1124-8" cx="-7937.7002" cy="-8518.4004" r="27.676001" gradientTransform="matrix(0.80085987,0,0,0.80085987,6386.7715,6830.4967)" gradientUnits="userSpaceOnUse">
      <stop stop-color="#ffe226" offset="0" id="stop35-9"/>
      <stop stop-color="#ffdb27" offset=".121" id="stop36-7"/>
      <stop stop-color="#ffc82a" offset=".295" id="stop37-3"/>
      <stop stop-color="#ffa930" offset=".502" id="stop38-6"/>
      <stop stop-color="#ff7e37" offset=".732" id="stop39-1"/>
      <stop stop-color="#ff7139" offset=".792" id="stop40-2"/>
    </radialGradient>
    <radialGradient id="radialGradient1122-9" cx="-7927" cy="-8533.5" r="58.534" gradientTransform="matrix(0.80085987,0,0,0.80085987,6386.7715,6830.4967)" gradientUnits="userSpaceOnUse">
      <stop stop-color="#fff44f" offset=".132" id="stop31-3"/>
      <stop stop-color="#ffdc3e" offset=".252" id="stop32-1"/>
      <stop stop-color="#ff9d12" offset=".506" id="stop33-9"/>
      <stop stop-color="#ff980e" offset=".526" id="stop34-4"/>
    </radialGradient>
    <radialGradient id="radialGradient1118-0" cx="-7907.2002" cy="-8515.0996" r="80.796997" gradientTransform="matrix(0.80086,0,0,0.80086,6386.9,6830.5)" gradientUnits="userSpaceOnUse">
      <stop stop-color="#ffbd4f" offset=".129" id="stop17-6"/>
      <stop stop-color="#ffac31" offset=".186" id="stop18-3"/>
      <stop stop-color="#ff9d17" offset=".247" id="stop19-2"/>
      <stop stop-color="#ff980e" offset=".283" id="stop20-0"/>
      <stop stop-color="#ff563b" offset=".403" id="stop21-6"/>
      <stop stop-color="#ff3750" offset=".467" id="stop22-1"/>
      <stop stop-color="#f5156c" offset=".71" id="stop23-5"/>
      <stop stop-color="#eb0878" offset=".782" id="stop24-5"/>
      <stop stop-color="#e50080" offset=".86" id="stop25-4"/>
    </radialGradient>
    <radialGradient id="radialGradient1120-7" cx="-7936.7002" cy="-8482.0996" r="80.796997" gradientTransform="matrix(0.80086,0,0,0.80086,6386.9,6830.5)" gradientUnits="userSpaceOnUse">
      <stop stop-color="#960e18" offset=".3" id="stop26-6"/>
      <stop stop-color="#b11927" stop-opacity=".74" offset=".351" id="stop27-5"/>
      <stop stop-color="#db293d" stop-opacity=".343" offset=".435" id="stop28-6"/>
      <stop stop-color="#f5334b" stop-opacity=".094" offset=".497" id="stop29-9"/>
      <stop stop-color="#ff3750" stop-opacity="0" offset=".53" id="stop30-3"/>
    </radialGradient>
    <filter id="filter861-5" x="-0.027" y="-0.027" width="1.054" height="1.054" color-interpolation-filters="sRGB">
      <feGaussianBlur stdDeviation="0.16371" id="feGaussianBlur1-2"/>
    </filter>
    <filter inkscape:collect="always" style="color-interpolation-filters:sRGB" id="filter1057" x="-0.026999999" width="1.054" y="-0.026999999" height="1.054">
      <feGaussianBlur inkscape:collect="always" stdDeviation="0.61875" id="feGaussianBlur1059"/>
    </filter>
    <radialGradient id="radialGradient1118-0-8" cx="-7907.2002" cy="-8515.0996" r="80.796997" gradientTransform="matrix(0.80086,0,0,0.80086,6386.9,6830.5)" gradientUnits="userSpaceOnUse">
      <stop stop-color="#ffbd4f" offset=".129" id="stop17-6-5"/>
      <stop stop-color="#ffac31" offset=".186" id="stop18-3-8"/>
      <stop stop-color="#ff9d17" offset=".247" id="stop19-2-2"/>
      <stop stop-color="#ff980e" offset=".283" id="stop20-0-6"/>
      <stop stop-color="#ff563b" offset=".403" id="stop21-6-0"/>
      <stop stop-color="#ff3750" offset=".467" id="stop22-1-6"/>
      <stop stop-color="#f5156c" offset=".71" id="stop23-5-6"/>
      <stop stop-color="#eb0878" offset=".782" id="stop24-5-4"/>
      <stop stop-color="#e50080" offset=".86" id="stop25-4-6"/>
    </radialGradient>
  <radialGradient id="gradient_ds_br" cx="0" cy="0" r="1" gradientUnits="userSpaceOnUse" gradientTransform="matrix(13.998399,0.00477622,-0.00477841,14.004799,47.5016,48.4952)">
      <stop offset="0.65" id="stop1"/>
      <stop offset="1" stop-opacity="0" id="stop2"/>
    </radialGradient><linearGradient id="gradient_ds_b" x1="30.448999" y1="48.5" x2="30.492201" y2="62.500301" gradientUnits="userSpaceOnUse">
      <stop offset="0.653846" id="stop3"/>
      <stop offset="1" stop-opacity="0" id="stop4"/>
    </linearGradient><radialGradient id="gradient_ds_bl" cx="0" cy="0" r="1" gradientUnits="userSpaceOnUse" gradientTransform="matrix(0,14,-14,0,16.5,48.5)">
      <stop offset="0.65" id="stop5"/>
      <stop offset="1" stop-opacity="0" id="stop6"/>
    </radialGradient><linearGradient id="gradient_ds_r" x1="47.5" y1="33.5" x2="61.5" y2="33.5009" gradientUnits="userSpaceOnUse">
      <stop offset="0.649038" id="stop7"/>
      <stop offset="1" stop-opacity="0" id="stop8"/>
    </linearGradient><linearGradient id="gradient_ds_l" x1="16.5" y1="33.894699" x2="2.5" y2="33.894699" gradientUnits="userSpaceOnUse">
      <stop offset="0.649038" id="stop9"/>
      <stop offset="1" stop-opacity="0" id="stop10"/>
    </linearGradient><radialGradient id="gradient_ds_tr" cx="0" cy="0" r="1" gradientTransform="matrix(0.00843236,-14,14.0084,0.0189842,47.4916,18.5)" gradientUnits="userSpaceOnUse">
      <stop offset="0.65" id="stop11"/>
      <stop offset="1" stop-opacity="0" id="stop12"/>
    </radialGradient><linearGradient id="gradient_ds_t" x1="29.98" y1="18.5" x2="29.9158" y2="4.4998598" gradientUnits="userSpaceOnUse">
      <stop offset="0.649038" id="stop13"/>
      <stop offset="1" stop-opacity="0" id="stop14"/>
    </linearGradient><radialGradient id="gradient_ds_tl" cx="0" cy="0" r="1" gradientTransform="matrix(-0.00843236,-14,-14.0084,0.0189842,16.5084,18.5)" gradientUnits="userSpaceOnUse">
      <stop offset="0.65" id="stop15"/>
      <stop offset="1" stop-opacity="0" id="stop16"/>
    </radialGradient></defs>
  <metadata id="metadata69">
    <rdf:RDF>
      <cc:Work rdf:about="">
        <dc:format>image/svg+xml</dc:format>
        <dc:type rdf:resource="http://purl.org/dc/dcmitype/StillImage"/>
      </cc:Work>
    </rdf:RDF>
  </metadata>
  
  <g id="ds" opacity="0.25">
    <path id="ds-br" d="m 47.5,48.5 h 14 v 14 h -14 z" fill="url(#gradient_ds_br)" style="fill:url(#gradient_ds_br)"/>
    <path id="ds-b" d="m 16.5,48.5 h 31 v 14 h -31 z" fill="url(#gradient_ds_b)" style="fill:url(#gradient_ds_b)"/>
    <path id="ds-bl" d="m 2.5,48.5 h 14 v 14 h -14 z" fill="url(#gradient_ds_bl)" style="fill:url(#gradient_ds_bl)"/>
    <path id="ds-r" d="m 47.5,18.5 h 14 v 30 h -14 z" fill="url(#gradient_ds_r)" style="fill:url(#gradient_ds_r)"/>
    <path id="ds-l" d="m 2.5,18.5 h 14 v 30 h -14 z" fill="url(#gradient_ds_l)" style="fill:url(#gradient_ds_l)"/>
    <path id="ds-tr" d="m 47.5,4.5 h 14 v 14 h -14 z" fill="url(#gradient_ds_tr)" style="fill:url(#gradient_ds_tr)"/>
    <path id="ds-t" d="m 16.5,4.5 h 31 v 14 h -31 z" fill="url(#gradient_ds_t)" style="fill:url(#gradient_ds_t)"/>
    <path id="ds-tl" d="m 16.5,4.5 h -14 v 14 h 14 z" fill="url(#gradient_ds_tl)" style="fill:url(#gradient_ds_tl)"/>
  </g><rect y="4.5" x="4.5" height="55" width="55" id="bg" style="fill:url(#linearGradient1353);fill-opacity:1;stroke-width:2.00001;stroke-linecap:round;font-variation-settings:normal;opacity:1;vector-effect:none;stroke-linejoin:miter;stroke-miterlimit:4;stroke-dasharray:none;stroke-dashoffset:0;stroke-opacity:1;-inkscape-stroke:none;stop-color:#000000;stop-opacity:1" rx="10"/>
  <g id="art">
    <rect x="4.4996161" y="4.4996161" width="55.000767" height="55.000767" rx="13.001831" ry="12.999942" fill="url(#linearGradient1353)" stroke-linecap="round" stroke-width="2.00001" id="rect73" style="display:inline;fill:url(#linearGradient1353)"/>
    <g stroke-width="0.80086" id="g75" transform="scale(3.779602)">
      <path id="path73" style="display:inline;fill:url(#linearGradient1116)" d="M 40.331745 4.4999681 C 33.568645 9.2013681 31.213055 16.907664 30.984155 20.882664 A 15.527 15.527 0 0 0 22.441247 24.17561 A 9.2799 9.2799 0 0 0 21.640471 23.568192 A 14.39 14.39 0 0 1 21.552581 15.982308 A 22.989 22.989 0 0 0 14.081931 21.757658 L 14.06826 21.757658 C 12.83776 20.202058 12.923548 15.059929 12.994048 13.986229 A 5.5484 5.5484 0 0 0 11.956946 14.535053 A 22.605 22.605 0 0 0 8.9237648 17.134644 A 27.105 27.105 0 0 0 6.0214416 20.615088 A 26.215 26.215 0 0 0 4.4999681 23.048665 L 4.4999681 41.357128 L 4.4999681 49.499649 C 4.4999681 55.039609 8.9599363 59.499578 14.499897 59.499578 L 28.741984 59.499578 L 31.825946 59.499578 L 49.499649 59.499578 C 55.039609 59.499578 59.499578 55.039609 59.499578 49.499649 L 59.499578 41.638376 L 59.499578 22.658042 C 58.062478 20.262742 56.131663 18.097209 54.530863 17.269409 A 32.248 32.248 0 0 1 57.673419 26.691217 L 57.679278 26.741998 C 54.169778 17.992498 48.218967 14.465155 43.359067 6.783155 C 43.113207 6.394735 42.868024 6.0065434 42.628604 5.5956634 C 42.491674 5.3611734 42.380146 5.149623 42.284856 4.955043 A 5.6484 5.6484 0 0 1 42.075873 4.4999681 L 40.331745 4.4999681 z M 57.683184 26.71856 L 57.689044 26.753716 L 57.683184 26.74981 L 57.683184 26.71856 z M 24.982245 49.421524 C 25.127201 49.491103 25.262982 49.565902 25.411929 49.63246 L 25.435366 49.648085 C 25.284796 49.575995 25.132805 49.501417 24.982245 49.423477 L 24.982245 49.421524 z " transform="scale(0.26458)"/>
      <path id="path74" style="fill:url(#radialGradient1118-0)" d="M 54.530863 17.269409 A 32.248 32.248 0 0 1 57.673419 26.691217 L 57.673419 26.720513 L 57.679278 26.753716 A 28.111 28.111 0 0 1 58.269118 43.402036 L 36.495835 59.499578 L 49.499649 59.499578 C 55.039609 59.499578 59.499578 55.039609 59.499578 49.499649 L 59.499578 42.493839 L 59.499578 22.658042 C 58.062478 20.262742 56.131663 18.097209 54.530863 17.269409 z M 4.4999681 40.767289 L 4.4999681 49.499649 C 4.4999681 55.039609 8.9599363 59.499578 14.499897 59.499578 L 28.040817 59.499578 L 4.4999681 40.767289 z " transform="scale(0.26458)"/>
      <path id="path75" style="fill:url(#radialGradient1120-7)" d="M 54.530863 17.269409 A 32.248 32.248 0 0 1 57.673419 26.691217 L 57.673419 26.720513 L 57.679278 26.753716 A 28.111 28.111 0 0 1 58.751536 41.320019 L 29.71268 58.968331 L 4.4999681 41.470409 L 4.4999681 49.499649 C 4.4999681 55.039609 8.9599363 59.499578 14.499897 59.499578 L 49.499649 59.499578 C 55.039609 59.499578 59.499578 55.039609 59.499578 49.499649 L 59.499578 40.864944 L 59.499578 22.658042 C 58.062478 20.262742 56.131663 18.097209 54.530863 17.269409 z " transform="scale(0.26458)"/>
    </g>
    <path d="m 45.672711,28.756346 c 0.06731,0.04728 0.129716,0.09455 0.193024,0.141829 A 16.898223,16.898223 0 0 0 42.982541,25.138114 C 33.335107,15.489168 40.454176,4.2165051 41.654691,3.6438954 l 0.0121,-0.018913 C 33.870223,8.1899856 31.22488,16.640798 30.981473,20.868283 c 0.361999,-0.0265 0.720808,-0.05522 1.090793,-0.05522 a 15.665316,15.665316 0 0 1 13.60052,7.942455 z" fill="url(#radialGradient1122)" stroke-width="0.80086" id="path76" style="display:inline;fill:url(#radialGradient1122-9)"/>
    <path d="m 20.993421,23.120581 c 0.251476,0.159983 0.45892,0.299541 0.640681,0.425243 a 14.390079,14.390079 0 0 1 -0.0873,-7.586795 22.989051,22.989051 0 0 0 -7.471517,5.774476 c 0.151369,-0.0038 4.653824,-0.08472 6.917806,1.387152 z" fill="url(#radialGradient1124)" stroke-width="0.80086" id="path77" style="display:inline;fill:url(#radialGradient1124-8)"/>
    <path d="M 13.004092,13.969099 A 5.5484394,5.5484394 0 0 0 11.968885,14.517933 22.60516,22.60516 0 0 0 8.9356634,17.117552 27.105192,27.105192 0 0 0 6.0215428,20.590276 26.215186,26.215186 0 0 0 4.500032,23.021893 V 46.50106 c 0,0.01515 0.0019,0.02978 0.00195,0.04492 3.0685218,5.56834 7.877856,10.110072 13.617097,12.955092 h 27.340194 c 5.423738,-2.91772 9.195465,-7.396552 11.25808,-11.822083 A 28.1112,28.1112 0 0 0 57.69392,26.75884 c 1.082007,7.175751 -2.569119,14.1241 -8.275459,18.826134 l -0.01953,0.04102 c -11.139079,9.071364 -21.797155,5.472439 -23.95517,4.003928 -0.150321,-0.07208 -0.300612,-0.146681 -0.451174,-0.224611 -6.494446,-3.104222 -9.178465,-9.021164 -8.603561,-14.0961 A 7.9711566,7.9711566 0 0 1 9.0373742,30.684178 11.707083,11.707083 0 0 1 20.447455,30.225195 15.45711,15.45711 0 0 0 32.101538,30.684178 c -0.01203,-0.252272 -5.413239,-2.402517 -7.519553,-4.476632 -1.125208,-1.109208 -1.659512,-1.643712 -2.132816,-2.044914 a 9.2799659,9.2799659 0 0 0 -0.800785,-0.607425 c -0.184202,-0.125571 -0.391563,-0.262252 -0.640635,-0.425783 -2.264116,-1.47201 -6.767248,-1.39071 -6.916049,-1.38671 H 14.07803 C 12.847921,20.184503 12.933322,15.043267 13.003822,13.969259 Z M 57.69341,26.75819 c -0.002,-0.01302 -0.0019,-0.02604 -0.0039,-0.03906 l -0.0059,-0.05078 c -0.0049,-0.0075 0,0.0066 0,0.0293 v 0.03125 a 28.1112,28.1112 0 0 1 0.0098,0.0293 z" fill="url(#radialGradient1126)" stroke-width="0.800866" id="path78" style="display:inline;fill:url(#radialGradient1126-3)"/>
    <g stroke-width="0.21189" id="g82" transform="scale(3.779602)" style="display:inline">
      <path d="m 11.372,6.6577 a 4.4709,4.4709 0 0 1 0.76282,0.9959 c 0.04513,0.034122 0.0873,0.068045 0.12312,0.10086 1.8619,1.7163 0.88635,4.1425 0.81368,4.3153 1.5125,-1.2461 2.4791,-3.089 2.1887,-4.9912 -0.92895,-2.3161 -2.5035,-3.2494 -3.7895,-5.2819 C 11.40577,1.69389 11.34071,1.59092 11.27737,1.48221 11.24114,1.420169 11.2121,1.36418 11.18689,1.3127 a 1.4944,1.4944 0 0 1 -0.12247,-0.32526 0.021189,0.021189 0 0 0 -0.01864,-0.021214 0.029241,0.029241 0 0 0 -0.01547,0 c -0.0011,0 -0.0028,0.002002 -0.004,0.002002 -0.0013,4.2028e-4 -0.004,0.002002 -0.0059,0.003002 -0.31764,0.15065 -2.2012,3.133 0.35173,5.6859 z" fill="url(#radialGradient1128)" id="path79" style="display:inline;fill:url(#radialGradient1128-3)"/>
      <path d="M 12.257,7.7484 C 12.22118,7.715579 12.17903,7.681656 12.13389,7.64753 12.11715,7.635021 12.10062,7.622513 12.08283,7.610005 a 2.8352,2.8352 0 0 0 -1.9801,-0.48079 c 2.9539,1.4769 2.1614,6.5627 -1.9323,6.3709 a 3.652,3.652 0 0 1 -1.0686,-0.20616 q -0.12057,-0.04513 -0.24114,-0.09877 c -0.046405,-0.02121 -0.092809,-0.04233 -0.13858,-0.06614 l 0.00572,0.004 c 0.57085,0.38967 3.3903,1.3417 6.3382,-1.0595 l 0.0048,-0.0106 c 0.07353,-0.17163 1.0491,-2.5984 -0.81368,-4.3142 z" fill="url(#radialGradient1130)" id="path80" style="fill:url(#radialGradient1130-9)"/>
      <path d="m 4.7892,10.44 c 0,0 0.37908,-1.4127 2.7144,-1.4127 0.25237,0 0.97471,-0.70454 0.98764,-0.90881 a 4.0896,4.0896 0 0 1 -3.0834,-0.1212 3.0975,3.0975 0 0 0 -3.0193,0.1212 2.109,2.109 0 0 0 1.9454,1.2237 c -0.15214,1.3427 0.55771,2.9082 2.276,3.7294 0.038352,0.01841 0.074375,0.03833 0.11378,0.05593 -1.0029,-0.51807 -1.831,-1.4978 -1.9343,-2.6874 z" fill="url(#radialGradient1132)" id="path81" style="fill:url(#radialGradient1132-6)"/>
      <path d="m 8.486,5.5076 c -0.097477,0 -0.19311,0.00781 -0.28889,0.014417 a 4.108,4.108 0 0 0 -2.2598,0.87094 c 0.12523,0.10594 0.26619,0.24746 0.56389,0.54093 0.55728,0.54901 1.9869,1.1182 1.9901,1.185 -0.014395,0.20474 -0.73567,0.90832 -0.98789,0.90832 -2.3353,0 -2.7143,1.4129 -2.7143,1.4129 0.10341,1.1896 0.93208,2.1692 1.9341,2.6876 0.045767,0.02371 0.092434,0.0452 0.13884,0.06622 0.080374,0.03562 0.16045,0.06856 0.24083,0.09879 a 3.652,3.652 0 0 0 1.069,0.20612 c 4.0932,0.19197 4.8857,-4.8944 1.932,-6.3705 a 2.8352,2.8352 0 0 1 1.98,0.48059 4.1447,4.1447 0 0 0 -3.598,-2.1012 z" fill="url(#linearGradient1134)" id="path82" style="fill:url(#linearGradient1134)"/>
    </g>
    <path id="path83" style="display:inline;fill:url(#linearGradient1136)" d="M 40.332031 4.5 C 33.568883 9.2014334 31.213277 16.907784 30.984375 20.882812 C 31.346378 20.856313 31.704276 20.828125 32.074219 20.828125 A 15.665111 15.665111 0 0 1 45.675781 28.771484 A 10.716076 10.716076 0 0 0 38.191406 26.953125 C 49.355485 32.535165 46.359229 51.758208 30.886719 51.033203 A 13.803098 13.803098 0 0 1 26.847656 50.257812 C 26.543843 50.144092 26.241312 50.019927 25.9375 49.884766 C 25.762109 49.804596 25.587075 49.724797 25.414062 49.634766 L 25.435547 49.648438 C 25.428247 49.644937 25.421342 49.640239 25.414062 49.636719 C 21.623636 47.677706 18.492165 43.972294 18.101562 39.476562 C 18.101562 39.476562 19.534366 34.138672 28.361328 34.138672 C 29.315175 34.138672 32.04495 31.47513 32.09375 30.703125 L 32.09375 30.701172 L 32.09375 30.699219 L 32.091797 30.697266 C 32.091007 30.695374 32.090379 30.692564 32.089844 30.691406 C 31.914327 30.385276 26.647623 28.26827 24.574219 26.226562 C 23.449011 25.117355 22.91471 24.582844 22.441406 24.181641 A 9.2799659 9.2799659 0 0 0 21.640625 23.574219 A 14.390102 14.390102 0 0 1 21.552734 15.988281 A 22.989163 22.989163 0 0 0 14.082031 21.761719 L 14.066406 21.761719 C 12.836197 20.201107 12.923641 15.060036 12.994141 13.986328 A 5.5484394 5.5484394 0 0 0 11.957031 14.537109 A 22.60516 22.60516 0 0 0 8.9238281 17.136719 A 27.105192 27.105192 0 0 0 6.0214844 20.617188 A 26.215186 26.215186 0 0 0 4.5 23.048828 L 4.5 46.5 C 4.5 53.702051 10.298802 59.5 17.501953 59.5 L 43.873047 59.5 L 49.5 59.5 C 55.04 59.5 59.5 55.04 59.5 49.5 L 59.5 43.007812 L 59.5 22.658203 C 58.06289 20.262886 56.132062 18.097336 54.53125 17.269531 A 32.248229 32.248229 0 0 1 57.673828 26.691406 L 57.679688 26.742188 C 54.170164 17.992625 48.221262 14.465258 43.361328 6.7832031 C 43.115466 6.3947803 42.87028 6.006586 42.630859 5.5957031 C 42.493928 5.3612115 42.3824 5.1496595 42.287109 4.9550781 A 5.6484401 5.6484401 0 0 1 42.078125 4.5 L 40.332031 4.5 z "/>
  </g>
</svg>
