<svg width="64" height="64" viewBox="0 0 64 64" fill="none" xmlns="http://www.w3.org/2000/svg">
<g id="application-drawing-template" clip-path="url(#clip0_1146_26143)">
<g id="Blank-Template" clip-path="url(#clip1_1146_26143)">
<g id="Shadow 2" opacity="0.1">
<path id="Vector" d="M11.9792 59.0256H51.9788V65.0239H11.9792V59.0256Z" fill="url(#paint0_linear_1146_26143)"/>
<path id="Vector_2" d="M12 1H52V5H12V1Z" fill="url(#paint1_linear_1146_26143)"/>
<path id="Vector_3" d="M5.97723 1.02393H11.9755V5.02274H5.97723V1.02393Z" fill="url(#paint2_radial_1146_26143)"/>
<path id="Vector_4" d="M57.9982 1.02393H52V5.02274H57.9982V1.02393Z" fill="url(#paint3_radial_1146_26143)"/>
<path id="Vector_5" d="M52 5H58V59H52V5Z" fill="url(#paint4_linear_1146_26143)"/>
<path id="Vector_6" d="M5.97723 5.02271H11.9755V59.0219H5.97723V5.02271Z" fill="url(#paint5_linear_1146_26143)"/>
<path id="Vector_7" d="M51.9788 59.0256H57.977V65.0239H51.9788V59.0256Z" fill="url(#paint6_radial_1146_26143)"/>
<path id="Vector_8" d="M5.97723 59.0256H11.9755V65.0239H5.97723V59.0256Z" fill="url(#paint7_radial_1146_26143)"/>
</g>
<g id="Shadow 1" opacity="0.2">
<path id="Vector_9" d="M11.9792 59.0256H51.9788V65.0239H11.9792V59.0256Z" fill="url(#paint8_linear_1146_26143)"/>
<path id="Vector_10" d="M12 1H52V5H12V1Z" fill="url(#paint9_linear_1146_26143)"/>
<path id="Vector_11" d="M11.9755 1.02393H5.97723V5.02274H11.9755V1.02393Z" fill="url(#paint10_radial_1146_26143)"/>
<path id="Vector_12" d="M52 1H57.9982V4.99882H52V1Z" fill="url(#paint11_radial_1146_26143)"/>
<path id="Vector_13" d="M52 5H58V59H52V5Z" fill="url(#paint12_linear_1146_26143)"/>
<path id="Vector_14" d="M5.97723 5.02271H11.9755V59.0219H5.97723V5.02271Z" fill="url(#paint13_linear_1146_26143)"/>
<path id="Vector_15" d="M51.9788 59.0256H57.977V65.0239H51.9788V59.0256Z" fill="url(#paint14_radial_1146_26143)"/>
<path id="Vector_16" d="M5.97723 59.0256H11.9755V65.0239H5.97723V59.0256Z" fill="url(#paint15_radial_1146_26143)"/>
</g>
<path id="Paper" d="M52 1H12C10.3431 1 9 2.34315 9 4V58C9 59.6569 10.3431 61 12 61H52C53.6569 61 55 59.6569 55 58V4C55 2.34315 53.6569 1 52 1Z" fill="url(#paint16_linear_1146_26143)"/>
</g>
<g id="Logo Frame">
<g id="Logo">
<g id="Vector_17">
<path fill-rule="evenodd" clip-rule="evenodd" d="M21.8172 44.4889C27.0683 47.8557 38.5303 43.3513 29.001 31.2971C19.5602 19.3544 38.3829 11.5193 43.9714 25.3307" fill="#7067E3" fill-opacity="0.15"/>
<path d="M21.8172 44.4889C27.0683 47.8557 38.5303 43.3513 29.001 31.2971C19.5602 19.3544 38.3829 11.5193 43.9714 25.3307" stroke="#7067E3" stroke-width="1.00159"/>
</g>
<path id="Vector_18" d="M20.556 20.4429L38.6646 43.0826" stroke="#007EAE" stroke-width="1.00159"/>
<path id="Vector_19" d="M39.7784 43.1972C39.7784 43.5145 39.6524 43.8189 39.4282 44.0433C39.2039 44.2677 38.8998 44.3937 38.5827 44.3937C38.2656 44.3937 37.9615 44.2677 37.7372 44.0433C37.513 43.8189 37.387 43.5145 37.387 43.1972C37.387 42.8798 37.513 42.5755 37.7372 42.3511C37.9615 42.1267 38.2656 42.0006 38.5827 42.0006C38.8998 42.0006 39.2039 42.1267 39.4282 42.3511C39.6524 42.5755 39.7784 42.8798 39.7784 43.1972ZM21.827 20.4656C21.827 20.6227 21.7961 20.7783 21.736 20.9235C21.6759 21.0687 21.5878 21.2006 21.4768 21.3117C21.3658 21.4228 21.234 21.511 21.0889 21.5711C20.9438 21.6312 20.7884 21.6622 20.6313 21.6622C20.4743 21.6622 20.3188 21.6312 20.1738 21.5711C20.0287 21.511 19.8969 21.4228 19.7859 21.3117C19.6748 21.2006 19.5868 21.0687 19.5267 20.9235C19.4666 20.7783 19.4357 20.6227 19.4357 20.4656C19.4357 20.1483 19.5616 19.8439 19.7859 19.6195C20.0101 19.3951 20.3142 19.269 20.6313 19.269C20.9484 19.269 21.2526 19.3951 21.4768 19.6195C21.701 19.8439 21.827 20.1483 21.827 20.4656Z" fill="#E6E6E6" stroke="#007EAE" stroke-width="1.00159"/>
<path id="Vector_20" d="M21.9658 43.0284V45.5001H19.5V43.0284H21.9658ZM30.6299 30.0167V32.4884H28.168V30.0167H30.6299ZM44.5 23.9454V26.4171H42.0342V23.9454H44.5Z" fill="white" stroke="#6155F5"/>
</g>
</g>
</g>
<defs>
<linearGradient id="paint0_linear_1146_26143" x1="29.9777" y1="59.0256" x2="29.9777" y2="65.0239" gradientUnits="userSpaceOnUse">
<stop/>
<stop offset="1" stop-opacity="0"/>
</linearGradient>
<linearGradient id="paint1_linear_1146_26143" x1="29.3936" y1="5" x2="29.3936" y2="1" gradientUnits="userSpaceOnUse">
<stop/>
<stop offset="1" stop-opacity="0"/>
</linearGradient>
<radialGradient id="paint2_radial_1146_26143" cx="0" cy="0" r="1" gradientUnits="userSpaceOnUse" gradientTransform="translate(11.9794 5.02566) rotate(-90) scale(4.00124 5.00177)">
<stop/>
<stop offset="1" stop-opacity="0"/>
</radialGradient>
<radialGradient id="paint3_radial_1146_26143" cx="0" cy="0" r="1" gradientUnits="userSpaceOnUse" gradientTransform="translate(51.9961 5.02566) rotate(-90) scale(4.00124 5.00177)">
<stop/>
<stop offset="1" stop-opacity="0"/>
</radialGradient>
<linearGradient id="paint4_linear_1146_26143" x1="52" y1="31.9972" x2="57.0019" y2="31.9972" gradientUnits="userSpaceOnUse">
<stop/>
<stop offset="1" stop-opacity="0"/>
</linearGradient>
<linearGradient id="paint5_linear_1146_26143" x1="11.9792" y1="33.022" x2="6.97883" y2="33.022" gradientUnits="userSpaceOnUse">
<stop/>
<stop offset="1" stop-opacity="0"/>
</linearGradient>
<radialGradient id="paint6_radial_1146_26143" cx="0" cy="0" r="1" gradientUnits="userSpaceOnUse" gradientTransform="translate(51.9743 59.0219) rotate(90) scale(6.00201 5.00177)">
<stop/>
<stop offset="1" stop-opacity="0"/>
</radialGradient>
<radialGradient id="paint7_radial_1146_26143" cx="0" cy="0" r="1" gradientUnits="userSpaceOnUse" gradientTransform="translate(11.9763 59.0219) rotate(180) scale(5.00177 6.00201)">
<stop/>
<stop offset="1" stop-opacity="0"/>
</radialGradient>
<linearGradient id="paint8_linear_1146_26143" x1="29.9777" y1="59.0256" x2="29.9777" y2="64.0223" gradientUnits="userSpaceOnUse">
<stop/>
<stop offset="1" stop-opacity="0"/>
</linearGradient>
<linearGradient id="paint9_linear_1146_26143" x1="29.3936" y1="5" x2="29.3936" y2="2.00189" gradientUnits="userSpaceOnUse">
<stop/>
<stop offset="1" stop-opacity="0"/>
</linearGradient>
<radialGradient id="paint10_radial_1146_26143" cx="0" cy="0" r="1" gradientUnits="userSpaceOnUse" gradientTransform="translate(11.9791 5.02274) rotate(-90) scale(3.001 4.00124)">
<stop/>
<stop offset="1" stop-opacity="0"/>
</radialGradient>
<radialGradient id="paint11_radial_1146_26143" cx="0" cy="0" r="1" gradientUnits="userSpaceOnUse" gradientTransform="translate(51.9964 4.99882) rotate(-90) scale(3.001 4.00124)">
<stop/>
<stop offset="1" stop-opacity="0"/>
</radialGradient>
<linearGradient id="paint12_linear_1146_26143" x1="52" y1="31.9972" x2="56" y2="31.9972" gradientUnits="userSpaceOnUse">
<stop/>
<stop offset="1" stop-opacity="0"/>
</linearGradient>
<linearGradient id="paint13_linear_1146_26143" x1="11.9792" y1="33.022" x2="7.98042" y2="33.022" gradientUnits="userSpaceOnUse">
<stop/>
<stop offset="1" stop-opacity="0"/>
</linearGradient>
<radialGradient id="paint14_radial_1146_26143" cx="0" cy="0" r="1" gradientUnits="userSpaceOnUse" gradientTransform="translate(51.9794 59.0236) rotate(90) scale(5.00177 4.00124)">
<stop/>
<stop offset="1" stop-opacity="0"/>
</radialGradient>
<radialGradient id="paint15_radial_1146_26143" cx="0" cy="0" r="1" gradientUnits="userSpaceOnUse" gradientTransform="translate(11.9784 59.0174) rotate(180) scale(4.00124 5.00177)">
<stop/>
<stop offset="1" stop-opacity="0"/>
</radialGradient>
<linearGradient id="paint16_linear_1146_26143" x1="45.9964" y1="8.99974" x2="9.99848" y2="59.9977" gradientUnits="userSpaceOnUse">
<stop stop-color="#FCFCFC"/>
<stop offset="1" stop-color="#EDEDED"/>
</linearGradient>
<clipPath id="clip0_1146_26143">
<rect width="64" height="64" fill="white"/>
</clipPath>
<clipPath id="clip1_1146_26143">
<rect width="64" height="64" fill="white"/>
</clipPath>
</defs>
</svg>
