<svg width="64" height="64" viewBox="0 0 64 64" fill="none" xmlns="http://www.w3.org/2000/svg">
<g id="image-x-compressed-xcf" clip-path="url(#clip0_1287_7029)">
<g id="Blank-File" clip-path="url(#clip1_1287_7029)">
<g id="Shadow 2" opacity="0.1">
<path id="Vector" d="M11.9791 59.0257H51.9786V65.024H11.9791V59.0257Z" fill="url(#paint0_linear_1287_7029)"/>
<path id="Vector_2" d="M34.979 1.02399V8.02399L41.979 1.02399H34.979Z" fill="url(#paint1_radial_1287_7029)"/>
<path id="Vector_3" d="M41.979 1.02399L34.979 8.02399L48.979 23.024L57.979 14.024V4.56899L54.434 1.02399H41.979Z" fill="url(#paint2_linear_1287_7029)"/>
<path id="Vector_4" d="M57.979 14.024L48.979 23.024H57.979V14.024Z" fill="url(#paint3_radial_1287_7029)"/>
<path id="Vector_5" d="M11.9791 1.02399H34.978V5.0228H11.9791V1.02399Z" fill="url(#paint4_linear_1287_7029)"/>
<path id="Vector_6" d="M5.97717 1.02399H11.9754V5.0228H5.97717V1.02399Z" fill="url(#paint5_radial_1287_7029)"/>
<path id="Vector_7" d="M51.9786 23.025H57.9769V59.0257H51.9786V23.025Z" fill="url(#paint6_linear_1287_7029)"/>
<path id="Vector_8" d="M5.97717 5.0228H11.9754V59.0219H5.97717V5.0228Z" fill="url(#paint7_linear_1287_7029)"/>
<path id="Vector_9" d="M51.9786 59.0257H57.9769V65.024H51.9786V59.0257Z" fill="url(#paint8_radial_1287_7029)"/>
<path id="Vector_10" d="M5.97717 59.0257H11.9754V65.024H5.97717V59.0257Z" fill="url(#paint9_radial_1287_7029)"/>
</g>
<g id="Shadow 1" opacity="0.2">
<path id="Vector_11" d="M11.9791 59.0257H51.9786V65.024H11.9791V59.0257Z" fill="url(#paint10_linear_1287_7029)"/>
<path id="Vector_12" d="M34.9791 1.02399V8.02403L41.9792 1.02399H34.9791Z" fill="url(#paint11_radial_1287_7029)"/>
<path id="Vector_13" d="M41.9792 1.02399L34.9791 8.02403L48.9792 23.0241L57.9793 14.0241V4.56901L54.4343 1.02399H41.9792Z" fill="url(#paint12_linear_1287_7029)"/>
<path id="Vector_14" d="M57.9793 14.0241L48.9792 23.0241H57.9793V14.0241Z" fill="url(#paint13_radial_1287_7029)"/>
<path id="Vector_15" d="M11.9791 1.02399H34.978V5.0228H11.9791V1.02399Z" fill="url(#paint14_linear_1287_7029)"/>
<path id="Vector_16" d="M11.9754 1.02399H5.97717V5.0228H11.9754V1.02399Z" fill="url(#paint15_radial_1287_7029)"/>
<path id="Vector_17" d="M51.9786 23.025H57.9769V59.0257H51.9786V23.025Z" fill="url(#paint16_linear_1287_7029)"/>
<path id="Vector_18" d="M5.97717 5.0228H11.9754V59.0219H5.97717V5.0228Z" fill="url(#paint17_linear_1287_7029)"/>
<path id="Vector_19" d="M51.9786 59.0257H57.9769V65.024H51.9786V59.0257Z" fill="url(#paint18_radial_1287_7029)"/>
<path id="Vector_20" d="M5.97717 59.0257H11.9754V65.024H5.97717V59.0257Z" fill="url(#paint19_radial_1287_7029)"/>
</g>
<path id="Paper" d="M10.9777 2.02557C10.4477 2.02657 9.93973 2.23754 9.56499 2.61229C9.19024 2.98704 8.97927 3.49501 8.97827 4.02498V60.0235C8.97827 61.131 9.87026 62.0229 10.9815 62.0229H52.9766C54.0878 62.0229 54.9798 61.131 54.9798 60.0198V21.0256C54.9798 20.024 54.3675 18.4177 52.9766 17.023L39.9748 4.0212C39.508 3.40374 38.905 2.90239 38.2127 2.55624C37.5204 2.21009 36.7575 2.02848 35.9835 2.02557H10.9777Z" fill="url(#paint20_linear_1287_7029)"/>
</g>
<path id="name" d="M25.2681 50.1818L26.7681 52.6023H26.8136L28.3136 50.1818H29.1431L27.3136 53.0909L29.1431 56H28.3136L26.8136 53.625H26.7681L25.2681 56H24.4386L26.3136 53.0909L24.4386 50.1818H25.2681ZM34.6481 52H33.9435C33.9019 51.7973 33.829 51.6193 33.7248 51.4659C33.6225 51.3125 33.4975 51.1837 33.3498 51.0795C33.204 50.9735 33.042 50.8939 32.864 50.8409C32.686 50.7879 32.5004 50.7614 32.3072 50.7614C31.9549 50.7614 31.6358 50.8504 31.3498 51.0284C31.0657 51.2064 30.8394 51.4688 30.6708 51.8153C30.5041 52.1619 30.4208 52.5871 30.4208 53.0909C30.4208 53.5947 30.5041 54.0199 30.6708 54.3665C30.8394 54.7131 31.0657 54.9754 31.3498 55.1534C31.6358 55.3314 31.9549 55.4205 32.3072 55.4205C32.5004 55.4205 32.686 55.3939 32.864 55.3409C33.042 55.2879 33.204 55.2093 33.3498 55.1051C33.4975 54.9991 33.6225 54.8693 33.7248 54.7159C33.829 54.5606 33.9019 54.3826 33.9435 54.1818H34.6481C34.5951 54.4792 34.4985 54.7453 34.3583 54.9801C34.2182 55.215 34.0439 55.4148 33.8356 55.5795C33.6272 55.7424 33.3933 55.8665 33.1339 55.9517C32.8763 56.0369 32.6007 56.0795 32.3072 56.0795C31.811 56.0795 31.3697 55.9583 30.9833 55.7159C30.5969 55.4735 30.293 55.1288 30.0714 54.6818C29.8498 54.2348 29.739 53.7045 29.739 53.0909C29.739 52.4773 29.8498 51.947 30.0714 51.5C30.293 51.053 30.5969 50.7083 30.9833 50.4659C31.3697 50.2235 31.811 50.1023 32.3072 50.1023C32.6007 50.1023 32.8763 50.1449 33.1339 50.2301C33.3933 50.3153 33.6272 50.4403 33.8356 50.6051C34.0439 50.768 34.2182 50.9669 34.3583 51.2017C34.4985 51.4347 34.5951 51.7008 34.6481 52ZM35.7866 56V50.1818H39.2752V50.8068H36.4911V52.7727H39.0138V53.3977H36.4911V56H35.7866Z" fill="#737373"/>
<g id="Logo Frame">
<path id="Vector_21" d="M44.2095 22.0097C44.1607 21.9939 44.1077 21.9975 44.0615 22.0197C43.9415 22.0787 43.8345 22.2697 43.7315 22.5817C43.4855 23.3167 41.9145 27.8887 33.8935 29.1217C34.5464 29.4564 35.0945 29.9646 35.4773 30.5906C35.8601 31.2165 36.063 31.9359 36.0635 32.6697C36.0629 33.7274 35.6425 34.7416 34.8945 35.4894C34.1465 36.2372 33.1322 36.6574 32.0745 36.6577C31.3084 36.6566 30.5588 36.435 29.9153 36.0193C29.2718 35.6037 28.7615 35.0115 28.4455 34.3137C28.1592 34.7595 27.7657 35.1264 27.301 35.3809C26.8363 35.6355 26.3153 35.7695 25.7855 35.7707C25.0087 35.7701 24.2592 35.4838 23.6798 34.9663C23.1004 34.4489 22.7316 33.7365 22.6435 32.9647C22.5361 33.1862 22.4036 33.3946 22.2485 33.5857C22.1875 33.4897 22.1495 33.3817 22.0825 33.2887C21.7 32.7512 21.2302 32.2817 20.6925 31.8997C20.1095 31.4947 19.5025 31.2277 18.9045 31.1397C18.2145 31.0397 17.5475 31.1887 17.0185 31.5697C16.4885 31.9517 16.1785 32.5367 16.0575 33.2227C15.9525 33.8167 15.9885 34.4607 16.1895 35.1407C16.3645 35.7317 16.6455 36.3277 17.0515 36.8907C17.4658 37.4733 17.9809 37.9773 18.5725 38.3787C19.2025 38.7927 19.8715 39.0347 20.5255 39.0717C20.7285 39.0837 20.9355 39.0337 21.1215 39.0057C25.3625 42.3617 33.7815 45.4947 39.3615 41.9137C39.4825 41.9547 39.6035 42.0047 39.7255 42.0467C39.7285 42.1037 39.7105 42.1617 39.7255 42.2127L39.9905 42.1127C40.0375 42.1277 40.0735 42.1657 40.1215 42.1797C40.1315 42.1827 40.1445 42.1767 40.1545 42.1797L40.2545 42.2767L42.7705 43.1697C42.6665 44.0417 43.0995 45.0327 44.1935 45.4507C45.4915 45.9563 46.7622 46.5294 48.0005 47.1677C47.0605 43.9817 46.7175 41.4247 44.2605 41.6497C43.8035 41.6917 43.4585 41.8797 43.2015 42.1457L40.9825 40.7247H40.8825L40.8505 40.6907C43.8365 37.7567 45.5825 32.2427 44.5235 22.6477C44.4775 22.2877 44.3535 22.0597 44.2095 22.0097ZM22.9435 24.9277L22.8115 30.8767C22.8115 30.8767 22.8625 31.0597 22.9045 31.3067C23.1548 30.7519 23.5597 30.2809 24.0705 29.95C24.5814 29.6191 25.1768 29.4423 25.7855 29.4407C26.3264 29.4419 26.858 29.5814 27.3297 29.8461C27.8014 30.1107 28.1976 30.4917 28.4805 30.9527C28.7782 30.3318 29.2311 29.7982 29.7955 29.4037C25.0035 29.1507 22.9435 24.9277 22.9435 24.9277ZM26.2755 30.8337C26.0516 30.8341 25.829 30.8678 25.6155 30.9337C25.8059 31.0195 25.9673 31.157 26.0805 31.33C26.1938 31.503 26.2541 31.7041 26.2545 31.9097C26.2545 32.0511 26.2261 32.1911 26.1709 32.3217C26.1157 32.4523 26.0348 32.5709 25.9328 32.6709C25.8308 32.7708 25.7098 32.85 25.5766 32.9041C25.4434 32.9581 25.3006 32.9858 25.1565 32.9857C24.9469 32.9857 24.7418 32.9268 24.5653 32.8161C24.3888 32.7053 24.2483 32.5473 24.1605 32.3607C24.0937 32.5701 24.0597 32.7883 24.0595 33.0077C24.0595 33.5843 24.2929 34.1372 24.7085 34.5449C25.1241 34.9526 25.6877 35.1817 26.2755 35.1817C26.863 35.1814 27.4264 34.9523 27.8418 34.5446C28.2571 34.1369 28.4905 33.5841 28.4905 33.0077C28.4905 32.4313 28.2571 31.8785 27.8418 31.4708C27.4264 31.0631 26.863 30.8339 26.2755 30.8337ZM32.9435 31.2557C32.7196 31.2561 32.497 31.2898 32.2835 31.3557C32.4739 31.4415 32.6353 31.579 32.7485 31.752C32.8618 31.925 32.9221 32.1261 32.9225 32.3317C32.9225 32.4731 32.8941 32.6131 32.8389 32.7437C32.7837 32.8743 32.7028 32.993 32.6008 33.0929C32.4988 33.1928 32.3778 33.272 32.2446 33.3261C32.1114 33.3801 31.9686 33.4078 31.8245 33.4077C31.6153 33.4073 31.4105 33.3483 31.2344 33.2375C31.0583 33.1268 30.9181 32.969 30.8305 32.7827C30.7637 32.9921 30.7297 33.2103 30.7295 33.4297C30.7295 34.0059 30.9627 34.5586 31.3778 34.9662C31.793 35.3739 32.3561 35.6032 32.9435 35.6037C33.2346 35.6038 33.5228 35.5477 33.7918 35.4385C34.0608 35.3293 34.3052 35.1692 34.5111 34.9673C34.7169 34.7654 34.8803 34.5257 34.9917 34.2619C35.1031 33.998 35.1605 33.7153 35.1605 33.4297C35.1605 33.1441 35.1031 32.8613 34.9917 32.5975C34.8803 32.3337 34.7169 32.094 34.5111 31.8921C34.3052 31.6902 34.0608 31.5301 33.7918 31.4209C33.5228 31.3117 33.2346 31.2556 32.9435 31.2557ZM18.5185 32.5637C18.6698 32.5637 18.8197 32.597 18.9595 32.6617C19.0993 32.7265 19.2264 32.8214 19.3334 32.941C19.4403 33.0606 19.5252 33.2026 19.583 33.3589C19.6409 33.5151 19.6706 33.6826 19.6705 33.8517C19.6705 34.193 19.5491 34.5204 19.333 34.7617C19.117 35.0031 18.824 35.1387 18.5185 35.1387C18.3671 35.1388 18.2172 35.1056 18.0773 35.041C17.9374 34.9764 17.8103 34.8816 17.7032 34.7621C17.5961 34.6426 17.5112 34.5007 17.4532 34.3445C17.3953 34.1882 17.3655 34.0208 17.3655 33.8517C17.3653 33.6825 17.3951 33.5149 17.453 33.3586C17.5109 33.2023 17.5958 33.0602 17.7029 32.9406C17.81 32.821 17.9372 32.7261 18.0771 32.6614C18.217 32.5968 18.367 32.5635 18.5185 32.5637Z" fill="#67614F"/>
</g>
<g id="Blank-File-Top">
<g id="Curl">
<g id="Shadow">
<path id="Vector_22" opacity="0.05" d="M39.9784 17.0229H23.9794V33.022H39.9784V17.0229Z" fill="url(#paint21_radial_1287_7029)"/>
<path id="Vector_23" opacity="0.05" d="M23.9791 2.02386V11.0239H39.9792V4.02388C38.6412 2.33087 36.9792 2.02386 35.9792 2.02386H23.9791Z" fill="url(#paint22_radial_1287_7029)"/>
<path id="Vector_24" opacity="0.05" d="M39.9784 11.0247H23.9794V17.0229H39.9784V11.0247Z" fill="url(#paint23_linear_1287_7029)"/>
<path id="Vector_25" opacity="0.2" d="M39.9785 11.0247H28.9799V17.0229H39.9785V11.0247Z" fill="url(#paint24_linear_1287_7029)"/>
<path id="Vector_26" opacity="0.2" d="M39.9785 17.0229H28.9799V28.0216H39.9785V17.0229Z" fill="url(#paint25_radial_1287_7029)"/>
<path id="Vector_27" opacity="0.2" d="M28.9791 2.02386V11.0239H39.9792V4.02388C39.5247 3.43826 38.9523 2.9545 38.2992 2.60387L35.9792 2.02386H28.9791Z" fill="url(#paint26_radial_1287_7029)"/>
<path id="Vector_28" opacity="0.05" d="M39.9785 17.0229V33.0219H45.9767V17.0229H39.9785Z" fill="url(#paint27_linear_1287_7029)"/>
<path id="Vector_29" opacity="0.2" d="M39.9785 17.0267V28.0253H45.9767V17.0267H39.9785Z" fill="url(#paint28_linear_1287_7029)"/>
<path id="Vector_30" opacity="0.2" d="M45.9792 17.024V28.024H54.9793V21.024L54.5393 19.264C54.1607 18.4282 53.6319 17.6689 52.9793 17.024H45.9792Z" fill="url(#paint29_radial_1287_7029)"/>
<path id="Vector_31" opacity="0.05" d="M45.979 17.0239V33.0239H54.979V21.0239C54.979 20.8919 54.953 20.7239 54.939 20.5709C54.791 19.5779 54.176 18.2209 52.979 17.0239H45.979Z" fill="url(#paint30_radial_1287_7029)"/>
</g>
<path id="Paper_2" d="M37.9791 2.44135V17.0193C37.9791 18.1267 38.8711 19.0187 39.9823 19.0187H54.4431C54.0748 18.2763 53.5871 17.5996 52.9993 17.0155L39.9974 4.01366C39.4687 3.33478 38.7824 2.79509 37.998 2.44135H37.9791Z" fill="url(#paint31_linear_1287_7029)"/>
</g>
</g>
</g>
<defs>
<linearGradient id="paint0_linear_1287_7029" x1="29.9776" y1="59.0257" x2="29.9776" y2="65.024" gradientUnits="userSpaceOnUse">
<stop/>
<stop offset="1" stop-opacity="0"/>
</linearGradient>
<radialGradient id="paint1_radial_1287_7029" cx="0" cy="0" r="1" gradientUnits="userSpaceOnUse" gradientTransform="translate(34.978 5.02439) scale(6.32269 4.00052)">
<stop/>
<stop offset="1" stop-opacity="0"/>
</radialGradient>
<linearGradient id="paint2_linear_1287_7029" x1="42.979" y1="13.024" x2="46.727" y2="9.27599" gradientUnits="userSpaceOnUse">
<stop/>
<stop offset="1" stop-opacity="0"/>
</linearGradient>
<radialGradient id="paint3_radial_1287_7029" cx="0" cy="0" r="1" gradientUnits="userSpaceOnUse" gradientTransform="translate(51.9788 23.0242) scale(4.99995 6.94012)">
<stop/>
<stop offset="1" stop-opacity="0"/>
</radialGradient>
<linearGradient id="paint4_linear_1287_7029" x1="21.9799" y1="5.0228" x2="21.9799" y2="1.02399" gradientUnits="userSpaceOnUse">
<stop/>
<stop offset="1" stop-opacity="0"/>
</linearGradient>
<radialGradient id="paint5_radial_1287_7029" cx="0" cy="0" r="1" gradientUnits="userSpaceOnUse" gradientTransform="translate(11.9793 5.02572) rotate(-90) scale(4.00124 5.00177)">
<stop/>
<stop offset="1" stop-opacity="0"/>
</radialGradient>
<linearGradient id="paint6_linear_1287_7029" x1="51.9786" y1="41.0235" x2="56.979" y2="41.0235" gradientUnits="userSpaceOnUse">
<stop/>
<stop offset="1" stop-opacity="0"/>
</linearGradient>
<linearGradient id="paint7_linear_1287_7029" x1="11.9792" y1="33.0221" x2="6.97877" y2="33.0221" gradientUnits="userSpaceOnUse">
<stop/>
<stop offset="1" stop-opacity="0"/>
</linearGradient>
<radialGradient id="paint8_radial_1287_7029" cx="0" cy="0" r="1" gradientUnits="userSpaceOnUse" gradientTransform="translate(51.9742 59.0219) rotate(90) scale(6.00201 5.00177)">
<stop/>
<stop offset="1" stop-opacity="0"/>
</radialGradient>
<radialGradient id="paint9_radial_1287_7029" cx="0" cy="0" r="1" gradientUnits="userSpaceOnUse" gradientTransform="translate(11.9763 59.0219) rotate(180) scale(5.00177 6.00201)">
<stop/>
<stop offset="1" stop-opacity="0"/>
</radialGradient>
<linearGradient id="paint10_linear_1287_7029" x1="29.9776" y1="59.0257" x2="29.9776" y2="64.0224" gradientUnits="userSpaceOnUse">
<stop/>
<stop offset="1" stop-opacity="0"/>
</linearGradient>
<radialGradient id="paint11_radial_1287_7029" cx="0" cy="0" r="1" gradientUnits="userSpaceOnUse" gradientTransform="translate(34.9786 5.02329) scale(6.00771 3.00039)">
<stop/>
<stop offset="1" stop-opacity="0"/>
</radialGradient>
<linearGradient id="paint12_linear_1287_7029" x1="42.9792" y1="13.0241" x2="45.9832" y2="10.02" gradientUnits="userSpaceOnUse">
<stop/>
<stop offset="1" stop-opacity="0"/>
</linearGradient>
<radialGradient id="paint13_radial_1287_7029" cx="0" cy="0" r="1" gradientUnits="userSpaceOnUse" gradientTransform="translate(51.9799 23.0235) scale(4 6.38885)">
<stop/>
<stop offset="1" stop-opacity="0"/>
</radialGradient>
<linearGradient id="paint14_linear_1287_7029" x1="21.9799" y1="5.0228" x2="21.9799" y2="2.02558" gradientUnits="userSpaceOnUse">
<stop/>
<stop offset="1" stop-opacity="0"/>
</linearGradient>
<radialGradient id="paint15_radial_1287_7029" cx="0" cy="0" r="1" gradientUnits="userSpaceOnUse" gradientTransform="translate(11.979 5.0228) rotate(-90) scale(3.001 4.00124)">
<stop/>
<stop offset="1" stop-opacity="0"/>
</radialGradient>
<linearGradient id="paint16_linear_1287_7029" x1="51.9786" y1="41.0235" x2="55.9775" y2="41.0235" gradientUnits="userSpaceOnUse">
<stop/>
<stop offset="1" stop-opacity="0"/>
</linearGradient>
<linearGradient id="paint17_linear_1287_7029" x1="11.9792" y1="33.0221" x2="7.98036" y2="33.0221" gradientUnits="userSpaceOnUse">
<stop/>
<stop offset="1" stop-opacity="0"/>
</linearGradient>
<radialGradient id="paint18_radial_1287_7029" cx="0" cy="0" r="1" gradientUnits="userSpaceOnUse" gradientTransform="translate(51.9793 59.0237) rotate(90) scale(5.00177 4.00124)">
<stop/>
<stop offset="1" stop-opacity="0"/>
</radialGradient>
<radialGradient id="paint19_radial_1287_7029" cx="0" cy="0" r="1" gradientUnits="userSpaceOnUse" gradientTransform="translate(11.9783 59.0175) rotate(180) scale(4.00124 5.00177)">
<stop/>
<stop offset="1" stop-opacity="0"/>
</radialGradient>
<linearGradient id="paint20_linear_1287_7029" x1="45.9759" y1="10.025" x2="9.98047" y2="61.0233" gradientUnits="userSpaceOnUse">
<stop stop-color="#EDEDED"/>
<stop offset="1" stop-color="#FCFCFC"/>
</linearGradient>
<radialGradient id="paint21_radial_1287_7029" cx="0" cy="0" r="1" gradientUnits="userSpaceOnUse" gradientTransform="translate(39.9784 17.0267) rotate(180) scale(16.0028 16.0028)">
<stop/>
<stop offset="1" stop-opacity="0"/>
</radialGradient>
<radialGradient id="paint22_radial_1287_7029" cx="0" cy="0" r="1" gradientUnits="userSpaceOnUse" gradientTransform="translate(39.9792 11.0239) rotate(-90) scale(12.0001 16.0001)">
<stop/>
<stop offset="1" stop-opacity="0"/>
</radialGradient>
<linearGradient id="paint23_linear_1287_7029" x1="39.9784" y1="14.3571" x2="23.9794" y2="14.3571" gradientUnits="userSpaceOnUse">
<stop/>
<stop offset="1" stop-opacity="0"/>
</linearGradient>
<linearGradient id="paint24_linear_1287_7029" x1="39.9785" y1="14.0245" x2="32.9787" y2="14.0245" gradientUnits="userSpaceOnUse">
<stop/>
<stop offset="1" stop-opacity="0"/>
</linearGradient>
<radialGradient id="paint25_radial_1287_7029" cx="0" cy="0" r="1" gradientUnits="userSpaceOnUse" gradientTransform="translate(39.978 17.0242) rotate(180) scale(7.00124 7.02916)">
<stop/>
<stop offset="1" stop-opacity="0"/>
</radialGradient>
<radialGradient id="paint26_radial_1287_7029" cx="0" cy="0" r="1" gradientUnits="userSpaceOnUse" gradientTransform="translate(39.9792 11.0229) rotate(-90) scale(10.4625 7.03869)">
<stop/>
<stop offset="1" stop-opacity="0"/>
</radialGradient>
<linearGradient id="paint27_linear_1287_7029" x1="43.3109" y1="17.0229" x2="43.3109" y2="33.0219" gradientUnits="userSpaceOnUse">
<stop/>
<stop offset="1" stop-opacity="0"/>
</linearGradient>
<linearGradient id="paint28_linear_1287_7029" x1="42.9783" y1="17.0229" x2="42.9783" y2="24.0492" gradientUnits="userSpaceOnUse">
<stop/>
<stop offset="1" stop-opacity="0"/>
</linearGradient>
<radialGradient id="paint29_radial_1287_7029" cx="0" cy="0" r="1" gradientUnits="userSpaceOnUse" gradientTransform="translate(45.9792 17.0241) scale(11.4689 7.02797)">
<stop/>
<stop offset="1" stop-opacity="0"/>
</radialGradient>
<radialGradient id="paint30_radial_1287_7029" cx="0" cy="0" r="1" gradientUnits="userSpaceOnUse" gradientTransform="translate(45.979 17.0239) scale(12 16)">
<stop/>
<stop offset="1" stop-opacity="0"/>
</radialGradient>
<linearGradient id="paint31_linear_1287_7029" x1="39.9793" y1="17.0225" x2="45.9793" y2="11.0225" gradientUnits="userSpaceOnUse">
<stop stop-color="#FEFEFE"/>
<stop offset="1" stop-color="#E9E9E9"/>
</linearGradient>
<clipPath id="clip0_1287_7029">
<rect width="64" height="64" fill="white"/>
</clipPath>
<clipPath id="clip1_1287_7029">
<rect width="64" height="64" fill="white"/>
</clipPath>
</defs>
</svg>
