<svg width="64" height="64" viewBox="0 0 64 64" fill="none" xmlns="http://www.w3.org/2000/svg">
<rect x="27" y="26" width="10" height="32" fill="url(#paint0_linear_1130_1351)"/>
<rect x="27" y="54" width="10" height="3" fill="url(#paint1_linear_1130_1351)"/>
<path d="M22 57.5C22 57.2239 22.2239 57 22.5 57H41.5C41.7761 57 42 57.2239 42 57.5V57.5C42 57.7761 41.7761 58 41.5 58H22.5C22.2239 58 22 57.7761 22 57.5V57.5Z" fill="#878787"/>
<path d="M41.9824 57.375C41.9928 57.4151 42 57.4567 42 57.5C42 57.7761 41.7761 58 41.5 58H22.5C22.2239 58 22 57.7761 22 57.5C22 57.4568 22.0063 57.415 22.0166 57.375C22.0722 57.5905 22.2671 57.75 22.5 57.75H41.5C41.7328 57.75 41.9268 57.5904 41.9824 57.375Z" fill="#0A0A0A"/>
<path d="M2 8C2 6.89543 2.89543 6 4 6H60C61.1046 6 62 6.89543 62 8V44C62 45.1046 61.1046 46 60 46H4C2.89543 46 2 45.1046 2 44V8Z" fill="#0A0A0A"/>
<path d="M3 8C3 7.44772 3.44772 7 4 7H60C60.5523 7 61 7.44772 61 8V44C61 44.5523 60.5523 45 60 45H4C3.44771 45 3 44.5523 3 44V8Z" fill="url(#paint2_linear_1130_1351)"/>
<defs>
<linearGradient id="paint0_linear_1130_1351" x1="32" y1="58" x2="32" y2="45" gradientUnits="userSpaceOnUse">
<stop stop-color="#858585"/>
<stop offset="0.346" stop-color="#919191"/>
<stop offset="1" stop-color="#757575"/>
</linearGradient>
<linearGradient id="paint1_linear_1130_1351" x1="32" y1="54" x2="32" y2="57" gradientUnits="userSpaceOnUse">
<stop stop-opacity="0"/>
<stop offset="1" stop-opacity="0.3"/>
</linearGradient>
<linearGradient id="paint2_linear_1130_1351" x1="3" y1="7" x2="32" y2="45" gradientUnits="userSpaceOnUse">
<stop stop-color="#00D3F2"/>
<stop offset="1" stop-color="#2B7FFF"/>
</linearGradient>
</defs>
</svg>
