<svg width="64" height="64" viewBox="0 0 64 64" fill="none" xmlns="http://www.w3.org/2000/svg">
<g clip-path="url(#clip0_1128_17)">
<g opacity="0.15" filter="url(#filter0_f_1128_17)">
<path d="M17.018 7.36266C13.2487 7.36266 10.7792 10.1707 10.214 13.5727L3.41259 54.5544C3.33543 55.0422 3.34292 55.5396 3.43473 56.0248C3.6848 59.4086 6.61141 62.0656 10.214 62.0656H53.7575C57.222 62.0656 60.0614 59.6079 60.4977 56.4077C60.6566 55.8216 60.6892 55.1978 60.5615 54.5544L52.3965 13.5727C51.7231 10.1877 49.3618 7.36266 45.5938 7.36266H17.018Z" fill="black"/>
</g>
<path d="M17.3613 4.0035H45.2948C48.98 4.0035 51.2877 6.89105 51.9463 10.3531L59.9252 52.3056C60.5838 55.7727 56.9589 58.6653 53.2736 58.6653H10.7148C7.02952 58.6653 3.51521 55.7928 4.06322 52.3056L10.7148 10.3531C11.2678 6.87593 13.6811 4.0035 17.3663 4.0035" fill="url(#paint0_linear_1128_17)"/>
<path opacity="0.1" d="M17.3563 4.0035C13.676 4.0035 11.2578 6.87593 10.7097 10.3531L4.05819 52.3056C3.50515 55.7878 7.02449 58.6653 10.7097 58.6653H53.2736C56.9589 58.6653 60.5838 55.7727 59.9252 52.3056L51.9463 10.3531C51.2877 6.89105 48.98 4.0035 45.2898 4.0035H17.3563ZM17.3563 4.30587H45.2948C47.0545 4.30587 48.4622 4.9761 49.5331 6.08475C50.604 7.19341 51.3279 8.73041 51.6447 10.4186L59.6285 52.361C59.9352 53.9837 59.2565 55.4653 58.0298 56.5639C56.7131 57.7168 55.0269 58.3571 53.2787 58.3679H10.7097C8.94505 58.3679 7.20549 57.6675 5.99383 56.5639C4.78217 55.4602 4.09841 53.9837 4.35482 52.356L11.0013 10.4035C11.5393 7.03215 13.8269 4.30587 17.3563 4.30587Z" fill="black"/>
<path d="M53.2736 46.6666H10.7097C7.03619 46.6666 4.05819 49.6515 4.05819 53.3336C4.05819 57.0157 7.03619 60.0007 10.7097 60.0007H53.2736C56.9472 60.0007 59.9252 57.0157 59.9252 53.3336C59.9252 49.6515 56.9472 46.6666 53.2736 46.6666Z" fill="url(#paint1_linear_1128_17)"/>
<path d="M39.3976 52H10.6024C9.71743 52 9 52.6716 9 53.5C9 54.3284 9.71743 55 10.6024 55H39.3976C40.2826 55 41 54.3284 41 53.5C41 52.6716 40.2826 52 39.3976 52Z" fill="url(#paint2_linear_1128_17)"/>
<g opacity="0.452">
<path d="M51.9463 55.9995C53.4152 55.9995 54.606 54.8059 54.606 53.3336C54.606 51.8614 53.4152 50.6678 51.9463 50.6678C50.4775 50.6678 49.2867 51.8614 49.2867 53.3336C49.2867 54.8059 50.4775 55.9995 51.9463 55.9995Z" fill="url(#paint3_linear_1128_17)"/>
<path d="M51.9459 50.5682C53.4702 50.5682 54.7057 51.8066 54.7057 53.3338C54.7056 54.861 53.4701 56.0995 51.9459 56.0995C50.4219 56.0992 49.1872 54.8609 49.1871 53.3338C49.1871 51.8067 50.4218 50.5685 51.9459 50.5682Z" stroke="white" stroke-opacity="0.5" stroke-width="0.2"/>
</g>
<path d="M51.9431 52.098C51.9168 52.0979 51.8909 52.1031 51.8668 52.1136C51.8427 52.124 51.8211 52.1393 51.8032 52.1585C51.7851 52.1762 51.7708 52.1974 51.7611 52.2208C51.7513 52.2442 51.7464 52.2693 51.7465 52.2946V53.2886C51.7465 53.3415 51.7654 53.3881 51.8032 53.4285C51.8637 53.4851 51.8902 53.4851 51.9431 53.4851C51.969 53.4858 51.9948 53.4811 52.0189 53.4714C52.043 53.4616 52.0647 53.447 52.0829 53.4285C52.1015 53.4103 52.1161 53.3885 52.1258 53.3644C52.1356 53.3404 52.1403 53.3146 52.1396 53.2886V52.2946C52.1398 52.2693 52.1348 52.2442 52.1251 52.2208C52.1153 52.1974 52.101 52.1762 52.0829 52.1585C52.0651 52.1393 52.0434 52.124 52.0194 52.1136C51.9953 52.1031 51.9693 52.0979 51.9431 52.098ZM51.3761 52.3928C51.3232 52.3928 51.2741 52.3928 51.2287 52.4306C51.0803 52.5389 50.9597 52.6811 50.8769 52.8454C50.7941 53.0097 50.7515 53.1914 50.7525 53.3755C50.7525 53.5368 50.7853 53.6918 50.8508 53.8404C50.9163 53.9891 51.0007 54.1151 51.104 54.2184C51.3279 54.4389 51.6288 54.5636 51.9431 54.5661C52.1018 54.5661 52.2543 54.5346 52.4004 54.4716C52.542 54.4135 52.6707 54.3278 52.779 54.2195C52.8874 54.1111 52.9732 53.9823 53.0316 53.8404C53.1374 53.5973 53.1576 53.3256 53.089 53.0695C53.0203 52.8134 52.8668 52.5882 52.6536 52.4306C52.6326 52.414 52.6082 52.4019 52.5821 52.3954C52.5561 52.3889 52.5289 52.388 52.5025 52.3928C52.4521 52.3954 52.4092 52.4206 52.3739 52.4684C52.3583 52.4886 52.3468 52.5117 52.3403 52.5364C52.3338 52.5611 52.3324 52.5868 52.3361 52.6121C52.3462 52.665 52.3727 52.7091 52.4155 52.7443C52.5707 52.8595 52.6783 53.0281 52.7179 53.2179C52.7574 53.4076 52.7261 53.6054 52.6299 53.7734C52.5337 53.9415 52.3794 54.0682 52.1963 54.1293C52.0132 54.1905 51.8141 54.1818 51.6369 54.105C51.5416 54.0674 51.4549 54.0108 51.3822 53.9387C51.3094 53.8666 51.2521 53.7804 51.2136 53.6855C51.1452 53.5228 51.1329 53.3419 51.1788 53.1715C51.2246 53.001 51.326 52.8507 51.4668 52.7443C51.4879 52.7287 51.5055 52.7089 51.5186 52.6862C51.5316 52.6634 51.5397 52.6381 51.5424 52.6121C51.5467 52.5862 51.5455 52.5598 51.539 52.5344C51.5325 52.509 51.5208 52.4853 51.5046 52.4647C51.4895 52.444 51.4702 52.4266 51.4482 52.4136C51.4261 52.4007 51.4016 52.3923 51.3761 52.3891" fill="white"/>
<path opacity="0.25" d="M10.6674 47C9.79127 46.998 8.92337 47.1716 8.11355 47.5108C7.30372 47.8501 6.56792 48.3483 5.9484 48.9769C5.32888 49.6054 4.83784 50.352 4.50348 51.1736C4.16912 51.9953 3.99802 52.8759 4.00002 53.7648L4.0101 54C4.03658 52.3209 4.71332 50.7198 5.89403 49.5429C7.07473 48.366 8.66451 47.7079 10.3197 47.7108H53.6803C55.3355 47.7079 56.9253 48.366 58.106 49.5429C59.2867 50.7198 59.9634 52.3209 59.9899 54L60 53.7648C60.002 52.8759 59.8309 51.9953 59.4965 51.1736C59.1622 50.352 58.6711 49.6054 58.0516 48.9769C57.4321 48.3483 56.6963 47.8501 55.8865 47.5108C55.0766 47.1716 54.2087 46.998 53.3326 47H10.6674Z" fill="black"/>
<path d="M10.7096 46.9166H53.274C56.8087 46.9168 59.6753 49.7891 59.6754 53.3336C59.6754 56.878 56.8088 59.7504 53.274 59.7506H10.7096C7.17471 59.7505 4.30819 56.8781 4.30819 53.3336C4.30822 49.7891 7.17473 46.9167 10.7096 46.9166Z" stroke="#898989" stroke-width="0.5"/>
</g>
<defs>
<filter id="filter0_f_1128_17" x="0.559541" y="4.56239" width="62.8808" height="60.3035" filterUnits="userSpaceOnUse" color-interpolation-filters="sRGB">
<feFlood flood-opacity="0" result="BackgroundImageFix"/>
<feBlend mode="normal" in="SourceGraphic" in2="BackgroundImageFix" result="shape"/>
<feGaussianBlur stdDeviation="1.40013" result="effect1_foregroundBlur_1128_17"/>
</filter>
<linearGradient id="paint0_linear_1128_17" x1="34.6517" y1="43.9972" x2="34.6517" y2="6.66458" gradientUnits="userSpaceOnUse">
<stop stop-color="#B6B9BF"/>
<stop offset="1" stop-color="#DDDFE2"/>
</linearGradient>
<linearGradient id="paint1_linear_1128_17" x1="4.05689" y1="53.3304" x2="59.9257" y2="53.3304" gradientUnits="userSpaceOnUse">
<stop stop-color="#27272A"/>
<stop offset="0.25" stop-color="#3F3F46"/>
<stop offset="0.752" stop-color="#3F3F46"/>
<stop offset="1" stop-color="#27272A"/>
</linearGradient>
<linearGradient id="paint2_linear_1128_17" x1="24.9818" y1="54.9792" x2="24.9818" y2="51.9739" gradientUnits="userSpaceOnUse">
<stop stop-color="#00A63E"/>
<stop offset="1" stop-color="#00C950"/>
</linearGradient>
<linearGradient id="paint3_linear_1128_17" x1="52.0768" y1="55.6719" x2="52.0768" y2="50.3204" gradientUnits="userSpaceOnUse">
<stop stop-color="#040404"/>
<stop offset="1" stop-color="#121212" stop-opacity="0.908"/>
</linearGradient>
<clipPath id="clip0_1128_17">
<rect width="64" height="64" fill="white"/>
</clipPath>
</defs>
</svg>
