<svg width="64" height="64" viewBox="0 0 64 64" fill="none" xmlns="http://www.w3.org/2000/svg">
<g opacity="0.15" filter="url(#filter0_f_1130_436)">
<path d="M20.2937 16.9883C17.2569 16.9883 15.2674 19.2507 14.812 21.9915L9.33244 55.0085C9.27028 55.4015 9.27631 55.8023 9.35027 56.1932C9.55174 58.9194 11.9096 61.06 14.812 61.06H49.8931C52.6843 61.06 54.9718 59.0799 55.3233 56.5017C55.4514 56.0295 55.4776 55.5269 55.3748 55.0085L48.7965 21.9915C48.254 19.2643 46.3516 16.9883 43.3159 16.9883H20.2937Z" fill="black"/>
</g>
<g opacity="0.15" filter="url(#filter1_f_1130_436)">
<path d="M20.0038 5.70632C16.967 5.70632 14.9775 7.96867 14.5221 10.7095L9.04252 43.7265C8.98036 44.1195 8.98639 44.5203 9.06036 44.9112C9.26183 47.6374 11.6197 49.778 14.5221 49.778H49.6032C52.3944 49.778 54.6819 47.7979 55.0334 45.2197C55.1614 44.7475 55.1877 44.2449 55.0848 43.7265L48.5066 10.7095C47.9641 7.98231 46.0617 5.70632 43.026 5.70632H20.0038Z" fill="black"/>
</g>
<path d="M20.5703 14.282H43.075C46.044 14.282 47.9032 16.6084 48.4339 19.3976L54.8621 53.1968C55.3927 55.9901 52.4722 58.3205 49.5032 58.3205H15.2154C12.2464 58.3205 9.41509 56.0063 9.85659 53.1968L15.2154 19.3976C15.661 16.5962 17.6053 14.282 20.5743 14.282" fill="url(#paint0_linear_1130_436)"/>
<path opacity="0.1" d="M20.5662 14.282C17.6012 14.282 15.6529 16.5962 15.2114 19.3976L9.85251 53.1968C9.40695 56.0023 12.2423 58.3205 15.2114 58.3205H49.5032C52.4722 58.3205 55.3926 55.9901 54.862 53.1968L48.4338 19.3976C47.9032 16.6084 46.044 14.282 43.0709 14.282H20.5662ZM20.5662 14.5256H43.075C44.4927 14.5256 45.6268 15.0656 46.4896 15.9588C47.3523 16.852 47.9356 18.0902 48.1908 19.4503L54.623 53.2415C54.8701 54.5488 54.3233 55.7424 53.335 56.6275C52.2742 57.5564 50.9157 58.0722 49.5072 58.081H15.2114C13.7896 58.081 12.3881 57.5166 11.412 56.6275C10.4358 55.7384 9.88491 54.5488 10.0915 53.2374L15.4463 19.4382C15.8797 16.722 17.7227 14.5256 20.5662 14.5256Z" fill="black"/>
<path d="M49.5032 48.6537H15.2114C12.2518 48.6537 9.85254 51.0585 9.85254 54.0251C9.85254 56.9916 12.2518 59.3964 15.2114 59.3964H49.5032C52.4628 59.3964 54.8621 56.9916 54.8621 54.0251C54.8621 51.0585 52.4628 48.6537 49.5032 48.6537Z" fill="url(#paint1_linear_1130_436)"/>
<path d="M38.3239 52.9506H15.1249C14.4119 52.9506 13.8339 53.4917 13.8339 54.1591C13.8339 54.8265 14.4119 55.3676 15.1249 55.3676H38.3239C39.0369 55.3676 39.6149 54.8265 39.6149 54.1591C39.6149 53.4917 39.0369 52.9506 38.3239 52.9506Z" fill="url(#paint2_linear_1130_436)"/>
<path opacity="0.25" d="M15.1773 48.9223C14.4714 48.9207 13.7722 49.0606 13.1198 49.3339C12.4673 49.6072 11.8745 50.0086 11.3754 50.515C10.8763 51.0214 10.4807 51.6229 10.2113 52.2848C9.94192 52.9468 9.80407 53.6562 9.80568 54.3724L9.8138 54.5619C9.83513 53.2091 10.3804 51.9192 11.3316 50.971C12.2828 50.0229 13.5637 49.4926 14.8971 49.495H49.8309C51.1643 49.4926 52.4452 50.0229 53.3964 50.971C54.3476 51.9192 54.8929 53.2091 54.9142 54.5619L54.9223 54.3724C54.9239 53.6562 54.7861 52.9468 54.5167 52.2848C54.2473 51.6229 53.8517 51.0214 53.3526 50.515C52.8535 50.0086 52.2607 49.6072 51.6082 49.3339C50.9558 49.0606 50.2566 48.9207 49.5507 48.9223H15.1773Z" fill="black"/>
<path d="M15.2109 48.9037H49.5029C52.3238 48.9037 54.6122 51.1959 54.6123 54.0248C54.6123 56.8538 52.3239 59.1469 49.5029 59.1469H15.2109C12.3902 59.1466 10.1025 56.8536 10.1025 54.0248C10.1027 51.1961 12.3902 48.904 15.2109 48.9037Z" stroke="#898989" stroke-width="0.5"/>
<path d="M20.2804 3H42.7851C45.7542 3 47.6134 5.32636 48.144 8.11556L54.5722 41.9148C55.1028 44.7081 52.1824 47.0385 49.2133 47.0385H14.9256C11.9566 47.0385 9.12523 44.7243 9.56674 41.9148L14.9256 8.11556C15.3712 5.31418 17.3154 3 20.2844 3" fill="url(#paint3_linear_1130_436)"/>
<path opacity="0.1" d="M20.2763 3C17.3113 3 15.363 5.31418 14.9215 8.11556L9.56265 41.9148C9.11709 44.7203 11.9525 47.0385 14.9215 47.0385H49.2133C52.1824 47.0385 55.1028 44.7081 54.5722 41.9148L48.144 8.11556C47.6133 5.32636 45.7542 3 42.7811 3H20.2763ZM20.2763 3.2436H42.7851C44.2028 3.2436 45.3369 3.78357 46.1997 4.67677C47.0625 5.56996 47.6458 6.80825 47.9009 8.16834L54.3332 41.9595C54.5803 43.2668 54.0334 44.4604 53.0451 45.3455C51.9844 46.2744 50.6259 46.7902 49.2174 46.799H14.9215C13.4998 46.799 12.0983 46.2346 11.1221 45.3455C10.1459 44.4564 9.59506 43.2668 9.80163 41.9554L15.1564 8.15617C15.5898 5.44004 17.4328 3.2436 20.2763 3.2436Z" fill="black"/>
<path d="M49.2133 37.3717H14.9215C11.9619 37.3717 9.56268 39.7766 9.56268 42.7431C9.56268 45.7096 11.9619 48.1144 14.9215 48.1144H49.2133C52.173 48.1144 54.5722 45.7096 54.5722 42.7431C54.5722 39.7766 52.173 37.3717 49.2133 37.3717Z" fill="url(#paint4_linear_1130_436)"/>
<path d="M38.034 41.6686H14.8351C14.1221 41.6686 13.5441 42.2097 13.5441 42.8771C13.5441 43.5445 14.1221 44.0856 14.8351 44.0856H38.034C38.747 44.0856 39.325 43.5445 39.325 42.8771C39.325 42.2097 38.747 41.6686 38.034 41.6686Z" fill="url(#paint5_linear_1130_436)"/>
<g opacity="0.452">
<path d="M48.144 44.8908C49.3274 44.8908 50.2867 43.9292 50.2867 42.7431C50.2867 41.5569 49.3274 40.5953 48.144 40.5953C46.9606 40.5953 46.0013 41.5569 46.0013 42.7431C46.0013 43.9292 46.9606 44.8908 48.144 44.8908Z" fill="url(#paint6_linear_1130_436)"/>
<path d="M48.1439 40.4957C49.3826 40.4957 50.3869 41.5018 50.387 42.7428C50.387 43.984 49.3827 44.9908 48.1439 44.9908C46.9051 44.9908 45.9017 43.9839 45.9017 42.7428C45.9018 41.5018 46.9052 40.4958 48.1439 40.4957Z" stroke="white" stroke-opacity="0.5" stroke-width="0.2"/>
</g>
<path d="M48.1414 41.7476C48.1203 41.7474 48.0993 41.7517 48.0799 41.7601C48.0605 41.7685 48.0431 41.7808 48.0287 41.7963C48.0142 41.8106 48.0026 41.8277 47.9948 41.8465C47.9869 41.8653 47.9829 41.8855 47.9831 41.9059V42.7068C47.9831 42.7494 47.9983 42.787 48.0287 42.8194C48.0775 42.8651 48.0988 42.8651 48.1414 42.8651C48.1623 42.8657 48.1831 42.8619 48.2025 42.854C48.2219 42.8462 48.2394 42.8344 48.2541 42.8194C48.269 42.8048 48.2808 42.7873 48.2886 42.7679C48.2965 42.7485 48.3003 42.7277 48.2997 42.7068V41.9059C48.2999 41.8855 48.2959 41.8653 48.288 41.8465C48.2802 41.8277 48.2686 41.8106 48.2541 41.7963C48.2397 41.7808 48.2223 41.7685 48.2029 41.7601C48.1835 41.7517 48.1625 41.7474 48.1414 41.7476ZM47.6846 41.9851C47.642 41.9851 47.6024 41.9851 47.5659 42.0156C47.4463 42.1028 47.3492 42.2173 47.2824 42.3497C47.2157 42.4821 47.1814 42.6285 47.1822 42.7768C47.1822 42.9067 47.2086 43.0316 47.2614 43.1514C47.3142 43.2711 47.3822 43.3726 47.4654 43.4559C47.6458 43.6335 47.8882 43.734 48.1414 43.736C48.2693 43.736 48.3921 43.7106 48.5098 43.6599C48.6239 43.6131 48.7276 43.544 48.8149 43.4567C48.9022 43.3694 48.9713 43.2657 49.0184 43.1514C49.1036 42.9555 49.1199 42.7366 49.0646 42.5303C49.0093 42.324 48.8856 42.1425 48.7139 42.0156C48.6969 42.0021 48.6773 41.9924 48.6563 41.9872C48.6352 41.9819 48.6134 41.9812 48.5921 41.9851C48.5515 41.9871 48.517 42.0074 48.4885 42.046C48.4759 42.0622 48.4667 42.0809 48.4615 42.1007C48.4562 42.1206 48.4551 42.1414 48.4581 42.1617C48.4662 42.2043 48.4875 42.2399 48.522 42.2683C48.6471 42.3611 48.7338 42.4969 48.7656 42.6498C48.7975 42.8027 48.7722 42.962 48.6948 43.0974C48.6173 43.2328 48.4929 43.3349 48.3454 43.3841C48.1979 43.4334 48.0375 43.4264 47.8947 43.3645C47.818 43.3342 47.7481 43.2886 47.6895 43.2305C47.6309 43.1724 47.5847 43.103 47.5537 43.0265C47.4986 42.8954 47.4887 42.7497 47.5256 42.6124C47.5626 42.4751 47.6442 42.354 47.7577 42.2683C47.7747 42.2557 47.7889 42.2398 47.7994 42.2214C47.8099 42.2031 47.8164 42.1827 47.8186 42.1617C47.8221 42.1409 47.8211 42.1196 47.8159 42.0991C47.8106 42.0787 47.8012 42.0596 47.7882 42.043C47.7759 42.0263 47.7605 42.0123 47.7427 42.0019C47.7249 41.9914 47.7051 41.9847 47.6846 41.9821" fill="white"/>
<path opacity="0.25" d="M14.8874 37.6403C14.1816 37.6387 13.4823 37.7786 12.8299 38.0519C12.1775 38.3252 11.5847 38.7266 11.0855 39.233C10.5864 39.7394 10.1908 40.3409 9.92144 41.0028C9.65206 41.6648 9.51422 42.3743 9.51582 43.0904L9.52394 43.2799C9.54528 41.9271 10.0905 40.6372 11.0417 39.689C11.993 38.7409 13.2738 38.2106 14.6073 38.213H49.541C50.8745 38.2106 52.1553 38.7409 53.1065 39.689C54.0578 40.6372 54.603 41.9271 54.6243 43.2799L54.6325 43.0904C54.6341 42.3743 54.4962 41.6648 54.2268 41.0028C53.9575 40.3409 53.5619 39.7394 53.0627 39.233C52.5636 38.7266 51.9708 38.3252 51.3184 38.0519C50.6659 37.7786 49.9667 37.6387 49.2609 37.6403H14.8874Z" fill="black"/>
<path d="M14.9211 37.6217H49.2131C52.034 37.6217 54.3223 39.9139 54.3224 42.7428C54.3224 45.5718 52.0341 47.8649 49.2131 47.8649H14.9211C12.1003 47.8646 9.81268 45.5716 9.81268 42.7428C9.81282 39.9141 12.1004 37.622 14.9211 37.6217Z" stroke="#898989" stroke-width="0.5"/>
<defs>
<filter id="filter0_f_1130_436" x="6.48965" y="14.188" width="51.7487" height="49.6722" filterUnits="userSpaceOnUse" color-interpolation-filters="sRGB">
<feFlood flood-opacity="0" result="BackgroundImageFix"/>
<feBlend mode="normal" in="SourceGraphic" in2="BackgroundImageFix" result="shape"/>
<feGaussianBlur stdDeviation="1.40013" result="effect1_foregroundBlur_1130_436"/>
</filter>
<filter id="filter1_f_1130_436" x="6.19973" y="2.90605" width="51.7487" height="49.6722" filterUnits="userSpaceOnUse" color-interpolation-filters="sRGB">
<feFlood flood-opacity="0" result="BackgroundImageFix"/>
<feBlend mode="normal" in="SourceGraphic" in2="BackgroundImageFix" result="shape"/>
<feGaussianBlur stdDeviation="1.40013" result="effect1_foregroundBlur_1130_436"/>
</filter>
<linearGradient id="paint0_linear_1130_436" x1="34.5004" y1="46.5031" x2="34.5004" y2="16.4259" gradientUnits="userSpaceOnUse">
<stop stop-color="#B6B9BF"/>
<stop offset="1" stop-color="#DDDFE2"/>
</linearGradient>
<linearGradient id="paint1_linear_1130_436" x1="9.85149" y1="54.0225" x2="54.8625" y2="54.0225" gradientUnits="userSpaceOnUse">
<stop stop-color="#27272A"/>
<stop offset="0.25" stop-color="#3F3F46"/>
<stop offset="0.752" stop-color="#3F3F46"/>
<stop offset="1" stop-color="#27272A"/>
</linearGradient>
<linearGradient id="paint2_linear_1130_436" x1="26.7098" y1="55.3508" x2="26.7098" y2="52.9296" gradientUnits="userSpaceOnUse">
<stop stop-color="#00A63E"/>
<stop offset="1" stop-color="#00C950"/>
</linearGradient>
<linearGradient id="paint3_linear_1130_436" x1="34.2105" y1="35.2212" x2="34.2105" y2="5.14391" gradientUnits="userSpaceOnUse">
<stop stop-color="#B6B9BF"/>
<stop offset="1" stop-color="#DDDFE2"/>
</linearGradient>
<linearGradient id="paint4_linear_1130_436" x1="9.56163" y1="42.7405" x2="54.5726" y2="42.7405" gradientUnits="userSpaceOnUse">
<stop stop-color="#27272A"/>
<stop offset="0.25" stop-color="#3F3F46"/>
<stop offset="0.752" stop-color="#3F3F46"/>
<stop offset="1" stop-color="#27272A"/>
</linearGradient>
<linearGradient id="paint5_linear_1130_436" x1="26.4199" y1="44.0688" x2="26.4199" y2="41.6476" gradientUnits="userSpaceOnUse">
<stop stop-color="#00A63E"/>
<stop offset="1" stop-color="#00C950"/>
</linearGradient>
<linearGradient id="paint6_linear_1130_436" x1="48.2491" y1="44.6269" x2="48.2491" y2="40.3154" gradientUnits="userSpaceOnUse">
<stop stop-color="#040404"/>
<stop offset="1" stop-color="#121212" stop-opacity="0.908"/>
</linearGradient>
</defs>
</svg>
