<svg width="64" height="64" viewBox="0 0 64 64" fill="none" xmlns="http://www.w3.org/2000/svg">
<g opacity="0.5" filter="url(#filter0_f_3113_98)">
<path d="M9.77614 46.9947C8.97379 47.1515 8.99241 48.6216 9.07939 50.0902C9.11078 51.9956 9.20073 54.2068 9.35084 56.1902C9.43311 57.8386 10.3296 59.1721 11.5454 59.1721H52.4546C53.6704 59.1721 54.567 57.8386 54.6492 56.1902C54.7993 54.2068 54.8893 51.9956 54.9207 50.0902C55.0076 48.6216 55.0263 47.1516 54.2239 46.9947H12.996H9.77614Z" fill="black"/>
</g>
<path d="M9.77614 46.0954C8.97379 46.2522 8.99241 47.7223 9.07939 49.1909C9.11078 51.0963 9.20073 53.3075 9.35084 55.291C9.43311 56.9393 10.3296 58.2728 11.5454 58.2728H52.4546C53.6704 58.2728 54.567 56.9393 54.6492 55.291C54.7993 53.3075 54.8893 51.0963 54.9207 49.1909C55.0076 47.7223 55.0263 46.2524 54.2239 46.0954H12.996H9.77614Z" fill="url(#paint0_radial_3113_98)"/>
<path opacity="0.5" d="M14.7494 2.62219C14.287 2.62129 13.887 2.70772 13.562 2.88996C13.0332 3.11127 12.8093 3.5261 12.6568 4.20174L9.00824 47.8378C8.99033 48.0521 9.00205 48.26 9.03914 48.4584C9.054 48.5378 9.07284 48.6157 9.09555 48.6918C9.1069 48.73 9.11925 48.7675 9.13247 48.8047C9.17214 48.9161 9.22011 49.0236 9.27539 49.1261C9.36754 49.297 9.48005 49.4544 9.60893 49.5951C9.63472 49.6231 9.66111 49.6507 9.68816 49.6774C9.82342 49.8112 9.97421 49.9276 10.1363 50.0234C10.1687 50.0426 10.2014 50.0609 10.2347 50.0784C10.5342 50.2357 10.8677 50.3238 11.2109 50.3238H52.789C53.5898 50.3238 54.3375 49.8436 54.7246 49.126C54.7799 49.0235 54.8279 48.9161 54.8675 48.8046C54.8806 48.7674 54.8931 48.7298 54.9044 48.6918C54.9271 48.6157 54.946 48.5376 54.9608 48.4583C54.9979 48.2599 55.0097 48.052 54.9918 47.8377L51.3432 4.20164C51.1907 3.52599 50.9668 3.11118 50.438 2.88986C50.113 2.70767 49.7129 2.62122 49.2504 2.62214L32.0007 2.65419L14.7494 2.62219Z" fill="#F3FDFF"/>
<path d="M14.7494 2.06228C14.287 2.06136 13.887 2.14781 13.562 2.33005C13.0332 2.55134 12.8093 2.96613 12.6568 3.64178L9.00824 47.2778C8.99033 47.4921 9.00205 47.7 9.03914 47.8985C9.054 47.9779 9.07284 48.0556 9.09555 48.1319C9.1069 48.1701 9.11925 48.2076 9.13247 48.2447C9.17214 48.3562 9.22011 48.4636 9.27539 48.5662C9.36754 48.7371 9.48005 48.8944 9.60893 49.0351C9.63472 49.0631 9.66111 49.0906 9.68816 49.1172C9.82342 49.2511 9.97421 49.3676 10.1363 49.4634C10.1687 49.4824 10.2014 49.5009 10.2347 49.5184C10.5342 49.6757 10.8677 49.7637 11.2109 49.7637H52.789C53.5898 49.7637 54.3375 49.2836 54.7246 48.5659C54.7799 48.4634 54.8279 48.356 54.8675 48.2445C54.8806 48.2073 54.8931 48.1697 54.9044 48.1316C54.9271 48.0555 54.946 47.9775 54.9608 47.8982C54.9979 47.6997 55.0097 47.4918 54.9918 47.2776L51.3432 3.64152C51.1907 2.96587 50.9668 2.55108 50.438 2.32979C50.113 2.14758 49.7129 2.0611 49.2504 2.06202L32.0007 2.09392L14.7494 2.06228Z" fill="url(#paint1_linear_3113_98)"/>
<path d="M15.8808 3.00119C14.9918 3.00941 13.948 3.1898 13.7235 4.48474L11.0075 45.6587C10.9912 45.8606 11.0018 46.0569 11.0357 46.2441C11.0493 46.3191 11.0665 46.3923 11.0872 46.4643C11.0976 46.5002 11.1089 46.5355 11.121 46.5709C11.1572 46.6761 11.2009 46.7772 11.2514 46.874C11.273 46.9155 11.296 46.9561 11.32 46.996C11.3273 47.0083 11.3353 47.0194 11.3427 47.0314C11.3598 47.0585 11.377 47.0854 11.3952 47.1117C11.4049 47.1261 11.4153 47.1392 11.4254 47.153C11.4427 47.177 11.46 47.2006 11.4783 47.2236C11.4878 47.236 11.4978 47.2471 11.5075 47.259C11.5236 47.2775 11.5393 47.298 11.5559 47.3169C11.5602 47.321 11.5647 47.3251 11.569 47.3313C11.5747 47.3375 11.5805 47.3436 11.5863 47.3498C11.6003 47.3642 11.614 47.3802 11.6283 47.3946C11.6356 47.4028 11.6435 47.4089 11.6509 47.4161C11.666 47.4305 11.6812 47.4455 11.6967 47.4601C11.7139 47.4766 11.7313 47.4922 11.7489 47.5076C11.7654 47.522 11.7821 47.5359 11.7989 47.5499C11.8166 47.5643 11.8345 47.5788 11.8527 47.5928C11.87 47.6051 11.8875 47.6191 11.9052 47.6319C11.9235 47.6442 11.9422 47.6579 11.9609 47.6705C11.9788 47.6828 11.9968 47.6947 12.015 47.7062C12.0226 47.7103 12.0298 47.7165 12.0375 47.7206C12.0583 47.733 12.0796 47.7453 12.1008 47.7572C12.1051 47.7592 12.1093 47.7613 12.1136 47.7633C12.1182 47.7654 12.1226 47.7695 12.1273 47.7715C12.1614 47.79 12.1961 47.8077 12.2312 47.8241C12.2693 47.8406 12.3084 47.8584 12.3475 47.8739C12.3602 47.878 12.373 47.8821 12.3858 47.8883C12.4133 47.8985 12.4409 47.9067 12.4689 47.9168C12.4831 47.9209 12.4973 47.925 12.5117 47.9292C12.5385 47.9374 12.5655 47.9435 12.5927 47.9507C12.6066 47.9548 12.6205 47.9568 12.6344 47.9609C12.6637 47.9671 12.6932 47.9733 12.7228 47.9774C12.7356 47.9795 12.7484 47.9815 12.7613 47.9836C12.7932 47.9877 12.8252 47.9918 12.8574 47.9939C12.868 47.995 12.8785 47.9959 12.889 47.9959C12.9321 48 12.9752 48 13.0187 48H50.9812C51.0246 48 51.0678 47.998 51.1108 47.9959C51.1215 47.9948 51.1319 47.9939 51.1424 47.9939C51.1746 47.9918 51.2067 47.9877 51.2386 47.9836C51.2513 47.9819 51.2642 47.9795 51.277 47.9774C51.3066 47.9733 51.3361 47.9671 51.3654 47.9609C51.3795 47.9589 51.3933 47.9548 51.4071 47.9507C51.4344 47.9446 51.4614 47.9384 51.4882 47.9292C51.5026 47.925 51.5168 47.9209 51.531 47.9168C51.5595 47.9086 51.5879 47.8983 51.616 47.8876C51.6278 47.8835 51.6398 47.8794 51.6517 47.8753C51.6911 47.8609 51.7301 47.8433 51.7685 47.8252C51.8037 47.8088 51.8385 47.7913 51.8726 47.7726C51.8769 47.7706 51.8809 47.7685 51.8852 47.7664C51.8913 47.7623 51.897 47.7603 51.903 47.7562C51.9228 47.7459 51.9428 47.7337 51.9624 47.7218C51.97 47.7177 51.9772 47.7116 51.9847 47.7075C52.0032 47.6972 52.0215 47.6832 52.0398 47.6711C52.0578 47.6588 52.0758 47.6465 52.0936 47.6337C52.1117 47.6214 52.1296 47.6072 52.1473 47.5937C52.1659 47.5793 52.1842 47.5649 52.2024 47.5499C52.2185 47.5376 52.2345 47.523 52.2503 47.509C52.2682 47.4947 52.2858 47.4774 52.3032 47.4611C52.3187 47.4468 52.3339 47.4322 52.349 47.4172C52.3564 47.411 52.3642 47.4028 52.3716 47.3956C52.3859 47.3812 52.3996 47.3656 52.4136 47.3508C52.4192 47.3446 52.4251 47.3385 52.4309 47.3323C52.4352 47.3282 52.4396 47.3241 52.4439 47.3179C52.4606 47.2995 52.4762 47.2795 52.4923 47.26C52.5021 47.2477 52.5121 47.2368 52.5216 47.2247C52.5398 47.2016 52.5571 47.1778 52.5745 47.154C52.5845 47.1417 52.5949 47.1267 52.6047 47.1127C52.6278 47.0795 52.65 47.0453 52.6714 47.0104C52.6735 47.0063 52.6761 47.0043 52.6785 47.0001C52.6784 47.0008 52.6786 46.9999 52.6785 47.0001C52.7029 46.9599 52.7266 46.9174 52.7486 46.8753C52.799 46.7786 52.8429 46.6773 52.8791 46.5722C52.8912 46.5373 52.9023 46.5016 52.9127 46.4656C52.9335 46.3939 52.9507 46.3203 52.9642 46.2454C52.9897 46.1051 53.002 45.9595 52.9997 45.8103C52.9989 45.7606 52.9965 45.7105 52.9925 45.66L50.2764 4.48399C50.0198 3.00399 48.6931 2.9817 47.7504 3.00414L32.0004 3.03411L16.2504 3.00414C16.1325 3.00208 16.0078 3.00119 15.8808 3.00119Z" fill="url(#paint2_linear_3113_98)"/>
<path d="M14.7494 2.00018C14.287 1.99956 13.887 2.05756 13.562 2.17981C13.0332 2.32826 12.8093 2.60652 12.6568 3.05977L9.00824 32.3324C8.99033 32.4761 9.00205 32.6156 9.03914 32.7487C9.054 32.802 9.07284 32.8541 9.09555 32.9053C9.1069 32.9309 9.11925 32.9561 9.13247 32.981C9.17214 33.0558 9.22011 33.1279 9.27539 33.1966C9.36754 33.3113 9.48005 33.4169 9.60893 33.5112C9.63472 33.53 9.66111 33.5485 9.68816 33.5663C9.82342 33.6561 9.97421 33.7342 10.1363 33.7985C10.1687 33.8113 10.2014 33.8237 10.2347 33.8354C10.5342 33.9409 10.8677 34 11.2109 34H52.789C53.5898 34 54.3375 33.6779 54.7246 33.1965C54.7799 33.1277 54.8279 33.0557 54.8675 32.9808C54.8806 32.9559 54.8931 32.9307 54.9044 32.9052C54.9271 32.854 54.946 32.8018 54.9608 32.7486C54.9979 32.6154 55.0097 32.4759 54.9918 32.3322L51.3432 3.05959C51.1907 2.60634 50.9668 2.32808 50.438 2.17964C50.113 2.05741 49.7129 1.99939 49.2504 2L32.0007 2.0214L14.7494 2.00018Z" fill="url(#paint3_linear_3113_98)"/>
<path d="M54.9918 32.332C55.0097 32.4758 54.9977 32.6159 54.9606 32.749C54.9458 32.802 54.9275 32.8543 54.9049 32.9053C54.8936 32.9306 54.8808 32.9557 54.8678 32.9805C54.8281 33.0553 54.7795 33.1275 54.7242 33.1963C54.3371 33.6777 53.5894 34 52.7887 34H11.2106C10.8675 34 10.5344 33.9404 10.235 33.835C10.2018 33.8233 10.1687 33.8115 10.1364 33.7988C9.97431 33.7346 9.82337 33.6562 9.68811 33.5664C9.66116 33.5486 9.6347 33.5304 9.60901 33.5117C9.48012 33.4173 9.36717 33.311 9.27502 33.1963C9.21995 33.1277 9.172 33.056 9.13245 32.9814C9.11923 32.9565 9.10669 32.9309 9.09534 32.9053C9.07268 32.8542 9.05353 32.8022 9.0387 32.749C9.0016 32.6159 8.99052 32.4758 9.00842 32.332L9.06604 31.8633C9.07548 31.8887 9.08394 31.9146 9.09534 31.9395C9.10667 31.9642 9.11926 31.9886 9.13245 32.0127C9.17207 32.0851 9.21981 32.1551 9.27502 32.2217C9.36717 32.3328 9.48012 32.4349 9.60901 32.5264C9.6348 32.5446 9.66106 32.5628 9.68811 32.5801C9.82335 32.6671 9.97433 32.7424 10.1364 32.8047C10.1687 32.817 10.2017 32.8295 10.235 32.8408C10.5343 32.9429 10.8676 33 11.2106 33H52.7887C53.5893 33 54.3371 32.6879 54.7242 32.2217C54.7795 32.1551 54.8281 32.0852 54.8678 32.0127C54.8809 31.9886 54.8936 31.9641 54.9049 31.9395C54.9164 31.9144 54.9237 31.8879 54.9332 31.8623L54.9918 32.332Z" fill="white" fill-opacity="0.5"/>
<g opacity="0.5">
<path d="M48.1427 56.2954C49.3261 56.2954 50.2855 55.3339 50.2855 54.1477C50.2855 52.9616 49.3261 52 48.1427 52C46.9593 52 46 52.9616 46 54.1477C46 55.3339 46.9593 56.2954 48.1427 56.2954Z" fill="url(#paint4_linear_3113_98)"/>
<path d="M48.1426 51.9004C49.3813 51.9004 50.3856 52.9064 50.3857 54.1475C50.3857 55.3886 49.3814 56.3955 48.1426 56.3955C46.9038 56.3954 45.9004 55.3886 45.9004 54.1475C45.9005 52.9065 46.9039 51.9005 48.1426 51.9004Z" stroke="white" stroke-opacity="0.5" stroke-width="0.2"/>
</g>
<path d="M48.1401 53.1523C48.119 53.1521 48.0981 53.1564 48.0787 53.1648C48.0593 53.1731 48.0418 53.1855 48.0274 53.201C48.0129 53.2153 48.0013 53.2323 47.9935 53.2511C47.9856 53.27 47.9817 53.2902 47.9818 53.3106V54.1114C47.9818 54.1541 47.997 54.1916 48.0274 54.2241C48.0762 54.2698 48.0975 54.2698 48.1401 54.2698C48.161 54.2703 48.1818 54.2665 48.2012 54.2587C48.2206 54.2508 48.2381 54.2391 48.2528 54.2241C48.2677 54.2095 48.2795 54.1919 48.2874 54.1725C48.2952 54.1532 48.299 54.1324 48.2985 54.1114V53.3106C48.2986 53.2902 48.2946 53.27 48.2867 53.2511C48.2789 53.2323 48.2673 53.2153 48.2528 53.201C48.2384 53.1855 48.221 53.1731 48.2016 53.1648C48.1822 53.1564 48.1612 53.1521 48.1401 53.1523ZM47.6834 53.3898C47.6407 53.3898 47.6011 53.3898 47.5646 53.4202C47.445 53.5075 47.3479 53.622 47.2812 53.7544C47.2145 53.8868 47.1801 54.0332 47.1809 54.1815C47.1809 54.3114 47.2073 54.4363 47.2601 54.556C47.3129 54.6758 47.3809 54.7773 47.4641 54.8605C47.6445 55.0382 47.8869 55.1387 48.1401 55.1407C48.268 55.1407 48.3908 55.1153 48.5086 55.0645C48.6226 55.0177 48.7263 54.9487 48.8136 54.8614C48.9009 54.7741 48.9701 54.6703 49.0171 54.556C49.1023 54.3602 49.1186 54.1412 49.0633 53.9349C49.008 53.7286 48.8844 53.5472 48.7126 53.4202C48.6956 53.4068 48.676 53.3971 48.655 53.3919C48.634 53.3866 48.6121 53.3859 48.5908 53.3898C48.5502 53.3918 48.5157 53.4121 48.4873 53.4507C48.4746 53.4669 48.4654 53.4855 48.4602 53.5054C48.4549 53.5253 48.4538 53.546 48.4568 53.5664C48.4649 53.609 48.4862 53.6445 48.5207 53.673C48.6458 53.7658 48.7325 53.9016 48.7643 54.0544C48.7962 54.2073 48.771 54.3666 48.6935 54.5021C48.616 54.6375 48.4916 54.7395 48.3441 54.7888C48.1966 54.838 48.0362 54.8311 47.8935 54.7692C47.8167 54.7389 47.7469 54.6933 47.6882 54.6352C47.6296 54.5771 47.5834 54.5077 47.5524 54.4312C47.4973 54.3001 47.4874 54.1544 47.5244 54.0171C47.5613 53.8797 47.643 53.7587 47.7564 53.673C47.7734 53.6604 47.7876 53.6444 47.7981 53.6261C47.8086 53.6077 47.8151 53.5874 47.8173 53.5664C47.8208 53.5456 47.8198 53.5242 47.8146 53.5038C47.8094 53.4834 47.7999 53.4642 47.7869 53.4476C47.7747 53.431 47.7592 53.417 47.7414 53.4065C47.7236 53.3961 47.7038 53.3893 47.6834 53.3867" fill="white"/>
<g opacity="0.5">
<path d="M17.556 48H13.0188C12.9754 48 12.932 48.0002 12.889 47.9961C12.8785 47.9961 12.8681 47.9952 12.8577 47.9941C12.8255 47.9921 12.7929 47.9875 12.761 47.9834C12.7483 47.9814 12.7356 47.9796 12.7229 47.9775C12.6934 47.9734 12.6634 47.9671 12.6341 47.9609C12.6204 47.9569 12.6067 47.9552 12.5931 47.9512C12.5659 47.944 12.5388 47.9369 12.512 47.9287C12.4978 47.9246 12.4832 47.9211 12.469 47.917C12.4412 47.907 12.4134 47.8989 12.386 47.8887C12.3733 47.8825 12.3596 47.8781 12.347 47.874C12.308 47.8587 12.2687 47.8406 12.2308 47.8242C12.1958 47.8078 12.1613 47.7899 12.1272 47.7715C12.1227 47.7694 12.1181 47.7657 12.1136 47.7637C12.1092 47.7616 12.1051 47.7589 12.1009 47.7568C12.0797 47.7449 12.0583 47.733 12.0374 47.7207C12.0298 47.7166 12.0225 47.7102 12.0149 47.7061C11.9969 47.6947 11.979 47.6831 11.9612 47.6709C11.9426 47.6584 11.9238 47.6441 11.9056 47.6318C11.8879 47.6191 11.8701 47.6051 11.8528 47.5928C11.8347 47.5788 11.8168 47.5642 11.7991 47.5498C11.7824 47.5359 11.7656 47.5221 11.7493 47.5078C11.7316 47.4924 11.7138 47.4764 11.6966 47.46C11.6812 47.4454 11.6657 47.4304 11.6507 47.416C11.6433 47.4089 11.6355 47.4027 11.6282 47.3945C11.6139 47.3802 11.6002 47.364 11.5862 47.3496C11.5805 47.3435 11.5743 47.3372 11.5687 47.3311C11.5645 47.3252 11.5601 47.3213 11.556 47.3174L11.4778 47.2236C11.4597 47.2007 11.4424 47.1772 11.4251 47.1533C11.415 47.1396 11.4046 47.1257 11.3948 47.1113C11.3768 47.0852 11.3601 47.0582 11.3431 47.0312C11.3356 47.0193 11.3269 47.0084 11.3196 46.9961C11.2956 46.9563 11.2729 46.9155 11.2513 46.874C11.2009 46.7774 11.1576 46.6763 11.1214 46.5713C11.1093 46.536 11.0976 46.4998 11.0872 46.4639C11.0665 46.392 11.049 46.319 11.0354 46.2441C11.0016 46.0569 10.9908 45.8601 11.0071 45.6582L11.5784 37H25.4661L17.556 48Z" fill="url(#paint5_linear_3113_98)"/>
<path d="M28.3929 48H19.4134L27.4231 37H36.4026L28.3929 48Z" fill="url(#paint6_linear_3113_98)"/>
</g>
<defs>
<filter id="filter0_f_3113_98" x="8.12763" y="46.0837" width="47.7448" height="13.9994" filterUnits="userSpaceOnUse" color-interpolation-filters="sRGB">
<feFlood flood-opacity="0" result="BackgroundImageFix"/>
<feBlend mode="normal" in="SourceGraphic" in2="BackgroundImageFix" result="shape"/>
<feGaussianBlur stdDeviation="0.455502" result="effect1_foregroundBlur_3113_98"/>
</filter>
<radialGradient id="paint0_radial_3113_98" cx="0" cy="0" r="1" gradientUnits="userSpaceOnUse" gradientTransform="translate(32.0005 53.2858) scale(21.6402 6.08863)">
<stop stop-color="#DFE5E8"/>
<stop offset="1" stop-color="#C3CACC"/>
</radialGradient>
<linearGradient id="paint1_linear_3113_98" x1="31.3683" y1="2.9077" x2="32.8644" y2="48.9176" gradientUnits="userSpaceOnUse">
<stop stop-color="#D7E1E5"/>
<stop offset="1" stop-color="#A1A1A2"/>
</linearGradient>
<linearGradient id="paint2_linear_3113_98" x1="11" y1="3" x2="45.7479" y2="30.8424" gradientUnits="userSpaceOnUse">
<stop stop-color="#D4EBEF"/>
<stop offset="1" stop-color="#DAE4F3"/>
</linearGradient>
<linearGradient id="paint3_linear_3113_98" x1="31.3683" y1="2.56732" x2="32.042" y2="33.4504" gradientUnits="userSpaceOnUse">
<stop stop-color="#D7E1E5"/>
<stop offset="1" stop-color="#A1A1A2"/>
</linearGradient>
<linearGradient id="paint4_linear_3113_98" x1="48.2478" y1="56.0316" x2="48.2478" y2="51.7201" gradientUnits="userSpaceOnUse">
<stop stop-color="#040404"/>
<stop offset="1" stop-color="#121212" stop-opacity="0.908"/>
</linearGradient>
<linearGradient id="paint5_linear_3113_98" x1="23.7011" y1="37" x2="23.7011" y2="48" gradientUnits="userSpaceOnUse">
<stop stop-color="white" stop-opacity="0.5"/>
<stop offset="1" stop-color="white"/>
</linearGradient>
<linearGradient id="paint6_linear_3113_98" x1="23.7011" y1="37" x2="23.7011" y2="48" gradientUnits="userSpaceOnUse">
<stop stop-color="white" stop-opacity="0.5"/>
<stop offset="1" stop-color="white"/>
</linearGradient>
</defs>
</svg>
