<svg width="64" height="64" viewBox="0 0 64 64" fill="none" xmlns="http://www.w3.org/2000/svg">
<rect x="27" y="26" width="10" height="32" fill="url(#paint0_linear_1131_1481)"/>
<rect x="27" y="54" width="10" height="3" fill="url(#paint1_linear_1131_1481)"/>
<path d="M22 57.5C22 57.2239 22.2239 57 22.5 57H41.5C41.7761 57 42 57.2239 42 57.5V57.5C42 57.7761 41.7761 58 41.5 58H22.5C22.2239 58 22 57.7761 22 57.5V57.5Z" fill="#878787"/>
<path d="M41.9824 57.375C41.9928 57.4151 42 57.4567 42 57.5C42 57.7761 41.7761 58 41.5 58H22.5C22.2239 58 22 57.7761 22 57.5C22 57.4568 22.0063 57.415 22.0166 57.375C22.0722 57.5905 22.2671 57.75 22.5 57.75H41.5C41.7328 57.75 41.9268 57.5904 41.9824 57.375Z" fill="#0A0A0A"/>
<path d="M2 8C2 6.89543 2.89543 6 4 6H60C61.1046 6 62 6.89543 62 8V44C62 45.1046 61.1046 46 60 46H4C2.89543 46 2 45.1046 2 44V8Z" fill="#0A0A0A"/>
<path d="M3 8C3 7.44772 3.44772 7 4 7H60C60.5523 7 61 7.44772 61 8V44C61 44.5523 60.5523 45 60 45H4C3.44771 45 3 44.5523 3 44V8Z" fill="url(#paint2_linear_1131_1481)"/>
<path opacity="0.35" d="M3 21.4907C5.97209 22.1006 8.74824 23.9447 11.1955 29.2653C13.9816 35.3259 17.9043 38.0147 22.654 38.2264C28.772 38.5011 33.7033 33.4142 36.9522 28.8647C43.5741 19.5933 55.6313 20.4815 60.9957 23.9546" stroke="white" stroke-opacity="0.937" stroke-width="0.5028"/>
<path opacity="0.35" d="M3.03014 23.0214C6.7251 21.648 11.6396 21.358 14.903 26.2665C17.8875 30.7529 21.4177 37.5199 31.6403 36.9C37.7496 36.5271 43.8594 34.1131 47.0089 28.4609C49.1962 24.7987 52.2176 21.1153 56.4869 20.204C58.0668 19.8837 59.674 20.0019 61 20.5" stroke="white" stroke-opacity="0.937" stroke-width="0.5028"/>
<path opacity="0.35" d="M2.99998 32C6.91522 30.2567 15.5462 27.5993 21.546 29.2616C26.9073 30.7492 33.6865 36.5112 46.5793 35.1649C49.9854 34.8117 52.8706 32.955 55.6031 29.4184C57.5811 26.8573 58.7041 25.4158 61 24.8383" stroke="white" stroke-opacity="0.937" stroke-width="0.5028"/>
<g opacity="0.2" filter="url(#filter0_f_1131_1481)">
<path fill-rule="evenodd" clip-rule="evenodd" d="M29.1684 21.0011C29.1317 21.0025 29.0942 21.005 29.0568 21.0096C29.0188 21.0142 28.9824 21.0214 28.9463 21.0289C28.9103 21.0367 28.874 21.0452 28.8397 21.0556C28.8052 21.0661 28.772 21.0784 28.739 21.092C28.7064 21.1056 28.6746 21.1203 28.6431 21.1368C28.6118 21.1534 28.5806 21.1719 28.5509 21.1914C28.521 21.2109 28.4919 21.232 28.4635 21.2545C28.4353 21.277 28.4076 21.3007 28.3808 21.3261C28.3541 21.3514 28.3285 21.3778 28.3034 21.4061C28.2781 21.4345 28.254 21.4638 28.232 21.4934C28.2099 21.523 28.1905 21.5535 28.1713 21.5843C28.1547 21.6152 28.1339 21.6469 28.118 21.6789C28.1033 21.711 28.0882 21.7439 28.0754 21.7772C28.0625 21.8105 28.0524 21.8434 28.043 21.8779C28.0356 21.9124 28.0264 21.9477 28.0184 21.9834C28.0129 22.019 28.0092 22.0556 28.0055 22.0925C28.0019 22.1294 28 22.1661 28 22.2041V31.7986C28 31.8366 28.0013 31.8746 28.0055 31.9114C28.0092 31.9482 28.0129 31.9849 28.0184 32.0206C28.024 32.0562 28.0314 32.0905 28.043 32.1249C28.0503 32.1593 28.0631 32.1936 28.0754 32.2268C28.0883 32.26 28.102 32.2918 28.118 32.3238C28.1328 32.3558 28.1525 32.3876 28.1713 32.4184C28.1879 32.4492 28.2099 32.4798 28.232 32.5094C28.2541 32.5389 28.2783 32.5671 28.3034 32.5955C28.3287 32.6238 28.3539 32.6513 28.3808 32.6768C28.4076 32.7022 28.4351 32.7259 28.4635 32.7483C28.4917 32.7708 28.521 32.7919 28.5509 32.8114C28.5808 32.8309 28.6118 32.8482 28.6431 32.8648C28.6745 32.8814 28.7058 32.8973 28.739 32.9108C28.7716 32.9244 28.8052 32.9366 28.8397 32.9472C28.8744 32.9578 28.9103 32.9663 28.9463 32.9739C28.9823 32.9816 29.0188 32.9873 29.0568 32.992C29.0946 32.9966 29.1317 33.0005 29.1684 33.0017C29.2051 33.003 29.2416 33.0024 29.2777 33.0005C29.3137 32.9986 29.3491 32.9952 29.3843 32.9897C29.4195 32.9844 29.4544 32.9776 29.4889 32.969C29.5234 32.9605 29.5586 32.9505 29.5918 32.9387C29.6255 32.927 29.6584 32.9137 29.6914 32.8987C29.724 32.8838 29.7565 32.8673 29.7884 32.849C29.8205 32.8307 29.8526 32.8099 29.8845 32.7884L36.8447 27.9904C36.8724 27.9716 36.8989 27.9516 36.9248 27.931C36.9504 27.9104 36.974 27.889 36.9973 27.8668C37.0205 27.8445 37.0441 27.8214 37.0649 27.7976C37.0863 27.7739 37.1053 27.7503 37.1241 27.7249C37.1408 27.6995 37.1616 27.673 37.1785 27.6461C37.1952 27.6191 37.2108 27.592 37.2258 27.5636C37.2405 27.5352 37.2542 27.505 37.2669 27.475C37.2797 27.4451 37.2912 27.4144 37.3021 27.3829C37.3114 27.3511 37.3224 27.3201 37.3298 27.2883C37.3372 27.2565 37.3426 27.2242 37.3501 27.1924C37.3555 27.1607 37.3574 27.1296 37.3612 27.0978C37.365 27.0661 37.365 27.0337 37.365 27.002C37.365 26.9703 37.3643 26.9391 37.3612 26.9074C37.3574 26.8757 37.3557 26.8432 37.3501 26.8116C37.3446 26.78 37.3389 26.7486 37.3298 26.717C37.3224 26.6855 37.3132 26.6538 37.3021 26.6224C37.2929 26.5909 37.2796 26.5602 37.2669 26.5302C37.254 26.5003 37.2405 26.4714 37.2258 26.4429C37.211 26.4145 37.1953 26.3874 37.1785 26.3605C37.1619 26.3335 37.144 26.3071 37.1252 26.2816C37.1086 26.2562 37.0858 26.2316 37.0646 26.2077C37.0434 26.1838 37.021 26.1609 36.998 26.1386C36.9749 26.1162 36.9506 26.0939 36.9255 26.0731C36.9 26.0522 36.8741 26.0318 36.8466 26.0125L29.8839 21.2145C29.8605 21.1979 29.8361 21.183 29.8125 21.1685C29.7887 21.1541 29.7642 21.1411 29.74 21.1285C29.7159 21.1157 29.6921 21.1041 29.6674 21.0933C29.6423 21.0826 29.6176 21.0719 29.5923 21.063C29.567 21.0539 29.5418 21.0467 29.5159 21.0399C29.4901 21.0327 29.4632 21.0268 29.4372 21.0219C29.411 21.0169 29.3848 21.0119 29.3583 21.0086C29.3317 21.0052 29.3053 21.0029 29.2782 21.0012C29.2423 20.9994 29.2054 20.9998 29.1684 21.0011Z" fill="black"/>
</g>
<path fill-rule="evenodd" clip-rule="evenodd" d="M29.1684 20.0011C29.1317 20.0025 29.0942 20.005 29.0568 20.0096C29.0188 20.0142 28.9824 20.0214 28.9463 20.0289C28.9103 20.0367 28.874 20.0452 28.8397 20.0556C28.8052 20.0661 28.772 20.0784 28.739 20.092C28.7064 20.1056 28.6746 20.1203 28.6431 20.1368C28.6118 20.1534 28.5806 20.1719 28.5509 20.1914C28.521 20.2109 28.4919 20.232 28.4635 20.2545C28.4353 20.277 28.4076 20.3007 28.3808 20.3261C28.3541 20.3514 28.3285 20.3778 28.3034 20.4061C28.2781 20.4345 28.254 20.4638 28.232 20.4934C28.2099 20.523 28.1905 20.5535 28.1713 20.5843C28.1547 20.6152 28.1339 20.6469 28.118 20.6789C28.1033 20.711 28.0882 20.7439 28.0754 20.7772C28.0625 20.8105 28.0524 20.8434 28.043 20.8779C28.0356 20.9124 28.0264 20.9477 28.0184 20.9834C28.0129 21.019 28.0092 21.0556 28.0055 21.0925C28.0019 21.1294 28 21.1661 28 21.2041V30.7986C28 30.8366 28.0013 30.8746 28.0055 30.9114C28.0092 30.9482 28.0129 30.9849 28.0184 31.0206C28.024 31.0562 28.0314 31.0905 28.043 31.1249C28.0503 31.1593 28.0631 31.1936 28.0754 31.2268C28.0883 31.26 28.102 31.2918 28.118 31.3238C28.1328 31.3558 28.1525 31.3876 28.1713 31.4184C28.1879 31.4492 28.2099 31.4798 28.232 31.5094C28.2541 31.5389 28.2783 31.5671 28.3034 31.5955C28.3287 31.6238 28.3539 31.6513 28.3808 31.6768C28.4076 31.7022 28.4351 31.7259 28.4635 31.7483C28.4917 31.7708 28.521 31.7919 28.5509 31.8114C28.5808 31.8309 28.6118 31.8482 28.6431 31.8648C28.6745 31.8814 28.7058 31.8973 28.739 31.9108C28.7716 31.9244 28.8052 31.9366 28.8397 31.9472C28.8744 31.9578 28.9103 31.9663 28.9463 31.9739C28.9823 31.9816 29.0188 31.9873 29.0568 31.992C29.0946 31.9966 29.1317 32.0005 29.1684 32.0017C29.2051 32.003 29.2416 32.0024 29.2777 32.0005C29.3137 31.9986 29.3491 31.9952 29.3843 31.9897C29.4195 31.9844 29.4544 31.9776 29.4889 31.969C29.5234 31.9605 29.5586 31.9505 29.5918 31.9387C29.6255 31.927 29.6584 31.9137 29.6914 31.8987C29.724 31.8838 29.7565 31.8673 29.7884 31.849C29.8205 31.8307 29.8526 31.8099 29.8845 31.7884L36.8447 26.9904C36.8724 26.9716 36.8989 26.9516 36.9248 26.931C36.9504 26.9104 36.974 26.889 36.9973 26.8668C37.0205 26.8445 37.0441 26.8214 37.0649 26.7976C37.0863 26.7739 37.1053 26.7503 37.1241 26.7249C37.1408 26.6995 37.1616 26.673 37.1785 26.6461C37.1952 26.6191 37.2108 26.592 37.2258 26.5636C37.2405 26.5352 37.2542 26.505 37.2669 26.475C37.2797 26.4451 37.2912 26.4144 37.3021 26.3829C37.3114 26.3511 37.3224 26.3201 37.3298 26.2883C37.3372 26.2565 37.3426 26.2242 37.3501 26.1924C37.3555 26.1607 37.3574 26.1296 37.3612 26.0978C37.365 26.0661 37.365 26.0337 37.365 26.002C37.365 25.9703 37.3643 25.9391 37.3612 25.9074C37.3574 25.8757 37.3557 25.8432 37.3501 25.8116C37.3446 25.78 37.3389 25.7486 37.3298 25.717C37.3224 25.6855 37.3132 25.6538 37.3021 25.6224C37.2929 25.5909 37.2796 25.5602 37.2669 25.5302C37.254 25.5003 37.2405 25.4714 37.2258 25.4429C37.211 25.4145 37.1953 25.3874 37.1785 25.3605C37.1619 25.3335 37.144 25.3071 37.1252 25.2816C37.1086 25.2562 37.0858 25.2316 37.0646 25.2077C37.0434 25.1838 37.021 25.1609 36.998 25.1386C36.9749 25.1162 36.9506 25.0939 36.9255 25.0731C36.9 25.0522 36.8741 25.0318 36.8466 25.0125L29.8839 20.2145C29.8605 20.1979 29.8361 20.183 29.8125 20.1685C29.7887 20.1541 29.7642 20.1411 29.74 20.1285C29.7159 20.1157 29.6921 20.1041 29.6674 20.0933C29.6423 20.0826 29.6176 20.0719 29.5923 20.063C29.567 20.0539 29.5418 20.0467 29.5159 20.0399C29.4901 20.0327 29.4632 20.0268 29.4372 20.0219C29.411 20.0169 29.3848 20.0119 29.3583 20.0086C29.3317 20.0052 29.3053 20.0029 29.2782 20.0012C29.2423 19.9994 29.2054 19.9998 29.1684 20.0011Z" fill="url(#paint3_linear_1131_1481)"/>
<defs>
<filter id="filter0_f_1131_1481" x="26.76" y="19.76" width="11.845" height="14.4824" filterUnits="userSpaceOnUse" color-interpolation-filters="sRGB">
<feFlood flood-opacity="0" result="BackgroundImageFix"/>
<feBlend mode="normal" in="SourceGraphic" in2="BackgroundImageFix" result="shape"/>
<feGaussianBlur stdDeviation="0.62" result="effect1_foregroundBlur_1131_1481"/>
</filter>
<linearGradient id="paint0_linear_1131_1481" x1="32" y1="58" x2="32" y2="45" gradientUnits="userSpaceOnUse">
<stop stop-color="#858585"/>
<stop offset="0.346" stop-color="#919191"/>
<stop offset="1" stop-color="#757575"/>
</linearGradient>
<linearGradient id="paint1_linear_1131_1481" x1="32" y1="54" x2="32" y2="57" gradientUnits="userSpaceOnUse">
<stop stop-opacity="0"/>
<stop offset="1" stop-opacity="0.3"/>
</linearGradient>
<linearGradient id="paint2_linear_1131_1481" x1="3" y1="7" x2="32" y2="45" gradientUnits="userSpaceOnUse">
<stop stop-color="#00D3F2"/>
<stop offset="1" stop-color="#2B7FFF"/>
</linearGradient>
<linearGradient id="paint3_linear_1131_1481" x1="29.1719" y1="20.0017" x2="29.1719" y2="31.9448" gradientUnits="userSpaceOnUse">
<stop stop-color="#FCFEFF"/>
<stop offset="1" stop-color="#BDE9FF"/>
</linearGradient>
</defs>
</svg>
