<?xml version="1.0" encoding="UTF-8" standalone="no"?>
<svg xmlns:inkscape="http://www.inkscape.org/namespaces/inkscape" xmlns:sodipodi="http://sodipodi.sourceforge.net/DTD/sodipodi-0.dtd" xmlns:xlink="http://www.w3.org/1999/xlink" xmlns="http://www.w3.org/2000/svg" xmlns:svg="http://www.w3.org/2000/svg" width="64" height="64" version="1.1" id="svg2" sodipodi:docname="colorgrab.svg" inkscape:version="1.4.2 (ebf0e940d0, 2025-05-08)" xml:space="preserve">
  <sodipodi:namedview id="namedview2" pagecolor="#ffffff" bordercolor="#000000" borderopacity="0.25" inkscape:showpageshadow="2" inkscape:pageopacity="0.0" inkscape:pagecheckerboard="0" inkscape:deskcolor="#d1d1d1" inkscape:current-layer="svg2"/>
  <defs id="defs1">
    <filter id="filter2076-7" x="-0.048000001" y="-0.048000001" width="1.096" height="1.096" color-interpolation-filters="sRGB">
      <feGaussianBlur stdDeviation="1.1" id="feGaussianBlur1"/>
    </filter>
    <linearGradient inkscape:collect="always" xlink:href="#linearGradient1051" id="linearGradient1053" x1="-127" y1="60" x2="-72" y2="5" gradientUnits="userSpaceOnUse" gradientTransform="translate(131.5,-0.5099971)"/>
    <linearGradient inkscape:collect="always" id="linearGradient1051">
      <stop style="stop-color:#e54d4d;stop-opacity:1;" offset="0.14638768" id="stop1047"/>
      <stop style="stop-color:#66cc6f;stop-opacity:1;" offset="0.5" id="stop1"/>
      <stop style="stop-color:#634de5;stop-opacity:1;" offset="0.84600091" id="stop1049"/>
    </linearGradient>
    <filter inkscape:collect="always" style="color-interpolation-filters:sRGB" id="filter1057" x="-0.026999999" width="1.054" y="-0.026999999" height="1.054">
      <feGaussianBlur inkscape:collect="always" stdDeviation="0.61875" id="feGaussianBlur1059"/>
    </filter>
  <radialGradient id="gradient_ds_br" cx="0" cy="0" r="1" gradientUnits="userSpaceOnUse" gradientTransform="matrix(13.998399,0.00477622,-0.00477841,14.004799,47.5016,48.4952)">
      <stop offset="0.65" id="stop1"/>
      <stop offset="1" stop-opacity="0" id="stop2"/>
    </radialGradient><linearGradient id="gradient_ds_b" x1="30.448999" y1="48.5" x2="30.492201" y2="62.500301" gradientUnits="userSpaceOnUse">
      <stop offset="0.653846" id="stop3"/>
      <stop offset="1" stop-opacity="0" id="stop4"/>
    </linearGradient><radialGradient id="gradient_ds_bl" cx="0" cy="0" r="1" gradientUnits="userSpaceOnUse" gradientTransform="matrix(0,14,-14,0,16.5,48.5)">
      <stop offset="0.65" id="stop5"/>
      <stop offset="1" stop-opacity="0" id="stop6"/>
    </radialGradient><linearGradient id="gradient_ds_r" x1="47.5" y1="33.5" x2="61.5" y2="33.5009" gradientUnits="userSpaceOnUse">
      <stop offset="0.649038" id="stop7"/>
      <stop offset="1" stop-opacity="0" id="stop8"/>
    </linearGradient><linearGradient id="gradient_ds_l" x1="16.5" y1="33.894699" x2="2.5" y2="33.894699" gradientUnits="userSpaceOnUse">
      <stop offset="0.649038" id="stop9"/>
      <stop offset="1" stop-opacity="0" id="stop10"/>
    </linearGradient><radialGradient id="gradient_ds_tr" cx="0" cy="0" r="1" gradientTransform="matrix(0.00843236,-14,14.0084,0.0189842,47.4916,18.5)" gradientUnits="userSpaceOnUse">
      <stop offset="0.65" id="stop11"/>
      <stop offset="1" stop-opacity="0" id="stop12"/>
    </radialGradient><linearGradient id="gradient_ds_t" x1="29.98" y1="18.5" x2="29.9158" y2="4.4998598" gradientUnits="userSpaceOnUse">
      <stop offset="0.649038" id="stop13"/>
      <stop offset="1" stop-opacity="0" id="stop14"/>
    </linearGradient><radialGradient id="gradient_ds_tl" cx="0" cy="0" r="1" gradientTransform="matrix(-0.00843236,-14,-14.0084,0.0189842,16.5084,18.5)" gradientUnits="userSpaceOnUse">
      <stop offset="0.65" id="stop15"/>
      <stop offset="1" stop-opacity="0" id="stop16"/>
    </radialGradient></defs>
  
  <g id="ds" opacity="0.25">
    <path id="ds-br" d="m 47.5,48.5 h 14 v 14 h -14 z" fill="url(#gradient_ds_br)" style="fill:url(#gradient_ds_br)"/>
    <path id="ds-b" d="m 16.5,48.5 h 31 v 14 h -31 z" fill="url(#gradient_ds_b)" style="fill:url(#gradient_ds_b)"/>
    <path id="ds-bl" d="m 2.5,48.5 h 14 v 14 h -14 z" fill="url(#gradient_ds_bl)" style="fill:url(#gradient_ds_bl)"/>
    <path id="ds-r" d="m 47.5,18.5 h 14 v 30 h -14 z" fill="url(#gradient_ds_r)" style="fill:url(#gradient_ds_r)"/>
    <path id="ds-l" d="m 2.5,18.5 h 14 v 30 h -14 z" fill="url(#gradient_ds_l)" style="fill:url(#gradient_ds_l)"/>
    <path id="ds-tr" d="m 47.5,4.5 h 14 v 14 h -14 z" fill="url(#gradient_ds_tr)" style="fill:url(#gradient_ds_tr)"/>
    <path id="ds-t" d="m 16.5,4.5 h 31 v 14 h -31 z" fill="url(#gradient_ds_t)" style="fill:url(#gradient_ds_t)"/>
    <path id="ds-tl" d="m 16.5,4.5 h -14 v 14 h 14 z" fill="url(#gradient_ds_tl)" style="fill:url(#gradient_ds_tl)"/>
  </g><rect y="4.5" x="4.5" height="55" width="55" id="bg" style="fill:url(#linearGradient1053);fill-opacity:1;stroke-width:2.74436;stroke-linecap:round" rx="10"/>
  <g id="art"><g id="g6" transform="matrix(0.15328353,0,0,0.15328353,-9.386552,-9.386552)">
    <path id="path16" style="fill:#ebeb47;fill-opacity:1" d="M 449.40609 206.53254 L 269.99999 269.99999 L 449.40609 335.50615 L 449.40609 206.53254 z "/>
    <path id="path20" style="fill:#ebaa47;fill-opacity:1" d="M 303.66412 90.593895 L 269.99999 269.99999 L 440.9582 123.60818 C 429.76847 103.86018 408.57505 90.593895 384.16751 90.593895 L 303.66412 90.593895 z "/>
    <path id="path18" style="fill:#ebc147;fill-opacity:1" d="M 430.34419 109.65579 L 269.99999 269.99999 L 449.40609 221.92477 L 449.40609 155.83248 C 449.40609 137.76139 442.13606 121.44767 430.34419 109.65579 z "/>
    <path id="path28" style="fill:#ea5648;fill-opacity:1" d="M 155.83248 90.593895 C 130.92966 90.593895 109.36614 104.40454 98.36646 124.81867 L 269.99999 269.99999 L 239.12634 90.593895 L 155.83248 90.593895 z "/>
    <path id="path22" style="fill:#eb7947;fill-opacity:1" d="M 221.92477 90.593895 L 269.99999 269.99999 L 318.07522 90.593895 L 221.92477 90.593895 z "/>
    <path id="path26" style="fill:#c448ea;fill-opacity:1" d="M 90.593895 200.00868 L 90.593895 336.52551 L 269.99999 269.99999 L 90.593895 200.00868 z "/>
    <path id="path30" style="fill:#eb4781;fill-opacity:1" d="M 109.65579 109.65579 C 97.86392 121.44767 90.593895 137.76139 90.593895 155.83248 L 90.593895 221.92477 L 269.99999 269.99999 L 109.65579 109.65579 z "/>
    <path id="path8" style="fill:#4774eb;fill-opacity:1" d="M 269.99999 269.99999 L 98.672266 415.72922 C 109.76066 435.84145 131.15367 449.40609 155.83248 449.40609 L 239.57231 449.40609 L 269.99999 269.99999 z "/>
    <path id="path24" style="fill:#8348ea;fill-opacity:1" d="M 269.99999 269.99999 L 90.593895 318.07522 L 90.593895 384.16751 C 90.593895 402.2386 97.863914 418.55232 109.65579 430.34419 L 269.99999 269.99999 z "/>
    <path id="path12" style="fill:#8bea48;fill-opacity:1" d="M 269.99999 269.99999 L 302.05864 449.40609 L 384.16751 449.40609 C 408.46408 449.40609 429.57603 436.25882 440.8053 416.65938 L 269.99999 269.99999 z "/>
    <path id="path10" style="fill:#47baeb;fill-opacity:1" d="M 269.99999 269.99999 L 221.92477 449.40609 L 318.07522 449.40609 L 269.99999 269.99999 z "/>
    <path id="path14" style="fill:#d4eb47;fill-opacity:1" d="M 269.99999 269.99999 L 430.34419 430.34419 C 442.13607 418.55232 449.40609 402.2386 449.40609 384.16751 L 449.40609 318.07522 L 269.99999 269.99999 z "/>
  </g><g id="em" style="display:inline">
    <circle cx="45.874001" cy="45.690002" r="9.4490004" fill="#90a7bd" stroke-linecap="round" stroke-linejoin="round" stroke-width="1.1988" id="circle1"/>
    <path d="m 45.294,30.568 0.004,0.0038 a 14.634,14.634 0 0 0 -0.47853,0.01776 c -0.0265,-0.0033 -0.0502,-0.01776 -0.0801,-0.01776 h -13.479 a 0.58406,0.58406 0 0 0 -0.58398,0.58009 v 13.705 a 14.634,14.634 0 0 0 -0.0176,0.34572 14.634,14.634 0 0 0 14.635,14.635 14.634,14.634 0 0 0 14.635,-14.635 14.634,14.634 0 0 0 -14.635,-14.635 z m 0.004,7.1113 a 7.5229,7.5229 0 0 1 7.5237,7.5237 7.5229,7.5229 0 0 1 -7.5275,7.5256 7.5229,7.5229 0 0 1 -7.5237,-7.5256 7.5229,7.5229 0 0 1 7.5274,-7.5237 z" color="#000000" fill="#ffffff" stroke-width="3.3185" style="isolation:auto;mix-blend-mode:normal;paint-order:fill markers stroke" id="path1"/>
    <path d="m 45.004,42.274 v 2.6349 h -2.6349 v 0.8794 h 2.6349 l 0.0564,2.6315 h 0.82297 v -2.6315 h 2.6316 l 0.0564,-0.8794 h -2.688 V 42.274 Z" color="#000000" fill="#ffffff" overflow="visible" stroke-width="3.3185" style="isolation:auto;mix-blend-mode:normal;paint-order:fill markers stroke" id="path2"/>
  </g></g>
  
</svg>
