<?xml version="1.0" encoding="UTF-8" standalone="no"?>
<svg xmlns:inkscape="http://www.inkscape.org/namespaces/inkscape" xmlns:sodipodi="http://sodipodi.sourceforge.net/DTD/sodipodi-0.dtd" xmlns="http://www.w3.org/2000/svg" xmlns:svg="http://www.w3.org/2000/svg" id="Preview" width="64" height="64" enable-background="new 0 0 1024 1024" image-rendering="optimizeSpeed" version="1.1" viewBox="0 0 64 64" sodipodi:docname="display-im6.q16.svg" inkscape:version="1.4.2 (ebf0e940d0, 2025-05-08)">
  <sodipodi:namedview id="namedview11" pagecolor="#ffffff" bordercolor="#000000" borderopacity="0.25" inkscape:showpageshadow="2" inkscape:pageopacity="0.0" inkscape:pagecheckerboard="0" inkscape:deskcolor="#d1d1d1" inkscape:current-layer="Preview"/>
  <defs id="defs5">
    <linearGradient id="linearGradient862-3" x1="7.9373" x2="7.9373" y1="15.081" y2="1.852" gradientTransform="matrix(3.7795 0 0 3.7795 .00014309 .031541)" gradientUnits="userSpaceOnUse">
      <stop stop-color="#1a1a1a" offset="0" id="stop1"/>
      <stop stop-color="#4d4d4d" offset="1" id="stop2"/>
    </linearGradient>
    <linearGradient id="linearGradient884" x1="21.016" x2="44.623" y1="26.164" y2="37.223" gradientUnits="userSpaceOnUse">
      <stop stop-color="#d1d1d1" offset="0" id="stop3"/>
      <stop stop-color="#fff" offset=".4419" id="stop4"/>
      <stop stop-color="#d1d1d1" offset="1" id="stop5"/>
    </linearGradient>
    <filter id="filter1012" x="-0.10383939" y="-0.11250673" width="1.2076788" height="1.2250135" color-interpolation-filters="sRGB">
      <feGaussianBlur stdDeviation="1.5000926" id="feGaussianBlur5"/>
    </filter>
    <filter inkscape:collect="always" style="color-interpolation-filters:sRGB" id="filter1057" x="-0.026999999" width="1.054" y="-0.026999999" height="1.054">
      <feGaussianBlur inkscape:collect="always" stdDeviation="0.61875" id="feGaussianBlur1059"/>
    </filter>
  <radialGradient id="gradient_ds_br" cx="0" cy="0" r="1" gradientUnits="userSpaceOnUse" gradientTransform="matrix(13.998399,0.00477622,-0.00477841,14.004799,47.5016,48.4952)">
      <stop offset="0.65" id="stop1"/>
      <stop offset="1" stop-opacity="0" id="stop2"/>
    </radialGradient><linearGradient id="gradient_ds_b" x1="30.448999" y1="48.5" x2="30.492201" y2="62.500301" gradientUnits="userSpaceOnUse">
      <stop offset="0.653846" id="stop3"/>
      <stop offset="1" stop-opacity="0" id="stop4"/>
    </linearGradient><radialGradient id="gradient_ds_bl" cx="0" cy="0" r="1" gradientUnits="userSpaceOnUse" gradientTransform="matrix(0,14,-14,0,16.5,48.5)">
      <stop offset="0.65" id="stop5"/>
      <stop offset="1" stop-opacity="0" id="stop6"/>
    </radialGradient><linearGradient id="gradient_ds_r" x1="47.5" y1="33.5" x2="61.5" y2="33.5009" gradientUnits="userSpaceOnUse">
      <stop offset="0.649038" id="stop7"/>
      <stop offset="1" stop-opacity="0" id="stop8"/>
    </linearGradient><linearGradient id="gradient_ds_l" x1="16.5" y1="33.894699" x2="2.5" y2="33.894699" gradientUnits="userSpaceOnUse">
      <stop offset="0.649038" id="stop9"/>
      <stop offset="1" stop-opacity="0" id="stop10"/>
    </linearGradient><radialGradient id="gradient_ds_tr" cx="0" cy="0" r="1" gradientTransform="matrix(0.00843236,-14,14.0084,0.0189842,47.4916,18.5)" gradientUnits="userSpaceOnUse">
      <stop offset="0.65" id="stop11"/>
      <stop offset="1" stop-opacity="0" id="stop12"/>
    </radialGradient><linearGradient id="gradient_ds_t" x1="29.98" y1="18.5" x2="29.9158" y2="4.4998598" gradientUnits="userSpaceOnUse">
      <stop offset="0.649038" id="stop13"/>
      <stop offset="1" stop-opacity="0" id="stop14"/>
    </linearGradient><radialGradient id="gradient_ds_tl" cx="0" cy="0" r="1" gradientTransform="matrix(-0.00843236,-14,-14.0084,0.0189842,16.5084,18.5)" gradientUnits="userSpaceOnUse">
      <stop offset="0.65" id="stop15"/>
      <stop offset="1" stop-opacity="0" id="stop16"/>
    </radialGradient></defs>
  
  <g id="ds" opacity="0.25">
    <path id="ds-br" d="m 47.5,48.5 h 14 v 14 h -14 z" fill="url(#gradient_ds_br)" style="fill:url(#gradient_ds_br)"/>
    <path id="ds-b" d="m 16.5,48.5 h 31 v 14 h -31 z" fill="url(#gradient_ds_b)" style="fill:url(#gradient_ds_b)"/>
    <path id="ds-bl" d="m 2.5,48.5 h 14 v 14 h -14 z" fill="url(#gradient_ds_bl)" style="fill:url(#gradient_ds_bl)"/>
    <path id="ds-r" d="m 47.5,18.5 h 14 v 30 h -14 z" fill="url(#gradient_ds_r)" style="fill:url(#gradient_ds_r)"/>
    <path id="ds-l" d="m 2.5,18.5 h 14 v 30 h -14 z" fill="url(#gradient_ds_l)" style="fill:url(#gradient_ds_l)"/>
    <path id="ds-tr" d="m 47.5,4.5 h 14 v 14 h -14 z" fill="url(#gradient_ds_tr)" style="fill:url(#gradient_ds_tr)"/>
    <path id="ds-t" d="m 16.5,4.5 h 31 v 14 h -31 z" fill="url(#gradient_ds_t)" style="fill:url(#gradient_ds_t)"/>
    <path id="ds-tl" d="m 16.5,4.5 h -14 v 14 h 14 z" fill="url(#gradient_ds_tl)" style="fill:url(#gradient_ds_tl)"/>
  </g><rect y="4.5" x="4.5" height="55" width="55" id="bg" style="fill:url(#linearGradient862-3);fill-opacity:1;stroke-width:3.7795;stroke-linecap:butt;font-variation-settings:normal;opacity:1;vector-effect:none;stroke-linejoin:miter;stroke-miterlimit:4;stroke-dasharray:none;stroke-dashoffset:0;stroke-opacity:1;-inkscape-stroke:none;stop-color:#000000;stop-opacity:1" rx="10"/>
  <g id="art"><path d="m36.097 17.243c-3.3072 0.42673-6.8611 2.0363-9.7522 6.7984-6.6104 10.882-6.141 14.669-7.1945 15.893-1.0575 1.2189-3.9073 1.8803-3.4952 3.2658 0.41206 1.3802 0.82813 1.2029 0.82813 1.2029s4.162 6.0276 16.232 4.4647c12.069-1.5629 13.742-4.11 13.633-5.3742-0.10935-1.2655-2.6564-2.1883-2.6564-2.1883s-1.8856-6.6464-1.4016-9.3748c0.48408-2.7298 2.323-6.7077 4.1406-7.5639 1.8123-0.86413 2.7191 2.8911 3.6566 1.9643 0.93214-0.92681-1.5736-8.0813-4.3447-8.1373-1.5522-0.03067-5.4128-1.4949-9.6468-0.94281m0.01066 9.1321 0.92148 2.7244 2.7978 0.79212-2.3644 1.6829 0.10402 2.8604-2.3644-1.6829-2.7871 0.97349 0.89614-2.6938-1.7976-2.2604 2.9378-0.02667m-7.7879 5.6369 0.09868 1.9736 1.7656 1.0575-1.907 0.68811-0.47874 1.9536-1.2975-1.5216-2.031 0.13069 1.0882-1.6456-0.77612-1.8496 1.9696 0.51075m9.4441-0.88547 1.891 2.5311 3.1938-0.12535-1.855 2.5631 1.0882 2.9178-3.0631-0.94815-2.5164 1.943-0.02134-3.1458-2.6511-1.7296 3.0365-0.99482" filter="url(#filter1012)" opacity=".35" id="path10"/><path d="m35.147 16.116c-3.3072 0.42673-6.8611 2.0363-9.7522 6.7984-6.6104 10.882-6.141 14.669-7.1945 15.893-1.0575 1.2189-3.9073 1.8803-3.4952 3.2658 0.41206 1.3802 0.82813 1.2029 0.82813 1.2029s4.162 6.0276 16.232 4.4647c12.069-1.5629 13.742-4.11 13.633-5.3742-0.10935-1.2655-2.6564-2.1883-2.6564-2.1883s-1.8856-6.6464-1.4016-9.3748c0.48408-2.7298 2.323-6.7077 4.1406-7.5639 1.8123-0.86413 2.7191 2.8911 3.6566 1.9643 0.93214-0.92681-1.5736-8.0813-4.3447-8.1373-1.5522-0.03067-5.4128-1.4949-9.6468-0.94281m0.01066 9.1321 0.92148 2.7244 2.7978 0.79212-2.3644 1.6829 0.10402 2.8604-2.3644-1.6829-2.7871 0.97349 0.89614-2.6938-1.7976-2.2604 2.9378-0.02667m-7.7879 5.6369 0.09868 1.9736 1.7656 1.0575-1.907 0.68811-0.47874 1.9536-1.2975-1.5216-2.031 0.13069 1.0882-1.6456-0.77612-1.8496 1.9696 0.51075m9.4441-0.88547 1.891 2.5311 3.1938-0.12535-1.855 2.5631 1.0882 2.9178-3.0631-0.94815-2.5164 1.943-0.02134-3.1458-2.6511-1.7296 3.0365-0.99482" fill="url(#linearGradient884)" id="path11"/></g>
  
</svg>
