<?xml version="1.0" encoding="UTF-8" standalone="no"?>
<svg xmlns:inkscape="http://www.inkscape.org/namespaces/inkscape" xmlns:sodipodi="http://sodipodi.sourceforge.net/DTD/sodipodi-0.dtd" xmlns:xlink="http://www.w3.org/1999/xlink" xmlns="http://www.w3.org/2000/svg" xmlns:svg="http://www.w3.org/2000/svg" xmlns:rdf="http://www.w3.org/1999/02/22-rdf-syntax-ns#" xmlns:cc="http://creativecommons.org/ns#" xmlns:dc="http://purl.org/dc/elements/1.1/" width="64" height="64" version="1.1" viewBox="0 0 64 64" id="svg20" sodipodi:docname="freecad.svg" inkscape:version="1.4.2 (ebf0e940d0, 2025-05-08)" xml:space="preserve">
  
  <defs id="defs10">
    <filter id="filter2761" x="-0.024" y="-0.024" width="1.048" height="1.048" color-interpolation-filters="sRGB">
      <feGaussianBlur stdDeviation="0.14552168" id="feGaussianBlur2"/>
    </filter>
    <linearGradient id="linearGradient1024" x1="1.3315001" x2="15.65" y1="15.576" y2="1.17" gradientUnits="userSpaceOnUse">
      <stop stop-color="#dddfe1" offset="0" id="stop5"/>
      <stop stop-color="#f3f4f6" stop-opacity=".99608" offset="1" id="stop7"/>
    </linearGradient>
    <filter id="filter2761-5" x="-0.024" y="-0.024" width="1.048" height="1.048" color-interpolation-filters="sRGB">
      <feGaussianBlur stdDeviation="0.14552168" id="feGaussianBlur2-35"/>
    </filter>
    <filter id="filter2761-3" x="-0.024" y="-0.024" width="1.048" height="1.048" color-interpolation-filters="sRGB">
      <feGaussianBlur stdDeviation="0.14552168" id="feGaussianBlur4"/>
    </filter>
    <linearGradient id="linearGradient1024-9" x1="1.3315001" x2="15.65" y1="15.576" y2="1.17" gradientTransform="translate(-8.4984e-4,0.14045)" gradientUnits="userSpaceOnUse">
      <stop stop-color="#dddfe1" offset="0" id="stop7-3"/>
      <stop stop-color="#f3f4f6" stop-opacity=".99608" offset="1" id="stop9"/>
    </linearGradient>
    <filter color-interpolation-filters="sRGB" height="1.048" width="1.048" y="-0.024" x="-0.024" id="filter2761-3-3">
      <feGaussianBlur id="feGaussianBlur2-6" stdDeviation="0.14552168"/>
    </filter>
    <linearGradient gradientUnits="userSpaceOnUse" gradientTransform="matrix(3.7796,0,0,3.7796,-0.0026448,0.53066)" y2="1.17" y1="15.576" x2="15.65" x1="1.3315001" id="linearGradient1024-6-7">
      <stop id="stop5-5" offset="0" stop-color="#dddfe1"/>
      <stop id="stop7-7" offset="1" stop-opacity=".99608" stop-color="#f3f4f6"/>
    </linearGradient>
    <filter id="filter2761-36" x="-0.024" y="-0.024" width="1.048" height="1.048" color-interpolation-filters="sRGB">
      <feGaussianBlur stdDeviation="0.14552168" id="feGaussianBlur2-7"/>
    </filter>
    <linearGradient id="a-9" x1="23.487" x2="23.487" y1="15.18" y2="32.912998" gradientTransform="matrix(0.12676,0,0,0.12676,-27.515,6.7925)" gradientUnits="userSpaceOnUse">
      <stop stop-color="#141414" offset="0" id="stop5-53"/>
      <stop stop-color="#30277f" offset="1" id="stop7-56"/>
    </linearGradient>
    <radialGradient id="c-7" cx="24.047001" cy="23.948999" r="2.9867001" gradientTransform="matrix(0.2056,-3.7539e-8,2.8431e-8,0.15571,-39.607,5.456)" gradientUnits="userSpaceOnUse">
      <stop stop-color="#2839e6" offset="0" id="stop10"/>
      <stop stop-opacity="0" offset="1" id="stop12"/>
    </radialGradient>
    <linearGradient id="d-6" x1="361.35999" x2="361.35999" y1="616.07001" y2="722.78998" gradientTransform="matrix(0.0040372,0,0,0.0040372,-25.925,7.1257)" gradientUnits="userSpaceOnUse">
      <stop stop-color="#fff" offset="0" id="stop15"/>
      <stop stop-color="#fff" stop-opacity="0" offset="1" id="stop17"/>
    </linearGradient>
    <radialGradient id="radialGradient123131" cx="-24.473" cy="9.8347998" r="1.1409" gradientTransform="matrix(1.4202,0,0,1.0512,0.054505,-1.1471)" gradientUnits="userSpaceOnUse" xlink:href="#a-9"/>
    <linearGradient id="linearGradient123141" x1="-24.485001" x2="-24.485001" y1="8.6962004" y2="9.7505999" gradientTransform="translate(-10.196,-0.6431)" gradientUnits="userSpaceOnUse" xlink:href="#d-6"/>
    <linearGradient id="linearGradient123149" x1="-24.478001" x2="-24.478001" y1="11.104" y2="8.4912004" gradientTransform="translate(-10.229,-0.6431)" gradientUnits="userSpaceOnUse">
      <stop stop-color="#2d1edc" offset="0" id="stop22"/>
      <stop stop-color="#141414" offset="1" id="stop24"/>
    </linearGradient>
    <radialGradient id="radialGradient123155" cx="-24.473" cy="9.8347998" r="1.1409" gradientTransform="matrix(1.1403,0,0,0.84405,-6.7958,0.89063)" gradientUnits="userSpaceOnUse" xlink:href="#a-9"/>
    <linearGradient id="linearGradient123157" x1="-24.478001" x2="-24.478001" y1="11.104" y2="8.4912004" gradientTransform="matrix(0.8029,0,0,0.8029,-15.053,1.2953)" gradientUnits="userSpaceOnUse" xlink:href="#a-9"/>
    <radialGradient id="radialGradient123159" cx="-24.473" cy="9.8347998" r="1.5211" gradientTransform="matrix(0.93082,0,0,0.93082,-11.889,0.037279)" gradientUnits="userSpaceOnUse">
      <stop stop-color="#291dc0" offset="0" id="stop29"/>
      <stop stop-color="#1b1b23" offset="1" id="stop31"/>
    </radialGradient>
    <linearGradient id="linearGradient123161" x1="361.35999" x2="361.35999" y1="616.07001" y2="722.78998" gradientTransform="matrix(0.0040372,0,0,0.0040372,-36.122,6.4826)" gradientUnits="userSpaceOnUse" xlink:href="#d-6"/>
    <linearGradient id="linearGradient123197" x1="-36.117001" x2="-33.220001" y1="10.638" y2="7.7403998" gradientUnits="userSpaceOnUse">
      <stop offset="0" id="stop35"/>
      <stop stop-opacity="0" offset="1" id="stop37"/>
    </linearGradient>
    <linearGradient id="linearGradient952" x1="-20.384001" x2="-23.271999" y1="6.1331" y2="15.312" gradientUnits="userSpaceOnUse">
      <stop stop-color="#232323" offset="0" id="stop40"/>
      <stop stop-color="#323296" offset=".95004" id="stop42"/>
      <stop stop-color="#232323" offset="1" id="stop44"/>
    </linearGradient>
    <linearGradient id="linearGradient1000" x1="-25.122" x2="-15.582" y1="9.3423996" y2="9.3423996" gradientUnits="userSpaceOnUse">
      <stop stop-color="#407fff" offset="0" id="stop47"/>
      <stop stop-color="#ff407a" offset="1" id="stop49"/>
    </linearGradient>
    <filter color-interpolation-filters="sRGB" height="1.048" width="1.048" y="-0.024" x="-0.024" id="filter2761-3-9">
      <feGaussianBlur id="feGaussianBlur2-3" stdDeviation="0.14552168"/>
    </filter>
    <linearGradient inkscape:collect="always" xlink:href="#linearGradient1051" id="linearGradient1053-0" x1="-127" y1="60" x2="-72" y2="5" gradientUnits="userSpaceOnUse" gradientTransform="translate(131.49999,-0.50999742)"/>
    <linearGradient inkscape:collect="always" id="linearGradient1051">
      <stop style="stop-color:#a4b7bc;stop-opacity:1;" offset="0" id="stop1047"/>
      <stop style="stop-color:#c5c9d8;stop-opacity:0.99607843;" offset="0.99767065" id="stop1049"/>
    </linearGradient>
    <filter inkscape:collect="always" style="color-interpolation-filters:sRGB" id="filter1057-2" x="-0.026999999" width="1.054" y="-0.026999999" height="1.054">
      <feGaussianBlur inkscape:collect="always" stdDeviation="0.61875" id="feGaussianBlur1059-7"/>
    </filter>
  <radialGradient id="gradient_ds_br" cx="0" cy="0" r="1" gradientUnits="userSpaceOnUse" gradientTransform="matrix(13.998399,0.00477622,-0.00477841,14.004799,47.5016,48.4952)">
      <stop offset="0.65" id="stop1"/>
      <stop offset="1" stop-opacity="0" id="stop2"/>
    </radialGradient><linearGradient id="gradient_ds_b" x1="30.448999" y1="48.5" x2="30.492201" y2="62.500301" gradientUnits="userSpaceOnUse">
      <stop offset="0.653846" id="stop3"/>
      <stop offset="1" stop-opacity="0" id="stop4"/>
    </linearGradient><radialGradient id="gradient_ds_bl" cx="0" cy="0" r="1" gradientUnits="userSpaceOnUse" gradientTransform="matrix(0,14,-14,0,16.5,48.5)">
      <stop offset="0.65" id="stop5"/>
      <stop offset="1" stop-opacity="0" id="stop6"/>
    </radialGradient><linearGradient id="gradient_ds_r" x1="47.5" y1="33.5" x2="61.5" y2="33.5009" gradientUnits="userSpaceOnUse">
      <stop offset="0.649038" id="stop7"/>
      <stop offset="1" stop-opacity="0" id="stop8"/>
    </linearGradient><linearGradient id="gradient_ds_l" x1="16.5" y1="33.894699" x2="2.5" y2="33.894699" gradientUnits="userSpaceOnUse">
      <stop offset="0.649038" id="stop9"/>
      <stop offset="1" stop-opacity="0" id="stop10"/>
    </linearGradient><radialGradient id="gradient_ds_tr" cx="0" cy="0" r="1" gradientTransform="matrix(0.00843236,-14,14.0084,0.0189842,47.4916,18.5)" gradientUnits="userSpaceOnUse">
      <stop offset="0.65" id="stop11"/>
      <stop offset="1" stop-opacity="0" id="stop12"/>
    </radialGradient><linearGradient id="gradient_ds_t" x1="29.98" y1="18.5" x2="29.9158" y2="4.4998598" gradientUnits="userSpaceOnUse">
      <stop offset="0.649038" id="stop13"/>
      <stop offset="1" stop-opacity="0" id="stop14"/>
    </linearGradient><radialGradient id="gradient_ds_tl" cx="0" cy="0" r="1" gradientTransform="matrix(-0.00843236,-14,-14.0084,0.0189842,16.5084,18.5)" gradientUnits="userSpaceOnUse">
      <stop offset="0.65" id="stop15"/>
      <stop offset="1" stop-opacity="0" id="stop16"/>
    </radialGradient></defs>
  <metadata id="metadata12">
    <rdf:RDF>
      <cc:Work rdf:about="">
        <dc:format>image/svg+xml</dc:format>
        <dc:type rdf:resource="http://purl.org/dc/dcmitype/StillImage"/>
      </cc:Work>
    </rdf:RDF>
  </metadata>
  
  <g id="ds" opacity="0.25">
    <path id="ds-br" d="m 47.5,48.5 h 14 v 14 h -14 z" fill="url(#gradient_ds_br)" style="fill:url(#gradient_ds_br)"/>
    <path id="ds-b" d="m 16.5,48.5 h 31 v 14 h -31 z" fill="url(#gradient_ds_b)" style="fill:url(#gradient_ds_b)"/>
    <path id="ds-bl" d="m 2.5,48.5 h 14 v 14 h -14 z" fill="url(#gradient_ds_bl)" style="fill:url(#gradient_ds_bl)"/>
    <path id="ds-r" d="m 47.5,18.5 h 14 v 30 h -14 z" fill="url(#gradient_ds_r)" style="fill:url(#gradient_ds_r)"/>
    <path id="ds-l" d="m 2.5,18.5 h 14 v 30 h -14 z" fill="url(#gradient_ds_l)" style="fill:url(#gradient_ds_l)"/>
    <path id="ds-tr" d="m 47.5,4.5 h 14 v 14 h -14 z" fill="url(#gradient_ds_tr)" style="fill:url(#gradient_ds_tr)"/>
    <path id="ds-t" d="m 16.5,4.5 h 31 v 14 h -31 z" fill="url(#gradient_ds_t)" style="fill:url(#gradient_ds_t)"/>
    <path id="ds-tl" d="m 16.5,4.5 h -14 v 14 h 14 z" fill="url(#gradient_ds_tl)" style="fill:url(#gradient_ds_tl)"/>
  </g><rect style="fill:url(#linearGradient1053-0);fill-opacity:1;stroke-width:2.74436;stroke-linecap:round" id="bg" width="55" height="55" x="4.5" y="4.5" rx="10"/>
  <g id="art"><path id="rect1045-0-0" style="fill:#cb333b;fill-opacity:1;stroke-width:2.74436;stroke-linecap:round" d="M 19.49805,4.5000002 C 11.188962,4.5010596 4.5000036,11.190659 4.5000036,19.5 v 25.000002 c 0,1.750969 0.2971523,3.430541 0.843747,4.990231 L 13.666018,41.166015 V 13.666016 H 32 l 9.166015,-9.1660158 z"/><path id="rect1045-0-3" style="fill:#418fde;fill-opacity:1;stroke-width:2.74436;stroke-linecap:round" d="m 50.333939,13.666016 -9.166015,9.167969 H 22.833959 v 6.873046 h 9.166015 v 9.167971 H 22.833959 V 50.33203 l -8.324205,8.324222 c 1.559207,0.546432 3.237917,0.843562 4.98827,0.843747 h 3.451168 c 0.69497,-4e-6 1.310648,-0.448408 1.52539,-1.109374 l 1.65821,-5.105467 c 0.158705,-0.488325 0.542902,-0.870643 1.031249,-1.029299 l 1.275393,-0.414063 c 0.488374,-0.158706 1.022042,-0.07525 1.4375,0.226549 l 4.343745,3.156251 c 0.56222,0.408447 1.324494,0.408443 1.886721,0 l 3.892574,-2.828125 c 0.562284,-0.408469 0.796797,-1.131983 0.582021,-1.792971 l -1.65821,-5.107406 C 38.76508,45.00772 38.850461,44.472097 39.1523,44.05664 l 0.78711,-1.083983 c 0.301801,-0.415423 0.78339,-0.662076 1.296876,-0.66211 l 5.371094,0.002 c 0.695012,2.2e-5 1.310648,-0.448374 1.52539,-1.109374 L 49.619099,36.627 c 0.214719,-0.660947 -0.01965,-1.386444 -0.582032,-1.794922 l -4.343746,-3.15625 C 44.277879,31.37395 44.031203,30.892417 44.031214,30.378907 V 29.03711 c 4.6e-5,-0.513498 0.246619,-0.995084 0.662107,-1.296875 l 4.978511,-3.619141 c 0.415427,-0.301828 0.662107,-0.783376 0.662107,-1.296875 z"/><path id="rect1045-0-3-7" style="fill:#ff585d;fill-opacity:1;stroke-width:2.74436;stroke-linecap:round" d="m 41.165974,4.5000002 -9.166,9.1660158 h 9.166 v 9.167969 l 9.167972,-9.167969 V 5.6679686 C 48.543073,4.9154945 46.572411,4.5002742 44.501915,4.5000002 h -0.002 z M 13.666003,41.166015 5.3437393,49.490233 c 1.5009442,4.28283 4.8831887,7.665071 9.1660187,9.166019 l 8.324201,-8.322268 h -9.167956 z"/><path d="M 13.666635,50.332744 H 22.83388 V 38.875149 h 9.166071 v -9.16726 H 22.833868 V 22.833335 H 41.167183 V 13.666078 H 13.666642 Z" style="fill:#fefefe;fill-opacity:1;fill-rule:evenodd;stroke:none;stroke-width:6.06301;stroke-linecap:square" id="path9-8"/></g>
  
  
  
</svg>
