<?xml version="1.0" encoding="UTF-8" standalone="no"?>
<svg xmlns:inkscape="http://www.inkscape.org/namespaces/inkscape" xmlns:sodipodi="http://sodipodi.sourceforge.net/DTD/sodipodi-0.dtd" xmlns="http://www.w3.org/2000/svg" xmlns:svg="http://www.w3.org/2000/svg" xmlns:rdf="http://www.w3.org/1999/02/22-rdf-syntax-ns#" xmlns:cc="http://creativecommons.org/ns#" xmlns:dc="http://purl.org/dc/elements/1.1/" width="64" height="64" version="1.1" viewBox="0 0 64 64" id="svg6" sodipodi:docname="gtkhash.svg" inkscape:version="1.4.2 (ebf0e940d0, 2025-05-08)">
  <metadata id="metadata1">
    <rdf:RDF>
      <cc:Work rdf:about="">
        <dc:format>image/svg+xml</dc:format>
        <dc:type rdf:resource="http://purl.org/dc/dcmitype/StillImage"/>
      </cc:Work>
    </rdf:RDF>
  </metadata>
  <defs id="defs2">
    <filter id="filter1057" x="-0.026999999" y="-0.026999999" width="1.054" height="1.054" color-interpolation-filters="sRGB">
      <feGaussianBlur stdDeviation="0.61875" id="feGaussianBlur1"/>
    </filter>
    <linearGradient id="linearGradient1053" x1="-127" x2="-72" y1="60" y2="5" gradientTransform="matrix(1.0000071,0,0,1.0000071,131.49991,-0.5099817)" gradientUnits="userSpaceOnUse">
      <stop stop-color="#dee0e2" offset="0" id="stop1"/>
      <stop stop-color="#f1f3f5" stop-opacity=".99608" offset="1" id="stop2"/>
    </linearGradient>
    <filter id="filter1057-7" x="-0.026999999" y="-0.026999999" width="1.054" height="1.054" color-interpolation-filters="sRGB">
      <feGaussianBlur stdDeviation="0.61875" id="feGaussianBlur1-5"/>
    </filter>
  <radialGradient id="gradient_ds_br" cx="0" cy="0" r="1" gradientUnits="userSpaceOnUse" gradientTransform="matrix(13.998399,0.00477622,-0.00477841,14.004799,47.5016,48.4952)">
      <stop offset="0.65" id="stop1"/>
      <stop offset="1" stop-opacity="0" id="stop2"/>
    </radialGradient><linearGradient id="gradient_ds_b" x1="30.448999" y1="48.5" x2="30.492201" y2="62.500301" gradientUnits="userSpaceOnUse">
      <stop offset="0.653846" id="stop3"/>
      <stop offset="1" stop-opacity="0" id="stop4"/>
    </linearGradient><radialGradient id="gradient_ds_bl" cx="0" cy="0" r="1" gradientUnits="userSpaceOnUse" gradientTransform="matrix(0,14,-14,0,16.5,48.5)">
      <stop offset="0.65" id="stop5"/>
      <stop offset="1" stop-opacity="0" id="stop6"/>
    </radialGradient><linearGradient id="gradient_ds_r" x1="47.5" y1="33.5" x2="61.5" y2="33.5009" gradientUnits="userSpaceOnUse">
      <stop offset="0.649038" id="stop7"/>
      <stop offset="1" stop-opacity="0" id="stop8"/>
    </linearGradient><linearGradient id="gradient_ds_l" x1="16.5" y1="33.894699" x2="2.5" y2="33.894699" gradientUnits="userSpaceOnUse">
      <stop offset="0.649038" id="stop9"/>
      <stop offset="1" stop-opacity="0" id="stop10"/>
    </linearGradient><radialGradient id="gradient_ds_tr" cx="0" cy="0" r="1" gradientTransform="matrix(0.00843236,-14,14.0084,0.0189842,47.4916,18.5)" gradientUnits="userSpaceOnUse">
      <stop offset="0.65" id="stop11"/>
      <stop offset="1" stop-opacity="0" id="stop12"/>
    </radialGradient><linearGradient id="gradient_ds_t" x1="29.98" y1="18.5" x2="29.9158" y2="4.4998598" gradientUnits="userSpaceOnUse">
      <stop offset="0.649038" id="stop13"/>
      <stop offset="1" stop-opacity="0" id="stop14"/>
    </linearGradient><radialGradient id="gradient_ds_tl" cx="0" cy="0" r="1" gradientTransform="matrix(-0.00843236,-14,-14.0084,0.0189842,16.5084,18.5)" gradientUnits="userSpaceOnUse">
      <stop offset="0.65" id="stop15"/>
      <stop offset="1" stop-opacity="0" id="stop16"/>
    </radialGradient></defs>
  
  <g id="ds" opacity="0.25">
    <path id="ds-br" d="m 47.5,48.5 h 14 v 14 h -14 z" fill="url(#gradient_ds_br)" style="fill:url(#gradient_ds_br)"/>
    <path id="ds-b" d="m 16.5,48.5 h 31 v 14 h -31 z" fill="url(#gradient_ds_b)" style="fill:url(#gradient_ds_b)"/>
    <path id="ds-bl" d="m 2.5,48.5 h 14 v 14 h -14 z" fill="url(#gradient_ds_bl)" style="fill:url(#gradient_ds_bl)"/>
    <path id="ds-r" d="m 47.5,18.5 h 14 v 30 h -14 z" fill="url(#gradient_ds_r)" style="fill:url(#gradient_ds_r)"/>
    <path id="ds-l" d="m 2.5,18.5 h 14 v 30 h -14 z" fill="url(#gradient_ds_l)" style="fill:url(#gradient_ds_l)"/>
    <path id="ds-tr" d="m 47.5,4.5 h 14 v 14 h -14 z" fill="url(#gradient_ds_tr)" style="fill:url(#gradient_ds_tr)"/>
    <path id="ds-t" d="m 16.5,4.5 h 31 v 14 h -31 z" fill="url(#gradient_ds_t)" style="fill:url(#gradient_ds_t)"/>
    <path id="ds-tl" d="m 16.5,4.5 h -14 v 14 h 14 z" fill="url(#gradient_ds_tl)" style="fill:url(#gradient_ds_tl)"/>
  </g><rect x="4.5" y="4.5" width="55" height="55" fill="url(#linearGradient1053)" stroke-linecap="round" stroke-width="2.74437" id="bg" style="fill:url(#linearGradient1053)" rx="10"/>
  <g transform="matrix(1.889801,0,0,1.889801,3.8415875,-5.1043525)" id="art">
    <path d="m 6.8242,13.722 8.0761,2.9898 v 11.416 l -8.0761,-3.681 z" fill="#ff3333" fill-opacity="0.83182" id="path3"/>
    <path d="m 22.976,13.722 -8.0761,2.9898 v 11.416 l 8.0761,-3.681 z" fill="#34ba0f" fill-opacity="0.62273" id="path4"/>
    <path d="M 14.9,11.14 6.8243,13.7215 14.9,16.7318 22.9757,13.7215 Z" fill="#0095f1" fill-opacity="0.80909" id="path5"/>
    <path d="m 18.734,15.197 a 0.75771,0.75771 0 0 0 -0.59738,0.46715 l -0.77101,1.9146 -2.4655,-0.0021 0.54209,-1.3462 a 0.75771,0.75771 0 0 0 -0.42013,-0.98599 0.75771,0.75771 0 0 0 -0.98547,0.41961 l -0.76946,1.911 -2.2071,-0.0021 a 0.75771,0.75771 0 0 0 -0.75861,0.75654 0.75771,0.75771 0 0 0 0.75758,0.75913 l 1.5978,0.0016 -0.66508,1.6505 -1.7834,-0.0016 a 0.75771,0.75771 0 0 0 -0.75861,0.75654 0.75771,0.75771 0 0 0 0.75654,0.75861 l 1.1756,10e-4 -0.58446,1.4511 a 0.75771,0.75771 0 0 0 0.4191,0.98702 0.75771,0.75771 0 0 0 0.98599,-0.42065 l 0.81235,-2.0159 2.466,0.0021 -0.58291,1.4475 a 0.75771,0.75771 0 0 0 0.42013,0.98702 0.75771,0.75771 0 0 0 0.98547,-0.42065 l 0.81029,-2.0123 1.7627,0.0016 a 0.75771,0.75771 0 0 0 0.75861,-0.75654 0.75771,0.75771 0 0 0 -0.75654,-0.75861 l -1.1545,-0.001 0.66456,-1.6505 1.3405,0.001 a 0.75771,0.75771 0 0 0 0.75861,-0.75713 0.75771,0.75771 0 0 0 -0.75758,-0.75861 l -0.73122,-5.02e-4 0.54364,-1.3498 a 0.75771,0.75771 0 0 0 -0.4191,-0.98599 0.75771,0.75771 0 0 0 -0.38964,-0.04754 z m -4.4442,3.8949 2.4655,0.0021 -0.66456,1.6505 -2.466,-0.0021 z" color="#000000" fill="#ffffff" stroke-linecap="round" stroke-width="1.5154" id="path6"/>
  </g>
</svg>
