<?xml version="1.0" encoding="UTF-8" standalone="no"?>
<svg xmlns:inkscape="http://www.inkscape.org/namespaces/inkscape" xmlns:sodipodi="http://sodipodi.sourceforge.net/DTD/sodipodi-0.dtd" xmlns:xlink="http://www.w3.org/1999/xlink" xmlns="http://www.w3.org/2000/svg" xmlns:svg="http://www.w3.org/2000/svg" xmlns:rdf="http://www.w3.org/1999/02/22-rdf-syntax-ns#" xmlns:cc="http://creativecommons.org/ns#" xmlns:dc="http://purl.org/dc/elements/1.1/" width="64" height="64" version="1.1" viewBox="0 0 64 64" id="svg165" sodipodi:docname="keyring-manager.svg" inkscape:version="1.4.2 (ebf0e940d0, 2025-05-08)">
  <sodipodi:namedview id="namedview1" pagecolor="#ffffff" bordercolor="#000000" borderopacity="0.25" inkscape:showpageshadow="2" inkscape:pageopacity="0.0" inkscape:pagecheckerboard="0" inkscape:deskcolor="#d1d1d1" inkscape:current-layer="svg165"/>
  <metadata id="metadata169">
    <rdf:RDF>
      <cc:Work rdf:about="">
        <dc:format>image/svg+xml</dc:format>
        <dc:type rdf:resource="http://purl.org/dc/dcmitype/StillImage"/>
      </cc:Work>
    </rdf:RDF>
  </metadata>
  <defs id="defs59">
    <radialGradient id="radialGradient4514" cx="259.51999" cy="558.96997" r="34" gradientTransform="matrix(0.13229,7.0808e-8,-7.0808e-8,0.13229,-25.865,-65.479)" gradientUnits="userSpaceOnUse">
      <stop stop-color="#1e457b" offset="0" id="stop2"/>
      <stop stop-color="#1e457d" offset=".72383" id="stop4"/>
      <stop stop-color="#479ff0" offset=".80104" id="stop6"/>
      <stop stop-color="#479fef" offset=".94118" id="stop8"/>
      <stop stop-color="#2869b6" offset="1" id="stop10"/>
    </radialGradient>
    <linearGradient id="linearGradient1019" x1="16.933001" x2="16.933001" y1="291.12" y2="268.25" gradientTransform="matrix(0.37024,0,0,0.37024,2.1972,-95.084)" gradientUnits="userSpaceOnUse">
      <stop stop-color="#112b53" offset="0" id="stop13"/>
      <stop stop-color="#47a0f0" offset="1" id="stop15"/>
    </linearGradient>
    <linearGradient id="linearGradient1033" x1="16.933001" x2="16.933001" y1="288.26001" y2="271.87" gradientTransform="matrix(0.37024,0,0,0.37024,2.1972,-95.084)" gradientUnits="userSpaceOnUse">
      <stop stop-color="#e5e5e5" offset="0" id="stop18"/>
      <stop stop-color="#f1f1f1" offset="1" id="stop20"/>
    </linearGradient>
    <linearGradient id="linearGradient4590" x1="47.902" x2="47.902" y1="1016.9" y2="991.52002" gradientTransform="matrix(0.067902,0,0,0.067902,-12.691,-12.309)" gradientUnits="userSpaceOnUse">
      <stop stop-color="#fff" offset="0" id="stop23"/>
      <stop stop-color="#fff" stop-opacity="0" offset="1" id="stop25"/>
    </linearGradient>
    <linearGradient id="linearGradient4574" x1="48.542999" x2="48.542999" y1="1016.1" y2="993.67999" gradientTransform="matrix(0.067902,0,0,0.067902,-12.691,-12.309)" gradientUnits="userSpaceOnUse">
      <stop stop-color="#d6d6d6" offset="0" id="stop28"/>
      <stop stop-color="#d0d0d0" offset="1" id="stop30"/>
    </linearGradient>
    <linearGradient id="linearGradient1011" x1="31.806999" x2="31.806999" y1="26.917999" y2="36.986" gradientTransform="matrix(0.26458,0,0,0.26458,1.0943e-5,0.0010373)" gradientUnits="userSpaceOnUse">
      <stop offset="0" id="stop33"/>
      <stop stop-opacity=".5" offset="1" id="stop35"/>
    </linearGradient>
    <linearGradient id="linearGradient4612" x1="299.73999" x2="323.45999" y1="304.59" y2="304.59" gradientTransform="matrix(0.066934,0,0,0.066423,-12.39,-11.5)" gradientUnits="userSpaceOnUse">
      <stop stop-color="#1a1d1e" offset="0" id="stop38"/>
      <stop stop-color="#282d30" offset=".16667" id="stop40"/>
      <stop stop-color="#34393d" offset=".50565" id="stop42"/>
      <stop stop-color="#2a2e32" offset=".83333" id="stop44"/>
      <stop stop-color="#1b1d1f" offset="1" id="stop46"/>
    </linearGradient>
    <linearGradient id="linearGradient1009" x1="8.3430004" x2="8.3430004" y1="13.824" y2="3.3543999" gradientUnits="userSpaceOnUse">
      <stop stop-color="#ccc" offset="0" id="stop49"/>
      <stop stop-color="#fff" stop-opacity=".99204" offset="1" id="stop51"/>
    </linearGradient>
    <linearGradient id="linearGradient1000" x1="8.5867004" x2="8.5867004" y1="15.747" y2="1.0975" gradientUnits="userSpaceOnUse">
      <stop stop-color="#333" offset="0" id="stop54"/>
      <stop stop-color="#808080" offset="1" id="stop56"/>
    </linearGradient>
    <filter id="filter2761" x="-0.024" y="-0.024" width="1.048" height="1.048" color-interpolation-filters="sRGB">
      <feGaussianBlur stdDeviation="0.14552168" id="feGaussianBlur994"/>
    </filter>
    <linearGradient id="linearGradient1024-1" x1="1.3315001" x2="15.65" y1="15.576" y2="1.17" gradientTransform="translate(-18.124622,0.06624016)" gradientUnits="userSpaceOnUse">
      <stop stop-color="#00c8ff" offset="0" id="stop997"/>
      <stop stop-color="#14a0ff" offset="1" id="stop999"/>
    </linearGradient>
    <filter id="filter951" x="-0.10129423" y="-0.071750365" width="1.2025886" height="1.1435007" color-interpolation-filters="sRGB">
      <feGaussianBlur stdDeviation="15.306655" id="feGaussianBlur1002"/>
    </filter>
    <linearGradient id="b" x1="45.627998" x2="45.627998" y1="57.955002" y2="12.461" gradientUnits="userSpaceOnUse">
      <stop offset="0" id="stop2-3"/>
      <stop stop-opacity="0" offset="1" id="stop4-6"/>
    </linearGradient>
    <linearGradient gradientUnits="userSpaceOnUse" gradientTransform="matrix(2.1429,0,0,2.1429,-826.37898,-1107.544)" y2="517.79999" y1="545.79999" x2="399.57001" x1="399.57001" id="b-3">
      <stop id="stop850" offset="0" stop-color="#3889e9"/>
      <stop id="stop852" offset="1" stop-color="#5ea5fb"/>
    </linearGradient>
    <linearGradient gradientUnits="userSpaceOnUse" gradientTransform="matrix(0.26457812,0,0,0.26457812,-31.030853,-6.0244504)" y2="1.6691999" y1="61.873001" x2="32.431" x1="32.431" id="linearGradient1001">
      <stop id="stop855" offset="0" stop-color="#1d2123"/>
      <stop id="stop857" offset="1" stop-color="#33393e"/>
    </linearGradient>
    <linearGradient id="linearGradient1057">
      <stop id="stop4-3" offset="0" stop-color="#fff"/>
      <stop id="stop6-7" offset="1" stop-opacity="0" stop-color="#fff"/>
    </linearGradient>
    <linearGradient gradientUnits="userSpaceOnUse" gradientTransform="matrix(1.5625,0,0,1.5625,0.40633,-5.1891)" y2="52.847" y1="27.545" x2="34.999001" x1="34.999001" id="linearGradient982">
      <stop id="stop9" offset="0" stop-color="#32b4ff"/>
      <stop id="stop11" offset="1" stop-color="#3287ff"/>
    </linearGradient>
    
    
    <linearGradient gradientUnits="userSpaceOnUse" gradientTransform="matrix(1.5625,0,0,1.5625,-9.2253,1.3231)" y2="43.681" y1="18.052" x2="21.313999" x1="21.313999" id="linearGradient1047">
      <stop id="stop18-5" offset="0" stop-color="#14dc78"/>
      <stop id="stop20-3" offset="1" stop-color="#14a03c"/>
    </linearGradient>
    <linearGradient gradientUnits="userSpaceOnUse" gradientTransform="matrix(1.5625,0,0,1.5625,-8.1072,-10.908)" y2="37.368" y1="12.316" x2="41.729" x1="41.729" id="linearGradient1049">
      <stop id="stop23-5" offset="0" stop-color="#ff3c64"/>
      <stop id="stop25-6" offset="1" stop-color="#ff4628"/>
    </linearGradient>
    <linearGradient xlink:href="#linearGradient1057" gradientUnits="userSpaceOnUse" gradientTransform="matrix(1,0,0,1.2271,0.20646,-10.975)" y2="39.768002" y1="32.234001" x2="34.426998" x1="34.426998" id="linearGradient1059"/>
    <linearGradient xlink:href="#linearGradient1057" gradientUnits="userSpaceOnUse" gradientTransform="matrix(1,0,0,1.2271,-12.55,-19.793)" y2="39.768002" y1="32.234001" x2="34.426998" x1="34.426998" id="linearGradient1063"/>
    <linearGradient xlink:href="#linearGradient1057" gradientUnits="userSpaceOnUse" gradientTransform="matrix(1,0,0,1.2271,5.7554,-25.761)" y2="39.768002" y1="32.234001" x2="34.426998" x1="34.426998" id="linearGradient1067"/>
    <filter color-interpolation-filters="sRGB" height="1.048" width="1.048" y="-0.024" x="-0.024" id="filter2761-2">
      <feGaussianBlur id="feGaussianBlur31" stdDeviation="0.14552168"/>
    </filter>
    <linearGradient gradientUnits="userSpaceOnUse" gradientTransform="matrix(3.7796,0,0,3.7796,72.4059,0.53085)" y2="1.17" y1="15.576" x2="15.65" x1="1.3315001" id="linearGradient1024">
      <stop id="stop34" offset="0" stop-color="#dddfe1"/>
      <stop id="stop36" offset="1" stop-opacity=".99608" stop-color="#f3f4f6"/>
    </linearGradient>
    <filter color-interpolation-filters="sRGB" height="1.048" width="1.048" y="-0.024" x="-0.024" id="filter2761-3">
      <feGaussianBlur id="feGaussianBlur2" stdDeviation="0.14552168"/>
    </filter>
    <linearGradient gradientUnits="userSpaceOnUse" gradientTransform="translate(0,-0.07421)" y2="1.17" y1="15.576" x2="15.65" x1="1.3315001" id="linearGradient1024-6">
      <stop id="stop5" offset="0" stop-color="#dddfe1"/>
      <stop id="stop7" offset="1" stop-opacity=".99608" stop-color="#f3f4f6"/>
    </linearGradient>
    <filter id="filter951-3" x="-0.10129423" y="-0.071750365" width="1.2025885" height="1.1435007" color-interpolation-filters="sRGB">
      <feGaussianBlur stdDeviation="15.306655" id="feGaussianBlur1002-6"/>
    </filter>
    <linearGradient inkscape:collect="always" xlink:href="#linearGradient1051" id="linearGradient1053" x1="-127" y1="60" x2="-72" y2="5" gradientUnits="userSpaceOnUse" gradientTransform="translate(131.5,-0.05415614)"/>
    <linearGradient inkscape:collect="always" id="linearGradient1051">
      <stop style="stop-color:#1d2123;stop-opacity:1" offset="0" id="stop1047"/>
      <stop style="stop-color:#33393e;stop-opacity:0.99607843" offset="1" id="stop1049"/>
    </linearGradient>
    <filter inkscape:collect="always" style="color-interpolation-filters:sRGB" id="filter1057" x="-0.026999999" width="1.054" y="-0.026999999" height="1.054">
      <feGaussianBlur inkscape:collect="always" stdDeviation="0.61875" id="feGaussianBlur1059"/>
    </filter>
  <radialGradient id="gradient_ds_br" cx="0" cy="0" r="1" gradientUnits="userSpaceOnUse" gradientTransform="matrix(13.998399,0.00477622,-0.00477841,14.004799,47.5016,48.4952)">
      <stop offset="0.65" id="stop1"/>
      <stop offset="1" stop-opacity="0" id="stop2"/>
    </radialGradient><linearGradient id="gradient_ds_b" x1="30.448999" y1="48.5" x2="30.492201" y2="62.500301" gradientUnits="userSpaceOnUse">
      <stop offset="0.653846" id="stop3"/>
      <stop offset="1" stop-opacity="0" id="stop4"/>
    </linearGradient><radialGradient id="gradient_ds_bl" cx="0" cy="0" r="1" gradientUnits="userSpaceOnUse" gradientTransform="matrix(0,14,-14,0,16.5,48.5)">
      <stop offset="0.65" id="stop5"/>
      <stop offset="1" stop-opacity="0" id="stop6"/>
    </radialGradient><linearGradient id="gradient_ds_r" x1="47.5" y1="33.5" x2="61.5" y2="33.5009" gradientUnits="userSpaceOnUse">
      <stop offset="0.649038" id="stop7"/>
      <stop offset="1" stop-opacity="0" id="stop8"/>
    </linearGradient><linearGradient id="gradient_ds_l" x1="16.5" y1="33.894699" x2="2.5" y2="33.894699" gradientUnits="userSpaceOnUse">
      <stop offset="0.649038" id="stop9"/>
      <stop offset="1" stop-opacity="0" id="stop10"/>
    </linearGradient><radialGradient id="gradient_ds_tr" cx="0" cy="0" r="1" gradientTransform="matrix(0.00843236,-14,14.0084,0.0189842,47.4916,18.5)" gradientUnits="userSpaceOnUse">
      <stop offset="0.65" id="stop11"/>
      <stop offset="1" stop-opacity="0" id="stop12"/>
    </radialGradient><linearGradient id="gradient_ds_t" x1="29.98" y1="18.5" x2="29.9158" y2="4.4998598" gradientUnits="userSpaceOnUse">
      <stop offset="0.649038" id="stop13"/>
      <stop offset="1" stop-opacity="0" id="stop14"/>
    </linearGradient><radialGradient id="gradient_ds_tl" cx="0" cy="0" r="1" gradientTransform="matrix(-0.00843236,-14,-14.0084,0.0189842,16.5084,18.5)" gradientUnits="userSpaceOnUse">
      <stop offset="0.65" id="stop15"/>
      <stop offset="1" stop-opacity="0" id="stop16"/>
    </radialGradient></defs>
  
  <g id="ds" opacity="0.25">
    <path id="ds-br" d="m 47.5,48.5 h 14 v 14 h -14 z" fill="url(#gradient_ds_br)" style="fill:url(#gradient_ds_br)"/>
    <path id="ds-b" d="m 16.5,48.5 h 31 v 14 h -31 z" fill="url(#gradient_ds_b)" style="fill:url(#gradient_ds_b)"/>
    <path id="ds-bl" d="m 2.5,48.5 h 14 v 14 h -14 z" fill="url(#gradient_ds_bl)" style="fill:url(#gradient_ds_bl)"/>
    <path id="ds-r" d="m 47.5,18.5 h 14 v 30 h -14 z" fill="url(#gradient_ds_r)" style="fill:url(#gradient_ds_r)"/>
    <path id="ds-l" d="m 2.5,18.5 h 14 v 30 h -14 z" fill="url(#gradient_ds_l)" style="fill:url(#gradient_ds_l)"/>
    <path id="ds-tr" d="m 47.5,4.5 h 14 v 14 h -14 z" fill="url(#gradient_ds_tr)" style="fill:url(#gradient_ds_tr)"/>
    <path id="ds-t" d="m 16.5,4.5 h 31 v 14 h -31 z" fill="url(#gradient_ds_t)" style="fill:url(#gradient_ds_t)"/>
    <path id="ds-tl" d="m 16.5,4.5 h -14 v 14 h 14 z" fill="url(#gradient_ds_tl)" style="fill:url(#gradient_ds_tl)"/>
  </g><rect style="fill:url(#linearGradient1053);fill-opacity:1;stroke-width:2.74436;stroke-linecap:round" id="bg" width="55" height="55" x="4.5" y="4.5" rx="10"/>
  <g id="art"><g transform="matrix(0.06794213,0,0,0.06794213,14.60657,14.606919)" fill="#0f9bff" filter="url(#filter951)" id="g1215" style="filter:url(#filter951-3)">
    <path d="M 256,0 C 179.456,0.094 117.43,62.122 117.33,138.67 v 85.333 c 0,5.891 4.776,10.667 10.667,10.667 h 42.667 c 5.891,0 10.667,-4.776 10.667,-10.667 V 138.67 c -10e-4,-41.238 33.429,-74.667 74.666,-74.667 41.237,0 74.667,33.429 74.667,74.667 v 85.333 c 0,5.891 4.776,10.667 10.667,10.667 h 42.666 c 5.891,0 10.667,-4.776 10.667,-10.667 V 138.67 C 394.57,62.125 332.541,0.1 255.994,0 Z" id="path1209" style="fill:#ffffff;fill-opacity:1"/>
    <path d="m 128,213.33 h 256 c 29.455,0 53.333,23.878 53.333,53.333 v 192 c 0,29.456 -23.878,53.334 -53.333,53.334 H 128 c -29.455,0 -53.333,-23.878 -53.333,-53.333 v -192 c 0,-29.456 23.878,-53.334 53.333,-53.334 z" id="path1211" style="fill:#ffffff;fill-opacity:1"/>
    <path d="m 309.33,330.67 c 0.124,-29.455 -23.653,-53.434 -53.108,-53.558 -29.455,-0.124 -53.434,23.653 -53.558,53.108 -0.086,20.36 11.427,38.992 29.674,48.023 l -8.235,57.6 c -0.825,5.833 3.235,11.23 9.068,12.055 0.494,0.07 0.993,0.105 1.492,0.105 h 42.667 c 5.891,0.06 10.715,-4.667 10.774,-10.558 0.005,-0.543 -0.03,-1.086 -0.108,-1.623 l -8.235,-57.6 c 18.024,-9.02 29.452,-27.399 29.569,-47.552 z" id="path1213"/>
  </g><g transform="matrix(0.06794213,0,0,0.06794213,14.606816,14.606918)" id="g1223">
    <path d="M 256,0 C 179.456,0.094 117.43,62.122 117.33,138.67 v 85.333 c 0,5.891 4.776,10.667 10.667,10.667 h 42.667 c 5.891,0 10.667,-4.776 10.667,-10.667 V 138.67 c -10e-4,-41.238 33.429,-74.667 74.666,-74.667 41.237,0 74.667,33.429 74.667,74.667 v 85.333 c 0,5.891 4.776,10.667 10.667,10.667 h 42.666 c 5.891,0 10.667,-4.776 10.667,-10.667 V 138.67 C 394.57,62.125 332.541,0.1 255.994,0 Z" fill="#b4e1ff" id="path1217" style="opacity:0.6;fill:#ffffff;fill-opacity:1"/>
    <path d="m 128,213.33 h 256 c 29.455,0 53.333,23.878 53.333,53.333 v 192 c 0,29.456 -23.878,53.334 -53.333,53.334 H 128 c -29.455,0 -53.333,-23.878 -53.333,-53.333 v -192 c 0,-29.456 23.878,-53.334 53.333,-53.334 z" fill="#ffffff" id="path1219"/>
    <path style="color:#000000;font-style:normal;font-variant:normal;font-weight:normal;font-stretch:normal;font-size:medium;line-height:normal;font-family:sans-serif;font-variant-ligatures:normal;font-variant-position:normal;font-variant-caps:normal;font-variant-numeric:normal;font-variant-alternates:normal;font-variant-east-asian:normal;font-feature-settings:normal;font-variation-settings:normal;text-indent:0;text-align:start;text-decoration:none;text-decoration-line:none;text-decoration-style:solid;text-decoration-color:#000000;letter-spacing:normal;word-spacing:normal;text-transform:none;writing-mode:lr-tb;direction:ltr;text-orientation:mixed;dominant-baseline:auto;baseline-shift:baseline;text-anchor:start;white-space:normal;shape-padding:0;shape-margin:0;inline-size:0;clip-rule:nonzero;display:inline;overflow:visible;visibility:visible;opacity:1;isolation:auto;mix-blend-mode:normal;color-interpolation:sRGB;color-interpolation-filters:linearRGB;solid-color:#000000;solid-opacity:1;vector-effect:none;fill:#2b3034;fill-opacity:0.996078;fill-rule:nonzero;stroke:none;stroke-width:1;stroke-linecap:butt;stroke-linejoin:miter;stroke-miterlimit:4;stroke-dasharray:none;stroke-dashoffset:0;stroke-opacity:1;color-rendering:auto;image-rendering:auto;shape-rendering:auto;text-rendering:auto;enable-background:accumulate;stop-color:#000000;stop-opacity:1" d="m 309.33,330.67 c 0.124,-29.455 -23.653,-53.434 -53.108,-53.558 -29.455,-0.124 -53.434,23.653 -53.558,53.108 -0.086,20.36 11.427,38.992 29.674,48.023 l -8.235,57.6 c -0.825,5.833 3.235,11.23 9.068,12.055 0.494,0.07 0.993,0.105 1.492,0.105 h 42.667 c 5.891,0.06 10.715,-4.667 10.774,-10.558 0.005,-0.543 -0.03,-1.086 -0.108,-1.623 l -8.235,-57.6 c 18.024,-9.02 29.452,-27.399 29.569,-47.552 z" id="path1221"/>
  </g></g>
  
</svg>
