<?xml version="1.0" encoding="UTF-8" standalone="no"?>
<svg xmlns:inkscape="http://www.inkscape.org/namespaces/inkscape" xmlns:sodipodi="http://sodipodi.sourceforge.net/DTD/sodipodi-0.dtd" xmlns:xlink="http://www.w3.org/1999/xlink" xmlns="http://www.w3.org/2000/svg" xmlns:svg="http://www.w3.org/2000/svg" xmlns:rdf="http://www.w3.org/1999/02/22-rdf-syntax-ns#" xmlns:cc="http://creativecommons.org/ns#" xmlns:dc="http://purl.org/dc/elements/1.1/" inkscape:version="1.1.1 (3bf5ae0d25, 2021-09-20)" sodipodi:docname="org.telegram.desktop.svg" id="svg25" viewBox="0 0 64 64" version="1.1" height="64" width="64">
  <metadata id="metadata29">
    <rdf:RDF>
      <cc:Work rdf:about="">
        <dc:format>image/svg+xml</dc:format>
        <dc:type rdf:resource="http://purl.org/dc/dcmitype/StillImage"/>
        <dc:title/>
      </cc:Work>
    </rdf:RDF>
  </metadata>
  <defs id="defs7">
    <linearGradient inkscape:collect="always" id="linearGradient917">
      <stop style="stop-color:#294d73;stop-opacity:1;" offset="0" id="stop913"/>
      <stop style="stop-color:#192e45;stop-opacity:1" offset="1" id="stop915"/>
    </linearGradient>
    <linearGradient gradientUnits="userSpaceOnUse" gradientTransform="matrix(0.05623,0,0,0.05623,0.071601,-0.05278)" y2="160" y1="120" x2="160" x1="135" id="a">
      <stop id="stop2" offset="0" stop-color="#eff7fc"/>
      <stop id="stop4" offset="1" stop-color="#fff"/>
    </linearGradient>
    <filter id="filter2761" x="-.024" y="-.024" width="1.048" height="1.048" color-interpolation-filters="sRGB">
      <feGaussianBlur stdDeviation="0.14552168" id="feGaussianBlur854"/>
    </filter>
    <linearGradient id="linearGradient1024-1" x1="1.3315" x2="15.65" y1="15.576" y2="1.17" gradientTransform="matrix(3.779602,0,0,3.779602,-6.8543425,-22.411134)" gradientUnits="userSpaceOnUse">
      <stop stop-color="#00c8ff" offset="0" id="stop857"/>
      <stop stop-color="#14a0ff" offset="1" id="stop859"/>
    </linearGradient>
    <filter id="filter1655" x="-.0735" y="-.098" width="1.147" height="1.196" color-interpolation-filters="sRGB">
      <feGaussianBlur stdDeviation="0.32410824" id="feGaussianBlur862"/>
    </filter>
    <linearGradient id="linearGradient1005" x1=".73911" x2="16.388" y1="16.296" y2=".64687" gradientTransform="matrix(3.7795018,0,0,3.7795018,86.300388,-73.914204)" gradientUnits="userSpaceOnUse">
      <stop stop-color="#00a0ff" offset="0" id="stop912"/>
      <stop stop-color="#37beff" offset="1" id="stop914"/>
    </linearGradient>
    <linearGradient id="w" x1="123.64" x2="146.53" y1="131.03" y2="174.71" gradientTransform="matrix(4.2812,0,0,3.5908,41,42)" gradientUnits="userSpaceOnUse">
      <stop stop-color="#fafafa" offset="0" id="stop917"/>
      <stop stop-color="#fff" offset="1" id="stop919"/>
    </linearGradient>
    <filter id="filter1152" x="-0.055255153" y="-0.0656407" width="1.1105103" height="1.1312814" color-interpolation-filters="sRGB">
      <feGaussianBlur stdDeviation="2.9934784" id="feGaussianBlur922"/>
    </filter>
    
    <filter id="filter1057" x="-0.026999999" y="-0.026999999" width="1.054" height="1.054" color-interpolation-filters="sRGB">
      <feGaussianBlur stdDeviation="0.61875" id="feGaussianBlur866"/>
    </filter>
    <linearGradient id="linearGradient1053" x1="-127" x2="-72" y1="60" y2="5" gradientTransform="translate(131.50001,-0.51)" gradientUnits="userSpaceOnUse">
      <stop stop-color="#32d7ff" offset="0" id="stop869"/>
      <stop stop-color="#329bff" offset="1" id="stop871"/>
    </linearGradient>
    
    
    
    
    
    
    
    <path id="SVGID_61_" d="M309.4,297.7c5.7-6.4,11.2-13.6,16.3-22.1"/>
    <path id="SVGID_60_" d="M74.3,275.6c5.1,8.5,10.6,15.7,16.2,22"/>
    <path id="SVGID_59_" d="M53.5,203.2c0.1,6.7,0.7,13.4,1.8,20l0,0l0,0l0,0c3.1,19.1,9.7,36.8,19.1,52.4"/>
    <path id="SVGID_58_" d="M325.7,275.6c12.8-21.3,20.6-45.6,21-72.3"/>
    <linearGradient inkscape:collect="always" xlink:href="#linearGradient917" id="linearGradient919" x1="21.237339" y1="24.141342" x2="47.851002" y2="55.983509" gradientUnits="userSpaceOnUse"/>
  <radialGradient id="gradient_ds_br" cx="0" cy="0" r="1" gradientUnits="userSpaceOnUse" gradientTransform="matrix(13.998399,0.00477622,-0.00477841,14.004799,47.5016,48.4952)">
      <stop offset="0.65" id="stop1"/>
      <stop offset="1" stop-opacity="0" id="stop2"/>
    </radialGradient><linearGradient id="gradient_ds_b" x1="30.448999" y1="48.5" x2="30.492201" y2="62.500301" gradientUnits="userSpaceOnUse">
      <stop offset="0.653846" id="stop3"/>
      <stop offset="1" stop-opacity="0" id="stop4"/>
    </linearGradient><radialGradient id="gradient_ds_bl" cx="0" cy="0" r="1" gradientUnits="userSpaceOnUse" gradientTransform="matrix(0,14,-14,0,16.5,48.5)">
      <stop offset="0.65" id="stop5"/>
      <stop offset="1" stop-opacity="0" id="stop6"/>
    </radialGradient><linearGradient id="gradient_ds_r" x1="47.5" y1="33.5" x2="61.5" y2="33.5009" gradientUnits="userSpaceOnUse">
      <stop offset="0.649038" id="stop7"/>
      <stop offset="1" stop-opacity="0" id="stop8"/>
    </linearGradient><linearGradient id="gradient_ds_l" x1="16.5" y1="33.894699" x2="2.5" y2="33.894699" gradientUnits="userSpaceOnUse">
      <stop offset="0.649038" id="stop9"/>
      <stop offset="1" stop-opacity="0" id="stop10"/>
    </linearGradient><radialGradient id="gradient_ds_tr" cx="0" cy="0" r="1" gradientTransform="matrix(0.00843236,-14,14.0084,0.0189842,47.4916,18.5)" gradientUnits="userSpaceOnUse">
      <stop offset="0.65" id="stop11"/>
      <stop offset="1" stop-opacity="0" id="stop12"/>
    </radialGradient><linearGradient id="gradient_ds_t" x1="29.98" y1="18.5" x2="29.9158" y2="4.4998598" gradientUnits="userSpaceOnUse">
      <stop offset="0.649038" id="stop13"/>
      <stop offset="1" stop-opacity="0" id="stop14"/>
    </linearGradient><radialGradient id="gradient_ds_tl" cx="0" cy="0" r="1" gradientTransform="matrix(-0.00843236,-14,-14.0084,0.0189842,16.5084,18.5)" gradientUnits="userSpaceOnUse">
      <stop offset="0.65" id="stop15"/>
      <stop offset="1" stop-opacity="0" id="stop16"/>
    </radialGradient></defs>
  
  <g id="ds" opacity="0.25">
    <path id="ds-br" d="m 47.5,48.5 h 14 v 14 h -14 z" fill="url(#gradient_ds_br)" style="fill:url(#gradient_ds_br)"/>
    <path id="ds-b" d="m 16.5,48.5 h 31 v 14 h -31 z" fill="url(#gradient_ds_b)" style="fill:url(#gradient_ds_b)"/>
    <path id="ds-bl" d="m 2.5,48.5 h 14 v 14 h -14 z" fill="url(#gradient_ds_bl)" style="fill:url(#gradient_ds_bl)"/>
    <path id="ds-r" d="m 47.5,18.5 h 14 v 30 h -14 z" fill="url(#gradient_ds_r)" style="fill:url(#gradient_ds_r)"/>
    <path id="ds-l" d="m 2.5,18.5 h 14 v 30 h -14 z" fill="url(#gradient_ds_l)" style="fill:url(#gradient_ds_l)"/>
    <path id="ds-tr" d="m 47.5,4.5 h 14 v 14 h -14 z" fill="url(#gradient_ds_tr)" style="fill:url(#gradient_ds_tr)"/>
    <path id="ds-t" d="m 16.5,4.5 h 31 v 14 h -31 z" fill="url(#gradient_ds_t)" style="fill:url(#gradient_ds_t)"/>
    <path id="ds-tl" d="m 16.5,4.5 h -14 v 14 h 14 z" fill="url(#gradient_ds_tl)" style="fill:url(#gradient_ds_tl)"/>
  </g><rect x="4.5" y="4.5" width="55" height="55" fill="url(#linearGradient1053)" stroke-linecap="round" stroke-width="2.7444" id="bg" style="fill:url(#linearGradient919);fill-opacity:1" rx="10"/>
  
  <g id="art" transform="matrix(0.17411567,0,0,0.1731011,-2.9193869,-2.8886966)">
    <path id="Mullvad_Fur" class="st5" d="m 90.6,184.9 9.6,-13.4 c 0,0.1 -0.6,19.3 -0.6,19.3 l 2.7,-14.5 c 8,16.2 27.6,38.6 45.5,50.6 1.9,1.3 3.5,2.7 4.6,4.1 2.3,0.9 4.6,1.4 6.9,1.8 1.2,0.2 2.5,0.3 3.7,0.4 1.2,0.1 2.5,0.1 3.7,0.1 1.2,0 2.4,-0.1 3.6,-0.2 1.2,-0.1 2.4,-0.3 3.6,-0.5 1.2,-0.2 2.4,-0.4 3.5,-0.8 1.2,-0.3 2.3,-0.6 3.5,-1 1.1,-0.3 2.3,-0.8 3.4,-1.2 1.1,-0.5 2.2,-0.9 3.3,-1.5 1.1,-0.6 2.2,-1.1 3.2,-1.7 1.1,-0.5 2.1,-1.2 3.2,-1.8 1.1,-0.6 2.1,-1.3 3.2,-1.9 1.1,-0.6 2.1,-1.3 3.1,-1.9 1,-0.7 2.1,-1.3 3.1,-2 1,-0.7 2.1,-1.3 3.2,-2 l 1,-0.6 0.5,0.3 7.2,4.8 -7.3,-1.9 c -0.7,0.8 -1.4,1.6 -2.2,2.4 -0.9,0.9 -1.9,1.8 -2.8,2.7 -1,0.8 -2,1.7 -3.1,2.4 -1.1,0.8 -2.1,1.5 -3.3,2.2 -2.2,1.4 -4.6,2.6 -7.1,3.6 -1.2,0.5 -2.5,1 -3.7,1.4 -1.3,0.4 -2.5,0.8 -3.8,1.1 -1.3,0.3 -2.6,0.6 -3.9,0.8 -1.3,0.2 -2.6,0.3 -3.9,0.5 -2.6,0.1 -5.3,0.1 -7.9,-0.3 -1.3,-0.2 -2.6,-0.4 -3.9,-0.7 -1.3,-0.3 -2.5,-0.7 -3.7,-1.1 -2.1,-0.8 -4.2,-1.8 -6.1,-3 0,0 -6.9,1 -4.1,6.2 2.8,5.2 7,4.7 5,10.8 -1.4,3.3 -3.4,6.5 -5.6,9.5 -4.6,6.2 -11.8,11.7 -11.1,15 32.7,40.3 106.4,34.7 134.4,-1.3 -0.4,-5.2 -8.6,-7.7 -14.3,-20.4 1.6,0.5 4,1.2 4,1.1 0,-0.1 -6.8,-11.1 -7.1,-12.2 l 4.4,0.3 c 0,0 -5.8,-7.2 -6,-7.9 l 5.9,-0.8 c 0,0 -7.4,-8.5 -7.5,-9.2 l 7.5,1.2 -8.2,-9.9 h 3.9 l -4.6,-6.7 c -0.8,-0.3 -1.6,-0.5 -2.4,-0.7 -1,-0.3 -2,-0.6 -3,-0.9 -11.2,-3.5 -21.8,-6.7 -32,-13.1 -14.3,-8.9 -27.1,-19.8 -36.7,-28.3 l -19.3,-9.4 c -18.5,-1.4 -35.9,-0.9 -46.5,1.2 l 6.8,-11.6 -10.4,12.5 c -0.7,-0.2 -0.9,-0.6 -0.9,-0.6 l 0.7,-15.4 -3.3,13.9 c -1,-0.5 -2.2,-0.7 -3.4,-0.7 -4.6,0 -8.3,3.7 -8.3,8.3 0,4.2 3.1,7.7 7.2,8.2 z"/>
    <path id="Mullvad_Nose" class="st6" d="m 102.2,154.5 c -1,-0.4 -2.2,-0.7 -3.3,-0.7 -4.6,0 -8.3,3.7 -8.3,8.3 0,4 2.9,7.4 6.7,8.2 0.1,0 0.1,0 0.2,0 2.5,-0.8 7.5,-7.5 6.7,-11.7 -0.3,-1.5 -1,-2.9 -2,-4.1 z"/>
    <path id="Mullvad_Helmet" class="st7" d="m 175.1,143.8 c -1.5,-4.1 -1.1,-9.4 1,-14.4 3,-6.9 8.7,-11.5 14.1,-11.5 1.1,0 2.1,0.2 3.1,0.6 3.1,-2.8 6.7,-5.1 10.7,-6.7 22.1,-8.8 54.4,6.9 62.7,28.6 4,10.5 2.8,22 -0.6,32.5 -2.8,8.6 -13,21 -9.2,30.4 -1.5,-0.4 -33.1,-10.2 -41.9,-15.8 -14.1,-8.8 -26.8,-19.6 -36.3,-28 l -0.3,-0.3 -32.1,-15.2 c -0.4,-0.2 -0.8,-0.4 -1.1,-0.6 4.6,0 22.1,2.1 29.9,0.4"/>
    <g id="Helmet_Lamp">
      <path class="st8" d="m 184.6,147.4 c -0.9,0 -1.7,-0.2 -2.3,-0.5 -1.6,-0.7 -2.8,-2 -3.6,-4 -1.4,-3.4 -1,-8.1 0.9,-12.5 2.5,-5.7 7.2,-9.7 11.5,-9.7 0.8,0 1.6,0.2 2.4,0.5 2.1,0.9 3.6,3 4.1,6 0.6,3.2 0.1,6.9 -1.5,10.4 -2.5,5.7 -7.3,9.8 -11.5,9.8 z" id="path190"/>
      <g id="g194">
        <path class="st9" d="m 191,122.3 c 0.6,0 1.2,0.1 1.8,0.4 1.6,0.7 2.8,2.5 3.2,4.9 0.5,2.9 0.1,6.3 -1.4,9.5 -2.2,5.1 -6.5,8.8 -10.1,8.8 -0.6,0 -1.2,-0.1 -1.7,-0.3 v 0 0 c -1.5,-0.6 -2.3,-2 -2.7,-3.1 -1.2,-3 -0.9,-7.4 0.8,-11.4 2.3,-5.1 6.5,-8.8 10.1,-8.8 m 0,-3 c -4.8,0 -10.1,4.4 -12.9,10.7 -2.1,4.7 -2.4,9.8 -0.9,13.7 0.9,2.3 2.4,3.9 4.3,4.8 0.9,0.4 1.9,0.6 3,0.6 4.8,0 10.1,-4.4 12.8,-10.7 1.7,-3.8 2.2,-7.8 1.6,-11.3 -0.6,-3.5 -2.4,-6 -5,-7.1 -0.8,-0.5 -1.8,-0.7 -2.9,-0.7 z" id="path192"/>
      </g>
    </g>
  </g>
</svg>
