<?xml version="1.0" encoding="UTF-8" standalone="no"?>
<svg xmlns:inkscape="http://www.inkscape.org/namespaces/inkscape" xmlns:sodipodi="http://sodipodi.sourceforge.net/DTD/sodipodi-0.dtd" xmlns="http://www.w3.org/2000/svg" xmlns:svg="http://www.w3.org/2000/svg" xmlns:rdf="http://www.w3.org/1999/02/22-rdf-syntax-ns#" xmlns:cc="http://creativecommons.org/ns#" xmlns:dc="http://purl.org/dc/elements/1.1/" width="64" height="64" version="1.1" viewBox="0 0 64 64" id="svg131" sodipodi:docname="org.gnome.PasswordSafe.svg" inkscape:version="1.4.2 (ebf0e940d0, 2025-05-08)">
  <metadata id="metadata135">
    <rdf:RDF>
      <cc:Work rdf:about="">
        <dc:format>image/svg+xml</dc:format>
        <dc:type rdf:resource="http://purl.org/dc/dcmitype/StillImage"/>
      </cc:Work>
    </rdf:RDF>
  </metadata>
  <defs id="defs59">
    <radialGradient id="radialGradient4514-5" cx="259.51999" cy="558.96997" r="34" gradientTransform="matrix(0.1323,7.0812e-8,-7.0812e-8,0.1323,-25.866,-65.48)" gradientUnits="userSpaceOnUse">
      <stop stop-color="#65257e" offset="0" id="stop2"/>
      <stop stop-color="#672680" offset=".72383" id="stop4"/>
      <stop stop-color="#a558c5" offset=".80104" id="stop6"/>
      <stop stop-color="#b363d5" offset=".94118" id="stop8"/>
      <stop stop-color="#66267f" offset="1" id="stop10"/>
    </radialGradient>
    <linearGradient id="linearGradient1019-1" x1="16.933001" x2="16.933001" y1="291.12" y2="268.25" gradientTransform="matrix(0.37026,0,0,0.37026,2.1972,-95.086)" gradientUnits="userSpaceOnUse">
      <stop stop-color="#4e1d61" offset="0" id="stop13"/>
      <stop stop-color="#c68ede" offset="1" id="stop15"/>
    </linearGradient>
    <linearGradient id="linearGradient1033-0" x1="16.933001" x2="16.933001" y1="288.26001" y2="272.06" gradientTransform="matrix(0.37026,0,0,0.37026,2.1972,-95.086)" gradientUnits="userSpaceOnUse">
      <stop stop-color="#e5e5e5" offset="0" id="stop18"/>
      <stop stop-color="#f1f1f1" offset="1" id="stop20"/>
    </linearGradient>
    <linearGradient id="linearGradient4590-6" x1="47.902" x2="47.902" y1="1016.9" y2="991.52002" gradientTransform="matrix(0.067905,0,0,0.067905,-12.692,-12.307)" gradientUnits="userSpaceOnUse">
      <stop stop-color="#fff" offset="0" id="stop23"/>
      <stop stop-color="#fff" stop-opacity="0" offset="1" id="stop25"/>
    </linearGradient>
    <linearGradient id="linearGradient4574-2" x1="48.542999" x2="48.542999" y1="1016.1" y2="993.67999" gradientTransform="matrix(0.067905,0,0,0.067905,-12.692,-12.307)" gradientUnits="userSpaceOnUse">
      <stop stop-color="#d6d6d6" offset="0" id="stop28"/>
      <stop stop-color="#d0d0d0" offset="1" id="stop30"/>
    </linearGradient>
    <linearGradient id="linearGradient1011-8" x1="31.806999" x2="31.806999" y1="26.917999" y2="36.986" gradientTransform="matrix(1.0000449,0,0,1.0000449,-2.392677e-4,0.01391045)" gradientUnits="userSpaceOnUse">
      <stop offset="0" id="stop33"/>
      <stop stop-opacity=".5" offset="1" id="stop35"/>
    </linearGradient>
    <linearGradient id="linearGradient4612-2" x1="299.73999" x2="323.45999" y1="304.59" y2="304.59" gradientTransform="matrix(0.25299522,0,0,0.25106384,-46.833048,-43.454084)" gradientUnits="userSpaceOnUse">
      <stop stop-color="#1a1d1e" offset="0" id="stop38"/>
      <stop stop-color="#282d30" offset=".16667" id="stop40"/>
      <stop stop-color="#34393d" offset=".50565" id="stop42"/>
      <stop stop-color="#2a2e32" offset=".83333" id="stop44"/>
      <stop stop-color="#1b1d1f" offset="1" id="stop46"/>
    </linearGradient>
    <linearGradient id="linearGradient1000" x1="8.5867004" x2="8.5867004" y1="15.747" y2="1.0975" gradientUnits="userSpaceOnUse" gradientTransform="translate(-1.8151766,-3.7883)">
      <stop stop-color="#333" offset="0" id="stop49"/>
      <stop stop-color="#808080" offset="1" id="stop51"/>
    </linearGradient>
    <linearGradient id="linearGradient987" x1="8.3788004" x2="8.3788004" y1="13.822" y2="3.4058001" gradientUnits="userSpaceOnUse">
      <stop stop-color="#e0e0e0" offset="0" id="stop54"/>
      <stop stop-color="#fff" offset="1" id="stop56"/>
    </linearGradient>
    <linearGradient id="linearGradient891" x1="26.677999" x2="26.677999" y1="35.381001" y2="17.782" gradientUnits="userSpaceOnUse" gradientTransform="matrix(0.26457812,0,0,0.26457812,19.322838,1.6e-7)">
      <stop stop-color="#e14664" offset="0" id="stop962"/>
      <stop stop-color="#ff5c7b" offset="1" id="stop964"/>
    </linearGradient>
    <linearGradient id="linearGradient899" x1="37.200001" x2="37.200001" y1="36.124001" y2="18.096001" gradientUnits="userSpaceOnUse" gradientTransform="matrix(0.26457812,0,0,0.26457812,19.322838,1.6e-7)">
      <stop stop-color="#aad22d" offset="0" id="stop967"/>
      <stop stop-color="#dbf97c" offset="1" id="stop969"/>
    </linearGradient>
    <linearGradient id="linearGradient907" x1="23.688" x2="23.688" y1="45.978001" y2="31.186001" gradientUnits="userSpaceOnUse" gradientTransform="matrix(0.26457812,0,0,0.26457812,19.322838,1.6e-7)">
      <stop stop-color="#0077c2" offset="0" id="stop972"/>
      <stop stop-color="#1ba7ff" offset="1" id="stop974"/>
    </linearGradient>
    <linearGradient id="linearGradient915" x1="34.380001" x2="34.380001" y1="46.935001" y2="30.813999" gradientUnits="userSpaceOnUse" gradientTransform="matrix(0.26457812,0,0,0.26457812,19.322838,1.6e-7)">
      <stop stop-color="#1abda2" offset="0" id="stop977"/>
      <stop stop-color="#27f1d1" stop-opacity=".99608" offset="1" id="stop979"/>
    </linearGradient>
    <linearGradient id="b-3" x1="399.57001" x2="399.57001" y1="545.79999" y2="517.79999" gradientTransform="matrix(2.1429,0,0,2.1429,-607.62738,-1107.5)" gradientUnits="userSpaceOnUse">
      <stop stop-color="#3889e9" offset="0" id="stop982"/>
      <stop stop-color="#5ea5fb" offset="1" id="stop984"/>
    </linearGradient>
    
    
    <filter id="filter1057" x="-0.026999999" y="-0.026999999" width="1.054" height="1.054" color-interpolation-filters="sRGB">
      <feGaussianBlur stdDeviation="0.61875" id="feGaussianBlur991"/>
    </filter>
    <linearGradient id="linearGradient1053" x1="-127" x2="-72" y1="60" y2="5" gradientTransform="translate(131.49,-0.054156)" gradientUnits="userSpaceOnUse">
      <stop stop-color="#1d2123" offset="0" id="stop994"/>
      <stop stop-color="#33393e" stop-opacity=".99608" offset="1" id="stop996"/>
    </linearGradient>
    <radialGradient id="radialGradient4514-5-7" cx="259.51999" cy="558.96997" r="34" gradientTransform="matrix(0.1323,7.0812e-8,-7.0812e-8,0.1323,-25.866,-65.48)" gradientUnits="userSpaceOnUse">
      <stop stop-color="#65257e" offset="0" id="stop2-0"/>
      <stop stop-color="#672680" offset=".72383" id="stop4-9"/>
      <stop stop-color="#a558c5" offset=".80104" id="stop6-3"/>
      <stop stop-color="#b363d5" offset=".94118" id="stop8-6"/>
      <stop stop-color="#66267f" offset="1" id="stop10-0"/>
    </radialGradient>
    <filter id="filter1057-0" x="-0.026999999" y="-0.026999999" width="1.054" height="1.054" color-interpolation-filters="sRGB">
      <feGaussianBlur stdDeviation="0.61875" id="feGaussianBlur991-2"/>
    </filter>
  <radialGradient id="gradient_ds_br" cx="0" cy="0" r="1" gradientUnits="userSpaceOnUse" gradientTransform="matrix(13.998399,0.00477622,-0.00477841,14.004799,47.5016,48.4952)">
      <stop offset="0.65" id="stop1"/>
      <stop offset="1" stop-opacity="0" id="stop2"/>
    </radialGradient><linearGradient id="gradient_ds_b" x1="30.448999" y1="48.5" x2="30.492201" y2="62.500301" gradientUnits="userSpaceOnUse">
      <stop offset="0.653846" id="stop3"/>
      <stop offset="1" stop-opacity="0" id="stop4"/>
    </linearGradient><radialGradient id="gradient_ds_bl" cx="0" cy="0" r="1" gradientUnits="userSpaceOnUse" gradientTransform="matrix(0,14,-14,0,16.5,48.5)">
      <stop offset="0.65" id="stop5"/>
      <stop offset="1" stop-opacity="0" id="stop6"/>
    </radialGradient><linearGradient id="gradient_ds_r" x1="47.5" y1="33.5" x2="61.5" y2="33.5009" gradientUnits="userSpaceOnUse">
      <stop offset="0.649038" id="stop7"/>
      <stop offset="1" stop-opacity="0" id="stop8"/>
    </linearGradient><linearGradient id="gradient_ds_l" x1="16.5" y1="33.894699" x2="2.5" y2="33.894699" gradientUnits="userSpaceOnUse">
      <stop offset="0.649038" id="stop9"/>
      <stop offset="1" stop-opacity="0" id="stop10"/>
    </linearGradient><radialGradient id="gradient_ds_tr" cx="0" cy="0" r="1" gradientTransform="matrix(0.00843236,-14,14.0084,0.0189842,47.4916,18.5)" gradientUnits="userSpaceOnUse">
      <stop offset="0.65" id="stop11"/>
      <stop offset="1" stop-opacity="0" id="stop12"/>
    </radialGradient><linearGradient id="gradient_ds_t" x1="29.98" y1="18.5" x2="29.9158" y2="4.4998598" gradientUnits="userSpaceOnUse">
      <stop offset="0.649038" id="stop13"/>
      <stop offset="1" stop-opacity="0" id="stop14"/>
    </linearGradient><radialGradient id="gradient_ds_tl" cx="0" cy="0" r="1" gradientTransform="matrix(-0.00843236,-14,-14.0084,0.0189842,16.5084,18.5)" gradientUnits="userSpaceOnUse">
      <stop offset="0.65" id="stop15"/>
      <stop offset="1" stop-opacity="0" id="stop16"/>
    </radialGradient></defs>
  
  <g id="ds" opacity="0.25">
    <path id="ds-br" d="m 47.5,48.5 h 14 v 14 h -14 z" fill="url(#gradient_ds_br)" style="fill:url(#gradient_ds_br)"/>
    <path id="ds-b" d="m 16.5,48.5 h 31 v 14 h -31 z" fill="url(#gradient_ds_b)" style="fill:url(#gradient_ds_b)"/>
    <path id="ds-bl" d="m 2.5,48.5 h 14 v 14 h -14 z" fill="url(#gradient_ds_bl)" style="fill:url(#gradient_ds_bl)"/>
    <path id="ds-r" d="m 47.5,18.5 h 14 v 30 h -14 z" fill="url(#gradient_ds_r)" style="fill:url(#gradient_ds_r)"/>
    <path id="ds-l" d="m 2.5,18.5 h 14 v 30 h -14 z" fill="url(#gradient_ds_l)" style="fill:url(#gradient_ds_l)"/>
    <path id="ds-tr" d="m 47.5,4.5 h 14 v 14 h -14 z" fill="url(#gradient_ds_tr)" style="fill:url(#gradient_ds_tr)"/>
    <path id="ds-t" d="m 16.5,4.5 h 31 v 14 h -31 z" fill="url(#gradient_ds_t)" style="fill:url(#gradient_ds_t)"/>
    <path id="ds-tl" d="m 16.5,4.5 h -14 v 14 h 14 z" fill="url(#gradient_ds_tl)" style="fill:url(#gradient_ds_tl)"/>
  </g><rect x="4.5" y="4.5" width="55" height="55" fill="url(#linearGradient1053)" stroke-linecap="round" stroke-width="2.7444" id="bg" style="fill:url(#linearGradient1053)" rx="10"/>
  <g id="art" style="display:inline">
    <g stroke-width="0.35931" id="g83" transform="scale(3.779602)">
      <rect x="2.6459" y="3.1436" width="11.642" height="11.642" rx="5.8211999" ry="5.8211999" opacity="0.0375" id="rect65"/>
      <rect x="2.6459" y="2.9103" width="11.642" height="11.642" rx="5.8211999" ry="5.8211999" opacity="0.0625" id="rect67"/>
      <rect x="3.9688001" y="4.2321" width="8.9961996" height="8.9961996" rx="4.4983001" ry="4.4983001" opacity="0.25" id="rect69"/>
      <rect x="4.0218" y="4.2839999" width="8.8902998" height="8.8902998" rx="4.4453001" ry="4.4453001" opacity="0.25" id="rect71"/>
      <rect x="4.0218" y="4.2839999" width="8.8902998" height="8.8902998" rx="4.4453001" ry="4.4453001" opacity="0.0875" id="rect73"/>
      <rect x="5.0272002" y="5.2911" width="6.8793998" height="6.8793998" rx="3.4396999" ry="3.4396999" opacity="0.25" id="rect75"/>
      <rect x="6.6433001" y="6.9053998" width="3.6468999" height="3.6468999" rx="1.8235" ry="1.8235" opacity="0.25" id="rect77"/>
      <rect x="6.7835999" y="7.0461001" width="3.3664" height="3.3664" rx="1.6832" ry="1.6832" opacity="0.25" id="rect79"/>
      <rect x="6.6148" y="6.8794999" width="3.7044001" height="3.7044001" rx="1.8521" ry="1.8521" opacity="0.25" id="rect81"/>
    </g>
    <path d="m 32.001512,25.995347 c -3.878249,0 -7.000579,3.122178 -7.000579,7.000578 0,3.878401 3.122178,7.000579 7.000579,7.000579 3.878401,0 7.000579,-3.122178 7.000579,-7.000579 0,-3.8784 -3.122178,-7.000578 -7.000579,-7.000578 z m 0,0.214851 c 3.758739,0 6.78552,3.026894 6.78552,6.78552 0,3.758738 -3.026895,6.785519 -6.78552,6.785519 -3.758738,0 -6.785519,-3.026894 -6.785519,-6.785519 0,-3.758739 3.026894,-6.78552 6.785519,-6.78552 z" opacity="0.0875" stroke-width="0.970488" id="path85"/>
    <path d="m 29.509621,22.995099 c -0.281706,0 -0.507828,0.226133 -0.507828,0.507827 v 5.504234 l 1.988411,1.93561 -1.988411,1.937613 v 9.608126 c 0,0.281694 0.226134,0.507828 0.507828,0.507828 h 4.984539 c 0.281705,0 0.507827,-0.226134 0.507827,-0.507828 v -5.545054 l -2.000128,-1.947402 2.000128,-1.947402 v -9.545385 c 0,-0.281705 -0.226134,-0.507827 -0.507827,-0.507827 z" opacity="0.25" stroke-width="0.970488" id="path87"/>
    <g stroke-width="0.35931" id="g105" transform="scale(3.779602)">
      <rect x="2.6459" y="2.7701001" width="11.642" height="11.642" rx="5.8211999" ry="5.8211999" opacity="0.175" id="rect89"/>
      <rect x="3.9688001" y="4.0918999" width="8.9961996" height="8.9961996" rx="4.4983001" ry="4.4983001" opacity="0.35" id="rect91"/>
      <rect x="4.0218" y="4.1437001" width="8.8902998" height="8.8902998" rx="4.4453001" ry="4.4453001" opacity="0.35" id="rect93"/>
      <rect x="4.0218" y="4.1437001" width="8.8902998" height="8.8902998" rx="4.4453001" ry="4.4453001" opacity="0.1225" id="rect95"/>
      <rect x="5.0272002" y="5.1508002" width="6.8793998" height="6.8793998" rx="3.4396999" ry="3.4396999" opacity="0.35" id="rect97"/>
      <rect x="6.6433001" y="6.7652001" width="3.6468999" height="3.6468999" rx="1.8235" ry="1.8235" opacity="0.35" id="rect99"/>
      <rect x="6.7835999" y="6.9059" width="3.3664" height="3.3664" rx="1.6832" ry="1.6832" opacity="0.35" id="rect101"/>
      <rect x="6.6148" y="6.7392998" width="3.7044001" height="3.7044001" rx="1.8521" ry="1.8521" opacity="0.35" id="rect103"/>
    </g>
    <path d="m 32.001512,25.465446 c -3.878249,0 -7.000579,3.122178 -7.000579,7.000579 0,3.878401 3.122178,7.000579 7.000579,7.000579 3.878401,0 7.000579,-3.122178 7.000579,-7.000579 0,-3.878401 -3.122178,-7.000579 -7.000579,-7.000579 z m 0,0.214852 c 3.758739,0 6.78552,3.026894 6.78552,6.785519 0,3.758739 -3.026895,6.78552 -6.78552,6.78552 -3.758738,0 -6.785519,-3.026894 -6.785519,-6.78552 0,-3.758738 3.026894,-6.785519 6.785519,-6.785519 z" opacity="0.1225" stroke-width="0.970488" id="path107"/>
    <path d="m 29.509621,22.465198 c -0.281706,0 -0.507828,0.226134 -0.507828,0.507828 v 5.504234 l 1.988411,1.93561 -1.988411,1.937613 v 9.608126 c 0,0.281694 0.226134,0.507827 0.507828,0.507827 h 4.984539 c 0.281705,0 0.507827,-0.226133 0.507827,-0.507827 v -5.545054 l -2.000128,-1.947402 2.000128,-1.947402 v -9.545385 c 0,-0.281705 -0.226134,-0.507827 -0.507827,-0.507827 z" opacity="0.35" stroke-width="0.970488" id="path109"/>
    <g stroke-width="0.37026" id="g125" transform="scale(3.779602)">
      <rect x="2.6459" y="2.651" width="11.642" height="11.642" rx="5.8211999" ry="5.8211999" fill="url(#linearGradient987)" id="rect111" style="fill:url(#linearGradient987)"/>
      <rect x="4.0218" y="4.0247002" width="8.8902998" height="8.8902998" rx="4.4453001" ry="4.4453001" fill="url(#radialGradient4514-5)" id="rect113" style="fill:url(#radialGradient4514-5-7)"/>
      <rect x="4.0216999" y="4.0247002" width="8.8902998" height="8.8902998" rx="4.4453001" ry="4.4453001" fill="url(#linearGradient1019-1)" opacity="0.35" id="rect115" style="fill:url(#linearGradient1019-1)"/>
      <rect x="5.0272002" y="5.0317998" width="6.8793998" height="6.8793998" rx="3.4396999" ry="3.4396999" fill="url(#linearGradient1033-0)" id="rect117" style="fill:url(#linearGradient1033-0)"/>
      <rect x="6.6433001" y="6.6461" width="3.6468999" height="3.6468999" rx="1.8235" ry="1.8235" fill="url(#linearGradient4590-6)" id="rect119" style="fill:url(#linearGradient4590-6)"/>
      <rect x="6.7835999" y="6.7867999" width="3.3664" height="3.3664" rx="1.6832" ry="1.6832" fill="url(#linearGradient4574-2)" id="rect121" style="fill:url(#linearGradient4574-2)"/>
      <rect x="6.6148" y="6.6202002" width="3.7044001" height="3.7044001" rx="1.8521" ry="1.8521" fill="#dfdfdf" id="rect123"/>
    </g>
    <path d="m 32.001512,25.015296 c -3.878249,0 -7.000579,3.122178 -7.000579,7.000579 0,3.8784 3.122178,7.000578 7.000579,7.000578 3.878401,0 7.000579,-3.122178 7.000579,-7.000578 0,-3.878401 -3.122178,-7.000579 -7.000579,-7.000579 z m 0,0.214851 c 3.758739,0 6.78552,3.026895 6.78552,6.78552 0,3.758738 -3.026895,6.785519 -6.78552,6.785519 -3.758738,0 -6.785519,-3.026894 -6.785519,-6.785519 0,-3.758739 3.026894,-6.78552 6.785519,-6.78552 z" fill="url(#linearGradient1011-8)" opacity="0.35" stroke-width="1.00004" id="path127" style="fill:url(#linearGradient1011-8)"/>
    <path d="m 29.509621,22.015048 c -0.281706,0 -0.507828,0.226133 -0.507828,0.507827 v 5.504234 l 1.988411,1.93561 -1.988411,1.937613 v 9.608126 c 0,0.281694 0.226134,0.507828 0.507828,0.507828 h 4.984539 c 0.281705,0 0.507827,-0.226134 0.507827,-0.507828 V 35.963404 L 33.001859,34.016002 35.001987,32.0686 v -9.545385 c 0,-0.281705 -0.226134,-0.507827 -0.507827,-0.507827 h -4.984539 z" fill="url(#linearGradient4612-2)" stroke-width="1.00004" id="path129" style="fill:url(#linearGradient4612-2)"/>
  </g>
</svg>
