<?xml version="1.0" encoding="UTF-8" standalone="no"?>
<svg
   width="64"
   height="64"
   version="1.1"
   id="svg8"
   sodipodi:docname="yubikey-personalization-gui.svg"
   inkscape:version="1.4.2 (ebf0e940d0, 2025-05-08)"
   xmlns:inkscape="http://www.inkscape.org/namespaces/inkscape"
   xmlns:sodipodi="http://sodipodi.sourceforge.net/DTD/sodipodi-0.dtd"
   xmlns:xlink="http://www.w3.org/1999/xlink"
   xmlns="http://www.w3.org/2000/svg"
   xmlns:svg="http://www.w3.org/2000/svg">
  <sodipodi:namedview
     id="namedview8"
     pagecolor="#ffffff"
     bordercolor="#000000"
     borderopacity="0.25"
     inkscape:showpageshadow="2"
     inkscape:pageopacity="0.0"
     inkscape:pagecheckerboard="0"
     inkscape:deskcolor="#d1d1d1"
     inkscape:current-layer="svg8" />
  <defs
     id="defs4">
    <linearGradient
       id="linearGradient1100"
       x1="399.57"
       x2="399.57"
       y1="545.8"
       y2="517.8"
       gradientTransform="matrix(2.1429,0,0,2.1429,-826.36,-1107.5)"
       gradientUnits="userSpaceOnUse">
      <stop
         stop-color="#3889e9"
         offset="0"
         id="stop1" />
      <stop
         stop-color="#5ea5fb"
         offset="1"
         id="stop2" />
    </linearGradient>
    <filter
       id="filter10677"
       x="-0.17622509"
       y="-0.12609078"
       width="1.3524502"
       height="1.2521816"
       color-interpolation-filters="sRGB">
      <feGaussianBlur
         stdDeviation="1.6811947"
         id="feGaussianBlur2" />
    </filter>
    <filter
       id="filter1057"
       x="-0.026999999"
       y="-0.026999999"
       width="1.054"
       height="1.054"
       color-interpolation-filters="sRGB">
      <feGaussianBlur
         stdDeviation="0.61875"
         id="feGaussianBlur3" />
    </filter>
    <linearGradient
       id="linearGradient1053"
       x1="-127"
       x2="-72"
       y1="60"
       y2="5"
       gradientTransform="translate(131.5,-0.51)"
       gradientUnits="userSpaceOnUse">
      <stop
         stop-color="#02db96"
         offset="0"
         id="stop3" />
      <stop
         stop-color="#13d39b"
         offset="1"
         id="stop4" />
    </linearGradient>
    <radialGradient
       id="gradient_ds_br"
       cx="0"
       cy="0"
       r="1"
       gradientUnits="userSpaceOnUse"
       gradientTransform="matrix(13.998399,0.00477622,-0.00477841,14.004799,47.5016,48.4952)">
      <stop
         offset="0.65"
         id="stop5" />
      <stop
         offset="1"
         stop-opacity="0"
         id="stop6" />
    </radialGradient>
    <linearGradient
       id="gradient_ds_b"
       x1="30.448999"
       y1="48.5"
       x2="30.492201"
       y2="62.500301"
       gradientUnits="userSpaceOnUse">
      <stop
         offset="0.653846"
         id="stop7" />
      <stop
         offset="1"
         stop-opacity="0"
         id="stop8" />
    </linearGradient>
    <radialGradient
       id="gradient_ds_bl"
       cx="0"
       cy="0"
       r="1"
       gradientUnits="userSpaceOnUse"
       gradientTransform="matrix(0,14,-14,0,16.5,48.5)">
      <stop
         offset="0.65"
         id="stop9" />
      <stop
         offset="1"
         stop-opacity="0"
         id="stop10" />
    </radialGradient>
    <linearGradient
       id="gradient_ds_r"
       x1="47.5"
       y1="33.5"
       x2="61.5"
       y2="33.5009"
       gradientUnits="userSpaceOnUse">
      <stop
         offset="0.649038"
         id="stop11" />
      <stop
         offset="1"
         stop-opacity="0"
         id="stop12" />
    </linearGradient>
    <linearGradient
       id="gradient_ds_l"
       x1="16.5"
       y1="33.894699"
       x2="2.5"
       y2="33.894699"
       gradientUnits="userSpaceOnUse">
      <stop
         offset="0.649038"
         id="stop13" />
      <stop
         offset="1"
         stop-opacity="0"
         id="stop14" />
    </linearGradient>
    <radialGradient
       id="gradient_ds_tr"
       cx="0"
       cy="0"
       r="1"
       gradientTransform="matrix(0.00843236,-14,14.0084,0.0189842,47.4916,18.5)"
       gradientUnits="userSpaceOnUse">
      <stop
         offset="0.65"
         id="stop15" />
      <stop
         offset="1"
         stop-opacity="0"
         id="stop16" />
    </radialGradient>
    <linearGradient
       id="gradient_ds_t"
       x1="29.98"
       y1="18.5"
       x2="29.9158"
       y2="4.4998598"
       gradientUnits="userSpaceOnUse">
      <stop
         offset="0.649038"
         id="stop17" />
      <stop
         offset="1"
         stop-opacity="0"
         id="stop18" />
    </linearGradient>
    <radialGradient
       id="gradient_ds_tl"
       cx="0"
       cy="0"
       r="1"
       gradientTransform="matrix(-0.00843236,-14,-14.0084,0.0189842,16.5084,18.5)"
       gradientUnits="userSpaceOnUse">
      <stop
         offset="0.65"
         id="stop19" />
      <stop
         offset="1"
         stop-opacity="0"
         id="stop20" />
    </radialGradient>
    <linearGradient
       id="linearGradient7684"
       x1="57.006973"
       x2="57.006973"
       y1="11.148484"
       y2="26.530821"
       gradientTransform="matrix(1.8202691,0,0,1.8202691,-55.768029,13.70676)"
       gradientUnits="userSpaceOnUse">
      <stop
         stop-color="#43cfea"
         offset="0"
         id="stop1-1"
         style="stop-color:#4f4f4f;stop-opacity:1;" />
      <stop
         stop-color="#138aff"
         offset="1"
         id="stop2-8"
         style="stop-color:#323232;stop-opacity:1;" />
    </linearGradient>
    <linearGradient
       inkscape:collect="always"
       xlink:href="#linearGradient30"
       id="linearGradient32"
       x1="22.168245"
       y1="8.3883648"
       x2="22.168245"
       y2="15.796553"
       gradientUnits="userSpaceOnUse"
       gradientTransform="matrix(3.6396159,0,0,3.6396159,-32.683897,3.9880915)" />
    <linearGradient
       id="linearGradient30"
       inkscape:collect="always">
      <stop
         style="stop-color:#ffffff;stop-opacity:0.39772439;"
         offset="0"
         id="stop31" />
      <stop
         style="stop-color:#ffffff;stop-opacity:0.25192538;"
         offset="0.2"
         id="stop33" />
      <stop
         style="stop-color:#ffffff;stop-opacity:0.14896044;"
         offset="0.80000001"
         id="stop34" />
      <stop
         style="stop-color:#ffffff;stop-opacity:0.1960573;"
         offset="1"
         id="stop32" />
    </linearGradient>
  </defs>
  <g
     id="ds"
     opacity="0.25">
    <path
       id="ds-br"
       d="m 47.5,48.5 h 14 v 14 h -14 z"
       fill="url(#gradient_ds_br)"
       style="fill:url(#gradient_ds_br)" />
    <path
       id="ds-b"
       d="m 16.5,48.5 h 31 v 14 h -31 z"
       fill="url(#gradient_ds_b)"
       style="fill:url(#gradient_ds_b)" />
    <path
       id="ds-bl"
       d="m 2.5,48.5 h 14 v 14 h -14 z"
       fill="url(#gradient_ds_bl)"
       style="fill:url(#gradient_ds_bl)" />
    <path
       id="ds-r"
       d="m 47.5,18.5 h 14 v 30 h -14 z"
       fill="url(#gradient_ds_r)"
       style="fill:url(#gradient_ds_r)" />
    <path
       id="ds-l"
       d="m 2.5,18.5 h 14 v 30 h -14 z"
       fill="url(#gradient_ds_l)"
       style="fill:url(#gradient_ds_l)" />
    <path
       id="ds-tr"
       d="m 47.5,4.5 h 14 v 14 h -14 z"
       fill="url(#gradient_ds_tr)"
       style="fill:url(#gradient_ds_tr)" />
    <path
       id="ds-t"
       d="m 16.5,4.5 h 31 v 14 h -31 z"
       fill="url(#gradient_ds_t)"
       style="fill:url(#gradient_ds_t)" />
    <path
       id="ds-tl"
       d="m 16.5,4.5 h -14 v 14 h 14 z"
       fill="url(#gradient_ds_tl)"
       style="fill:url(#gradient_ds_tl)" />
  </g>
  <rect
     x="4.5"
     y="4.5"
     width="55"
     height="55"
     fill="url(#linearGradient1053)"
     id="bg"
     style="fill:url(#linearGradient1053);stroke-width:2.7444;stroke-linecap:round"
     rx="10" />
  <g
     id="art">
    <path
       d="m 25.149,49.722 h 6.2816 l 3.5505,-9.8777 8.4666,-22.122 h -5.7809 l -5.5078,16.751 -5.1892,-16.751 h -6.4182 l 8.6031,22.122 z"
       fill="#000000"
       filter="url(#filter10677)"
       opacity="0.15"
       id="path6"
       style="stroke-width:7.5865;stroke-linecap:square" />
    <path
       d="m 25.149,48 h 6.2816 l 3.5505,-9.8777 8.4666,-22.122 h -5.7809 l -5.5078,16.751 -5.1892,-16.751 h -6.4182 l 8.6031,22.122 z"
       id="path7"
       style="fill:#ffffff;stroke-width:7.5865;stroke-linecap:square" />
  </g>
  <g
     transform="matrix(1.0357145,0,0,1.0357146,-50.858699,14.786957)"
     id="em"
     style="stroke-width:0.965517">
    <path
       d="M 61.999997,48.000001 A 14,14 0 0 1 48,61.999998 14,14 0 0 1 33.999999,48.000001 14,14 0 0 1 48,34 14,14 0 0 1 61.999997,48.000001 Z"
       fill="url(#linearGradient7684)"
       stroke-width="3.87516"
       id="em-bg"
       style="fill:url(#linearGradient7684)"
       transform="translate(46.967,-16.415)" />
    <path
       d="M 60.999998,48.000001 A 12.999999,12.999999 0 0 1 48.000004,60.999995 12.999999,12.999999 0 0 1 35.000002,48.000001 12.999999,12.999999 0 0 1 48.000004,35.000002 12.999999,12.999999 0 0 1 60.999998,48.000001 Z"
       fill="url(#linearGradient7684)"
       stroke-width="1.0619"
       id="em-light"
       style="display:inline;opacity:0.4;fill:none;stroke:url(#linearGradient32);stroke-width:0.965517;stroke-dasharray:none"
       transform="translate(46.967,-16.415)" />
    <path
       d="M 61.999997,48.000001 A 13.999998,13.999999 0 0 1 48.000004,61.999994 13.999998,13.999999 0 0 1 34.000003,48.000001 13.999998,13.999999 0 0 1 48.000004,34.000002 13.999998,13.999999 0 0 1 61.999997,48.000001 Z"
       fill="url(#linearGradient7684)"
       stroke-width="1.0619"
       id="em-border"
       style="opacity:0.5;fill:none;stroke:#000000;stroke-width:0.965517;stroke-dasharray:none;stroke-opacity:1"
       transform="translate(46.967,-16.415)" />
    <path
       d="m 94.665573,21.584994 c -0.557924,0.02078 -0.864575,0.20806 -1.064434,0.610345 -0.128228,0.258144 -0.233036,0.688171 -0.233157,0.955765 -4.13e-4,0.981765 -0.991647,1.877389 -2.078866,1.877389 -0.533473,0 -0.826503,-0.146847 -1.906792,-0.955766 -0.491688,-0.368199 -0.802075,-0.27243 -1.564935,0.478512 -0.724789,0.713549 -0.743075,1.055263 -0.101322,1.906744 0.265207,0.351972 0.533916,0.821127 0.596923,1.043693 0.155836,0.550345 -0.0993,1.557753 -0.509045,2.0056 -0.335843,0.367063 -1.16979,0.653051 -1.897007,0.653051 -0.691503,0 -0.939932,0.393663 -0.939932,1.483111 0,0.848339 0.03257,0.964194 0.32348,1.157261 0.177793,0.118069 0.691381,0.267401 1.142576,0.332029 0.451216,0.06462 0.972075,0.217281 1.156004,0.339357 0.38833,0.257737 0.838432,1.18026 0.84229,1.727249 0.0032,0.397134 -0.302609,1.099262 -0.617689,1.418398 -0.343401,0.347836 -0.594602,0.980837 -0.504152,1.269473 0.115886,0.369821 0.90086,1.160618 1.307362,1.317115 0.232837,0.08969 0.401987,0.06354 0.627438,-0.09643 0.660817,-0.468804 1.791364,-0.977764 2.172866,-0.977764 0.575116,0 1.529078,0.507539 1.738293,0.925266 0.09849,0.196774 0.221286,0.655422 0.273429,1.01805 0.126436,0.87941 0.326301,1.293258 0.661631,1.364756 0.152436,0.03232 0.397751,0.08714 0.544429,0.120848 0.14669,0.03461 0.47694,0.03461 0.73365,0 0.66956,-0.08991 1.02643,-0.58913 1.13893,-1.592967 0.10283,-0.917837 0.18711,-1.065548 0.86308,-1.497753 0.68638,-0.438898 1.22364,-0.524596 1.75172,-0.279544 0.43784,0.203224 0.6148,0.308522 1.332997,0.78734 0.52622,0.350908 0.85415,0.292915 1.46236,-0.263673 0.91465,-0.836911 0.93308,-1.200832 0.11354,-2.156954 -0.78008,-0.909909 -0.78894,-2.029385 -0.022,-2.889224 0.2937,-0.329294 0.55704,-0.443834 1.427,-0.617673 1.3135,-0.262437 1.52693,-0.476926 1.53071,-1.542967 0.003,-1.064764 -0.16559,-1.238759 -1.39893,-1.431827 -1.17357,-0.18376 -1.54928,-0.44889 -1.96172,-1.378185 -0.34283,-0.772698 -0.24825,-1.225474 0.48342,-2.286309 0.37519,-0.543974 0.56196,-0.94098 0.5188,-1.108334 -0.0964,-0.373513 -1.31215,-1.48804 -1.62357,-1.48804 -0.14423,0 -0.52824,0.207682 -0.85329,0.458976 -0.896647,0.693364 -1.430647,0.849983 -2.197297,0.644487 -0.90079,-0.241302 -1.22143,-0.62178 -1.44901,-1.721177 -0.26128,-1.262617 -0.42976,-1.489827 -1.17314,-1.574682 -0.24766,-0.02847 -0.46103,-0.03988 -0.64701,-0.03296 v -0.0024 z m 0.30152,6.249868 a 3.750086,3.7499918 0 0 1 3.75009,3.749992 3.750086,3.7499918 0 0 1 -3.75009,3.749992 3.750086,3.7499918 0 0 1 -3.750084,-3.749992 3.750086,3.7499918 0 0 1 3.750084,-3.749992 z"
       fill="#ffffff"
       stroke-width="0.724141"
       id="em-glyph" />
  </g>
</svg>
