<svg width="64" height="64" viewBox="0 0 64 64" fill="none" xmlns="http://www.w3.org/2000/svg">
<g id="application-dicom" clip-path="url(#clip0_1152_5032)">
<g id="Blank-File" clip-path="url(#clip1_1152_5032)">
<g id="Shadow 2" opacity="0.1">
<path id="Vector" d="M11.9792 59.0258H51.9787V65.024H11.9792V59.0258Z" fill="url(#paint0_linear_1152_5032)"/>
<path id="Vector_2" d="M34.979 1.02405V8.02405L41.979 1.02405H34.979Z" fill="url(#paint1_radial_1152_5032)"/>
<path id="Vector_3" d="M41.979 1.02405L34.979 8.02405L48.979 23.024L57.979 14.024V4.56905L54.434 1.02405H41.979Z" fill="url(#paint2_linear_1152_5032)"/>
<path id="Vector_4" d="M57.979 14.024L48.979 23.024H57.979V14.024Z" fill="url(#paint3_radial_1152_5032)"/>
<path id="Vector_5" d="M11.9792 1.02405H34.9781V5.02286H11.9792V1.02405Z" fill="url(#paint4_linear_1152_5032)"/>
<path id="Vector_6" d="M5.97723 1.02405H11.9755V5.02286H5.97723V1.02405Z" fill="url(#paint5_radial_1152_5032)"/>
<path id="Vector_7" d="M51.9787 23.0251H57.977V59.0258H51.9787V23.0251Z" fill="url(#paint6_linear_1152_5032)"/>
<path id="Vector_8" d="M5.97723 5.02283H11.9755V59.022H5.97723V5.02283Z" fill="url(#paint7_linear_1152_5032)"/>
<path id="Vector_9" d="M51.9787 59.0258H57.977V65.024H51.9787V59.0258Z" fill="url(#paint8_radial_1152_5032)"/>
<path id="Vector_10" d="M5.97723 59.0258H11.9755V65.024H5.97723V59.0258Z" fill="url(#paint9_radial_1152_5032)"/>
</g>
<g id="Shadow 1" opacity="0.2">
<path id="Vector_11" d="M11.9792 59.0258H51.9787V65.024H11.9792V59.0258Z" fill="url(#paint10_linear_1152_5032)"/>
<path id="Vector_12" d="M34.9792 1.02405V8.02409L41.9793 1.02405H34.9792Z" fill="url(#paint11_radial_1152_5032)"/>
<path id="Vector_13" d="M41.9793 1.02405L34.9792 8.02409L48.9793 23.0242L57.9794 14.0241V4.56907L54.4344 1.02405H41.9793Z" fill="url(#paint12_linear_1152_5032)"/>
<path id="Vector_14" d="M57.9794 14.0242L48.9793 23.0242H57.9794V14.0242Z" fill="url(#paint13_radial_1152_5032)"/>
<path id="Vector_15" d="M11.9792 1.02405H34.9781V5.02286H11.9792V1.02405Z" fill="url(#paint14_linear_1152_5032)"/>
<path id="Vector_16" d="M11.9755 1.02405H5.97723V5.02286H11.9755V1.02405Z" fill="url(#paint15_radial_1152_5032)"/>
<path id="Vector_17" d="M51.9787 23.0251H57.977V59.0258H51.9787V23.0251Z" fill="url(#paint16_linear_1152_5032)"/>
<path id="Vector_18" d="M5.97723 5.02283H11.9755V59.022H5.97723V5.02283Z" fill="url(#paint17_linear_1152_5032)"/>
<path id="Vector_19" d="M51.9787 59.0258H57.977V65.024H51.9787V59.0258Z" fill="url(#paint18_radial_1152_5032)"/>
<path id="Vector_20" d="M5.97723 59.0258H11.9755V65.024H5.97723V59.0258Z" fill="url(#paint19_radial_1152_5032)"/>
</g>
<path id="Paper" d="M10.9776 2.02563C10.4477 2.02663 9.93969 2.23761 9.56494 2.61235C9.1902 2.9871 8.97923 3.49507 8.97823 4.02504V60.0236C8.97823 61.131 9.87021 62.023 10.9814 62.023H52.9766C54.0878 62.023 54.9797 61.131 54.9797 60.0198V21.0257C54.9797 20.0241 54.3674 18.4178 52.9766 17.0231L39.9747 4.02126C39.508 3.4038 38.905 2.90245 38.2127 2.5563C37.5204 2.21015 36.7575 2.02854 35.9835 2.02563H10.9776Z" fill="url(#paint20_linear_1152_5032)"/>
</g>
<g id="Logo">
<path id="Vector_21" d="M30.006 24.001C30.848 24.001 31.534 24.671 31.534 25.495V31.41C31.0964 31.0718 30.5591 30.8882 30.006 30.888C29.747 30.888 29.538 31.093 29.538 31.346C29.538 31.599 29.748 31.803 30.006 31.803C30.848 31.803 31.534 32.473 31.534 33.297V44.286C30.9336 43.53 30.104 42.9893 29.17 42.745C29.0511 42.7129 28.9243 42.7287 28.817 42.7891C28.7096 42.8495 28.6303 42.9497 28.596 43.068C28.5808 43.1265 28.5773 43.1874 28.5856 43.2473C28.594 43.3072 28.6141 43.3648 28.6447 43.4169C28.6754 43.469 28.716 43.5145 28.7643 43.5509C28.8125 43.5873 28.8675 43.6139 28.926 43.629C30.462 44.033 31.534 45.399 31.534 46.953C31.534 48.853 29.954 50.398 28.011 50.398C27.3734 50.4005 26.747 50.2304 26.1984 49.9055C25.6498 49.5807 25.1993 49.1133 24.895 48.553C24.8642 48.4968 24.8222 48.4475 24.7717 48.4081C24.7211 48.3687 24.663 48.3401 24.601 48.324C23.066 47.921 21.996 46.556 21.996 45.004C21.996 44.7693 22.0193 44.538 22.066 44.31C22.0866 44.2073 22.0712 44.1006 22.0224 44.0079C21.9736 43.9152 21.8943 43.8421 21.798 43.801C20.706 43.326 20 42.268 20 41.101C20 40.571 20.14 40.064 20.408 39.615C21.1349 40.241 22.0627 40.5849 23.022 40.584C23.0829 40.5848 23.1433 40.5736 23.1999 40.551C23.2564 40.5284 23.3079 40.4948 23.3515 40.4523C23.3951 40.4097 23.4298 40.359 23.4538 40.303C23.4777 40.247 23.4903 40.1869 23.491 40.126C23.4902 40.0652 23.4775 40.0051 23.4535 39.9493C23.4295 39.8934 23.3947 39.8428 23.3512 39.8004C23.3076 39.7579 23.2561 39.7245 23.1996 39.7019C23.1432 39.6794 23.0828 39.6682 23.022 39.669C21.355 39.669 20 38.341 20 36.711C20 35.833 20.396 35.006 21.087 34.442C21.1625 34.381 21.2163 34.2972 21.2402 34.2031C21.2642 34.109 21.2571 34.0097 21.22 33.92C21.0735 33.5682 20.9977 33.1911 20.997 32.81C20.997 31.18 22.352 29.854 24.02 29.854C25.688 29.854 27.045 31.18 27.045 32.81C27.045 33.063 27.254 33.267 27.513 33.267C27.772 33.267 27.981 33.063 27.981 32.81C27.981 30.759 26.341 29.077 24.275 28.949C24.088 28.6432 23.9893 28.2915 23.99 27.933C23.9926 27.5428 24.1105 27.162 24.3288 26.8386C24.5471 26.5151 24.8561 26.2634 25.217 26.115C25.2449 26.1063 25.2717 26.0946 25.297 26.08C25.521 25.996 25.76 25.9533 26.014 25.952C26.3923 25.9483 26.7641 26.051 27.0869 26.2483C27.4098 26.4456 27.6707 26.7296 27.84 27.068C27.8958 27.1775 27.9922 27.2608 28.1087 27.3001C28.2251 27.3393 28.3523 27.3314 28.463 27.278C28.5178 27.2528 28.5671 27.2169 28.6077 27.1723C28.6484 27.1278 28.6797 27.0755 28.6998 27.0186C28.7198 26.9617 28.7283 26.9013 28.7245 26.8411C28.7208 26.7808 28.705 26.722 28.678 26.668C28.4812 26.2803 28.2017 25.9406 27.8592 25.6727C27.5168 25.4049 27.1197 25.2155 26.696 25.118C27.89 24.405 29.06 24.001 30.004 24.001M33.994 24.001C34.932 24.001 36.107 24.406 37.301 25.117C36.45 25.317 35.71 25.883 35.319 26.668C35.2921 26.722 35.2763 26.781 35.2726 26.8412C35.269 26.9015 35.2775 26.9619 35.2976 27.0188C35.3178 27.0757 35.3492 27.128 35.39 27.1725C35.4307 27.2171 35.4801 27.2529 35.535 27.278C35.6459 27.332 35.7736 27.3403 35.8905 27.301C36.0074 27.2617 36.1042 27.178 36.16 27.068C36.3291 26.7301 36.5895 26.4464 36.9118 26.2491C37.234 26.0518 37.6052 25.9489 37.983 25.952C38.237 25.9533 38.4763 25.996 38.701 26.08C39.0826 26.2175 39.4128 26.4688 39.6469 26.8C39.881 27.1313 40.0078 27.5264 40.01 27.932C40.01 28.294 39.91 28.643 39.722 28.949C37.657 29.077 36.019 30.759 36.019 32.809C36.019 33.063 36.229 33.267 36.487 33.267C36.745 33.267 36.955 33.063 36.955 32.81C36.955 31.18 38.31 29.854 39.978 29.854C41.646 29.854 43.003 31.18 43.003 32.81C43.003 33.19 42.927 33.564 42.78 33.92C42.7429 34.0097 42.7358 34.109 42.7598 34.2031C42.7837 34.2972 42.8375 34.381 42.913 34.442C43.2513 34.7157 43.5244 35.0614 43.7124 35.4539C43.9005 35.8464 43.9987 36.2758 44 36.711C44 38.341 42.643 39.669 40.975 39.669C40.716 39.669 40.507 39.873 40.507 40.126C40.507 40.379 40.717 40.584 40.975 40.584C41.9345 40.5846 42.8622 40.2404 43.589 39.614C43.858 40.064 43.999 40.571 43.999 41.101C43.9947 41.6771 43.8224 42.2394 43.5032 42.719C43.184 43.1986 42.7318 43.5747 42.202 43.801C42.1055 43.8422 42.0261 43.9154 41.9773 44.0083C41.9284 44.1012 41.9132 44.2081 41.934 44.311C41.981 44.537 42.004 44.771 42.004 45.003C42.004 46.556 40.932 47.92 39.397 48.324C39.3353 48.3404 39.2776 48.3691 39.2274 48.4085C39.1772 48.4478 39.1356 48.497 39.105 48.553C38.8004 49.1137 38.3495 49.5814 37.8003 49.9063C37.2511 50.2312 36.6241 50.4011 35.986 50.398C34.044 50.398 32.464 48.851 32.464 46.953C32.464 46.8237 32.4577 46.696 32.445 46.57C32.4576 46.5306 32.464 46.4894 32.464 46.448V31.346C32.464 30.523 33.15 29.853 33.992 29.853C34.0528 29.8537 34.1131 29.8423 34.1696 29.8197C34.226 29.797 34.2774 29.7635 34.3209 29.7209C34.3643 29.6784 34.399 29.6277 34.4229 29.5718C34.4467 29.5159 34.4593 29.4558 34.46 29.395C34.4584 29.2724 34.4083 29.1554 34.3205 29.0697C34.2328 28.984 34.1146 28.9367 33.992 28.938C33.4389 28.9382 32.9016 29.1218 32.464 29.46V25.493C32.464 24.67 33.15 24 33.992 24M40.975 31.863C40.8524 31.8617 40.7342 31.909 40.6465 31.9947C40.5587 32.0804 40.5086 32.1974 40.507 32.32C40.507 33.95 39.152 35.276 37.485 35.276C37.0843 35.2785 36.687 35.2015 36.3162 35.0494C35.9455 34.8973 35.6086 34.6732 35.325 34.39C35.2366 34.3035 35.1181 34.2545 34.9944 34.2532C34.8707 34.2519 34.7512 34.2984 34.661 34.383C34.6173 34.4245 34.5824 34.4743 34.5583 34.5295C34.5342 34.5848 34.5215 34.6443 34.5208 34.7045C34.5202 34.7648 34.5316 34.8245 34.5545 34.8803C34.5774 34.936 34.6112 34.9866 34.654 35.029C35.2978 35.6721 36.1429 36.0746 37.048 36.169C37.263 37.559 38.495 38.629 39.977 38.629C40.235 38.629 40.445 38.425 40.445 38.172C40.445 37.919 40.235 37.715 39.977 37.715C39.007 37.715 38.197 37.045 37.997 36.157C39.937 35.908 41.442 34.284 41.442 32.32C41.4404 32.1974 41.3903 32.0804 41.3025 31.9947C41.2148 31.909 41.0966 31.8617 40.974 31.863M24.015 32.352C23.9543 32.3509 23.8941 32.3619 23.8377 32.3842C23.7813 32.4066 23.7298 32.4398 23.6863 32.4821C23.6428 32.5244 23.6081 32.5749 23.5842 32.6306C23.5603 32.6864 23.5477 32.7463 23.547 32.807C23.547 34.771 25.051 36.399 26.992 36.646C26.8869 37.0912 26.6338 37.4876 26.2741 37.7703C25.9145 38.053 25.4695 38.2052 25.012 38.202C24.754 38.202 24.544 38.406 24.544 38.659C24.544 38.912 24.754 39.117 25.012 39.117C26.494 39.117 27.727 38.047 27.941 36.655C28.8459 36.5622 29.6913 36.1607 30.335 35.518C30.3781 35.4756 30.4122 35.4249 30.4353 35.3689C30.4583 35.313 30.4699 35.253 30.4692 35.1925C30.4686 35.132 30.4557 35.0723 30.4315 35.0169C30.4072 34.9615 30.372 34.9115 30.328 34.87C30.2387 34.7852 30.1198 34.7384 29.9966 34.7397C29.8734 34.7411 29.7555 34.7903 29.668 34.877C29.3842 35.1602 29.0471 35.3845 28.6762 35.5369C28.3053 35.6893 27.908 35.7668 27.507 35.765C25.839 35.765 24.482 34.437 24.482 32.807C24.4813 32.7463 24.4687 32.6864 24.4448 32.6306C24.4209 32.5749 24.3862 32.5244 24.3427 32.4821C24.2992 32.4398 24.2477 32.4066 24.1913 32.3842C24.1349 32.3619 24.0747 32.3509 24.014 32.352M33.991 39.178C33.731 39.178 33.522 39.383 33.522 39.635C33.522 39.887 33.732 40.093 33.991 40.093C35.658 40.093 37.015 41.421 37.015 43.051C37.015 43.155 37.0087 43.2587 36.996 43.362C35.546 43.937 34.52 45.33 34.52 46.952C34.52 47.205 34.729 47.409 34.988 47.409C35.1106 47.4103 35.2288 47.363 35.3165 47.2773C35.4043 47.1916 35.4544 47.0746 35.456 46.952C35.456 45.322 36.813 43.994 38.481 43.994C38.739 43.994 38.949 43.789 38.949 43.536C38.949 43.283 38.739 43.079 38.481 43.079C38.301 43.079 38.121 43.092 37.949 43.115L37.951 43.051C37.951 40.916 36.174 39.178 33.991 39.178ZM28.505 40.153C26.322 40.153 24.545 41.891 24.545 44.026L24.547 44.09C24.3707 44.0662 24.1929 44.0542 24.015 44.054C23.756 44.054 23.547 44.259 23.547 44.511C23.547 44.763 23.757 44.969 24.015 44.969C25.683 44.969 27.04 46.297 27.04 47.927C27.04 48.18 27.25 48.384 27.508 48.384C27.766 48.384 27.976 48.18 27.976 47.927C27.976 46.305 26.951 44.911 25.499 44.337C25.4873 44.2337 25.4809 44.1299 25.48 44.026C25.48 42.396 26.838 41.068 28.505 41.068C28.764 41.068 28.973 40.863 28.973 40.61C28.973 40.357 28.763 40.153 28.505 40.153Z" fill="url(#paint21_linear_1152_5032)"/>
</g>
<g id="Blank-File-Top">
<g id="Curl">
<g id="Shadow">
<path id="Vector_22" opacity="0.05" d="M39.9785 17.0229H23.9795V33.022H39.9785V17.0229Z" fill="url(#paint22_radial_1152_5032)"/>
<path id="Vector_23" opacity="0.05" d="M23.9792 2.02393V11.024H39.9793V4.02394C38.6413 2.33093 36.9792 2.02393 35.9792 2.02393H23.9792Z" fill="url(#paint23_radial_1152_5032)"/>
<path id="Vector_24" opacity="0.05" d="M39.9785 11.0248H23.9795V17.023H39.9785V11.0248Z" fill="url(#paint24_linear_1152_5032)"/>
<path id="Vector_25" opacity="0.2" d="M39.9785 11.0248H28.9799V17.023H39.9785V11.0248Z" fill="url(#paint25_linear_1152_5032)"/>
<path id="Vector_26" opacity="0.2" d="M39.9785 17.0229H28.9799V28.0216H39.9785V17.0229Z" fill="url(#paint26_radial_1152_5032)"/>
<path id="Vector_27" opacity="0.2" d="M28.9792 2.02393V11.024H39.9793V4.02394C39.5247 3.43832 38.9524 2.95457 38.2993 2.60393L35.9792 2.02393H28.9792Z" fill="url(#paint27_radial_1152_5032)"/>
<path id="Vector_28" opacity="0.05" d="M39.9785 17.0229V33.022H45.9767V17.0229H39.9785Z" fill="url(#paint28_linear_1152_5032)"/>
<path id="Vector_29" opacity="0.2" d="M39.9785 17.0268V28.0254H45.9767V17.0268H39.9785Z" fill="url(#paint29_linear_1152_5032)"/>
<path id="Vector_30" opacity="0.2" d="M45.9793 17.024V28.0241H54.9794V21.0241L54.5394 19.2641C54.1608 18.4283 53.632 17.669 52.9793 17.024H45.9793Z" fill="url(#paint30_radial_1152_5032)"/>
<path id="Vector_31" opacity="0.05" d="M45.979 17.0239V33.0239H54.979V21.0239C54.979 20.8919 54.953 20.7239 54.939 20.5709C54.791 19.5779 54.176 18.2209 52.979 17.0239H45.979Z" fill="url(#paint31_radial_1152_5032)"/>
</g>
<path id="Paper_2" d="M37.9791 2.44141V17.0193C37.9791 18.1267 38.8711 19.0187 39.9823 19.0187H54.443C54.0748 18.2764 53.587 17.5996 52.9992 17.0155L39.9974 4.01372C39.4687 3.33484 38.7824 2.79515 37.998 2.44141H37.9791Z" fill="url(#paint32_linear_1152_5032)"/>
</g>
</g>
</g>
<defs>
<linearGradient id="paint0_linear_1152_5032" x1="29.9777" y1="59.0258" x2="29.9777" y2="65.024" gradientUnits="userSpaceOnUse">
<stop/>
<stop offset="1" stop-opacity="0"/>
</linearGradient>
<radialGradient id="paint1_radial_1152_5032" cx="0" cy="0" r="1" gradientUnits="userSpaceOnUse" gradientTransform="translate(34.978 5.02445) scale(6.32269 4.00052)">
<stop/>
<stop offset="1" stop-opacity="0"/>
</radialGradient>
<linearGradient id="paint2_linear_1152_5032" x1="42.979" y1="13.024" x2="46.727" y2="9.27605" gradientUnits="userSpaceOnUse">
<stop/>
<stop offset="1" stop-opacity="0"/>
</linearGradient>
<radialGradient id="paint3_radial_1152_5032" cx="0" cy="0" r="1" gradientUnits="userSpaceOnUse" gradientTransform="translate(51.9788 23.0242) scale(4.99995 6.94012)">
<stop/>
<stop offset="1" stop-opacity="0"/>
</radialGradient>
<linearGradient id="paint4_linear_1152_5032" x1="21.9801" y1="5.02286" x2="21.9801" y2="1.02405" gradientUnits="userSpaceOnUse">
<stop/>
<stop offset="1" stop-opacity="0"/>
</linearGradient>
<radialGradient id="paint5_radial_1152_5032" cx="0" cy="0" r="1" gradientUnits="userSpaceOnUse" gradientTransform="translate(11.9794 5.02578) rotate(-90) scale(4.00124 5.00177)">
<stop/>
<stop offset="1" stop-opacity="0"/>
</radialGradient>
<linearGradient id="paint6_linear_1152_5032" x1="51.9787" y1="41.0236" x2="56.9791" y2="41.0236" gradientUnits="userSpaceOnUse">
<stop/>
<stop offset="1" stop-opacity="0"/>
</linearGradient>
<linearGradient id="paint7_linear_1152_5032" x1="11.9792" y1="33.0221" x2="6.97882" y2="33.0221" gradientUnits="userSpaceOnUse">
<stop/>
<stop offset="1" stop-opacity="0"/>
</linearGradient>
<radialGradient id="paint8_radial_1152_5032" cx="0" cy="0" r="1" gradientUnits="userSpaceOnUse" gradientTransform="translate(51.9743 59.022) rotate(90) scale(6.00201 5.00177)">
<stop/>
<stop offset="1" stop-opacity="0"/>
</radialGradient>
<radialGradient id="paint9_radial_1152_5032" cx="0" cy="0" r="1" gradientUnits="userSpaceOnUse" gradientTransform="translate(11.9763 59.022) rotate(180) scale(5.00177 6.00201)">
<stop/>
<stop offset="1" stop-opacity="0"/>
</radialGradient>
<linearGradient id="paint10_linear_1152_5032" x1="29.9777" y1="59.0258" x2="29.9777" y2="64.0224" gradientUnits="userSpaceOnUse">
<stop/>
<stop offset="1" stop-opacity="0"/>
</linearGradient>
<radialGradient id="paint11_radial_1152_5032" cx="0" cy="0" r="1" gradientUnits="userSpaceOnUse" gradientTransform="translate(34.9787 5.02335) scale(6.00771 3.00039)">
<stop/>
<stop offset="1" stop-opacity="0"/>
</radialGradient>
<linearGradient id="paint12_linear_1152_5032" x1="42.9793" y1="13.0241" x2="45.9833" y2="10.0201" gradientUnits="userSpaceOnUse">
<stop/>
<stop offset="1" stop-opacity="0"/>
</linearGradient>
<radialGradient id="paint13_radial_1152_5032" cx="0" cy="0" r="1" gradientUnits="userSpaceOnUse" gradientTransform="translate(51.98 23.0236) scale(4 6.38885)">
<stop/>
<stop offset="1" stop-opacity="0"/>
</radialGradient>
<linearGradient id="paint14_linear_1152_5032" x1="21.9801" y1="5.02286" x2="21.9801" y2="2.02564" gradientUnits="userSpaceOnUse">
<stop/>
<stop offset="1" stop-opacity="0"/>
</linearGradient>
<radialGradient id="paint15_radial_1152_5032" cx="0" cy="0" r="1" gradientUnits="userSpaceOnUse" gradientTransform="translate(11.9791 5.02286) rotate(-90) scale(3.001 4.00124)">
<stop/>
<stop offset="1" stop-opacity="0"/>
</radialGradient>
<linearGradient id="paint16_linear_1152_5032" x1="51.9787" y1="41.0236" x2="55.9776" y2="41.0236" gradientUnits="userSpaceOnUse">
<stop/>
<stop offset="1" stop-opacity="0"/>
</linearGradient>
<linearGradient id="paint17_linear_1152_5032" x1="11.9792" y1="33.0221" x2="7.98041" y2="33.0221" gradientUnits="userSpaceOnUse">
<stop/>
<stop offset="1" stop-opacity="0"/>
</linearGradient>
<radialGradient id="paint18_radial_1152_5032" cx="0" cy="0" r="1" gradientUnits="userSpaceOnUse" gradientTransform="translate(51.9794 59.0237) rotate(90) scale(5.00177 4.00124)">
<stop/>
<stop offset="1" stop-opacity="0"/>
</radialGradient>
<radialGradient id="paint19_radial_1152_5032" cx="0" cy="0" r="1" gradientUnits="userSpaceOnUse" gradientTransform="translate(11.9784 59.0175) rotate(180) scale(4.00124 5.00177)">
<stop/>
<stop offset="1" stop-opacity="0"/>
</radialGradient>
<linearGradient id="paint20_linear_1152_5032" x1="45.9758" y1="10.025" x2="9.98042" y2="61.0233" gradientUnits="userSpaceOnUse">
<stop stop-color="#EDEDED"/>
<stop offset="1" stop-color="#FCFCFC"/>
</linearGradient>
<linearGradient id="paint21_linear_1152_5032" x1="26.2815" y1="23.9986" x2="26.2815" y2="50.398" gradientUnits="userSpaceOnUse">
<stop stop-color="#808080"/>
<stop offset="1" stop-color="#4D4D4D"/>
</linearGradient>
<radialGradient id="paint22_radial_1152_5032" cx="0" cy="0" r="1" gradientUnits="userSpaceOnUse" gradientTransform="translate(39.9785 17.0267) rotate(180) scale(16.0028 16.0028)">
<stop/>
<stop offset="1" stop-opacity="0"/>
</radialGradient>
<radialGradient id="paint23_radial_1152_5032" cx="0" cy="0" r="1" gradientUnits="userSpaceOnUse" gradientTransform="translate(39.9793 11.024) rotate(-90) scale(12.0001 16.0001)">
<stop/>
<stop offset="1" stop-opacity="0"/>
</radialGradient>
<linearGradient id="paint24_linear_1152_5032" x1="39.9785" y1="14.3572" x2="23.9795" y2="14.3572" gradientUnits="userSpaceOnUse">
<stop/>
<stop offset="1" stop-opacity="0"/>
</linearGradient>
<linearGradient id="paint25_linear_1152_5032" x1="39.9785" y1="14.0246" x2="32.9787" y2="14.0246" gradientUnits="userSpaceOnUse">
<stop/>
<stop offset="1" stop-opacity="0"/>
</linearGradient>
<radialGradient id="paint26_radial_1152_5032" cx="0" cy="0" r="1" gradientUnits="userSpaceOnUse" gradientTransform="translate(39.978 17.0243) rotate(180) scale(7.00124 7.02916)">
<stop/>
<stop offset="1" stop-opacity="0"/>
</radialGradient>
<radialGradient id="paint27_radial_1152_5032" cx="0" cy="0" r="1" gradientUnits="userSpaceOnUse" gradientTransform="translate(39.9792 11.023) rotate(-90) scale(10.4625 7.03869)">
<stop/>
<stop offset="1" stop-opacity="0"/>
</radialGradient>
<linearGradient id="paint28_linear_1152_5032" x1="43.3109" y1="17.0229" x2="43.3109" y2="33.022" gradientUnits="userSpaceOnUse">
<stop/>
<stop offset="1" stop-opacity="0"/>
</linearGradient>
<linearGradient id="paint29_linear_1152_5032" x1="42.9783" y1="17.023" x2="42.9783" y2="24.0493" gradientUnits="userSpaceOnUse">
<stop/>
<stop offset="1" stop-opacity="0"/>
</linearGradient>
<radialGradient id="paint30_radial_1152_5032" cx="0" cy="0" r="1" gradientUnits="userSpaceOnUse" gradientTransform="translate(45.9793 17.0242) scale(11.4689 7.02797)">
<stop/>
<stop offset="1" stop-opacity="0"/>
</radialGradient>
<radialGradient id="paint31_radial_1152_5032" cx="0" cy="0" r="1" gradientUnits="userSpaceOnUse" gradientTransform="translate(45.979 17.0239) scale(12 16)">
<stop/>
<stop offset="1" stop-opacity="0"/>
</radialGradient>
<linearGradient id="paint32_linear_1152_5032" x1="39.9793" y1="17.0226" x2="45.9793" y2="11.0225" gradientUnits="userSpaceOnUse">
<stop stop-color="#FEFEFE"/>
<stop offset="1" stop-color="#E9E9E9"/>
</linearGradient>
<clipPath id="clip0_1152_5032">
<rect width="64" height="64" fill="white"/>
</clipPath>
<clipPath id="clip1_1152_5032">
<rect width="64" height="64" fill="white"/>
</clipPath>
</defs>
</svg>
