<svg width="64" height="64" viewBox="0 0 64 64" fill="none" xmlns="http://www.w3.org/2000/svg">
<g id="x-office-spreadsheet" clip-path="url(#clip0_3114_1897)">
<g id="Blank-File" clip-path="url(#clip1_3114_1897)">
<g id="Shadow 2" opacity="0.1">
<path id="Vector" d="M11.9792 59.0256H51.9787V65.0239H11.9792V59.0256Z" fill="url(#paint0_linear_3114_1897)"/>
<path id="Vector_2" d="M34.979 1.02393V8.02393L41.979 1.02393H34.979Z" fill="url(#paint1_radial_3114_1897)"/>
<path id="Vector_3" d="M41.979 1.02393L34.979 8.02393L48.979 23.0239L57.979 14.0239V4.56893L54.434 1.02393H41.979Z" fill="url(#paint2_linear_3114_1897)"/>
<path id="Vector_4" d="M57.979 14.0239L48.979 23.0239H57.979V14.0239Z" fill="url(#paint3_radial_3114_1897)"/>
<path id="Vector_5" d="M11.9792 1.02393H34.9781V5.02274H11.9792V1.02393Z" fill="url(#paint4_linear_3114_1897)"/>
<path id="Vector_6" d="M5.97723 1.02393H11.9755V5.02274H5.97723V1.02393Z" fill="url(#paint5_radial_3114_1897)"/>
<path id="Vector_7" d="M51.9787 23.0249H57.977V59.0256H51.9787V23.0249Z" fill="url(#paint6_linear_3114_1897)"/>
<path id="Vector_8" d="M5.97723 5.02271H11.9755V59.0219H5.97723V5.02271Z" fill="url(#paint7_linear_3114_1897)"/>
<path id="Vector_9" d="M51.9787 59.0256H57.977V65.0239H51.9787V59.0256Z" fill="url(#paint8_radial_3114_1897)"/>
<path id="Vector_10" d="M5.97723 59.0256H11.9755V65.0239H5.97723V59.0256Z" fill="url(#paint9_radial_3114_1897)"/>
</g>
<g id="Shadow 1" opacity="0.2">
<path id="Vector_11" d="M11.9792 59.0256H51.9787V65.0239H11.9792V59.0256Z" fill="url(#paint10_linear_3114_1897)"/>
<path id="Vector_12" d="M34.9792 1.02393V8.02397L41.9793 1.02393H34.9792Z" fill="url(#paint11_radial_3114_1897)"/>
<path id="Vector_13" d="M41.9793 1.02393L34.9792 8.02397L48.9793 23.0241L57.9794 14.024V4.56895L54.4344 1.02393H41.9793Z" fill="url(#paint12_linear_3114_1897)"/>
<path id="Vector_14" d="M57.9794 14.0239L48.9793 23.024H57.9794V14.0239Z" fill="url(#paint13_radial_3114_1897)"/>
<path id="Vector_15" d="M11.9792 1.02393H34.9781V5.02274H11.9792V1.02393Z" fill="url(#paint14_linear_3114_1897)"/>
<path id="Vector_16" d="M11.9755 1.02393H5.97723V5.02274H11.9755V1.02393Z" fill="url(#paint15_radial_3114_1897)"/>
<path id="Vector_17" d="M51.9787 23.0249H57.977V59.0256H51.9787V23.0249Z" fill="url(#paint16_linear_3114_1897)"/>
<path id="Vector_18" d="M5.97723 5.02271H11.9755V59.0219H5.97723V5.02271Z" fill="url(#paint17_linear_3114_1897)"/>
<path id="Vector_19" d="M51.9787 59.0256H57.977V65.0239H51.9787V59.0256Z" fill="url(#paint18_radial_3114_1897)"/>
<path id="Vector_20" d="M5.97723 59.0256H11.9755V65.0239H5.97723V59.0256Z" fill="url(#paint19_radial_3114_1897)"/>
</g>
<path id="Paper" d="M10.9776 2.02563C10.4477 2.02663 9.93969 2.23761 9.56494 2.61235C9.1902 2.9871 8.97922 3.49507 8.97823 4.02504V60.0236C8.97823 61.131 9.87021 62.023 10.9814 62.023H52.9766C54.0878 62.023 54.9797 61.131 54.9797 60.0198V21.0257C54.9797 20.0241 54.3674 18.4178 52.9766 17.0231L39.9747 4.02126C39.508 3.4038 38.905 2.90245 38.2127 2.5563C37.5204 2.21015 36.7575 2.02854 35.9835 2.02563H10.9776Z" fill="url(#paint20_linear_3114_1897)"/>
</g>
<g id="Logo" clip-path="url(#clip2_3114_1897)">
<g id="Logo Reference">
<g id="Row">
<g id="Table Cell">
<rect id="Bg" opacity="0.25" x="19" y="24" width="8" height="3" rx="1" fill="#00803F"/>
</g>
<g id="Table Cell_2">
<rect id="Bg_2" opacity="0.25" x="28" y="24" width="8" height="3" rx="1" fill="#00803F"/>
</g>
<g id="Table Cell_3">
<rect id="Bg_3" opacity="0.25" x="37" y="24" width="8" height="3" rx="1" fill="#00803F"/>
</g>
</g>
<g id="Row_2">
<g id="Table Cell_4">
<rect id="Bg_4" opacity="0.25" x="19" y="29" width="8" height="3" rx="1" fill="#00803F"/>
</g>
<g id="Table Cell_5">
<rect id="Bg_5" opacity="0.25" x="28" y="29" width="8" height="3" rx="1" fill="#00803F"/>
</g>
<g id="Table Cell_6">
<rect id="Bg_6" opacity="0.25" x="37" y="29" width="8" height="3" rx="1" fill="#00803F"/>
</g>
</g>
<g id="Row_3">
<g id="Table Cell_7">
<rect id="Bg_7" opacity="0.25" x="19" y="34" width="8" height="3" rx="1" fill="#00803F"/>
</g>
<g id="Table Cell_8">
<rect id="Bg_8" opacity="0.25" x="28" y="34" width="8" height="3" rx="1" fill="#00803F"/>
</g>
<g id="Table Cell_9">
<rect id="Bg_9" opacity="0.25" x="37" y="34" width="8" height="3" rx="1" fill="#00803F"/>
</g>
</g>
<g id="Row_4">
<g id="Table Cell_10">
<rect id="Bg_10" opacity="0.25" x="28" y="39" width="8" height="3" rx="1" fill="#00803F"/>
</g>
<g id="Table Cell_11">
<rect id="Bg_11" opacity="0.25" x="37" y="39" width="8" height="3" rx="1" fill="#00803F"/>
</g>
</g>
<path id="S" d="M24.7183 41.5562C24.6615 41.0765 24.4311 40.7041 24.0272 40.439C23.6232 40.1739 23.1278 40.0414 22.5408 40.0414C22.1116 40.0414 21.7361 40.1108 21.4142 40.2497C21.0954 40.3885 20.8461 40.5795 20.6662 40.8225C20.4895 41.0655 20.4012 41.3416 20.4012 41.6509C20.4012 41.9096 20.4627 42.1321 20.5858 42.3183C20.712 42.5013 20.873 42.6544 21.0686 42.7775C21.2643 42.8974 21.4694 42.9968 21.684 43.0757C21.8986 43.1514 22.0958 43.213 22.2757 43.2603L23.2603 43.5254C23.5128 43.5917 23.7936 43.6832 24.1029 43.7999C24.4153 43.9167 24.7135 44.0761 24.9976 44.278C25.2847 44.4769 25.5214 44.7325 25.7076 45.0449C25.8938 45.3573 25.9869 45.7407 25.9869 46.1952C25.9869 46.719 25.8496 47.1924 25.5751 47.6153C25.3037 48.0381 24.906 48.3742 24.3822 48.6235C23.8615 48.8728 23.2287 48.9975 22.484 48.9975C21.7897 48.9975 21.1885 48.8855 20.6805 48.6614C20.1755 48.4374 19.7779 48.1249 19.4876 47.7241C19.2004 47.3234 19.0379 46.8579 19 46.3277H20.2118C20.2434 46.6938 20.3665 46.9967 20.581 47.2366C20.7988 47.4733 21.0733 47.65 21.4047 47.7667C21.7392 47.8804 22.099 47.9372 22.484 47.9372C22.9321 47.9372 23.3345 47.8646 23.6911 47.7194C24.0477 47.5711 24.3301 47.366 24.5384 47.104C24.7467 46.8389 24.8508 46.5297 24.8508 46.1762C24.8508 45.8543 24.7609 45.5924 24.581 45.3904C24.4011 45.1885 24.1644 45.0244 23.8709 44.8981C23.5775 44.7719 23.2603 44.6615 22.9195 44.5668L21.7266 44.226C20.9692 44.0082 20.3696 43.6974 19.9278 43.2934C19.486 42.8895 19.2651 42.3609 19.2651 41.7077C19.2651 41.1649 19.4118 40.6915 19.7053 40.2876C20.002 39.8805 20.3996 39.5649 20.8982 39.3408C21.4 39.1136 21.9601 39 22.5787 39C23.2035 39 23.7589 39.112 24.2449 39.3361C24.7309 39.557 25.1159 39.8599 25.3999 40.245C25.6871 40.63 25.8386 41.067 25.8543 41.5562H24.7183Z" fill="#4F8267"/>
</g>
</g>
<g id="Blank-File-Top">
<g id="Curl">
<g id="Shadow">
<path id="Vector_21" opacity="0.05" d="M39.9785 17.0229H23.9795V33.022H39.9785V17.0229Z" fill="url(#paint21_radial_3114_1897)"/>
<path id="Vector_22" opacity="0.05" d="M23.9792 2.02393V11.024H39.9793V4.02394C38.6413 2.33093 36.9792 2.02393 35.9792 2.02393H23.9792Z" fill="url(#paint22_radial_3114_1897)"/>
<path id="Vector_23" opacity="0.05" d="M39.9785 11.0247H23.9795V17.0229H39.9785V11.0247Z" fill="url(#paint23_linear_3114_1897)"/>
<path id="Vector_24" opacity="0.2" d="M39.9785 11.0247H28.9799V17.0229H39.9785V11.0247Z" fill="url(#paint24_linear_3114_1897)"/>
<path id="Vector_25" opacity="0.2" d="M39.9785 17.0229H28.9799V28.0216H39.9785V17.0229Z" fill="url(#paint25_radial_3114_1897)"/>
<path id="Vector_26" opacity="0.2" d="M28.9792 2.02393V11.024H39.9793V4.02394C39.5247 3.43832 38.9524 2.95457 38.2992 2.60393L35.9792 2.02393H28.9792Z" fill="url(#paint26_radial_3114_1897)"/>
<path id="Vector_27" opacity="0.05" d="M39.9785 17.0229V33.022H45.9767V17.0229H39.9785Z" fill="url(#paint27_linear_3114_1897)"/>
<path id="Vector_28" opacity="0.2" d="M39.9785 17.0268V28.0254H45.9767V17.0268H39.9785Z" fill="url(#paint28_linear_3114_1897)"/>
<path id="Vector_29" opacity="0.2" d="M45.9793 17.0239V28.024H54.9794V21.024L54.5394 19.2639C54.1608 18.4281 53.632 17.6689 52.9794 17.0239H45.9793Z" fill="url(#paint29_radial_3114_1897)"/>
<path id="Vector_30" opacity="0.05" d="M45.979 17.0239V33.0239H54.979V21.0239C54.979 20.8919 54.953 20.7239 54.939 20.5709C54.791 19.5779 54.176 18.2209 52.979 17.0239H45.979Z" fill="url(#paint30_radial_3114_1897)"/>
</g>
<path id="Paper_2" d="M37.9791 2.44141V17.0193C37.9791 18.1267 38.8711 19.0187 39.9823 19.0187H54.443C54.0748 18.2764 53.587 17.5996 52.9992 17.0155L39.9974 4.01372C39.4687 3.33484 38.7824 2.79515 37.998 2.44141H37.9791Z" fill="url(#paint31_linear_3114_1897)"/>
</g>
</g>
</g>
<defs>
<linearGradient id="paint0_linear_3114_1897" x1="29.9777" y1="59.0256" x2="29.9777" y2="65.0239" gradientUnits="userSpaceOnUse">
<stop/>
<stop offset="1" stop-opacity="0"/>
</linearGradient>
<radialGradient id="paint1_radial_3114_1897" cx="0" cy="0" r="1" gradientUnits="userSpaceOnUse" gradientTransform="translate(34.978 5.02433) scale(6.32269 4.00052)">
<stop/>
<stop offset="1" stop-opacity="0"/>
</radialGradient>
<linearGradient id="paint2_linear_3114_1897" x1="42.979" y1="13.0239" x2="46.727" y2="9.27593" gradientUnits="userSpaceOnUse">
<stop/>
<stop offset="1" stop-opacity="0"/>
</linearGradient>
<radialGradient id="paint3_radial_3114_1897" cx="0" cy="0" r="1" gradientUnits="userSpaceOnUse" gradientTransform="translate(51.9788 23.0241) scale(4.99995 6.94012)">
<stop/>
<stop offset="1" stop-opacity="0"/>
</radialGradient>
<linearGradient id="paint4_linear_3114_1897" x1="21.9801" y1="5.02274" x2="21.9801" y2="1.02393" gradientUnits="userSpaceOnUse">
<stop/>
<stop offset="1" stop-opacity="0"/>
</linearGradient>
<radialGradient id="paint5_radial_3114_1897" cx="0" cy="0" r="1" gradientUnits="userSpaceOnUse" gradientTransform="translate(11.9794 5.02566) rotate(-90) scale(4.00124 5.00177)">
<stop/>
<stop offset="1" stop-opacity="0"/>
</radialGradient>
<linearGradient id="paint6_linear_3114_1897" x1="51.9787" y1="41.0234" x2="56.9791" y2="41.0234" gradientUnits="userSpaceOnUse">
<stop/>
<stop offset="1" stop-opacity="0"/>
</linearGradient>
<linearGradient id="paint7_linear_3114_1897" x1="11.9792" y1="33.022" x2="6.97882" y2="33.022" gradientUnits="userSpaceOnUse">
<stop/>
<stop offset="1" stop-opacity="0"/>
</linearGradient>
<radialGradient id="paint8_radial_3114_1897" cx="0" cy="0" r="1" gradientUnits="userSpaceOnUse" gradientTransform="translate(51.9743 59.0219) rotate(90) scale(6.00201 5.00177)">
<stop/>
<stop offset="1" stop-opacity="0"/>
</radialGradient>
<radialGradient id="paint9_radial_3114_1897" cx="0" cy="0" r="1" gradientUnits="userSpaceOnUse" gradientTransform="translate(11.9763 59.0219) rotate(180) scale(5.00177 6.00201)">
<stop/>
<stop offset="1" stop-opacity="0"/>
</radialGradient>
<linearGradient id="paint10_linear_3114_1897" x1="29.9777" y1="59.0256" x2="29.9777" y2="64.0223" gradientUnits="userSpaceOnUse">
<stop/>
<stop offset="1" stop-opacity="0"/>
</linearGradient>
<radialGradient id="paint11_radial_3114_1897" cx="0" cy="0" r="1" gradientUnits="userSpaceOnUse" gradientTransform="translate(34.9787 5.02323) scale(6.00771 3.00039)">
<stop/>
<stop offset="1" stop-opacity="0"/>
</radialGradient>
<linearGradient id="paint12_linear_3114_1897" x1="42.9793" y1="13.024" x2="45.9833" y2="10.02" gradientUnits="userSpaceOnUse">
<stop/>
<stop offset="1" stop-opacity="0"/>
</linearGradient>
<radialGradient id="paint13_radial_3114_1897" cx="0" cy="0" r="1" gradientUnits="userSpaceOnUse" gradientTransform="translate(51.98 23.0234) scale(4 6.38885)">
<stop/>
<stop offset="1" stop-opacity="0"/>
</radialGradient>
<linearGradient id="paint14_linear_3114_1897" x1="21.9801" y1="5.02274" x2="21.9801" y2="2.02552" gradientUnits="userSpaceOnUse">
<stop/>
<stop offset="1" stop-opacity="0"/>
</linearGradient>
<radialGradient id="paint15_radial_3114_1897" cx="0" cy="0" r="1" gradientUnits="userSpaceOnUse" gradientTransform="translate(11.9791 5.02274) rotate(-90) scale(3.001 4.00124)">
<stop/>
<stop offset="1" stop-opacity="0"/>
</radialGradient>
<linearGradient id="paint16_linear_3114_1897" x1="51.9787" y1="41.0234" x2="55.9775" y2="41.0234" gradientUnits="userSpaceOnUse">
<stop/>
<stop offset="1" stop-opacity="0"/>
</linearGradient>
<linearGradient id="paint17_linear_3114_1897" x1="11.9792" y1="33.022" x2="7.98041" y2="33.022" gradientUnits="userSpaceOnUse">
<stop/>
<stop offset="1" stop-opacity="0"/>
</linearGradient>
<radialGradient id="paint18_radial_3114_1897" cx="0" cy="0" r="1" gradientUnits="userSpaceOnUse" gradientTransform="translate(51.9794 59.0236) rotate(90) scale(5.00177 4.00124)">
<stop/>
<stop offset="1" stop-opacity="0"/>
</radialGradient>
<radialGradient id="paint19_radial_3114_1897" cx="0" cy="0" r="1" gradientUnits="userSpaceOnUse" gradientTransform="translate(11.9784 59.0174) rotate(180) scale(4.00124 5.00177)">
<stop/>
<stop offset="1" stop-opacity="0"/>
</radialGradient>
<linearGradient id="paint20_linear_3114_1897" x1="45.9758" y1="10.025" x2="9.98042" y2="61.0233" gradientUnits="userSpaceOnUse">
<stop stop-color="#EDEDED"/>
<stop offset="1" stop-color="#FCFCFC"/>
</linearGradient>
<radialGradient id="paint21_radial_3114_1897" cx="0" cy="0" r="1" gradientUnits="userSpaceOnUse" gradientTransform="translate(39.9785 17.0267) rotate(180) scale(16.0028 16.0028)">
<stop/>
<stop offset="1" stop-opacity="0"/>
</radialGradient>
<radialGradient id="paint22_radial_3114_1897" cx="0" cy="0" r="1" gradientUnits="userSpaceOnUse" gradientTransform="translate(39.9793 11.024) rotate(-90) scale(12.0001 16.0001)">
<stop/>
<stop offset="1" stop-opacity="0"/>
</radialGradient>
<linearGradient id="paint23_linear_3114_1897" x1="39.9785" y1="14.357" x2="23.9795" y2="14.357" gradientUnits="userSpaceOnUse">
<stop/>
<stop offset="1" stop-opacity="0"/>
</linearGradient>
<linearGradient id="paint24_linear_3114_1897" x1="39.9785" y1="14.0244" x2="32.9787" y2="14.0244" gradientUnits="userSpaceOnUse">
<stop/>
<stop offset="1" stop-opacity="0"/>
</linearGradient>
<radialGradient id="paint25_radial_3114_1897" cx="0" cy="0" r="1" gradientUnits="userSpaceOnUse" gradientTransform="translate(39.978 17.0243) rotate(180) scale(7.00124 7.02916)">
<stop/>
<stop offset="1" stop-opacity="0"/>
</radialGradient>
<radialGradient id="paint26_radial_3114_1897" cx="0" cy="0" r="1" gradientUnits="userSpaceOnUse" gradientTransform="translate(39.9792 11.023) rotate(-90) scale(10.4625 7.03869)">
<stop/>
<stop offset="1" stop-opacity="0"/>
</radialGradient>
<linearGradient id="paint27_linear_3114_1897" x1="43.3109" y1="17.0229" x2="43.3109" y2="33.022" gradientUnits="userSpaceOnUse">
<stop/>
<stop offset="1" stop-opacity="0"/>
</linearGradient>
<linearGradient id="paint28_linear_3114_1897" x1="42.9783" y1="17.023" x2="42.9783" y2="24.0493" gradientUnits="userSpaceOnUse">
<stop/>
<stop offset="1" stop-opacity="0"/>
</linearGradient>
<radialGradient id="paint29_radial_3114_1897" cx="0" cy="0" r="1" gradientUnits="userSpaceOnUse" gradientTransform="translate(45.9793 17.024) scale(11.4689 7.02797)">
<stop/>
<stop offset="1" stop-opacity="0"/>
</radialGradient>
<radialGradient id="paint30_radial_3114_1897" cx="0" cy="0" r="1" gradientUnits="userSpaceOnUse" gradientTransform="translate(45.979 17.0239) scale(12 16)">
<stop/>
<stop offset="1" stop-opacity="0"/>
</radialGradient>
<linearGradient id="paint31_linear_3114_1897" x1="39.9793" y1="17.0226" x2="45.9793" y2="11.0225" gradientUnits="userSpaceOnUse">
<stop stop-color="#FEFEFE"/>
<stop offset="1" stop-color="#E9E9E9"/>
</linearGradient>
<clipPath id="clip0_3114_1897">
<rect width="64" height="64" fill="white"/>
</clipPath>
<clipPath id="clip1_3114_1897">
<rect width="64" height="64" fill="white"/>
</clipPath>
<clipPath id="clip2_3114_1897">
<rect width="28" height="28" fill="white" transform="translate(18 23)"/>
</clipPath>
</defs>
</svg>
