<?xml version="1.0" encoding="UTF-8" standalone="no"?>
<svg xmlns:dc="http://purl.org/dc/elements/1.1/" xmlns:cc="http://creativecommons.org/ns#" xmlns:rdf="http://www.w3.org/1999/02/22-rdf-syntax-ns#" xmlns:svg="http://www.w3.org/2000/svg" xmlns="http://www.w3.org/2000/svg" xmlns:sodipodi="http://sodipodi.sourceforge.net/DTD/sodipodi-0.dtd" xmlns:inkscape="http://www.inkscape.org/namespaces/inkscape" width="64" height="64" version="1.1" viewBox="0 0 64 64" id="svg26" sodipodi:docname="bitcoin128.svg" inkscape:version="1.0.1 (3bc2e813f5, 2020-09-07)">
  <metadata id="metadata2">
    <rdf:RDF>
      <cc:Work rdf:about="">
        <dc:format>image/svg+xml</dc:format>
        <dc:type rdf:resource="http://purl.org/dc/dcmitype/StillImage"/>
        <dc:title/>
      </cc:Work>
    </rdf:RDF>
  </metadata>
  <defs id="defs14">
    <filter id="filter2761" x="-.024" y="-.024" width="1.048" height="1.048" color-interpolation-filters="sRGB">
      <feGaussianBlur stdDeviation="0.14552168" id="feGaussianBlur4"/>
    </filter>
    <linearGradient id="linearGradient1024" x1="1.3315" x2="15.65" y1="15.576" y2="1.17" gradientTransform="matrix(3.7796,0,0,3.7796,-1.7739835,-8.8802154)" gradientUnits="userSpaceOnUse">
      <stop stop-color="#ffc841" offset="0" id="stop7"/>
      <stop stop-color="#ffbe37" offset=".5167" id="stop9"/>
      <stop stop-color="#ffc841" offset="1" id="stop11"/>
    </linearGradient>
    <linearGradient id="f-5" x1="-6.1472001" x2="-6.1472001" y1="-137.82001" y2="-100.78" gradientTransform="matrix(2.0044,0,0,2.0044,-42.747576,249.6374)" gradientUnits="userSpaceOnUse">
      <stop stop-color="#14dc78" offset="0" id="stop840"/>
      <stop stop-color="#14a03c" offset="1" id="stop842"/>
    </linearGradient>
    <filter id="filter2076" x="-0.048" y="-0.048" width="1.096" height="1.096" color-interpolation-filters="sRGB">
      <feGaussianBlur stdDeviation="1.1" id="feGaussianBlur161"/>
    </filter>
    <linearGradient id="linearGradient2070" x1="145" x2="200" y1="59" y2="4" gradientTransform="translate(-140.49999,0.49999988)" gradientUnits="userSpaceOnUse">
      <stop stop-color="#ffc841" offset="0" id="stop154"/>
      <stop stop-color="#ffbe37" offset=".4925" id="stop156"/>
      <stop stop-color="#ffc841" offset="1" id="stop158"/>
    </linearGradient>
  <radialGradient xmlns="http://www.w3.org/2000/svg" id="gradient_ds_br" cx="0" cy="0" r="1" gradientUnits="userSpaceOnUse" gradientTransform="matrix(13.998399,0.00477622,-0.00477841,14.004799,47.5016,48.4952)">
      <stop offset="0.65" id="stop1"/>
      <stop offset="1" stop-opacity="0" id="stop2"/>
    </radialGradient><linearGradient xmlns="http://www.w3.org/2000/svg" id="gradient_ds_b" x1="30.448999" y1="48.5" x2="30.492201" y2="62.500301" gradientUnits="userSpaceOnUse">
      <stop offset="0.653846" id="stop3"/>
      <stop offset="1" stop-opacity="0" id="stop4"/>
    </linearGradient><radialGradient xmlns="http://www.w3.org/2000/svg" id="gradient_ds_bl" cx="0" cy="0" r="1" gradientUnits="userSpaceOnUse" gradientTransform="matrix(0,14,-14,0,16.5,48.5)">
      <stop offset="0.65" id="stop5"/>
      <stop offset="1" stop-opacity="0" id="stop6"/>
    </radialGradient><linearGradient xmlns="http://www.w3.org/2000/svg" id="gradient_ds_r" x1="47.5" y1="33.5" x2="61.5" y2="33.5009" gradientUnits="userSpaceOnUse">
      <stop offset="0.649038" id="stop7"/>
      <stop offset="1" stop-opacity="0" id="stop8"/>
    </linearGradient><linearGradient xmlns="http://www.w3.org/2000/svg" id="gradient_ds_l" x1="16.5" y1="33.894699" x2="2.5" y2="33.894699" gradientUnits="userSpaceOnUse">
      <stop offset="0.649038" id="stop9"/>
      <stop offset="1" stop-opacity="0" id="stop10"/>
    </linearGradient><radialGradient xmlns="http://www.w3.org/2000/svg" id="gradient_ds_tr" cx="0" cy="0" r="1" gradientTransform="matrix(0.00843236,-14,14.0084,0.0189842,47.4916,18.5)" gradientUnits="userSpaceOnUse">
      <stop offset="0.65" id="stop11"/>
      <stop offset="1" stop-opacity="0" id="stop12"/>
    </radialGradient><linearGradient xmlns="http://www.w3.org/2000/svg" id="gradient_ds_t" x1="29.98" y1="18.5" x2="29.9158" y2="4.4998598" gradientUnits="userSpaceOnUse">
      <stop offset="0.649038" id="stop13"/>
      <stop offset="1" stop-opacity="0" id="stop14"/>
    </linearGradient><radialGradient xmlns="http://www.w3.org/2000/svg" id="gradient_ds_tl" cx="0" cy="0" r="1" gradientTransform="matrix(-0.00843236,-14,-14.0084,0.0189842,16.5084,18.5)" gradientUnits="userSpaceOnUse">
      <stop offset="0.65" id="stop15"/>
      <stop offset="1" stop-opacity="0" id="stop16"/>
    </radialGradient></defs>
  
  <g xmlns="http://www.w3.org/2000/svg" id="ds" opacity="0.25">
    <path id="ds-br" d="m 47.5,48.5 h 14 v 14 h -14 z" fill="url(#gradient_ds_br)" style="fill:url(#gradient_ds_br)"/>
    <path id="ds-b" d="m 16.5,48.5 h 31 v 14 h -31 z" fill="url(#gradient_ds_b)" style="fill:url(#gradient_ds_b)"/>
    <path id="ds-bl" d="m 2.5,48.5 h 14 v 14 h -14 z" fill="url(#gradient_ds_bl)" style="fill:url(#gradient_ds_bl)"/>
    <path id="ds-r" d="m 47.5,18.5 h 14 v 30 h -14 z" fill="url(#gradient_ds_r)" style="fill:url(#gradient_ds_r)"/>
    <path id="ds-l" d="m 2.5,18.5 h 14 v 30 h -14 z" fill="url(#gradient_ds_l)" style="fill:url(#gradient_ds_l)"/>
    <path id="ds-tr" d="m 47.5,4.5 h 14 v 14 h -14 z" fill="url(#gradient_ds_tr)" style="fill:url(#gradient_ds_tr)"/>
    <path id="ds-t" d="m 16.5,4.5 h 31 v 14 h -31 z" fill="url(#gradient_ds_t)" style="fill:url(#gradient_ds_t)"/>
    <path id="ds-tl" d="m 16.5,4.5 h -14 v 14 h 14 z" fill="url(#gradient_ds_tl)" style="fill:url(#gradient_ds_tl)"/>
  </g><rect x="4.5" y="4.5" width="55" height="55" rx="10" fill="url(#linearGradient2070)" id="bg" style="fill:url(#linearGradient2070)"/>
  <g id="art"><path d="m27.196 15.529v5.4904c-0.67489 0.02745-1.9137 0-2.5602 0h-4.3028v2.7452s2.3592-0.04117 2.3216 0c1.2631-0.01922 1.6654 0.8978 1.7962 1.5093v13.589c-0.04842 0.38646-0.0073 1.3451-0.89005 1.3726 0.04076 0.03569-3.2278 0-3.2278 0v2.7452h4.4663c0.7552-0.02745 1.6672 0 2.3967 0v5.4904l2.7452-0.05094v-5.4395h2.7024l0.08579 5.4904h2.7452l-0.08578-5.4904c8.2784 0 8.2784-4.1178 8.2784-6.1794 0-2.0562-0.87054-4.7987-4.1178-4.8014 1.8747 0.0026 2.7452-3.0973 2.7452-5.4904 0-3.0974-2.7452-5.4904-6.863-5.4904v-5.4904h-2.7452v5.4904c-0.81978 0-1.913-0.0302-2.7452 0v-5.4904zm2.7452 8.2356c2.7452 0 6.8634 5.2e-5 6.863 3.4315 4.76e-4 3.4318-4.1178 3.4315-6.863 3.4315zm0 9.6082c5.4904 1.72e-4 8.2361 5.2e-5 8.2356 3.4315 5.71e-4 3.4318-2.7452 3.4315-8.2356 3.4315z" fill="#fff" stroke-width="1.0167" id="path24"/></g>
</svg>
