<?xml version="1.0" encoding="UTF-8" standalone="no"?>
<svg xmlns:inkscape="http://www.inkscape.org/namespaces/inkscape" xmlns:sodipodi="http://sodipodi.sourceforge.net/DTD/sodipodi-0.dtd" xmlns="http://www.w3.org/2000/svg" xmlns:svg="http://www.w3.org/2000/svg" width="64" height="64" version="1.1" id="svg8" sodipodi:docname="homebank.svg" xml:space="preserve" inkscape:version="1.2.2 (b0a8486541, 2022-12-01)">
  <defs id="defs12">
    <filter id="filter2076" x="-0.048000001" y="-0.048000001" width="1.096" height="1.096" color-interpolation-filters="sRGB">
      <feGaussianBlur stdDeviation="1.1" id="feGaussianBlur161"/>
    </filter>
    <linearGradient id="linearGradient2070" x1="145" x2="200" y1="59" y2="4" gradientTransform="translate(-140.5,0.4999995)" gradientUnits="userSpaceOnUse">
      <stop stop-color="#ffc841" offset="0" id="stop154"/>
      <stop stop-color="#ffbe37" offset=".4925" id="stop156"/>
      <stop stop-color="#ffc841" offset="1" id="stop158"/>
    </linearGradient>
  <radialGradient id="gradient_ds_br" cx="0" cy="0" r="1" gradientUnits="userSpaceOnUse" gradientTransform="matrix(13.998399,0.00477622,-0.00477841,14.004799,47.5016,48.4952)">
      <stop offset="0.65" id="stop1"/>
      <stop offset="1" stop-opacity="0" id="stop2"/>
    </radialGradient><linearGradient id="gradient_ds_b" x1="30.448999" y1="48.5" x2="30.492201" y2="62.500301" gradientUnits="userSpaceOnUse">
      <stop offset="0.653846" id="stop3"/>
      <stop offset="1" stop-opacity="0" id="stop4"/>
    </linearGradient><radialGradient id="gradient_ds_bl" cx="0" cy="0" r="1" gradientUnits="userSpaceOnUse" gradientTransform="matrix(0,14,-14,0,16.5,48.5)">
      <stop offset="0.65" id="stop5"/>
      <stop offset="1" stop-opacity="0" id="stop6"/>
    </radialGradient><linearGradient id="gradient_ds_r" x1="47.5" y1="33.5" x2="61.5" y2="33.5009" gradientUnits="userSpaceOnUse">
      <stop offset="0.649038" id="stop7"/>
      <stop offset="1" stop-opacity="0" id="stop8"/>
    </linearGradient><linearGradient id="gradient_ds_l" x1="16.5" y1="33.894699" x2="2.5" y2="33.894699" gradientUnits="userSpaceOnUse">
      <stop offset="0.649038" id="stop9"/>
      <stop offset="1" stop-opacity="0" id="stop10"/>
    </linearGradient><radialGradient id="gradient_ds_tr" cx="0" cy="0" r="1" gradientTransform="matrix(0.00843236,-14,14.0084,0.0189842,47.4916,18.5)" gradientUnits="userSpaceOnUse">
      <stop offset="0.65" id="stop11"/>
      <stop offset="1" stop-opacity="0" id="stop12"/>
    </radialGradient><linearGradient id="gradient_ds_t" x1="29.98" y1="18.5" x2="29.9158" y2="4.4998598" gradientUnits="userSpaceOnUse">
      <stop offset="0.649038" id="stop13"/>
      <stop offset="1" stop-opacity="0" id="stop14"/>
    </linearGradient><radialGradient id="gradient_ds_tl" cx="0" cy="0" r="1" gradientTransform="matrix(-0.00843236,-14,-14.0084,0.0189842,16.5084,18.5)" gradientUnits="userSpaceOnUse">
      <stop offset="0.65" id="stop15"/>
      <stop offset="1" stop-opacity="0" id="stop16"/>
    </radialGradient></defs>
  
  
  <g id="ds" opacity="0.25">
    <path id="ds-br" d="m 47.5,48.5 h 14 v 14 h -14 z" fill="url(#gradient_ds_br)" style="fill:url(#gradient_ds_br)"/>
    <path id="ds-b" d="m 16.5,48.5 h 31 v 14 h -31 z" fill="url(#gradient_ds_b)" style="fill:url(#gradient_ds_b)"/>
    <path id="ds-bl" d="m 2.5,48.5 h 14 v 14 h -14 z" fill="url(#gradient_ds_bl)" style="fill:url(#gradient_ds_bl)"/>
    <path id="ds-r" d="m 47.5,18.5 h 14 v 30 h -14 z" fill="url(#gradient_ds_r)" style="fill:url(#gradient_ds_r)"/>
    <path id="ds-l" d="m 2.5,18.5 h 14 v 30 h -14 z" fill="url(#gradient_ds_l)" style="fill:url(#gradient_ds_l)"/>
    <path id="ds-tr" d="m 47.5,4.5 h 14 v 14 h -14 z" fill="url(#gradient_ds_tr)" style="fill:url(#gradient_ds_tr)"/>
    <path id="ds-t" d="m 16.5,4.5 h 31 v 14 h -31 z" fill="url(#gradient_ds_t)" style="fill:url(#gradient_ds_t)"/>
    <path id="ds-tl" d="m 16.5,4.5 h -14 v 14 h 14 z" fill="url(#gradient_ds_tl)" style="fill:url(#gradient_ds_tl)"/>
  </g><rect x="4.5" y="4.5" width="55" height="55" rx="10" fill="url(#linearGradient2070)" id="bg" style="fill:url(#linearGradient2070)"/>
  <g id="art"><path id="path535" style="fill:#fafafa;fill-opacity:1" d="M 32.605469 14.724609 L 14.5 31.960938 L 18.822266 31.960938 L 18.822266 34.429688 C 21.329833 32.071367 24.479099 29.591534 26.998047 29.171875 C 27.154387 29.145825 28.291742 29.121094 28.451172 29.121094 C 32.803148 29.121093 37.382506 35.267088 46.091797 36.683594 L 46.091797 31.947266 L 49.5 31.947266 L 42.306641 24.613281 L 32.605469 14.724609 z M 42.306641 24.613281 L 42.304688 15.828125 L 41.486328 15.826172 L 37.085938 15.826172 L 37.085938 19.289062 L 42.306641 24.613281 z "/><path id="path537" d="m 28.4506,29.121094 c -0.15943,0 -1.29622,0.02473 -1.45256,0.05078 -2.51895,0.419659 -5.66821,2.89949 -8.17578,5.257813 v 11.421874 h 27.26953 v -9.167968 c -8.7093,-1.416507 -13.28921,-7.5625 -17.64119,-7.562499 z" sodipodi:nodetypes="ssccccs" style="fill:#fafafa;fill-opacity:1;opacity:0.6"/><path id="path1308" d="M 32.60641,-40.843191 14.5,-23.606065 h 4.32321 V -9.7149289 H 46.09134 V -23.618832 H 49.5 l -7.19336,-7.334947 z m 9.70023,9.889412 -0.002,-8.785689 -0.81822,-0.0023 h -4.40097 v 3.46321 z" style="fill:#fafafa;fill-opacity:1"/></g>
  
  
</svg>
