<?xml version="1.0" encoding="UTF-8" standalone="no"?>
<svg xmlns:inkscape="http://www.inkscape.org/namespaces/inkscape" xmlns:sodipodi="http://sodipodi.sourceforge.net/DTD/sodipodi-0.dtd" xmlns:xlink="http://www.w3.org/1999/xlink" xmlns="http://www.w3.org/2000/svg" xmlns:svg="http://www.w3.org/2000/svg" xmlns:rdf="http://www.w3.org/1999/02/22-rdf-syntax-ns#" xmlns:cc="http://creativecommons.org/ns#" xmlns:dc="http://purl.org/dc/elements/1.1/" width="64" height="64" version="1.1" viewBox="0 0 64 64" id="svg39" sodipodi:docname="3D-Coat.svg" inkscape:version="1.4.2 (ebf0e940d0, 2025-05-08)">
  <defs id="defs21">
    <linearGradient id="linearGradient994" x1="28.542" x2="28.542" y1="58.41" y2="6.4782" gradientTransform="matrix(0.015564,0,0,0.015564,65.036816,-6.2056)" gradientUnits="userSpaceOnUse">
      <stop stop-color="#262626" offset="0" id="stop2"/>
      <stop stop-color="#333" offset=".50769" id="stop4"/>
      <stop stop-color="#4a4a4a" offset="1" id="stop6"/>
    </linearGradient>
    <linearGradient id="linearGradient888" x1="3.3785999" x2="3.3785999" y1="53.094002" y2="112.97" gradientTransform="matrix(0.26458,0,0,0.26458,27.509,-19.525)" gradientUnits="userSpaceOnUse">
      <stop stop-color="#72b144" offset="0" id="stop9" style="stop-color:#8cd750;stop-opacity:1;"/>
      <stop stop-color="#68d623" offset="1" id="stop11"/>
    </linearGradient>
    <radialGradient id="radialGradient1108" cx="16.704" cy="8.3174" r="10.264" gradientTransform="matrix(0.60619,3.3498e-8,-4.0009e-8,0.72401,24.359316,0.5123)" gradientUnits="userSpaceOnUse">
      <stop stop-color="#fff" offset="0" id="stop14"/>
      <stop stop-color="#f8f8f8" offset=".8" id="stop16"/>
      <stop stop-color="#c4c4c4" offset="1" id="stop18"/>
    </radialGradient>
    <filter inkscape:collect="always" style="color-interpolation-filters:sRGB" id="filter1057" x="-0.026999999" width="1.054" y="-0.026999999" height="1.054">
      <feGaussianBlur inkscape:collect="always" stdDeviation="0.61875" id="feGaussianBlur1059"/>
    </filter>
    <radialGradient inkscape:collect="always" xlink:href="#linearGradient37376" id="radialGradient37378" cx="8.4665003" cy="8.4665003" fx="8.4665003" fy="8.4665003" r="7.276" gradientUnits="userSpaceOnUse" gradientTransform="scale(3.779602)"/>
    <linearGradient inkscape:collect="always" id="linearGradient37376">
      <stop style="stop-color:#5e6a76;stop-opacity:1;" offset="0" id="stop37372"/>
      <stop style="stop-color:#1d2123;stop-opacity:1;" offset="1" id="stop37374"/>
    </linearGradient>
    <linearGradient id="a-9" x1="23.487" x2="23.487" y1="15.18" y2="32.912998" gradientTransform="matrix(0.12676,0,0,0.12676,-27.515,6.7925)" gradientUnits="userSpaceOnUse">
      <stop stop-color="#141414" offset="0" id="stop5-3"/>
      <stop stop-color="#30277f" offset="1" id="stop7-6"/>
    </linearGradient>
    <radialGradient inkscape:collect="always" xlink:href="#radialGradient1108" id="radialGradient773" gradientUnits="userSpaceOnUse" gradientTransform="matrix(2.2911569,1.2660911e-7,-1.512181e-7,2.7364696,-6.5327404,1.9362901)" cx="16.704" cy="8.3174" r="10.264"/>
  <radialGradient id="gradient_ds_br" cx="0" cy="0" r="1" gradientUnits="userSpaceOnUse" gradientTransform="matrix(13.998399,0.00477622,-0.00477841,14.004799,47.5016,48.4952)">
      <stop offset="0.65" id="stop1"/>
      <stop offset="1" stop-opacity="0" id="stop2"/>
    </radialGradient><linearGradient id="gradient_ds_b" x1="30.448999" y1="48.5" x2="30.492201" y2="62.500301" gradientUnits="userSpaceOnUse">
      <stop offset="0.653846" id="stop3"/>
      <stop offset="1" stop-opacity="0" id="stop4"/>
    </linearGradient><radialGradient id="gradient_ds_bl" cx="0" cy="0" r="1" gradientUnits="userSpaceOnUse" gradientTransform="matrix(0,14,-14,0,16.5,48.5)">
      <stop offset="0.65" id="stop5"/>
      <stop offset="1" stop-opacity="0" id="stop6"/>
    </radialGradient><linearGradient id="gradient_ds_r" x1="47.5" y1="33.5" x2="61.5" y2="33.5009" gradientUnits="userSpaceOnUse">
      <stop offset="0.649038" id="stop7"/>
      <stop offset="1" stop-opacity="0" id="stop8"/>
    </linearGradient><linearGradient id="gradient_ds_l" x1="16.5" y1="33.894699" x2="2.5" y2="33.894699" gradientUnits="userSpaceOnUse">
      <stop offset="0.649038" id="stop9"/>
      <stop offset="1" stop-opacity="0" id="stop10"/>
    </linearGradient><radialGradient id="gradient_ds_tr" cx="0" cy="0" r="1" gradientTransform="matrix(0.00843236,-14,14.0084,0.0189842,47.4916,18.5)" gradientUnits="userSpaceOnUse">
      <stop offset="0.65" id="stop11"/>
      <stop offset="1" stop-opacity="0" id="stop12"/>
    </radialGradient><linearGradient id="gradient_ds_t" x1="29.98" y1="18.5" x2="29.9158" y2="4.4998598" gradientUnits="userSpaceOnUse">
      <stop offset="0.649038" id="stop13"/>
      <stop offset="1" stop-opacity="0" id="stop14"/>
    </linearGradient><radialGradient id="gradient_ds_tl" cx="0" cy="0" r="1" gradientTransform="matrix(-0.00843236,-14,-14.0084,0.0189842,16.5084,18.5)" gradientUnits="userSpaceOnUse">
      <stop offset="0.65" id="stop15"/>
      <stop offset="1" stop-opacity="0" id="stop16"/>
    </radialGradient></defs>
  <metadata id="metadata23">
    <rdf:RDF>
      <cc:Work rdf:about="">
        <dc:format>image/svg+xml</dc:format>
        <dc:type rdf:resource="http://purl.org/dc/dcmitype/StillImage"/>
      </cc:Work>
    </rdf:RDF>
  </metadata>
  
  <g id="ds" opacity="0.25">
    <path id="ds-br" d="m 47.5,48.5 h 14 v 14 h -14 z" fill="url(#gradient_ds_br)" style="fill:url(#gradient_ds_br)"/>
    <path id="ds-b" d="m 16.5,48.5 h 31 v 14 h -31 z" fill="url(#gradient_ds_b)" style="fill:url(#gradient_ds_b)"/>
    <path id="ds-bl" d="m 2.5,48.5 h 14 v 14 h -14 z" fill="url(#gradient_ds_bl)" style="fill:url(#gradient_ds_bl)"/>
    <path id="ds-r" d="m 47.5,18.5 h 14 v 30 h -14 z" fill="url(#gradient_ds_r)" style="fill:url(#gradient_ds_r)"/>
    <path id="ds-l" d="m 2.5,18.5 h 14 v 30 h -14 z" fill="url(#gradient_ds_l)" style="fill:url(#gradient_ds_l)"/>
    <path id="ds-tr" d="m 47.5,4.5 h 14 v 14 h -14 z" fill="url(#gradient_ds_tr)" style="fill:url(#gradient_ds_tr)"/>
    <path id="ds-t" d="m 16.5,4.5 h 31 v 14 h -31 z" fill="url(#gradient_ds_t)" style="fill:url(#gradient_ds_t)"/>
    <path id="ds-tl" d="m 16.5,4.5 h -14 v 14 h 14 z" fill="url(#gradient_ds_tl)" style="fill:url(#gradient_ds_tl)"/>
  </g><rect x="4.5" y="4.5" width="55" height="55" stroke-linecap="round" stroke-width="2.74441" id="bg" style="fill:url(#radialGradient37378);fill-opacity:1" rx="10"/>
  <g id="art">
    <g transform="matrix(2.5197473,0,0,2.5197473,-39.725953,26.73955)" id="g769" style="display:inline">
      <path d="m 28.427,-5.4525 a 7.9375,7.9375 0 0 0 -7.8987,7.892 7.9375,7.9375 0 0 1 0.0021,-0.12196 7.9375,7.9375 0 0 1 0.0041,-0.12196 7.9375,7.9375 0 0 1 0.0062,-0.12144 7.9375,7.9375 0 0 1 0.0078,-0.12196 7.9375,7.9375 0 0 1 0.0098,-0.12144 7.9375,7.9375 0 0 1 0.01189,-0.12092 7.9375,7.9375 0 0 1 0.01344,-0.12144 7.9375,7.9375 0 0 1 0.0155,-0.12092 7.9375,7.9375 0 0 1 0.01705,-0.12041 7.9375,7.9375 0 0 1 0.01912,-0.12041 7.9375,7.9375 0 0 1 0.02067,-0.11989 c 0.04429,0.15493 0.10422,0.31819 0.18604,0.47646 0.08181,0.15827 0.18577,0.31137 0.31729,0.44493 0.13152,0.13356 0.2908,0.24786 0.48421,0.32866 0.19341,0.080806 0.42085,0.12816 0.68833,0.12816 0.2255,0 0.42267,-0.033825 0.59531,-0.093018 0.17265,-0.059193 0.32068,-0.14399 0.44752,-0.24546 0.25368,-0.20295 0.42262,-0.47354 0.53537,-0.74414 0.11275,-0.2706 0.16922,-0.54119 0.1974,-0.74414 0.02819,-0.20295 0.02842,-0.33796 0.02842,-0.33796 v -0.7214 c 0,0 -2.91e-4,-0.18082 0.08992,-0.36122 0.0451,-0.090199 0.11298,-0.1804 0.21446,-0.24805 0.10147,-0.067649 0.23663,-0.11265 0.41703,-0.11265 0.1804,0 0.31556,0.045006 0.41703,0.11265 0.10147,0.067649 0.16936,0.15785 0.21446,0.24805 0.0902,0.1804 0.09043,0.36122 0.09043,0.36122 v 6.8549 c 0,0 -2.91e-4,0.1803 0.08992,0.3607 0.0451,0.090199 0.11298,0.1804 0.21446,0.24805 0.10147,0.067649 0.23663,0.11265 0.41703,0.11265 0.1804,0 0.31556,-0.045005 0.41703,-0.11265 0.10147,-0.067649 0.16936,-0.15785 0.21446,-0.24805 0.0902,-0.1804 0.08992,-0.3607 0.08992,-0.3607 v -6.1335 c 0,0 -4.7e-5,-0.36061 0.18035,-0.7214 0.0902,-0.1804 0.22545,-0.3608 0.4284,-0.49609 0.10147,-0.067649 0.22,-0.12435 0.35812,-0.16381 0.13812,-0.03946 0.29606,-0.062012 0.47646,-0.062012 0.1804,0 0.33834,0.022551 0.47646,0.062012 0.13812,0.039462 0.25664,0.096165 0.35812,0.16381 0.20295,0.1353 0.3382,0.3157 0.4284,0.49609 0.1804,0.3608 0.18035,0.7214 0.18035,0.7214 v 3.9687 c 0,0 -4.7e-5,0.36061 0.18035,0.7214 0.0902,0.1804 0.22545,0.3608 0.4284,0.49609 0.10147,0.067649 0.22,0.12435 0.35812,0.16381 0.13812,0.039462 0.29554,0.062012 0.47594,0.062012 0.3608,0 0.63163,-0.068025 0.83458,-0.1695 0.20295,-0.10147 0.3382,-0.23677 0.4284,-0.37207 0.1804,-0.2706 0.18035,-0.54105 0.18035,-0.54105 v -2.8861 c 0,0 2.35e-4,-0.18082 0.09043,-0.36122 0.0451,-0.090199 0.11247,-0.1804 0.21394,-0.24805 0.10147,-0.067649 0.23715,-0.11265 0.41755,-0.11265 0.1804,0 0.31556,0.045005 0.41703,0.11265 0.10147,0.067649 0.16884,0.15785 0.21394,0.24805 0.0902,0.1804 0.09043,0.36122 0.09043,0.36122 v 2.1647 c 0,0 -2.91e-4,0.1803 0.08992,0.3607 0.0451,0.090199 0.11298,0.1804 0.21446,0.24805 0.10148,0.06765 0.23663,0.11265 0.41703,0.11265 0.1804,0 0.31607,-0.045006 0.41754,-0.11265 0.10147,-0.067649 0.16884,-0.15785 0.21394,-0.24805 0.0902,-0.1804 0.09043,-0.3607 0.09043,-0.3607 v -2.5259 c 0,0 4.23e-4,-0.1415 0.06459,-0.29921 0.03208,-0.078854 0.08033,-0.16206 0.15193,-0.23306 0.0716,-0.071005 0.16675,-0.13011 0.29352,-0.16175 a 7.9375,7.9375 0 0 1 0.01964,0.08475 7.9375,7.9375 0 0 1 0.02532,0.11886 7.9375,7.9375 0 0 1 0.02429,0.11989 7.9375,7.9375 0 0 1 0.0217,0.11989 7.9375,7.9375 0 0 1 0.02015,0.11989 7.9375,7.9375 0 0 1 0.0186,0.12041 7.9375,7.9375 0 0 1 0.01654,0.12092 7.9375,7.9375 0 0 1 0.01447,0.12092 7.9375,7.9375 0 0 1 0.01292,0.12092 7.9375,7.9375 0 0 1 0.01085,0.12144 7.9375,7.9375 0 0 1 0.0093,0.12196 7.9375,7.9375 0 0 1 0.0072,0.12144 7.9375,7.9375 0 0 1 0.0052,0.12144 7.9375,7.9375 0 0 1 0.0036,0.12196 7.9375,7.9375 0 0 1 0.0015,0.12196 7.9375,7.9375 0 0 0 -7.9375,-7.9375 7.9375,7.9375 0 0 0 -0.03824,0 z" stroke-linecap="round" stroke-width="0.51879" id="path767" style="fill:#86d748;fill-opacity:1"/>
    </g>
    <path d="m 22.908469,23.821698 c -1.818291,0 -1.818291,1.81829 -1.818291,1.81829 v 1.818291 c 0,0 0,5.454722 -4.545727,5.454722 -2.696065,0 -3.776162,-1.911647 -4.222571,-3.473227 A 20.001276,20.001276 0 0 0 11.998724,32.913001 20.001276,20.001276 0 0 0 32.000001,52.914277 20.001276,20.001276 0 0 0 52.001276,32.913001 20.001276,20.001276 0 0 0 51.468579,28.43644 c -1.27777,0.318923 -1.285594,1.749049 -1.285594,1.749049 v 6.364094 c 0,0 0,1.818291 -1.818291,1.818291 -1.818291,0 -1.818291,-1.818291 -1.818291,-1.818291 v -5.454722 c 0,0 0,-1.818291 -1.818291,-1.818291 -1.81829,0 -1.81829,1.818291 -1.81829,1.818291 v 7.273088 c 0,0 0,2.727437 -3.636582,2.727437 -3.636582,0 -3.636582,-3.636582 -3.636582,-3.636582 V 27.458355 c 0,0 0,-3.636582 -3.636582,-3.636582 -3.636583,0 -3.636583,3.636582 -3.636583,3.636582 v 15.455548 c 0,0 0,1.818291 -1.818291,1.818291 -1.818291,0 -1.818291,-1.818291 -1.818291,-1.818291 V 25.639988 c 0,0 0,-1.81829 -1.81829,-1.81829 z" stroke-width="0.909145" id="path771" style="display:inline;fill:url(#radialGradient773)"/>
  </g>
</svg>
