<?xml version="1.0" encoding="UTF-8" standalone="no"?>
<svg xmlns:inkscape="http://www.inkscape.org/namespaces/inkscape" xmlns:sodipodi="http://sodipodi.sourceforge.net/DTD/sodipodi-0.dtd" xmlns:xlink="http://www.w3.org/1999/xlink" xmlns="http://www.w3.org/2000/svg" xmlns:svg="http://www.w3.org/2000/svg" xmlns:rdf="http://www.w3.org/1999/02/22-rdf-syntax-ns#" xmlns:cc="http://creativecommons.org/ns#" xmlns:dc="http://purl.org/dc/elements/1.1/" inkscape:version="1.4.2 (ebf0e940d0, 2025-05-08)" sodipodi:docname="AdobeAIR.svg" id="svg44" viewBox="0 0 64 64" version="1.1" height="64" width="64">
  <sodipodi:namedview id="namedview1" pagecolor="#ffffff" bordercolor="#000000" borderopacity="0.25" inkscape:showpageshadow="2" inkscape:pageopacity="0.0" inkscape:pagecheckerboard="0" inkscape:deskcolor="#d1d1d1" inkscape:current-layer="svg44"/>
  <metadata id="metadata2">
    <rdf:RDF>
      <cc:Work rdf:about="">
        <dc:format>image/svg+xml</dc:format>
        <dc:type rdf:resource="http://purl.org/dc/dcmitype/StillImage"/>
      </cc:Work>
    </rdf:RDF>
  </metadata>
  <defs id="defs16">
    
    <filter color-interpolation-filters="sRGB" height="1.048" width="1.048" y="-.024" x="-.024" id="filter2761">
      <feGaussianBlur id="feGaussianBlur6" stdDeviation="0.14552168"/>
    </filter>
    <linearGradient gradientUnits="userSpaceOnUse" gradientTransform="matrix(3.7796 0 0 3.7796 -.002644 .81148)" y2="1.1082" y1="14.536" x2="15.644" x1="2.2495" id="linearGradient4673">
      <stop id="stop9" offset="0" stop-color="#ff7d50"/>
      <stop id="stop11" offset=".47728" stop-color="#fa4b5a"/>
      <stop id="stop13" offset="1" stop-color="#ff509b"/>
    </linearGradient>
    <linearGradient gradientUnits="userSpaceOnUse" gradientTransform="matrix(1.2346,0,0,1.2346,-87.337276,3.6047)" y2="4" y1="44" x2="0" id="linearGradient890">
      <stop id="stop4" offset="0" stop-color="#FFB900"/>
      <stop id="stop6" offset="1" stop-color="#ff0"/>
    </linearGradient>
    <filter color-interpolation-filters="sRGB" height="1.048" width="1.048" y="-.024" x="-.024" id="filter2761-5">
      <feGaussianBlur id="feGaussianBlur9" stdDeviation="0.14552168"/>
    </filter>
    <linearGradient gradientUnits="userSpaceOnUse" gradientTransform="matrix(3.7796,0,0,3.7796,66.443573,0.53068)" y2="1.1082" y1="15.601" x2="15.644" x1="1.4377" id="linearGradient4673-3">
      <stop id="stop12" offset="0" stop-color="#dc2828"/>
      <stop id="stop14" offset="1" stop-color="#fa4141"/>
    </linearGradient>
    <linearGradient gradientTransform="translate(-89.720479)" gradientUnits="userSpaceOnUse" y2="9.67" y1="54.592" x2="34.134" x1="34.134" id="linearGradient915">
      <stop id="stop17" offset="0" stop-color="#ffb900"/>
      <stop id="stop19" offset="1" stop-color="#ff0"/>
    </linearGradient>
    <linearGradient inkscape:collect="always" xlink:href="#linearGradient1051" id="linearGradient1053" x1="-127" y1="60" x2="-72" y2="5" gradientUnits="userSpaceOnUse" gradientTransform="translate(131.5,-0.50999746)"/>
    <linearGradient inkscape:collect="always" id="linearGradient1051">
      <stop style="stop-color:#ff7d50;stop-opacity:1" offset="0" id="stop1047"/>
      <stop id="stop951" offset="0.50594032" style="stop-color:#ff4b5a;stop-opacity:1"/>
      <stop style="stop-color:#ff509b;stop-opacity:1" offset="1" id="stop1049"/>
    </linearGradient>
    <linearGradient id="linearGradient890-3" x2="0" y1="44" y2="4" gradientTransform="matrix(1.2346,0,0,1.2346,3.1419,3.6047)" gradientUnits="userSpaceOnUse">
      <stop stop-color="#FFB900" offset="0" id="stop861"/>
      <stop stop-color="#ff0" offset="1" id="stop863"/>
    </linearGradient>
    <filter id="filter2761-6" x="-.024" y="-.024" width="1.048" height="1.048" color-interpolation-filters="sRGB">
      <feGaussianBlur stdDeviation="0.14552168" id="feGaussianBlur866"/>
    </filter>
    <filter inkscape:collect="always" style="color-interpolation-filters:sRGB" id="filter1057-9" x="-0.026999999" width="1.054" y="-0.026999999" height="1.054">
      <feGaussianBlur inkscape:collect="always" stdDeviation="0.61875" id="feGaussianBlur1059-7"/>
    </filter>
  <radialGradient id="gradient_ds_br" cx="0" cy="0" r="1" gradientUnits="userSpaceOnUse" gradientTransform="matrix(13.998399,0.00477622,-0.00477841,14.004799,47.5016,48.4952)">
      <stop offset="0.65" id="stop1"/>
      <stop offset="1" stop-opacity="0" id="stop2"/>
    </radialGradient><linearGradient id="gradient_ds_b" x1="30.448999" y1="48.5" x2="30.492201" y2="62.500301" gradientUnits="userSpaceOnUse">
      <stop offset="0.653846" id="stop3"/>
      <stop offset="1" stop-opacity="0" id="stop4"/>
    </linearGradient><radialGradient id="gradient_ds_bl" cx="0" cy="0" r="1" gradientUnits="userSpaceOnUse" gradientTransform="matrix(0,14,-14,0,16.5,48.5)">
      <stop offset="0.65" id="stop5"/>
      <stop offset="1" stop-opacity="0" id="stop6"/>
    </radialGradient><linearGradient id="gradient_ds_r" x1="47.5" y1="33.5" x2="61.5" y2="33.5009" gradientUnits="userSpaceOnUse">
      <stop offset="0.649038" id="stop7"/>
      <stop offset="1" stop-opacity="0" id="stop8"/>
    </linearGradient><linearGradient id="gradient_ds_l" x1="16.5" y1="33.894699" x2="2.5" y2="33.894699" gradientUnits="userSpaceOnUse">
      <stop offset="0.649038" id="stop9"/>
      <stop offset="1" stop-opacity="0" id="stop10"/>
    </linearGradient><radialGradient id="gradient_ds_tr" cx="0" cy="0" r="1" gradientTransform="matrix(0.00843236,-14,14.0084,0.0189842,47.4916,18.5)" gradientUnits="userSpaceOnUse">
      <stop offset="0.65" id="stop11"/>
      <stop offset="1" stop-opacity="0" id="stop12"/>
    </radialGradient><linearGradient id="gradient_ds_t" x1="29.98" y1="18.5" x2="29.9158" y2="4.4998598" gradientUnits="userSpaceOnUse">
      <stop offset="0.649038" id="stop13"/>
      <stop offset="1" stop-opacity="0" id="stop14"/>
    </linearGradient><radialGradient id="gradient_ds_tl" cx="0" cy="0" r="1" gradientTransform="matrix(-0.00843236,-14,-14.0084,0.0189842,16.5084,18.5)" gradientUnits="userSpaceOnUse">
      <stop offset="0.65" id="stop15"/>
      <stop offset="1" stop-opacity="0" id="stop16"/>
    </radialGradient></defs>
  
  <g id="ds" opacity="0.25">
    <path id="ds-br" d="m 47.5,48.5 h 14 v 14 h -14 z" fill="url(#gradient_ds_br)" style="fill:url(#gradient_ds_br)"/>
    <path id="ds-b" d="m 16.5,48.5 h 31 v 14 h -31 z" fill="url(#gradient_ds_b)" style="fill:url(#gradient_ds_b)"/>
    <path id="ds-bl" d="m 2.5,48.5 h 14 v 14 h -14 z" fill="url(#gradient_ds_bl)" style="fill:url(#gradient_ds_bl)"/>
    <path id="ds-r" d="m 47.5,18.5 h 14 v 30 h -14 z" fill="url(#gradient_ds_r)" style="fill:url(#gradient_ds_r)"/>
    <path id="ds-l" d="m 2.5,18.5 h 14 v 30 h -14 z" fill="url(#gradient_ds_l)" style="fill:url(#gradient_ds_l)"/>
    <path id="ds-tr" d="m 47.5,4.5 h 14 v 14 h -14 z" fill="url(#gradient_ds_tr)" style="fill:url(#gradient_ds_tr)"/>
    <path id="ds-t" d="m 16.5,4.5 h 31 v 14 h -31 z" fill="url(#gradient_ds_t)" style="fill:url(#gradient_ds_t)"/>
    <path id="ds-tl" d="m 16.5,4.5 h -14 v 14 h 14 z" fill="url(#gradient_ds_tl)" style="fill:url(#gradient_ds_tl)"/>
  </g><rect y="4.5" x="4.5" height="55" width="55" id="bg" style="fill:url(#linearGradient1053);fill-opacity:1;stroke-width:2.74436;stroke-linecap:round;font-variation-settings:normal;opacity:1;vector-effect:none;stroke-linejoin:miter;stroke-miterlimit:4;stroke-dasharray:none;stroke-dashoffset:0;stroke-opacity:1;-inkscape-stroke:none;stop-color:#000000;stop-opacity:1" rx="10"/>
  <g id="art">
    <path id="path26" stroke-width="1.3065" fill-opacity="0.84677" fill="#ffffff" d="m 36.256,14.526 c -2.9018,0.22073 -5.0002,2.0822 -6.194,5.5735 -1.7349,5.0365 -4.6637,8.0339 -9.7998,9.9896 -3.0391,1.1508 -4.1065,1.9247 -5.0527,3.7431 -0.76181,1.4617 -0.92063,3.6071 -0.42533,5.3972 0.3311,1.1939 2.0499,3.1657 3.3958,3.8642 1.2665,0.66758 3.6542,0.75236 7.1712,0.21535 2.0606,-0.31496 2.56,-0.3311 4.4591,0.04168 2.665,0.52626 5.1846,1.7982 7.3394,3.6596 1.992,1.7242 2.7861,2.1347 4.3272,2.3823 1.4926,0.2315 2.6448,0.08479 4.159,-0.55183 1.3459,-0.56799 2.8332,-2.0876 3.4389,-3.4914 0.22611,-0.5155 0.42128,-1.6609 0.42531,-2.5923 0.0052,-2.0081 -0.60972,-3.381 -2.2087,-5.2317 -1.5613,-1.8036 -2.6703,-3.6017 -3.3124,-5.3568 -0.75776,-2.0822 -0.92063,-6.2667 -0.33648,-8.8859 0.65144,-2.9342 0.10504,-4.9679 -1.8238,-6.797 -1.3621,-1.2881 -2.4604,-1.809 -4.2909,-1.9557 -0.44686,-0.03632 -0.85737,-0.03096 -1.2719,0 m -2.8023,13.264 c 1.4873,-0.03632 3.0284,0.52088 4.2478,1.6986 3.0176,2.9288 2.3029,7.6396 -1.4455,9.5266 -1.1831,0.59356 -3.1132,0.72547 -4.4537,0.29477 -1.2665,-0.40514 -2.7861,-1.6824 -3.4806,-2.9759 -0.30015,-0.54644 -0.42129,-1.4402 -0.42533,-2.6394 -0.0052,-1.5034 0.1104,-1.9355 0.72008,-2.9759 1.0942,-1.8668 2.9234,-2.887 4.8373,-2.9288" style="display:inline"/>
  </g>
  
</svg>
