<?xml version="1.0" encoding="UTF-8" standalone="no"?>
<svg xmlns:dc="http://purl.org/dc/elements/1.1/" xmlns:cc="http://creativecommons.org/ns#" xmlns:rdf="http://www.w3.org/1999/02/22-rdf-syntax-ns#" xmlns:svg="http://www.w3.org/2000/svg" xmlns="http://www.w3.org/2000/svg" xmlns:xlink="http://www.w3.org/1999/xlink" xmlns:sodipodi="http://sodipodi.sourceforge.net/DTD/sodipodi-0.dtd" xmlns:inkscape="http://www.inkscape.org/namespaces/inkscape" viewBox="0 0 64 64" version="1.1" id="svg34" sodipodi:docname="agave.svg" width="64" height="64" inkscape:version="1.0.1 (3bc2e813f5, 2020-09-07)">
  
  <g xmlns="http://www.w3.org/2000/svg" id="ds" opacity="0.25">
    <path id="ds-br" d="m 47.5,48.5 h 14 v 14 h -14 z" fill="url(#gradient_ds_br)" style="fill:url(#gradient_ds_br)"/>
    <path id="ds-b" d="m 16.5,48.5 h 31 v 14 h -31 z" fill="url(#gradient_ds_b)" style="fill:url(#gradient_ds_b)"/>
    <path id="ds-bl" d="m 2.5,48.5 h 14 v 14 h -14 z" fill="url(#gradient_ds_bl)" style="fill:url(#gradient_ds_bl)"/>
    <path id="ds-r" d="m 47.5,18.5 h 14 v 30 h -14 z" fill="url(#gradient_ds_r)" style="fill:url(#gradient_ds_r)"/>
    <path id="ds-l" d="m 2.5,18.5 h 14 v 30 h -14 z" fill="url(#gradient_ds_l)" style="fill:url(#gradient_ds_l)"/>
    <path id="ds-tr" d="m 47.5,4.5 h 14 v 14 h -14 z" fill="url(#gradient_ds_tr)" style="fill:url(#gradient_ds_tr)"/>
    <path id="ds-t" d="m 16.5,4.5 h 31 v 14 h -31 z" fill="url(#gradient_ds_t)" style="fill:url(#gradient_ds_t)"/>
    <path id="ds-tl" d="m 16.5,4.5 h -14 v 14 h 14 z" fill="url(#gradient_ds_tl)" style="fill:url(#gradient_ds_tl)"/>
  </g><rect x="4.5" y="4.5" width="55" height="55" fill="url(#linearGradient1053)" stroke-linecap="round" stroke-width="2.7444" id="bg" style="fill:url(#linearGradient1053)" rx="10"/>
  <metadata id="metadata40">
    <rdf:RDF>
      <cc:Work rdf:about="">
        <dc:format>image/svg+xml</dc:format>
        <dc:type rdf:resource="http://purl.org/dc/dcmitype/StillImage"/>
        <dc:title/>
      </cc:Work>
    </rdf:RDF>
  </metadata>
  <defs id="defs38">
    <linearGradient id="linearGradient1001" x1="31.667999" x2="31.667999" y1="49.681999" y2="14.323" gradientUnits="userSpaceOnUse">
      <stop stop-color="#14a03c" offset="0" id="stop931"/>
      <stop stop-color="#14dc78" offset="1" id="stop933"/>
    </linearGradient>
    
    <filter id="filter1057" x="-.027" y="-.027" width="1.054" height="1.054" color-interpolation-filters="sRGB">
      <feGaussianBlur stdDeviation="0.61875" id="feGaussianBlur879"/>
    </filter>
    <linearGradient id="linearGradient1053" x1="-127" x2="-72" y1="60" y2="5" gradientTransform="translate(131.5,-0.51000022)" gradientUnits="userSpaceOnUse">
      <stop stop-color="#32d7ff" offset="0" id="stop882"/>
      <stop stop-color="#329bff" offset="1" id="stop884"/>
    </linearGradient>
    
    
    
    
    
    
    
    <linearGradient id="a">
      <stop offset="0" stop-color="#3889e9" id="stop2"/>
      <stop offset="1" stop-color="#5ea5fb" id="stop4"/>
    </linearGradient>
    <linearGradient id="b" gradientUnits="userSpaceOnUse" x1="399.57144" x2="399.57144" xlink:href="#a" y1="545.79797" y2="517.79797"/>
    <linearGradient id="c" gradientUnits="userSpaceOnUse" x1="400.55615" x2="400.55615" y1="546.92657" y2="516.4751">
      <stop offset="0" stop-color="#d5dbff" id="stop8"/>
      <stop offset="1" stop-color="#f9ffff" id="stop10"/>
    </linearGradient>
    <linearGradient id="d" gradientTransform="matrix(1.4219286,0,0,1.4228558,-545.60675,-732.81701)" gradientUnits="userSpaceOnUse" x1="399.57144" x2="399.57144" xlink:href="#a" y1="545.79797" y2="517.79797"/>
  <radialGradient xmlns="http://www.w3.org/2000/svg" id="gradient_ds_br" cx="0" cy="0" r="1" gradientUnits="userSpaceOnUse" gradientTransform="matrix(13.998399,0.00477622,-0.00477841,14.004799,47.5016,48.4952)">
      <stop offset="0.65" id="stop1"/>
      <stop offset="1" stop-opacity="0" id="stop2"/>
    </radialGradient><linearGradient xmlns="http://www.w3.org/2000/svg" id="gradient_ds_b" x1="30.448999" y1="48.5" x2="30.492201" y2="62.500301" gradientUnits="userSpaceOnUse">
      <stop offset="0.653846" id="stop3"/>
      <stop offset="1" stop-opacity="0" id="stop4"/>
    </linearGradient><radialGradient xmlns="http://www.w3.org/2000/svg" id="gradient_ds_bl" cx="0" cy="0" r="1" gradientUnits="userSpaceOnUse" gradientTransform="matrix(0,14,-14,0,16.5,48.5)">
      <stop offset="0.65" id="stop5"/>
      <stop offset="1" stop-opacity="0" id="stop6"/>
    </radialGradient><linearGradient xmlns="http://www.w3.org/2000/svg" id="gradient_ds_r" x1="47.5" y1="33.5" x2="61.5" y2="33.5009" gradientUnits="userSpaceOnUse">
      <stop offset="0.649038" id="stop7"/>
      <stop offset="1" stop-opacity="0" id="stop8"/>
    </linearGradient><linearGradient xmlns="http://www.w3.org/2000/svg" id="gradient_ds_l" x1="16.5" y1="33.894699" x2="2.5" y2="33.894699" gradientUnits="userSpaceOnUse">
      <stop offset="0.649038" id="stop9"/>
      <stop offset="1" stop-opacity="0" id="stop10"/>
    </linearGradient><radialGradient xmlns="http://www.w3.org/2000/svg" id="gradient_ds_tr" cx="0" cy="0" r="1" gradientTransform="matrix(0.00843236,-14,14.0084,0.0189842,47.4916,18.5)" gradientUnits="userSpaceOnUse">
      <stop offset="0.65" id="stop11"/>
      <stop offset="1" stop-opacity="0" id="stop12"/>
    </radialGradient><linearGradient xmlns="http://www.w3.org/2000/svg" id="gradient_ds_t" x1="29.98" y1="18.5" x2="29.9158" y2="4.4998598" gradientUnits="userSpaceOnUse">
      <stop offset="0.649038" id="stop13"/>
      <stop offset="1" stop-opacity="0" id="stop14"/>
    </linearGradient><radialGradient xmlns="http://www.w3.org/2000/svg" id="gradient_ds_tl" cx="0" cy="0" r="1" gradientTransform="matrix(-0.00843236,-14,-14.0084,0.0189842,16.5084,18.5)" gradientUnits="userSpaceOnUse">
      <stop offset="0.65" id="stop15"/>
      <stop offset="1" stop-opacity="0" id="stop16"/>
    </radialGradient></defs>
  <g id="art"><path id="rect1131" style="fill:#98d8ff;fill-opacity:1;stroke:none;stroke-width:0.775993;stroke-linecap:round" d="m 54.492421,39.722037 c -4.429784,-0.06058 -8.924499,1.014763 -13.035768,3.394968 -4.118194,2.373286 -7.303539,5.728144 -9.460442,9.595332 4.436708,0.06751 8.939448,-0.9799 13.064565,-3.360109 4.118194,-2.380207 7.282321,-5.76127 9.439224,-9.630191 z"/><path id="rect1121" style="fill:#98d8ff;fill-opacity:1;stroke:none;stroke-width:0.775993;stroke-linecap:round" d="m 9.5000001,39.715974 c 2.1569019,3.867189 5.3485199,7.221186 9.4528639,9.601395 4.118194,2.373284 8.615293,3.456418 13.043347,3.388906 -2.163826,-3.867189 -5.327958,-7.255177 -9.439224,-9.630192 -4.115854,-2.378855 -8.622718,-3.426315 -13.0569869,-3.360109 z"/><path id="rect1135" style="fill:#bae4ff;fill-opacity:1;stroke:none;stroke-width:0.775993;stroke-linecap:round" d="m 15.341164,23.852077 -0.01819,0.003 c 0.0061,0.0034 0.01206,0.0072 0.01819,0.01061 6.3e-5,-0.0045 -6.5e-5,-0.0091 0,-0.01364 z m 0,0.01364 c -0.07896,5.689051 1.308827,11.458774 4.363443,16.742952 3.057054,5.281466 7.356588,9.372084 12.326463,12.152167 0.08828,-5.686534 -1.2633,-11.481845 -4.313428,-16.770235 -3.053302,-5.281904 -7.386647,-9.3485 -12.376478,-12.124884 z"/><path id="rect1127" style="fill:#bae4ff;fill-opacity:1;stroke:none;stroke-width:0.775993;stroke-linecap:round" d="M 49.069566,23.285238 C 44.004483,26.11206 39.602883,30.290457 36.49909,35.672325 33.381451,41.068039 31.960972,46.958537 32.049257,52.759321 37.121266,49.9325 41.550592,45.783529 44.668233,40.372234 47.780732,34.985415 49.152895,29.085429 49.069566,23.285238 Z"/><path id="rect1123" style="fill:#ffffff;fill-opacity:1;stroke:none;stroke-width:0.775993;stroke-linecap:round" d="M 31.96893,11.227039 C 28.337165,17.306522 26.239921,24.398914 26.239921,32 c 0,7.601086 2.097244,14.686552 5.729009,20.772961 C 35.600695,46.686552 37.757047,39.608013 37.757047,32 c 0,-7.601086 -2.156352,-14.693478 -5.788117,-20.772961 z"/></g>
  
  
  
  
</svg>
