<?xml version="1.0" encoding="UTF-8" standalone="no"?>
<svg xmlns:dc="http://purl.org/dc/elements/1.1/" xmlns:cc="http://creativecommons.org/ns#" xmlns:rdf="http://www.w3.org/1999/02/22-rdf-syntax-ns#" xmlns:svg="http://www.w3.org/2000/svg" xmlns="http://www.w3.org/2000/svg" xmlns:xlink="http://www.w3.org/1999/xlink" xmlns:sodipodi="http://sodipodi.sourceforge.net/DTD/sodipodi-0.dtd" xmlns:inkscape="http://www.inkscape.org/namespaces/inkscape" height="64" width="64" version="1.1" id="svg11" sodipodi:docname="alchemy.svg" inkscape:version="1.0.1 (3bc2e813f5, 2020-09-07)">
  <metadata id="metadata17">
    <rdf:RDF>
      <cc:Work rdf:about="">
        <dc:format>image/svg+xml</dc:format>
        <dc:type rdf:resource="http://purl.org/dc/dcmitype/StillImage"/>
        <dc:title/>
      </cc:Work>
    </rdf:RDF>
  </metadata>
  <defs id="defs15">
    <linearGradient id="a-3" x1="-6.1472" x2="-6.1472" y1="-137.82" y2="-100.78" gradientTransform="matrix(2.0043985,0,0,2.0043985,-77.598601,255.17054)" gradientUnits="userSpaceOnUse">
      <stop stop-color="#14dc78" offset="0" id="stop844"/>
      <stop stop-color="#14a03c" offset="1" id="stop846"/>
    </linearGradient>
    
    
    <filter inkscape:collect="always" style="color-interpolation-filters:sRGB" id="filter1057" x="-0.027000001" width="1.054" y="-0.027000001" height="1.054">
      <feGaussianBlur inkscape:collect="always" stdDeviation="0.61875" id="feGaussianBlur1059"/>
    </filter>
    <linearGradient inkscape:collect="always" xlink:href="#linearGradient1051" id="linearGradient1053" x1="-127" y1="60" x2="-72" y2="5" gradientUnits="userSpaceOnUse" gradientTransform="translate(131.5,-0.50999846)"/>
    <linearGradient inkscape:collect="always" id="linearGradient1051">
      <stop style="stop-color:#02db96;stop-opacity:1" offset="0" id="stop1047"/>
      <stop style="stop-color:#13d39b;stop-opacity:1" offset="1" id="stop1049"/>
    </linearGradient>
    <linearGradient id="a" gradientTransform="matrix(1.0454546,0,0,1.3529412,-413.1928,-716.94935)" gradientUnits="userSpaceOnUse" x1="409.57144" x2="409.57144" y1="542.79797" y2="507.798">
      <stop offset="0" stop-color="#0bac83" id="stop2"/>
      <stop offset="1" stop-color="#10da96" id="stop4"/>
    </linearGradient>
  <radialGradient xmlns="http://www.w3.org/2000/svg" id="gradient_ds_br" cx="0" cy="0" r="1" gradientUnits="userSpaceOnUse" gradientTransform="matrix(13.998399,0.00477622,-0.00477841,14.004799,47.5016,48.4952)">
      <stop offset="0.65" id="stop1"/>
      <stop offset="1" stop-opacity="0" id="stop2"/>
    </radialGradient><linearGradient xmlns="http://www.w3.org/2000/svg" id="gradient_ds_b" x1="30.448999" y1="48.5" x2="30.492201" y2="62.500301" gradientUnits="userSpaceOnUse">
      <stop offset="0.653846" id="stop3"/>
      <stop offset="1" stop-opacity="0" id="stop4"/>
    </linearGradient><radialGradient xmlns="http://www.w3.org/2000/svg" id="gradient_ds_bl" cx="0" cy="0" r="1" gradientUnits="userSpaceOnUse" gradientTransform="matrix(0,14,-14,0,16.5,48.5)">
      <stop offset="0.65" id="stop5"/>
      <stop offset="1" stop-opacity="0" id="stop6"/>
    </radialGradient><linearGradient xmlns="http://www.w3.org/2000/svg" id="gradient_ds_r" x1="47.5" y1="33.5" x2="61.5" y2="33.5009" gradientUnits="userSpaceOnUse">
      <stop offset="0.649038" id="stop7"/>
      <stop offset="1" stop-opacity="0" id="stop8"/>
    </linearGradient><linearGradient xmlns="http://www.w3.org/2000/svg" id="gradient_ds_l" x1="16.5" y1="33.894699" x2="2.5" y2="33.894699" gradientUnits="userSpaceOnUse">
      <stop offset="0.649038" id="stop9"/>
      <stop offset="1" stop-opacity="0" id="stop10"/>
    </linearGradient><radialGradient xmlns="http://www.w3.org/2000/svg" id="gradient_ds_tr" cx="0" cy="0" r="1" gradientTransform="matrix(0.00843236,-14,14.0084,0.0189842,47.4916,18.5)" gradientUnits="userSpaceOnUse">
      <stop offset="0.65" id="stop11"/>
      <stop offset="1" stop-opacity="0" id="stop12"/>
    </radialGradient><linearGradient xmlns="http://www.w3.org/2000/svg" id="gradient_ds_t" x1="29.98" y1="18.5" x2="29.9158" y2="4.4998598" gradientUnits="userSpaceOnUse">
      <stop offset="0.649038" id="stop13"/>
      <stop offset="1" stop-opacity="0" id="stop14"/>
    </linearGradient><radialGradient xmlns="http://www.w3.org/2000/svg" id="gradient_ds_tl" cx="0" cy="0" r="1" gradientTransform="matrix(-0.00843236,-14,-14.0084,0.0189842,16.5084,18.5)" gradientUnits="userSpaceOnUse">
      <stop offset="0.65" id="stop15"/>
      <stop offset="1" stop-opacity="0" id="stop16"/>
    </radialGradient></defs>
  
  <g xmlns="http://www.w3.org/2000/svg" id="ds" opacity="0.25">
    <path id="ds-br" d="m 47.5,48.5 h 14 v 14 h -14 z" fill="url(#gradient_ds_br)" style="fill:url(#gradient_ds_br)"/>
    <path id="ds-b" d="m 16.5,48.5 h 31 v 14 h -31 z" fill="url(#gradient_ds_b)" style="fill:url(#gradient_ds_b)"/>
    <path id="ds-bl" d="m 2.5,48.5 h 14 v 14 h -14 z" fill="url(#gradient_ds_bl)" style="fill:url(#gradient_ds_bl)"/>
    <path id="ds-r" d="m 47.5,18.5 h 14 v 30 h -14 z" fill="url(#gradient_ds_r)" style="fill:url(#gradient_ds_r)"/>
    <path id="ds-l" d="m 2.5,18.5 h 14 v 30 h -14 z" fill="url(#gradient_ds_l)" style="fill:url(#gradient_ds_l)"/>
    <path id="ds-tr" d="m 47.5,4.5 h 14 v 14 h -14 z" fill="url(#gradient_ds_tr)" style="fill:url(#gradient_ds_tr)"/>
    <path id="ds-t" d="m 16.5,4.5 h 31 v 14 h -31 z" fill="url(#gradient_ds_t)" style="fill:url(#gradient_ds_t)"/>
    <path id="ds-tl" d="m 16.5,4.5 h -14 v 14 h 14 z" fill="url(#gradient_ds_tl)" style="fill:url(#gradient_ds_tl)"/>
  </g><rect style="fill:url(#linearGradient1053);fill-opacity:1;stroke-width:2.74436;stroke-linecap:round" id="bg" width="55" height="55" x="4.5" y="4.5" rx="10"/>
  <g id="art"><path d="M 47.615359,43.319921 38.433049,26.331796 V 16.211619 c 0,-0.952433 -0.79677,-1.711619 -1.74843,-1.711619 h -9.3725 c -0.95243,0 -1.73616,0.759186 -1.73616,1.711619 v 10.120177 l -9.18998,16.988125 c -0.7009,1.295217 -0.66563,2.868036 0.0882,4.134111 0.75382,1.264544 2.12112,2.045968 3.59348,2.045968 h 23.86067 c 1.47236,0 2.84273,-0.781424 3.59655,-2.045968 0.75305,-1.266075 0.79139,-2.838895 0.0905,-4.134111 z m -14.09938,-7.107206 c 0.82283,0 1.48923,0.666395 1.48923,1.48923 0,0.822068 -0.66793,1.489232 -1.48923,1.489232 -0.82207,0 -1.48924,-0.667164 -1.48924,-1.489232 0,-0.820533 0.6664,-1.48923 1.48924,-1.48923 z m -4.1878,-8.954559 c 0.82284,0 1.48924,0.667164 1.48924,1.489998 0,0.822068 -0.6664,1.489232 -1.48924,1.489232 -0.82283,0 -1.48923,-0.667164 -1.48923,-1.489232 7.7e-4,-0.822834 0.6664,-1.489998 1.48923,-1.489998 z m 0,5.199272 c 1.3328,0 2.41406,1.081265 2.41406,2.413292 0,1.332792 -1.08126,2.41329 -2.41406,2.41329 -1.33356,0 -2.41405,-1.080498 -2.41405,-2.41329 0,-1.332794 1.08049,-2.413292 2.41405,-2.413292 z m 13.8632,12.380864 c -0.30981,0.527597 -0.87652,0.838939 -1.48617,0.838939 h -19.41445 c -0.61041,0 -1.17635,-0.311342 -1.48616,-0.838939 -0.30981,-0.527595 -0.31825,-1.171753 -0.0215,-1.707018 l 2.33354,-4.194693 c 0.33281,-0.59968 0.98924,-0.94323 1.67174,-0.878048 3.09886,0.295239 6.58191,2.946254 9.69457,2.828158 1.66714,-0.06365 3.21465,-0.670997 4.68855,-1.483095 0.83204,-0.460113 1.87879,-0.158739 2.34044,0.67253 l 1.70165,3.053615 c 0.29524,0.536031 0.28757,1.181722 -0.0222,1.708551 z" fill="#ffffff" fill-opacity="0.850806" id="path879" style="fill:#ffffff;fill-opacity:1;stroke-width:0.766854"/></g>
</svg>
