<?xml version="1.0" encoding="UTF-8" standalone="no"?>
<svg xmlns:inkscape="http://www.inkscape.org/namespaces/inkscape" xmlns:sodipodi="http://sodipodi.sourceforge.net/DTD/sodipodi-0.dtd" xmlns="http://www.w3.org/2000/svg" xmlns:svg="http://www.w3.org/2000/svg" width="64" height="64" version="1.1" id="svg6" sodipodi:docname="among-us.svg" inkscape:version="1.4.2 (ebf0e940d0, 2025-05-08)">
  <sodipodi:namedview id="namedview1" pagecolor="#ffffff" bordercolor="#000000" borderopacity="0.25" inkscape:showpageshadow="2" inkscape:pageopacity="0.0" inkscape:pagecheckerboard="0" inkscape:deskcolor="#d1d1d1" showgrid="true" inkscape:current-layer="svg6">
    <inkscape:grid id="grid1" units="px" originx="0" originy="0" spacingx="1" spacingy="1" empcolor="#0099e5" empopacity="0.30196078" color="#0099e5" opacity="0.14901961" empspacing="5" enabled="true" visible="true"/>
  </sodipodi:namedview>
  <defs id="defs6">
    <filter id="filter1057" x="-0.026999999" y="-0.026999999" width="1.054" height="1.054" color-interpolation-filters="sRGB">
      <feGaussianBlur stdDeviation="0.61875" id="feGaussianBlur269"/>
    </filter>
    <linearGradient id="linearGradient1053" x1="-127" x2="-72" y1="60" y2="5" gradientTransform="translate(131.5,-0.510001)" gradientUnits="userSpaceOnUse">
      <stop stop-color="#fad21e" offset="0" id="stop272-3"/>
      <stop stop-color="#faeb1e" stop-opacity=".99608" offset="1" id="stop274"/>
    </linearGradient>
  <radialGradient id="gradient_ds_br" cx="0" cy="0" r="1" gradientUnits="userSpaceOnUse" gradientTransform="matrix(13.998399,0.00477622,-0.00477841,14.004799,47.5016,48.4952)">
      <stop offset="0.65" id="stop1"/>
      <stop offset="1" stop-opacity="0" id="stop2"/>
    </radialGradient><linearGradient id="gradient_ds_b" x1="30.448999" y1="48.5" x2="30.492201" y2="62.500301" gradientUnits="userSpaceOnUse">
      <stop offset="0.653846" id="stop3"/>
      <stop offset="1" stop-opacity="0" id="stop4"/>
    </linearGradient><radialGradient id="gradient_ds_bl" cx="0" cy="0" r="1" gradientUnits="userSpaceOnUse" gradientTransform="matrix(0,14,-14,0,16.5,48.5)">
      <stop offset="0.65" id="stop5"/>
      <stop offset="1" stop-opacity="0" id="stop6"/>
    </radialGradient><linearGradient id="gradient_ds_r" x1="47.5" y1="33.5" x2="61.5" y2="33.5009" gradientUnits="userSpaceOnUse">
      <stop offset="0.649038" id="stop7"/>
      <stop offset="1" stop-opacity="0" id="stop8"/>
    </linearGradient><linearGradient id="gradient_ds_l" x1="16.5" y1="33.894699" x2="2.5" y2="33.894699" gradientUnits="userSpaceOnUse">
      <stop offset="0.649038" id="stop9"/>
      <stop offset="1" stop-opacity="0" id="stop10"/>
    </linearGradient><radialGradient id="gradient_ds_tr" cx="0" cy="0" r="1" gradientTransform="matrix(0.00843236,-14,14.0084,0.0189842,47.4916,18.5)" gradientUnits="userSpaceOnUse">
      <stop offset="0.65" id="stop11"/>
      <stop offset="1" stop-opacity="0" id="stop12"/>
    </radialGradient><linearGradient id="gradient_ds_t" x1="29.98" y1="18.5" x2="29.9158" y2="4.4998598" gradientUnits="userSpaceOnUse">
      <stop offset="0.649038" id="stop13"/>
      <stop offset="1" stop-opacity="0" id="stop14"/>
    </linearGradient><radialGradient id="gradient_ds_tl" cx="0" cy="0" r="1" gradientTransform="matrix(-0.00843236,-14,-14.0084,0.0189842,16.5084,18.5)" gradientUnits="userSpaceOnUse">
      <stop offset="0.65" id="stop15"/>
      <stop offset="1" stop-opacity="0" id="stop16"/>
    </radialGradient></defs>
  
  <g id="ds" opacity="0.25">
    <path id="ds-br" d="m 47.5,48.5 h 14 v 14 h -14 z" fill="url(#gradient_ds_br)" style="fill:url(#gradient_ds_br)"/>
    <path id="ds-b" d="m 16.5,48.5 h 31 v 14 h -31 z" fill="url(#gradient_ds_b)" style="fill:url(#gradient_ds_b)"/>
    <path id="ds-bl" d="m 2.5,48.5 h 14 v 14 h -14 z" fill="url(#gradient_ds_bl)" style="fill:url(#gradient_ds_bl)"/>
    <path id="ds-r" d="m 47.5,18.5 h 14 v 30 h -14 z" fill="url(#gradient_ds_r)" style="fill:url(#gradient_ds_r)"/>
    <path id="ds-l" d="m 2.5,18.5 h 14 v 30 h -14 z" fill="url(#gradient_ds_l)" style="fill:url(#gradient_ds_l)"/>
    <path id="ds-tr" d="m 47.5,4.5 h 14 v 14 h -14 z" fill="url(#gradient_ds_tr)" style="fill:url(#gradient_ds_tr)"/>
    <path id="ds-t" d="m 16.5,4.5 h 31 v 14 h -31 z" fill="url(#gradient_ds_t)" style="fill:url(#gradient_ds_t)"/>
    <path id="ds-tl" d="m 16.5,4.5 h -14 v 14 h 14 z" fill="url(#gradient_ds_tl)" style="fill:url(#gradient_ds_tl)"/>
  </g><rect x="4.5" y="4.5" width="55" height="55" fill="url(#linearGradient1053)" stroke-linecap="round" stroke-width="2.7444" id="bg" style="fill:url(#linearGradient1053)" rx="10"/>
  <g id="art">
    <path fill="#f2fbfc" d="m 13.777,28.760998 c -1.627,-2.84 3.236,-3.531 5.16,-3.928 1.956,-0.228 5.49,-0.868 5.764,1.93 -0.806,3.914 -5.438,2.372 -9.215,2.444 -0.4,-0.07 -1.472,0.004 -1.709,-0.446" id="path1"/>
    <path fill="#72d7f0" d="m 19.493,32.665998 c -3.565,-0.244 -7.912,1.16 -9.115,-2.81 0.75,-4.202 4.849,-5.978 8.492,-5.783 3.226,-0.107 6.798,-0.447 9.924,0.568 2.416,1.629 1.496,5.595 -0.642,6.877 -2.035,1.506 -3.634,1.27 -6.255,1.195 l -1.442,-0.086 z m -1.853,-3.818 c 2.243,-0.594 6.169,0.683 7.063,-2.085 -0.276,-2.798 -3.81,-2.157 -5.765,-1.93 -2.04,0.31 -6.991,1.429 -4.682,4.164 q 1.693,-0.058 3.384,-0.149" id="path2"/>
    <path id="path3" d="M 51.242188 32.144531 C 51.762188 32.554531 52.279359 33.341359 52.693359 34.193359 C 52.653359 33.973359 52.614313 33.75625 52.570312 33.53125 C 52.407313 32.93725 51.896188 32.478531 51.242188 32.144531 z "/>
    <path id="path38" d="M 51.119141 32.083984 L 51.242188 32.144531 C 51.218187 32.125531 51.196828 32.099984 51.173828 32.083984 C 51.158828 32.084984 51.133141 32.080984 51.119141 32.083984 z "/>
    <path id="path37" d="M 53.248047 37.556641 L 53.25 37.556641 C 53.818371 37.371982 53.420159 35.691417 52.693359 34.197266 C 52.911037 35.345908 53.092221 36.460862 53.248047 37.556641 z "/>
    <path id="path35" style="fill:#880832;fill-opacity:1" d="M 46.966797 33.115234 C 47.526797 39.565234 47.439859 46.553406 47.130859 52.941406 C 47.333574 54.52706 46.144508 58.137326 46.572266 59.5 L 49.5 59.5 C 51.029913 59.5 52.477485 59.159862 53.771484 58.550781 C 54.109434 55.22763 54.022735 49.224058 54.019531 46.521484 C 53.886531 43.346484 53.664047 40.503641 53.248047 37.556641 C 53.146302 37.587971 53.017604 37.575506 52.853516 37.503906 L 51.666016 36.986328 C 50.800016 36.609328 50.649547 36.465734 49.560547 36.427734 C 47.238547 37.026734 47.011703 35.442016 47.095703 33.541016 C 47.042253 33.402475 46.999173 33.260156 46.966797 33.115234 z "/>
    <path id="path34" d="M 33.714844 25.443359 L 34.708984 24.449219 C 32.499248 22.469455 28.74879 20.974187 23.128906 20.5 C 28.835714 21.256171 32.192018 23.134624 33.714844 25.443359 z "/>
    <path id="path33" d="M 19.228516 39.912109 C 30.064516 39.436109 37.471844 31.138359 33.714844 25.443359 L 19.228516 39.912109 z "/>
    <path id="path32" d="M 13.712891 39.476562 C 15.362891 40.035562 16.968625 40.411047 18.515625 40.623047 L 19.228516 39.912109 A 23 23 0 0 1 13.712891 39.476562 z "/>
    <path id="path30" style="display:inline;fill:#880832;fill-opacity:1" d="M 28.382812 14.501953 C 25.532812 14.889953 22.886734 16.218391 20.427734 17.650391 C 20.034734 18.326391 16.487578 20.718797 18.517578 20.341797 C 20.177848 20.321807 21.708479 20.380107 23.126953 20.5 C 21.877775 20.338147 20.621948 20.232571 19.363281 20.183594 C 16.391281 20.871594 19.858141 18.568969 20.619141 17.667969 C 22.701141 16.396969 24.998328 15.374625 27.361328 14.765625 C 29.615328 14.492625 31.931219 14.633277 34.199219 14.738281 C 36.663219 15.168281 39.163453 16.507563 40.439453 18.726562 L 34.708984 24.449219 C 41.925984 30.920219 32.698625 42.559047 18.515625 40.623047 L 13.388672 45.744141 C 13.104306 44.842121 13.022252 43.917508 13.021484 42.988281 C 12.881852 45.02741 12.686482 47.063067 12.662109 49.103516 C 12.555146 52.087088 12.827776 56.236865 13.595703 59.460938 C 13.89358 59.487407 14.195013 59.5 14.5 59.5 L 43.892578 59.5 C 44.324823 56.975669 44.81448 53.665599 44.945312 51.183594 C 45.065312 44.242594 44.409109 37.234875 44.412109 30.296875 C 43.837109 27.863875 43.230547 25.553266 42.810547 23.072266 C 41.977547 20.129266 40.337781 17.043516 37.300781 15.728516 C 34.620781 14.054516 31.382812 14.655953 28.382812 14.501953 z M 13.021484 42.988281 C 13.051188 42.554502 13.061158 42.120197 13.099609 41.6875 C 13.063936 42.122858 13.021125 42.553668 13.021484 42.988281 z M 13.099609 41.6875 C 13.162274 40.922747 13.226719 40.155279 13.330078 39.402344 C 13.458078 39.429344 13.585891 39.450563 13.712891 39.476562 C 13.554891 39.422562 13.397281 39.375359 13.238281 39.318359 C 13.133447 40.101104 13.169635 40.89949 13.099609 41.6875 z M 48.074219 31.484375 C 47.534219 31.507375 47.091609 31.610922 46.849609 31.794922 C 46.880609 32.098922 46.901688 32.410797 46.929688 32.716797 C 47.031686 31.271797 50.017141 32.209984 51.119141 32.083984 C 50.185141 31.641984 48.994172 31.444375 48.076172 31.484375 L 48.074219 31.484375 z "/>
    <path fill="#ef1615" d="m 22.734,55.483998 c -3.345,-0.293 -6.77,-2.068 -8.007,-5.338 -1.145,-3.02 -2.638,-6.703 -2.05,-9.958 -0.114,-2.501 3.628,-0.253 5.229,-0.508 2.89,0.659 5.618,0.761 8.507,0.232 2.677,-0.877 5.497,-1.169 7.016,-3.828 1.451,-2.039 2.385,-4.536 2.07,-7.081 0.427,-2.933 -1.352,-4.6 -3.527,-6.338 -2.54,-1.61 -5.3,-1.682 -8.212,-1.86 -1.852,-0.117 -5.635,0.41 -6.974,0.28 1.583,-1.708 4.264,-5.011 6.506,-5.775 1.926,-0.894 4.586,-1.683 6.745,-1.484 2.668,-0.018 5.782,0.138 8.1,1.708 2.295,1.073 4.084,3.573 4.225,6.03 0.58,3.23 0.09,6.696 0.335,9.963 -0.04,5.667 -1.81,11.44 -3.75,16.743 -1.07,2.151 -1.823,4.782 -4.146,5.953 -2.402,0.814 -4.897,1.224 -7.434,1.29 -1.542,0.035 -3.096,0.138 -4.633,-0.029 z m 29.569,-17.953 c -1.67,-1.692 -5.52,0.902 -5.237,-3.127 -0.397,-1.66 0.094,-3.524 2.117,-2.72 2.695,-0.624 4.188,3.293 3.568,5.69 0.19,0.247 -0.2,0.85 -0.448,0.157" id="path4"/>
    <path fill="#225584" d="m 21.09,38.094998 c -2.823,-0.012 -5.6,-1.01 -8.179,-2.169 -2.177,-1.324 -3.532,-4.254 -2.537,-6.833 1.5,-3.591 5.62,-5.491 9.361,-5.353 3.412,-0.122 6.984,-0.382 10.29,0.625 2.863,0.55 3.305,4.188 2.829,6.52 -0.223,2.853 -2.449,5.425 -4.98,6.497 -1.917,0.742 -3.514,0.727 -5.545,0.718 z m 2.42,-5.574 c 2.51,0.044 5.113,-0.877 6.093,-3.399 1.298,-2.504 -1.283,-5.28 -4.105,-4.969 -3.321,-0.204 -6.042,-0.264 -9.316,0.367 -2.435,0.756 -4.67,2.422 -5.6,4.854 0.188,3.103 3.913,2.6 6.11,2.914 2.268,0.15 4.545,0.364 6.819,0.233" id="path5"/>
    <path id="path7" d="m 27.398438,10.667969 c -4.195151,0.01078 -7.772602,2.510316 -10.828126,5.128906 -2.089,1.662 -3.616656,3.893281 -4.222656,6.488281 -3.4729994,2.31 -5.7766716,6.636938 -5.1386716,10.835938 0.11,1.962 1.6035937,3.627031 2.5585937,4.957031 -0.1212571,5.765133 0.013711,14.627636 0.7773439,20.615234 0.97053,0.415999 2.022687,0.683577 3.125,0.773438 -0.213915,-1.548661 -0.811349,-4.427355 -0.726563,-5.449219 -0.57,-4.804 -0.164531,-9.686187 0.230469,-14.492187 1.465,-0.1 3.677297,1.199953 5.529297,1.251953 3.834,0.505 7.839156,0.07225 11.410156,-1.46875 2.956,-0.73 4.491328,-3.594969 5.611328,-6.167969 0.508,-2.207 0.687218,-4.733439 -0.05078,-6.898437 -1.133,-2.177 -2.694703,-4.186719 -5.095703,-5.011719 -3.932,-0.98 -8.039547,-0.914672 -12.060547,-0.888672 -2.032,0.377 1.516156,-2.015406 1.910156,-2.691406 2.46,-1.432 5.104079,-2.760438 7.955078,-3.148438 2.826002,0.156 5.830641,-0.402062 8.431641,0.960938 3.123,1.177 4.547875,4.42625 5.421875,7.40625 0.52,2.64 1.016063,5.275047 1.664063,7.873047 -0.012,6.709 0.246859,13.421765 0.130859,20.134765 -0.13324,2.726143 0.224426,5.892968 -0.146484,8.623047 h 3.146484 c 0.406705,-6.665631 0.803496,-14.124199 0.599609,-20.773438 0.094,-2.156998 -0.721484,-4.707046 -0.271484,-6.623046 2.74,-0.505 5.593734,0.786531 5.302734,3.894531 0.54,5.47 0.964094,10.988375 0.621094,16.484375 -0.242219,1.169906 -0.467735,4.646004 -0.761719,6.55664 1.523007,-0.478945 2.887075,-1.310199 3.996094,-2.40039 0.261299,-3.407213 0.40544,-9.454412 0.205078,-11.90625 -0.387,-4.469 -0.387515,-9.090797 -1.978515,-13.341797 -1.024,-2.344 -4.076844,-2.104266 -6.214844,-2.572266 -1.97,-0.446 -2.158672,-1.75625 -2.388672,-3.40625 -0.335,-2.928 -1.491219,-5.636156 -2.699219,-8.285156 -1.205,-2.976 -3.931719,-4.969859 -6.886718,-6.005859 -2.984365,-0.649862 -6.109911,-0.366302 -9.154297,-0.453125 z m -2.722657,13.201172 c 2.398,0.193 5.249281,0.250812 7.113281,1.882812 1.5,2.003 1.101813,4.887031 0.382813,7.082031 -1.273,2.93 -4.365031,4.72036 -7.457031,5.06836 -2.393,0.211 -4.865907,0.120234 -7.128906,-0.759766 -2.53,-0.445 -5.053797,-1.457328 -6.591797,-3.611328 -1.7230008,-2.435 -0.426969,-5.788719 1.832031,-7.386719 3.286,-2.833 7.851609,-2.15439 11.849609,-2.27539 z" style="display:inline"/>
  </g>
</svg>
