<?xml version="1.0" encoding="UTF-8" standalone="no"?>
<svg xmlns:inkscape="http://www.inkscape.org/namespaces/inkscape" xmlns:sodipodi="http://sodipodi.sourceforge.net/DTD/sodipodi-0.dtd" xmlns="http://www.w3.org/2000/svg" xmlns:svg="http://www.w3.org/2000/svg" xmlns:rdf="http://www.w3.org/1999/02/22-rdf-syntax-ns#" xmlns:cc="http://creativecommons.org/ns#" xmlns:dc="http://purl.org/dc/elements/1.1/" width="64" height="64" version="1.1" id="svg21" sodipodi:docname="amsn.svg" inkscape:version="1.4.2 (ebf0e940d0, 2025-05-08)">
  <metadata id="metadata1">
    <rdf:RDF>
      <cc:Work rdf:about="">
        <dc:format>image/svg+xml</dc:format>
        <dc:type rdf:resource="http://purl.org/dc/dcmitype/StillImage"/>
      </cc:Work>
    </rdf:RDF>
  </metadata>
  <defs id="defs18">
    
    
    
    <filter id="filter1057" x="-0.026999999" y="-0.026999999" width="1.054" height="1.054" color-interpolation-filters="sRGB">
      <feGaussianBlur stdDeviation="0.61875" id="feGaussianBlur3"/>
    </filter>
    <linearGradient id="linearGradient1053" x1="-127" x2="-72" y1="60" y2="5" gradientTransform="translate(131.5,-0.51)" gradientUnits="userSpaceOnUse">
      <stop stop-color="#32d7ff" offset="0" id="stop3"/>
      <stop stop-color="#329bff" offset="1" id="stop4"/>
    </linearGradient>
    
    
    
    
    
    
    
    
    
    
    
    
    
    
    
  <radialGradient id="gradient_ds_br" cx="0" cy="0" r="1" gradientUnits="userSpaceOnUse" gradientTransform="matrix(13.998399,0.00477622,-0.00477841,14.004799,47.5016,48.4952)">
      <stop offset="0.65" id="stop1"/>
      <stop offset="1" stop-opacity="0" id="stop2"/>
    </radialGradient><linearGradient id="gradient_ds_b" x1="30.448999" y1="48.5" x2="30.492201" y2="62.500301" gradientUnits="userSpaceOnUse">
      <stop offset="0.653846" id="stop3"/>
      <stop offset="1" stop-opacity="0" id="stop4"/>
    </linearGradient><radialGradient id="gradient_ds_bl" cx="0" cy="0" r="1" gradientUnits="userSpaceOnUse" gradientTransform="matrix(0,14,-14,0,16.5,48.5)">
      <stop offset="0.65" id="stop5"/>
      <stop offset="1" stop-opacity="0" id="stop6"/>
    </radialGradient><linearGradient id="gradient_ds_r" x1="47.5" y1="33.5" x2="61.5" y2="33.5009" gradientUnits="userSpaceOnUse">
      <stop offset="0.649038" id="stop7"/>
      <stop offset="1" stop-opacity="0" id="stop8"/>
    </linearGradient><linearGradient id="gradient_ds_l" x1="16.5" y1="33.894699" x2="2.5" y2="33.894699" gradientUnits="userSpaceOnUse">
      <stop offset="0.649038" id="stop9"/>
      <stop offset="1" stop-opacity="0" id="stop10"/>
    </linearGradient><radialGradient id="gradient_ds_tr" cx="0" cy="0" r="1" gradientTransform="matrix(0.00843236,-14,14.0084,0.0189842,47.4916,18.5)" gradientUnits="userSpaceOnUse">
      <stop offset="0.65" id="stop11"/>
      <stop offset="1" stop-opacity="0" id="stop12"/>
    </radialGradient><linearGradient id="gradient_ds_t" x1="29.98" y1="18.5" x2="29.9158" y2="4.4998598" gradientUnits="userSpaceOnUse">
      <stop offset="0.649038" id="stop13"/>
      <stop offset="1" stop-opacity="0" id="stop14"/>
    </linearGradient><radialGradient id="gradient_ds_tl" cx="0" cy="0" r="1" gradientTransform="matrix(-0.00843236,-14,-14.0084,0.0189842,16.5084,18.5)" gradientUnits="userSpaceOnUse">
      <stop offset="0.65" id="stop15"/>
      <stop offset="1" stop-opacity="0" id="stop16"/>
    </radialGradient></defs>
  
  <g id="ds" opacity="0.25">
    <path id="ds-br" d="m 47.5,48.5 h 14 v 14 h -14 z" fill="url(#gradient_ds_br)" style="fill:url(#gradient_ds_br)"/>
    <path id="ds-b" d="m 16.5,48.5 h 31 v 14 h -31 z" fill="url(#gradient_ds_b)" style="fill:url(#gradient_ds_b)"/>
    <path id="ds-bl" d="m 2.5,48.5 h 14 v 14 h -14 z" fill="url(#gradient_ds_bl)" style="fill:url(#gradient_ds_bl)"/>
    <path id="ds-r" d="m 47.5,18.5 h 14 v 30 h -14 z" fill="url(#gradient_ds_r)" style="fill:url(#gradient_ds_r)"/>
    <path id="ds-l" d="m 2.5,18.5 h 14 v 30 h -14 z" fill="url(#gradient_ds_l)" style="fill:url(#gradient_ds_l)"/>
    <path id="ds-tr" d="m 47.5,4.5 h 14 v 14 h -14 z" fill="url(#gradient_ds_tr)" style="fill:url(#gradient_ds_tr)"/>
    <path id="ds-t" d="m 16.5,4.5 h 31 v 14 h -31 z" fill="url(#gradient_ds_t)" style="fill:url(#gradient_ds_t)"/>
    <path id="ds-tl" d="m 16.5,4.5 h -14 v 14 h 14 z" fill="url(#gradient_ds_tl)" style="fill:url(#gradient_ds_tl)"/>
  </g><rect x="4.5" y="4.5" width="55" height="55" fill="url(#linearGradient1053)" stroke-linecap="round" stroke-width="2.7444" id="bg" style="fill:url(#linearGradient1053)" rx="10"/>
  <g id="art"><path d="m 32,14.836 c -5.0555,0 -9.8137,1.6057 -13.396,4.5215 -3.6141,2.9412 -5.6035,6.8625 -5.6035,11.039 0,3.9862 1.8137,7.7382 5.1211,10.629 -0.05964,0.13414 -0.1065,0.27351 -0.13672,0.42188 l -1.0859,5.3457 c -0.12922,0.6353 0.04463,1.0146 0.21289,1.2207 0.19454,0.238 0.48143,0.36914 0.81055,0.36914 0.2485,0 0.51664,-0.07212 0.79492,-0.2168 l 6.3203,-3.2852 c 2.1884,0.70441 4.5413,1.0742 6.9629,1.0742 0.54794,0 1.091,-0.0271 1.6309,-0.06445 -1.8431,-1.7489 -2.8945,-4.0643 -2.8945,-6.5195 0,-2.5656 1.138,-4.9849 3.1387,-6.7578 l 0.28516,-0.25195 h 0.13867 c 1.9325,-1.5535 4.3516,-2.4609 6.9375,-2.4609 2.7583,0 5.3775,0.95491 7.3613,2.7129 0.6669,0.59096 1.2284,1.2585 1.6934,1.9746 0.45737,-1.3483 0.70898,-2.7527 0.70898,-4.1914 0,-4.1766 -1.9895,-8.0979 -5.6035,-11.039 -3.5829,-2.9159 -8.3411,-4.5215 -13.396,-4.5215 z M 41.2363,31.9 c -2.2971,0 -4.4361,0.79204 -6.0352,2.209 -1.6133,1.4296 -2.4648,3.2796 -2.4648,5.2617 0,1.982 0.85155,3.8302 2.4648,5.2598 0.37411,0.3315 0.78065,0.6256 1.209,0.88672 3.3699,-0.65335 6.4709,-2.0369 8.9863,-4.084 1.6371,-1.3323 2.9207,-2.8722 3.8574,-4.5391 -0.40868,-1.0272 -1.0685,-1.9753 -1.9824,-2.7852 -1.599,-1.4169 -3.738,-2.209 -6.0352,-2.209 z" fill="#ffffff" id="path20"/><path d="m 41.236,30.9 c -2.5277,0 -4.9058,0.87345 -6.6973,2.4609 -1.807,1.6013 -2.8027,3.7359 -2.8027,6.0098 0,2.2738 0.99575,4.4066 2.8027,6.0078 1.7915,1.5874 4.1695,2.4629 6.6973,2.4629 1.2108,0 2.3882,-0.20049 3.4824,-0.58398 l 3.1602,1.7871 c 0.13914,0.07879 0.27223,0.11914 0.39648,0.11914 0.16455,10e-7 0.30893,-0.0716 0.40625,-0.20117 0.08424,-0.11218 0.17005,-0.31818 0.10547,-0.66406 l -0.54297,-2.9102 c -0.01504,-0.08077 -0.03842,-0.15935 -0.06836,-0.23242 1.6537,-1.5738 2.5605,-3.6149 2.5605,-5.7852 0,-2.2738 -0.9957,-4.4085 -2.8027,-6.0098 -1.7914,-1.5874 -4.1695,-2.4609 -6.6973,-2.4609 z" fill="#bae4ff" id="path21"/></g>
  
</svg>
