<?xml version="1.0" encoding="UTF-8" standalone="no"?>
<svg xmlns:inkscape="http://www.inkscape.org/namespaces/inkscape" xmlns:sodipodi="http://sodipodi.sourceforge.net/DTD/sodipodi-0.dtd" xmlns:xlink="http://www.w3.org/1999/xlink" xmlns="http://www.w3.org/2000/svg" xmlns:svg="http://www.w3.org/2000/svg" xmlns:rdf="http://www.w3.org/1999/02/22-rdf-syntax-ns#" xmlns:cc="http://creativecommons.org/ns#" xmlns:dc="http://purl.org/dc/elements/1.1/" width="64" height="64" version="1.1" viewBox="0 0 64 64" id="svg6" sodipodi:docname="android-sdk.svg" inkscape:version="1.4.2 (ebf0e940d0, 2025-05-08)">
  <sodipodi:namedview id="namedview1" pagecolor="#ffffff" bordercolor="#000000" borderopacity="0.25" inkscape:showpageshadow="2" inkscape:pageopacity="0.0" inkscape:pagecheckerboard="0" inkscape:deskcolor="#d1d1d1" showgrid="true" inkscape:current-layer="art">
    <inkscape:grid id="grid1" units="px" originx="0" originy="0" spacingx="1" spacingy="1" empcolor="#0099e5" empopacity="0.30196078" color="#0099e5" opacity="0.14901961" empspacing="5" enabled="true" visible="true"/>
  </sodipodi:namedview>
  <defs id="defs2">
    <filter id="filter1057-4" x="-0.026999999" y="-0.026999999" width="1.054" height="1.054" color-interpolation-filters="sRGB">
      <feGaussianBlur stdDeviation="0.61875" id="feGaussianBlur1"/>
    </filter>
    <linearGradient id="linearGradient1053-0" x1="-127" x2="-72" y1="60" y2="5" gradientTransform="matrix(1.0000071,0,0,1.0000071,131.50347,-0.5100195)" gradientUnits="userSpaceOnUse">
      <stop stop-color="#02db96" offset="0" id="stop1" style="stop-color:#0b4d63;stop-opacity:1;"/>
      <stop stop-color="#13d39b" offset="1" id="stop2" style="stop-color:#083042;stop-opacity:1;"/>
    </linearGradient>
    <filter id="filter1057-4-3" x="-0.026999999" y="-0.026999999" width="1.054" height="1.054" color-interpolation-filters="sRGB">
      <feGaussianBlur stdDeviation="0.61875" id="feGaussianBlur1-6"/>
    </filter>
    <linearGradient y2="7.5494385" x2="145.71126" y1="24.848007" x1="119.24186" gradientTransform="matrix(2.1339735,0,0,2.1339735,-251.44396,7.9600109)" gradientUnits="userSpaceOnUse" id="linearGradient912" xlink:href="#linearGradient1047" inkscape:collect="always"/>
    <linearGradient gradientTransform="translate(-116.822)" gradientUnits="userSpaceOnUse" y2="25.950001" y1="59.192001" x2="149.02" x1="149.02" id="linearGradient1047">
      <stop id="stop4" offset="0" stop-color="#16a085" style="stop-color:#089877;stop-opacity:1;"/>
      <stop id="stop6" offset="1" stop-color="#2ecc85"/>
    </linearGradient>
  <radialGradient id="gradient_ds_br" cx="0" cy="0" r="1" gradientUnits="userSpaceOnUse" gradientTransform="matrix(13.998399,0.00477622,-0.00477841,14.004799,47.5016,48.4952)">
      <stop offset="0.65" id="stop1"/>
      <stop offset="1" stop-opacity="0" id="stop2"/>
    </radialGradient><linearGradient id="gradient_ds_b" x1="30.448999" y1="48.5" x2="30.492201" y2="62.500301" gradientUnits="userSpaceOnUse">
      <stop offset="0.653846" id="stop3"/>
      <stop offset="1" stop-opacity="0" id="stop4"/>
    </linearGradient><radialGradient id="gradient_ds_bl" cx="0" cy="0" r="1" gradientUnits="userSpaceOnUse" gradientTransform="matrix(0,14,-14,0,16.5,48.5)">
      <stop offset="0.65" id="stop5"/>
      <stop offset="1" stop-opacity="0" id="stop6"/>
    </radialGradient><linearGradient id="gradient_ds_r" x1="47.5" y1="33.5" x2="61.5" y2="33.5009" gradientUnits="userSpaceOnUse">
      <stop offset="0.649038" id="stop7"/>
      <stop offset="1" stop-opacity="0" id="stop8"/>
    </linearGradient><linearGradient id="gradient_ds_l" x1="16.5" y1="33.894699" x2="2.5" y2="33.894699" gradientUnits="userSpaceOnUse">
      <stop offset="0.649038" id="stop9"/>
      <stop offset="1" stop-opacity="0" id="stop10"/>
    </linearGradient><radialGradient id="gradient_ds_tr" cx="0" cy="0" r="1" gradientTransform="matrix(0.00843236,-14,14.0084,0.0189842,47.4916,18.5)" gradientUnits="userSpaceOnUse">
      <stop offset="0.65" id="stop11"/>
      <stop offset="1" stop-opacity="0" id="stop12"/>
    </radialGradient><linearGradient id="gradient_ds_t" x1="29.98" y1="18.5" x2="29.9158" y2="4.4998598" gradientUnits="userSpaceOnUse">
      <stop offset="0.649038" id="stop13"/>
      <stop offset="1" stop-opacity="0" id="stop14"/>
    </linearGradient><radialGradient id="gradient_ds_tl" cx="0" cy="0" r="1" gradientTransform="matrix(-0.00843236,-14,-14.0084,0.0189842,16.5084,18.5)" gradientUnits="userSpaceOnUse">
      <stop offset="0.65" id="stop15"/>
      <stop offset="1" stop-opacity="0" id="stop16"/>
    </radialGradient></defs>
  <metadata id="metadata2">
    <rdf:RDF>
      <cc:Work rdf:about="">
        <dc:format>image/svg+xml</dc:format>
        <dc:type rdf:resource="http://purl.org/dc/dcmitype/StillImage"/>
      </cc:Work>
    </rdf:RDF>
  </metadata>
  
  <g id="ds" opacity="0.25">
    <path id="ds-br" d="m 47.5,48.5 h 14 v 14 h -14 z" fill="url(#gradient_ds_br)" style="fill:url(#gradient_ds_br)"/>
    <path id="ds-b" d="m 16.5,48.5 h 31 v 14 h -31 z" fill="url(#gradient_ds_b)" style="fill:url(#gradient_ds_b)"/>
    <path id="ds-bl" d="m 2.5,48.5 h 14 v 14 h -14 z" fill="url(#gradient_ds_bl)" style="fill:url(#gradient_ds_bl)"/>
    <path id="ds-r" d="m 47.5,18.5 h 14 v 30 h -14 z" fill="url(#gradient_ds_r)" style="fill:url(#gradient_ds_r)"/>
    <path id="ds-l" d="m 2.5,18.5 h 14 v 30 h -14 z" fill="url(#gradient_ds_l)" style="fill:url(#gradient_ds_l)"/>
    <path id="ds-tr" d="m 47.5,4.5 h 14 v 14 h -14 z" fill="url(#gradient_ds_tr)" style="fill:url(#gradient_ds_tr)"/>
    <path id="ds-t" d="m 16.5,4.5 h 31 v 14 h -31 z" fill="url(#gradient_ds_t)" style="fill:url(#gradient_ds_t)"/>
    <path id="ds-tl" d="m 16.5,4.5 h -14 v 14 h 14 z" fill="url(#gradient_ds_tl)" style="fill:url(#gradient_ds_tl)"/>
  </g><rect x="4.5" y="4.5" width="55" height="55" fill="url(#linearGradient1053-0)" stroke-linecap="round" stroke-width="2.74441" id="bg" style="fill:url(#linearGradient1053-0)" rx="10"/>
  <g id="art">
    <path id="path1" d="m 11.947266,24.070313 c -0.612451,0 -1.107422,0.494971 -1.107422,1.107421 0,0.204862 0.05632,0.394278 0.152344,0.558594 l 5.324219,9.220703 C 11.435014,37.652844 7.3656609,41.542702 4.5,46.220703 v 3.279298 c 0,5.54 4.4600001,9.999998 10,9.999998 h 35 c 5.54,0 10,-4.459998 10,-9.999998 V 46.216797 C 56.653186,41.5442 52.630771,37.684241 47.845703,35.037109 l -0.162118,-0.08009 -0.0038,0.0038 5.326171,-9.224609 c 0.09389,-0.157914 0.14844,-0.349826 0.14844,-0.554687 0,-0.612451 -0.494971,-1.107422 -1.107422,-1.107422 -0.407589,0 -0.763021,0.220196 -0.955079,0.548828 l -0.002,0.0039 -5.392579,9.339843 c -4.026808,-1.850155 -8.73773,-2.929687 -13.699218,-2.929687 -4.881652,0 -9.518452,1.044659 -13.701172,2.921875 L 12.908203,24.625 c -0.194191,-0.3329 -0.553349,-0.554687 -0.960937,-0.554687 z m 5.318359,21.613281 c 1.472442,0 2.666017,1.193574 2.666017,2.666016 -0.0021,1.470308 -1.193575,2.663882 -2.666017,2.666016 -1.472442,0 -2.664062,-1.193574 -2.664062,-2.666016 0,-1.472442 1.19162,-2.666016 2.664062,-2.666016 z m 29.457032,0 c 1.472441,0 2.666015,1.193574 2.666015,2.666016 -0.0021,1.470308 -1.193574,2.663882 -2.666015,2.666016 -1.472442,0 -2.664064,-1.193574 -2.664064,-2.666016 0,-1.472442 1.191622,-2.666016 2.664064,-2.666016 z" style="font-variation-settings:normal;display:inline;vector-effect:none;fill:url(#linearGradient912);fill-opacity:1;stroke-width:0.999999;stroke-linecap:butt;stroke-linejoin:miter;stroke-miterlimit:4;stroke-dasharray:none;stroke-dashoffset:0;stroke-opacity:1;-inkscape-stroke:none;stop-color:#000000"/>
  </g>
</svg>
