<?xml version="1.0" encoding="UTF-8" standalone="no"?>
<svg xmlns:inkscape="http://www.inkscape.org/namespaces/inkscape" xmlns:sodipodi="http://sodipodi.sourceforge.net/DTD/sodipodi-0.dtd" xmlns:xlink="http://www.w3.org/1999/xlink" xmlns="http://www.w3.org/2000/svg" xmlns:svg="http://www.w3.org/2000/svg" width="64" height="64" version="1.1" id="svg10" sodipodi:docname="aperture-desk-job.svg" inkscape:version="1.4 (e7c3feb100, 2024-10-09)">
  <defs id="defs7">
    <linearGradient id="b">
      <stop offset="0" style="stop-color:#0d0d0d;stop-opacity:1" id="stop1"/>
      <stop offset="1" style="stop-color:#262626;stop-opacity:1" id="stop2"/>
    </linearGradient>
    <linearGradient id="a">
      <stop offset="0" style="stop-color:#d9d9d9;stop-opacity:1" id="stop3"/>
      <stop offset="1" style="stop-color:#fff;stop-opacity:1" id="stop4"/>
    </linearGradient>
    <linearGradient id="c" x1="7.937" x2="7.937" y1="15.081" y2="1.852" gradientTransform="matrix(3.7796,0,0,3.7796,80.125853,0)" gradientUnits="userSpaceOnUse">
      <stop offset=".01" stop-color="#f54800" style="stop-color:#ec2f16;stop-opacity:1" id="stop5"/>
      <stop offset="1" stop-color="#ffb200" style="stop-color:#e88732;stop-opacity:1" id="stop6"/>
    </linearGradient>
    <linearGradient xlink:href="#a" id="g" x1="15.44" x2="15.622" y1="48.721" y2="15.287" gradientUnits="userSpaceOnUse"/>
    <linearGradient xlink:href="#b" id="e" x1="9.458" x2="9.136" y1="54.415" y2="9.556" gradientUnits="userSpaceOnUse"/>
    <filter id="f" width="1.2164875" height="1.2156116" x="-0.10824373" y="-0.10780581" style="color-interpolation-filters:sRGB">
      <feGaussianBlur stdDeviation="1.51" id="feGaussianBlur6"/>
    </filter>
    <filter id="d" width="1.0959966" height="1.0959966" x="-0.047998287" y="-0.047998287" style="color-interpolation-filters:sRGB">
      <feGaussianBlur stdDeviation="1.12" id="feGaussianBlur7"/>
    </filter>
    <filter inkscape:collect="always" style="color-interpolation-filters:sRGB" id="filter1057" x="-0.026999999" width="1.054" y="-0.026999999" height="1.054">
      <feGaussianBlur inkscape:collect="always" stdDeviation="0.61875" id="feGaussianBlur1059"/>
    </filter>
    <linearGradient inkscape:collect="always" xlink:href="#linearGradient1051" id="linearGradient1053" x1="-127" y1="60" x2="-72" y2="5" gradientUnits="userSpaceOnUse" gradientTransform="translate(131.5,-0.5099987)"/>
    <linearGradient inkscape:collect="always" id="linearGradient1051">
      <stop style="stop-color:#ff8228;stop-opacity:1" offset="0" id="stop1047"/>
      <stop id="stop963" offset="0.50054371" style="stop-color:#ff5a1e;stop-opacity:0.99607843"/>
      <stop style="stop-color:#ff8c55;stop-opacity:0.99607843" offset="1" id="stop1049"/>
    </linearGradient>
  <radialGradient id="gradient_ds_br" cx="0" cy="0" r="1" gradientUnits="userSpaceOnUse" gradientTransform="matrix(13.998399,0.00477622,-0.00477841,14.004799,47.5016,48.4952)">
      <stop offset="0.65" id="stop1"/>
      <stop offset="1" stop-opacity="0" id="stop2"/>
    </radialGradient><linearGradient id="gradient_ds_b" x1="30.448999" y1="48.5" x2="30.492201" y2="62.500301" gradientUnits="userSpaceOnUse">
      <stop offset="0.653846" id="stop3"/>
      <stop offset="1" stop-opacity="0" id="stop4"/>
    </linearGradient><radialGradient id="gradient_ds_bl" cx="0" cy="0" r="1" gradientUnits="userSpaceOnUse" gradientTransform="matrix(0,14,-14,0,16.5,48.5)">
      <stop offset="0.65" id="stop5"/>
      <stop offset="1" stop-opacity="0" id="stop6"/>
    </radialGradient><linearGradient id="gradient_ds_r" x1="47.5" y1="33.5" x2="61.5" y2="33.5009" gradientUnits="userSpaceOnUse">
      <stop offset="0.649038" id="stop7"/>
      <stop offset="1" stop-opacity="0" id="stop8"/>
    </linearGradient><linearGradient id="gradient_ds_l" x1="16.5" y1="33.894699" x2="2.5" y2="33.894699" gradientUnits="userSpaceOnUse">
      <stop offset="0.649038" id="stop9"/>
      <stop offset="1" stop-opacity="0" id="stop10"/>
    </linearGradient><radialGradient id="gradient_ds_tr" cx="0" cy="0" r="1" gradientTransform="matrix(0.00843236,-14,14.0084,0.0189842,47.4916,18.5)" gradientUnits="userSpaceOnUse">
      <stop offset="0.65" id="stop11"/>
      <stop offset="1" stop-opacity="0" id="stop12"/>
    </radialGradient><linearGradient id="gradient_ds_t" x1="29.98" y1="18.5" x2="29.9158" y2="4.4998598" gradientUnits="userSpaceOnUse">
      <stop offset="0.649038" id="stop13"/>
      <stop offset="1" stop-opacity="0" id="stop14"/>
    </linearGradient><radialGradient id="gradient_ds_tl" cx="0" cy="0" r="1" gradientTransform="matrix(-0.00843236,-14,-14.0084,0.0189842,16.5084,18.5)" gradientUnits="userSpaceOnUse">
      <stop offset="0.65" id="stop15"/>
      <stop offset="1" stop-opacity="0" id="stop16"/>
    </radialGradient></defs>
  
  <g id="ds" opacity="0.25">
    <path id="ds-br" d="m 47.5,48.5 h 14 v 14 h -14 z" fill="url(#gradient_ds_br)" style="fill:url(#gradient_ds_br)"/>
    <path id="ds-b" d="m 16.5,48.5 h 31 v 14 h -31 z" fill="url(#gradient_ds_b)" style="fill:url(#gradient_ds_b)"/>
    <path id="ds-bl" d="m 2.5,48.5 h 14 v 14 h -14 z" fill="url(#gradient_ds_bl)" style="fill:url(#gradient_ds_bl)"/>
    <path id="ds-r" d="m 47.5,18.5 h 14 v 30 h -14 z" fill="url(#gradient_ds_r)" style="fill:url(#gradient_ds_r)"/>
    <path id="ds-l" d="m 2.5,18.5 h 14 v 30 h -14 z" fill="url(#gradient_ds_l)" style="fill:url(#gradient_ds_l)"/>
    <path id="ds-tr" d="m 47.5,4.5 h 14 v 14 h -14 z" fill="url(#gradient_ds_tr)" style="fill:url(#gradient_ds_tr)"/>
    <path id="ds-t" d="m 16.5,4.5 h 31 v 14 h -31 z" fill="url(#gradient_ds_t)" style="fill:url(#gradient_ds_t)"/>
    <path id="ds-tl" d="m 16.5,4.5 h -14 v 14 h 14 z" fill="url(#gradient_ds_tl)" style="fill:url(#gradient_ds_tl)"/>
  </g><rect style="fill:url(#linearGradient1053);fill-opacity:1;stroke-width:2.74436;stroke-linecap:round" id="bg" width="55" height="55" x="4.5" y="4.5" rx="10"/>
  <g id="art">
    <ellipse cx="32" cy="32" rx="22.5" ry="23.116" style="opacity:1;fill:url(#e);fill-opacity:1;stroke-width:.61175;stroke-linecap:round;stroke-linejoin:round" id="ellipse9"/>
    <path fill="#fff" fill-opacity=".9" d="M31.981 15.192a16.8 16.8 0 0 0-10.333 3.602h20.72a16.8 16.8 0 0 0-10.387-3.602m-11.703 4.802a16.8 16.8 0 0 0-2.81 3.602h9.912a9.6 9.6 0 0 1 4.601-1.2 9.6 9.6 0 0 1 4.643 1.2h9.907a16.8 16.8 0 0 0-2.79-3.602Zm-3.726 5.403A16.8 16.8 0 0 0 15.26 30.8h7.203a9.6 9.6 0 0 1 2.572-5.403zm22.4 0a9.6 9.6 0 0 1 2.556 5.403h7.232a16.8 16.8 0 0 0-1.306-5.403zM15.26 33.2a16.8 16.8 0 0 0 1.066 4.803h8.182a9.6 9.6 0 0 1-2.045-4.803zm26.239 0a9.6 9.6 0 0 1-2.044 4.803h8.181a16.8 16.8 0 0 0 1.066-4.803zm-23.27 8.404a16.82 16.82 0 0 0 13.752 7.204 16.82 16.82 0 0 0 13.752-7.204z" style="fill:#000;fill-opacity:1;stroke-width:1.10815;filter:url(#f);opacity:.7" id="path9"/>
    <path fill="#fff" fill-opacity=".9" d="M31.981 15.192a16.8 16.8 0 0 0-10.333 3.602h20.72a16.8 16.8 0 0 0-10.387-3.602m-11.703 4.802a16.8 16.8 0 0 0-2.81 3.602h9.912a9.6 9.6 0 0 1 4.601-1.2 9.6 9.6 0 0 1 4.643 1.2h9.907a16.8 16.8 0 0 0-2.79-3.602Zm-3.726 5.403A16.8 16.8 0 0 0 15.26 30.8h7.203a9.6 9.6 0 0 1 2.572-5.403zm22.4 0a9.6 9.6 0 0 1 2.556 5.403h7.232a16.8 16.8 0 0 0-1.306-5.403zM15.26 33.2a16.8 16.8 0 0 0 1.066 4.803h8.182a9.6 9.6 0 0 1-2.045-4.803zm26.239 0a9.6 9.6 0 0 1-2.044 4.803h8.181a16.8 16.8 0 0 0 1.066-4.803zm-23.27 8.404a16.82 16.82 0 0 0 13.752 7.204 16.82 16.82 0 0 0 13.752-7.204z" style="stroke-width:1.10815;fill:url(#g);fill-opacity:1" id="path10"/>
  </g>
</svg>
