<?xml version="1.0" encoding="UTF-8" standalone="no"?>
<svg xmlns:inkscape="http://www.inkscape.org/namespaces/inkscape" xmlns:sodipodi="http://sodipodi.sourceforge.net/DTD/sodipodi-0.dtd" xmlns="http://www.w3.org/2000/svg" xmlns:svg="http://www.w3.org/2000/svg" width="64" height="64" version="1.1" id="svg6" sodipodi:docname="app.drey.EarTag.svg" inkscape:version="1.3.2 (091e20ef0f, 2023-11-25, custom)">
  <defs id="defs4">
    <linearGradient id="a" x1="7.937" x2="7.937" y1="15.081" y2="1.852" gradientTransform="matrix(3.7796,0,0,3.7796,-0.08627987,-23.650767)" gradientUnits="userSpaceOnUse">
      <stop offset="0" stop-color="#f1efeb" id="stop1"/>
      <stop offset="1" stop-color="#fdfcfc" id="stop2"/>
    </linearGradient>
    <linearGradient id="b" x1="32" x2="32" y1="60" y2="8" gradientUnits="userSpaceOnUse">
      <stop offset="0" stop-color="#ffe03d" id="stop3"/>
      <stop offset="1" stop-color="#fff243" id="stop4"/>
    </linearGradient>
    <filter id="filter2076-3" x="-0.048000001" y="-0.048000001" width="1.096" height="1.096" color-interpolation-filters="sRGB">
      <feGaussianBlur stdDeviation="1.1" id="feGaussianBlur1041"/>
    </filter>
    <linearGradient id="linearGradient2070-6" x1="145" x2="200" y1="59" y2="4" gradientTransform="translate(-140.5,0.49999775)" gradientUnits="userSpaceOnUse">
      <stop stop-color="#ffc841" offset="0" id="stop1034"/>
      <stop stop-color="#ffbe37" offset=".4925" id="stop1036"/>
      <stop stop-color="#ffc841" offset="1" id="stop1038"/>
    </linearGradient>
    <filter color-interpolation-filters="sRGB" height="1.184088" width="1.184088" y="-0.092043995" x="-0.092043995" id="filter1091">
      <feGaussianBlur id="feGaussianBlur22" stdDeviation="0.30215974"/>
    </filter>
    <filter color-interpolation-filters="sRGB" height="1.184088" width="1.184088" y="-0.092043996" x="-0.092043996" id="filter1">
      <feGaussianBlur id="feGaussianBlur1" stdDeviation="0.30215974"/>
    </filter>
    <linearGradient gradientUnits="userSpaceOnUse" y2="-13.703" y1="-5.5948" x2="16.465" x1="8.5858002" id="linearGradient1063" gradientTransform="matrix(3.7796021,0,0,3.7796021,-93.30537,66.685424)">
      <stop id="stop12" offset="0" stop-color="#f5f5f5"/>
      <stop id="stop14" offset="1" stop-color="#fff"/>
    </linearGradient>
    <linearGradient gradientUnits="userSpaceOnUse" y2="-11.992" y1="-5.3551998" x2="15.926" x1="8.9222002" id="linearGradient1071" gradientTransform="matrix(3.7796021,0,0,3.7796021,-93.30537,66.685424)">
      <stop id="stop17" offset="0" stop-color="#ffdc96"/>
      <stop id="stop19" offset="1" stop-color="#fff"/>
    </linearGradient>
  <radialGradient id="gradient_ds_br" cx="0" cy="0" r="1" gradientUnits="userSpaceOnUse" gradientTransform="matrix(13.998399,0.00477622,-0.00477841,14.004799,47.5016,48.4952)">
      <stop offset="0.65" id="stop1"/>
      <stop offset="1" stop-opacity="0" id="stop2"/>
    </radialGradient><linearGradient id="gradient_ds_b" x1="30.448999" y1="48.5" x2="30.492201" y2="62.500301" gradientUnits="userSpaceOnUse">
      <stop offset="0.653846" id="stop3"/>
      <stop offset="1" stop-opacity="0" id="stop4"/>
    </linearGradient><radialGradient id="gradient_ds_bl" cx="0" cy="0" r="1" gradientUnits="userSpaceOnUse" gradientTransform="matrix(0,14,-14,0,16.5,48.5)">
      <stop offset="0.65" id="stop5"/>
      <stop offset="1" stop-opacity="0" id="stop6"/>
    </radialGradient><linearGradient id="gradient_ds_r" x1="47.5" y1="33.5" x2="61.5" y2="33.5009" gradientUnits="userSpaceOnUse">
      <stop offset="0.649038" id="stop7"/>
      <stop offset="1" stop-opacity="0" id="stop8"/>
    </linearGradient><linearGradient id="gradient_ds_l" x1="16.5" y1="33.894699" x2="2.5" y2="33.894699" gradientUnits="userSpaceOnUse">
      <stop offset="0.649038" id="stop9"/>
      <stop offset="1" stop-opacity="0" id="stop10"/>
    </linearGradient><radialGradient id="gradient_ds_tr" cx="0" cy="0" r="1" gradientTransform="matrix(0.00843236,-14,14.0084,0.0189842,47.4916,18.5)" gradientUnits="userSpaceOnUse">
      <stop offset="0.65" id="stop11"/>
      <stop offset="1" stop-opacity="0" id="stop12"/>
    </radialGradient><linearGradient id="gradient_ds_t" x1="29.98" y1="18.5" x2="29.9158" y2="4.4998598" gradientUnits="userSpaceOnUse">
      <stop offset="0.649038" id="stop13"/>
      <stop offset="1" stop-opacity="0" id="stop14"/>
    </linearGradient><radialGradient id="gradient_ds_tl" cx="0" cy="0" r="1" gradientTransform="matrix(-0.00843236,-14,-14.0084,0.0189842,16.5084,18.5)" gradientUnits="userSpaceOnUse">
      <stop offset="0.65" id="stop15"/>
      <stop offset="1" stop-opacity="0" id="stop16"/>
    </radialGradient></defs>
  
  <g id="ds" opacity="0.25">
    <path id="ds-br" d="m 47.5,48.5 h 14 v 14 h -14 z" fill="url(#gradient_ds_br)" style="fill:url(#gradient_ds_br)"/>
    <path id="ds-b" d="m 16.5,48.5 h 31 v 14 h -31 z" fill="url(#gradient_ds_b)" style="fill:url(#gradient_ds_b)"/>
    <path id="ds-bl" d="m 2.5,48.5 h 14 v 14 h -14 z" fill="url(#gradient_ds_bl)" style="fill:url(#gradient_ds_bl)"/>
    <path id="ds-r" d="m 47.5,18.5 h 14 v 30 h -14 z" fill="url(#gradient_ds_r)" style="fill:url(#gradient_ds_r)"/>
    <path id="ds-l" d="m 2.5,18.5 h 14 v 30 h -14 z" fill="url(#gradient_ds_l)" style="fill:url(#gradient_ds_l)"/>
    <path id="ds-tr" d="m 47.5,4.5 h 14 v 14 h -14 z" fill="url(#gradient_ds_tr)" style="fill:url(#gradient_ds_tr)"/>
    <path id="ds-t" d="m 16.5,4.5 h 31 v 14 h -31 z" fill="url(#gradient_ds_t)" style="fill:url(#gradient_ds_t)"/>
    <path id="ds-tl" d="m 16.5,4.5 h -14 v 14 h 14 z" fill="url(#gradient_ds_tl)" style="fill:url(#gradient_ds_tl)"/>
  </g><rect id="bg" fill="url(#linearGradient2070)" rx="10" height="55" width="55" y="4.5" x="4.5" style="fill:url(#linearGradient2070-6);stroke-width:0.999999"/>
  <g id="art"><path fill="url(#b)" d="M10 56c0 3 1 4 4 4h36c3 0 4-1 4-4V37c0-4-10.5-8.111-13.5-18.481L39 7.112c-2-2.074-4.527-3.111-7-3.111-2.5 0-5 1.037-7 3.111l-1.5 11.407C20.5 28.889 10 33 10 37zm18-42c0-2 2-4 4-4s4 2 4 4-2 4-4 4-4-2-4-4" transform="translate(8.727 7.364)scale(.72727)" id="path4"/><path fill="#ffc000" d="M27.636 31.364v7.426a4 4 0 0 0-1.074-.154 4 4 0 0 0-4.017 3.965 4 4 0 0 0 3.948 4.035 4 4 0 0 0 4.052-3.93v-8.434h5.819v4.517a4 4 0 0 0-1.074-.153 4 4 0 0 0-4.017 3.965 4 4 0 0 0 3.947 4.035 4 4 0 0 0 4.053-3.93V31.363z" id="path5"/><path d="M32 10.273a7.273 7.273 0 1 0 0 14.545 7.273 7.273 0 0 0 0-14.545m0 2.909q4.364 0 4.364 4.363c0 2.537-1.455 4.364-4.364 4.364s-4.364-1.455-4.364-4.364 1.827-4.363 4.364-4.363" id="path6" style="fill:#ffffff;fill-opacity:1"/></g>
  
  
</svg>
