<?xml version="1.0" encoding="UTF-8" standalone="no"?>
<svg xmlns:inkscape="http://www.inkscape.org/namespaces/inkscape" xmlns:sodipodi="http://sodipodi.sourceforge.net/DTD/sodipodi-0.dtd" xmlns="http://www.w3.org/2000/svg" xmlns:svg="http://www.w3.org/2000/svg" xmlns:rdf="http://www.w3.org/1999/02/22-rdf-syntax-ns#" xmlns:cc="http://creativecommons.org/ns#" xmlns:dc="http://purl.org/dc/elements/1.1/" width="64" height="64" version="1.1" viewBox="0 0 64 64" id="svg15" sodipodi:docname="appearance.svg" inkscape:version="1.4.2 (ebf0e940d0, 2025-05-08)">
  <defs id="defs10">
    <filter id="filter1057-5" x="-0.026999999" y="-0.026999999" width="1.054" height="1.054" color-interpolation-filters="sRGB">
      <feGaussianBlur stdDeviation="0.61875" id="feGaussianBlur1"/>
    </filter>
    <linearGradient id="linearGradient1053-6" x1="-127" x2="-72" y1="60" y2="5" gradientTransform="matrix(1.0000071,0,0,1.0000071,131.5018,-0.5100195)" gradientUnits="userSpaceOnUse">
      <stop stop-color="#dee0e2" offset="0" id="stop1"/>
      <stop stop-color="#f1f3f5" stop-opacity=".99608" offset="1" id="stop2"/>
    </linearGradient>
    <linearGradient id="linearGradient1250-3" x1="4.7624002" x2="4.7624002" y1="12.435" y2="3.7040999" gradientTransform="matrix(0,0.86897,-0.86897,0,20.424,6.9743)" gradientUnits="userSpaceOnUse">
      <stop stop-color="#db2f2f" offset="0" id="stop3"/>
      <stop stop-color="#e54243" offset="1" id="stop4"/>
    </linearGradient>
    <linearGradient id="linearGradient1242-5" x1="4.7624002" x2="4.7624002" y1="12.435" y2="3.7040999" gradientTransform="matrix(0.43449,0.75255,-0.75255,0.43449,17.086,2.4463)" gradientUnits="userSpaceOnUse">
      <stop stop-color="#f36d01" offset="0" id="stop5"/>
      <stop stop-color="#f69901" offset="1" id="stop6"/>
    </linearGradient>
    <linearGradient id="linearGradient1234-6" x1="4.7624002" x2="4.7624002" y1="12.171" y2="3.7040999" gradientTransform="matrix(0.75255,0.43449,-0.43449,0.75255,11.745,0.29929)" gradientUnits="userSpaceOnUse">
      <stop stop-color="#fcaa00" offset="0" id="stop7"/>
      <stop stop-color="#fdc500" offset="1" id="stop8"/>
    </linearGradient>
    <linearGradient id="linearGradient1226-1" x1="4.7624002" x2="4.7624002" y1="12.725" y2="3.9686999" gradientTransform="matrix(0.86897,0,0,0.86897,6.1162,0.99661)" gradientUnits="userSpaceOnUse">
      <stop stop-color="#4dae33" offset="0" id="stop9"/>
      <stop stop-color="#6fc84a" offset="1" id="stop10"/>
    </linearGradient>
    <filter id="filter1057-5-3" x="-0.026999999" y="-0.026999999" width="1.054" height="1.054" color-interpolation-filters="sRGB">
      <feGaussianBlur stdDeviation="0.61875" id="feGaussianBlur1-6"/>
    </filter>
  <radialGradient id="gradient_ds_br" cx="0" cy="0" r="1" gradientUnits="userSpaceOnUse" gradientTransform="matrix(13.998399,0.00477622,-0.00477841,14.004799,47.5016,48.4952)">
      <stop offset="0.65" id="stop1"/>
      <stop offset="1" stop-opacity="0" id="stop2"/>
    </radialGradient><linearGradient id="gradient_ds_b" x1="30.448999" y1="48.5" x2="30.492201" y2="62.500301" gradientUnits="userSpaceOnUse">
      <stop offset="0.653846" id="stop3"/>
      <stop offset="1" stop-opacity="0" id="stop4"/>
    </linearGradient><radialGradient id="gradient_ds_bl" cx="0" cy="0" r="1" gradientUnits="userSpaceOnUse" gradientTransform="matrix(0,14,-14,0,16.5,48.5)">
      <stop offset="0.65" id="stop5"/>
      <stop offset="1" stop-opacity="0" id="stop6"/>
    </radialGradient><linearGradient id="gradient_ds_r" x1="47.5" y1="33.5" x2="61.5" y2="33.5009" gradientUnits="userSpaceOnUse">
      <stop offset="0.649038" id="stop7"/>
      <stop offset="1" stop-opacity="0" id="stop8"/>
    </linearGradient><linearGradient id="gradient_ds_l" x1="16.5" y1="33.894699" x2="2.5" y2="33.894699" gradientUnits="userSpaceOnUse">
      <stop offset="0.649038" id="stop9"/>
      <stop offset="1" stop-opacity="0" id="stop10"/>
    </linearGradient><radialGradient id="gradient_ds_tr" cx="0" cy="0" r="1" gradientTransform="matrix(0.00843236,-14,14.0084,0.0189842,47.4916,18.5)" gradientUnits="userSpaceOnUse">
      <stop offset="0.65" id="stop11"/>
      <stop offset="1" stop-opacity="0" id="stop12"/>
    </radialGradient><linearGradient id="gradient_ds_t" x1="29.98" y1="18.5" x2="29.9158" y2="4.4998598" gradientUnits="userSpaceOnUse">
      <stop offset="0.649038" id="stop13"/>
      <stop offset="1" stop-opacity="0" id="stop14"/>
    </linearGradient><radialGradient id="gradient_ds_tl" cx="0" cy="0" r="1" gradientTransform="matrix(-0.00843236,-14,-14.0084,0.0189842,16.5084,18.5)" gradientUnits="userSpaceOnUse">
      <stop offset="0.65" id="stop15"/>
      <stop offset="1" stop-opacity="0" id="stop16"/>
    </radialGradient></defs>
  <metadata id="metadata10">
    <rdf:RDF>
      <cc:Work rdf:about="">
        <dc:format>image/svg+xml</dc:format>
        <dc:type rdf:resource="http://purl.org/dc/dcmitype/StillImage"/>
      </cc:Work>
    </rdf:RDF>
  </metadata>
  
  <g id="ds" opacity="0.25">
    <path id="ds-br" d="m 47.5,48.5 h 14 v 14 h -14 z" fill="url(#gradient_ds_br)" style="fill:url(#gradient_ds_br)"/>
    <path id="ds-b" d="m 16.5,48.5 h 31 v 14 h -31 z" fill="url(#gradient_ds_b)" style="fill:url(#gradient_ds_b)"/>
    <path id="ds-bl" d="m 2.5,48.5 h 14 v 14 h -14 z" fill="url(#gradient_ds_bl)" style="fill:url(#gradient_ds_bl)"/>
    <path id="ds-r" d="m 47.5,18.5 h 14 v 30 h -14 z" fill="url(#gradient_ds_r)" style="fill:url(#gradient_ds_r)"/>
    <path id="ds-l" d="m 2.5,18.5 h 14 v 30 h -14 z" fill="url(#gradient_ds_l)" style="fill:url(#gradient_ds_l)"/>
    <path id="ds-tr" d="m 47.5,4.5 h 14 v 14 h -14 z" fill="url(#gradient_ds_tr)" style="fill:url(#gradient_ds_tr)"/>
    <path id="ds-t" d="m 16.5,4.5 h 31 v 14 h -31 z" fill="url(#gradient_ds_t)" style="fill:url(#gradient_ds_t)"/>
    <path id="ds-tl" d="m 16.5,4.5 h -14 v 14 h 14 z" fill="url(#gradient_ds_tl)" style="fill:url(#gradient_ds_tl)"/>
  </g><rect x="4.5" y="4.5" width="55" height="55" fill="url(#linearGradient1053-6)" stroke-width="2.74444" id="bg" style="display:inline;fill:url(#linearGradient1053-6);stroke-linecap:round" rx="10"/>
  <g id="art"><g stroke="#7f7f7f" stroke-linejoin="round" stroke-opacity="0.2" stroke-width="0.045982" id="g14" transform="matrix(3.779602,0,0,3.779602,-17.28601,0.39285183)" style="display:inline;stroke-linecap:round">
    <path d="m 17.665,11.112 c 0,1.019 -0.82032,1.8393 -1.8393,1.8393 h -5.5179 c -1.019,0 -1.8393,-0.82032 -1.8393,-1.8393 0,-1.0189 0.82033,-1.8393 1.8393,-1.8393 h 5.5179 c 1.019,0 1.8393,0.82032 1.8393,1.8393 z" fill="url(#linearGradient1250-3)" id="path11" style="fill:url(#linearGradient1250-3)"/>
    <path d="m 16.766,7.4097 c 0.50948,0.88244 0.20922,2.003 -0.67322,2.5125 l -4.7786,2.7589 c -0.88244,0.50948 -2.003,0.20922 -2.5125,-0.67322 -0.50947,-0.88243 -0.20921,-2.003 0.67322,-2.5125 l 4.7786,-2.7589 C 15.13594,6.227 16.2565,6.52726 16.766,7.4097 Z" fill="url(#linearGradient1242-5)" id="path12" style="fill:url(#linearGradient1242-5)"/>
    <path d="m 13.95,4.7578 c 0.88244,0.50948 1.1827,1.63 0.67322,2.5125 l -2.7589,4.7786 c -0.50948,0.88244 -1.63,1.1827 -2.5125,0.67322 -0.88243,-0.50947 -1.1827,-1.6301 -0.67322,-2.5125 l 2.7589,-4.7786 c 0.50948,-0.88244 1.63,-1.1827 2.5125,-0.67322 z" fill="url(#linearGradient1234-6)" id="path13" style="fill:url(#linearGradient1234-6)"/>
    <path d="m 10.255,3.7555 c 1.019,0 1.8393,0.82032 1.8393,1.8393 v 5.5179 c 0,1.019 -0.82032,1.8393 -1.8393,1.8393 -1.0189,0 -1.8393,-0.82032 -1.8393,-1.8393 V 5.5948 c 0,-1.019 0.82032,-1.8393 1.8393,-1.8393 z" fill="url(#linearGradient1226-1)" id="path14" style="fill:url(#linearGradient1226-1)"/>
  </g><circle cx="21.473808" cy="42.191471" r="5.0000358" fill="#65c143" stroke-width="4.54459" id="circle14" style="display:inline;stroke-linecap:round"/><circle cx="21.473808" cy="42.191471" r="2.5000556" fill="#ffffff" stroke-width="2.27233" id="circle15" style="display:inline;stroke-linecap:round"/></g>
  
  
</svg>
