<?xml version="1.0" encoding="UTF-8" standalone="no"?>
<svg xmlns:inkscape="http://www.inkscape.org/namespaces/inkscape" xmlns:sodipodi="http://sodipodi.sourceforge.net/DTD/sodipodi-0.dtd" xmlns="http://www.w3.org/2000/svg" xmlns:svg="http://www.w3.org/2000/svg" width="64" height="64" version="1.1" id="svg10" sodipodi:docname="appflowy.svg" inkscape:version="1.3.2 (091e20ef0f, 2023-11-25, custom)">
  <defs id="defs2">
    <linearGradient id="a" x1="7.937" x2="7.937" y1="15.081" y2="1.852" gradientTransform="scale(3.7796)" gradientUnits="userSpaceOnUse">
      <stop offset="0" stop-color="#f1efeb" id="stop1"/>
      <stop offset="1" stop-color="#fdfcfc" id="stop2"/>
    </linearGradient>
    <filter id="filter1057-7-5" x="-0.026999999" y="-0.026999999" width="1.054" height="1.054" color-interpolation-filters="sRGB">
      <feGaussianBlur stdDeviation="0.61875" id="feGaussianBlur1"/>
    </filter>
    <linearGradient id="linearGradient1053-62" x1="-127" x2="-72" y1="60" y2="5" gradientTransform="matrix(1.0000071,0,0,1.0000071,131.50219,-0.51062494)" gradientUnits="userSpaceOnUse">
      <stop stop-color="#dee0e2" offset="0" id="stop1-3"/>
      <stop stop-color="#f1f3f5" stop-opacity=".99608" offset="1" id="stop2-6"/>
    </linearGradient>
    <linearGradient id="b" x1="12.613" x2="11.598" y1="24.014999" y2="-0.69986999" gradientTransform="matrix(1.4824355,0,0,1.4824355,83.641436,53.642192)" gradientUnits="userSpaceOnUse">
      <stop stop-color="#00cafe" offset="0" id="stop3"/>
      <stop stop-color="#1460f3" offset="1" id="stop4"/>
    </linearGradient>
  <radialGradient id="gradient_ds_br" cx="0" cy="0" r="1" gradientUnits="userSpaceOnUse" gradientTransform="matrix(13.998399,0.00477622,-0.00477841,14.004799,47.5016,48.4952)">
      <stop offset="0.65" id="stop1"/>
      <stop offset="1" stop-opacity="0" id="stop2"/>
    </radialGradient><linearGradient id="gradient_ds_b" x1="30.448999" y1="48.5" x2="30.492201" y2="62.500301" gradientUnits="userSpaceOnUse">
      <stop offset="0.653846" id="stop3"/>
      <stop offset="1" stop-opacity="0" id="stop4"/>
    </linearGradient><radialGradient id="gradient_ds_bl" cx="0" cy="0" r="1" gradientUnits="userSpaceOnUse" gradientTransform="matrix(0,14,-14,0,16.5,48.5)">
      <stop offset="0.65" id="stop5"/>
      <stop offset="1" stop-opacity="0" id="stop6"/>
    </radialGradient><linearGradient id="gradient_ds_r" x1="47.5" y1="33.5" x2="61.5" y2="33.5009" gradientUnits="userSpaceOnUse">
      <stop offset="0.649038" id="stop7"/>
      <stop offset="1" stop-opacity="0" id="stop8"/>
    </linearGradient><linearGradient id="gradient_ds_l" x1="16.5" y1="33.894699" x2="2.5" y2="33.894699" gradientUnits="userSpaceOnUse">
      <stop offset="0.649038" id="stop9"/>
      <stop offset="1" stop-opacity="0" id="stop10"/>
    </linearGradient><radialGradient id="gradient_ds_tr" cx="0" cy="0" r="1" gradientTransform="matrix(0.00843236,-14,14.0084,0.0189842,47.4916,18.5)" gradientUnits="userSpaceOnUse">
      <stop offset="0.65" id="stop11"/>
      <stop offset="1" stop-opacity="0" id="stop12"/>
    </radialGradient><linearGradient id="gradient_ds_t" x1="29.98" y1="18.5" x2="29.9158" y2="4.4998598" gradientUnits="userSpaceOnUse">
      <stop offset="0.649038" id="stop13"/>
      <stop offset="1" stop-opacity="0" id="stop14"/>
    </linearGradient><radialGradient id="gradient_ds_tl" cx="0" cy="0" r="1" gradientTransform="matrix(-0.00843236,-14,-14.0084,0.0189842,16.5084,18.5)" gradientUnits="userSpaceOnUse">
      <stop offset="0.65" id="stop15"/>
      <stop offset="1" stop-opacity="0" id="stop16"/>
    </radialGradient></defs>
  
  <g id="ds" opacity="0.25">
    <path id="ds-br" d="m 47.5,48.5 h 14 v 14 h -14 z" fill="url(#gradient_ds_br)" style="fill:url(#gradient_ds_br)"/>
    <path id="ds-b" d="m 16.5,48.5 h 31 v 14 h -31 z" fill="url(#gradient_ds_b)" style="fill:url(#gradient_ds_b)"/>
    <path id="ds-bl" d="m 2.5,48.5 h 14 v 14 h -14 z" fill="url(#gradient_ds_bl)" style="fill:url(#gradient_ds_bl)"/>
    <path id="ds-r" d="m 47.5,18.5 h 14 v 30 h -14 z" fill="url(#gradient_ds_r)" style="fill:url(#gradient_ds_r)"/>
    <path id="ds-l" d="m 2.5,18.5 h 14 v 30 h -14 z" fill="url(#gradient_ds_l)" style="fill:url(#gradient_ds_l)"/>
    <path id="ds-tr" d="m 47.5,4.5 h 14 v 14 h -14 z" fill="url(#gradient_ds_tr)" style="fill:url(#gradient_ds_tr)"/>
    <path id="ds-t" d="m 16.5,4.5 h 31 v 14 h -31 z" fill="url(#gradient_ds_t)" style="fill:url(#gradient_ds_t)"/>
    <path id="ds-tl" d="m 16.5,4.5 h -14 v 14 h 14 z" fill="url(#gradient_ds_tl)" style="fill:url(#gradient_ds_tl)"/>
  </g><rect x="4.5" y="4.5" width="55" height="55" fill="url(#linearGradient1053-62)" stroke-linecap="round" stroke-width="2.74441" id="bg" style="fill:url(#linearGradient1053-62)" rx="10"/>
  <g id="art"><path fill="#f7931e" d="M51.955 36.152c-1.146 6.242-6.173 11.688-11.95 14.743a5.5 5.5 0 0 1-2.336.664h12.258c1.19 0 2.029-.886 2.029-1.992z" id="path2"/><path fill="#8427e0" d="m27.438 24.11-.529.398c-2.998 2.125-12.082 8.943-14.154 5.977-2.029-2.878.132-11.023 5.335-14.964.088-.089.22-.133.309-.222 5.688-4.028 9.921-3.453 11.993-.53 1.94 2.744-.22 7.082-2.954 9.34z" id="path3"/><path fill="#ffbd00" d="M45.872 48.414c-.089.088-.177.132-.309.221-5.688 4.029-9.921 3.453-11.994.531-1.94-2.745.22-7.083 2.955-9.34l.529-.4c2.998-2.08 12.083-8.942 14.11-5.976 2.073 2.878-.044 11.023-5.291 14.964z" id="path4"/><path fill="#e3006d" d="M29.995 51.203c-2.91 2.081-11.288-.177-15.124-5.666a1.4 1.4 0 0 1-.22-.31c-3.749-5.534-3.131-9.695-.265-11.688 2.822-1.992 7.231.31 9.436 3.187.088.133.177.222.265.355 2.072 2.966 8.863 12.086 5.909 14.122z" id="path5"/><path fill="#9327ff" d="M27.438 24.11c-4.056 1.815-12.7 5.534-13.978 2.523-1.102-2.523.926-7.659 4.63-11.112.088-.089.22-.133.309-.222 5.688-4.028 9.921-3.453 11.993-.53 1.94 2.744-.22 7.083-2.954 9.34z" id="path6"/><path fill="#00b5ff" d="M49.661 30.443c-2.822 1.992-7.231-.31-9.436-3.188-.088-.133-.176-.221-.264-.354-2.117-3.01-8.908-12.13-5.997-14.167 2.91-2.08 11.332.177 15.168 5.667.088.132.176.221.265.354 3.704 5.534 3.13 9.65.264 11.688z" id="path7"/><path fill="#00c8ff" d="M49.662 30.44c-2.822 1.992-7.231-.31-9.436-3.188-1.808-4.206-5.291-12.485-2.381-13.724 2.646-1.151 8.114 1.15 11.598 5.224 3.66 5.533 3.086 9.65.22 11.688z" id="path8"/><path fill="#ffce00" d="M45.872 48.415c-.089.088-.177.132-.309.221-5.688 4.029-9.921 3.453-11.994.531-1.94-2.745.22-7.083 2.955-9.34 4.057-1.816 12.7-5.535 13.978-2.524 1.147 2.523-.882 7.659-4.63 11.112z" id="path9"/><path fill="#fb006d" d="M26.203 50.407c-2.645 1.15-8.113-1.107-11.552-5.18-3.748-5.534-3.13-9.696-.265-11.688 2.822-1.992 7.232.31 9.437 3.187 1.808 4.162 5.291 12.44 2.38 13.68z" id="path10"/></g>
  
  
  
  
  
  
  
  
</svg>
