<?xml version="1.0" encoding="UTF-8" standalone="no"?>
<svg xmlns:inkscape="http://www.inkscape.org/namespaces/inkscape" xmlns:sodipodi="http://sodipodi.sourceforge.net/DTD/sodipodi-0.dtd" xmlns:xlink="http://www.w3.org/1999/xlink" xmlns="http://www.w3.org/2000/svg" xmlns:svg="http://www.w3.org/2000/svg" xmlns:rdf="http://www.w3.org/1999/02/22-rdf-syntax-ns#" xmlns:cc="http://creativecommons.org/ns#" xmlns:dc="http://purl.org/dc/elements/1.1/" inkscape:version="1.4.2 (ebf0e940d0, 2025-05-08)" sodipodi:docname="appimagekit-balena-etcher-electron.svg" id="svg40" viewBox="0 0 64 64" version="1.1" height="64" width="64">
  <metadata id="metadata2">
    <rdf:RDF>
      <cc:Work rdf:about="">
        <dc:format>image/svg+xml</dc:format>
        <dc:type rdf:resource="http://purl.org/dc/dcmitype/StillImage"/>
      </cc:Work>
    </rdf:RDF>
  </metadata>
  <defs id="defs16">
    
    <filter color-interpolation-filters="sRGB" height="1.048" width="1.048" y="-0.024" x="-0.024" id="filter2761">
      <feGaussianBlur id="feGaussianBlur6" stdDeviation="0.14552168"/>
    </filter>
    <linearGradient gradientUnits="userSpaceOnUse" gradientTransform="matrix(3.7796,0,0,3.7796,101.69,7.5815)" y2="1.1082" y1="15.429" x2="15.644" x1="1.2573" id="linearGradient4673">
      <stop id="stop9" offset="0" stop-color="#8cd750"/>
      <stop id="stop11" offset=".47728" stop-color="#7dcd32"/>
      <stop id="stop13" offset="1" stop-color="#87d241"/>
    </linearGradient>
    
    <filter color-interpolation-filters="sRGB" height="1.048" width="1.048" y="-0.024" x="-0.024" id="filter2761-53">
      <feGaussianBlur id="feGaussianBlur6-5" stdDeviation="0.14552168"/>
    </filter>
    <linearGradient id="linearGradient1057">
      <stop id="stop4" offset="0" stop-color="#fff"/>
      <stop id="stop6" offset="1" stop-opacity="0" stop-color="#fff"/>
    </linearGradient>
    <linearGradient gradientUnits="userSpaceOnUse" gradientTransform="matrix(1.5625,0,0,1.5625,0.40633,-5.1891)" y2="52.847" y1="27.545" x2="34.999001" x1="34.999001" id="linearGradient982">
      <stop id="stop9-6" offset="0" stop-color="#32b4ff"/>
      <stop id="stop11-7" offset="1" stop-color="#3287ff"/>
    </linearGradient>
    
    
    <linearGradient gradientUnits="userSpaceOnUse" gradientTransform="matrix(1.5625,0,0,1.5625,-9.2253,1.3231)" y2="43.681" y1="18.052" x2="21.313999" x1="21.313999" id="linearGradient1047">
      <stop id="stop18" offset="0" stop-color="#14dc78"/>
      <stop id="stop20" offset="1" stop-color="#14a03c"/>
    </linearGradient>
    <linearGradient gradientUnits="userSpaceOnUse" gradientTransform="matrix(1.5625,0,0,1.5625,-8.1072,-10.908)" y2="37.368" y1="12.316" x2="41.729" x1="41.729" id="linearGradient1049">
      <stop id="stop23" offset="0" stop-color="#ff3c64"/>
      <stop id="stop25" offset="1" stop-color="#ff4628"/>
    </linearGradient>
    <linearGradient xlink:href="#linearGradient1057" gradientUnits="userSpaceOnUse" gradientTransform="matrix(1,0,0,1.2271,0.20646,-10.975)" y2="39.768002" y1="32.234001" x2="34.426998" x1="34.426998" id="linearGradient1059"/>
    <linearGradient xlink:href="#linearGradient1057" gradientUnits="userSpaceOnUse" gradientTransform="matrix(1,0,0,1.2271,-12.55,-19.793)" y2="39.768002" y1="32.234001" x2="34.426998" x1="34.426998" id="linearGradient1063"/>
    <linearGradient xlink:href="#linearGradient1057" gradientUnits="userSpaceOnUse" gradientTransform="matrix(1,0,0,1.2271,5.7554,-25.761)" y2="39.768002" y1="32.234001" x2="34.426998" x1="34.426998" id="linearGradient1067"/>
    <filter color-interpolation-filters="sRGB" height="1.048" width="1.048" y="-0.024" x="-0.024" id="filter2761-5">
      <feGaussianBlur id="feGaussianBlur31" stdDeviation="0.14552168"/>
    </filter>
    <linearGradient gradientUnits="userSpaceOnUse" gradientTransform="matrix(3.7796,0,0,3.7796,72.4059,0.53085)" y2="1.17" y1="15.576" x2="15.65" x1="1.3315001" id="linearGradient1024">
      <stop id="stop34" offset="0" stop-color="#dddfe1"/>
      <stop id="stop36" offset="1" stop-opacity=".99608" stop-color="#f3f4f6"/>
    </linearGradient>
    <filter color-interpolation-filters="sRGB" height="1.048" width="1.048" y="-0.024" x="-0.024" id="filter2761-3">
      <feGaussianBlur id="feGaussianBlur2" stdDeviation="0.14552168"/>
    </filter>
    <linearGradient gradientUnits="userSpaceOnUse" gradientTransform="translate(0,-0.07421)" y2="1.17" y1="15.576" x2="15.65" x1="1.3315001" id="linearGradient1024-6">
      <stop id="stop5" offset="0" stop-color="#dddfe1"/>
      <stop id="stop7" offset="1" stop-opacity=".99608" stop-color="#f3f4f6"/>
    </linearGradient>
    <linearGradient inkscape:collect="always" xlink:href="#linearGradient1051" id="linearGradient1053" x1="-127" y1="60" x2="-72" y2="5" gradientUnits="userSpaceOnUse" gradientTransform="translate(131.5,-0.50999935)"/>
    <linearGradient inkscape:collect="always" id="linearGradient1051">
      <stop style="stop-color:#8cd750;stop-opacity:1" offset="0" id="stop1047"/>
      <stop id="stop989" offset="0.4958486" style="stop-color:#7dcd32;stop-opacity:0.99607843"/>
      <stop style="stop-color:#87d241;stop-opacity:0.99607843" offset="1" id="stop1049"/>
    </linearGradient>
    <filter inkscape:collect="always" style="color-interpolation-filters:sRGB" id="filter1057" x="-0.026999999" width="1.054" y="-0.026999999" height="1.054">
      <feGaussianBlur inkscape:collect="always" stdDeviation="0.61875" id="feGaussianBlur1059"/>
    </filter>
  <radialGradient id="gradient_ds_br" cx="0" cy="0" r="1" gradientUnits="userSpaceOnUse" gradientTransform="matrix(13.998399,0.00477622,-0.00477841,14.004799,47.5016,48.4952)">
      <stop offset="0.65" id="stop1"/>
      <stop offset="1" stop-opacity="0" id="stop2"/>
    </radialGradient><linearGradient id="gradient_ds_b" x1="30.448999" y1="48.5" x2="30.492201" y2="62.500301" gradientUnits="userSpaceOnUse">
      <stop offset="0.653846" id="stop3"/>
      <stop offset="1" stop-opacity="0" id="stop4"/>
    </linearGradient><radialGradient id="gradient_ds_bl" cx="0" cy="0" r="1" gradientUnits="userSpaceOnUse" gradientTransform="matrix(0,14,-14,0,16.5,48.5)">
      <stop offset="0.65" id="stop5"/>
      <stop offset="1" stop-opacity="0" id="stop6"/>
    </radialGradient><linearGradient id="gradient_ds_r" x1="47.5" y1="33.5" x2="61.5" y2="33.5009" gradientUnits="userSpaceOnUse">
      <stop offset="0.649038" id="stop7"/>
      <stop offset="1" stop-opacity="0" id="stop8"/>
    </linearGradient><linearGradient id="gradient_ds_l" x1="16.5" y1="33.894699" x2="2.5" y2="33.894699" gradientUnits="userSpaceOnUse">
      <stop offset="0.649038" id="stop9"/>
      <stop offset="1" stop-opacity="0" id="stop10"/>
    </linearGradient><radialGradient id="gradient_ds_tr" cx="0" cy="0" r="1" gradientTransform="matrix(0.00843236,-14,14.0084,0.0189842,47.4916,18.5)" gradientUnits="userSpaceOnUse">
      <stop offset="0.65" id="stop11"/>
      <stop offset="1" stop-opacity="0" id="stop12"/>
    </radialGradient><linearGradient id="gradient_ds_t" x1="29.98" y1="18.5" x2="29.9158" y2="4.4998598" gradientUnits="userSpaceOnUse">
      <stop offset="0.649038" id="stop13"/>
      <stop offset="1" stop-opacity="0" id="stop14"/>
    </linearGradient><radialGradient id="gradient_ds_tl" cx="0" cy="0" r="1" gradientTransform="matrix(-0.00843236,-14,-14.0084,0.0189842,16.5084,18.5)" gradientUnits="userSpaceOnUse">
      <stop offset="0.65" id="stop15"/>
      <stop offset="1" stop-opacity="0" id="stop16"/>
    </radialGradient></defs>
  
  <g id="ds" opacity="0.25">
    <path id="ds-br" d="m 47.5,48.5 h 14 v 14 h -14 z" fill="url(#gradient_ds_br)" style="fill:url(#gradient_ds_br)"/>
    <path id="ds-b" d="m 16.5,48.5 h 31 v 14 h -31 z" fill="url(#gradient_ds_b)" style="fill:url(#gradient_ds_b)"/>
    <path id="ds-bl" d="m 2.5,48.5 h 14 v 14 h -14 z" fill="url(#gradient_ds_bl)" style="fill:url(#gradient_ds_bl)"/>
    <path id="ds-r" d="m 47.5,18.5 h 14 v 30 h -14 z" fill="url(#gradient_ds_r)" style="fill:url(#gradient_ds_r)"/>
    <path id="ds-l" d="m 2.5,18.5 h 14 v 30 h -14 z" fill="url(#gradient_ds_l)" style="fill:url(#gradient_ds_l)"/>
    <path id="ds-tr" d="m 47.5,4.5 h 14 v 14 h -14 z" fill="url(#gradient_ds_tr)" style="fill:url(#gradient_ds_tr)"/>
    <path id="ds-t" d="m 16.5,4.5 h 31 v 14 h -31 z" fill="url(#gradient_ds_t)" style="fill:url(#gradient_ds_t)"/>
    <path id="ds-tl" d="m 16.5,4.5 h -14 v 14 h 14 z" fill="url(#gradient_ds_tl)" style="fill:url(#gradient_ds_tl)"/>
  </g><rect y="4.5" x="4.5" height="55" width="55" id="bg" style="display:inline;fill:url(#linearGradient1053);fill-opacity:1;stroke-width:2.74436;stroke-linecap:round" rx="10"/>
  <g id="art" stroke-width="0.35276" transform="matrix(2.9175126,0,0,2.9175126,72.575918,7.3263805)">
    <path id="path34" style="isolation:isolate" opacity="0.5" fill="#c8f178" d="m -13.876,1.3229 c -0.30898,-0.00137 -0.61859,0.065055 -0.85473,0.19999 l -4.7418,2.7098 c -0.18309,0.10463 -0.35221,0.26892 -0.49196,0.46145 l 1.6784,0.97873 3.3202,1.9358 c 0.44934,0.26215 0.82266,0.70759 1.0578,1.2087 0.2351,-0.50104 0.60845,-0.94656 1.0578,-1.2087 l 4.9934,-2.9114 C -7.9874,4.52581 -8.14065,4.37906 -8.30646,4.2823 l -2.3585,-1.3756 -2.359,-1.3761 c -0.23492,-0.13706 -0.54316,-0.20637 -0.85213,-0.20774 z m 6.2832,3.8327 -1.6717,0.97461 -3.3181,1.9353 c -0.55176,0.32189 -1.0603,1.208 -1.0619,1.849 2e-6,0.0036 0.001,0.00726 0.001,0.010852 l -5.17e-4,0.17931 0.01654,3.6623 0.0083,1.8164 c 0.19508,-0.02982 0.38041,-0.08546 0.53382,-0.17311 l 4.7418,-2.7098 c 0.47228,-0.26987 0.85748,-0.93042 0.85988,-1.4743 l 0.012402,-2.731 0.011885,-2.7305 c 8.739e-4,-0.19541 -0.049132,-0.406 -0.13332,-0.60875 z m -12.624,0.00413 c -0.07108,0.18343 -0.11498,0.37107 -0.11575,0.54726 l -0.0124,2.731 -0.01189,2.7305 c -0.0024,0.54398 0.3766,1.208 0.84644,1.4821 l 2.359,1.3756 2.359,1.3761 c 0.16926,0.09872 0.37695,0.16077 0.5953,0.18913 l 0.0083,-1.8247 0.01654,-3.6623 -5.16e-4,-0.17931 c -1.7e-5,-0.00359 0.001,-0.00726 0.001,-0.010852 -0.0016,-0.64092 -0.51019,-1.5271 -1.0619,-1.849 l -3.3181,-1.9353 -1.665,-0.97048 z"/>
    <path id="path36" style="isolation:isolate" fill="#ffffff" d="m -13.884,3.175 c -0.22888,-0.00101 -0.45812,0.04836 -0.63303,0.14831 l -1.7565,1.0036 -1.7559,1.0036 c -0.12152,0.06945 -0.23443,0.17511 -0.33125,0.29868 l 0.07493,0.043926 3.3202,1.9358 c 0.44934,0.26215 0.82266,0.70759 1.0578,1.2087 0.2351,-0.50104 0.60846,-0.94656 1.0578,-1.2087 l 3.3202,-1.9358 0.069762,-0.040825 c -0.089046,-0.10825 -0.18951,-0.2017 -0.29818,-0.26511 l -3.4943,-2.0381 c -0.17401,-0.10153 -0.40261,-0.15298 -0.63147,-0.15399 z m 4.6833,2.9181 -0.063563,0.037205 -3.3181,1.9353 c -0.55176,0.32189 -1.0603,1.208 -1.0619,1.849 2e-6,0.0036 0.001,0.00726 0.001,0.010852 l -5.17e-4,0.17828 0.01654,3.621 c 0.11935,-0.02409 0.23294,-0.06004 0.32866,-0.11472 l 1.7565,-1.0036 1.7559,-1.0036 c 0.34983,-0.1999 0.63536,-0.68955 0.63716,-1.0924 l 0.0093,-2.0226 0.00879,-2.0226 c 5.614e-4,-0.11953 -0.026113,-0.24671 -0.069735,-0.37205 z m -9.4095,0.0031 c -0.03523,0.11028 -0.05586,0.22142 -0.05633,0.3266 l -0.0093,2.0226 -0.0088,2.0226 c -0.0018,0.40293 0.27932,0.89513 0.62734,1.0981 l 3.4943,2.0381 c 0.10788,0.06292 0.23774,0.10433 0.37465,0.12867 l 0.01654,-3.6292 -5.17e-4,-0.17828 c -1.6e-5,-0.00359 10e-4,-0.00726 10e-4,-0.010852 -0.0016,-0.64092 -0.51019,-1.5271 -1.0619,-1.849 l -3.3181,-1.9353 -0.05891,-0.034107 z"/>
  </g>
</svg>
