<?xml version="1.0" encoding="UTF-8" standalone="no"?>
<svg xmlns:inkscape="http://www.inkscape.org/namespaces/inkscape" xmlns:sodipodi="http://sodipodi.sourceforge.net/DTD/sodipodi-0.dtd" xmlns:xlink="http://www.w3.org/1999/xlink" xmlns="http://www.w3.org/2000/svg" xmlns:svg="http://www.w3.org/2000/svg" xmlns:rdf="http://www.w3.org/1999/02/22-rdf-syntax-ns#" xmlns:cc="http://creativecommons.org/ns#" xmlns:dc="http://purl.org/dc/elements/1.1/" inkscape:version="1.4.2 (ebf0e940d0, 2025-05-08)" sodipodi:docname="applications-education.svg" id="svg46" viewBox="0 0 64 64" version="1.1" height="64" width="64">
  <metadata id="metadata2">
    <rdf:RDF>
      <cc:Work rdf:about="">
        <dc:format>image/svg+xml</dc:format>
        <dc:type rdf:resource="http://purl.org/dc/dcmitype/StillImage"/>
      </cc:Work>
    </rdf:RDF>
  </metadata>
  <defs id="defs14">
    
    <filter color-interpolation-filters="sRGB" height="1.048" width="1.048" y="-0.024" x="-0.024" id="filter2761">
      <feGaussianBlur id="feGaussianBlur6" stdDeviation="0.14552168"/>
    </filter>
    <linearGradient gradientUnits="userSpaceOnUse" gradientTransform="translate(-0.32714915,-6.4121759)" y2="1.17" y1="15.576" x2="15.65" x1="1.3315001" id="linearGradient1024-6">
      <stop id="stop9" offset="0" stop-color="#00dc96"/>
      <stop id="stop11" offset="1" stop-color="#14d29b"/>
    </linearGradient>
    
    
    
    <filter color-interpolation-filters="sRGB" height="1.048" width="1.048" y="-0.024" x="-0.024" id="filter2761-7">
      <feGaussianBlur id="feGaussianBlur10" stdDeviation="0.14552168"/>
    </filter>
    <linearGradient gradientUnits="userSpaceOnUse" gradientTransform="matrix(3.7796,0,0,3.7796,111.78704,0.53107)" y2="1.17" y1="15.576" x2="15.65" x1="1.3315001" id="linearGradient1024-6-5">
      <stop id="stop13" offset="0" stop-color="#00dc96"/>
      <stop id="stop15" offset="1" stop-color="#14d29b"/>
    </linearGradient>
    <linearGradient gradientUnits="userSpaceOnUse" gradientTransform="matrix(0.27476,0,0,0.27476,-24.952118,-0.32515)" y2="12.461" y1="57.955002" x2="45.627998" x1="45.627998" id="b">
      <stop id="stop2" offset="0"/>
      <stop id="stop4" offset="1" stop-opacity="0"/>
    </linearGradient>
    
    
    
    <filter id="filter2761-3" x="-0.024" y="-0.024" width="1.048" height="1.048" color-interpolation-filters="sRGB">
      <feGaussianBlur stdDeviation="0.14552168" id="feGaussianBlur878"/>
    </filter>
    <linearGradient id="linearGradient1024-6-6" x1="1.3315001" x2="15.65" y1="15.576" y2="1.17" gradientTransform="matrix(3.7796,0,0,3.7796,-0.0020773,0.53047)" gradientUnits="userSpaceOnUse">
      <stop stop-color="#00dc96" offset="0" id="stop881"/>
      <stop stop-color="#14d29b" offset="1" id="stop883"/>
    </linearGradient>
    <linearGradient inkscape:collect="always" xlink:href="#linearGradient1051" id="linearGradient1053" x1="-127" y1="60" x2="-72" y2="5" gradientUnits="userSpaceOnUse" gradientTransform="translate(131.5,-0.50999905)"/>
    <linearGradient inkscape:collect="always" id="linearGradient1051">
      <stop style="stop-color:#02db96;stop-opacity:1" offset="0" id="stop1047"/>
      <stop style="stop-color:#13d39b;stop-opacity:1" offset="1" id="stop1049"/>
    </linearGradient>
    <filter inkscape:collect="always" style="color-interpolation-filters:sRGB" id="filter1057" x="-0.026999999" width="1.054" y="-0.026999999" height="1.054">
      <feGaussianBlur inkscape:collect="always" stdDeviation="0.61875" id="feGaussianBlur1059"/>
    </filter>
  <radialGradient id="gradient_ds_br" cx="0" cy="0" r="1" gradientUnits="userSpaceOnUse" gradientTransform="matrix(13.998399,0.00477622,-0.00477841,14.004799,47.5016,48.4952)">
      <stop offset="0.65" id="stop1"/>
      <stop offset="1" stop-opacity="0" id="stop2"/>
    </radialGradient><linearGradient id="gradient_ds_b" x1="30.448999" y1="48.5" x2="30.492201" y2="62.500301" gradientUnits="userSpaceOnUse">
      <stop offset="0.653846" id="stop3"/>
      <stop offset="1" stop-opacity="0" id="stop4"/>
    </linearGradient><radialGradient id="gradient_ds_bl" cx="0" cy="0" r="1" gradientUnits="userSpaceOnUse" gradientTransform="matrix(0,14,-14,0,16.5,48.5)">
      <stop offset="0.65" id="stop5"/>
      <stop offset="1" stop-opacity="0" id="stop6"/>
    </radialGradient><linearGradient id="gradient_ds_r" x1="47.5" y1="33.5" x2="61.5" y2="33.5009" gradientUnits="userSpaceOnUse">
      <stop offset="0.649038" id="stop7"/>
      <stop offset="1" stop-opacity="0" id="stop8"/>
    </linearGradient><linearGradient id="gradient_ds_l" x1="16.5" y1="33.894699" x2="2.5" y2="33.894699" gradientUnits="userSpaceOnUse">
      <stop offset="0.649038" id="stop9"/>
      <stop offset="1" stop-opacity="0" id="stop10"/>
    </linearGradient><radialGradient id="gradient_ds_tr" cx="0" cy="0" r="1" gradientTransform="matrix(0.00843236,-14,14.0084,0.0189842,47.4916,18.5)" gradientUnits="userSpaceOnUse">
      <stop offset="0.65" id="stop11"/>
      <stop offset="1" stop-opacity="0" id="stop12"/>
    </radialGradient><linearGradient id="gradient_ds_t" x1="29.98" y1="18.5" x2="29.9158" y2="4.4998598" gradientUnits="userSpaceOnUse">
      <stop offset="0.649038" id="stop13"/>
      <stop offset="1" stop-opacity="0" id="stop14"/>
    </linearGradient><radialGradient id="gradient_ds_tl" cx="0" cy="0" r="1" gradientTransform="matrix(-0.00843236,-14,-14.0084,0.0189842,16.5084,18.5)" gradientUnits="userSpaceOnUse">
      <stop offset="0.65" id="stop15"/>
      <stop offset="1" stop-opacity="0" id="stop16"/>
    </radialGradient></defs>
  
  <g id="ds" opacity="0.25">
    <path id="ds-br" d="m 47.5,48.5 h 14 v 14 h -14 z" fill="url(#gradient_ds_br)" style="fill:url(#gradient_ds_br)"/>
    <path id="ds-b" d="m 16.5,48.5 h 31 v 14 h -31 z" fill="url(#gradient_ds_b)" style="fill:url(#gradient_ds_b)"/>
    <path id="ds-bl" d="m 2.5,48.5 h 14 v 14 h -14 z" fill="url(#gradient_ds_bl)" style="fill:url(#gradient_ds_bl)"/>
    <path id="ds-r" d="m 47.5,18.5 h 14 v 30 h -14 z" fill="url(#gradient_ds_r)" style="fill:url(#gradient_ds_r)"/>
    <path id="ds-l" d="m 2.5,18.5 h 14 v 30 h -14 z" fill="url(#gradient_ds_l)" style="fill:url(#gradient_ds_l)"/>
    <path id="ds-tr" d="m 47.5,4.5 h 14 v 14 h -14 z" fill="url(#gradient_ds_tr)" style="fill:url(#gradient_ds_tr)"/>
    <path id="ds-t" d="m 16.5,4.5 h 31 v 14 h -31 z" fill="url(#gradient_ds_t)" style="fill:url(#gradient_ds_t)"/>
    <path id="ds-tl" d="m 16.5,4.5 h -14 v 14 h 14 z" fill="url(#gradient_ds_tl)" style="fill:url(#gradient_ds_tl)"/>
  </g><rect style="display:inline;fill:url(#linearGradient1053);fill-opacity:1;stroke-width:2.74436;stroke-linecap:round" id="bg" width="55" height="55" x="4.5" y="4.5" rx="10"/>
  <g id="art" stroke-width="0.013791" transform="matrix(3.4945066,0,0,3.4945066,2.4136916,2.414183)">
    <path id="path30" p-id="849" fill="#c8ffe6" d="m 4.8884,6.8012 h 7.1534 V 9.9014 H 4.8884 Z"/>
    <path id="path32" p-id="850" fill="#c8ffe6" d="m 4.8884,9.9014 c 0,0.79022 1.6011,1.4301 3.5774,1.4301 1.9762,0 3.5774,-0.6399 3.5774,-1.4301 0,-0.79022 -1.6011,-1.4301 -3.5774,-1.4301 -1.9762,0 -3.5774,0.6399 -3.5774,1.4301 z"/>
    <path id="path34" p-id="851" fill="#ffffff" d="M 8.2507,3.9865 2.886,6.3475 c -0.19032,0.095158 -0.19032,0.35719 0,0.45372 l 5.3661,2.361 c 0.14343,0.048268 0.28547,0.048268 0.4289,0 l 5.3661,-2.361 c 0.19032,-0.095158 0.19032,-0.35719 0,-0.45372 L 8.681,3.9865 c -0.14343,-0.071713 -0.28685,-0.071713 -0.43028,0 z"/>
    <g id="g42" fill="#28aa78">
      <path id="path36" p-id="852" d="M 13.044,6.8964 8.2751,6.08549 C 8.1565,6.062045 8.01307,6.157203 7.98963,6.27581 7.966185,6.39441 8.061343,6.53784 8.17995,6.56128 l 4.5786,0.76264 v 3.5291 c 0,0.14343 0.09516,0.23858 0.23858,0.23858 0.14343,0 0.23858,-0.09516 0.23858,-0.23858 v -3.718 C 13.23431,7.01504 13.13917,6.91988 13.04401,6.89644 Z"/>
      <path id="path38" p-id="853" d="m 12.52,10.854 c 0,0.26341 0.21376,0.47717 0.47717,0.47717 0.26341,0 0.47717,-0.21376 0.47717,-0.47717 v -0.0014 c 0,-0.26341 -0.21376,-0.47717 -0.47717,-0.47717 -0.26341,0.0014 -0.47717,0.21514 -0.47717,0.47855 z"/>
      <path id="path40" p-id="854" d="m 13.712,11.57 c 0,0.40545 -0.71575,1.4301 -0.71575,1.4301 0,0 -0.71575,-1.026 -0.71575,-1.4301 0,-0.4041 0.3103,-0.71575 0.71575,-0.71575 0.40545,0 0.71575,0.3103 0.71575,0.71575 z"/>
    </g>
  </g>
</svg>
