<?xml version="1.0" encoding="UTF-8" standalone="no"?>
<svg xmlns:inkscape="http://www.inkscape.org/namespaces/inkscape" xmlns:sodipodi="http://sodipodi.sourceforge.net/DTD/sodipodi-0.dtd" xmlns:xlink="http://www.w3.org/1999/xlink" xmlns="http://www.w3.org/2000/svg" xmlns:svg="http://www.w3.org/2000/svg" xmlns:rdf="http://www.w3.org/1999/02/22-rdf-syntax-ns#" xmlns:cc="http://creativecommons.org/ns#" xmlns:dc="http://purl.org/dc/elements/1.1/" inkscape:version="1.4.2 (ebf0e940d0, 2025-05-08)" sodipodi:docname="applications-games.svg" id="svg40" viewBox="0 0 64 64" version="1.1" height="64" width="64">
  <defs id="defs10">
    <filter color-interpolation-filters="sRGB" height="1.048" width="1.048" y="-0.024" x="-0.024" id="filter2761">
      <feGaussianBlur id="feGaussianBlur2" stdDeviation="0.14552168"/>
    </filter>
    <linearGradient gradientUnits="userSpaceOnUse" gradientTransform="translate(0,-0.07421)" y2="1.17" y1="15.576" x2="15.65" x1="1.3315001" id="linearGradient1024-6">
      <stop id="stop5" offset="0" stop-color="#dddfe1"/>
      <stop id="stop7" offset="1" stop-opacity=".99608" stop-color="#f3f4f6"/>
    </linearGradient>
    <linearGradient inkscape:collect="always" xlink:href="#linearGradient1051" id="linearGradient1053" x1="-127" y1="60" x2="-72" y2="5" gradientUnits="userSpaceOnUse" gradientTransform="translate(131.5,-0.50999931)"/>
    <linearGradient inkscape:collect="always" id="linearGradient1051">
      <stop style="stop-color:#dee0e2;stop-opacity:1" offset="0" id="stop1047"/>
      <stop style="stop-color:#f1f3f5;stop-opacity:0.99607843" offset="1" id="stop1049"/>
    </linearGradient>
    <filter inkscape:collect="always" style="color-interpolation-filters:sRGB" id="filter1057" x="-0.026999999" width="1.054" y="-0.026999999" height="1.054">
      <feGaussianBlur inkscape:collect="always" stdDeviation="0.61875" id="feGaussianBlur1059"/>
    </filter>
  <radialGradient id="gradient_ds_br" cx="0" cy="0" r="1" gradientUnits="userSpaceOnUse" gradientTransform="matrix(13.998399,0.00477622,-0.00477841,14.004799,47.5016,48.4952)">
      <stop offset="0.65" id="stop1"/>
      <stop offset="1" stop-opacity="0" id="stop2"/>
    </radialGradient><linearGradient id="gradient_ds_b" x1="30.448999" y1="48.5" x2="30.492201" y2="62.500301" gradientUnits="userSpaceOnUse">
      <stop offset="0.653846" id="stop3"/>
      <stop offset="1" stop-opacity="0" id="stop4"/>
    </linearGradient><radialGradient id="gradient_ds_bl" cx="0" cy="0" r="1" gradientUnits="userSpaceOnUse" gradientTransform="matrix(0,14,-14,0,16.5,48.5)">
      <stop offset="0.65" id="stop5"/>
      <stop offset="1" stop-opacity="0" id="stop6"/>
    </radialGradient><linearGradient id="gradient_ds_r" x1="47.5" y1="33.5" x2="61.5" y2="33.5009" gradientUnits="userSpaceOnUse">
      <stop offset="0.649038" id="stop7"/>
      <stop offset="1" stop-opacity="0" id="stop8"/>
    </linearGradient><linearGradient id="gradient_ds_l" x1="16.5" y1="33.894699" x2="2.5" y2="33.894699" gradientUnits="userSpaceOnUse">
      <stop offset="0.649038" id="stop9"/>
      <stop offset="1" stop-opacity="0" id="stop10"/>
    </linearGradient><radialGradient id="gradient_ds_tr" cx="0" cy="0" r="1" gradientTransform="matrix(0.00843236,-14,14.0084,0.0189842,47.4916,18.5)" gradientUnits="userSpaceOnUse">
      <stop offset="0.65" id="stop11"/>
      <stop offset="1" stop-opacity="0" id="stop12"/>
    </radialGradient><linearGradient id="gradient_ds_t" x1="29.98" y1="18.5" x2="29.9158" y2="4.4998598" gradientUnits="userSpaceOnUse">
      <stop offset="0.649038" id="stop13"/>
      <stop offset="1" stop-opacity="0" id="stop14"/>
    </linearGradient><radialGradient id="gradient_ds_tl" cx="0" cy="0" r="1" gradientTransform="matrix(-0.00843236,-14,-14.0084,0.0189842,16.5084,18.5)" gradientUnits="userSpaceOnUse">
      <stop offset="0.65" id="stop15"/>
      <stop offset="1" stop-opacity="0" id="stop16"/>
    </radialGradient></defs>
  <metadata id="metadata12">
    <rdf:RDF>
      <cc:Work rdf:about="">
        <dc:format>image/svg+xml</dc:format>
        <dc:type rdf:resource="http://purl.org/dc/dcmitype/StillImage"/>
      </cc:Work>
    </rdf:RDF>
  </metadata>
  
  <g id="ds" opacity="0.25">
    <path id="ds-br" d="m 47.5,48.5 h 14 v 14 h -14 z" fill="url(#gradient_ds_br)" style="fill:url(#gradient_ds_br)"/>
    <path id="ds-b" d="m 16.5,48.5 h 31 v 14 h -31 z" fill="url(#gradient_ds_b)" style="fill:url(#gradient_ds_b)"/>
    <path id="ds-bl" d="m 2.5,48.5 h 14 v 14 h -14 z" fill="url(#gradient_ds_bl)" style="fill:url(#gradient_ds_bl)"/>
    <path id="ds-r" d="m 47.5,18.5 h 14 v 30 h -14 z" fill="url(#gradient_ds_r)" style="fill:url(#gradient_ds_r)"/>
    <path id="ds-l" d="m 2.5,18.5 h 14 v 30 h -14 z" fill="url(#gradient_ds_l)" style="fill:url(#gradient_ds_l)"/>
    <path id="ds-tr" d="m 47.5,4.5 h 14 v 14 h -14 z" fill="url(#gradient_ds_tr)" style="fill:url(#gradient_ds_tr)"/>
    <path id="ds-t" d="m 16.5,4.5 h 31 v 14 h -31 z" fill="url(#gradient_ds_t)" style="fill:url(#gradient_ds_t)"/>
    <path id="ds-tl" d="m 16.5,4.5 h -14 v 14 h 14 z" fill="url(#gradient_ds_tl)" style="fill:url(#gradient_ds_tl)"/>
  </g><rect style="fill:url(#linearGradient1053);fill-opacity:1;stroke-width:2.74436;stroke-linecap:round" id="bg" width="55" height="55" x="4.5" y="4.5" rx="10"/>
  <g id="art" transform="matrix(3.779602,0,0,3.779602,1.8073301,-3.1765287)">
    <path id="path18" fill="#ff7d37" d="m 6.23,11.584 c 0,0 0.42392,-0.87757 0.82906,-0.87757 0.40514,0 3.8874,0.07559 4.1603,-0.04843 0.27285,-0.12402 1.4386,-0.61184 1.3808,-1.4221 C 12.54228,8.42563 12.6694,6.896 12.6694,6.896 c 0,0 0.45164,4.6797 0.3855,4.9856 -0.03399,0.28546 -0.11315,1.0119 -1.1421,1.2341 -1.029,0.22216 -1.5493,-0.70157 -1.5493,-0.70157 0,0 -0.45602,-0.83019 -0.99974,-0.83019 h -3.1337 z"/>
    <path id="path20" fill="#ffbe37" d="m 10.55,5.027 c 0,0 -1.05,0.024804 0,0 H 5.523 c 0,0 -2.0836,-0.00827 -2.3068,2.1414 0.05788,0 0,0 0,0 0,0 -0.12718,2.1876 -0.29631,4.725 0,0 -0.12659,1.0653 1.2554,1.2528 1.4656,0.1989 2.1332,-2.282 2.9269,-2.282 h 4.2581 c 0.63285,0 1.3111,-0.631 1.3111,-1.5313 0,-0.90035 3.91e-4,-2.2569 -3.99e-4,-2.4616 7.96e-4,-0.20685 -0.1152,-1.7886 -2.121,-1.8444 z"/>
    <g id="g36" fill="#ffffff" transform="translate(0.011111)">
      <rect id="rect22" ry="0.44220999" height="2.5590999" width="0.88441998" y="6.5553002" x="5.4021001"/>
      <rect id="rect24" ry="0.44220999" height="2.5590999" width="0.88441998" y="4.5647998" x="-8.2770004" transform="rotate(-90)"/>
      <g id="g34" transform="translate(0,-0.037725)">
        <circle id="circle26" r="0.42386001" cy="7.1023002" cx="10.275"/>
        <circle id="circle28" r="0.42386001" cy="8.6428003" cx="10.275"/>
        <circle id="circle30" r="0.42386001" cy="9.5047998" cx="-7.8724999" transform="rotate(-90)"/>
        <circle id="circle32" r="0.42386001" cy="11.045" cx="-7.8724999" transform="rotate(-90)"/>
      </g>
    </g>
  </g>
</svg>
