<?xml version="1.0" encoding="UTF-8" standalone="no"?>
<svg xmlns:inkscape="http://www.inkscape.org/namespaces/inkscape" xmlns:sodipodi="http://sodipodi.sourceforge.net/DTD/sodipodi-0.dtd" xmlns="http://www.w3.org/2000/svg" xmlns:svg="http://www.w3.org/2000/svg" xmlns:rdf="http://www.w3.org/1999/02/22-rdf-syntax-ns#" xmlns:cc="http://creativecommons.org/ns#" xmlns:dc="http://purl.org/dc/elements/1.1/" width="64" height="64" version="1.1" viewBox="0 0 64 64" id="svg4" sodipodi:docname="applications-development-web.svg" inkscape:version="1.4.2 (ebf0e940d0, 2025-05-08)">
  <sodipodi:namedview id="namedview1" pagecolor="#ffffff" bordercolor="#000000" borderopacity="0.25" inkscape:showpageshadow="2" inkscape:pageopacity="0.0" inkscape:pagecheckerboard="0" inkscape:deskcolor="#d1d1d1" inkscape:current-layer="svg4"/>
  <defs id="defs2">
    <filter id="filter1057-75" x="-0.026999999" y="-0.026999999" width="1.054" height="1.054" color-interpolation-filters="sRGB">
      <feGaussianBlur stdDeviation="0.61875" id="feGaussianBlur1"/>
    </filter>
    <linearGradient id="linearGradient1053-3" x1="-127" x2="-72" y1="60" y2="5" gradientTransform="matrix(1.0000071,0,0,1.0000071,131.50407,-0.50986833)" gradientUnits="userSpaceOnUse">
      <stop stop-color="#32d7ff" offset="0" id="stop1"/>
      <stop stop-color="#329bff" offset="1" id="stop2"/>
    </linearGradient>
    <filter id="filter1057-75-3" x="-0.026999999" y="-0.026999999" width="1.054" height="1.054" color-interpolation-filters="sRGB">
      <feGaussianBlur stdDeviation="0.61875" id="feGaussianBlur1-6"/>
    </filter>
  <radialGradient id="gradient_ds_br" cx="0" cy="0" r="1" gradientUnits="userSpaceOnUse" gradientTransform="matrix(13.998399,0.00477622,-0.00477841,14.004799,47.5016,48.4952)">
      <stop offset="0.65" id="stop1"/>
      <stop offset="1" stop-opacity="0" id="stop2"/>
    </radialGradient><linearGradient id="gradient_ds_b" x1="30.448999" y1="48.5" x2="30.492201" y2="62.500301" gradientUnits="userSpaceOnUse">
      <stop offset="0.653846" id="stop3"/>
      <stop offset="1" stop-opacity="0" id="stop4"/>
    </linearGradient><radialGradient id="gradient_ds_bl" cx="0" cy="0" r="1" gradientUnits="userSpaceOnUse" gradientTransform="matrix(0,14,-14,0,16.5,48.5)">
      <stop offset="0.65" id="stop5"/>
      <stop offset="1" stop-opacity="0" id="stop6"/>
    </radialGradient><linearGradient id="gradient_ds_r" x1="47.5" y1="33.5" x2="61.5" y2="33.5009" gradientUnits="userSpaceOnUse">
      <stop offset="0.649038" id="stop7"/>
      <stop offset="1" stop-opacity="0" id="stop8"/>
    </linearGradient><linearGradient id="gradient_ds_l" x1="16.5" y1="33.894699" x2="2.5" y2="33.894699" gradientUnits="userSpaceOnUse">
      <stop offset="0.649038" id="stop9"/>
      <stop offset="1" stop-opacity="0" id="stop10"/>
    </linearGradient><radialGradient id="gradient_ds_tr" cx="0" cy="0" r="1" gradientTransform="matrix(0.00843236,-14,14.0084,0.0189842,47.4916,18.5)" gradientUnits="userSpaceOnUse">
      <stop offset="0.65" id="stop11"/>
      <stop offset="1" stop-opacity="0" id="stop12"/>
    </radialGradient><linearGradient id="gradient_ds_t" x1="29.98" y1="18.5" x2="29.9158" y2="4.4998598" gradientUnits="userSpaceOnUse">
      <stop offset="0.649038" id="stop13"/>
      <stop offset="1" stop-opacity="0" id="stop14"/>
    </linearGradient><radialGradient id="gradient_ds_tl" cx="0" cy="0" r="1" gradientTransform="matrix(-0.00843236,-14,-14.0084,0.0189842,16.5084,18.5)" gradientUnits="userSpaceOnUse">
      <stop offset="0.65" id="stop15"/>
      <stop offset="1" stop-opacity="0" id="stop16"/>
    </radialGradient></defs>
  <metadata id="metadata2">
    <rdf:RDF>
      <cc:Work rdf:about="">
        <dc:format>image/svg+xml</dc:format>
        <dc:type rdf:resource="http://purl.org/dc/dcmitype/StillImage"/>
      </cc:Work>
    </rdf:RDF>
  </metadata>
  
  <g id="ds" opacity="0.25">
    <path id="ds-br" d="m 47.5,48.5 h 14 v 14 h -14 z" fill="url(#gradient_ds_br)" style="fill:url(#gradient_ds_br)"/>
    <path id="ds-b" d="m 16.5,48.5 h 31 v 14 h -31 z" fill="url(#gradient_ds_b)" style="fill:url(#gradient_ds_b)"/>
    <path id="ds-bl" d="m 2.5,48.5 h 14 v 14 h -14 z" fill="url(#gradient_ds_bl)" style="fill:url(#gradient_ds_bl)"/>
    <path id="ds-r" d="m 47.5,18.5 h 14 v 30 h -14 z" fill="url(#gradient_ds_r)" style="fill:url(#gradient_ds_r)"/>
    <path id="ds-l" d="m 2.5,18.5 h 14 v 30 h -14 z" fill="url(#gradient_ds_l)" style="fill:url(#gradient_ds_l)"/>
    <path id="ds-tr" d="m 47.5,4.5 h 14 v 14 h -14 z" fill="url(#gradient_ds_tr)" style="fill:url(#gradient_ds_tr)"/>
    <path id="ds-t" d="m 16.5,4.5 h 31 v 14 h -31 z" fill="url(#gradient_ds_t)" style="fill:url(#gradient_ds_t)"/>
    <path id="ds-tl" d="m 16.5,4.5 h -14 v 14 h 14 z" fill="url(#gradient_ds_tl)" style="fill:url(#gradient_ds_tl)"/>
  </g><rect x="4.5" y="4.5" width="55" height="55" fill="url(#linearGradient1053-3)" stroke-linecap="round" stroke-width="2.74441" id="bg" style="display:inline;fill:url(#linearGradient1053-3)" rx="10"/>
  <g id="art">
    <path id="path3" style="display:inline;fill:#ffffff;fill-opacity:1;opacity:0.4" d="M 14.5 4.5 C 8.96 4.5 4.5 8.96 4.5 14.5 L 4.5 19.5 L 4.5 19.65625 C 4.571159 19.655739 4.64514 19.652944 4.6601562 19.652344 C 4.9871108 19.646244 5.4574373 19.741462 5.7714844 19.808594 C 6.0612476 19.868204 6.2960606 20.06124 6.546875 20.080078 C 7.2586119 20.134598 7.4291431 19.581525 8.0097656 19.271484 C 8.6098152 19.355304 9.0070978 19.167895 9.5488281 19.228516 C 9.9181368 19.270426 10.184877 19.665351 10.472656 19.6875 C 10.714732 19.71108 10.927887 19.460267 11.162109 19.496094 C 11.38972 19.531884 11.783273 20.026509 11.820312 20.304688 C 11.868322 20.650907 11.566106 20.963447 11.666016 21.34375 C 12.028733 21.713078 12.68697 21.787246 13.205078 22 C 13.542589 21.721897 13.250448 21.207215 13.205078 20.804688 C 13.198978 20.62688 13.228658 20.468004 13.205078 20.304688 C 13.175178 20.027451 13.056515 19.774392 13.054688 19.537109 C 13.048588 18.441327 13.936894 17.928745 14.671875 17.496094 C 14.990019 17.307503 15.241553 16.975923 15.517578 16.837891 C 15.907519 16.642588 16.198706 16.597381 16.521484 16.416016 C 17.104941 16.088332 17.604312 15.826424 18.060547 15.455078 C 18.27109 14.958174 18.080699 14.291864 18.099609 13.800781 C 18.310254 13.671594 18.491129 13.855171 18.714844 13.837891 C 19.066801 13.765261 19.09735 13.26863 19.296875 13.070312 C 19.412633 12.95618 19.729044 12.875058 19.873047 12.761719 C 20.223862 12.486583 20.338044 12.071767 20.644531 11.953125 C 20.754593 11.907965 21.008308 11.92282 21.181641 11.875 C 21.409619 11.81438 21.734123 11.545251 22.105469 11.417969 C 22.347465 11.334149 22.901767 11.316159 22.994141 11.224609 C 23.108273 11.108443 22.992343 10.781322 23.033203 10.607422 C 23.219961 9.7381515 24.530662 9.5544489 25.304688 9.2617188 C 25.847212 9.0571552 26.403881 8.6793416 27 8.7949219 C 26.883018 9.2080702 26.327763 9.0626845 26.421875 9.5644531 C 26.551671 10.260656 27.48254 9.3650681 27.728516 9.2617188 C 28.198245 9.0641779 29.004679 8.9424117 29.621094 8.71875 C 30.161653 8.5212091 31.130547 8.219792 30.621094 7.6015625 C 30.196078 7.5779778 29.991495 8.099485 29.621094 8.2578125 C 29.365291 8.2999248 29.414151 8.0438625 29.195312 8.0234375 C 28.988508 7.9998528 28.871376 8.2149673 28.658203 8.1777344 C 28.446382 8.1427481 28.150334 7.8102756 28.117188 7.5625 C 28.033386 6.9196653 28.659508 6.6552995 28.925781 6.1757812 C 28.748986 5.5944028 27.945078 6.0555323 27.458984 5.828125 C 27.506784 5.4819059 27.865076 5.2438774 28.269531 5.1777344 C 28.601029 5.1219924 29.343608 5.1514258 29.541016 5.3261719 C 29.655561 5.4248419 29.54911 5.6666453 29.734375 5.828125 C 29.930498 6.0059326 30.173102 5.9859999 30.427734 5.9453125 C 30.518254 5.5065007 29.857724 5.6163243 29.929688 5.3261719 C 30.449873 4.9858943 31.294778 5.2654575 31.931641 5.171875 C 32.298187 5.117354 32.682882 4.8585591 33.007812 4.6757812 C 33.10801 4.6187173 33.225851 4.5596648 33.339844 4.5 L 19.728516 4.5 L 14.5 4.5 z M 34.044922 4.5 C 34.110532 4.7986377 33.757078 4.9036801 33.585938 5.0566406 C 32.996811 5.5807958 32.389578 6.1822729 31.931641 6.7910156 C 32.212541 7.0650934 32.723707 6.9270044 33.199219 6.984375 C 33.385176 7.00796 33.617913 7.0631931 33.814453 7.0996094 C 34.044555 7.1417214 34.28903 7.1281813 34.46875 7.1757812 C 34.792322 7.2543102 34.878898 7.5996094 35.199219 7.5996094 C 35.726096 7.5986735 35.732221 7.0298289 35.433594 6.6738281 C 35.527784 6.3104005 35.67571 6.1217437 35.548828 5.8671875 C 35.311507 5.3925451 34.441197 5.8442547 34.396484 5.2519531 C 34.369274 4.8679833 34.718257 4.8848494 34.857422 4.5976562 C 34.854322 4.5614102 34.861228 4.533101 34.861328 4.5 L 34.044922 4.5 z M 15.648438 7.4941406 C 15.603851 7.549432 15.543924 7.5892336 15.478516 7.6171875 L 15.648438 7.4941406 z M 16.326172 8.0390625 C 16.364315 8.0369773 16.403114 8.0379258 16.441406 8.0410156 L 16.441406 8.0390625 L 16.445312 8.0390625 C 16.624952 8.0626475 16.841493 8.2567544 17.058594 8.2734375 C 17.263153 8.2795275 17.432061 8.1599164 17.558594 8.1953125 C 17.880601 8.2793325 18.016453 8.7675177 17.712891 9.0058594 C 17.461139 9.0361714 17.363591 8.8951041 17.173828 8.9296875 C 16.650845 9.0173745 16.449518 10.041753 16.058594 10.007812 C 15.690012 9.9783323 15.492185 9.0779159 15.867188 8.8105469 C 15.890771 8.5770166 15.695963 8.5412425 15.708984 8.3105469 C 15.806357 8.1866511 16.059168 8.0536586 16.326172 8.0390625 z M 14.707031 8.1601562 C 14.814243 8.1642364 14.894165 8.1891441 14.935547 8.2363281 C 14.884077 8.6467929 14.563146 8.6192613 14.246094 8.8105469 C 13.698543 9.1409749 13.383185 9.6437693 13.208984 10.349609 C 13.158124 10.55415 12.618026 11.099386 12.357422 11.044922 C 11.746752 10.916347 12.527755 9.7902432 12.666016 9.6191406 C 12.820836 9.4295331 13.027434 9.2638893 13.208984 9.0449219 C 13.384962 8.8329769 13.500218 8.5473088 13.669922 8.4296875 C 13.855867 8.301113 14.385353 8.1477062 14.707031 8.1601562 z M 9.5351562 8.3125 C 9.512035 8.3330802 9.4878355 8.3523256 9.4648438 8.3730469 L 9.4882812 8.3183594 L 9.5351562 8.3125 z M 19.265625 9.5449219 C 19.460928 9.5490019 19.636549 9.5808261 19.716797 9.6601562 C 19.591273 10.168702 18.496341 10.033665 18.095703 9.8496094 C 18.119293 9.6579685 18.419795 9.6050839 18.671875 9.5800781 C 18.849683 9.5739881 19.070371 9.5384059 19.265625 9.5449219 z M 16.771484 10.482422 C 16.901279 10.478322 17.035087 10.505319 17.171875 10.542969 C 16.817499 10.839404 16.432811 11.008564 15.824219 11.201172 C 15.531587 11.292512 15.026226 11.407093 14.976562 11.080078 C 14.915934 10.679553 15.404695 10.772151 15.671875 10.736328 C 16.008309 10.689128 16.377309 10.495183 16.771484 10.482422 z M 55.017578 12.765625 C 54.971618 12.875615 54.938479 12.983049 54.943359 13.087891 C 54.966789 13.273836 55.171404 13.451755 55.216797 13.703125 C 55.240227 13.836583 55.154287 14.124542 55.216797 14.246094 C 55.402338 14.605617 55.887256 14.348879 56.234375 14.367188 C 55.840087 13.82421 55.446676 13.280029 55.017578 12.765625 z M 56.986328 15.414062 C 56.930468 15.679202 56.748955 16.024949 56.603516 16.246094 C 56.26785 16.756605 55.813288 16.780528 55.332031 17.052734 C 54.930675 17.280304 54.75684 17.658964 54.521484 18.054688 C 54.266474 18.482236 54.107818 18.741851 54.212891 19.361328 C 53.868758 20.043886 53.349476 20.460488 52.636719 20.785156 C 52.426195 20.880366 52.136799 20.917529 51.943359 21.056641 C 51.789945 21.167924 51.701374 21.463121 51.482422 21.708984 C 51.212407 22.009549 50.931024 22.137576 50.789062 22.367188 C 50.679001 22.544995 50.640264 22.896689 50.517578 23.134766 C 50.352371 23.458198 50.003038 23.617621 49.787109 23.945312 C 49.688609 24.096266 49.623344 24.403132 49.515625 24.601562 C 49.271539 25.044871 48.853687 25.363965 48.898438 25.753906 C 48.943638 26.130805 49.371251 26.196868 49.400391 26.525391 C 49.406391 26.711132 49.277635 26.825014 49.285156 27.027344 C 49.291156 27.322863 49.490427 27.530395 49.513672 27.757812 C 49.571272 28.329515 49.320874 28.556417 49.212891 28.947266 C 49.161371 29.134027 49.184536 29.344417 49.134766 29.490234 C 49.038576 29.776353 48.640825 30.034697 48.632812 30.373047 C 48.628614 30.613581 48.880208 30.806975 48.900391 31.144531 C 48.906391 31.377544 48.783839 31.625843 48.826172 31.839844 C 48.907362 32.258775 49.656696 32.746805 49.982422 33.072266 C 50.418021 33.507979 50.98801 33.845579 51.175781 34.304688 C 51.333239 34.694516 51.332234 35.200239 51.636719 35.494141 C 51.861303 35.711014 52.233781 35.8467 52.521484 36.072266 C 52.789911 36.282526 53.082307 36.464126 53.369141 36.6875 C 53.83785 37.054273 54.548261 37.784832 55.294922 37.728516 C 55.684863 37.701676 56.083064 37.383342 56.525391 37.304688 C 56.980417 37.223917 57.572217 37.180289 58.03125 37.228516 C 58.382866 37.263666 58.74385 37.47385 59.109375 37.457031 C 59.234027 37.449431 59.365597 37.409795 59.5 37.359375 L 59.5 20.091797 C 58.792345 18.454436 57.960332 16.884631 56.986328 15.414062 z M 7.3144531 25.5 L 7.3125 25.505859 C 6.6727646 25.541429 6.2523452 25.569684 5.8886719 25.734375 C 5.0998907 26.093331 5.1932422 27.114581 4.5 27.449219 L 4.5 31.044922 C 4.5388463 31.051522 4.5762766 31.055906 4.6152344 31.064453 C 4.813792 31.109623 4.966358 31.194643 5.1582031 31.259766 C 5.5656064 31.397495 6.0647855 31.380028 6.390625 31.525391 C 6.8814441 31.743248 7.2400034 32.667141 7.6621094 32.914062 C 7.6856944 33.162911 7.614633 33.496252 7.703125 33.681641 C 7.9018867 33.952261 8.1831956 33.8917 8.5117188 34.068359 C 8.9048352 34.280319 9.0240424 34.828809 9.3964844 34.996094 C 9.5248548 35.053464 9.8475519 35.044983 10.050781 35.107422 C 10.561178 35.261214 10.728452 35.853683 11.166016 35.724609 C 11.452929 35.640779 11.430013 35.344637 11.476562 35.070312 C 11.66617 34.865722 11.874319 34.539024 12.169922 34.533203 C 12.648382 34.509773 12.689306 35.02756 12.863281 35.492188 C 12.962151 35.754869 13.219987 35.982759 13.287109 36.259766 C 13.40653 36.738264 13.346261 38.171066 13.244141 38.457031 C 13.1235 38.807929 12.648388 38.956669 12.355469 39.345703 C 12.217741 39.528409 12.151607 39.795662 12.046875 39.923828 C 11.858284 40.153628 11.578593 40.213897 11.4375 40.425781 C 11.35836 40.545217 11.280882 40.801615 11.203125 40.962891 C 10.971892 41.452954 10.662912 41.800415 10.857422 42.388672 C 10.938182 42.630718 11.315423 42.793219 11.316406 43.078125 C 11.317506 43.413414 10.604124 43.714465 10.548828 44.082031 C 10.506718 44.355599 10.770431 44.843331 10.857422 45.199219 C 10.921102 45.468137 11.429299 45.635603 11.587891 45.814453 C 11.858144 46.117955 12.073391 46.548515 12.320312 46.929688 C 12.808561 47.679409 13.190618 48.593949 13.666016 49.320312 C 13.917163 49.700767 14.27014 50.042569 14.4375 50.4375 C 14.52233 50.636269 14.511515 50.873656 14.589844 51.052734 C 14.864957 51.673873 16.079882 52.322519 16.707031 52.630859 C 17.000578 52.773048 17.326293 52.824786 17.595703 52.974609 C 18.003825 53.202217 18.811514 53.813947 19.017578 54.171875 C 19.20149 54.493482 19.315046 55.275691 19.404297 55.787109 C 19.523922 56.463053 19.407493 56.982811 19.445312 57.714844 C 19.468902 58.110757 19.594725 58.507401 19.599609 58.904297 C 19.601109 59.042819 19.526964 59.147215 19.521484 59.289062 C 19.521261 59.310983 19.529297 59.338528 19.529297 59.361328 C 19.637062 59.4101 19.748908 59.452561 19.857422 59.5 L 34.755859 59.5 C 34.761517 59.434866 34.753365 59.372421 34.771484 59.304688 C 34.955588 58.613284 35.911946 58.190912 36.582031 57.878906 C 36.812285 57.771678 37.046793 57.598439 37.234375 57.533203 C 37.698094 57.371663 38.277328 57.46037 38.701172 57.304688 C 39.422698 57.040644 39.497742 56.266761 39.853516 55.609375 C 40.022162 55.298276 40.244423 54.985307 40.277344 54.763672 C 40.305314 54.564902 40.203455 54.377631 40.234375 54.142578 C 40.268395 53.910056 40.478489 53.708739 40.542969 53.453125 C 40.626759 53.119612 40.664063 52.631225 40.664062 52.259766 C 40.664062 51.954752 40.520954 51.687264 40.509766 51.412109 C 40.459386 50.413273 40.870627 50.301471 41.240234 49.757812 C 41.425775 49.487837 41.495587 49.179881 41.625 48.986328 C 42.245422 48.060779 43.321963 47.614053 43.244141 46.214844 C 43.220711 45.751843 42.926593 44.704347 42.585938 44.556641 C 42.39125 44.472621 41.944067 44.550647 41.662109 44.441406 C 40.751943 44.101998 40.218553 42.974496 39.275391 42.902344 C 39.074581 42.878914 38.888772 42.984139 38.662109 42.980469 C 38.288836 42.957039 37.725648 42.718477 37.3125 42.671875 C 37.049855 42.645035 36.698664 42.749395 36.541016 42.671875 C 36.300785 42.554707 36.277664 42.112642 36.082031 41.980469 C 35.928013 41.872637 35.623991 41.838165 35.388672 41.746094 C 35.009465 41.601865 34.708973 41.430855 34.271484 41.400391 C 34.136817 41.394391 33.967778 41.461453 33.810547 41.439453 C 33.568501 41.397353 33.377596 41.112514 33.154297 40.976562 C 32.87438 40.805459 32.615656 40.723346 32.5 40.480469 C 32.752817 39.651111 32.05481 39.42066 31.884766 38.941406 C 31.803956 38.716823 31.840061 38.446375 31.769531 38.246094 C 31.668011 37.959071 31.38528 37.794051 31.074219 37.554688 C 30.51703 37.125816 30.022886 36.723232 29.226562 36.625 C 28.876485 36.57983 28.528482 36.730607 28.105469 36.703125 C 27.657284 36.676295 27.094979 36.281652 26.759766 35.898438 C 26.43379 35.524296 26.276186 35.188579 25.992188 35.009766 C 25.723242 34.836623 25.365254 34.84202 25.181641 34.667969 C 25.100041 34.591889 25.115462 34.459962 25.027344 34.279297 C 24.892461 33.999304 24.664722 33.843329 24.833984 33.507812 C 24.527088 33.349939 24.517398 33.800505 24.181641 33.742188 C 23.882236 33.317436 23.630858 33.117686 22.951172 33.242188 C 22.639967 33.299748 22.466131 33.691383 22.103516 33.701172 C 21.806065 33.724602 21.572464 33.370278 21.179688 33.314453 C 20.883152 33.272353 20.545037 33.393529 20.333984 33.355469 C 20.005362 33.289969 19.903805 33.017796 19.603516 32.820312 C 19.383373 32.676271 18.955472 32.427672 18.832031 32.431641 C 18.444962 32.455071 18.170436 33.255408 17.636719 32.972656 C 17.377249 32.643793 18.059314 32.469731 17.751953 32.162109 C 17.518729 31.92887 17.321365 32.268507 17.134766 32.396484 C 16.920886 32.54336 16.720714 32.6918 16.484375 32.779297 C 15.95542 32.976857 15.624274 32.872768 15.210938 33.085938 C 14.828175 33.283687 14.812539 33.615893 14.595703 34.009766 C 14.417896 34.332506 14.014547 34.802801 13.748047 34.822266 C 13.425348 34.845696 13.116911 34.370682 12.824219 34.244141 C 11.942362 33.862099 11.515426 34.583961 10.783203 34.59375 C 10.103593 34.61718 9.1318858 33.496363 9.1660156 32.857422 C 9.1721056 32.467631 9.3919293 31.876922 9.4375 31.394531 C 9.479612 31.010977 9.7396656 30.779904 9.7441406 30.429688 C 9.7503806 29.961925 9.1239279 29.602435 8.8203125 29.546875 C 8.100903 29.414842 7.1019017 29.835517 6.2773438 29.503906 C 6.1202862 29.24297 6.4628111 29.062395 6.5507812 28.808594 C 6.6014472 28.664943 6.5703549 28.471273 6.6230469 28.3125 C 6.7135799 28.06723 6.9729869 27.878913 7.0878906 27.619141 C 7.1725236 27.421396 7.1940556 27.134649 7.2792969 26.888672 C 7.3816297 26.608592 7.5661012 26.426894 7.5878906 26.230469 C 7.6145275 25.971171 7.5177957 25.671019 7.3144531 25.5 z M 17.607422 33.658203 C 17.865788 33.685413 17.899278 34.220396 17.632812 34.263672 C 17.344841 34.309032 17.198198 33.810941 17.478516 33.681641 C 17.526126 33.658211 17.570395 33.658636 17.607422 33.660156 L 17.607422 33.658203 z "/>
    <path d="m 49.101188,49.099298 a 3.6355614,3.6355614 0 0 1 -5.133456,0 L 33.848982,38.977146 c -2.422461,0.639206 -5.09377,0.03802 -6.99113,-1.859489 -1.901329,-1.899515 -2.502361,-4.572562 -1.863193,-6.99302 l 4.425536,4.425536 5.133456,-5.133455 -4.423647,-4.425536 c 2.420684,-0.637392 5.09377,-0.03643 6.99113,1.861341 1.897625,1.897662 2.498771,4.570672 1.859602,6.991129 l 10.10968,10.124042 c 1.423738,1.41463 1.423738,3.719053 0.01096,5.133456 z m -14.091869,1.055113 h -6.023551 l -1.924914,-4.503395 c -0.466667,-0.194348 -0.757243,-0.308703 -1.222134,-0.50299 l -4.550641,1.819576 -4.261879,-4.259989 1.821352,-4.54346 a 146.59942,146.59942 0 0 1 -0.502989,-1.22032 L 13.841167,35.00622 v -6.025441 l 4.503396,-1.926728 c 0.168869,-0.406761 0.337775,-0.813522 0.502989,-1.220282 l -1.82139,-4.54346 4.261879,-4.261879 4.54157,1.82139 c 0.473962,-0.20338 0.755429,-0.319599 1.229391,-0.513875 l 1.926728,-4.494324 h 6.025063 l 1.924914,4.494324 c 0.475776,0.203381 0.757243,0.3196 1.231243,0.513875 l 4.54157,-1.82139 4.261879,4.261879 -1.821428,4.54346 c 0.20338,0.472148 0.319603,0.755429 0.513875,1.229391 l 4.492435,1.928579 v 6.023552 l -3.408559,1.463689 -3.9134,-3.9134 a 10.910577,10.910577 0 0 0 -3.14701,-8.282242 10.726888,10.726888 0 0 0 -7.659741,-3.16708 c -0.949738,0 -1.897663,0.12715 -2.818374,0.368617 a 10.84141,10.84141 0 0 0 -7.717569,7.71757 c -0.987875,3.749932 0.07814,7.770483 2.798379,10.492931 a 10.726888,10.726888 0 0 0 8.280731,3.147048 l 3.902439,3.904328 -1.461875,3.408559 z" fill="#ffffff" stroke-width="0.0354735" p-id="4564" id="path4" style="display:inline"/>
  </g>
</svg>
