<?xml version="1.0" encoding="UTF-8" standalone="no"?>
<svg xmlns:inkscape="http://www.inkscape.org/namespaces/inkscape" xmlns:sodipodi="http://sodipodi.sourceforge.net/DTD/sodipodi-0.dtd" xmlns="http://www.w3.org/2000/svg" xmlns:svg="http://www.w3.org/2000/svg" xmlns:rdf="http://www.w3.org/1999/02/22-rdf-syntax-ns#" xmlns:cc="http://creativecommons.org/ns#" xmlns:dc="http://purl.org/dc/elements/1.1/" width="64" height="64" version="1.1" viewBox="0 0 64 64" id="svg5" sodipodi:docname="atomix.svg" inkscape:version="1.4.2 (ebf0e940d0, 2025-05-08)">
  <defs id="defs4">
    <filter id="filter1057-2" x="-0.026999999" y="-0.026999999" width="1.054" height="1.054" color-interpolation-filters="sRGB">
      <feGaussianBlur stdDeviation="0.61875" id="feGaussianBlur1"/>
    </filter>
    <linearGradient id="linearGradient1053-3" x1="-127" x2="-72" y1="60" y2="5" gradientTransform="matrix(1.0000071,0,0,1.0000071,131.50105,-0.51024624)" gradientUnits="userSpaceOnUse">
      <stop stop-color="#dee0e2" offset="0" id="stop1"/>
      <stop stop-color="#f1f3f5" stop-opacity=".99608" offset="1" id="stop2"/>
    </linearGradient>
    <linearGradient id="linearGradient3174" x1="15.138" x2="16.822001" y1="10.386" y2="22.125999" gradientTransform="matrix(2.0522483,0,0,2.0522483,2.3463769,-3.1109904)" gradientUnits="userSpaceOnUse">
      <stop stop-color="#be1ad6" offset="0" id="stop3"/>
      <stop stop-color="#f44eb8" offset="1" id="stop4"/>
    </linearGradient>
    <filter id="filter1057-2-3" x="-0.026999999" y="-0.026999999" width="1.054" height="1.054" color-interpolation-filters="sRGB">
      <feGaussianBlur stdDeviation="0.61875" id="feGaussianBlur1-6"/>
    </filter>
  <radialGradient id="gradient_ds_br" cx="0" cy="0" r="1" gradientUnits="userSpaceOnUse" gradientTransform="matrix(13.998399,0.00477622,-0.00477841,14.004799,47.5016,48.4952)">
      <stop offset="0.65" id="stop1"/>
      <stop offset="1" stop-opacity="0" id="stop2"/>
    </radialGradient><linearGradient id="gradient_ds_b" x1="30.448999" y1="48.5" x2="30.492201" y2="62.500301" gradientUnits="userSpaceOnUse">
      <stop offset="0.653846" id="stop3"/>
      <stop offset="1" stop-opacity="0" id="stop4"/>
    </linearGradient><radialGradient id="gradient_ds_bl" cx="0" cy="0" r="1" gradientUnits="userSpaceOnUse" gradientTransform="matrix(0,14,-14,0,16.5,48.5)">
      <stop offset="0.65" id="stop5"/>
      <stop offset="1" stop-opacity="0" id="stop6"/>
    </radialGradient><linearGradient id="gradient_ds_r" x1="47.5" y1="33.5" x2="61.5" y2="33.5009" gradientUnits="userSpaceOnUse">
      <stop offset="0.649038" id="stop7"/>
      <stop offset="1" stop-opacity="0" id="stop8"/>
    </linearGradient><linearGradient id="gradient_ds_l" x1="16.5" y1="33.894699" x2="2.5" y2="33.894699" gradientUnits="userSpaceOnUse">
      <stop offset="0.649038" id="stop9"/>
      <stop offset="1" stop-opacity="0" id="stop10"/>
    </linearGradient><radialGradient id="gradient_ds_tr" cx="0" cy="0" r="1" gradientTransform="matrix(0.00843236,-14,14.0084,0.0189842,47.4916,18.5)" gradientUnits="userSpaceOnUse">
      <stop offset="0.65" id="stop11"/>
      <stop offset="1" stop-opacity="0" id="stop12"/>
    </radialGradient><linearGradient id="gradient_ds_t" x1="29.98" y1="18.5" x2="29.9158" y2="4.4998598" gradientUnits="userSpaceOnUse">
      <stop offset="0.649038" id="stop13"/>
      <stop offset="1" stop-opacity="0" id="stop14"/>
    </linearGradient><radialGradient id="gradient_ds_tl" cx="0" cy="0" r="1" gradientTransform="matrix(-0.00843236,-14,-14.0084,0.0189842,16.5084,18.5)" gradientUnits="userSpaceOnUse">
      <stop offset="0.65" id="stop15"/>
      <stop offset="1" stop-opacity="0" id="stop16"/>
    </radialGradient></defs>
  <metadata id="metadata4">
    <rdf:RDF>
      <cc:Work rdf:about="">
        <dc:format>image/svg+xml</dc:format>
        <dc:type rdf:resource="http://purl.org/dc/dcmitype/StillImage"/>
      </cc:Work>
    </rdf:RDF>
  </metadata>
  
  <g id="ds" opacity="0.25">
    <path id="ds-br" d="m 47.5,48.5 h 14 v 14 h -14 z" fill="url(#gradient_ds_br)" style="fill:url(#gradient_ds_br)"/>
    <path id="ds-b" d="m 16.5,48.5 h 31 v 14 h -31 z" fill="url(#gradient_ds_b)" style="fill:url(#gradient_ds_b)"/>
    <path id="ds-bl" d="m 2.5,48.5 h 14 v 14 h -14 z" fill="url(#gradient_ds_bl)" style="fill:url(#gradient_ds_bl)"/>
    <path id="ds-r" d="m 47.5,18.5 h 14 v 30 h -14 z" fill="url(#gradient_ds_r)" style="fill:url(#gradient_ds_r)"/>
    <path id="ds-l" d="m 2.5,18.5 h 14 v 30 h -14 z" fill="url(#gradient_ds_l)" style="fill:url(#gradient_ds_l)"/>
    <path id="ds-tr" d="m 47.5,4.5 h 14 v 14 h -14 z" fill="url(#gradient_ds_tr)" style="fill:url(#gradient_ds_tr)"/>
    <path id="ds-t" d="m 16.5,4.5 h 31 v 14 h -31 z" fill="url(#gradient_ds_t)" style="fill:url(#gradient_ds_t)"/>
    <path id="ds-tl" d="m 16.5,4.5 h -14 v 14 h 14 z" fill="url(#gradient_ds_tl)" style="fill:url(#gradient_ds_tl)"/>
  </g><rect x="4.5" y="4.5" width="55" height="55" fill="url(#linearGradient1053-3)" stroke-linecap="round" stroke-width="2.74441" id="bg" style="fill:url(#linearGradient1053-3)" rx="10"/>
  <g id="art"><path d="m 46.698117,14.500065 a 3.0417103,3.0417103 0 0 0 -3.041711,3.04171 3.0417103,3.0417103 0 0 0 0.551822,1.73737 l -7.659741,10.212863 a 6.6177051,6.6177051 0 0 0 -4.050222,-1.394107 6.6177051,6.6177051 0 0 0 -0.7182,0.04486 l -2.703738,-6.75944 a 2.6234973,2.6234973 0 0 0 1.066717,-2.10966 2.6234973,2.6234973 0 0 0 -2.621872,-2.621872 2.6234973,2.6234973 0 0 0 -2.624518,2.621872 2.6234973,2.6234973 0 0 0 2.624518,2.624518 2.6234973,2.6234973 0 0 0 0.298362,-0.02117 l 2.621872,6.556097 a 6.6177051,6.6177051 0 0 0 -4.56009,6.281321 6.6177051,6.6177051 0 0 0 0.121439,1.240957 l -6.223493,2.666773 a 2.9819548,2.9819548 0 0 0 -2.534752,-1.420525 2.9819548,2.9819548 0 0 0 -2.983618,2.983618 2.9819548,2.9819548 0 0 0 2.983618,2.980972 2.9819548,2.9819548 0 0 0 2.980972,-2.980972 2.9819548,2.9819548 0 0 0 -0.0158,-0.27988 l 6.183807,-2.650937 a 6.6177051,6.6177051 0 0 0 6.104435,4.076679 6.6177051,6.6177051 0 0 0 3.699134,-1.135355 l 4.280022,5.349271 a 2.9819548,2.9819548 0 0 0 -0.166341,0.97166 2.9819548,2.9819548 0 0 0 2.980972,2.983618 2.9819548,2.9819548 0 0 0 2.983618,-2.983618 2.9819548,2.9819548 0 0 0 -2.983618,-2.980972 2.9819548,2.9819548 0 0 0 -2.040985,0.810573 L 37.2349,39.326986 a 6.6177051,6.6177051 0 0 0 1.879936,-4.612627 6.6177051,6.6177051 0 0 0 -1.578928,-4.280021 l 7.678261,-10.23932 a 3.0417103,3.0417103 0 0 0 1.483872,0.388128 3.0417103,3.0417103 0 0 0 3.04171,-3.041711 3.0417103,3.0417103 0 0 0 -3.04171,-3.04171 z" fill="url(#linearGradient3174)" stroke-width="1.35189" id="path5" style="fill:url(#linearGradient3174)"/></g>
</svg>
