<?xml version="1.0" encoding="UTF-8" standalone="no"?>
<svg xmlns:inkscape="http://www.inkscape.org/namespaces/inkscape" xmlns:sodipodi="http://sodipodi.sourceforge.net/DTD/sodipodi-0.dtd" xmlns="http://www.w3.org/2000/svg" xmlns:svg="http://www.w3.org/2000/svg" xmlns:rdf="http://www.w3.org/1999/02/22-rdf-syntax-ns#" xmlns:cc="http://creativecommons.org/ns#" xmlns:dc="http://purl.org/dc/elements/1.1/" width="64" height="64" version="1.1" viewBox="0 0 64 64" id="svg3" sodipodi:docname="avernote.svg" inkscape:version="1.4.2 (ebf0e940d0, 2025-05-08)">
  <defs id="defs2">
    <filter id="filter1057" x="-0.026999999" y="-0.026999999" width="1.054" height="1.054" color-interpolation-filters="sRGB">
      <feGaussianBlur stdDeviation="0.61875" id="feGaussianBlur1"/>
    </filter>
    <linearGradient id="linearGradient1053" x1="-127" x2="-72" y1="60" y2="5" gradientTransform="matrix(1.0000071,0,0,1.0000071,131.50218,-0.50986792)" gradientUnits="userSpaceOnUse">
      <stop stop-color="#87e1aa" offset="0" id="stop1"/>
      <stop stop-color="#c3fa46" offset="1" id="stop2"/>
    </linearGradient>
    <filter id="filter1057-3" x="-0.026999999" y="-0.026999999" width="1.054" height="1.054" color-interpolation-filters="sRGB">
      <feGaussianBlur stdDeviation="0.61875" id="feGaussianBlur1-6"/>
    </filter>
  <radialGradient id="gradient_ds_br" cx="0" cy="0" r="1" gradientUnits="userSpaceOnUse" gradientTransform="matrix(13.998399,0.00477622,-0.00477841,14.004799,47.5016,48.4952)">
      <stop offset="0.65" id="stop1"/>
      <stop offset="1" stop-opacity="0" id="stop2"/>
    </radialGradient><linearGradient id="gradient_ds_b" x1="30.448999" y1="48.5" x2="30.492201" y2="62.500301" gradientUnits="userSpaceOnUse">
      <stop offset="0.653846" id="stop3"/>
      <stop offset="1" stop-opacity="0" id="stop4"/>
    </linearGradient><radialGradient id="gradient_ds_bl" cx="0" cy="0" r="1" gradientUnits="userSpaceOnUse" gradientTransform="matrix(0,14,-14,0,16.5,48.5)">
      <stop offset="0.65" id="stop5"/>
      <stop offset="1" stop-opacity="0" id="stop6"/>
    </radialGradient><linearGradient id="gradient_ds_r" x1="47.5" y1="33.5" x2="61.5" y2="33.5009" gradientUnits="userSpaceOnUse">
      <stop offset="0.649038" id="stop7"/>
      <stop offset="1" stop-opacity="0" id="stop8"/>
    </linearGradient><linearGradient id="gradient_ds_l" x1="16.5" y1="33.894699" x2="2.5" y2="33.894699" gradientUnits="userSpaceOnUse">
      <stop offset="0.649038" id="stop9"/>
      <stop offset="1" stop-opacity="0" id="stop10"/>
    </linearGradient><radialGradient id="gradient_ds_tr" cx="0" cy="0" r="1" gradientTransform="matrix(0.00843236,-14,14.0084,0.0189842,47.4916,18.5)" gradientUnits="userSpaceOnUse">
      <stop offset="0.65" id="stop11"/>
      <stop offset="1" stop-opacity="0" id="stop12"/>
    </radialGradient><linearGradient id="gradient_ds_t" x1="29.98" y1="18.5" x2="29.9158" y2="4.4998598" gradientUnits="userSpaceOnUse">
      <stop offset="0.649038" id="stop13"/>
      <stop offset="1" stop-opacity="0" id="stop14"/>
    </linearGradient><radialGradient id="gradient_ds_tl" cx="0" cy="0" r="1" gradientTransform="matrix(-0.00843236,-14,-14.0084,0.0189842,16.5084,18.5)" gradientUnits="userSpaceOnUse">
      <stop offset="0.65" id="stop15"/>
      <stop offset="1" stop-opacity="0" id="stop16"/>
    </radialGradient></defs>
  <metadata id="metadata2">
    <rdf:RDF>
      <cc:Work rdf:about="">
        <dc:format>image/svg+xml</dc:format>
        <dc:type rdf:resource="http://purl.org/dc/dcmitype/StillImage"/>
      </cc:Work>
    </rdf:RDF>
  </metadata>
  
  <g id="ds" opacity="0.25">
    <path id="ds-br" d="m 47.5,48.5 h 14 v 14 h -14 z" fill="url(#gradient_ds_br)" style="fill:url(#gradient_ds_br)"/>
    <path id="ds-b" d="m 16.5,48.5 h 31 v 14 h -31 z" fill="url(#gradient_ds_b)" style="fill:url(#gradient_ds_b)"/>
    <path id="ds-bl" d="m 2.5,48.5 h 14 v 14 h -14 z" fill="url(#gradient_ds_bl)" style="fill:url(#gradient_ds_bl)"/>
    <path id="ds-r" d="m 47.5,18.5 h 14 v 30 h -14 z" fill="url(#gradient_ds_r)" style="fill:url(#gradient_ds_r)"/>
    <path id="ds-l" d="m 2.5,18.5 h 14 v 30 h -14 z" fill="url(#gradient_ds_l)" style="fill:url(#gradient_ds_l)"/>
    <path id="ds-tr" d="m 47.5,4.5 h 14 v 14 h -14 z" fill="url(#gradient_ds_tr)" style="fill:url(#gradient_ds_tr)"/>
    <path id="ds-t" d="m 16.5,4.5 h 31 v 14 h -31 z" fill="url(#gradient_ds_t)" style="fill:url(#gradient_ds_t)"/>
    <path id="ds-tl" d="m 16.5,4.5 h -14 v 14 h 14 z" fill="url(#gradient_ds_tl)" style="fill:url(#gradient_ds_tl)"/>
  </g><rect x="4.5" y="4.5" width="55" height="55" fill="url(#linearGradient1053)" stroke-linecap="round" stroke-width="2.74441" id="bg" style="fill:url(#linearGradient1053)" rx="10"/>
  <g id="art"><path d="m 20.201481,21.554693 3.28489,-0.03704 c 0.187548,-0.0025 0.336241,-0.154057 0.334125,-0.341714 0,0 -0.07245,-2.779973 -0.08108,-3.554225 l 5.79e-4,-0.01625 c -0.0072,-0.634746 0.122349,-1.192238 0.35529,-1.656486 l 0.10674,-0.208785 c -0.0098,-0.0015 -0.02797,0.01247 -0.03553,0.0223 l -6.311935,6.323275 c -0.01058,0.01512 -0.0155,0.02684 -0.02117,0.04071 0.129644,-0.07041 0.309519,-0.158819 0.336052,-0.169969 0.553296,-0.256257 1.222286,-0.398181 2.032632,-0.40729 m 25.535747,-0.967351 c -0.274886,-1.379404 -1.10867,-2.045974 -1.866027,-2.307523 -0.813408,-0.282865 -2.459841,-0.559267 -4.520782,-0.775763 -1.665104,-0.179115 -3.61398,-0.141962 -4.793669,-0.09219 -0.150406,-0.955105 -0.841377,-1.820218 -1.604441,-2.117748 -2.035089,-0.77822 -5.162181,-0.550159 -5.96459,-0.317751 -0.632668,0.178661 -1.340398,0.550007 -1.723952,1.110409 -0.26057,0.376826 -0.426831,0.857705 -0.419385,1.522915 0.0038,0.373916 0.02457,1.262462 0.04418,2.052664 0.01965,0.800822 0.03821,1.501711 0.03821,1.501711 0.0079,0.706446 -0.563123,1.285103 -1.280038,1.309066 l -3.284701,0.03666 c -0.701116,0.0079 -1.236006,0.128242 -1.638382,0.315181 -0.408991,0.192306 -0.696316,0.438925 -0.911187,0.738118 -0.435183,0.58769 -0.500343,1.305588 -0.492104,2.037206 0,0 0.01172,0.586707 0.169822,1.749162 0.134822,0.903324 1.187173,7.160078 2.143714,9.044965 0.371505,0.739819 0.614412,1.043019 1.329853,1.362433 1.592082,0.6527 5.228324,1.359901 6.924609,1.555042 1.701463,0.192646 2.766782,0.634331 3.386826,-0.676473 0.0045,6.57e-4 0.126809,-0.328939 0.293002,-0.808344 0.532319,-1.653198 0.589051,-3.120326 0.577183,-4.180617 -0.0014,-0.104544 0.159843,-0.111045 0.160977,-0.0019 0.0083,0.749117 -0.106929,3.395405 1.92189,4.084616 0.80411,0.271337 2.459274,0.501326 4.144334,0.676057 1.525447,0.153112 2.633551,0.734188 2.676714,4.596374 0.02646,2.349514 -0.469124,2.666585 -3.072817,2.695612 -2.115292,0.02343 -2.919515,0.08973 -2.938225,-1.573183 -0.01512,-1.346295 1.332953,-1.2097 2.325438,-1.220888 0.441798,-0.006 0.116151,-0.328485 0.106816,-1.154819 -0.0091,-0.82093 0.505635,-1.305626 0.01209,-1.309443 -3.436262,-0.05416 -5.461524,0.05586 -5.413901,4.306478 0.04328,3.860864 1.547973,4.561224 6.427969,4.50642 3.824957,-0.04297 5.175031,-0.188224 6.7001,-5.048793 0.300637,-0.959981 1.027561,-3.888832 1.428992,-8.800425 0.251347,-3.100294 -0.414811,-12.448119 -0.888395,-14.81415 m -6.549673,10.416205 c -0.472526,-0.0155 -0.929782,0.02646 -1.360089,0.09899 0.119703,-0.958129 0.501666,-2.131885 1.899212,-2.095638 1.565133,0.03402 1.799695,1.492678 1.816099,2.479683 -0.663207,-0.283848 -1.471513,-0.461149 -2.360589,-0.483411" fill="#ffffff" stroke-width="1.46698" id="path3"/></g>
</svg>
