<?xml version="1.0" encoding="UTF-8" standalone="no"?>
<svg xmlns:inkscape="http://www.inkscape.org/namespaces/inkscape" xmlns:sodipodi="http://sodipodi.sourceforge.net/DTD/sodipodi-0.dtd" xmlns="http://www.w3.org/2000/svg" xmlns:svg="http://www.w3.org/2000/svg" xmlns:rdf="http://www.w3.org/1999/02/22-rdf-syntax-ns#" xmlns:cc="http://creativecommons.org/ns#" xmlns:dc="http://purl.org/dc/elements/1.1/" width="64" height="64" version="1.1" viewBox="0 0 64 64" id="svg9" sodipodi:docname="baidunetdisk.svg" inkscape:version="1.4.2 (ebf0e940d0, 2025-05-08)">
  <metadata id="metadata1">
    <rdf:RDF>
      <cc:Work rdf:about="">
        <dc:format>image/svg+xml</dc:format>
        <dc:type rdf:resource="http://purl.org/dc/dcmitype/StillImage"/>
      </cc:Work>
    </rdf:RDF>
  </metadata>
  <defs id="defs3">
    
    
    <filter id="filter1057" x="-0.026999999" y="-0.026999999" width="1.054" height="1.054" color-interpolation-filters="sRGB">
      <feGaussianBlur stdDeviation="0.61875" id="feGaussianBlur2"/>
    </filter>
    <linearGradient id="linearGradient1053" x1="-127" x2="-72" y1="60" y2="5" gradientTransform="matrix(1.0000071,0,0,1.0000071,131.49991,-0.5099817)" gradientUnits="userSpaceOnUse">
      <stop stop-color="#dee0e2" offset="0" id="stop2"/>
      <stop stop-color="#f1f3f5" stop-opacity=".99608" offset="1" id="stop3"/>
    </linearGradient>
    <filter id="filter1057-7" x="-0.026999999" y="-0.026999999" width="1.054" height="1.054" color-interpolation-filters="sRGB">
      <feGaussianBlur stdDeviation="0.61875" id="feGaussianBlur2-5"/>
    </filter>
  <radialGradient id="gradient_ds_br" cx="0" cy="0" r="1" gradientUnits="userSpaceOnUse" gradientTransform="matrix(13.998399,0.00477622,-0.00477841,14.004799,47.5016,48.4952)">
      <stop offset="0.65" id="stop1"/>
      <stop offset="1" stop-opacity="0" id="stop2"/>
    </radialGradient><linearGradient id="gradient_ds_b" x1="30.448999" y1="48.5" x2="30.492201" y2="62.500301" gradientUnits="userSpaceOnUse">
      <stop offset="0.653846" id="stop3"/>
      <stop offset="1" stop-opacity="0" id="stop4"/>
    </linearGradient><radialGradient id="gradient_ds_bl" cx="0" cy="0" r="1" gradientUnits="userSpaceOnUse" gradientTransform="matrix(0,14,-14,0,16.5,48.5)">
      <stop offset="0.65" id="stop5"/>
      <stop offset="1" stop-opacity="0" id="stop6"/>
    </radialGradient><linearGradient id="gradient_ds_r" x1="47.5" y1="33.5" x2="61.5" y2="33.5009" gradientUnits="userSpaceOnUse">
      <stop offset="0.649038" id="stop7"/>
      <stop offset="1" stop-opacity="0" id="stop8"/>
    </linearGradient><linearGradient id="gradient_ds_l" x1="16.5" y1="33.894699" x2="2.5" y2="33.894699" gradientUnits="userSpaceOnUse">
      <stop offset="0.649038" id="stop9"/>
      <stop offset="1" stop-opacity="0" id="stop10"/>
    </linearGradient><radialGradient id="gradient_ds_tr" cx="0" cy="0" r="1" gradientTransform="matrix(0.00843236,-14,14.0084,0.0189842,47.4916,18.5)" gradientUnits="userSpaceOnUse">
      <stop offset="0.65" id="stop11"/>
      <stop offset="1" stop-opacity="0" id="stop12"/>
    </radialGradient><linearGradient id="gradient_ds_t" x1="29.98" y1="18.5" x2="29.9158" y2="4.4998598" gradientUnits="userSpaceOnUse">
      <stop offset="0.649038" id="stop13"/>
      <stop offset="1" stop-opacity="0" id="stop14"/>
    </linearGradient><radialGradient id="gradient_ds_tl" cx="0" cy="0" r="1" gradientTransform="matrix(-0.00843236,-14,-14.0084,0.0189842,16.5084,18.5)" gradientUnits="userSpaceOnUse">
      <stop offset="0.65" id="stop15"/>
      <stop offset="1" stop-opacity="0" id="stop16"/>
    </radialGradient></defs>
  
  <g id="ds" opacity="0.25">
    <path id="ds-br" d="m 47.5,48.5 h 14 v 14 h -14 z" fill="url(#gradient_ds_br)" style="fill:url(#gradient_ds_br)"/>
    <path id="ds-b" d="m 16.5,48.5 h 31 v 14 h -31 z" fill="url(#gradient_ds_b)" style="fill:url(#gradient_ds_b)"/>
    <path id="ds-bl" d="m 2.5,48.5 h 14 v 14 h -14 z" fill="url(#gradient_ds_bl)" style="fill:url(#gradient_ds_bl)"/>
    <path id="ds-r" d="m 47.5,18.5 h 14 v 30 h -14 z" fill="url(#gradient_ds_r)" style="fill:url(#gradient_ds_r)"/>
    <path id="ds-l" d="m 2.5,18.5 h 14 v 30 h -14 z" fill="url(#gradient_ds_l)" style="fill:url(#gradient_ds_l)"/>
    <path id="ds-tr" d="m 47.5,4.5 h 14 v 14 h -14 z" fill="url(#gradient_ds_tr)" style="fill:url(#gradient_ds_tr)"/>
    <path id="ds-t" d="m 16.5,4.5 h 31 v 14 h -31 z" fill="url(#gradient_ds_t)" style="fill:url(#gradient_ds_t)"/>
    <path id="ds-tl" d="m 16.5,4.5 h -14 v 14 h 14 z" fill="url(#gradient_ds_tl)" style="fill:url(#gradient_ds_tl)"/>
  </g><rect x="4.5" y="4.5" width="55" height="55" fill="url(#linearGradient1053)" stroke-linecap="round" stroke-width="2.74437" id="bg" style="fill:url(#linearGradient1053)" rx="10"/>
  <g id="art"><g transform="matrix(3.4037584,0,0,3.4037584,3.091979,-950.11635)" id="g7">
    <g transform="matrix(0.82209,0,0,0.82209,-29.112,51.322)" id="g6">
      <g transform="matrix(0.13037,0,0,-0.13037,27.897,327.71)" id="g5">
        <path d="m 118.5,333.49 c -6.092,-6.092 -8.517,-14.46 -7.278,-22.366 -3.211,0.495 -6.498,0.385 -9.676,-0.33 h -0.001 c -0.266,-0.06 -0.529,-0.122 -0.79,-0.19 -4.335,-1.119 -8.437,-3.375 -11.831,-6.769 -10.123,-10.123 -10.123,-26.535 0,-36.658 5.702,-5.702 13.401,-8.193 20.847,-7.469 5.242,0.509 10.36,2.61 14.567,6.305 l 2.408,2.407 14.04,14.041 14.372,14.371 0.04,0.041 c 6.255,6.254 16.397,6.254 22.654,0 4.967,-4.969 5.99,-12.389 3.066,-18.365 -0.532,-1.088 -1.196,-2.131 -1.99,-3.101 -0.335,-0.409 -0.693,-0.806 -1.076,-1.188 -6.257,-6.257 -16.399,-6.257 -22.654,0 l -0.028,-0.027 c -0.904,0.988 -2.176,1.63 -3.621,1.63 -2.735,0 -4.951,-2.216 -4.951,-4.951 0,-1.444 0.642,-2.716 1.631,-3.622 l -0.034,-0.033 c 10.124,-10.123 26.535,-10.123 36.658,0 1.266,1.266 2.372,2.63 3.32,4.067 6.645,10.06 5.537,23.733 -3.32,32.591 -4.276,4.275 -9.675,6.745 -15.246,7.409 -2.383,0.282 -4.797,0.237 -7.168,-0.14 0.365,2.35 0.409,4.741 0.128,7.101 -0.665,5.572 -3.133,10.969 -7.409,15.246 -5.061,5.062 -11.695,7.593 -18.329,7.593 -6.634,0 -13.268,-2.531 -18.329,-7.593 m 7.782,-30.383 c -0.002,0.002 -0.003,0.004 -0.006,0.006 -0.264,0.228 -0.521,0.469 -0.773,0.722 -0.242,0.242 -0.474,0.489 -0.693,0.741 -5.555,6.291 -5.323,15.898 0.693,21.913 6.255,6.257 16.397,6.257 22.654,0 6.241,-6.244 6.254,-16.359 0.038,-22.615 0.031,0.03 0.061,0.06 0.092,0.09 l -0.328,-0.328 c 0.066,0.066 0.132,0.134 0.198,0.199 -3.128,-3.127 -7.228,-4.691 -11.327,-4.691 -3.768,-0.001 -7.535,1.321 -10.548,3.963 M 95.924,274.179 c -6.257,6.256 -6.257,16.399 0,22.653 2.151,2.151 4.761,3.564 7.513,4.234 4.935,1.205 10.329,0.035 14.367,-3.511 0.264,-0.228 0.522,-0.471 0.775,-0.723 0.241,-0.241 0.473,-0.488 0.692,-0.74 5.268,-5.966 5.332,-14.913 0.193,-20.951 -0.278,-0.33 -0.574,-0.652 -0.885,-0.962 -0.311,-0.312 -0.633,-0.608 -0.963,-0.886 -2.982,-2.537 -6.674,-3.806 -10.365,-3.806 -4.1,0 -8.198,1.564 -11.327,4.692" fill="#1793e6" id="path4"/>
        <path d="m 152.82,314.48 0.003,-0.144 c -0.381,-6.141 -4.408,-10.197 -4.408,-10.197 l -0.019,-0.016 -0.473,-0.474 c 0.066,0.067 0.132,0.133 0.198,0.2 -6.002,-6.003 -15.584,-6.246 -21.876,-0.728 -0.001,0.001 -0.002,0.003 -0.005,0.005 -0.264,0.229 -0.521,0.47 -0.773,0.723 -0.242,0.241 -0.474,0.488 -0.693,0.74 0,0 -3.742,3.877 -3.978,9.891 0,2.734 -2.217,4.95 -4.951,4.95 -2.733,0 -4.95,-2.216 -4.95,-4.95 0,-0.184 0.085,-0.339 0.104,-0.517 l -0.077,-0.005 c 0,0 0.183,-2.204 0.285,-2.826 -0.007,0 -0.013,0.004 -0.02,0.005 0.772,-4.924 2.967,-9.668 6.581,-13.568 0.264,-0.23 0.522,-0.47 0.774,-0.723 0.242,-0.241 0.475,-0.489 0.693,-0.741 3.909,-3.606 8.661,-5.789 13.587,-6.547 0.297,-0.046 0.593,-0.087 0.889,-0.121 2.383,-0.283 4.795,-0.238 7.167,0.139 5.215,0.829 10.225,3.25 14.244,7.27 l 0.04,0.039 c 4.011,4.032 6.425,9.05 7.241,14.272 0.361,1.111 0.333,3.179 0.333,3.179 h -0.029 c 0.001,0.051 0.029,0.092 0.029,0.144 0,2.734 -2.221,4.95 -4.958,4.95 -2.738,0 -4.958,-2.216 -4.958,-4.95" fill="#ff4444" id="path5"/>
      </g>
    </g>
  </g><g transform="matrix(4.235422,0,0,3.779602,-2.2495057,-0.03971606)" fill-rule="evenodd" stroke-width="0.26458" id="g8">
    <rect x="5.7726002" y="14.953" width="2.6458001" height="0.79373002" rx="0" ry="0.39686999" fill="#ff4444" style="paint-order:stroke fill markers" id="rect7"/>
    <rect x="7.7547002" y="14.953" width="2.6458001" height="0.79373002" rx="0" ry="0.39686999" fill="#1793e6" style="paint-order:stroke fill markers" id="rect8"/>
  </g></g>
  
</svg>
