<?xml version="1.0" encoding="UTF-8" standalone="no"?>
<svg xmlns:inkscape="http://www.inkscape.org/namespaces/inkscape" xmlns:sodipodi="http://sodipodi.sourceforge.net/DTD/sodipodi-0.dtd" xmlns="http://www.w3.org/2000/svg" xmlns:svg="http://www.w3.org/2000/svg" width="64" height="64" version="1.1" id="svg1" sodipodi:docname="Binance.svg" inkscape:version="1.3 (0e150ed6c4, 2023-07-21)">
  <defs id="defs1">
    <filter id="filter2076-3" x="-0.048000001" y="-0.048000001" width="1.096" height="1.096" color-interpolation-filters="sRGB">
      <feGaussianBlur stdDeviation="1.1" id="feGaussianBlur1041"/>
    </filter>
    <linearGradient id="linearGradient2070-6" x1="145" x2="200" y1="59" y2="4" gradientTransform="translate(-140.5,0.50000119)" gradientUnits="userSpaceOnUse">
      <stop stop-color="#ffc841" offset="0" id="stop1034"/>
      <stop stop-color="#ffbe37" offset=".4925" id="stop1036"/>
      <stop stop-color="#ffc841" offset="1" id="stop1038"/>
    </linearGradient>
    <filter color-interpolation-filters="sRGB" height="1.184088" width="1.184088" y="-0.092043995" x="-0.092043995" id="filter1091">
      <feGaussianBlur id="feGaussianBlur22" stdDeviation="0.30215974"/>
    </filter>
    <filter color-interpolation-filters="sRGB" height="1.184088" width="1.184088" y="-0.092043996" x="-0.092043996" id="filter1">
      <feGaussianBlur id="feGaussianBlur1" stdDeviation="0.30215974"/>
    </filter>
    <linearGradient gradientUnits="userSpaceOnUse" y2="-13.703" y1="-5.5948" x2="16.465" x1="8.5858002" id="linearGradient1063" gradientTransform="matrix(3.7796021,0,0,3.7796021,-16.895198,66.00319)">
      <stop id="stop12" offset="0" stop-color="#f5f5f5"/>
      <stop id="stop14" offset="1" stop-color="#fff"/>
    </linearGradient>
    <linearGradient gradientUnits="userSpaceOnUse" y2="-11.992" y1="-5.3551998" x2="15.926" x1="8.9222002" id="linearGradient1071" gradientTransform="matrix(3.7796021,0,0,3.7796021,-16.895198,66.00319)">
      <stop id="stop17" offset="0" stop-color="#ffdc96"/>
      <stop id="stop19" offset="1" stop-color="#fff"/>
    </linearGradient>
  <radialGradient id="gradient_ds_br" cx="0" cy="0" r="1" gradientUnits="userSpaceOnUse" gradientTransform="matrix(13.998399,0.00477622,-0.00477841,14.004799,47.5016,48.4952)">
      <stop offset="0.65" id="stop1"/>
      <stop offset="1" stop-opacity="0" id="stop2"/>
    </radialGradient><linearGradient id="gradient_ds_b" x1="30.448999" y1="48.5" x2="30.492201" y2="62.500301" gradientUnits="userSpaceOnUse">
      <stop offset="0.653846" id="stop3"/>
      <stop offset="1" stop-opacity="0" id="stop4"/>
    </linearGradient><radialGradient id="gradient_ds_bl" cx="0" cy="0" r="1" gradientUnits="userSpaceOnUse" gradientTransform="matrix(0,14,-14,0,16.5,48.5)">
      <stop offset="0.65" id="stop5"/>
      <stop offset="1" stop-opacity="0" id="stop6"/>
    </radialGradient><linearGradient id="gradient_ds_r" x1="47.5" y1="33.5" x2="61.5" y2="33.5009" gradientUnits="userSpaceOnUse">
      <stop offset="0.649038" id="stop7"/>
      <stop offset="1" stop-opacity="0" id="stop8"/>
    </linearGradient><linearGradient id="gradient_ds_l" x1="16.5" y1="33.894699" x2="2.5" y2="33.894699" gradientUnits="userSpaceOnUse">
      <stop offset="0.649038" id="stop9"/>
      <stop offset="1" stop-opacity="0" id="stop10"/>
    </linearGradient><radialGradient id="gradient_ds_tr" cx="0" cy="0" r="1" gradientTransform="matrix(0.00843236,-14,14.0084,0.0189842,47.4916,18.5)" gradientUnits="userSpaceOnUse">
      <stop offset="0.65" id="stop11"/>
      <stop offset="1" stop-opacity="0" id="stop12"/>
    </radialGradient><linearGradient id="gradient_ds_t" x1="29.98" y1="18.5" x2="29.9158" y2="4.4998598" gradientUnits="userSpaceOnUse">
      <stop offset="0.649038" id="stop13"/>
      <stop offset="1" stop-opacity="0" id="stop14"/>
    </linearGradient><radialGradient id="gradient_ds_tl" cx="0" cy="0" r="1" gradientTransform="matrix(-0.00843236,-14,-14.0084,0.0189842,16.5084,18.5)" gradientUnits="userSpaceOnUse">
      <stop offset="0.65" id="stop15"/>
      <stop offset="1" stop-opacity="0" id="stop16"/>
    </radialGradient></defs>
  
  <g id="ds" opacity="0.25">
    <path id="ds-br" d="m 47.5,48.5 h 14 v 14 h -14 z" fill="url(#gradient_ds_br)" style="fill:url(#gradient_ds_br)"/>
    <path id="ds-b" d="m 16.5,48.5 h 31 v 14 h -31 z" fill="url(#gradient_ds_b)" style="fill:url(#gradient_ds_b)"/>
    <path id="ds-bl" d="m 2.5,48.5 h 14 v 14 h -14 z" fill="url(#gradient_ds_bl)" style="fill:url(#gradient_ds_bl)"/>
    <path id="ds-r" d="m 47.5,18.5 h 14 v 30 h -14 z" fill="url(#gradient_ds_r)" style="fill:url(#gradient_ds_r)"/>
    <path id="ds-l" d="m 2.5,18.5 h 14 v 30 h -14 z" fill="url(#gradient_ds_l)" style="fill:url(#gradient_ds_l)"/>
    <path id="ds-tr" d="m 47.5,4.5 h 14 v 14 h -14 z" fill="url(#gradient_ds_tr)" style="fill:url(#gradient_ds_tr)"/>
    <path id="ds-t" d="m 16.5,4.5 h 31 v 14 h -31 z" fill="url(#gradient_ds_t)" style="fill:url(#gradient_ds_t)"/>
    <path id="ds-tl" d="m 16.5,4.5 h -14 v 14 h 14 z" fill="url(#gradient_ds_tl)" style="fill:url(#gradient_ds_tl)"/>
  </g><rect id="bg" rx="10" height="55" width="55" y="4.5" x="4.5" style="fill:#ffbe37;fill-opacity:1"/>
  <g id="art"><path d="m23.795 32-3.366 3.39-3.39-3.39 3.39-3.39ZM32 23.795l5.797 5.797 3.39-3.39-5.798-5.773L32 17.039l-3.39 3.39-5.773 5.774 3.39 3.39zm11.571 4.816L40.205 32l3.39 3.39L46.96 32ZM32 40.205l-5.797-5.797-3.366 3.39 5.797 5.796L32 46.96l3.39-3.389 5.797-5.797-3.39-3.366Zm0-4.816L35.39 32 32 28.61 28.61 32Z" style="fill:#814b13;fill-opacity:1;stroke-width:.45834726" id="path1"/></g>
</svg>
