<?xml version="1.0" encoding="UTF-8" standalone="no"?>
<svg xmlns:inkscape="http://www.inkscape.org/namespaces/inkscape" xmlns:sodipodi="http://sodipodi.sourceforge.net/DTD/sodipodi-0.dtd" xmlns="http://www.w3.org/2000/svg" xmlns:svg="http://www.w3.org/2000/svg" xmlns:rdf="http://www.w3.org/1999/02/22-rdf-syntax-ns#" xmlns:cc="http://creativecommons.org/ns#" xmlns:dc="http://purl.org/dc/elements/1.1/" width="64" height="64" version="1.1" viewBox="0 0 64 64" id="svg6" sodipodi:docname="blender.svg" inkscape:version="1.4.2 (ebf0e940d0, 2025-05-08)">
  <defs id="defs2">
    <filter id="filter1057" x="-0.026999999" y="-0.026999999" width="1.054" height="1.054" color-interpolation-filters="sRGB">
      <feGaussianBlur stdDeviation="0.61875" id="feGaussianBlur1"/>
    </filter>
    <linearGradient id="linearGradient1053" x1="-127" x2="-80.658997" y1="60" y2="13.659" gradientTransform="matrix(1.0000071,0,0,1.0000071,131.50445,-0.50986791)" gradientUnits="userSpaceOnUse">
      <stop stop-color="#ff7d1e" offset="0" id="stop1"/>
      <stop stop-color="#ffa53c" offset="1" id="stop2"/>
    </linearGradient>
    <filter id="filter1057-3" x="-0.026999999" y="-0.026999999" width="1.054" height="1.054" color-interpolation-filters="sRGB">
      <feGaussianBlur stdDeviation="0.61875" id="feGaussianBlur1-6"/>
    </filter>
  <radialGradient id="gradient_ds_br" cx="0" cy="0" r="1" gradientUnits="userSpaceOnUse" gradientTransform="matrix(13.998399,0.00477622,-0.00477841,14.004799,47.5016,48.4952)">
      <stop offset="0.65" id="stop1"/>
      <stop offset="1" stop-opacity="0" id="stop2"/>
    </radialGradient><linearGradient id="gradient_ds_b" x1="30.448999" y1="48.5" x2="30.492201" y2="62.500301" gradientUnits="userSpaceOnUse">
      <stop offset="0.653846" id="stop3"/>
      <stop offset="1" stop-opacity="0" id="stop4"/>
    </linearGradient><radialGradient id="gradient_ds_bl" cx="0" cy="0" r="1" gradientUnits="userSpaceOnUse" gradientTransform="matrix(0,14,-14,0,16.5,48.5)">
      <stop offset="0.65" id="stop5"/>
      <stop offset="1" stop-opacity="0" id="stop6"/>
    </radialGradient><linearGradient id="gradient_ds_r" x1="47.5" y1="33.5" x2="61.5" y2="33.5009" gradientUnits="userSpaceOnUse">
      <stop offset="0.649038" id="stop7"/>
      <stop offset="1" stop-opacity="0" id="stop8"/>
    </linearGradient><linearGradient id="gradient_ds_l" x1="16.5" y1="33.894699" x2="2.5" y2="33.894699" gradientUnits="userSpaceOnUse">
      <stop offset="0.649038" id="stop9"/>
      <stop offset="1" stop-opacity="0" id="stop10"/>
    </linearGradient><radialGradient id="gradient_ds_tr" cx="0" cy="0" r="1" gradientTransform="matrix(0.00843236,-14,14.0084,0.0189842,47.4916,18.5)" gradientUnits="userSpaceOnUse">
      <stop offset="0.65" id="stop11"/>
      <stop offset="1" stop-opacity="0" id="stop12"/>
    </radialGradient><linearGradient id="gradient_ds_t" x1="29.98" y1="18.5" x2="29.9158" y2="4.4998598" gradientUnits="userSpaceOnUse">
      <stop offset="0.649038" id="stop13"/>
      <stop offset="1" stop-opacity="0" id="stop14"/>
    </linearGradient><radialGradient id="gradient_ds_tl" cx="0" cy="0" r="1" gradientTransform="matrix(-0.00843236,-14,-14.0084,0.0189842,16.5084,18.5)" gradientUnits="userSpaceOnUse">
      <stop offset="0.65" id="stop15"/>
      <stop offset="1" stop-opacity="0" id="stop16"/>
    </radialGradient></defs>
  <metadata id="metadata2">
    <rdf:RDF>
      <cc:Work rdf:about="">
        <dc:format>image/svg+xml</dc:format>
        <dc:type rdf:resource="http://purl.org/dc/dcmitype/StillImage"/>
      </cc:Work>
    </rdf:RDF>
  </metadata>
  
  <g id="ds" opacity="0.25">
    <path id="ds-br" d="m 47.5,48.5 h 14 v 14 h -14 z" fill="url(#gradient_ds_br)" style="fill:url(#gradient_ds_br)"/>
    <path id="ds-b" d="m 16.5,48.5 h 31 v 14 h -31 z" fill="url(#gradient_ds_b)" style="fill:url(#gradient_ds_b)"/>
    <path id="ds-bl" d="m 2.5,48.5 h 14 v 14 h -14 z" fill="url(#gradient_ds_bl)" style="fill:url(#gradient_ds_bl)"/>
    <path id="ds-r" d="m 47.5,18.5 h 14 v 30 h -14 z" fill="url(#gradient_ds_r)" style="fill:url(#gradient_ds_r)"/>
    <path id="ds-l" d="m 2.5,18.5 h 14 v 30 h -14 z" fill="url(#gradient_ds_l)" style="fill:url(#gradient_ds_l)"/>
    <path id="ds-tr" d="m 47.5,4.5 h 14 v 14 h -14 z" fill="url(#gradient_ds_tr)" style="fill:url(#gradient_ds_tr)"/>
    <path id="ds-t" d="m 16.5,4.5 h 31 v 14 h -31 z" fill="url(#gradient_ds_t)" style="fill:url(#gradient_ds_t)"/>
    <path id="ds-tl" d="m 16.5,4.5 h -14 v 14 h 14 z" fill="url(#gradient_ds_tl)" style="fill:url(#gradient_ds_tl)"/>
  </g><rect x="4.5" y="4.5" width="55" height="55" fill="url(#linearGradient1053)" stroke-linecap="round" stroke-width="2.74441" id="bg" style="fill:url(#linearGradient1053)" rx="10"/>
  <g id="art"><g fill="#ffffff" id="g5" transform="matrix(3.779602,0,0,3.779602,32.357929,-23.357562)">
    <path d="m -0.53013,9.3549 v 5.291e-4 a 0.72831,0.72831 0 0 0 -0.51676,0.21446 0.72903,0.72903 0 0 0 0,1.0334999 l 2.0299,2.0298 h -5.2917 a 0.72903,0.72903 0 0 0 -0.7307,0.73019 0.72903,0.72903 0 0 0 0.7307,0.7307 c 0.76103,-0.0021 1.8398,-0.0026 2.8732,-0.0026 l -3.744,3.7434 a 0.72903,0.72903 0 0 0 0,1.033 0.72903,0.72903 0 0 0 1.033,0 c 0.54979,-0.55192 1.3368,-1.3394 2.0836,-2.0862 a 3.6529,3.6529 0 0 0 3.6148,3.1564 c 2.0171,0 3.653,-1.6359 3.653,-3.653 a 3.6529,3.6529 0 0 0 -1.2521,-2.7497 1824.3,1824.3 0 0 1 -3.9662,-3.9655999 0.72831,0.72831 0 0 0 -0.51676,-0.21497 z m 2.1218,6.0611 a 0.85278,0.85278 0 0 1 0.00259,0 0.85292,0.85292 0 0 1 0,1.7058 0.85292,0.85292 0 0 1 -0.00259,-1.7058 z" opacity="0.3" stroke-linecap="round" stroke-width="1.2298" id="path3"/>
    <path d="m 1.5917,13.46 a 2.8066,2.8066 0 0 0 -2.8065,2.8065 2.8066,2.8066 0 0 0 2.8065,2.8065 2.8066,2.8066 0 0 0 2.806,-2.8065 2.8066,2.8066 0 0 0 -2.806,-2.8065 z m -0.00259,1.7089 a 1.0974,1.0974 0 0 1 0.00259,0 1.0974,1.0974 0 0 1 1.0976,1.0976 1.0974,1.0974 0 0 1 -1.0976,1.0976 1.0974,1.0974 0 0 1 -1.0981,-1.0976 1.0974,1.0974 0 0 1 1.0955,-1.0976 z" opacity="0.7" stroke-linecap="round" stroke-width="1.2298" id="path4"/>
    <path d="M 1.5917,14.078 A 2.1921,2.1921 0 0 0 -0.6004,16.2693 2.1921,2.1921 0 0 0 1.5917,18.4614 2.1921,2.1921 0 0 0 3.783,16.2693 2.1921,2.1921 0 0 0 1.5917,14.078 Z m 0,1.3343 A 0.85705,0.85705 0 0 1 2.44875,16.26935 0.85705,0.85705 0 0 1 1.5917,17.1264 0.85705,0.85705 0 0 1 0.73394,16.26935 0.85705,0.85705 0 0 1 1.5917,15.4123 Z" stroke-width="0.71124" id="path5"/>
  </g><circle cx="38.37392" cy="38.132778" r="4.2392015" color="#000000" display="block" fill="#14a0ff" overflow="visible" stroke-width="2.6882" style="isolation:auto;mix-blend-mode:normal" paint-order="fill markers stroke" id="circle5"/></g>
  
</svg>
