<?xml version="1.0" encoding="UTF-8" standalone="no"?>
<svg xmlns:inkscape="http://www.inkscape.org/namespaces/inkscape" xmlns:sodipodi="http://sodipodi.sourceforge.net/DTD/sodipodi-0.dtd" xmlns="http://www.w3.org/2000/svg" xmlns:svg="http://www.w3.org/2000/svg" xmlns:rdf="http://www.w3.org/1999/02/22-rdf-syntax-ns#" xmlns:cc="http://creativecommons.org/ns#" xmlns:dc="http://purl.org/dc/elements/1.1/" width="64" height="64" version="1.1" viewBox="0 0 64 64" id="svg10" sodipodi:docname="brasero.svg" inkscape:version="1.4.2 (ebf0e940d0, 2025-05-08)">
  <sodipodi:namedview id="namedview1" pagecolor="#ffffff" bordercolor="#000000" borderopacity="0.25" inkscape:showpageshadow="2" inkscape:pageopacity="0.0" inkscape:pagecheckerboard="0" inkscape:deskcolor="#d1d1d1" inkscape:current-layer="svg10"/>
  <defs id="defs6">
    <filter id="filter1057" x="-0.026999999" y="-0.026999999" width="1.054" height="1.054" color-interpolation-filters="sRGB">
      <feGaussianBlur stdDeviation="0.61875" id="feGaussianBlur1"/>
    </filter>
    <linearGradient id="linearGradient1053" x1="-127" x2="-72" y1="60" y2="5" gradientTransform="matrix(0.26458,0,0,0.26458,37.524,-0.28613)" gradientUnits="userSpaceOnUse">
      <stop stop-color="#323741" offset="0" id="stop1"/>
      <stop stop-color="#465064" offset="1" id="stop2"/>
    </linearGradient>
    <filter id="filter957" x="-0.062446792" y="-0.057737719" width="1.1248935" height="1.1154754" color-interpolation-filters="sRGB">
      <feGaussianBlur stdDeviation="0.97449244" id="feGaussianBlur2"/>
    </filter>
    <linearGradient id="linearGradient927" x1="22.676001" x2="23.372999" y1="47.124001" y2="5.5176001" gradientTransform="matrix(0.31633,0,0,0.31633,3.6072,0.71272)" gradientUnits="userSpaceOnUse">
      <stop stop-color="#ff9913" offset="0" id="stop3"/>
      <stop stop-color="#faee18" offset="1" id="stop4"/>
    </linearGradient>
    <linearGradient id="linearGradient935" x1="24.677" x2="24.989" y1="45.613998" y2="25.618999" gradientTransform="matrix(0.31633,0,0,0.31633,3.6071,0.71272)" gradientUnits="userSpaceOnUse">
      <stop stop-color="#fade17" offset="0" id="stop5"/>
      <stop stop-color="#fade17" stop-opacity="0" offset="1" id="stop6"/>
    </linearGradient>
    <filter id="filter1057-7" x="-0.026999999" y="-0.026999999" width="1.054" height="1.054" color-interpolation-filters="sRGB">
      <feGaussianBlur stdDeviation="0.61875" id="feGaussianBlur1-0"/>
    </filter>
    <linearGradient id="linearGradient1053-9" x1="-127" x2="-72" y1="60" y2="5" gradientTransform="matrix(1.0000071,0,0,1.0000071,131.50407,-0.51001949)" gradientUnits="userSpaceOnUse">
      <stop stop-color="#323741" offset="0" id="stop1-3"/>
      <stop stop-color="#465064" offset="1" id="stop2-6"/>
    </linearGradient>
    <filter id="filter957-0" x="-0.06244679" y="-0.05773772" width="1.1248936" height="1.1154754" color-interpolation-filters="sRGB">
      <feGaussianBlur stdDeviation="0.97449244" id="feGaussianBlur2-6"/>
    </filter>
    <linearGradient id="linearGradient927-2" x1="22.676001" x2="23.372999" y1="47.124001" y2="5.5176001" gradientTransform="matrix(0.31633,0,0,0.31633,3.6072,0.71272)" gradientUnits="userSpaceOnUse">
      <stop stop-color="#ff9913" offset="0" id="stop3-6"/>
      <stop stop-color="#faee18" offset="1" id="stop4-1"/>
    </linearGradient>
    <linearGradient id="linearGradient935-8" x1="24.677" x2="24.989" y1="45.613998" y2="25.618999" gradientTransform="matrix(0.31633,0,0,0.31633,3.6071,0.71272)" gradientUnits="userSpaceOnUse">
      <stop stop-color="#fade17" offset="0" id="stop5-7"/>
      <stop stop-color="#fade17" stop-opacity="0" offset="1" id="stop6-9"/>
    </linearGradient>
  <radialGradient id="gradient_ds_br" cx="0" cy="0" r="1" gradientUnits="userSpaceOnUse" gradientTransform="matrix(13.998399,0.00477622,-0.00477841,14.004799,47.5016,48.4952)">
      <stop offset="0.65" id="stop1"/>
      <stop offset="1" stop-opacity="0" id="stop2"/>
    </radialGradient><linearGradient id="gradient_ds_b" x1="30.448999" y1="48.5" x2="30.492201" y2="62.500301" gradientUnits="userSpaceOnUse">
      <stop offset="0.653846" id="stop3"/>
      <stop offset="1" stop-opacity="0" id="stop4"/>
    </linearGradient><radialGradient id="gradient_ds_bl" cx="0" cy="0" r="1" gradientUnits="userSpaceOnUse" gradientTransform="matrix(0,14,-14,0,16.5,48.5)">
      <stop offset="0.65" id="stop5"/>
      <stop offset="1" stop-opacity="0" id="stop6"/>
    </radialGradient><linearGradient id="gradient_ds_r" x1="47.5" y1="33.5" x2="61.5" y2="33.5009" gradientUnits="userSpaceOnUse">
      <stop offset="0.649038" id="stop7"/>
      <stop offset="1" stop-opacity="0" id="stop8"/>
    </linearGradient><linearGradient id="gradient_ds_l" x1="16.5" y1="33.894699" x2="2.5" y2="33.894699" gradientUnits="userSpaceOnUse">
      <stop offset="0.649038" id="stop9"/>
      <stop offset="1" stop-opacity="0" id="stop10"/>
    </linearGradient><radialGradient id="gradient_ds_tr" cx="0" cy="0" r="1" gradientTransform="matrix(0.00843236,-14,14.0084,0.0189842,47.4916,18.5)" gradientUnits="userSpaceOnUse">
      <stop offset="0.65" id="stop11"/>
      <stop offset="1" stop-opacity="0" id="stop12"/>
    </radialGradient><linearGradient id="gradient_ds_t" x1="29.98" y1="18.5" x2="29.9158" y2="4.4998598" gradientUnits="userSpaceOnUse">
      <stop offset="0.649038" id="stop13"/>
      <stop offset="1" stop-opacity="0" id="stop14"/>
    </linearGradient><radialGradient id="gradient_ds_tl" cx="0" cy="0" r="1" gradientTransform="matrix(-0.00843236,-14,-14.0084,0.0189842,16.5084,18.5)" gradientUnits="userSpaceOnUse">
      <stop offset="0.65" id="stop15"/>
      <stop offset="1" stop-opacity="0" id="stop16"/>
    </radialGradient></defs>
  <metadata id="metadata6">
    <rdf:RDF>
      <cc:Work rdf:about="">
        <dc:format>image/svg+xml</dc:format>
        <dc:type rdf:resource="http://purl.org/dc/dcmitype/StillImage"/>
      </cc:Work>
    </rdf:RDF>
  </metadata>
  
  <g id="ds" opacity="0.25">
    <path id="ds-br" d="m 47.5,48.5 h 14 v 14 h -14 z" fill="url(#gradient_ds_br)" style="fill:url(#gradient_ds_br)"/>
    <path id="ds-b" d="m 16.5,48.5 h 31 v 14 h -31 z" fill="url(#gradient_ds_b)" style="fill:url(#gradient_ds_b)"/>
    <path id="ds-bl" d="m 2.5,48.5 h 14 v 14 h -14 z" fill="url(#gradient_ds_bl)" style="fill:url(#gradient_ds_bl)"/>
    <path id="ds-r" d="m 47.5,18.5 h 14 v 30 h -14 z" fill="url(#gradient_ds_r)" style="fill:url(#gradient_ds_r)"/>
    <path id="ds-l" d="m 2.5,18.5 h 14 v 30 h -14 z" fill="url(#gradient_ds_l)" style="fill:url(#gradient_ds_l)"/>
    <path id="ds-tr" d="m 47.5,4.5 h 14 v 14 h -14 z" fill="url(#gradient_ds_tr)" style="fill:url(#gradient_ds_tr)"/>
    <path id="ds-t" d="m 16.5,4.5 h 31 v 14 h -31 z" fill="url(#gradient_ds_t)" style="fill:url(#gradient_ds_t)"/>
    <path id="ds-tl" d="m 16.5,4.5 h -14 v 14 h 14 z" fill="url(#gradient_ds_tl)" style="fill:url(#gradient_ds_tl)"/>
  </g><rect x="4.5" y="4.5" width="55" height="55" fill="url(#linearGradient1053)" stroke-linecap="round" stroke-width="2.74444" id="bg" style="fill:url(#linearGradient1053-9)" rx="10"/>
  <g id="art"><path transform="matrix(1.1956015,0,0,1.1956015,2.915963,0.46905995)" d="M 21.779,6.494 21.781,6.5 c 4.339,7.07 0.479,8.239 -0.387,13.711 A 6,6 0 0 1 24.999,19 a 6,6 0 0 1 6,6 6,6 0 0 1 -6,6 6,6 0 0 1 -6,-6 6,6 0 0 1 0.936,-3.205 c -0.56,-0.8 -1.306,-1.436 -2.936,-1.795 4,7 -4.77,6.218 -3.938,12.313 -1.078,-0.297 -2.066,-2.305 -1.25,-4.781 -2.816,3.477 -1.814,6.471 0.188,9.471 -2,-2 -5.27,-1.994 -6.27,-4.807 -0.566,3.28 0.668,6.391 2.988,8.988 C 12.78,44.8 18.131,47 23.998,47 c 7.589,0 14.317,-3.677 18.506,-9.344 0.316,-0.875 0.507,-1.782 0.541,-2.711 -0.93,1.379 -5.05,4.051 -6.893,4.051 4.848,-4 5.852,-10 1.531,-15.75 0.32,3.75 -1.699,5.755 -3.469,7.03 2.77,-5.281 2.77,-11.297 -2.656,-16.594 0.434,1.297 0.766,2.313 0.469,3.5 0.301,-1.453 -4.03,-8.185 -10.25,-10.689 z M 25,22 a 3,3 0 0 0 -3,3 3,3 0 0 0 3,3 3,3 0 0 0 3,-3 3,3 0 0 0 -3,-3 z" filter="url(#filter957)" opacity="0.25" id="path7" style="filter:url(#filter957-0)"/><g stroke-width="0.31633" id="g9" transform="matrix(3.779602,0,0,3.779602,-10.321715,0.57143803)">
    <path d="m 10.18,2.4506 6.35e-4,0.0019 c 1.3726,2.2364 0.15152,2.6062 -0.12242,4.3371 a 1.898,1.898 0 0 1 1.1404,-0.38307 1.898,1.898 0 0 1 1.898,1.898 1.898,1.898 0 0 1 -1.898,1.898 1.898,1.898 0 0 1 -1.898,-1.898 1.898,1.898 0 0 1 0.29608,-1.0138 C 9.419555,7.03768 9.183575,6.83648 8.667955,6.72292 c 1.2653,2.2143 -1.5089,1.9669 -1.2457,3.895 -0.34099,-0.09395 -0.65354,-0.72914 -0.39542,-1.5124 -0.89078,1.0999 -0.57351,2.047 0.05947,2.9959 -0.63266,-0.63266 -1.6671,-0.63077 -1.9834,-1.5206 -0.19834,1.1489 0.30304,2.2333 1.1954,3.1017 1.2928,1.179 3.0124,1.898 4.9,1.898 0.9996,0 1.9521,-0.20182 2.8191,-0.56654 1.501,-0.74085 2.8344,-2.0571 2.8897,-3.5632 -0.29419,0.43621 -1.5975,1.2814 -2.1804,1.2814 1.5336,-1.2653 1.8512,-3.1633 0.4843,-4.9822 0.10123,1.1862 -0.53744,1.8205 -1.0973,2.2238 0.87623,-1.6705 0.87623,-3.5736 -0.84016,-5.2493 0.13729,0.41028 0.24231,0.73166 0.14836,1.1071 0.09522,-0.45964 -1.2748,-2.5892 -3.2424,-3.3813 z" fill="url(#linearGradient927)" id="path8" style="fill:url(#linearGradient927-2)"/>
    <path d="m 12.784,9.5693 c -0.63266,0.31633 -0.94899,0.94899 -0.63266,1.5816 -0.33341,-0.25022 -0.41502,-0.61463 -0.40458,-1.0306 a 1.898,1.898 0 0 1 -0.5463,0.08225 1.898,1.898 0 0 1 -1.2748,-0.49443 c -0.65986,0.68548 -1.2561,1.4181 -1.2561,2.3924 0,1.5816 1.0714,2.847 2.5901,2.847 h 0.05979 c 1.8164,-0.06168 2.8792,-2.1204 1.4039,-3.8554 -0.25338,-0.25939 -0.25718,-0.89015 0.06042,-1.5228 z" fill="url(#linearGradient935)" id="path9" style="fill:url(#linearGradient935-8)"/>
    <circle cx="11.199" cy="8.3046999" r="0.94898999" fill="#ffffff" opacity="0.5" id="circle9"/>
  </g></g>
  
</svg>
