<?xml version="1.0" encoding="UTF-8" standalone="no"?>
<svg xmlns:inkscape="http://www.inkscape.org/namespaces/inkscape" xmlns:sodipodi="http://sodipodi.sourceforge.net/DTD/sodipodi-0.dtd" xmlns="http://www.w3.org/2000/svg" xmlns:svg="http://www.w3.org/2000/svg" xmlns:rdf="http://www.w3.org/1999/02/22-rdf-syntax-ns#" xmlns:cc="http://creativecommons.org/ns#" xmlns:dc="http://purl.org/dc/elements/1.1/" width="64" height="64" version="1.1" viewBox="0 0 64 64" id="svg21" sodipodi:docname="calligrawords.svg" inkscape:version="1.4.2 (ebf0e940d0, 2025-05-08)">
  <sodipodi:namedview id="namedview1" pagecolor="#ffffff" bordercolor="#000000" borderopacity="0.25" inkscape:showpageshadow="2" inkscape:pageopacity="0.0" inkscape:pagecheckerboard="0" inkscape:deskcolor="#d1d1d1" inkscape:current-layer="svg21"/>
  <defs id="defs11">
    <filter id="filter1057-36" x="-0.026999999" y="-0.026999999" width="1.054" height="1.054" color-interpolation-filters="sRGB">
      <feGaussianBlur stdDeviation="0.61875" id="feGaussianBlur1"/>
    </filter>
    <linearGradient id="linearGradient1053-6-0" x1="-127" x2="-72" y1="60" y2="5" gradientTransform="matrix(1.0000449,0,0,1.0000449,131.50067,-0.51024645)" gradientUnits="userSpaceOnUse">
      <stop stop-color="#dee0e2" offset="0" id="stop1"/>
      <stop stop-color="#f1f3f5" stop-opacity=".99608" offset="1" id="stop2"/>
    </linearGradient>
    <linearGradient id="linearGradient2542" x1="-127" x2="-72" y1="20.136999" y2="5" gradientTransform="matrix(2.9448038,0,0,1.0000071,325.00787,-0.51024645)" gradientUnits="userSpaceOnUse">
      <stop stop-color="#ffc63f" offset="0" id="stop3"/>
      <stop stop-color="#ffc63f" offset="1" id="stop4"/>
    </linearGradient>
    <linearGradient id="linearGradient2835" x1="1.3315001" x2="15.65" y1="15.576" y2="1.17" gradientTransform="matrix(0.89814682,0,0,0.89814682,12.560751,22.552885)" gradientUnits="userSpaceOnUse">
      <stop stop-color="#ffc841" offset="0" id="stop5"/>
      <stop stop-color="#ffbe37" offset=".5167" id="stop6"/>
      <stop stop-color="#ffc841" offset="1" id="stop7"/>
    </linearGradient>
    <filter id="filter1091-3" x="-0.092043996" y="-0.092043996" width="1.184088" height="1.184088" color-interpolation-filters="sRGB">
      <feGaussianBlur stdDeviation="0.30215974" id="feGaussianBlur7"/>
    </filter>
    <linearGradient id="linearGradient2808" x1="8.5858002" x2="16.465" y1="-5.5948" y2="-13.703" gradientTransform="matrix(3.779602,0,0,3.779602,-7.8211309,73.819406)" gradientUnits="userSpaceOnUse">
      <stop stop-color="#f5f5f5" offset="0" id="stop8"/>
      <stop stop-color="#fff" offset="1" id="stop9"/>
    </linearGradient>
    <linearGradient id="linearGradient2810" x1="8.9222002" x2="15.926" y1="-5.3551998" y2="-11.992" gradientTransform="matrix(3.779602,0,0,3.779602,-7.8211309,73.819406)" gradientUnits="userSpaceOnUse">
      <stop stop-color="#ffdc96" offset="0" id="stop10"/>
      <stop stop-color="#fff" offset="1" id="stop11"/>
    </linearGradient>
    <filter id="filter1057-36-3" x="-0.026999999" y="-0.026999999" width="1.054" height="1.054" color-interpolation-filters="sRGB">
      <feGaussianBlur stdDeviation="0.61875" id="feGaussianBlur1-6"/>
    </filter>
    <filter id="filter1091-3-1" x="-0.092043995" y="-0.092043995" width="1.184088" height="1.184088" color-interpolation-filters="sRGB">
      <feGaussianBlur stdDeviation="0.30215974" id="feGaussianBlur7-2"/>
    </filter>
    <filter id="filter2" x="-0.092043996" y="-0.092043996" width="1.184088" height="1.184088" color-interpolation-filters="sRGB">
      <feGaussianBlur stdDeviation="0.30215974" id="feGaussianBlur2"/>
    </filter>
  <radialGradient id="gradient_ds_br" cx="0" cy="0" r="1" gradientUnits="userSpaceOnUse" gradientTransform="matrix(13.998399,0.00477622,-0.00477841,14.004799,47.5016,48.4952)">
      <stop offset="0.65" id="stop1"/>
      <stop offset="1" stop-opacity="0" id="stop2"/>
    </radialGradient><linearGradient id="gradient_ds_b" x1="30.448999" y1="48.5" x2="30.492201" y2="62.500301" gradientUnits="userSpaceOnUse">
      <stop offset="0.653846" id="stop3"/>
      <stop offset="1" stop-opacity="0" id="stop4"/>
    </linearGradient><radialGradient id="gradient_ds_bl" cx="0" cy="0" r="1" gradientUnits="userSpaceOnUse" gradientTransform="matrix(0,14,-14,0,16.5,48.5)">
      <stop offset="0.65" id="stop5"/>
      <stop offset="1" stop-opacity="0" id="stop6"/>
    </radialGradient><linearGradient id="gradient_ds_r" x1="47.5" y1="33.5" x2="61.5" y2="33.5009" gradientUnits="userSpaceOnUse">
      <stop offset="0.649038" id="stop7"/>
      <stop offset="1" stop-opacity="0" id="stop8"/>
    </linearGradient><linearGradient id="gradient_ds_l" x1="16.5" y1="33.894699" x2="2.5" y2="33.894699" gradientUnits="userSpaceOnUse">
      <stop offset="0.649038" id="stop9"/>
      <stop offset="1" stop-opacity="0" id="stop10"/>
    </linearGradient><radialGradient id="gradient_ds_tr" cx="0" cy="0" r="1" gradientTransform="matrix(0.00843236,-14,14.0084,0.0189842,47.4916,18.5)" gradientUnits="userSpaceOnUse">
      <stop offset="0.65" id="stop11"/>
      <stop offset="1" stop-opacity="0" id="stop12"/>
    </radialGradient><linearGradient id="gradient_ds_t" x1="29.98" y1="18.5" x2="29.9158" y2="4.4998598" gradientUnits="userSpaceOnUse">
      <stop offset="0.649038" id="stop13"/>
      <stop offset="1" stop-opacity="0" id="stop14"/>
    </linearGradient><radialGradient id="gradient_ds_tl" cx="0" cy="0" r="1" gradientTransform="matrix(-0.00843236,-14,-14.0084,0.0189842,16.5084,18.5)" gradientUnits="userSpaceOnUse">
      <stop offset="0.65" id="stop15"/>
      <stop offset="1" stop-opacity="0" id="stop16"/>
    </radialGradient></defs>
  <metadata id="metadata11">
    <rdf:RDF>
      <cc:Work rdf:about="">
        <dc:format>image/svg+xml</dc:format>
        <dc:type rdf:resource="http://purl.org/dc/dcmitype/StillImage"/>
      </cc:Work>
    </rdf:RDF>
  </metadata>
  
  <g id="ds" opacity="0.25">
    <path id="ds-br" d="m 47.5,48.5 h 14 v 14 h -14 z" fill="url(#gradient_ds_br)" style="fill:url(#gradient_ds_br)"/>
    <path id="ds-b" d="m 16.5,48.5 h 31 v 14 h -31 z" fill="url(#gradient_ds_b)" style="fill:url(#gradient_ds_b)"/>
    <path id="ds-bl" d="m 2.5,48.5 h 14 v 14 h -14 z" fill="url(#gradient_ds_bl)" style="fill:url(#gradient_ds_bl)"/>
    <path id="ds-r" d="m 47.5,18.5 h 14 v 30 h -14 z" fill="url(#gradient_ds_r)" style="fill:url(#gradient_ds_r)"/>
    <path id="ds-l" d="m 2.5,18.5 h 14 v 30 h -14 z" fill="url(#gradient_ds_l)" style="fill:url(#gradient_ds_l)"/>
    <path id="ds-tr" d="m 47.5,4.5 h 14 v 14 h -14 z" fill="url(#gradient_ds_tr)" style="fill:url(#gradient_ds_tr)"/>
    <path id="ds-t" d="m 16.5,4.5 h 31 v 14 h -31 z" fill="url(#gradient_ds_t)" style="fill:url(#gradient_ds_t)"/>
    <path id="ds-tl" d="m 16.5,4.5 h -14 v 14 h 14 z" fill="url(#gradient_ds_tl)" style="fill:url(#gradient_ds_tl)"/>
  </g><rect x="4.5" y="4.5" width="55" height="55" fill="url(#linearGradient1053-6-0)" image-rendering="optimizeSpeed" stroke-width="2.74444" id="bg" style="fill:url(#linearGradient1053-6-0);stroke-linecap:round" rx="10"/>
  <g id="art">
    <path id="path12" style="fill:url(#linearGradient2542);stroke-linecap:round" d="M 14.324219 4.5019531 C 8.8661479 4.5953246 4.5 9.0188503 4.5 14.5 L 4.5 19.628906 L 59.5 19.628906 L 59.5 14.5 C 59.5 9.0188503 55.133852 4.5953246 49.675781 4.5019531 L 14.324219 4.5019531 z "/>
    <g fill="#f08705" id="g15" transform="matrix(3.779602,0,0,3.779602,-21.285963,-41.235458)" style="display:inline">
      <path d="m 9.4273,21.421 c -0.0061,0.03965 -0.00987,0.081 -0.015719,0.12163 h 9.3737 c -0.0055,-0.04063 -0.0096,-0.08201 -0.01633,-0.12163 z" opacity="0.6" stroke-width="0.71515" style="paint-order:normal" id="path13"/>
      <path d="m 9.4273,23.345 c -0.0061,0.03965 -0.00987,0.081 -0.015719,0.12163 h 9.3737 c -0.0055,-0.04063 -0.0096,-0.08201 -0.01633,-0.12163 z" opacity="0.6" stroke-width="0.71515" style="paint-order:normal" id="path14"/>
      <path d="M 9.4216,25.269 C 9.41773,25.30865 9.41535,25.35 9.41163,25.39063 h 5.943 C 15.35113,25.35 15.34853,25.30862 15.34427,25.269 Z" opacity="0.6" stroke-width="0.56944" style="paint-order:normal" id="path15"/>
    </g>
    <path d="m 39.46736,23.494006 c 3.956487,0 4.521915,0.604283 4.521915,4.839402 v 3.391588 c 0,4.235044 -0.565428,4.839403 -4.521915,4.839403 H 18.152294 c -3.956487,0 -4.521916,-0.604283 -4.521916,-4.839403 v -3.391588 c 0,-4.235044 0.565429,-4.839402 4.521916,-4.839402 z" enable-background="new" fill="url(#linearGradient2835)" stroke-width="0.898185" id="path16" style="fill:url(#linearGradient2835)"/>
    <path d="m 21.310152,24.525837 c -1.108029,0 -2.000052,0.892024 -2.000052,2.000052 v 7.000201 c 0,1.108028 0.892023,2.000052 2.000052,2.000052 h 15.000484 c 1.108028,0 2.000052,-0.892024 2.000052,-2.000052 v -7.000201 c 0,-1.108028 -0.892024,-2.000052 -2.000052,-2.000052 z m 0,1.000007 h 15.000484 c 0.554014,0 1.000007,0.445993 1.000007,1.000007 v 7.000201 c 0,0.554014 -0.445993,1.000007 -1.000007,1.000007 H 21.310152 c -0.554015,0 -1.000008,-0.445993 -1.000008,-1.000007 v -7.000201 c 0,-0.554014 0.445993,-1.000007 1.000008,-1.000007 z m 0,1.000007 v 7.000201 h 2.000052 v -4.171924 l 2.000052,2.000052 2.000052,-2.000052 v 4.171924 h 2.000052 v -7.000201 h -2.000052 l -2.000052,2.000052 -2.000052,-2.000052 z m 11.000153,0 v 3.999953 h -2.000052 l 3.000059,3.000059 3.000059,-3.000059 h -2.000052 v -3.999953 z" fill="#ffffff" stroke-width="1.00001" id="path17"/>
    <path transform="matrix(3.7364011,0,0,3.5947795,-6.9896184,72.916082)" d="m 8.8145,-5.537 c 0,0 -0.19283,-0.13005 -0.19283,-0.19731 0,-0.067264 0.5286,-1.9107 0.58567,-2.0122 0.057077,-0.10147 6.1025,-6.1025 6.1025,-6.1025 0,0 0.27603,-0.21726 0.44643,-0.08272 0.17041,0.13453 0.74406,0.74406 0.74406,0.74406 z" fill="#f08705" filter="url(#filter1091-3)" opacity="0.5" id="path18" style="filter:url(#filter1091-3-1)"/>
    <path transform="matrix(3.7364011,0,0,3.5947795,-6.9896184,72.916082)" d="m 8.8145,-5.537 c 0,0 0.13005,0.19283 0.19731,0.19283 0.067264,0 1.9107,-0.5286 2.0122,-0.58567 0.10147,-0.057077 6.1025,-6.1025 6.1025,-6.1025 0,0 0.21725,-0.27603 0.08272,-0.44643 -0.13453,-0.17041 -0.74406,-0.74406 -0.74406,-0.74406 z" fill="#f08705" filter="url(#filter1091-3)" opacity="0.5" id="path19" style="filter:url(#filter1091-3-1)"/>
    <path d="m 25.494171,52.89175 c 0,0 -0.728821,-0.491537 -0.728821,-0.745753 0,-0.254254 1.997936,-7.221686 2.213638,-7.605315 0.215739,-0.383516 23.065399,-23.065399 23.065399,-23.065399 0,0 1.043321,-0.821157 1.687365,-0.312649 0.644082,0.50847 2.812289,2.812326 2.812289,2.812326 z" fill="url(#linearGradient2808)" id="path20" style="fill:url(#linearGradient2808);stroke-width:3.7796"/>
    <path d="m 25.494171,52.89175 c 0,0 0.491537,0.728821 0.745753,0.728821 0.254254,0 7.221686,-1.997936 7.605315,-2.213637 0.383517,-0.21574 23.0654,-23.0654 23.0654,-23.0654 0,0 0.821118,-1.043321 0.312648,-1.687365 -0.50847,-0.644082 -2.812288,-2.812326 -2.812288,-2.812326 z" fill="url(#linearGradient2810)" id="path21" style="fill:url(#linearGradient2810);stroke-width:3.7796"/>
  </g>
</svg>
