<?xml version="1.0" encoding="UTF-8" standalone="no"?>
<svg xmlns:inkscape="http://www.inkscape.org/namespaces/inkscape" xmlns:sodipodi="http://sodipodi.sourceforge.net/DTD/sodipodi-0.dtd" xmlns:xlink="http://www.w3.org/1999/xlink" xmlns="http://www.w3.org/2000/svg" xmlns:svg="http://www.w3.org/2000/svg" xmlns:rdf="http://www.w3.org/1999/02/22-rdf-syntax-ns#" xmlns:cc="http://creativecommons.org/ns#" xmlns:dc="http://purl.org/dc/elements/1.1/" height="64" width="64" version="1.1" id="svg43" sodipodi:docname="calligraauthor.svg" inkscape:version="1.4.2 (ebf0e940d0, 2025-05-08)">
  <sodipodi:namedview id="namedview1" pagecolor="#ffffff" bordercolor="#000000" borderopacity="0.25" inkscape:showpageshadow="2" inkscape:pageopacity="0.0" inkscape:pagecheckerboard="0" inkscape:deskcolor="#d1d1d1" inkscape:current-layer="svg43"/>
  <metadata id="metadata49">
    <rdf:RDF>
      <cc:Work rdf:about="">
        <dc:format>image/svg+xml</dc:format>
        <dc:type rdf:resource="http://purl.org/dc/dcmitype/StillImage"/>
        <dc:title/>
      </cc:Work>
    </rdf:RDF>
  </metadata>
  <defs id="defs47">
    <linearGradient id="linearGradient1063" x1="8.5858002" x2="16.465" y1="-5.5948" y2="-13.703" gradientTransform="matrix(3.7796,0,0,3.7796,-16.898,66.534)" gradientUnits="userSpaceOnUse">
      <stop stop-color="#f5f5f5" offset="0" id="stop4-3"/>
      <stop stop-color="#fff" offset="1" id="stop6"/>
    </linearGradient>
    <linearGradient id="linearGradient1071" x1="8.9222002" x2="15.926" y1="-5.3551998" y2="-11.992" gradientTransform="matrix(3.7796,0,0,3.7796,-16.898,66.534)" gradientUnits="userSpaceOnUse">
      <stop stop-color="#ee4740" offset="0" id="stop9"/>
      <stop stop-color="#fff" offset="1" id="stop11"/>
    </linearGradient>
    <filter id="filter1091" x="-0.084016003" y="-0.084016003" width="1.168" height="1.168" color-interpolation-filters="sRGB">
      <feGaussianBlur stdDeviation="0.30215974" id="feGaussianBlur14"/>
    </filter>
    <filter id="filter2761-3" x="-0.024" y="-0.024" width="1.048" height="1.048" color-interpolation-filters="sRGB">
      <feGaussianBlur stdDeviation="0.14552168" id="feGaussianBlur17"/>
    </filter>
    <linearGradient id="linearGradient1024-3" x1="1.3315001" x2="15.65" y1="15.576" y2="1.17" gradientTransform="matrix(3.7796,0,0,3.7796,78.015035,0.53068)" gradientUnits="userSpaceOnUse">
      <stop stop-color="#dddfe1" offset="0" id="stop20"/>
      <stop stop-color="#f3f4f6" stop-opacity=".99608" offset="1" id="stop22"/>
    </linearGradient>
    <linearGradient inkscape:collect="always" id="linearGradient1127">
      <stop style="stop-color:#e2e4e6;stop-opacity:1" offset="0" id="stop1123"/>
      <stop style="stop-color:#ffffff;stop-opacity:0.99704713" offset="1" id="stop1125"/>
    </linearGradient>
    <linearGradient id="linearGradient1071-3" x1="8.9222002" x2="15.926" y1="-5.3551998" y2="-11.992" gradientUnits="userSpaceOnUse" gradientTransform="matrix(3.7796,0,0,3.7796,16.224815,66.534)">
      <stop stop-color="#ffdc96" offset="0" id="stop9-5" style="stop-color:#e2e4e6;stop-opacity:1"/>
      <stop stop-color="#fff" offset="1" id="stop11-6"/>
    </linearGradient>
    <filter id="filter1091-2" x="-0.084015828" y="-0.084015788" width="1.1680317" height="1.1680316" color-interpolation-filters="sRGB">
      <feGaussianBlur stdDeviation="0.30215974" id="feGaussianBlur14-9"/>
    </filter>
    <filter id="filter2761-3-1" x="-0.024" y="-0.024" width="1.048" height="1.048" color-interpolation-filters="sRGB">
      <feGaussianBlur stdDeviation="0.14552168" id="feGaussianBlur17-2"/>
    </filter>
    <linearGradient id="linearGradient1024-3-7" x1="1.3315001" x2="15.65" y1="15.576" y2="1.17" gradientTransform="matrix(3.7796,0,0,3.7796,7.4298223,-16.574053)" gradientUnits="userSpaceOnUse">
      <stop stop-color="#dddfe1" offset="0" id="stop20-0"/>
      <stop stop-color="#f3f4f6" stop-opacity=".99608" offset="1" id="stop22-9"/>
    </linearGradient>
    <filter id="filter2761-3-6" x="-0.024" y="-0.024" width="1.048" height="1.048" color-interpolation-filters="sRGB">
      <feGaussianBlur stdDeviation="0.14552168" id="feGaussianBlur4"/>
    </filter>
    <linearGradient id="linearGradient1024" x1="1.3315001" x2="15.65" y1="15.576" y2="1.17" gradientTransform="translate(-8.4984e-4,0.14045)" gradientUnits="userSpaceOnUse">
      <stop stop-color="#dddfe1" offset="0" id="stop7"/>
      <stop stop-color="#f3f4f6" stop-opacity=".99608" offset="1" id="stop9-7"/>
    </linearGradient>
    <filter color-interpolation-filters="sRGB" height="1.048" width="1.048" y="-0.024" x="-0.024" id="filter2761-3-3">
      <feGaussianBlur id="feGaussianBlur2" stdDeviation="0.14552168"/>
    </filter>
    <linearGradient gradientUnits="userSpaceOnUse" gradientTransform="matrix(3.7796,0,0,3.7796,-0.0026448,0.53066)" y2="1.17" y1="15.576" x2="15.65" x1="1.3315001" id="linearGradient1024-6">
      <stop id="stop5" offset="0" stop-color="#dddfe1"/>
      <stop id="stop7-7" offset="1" stop-opacity=".99608" stop-color="#f3f4f6"/>
    </linearGradient>
    <filter inkscape:collect="always" style="color-interpolation-filters:sRGB" id="filter1057" x="-0.026999999" width="1.054" y="-0.026999999" height="1.054">
      <feGaussianBlur inkscape:collect="always" stdDeviation="0.61875" id="feGaussianBlur1059"/>
    </filter>
    <linearGradient inkscape:collect="always" xlink:href="#linearGradient1051" id="linearGradient1053" x1="-127" y1="60" x2="-72" y2="5" gradientUnits="userSpaceOnUse" gradientTransform="translate(131.5,-0.5099971)"/>
    <linearGradient inkscape:collect="always" id="linearGradient1051">
      <stop style="stop-color:#dee0e2;stop-opacity:1" offset="0" id="stop1047"/>
      <stop style="stop-color:#f1f3f5;stop-opacity:0.99607843" offset="1" id="stop1049"/>
    </linearGradient>
    <linearGradient inkscape:collect="always" xlink:href="#linearGradient1127" id="linearGradient1129" x1="31.99684" y1="46.315933" x2="55.194225" y2="23.118547" gradientUnits="userSpaceOnUse" gradientTransform="translate(-14.912692,8.86e-4)"/>
    <linearGradient inkscape:collect="always" xlink:href="#linearGradient1063" id="linearGradient1019" gradientUnits="userSpaceOnUse" gradientTransform="matrix(3.7796,0,0,3.7796,-16.898,66.534)" x1="8.5858002" y1="-5.5948" x2="16.465" y2="-13.703"/>
    <linearGradient id="a" gradientTransform="matrix(1.0309825,0,0,1,-0.512598,0)" gradientUnits="userSpaceOnUse" x1="17" x2="17" y1="1036.3622" y2="1012.3622">
      <stop offset="0" stop-color="#374c63" id="stop2"/>
      <stop offset="1" stop-color="#6a94be" id="stop4"/>
    </linearGradient>
    <linearGradient id="b" gradientTransform="matrix(0.68964436,0,0,1,10.82717,0)" gradientUnits="userSpaceOnUse" x1="33.461716" x2="34.116894" xlink:href="#d" y1="1013.622" y2="1037.2084"/>
    <linearGradient id="c" gradientUnits="userSpaceOnUse" x1="27.800341" x2="27.800341" y1="1037.3622" y2="1011.3622">
      <stop offset="0" stop-color="#394f67" id="stop8"/>
      <stop offset="1" stop-color="#507090" id="stop10"/>
    </linearGradient>
    <linearGradient id="d">
      <stop offset="0" stop-color="#f6fbff" id="stop13"/>
      <stop offset="1" stop-color="#eaeff2" id="stop15"/>
    </linearGradient>
    <linearGradient id="e" gradientUnits="userSpaceOnUse" x1="13.762" x2="314.96957" xlink:href="#d" y1="165.66499" y2="165.66499"/>
  <radialGradient id="gradient_ds_br" cx="0" cy="0" r="1" gradientUnits="userSpaceOnUse" gradientTransform="matrix(13.998399,0.00477622,-0.00477841,14.004799,47.5016,48.4952)">
      <stop offset="0.65" id="stop1"/>
      <stop offset="1" stop-opacity="0" id="stop2"/>
    </radialGradient><linearGradient id="gradient_ds_b" x1="30.448999" y1="48.5" x2="30.492201" y2="62.500301" gradientUnits="userSpaceOnUse">
      <stop offset="0.653846" id="stop3"/>
      <stop offset="1" stop-opacity="0" id="stop4"/>
    </linearGradient><radialGradient id="gradient_ds_bl" cx="0" cy="0" r="1" gradientUnits="userSpaceOnUse" gradientTransform="matrix(0,14,-14,0,16.5,48.5)">
      <stop offset="0.65" id="stop5"/>
      <stop offset="1" stop-opacity="0" id="stop6"/>
    </radialGradient><linearGradient id="gradient_ds_r" x1="47.5" y1="33.5" x2="61.5" y2="33.5009" gradientUnits="userSpaceOnUse">
      <stop offset="0.649038" id="stop7"/>
      <stop offset="1" stop-opacity="0" id="stop8"/>
    </linearGradient><linearGradient id="gradient_ds_l" x1="16.5" y1="33.894699" x2="2.5" y2="33.894699" gradientUnits="userSpaceOnUse">
      <stop offset="0.649038" id="stop9"/>
      <stop offset="1" stop-opacity="0" id="stop10"/>
    </linearGradient><radialGradient id="gradient_ds_tr" cx="0" cy="0" r="1" gradientTransform="matrix(0.00843236,-14,14.0084,0.0189842,47.4916,18.5)" gradientUnits="userSpaceOnUse">
      <stop offset="0.65" id="stop11"/>
      <stop offset="1" stop-opacity="0" id="stop12"/>
    </radialGradient><linearGradient id="gradient_ds_t" x1="29.98" y1="18.5" x2="29.9158" y2="4.4998598" gradientUnits="userSpaceOnUse">
      <stop offset="0.649038" id="stop13"/>
      <stop offset="1" stop-opacity="0" id="stop14"/>
    </linearGradient><radialGradient id="gradient_ds_tl" cx="0" cy="0" r="1" gradientTransform="matrix(-0.00843236,-14,-14.0084,0.0189842,16.5084,18.5)" gradientUnits="userSpaceOnUse">
      <stop offset="0.65" id="stop15"/>
      <stop offset="1" stop-opacity="0" id="stop16"/>
    </radialGradient></defs>
  
  <g id="ds" opacity="0.25">
    <path id="ds-br" d="m 47.5,48.5 h 14 v 14 h -14 z" fill="url(#gradient_ds_br)" style="fill:url(#gradient_ds_br)"/>
    <path id="ds-b" d="m 16.5,48.5 h 31 v 14 h -31 z" fill="url(#gradient_ds_b)" style="fill:url(#gradient_ds_b)"/>
    <path id="ds-bl" d="m 2.5,48.5 h 14 v 14 h -14 z" fill="url(#gradient_ds_bl)" style="fill:url(#gradient_ds_bl)"/>
    <path id="ds-r" d="m 47.5,18.5 h 14 v 30 h -14 z" fill="url(#gradient_ds_r)" style="fill:url(#gradient_ds_r)"/>
    <path id="ds-l" d="m 2.5,18.5 h 14 v 30 h -14 z" fill="url(#gradient_ds_l)" style="fill:url(#gradient_ds_l)"/>
    <path id="ds-tr" d="m 47.5,4.5 h 14 v 14 h -14 z" fill="url(#gradient_ds_tr)" style="fill:url(#gradient_ds_tr)"/>
    <path id="ds-t" d="m 16.5,4.5 h 31 v 14 h -31 z" fill="url(#gradient_ds_t)" style="fill:url(#gradient_ds_t)"/>
    <path id="ds-tl" d="m 16.5,4.5 h -14 v 14 h 14 z" fill="url(#gradient_ds_tl)" style="fill:url(#gradient_ds_tl)"/>
  </g><rect style="fill:url(#linearGradient1053);fill-opacity:1;stroke-width:2.74436;stroke-linecap:round" id="bg" width="55" height="55" x="4.5" y="4.5" rx="10"/>
  <g id="art"><g transform="matrix(4.9158,0,0,5.0647,-9.6223,-8.64)" fill="#c8c8c8" id="g55">
    <path d="M 3.9856,6.9374 C 3.97975,6.966989 3.97613,6.997848 3.970519,7.02817 h 8.9931 c -0.0053,-0.030317 -0.0092,-0.061202 -0.01567,-0.09077 z" stroke-width="0.60512" style="paint-order:normal" id="path47"/>
    <path d="m 4.1332,4.9655 c 0.00521,0.030317 0.010173,0.060579 0.015962,0.09077 h 8.6371 c 0.0054,-0.032616 0.01,-0.058576 0.01482,-0.09077 z" stroke-width="0.59404" style="paint-order:normal" id="path49-1"/>
    <path d="M 3.9856,8.9093 C 3.97975,8.938889 3.97613,8.969748 3.970519,9.00007 h 8.9931 c -0.0053,-0.030317 -0.0092,-0.061202 -0.01567,-0.09077 z" stroke-width="0.60512" style="paint-order:normal" id="path51-8"/>
    <path d="m 3.9856,10.881 c -0.00585,0.02959 -0.00947,0.06045 -0.015081,0.09077 h 8.9931 c -0.0053,-0.03032 -0.0092,-0.0612 -0.01567,-0.09077 z" stroke-width="0.60512" style="paint-order:normal" id="path53-7"/>
  </g><g transform="matrix(3.7363,0,0,3.5947,-16.067,65.631)" fill="#f08705" filter="url(#filter1091)" opacity="0.5" id="g61" style="fill:#6a737c;fill-opacity:1;filter:url(#filter1091-2)">
    <path d="m 8.8145,-5.537 c 0,0 -0.19283,-0.13005 -0.19283,-0.19731 0,-0.067264 0.5286,-1.9107 0.58567,-2.0122 0.057077,-0.10147 6.1025,-6.1025 6.1025,-6.1025 0,0 0.27603,-0.21726 0.44643,-0.08272 0.17041,0.13453 0.74406,0.74406 0.74406,0.74406 z" id="path57" style="fill:#6a737c;fill-opacity:1"/>
    <path d="m 8.8145,-5.537 c 0,0 0.13005,0.19283 0.19731,0.19283 0.067264,0 1.9107,-0.5286 2.0122,-0.58567 0.10147,-0.057077 6.1025,-6.1025 6.1025,-6.1025 0,0 0.21725,-0.27603 0.08272,-0.44643 -0.13453,-0.17041 -0.74406,-0.74406 -0.74406,-0.74406 z" id="path59" style="fill:#6a737c;fill-opacity:1"/>
  </g><path d="m 16.417284,45.606355 c 0,0 -0.72882,-0.491537 -0.72882,-0.745753 0,-0.254231 1.997896,-7.221682 2.213598,-7.605311 0.215728,-0.383516 23.065009,-23.065009 23.065009,-23.065009 0,0 1.043283,-0.821156 1.687327,-0.312649 0.644082,0.50847 2.812249,2.812249 2.812249,2.812249 z" fill="url(#linearGradient1063)" id="path63" style="fill:url(#linearGradient1019);stroke-width:3.7796"/><path id="rect1119" style="fill:url(#linearGradient1129);fill-opacity:1;stroke-width:2" d="M 45.333298,16.557527 16.417284,45.606355 c 0,0 0.489925,0.730468 0.744141,0.730469 0.254231,0 7.22184,-1.999142 7.605469,-2.214844 0.383516,-0.215728 23.066404,-23.064453 23.066404,-23.064453 0,0 0.82097,-1.043456 0.3125,-1.6875 -0.50847,-0.644082 -2.8125,-2.8125 -2.8125,-2.8125 z"/></g>
  
  
  
</svg>
