<?xml version="1.0" encoding="UTF-8" standalone="no"?>
<svg xmlns:inkscape="http://www.inkscape.org/namespaces/inkscape" xmlns:sodipodi="http://sodipodi.sourceforge.net/DTD/sodipodi-0.dtd" xmlns:xlink="http://www.w3.org/1999/xlink" xmlns="http://www.w3.org/2000/svg" xmlns:svg="http://www.w3.org/2000/svg" xmlns:rdf="http://www.w3.org/1999/02/22-rdf-syntax-ns#" xmlns:cc="http://creativecommons.org/ns#" xmlns:dc="http://purl.org/dc/elements/1.1/" width="64" height="64" version="1.1" viewBox="0 0 64 64" id="svg62" sodipodi:docname="charles-proxy.svg" inkscape:version="1.4.2 (ebf0e940d0, 2025-05-08)">
  <defs id="defs15">
    <filter id="filter2761" x="-0.024" y="-0.024" width="1.048" height="1.048" color-interpolation-filters="sRGB">
      <feGaussianBlur stdDeviation="0.14552168" id="feGaussianBlur2"/>
    </filter>
    <linearGradient id="linearGradient1024" x1="1.3315001" x2="15.65" y1="15.576" y2="1.17" gradientUnits="userSpaceOnUse" gradientTransform="translate(1.1902151,-4.762997)">
      <stop stop-color="#00c8ff" offset="0" id="stop5"/>
      <stop stop-color="#14a0ff" offset="1" id="stop7"/>
    </linearGradient>
    <linearGradient id="linearGradient968" x1="0.22194999" x2="25.798" y1="31.117001" y2="-0.031266998" gradientUnits="userSpaceOnUse">
      <stop stop-color="#fafaff" offset="0" id="stop10"/>
      <stop stop-color="#7dd7ff" offset="1" id="stop12"/>
    </linearGradient>
    
    <filter id="filter1057" x="-0.026999999" y="-0.026999999" width="1.054" height="1.054" color-interpolation-filters="sRGB">
      <feGaussianBlur stdDeviation="0.61875" id="feGaussianBlur843"/>
    </filter>
    <linearGradient id="linearGradient1053" x1="-127" x2="-72" y1="60" y2="5" gradientTransform="matrix(0.26457812,0,0,0.26457812,34.792022,-0.1349349)" gradientUnits="userSpaceOnUse">
      <stop stop-color="#32d7ff" offset="0" id="stop846"/>
      <stop stop-color="#329bff" offset="1" id="stop848"/>
    </linearGradient>
    
    
    
    
    
    
    
    <filter id="filter1057-7" x="-0.026999999" y="-0.026999999" width="1.054" height="1.054" color-interpolation-filters="sRGB">
      <feGaussianBlur stdDeviation="0.61875" id="feGaussianBlur843-0"/>
    </filter>
    <linearGradient id="linearGradient1053-9" x1="-127" x2="-72" y1="60" y2="5" gradientTransform="translate(131.5,-0.50999871)" gradientUnits="userSpaceOnUse">
      <stop stop-color="#32d7ff" offset="0" id="stop846-3"/>
      <stop stop-color="#329bff" offset="1" id="stop848-6"/>
    </linearGradient>
    <linearGradient id="linearGradient2898" x1="0.15503654" y1="0.21244895" x2="0.79775023" y2="0.85516262" gradientTransform="matrix(17.928,0,0,17.928,-42.718209,20.786)" gradientUnits="userSpaceOnUse">
      <stop offset="1.3043478260869565%" stop-opacity="1" style="stop-color:rgb(254,172,94)" id="stop2892"/>
      <stop offset="0.58424103" stop-opacity="1" style="stop-color:rgb(199,121,208)" id="stop2894"/>
      <stop offset="99.56521739130434%" stop-opacity="1" style="stop-color:rgb(75,192,200)" id="stop2896"/>
    </linearGradient>
    <linearGradient id="_lgradient_6" x1="0" y1="0.5" x2="0.90748805" y2="0.92007786" gradientTransform="matrix(6.601,3.811,-3.811,6.601,-35.149209,24.913)" gradientUnits="userSpaceOnUse">
      <stop offset="0%" stop-opacity="1" style="stop-color:rgb(247,241,7)" id="stop1821"/>
      <stop offset="83.88839793817618%" stop-opacity="1" style="stop-color:rgb(255,187,36)" id="stop1823"/>
    </linearGradient>
    <linearGradient inkscape:collect="always" xlink:href="#linearGradient24179" id="linearGradient24181" x1="7.3584623" y1="9.7375746" x2="8.9418154" y2="9.7375746" gradientUnits="userSpaceOnUse" gradientTransform="scale(3.779602)"/>
    <linearGradient inkscape:collect="always" id="linearGradient24179">
      <stop style="stop-color:#f7ee09;stop-opacity:1" offset="0" id="stop24175"/>
      <stop style="stop-color:#ffbb24;stop-opacity:1" offset="1" id="stop24177"/>
    </linearGradient>
    <linearGradient inkscape:collect="always" xlink:href="#linearGradient15696" id="linearGradient15698" x1="6.4858222" y1="8.699934" x2="9.8146629" y2="10.621916" gradientUnits="userSpaceOnUse" gradientTransform="scale(3.779602)"/>
    <linearGradient inkscape:collect="always" id="linearGradient15696">
      <stop style="stop-color:#feac5e;stop-opacity:1" offset="0" id="stop15692"/>
      <stop style="stop-color:#bf7dd0;stop-opacity:1" offset="1" id="stop15694"/>
    </linearGradient>
    <linearGradient inkscape:collect="always" xlink:href="#linearGradient3441" id="linearGradient3443" x1="88.237793" y1="17.145996" x2="116.12842" y2="59.604492" gradientUnits="userSpaceOnUse" gradientTransform="matrix(0.78508041,0,0,0.78508041,-50.696864,1.8723491)"/>
    <linearGradient inkscape:collect="always" id="linearGradient3441">
      <stop style="stop-color:#99dfff;stop-opacity:1" offset="0" id="stop3437"/>
      <stop style="stop-color:#f1f3f4;stop-opacity:1" offset="0.55435801" id="stop7511"/>
      <stop style="stop-color:#ffffff;stop-opacity:1" offset="1" id="stop3439"/>
    </linearGradient>
    <filter id="filter1057-7-7" x="-0.026999999" y="-0.026999999" width="1.054" height="1.054" color-interpolation-filters="sRGB">
      <feGaussianBlur stdDeviation="0.61875" id="feGaussianBlur843-0-5"/>
    </filter>
  <radialGradient id="gradient_ds_br" cx="0" cy="0" r="1" gradientUnits="userSpaceOnUse" gradientTransform="matrix(13.998399,0.00477622,-0.00477841,14.004799,47.5016,48.4952)">
      <stop offset="0.65" id="stop1"/>
      <stop offset="1" stop-opacity="0" id="stop2"/>
    </radialGradient><linearGradient id="gradient_ds_b" x1="30.448999" y1="48.5" x2="30.492201" y2="62.500301" gradientUnits="userSpaceOnUse">
      <stop offset="0.653846" id="stop3"/>
      <stop offset="1" stop-opacity="0" id="stop4"/>
    </linearGradient><radialGradient id="gradient_ds_bl" cx="0" cy="0" r="1" gradientUnits="userSpaceOnUse" gradientTransform="matrix(0,14,-14,0,16.5,48.5)">
      <stop offset="0.65" id="stop5"/>
      <stop offset="1" stop-opacity="0" id="stop6"/>
    </radialGradient><linearGradient id="gradient_ds_r" x1="47.5" y1="33.5" x2="61.5" y2="33.5009" gradientUnits="userSpaceOnUse">
      <stop offset="0.649038" id="stop7"/>
      <stop offset="1" stop-opacity="0" id="stop8"/>
    </linearGradient><linearGradient id="gradient_ds_l" x1="16.5" y1="33.894699" x2="2.5" y2="33.894699" gradientUnits="userSpaceOnUse">
      <stop offset="0.649038" id="stop9"/>
      <stop offset="1" stop-opacity="0" id="stop10"/>
    </linearGradient><radialGradient id="gradient_ds_tr" cx="0" cy="0" r="1" gradientTransform="matrix(0.00843236,-14,14.0084,0.0189842,47.4916,18.5)" gradientUnits="userSpaceOnUse">
      <stop offset="0.65" id="stop11"/>
      <stop offset="1" stop-opacity="0" id="stop12"/>
    </radialGradient><linearGradient id="gradient_ds_t" x1="29.98" y1="18.5" x2="29.9158" y2="4.4998598" gradientUnits="userSpaceOnUse">
      <stop offset="0.649038" id="stop13"/>
      <stop offset="1" stop-opacity="0" id="stop14"/>
    </linearGradient><radialGradient id="gradient_ds_tl" cx="0" cy="0" r="1" gradientTransform="matrix(-0.00843236,-14,-14.0084,0.0189842,16.5084,18.5)" gradientUnits="userSpaceOnUse">
      <stop offset="0.65" id="stop15"/>
      <stop offset="1" stop-opacity="0" id="stop16"/>
    </radialGradient></defs>
  <metadata id="metadata17">
    <rdf:RDF>
      <cc:Work rdf:about="">
        <dc:format>image/svg+xml</dc:format>
        <dc:type rdf:resource="http://purl.org/dc/dcmitype/StillImage"/>
      </cc:Work>
    </rdf:RDF>
  </metadata>
  
  <g id="ds" opacity="0.25">
    <path id="ds-br" d="m 47.5,48.5 h 14 v 14 h -14 z" fill="url(#gradient_ds_br)" style="fill:url(#gradient_ds_br)"/>
    <path id="ds-b" d="m 16.5,48.5 h 31 v 14 h -31 z" fill="url(#gradient_ds_b)" style="fill:url(#gradient_ds_b)"/>
    <path id="ds-bl" d="m 2.5,48.5 h 14 v 14 h -14 z" fill="url(#gradient_ds_bl)" style="fill:url(#gradient_ds_bl)"/>
    <path id="ds-r" d="m 47.5,18.5 h 14 v 30 h -14 z" fill="url(#gradient_ds_r)" style="fill:url(#gradient_ds_r)"/>
    <path id="ds-l" d="m 2.5,18.5 h 14 v 30 h -14 z" fill="url(#gradient_ds_l)" style="fill:url(#gradient_ds_l)"/>
    <path id="ds-tr" d="m 47.5,4.5 h 14 v 14 h -14 z" fill="url(#gradient_ds_tr)" style="fill:url(#gradient_ds_tr)"/>
    <path id="ds-t" d="m 16.5,4.5 h 31 v 14 h -31 z" fill="url(#gradient_ds_t)" style="fill:url(#gradient_ds_t)"/>
    <path id="ds-tl" d="m 16.5,4.5 h -14 v 14 h 14 z" fill="url(#gradient_ds_tl)" style="fill:url(#gradient_ds_tl)"/>
  </g><rect x="4.5" y="4.5" width="55" height="55" fill="url(#linearGradient1053)" stroke-linecap="round" stroke-width="2.7444" id="bg" style="isolation:isolate;fill:url(#linearGradient1053-9)" rx="10"/>
  <g id="art"><path id="path3373" style="isolation:isolate;fill:url(#linearGradient3443);fill-opacity:1;fill-rule:evenodd;stroke:none;stroke-width:0.0588809;stroke-linecap:round;stroke-linejoin:round;paint-order:stroke fill markers" d="m 18.576899,15.333335 v 2.157437 l 0.520959,0.770514 c 0.100737,0.148723 0.198478,0.299049 0.293255,0.450808 0.09478,0.151758 0.187234,0.304208 0.276006,0.458858 0.08877,0.154646 0.174882,0.310668 0.257606,0.468058 0.08272,0.15739 0.161427,0.316126 0.238054,0.476108 0.07662,0.159983 0.150315,0.321727 0.220805,0.484159 0.07049,0.162432 0.138099,0.326327 0.202405,0.491059 0.06431,0.16473 0.125925,0.329925 0.184002,0.496808 0.05808,0.166884 0.112651,0.33482 0.164455,0.503709 0.0518,0.168891 0.100567,0.338709 0.146051,0.509459 0.04549,0.170747 0.08738,0.342749 0.126503,0.515209 0.03912,0.17246 0.07539,0.345785 0.108101,0.519809 0.03273,0.174024 0.06229,0.348967 0.08855,0.524409 0.02627,0.175442 0.04924,0.351148 0.069,0.527859 0.01977,0.176712 0.03625,0.354625 0.04945,0.53246 0.01323,0.177834 0.02328,0.355951 0.0299,0.534759 0.0066,0.178809 0.01036,0.357422 0.01036,0.537059 0,0.243082 -0.0089,0.486411 -0.02529,0.727963 -0.01637,0.241554 -0.04108,0.481835 -0.0736,0.721062 -0.03254,0.23923 -0.0723,0.476908 -0.120751,0.713013 -0.04845,0.236108 -0.104899,0.470475 -0.169054,0.702663 -0.06415,0.232188 -0.136568,0.462542 -0.216205,0.690011 -0.07964,0.227472 -0.166162,0.451956 -0.261053,0.673913 -0.09489,0.221957 -0.198285,0.441016 -0.308204,0.656661 -0.109922,0.215645 -0.227177,0.428574 -0.351907,0.637111 -0.130718,0.218499 -0.253721,0.440123 -0.370307,0.664712 -0.116612,0.224588 -0.22652,0.451965 -0.328931,0.681962 -0.102412,0.229996 -0.198165,0.462194 -0.286355,0.696912 -0.08819,0.234718 -0.168729,0.471956 -0.242654,0.710713 -0.07393,0.238753 -0.140488,0.478953 -0.200104,0.721062 -0.05962,0.24211 -0.112292,0.485486 -0.157552,0.730262 -0.04526,0.244779 -0.08299,0.491553 -0.113853,0.738314 -0.03088,0.246762 -0.05488,0.493703 -0.0713,0.741762 -0.0164,0.24806 -0.02566,0.496537 -0.02759,0.745212 -0.0019,0.24866 0.0035,0.497759 0.0161,0.746366 0.01262,0.248584 0.03262,0.497361 0.0598,0.745212 0.02721,0.247867 0.06168,0.494202 0.103501,0.740613 0.04182,0.246393 0.09071,0.492876 0.1472,0.737163 0.05649,0.244275 0.120842,0.486484 0.192053,0.727962 0.07121,0.241479 0.149778,0.48193 0.235753,0.719913 0.08597,0.238001 0.178669,0.473455 0.279456,0.707261 l 2.28509,5.296995 H 40.47329 l 2.285087,-5.296995 c 0.07113,-0.165055 0.138673,-0.330753 0.202397,-0.497958 0.06376,-0.16721 0.123064,-0.33578 0.179418,-0.504857 0.05635,-0.169099 0.109722,-0.338728 0.158706,-0.50946 0.04898,-0.170725 0.09407,-0.341941 0.135687,-0.51406 0.04161,-0.172123 0.07952,-0.34538 0.113842,-0.51866 0.03439,-0.173294 0.06493,-0.346778 0.092,-0.520957 0.02684,-0.174202 0.05035,-0.348404 0.07011,-0.52326 0.01965,-0.174844 0.03591,-0.350293 0.04827,-0.525557 l 5.596,-5.927206 c 0.152696,-0.161725 0.29753,-0.330129 0.432405,-0.503708 0.134856,-0.173578 0.260642,-0.352849 0.377204,-0.537059 0.116563,-0.184214 0.223073,-0.373338 0.320851,-0.56696 0.09778,-0.193625 0.185956,-0.391596 0.264496,-0.593411 0.07854,-0.201812 0.148199,-0.407626 0.207009,-0.616411 0.05881,-0.208785 0.107454,-0.420275 0.146044,-0.634811 0.03863,-0.214534 0.0672,-0.431847 0.08512,-0.650911 0.01776,-0.219066 0.02495,-0.440039 0.02192,-0.662411 -0.0031,-0.222472 -0.01701,-0.442729 -0.04139,-0.661262 -0.02419,-0.218536 -0.05874,-0.435218 -0.103486,-0.648611 -0.04475,-0.213397 -0.09967,-0.42431 -0.16445,-0.631361 -0.06478,-0.207054 -0.139959,-0.410003 -0.224244,-0.609512 -0.08429,-0.199506 -0.178435,-0.395748 -0.281769,-0.58651 -0.103297,-0.19076 -0.215135,-0.376947 -0.336952,-0.557759 -0.121816,-0.180813 -0.253498,-0.355895 -0.393301,-0.52556 -0.139808,-0.169662 -0.287742,-0.333746 -0.445071,-0.491058 -0.162788,-0.162806 -0.332681,-0.316035 -0.5083,-0.460009 -0.1756,-0.143972 -0.356832,-0.277887 -0.54396,-0.402506 -0.187166,-0.124618 -0.379869,-0.240262 -0.577308,-0.345006 -0.197447,-0.104744 -0.400714,-0.198558 -0.607212,-0.282907 -0.206518,-0.08435 -0.41706,-0.158524 -0.631364,-0.221954 -0.214303,-0.06342 -0.432352,-0.116714 -0.653209,-0.158701 -0.220843,-0.04199 -0.444293,-0.07312 -0.67046,-0.09315 -0.226172,-0.02003 -0.454036,-0.02891 -0.684259,-0.02646 -0.176546,0.0018 -0.352751,0.01036 -0.526711,0.02529 -0.173975,0.01493 -0.346665,0.03651 -0.51751,0.0644 -0.170838,0.02789 -0.340013,0.06179 -0.507162,0.102351 -0.167134,0.04057 -0.331585,0.08729 -0.494505,0.140303 -0.1629,0.05302 -0.32376,0.113029 -0.481861,0.178253 -0.158101,0.06523 -0.314123,0.135563 -0.466909,0.212754 -0.152772,0.07719 -0.302784,0.160645 -0.449656,0.249556 -0.146875,0.08891 -0.289669,0.183662 -0.430103,0.284056 v -5.139417 h -2.626646 c -0.333762,0 -0.666761,-0.0062 -0.999369,-0.01954 -0.33269,-0.01336 -0.664818,-0.03316 -0.995996,-0.05981 -0.33117,-0.02665 -0.661862,-0.06014 -0.991313,-0.100052 -0.329459,-0.03991 -0.658125,-0.08604 -0.985567,-0.139152 -0.327457,-0.05312 -0.653508,-0.113125 -0.978673,-0.179403 -0.325157,-0.06628 -0.649175,-0.139107 -0.971765,-0.218505 -0.322589,-0.0794 -0.643985,-0.165135 -0.963717,-0.257604 -0.319724,-0.09247 -0.637933,-0.19236 -0.954517,-0.297855 -0.34151,-0.113837 -0.684354,-0.219927 -1.029264,-0.319706 -0.344917,-0.09978 -0.691616,-0.192633 -1.039619,-0.278304 -0.348014,-0.08567 -0.696887,-0.164238 -1.047675,-0.235755 -0.350787,-0.07151 -0.703608,-0.135892 -1.056868,-0.193203 -0.353261,-0.05731 -0.707194,-0.107596 -1.062619,-0.150652 -0.355424,-0.04305 -0.71224,-0.07935 -1.069518,-0.108103 -0.357279,-0.02876 -0.715296,-0.05 -1.07412,-0.0644 -0.358821,-0.0144 -0.718661,-0.02185 -1.078718,-0.02185 z m 25.785752,8.480248 c 0.163997,-0.0019 0.326482,0.0042 0.487607,0.01841 0.161124,0.01421 0.321039,0.03564 0.478411,0.06555 0.157382,0.0299 0.311854,0.06748 0.464611,0.1127 0.152734,0.04522 0.303615,0.09855 0.450801,0.158702 0.147215,0.06015 0.2905,0.12769 0.43126,0.202402 0.140752,0.07471 0.278254,0.156067 0.411704,0.244956 0.13342,0.08888 0.263514,0.184826 0.38871,0.287506 0.125218,0.102681 0.246165,0.212811 0.362274,0.328905 0.112066,0.112069 0.217781,0.228719 0.317411,0.349606 0.09963,0.120886 0.192647,0.246063 0.279464,0.374906 0.08682,0.128843 0.167852,0.260815 0.241517,0.396757 0.07363,0.135941 0.139996,0.275283 0.200092,0.417457 0.06013,0.142173 0.113653,0.287163 0.159839,0.434707 0.04622,0.147545 0.08534,0.297603 0.117319,0.449659 0.03213,0.152053 0.05628,0.306605 0.07355,0.462308 0.01739,0.1557 0.02759,0.313019 0.02986,0.471508 0.0024,0.158588 -0.0031,0.316447 -0.01625,0.472658 -0.01285,0.156211 -0.03213,0.310491 -0.05983,0.463458 -0.02759,0.152968 -0.06274,0.304254 -0.104658,0.453108 -0.04192,0.148852 -0.0912,0.295444 -0.147215,0.439308 -0.05598,0.143863 -0.118906,0.285198 -0.188602,0.423207 -0.0697,0.138008 -0.145779,0.272377 -0.228855,0.403657 -0.08308,0.131281 -0.172992,0.259277 -0.269108,0.382957 -0.09611,0.12368 -0.199374,0.243595 -0.308189,0.358805 l -4.274423,4.52763 c -0.02986,-0.205198 -0.06391,-0.410386 -0.103524,-0.614111 -0.03965,-0.203724 -0.08379,-0.406509 -0.133382,-0.608361 -0.04963,-0.201849 -0.104884,-0.403031 -0.16445,-0.60261 -0.0596,-0.199578 -0.123707,-0.397653 -0.193213,-0.59456 -0.06947,-0.196906 -0.143701,-0.392673 -0.22311,-0.58651 -0.07941,-0.193837 -0.164867,-0.385791 -0.254141,-0.576161 -0.08931,-0.190371 -0.182592,-0.378158 -0.281769,-0.564659 -0.09918,-0.186505 -0.203758,-0.370923 -0.3128,-0.55316 -0.124727,-0.208536 -0.24197,-0.421466 -0.351919,-0.637112 -0.109911,-0.215645 -0.212187,-0.434705 -0.307055,-0.656661 -0.0949,-0.221957 -0.182554,-0.446441 -0.262228,-0.673912 -0.07964,-0.227471 -0.152054,-0.457824 -0.216194,-0.690012 -0.06414,-0.232188 -0.119435,-0.466556 -0.16789,-0.702662 -0.04845,-0.236104 -0.08939,-0.473784 -0.121892,-0.713013 -0.0325,-0.239226 -0.05722,-0.479509 -0.07355,-0.721062 -0.01625,-0.241551 -0.02419,-0.484882 -0.02419,-0.727963 v -0.525559 l 0.446208,-0.465758 c 0.113729,-0.118252 0.232257,-0.229626 0.355358,-0.334657 0.123102,-0.105032 0.251344,-0.202988 0.382961,-0.294405 0.131606,-0.09142 0.266727,-0.176738 0.40596,-0.254155 0.13924,-0.07742 0.281807,-0.147428 0.427805,-0.210456 0.145968,-0.06302 0.295527,-0.118506 0.447354,-0.166753 0.151826,-0.04824 0.306639,-0.08882 0.463466,-0.121903 0.156816,-0.03307 0.315143,-0.05839 0.476101,-0.0759 0.160936,-0.0175 0.324593,-0.02717 0.48876,-0.02876 z m -20.847566,2.478293 c 0,0.287144 -0.0094,0.573676 -0.02876,0.859065 -0.01935,0.28539 -0.04897,0.570632 -0.0874,0.853316 -0.03843,0.28268 -0.08535,0.562791 -0.1426,0.841814 -0.05726,0.279025 -0.124293,0.555905 -0.200104,0.830314 -0.07581,0.274411 -0.1612,0.546522 -0.255304,0.815365 -0.0941,0.268843 -0.197224,0.534644 -0.309357,0.796964 -0.11213,0.262323 -0.233508,0.521418 -0.363405,0.776264 -0.129897,0.254843 -0.267758,0.505696 -0.415157,0.752113 0.147397,-0.246419 0.285262,-0.497268 0.415157,-0.752113 0.129897,-0.254847 0.251275,-0.513943 0.363405,-0.776264 0.112133,-0.26232 0.215252,-0.528122 0.309357,-0.796964 0.0941,-0.268843 0.179497,-0.540955 0.255304,-0.815365 0.07581,-0.27441 0.14285,-0.55129 0.200104,-0.830314 0.05726,-0.279022 0.104169,-0.559132 0.1426,-0.841814 0.03843,-0.282684 0.06805,-0.567925 0.0874,-0.853316 0.01935,-0.28539 0.02876,-0.571921 0.02876,-0.859065 z m 14.999713,0 c 0,0.287144 0.0094,0.573676 0.02873,0.859065 0.01928,0.28539 0.04898,0.570632 0.08742,0.853316 0.03848,0.28268 0.08648,0.562791 0.143739,0.841814 0.0573,0.279025 0.123139,0.555905 0.198958,0.830314 0.07586,0.274411 0.161162,0.546522 0.255312,0.815365 0.09415,0.268843 0.197182,0.534644 0.30936,0.796964 0.112179,0.262323 0.233429,0.521418 0.363409,0.776264 0.129981,0.254843 0.268805,0.505696 0.416304,0.752113 -0.14748,-0.246419 -0.286342,-0.497268 -0.416304,-0.752113 -0.12998,-0.254847 -0.25123,-0.513943 -0.363409,-0.776264 -0.112178,-0.26232 -0.21521,-0.528122 -0.30936,-0.796964 -0.09415,-0.268843 -0.179455,-0.540955 -0.255312,-0.815365 -0.07586,-0.27441 -0.141697,-0.55129 -0.198958,-0.830314 -0.05722,-0.279022 -0.1053,-0.559132 -0.143739,-0.841814 -0.03848,-0.282684 -0.06807,-0.567925 -0.08742,-0.853316 -0.01928,-0.28539 -0.02873,-0.571921 -0.02873,-0.859065 z"/><path d="m 27.999581,32.858736 c -0.174288,-0.132679 -0.345434,-0.259862 -0.481252,-0.33837 -1.157994,-0.668889 -2.702247,-0.162512 -3.004503,0.361922 -0.303041,0.524434 0.03061,2.115007 1.188612,2.78311 0.13582,0.07851 0.332091,0.163298 0.533854,0.248085 -0.218253,0.02907 -0.428654,0.05967 -0.579389,0.100489 -1.292242,0.345436 -2.025507,1.795477 -1.869276,2.380367 0.157016,0.584882 1.51756,1.473595 2.809017,1.127375 v 0 c 0.151521,-0.04003 0.34936,-0.119322 0.552697,-0.202548 -0.133462,0.175071 -0.260645,0.345417 -0.339155,0.481253 -0.668889,1.157994 -0.161726,2.702249 0.361923,3.00529 0.524434,0.302254 2.115004,-0.03137 2.783893,-1.1894 0.07772,-0.135801 0.161725,-0.330526 0.246513,-0.533853 0.02982,0.217478 0.06045,0.42787 0.101274,0.57939 v 0 c 0.34622,1.292242 1.796264,2.025508 2.380364,1.869278 0.584885,-0.157005 1.473596,-1.517563 1.128161,-2.809019 -0.04318,-0.159386 -0.128752,-0.371346 -0.215112,-0.583314 0.198625,0.172728 0.361923,0.294393 0.49303,0.369759 1.157994,0.668891 2.702247,0.162523 3.005288,-0.361935 0.302255,-0.524435 -0.03061,-2.115009 -1.189397,-2.783898 -0.13582,-0.07772 -0.331305,-0.162511 -0.534639,-0.247299 0.218253,-0.02906 0.429438,-0.05966 0.580959,-0.100488 v 0 c 1.29146,-0.346199 2.025508,-1.796243 1.868492,-2.380343 -0.156229,-0.584884 -1.516774,-1.473595 -2.809016,-1.12816 -0.146025,0.03925 -0.335228,0.11462 -0.570753,0.229244 0.138174,-0.182925 0.274777,-0.364278 0.35721,-0.507162 0.668889,-1.157994 0.162513,-2.702247 -0.361921,-3.005288 -0.524434,-0.302257 -2.115007,0.03062 -2.78311,1.189396 -0.07851,0.13582 -0.163297,0.331304 -0.248085,0.533855 -0.02905,-0.218252 -0.05967,-0.428654 -0.09971,-0.580174 -0.34622,-1.291458 -1.796264,-2.025508 -2.381148,-1.868492 -0.584886,0.156231 -1.473594,1.516776 -1.127374,2.809018 v 0 c 0.04004,0.150734 0.11933,0.348574 0.202549,0.551912 z" id="path2886" style="fill:url(#linearGradient15698);fill-opacity:1;stroke-width:3.7796"/><path d="m 28.213123,35.308187 c 0.825904,-1.430417 2.657497,-1.921092 4.087128,-1.095188 1.430417,0.825905 1.921092,2.656712 1.095187,4.087129 -0.825119,1.430417 -2.656712,1.921093 -4.087128,1.095185 -1.430417,-0.825903 -1.92109,-2.65671 -1.095187,-4.087126 z" id="path2888" style="fill:url(#linearGradient24181);fill-opacity:1;stroke-width:3.7796"/></g>
  
  
</svg>
