<?xml version="1.0" encoding="UTF-8" standalone="no"?>
<svg xmlns:inkscape="http://www.inkscape.org/namespaces/inkscape" xmlns:sodipodi="http://sodipodi.sourceforge.net/DTD/sodipodi-0.dtd" xmlns="http://www.w3.org/2000/svg" xmlns:svg="http://www.w3.org/2000/svg" xmlns:rdf="http://www.w3.org/1999/02/22-rdf-syntax-ns#" xmlns:cc="http://creativecommons.org/ns#" xmlns:dc="http://purl.org/dc/elements/1.1/" width="64" height="64" version="1.1" viewBox="0 0 64 64" id="svg25" sodipodi:docname="cherrytree.svg" inkscape:version="1.4.2 (ebf0e940d0, 2025-05-08)">
  <metadata id="metadata3">
    <rdf:RDF>
      <cc:Work rdf:about="">
        <dc:format>image/svg+xml</dc:format>
        <dc:type rdf:resource="http://purl.org/dc/dcmitype/StillImage"/>
      </cc:Work>
    </rdf:RDF>
  </metadata>
  <defs id="defs6">
    
    
    <filter id="filter1057" x="-0.026999999" y="-0.026999999" width="1.054" height="1.054" color-interpolation-filters="sRGB">
      <feGaussianBlur stdDeviation="0.61875" id="feGaussianBlur4"/>
    </filter>
    <linearGradient id="linearGradient1053" x1="-127" x2="-72" y1="60" y2="5" gradientTransform="matrix(1.0000071,0,0,1.0000071,131.49991,-0.5099817)" gradientUnits="userSpaceOnUse">
      <stop stop-color="#ff7d50" offset="0" id="stop4"/>
      <stop stop-color="#ff4b5a" offset=".50594" id="stop5"/>
      <stop stop-color="#ff509b" offset="1" id="stop6"/>
    </linearGradient>
    <filter id="filter1057-5" x="-0.026999999" y="-0.026999999" width="1.054" height="1.054" color-interpolation-filters="sRGB">
      <feGaussianBlur stdDeviation="0.61875" id="feGaussianBlur4-3"/>
    </filter>
  <radialGradient id="gradient_ds_br" cx="0" cy="0" r="1" gradientUnits="userSpaceOnUse" gradientTransform="matrix(13.998399,0.00477622,-0.00477841,14.004799,47.5016,48.4952)">
      <stop offset="0.65" id="stop1"/>
      <stop offset="1" stop-opacity="0" id="stop2"/>
    </radialGradient><linearGradient id="gradient_ds_b" x1="30.448999" y1="48.5" x2="30.492201" y2="62.500301" gradientUnits="userSpaceOnUse">
      <stop offset="0.653846" id="stop3"/>
      <stop offset="1" stop-opacity="0" id="stop4"/>
    </linearGradient><radialGradient id="gradient_ds_bl" cx="0" cy="0" r="1" gradientUnits="userSpaceOnUse" gradientTransform="matrix(0,14,-14,0,16.5,48.5)">
      <stop offset="0.65" id="stop5"/>
      <stop offset="1" stop-opacity="0" id="stop6"/>
    </radialGradient><linearGradient id="gradient_ds_r" x1="47.5" y1="33.5" x2="61.5" y2="33.5009" gradientUnits="userSpaceOnUse">
      <stop offset="0.649038" id="stop7"/>
      <stop offset="1" stop-opacity="0" id="stop8"/>
    </linearGradient><linearGradient id="gradient_ds_l" x1="16.5" y1="33.894699" x2="2.5" y2="33.894699" gradientUnits="userSpaceOnUse">
      <stop offset="0.649038" id="stop9"/>
      <stop offset="1" stop-opacity="0" id="stop10"/>
    </linearGradient><radialGradient id="gradient_ds_tr" cx="0" cy="0" r="1" gradientTransform="matrix(0.00843236,-14,14.0084,0.0189842,47.4916,18.5)" gradientUnits="userSpaceOnUse">
      <stop offset="0.65" id="stop11"/>
      <stop offset="1" stop-opacity="0" id="stop12"/>
    </radialGradient><linearGradient id="gradient_ds_t" x1="29.98" y1="18.5" x2="29.9158" y2="4.4998598" gradientUnits="userSpaceOnUse">
      <stop offset="0.649038" id="stop13"/>
      <stop offset="1" stop-opacity="0" id="stop14"/>
    </linearGradient><radialGradient id="gradient_ds_tl" cx="0" cy="0" r="1" gradientTransform="matrix(-0.00843236,-14,-14.0084,0.0189842,16.5084,18.5)" gradientUnits="userSpaceOnUse">
      <stop offset="0.65" id="stop15"/>
      <stop offset="1" stop-opacity="0" id="stop16"/>
    </radialGradient></defs>
  
  
  
  <g id="ds" opacity="0.25">
    <path id="ds-br" d="m 47.5,48.5 h 14 v 14 h -14 z" fill="url(#gradient_ds_br)" style="fill:url(#gradient_ds_br)"/>
    <path id="ds-b" d="m 16.5,48.5 h 31 v 14 h -31 z" fill="url(#gradient_ds_b)" style="fill:url(#gradient_ds_b)"/>
    <path id="ds-bl" d="m 2.5,48.5 h 14 v 14 h -14 z" fill="url(#gradient_ds_bl)" style="fill:url(#gradient_ds_bl)"/>
    <path id="ds-r" d="m 47.5,18.5 h 14 v 30 h -14 z" fill="url(#gradient_ds_r)" style="fill:url(#gradient_ds_r)"/>
    <path id="ds-l" d="m 2.5,18.5 h 14 v 30 h -14 z" fill="url(#gradient_ds_l)" style="fill:url(#gradient_ds_l)"/>
    <path id="ds-tr" d="m 47.5,4.5 h 14 v 14 h -14 z" fill="url(#gradient_ds_tr)" style="fill:url(#gradient_ds_tr)"/>
    <path id="ds-t" d="m 16.5,4.5 h 31 v 14 h -31 z" fill="url(#gradient_ds_t)" style="fill:url(#gradient_ds_t)"/>
    <path id="ds-tl" d="m 16.5,4.5 h -14 v 14 h 14 z" fill="url(#gradient_ds_tl)" style="fill:url(#gradient_ds_tl)"/>
  </g><rect x="4.5" y="4.5" width="55" height="55" fill="url(#linearGradient1053)" stroke-linecap="round" stroke-width="2.74437" id="bg" style="fill:url(#linearGradient1053)" rx="10"/>
  <g id="art"><path d="m 29.023564,16.21865 v 0.0039 c -5.214339,-0.02672 -9.348468,8.888112 -7.205056,14.257793 5.922259,-5.770697 11.568984,-4.748314 10.416206,-12.019513 0.624919,0.752179 1.493169,2.044312 1.677727,3.796989 0.273488,2.596322 -0.942141,6.195523 -7.452997,10.29488 -0.270128,-0.02914 -0.543998,-0.04297 -0.822252,-0.04297 -4.216524,0 -7.636686,3.419444 -7.636686,7.634796 0,4.216524 3.421371,7.636686 7.636686,7.636686 2.182758,0 4.134884,-0.918557 5.52729,-2.384778 -1.084368,-1.476388 -1.708985,-3.283 -1.708985,-5.252135 0,-1.968946 0.624617,-3.77363 1.708985,-5.249867 -0.824483,-0.868212 -1.848906,-1.537693 -2.998056,-1.945323 5.882194,-4.023387 7.325246,-7.875935 7.013807,-10.833851 -0.243089,-2.301136 -1.195337,-2.91328 -1.929676,-3.726575 1.979113,0.300369 3.765467,0.749798 4.605445,1.8418 1.067813,1.388551 1.453786,3.306207 1.455071,5.292955 0,2.788893 -0.746584,5.552613 -1.199229,6.997933 -4.097845,0.134342 -7.384587,3.491634 -7.384587,7.623079 0,4.215391 3.420124,7.636686 7.636686,7.636686 4.21539,0 7.636686,-3.420124 7.636686,-7.636686 0,-3.855572 -2.863464,-7.035729 -6.578019,-7.552778 0.483184,-1.579042 1.166838,-4.245627 1.166007,-7.070502 0,-2.149648 -0.409256,-4.354101 -1.72656,-6.068529 -2.355864,-2.418227 -4.981894,-2.718856 -7.98063,-2.835948 -0.627452,-0.264731 -1.25033,-0.394629 -1.85741,-0.398446 z" fill="#ffffff" id="path14" style="stroke-width:3.7796"/></g>
</svg>
