<?xml version="1.0" encoding="UTF-8" standalone="no"?>
<svg xmlns:inkscape="http://www.inkscape.org/namespaces/inkscape" xmlns:sodipodi="http://sodipodi.sourceforge.net/DTD/sodipodi-0.dtd" xmlns="http://www.w3.org/2000/svg" xmlns:svg="http://www.w3.org/2000/svg" xmlns:rdf="http://www.w3.org/1999/02/22-rdf-syntax-ns#" xmlns:cc="http://creativecommons.org/ns#" xmlns:dc="http://purl.org/dc/elements/1.1/" width="64" height="64" version="1.1" viewBox="0 0 64 64" id="svg9" sodipodi:docname="chromium-bsu.svg" inkscape:version="1.4.2 (ebf0e940d0, 2025-05-08)">
  <defs id="defs2">
    <filter id="filter1057-2" x="-0.026999999" y="-0.026999999" width="1.054" height="1.054" color-interpolation-filters="sRGB">
      <feGaussianBlur stdDeviation="0.61875" id="feGaussianBlur1"/>
    </filter>
    <linearGradient id="linearGradient1053-9" x1="-127" x2="-72" y1="60" y2="5" gradientTransform="matrix(1.0000071,0,0,1.0000071,131.49991,-0.51024582)" gradientUnits="userSpaceOnUse">
      <stop stop-color="#c337c3" offset="0" id="stop1"/>
      <stop stop-color="#f5378c" offset="1" id="stop2"/>
    </linearGradient>
    <filter id="filter1057-2-3" x="-0.026999999" y="-0.026999999" width="1.054" height="1.054" color-interpolation-filters="sRGB">
      <feGaussianBlur stdDeviation="0.61875" id="feGaussianBlur1-6"/>
    </filter>
  <radialGradient id="gradient_ds_br" cx="0" cy="0" r="1" gradientUnits="userSpaceOnUse" gradientTransform="matrix(13.998399,0.00477622,-0.00477841,14.004799,47.5016,48.4952)">
      <stop offset="0.65" id="stop1"/>
      <stop offset="1" stop-opacity="0" id="stop2"/>
    </radialGradient><linearGradient id="gradient_ds_b" x1="30.448999" y1="48.5" x2="30.492201" y2="62.500301" gradientUnits="userSpaceOnUse">
      <stop offset="0.653846" id="stop3"/>
      <stop offset="1" stop-opacity="0" id="stop4"/>
    </linearGradient><radialGradient id="gradient_ds_bl" cx="0" cy="0" r="1" gradientUnits="userSpaceOnUse" gradientTransform="matrix(0,14,-14,0,16.5,48.5)">
      <stop offset="0.65" id="stop5"/>
      <stop offset="1" stop-opacity="0" id="stop6"/>
    </radialGradient><linearGradient id="gradient_ds_r" x1="47.5" y1="33.5" x2="61.5" y2="33.5009" gradientUnits="userSpaceOnUse">
      <stop offset="0.649038" id="stop7"/>
      <stop offset="1" stop-opacity="0" id="stop8"/>
    </linearGradient><linearGradient id="gradient_ds_l" x1="16.5" y1="33.894699" x2="2.5" y2="33.894699" gradientUnits="userSpaceOnUse">
      <stop offset="0.649038" id="stop9"/>
      <stop offset="1" stop-opacity="0" id="stop10"/>
    </linearGradient><radialGradient id="gradient_ds_tr" cx="0" cy="0" r="1" gradientTransform="matrix(0.00843236,-14,14.0084,0.0189842,47.4916,18.5)" gradientUnits="userSpaceOnUse">
      <stop offset="0.65" id="stop11"/>
      <stop offset="1" stop-opacity="0" id="stop12"/>
    </radialGradient><linearGradient id="gradient_ds_t" x1="29.98" y1="18.5" x2="29.9158" y2="4.4998598" gradientUnits="userSpaceOnUse">
      <stop offset="0.649038" id="stop13"/>
      <stop offset="1" stop-opacity="0" id="stop14"/>
    </linearGradient><radialGradient id="gradient_ds_tl" cx="0" cy="0" r="1" gradientTransform="matrix(-0.00843236,-14,-14.0084,0.0189842,16.5084,18.5)" gradientUnits="userSpaceOnUse">
      <stop offset="0.65" id="stop15"/>
      <stop offset="1" stop-opacity="0" id="stop16"/>
    </radialGradient></defs>
  <metadata id="metadata2">
    <rdf:RDF>
      <cc:Work rdf:about="">
        <dc:format>image/svg+xml</dc:format>
        <dc:type rdf:resource="http://purl.org/dc/dcmitype/StillImage"/>
      </cc:Work>
    </rdf:RDF>
  </metadata>
  
  <g id="ds" opacity="0.25">
    <path id="ds-br" d="m 47.5,48.5 h 14 v 14 h -14 z" fill="url(#gradient_ds_br)" style="fill:url(#gradient_ds_br)"/>
    <path id="ds-b" d="m 16.5,48.5 h 31 v 14 h -31 z" fill="url(#gradient_ds_b)" style="fill:url(#gradient_ds_b)"/>
    <path id="ds-bl" d="m 2.5,48.5 h 14 v 14 h -14 z" fill="url(#gradient_ds_bl)" style="fill:url(#gradient_ds_bl)"/>
    <path id="ds-r" d="m 47.5,18.5 h 14 v 30 h -14 z" fill="url(#gradient_ds_r)" style="fill:url(#gradient_ds_r)"/>
    <path id="ds-l" d="m 2.5,18.5 h 14 v 30 h -14 z" fill="url(#gradient_ds_l)" style="fill:url(#gradient_ds_l)"/>
    <path id="ds-tr" d="m 47.5,4.5 h 14 v 14 h -14 z" fill="url(#gradient_ds_tr)" style="fill:url(#gradient_ds_tr)"/>
    <path id="ds-t" d="m 16.5,4.5 h 31 v 14 h -31 z" fill="url(#gradient_ds_t)" style="fill:url(#gradient_ds_t)"/>
    <path id="ds-tl" d="m 16.5,4.5 h -14 v 14 h 14 z" fill="url(#gradient_ds_tl)" style="fill:url(#gradient_ds_tl)"/>
  </g><rect x="4.5" y="4.5" width="55" height="55" fill="url(#linearGradient1053-9)" stroke-linecap="round" stroke-width="2.74441" id="bg" style="fill:url(#linearGradient1053-9)" rx="10"/>
  <g fill="#ffffff" stroke-width="0.33777" id="art" transform="matrix(3.779602,0,0,3.779602,39.954173,-10.679265)">
    <path d="m -2.1047,6.9012 -4.391,7.4309 h 8.7819 m -4.391,-4.391 c 0.56069,0 1.0133,0.33506 1.0133,0.7495 v 1.879 c 0,0.41444 -0.45261,0.7495 -1.0133,0.7495 -0.56069,0 -1.0133,-0.33506 -1.0133,-0.7495 v -1.879 c 0,-0.41444 0.45261,-0.7495 1.0133,-0.7495" id="path3"/>
    <path d="m -4.1313,12.981 h 0.00135 c 0.37222,0 0.67553,0.26785 0.67553,0.59785 v 1.5054 c 0,0.33101 -0.30331,0.59886 -0.67553,0.59886 H -4.1313 c -0.37323,0 -0.67553,-0.26785 -0.67553,-0.59886 v -1.5054 c 0,-0.33 0.3023,-0.59785 0.67553,-0.59785" id="path4"/>
    <path d="m -0.079503,12.981 h 0.0013494 c 0.37323,0 0.67553,0.26785 0.67553,0.59785 v 1.5054 c 0,0.33101 -0.3023,0.59886 -0.67553,0.59886 H -0.079503 c -0.37222,0 -0.67418,-0.26785 -0.67418,-0.59886 v -1.5054 c 0,-0.33 0.3023,-0.59785 0.67418,-0.59785" id="path5"/>
    <path d="m -2.1047,10.279 h 0.00135 c 0.37222,0 0.67418,0.26785 0.67418,0.59886 v 1.5054 c 0,0.33 -0.3023,0.59886 -0.67418,0.59886 H -2.1047 c -0.37323,0 -0.67553,-0.2692 -0.67553,-0.59886 v -1.5054 c 0,-0.33101 0.3023,-0.59886 0.67553,-0.59886" id="path6"/>
    <path d="m -4.9758,9.2655 h 0.00135 c 0.27832,0 0.5053,0.26785 0.5053,0.59886 v 2.8565 c 0,0.33 -0.22698,0.59784 -0.5053,0.59784 H -4.9758 c -0.27967,0 -0.50665,-0.26785 -0.50665,-0.59784 v -2.8565 c 0,-0.33101 0.22698,-0.59886 0.50665,-0.59886" id="path7"/>
    <path d="m 0.76626,9.2655 h 0.001349 c 0.27967,0 0.5053,0.26785 0.5053,0.59886 v 2.8565 c 0,0.33 -0.22563,0.59784 -0.5053,0.59784 H 0.76626 c -0.27967,0 -0.50665,-0.26785 -0.50665,-0.59784 v -2.8565 c 0,-0.33101 0.22698,-0.59886 0.50665,-0.59886" id="path8"/>
  </g>
</svg>
