<?xml version="1.0" encoding="UTF-8" standalone="no"?>
<svg xmlns:inkscape="http://www.inkscape.org/namespaces/inkscape" xmlns:sodipodi="http://sodipodi.sourceforge.net/DTD/sodipodi-0.dtd" xmlns="http://www.w3.org/2000/svg" xmlns:svg="http://www.w3.org/2000/svg" xmlns:rdf="http://www.w3.org/1999/02/22-rdf-syntax-ns#" xmlns:cc="http://creativecommons.org/ns#" xmlns:dc="http://purl.org/dc/elements/1.1/" inkscape:version="1.4.2 (ebf0e940d0, 2025-05-08)" sodipodi:docname="cisco-anyconnect.svg" id="svg25" viewBox="0 0 64 64" version="1.1" height="64" width="64">
  <sodipodi:namedview id="namedview1" pagecolor="#ffffff" bordercolor="#000000" borderopacity="0.25" inkscape:showpageshadow="2" inkscape:pageopacity="0.0" inkscape:pagecheckerboard="0" inkscape:deskcolor="#d1d1d1" inkscape:current-layer="art"/>
  <metadata id="metadata29">
    <rdf:RDF>
      <cc:Work rdf:about="">
        <dc:format>image/svg+xml</dc:format>
        <dc:type rdf:resource="http://purl.org/dc/dcmitype/StillImage"/>
        <dc:title/>
      </cc:Work>
    </rdf:RDF>
  </metadata>
  <defs id="defs7">
    <linearGradient gradientUnits="userSpaceOnUse" gradientTransform="matrix(0.05623,0,0,0.05623,0.071601,-0.05278)" y2="160" y1="120" x2="160" x1="135" id="a">
      <stop id="stop2" offset="0" stop-color="#eff7fc"/>
      <stop id="stop4" offset="1" stop-color="#fff"/>
    </linearGradient>
    <filter id="filter2761" x="-.024" y="-.024" width="1.048" height="1.048" color-interpolation-filters="sRGB">
      <feGaussianBlur stdDeviation="0.14552168" id="feGaussianBlur854"/>
    </filter>
    <linearGradient id="linearGradient1024-1" x1="1.3315" x2="15.65" y1="15.576" y2="1.17" gradientTransform="matrix(3.779602,0,0,3.779602,-6.8543425,-22.411134)" gradientUnits="userSpaceOnUse">
      <stop stop-color="#00c8ff" offset="0" id="stop857"/>
      <stop stop-color="#14a0ff" offset="1" id="stop859"/>
    </linearGradient>
    <filter id="filter1655" x="-.0735" y="-.098" width="1.147" height="1.196" color-interpolation-filters="sRGB">
      <feGaussianBlur stdDeviation="0.32410824" id="feGaussianBlur862"/>
    </filter>
    <linearGradient id="linearGradient1005" x1=".73911" x2="16.388" y1="16.296" y2=".64687" gradientTransform="matrix(3.7795018,0,0,3.7795018,86.300388,-73.914204)" gradientUnits="userSpaceOnUse">
      <stop stop-color="#00a0ff" offset="0" id="stop912"/>
      <stop stop-color="#37beff" offset="1" id="stop914"/>
    </linearGradient>
    <linearGradient id="w" x1="123.64" x2="146.53" y1="131.03" y2="174.71" gradientTransform="matrix(4.2812,0,0,3.5908,41,42)" gradientUnits="userSpaceOnUse">
      <stop stop-color="#fafafa" offset="0" id="stop917"/>
      <stop stop-color="#fff" offset="1" id="stop919"/>
    </linearGradient>
    <filter id="filter1152" x="-0.055255153" y="-0.0656407" width="1.1105103" height="1.1312814" color-interpolation-filters="sRGB">
      <feGaussianBlur stdDeviation="2.9934784" id="feGaussianBlur922"/>
    </filter>
    
    <filter id="filter1057" x="-0.026999999" y="-0.026999999" width="1.054" height="1.054" color-interpolation-filters="sRGB">
      <feGaussianBlur stdDeviation="0.61875" id="feGaussianBlur866"/>
    </filter>
    <linearGradient id="linearGradient1053" x1="-127" x2="-72" y1="60" y2="5" gradientTransform="translate(131.50001,-0.51)" gradientUnits="userSpaceOnUse">
      <stop stop-color="#32d7ff" offset="0" id="stop869"/>
      <stop stop-color="#329bff" offset="1" id="stop871"/>
    </linearGradient>
    
    
    
    
    
    
    
    <path id="SVGID_61_" d="M309.4,297.7c5.7-6.4,11.2-13.6,16.3-22.1"/>
    <path id="SVGID_60_" d="M74.3,275.6c5.1,8.5,10.6,15.7,16.2,22"/>
    <path id="SVGID_59_" d="M53.5,203.2c0.1,6.7,0.7,13.4,1.8,20l0,0l0,0l0,0c3.1,19.1,9.7,36.8,19.1,52.4"/>
    <path id="SVGID_58_" d="M325.7,275.6c12.8-21.3,20.6-45.6,21-72.3"/>
    <clipPath clipPathUnits="userSpaceOnUse" id="clipPath24926">
      <rect x="4.4984231" y="4.5199857" width="53.783337" height="53.783337" ry="14.668182" fill="url(#linearGradient1053)" stroke-linecap="round" stroke-width="2.68369" id="rect24928" style="fill:#e6e6e6;fill-opacity:1;stroke:none"/>
    </clipPath>
    <filter id="filter1057-7" x="-0.026999999" y="-0.026999999" width="1.054" height="1.054" color-interpolation-filters="sRGB">
      <feGaussianBlur stdDeviation="0.61875" id="feGaussianBlur866-5"/>
    </filter>
    <filter inkscape:collect="always" style="color-interpolation-filters:sRGB" id="filter1057-1" x="-0.026999999" width="1.054" y="-0.026999999" height="1.054">
      <feGaussianBlur inkscape:collect="always" stdDeviation="0.61875" id="feGaussianBlur1059"/>
    </filter>
  <radialGradient id="gradient_ds_br" cx="0" cy="0" r="1" gradientUnits="userSpaceOnUse" gradientTransform="matrix(13.998399,0.00477622,-0.00477841,14.004799,47.5016,48.4952)">
      <stop offset="0.65" id="stop1"/>
      <stop offset="1" stop-opacity="0" id="stop2"/>
    </radialGradient><linearGradient id="gradient_ds_b" x1="30.448999" y1="48.5" x2="30.492201" y2="62.500301" gradientUnits="userSpaceOnUse">
      <stop offset="0.653846" id="stop3"/>
      <stop offset="1" stop-opacity="0" id="stop4"/>
    </linearGradient><radialGradient id="gradient_ds_bl" cx="0" cy="0" r="1" gradientUnits="userSpaceOnUse" gradientTransform="matrix(0,14,-14,0,16.5,48.5)">
      <stop offset="0.65" id="stop5"/>
      <stop offset="1" stop-opacity="0" id="stop6"/>
    </radialGradient><linearGradient id="gradient_ds_r" x1="47.5" y1="33.5" x2="61.5" y2="33.5009" gradientUnits="userSpaceOnUse">
      <stop offset="0.649038" id="stop7"/>
      <stop offset="1" stop-opacity="0" id="stop8"/>
    </linearGradient><linearGradient id="gradient_ds_l" x1="16.5" y1="33.894699" x2="2.5" y2="33.894699" gradientUnits="userSpaceOnUse">
      <stop offset="0.649038" id="stop9"/>
      <stop offset="1" stop-opacity="0" id="stop10"/>
    </linearGradient><radialGradient id="gradient_ds_tr" cx="0" cy="0" r="1" gradientTransform="matrix(0.00843236,-14,14.0084,0.0189842,47.4916,18.5)" gradientUnits="userSpaceOnUse">
      <stop offset="0.65" id="stop11"/>
      <stop offset="1" stop-opacity="0" id="stop12"/>
    </radialGradient><linearGradient id="gradient_ds_t" x1="29.98" y1="18.5" x2="29.9158" y2="4.4998598" gradientUnits="userSpaceOnUse">
      <stop offset="0.649038" id="stop13"/>
      <stop offset="1" stop-opacity="0" id="stop14"/>
    </linearGradient><radialGradient id="gradient_ds_tl" cx="0" cy="0" r="1" gradientTransform="matrix(-0.00843236,-14,-14.0084,0.0189842,16.5084,18.5)" gradientUnits="userSpaceOnUse">
      <stop offset="0.65" id="stop15"/>
      <stop offset="1" stop-opacity="0" id="stop16"/>
    </radialGradient></defs>
  
  
  <g id="ds" opacity="0.25">
    <path id="ds-br" d="m 47.5,48.5 h 14 v 14 h -14 z" fill="url(#gradient_ds_br)" style="fill:url(#gradient_ds_br)"/>
    <path id="ds-b" d="m 16.5,48.5 h 31 v 14 h -31 z" fill="url(#gradient_ds_b)" style="fill:url(#gradient_ds_b)"/>
    <path id="ds-bl" d="m 2.5,48.5 h 14 v 14 h -14 z" fill="url(#gradient_ds_bl)" style="fill:url(#gradient_ds_bl)"/>
    <path id="ds-r" d="m 47.5,18.5 h 14 v 30 h -14 z" fill="url(#gradient_ds_r)" style="fill:url(#gradient_ds_r)"/>
    <path id="ds-l" d="m 2.5,18.5 h 14 v 30 h -14 z" fill="url(#gradient_ds_l)" style="fill:url(#gradient_ds_l)"/>
    <path id="ds-tr" d="m 47.5,4.5 h 14 v 14 h -14 z" fill="url(#gradient_ds_tr)" style="fill:url(#gradient_ds_tr)"/>
    <path id="ds-t" d="m 16.5,4.5 h 31 v 14 h -31 z" fill="url(#gradient_ds_t)" style="fill:url(#gradient_ds_t)"/>
    <path id="ds-tl" d="m 16.5,4.5 h -14 v 14 h 14 z" fill="url(#gradient_ds_tl)" style="fill:url(#gradient_ds_tl)"/>
  </g><rect y="4.5" x="4.5" height="55" width="55" id="bg" style="fill:#e6e6e6;fill-opacity:1;stroke-width:2.7444;stroke-linecap:round;font-variation-settings:normal;opacity:1;vector-effect:none;stroke:none;stroke-linejoin:miter;stroke-miterlimit:4;stroke-dasharray:none;stroke-dashoffset:0;stroke-opacity:1;-inkscape-stroke:none;stop-color:#000000;stop-opacity:1" rx="10"/>
  <g id="art" transform="matrix(1.0226216,0,0,1.0226216,-0.10018551,-0.12223587)" clip-path="none">
    <path fill="#01828e" d="m 41.4,25.714 c -1.137,0.182 -2.253,0.299 -3.329,0.334 -0.104,-0.812 -0.265,-1.597 -0.451,-2.37 -0.469,-1.936 -1.194,-3.724 -2.157,-5.326 -1.441,1.28 -2.977,2.496 -4.588,3.65 0.182,0.968 0.269,2.036 0.23,3.203 -1.137,-0.352 -2.131,-0.807 -2.982,-1.332 -0.66,0.417 -1.332,0.825 -2.014,1.215 -1.263,0.729 -2.543,1.398 -3.828,2.018 0.087,0.1 0.165,0.204 0.256,0.304 1.228,1.389 2.713,2.465 4.384,3.255 0.977,0.46 2.014,0.825 3.108,1.085 -0.234,0.872 -0.516,1.762 -0.829,2.674 4.67,-2.013 8.823,-4.999 12.2,-8.71 z" id="path70" transform="matrix(1.3592499,0,0,1.3592499,-1.008298,-0.13957515)"/>
    <path id="bg-8" style="font-variation-settings:normal;vector-effect:none;fill:#1e75ba;fill-opacity:1;stroke:none;stroke-width:2.7444;stroke-linecap:round;stroke-linejoin:miter;stroke-miterlimit:4;stroke-dasharray:none;stroke-dashoffset:0;stroke-opacity:1;-inkscape-stroke:none;stop-color:#000000" d="M 59.5 34.833984 C 58.472468 35.083315 57.372912 35.322318 56.414062 35.476562 C 51.721428 40.633456 45.949414 44.78539 39.451172 47.591797 C 38.044188 51.67097 36.592695 55.125226 34.181641 59.5 L 48.589844 59.5 C 49.779013 55.672787 51.598456 47.543011 51.902344 44.308594 C 53.754229 44.059851 57.261023 43.24491 59.5 42.626953 L 59.5 34.833984 z " transform="matrix(0.97787882,0,0,0.97787882,0.09796929,0.11953187)"/>
    <path id="path72" d="m 26.489778,3.428039 c -0.855468,0.9189141 -2.355203,2.3888494 -2.888943,3.0758244 -1.168,1.515 -2.187681,2.9996852 -2.981681,4.4626856 -1.259,0.091 -2.538567,0.312358 -3.827567,0.646358 C 13.11763,12.561436 7.7953319,15.33522 4.0512947,18.215602 V 30.635525 C 8.4190266,25.291348 14.439686,21.096062 18.553617,18.80435 c 0.009,0.161 0.03499,0.317528 0.05199,0.473528 2.074,-3.729 6.582883,-4.210022 9.065883,-7.405022 -0.295,-0.104 -0.589446,-0.208077 -0.889446,-0.295077 C 29.767141,7.4468036 38.80467,6.243264 42.15414,6.2593712 40.842148,4.5359748 38.768194,3.428039 36.425435,3.428039 Z" transform="matrix(1.3592499,0,0,1.3592499,-1.008298,-0.13957515)" style="fill:#4aae52;fill-opacity:1" sodipodi:nodetypes="cccccccccccsc"/>
    <path fill="#209673" d="m 31.101,13.64 c -0.065,-0.043 -0.117,-0.095 -0.182,-0.139 -1.024,-0.686 -2.114,-1.22 -3.247,-1.628 -2.483,3.19 -6.992,3.676 -9.067,7.405 0.152,1.541 0.612,3.086 1.454,4.648 0.569,1.05 1.306,2.109 2.222,3.181 1.285,-0.621 2.565,-1.285 3.828,-2.014 0.681,-0.395 1.354,-0.803 2.014,-1.22 -0.655,-0.408 -1.233,-0.851 -1.684,-1.337 -0.916,-0.998 -1.567,-2.066 -1.957,-3.16 -0.299,-0.851 -0.447,-1.719 -0.408,-2.582 1.063,-0.135 2.031,-0.052 2.908,0.217 0.477,0.143 0.938,0.33 1.35,0.608 1.341,0.898 2.17,2.418 2.543,4.384 1.61,-1.155 3.147,-2.37 4.588,-3.65 -1.12,-1.862 -2.565,-3.468 -4.362,-4.713 z" id="path74" transform="matrix(1.3592499,0,0,1.3592499,-1.008298,-0.13957515)"/>
  </g>
</svg>
