<?xml version="1.0" encoding="UTF-8" standalone="no"?>
<svg xmlns:inkscape="http://www.inkscape.org/namespaces/inkscape" xmlns:sodipodi="http://sodipodi.sourceforge.net/DTD/sodipodi-0.dtd" xmlns="http://www.w3.org/2000/svg" xmlns:svg="http://www.w3.org/2000/svg" xmlns:rdf="http://www.w3.org/1999/02/22-rdf-syntax-ns#" xmlns:cc="http://creativecommons.org/ns#" xmlns:dc="http://purl.org/dc/elements/1.1/" height="64" width="64" version="1.1" id="svg22" sodipodi:docname="claws-mail.svg" inkscape:version="1.4.2 (ebf0e940d0, 2025-05-08)">
  <sodipodi:namedview id="namedview1" pagecolor="#ffffff" bordercolor="#000000" borderopacity="0.25" inkscape:showpageshadow="2" inkscape:pageopacity="0.0" inkscape:pagecheckerboard="0" inkscape:deskcolor="#d1d1d1" inkscape:current-layer="svg22"/>
  <metadata id="metadata28">
    <rdf:RDF>
      <cc:Work rdf:about="">
        <dc:format>image/svg+xml</dc:format>
        <dc:type rdf:resource="http://purl.org/dc/dcmitype/StillImage"/>
        <dc:title/>
      </cc:Work>
    </rdf:RDF>
  </metadata>
  <defs id="defs26">
    <linearGradient id="b-3" x1="399.57001" x2="399.57001" y1="545.79999" y2="517.79999" gradientTransform="matrix(2.1429,0,0,2.1429,-826.34,-1107.5)" gradientUnits="userSpaceOnUse">
      <stop stop-color="#3889e9" offset="0" id="stop2-6"/>
      <stop stop-color="#5ea5fb" offset="1" id="stop4-7"/>
    </linearGradient>
    <linearGradient id="k" x1="543.79999" x2="503.79999" gradientTransform="matrix(0,1,-1.1667,0,-364.64085,-492.8)" gradientUnits="userSpaceOnUse">
      <stop stop-color="#197cf1" offset="0" id="stop7-5"/>
      <stop stop-color="#21c9fb" offset="1" id="stop9-3"/>
    </linearGradient>
    <linearGradient id="g" x2="0" y1="44" y2="20" gradientTransform="translate(88.029153,7)" gradientUnits="userSpaceOnUse">
      <stop stop-color="#eef1f2" offset="0" id="stop12"/>
      <stop stop-color="#f9fafb" offset="1" id="stop14"/>
    </linearGradient>
    <linearGradient id="i" x1="384.57001" x2="414.57001" gradientTransform="translate(-376.57,-492.8)" gradientUnits="userSpaceOnUse">
      <stop stop-opacity=".275" offset="0" id="stop17"/>
      <stop stop-color="#fff" stop-opacity="0" offset="1" id="stop19"/>
    </linearGradient>
    <linearGradient id="h" x1="432.57001" x2="421.01999" y1="547.79999" y2="527.79999" gradientTransform="translate(-376.57,-492.8)" gradientUnits="userSpaceOnUse">
      <stop stop-opacity=".082" offset="0" id="stop22"/>
      <stop stop-opacity="0" offset="1" id="stop24"/>
    </linearGradient>
    <linearGradient id="j" x1="384.57001" x2="394.57001" y1="547.79999" y2="530.47998" gradientTransform="translate(-376.57,-492.8)" gradientUnits="userSpaceOnUse">
      <stop stop-color="#fff" stop-opacity="0" offset="0" id="stop27"/>
      <stop stop-color="#fff" stop-opacity=".314" offset="1" id="stop29"/>
    </linearGradient>
    <filter id="f" x="-0.043714002" y="-0.0306" width="1.0874" height="1.0612" color-interpolation-filters="sRGB">
      <feGaussianBlur stdDeviation="0.51" id="feGaussianBlur32"/>
    </filter>
    <filter id="d" x="-0.034200002" y="-0.037999999" width="1.0684" height="1.076" color-interpolation-filters="sRGB">
      <feGaussianBlur stdDeviation="0.57" id="feGaussianBlur35"/>
    </filter>
    <filter id="a-5" x="-0.042844001" y="-0.10007" width="1.0857" height="1.2000999" color-interpolation-filters="sRGB">
      <feGaussianBlur stdDeviation="0.65543744" id="feGaussianBlur38"/>
    </filter>
    <linearGradient id="linearGradient862" x1="7.9373002" x2="7.9373002" y1="15.081" y2="1.852" gradientTransform="matrix(3.7796,0,0,3.7796,80.029153,0)" gradientUnits="userSpaceOnUse">
      <stop stop-color="#343434" offset="0" id="stop41"/>
      <stop stop-color="#767676" offset="1" id="stop43"/>
    </linearGradient>
    <filter id="filter2761" x="-0.024" y="-0.024" width="1.048" height="1.048" color-interpolation-filters="sRGB">
      <feGaussianBlur stdDeviation="0.14552168" id="feGaussianBlur909"/>
    </filter>
    <linearGradient id="linearGradient1024-1" x1="1.3315001" x2="15.65" y1="15.576" y2="1.17" gradientTransform="matrix(3.779602,0,0,3.779602,0.75200939,-15.469725)" gradientUnits="userSpaceOnUse">
      <stop stop-color="#00c8ff" offset="0" id="stop912"/>
      <stop stop-color="#14a0ff" offset="1" id="stop914"/>
    </linearGradient>
    <filter id="filter1655" x="-0.073499489" y="-0.097999317" width="1.146999" height="1.1959986" color-interpolation-filters="sRGB">
      <feGaussianBlur stdDeviation="0.32410824" id="feGaussianBlur917"/>
    </filter>
    <filter id="filter2761-3" x="-0.024" y="-0.024" width="1.048" height="1.048" color-interpolation-filters="sRGB">
      <feGaussianBlur stdDeviation="0.14552168" id="feGaussianBlur2"/>
    </filter>
    <linearGradient id="linearGradient1024" x1="1.3315001" x2="15.65" y1="15.576" y2="1.17" gradientUnits="userSpaceOnUse" gradientTransform="translate(0.7523229,-6.0494795)">
      <stop stop-color="#00c8ff" offset="0" id="stop5"/>
      <stop stop-color="#14a0ff" offset="1" id="stop7-6"/>
    </linearGradient>
    <filter id="filter914" x="-0.085106999" y="-0.082921997" width="1.1702" height="1.1658" color-interpolation-filters="sRGB">
      <feGaussianBlur stdDeviation="0.33551342" id="feGaussianBlur10"/>
    </filter>
    
    <filter id="filter1057" x="-0.026999999" y="-0.026999999" width="1.054" height="1.054" color-interpolation-filters="sRGB">
      <feGaussianBlur stdDeviation="0.61875" id="feGaussianBlur864"/>
    </filter>
    <linearGradient id="linearGradient1053" x1="-127" x2="-72" y1="60" y2="5" gradientTransform="translate(131.5,-0.51000031)" gradientUnits="userSpaceOnUse">
      <stop stop-color="#32d7ff" offset="0" id="stop867"/>
      <stop stop-color="#329bff" offset="1" id="stop869"/>
    </linearGradient>
    
    
    
    
    
    
    
    <linearGradient id="a" gradientTransform="matrix(1.0155171,0,0,0.88638161,-65.086805,59.629401)" gradientUnits="userSpaceOnUse" x1="466.37592" x2="466.48874" y1="542.6795" y2="502.37723">
      <stop offset="0" stop-color="#197df1" id="stop2"/>
      <stop offset="1" stop-color="#20bcfa" id="stop4"/>
    </linearGradient>
    <linearGradient gradientUnits="userSpaceOnUse" x1="258.65744" x2="257.50476" y1="1.707616" y2="564.00525" id="linearGradient11">
      <stop offset="0" stop-color="#333" id="stop7"/>
      <stop offset="1" stop-color="#353535" id="stop9"/>
    </linearGradient>
    <linearGradient id="b" gradientUnits="userSpaceOnUse" x1="258.65744" x2="257.50476" y1="1.707616" y2="564.00525">
      <stop offset="0" stop-color="#e9e9e9" id="stop13"/>
      <stop offset="1" stop-color="#f9f9f9" id="stop15"/>
    </linearGradient>
  <radialGradient id="gradient_ds_br" cx="0" cy="0" r="1" gradientUnits="userSpaceOnUse" gradientTransform="matrix(13.998399,0.00477622,-0.00477841,14.004799,47.5016,48.4952)">
      <stop offset="0.65" id="stop1"/>
      <stop offset="1" stop-opacity="0" id="stop2"/>
    </radialGradient><linearGradient id="gradient_ds_b" x1="30.448999" y1="48.5" x2="30.492201" y2="62.500301" gradientUnits="userSpaceOnUse">
      <stop offset="0.653846" id="stop3"/>
      <stop offset="1" stop-opacity="0" id="stop4"/>
    </linearGradient><radialGradient id="gradient_ds_bl" cx="0" cy="0" r="1" gradientUnits="userSpaceOnUse" gradientTransform="matrix(0,14,-14,0,16.5,48.5)">
      <stop offset="0.65" id="stop5"/>
      <stop offset="1" stop-opacity="0" id="stop6"/>
    </radialGradient><linearGradient id="gradient_ds_r" x1="47.5" y1="33.5" x2="61.5" y2="33.5009" gradientUnits="userSpaceOnUse">
      <stop offset="0.649038" id="stop7"/>
      <stop offset="1" stop-opacity="0" id="stop8"/>
    </linearGradient><linearGradient id="gradient_ds_l" x1="16.5" y1="33.894699" x2="2.5" y2="33.894699" gradientUnits="userSpaceOnUse">
      <stop offset="0.649038" id="stop9"/>
      <stop offset="1" stop-opacity="0" id="stop10"/>
    </linearGradient><radialGradient id="gradient_ds_tr" cx="0" cy="0" r="1" gradientTransform="matrix(0.00843236,-14,14.0084,0.0189842,47.4916,18.5)" gradientUnits="userSpaceOnUse">
      <stop offset="0.65" id="stop11"/>
      <stop offset="1" stop-opacity="0" id="stop12"/>
    </radialGradient><linearGradient id="gradient_ds_t" x1="29.98" y1="18.5" x2="29.9158" y2="4.4998598" gradientUnits="userSpaceOnUse">
      <stop offset="0.649038" id="stop13"/>
      <stop offset="1" stop-opacity="0" id="stop14"/>
    </linearGradient><radialGradient id="gradient_ds_tl" cx="0" cy="0" r="1" gradientTransform="matrix(-0.00843236,-14,-14.0084,0.0189842,16.5084,18.5)" gradientUnits="userSpaceOnUse">
      <stop offset="0.65" id="stop15"/>
      <stop offset="1" stop-opacity="0" id="stop16"/>
    </radialGradient></defs>
  
  <g id="ds" opacity="0.25">
    <path id="ds-br" d="m 47.5,48.5 h 14 v 14 h -14 z" fill="url(#gradient_ds_br)" style="fill:url(#gradient_ds_br)"/>
    <path id="ds-b" d="m 16.5,48.5 h 31 v 14 h -31 z" fill="url(#gradient_ds_b)" style="fill:url(#gradient_ds_b)"/>
    <path id="ds-bl" d="m 2.5,48.5 h 14 v 14 h -14 z" fill="url(#gradient_ds_bl)" style="fill:url(#gradient_ds_bl)"/>
    <path id="ds-r" d="m 47.5,18.5 h 14 v 30 h -14 z" fill="url(#gradient_ds_r)" style="fill:url(#gradient_ds_r)"/>
    <path id="ds-l" d="m 2.5,18.5 h 14 v 30 h -14 z" fill="url(#gradient_ds_l)" style="fill:url(#gradient_ds_l)"/>
    <path id="ds-tr" d="m 47.5,4.5 h 14 v 14 h -14 z" fill="url(#gradient_ds_tr)" style="fill:url(#gradient_ds_tr)"/>
    <path id="ds-t" d="m 16.5,4.5 h 31 v 14 h -31 z" fill="url(#gradient_ds_t)" style="fill:url(#gradient_ds_t)"/>
    <path id="ds-tl" d="m 16.5,4.5 h -14 v 14 h 14 z" fill="url(#gradient_ds_tl)" style="fill:url(#gradient_ds_tl)"/>
  </g><rect x="4.5" y="4.5" width="55" height="55" fill="url(#linearGradient1053)" stroke-linecap="round" stroke-width="2.7444" id="bg" style="fill:url(#linearGradient1053)" rx="10"/>
  <g id="art"><g transform="matrix(3.779602,0,0,3.779602,-1.8340138,-2.2804982)" fill="#0f9bff" filter="url(#filter1655)" id="g934">
    <rect x="3.6602001" y="5.027" width="10.583" height="7.9373002" ry="1.1978" id="rect928"/>
    <path d="m 4.858,5.027 c -0.35542,0 -0.67034,0.15618 -0.88933,0.40048 l 4.6358,3.9051 a 0.4911,0.41369 0 0 0 0.025839,0.020153 0.4911,0.41369 0 0 0 0.038239,0.025321 0.4911,0.41369 0 0 0 0.04134,0.022221 0.4911,0.41369 0 0 0 0.043923,0.018603 0.4911,0.41369 0 0 0 0.046508,0.014469 0.4911,0.41369 0 0 0 0.047026,0.011369 0.4911,0.41369 0 0 0 0.048574,0.0062 0.4911,0.41369 0 0 0 0.048576,0.0031 0.4911,0.41369 0 0 0 0.04909,-0.00155 A 0.4911,0.41369 0 0 0 9.042161,9.446786 0.4911,0.41369 0 0 0 9.090219,9.436966 0.4911,0.41369 0 0 0 9.136726,9.42353 0.4911,0.41369 0 0 0 9.181167,9.40596 0.4911,0.41369 0 0 0 9.223023,9.384773 0.4911,0.41369 0 0 0 9.262813,9.360486 0.4911,0.41369 0 0 0 9.298986,9.332581 l 4.6358,-3.9051 c -0.21899,-0.24431 -0.53391,-0.40048 -0.88933,-0.40048 z" id="path930"/>
    <path d="m 13.935,5.4275 -8.9471,7.5369 h 8.0577 c 0.66358,0 1.1978,-0.53426 1.1978,-1.1978 V 6.2249 c 0,-0.30816 -0.11863,-0.58553 -0.3085,-0.79735 z" id="path932"/>
  </g><g transform="matrix(3.779602,0,0,3.779602,-1.8340138,-2.2804982)" id="g942">
    <rect x="3.6602001" y="5.027" width="10.583" height="7.9373002" ry="1.1978" fill="#8cd2ff" id="rect936"/>
    <path d="m 4.858,5.027 c -0.35542,0 -0.67034,0.15618 -0.88933,0.40048 l 4.6358,3.9051 a 0.4911,0.41369 0 0 0 0.025839,0.020153 0.4911,0.41369 0 0 0 0.038239,0.025321 0.4911,0.41369 0 0 0 0.04134,0.022221 0.4911,0.41369 0 0 0 0.043923,0.018603 0.4911,0.41369 0 0 0 0.046508,0.014469 0.4911,0.41369 0 0 0 0.047026,0.011369 0.4911,0.41369 0 0 0 0.048574,0.0062 0.4911,0.41369 0 0 0 0.048576,0.0031 0.4911,0.41369 0 0 0 0.04909,-0.00155 A 0.4911,0.41369 0 0 0 9.042161,9.446786 0.4911,0.41369 0 0 0 9.090219,9.436966 0.4911,0.41369 0 0 0 9.136726,9.42353 0.4911,0.41369 0 0 0 9.181167,9.40596 0.4911,0.41369 0 0 0 9.223023,9.384773 0.4911,0.41369 0 0 0 9.262813,9.360486 0.4911,0.41369 0 0 0 9.298986,9.332581 l 4.6358,-3.9051 c -0.21899,-0.24431 -0.53391,-0.40048 -0.88933,-0.40048 z" fill="#ffffff" id="path938"/>
    <path d="m 13.935,5.4275 -8.9471,7.5369 h 8.0577 c 0.66358,0 1.1978,-0.53426 1.1978,-1.1978 V 6.2249 c 0,-0.30816 -0.11863,-0.58553 -0.3085,-0.79735 z" fill="#b4e1ff" id="path940"/>
  </g></g>
  
</svg>
