<?xml version="1.0" encoding="UTF-8" standalone="no"?>
<!-- Created with Inkscape (http://www.inkscape.org/) -->
<svg xmlns:inkscape="http://www.inkscape.org/namespaces/inkscape" xmlns:sodipodi="http://sodipodi.sourceforge.net/DTD/sodipodi-0.dtd" xmlns="http://www.w3.org/2000/svg" xmlns:svg="http://www.w3.org/2000/svg" xmlns:rdf="http://www.w3.org/1999/02/22-rdf-syntax-ns#" xmlns:cc="http://creativecommons.org/ns#" xmlns:dc="http://purl.org/dc/elements/1.1/" width="64" height="64" version="1.1" viewBox="0 0 64 64" id="svg7" sodipodi:docname="com.qq.weixin.work.deepin.svg" inkscape:version="1.4.2 (ebf0e940d0, 2025-05-08)">
  <defs id="defs2">
    <filter id="filter1057" x="-0.026999999" y="-0.026999999" width="1.054" height="1.054" color-interpolation-filters="sRGB">
      <feGaussianBlur stdDeviation="0.61875" id="feGaussianBlur1"/>
    </filter>
    <linearGradient id="linearGradient1053" x1="-127" x2="-72" y1="60" y2="5" gradientTransform="matrix(1.0000071,0,0,1.0000071,131.49991,-0.50986832)" gradientUnits="userSpaceOnUse">
      <stop stop-color="#dee0e2" offset="0" id="stop1"/>
      <stop stop-color="#f1f3f5" stop-opacity=".99608" offset="1" id="stop2"/>
    </linearGradient>
    <filter id="filter1057-3" x="-0.026999999" y="-0.026999999" width="1.054" height="1.054" color-interpolation-filters="sRGB">
      <feGaussianBlur stdDeviation="0.61875" id="feGaussianBlur1-6"/>
    </filter>
  <radialGradient id="gradient_ds_br" cx="0" cy="0" r="1" gradientUnits="userSpaceOnUse" gradientTransform="matrix(13.998399,0.00477622,-0.00477841,14.004799,47.5016,48.4952)">
      <stop offset="0.65" id="stop1"/>
      <stop offset="1" stop-opacity="0" id="stop2"/>
    </radialGradient><linearGradient id="gradient_ds_b" x1="30.448999" y1="48.5" x2="30.492201" y2="62.500301" gradientUnits="userSpaceOnUse">
      <stop offset="0.653846" id="stop3"/>
      <stop offset="1" stop-opacity="0" id="stop4"/>
    </linearGradient><radialGradient id="gradient_ds_bl" cx="0" cy="0" r="1" gradientUnits="userSpaceOnUse" gradientTransform="matrix(0,14,-14,0,16.5,48.5)">
      <stop offset="0.65" id="stop5"/>
      <stop offset="1" stop-opacity="0" id="stop6"/>
    </radialGradient><linearGradient id="gradient_ds_r" x1="47.5" y1="33.5" x2="61.5" y2="33.5009" gradientUnits="userSpaceOnUse">
      <stop offset="0.649038" id="stop7"/>
      <stop offset="1" stop-opacity="0" id="stop8"/>
    </linearGradient><linearGradient id="gradient_ds_l" x1="16.5" y1="33.894699" x2="2.5" y2="33.894699" gradientUnits="userSpaceOnUse">
      <stop offset="0.649038" id="stop9"/>
      <stop offset="1" stop-opacity="0" id="stop10"/>
    </linearGradient><radialGradient id="gradient_ds_tr" cx="0" cy="0" r="1" gradientTransform="matrix(0.00843236,-14,14.0084,0.0189842,47.4916,18.5)" gradientUnits="userSpaceOnUse">
      <stop offset="0.65" id="stop11"/>
      <stop offset="1" stop-opacity="0" id="stop12"/>
    </radialGradient><linearGradient id="gradient_ds_t" x1="29.98" y1="18.5" x2="29.9158" y2="4.4998598" gradientUnits="userSpaceOnUse">
      <stop offset="0.649038" id="stop13"/>
      <stop offset="1" stop-opacity="0" id="stop14"/>
    </linearGradient><radialGradient id="gradient_ds_tl" cx="0" cy="0" r="1" gradientTransform="matrix(-0.00843236,-14,-14.0084,0.0189842,16.5084,18.5)" gradientUnits="userSpaceOnUse">
      <stop offset="0.65" id="stop15"/>
      <stop offset="1" stop-opacity="0" id="stop16"/>
    </radialGradient></defs>
  <metadata id="metadata2">
    <rdf:RDF>
      <cc:Work rdf:about="">
        <dc:format>image/svg+xml</dc:format>
        <dc:type rdf:resource="http://purl.org/dc/dcmitype/StillImage"/>
      </cc:Work>
    </rdf:RDF>
  </metadata>
  
  <g id="ds" opacity="0.25">
    <path id="ds-br" d="m 47.5,48.5 h 14 v 14 h -14 z" fill="url(#gradient_ds_br)" style="fill:url(#gradient_ds_br)"/>
    <path id="ds-b" d="m 16.5,48.5 h 31 v 14 h -31 z" fill="url(#gradient_ds_b)" style="fill:url(#gradient_ds_b)"/>
    <path id="ds-bl" d="m 2.5,48.5 h 14 v 14 h -14 z" fill="url(#gradient_ds_bl)" style="fill:url(#gradient_ds_bl)"/>
    <path id="ds-r" d="m 47.5,18.5 h 14 v 30 h -14 z" fill="url(#gradient_ds_r)" style="fill:url(#gradient_ds_r)"/>
    <path id="ds-l" d="m 2.5,18.5 h 14 v 30 h -14 z" fill="url(#gradient_ds_l)" style="fill:url(#gradient_ds_l)"/>
    <path id="ds-tr" d="m 47.5,4.5 h 14 v 14 h -14 z" fill="url(#gradient_ds_tr)" style="fill:url(#gradient_ds_tr)"/>
    <path id="ds-t" d="m 16.5,4.5 h 31 v 14 h -31 z" fill="url(#gradient_ds_t)" style="fill:url(#gradient_ds_t)"/>
    <path id="ds-tl" d="m 16.5,4.5 h -14 v 14 h 14 z" fill="url(#gradient_ds_tl)" style="fill:url(#gradient_ds_tl)"/>
  </g><rect x="4.5" y="4.5" width="55" height="55" fill="url(#linearGradient1053)" stroke-width="2.74437" id="bg" style="fill:url(#linearGradient1053);stroke-linecap:round" rx="10"/>
  <g transform="matrix(0.66143035,0,0,0.66143035,36.821639,25.900479)" stroke-width="0.051675" id="art">
    <path d="m -2.3617,26.684 c -3.9687,1.5875 -8.2019,1.852 -12.435,1.5875 -1.852,-0.26458 -3.7041,-0.52916 -5.5561,-1.0583 -0.26458,0 -0.52916,0 -0.79374,0.26458 -2.3812,1.0583 -4.7624,2.3812 -6.879,3.4395 -0.79374,0.52916 -1.5875,0.52916 -2.3812,0 -0.79373,-0.52916 -0.79373,-1.3229 -0.79373,-2.3812 0.52916,-1.852 0.52916,-3.7041 0.79373,-5.5561 0,-0.26458 -0.26458,-0.52916 -0.26458,-0.79374 -2.6458,-2.6458 -4.7624,-5.2916 -6.3499,-8.7311 -2.6458,-6.3499 -2.1166,-12.7 1.5875,-18.52 3.7041,-6.3499 9.5248,-9.7894 16.404,-11.377 6.879,-1.5875 13.493,-0.79373 19.843,2.3812 5.8207,2.9104 10.054,7.4082 11.906,13.758 0.79373,2.3812 1.0583,4.7624 0.79373,7.1436 -1.3229,-1.3229 -2.9104,-1.5875 -4.4978,-0.79373 0,-1.5875 0,-3.1749 -0.52916,-4.7624 -1.0583,-3.7041 -3.1749,-6.6145 -5.8207,-8.9957 -4.4978,-3.7041 -10.054,-5.2916 -15.875,-5.2916 -6.0853,0.52916 -11.377,2.6458 -15.61,6.879 -3.4395,3.4395 -5.2916,7.6728 -5.027,12.7 0.26458,4.2333 2.1166,7.6728 4.7624,10.583 l 2.1166,2.1166 c 1.0583,0.79373 1.3229,1.5875 0.79374,2.6458 -0.26458,1.0583 -0.52916,2.3812 -0.79374,3.4395 0,0.26458 -0.26458,0.52916 0,0.52916 0.26458,0.26458 0.52916,0 0.52916,0 1.3229,-0.79374 2.9104,-1.5875 4.2333,-2.6458 0.79373,-0.52916 1.5875,-0.52916 2.6458,-0.26458 4.4978,1.3229 9.2602,1.3229 13.758,0 0.26458,0 0.52916,-0.26458 0.52916,0.26458 0.52916,1.5875 1.3229,2.6458 2.9104,3.4395 z" fill="#0082ef" p-id="2712" id="path3"/>
    <path d="m 24.096,21.392 c 0,1.852 -1.3229,3.1749 -2.9104,3.4395 -2.6458,0.52916 -4.7624,1.5875 -6.6145,3.4395 -0.52916,0.52916 -0.79374,0.52916 -1.3229,0.26458 -0.26458,-0.26458 -0.26458,-0.79373 0,-1.3229 1.852,-1.852 2.9104,-4.2332 3.4395,-6.6145 0.26458,-1.852 2.1166,-2.9104 3.9687,-2.9104 2.1166,0.26458 3.4395,1.852 3.4395,3.7041 z" fill="#0081ee" p-id="2713" id="path4"/>
    <path d="M 10.603,35.679 C 8.751,35.679 7.1635,34.3561 6.8989,32.7686 6.63432,30.1228 5.3114,28.0062 3.4594,26.4187 3.19482,26.15412 2.93024,25.88954 3.19482,25.3604 c 0.26458,-0.79373 0.79373,-0.79373 1.3229,-0.52916 0.52917,0.26457 0.79373,0.79373 1.0583,1.0583 1.5875,1.3229 3.4395,2.1166 5.2916,2.3812 1.852,0.26458 3.1749,2.1166 2.9104,3.9687 0.26458,1.852 -1.3229,3.4395 -3.1749,3.4395 z" fill="#fa6202" p-id="2714" id="path5"/>
    <path d="m -3.42,21.921 c 0,-1.852 1.0583,-3.1749 2.9104,-3.7041 2.6458,-0.52916 4.7624,-1.5875 6.6145,-3.4395 0.52916,-0.52916 1.0583,-0.52916 1.3229,0 0.26458,0.26458 0.26458,0.79374 -0.26458,1.3229 -1.5875,1.5875 -2.6458,3.4395 -3.1749,5.8207 0,0.26458 0,0.79374 -0.26458,1.0583 -0.52916,1.852 -2.1166,2.9104 -3.9687,2.6458 -1.852,-0.26458 -3.1749,-1.852 -3.1749,-3.7041 z" fill="#fecd00" p-id="2715" id="path6"/>
    <path d="m 14.836,12.661 c 0.79373,1.5875 1.5875,2.9104 2.6458,3.9687 0.52916,0.52916 0.52916,1.0583 0.26458,1.3229 -0.26458,0.52916 -0.79374,0.52916 -1.3229,0 -1.3229,-1.5875 -3.1749,-2.6458 -5.027,-3.1749 -0.52916,-0.26458 -1.0583,-0.26458 -1.5875,-0.26458 -1.0583,-0.26458 -2.1166,-0.79373 -2.3812,-2.1166 -0.52916,-1.3229 -0.52916,-2.6458 0.52916,-3.7041 1.0583,-1.3229 2.3812,-1.5875 3.7041,-1.3229 1.3229,0.52916 2.3812,1.3229 2.6458,2.9104 0,0.79373 0.26458,1.5875 0.52916,2.3812 z" fill="#2cbd00" p-id="2716" id="path7"/>
  </g>
</svg>
