<?xml version="1.0" encoding="UTF-8" standalone="no"?>
<svg xmlns:inkscape="http://www.inkscape.org/namespaces/inkscape" xmlns:sodipodi="http://sodipodi.sourceforge.net/DTD/sodipodi-0.dtd" xmlns:xlink="http://www.w3.org/1999/xlink" xmlns="http://www.w3.org/2000/svg" xmlns:svg="http://www.w3.org/2000/svg" xmlns:rdf="http://www.w3.org/1999/02/22-rdf-syntax-ns#" xmlns:cc="http://creativecommons.org/ns#" xmlns:dc="http://purl.org/dc/elements/1.1/" width="64" height="64" version="1.1" viewBox="0 0 64 64" id="svg62" sodipodi:docname="com.github.maoschanz.DynamicWallpaperEditor.svg" inkscape:version="1.4.2 (ebf0e940d0, 2025-05-08)">
  <metadata id="metadata1">
    <rdf:RDF>
      <cc:Work rdf:about="">
        <dc:format>image/svg+xml</dc:format>
        <dc:type rdf:resource="http://purl.org/dc/dcmitype/StillImage"/>
      </cc:Work>
    </rdf:RDF>
  </metadata>
  <defs id="defs11">
    <linearGradient id="i" x1="400.39999" x2="400.39999" y1="545.62" y2="517.62" gradientTransform="matrix(0.41967,0,0,0.41967,-173.34,-178.23)" gradientUnits="userSpaceOnUse">
      <stop stop-color="#d3d3d3" offset="0" id="stop1"/>
      <stop stop-color="#fcf9f9" offset="1" id="stop2"/>
    </linearGradient>
    <linearGradient id="f" x1="400.39999" x2="400.39999" y1="545.62" y2="517.62" gradientTransform="matrix(0.43343,0,0,0.43343,-193.09,-179.69)" gradientUnits="userSpaceOnUse">
      <stop stop-color="#8d3aff" offset="0" id="stop3"/>
      <stop stop-color="#ff3680" offset="1" id="stop4"/>
    </linearGradient>
    <linearGradient id="linearGradient1407" x1="400.39999" x2="400.39999" y1="545.62" y2="517.62" gradientTransform="matrix(1.5861856,0,0,1.5861856,-655.15621,-673.63846)" gradientUnits="userSpaceOnUse" xlink:href="#i"/>
    <linearGradient id="linearGradient1409" x1="400.39999" x2="400.39999" y1="545.62" y2="517.62" gradientTransform="matrix(1.6381929,0,0,1.6381929,-729.80335,-679.15668)" gradientUnits="userSpaceOnUse" xlink:href="#f"/>
    
    <linearGradient id="linearGradient1890" x1="8.4665003" x2="3.1749001" y1="9.2601995" y2="9.2601995" gradientTransform="matrix(4.8099342,0,0,4.8099342,-8.7244619,-8.6947617)" gradientUnits="userSpaceOnUse">
      <stop offset="0" id="stop5"/>
      <stop stop-opacity="0" offset="1" id="stop6"/>
    </linearGradient>
    
    
    
    <filter id="filter1057" x="-0.026999999" y="-0.026999999" width="1.054" height="1.054" color-interpolation-filters="sRGB">
      <feGaussianBlur stdDeviation="0.61875" id="feGaussianBlur8"/>
    </filter>
    <linearGradient id="linearGradient1053" x1="-127" x2="-72" y1="60" y2="5" gradientTransform="matrix(1.0000071,0,0,1.0000071,131.49991,-0.5099817)" gradientUnits="userSpaceOnUse">
      <stop stop-color="#eb3f78" offset="0" id="stop8"/>
      <stop stop-color="#ec497e" offset="1" id="stop9"/>
    </linearGradient>
    
    
    
    <filter id="filter1057-9" x="-0.026999999" y="-0.026999999" width="1.054" height="1.054" color-interpolation-filters="sRGB">
      <feGaussianBlur stdDeviation="0.61875" id="feGaussianBlur8-1"/>
    </filter>
    <linearGradient inkscape:collect="always" xlink:href="#i" id="linearGradient62" gradientUnits="userSpaceOnUse" gradientTransform="matrix(1.5861856,0,0,1.5861856,-655.15621,-673.63846)" x1="400.39999" y1="545.62" x2="400.39999" y2="517.62"/>
    <linearGradient inkscape:collect="always" xlink:href="#f" id="linearGradient63" gradientUnits="userSpaceOnUse" gradientTransform="matrix(1.6381929,0,0,1.6381929,-729.80335,-679.15668)" x1="400.39999" y1="545.62" x2="400.39999" y2="517.62"/>
  <radialGradient id="gradient_ds_br" cx="0" cy="0" r="1" gradientUnits="userSpaceOnUse" gradientTransform="matrix(13.998399,0.00477622,-0.00477841,14.004799,47.5016,48.4952)">
      <stop offset="0.65" id="stop1"/>
      <stop offset="1" stop-opacity="0" id="stop2"/>
    </radialGradient><linearGradient id="gradient_ds_b" x1="30.448999" y1="48.5" x2="30.492201" y2="62.500301" gradientUnits="userSpaceOnUse">
      <stop offset="0.653846" id="stop3"/>
      <stop offset="1" stop-opacity="0" id="stop4"/>
    </linearGradient><radialGradient id="gradient_ds_bl" cx="0" cy="0" r="1" gradientUnits="userSpaceOnUse" gradientTransform="matrix(0,14,-14,0,16.5,48.5)">
      <stop offset="0.65" id="stop5"/>
      <stop offset="1" stop-opacity="0" id="stop6"/>
    </radialGradient><linearGradient id="gradient_ds_r" x1="47.5" y1="33.5" x2="61.5" y2="33.5009" gradientUnits="userSpaceOnUse">
      <stop offset="0.649038" id="stop7"/>
      <stop offset="1" stop-opacity="0" id="stop8"/>
    </linearGradient><linearGradient id="gradient_ds_l" x1="16.5" y1="33.894699" x2="2.5" y2="33.894699" gradientUnits="userSpaceOnUse">
      <stop offset="0.649038" id="stop9"/>
      <stop offset="1" stop-opacity="0" id="stop10"/>
    </linearGradient><radialGradient id="gradient_ds_tr" cx="0" cy="0" r="1" gradientTransform="matrix(0.00843236,-14,14.0084,0.0189842,47.4916,18.5)" gradientUnits="userSpaceOnUse">
      <stop offset="0.65" id="stop11"/>
      <stop offset="1" stop-opacity="0" id="stop12"/>
    </radialGradient><linearGradient id="gradient_ds_t" x1="29.98" y1="18.5" x2="29.9158" y2="4.4998598" gradientUnits="userSpaceOnUse">
      <stop offset="0.649038" id="stop13"/>
      <stop offset="1" stop-opacity="0" id="stop14"/>
    </linearGradient><radialGradient id="gradient_ds_tl" cx="0" cy="0" r="1" gradientTransform="matrix(-0.00843236,-14,-14.0084,0.0189842,16.5084,18.5)" gradientUnits="userSpaceOnUse">
      <stop offset="0.65" id="stop15"/>
      <stop offset="1" stop-opacity="0" id="stop16"/>
    </radialGradient></defs>
  
  
  <g id="ds" opacity="0.25">
    <path id="ds-br" d="m 47.5,48.5 h 14 v 14 h -14 z" fill="url(#gradient_ds_br)" style="fill:url(#gradient_ds_br)"/>
    <path id="ds-b" d="m 16.5,48.5 h 31 v 14 h -31 z" fill="url(#gradient_ds_b)" style="fill:url(#gradient_ds_b)"/>
    <path id="ds-bl" d="m 2.5,48.5 h 14 v 14 h -14 z" fill="url(#gradient_ds_bl)" style="fill:url(#gradient_ds_bl)"/>
    <path id="ds-r" d="m 47.5,18.5 h 14 v 30 h -14 z" fill="url(#gradient_ds_r)" style="fill:url(#gradient_ds_r)"/>
    <path id="ds-l" d="m 2.5,18.5 h 14 v 30 h -14 z" fill="url(#gradient_ds_l)" style="fill:url(#gradient_ds_l)"/>
    <path id="ds-tr" d="m 47.5,4.5 h 14 v 14 h -14 z" fill="url(#gradient_ds_tr)" style="fill:url(#gradient_ds_tr)"/>
    <path id="ds-t" d="m 16.5,4.5 h 31 v 14 h -31 z" fill="url(#gradient_ds_t)" style="fill:url(#gradient_ds_t)"/>
    <path id="ds-tl" d="m 16.5,4.5 h -14 v 14 h 14 z" fill="url(#gradient_ds_tl)" style="fill:url(#gradient_ds_tl)"/>
  </g><rect x="4.5" y="4.5" width="55" height="55" fill="url(#linearGradient1053)" stroke-linecap="round" stroke-width="2.74441" id="bg" style="fill:url(#linearGradient1053)" rx="10"/>
  <g id="art"><path d="m 43.325578,24.316447 c -0.133118,0 -0.241025,0.107904 -0.241025,0.241011 v 1.446037 c 0,0.133999 0.107945,0.241007 0.241025,0.241007 h 0.482012 c 0.133118,0 0.240988,-0.107904 0.240988,-0.241007 v -1.446037 c 0,-0.133103 -0.107908,-0.241011 -0.240988,-0.241011 z m -4.530231,1.876951 c -0.06433,-3.66e-4 -0.126088,0.02495 -0.171632,0.07037 l -0.340315,0.3403 c -0.09438,0.09418 -0.09438,0.247099 0,0.341268 l 1.021853,1.021853 c 0.09419,0.09438 0.24711,0.09438 0.34126,0 l 0.340316,-0.3403 c 0.09438,-0.09418 0.09438,-0.247103 0,-0.341268 L 38.964975,26.26377 c -0.04483,-0.04531 -0.105942,-0.07066 -0.169666,-0.07037 z m 9.541983,0 c -0.06331,-2.9e-5 -0.124122,0.02536 -0.168684,0.07037 l -1.021891,1.021853 c -0.09438,0.09418 -0.09438,0.247103 0,0.341268 l 0.340316,0.3403 c 0.09407,0.0938 0.246241,0.0938 0.340315,0 l 1.021853,-1.021853 c 0.09438,-0.09418 0.09438,-0.247099 0,-0.341268 l -0.340315,-0.3403 c -0.04551,-0.04541 -0.107303,-0.07076 -0.171632,-0.07037 z m -4.770992,1.979151 c -1.863457,0 -3.374088,1.510631 -3.374088,3.374088 0,1.863457 1.510631,3.374089 3.374088,3.374089 1.863458,0 3.374089,-1.510632 3.374089,-3.374089 0,-1.863457 -1.510631,-3.374088 -3.374089,-3.374088 z m -6.98924,2.892075 c -0.133102,0 -0.241025,0.107904 -0.241025,0.241007 v 0.482012 c 0,0.133999 0.107961,0.241007 0.241025,0.241007 h 1.446038 c 0.133118,0 0.241026,-0.107904 0.241026,-0.241007 v -0.482012 c 0,-0.133103 -0.10787,-0.241007 -0.241026,-0.241007 z m 12.532405,0 c -0.133118,0 -0.240988,0.107904 -0.240988,0.241007 v 0.482012 c 0,0.133999 0.107946,0.241007 0.240988,0.241007 h 1.446038 c 0.133117,0 0.240987,-0.107904 0.240987,-0.241007 v -0.482012 c 0,-0.133103 -0.107908,-0.241007 -0.240987,-0.241007 z m -9.632694,3.990126 c -0.06437,9.7e-5 -0.126088,0.02574 -0.171632,0.07134 l -1.021853,1.021853 c -0.09438,0.09418 -0.09438,0.247099 0,0.341268 l 0.340315,0.340301 c 0.09419,0.09438 0.247111,0.09438 0.341261,0 l 1.021853,-1.021854 c 0.09438,-0.09418 0.09438,-0.247099 0,-0.341268 l -0.340315,-0.3403 c -0.04475,-0.0455 -0.105867,-0.07115 -0.169705,-0.07134 z m 8.179059,0 c -0.06342,4.44e-4 -0.12416,0.02612 -0.168684,0.07134 l -0.34126,0.3403 c -0.09438,0.09418 -0.09438,0.247103 0,0.341268 l 1.021853,1.021854 c 0.09419,0.09438 0.24711,0.09438 0.34126,0 l 0.341261,-0.340301 c 0.09438,-0.09418 0.09438,-0.247103 0,-0.341268 L 47.828407,35.12609 c -0.0457,-0.04579 -0.10787,-0.07153 -0.172577,-0.07134 z m -4.33029,1.794064 c -0.133118,0 -0.241025,0.107904 -0.241025,0.24101 v 1.446038 c 0,0.134025 0.107945,0.241025 0.241025,0.241025 h 0.482012 c 0.133118,0 0.240988,-0.107907 0.240988,-0.241025 v -1.446038 c 0,-0.133102 -0.107908,-0.24101 -0.240988,-0.24101 z" color="#000000" fill="#ffffff" overflow="visible" stroke-width="0.964025" style="isolation:auto;mix-blend-mode:normal" id="path41"/><path d="m 19.500138,4.5000319 c -8.310059,0 -15.0001061,6.6900471 -15.0001061,15.0001061 v 25.000178 c 0,8.310059 6.6900471,15.000106 15.0001061,15.000106 H 31.998227 V 4.5000319 Z" fill="url(#linearGradient1890)" opacity="0.3" id="path42" style="fill:url(#linearGradient1890);stroke-width:1.00001"/><path d="m 20.876632,24.316447 a 7.2300007,7.2300007 0 0 0 -7.194473,7.230001 7.2300007,7.2300007 0 0 0 7.230001,7.230001 7.2300007,7.2300007 0 0 0 3.69611,-1.016751 6.2662022,6.2662022 0 0 1 -0.803959,0.05272 6.2662022,6.2662022 0 0 1 -6.266202,-6.266202 6.2662022,6.2662022 0 0 1 6.266202,-6.266203 6.2662022,6.2662022 0 0 1 0.802107,0.05272 7.2300007,7.2300007 0 0 0 -3.694296,-1.016751 7.2300007,7.2300007 0 0 0 -0.03572,0 z" fill="#ffffff" stroke-width="0.723" id="path43"/></g>
  
  
</svg>
