<?xml version="1.0" encoding="UTF-8" standalone="no"?>
<svg xmlns:inkscape="http://www.inkscape.org/namespaces/inkscape" xmlns:sodipodi="http://sodipodi.sourceforge.net/DTD/sodipodi-0.dtd" xmlns="http://www.w3.org/2000/svg" xmlns:svg="http://www.w3.org/2000/svg" xmlns:rdf="http://www.w3.org/1999/02/22-rdf-syntax-ns#" xmlns:cc="http://creativecommons.org/ns#" xmlns:dc="http://purl.org/dc/elements/1.1/" width="64" height="64" version="1.1" viewBox="0 0 64 64" id="svg4" sodipodi:docname="com.github.bbuhler.hostsmanager.svg" inkscape:version="1.4.2 (ebf0e940d0, 2025-05-08)">
  <metadata id="metadata1">
    <rdf:RDF>
      <cc:Work rdf:about="">
        <dc:format>image/svg+xml</dc:format>
        <dc:type rdf:resource="http://purl.org/dc/dcmitype/StillImage"/>
      </cc:Work>
    </rdf:RDF>
  </metadata>
  <defs id="defs3">
    <filter id="filter1057-3" x="-0.026999999" y="-0.026999999" width="1.054" height="1.054" color-interpolation-filters="sRGB">
      <feGaussianBlur stdDeviation="0.61875" id="feGaussianBlur1"/>
    </filter>
    <linearGradient id="linearGradient1053-7" x1="-127" x2="-72" y1="60" y2="5" gradientTransform="matrix(1.0000071,0,0,1.0000071,131.50369,-0.51009509)" gradientUnits="userSpaceOnUse">
      <stop stop-color="#8cd750" offset="0" id="stop1"/>
      <stop stop-color="#7dcd32" stop-opacity=".99608" offset=".49585" id="stop2"/>
      <stop stop-color="#87d241" stop-opacity=".99608" offset="1" id="stop3"/>
    </linearGradient>
    <filter id="filter1057-3-5" x="-0.026999999" y="-0.026999999" width="1.054" height="1.054" color-interpolation-filters="sRGB">
      <feGaussianBlur stdDeviation="0.61875" id="feGaussianBlur1-3"/>
    </filter>
  <radialGradient id="gradient_ds_br" cx="0" cy="0" r="1" gradientUnits="userSpaceOnUse" gradientTransform="matrix(13.998399,0.00477622,-0.00477841,14.004799,47.5016,48.4952)">
      <stop offset="0.65" id="stop1"/>
      <stop offset="1" stop-opacity="0" id="stop2"/>
    </radialGradient><linearGradient id="gradient_ds_b" x1="30.448999" y1="48.5" x2="30.492201" y2="62.500301" gradientUnits="userSpaceOnUse">
      <stop offset="0.653846" id="stop3"/>
      <stop offset="1" stop-opacity="0" id="stop4"/>
    </linearGradient><radialGradient id="gradient_ds_bl" cx="0" cy="0" r="1" gradientUnits="userSpaceOnUse" gradientTransform="matrix(0,14,-14,0,16.5,48.5)">
      <stop offset="0.65" id="stop5"/>
      <stop offset="1" stop-opacity="0" id="stop6"/>
    </radialGradient><linearGradient id="gradient_ds_r" x1="47.5" y1="33.5" x2="61.5" y2="33.5009" gradientUnits="userSpaceOnUse">
      <stop offset="0.649038" id="stop7"/>
      <stop offset="1" stop-opacity="0" id="stop8"/>
    </linearGradient><linearGradient id="gradient_ds_l" x1="16.5" y1="33.894699" x2="2.5" y2="33.894699" gradientUnits="userSpaceOnUse">
      <stop offset="0.649038" id="stop9"/>
      <stop offset="1" stop-opacity="0" id="stop10"/>
    </linearGradient><radialGradient id="gradient_ds_tr" cx="0" cy="0" r="1" gradientTransform="matrix(0.00843236,-14,14.0084,0.0189842,47.4916,18.5)" gradientUnits="userSpaceOnUse">
      <stop offset="0.65" id="stop11"/>
      <stop offset="1" stop-opacity="0" id="stop12"/>
    </radialGradient><linearGradient id="gradient_ds_t" x1="29.98" y1="18.5" x2="29.9158" y2="4.4998598" gradientUnits="userSpaceOnUse">
      <stop offset="0.649038" id="stop13"/>
      <stop offset="1" stop-opacity="0" id="stop14"/>
    </linearGradient><radialGradient id="gradient_ds_tl" cx="0" cy="0" r="1" gradientTransform="matrix(-0.00843236,-14,-14.0084,0.0189842,16.5084,18.5)" gradientUnits="userSpaceOnUse">
      <stop offset="0.65" id="stop15"/>
      <stop offset="1" stop-opacity="0" id="stop16"/>
    </radialGradient></defs>
  
  <g id="ds" opacity="0.25">
    <path id="ds-br" d="m 47.5,48.5 h 14 v 14 h -14 z" fill="url(#gradient_ds_br)" style="fill:url(#gradient_ds_br)"/>
    <path id="ds-b" d="m 16.5,48.5 h 31 v 14 h -31 z" fill="url(#gradient_ds_b)" style="fill:url(#gradient_ds_b)"/>
    <path id="ds-bl" d="m 2.5,48.5 h 14 v 14 h -14 z" fill="url(#gradient_ds_bl)" style="fill:url(#gradient_ds_bl)"/>
    <path id="ds-r" d="m 47.5,18.5 h 14 v 30 h -14 z" fill="url(#gradient_ds_r)" style="fill:url(#gradient_ds_r)"/>
    <path id="ds-l" d="m 2.5,18.5 h 14 v 30 h -14 z" fill="url(#gradient_ds_l)" style="fill:url(#gradient_ds_l)"/>
    <path id="ds-tr" d="m 47.5,4.5 h 14 v 14 h -14 z" fill="url(#gradient_ds_tr)" style="fill:url(#gradient_ds_tr)"/>
    <path id="ds-t" d="m 16.5,4.5 h 31 v 14 h -31 z" fill="url(#gradient_ds_t)" style="fill:url(#gradient_ds_t)"/>
    <path id="ds-tl" d="m 16.5,4.5 h -14 v 14 h 14 z" fill="url(#gradient_ds_tl)" style="fill:url(#gradient_ds_tl)"/>
  </g><rect x="4.5" y="4.5" width="55" height="55" fill="url(#linearGradient1053-7)" stroke-linecap="round" stroke-width="2.74441" id="bg" style="fill:url(#linearGradient1053-7)" rx="10"/>
  <g id="art"><path d="m 19.167496,40.899073 v -1.42491 h -7.12455 v -5.752554 l -0.464702,-0.307508 c -1.452728,-0.961229 -1.173604,-3.236549 0.463757,-3.780358 0.575218,-0.191059 1.158561,-0.147027 1.732381,0.130736 1.410093,0.682596 1.485837,2.833492 0.129489,3.676646 l -0.435977,0.271035 v 4.337093 h 5.699639 v -2.84982 h 4.987185 v -6.465009 l -0.464702,-0.30747 c -1.452728,-0.961229 -1.173604,-3.236549 0.463757,-3.780358 0.575218,-0.191059 1.158562,-0.147027 1.732381,0.130736 1.410094,0.682596 1.485837,2.833492 0.129489,3.676646 l -0.435977,0.271035 v 6.474458 h 5.69964 l -0.0022,-4.697667 -0.0022,-4.697667 -0.355585,-0.163997 c -0.195594,-0.09018 -0.459751,-0.300517 -0.58701,-0.467386 -1.176136,-1.542002 -0.01058,-3.679556 1.898683,-3.482487 1.398793,0.14438 2.220856,1.488067 1.752072,2.863842 -0.163052,0.478535 -0.706596,1.081155 -1.053715,1.168275 l -0.224924,0.05647 v 9.420658 h 5.69964 V 28.7345 L 37.93921,28.427029 c -1.452728,-0.961228 -1.173604,-3.236549 0.463757,-3.780358 0.575218,-0.191059 1.158562,-0.147026 1.732343,0.130737 1.410094,0.682596 1.485837,2.833492 0.129489,3.676645 l -0.435977,0.271036 v 6.474458 h 4.987185 v 2.84982 h 5.69964 v -4.433473 l -0.224886,-0.05647 c -0.572912,-0.143776 -1.200024,-1.148243 -1.200024,-1.922116 0,-1.154404 0.982961,-2.137365 2.137365,-2.137365 1.154404,0 2.137365,0.982961 2.137365,2.137365 0,0.773873 -0.627112,1.77834 -1.200024,1.922116 l -0.224924,0.05647 v 5.858383 h -7.12455 v 2.84982 H 19.16759 Z M 43.390965,38.761708 V 36.624343 H 20.592406 v 4.27473 h 22.798559 z m -21.155188,0.493843 c -0.44176,-0.441722 -0.128734,-1.206298 0.493842,-1.206298 0.173522,0 0.356077,0.08081 0.493843,0.218613 0.137804,0.137804 0.218612,0.320359 0.218612,0.493842 0,0.173522 -0.08081,0.356077 -0.218612,0.493843 -0.137804,0.137804 -0.320359,0.218612 -0.493843,0.218612 -0.173521,0 -0.356076,-0.08081 -0.493842,-0.218612 z m 2.849819,0 c -0.441722,-0.441722 -0.128733,-1.206298 0.493843,-1.206298 0.173522,0 0.356077,0.08081 0.493843,0.218613 0.137767,0.137804 0.218574,0.320359 0.218574,0.493842 0,0.173522 -0.08081,0.356077 -0.218574,0.493843 -0.137804,0.137804 -0.320359,0.218612 -0.493843,0.218612 -0.173521,0 -0.356076,-0.08081 -0.493843,-0.218612 z m 2.84982,0 c -0.44176,-0.441722 -0.128733,-1.206298 0.493843,-1.206298 0.173522,0 0.356076,0.08081 0.493843,0.218613 0.137766,0.137804 0.218612,0.320359 0.218612,0.493842 0,0.173522 -0.08081,0.356077 -0.218612,0.493843 -0.137804,0.137804 -0.320359,0.218612 -0.493843,0.218612 -0.173521,0 -0.356076,-0.08081 -0.493843,-0.218612 z m -14.686399,-7.12455 c 0.441722,-0.44176 0.128733,-1.206297 -0.493843,-1.206297 -0.36613,0 -0.712455,0.346324 -0.712455,0.712455 0,0.36613 0.346325,0.712455 0.712455,0.712455 0.173522,0 0.356076,-0.08081 0.493843,-0.218613 z m 38.472569,0 c 0.441759,-0.44176 0.128733,-1.206297 -0.493843,-1.206297 -0.36613,0 -0.712455,0.346324 -0.712455,0.712455 0,0.36613 0.346325,0.712455 0.712455,0.712455 0.173521,0 0.356076,-0.08081 0.493843,-0.218613 z M 25.360751,27.143816 c 0.441723,-0.441759 0.128734,-1.206297 -0.493842,-1.206297 -0.173522,0 -0.356077,0.08081 -0.493843,0.218612 -0.137767,0.137804 -0.218575,0.320359 -0.218575,0.493843 0,0.173521 0.08081,0.356076 0.218575,0.493842 0.137804,0.137805 0.320359,0.218613 0.493843,0.218613 0.173521,0 0.356076,-0.08081 0.493842,-0.218613 z m 14.2491,0 c 0.44176,-0.441759 0.128733,-1.206297 -0.493843,-1.206297 -0.36613,0 -0.712455,0.346325 -0.712455,0.712455 0,0.36613 0.346325,0.712455 0.712455,0.712455 0.173522,0 0.356077,-0.08081 0.493843,-0.218613 z m -7.12455,-2.849819 c 0.44176,-0.44176 0.128733,-1.206298 -0.493843,-1.206298 -0.173521,0 -0.356076,0.08081 -0.493842,0.218574 -0.44176,0.44176 -0.128734,1.206298 0.493842,1.206298 0.173522,0 0.356077,-0.08081 0.493843,-0.218574 z" fill="#ffffff" stroke-width="0.49407" id="path4"/></g>
</svg>
