<?xml version="1.0" encoding="UTF-8" standalone="no"?>
<svg xmlns:inkscape="http://www.inkscape.org/namespaces/inkscape" xmlns:sodipodi="http://sodipodi.sourceforge.net/DTD/sodipodi-0.dtd" xmlns:xlink="http://www.w3.org/1999/xlink" xmlns="http://www.w3.org/2000/svg" xmlns:svg="http://www.w3.org/2000/svg" width="64" height="64" viewBox="0 0 64 64" version="1.1" id="svg38" sodipodi:docname="communicator.svg" inkscape:version="1.4.2 (ebf0e940d0, 2025-05-08)">
  <sodipodi:namedview id="namedview1" pagecolor="#ffffff" bordercolor="#000000" borderopacity="0.25" inkscape:showpageshadow="2" inkscape:pageopacity="0.0" inkscape:pagecheckerboard="0" inkscape:deskcolor="#d1d1d1" inkscape:current-layer="svg38"/>
  <defs id="defs22">
    <linearGradient id="d" x1="2.6459999" x2="14.189" y1="3.257" y2="14.287" gradientUnits="userSpaceOnUse" gradientTransform="translate(22.933946)">
      <stop stop-color="#42a5f5" offset="0" id="stop2"/>
      <stop stop-color="#1e88e5" offset="1" id="stop4"/>
    </linearGradient>
    <linearGradient id="c" x1="14.552" x2="14.552" y1="7.911541" y2="6.085" gradientUnits="userSpaceOnUse" gradientTransform="matrix(3.779602,0,0,3.779602,0,1.3846708)">
      <stop stop-color="#5ac8fa" offset="0" id="stop7"/>
      <stop stop-color="#3e7790" offset="1" id="stop9"/>
    </linearGradient>
    <linearGradient id="b" x1="14.816" x2="14.816" y1="10.509154" y2="8.7309999" gradientUnits="userSpaceOnUse" gradientTransform="matrix(3.779602,0,0,3.779602,0,-1.3846704)">
      <stop stop-color="#ff9500" offset="0" id="stop12"/>
      <stop stop-color="#915400" offset="1" id="stop14"/>
    </linearGradient>
    <linearGradient id="a" x1="14.287" x2="14.287" y1="13.667462" y2="11.377" gradientUnits="userSpaceOnUse" gradientTransform="matrix(3.779602,0,0,3.779602,1.118524e-7,-4.1502336)">
      <stop stop-color="#4cd964" offset="0" id="stop17"/>
      <stop stop-color="#2c7e3a" offset="1" id="stop19"/>
    </linearGradient>
    <linearGradient inkscape:collect="always" xlink:href="#linearGradient1051" id="linearGradient1053" x1="-127" y1="60" x2="-72" y2="5" gradientUnits="userSpaceOnUse" gradientTransform="translate(131.5,-0.50999572)"/>
    <linearGradient inkscape:collect="always" id="linearGradient1051">
      <stop style="stop-color:#2e55e7;stop-opacity:1" offset="0" id="stop1047"/>
      <stop style="stop-color:#0d7eef;stop-opacity:1" offset="1" id="stop1049"/>
    </linearGradient>
    <filter inkscape:collect="always" style="color-interpolation-filters:sRGB" id="filter1057" x="-0.026999999" width="1.054" y="-0.026999999" height="1.054">
      <feGaussianBlur inkscape:collect="always" stdDeviation="0.61875" id="feGaussianBlur1059"/>
    </filter>
  <radialGradient id="gradient_ds_br" cx="0" cy="0" r="1" gradientUnits="userSpaceOnUse" gradientTransform="matrix(13.998399,0.00477622,-0.00477841,14.004799,47.5016,48.4952)">
      <stop offset="0.65" id="stop1"/>
      <stop offset="1" stop-opacity="0" id="stop2"/>
    </radialGradient><linearGradient id="gradient_ds_b" x1="30.448999" y1="48.5" x2="30.492201" y2="62.500301" gradientUnits="userSpaceOnUse">
      <stop offset="0.653846" id="stop3"/>
      <stop offset="1" stop-opacity="0" id="stop4"/>
    </linearGradient><radialGradient id="gradient_ds_bl" cx="0" cy="0" r="1" gradientUnits="userSpaceOnUse" gradientTransform="matrix(0,14,-14,0,16.5,48.5)">
      <stop offset="0.65" id="stop5"/>
      <stop offset="1" stop-opacity="0" id="stop6"/>
    </radialGradient><linearGradient id="gradient_ds_r" x1="47.5" y1="33.5" x2="61.5" y2="33.5009" gradientUnits="userSpaceOnUse">
      <stop offset="0.649038" id="stop7"/>
      <stop offset="1" stop-opacity="0" id="stop8"/>
    </linearGradient><linearGradient id="gradient_ds_l" x1="16.5" y1="33.894699" x2="2.5" y2="33.894699" gradientUnits="userSpaceOnUse">
      <stop offset="0.649038" id="stop9"/>
      <stop offset="1" stop-opacity="0" id="stop10"/>
    </linearGradient><radialGradient id="gradient_ds_tr" cx="0" cy="0" r="1" gradientTransform="matrix(0.00843236,-14,14.0084,0.0189842,47.4916,18.5)" gradientUnits="userSpaceOnUse">
      <stop offset="0.65" id="stop11"/>
      <stop offset="1" stop-opacity="0" id="stop12"/>
    </radialGradient><linearGradient id="gradient_ds_t" x1="29.98" y1="18.5" x2="29.9158" y2="4.4998598" gradientUnits="userSpaceOnUse">
      <stop offset="0.649038" id="stop13"/>
      <stop offset="1" stop-opacity="0" id="stop14"/>
    </linearGradient><radialGradient id="gradient_ds_tl" cx="0" cy="0" r="1" gradientTransform="matrix(-0.00843236,-14,-14.0084,0.0189842,16.5084,18.5)" gradientUnits="userSpaceOnUse">
      <stop offset="0.65" id="stop15"/>
      <stop offset="1" stop-opacity="0" id="stop16"/>
    </radialGradient></defs>
  
  <g id="ds" opacity="0.25">
    <path id="ds-br" d="m 47.5,48.5 h 14 v 14 h -14 z" fill="url(#gradient_ds_br)" style="fill:url(#gradient_ds_br)"/>
    <path id="ds-b" d="m 16.5,48.5 h 31 v 14 h -31 z" fill="url(#gradient_ds_b)" style="fill:url(#gradient_ds_b)"/>
    <path id="ds-bl" d="m 2.5,48.5 h 14 v 14 h -14 z" fill="url(#gradient_ds_bl)" style="fill:url(#gradient_ds_bl)"/>
    <path id="ds-r" d="m 47.5,18.5 h 14 v 30 h -14 z" fill="url(#gradient_ds_r)" style="fill:url(#gradient_ds_r)"/>
    <path id="ds-l" d="m 2.5,18.5 h 14 v 30 h -14 z" fill="url(#gradient_ds_l)" style="fill:url(#gradient_ds_l)"/>
    <path id="ds-tr" d="m 47.5,4.5 h 14 v 14 h -14 z" fill="url(#gradient_ds_tr)" style="fill:url(#gradient_ds_tr)"/>
    <path id="ds-t" d="m 16.5,4.5 h 31 v 14 h -31 z" fill="url(#gradient_ds_t)" style="fill:url(#gradient_ds_t)"/>
    <path id="ds-tl" d="m 16.5,4.5 h -14 v 14 h 14 z" fill="url(#gradient_ds_tl)" style="fill:url(#gradient_ds_tl)"/>
  </g><rect style="fill:url(#linearGradient1053);fill-opacity:1;stroke-width:2.74436;stroke-linecap:round" id="bg" width="55" height="55" x="4.5" y="4.5" rx="10"/>
  <g id="art">
    <path d="m 38.814509,17.000066 a 14.996851,14.996851 0 0 0 -14.999998,15 14.996851,14.996851 0 0 0 7.192945,12.789212 14.996851,14.996851 0 0 0 0.06614,0.0378 14.996851,14.996851 0 0 0 1.221919,0.667648 14.996851,14.996851 0 0 0 0.188958,0.08187 14.996851,14.996851 0 0 0 1.177829,0.494436 14.996851,14.996851 0 0 0 0.283436,0.09449 14.996851,14.996851 0 0 0 1.105395,0.343263 14.996851,14.996851 0 0 0 0.456645,0.100765 14.996851,14.996851 0 0 0 0.988873,0.198391 14.996851,14.996851 0 0 0 0.557422,0.06614 14.996851,14.996851 0 0 0 0.957381,0.09449 14.996851,14.996851 0 0 0 0.803063,0.03137 14.996851,14.996851 0 0 0 11.085452,-4.925468 14.996851,14.996851 0 0 0 0.141735,-0.151146 l -0.0031,-0.0064 a 14.996851,14.996851 0 0 0 3.77281,-9.91998 14.996851,14.996851 0 0 0 -14.996853,-14.996851 z m 0,1.669116 a 13.330884,13.330884 0 0 1 13.330887,13.327735 13.330884,13.330884 0 0 1 -3.117782,8.559732 c -2.292673,-2.695782 -5.775776,-4.39639 -10.216253,-4.39639 -4.43103,0 -7.914129,1.694311 -10.209951,4.386941 A 13.330884,13.330884 0 0 1 25.483627,31.993767 13.330884,13.330884 0 0 1 38.811361,18.662883 Z m 0,4.163342 a 4.9979004,5.416754 0 0 0 -5.001048,5.416754 4.9979004,5.416754 0 0 0 5.001048,5.416755 4.9979004,5.416754 0 0 0 4.9979,-5.416755 4.9979004,5.416754 0 0 0 -4.9979,-5.416754 z" fill="#ffffff" id="path36" style="stroke-width:3.14927"/>
    <path id="path369" style="stroke-width:1.57441;opacity:0.3" d="M 14.5 4.5 C 8.9621949 4.5 4.5035321 8.9571915 4.5 14.494141 C 4.4999986 14.496335 4.5 14.497805 4.5 14.5 L 4.5 49.5 C 4.5 49.502195 4.4999986 49.503665 4.5 49.505859 C 4.5035321 55.042809 8.9621949 59.5 14.5 59.5 L 19.099609 59.5 L 19.099609 4.5 L 14.5 4.5 z "/>
  </g>
</svg>
