<?xml version="1.0" encoding="UTF-8" standalone="no"?>
<svg
   width="64"
   height="64"
   version="1.1"
   viewBox="0 0 64 64"
   id="svg17"
   sodipodi:docname="cpu-x.svg"
   inkscape:version="1.4.2 (ebf0e940d0, 2025-05-08)"
   xmlns:inkscape="http://www.inkscape.org/namespaces/inkscape"
   xmlns:sodipodi="http://sodipodi.sourceforge.net/DTD/sodipodi-0.dtd"
   xmlns="http://www.w3.org/2000/svg"
   xmlns:svg="http://www.w3.org/2000/svg"
   xmlns:rdf="http://www.w3.org/1999/02/22-rdf-syntax-ns#"
   xmlns:cc="http://creativecommons.org/ns#"
   xmlns:dc="http://purl.org/dc/elements/1.1/">
  <sodipodi:namedview
     id="namedview1"
     pagecolor="#ffffff"
     bordercolor="#000000"
     borderopacity="0.25"
     inkscape:showpageshadow="2"
     inkscape:pageopacity="0.0"
     inkscape:pagecheckerboard="0"
     inkscape:deskcolor="#d1d1d1"
     inkscape:current-layer="art" />
  <defs
     id="defs1">
    <filter
       id="filter1057-3"
       x="-0.026999999"
       y="-0.026999999"
       width="1.054"
       height="1.054"
       color-interpolation-filters="sRGB">
      <feGaussianBlur
         stdDeviation="0.61875"
         id="feGaussianBlur1" />
    </filter>
    <filter
       id="filter1057-3-6"
       x="-0.026999999"
       y="-0.026999999"
       width="1.054"
       height="1.054"
       color-interpolation-filters="sRGB">
      <feGaussianBlur
         stdDeviation="0.61875"
         id="feGaussianBlur1-7" />
    </filter>
    <radialGradient
       id="gradient_ds_br"
       cx="0"
       cy="0"
       r="1"
       gradientUnits="userSpaceOnUse"
       gradientTransform="matrix(13.998399,0.00477622,-0.00477841,14.004799,47.5016,48.4952)">
      <stop
         offset="0.65"
         id="stop1" />
      <stop
         offset="1"
         stop-opacity="0"
         id="stop2" />
    </radialGradient>
    <linearGradient
       id="gradient_ds_b"
       x1="30.448999"
       y1="48.5"
       x2="30.492201"
       y2="62.500301"
       gradientUnits="userSpaceOnUse">
      <stop
         offset="0.653846"
         id="stop3" />
      <stop
         offset="1"
         stop-opacity="0"
         id="stop4" />
    </linearGradient>
    <radialGradient
       id="gradient_ds_bl"
       cx="0"
       cy="0"
       r="1"
       gradientUnits="userSpaceOnUse"
       gradientTransform="matrix(0,14,-14,0,16.5,48.5)">
      <stop
         offset="0.65"
         id="stop5" />
      <stop
         offset="1"
         stop-opacity="0"
         id="stop6" />
    </radialGradient>
    <linearGradient
       id="gradient_ds_r"
       x1="47.5"
       y1="33.5"
       x2="61.5"
       y2="33.5009"
       gradientUnits="userSpaceOnUse">
      <stop
         offset="0.649038"
         id="stop7" />
      <stop
         offset="1"
         stop-opacity="0"
         id="stop8" />
    </linearGradient>
    <linearGradient
       id="gradient_ds_l"
       x1="16.5"
       y1="33.894699"
       x2="2.5"
       y2="33.894699"
       gradientUnits="userSpaceOnUse">
      <stop
         offset="0.649038"
         id="stop9" />
      <stop
         offset="1"
         stop-opacity="0"
         id="stop10" />
    </linearGradient>
    <radialGradient
       id="gradient_ds_tr"
       cx="0"
       cy="0"
       r="1"
       gradientTransform="matrix(0.00843236,-14,14.0084,0.0189842,47.4916,18.5)"
       gradientUnits="userSpaceOnUse">
      <stop
         offset="0.65"
         id="stop11" />
      <stop
         offset="1"
         stop-opacity="0"
         id="stop12" />
    </radialGradient>
    <linearGradient
       id="gradient_ds_t"
       x1="29.98"
       y1="18.5"
       x2="29.9158"
       y2="4.4998598"
       gradientUnits="userSpaceOnUse">
      <stop
         offset="0.649038"
         id="stop13" />
      <stop
         offset="1"
         stop-opacity="0"
         id="stop14" />
    </linearGradient>
    <radialGradient
       id="gradient_ds_tl"
       cx="0"
       cy="0"
       r="1"
       gradientTransform="matrix(-0.00843236,-14,-14.0084,0.0189842,16.5084,18.5)"
       gradientUnits="userSpaceOnUse">
      <stop
         offset="0.65"
         id="stop15" />
      <stop
         offset="1"
         stop-opacity="0"
         id="stop16" />
    </radialGradient>
  </defs>
  <metadata
     id="metadata1">
    <rdf:RDF>
      <cc:Work
         rdf:about="">
        <dc:format>image/svg+xml</dc:format>
        <dc:type
           rdf:resource="http://purl.org/dc/dcmitype/StillImage" />
      </cc:Work>
    </rdf:RDF>
  </metadata>
  <g
     id="ds"
     opacity="0.25">
    <path
       id="ds-br"
       d="m 47.5,48.5 h 14 v 14 h -14 z"
       fill="url(#gradient_ds_br)"
       style="fill:url(#gradient_ds_br)" />
    <path
       id="ds-b"
       d="m 16.5,48.5 h 31 v 14 h -31 z"
       fill="url(#gradient_ds_b)"
       style="fill:url(#gradient_ds_b)" />
    <path
       id="ds-bl"
       d="m 2.5,48.5 h 14 v 14 h -14 z"
       fill="url(#gradient_ds_bl)"
       style="fill:url(#gradient_ds_bl)" />
    <path
       id="ds-r"
       d="m 47.5,18.5 h 14 v 30 h -14 z"
       fill="url(#gradient_ds_r)"
       style="fill:url(#gradient_ds_r)" />
    <path
       id="ds-l"
       d="m 2.5,18.5 h 14 v 30 h -14 z"
       fill="url(#gradient_ds_l)"
       style="fill:url(#gradient_ds_l)" />
    <path
       id="ds-tr"
       d="m 47.5,4.5 h 14 v 14 h -14 z"
       fill="url(#gradient_ds_tr)"
       style="fill:url(#gradient_ds_tr)" />
    <path
       id="ds-t"
       d="m 16.5,4.5 h 31 v 14 h -31 z"
       fill="url(#gradient_ds_t)"
       style="fill:url(#gradient_ds_t)" />
    <path
       id="ds-tl"
       d="m 16.5,4.5 h -14 v 14 h 14 z"
       fill="url(#gradient_ds_tl)"
       style="fill:url(#gradient_ds_tl)" />
  </g>
  <rect
     x="4.5"
     y="4.5"
     width="55"
     height="55"
     fill="#008237"
     stroke-linecap="round"
     stroke-width="2.74441"
     id="bg"
     rx="10" />
  <g
     id="art">
    <path
       id="path2"
       d="M 13.421875,37.365234 4.5,44.501953 v 3.882813 l 4.2402344,-2.828125 v 2.33789 l -4.171875,2.783203 c 0.076171,0.655049 0.2145038,1.290905 0.4101562,1.900391 h 1.421875 v 2.802734 c 1.6164183,2.226493 4.1316994,3.755431 7.0214844,4.0625 V 49.066406 l 7.021484,-5.851562 h 3.509766 l -7.021484,5.851562 V 59.5 H 49.5 c 5.54,0 10,-4.46 10,-10 v -3.275391 l -5.123047,-6.519531 h -2.339844 l -2.339843,-2.339844 z"
       style="fill:#43a047;fill-opacity:1" />
    <path
       id="path3"
       d="m 14.5,4.5 c -5.54,0 -10,4.46 -10,10 v 9.988281 H 52.195312 L 59.5,16.138672 V 14.5 c 0,-1.452865 -0.306864,-2.830871 -0.859375,-4.074219 l -7.775391,8.748047 H 46.878906 L 56.960938,7.828125 C 55.132411,5.7830321 52.471857,4.5 49.5,4.5 Z"
       style="fill:#43a047;fill-opacity:1" />
    <g
       stroke-width="0.26458"
       id="g8"
       transform="matrix(3.779602,0,0,3.779602,-27.464856,-43.359594)">
      <circle
         cx="21.422001"
         cy="25.627001"
         r="0.39686999"
         fill="#fbc02d"
         id="circle3" />
      <circle
         cx="21.422001"
         cy="25.627001"
         r="0.13229001"
         fill="#263238"
         id="circle4" />
      <circle
         cx="21.422001"
         cy="14.25"
         r="0.39686999"
         fill="#fbc02d"
         id="circle5" />
      <circle
         cx="21.422001"
         cy="14.25"
         r="0.13229001"
         fill="#263238"
         id="circle6" />
      <circle
         cx="10.045"
         cy="25.627001"
         r="0.39686999"
         fill="#fbc02d"
         id="circle7" />
      <circle
         cx="10.045"
         cy="25.627001"
         r="0.13229001"
         fill="#263238"
         id="circle8" />
    </g>
    <path
       d="m 21.00098,21.997284 h 2.000052 v 20.00052 H 21.00098 Z m 3.999953,0 h 2.000052 v 20.00052 h -2.000052 z m 3.999953,0 h 2.000052 v 20.00052 h -2.000052 z m 3.999953,0 h 2.000052 v 20.00052 h -2.000052 z m 3.999953,0 h 2.000052 v 20.00052 h -2.000052 z m 3.999952,0 h 2.000052 v 20.00052 h -2.000052 z"
       fill="#fbc02d"
       fill-rule="evenodd"
       stroke-width="1.41421"
       style="paint-order:fill markers stroke"
       id="path8" />
    <rect
       x="17.999977"
       y="24.000475"
       width="28.000425"
       height="16.000191"
       ry="1.0000072"
       fill="#263238"
       stroke-width="1.00001"
       id="rect8" />
    <rect
       x="10.00045"
       y="12.998053"
       width="17.000273"
       height="6.0001183"
       ry="1.0000072"
       fill="#263238"
       stroke-width="1.10191"
       id="rect9" />
    <rect
       x="37.000034"
       y="43.998352"
       width="17.000273"
       height="6.0001183"
       ry="1.0000072"
       fill="#eceff1"
       stroke-width="1.00001"
       id="rect10" />
    <g
       fill="#37474f"
       stroke-width="0.26458"
       id="g12"
       transform="matrix(3.779602,0,0,3.779602,-27.464856,-43.359594)">
      <rect
         x="17.320999"
         y="23.378"
         width="2.3812001"
         height="0.26458001"
         ry="0"
         id="rect11" />
      <path
         d="m 17.321,23.907 h 1.3229 v 0.26458 H 17.321 Z"
         id="path11" />
      <path
         d="m 20.231,24.436 0.52917,-0.79375 0.52917,0.79375 z"
         fill-rule="evenodd"
         id="path12" />
    </g>
    <circle
       cx="10.501246"
       cy="10.499735"
       r="1.5000106"
       fill="#fbc02d"
       stroke-width="1.00001"
       id="circle12" />
    <circle
       cx="10.501246"
       cy="10.499735"
       r="0.50000358"
       fill="#263238"
       stroke-width="1.00001"
       id="circle13" />
    <g
       fill="#ffffff"
       id="g16"
       transform="matrix(3.779602,0,0,3.779602,-27.464856,-43.359594)">
      <g
         stroke-width="0.26458"
         id="g15">
        <rect
           x="10.177"
           y="15.176"
           width="1.0583"
           height="0.26458001"
           opacity="0.5"
           style="paint-order:stroke fill markers"
           id="rect13" />
        <rect
           x="10.177"
           y="15.705"
           width="2.1166999"
           height="0.26458001"
           opacity="0.5"
           style="paint-order:stroke fill markers"
           id="rect14" />
        <rect
           x="13.087"
           y="15.705"
           width="0.79374999"
           height="0.52916998"
           opacity="0.5"
           style="paint-order:stroke fill markers"
           id="rect15" />
      </g>
      <path
         d="m 17.213,18.351 -1.1481,1.545 1.2076,1.63 h -0.61516 l -0.92416,-1.2473 -0.92416,1.2473 h -0.61516 l 1.2331,-1.6612 -1.1283,-1.5138 h 0.61516 l 0.84193,1.1311 0.84193,-1.1311 z"
         opacity="0.75"
         stroke-width="0.14514"
         id="path15" />
    </g>
  </g>
</svg>
