<?xml version="1.0" encoding="UTF-8" standalone="no"?>
<svg xmlns:inkscape="http://www.inkscape.org/namespaces/inkscape" xmlns:sodipodi="http://sodipodi.sourceforge.net/DTD/sodipodi-0.dtd" xmlns="http://www.w3.org/2000/svg" xmlns:svg="http://www.w3.org/2000/svg" xmlns:rdf="http://www.w3.org/1999/02/22-rdf-syntax-ns#" xmlns:cc="http://creativecommons.org/ns#" xmlns:dc="http://purl.org/dc/elements/1.1/" width="64" height="64" version="1.1" viewBox="0 0 64 64" id="svg12" sodipodi:docname="crystal.svg" inkscape:version="1.4.2 (ebf0e940d0, 2025-05-08)">
  <metadata id="metadata18">
    <rdf:RDF>
      <cc:Work rdf:about="">
        <dc:format>image/svg+xml</dc:format>
        <dc:type rdf:resource="http://purl.org/dc/dcmitype/StillImage"/>
      </cc:Work>
    </rdf:RDF>
  </metadata>
  <defs id="defs16">
    
    <filter color-interpolation-filters="sRGB" height="1.048" width="1.048" y="-0.024" x="-0.024" id="filter2761">
      <feGaussianBlur id="feGaussianBlur832" stdDeviation="0.14552168"/>
    </filter>
    <linearGradient gradientUnits="userSpaceOnUse" gradientTransform="translate(2.7702226,-9.4831128)" y2="1.1082" y1="15.429" x2="15.644" x1="1.2573" id="linearGradient4673">
      <stop id="stop835" offset="0" stop-color="#32dcff"/>
      <stop id="stop837" offset="1" stop-color="#3296ff"/>
    </linearGradient>
    
    <filter id="filter1057" x="-0.026999999" y="-0.026999999" width="1.054" height="1.054" color-interpolation-filters="sRGB">
      <feGaussianBlur stdDeviation="0.61875" id="feGaussianBlur851"/>
    </filter>
    <linearGradient id="linearGradient1053" x1="-127" x2="-72" y1="60" y2="5" gradientTransform="translate(131.5,-0.51000041)" gradientUnits="userSpaceOnUse">
      <stop stop-color="#32d7ff" offset="0" id="stop854"/>
      <stop stop-color="#329bff" offset="1" id="stop856"/>
    </linearGradient>
    
    
    
    
    
    
    
    <filter id="filter1057-7" x="-0.026999999" y="-0.026999999" width="1.054" height="1.054" color-interpolation-filters="sRGB">
      <feGaussianBlur stdDeviation="0.61875" id="feGaussianBlur851-5"/>
    </filter>
  <radialGradient id="gradient_ds_br" cx="0" cy="0" r="1" gradientUnits="userSpaceOnUse" gradientTransform="matrix(13.998399,0.00477622,-0.00477841,14.004799,47.5016,48.4952)">
      <stop offset="0.65" id="stop1"/>
      <stop offset="1" stop-opacity="0" id="stop2"/>
    </radialGradient><linearGradient id="gradient_ds_b" x1="30.448999" y1="48.5" x2="30.492201" y2="62.500301" gradientUnits="userSpaceOnUse">
      <stop offset="0.653846" id="stop3"/>
      <stop offset="1" stop-opacity="0" id="stop4"/>
    </linearGradient><radialGradient id="gradient_ds_bl" cx="0" cy="0" r="1" gradientUnits="userSpaceOnUse" gradientTransform="matrix(0,14,-14,0,16.5,48.5)">
      <stop offset="0.65" id="stop5"/>
      <stop offset="1" stop-opacity="0" id="stop6"/>
    </radialGradient><linearGradient id="gradient_ds_r" x1="47.5" y1="33.5" x2="61.5" y2="33.5009" gradientUnits="userSpaceOnUse">
      <stop offset="0.649038" id="stop7"/>
      <stop offset="1" stop-opacity="0" id="stop8"/>
    </linearGradient><linearGradient id="gradient_ds_l" x1="16.5" y1="33.894699" x2="2.5" y2="33.894699" gradientUnits="userSpaceOnUse">
      <stop offset="0.649038" id="stop9"/>
      <stop offset="1" stop-opacity="0" id="stop10"/>
    </linearGradient><radialGradient id="gradient_ds_tr" cx="0" cy="0" r="1" gradientTransform="matrix(0.00843236,-14,14.0084,0.0189842,47.4916,18.5)" gradientUnits="userSpaceOnUse">
      <stop offset="0.65" id="stop11"/>
      <stop offset="1" stop-opacity="0" id="stop12"/>
    </radialGradient><linearGradient id="gradient_ds_t" x1="29.98" y1="18.5" x2="29.9158" y2="4.4998598" gradientUnits="userSpaceOnUse">
      <stop offset="0.649038" id="stop13"/>
      <stop offset="1" stop-opacity="0" id="stop14"/>
    </linearGradient><radialGradient id="gradient_ds_tl" cx="0" cy="0" r="1" gradientTransform="matrix(-0.00843236,-14,-14.0084,0.0189842,16.5084,18.5)" gradientUnits="userSpaceOnUse">
      <stop offset="0.65" id="stop15"/>
      <stop offset="1" stop-opacity="0" id="stop16"/>
    </radialGradient></defs>
  
  <g id="ds" opacity="0.25">
    <path id="ds-br" d="m 47.5,48.5 h 14 v 14 h -14 z" fill="url(#gradient_ds_br)" style="fill:url(#gradient_ds_br)"/>
    <path id="ds-b" d="m 16.5,48.5 h 31 v 14 h -31 z" fill="url(#gradient_ds_b)" style="fill:url(#gradient_ds_b)"/>
    <path id="ds-bl" d="m 2.5,48.5 h 14 v 14 h -14 z" fill="url(#gradient_ds_bl)" style="fill:url(#gradient_ds_bl)"/>
    <path id="ds-r" d="m 47.5,18.5 h 14 v 30 h -14 z" fill="url(#gradient_ds_r)" style="fill:url(#gradient_ds_r)"/>
    <path id="ds-l" d="m 2.5,18.5 h 14 v 30 h -14 z" fill="url(#gradient_ds_l)" style="fill:url(#gradient_ds_l)"/>
    <path id="ds-tr" d="m 47.5,4.5 h 14 v 14 h -14 z" fill="url(#gradient_ds_tr)" style="fill:url(#gradient_ds_tr)"/>
    <path id="ds-t" d="m 16.5,4.5 h 31 v 14 h -31 z" fill="url(#gradient_ds_t)" style="fill:url(#gradient_ds_t)"/>
    <path id="ds-tl" d="m 16.5,4.5 h -14 v 14 h 14 z" fill="url(#gradient_ds_tl)" style="fill:url(#gradient_ds_tl)"/>
  </g><rect x="4.5" y="4.5" width="55" height="55" fill="url(#linearGradient1053)" stroke-linecap="round" stroke-width="2.7444" id="bg" style="fill:url(#linearGradient1053)" rx="10"/>
  <g id="art" transform="matrix(3.779602,0,0,3.779602,-0.00125362,-1.9677288e-4)" style="fill-rule:evenodd">
    <path d="M 12.695,9.574 11.579,5.39 c 0,-0.012313 -0.01224,-0.024627 -0.03679,-0.036947 l -4.1817,-1.1199 c -0.012239,0 -0.036713,0 -0.049029,0.012315 l -3.0656,3.0642 C 4.233566,7.321981 4.233566,7.334295 4.233566,7.358928 l 1.116,4.184 c 0,0.01231 0.012238,0.02463 0.036791,0.03695 l 4.1817,1.1199 c 0.01224,0 0.036713,0 0.049027,-0.01231 l 3.0656,-3.0643 c 0.01231,-0.02463 0.02463,-0.03695 0.01231,-0.04926 z M 8.5992,6.2882 7.4955,10.3984 c 0,0.01231 -0.012239,0.01231 -0.024477,0 l -2.9922,-3.0027 c -0.012238,-0.012313 0,-0.012313 0,-0.024633 l 4.1081,-1.1075 c 0,0.012313 0.012314,0.012313 0.012314,0.024633 z" style="isolation:isolate;fill:#ffffff;fill-opacity:1;stroke-width:0.26458" id="path4" inkscape:connector-curvature="0"/>
    <path d="m 46.113,29.186 -16.236,4.3516 -1.5488,5.7656 c 0,0.04653 -0.04554,0.04653 -0.0918,0 l -4.1895,-4.2051 -5.6973,1.5273 1.8691,7.002 c 0,0.04653 0.04587,0.09406 0.13867,0.14062 l 15.805,4.2324 c 0.04626,0 0.139,-3.48e-4 0.18555,-0.04687 l 11.586,-11.582 c 0.04653,-0.09309 0.09344,-0.13902 0.04687,-0.18555 l -1.8672,-7 z" style="opacity:0.25;fill:#ffffff;fill-opacity:1;paint-order:stroke fill markers" id="path6" inkscape:connector-curvature="0" transform="scale(0.26458)"/>
    <path d="m 27.818,16 c -0.01379,0 -0.03513,0.0027 -0.05469,0.0039 l 2.2324,8.332 2.457,-0.66211 c 0,0.04654 0.04687,0.04718 0.04687,0.09375 l -1.3301,4.9492 5.1582,19.246 c 0.0059,-0.004 0.01457,-0.0048 0.01953,-0.0098 l 11.586,-11.582 c 0.04653,-0.09309 0.09344,-0.13902 0.04687,-0.18555 l -4.2168,-15.812 c 0,-0.04654 -0.04784,-0.09406 -0.14062,-0.14062 l -15.805,-4.2324 z" style="opacity:0.3;fill:#32a0ff;fill-opacity:1;paint-order:stroke fill markers" id="path8" inkscape:connector-curvature="0" transform="scale(0.26458)"/>
  </g>
</svg>
