<?xml version="1.0" encoding="UTF-8" standalone="no"?>
<svg xmlns:inkscape="http://www.inkscape.org/namespaces/inkscape" xmlns:sodipodi="http://sodipodi.sourceforge.net/DTD/sodipodi-0.dtd" xmlns="http://www.w3.org/2000/svg" xmlns:svg="http://www.w3.org/2000/svg" xmlns:rdf="http://www.w3.org/1999/02/22-rdf-syntax-ns#" xmlns:cc="http://creativecommons.org/ns#" xmlns:dc="http://purl.org/dc/elements/1.1/" width="64" height="64" version="1.1" viewBox="0 0 64 64" id="svg23" sodipodi:docname="cs-user.svg" inkscape:version="1.4.2 (ebf0e940d0, 2025-05-08)">
  <metadata id="metadata2">
    <rdf:RDF>
      <cc:Work rdf:about="">
        <dc:format>image/svg+xml</dc:format>
        <dc:type rdf:resource="http://purl.org/dc/dcmitype/StillImage"/>
      </cc:Work>
    </rdf:RDF>
  </metadata>
  <defs id="defs9">
    <linearGradient id="a" x1="-6.1472001" x2="-6.1472001" y1="-137.82001" y2="-100.78" gradientTransform="matrix(0.53033,0,0,0.53033,35.151469,71.862)" gradientUnits="userSpaceOnUse">
      <stop stop-color="#32b4ff" offset="0" id="stop4"/>
      <stop stop-color="#3287ff" offset="1" id="stop6"/>
    </linearGradient>
    <filter color-interpolation-filters="sRGB" height="1.048" width="1.048" y="-0.024" x="-0.024" id="filter2761">
      <feGaussianBlur id="feGaussianBlur834" stdDeviation="0.14552168"/>
    </filter>
    <linearGradient gradientUnits="userSpaceOnUse" gradientTransform="translate(1.920441,-6.6161524)" y2="1.1082" y1="15.429" x2="15.644" x1="1.2573" id="linearGradient4673">
      <stop id="stop837" offset="0" stop-color="#32dcff"/>
      <stop id="stop839" offset="1" stop-color="#3296ff"/>
    </linearGradient>
    
    <filter id="filter1057" x="-0.026999999" y="-0.026999999" width="1.054" height="1.054" color-interpolation-filters="sRGB">
      <feGaussianBlur stdDeviation="0.61875" id="feGaussianBlur855"/>
    </filter>
    <linearGradient id="linearGradient1053" x1="-127" x2="-72" y1="60" y2="5" gradientTransform="translate(131.5,-0.50999874)" gradientUnits="userSpaceOnUse">
      <stop stop-color="#32d7ff" offset="0" id="stop858"/>
      <stop stop-color="#329bff" offset="1" id="stop860"/>
    </linearGradient>
    
    
    
    
    
    
    
    <filter id="filter1057-7" x="-0.026999999" y="-0.026999999" width="1.054" height="1.054" color-interpolation-filters="sRGB">
      <feGaussianBlur stdDeviation="0.61875" id="feGaussianBlur855-5"/>
    </filter>
  <radialGradient id="gradient_ds_br" cx="0" cy="0" r="1" gradientUnits="userSpaceOnUse" gradientTransform="matrix(13.998399,0.00477622,-0.00477841,14.004799,47.5016,48.4952)">
      <stop offset="0.65" id="stop1"/>
      <stop offset="1" stop-opacity="0" id="stop2"/>
    </radialGradient><linearGradient id="gradient_ds_b" x1="30.448999" y1="48.5" x2="30.492201" y2="62.500301" gradientUnits="userSpaceOnUse">
      <stop offset="0.653846" id="stop3"/>
      <stop offset="1" stop-opacity="0" id="stop4"/>
    </linearGradient><radialGradient id="gradient_ds_bl" cx="0" cy="0" r="1" gradientUnits="userSpaceOnUse" gradientTransform="matrix(0,14,-14,0,16.5,48.5)">
      <stop offset="0.65" id="stop5"/>
      <stop offset="1" stop-opacity="0" id="stop6"/>
    </radialGradient><linearGradient id="gradient_ds_r" x1="47.5" y1="33.5" x2="61.5" y2="33.5009" gradientUnits="userSpaceOnUse">
      <stop offset="0.649038" id="stop7"/>
      <stop offset="1" stop-opacity="0" id="stop8"/>
    </linearGradient><linearGradient id="gradient_ds_l" x1="16.5" y1="33.894699" x2="2.5" y2="33.894699" gradientUnits="userSpaceOnUse">
      <stop offset="0.649038" id="stop9"/>
      <stop offset="1" stop-opacity="0" id="stop10"/>
    </linearGradient><radialGradient id="gradient_ds_tr" cx="0" cy="0" r="1" gradientTransform="matrix(0.00843236,-14,14.0084,0.0189842,47.4916,18.5)" gradientUnits="userSpaceOnUse">
      <stop offset="0.65" id="stop11"/>
      <stop offset="1" stop-opacity="0" id="stop12"/>
    </radialGradient><linearGradient id="gradient_ds_t" x1="29.98" y1="18.5" x2="29.9158" y2="4.4998598" gradientUnits="userSpaceOnUse">
      <stop offset="0.649038" id="stop13"/>
      <stop offset="1" stop-opacity="0" id="stop14"/>
    </linearGradient><radialGradient id="gradient_ds_tl" cx="0" cy="0" r="1" gradientTransform="matrix(-0.00843236,-14,-14.0084,0.0189842,16.5084,18.5)" gradientUnits="userSpaceOnUse">
      <stop offset="0.65" id="stop15"/>
      <stop offset="1" stop-opacity="0" id="stop16"/>
    </radialGradient></defs>
  
  <g id="ds" opacity="0.25">
    <path id="ds-br" d="m 47.5,48.5 h 14 v 14 h -14 z" fill="url(#gradient_ds_br)" style="fill:url(#gradient_ds_br)"/>
    <path id="ds-b" d="m 16.5,48.5 h 31 v 14 h -31 z" fill="url(#gradient_ds_b)" style="fill:url(#gradient_ds_b)"/>
    <path id="ds-bl" d="m 2.5,48.5 h 14 v 14 h -14 z" fill="url(#gradient_ds_bl)" style="fill:url(#gradient_ds_bl)"/>
    <path id="ds-r" d="m 47.5,18.5 h 14 v 30 h -14 z" fill="url(#gradient_ds_r)" style="fill:url(#gradient_ds_r)"/>
    <path id="ds-l" d="m 2.5,18.5 h 14 v 30 h -14 z" fill="url(#gradient_ds_l)" style="fill:url(#gradient_ds_l)"/>
    <path id="ds-tr" d="m 47.5,4.5 h 14 v 14 h -14 z" fill="url(#gradient_ds_tr)" style="fill:url(#gradient_ds_tr)"/>
    <path id="ds-t" d="m 16.5,4.5 h 31 v 14 h -31 z" fill="url(#gradient_ds_t)" style="fill:url(#gradient_ds_t)"/>
    <path id="ds-tl" d="m 16.5,4.5 h -14 v 14 h 14 z" fill="url(#gradient_ds_tl)" style="fill:url(#gradient_ds_tl)"/>
  </g><rect x="4.5" y="4.5" width="55" height="55" fill="url(#linearGradient1053)" stroke-linecap="round" stroke-width="2.7444" id="bg" style="fill:url(#linearGradient1053)" rx="10"/>
  <g id="art"><path id="path850" style="fill:#ffffff;stroke-width:3.7796;paint-order:markers fill stroke" d="m 37.819265,23.710767 a 4.0936869,3.1184362 0 0 0 -0.132816,0.0059 v 1.640612 c 0.0223,0.02714 0.08292,0.02336 0.103524,0.05078 0.418515,0.556849 0.597404,1.193598 0.597668,1.853517 -2.46e-4,0.659918 -0.179115,1.296668 -0.597668,1.853517 -0.21162,0.281565 -0.695561,0.341112 -1.056626,0.539046 -0.127369,0.465345 -0.160678,0.903854 -0.404304,1.386736 -0.04511,0.0899 -0.09815,0.177661 -0.156249,0.259765 l -0.847651,1.187513 8.326085,5.20489 c 0.09113,0.05694 0.176961,0.120592 0.257807,0.191407 1.713823,1.509762 2.461012,3.440496 2.289078,5.097549 h 0.185541 c 1.195223,0 2.895704,-1.856276 0.648428,-4.103514 l -7.372869,-4.60922 1.472646,-2.074208 c 0.225793,-0.508092 0.333966,-0.985229 0.373047,-1.417956 h 0.412127 v -0.002 a 0.50007914,0.66547452 0 0 0 0.464854,-0.664076 0.50007914,0.66547452 0 0 0 -0.464854,-0.664076 v -2.703134 h -0.0079 a 4.0936869,3.1184362 0 0 0 -4.089529,-3.033206 z m -4.451237,12.269344 -4.638706,2.898425 c -2.514682,2.2153 -0.569283,4.103514 0.648429,4.103514 h 12.361188 c 0.137539,-0.09079 0.435259,-0.24832 0.501969,-0.402339 0.09619,-0.222127 0.270657,-0.54842 -0.945317,-1.64647 z" inkscape:connector-curvature="0"/><path id="path852" style="fill:#ffffff;stroke-width:3.7796;paint-order:markers fill stroke" d="m 30.000403,18.406851 a 5.6618438,4.3129038 0 0 0 -5.654285,4.197248 h -0.01172 v 3.736326 a 0.69162937,0.92037088 0 0 0 -0.01565,0 0.69162937,0.92037088 0 0 0 -0.691403,0.919917 0.69162937,0.92037088 0 0 0 0.691403,0.919918 0.69162937,0.92037088 0 0 0 0.01565,0 h 0.570304 c 0.05798,0.601221 0.221803,1.262425 0.574235,1.960895 l 2.074208,2.918004 -10.122908,6.328187 c -3.478027,3.063934 -0.787745,5.673938 0.896484,5.673938 h 23.520084 c 1.653123,0 4.004489,-2.565707 0.896484,-5.673938 l -10.199255,-6.376944 2.039095,-2.869134 c 0.312324,-0.702703 0.461565,-1.362395 0.515614,-1.960895 h 0.568376 v -0.002 a 0.69162937,0.92037088 0 0 1 0.002,0 0.69162937,0.92037088 0 0 0 0.64257,-0.91799 0.69162937,0.92037088 0 0 0 -0.644535,-0.91799 v -3.738215 h -0.0098 A 5.6618438,4.3129038 0 0 0 30.001193,18.40693 Z" inkscape:connector-curvature="0"/></g>
  
</svg>
