<?xml version="1.0" encoding="UTF-8" standalone="no"?>
<svg xmlns:inkscape="http://www.inkscape.org/namespaces/inkscape" xmlns:sodipodi="http://sodipodi.sourceforge.net/DTD/sodipodi-0.dtd" xmlns:xlink="http://www.w3.org/1999/xlink" xmlns="http://www.w3.org/2000/svg" xmlns:svg="http://www.w3.org/2000/svg" width="64" height="64" viewBox="0 0 64 64" version="1.1" id="svg3" sodipodi:docname="datespell.svg" xml:space="preserve" inkscape:version="1.4.2 (ebf0e940d0, 2025-05-08)">
  <defs id="defs3">
    <linearGradient id="linearGradient893" x1="-106.56" x2="-60.509998" y1="15.282" y2="45.549" gradientUnits="userSpaceOnUse">
      <stop stop-color="#00e2f4" offset="0" id="stop1"/>
      <stop stop-color="#2a94ec" stop-opacity=".99608" offset="1" id="stop2"/>
    </linearGradient>
    <linearGradient id="linearGradient901" x1="-64.713997" x2="-95.380997" y1="43.986" y2="22.948999" gradientUnits="userSpaceOnUse">
      <stop stop-color="#0ee3aa" offset="0" id="stop3"/>
      <stop stop-color="#249aed" offset="1" id="stop4"/>
    </linearGradient>
    <filter id="h" x="-0.060000002" y="-0.060000002" width="1.12" height="1.12" color-interpolation-filters="sRGB">
      <feGaussianBlur stdDeviation="0.85" id="feGaussianBlur2"/>
    </filter>
    <linearGradient id="g" x1="32" x2="32" y1="15" y2="49" gradientTransform="scale(1.0000071)" gradientUnits="userSpaceOnUse">
      <stop stop-color="#303030" offset="0" id="stop5"/>
      <stop stop-color="#424242" offset="1" id="stop7"/>
    </linearGradient>
    <filter id="h-7" x="-0.060000002" y="-0.060000002" width="1.12" height="1.12" color-interpolation-filters="sRGB">
      <feGaussianBlur stdDeviation="0.85" id="feGaussianBlur2-5"/>
    </filter>
    <linearGradient inkscape:collect="always" xlink:href="#linearGradient5" id="linearGradient8" x1="15.742398" y1="1.1906016" x2="1.1906016" y2="15.742398" gradientUnits="userSpaceOnUse" gradientTransform="scale(3.779602)"/>
    <linearGradient id="linearGradient5" inkscape:collect="always">
      <stop style="stop-color:#f5f74b;stop-opacity:1" offset="0" id="stop6"/>
      <stop style="stop-color:#13c1a6;stop-opacity:1" offset="0.5" id="stop9"/>
      <stop style="stop-color:#017dfa;stop-opacity:1" offset="1" id="stop8"/>
    </linearGradient>
    <filter inkscape:collect="always" style="color-interpolation-filters:sRGB" id="filter1057" x="-0.026999999" width="1.054" y="-0.026999999" height="1.054">
      <feGaussianBlur inkscape:collect="always" stdDeviation="0.61875" id="feGaussianBlur1059"/>
    </filter>
  <radialGradient id="gradient_ds_br" cx="0" cy="0" r="1" gradientUnits="userSpaceOnUse" gradientTransform="matrix(13.998399,0.00477622,-0.00477841,14.004799,47.5016,48.4952)">
      <stop offset="0.65" id="stop1"/>
      <stop offset="1" stop-opacity="0" id="stop2"/>
    </radialGradient><linearGradient id="gradient_ds_b" x1="30.448999" y1="48.5" x2="30.492201" y2="62.500301" gradientUnits="userSpaceOnUse">
      <stop offset="0.653846" id="stop3"/>
      <stop offset="1" stop-opacity="0" id="stop4"/>
    </linearGradient><radialGradient id="gradient_ds_bl" cx="0" cy="0" r="1" gradientUnits="userSpaceOnUse" gradientTransform="matrix(0,14,-14,0,16.5,48.5)">
      <stop offset="0.65" id="stop5"/>
      <stop offset="1" stop-opacity="0" id="stop6"/>
    </radialGradient><linearGradient id="gradient_ds_r" x1="47.5" y1="33.5" x2="61.5" y2="33.5009" gradientUnits="userSpaceOnUse">
      <stop offset="0.649038" id="stop7"/>
      <stop offset="1" stop-opacity="0" id="stop8"/>
    </linearGradient><linearGradient id="gradient_ds_l" x1="16.5" y1="33.894699" x2="2.5" y2="33.894699" gradientUnits="userSpaceOnUse">
      <stop offset="0.649038" id="stop9"/>
      <stop offset="1" stop-opacity="0" id="stop10"/>
    </linearGradient><radialGradient id="gradient_ds_tr" cx="0" cy="0" r="1" gradientTransform="matrix(0.00843236,-14,14.0084,0.0189842,47.4916,18.5)" gradientUnits="userSpaceOnUse">
      <stop offset="0.65" id="stop11"/>
      <stop offset="1" stop-opacity="0" id="stop12"/>
    </radialGradient><linearGradient id="gradient_ds_t" x1="29.98" y1="18.5" x2="29.9158" y2="4.4998598" gradientUnits="userSpaceOnUse">
      <stop offset="0.649038" id="stop13"/>
      <stop offset="1" stop-opacity="0" id="stop14"/>
    </linearGradient><radialGradient id="gradient_ds_tl" cx="0" cy="0" r="1" gradientTransform="matrix(-0.00843236,-14,-14.0084,0.0189842,16.5084,18.5)" gradientUnits="userSpaceOnUse">
      <stop offset="0.65" id="stop15"/>
      <stop offset="1" stop-opacity="0" id="stop16"/>
    </radialGradient></defs>
  
  
  <g id="ds" opacity="0.25">
    <path id="ds-br" d="m 47.5,48.5 h 14 v 14 h -14 z" fill="url(#gradient_ds_br)" style="fill:url(#gradient_ds_br)"/>
    <path id="ds-b" d="m 16.5,48.5 h 31 v 14 h -31 z" fill="url(#gradient_ds_b)" style="fill:url(#gradient_ds_b)"/>
    <path id="ds-bl" d="m 2.5,48.5 h 14 v 14 h -14 z" fill="url(#gradient_ds_bl)" style="fill:url(#gradient_ds_bl)"/>
    <path id="ds-r" d="m 47.5,18.5 h 14 v 30 h -14 z" fill="url(#gradient_ds_r)" style="fill:url(#gradient_ds_r)"/>
    <path id="ds-l" d="m 2.5,18.5 h 14 v 30 h -14 z" fill="url(#gradient_ds_l)" style="fill:url(#gradient_ds_l)"/>
    <path id="ds-tr" d="m 47.5,4.5 h 14 v 14 h -14 z" fill="url(#gradient_ds_tr)" style="fill:url(#gradient_ds_tr)"/>
    <path id="ds-t" d="m 16.5,4.5 h 31 v 14 h -31 z" fill="url(#gradient_ds_t)" style="fill:url(#gradient_ds_t)"/>
    <path id="ds-tl" d="m 16.5,4.5 h -14 v 14 h 14 z" fill="url(#gradient_ds_tl)" style="fill:url(#gradient_ds_tl)"/>
  </g><rect id="bg" width="55" height="55" x="4.5" y="4.5" style="fill:url(#linearGradient8);fill-opacity:1;stroke-width:3.7796" rx="10"/>
  <g id="art"><rect transform="matrix(1.0000071,0,0,1.0000071,-0.16039119,-0.16002835)" x="15.16" y="15.16" width="34" height="34" ry="5" fill="#303030" fill-rule="evenodd" filter="url(#h)" opacity="0.5" style="paint-order:stroke fill markers;filter:url(#h-7)" id="rect31"/><path d="m 20.000142,15.000106 h 24.000095 c 2.770032,0 5.000035,2.230003 5.000035,5.000036 v 24.000095 c 0,2.770032 -2.230003,5.000035 -5.000035,5.000035 H 20.000142 c -2.770033,0 -5.000036,-2.230003 -5.000036,-5.000035 V 20.000142 c 0,-2.770033 2.230003,-5.000035 5.000036,-5.000036 z" fill="url(#g)" fill-rule="evenodd" stroke-width="1.00001" style="fill:url(#g);paint-order:stroke fill markers" id="path33"/><path d="m 20.000142,41.651214 h 11.739066 v 2.347813 H 20.000142 Z" fill="#f9f9f9" stroke-width="0.999969" id="path35"/><g fill="#ffffff" stroke-width="0.105" aria-label="DS" id="g4" transform="matrix(4.0404097,0,0,4.0404097,-2.2081373,-2.8389955)">
    <path d="m 6.348,6.429 v 1.867 h 0.283 q 0.484,0 0.738,-0.24 Q 7.625,7.816 7.625,7.359 7.625,6.904 7.371,6.666 7.117,6.428 6.631,6.429 Z M 5.559,5.832 h 0.832 q 0.697,0 1.037,0.1 0.343,0.1 0.587,0.337 0.215,0.207 0.32,0.477 0.104,0.271 0.104,0.613 0,0.347 -0.105,0.62 Q 8.23,8.249 8.014,8.456 7.769,8.694 7.424,8.794 7.08,8.892 6.391,8.892 H 5.56 Z m 5.614,0.096 V 6.576 Q 10.921,6.463 10.681,6.406 10.441,6.349 10.228,6.349 9.945,6.349 9.81,6.427 9.675,6.505 9.675,6.668 q 0,0.123 0.09,0.193 0.092,0.068 0.332,0.117 l 0.336,0.068 q 0.51,0.102 0.726,0.311 0.216,0.209 0.215,0.595 0,0.506 -0.302,0.754 -0.299,0.246 -0.916,0.246 -0.29,0 -0.584,-0.056 Q 9.279,8.841 8.986,8.732 V 8.066 q 0.293,0.156 0.566,0.236 0.274,0.078 0.528,0.078 0.259,0 0.396,-0.086 0.137,-0.086 0.137,-0.246 0,-0.144 -0.094,-0.221 -0.092,-0.078 -0.37,-0.14 L 9.843,7.619 Q 9.383,7.521 9.17,7.306 8.96,7.091 8.96,6.726 8.96,6.269 9.254,6.023 9.55,5.777 10.103,5.777 q 0.252,0 0.519,0.039 0.266,0.037 0.55,0.112 z" id="path4"/>
  </g></g>
  
  
  
</svg>
