<?xml version="1.0" encoding="UTF-8" standalone="no"?>
<svg xmlns:inkscape="http://www.inkscape.org/namespaces/inkscape" xmlns:sodipodi="http://sodipodi.sourceforge.net/DTD/sodipodi-0.dtd" xmlns:xlink="http://www.w3.org/1999/xlink" xmlns="http://www.w3.org/2000/svg" xmlns:svg="http://www.w3.org/2000/svg" width="64" height="64" version="1.1" id="svg6" sodipodi:docname="davinci-panels.svg" inkscape:version="1.3.2 (091e20ef0f, 2023-11-25, custom)">
  <defs id="defs6">
    <filter inkscape:collect="always" style="color-interpolation-filters:sRGB" id="filter1057" x="-0.026999999" width="1.054" y="-0.026999999" height="1.054">
      <feGaussianBlur inkscape:collect="always" stdDeviation="0.61875" id="feGaussianBlur1059"/>
    </filter>
    <radialGradient inkscape:collect="always" xlink:href="#linearGradient37376" id="radialGradient37378" cx="8.4665003" cy="8.4665003" fx="8.4665003" fy="8.4665003" r="7.276" gradientUnits="userSpaceOnUse" gradientTransform="matrix(3.779602,0,0,3.779602,3.2043457e-6,-2.1035156e-7)"/>
    <linearGradient inkscape:collect="always" id="linearGradient37376">
      <stop style="stop-color:#5e6a76;stop-opacity:1;" offset="0" id="stop37372"/>
      <stop style="stop-color:#1d2123;stop-opacity:1;" offset="1" id="stop37374"/>
    </linearGradient>
    <radialGradient id="radialGradient1108" cx="16.704" cy="8.3174" r="10.264" gradientTransform="matrix(0.60619,3.3498e-8,-4.0009e-8,0.72401,24.359316,0.5123)" gradientUnits="userSpaceOnUse">
      <stop stop-color="#fff" offset="0" id="stop14"/>
      <stop stop-color="#f8f8f8" offset=".8" id="stop16"/>
      <stop stop-color="#c4c4c4" offset="1" id="stop18"/>
    </radialGradient>
  <radialGradient id="gradient_ds_br" cx="0" cy="0" r="1" gradientUnits="userSpaceOnUse" gradientTransform="matrix(13.998399,0.00477622,-0.00477841,14.004799,47.5016,48.4952)">
      <stop offset="0.65" id="stop1"/>
      <stop offset="1" stop-opacity="0" id="stop2"/>
    </radialGradient><linearGradient id="gradient_ds_b" x1="30.448999" y1="48.5" x2="30.492201" y2="62.500301" gradientUnits="userSpaceOnUse">
      <stop offset="0.653846" id="stop3"/>
      <stop offset="1" stop-opacity="0" id="stop4"/>
    </linearGradient><radialGradient id="gradient_ds_bl" cx="0" cy="0" r="1" gradientUnits="userSpaceOnUse" gradientTransform="matrix(0,14,-14,0,16.5,48.5)">
      <stop offset="0.65" id="stop5"/>
      <stop offset="1" stop-opacity="0" id="stop6"/>
    </radialGradient><linearGradient id="gradient_ds_r" x1="47.5" y1="33.5" x2="61.5" y2="33.5009" gradientUnits="userSpaceOnUse">
      <stop offset="0.649038" id="stop7"/>
      <stop offset="1" stop-opacity="0" id="stop8"/>
    </linearGradient><linearGradient id="gradient_ds_l" x1="16.5" y1="33.894699" x2="2.5" y2="33.894699" gradientUnits="userSpaceOnUse">
      <stop offset="0.649038" id="stop9"/>
      <stop offset="1" stop-opacity="0" id="stop10"/>
    </linearGradient><radialGradient id="gradient_ds_tr" cx="0" cy="0" r="1" gradientTransform="matrix(0.00843236,-14,14.0084,0.0189842,47.4916,18.5)" gradientUnits="userSpaceOnUse">
      <stop offset="0.65" id="stop11"/>
      <stop offset="1" stop-opacity="0" id="stop12"/>
    </radialGradient><linearGradient id="gradient_ds_t" x1="29.98" y1="18.5" x2="29.9158" y2="4.4998598" gradientUnits="userSpaceOnUse">
      <stop offset="0.649038" id="stop13"/>
      <stop offset="1" stop-opacity="0" id="stop14"/>
    </linearGradient><radialGradient id="gradient_ds_tl" cx="0" cy="0" r="1" gradientTransform="matrix(-0.00843236,-14,-14.0084,0.0189842,16.5084,18.5)" gradientUnits="userSpaceOnUse">
      <stop offset="0.65" id="stop15"/>
      <stop offset="1" stop-opacity="0" id="stop16"/>
    </radialGradient></defs>
  
  <g id="ds" opacity="0.25">
    <path id="ds-br" d="m 47.5,48.5 h 14 v 14 h -14 z" fill="url(#gradient_ds_br)" style="fill:url(#gradient_ds_br)"/>
    <path id="ds-b" d="m 16.5,48.5 h 31 v 14 h -31 z" fill="url(#gradient_ds_b)" style="fill:url(#gradient_ds_b)"/>
    <path id="ds-bl" d="m 2.5,48.5 h 14 v 14 h -14 z" fill="url(#gradient_ds_bl)" style="fill:url(#gradient_ds_bl)"/>
    <path id="ds-r" d="m 47.5,18.5 h 14 v 30 h -14 z" fill="url(#gradient_ds_r)" style="fill:url(#gradient_ds_r)"/>
    <path id="ds-l" d="m 2.5,18.5 h 14 v 30 h -14 z" fill="url(#gradient_ds_l)" style="fill:url(#gradient_ds_l)"/>
    <path id="ds-tr" d="m 47.5,4.5 h 14 v 14 h -14 z" fill="url(#gradient_ds_tr)" style="fill:url(#gradient_ds_tr)"/>
    <path id="ds-t" d="m 16.5,4.5 h 31 v 14 h -31 z" fill="url(#gradient_ds_t)" style="fill:url(#gradient_ds_t)"/>
    <path id="ds-tl" d="m 16.5,4.5 h -14 v 14 h 14 z" fill="url(#gradient_ds_tl)" style="fill:url(#gradient_ds_tl)"/>
  </g><rect x="4.5" y="4.5" width="55" height="55" stroke-linecap="round" stroke-width="2.74441" id="bg" style="fill:url(#radialGradient37378);fill-opacity:1" rx="10"/>
  <g id="art"><path id="path6" d="M 32,13 C 21.50701,13 13,21.50701 13,32 h 10 a 9,9 0 0 1 9,-9 z" style="stroke-width:1.027;fill:#1ac63a;fill-opacity:1"/><path id="path7" d="m 13,32 c 0,10.49299 8.50701,19 19,19 V 41 a 9,9 0 0 1 -9,-9 z" style="stroke-width:1.027;fill:#2186ff;fill-opacity:1"/><path id="path8" d="m 41,32 a 9,9 0 0 1 -9,9 v 10 c 10.49299,0 19,-8.50701 19,-19 z" style="fill:#f54646;fill-opacity:1;stroke-width:1.027"/><path id="path9" d="m 32,13 v 10 a 9,9 0 0 1 9,9 H 51 C 51,21.50701 42.49299,13 32,13 Z" style="stroke-width:1.027;fill:#ffeb23;fill-opacity:1"/></g>
  
  
  
</svg>
