<?xml version="1.0" encoding="UTF-8" standalone="no"?>
<svg xmlns:inkscape="http://www.inkscape.org/namespaces/inkscape" xmlns:sodipodi="http://sodipodi.sourceforge.net/DTD/sodipodi-0.dtd" xmlns:xlink="http://www.w3.org/1999/xlink" xmlns="http://www.w3.org/2000/svg" xmlns:svg="http://www.w3.org/2000/svg" width="64" height="64" version="1.1" viewBox="0 0 64 64" id="svg8" sodipodi:docname="desktop-environment-mate.svg" inkscape:version="1.4.2 (ebf0e940d0, 2025-05-08)">
  <sodipodi:namedview id="namedview1" pagecolor="#ffffff" bordercolor="#000000" borderopacity="0.25" inkscape:showpageshadow="2" inkscape:pageopacity="0.0" inkscape:pagecheckerboard="0" inkscape:deskcolor="#d1d1d1" inkscape:current-layer="svg8"/>
  <defs id="defs6">
    <filter id="filter936" x="-0.059998332" y="-0.059999998" width="1.1199967" height="1.12" color-interpolation-filters="sRGB">
      <feGaussianBlur stdDeviation="0.9" id="feGaussianBlur1"/>
    </filter>
    <linearGradient id="linearGradient946" x1="31.833" x2="32.167" y1="51.559" y2="11.098" gradientUnits="userSpaceOnUse">
      <stop stop-color="#f9f9f9" offset="0" id="stop1"/>
      <stop stop-color="#f0fee6" offset="1" id="stop2"/>
    </linearGradient>
    <linearGradient id="linearGradient862" x1="7.9373" x2="7.9373" y1="15.081" y2="1.852" gradientTransform="scale(3.7796)" gradientUnits="userSpaceOnUse">
      <stop stop-color="#30e461" offset="0" id="stop3"/>
      <stop stop-color="#acf246" offset="1" id="stop4"/>
    </linearGradient>
    <linearGradient id="b-3" x1="399.57" x2="399.57" y1="545.8" y2="517.8" gradientTransform="matrix(2.1429,0,0,2.1429,-826.36,-1107.5)" gradientUnits="userSpaceOnUse">
      <stop stop-color="#3889e9" offset="0" id="stop5"/>
      <stop stop-color="#5ea5fb" offset="1" id="stop6"/>
    </linearGradient>
    <filter inkscape:collect="always" style="color-interpolation-filters:sRGB" id="filter1057" x="-0.026999999" width="1.054" y="-0.026999999" height="1.054">
      <feGaussianBlur inkscape:collect="always" stdDeviation="0.61875" id="feGaussianBlur1059"/>
    </filter>
    <linearGradient inkscape:collect="always" xlink:href="#linearGradient1051" id="linearGradient1053" x1="-127" y1="60" x2="-72" y2="5" gradientUnits="userSpaceOnUse" gradientTransform="translate(131.5,-0.50999961)"/>
    <linearGradient inkscape:collect="always" id="linearGradient1051">
      <stop style="stop-color:#8cd750;stop-opacity:1" offset="0" id="stop1047"/>
      <stop id="stop989" offset="0.4958486" style="stop-color:#7dcd32;stop-opacity:0.99607843"/>
      <stop style="stop-color:#87d241;stop-opacity:0.99607843" offset="1" id="stop1049"/>
    </linearGradient>
  <radialGradient id="gradient_ds_br" cx="0" cy="0" r="1" gradientUnits="userSpaceOnUse" gradientTransform="matrix(13.998399,0.00477622,-0.00477841,14.004799,47.5016,48.4952)">
      <stop offset="0.65" id="stop1"/>
      <stop offset="1" stop-opacity="0" id="stop2"/>
    </radialGradient><linearGradient id="gradient_ds_b" x1="30.448999" y1="48.5" x2="30.492201" y2="62.500301" gradientUnits="userSpaceOnUse">
      <stop offset="0.653846" id="stop3"/>
      <stop offset="1" stop-opacity="0" id="stop4"/>
    </linearGradient><radialGradient id="gradient_ds_bl" cx="0" cy="0" r="1" gradientUnits="userSpaceOnUse" gradientTransform="matrix(0,14,-14,0,16.5,48.5)">
      <stop offset="0.65" id="stop5"/>
      <stop offset="1" stop-opacity="0" id="stop6"/>
    </radialGradient><linearGradient id="gradient_ds_r" x1="47.5" y1="33.5" x2="61.5" y2="33.5009" gradientUnits="userSpaceOnUse">
      <stop offset="0.649038" id="stop7"/>
      <stop offset="1" stop-opacity="0" id="stop8"/>
    </linearGradient><linearGradient id="gradient_ds_l" x1="16.5" y1="33.894699" x2="2.5" y2="33.894699" gradientUnits="userSpaceOnUse">
      <stop offset="0.649038" id="stop9"/>
      <stop offset="1" stop-opacity="0" id="stop10"/>
    </linearGradient><radialGradient id="gradient_ds_tr" cx="0" cy="0" r="1" gradientTransform="matrix(0.00843236,-14,14.0084,0.0189842,47.4916,18.5)" gradientUnits="userSpaceOnUse">
      <stop offset="0.65" id="stop11"/>
      <stop offset="1" stop-opacity="0" id="stop12"/>
    </radialGradient><linearGradient id="gradient_ds_t" x1="29.98" y1="18.5" x2="29.9158" y2="4.4998598" gradientUnits="userSpaceOnUse">
      <stop offset="0.649038" id="stop13"/>
      <stop offset="1" stop-opacity="0" id="stop14"/>
    </linearGradient><radialGradient id="gradient_ds_tl" cx="0" cy="0" r="1" gradientTransform="matrix(-0.00843236,-14,-14.0084,0.0189842,16.5084,18.5)" gradientUnits="userSpaceOnUse">
      <stop offset="0.65" id="stop15"/>
      <stop offset="1" stop-opacity="0" id="stop16"/>
    </radialGradient></defs>
  
  <g id="ds" opacity="0.25">
    <path id="ds-br" d="m 47.5,48.5 h 14 v 14 h -14 z" fill="url(#gradient_ds_br)" style="fill:url(#gradient_ds_br)"/>
    <path id="ds-b" d="m 16.5,48.5 h 31 v 14 h -31 z" fill="url(#gradient_ds_b)" style="fill:url(#gradient_ds_b)"/>
    <path id="ds-bl" d="m 2.5,48.5 h 14 v 14 h -14 z" fill="url(#gradient_ds_bl)" style="fill:url(#gradient_ds_bl)"/>
    <path id="ds-r" d="m 47.5,18.5 h 14 v 30 h -14 z" fill="url(#gradient_ds_r)" style="fill:url(#gradient_ds_r)"/>
    <path id="ds-l" d="m 2.5,18.5 h 14 v 30 h -14 z" fill="url(#gradient_ds_l)" style="fill:url(#gradient_ds_l)"/>
    <path id="ds-tr" d="m 47.5,4.5 h 14 v 14 h -14 z" fill="url(#gradient_ds_tr)" style="fill:url(#gradient_ds_tr)"/>
    <path id="ds-t" d="m 16.5,4.5 h 31 v 14 h -31 z" fill="url(#gradient_ds_t)" style="fill:url(#gradient_ds_t)"/>
    <path id="ds-tl" d="m 16.5,4.5 h -14 v 14 h 14 z" fill="url(#gradient_ds_tl)" style="fill:url(#gradient_ds_tl)"/>
  </g><rect style="fill:url(#linearGradient1053);fill-opacity:1;stroke-width:2.74436;stroke-linecap:round" id="bg" width="55" height="55" x="4.5" y="4.5" rx="10"/>
  <g id="art"><path d="m32 14a18 18 0 0 0-14.566 7.4625l2.5815 1.5525a15 15 0 0 1 11.985-6.015 15 15 0 0 1 15 15 15 15 0 0 1-15 15 15 15 0 0 1-11.985-6.006l-2.5845 1.551a18 18 0 0 0 14.57 7.455 18 18 0 0 0 18-18 18 18 0 0 0-18-18zm-18 7.5v21l18-10.5zm18 0a10.5 10.5 0 0 0-8.103 3.8385l2.613 1.5675a7.5 7.5 0 0 1 5.49-2.406 7.5 7.5 0 0 1 7.5 7.5 7.5 7.5 0 0 1-7.5 7.5 7.5 7.5 0 0 1-5.493-2.406l-2.613 1.5705a10.5 10.5 0 0 0 8.106 3.8355 10.5 10.5 0 0 0 10.5-10.5 10.5 10.5 0 0 0-10.5-10.5z" filter="url(#filter936)" opacity=".15" id="path7"/><path d="m32 14a18 18 0 0 0-14.566 7.4625l2.5815 1.5525a15 15 0 0 1 11.985-6.015 15 15 0 0 1 15 15 15 15 0 0 1-15 15 15 15 0 0 1-11.985-6.006l-2.5845 1.551a18 18 0 0 0 14.57 7.455 18 18 0 0 0 18-18 18 18 0 0 0-18-18zm-18 7.5v21l18-10.5zm18 0a10.5 10.5 0 0 0-8.103 3.8385l2.613 1.5675a7.5 7.5 0 0 1 5.49-2.406 7.5 7.5 0 0 1 7.5 7.5 7.5 7.5 0 0 1-7.5 7.5 7.5 7.5 0 0 1-5.493-2.406l-2.613 1.5705a10.5 10.5 0 0 0 8.106 3.8355 10.5 10.5 0 0 0 10.5-10.5 10.5 10.5 0 0 0-10.5-10.5z" fill="url(#linearGradient946)" id="path8"/></g>
  
</svg>
