<?xml version="1.0" encoding="UTF-8" standalone="no"?>
<svg xmlns:inkscape="http://www.inkscape.org/namespaces/inkscape" xmlns:sodipodi="http://sodipodi.sourceforge.net/DTD/sodipodi-0.dtd" xmlns:xlink="http://www.w3.org/1999/xlink" xmlns="http://www.w3.org/2000/svg" xmlns:svg="http://www.w3.org/2000/svg" xmlns:rdf="http://www.w3.org/1999/02/22-rdf-syntax-ns#" xmlns:cc="http://creativecommons.org/ns#" xmlns:dc="http://purl.org/dc/elements/1.1/" width="64" height="64" version="1.1" viewBox="0 0 64 64" id="svg79" sodipodi:docname="discord.svg" xml:space="preserve" inkscape:version="1.4.2 (ebf0e940d0, 2025-05-08)">
  
  <defs id="defs33">
    <linearGradient id="linearGradient4524" x1="3.1161001" x2="13.676" y1="4.5948" y2="12.128" gradientTransform="translate(21.86302,2.9967e-4)" gradientUnits="userSpaceOnUse">
      <stop stop-color="#fff" offset="0" id="stop4520"/>
      <stop stop-color="#c6efff" offset="1" id="stop4522" style="stop-color:#ccd4ff;stop-opacity:1;"/>
    </linearGradient>
    <linearGradient id="linearGradient845" x1="3.1161001" x2="13.676" y1="4.5948" y2="12.128" gradientTransform="translate(21.86302,2.9967e-4)" gradientUnits="userSpaceOnUse">
      <stop stop-color="#fff" offset="0" id="stop2"/>
      <stop stop-color="#c6efff" offset="1" id="stop4"/>
    </linearGradient>
    
    
    <filter id="filter1057" x="-0.026999999" y="-0.026999999" width="1.054" height="1.054" color-interpolation-filters="sRGB">
      <feGaussianBlur stdDeviation="0.61875" id="feGaussianBlur11"/>
    </filter>
    <linearGradient id="linearGradient1053" x1="-127" x2="-72" y1="60" y2="5" gradientTransform="matrix(0.26458,0,0,0.26458,56.655458,-0.13493)" gradientUnits="userSpaceOnUse">
      <stop stop-color="#32d7ff" offset="0" id="stop14"/>
      <stop stop-color="#329bff" offset="1" id="stop16"/>
    </linearGradient>
    
    
    
    
    
    
    
    <filter id="filter1022" x="-0.108" y="-0.108" width="1.216" height="1.216" color-interpolation-filters="sRGB">
      <feGaussianBlur stdDeviation="1.44" id="feGaussianBlur867"/>
    </filter>
    <linearGradient inkscape:collect="always" xlink:href="#linearGradient4524" id="linearGradient692" gradientUnits="userSpaceOnUse" gradientTransform="matrix(3.779602,0,0,3.779602,-0.00652057,0.00113263)" x1="3.1161001" y1="4.5948" x2="13.676" y2="12.128"/>
    <linearGradient inkscape:collect="always" xlink:href="#linearGradient1051" id="linearGradient1053-9" x1="-127" y1="60" x2="-72" y2="5" gradientUnits="userSpaceOnUse" gradientTransform="translate(131.5,-0.50999493)"/>
    <linearGradient inkscape:collect="always" id="linearGradient1051">
      <stop style="stop-color:#6060da;stop-opacity:1;" offset="0" id="stop1047"/>
      <stop style="stop-color:#6079da;stop-opacity:1;" offset="1" id="stop1049"/>
    </linearGradient>
    <filter inkscape:collect="always" style="color-interpolation-filters:sRGB" id="filter1057-0" x="-0.026999999" width="1.054" y="-0.026999999" height="1.054">
      <feGaussianBlur inkscape:collect="always" stdDeviation="0.61875" id="feGaussianBlur1059"/>
    </filter>
  <radialGradient id="gradient_ds_br" cx="0" cy="0" r="1" gradientUnits="userSpaceOnUse" gradientTransform="matrix(13.998399,0.00477622,-0.00477841,14.004799,47.5016,48.4952)">
      <stop offset="0.65" id="stop1"/>
      <stop offset="1" stop-opacity="0" id="stop2"/>
    </radialGradient><linearGradient id="gradient_ds_b" x1="30.448999" y1="48.5" x2="30.492201" y2="62.500301" gradientUnits="userSpaceOnUse">
      <stop offset="0.653846" id="stop3"/>
      <stop offset="1" stop-opacity="0" id="stop4"/>
    </linearGradient><radialGradient id="gradient_ds_bl" cx="0" cy="0" r="1" gradientUnits="userSpaceOnUse" gradientTransform="matrix(0,14,-14,0,16.5,48.5)">
      <stop offset="0.65" id="stop5"/>
      <stop offset="1" stop-opacity="0" id="stop6"/>
    </radialGradient><linearGradient id="gradient_ds_r" x1="47.5" y1="33.5" x2="61.5" y2="33.5009" gradientUnits="userSpaceOnUse">
      <stop offset="0.649038" id="stop7"/>
      <stop offset="1" stop-opacity="0" id="stop8"/>
    </linearGradient><linearGradient id="gradient_ds_l" x1="16.5" y1="33.894699" x2="2.5" y2="33.894699" gradientUnits="userSpaceOnUse">
      <stop offset="0.649038" id="stop9"/>
      <stop offset="1" stop-opacity="0" id="stop10"/>
    </linearGradient><radialGradient id="gradient_ds_tr" cx="0" cy="0" r="1" gradientTransform="matrix(0.00843236,-14,14.0084,0.0189842,47.4916,18.5)" gradientUnits="userSpaceOnUse">
      <stop offset="0.65" id="stop11"/>
      <stop offset="1" stop-opacity="0" id="stop12"/>
    </radialGradient><linearGradient id="gradient_ds_t" x1="29.98" y1="18.5" x2="29.9158" y2="4.4998598" gradientUnits="userSpaceOnUse">
      <stop offset="0.649038" id="stop13"/>
      <stop offset="1" stop-opacity="0" id="stop14"/>
    </linearGradient><radialGradient id="gradient_ds_tl" cx="0" cy="0" r="1" gradientTransform="matrix(-0.00843236,-14,-14.0084,0.0189842,16.5084,18.5)" gradientUnits="userSpaceOnUse">
      <stop offset="0.65" id="stop15"/>
      <stop offset="1" stop-opacity="0" id="stop16"/>
    </radialGradient></defs>
  <metadata id="metadata35">
    <rdf:RDF>
      <cc:Work rdf:about="">
        <dc:format>image/svg+xml</dc:format>
        <dc:type rdf:resource="http://purl.org/dc/dcmitype/StillImage"/>
      </cc:Work>
    </rdf:RDF>
  </metadata>
  
  
  
  <g id="ds" opacity="0.25">
    <path id="ds-br" d="m 47.5,48.5 h 14 v 14 h -14 z" fill="url(#gradient_ds_br)" style="fill:url(#gradient_ds_br)"/>
    <path id="ds-b" d="m 16.5,48.5 h 31 v 14 h -31 z" fill="url(#gradient_ds_b)" style="fill:url(#gradient_ds_b)"/>
    <path id="ds-bl" d="m 2.5,48.5 h 14 v 14 h -14 z" fill="url(#gradient_ds_bl)" style="fill:url(#gradient_ds_bl)"/>
    <path id="ds-r" d="m 47.5,18.5 h 14 v 30 h -14 z" fill="url(#gradient_ds_r)" style="fill:url(#gradient_ds_r)"/>
    <path id="ds-l" d="m 2.5,18.5 h 14 v 30 h -14 z" fill="url(#gradient_ds_l)" style="fill:url(#gradient_ds_l)"/>
    <path id="ds-tr" d="m 47.5,4.5 h 14 v 14 h -14 z" fill="url(#gradient_ds_tr)" style="fill:url(#gradient_ds_tr)"/>
    <path id="ds-t" d="m 16.5,4.5 h 31 v 14 h -31 z" fill="url(#gradient_ds_t)" style="fill:url(#gradient_ds_t)"/>
    <path id="ds-tl" d="m 16.5,4.5 h -14 v 14 h 14 z" fill="url(#gradient_ds_tl)" style="fill:url(#gradient_ds_tl)"/>
  </g><rect style="fill:url(#linearGradient1053-9);fill-opacity:1;stroke-width:2.74436;stroke-linecap:round" id="bg" width="55" height="55" x="4.5" y="4.5" rx="10"/>
  <g id="art"><path d="m 39.110237,42.785095 c 2.362667,-0.741709 4.401346,-1.891956 5.985755,-3.940235 -8.672297,5.011752 -17.251616,4.8583 -25.90766,0.03477 0.706256,1.00768 1.556704,1.773238 2.549341,2.347889 0.989689,0.572987 2.040154,1.041091 3.099425,1.573221 -0.456765,0.57038 -0.998835,1.166763 -1.44532,1.827551 -0.424978,0.629606 -0.906877,0.850146 -1.683623,0.759851 -2.926773,-0.340126 -5.557905,-1.314167 -7.739491,-3.351373 -0.06323,-0.05923 -0.122686,-0.122459 -0.186864,-0.180287 -0.890701,-0.802183 -1.262538,-1.697532 -1.185888,-2.992689 0.362388,-6.130514 1.892031,-11.931447 4.569917,-17.441351 0.131266,-0.270079 0.355472,-0.530051 0.600768,-0.704102 2.139254,-1.518455 4.485253,-2.56737 7.080706,-3.020771 0.495393,-0.0866 0.998004,-0.151445 1.499633,-0.173703 0.203909,-0.009 0.414169,0.12219 0.616982,0.268956 -3.083853,1.030887 -6.014481,2.272864 -8.591791,4.348054 8.856363,-4.218791 17.661324,-4.427426 26.490475,-0.106936 -2.360248,-1.907376 -5.088856,-3.089333 -7.943212,-4.023386 0.213094,-0.438434 0.510548,-0.522757 0.966407,-0.480312 3.089106,0.287053 5.847422,1.422529 8.365771,3.18885 0.236301,0.165739 0.456954,0.409331 0.584137,0.666533 1.953752,3.955353 3.270679,8.117073 4.017339,12.464749 0.346703,2.020538 0.525289,4.055135 0.560704,6.101412 0.0045,0.287665 -0.117281,0.630513 -0.294431,0.860351 -1.645223,2.134681 -3.838185,3.453157 -6.420788,4.112585 -0.997436,0.254669 -2.037659,0.345342 -3.061855,0.486208 -0.15863,0.02192 -0.398673,-0.03477 -0.493767,-0.146611 -0.682143,-0.799499 -1.336316,-1.62247 -2.032784,-2.479041 z M 25.430722,37.318278 c 1.132142,-0.0028 1.803362,-0.242537 2.392489,-0.73192 0.962929,-0.800444 1.32218,-1.854953 1.396336,-3.079128 0.08277,-1.368972 -0.448715,-2.387159 -1.586072,-3.08185 -1.173416,-0.716574 -2.399519,-0.775801 -3.587183,-0.03061 -1.90628,1.196244 -2.264322,4.041906 -0.74753,5.756711 0.663698,0.750251 1.488143,1.158789 2.131998,1.166764 z m 12.495743,0.05284 c 0.389186,-0.08927 0.796589,-0.131719 1.164609,-0.275533 2.271314,-0.886165 2.994541,-3.936077 1.424041,-5.94607 -1.223835,-1.566267 -3.504146,-1.707397 -4.898365,-0.288799 -0.922299,0.938248 -1.210002,2.086076 -1.052808,3.370649 0.208256,1.702484 1.698439,3.079468 3.362712,3.139753 z" fill="url(#linearGradient845)" stroke-width="0.17283" id="path690" style="fill:url(#linearGradient692)"/></g>
</svg>
