<?xml version="1.0" encoding="UTF-8" standalone="no"?>
<svg xmlns:inkscape="http://www.inkscape.org/namespaces/inkscape" xmlns:sodipodi="http://sodipodi.sourceforge.net/DTD/sodipodi-0.dtd" xmlns="http://www.w3.org/2000/svg" xmlns:svg="http://www.w3.org/2000/svg" width="64" height="64" version="1.1" viewBox="0 0 64 64" id="svg3" sodipodi:docname="distributor-logo-ubuntu.svg" inkscape:version="1.4.2 (ebf0e940d0, 2025-05-08)">
  <sodipodi:namedview id="namedview3" pagecolor="#ffffff" bordercolor="#000000" borderopacity="0.25" inkscape:showpageshadow="2" inkscape:pageopacity="0.0" inkscape:pagecheckerboard="0" inkscape:deskcolor="#d1d1d1" inkscape:current-layer="svg3"/>
  <defs id="defs2">
    <filter id="filter1057-1" x="-0.026999999" y="-0.026999999" width="1.054" height="1.054" color-interpolation-filters="sRGB">
      <feGaussianBlur stdDeviation="0.61875" id="feGaussianBlur1"/>
    </filter>
    <linearGradient id="linearGradient1053-2" x1="-127" x2="-80.659" y1="60" y2="13.659" gradientTransform="translate(131.502,-0.51)" gradientUnits="userSpaceOnUse">
      <stop stop-color="#ff7d1e" offset="0" id="stop1"/>
      <stop stop-color="#ffa53c" offset="1" id="stop2"/>
    </linearGradient>
  <radialGradient id="gradient_ds_br" cx="0" cy="0" r="1" gradientUnits="userSpaceOnUse" gradientTransform="matrix(13.998399,0.00477622,-0.00477841,14.004799,47.5016,48.4952)">
      <stop offset="0.65" id="stop1"/>
      <stop offset="1" stop-opacity="0" id="stop2"/>
    </radialGradient><linearGradient id="gradient_ds_b" x1="30.448999" y1="48.5" x2="30.492201" y2="62.500301" gradientUnits="userSpaceOnUse">
      <stop offset="0.653846" id="stop3"/>
      <stop offset="1" stop-opacity="0" id="stop4"/>
    </linearGradient><radialGradient id="gradient_ds_bl" cx="0" cy="0" r="1" gradientUnits="userSpaceOnUse" gradientTransform="matrix(0,14,-14,0,16.5,48.5)">
      <stop offset="0.65" id="stop5"/>
      <stop offset="1" stop-opacity="0" id="stop6"/>
    </radialGradient><linearGradient id="gradient_ds_r" x1="47.5" y1="33.5" x2="61.5" y2="33.5009" gradientUnits="userSpaceOnUse">
      <stop offset="0.649038" id="stop7"/>
      <stop offset="1" stop-opacity="0" id="stop8"/>
    </linearGradient><linearGradient id="gradient_ds_l" x1="16.5" y1="33.894699" x2="2.5" y2="33.894699" gradientUnits="userSpaceOnUse">
      <stop offset="0.649038" id="stop9"/>
      <stop offset="1" stop-opacity="0" id="stop10"/>
    </linearGradient><radialGradient id="gradient_ds_tr" cx="0" cy="0" r="1" gradientTransform="matrix(0.00843236,-14,14.0084,0.0189842,47.4916,18.5)" gradientUnits="userSpaceOnUse">
      <stop offset="0.65" id="stop11"/>
      <stop offset="1" stop-opacity="0" id="stop12"/>
    </radialGradient><linearGradient id="gradient_ds_t" x1="29.98" y1="18.5" x2="29.9158" y2="4.4998598" gradientUnits="userSpaceOnUse">
      <stop offset="0.649038" id="stop13"/>
      <stop offset="1" stop-opacity="0" id="stop14"/>
    </linearGradient><radialGradient id="gradient_ds_tl" cx="0" cy="0" r="1" gradientTransform="matrix(-0.00843236,-14,-14.0084,0.0189842,16.5084,18.5)" gradientUnits="userSpaceOnUse">
      <stop offset="0.65" id="stop15"/>
      <stop offset="1" stop-opacity="0" id="stop16"/>
    </radialGradient></defs>
  
  <g id="ds" opacity="0.25">
    <path id="ds-br" d="m 47.5,48.5 h 14 v 14 h -14 z" fill="url(#gradient_ds_br)" style="fill:url(#gradient_ds_br)"/>
    <path id="ds-b" d="m 16.5,48.5 h 31 v 14 h -31 z" fill="url(#gradient_ds_b)" style="fill:url(#gradient_ds_b)"/>
    <path id="ds-bl" d="m 2.5,48.5 h 14 v 14 h -14 z" fill="url(#gradient_ds_bl)" style="fill:url(#gradient_ds_bl)"/>
    <path id="ds-r" d="m 47.5,18.5 h 14 v 30 h -14 z" fill="url(#gradient_ds_r)" style="fill:url(#gradient_ds_r)"/>
    <path id="ds-l" d="m 2.5,18.5 h 14 v 30 h -14 z" fill="url(#gradient_ds_l)" style="fill:url(#gradient_ds_l)"/>
    <path id="ds-tr" d="m 47.5,4.5 h 14 v 14 h -14 z" fill="url(#gradient_ds_tr)" style="fill:url(#gradient_ds_tr)"/>
    <path id="ds-t" d="m 16.5,4.5 h 31 v 14 h -31 z" fill="url(#gradient_ds_t)" style="fill:url(#gradient_ds_t)"/>
    <path id="ds-tl" d="m 16.5,4.5 h -14 v 14 h 14 z" fill="url(#gradient_ds_tl)" style="fill:url(#gradient_ds_tl)"/>
  </g><rect x="4.5" y="4.5" width="55" height="55" fill="url(#linearGradient1053-2)" stroke-linecap="round" stroke-width="2.7444" id="bg" style="fill:url(#linearGradient1053-2)" rx="10"/>
  <g id="art"><path d="m 40.782,14.423 c -0.16078,-0.01062 -0.31922,-0.0082 -0.47535,0.0021 -1.0408,0.07348 -2.0047,0.65009 -2.566,1.6221 -0.89485,1.5536 -0.35917,3.5277 1.1976,4.4258 1.5536,0.89483 3.531,0.3747 4.4258,-1.1838 0.89801,-1.5488 0.38372,-3.5595 -1.1699,-4.4558 -0.43784,-0.25183 -0.92993,-0.38055 -1.4122,-0.41074 z m -8.5263,3.4429 c -2.2459,0 -4.3464,0.5305 -6.2303,1.4652 l 2.2568,4.0751 c 1.2155,-0.56757 2.5476,-0.90223 3.9736,-0.90223 4.964,0 9.061,3.7985 9.4885,8.6555 l 4.6081,-0.0577 c -0.22972,-3.5794 -1.7958,-6.7992 -4.1997,-9.1632 -1.2378,0.46431 -2.6436,0.39314 -3.8766,-0.32306 -1.233,-0.71301 -2.013,-1.9047 -2.2268,-3.2144 -1.2027,-0.33022 -2.4872,-0.53534 -3.7935,-0.53534 z m -7.8225,2.3813 c -2.8456,1.8998 -4.9413,4.8154 -5.8218,8.2194 1.0304,0.83742 1.6499,2.0895 1.6499,3.5236 0,1.4244 -0.61784,2.723 -1.6499,3.5652 0.88053,3.4023 2.9762,6.3058 5.8218,8.2055 l 2.3806,-4.0039 c -2.442,-1.7163 -4.0312,-4.5546 -4.0312,-7.7671 0,-3.2158 1.5892,-6.0507 4.0312,-7.7671 z m -8.727,8.5009 c -1.7977,0 -3.242,1.4443 -3.242,3.242 0,1.7913 1.4443,3.242 3.242,3.242 1.7992,0 3.2582,-1.4507 3.2582,-3.242 0,-1.7977 -1.459,-3.242 -3.2582,-3.242 z m 26.038,4.1028 c -0.42748,4.8491 -4.5245,8.6555 -9.4885,8.6555 -1.4276,0 -2.7581,-0.32047 -3.9736,-0.88839 l -2.2568,4.0451 c 1.8838,0.93795 3.9844,1.4514 6.2303,1.4514 1.3064,0 2.5908,-0.17435 3.7935,-0.50765 0.21374,-1.308 0.99217,-2.4959 2.2268,-3.2121 1.2362,-0.71289 2.6389,-0.78209 3.8766,-0.31152 2.4039,-2.3672 3.9698,-5.5806 4.1997,-9.1632 z m -1.4238,10.248 c -0.47041,0.04006 -0.94523,0.19654 -1.3822,0.44997 -1.5567,0.89176 -2.0925,2.8616 -1.1976,4.412 0.89809,1.5585 2.8983,2.0809 4.4535,1.1861 1.5555,-0.89648 2.0679,-2.8745 1.1699,-4.4281 -0.56128,-0.97198 -1.5388,-1.5466 -2.5798,-1.6199 -0.15632,-0.01285 -0.30717,-0.01285 -0.4638,0 z" fill="#ffffff" fill-opacity="0.85" stroke-width="1.0321" id="path3"/></g>
</svg>
