<?xml version="1.0" encoding="UTF-8" standalone="no"?>
<svg xmlns:inkscape="http://www.inkscape.org/namespaces/inkscape" xmlns:sodipodi="http://sodipodi.sourceforge.net/DTD/sodipodi-0.dtd" xmlns:xlink="http://www.w3.org/1999/xlink" xmlns="http://www.w3.org/2000/svg" xmlns:svg="http://www.w3.org/2000/svg" xmlns:rdf="http://www.w3.org/1999/02/22-rdf-syntax-ns#" xmlns:cc="http://creativecommons.org/ns#" xmlns:dc="http://purl.org/dc/elements/1.1/" width="64" height="64" version="1.1" viewBox="0 0 64 64" id="svg17" sodipodi:docname="distributor-logo-kali.svg" inkscape:version="1.4.2 (ebf0e940d0, 2025-05-08)">
  <metadata id="metadata21">
    <rdf:RDF>
      <cc:Work rdf:about="">
        <dc:format>image/svg+xml</dc:format>
        <dc:type rdf:resource="http://purl.org/dc/dcmitype/StillImage"/>
      </cc:Work>
    </rdf:RDF>
  </metadata>
  <defs id="defs7">
    <linearGradient id="a" x1="45.627998" x2="45.627998" y1="57.955002" y2="12.461" gradientTransform="matrix(0.26458,0,0,0.26458,0,280.07)" gradientUnits="userSpaceOnUse">
      <stop offset="0" id="stop2"/>
      <stop stop-opacity="0" offset="1" id="stop4"/>
    </linearGradient>
    <linearGradient gradientUnits="userSpaceOnUse" gradientTransform="matrix(0.53033,0,0,0.53033,9.7971589,65.996156)" y2="-100.78" y1="-137.82001" x2="-6.1472001" x1="-6.1472001" id="a-3">
      <stop id="stop848" offset="0" stop-color="#32b4ff"/>
      <stop id="stop850" offset="1" stop-color="#3287ff"/>
    </linearGradient>
    
    <filter color-interpolation-filters="sRGB" height="1.048" width="1.048" y="-0.024" x="-0.024" id="filter2761">
      <feGaussianBlur id="feGaussianBlur6" stdDeviation="0.14552168"/>
    </filter>
    <linearGradient gradientUnits="userSpaceOnUse" gradientTransform="matrix(3.7796,0,0,3.7796,110.07575,0.53066)" y2="1.1082" y1="15.429" x2="15.644" x1="1.2573" id="linearGradient4673">
      <stop id="stop9" offset="0" stop-color="#32dcff"/>
      <stop id="stop11" offset="1" stop-color="#3296ff"/>
    </linearGradient>
    <linearGradient gradientUnits="userSpaceOnUse" gradientTransform="matrix(1.0000066,0,0,1.0000066,19.187825,0)" y2="1.0583" y1="6.8790002" x2="7.9373002" x1="7.9373002" id="linearGradient865">
      <stop id="stop2-36" offset="0" stop-color="#fff"/>
      <stop id="stop4-7" offset="1" stop-color="#fcc"/>
    </linearGradient>
    <linearGradient gradientTransform="translate(19.187825)" gradientUnits="userSpaceOnUse" y2="3.9326999" y1="14.579" x2="12.314" x1="2.6278" id="linearGradient855">
      <stop id="stop7" offset="0" stop-color="#d462aa"/>
      <stop id="stop9-3" offset=".15178" stop-color="#56c7d9"/>
      <stop id="stop11-6" offset=".33294" stop-color="#2da8b8"/>
      <stop id="stop13" offset=".53353" stop-color="#72cb6b"/>
      <stop id="stop15" offset=".71019" stop-color="#c4dc2b"/>
      <stop id="stop17" offset=".8623" stop-color="#f9da3e"/>
      <stop id="stop19" offset="1" stop-color="#f69429"/>
    </linearGradient>
    <linearGradient gradientUnits="userSpaceOnUse" gradientTransform="matrix(0.26458,0,0,0.26458,19.187825,0)" y2="6.9914999" y1="19" x2="57.007999" x1="45" id="linearGradient910">
      <stop id="stop22" offset="0" stop-color="#fff"/>
      <stop id="stop24" offset="1" stop-color="#ffe3cc"/>
    </linearGradient>
    
    <filter id="filter2761-7" x="-0.024" y="-0.024" width="1.048" height="1.048" color-interpolation-filters="sRGB">
      <feGaussianBlur stdDeviation="0.14552168" id="feGaussianBlur874"/>
    </filter>
    
    
    
    <filter color-interpolation-filters="sRGB" height="1.048" width="1.048" y="-0.024" x="-0.024" id="filter2761-36">
      <feGaussianBlur id="feGaussianBlur10" stdDeviation="0.14552168"/>
    </filter>
    <linearGradient gradientUnits="userSpaceOnUse" gradientTransform="matrix(3.7796,0,0,3.7796,111.78704,0.53107)" y2="1.17" y1="15.576" x2="15.65" x1="1.3315001" id="linearGradient1024-6">
      <stop id="stop13-7" offset="0" stop-color="#00dc96"/>
      <stop id="stop15-5" offset="1" stop-color="#14d29b"/>
    </linearGradient>
    <linearGradient gradientUnits="userSpaceOnUse" gradientTransform="matrix(0.27476,0,0,0.27476,-24.952118,-0.32515)" y2="12.461" y1="57.955002" x2="45.627998" x1="45.627998" id="b">
      <stop id="stop2-3" offset="0"/>
      <stop id="stop4-5" offset="1" stop-opacity="0"/>
    </linearGradient>
    
    
    
    <filter id="filter2761-3" x="-0.024" y="-0.024" width="1.048" height="1.048" color-interpolation-filters="sRGB">
      <feGaussianBlur stdDeviation="0.14552168" id="feGaussianBlur878"/>
    </filter>
    <linearGradient id="linearGradient1024-6-6" x1="1.3315001" x2="15.65" y1="15.576" y2="1.17" gradientTransform="matrix(3.7796,0,0,3.7796,-0.0020773,0.53047)" gradientUnits="userSpaceOnUse">
      <stop stop-color="#00dc96" offset="0" id="stop881"/>
      <stop stop-color="#14d29b" offset="1" id="stop883"/>
    </linearGradient>
    <linearGradient inkscape:collect="always" xlink:href="#linearGradient1051" id="linearGradient1053" x1="-127" y1="60" x2="-72" y2="5" gradientUnits="userSpaceOnUse" gradientTransform="translate(131.5,-0.50999825)"/>
    <linearGradient inkscape:collect="always" id="linearGradient1051">
      <stop style="stop-color:#32d7ff;stop-opacity:1" offset="0" id="stop1047"/>
      <stop style="stop-color:#329bff;stop-opacity:1" offset="1" id="stop1049"/>
    </linearGradient>
    <filter inkscape:collect="always" style="color-interpolation-filters:sRGB" id="filter1057" x="-0.026999999" width="1.054" y="-0.026999999" height="1.054">
      <feGaussianBlur inkscape:collect="always" stdDeviation="0.61875" id="feGaussianBlur1059"/>
    </filter>
  <radialGradient id="gradient_ds_br" cx="0" cy="0" r="1" gradientUnits="userSpaceOnUse" gradientTransform="matrix(13.998399,0.00477622,-0.00477841,14.004799,47.5016,48.4952)">
      <stop offset="0.65" id="stop1"/>
      <stop offset="1" stop-opacity="0" id="stop2"/>
    </radialGradient><linearGradient id="gradient_ds_b" x1="30.448999" y1="48.5" x2="30.492201" y2="62.500301" gradientUnits="userSpaceOnUse">
      <stop offset="0.653846" id="stop3"/>
      <stop offset="1" stop-opacity="0" id="stop4"/>
    </linearGradient><radialGradient id="gradient_ds_bl" cx="0" cy="0" r="1" gradientUnits="userSpaceOnUse" gradientTransform="matrix(0,14,-14,0,16.5,48.5)">
      <stop offset="0.65" id="stop5"/>
      <stop offset="1" stop-opacity="0" id="stop6"/>
    </radialGradient><linearGradient id="gradient_ds_r" x1="47.5" y1="33.5" x2="61.5" y2="33.5009" gradientUnits="userSpaceOnUse">
      <stop offset="0.649038" id="stop7"/>
      <stop offset="1" stop-opacity="0" id="stop8"/>
    </linearGradient><linearGradient id="gradient_ds_l" x1="16.5" y1="33.894699" x2="2.5" y2="33.894699" gradientUnits="userSpaceOnUse">
      <stop offset="0.649038" id="stop9"/>
      <stop offset="1" stop-opacity="0" id="stop10"/>
    </linearGradient><radialGradient id="gradient_ds_tr" cx="0" cy="0" r="1" gradientTransform="matrix(0.00843236,-14,14.0084,0.0189842,47.4916,18.5)" gradientUnits="userSpaceOnUse">
      <stop offset="0.65" id="stop11"/>
      <stop offset="1" stop-opacity="0" id="stop12"/>
    </radialGradient><linearGradient id="gradient_ds_t" x1="29.98" y1="18.5" x2="29.9158" y2="4.4998598" gradientUnits="userSpaceOnUse">
      <stop offset="0.649038" id="stop13"/>
      <stop offset="1" stop-opacity="0" id="stop14"/>
    </linearGradient><radialGradient id="gradient_ds_tl" cx="0" cy="0" r="1" gradientTransform="matrix(-0.00843236,-14,-14.0084,0.0189842,16.5084,18.5)" gradientUnits="userSpaceOnUse">
      <stop offset="0.65" id="stop15"/>
      <stop offset="1" stop-opacity="0" id="stop16"/>
    </radialGradient></defs>
  
  <g id="ds" opacity="0.25">
    <path id="ds-br" d="m 47.5,48.5 h 14 v 14 h -14 z" fill="url(#gradient_ds_br)" style="fill:url(#gradient_ds_br)"/>
    <path id="ds-b" d="m 16.5,48.5 h 31 v 14 h -31 z" fill="url(#gradient_ds_b)" style="fill:url(#gradient_ds_b)"/>
    <path id="ds-bl" d="m 2.5,48.5 h 14 v 14 h -14 z" fill="url(#gradient_ds_bl)" style="fill:url(#gradient_ds_bl)"/>
    <path id="ds-r" d="m 47.5,18.5 h 14 v 30 h -14 z" fill="url(#gradient_ds_r)" style="fill:url(#gradient_ds_r)"/>
    <path id="ds-l" d="m 2.5,18.5 h 14 v 30 h -14 z" fill="url(#gradient_ds_l)" style="fill:url(#gradient_ds_l)"/>
    <path id="ds-tr" d="m 47.5,4.5 h 14 v 14 h -14 z" fill="url(#gradient_ds_tr)" style="fill:url(#gradient_ds_tr)"/>
    <path id="ds-t" d="m 16.5,4.5 h 31 v 14 h -31 z" fill="url(#gradient_ds_t)" style="fill:url(#gradient_ds_t)"/>
    <path id="ds-tl" d="m 16.5,4.5 h -14 v 14 h 14 z" fill="url(#gradient_ds_tl)" style="fill:url(#gradient_ds_tl)"/>
  </g><rect y="4.5" x="4.5" height="55" width="55" id="bg" style="fill:url(#linearGradient1053);fill-opacity:1;stroke-width:2.74436;stroke-linecap:round" rx="10"/>
  <g id="art"><path id="path900" fill="#ffffff" d="m 29.548928,14.23776 c 0.846631,2.263982 1.852005,4.841671 3.352507,6.803284 -1.651686,-0.816394 -3.488572,-1.360657 -4.924821,-2.524774 0.177641,0.453552 0.113388,0.941121 0.09827,1.322861 a 20.096144,20.096144 0 0 1 -3.598181,-1.42491 c 0.302368,0.56694 0.351503,1.171676 0.27591,1.70082 -1.23215,0.113389 -2.566349,-0.272131 -3.704009,-0.476229 0.521585,0.47245 0.767259,1.096084 0.978916,1.723498 -1.217031,0.211658 -2.471859,0.434654 -3.70401,0.551822 0.521586,0.351503 0.907105,0.861749 1.205694,1.349318 -0.95624,0.801276 -2.165712,1.52318 -3.152189,2.127916 a 2.4113861,2.4113861 0 0 1 1.749956,0.47245 35.694561,35.694561 0 0 1 -2.127916,3.32605 c 0.619855,-0.147405 1.179236,-0.275911 1.852005,-0.275911 -0.234335,1.33042 -0.400638,2.721314 -0.899545,3.976141 0.555601,-0.404417 1.156558,-0.608515 1.776413,-0.823953 0.593397,1.009154 0.653871,2.65706 0.873088,3.545267 a 1.8822418,1.8822418 0 0 1 0.975137,-1.096085 c 6.727692,6.606745 17.801926,5.450187 18.773283,15.246915 0.302369,-3.817398 -1.504281,-6.516034 -3.598181,-8.371818 -1.738617,-1.542078 -9.656883,-5.208292 -10.027284,-5.450187 -6.807063,-4.512844 -5.88862,-10.609343 -1.096084,-12.15142 a 10.306975,10.306975 0 0 1 11.3955,3.575503 c 0.66521,0.842851 1.61389,2.384929 2.502096,3.050139 1.681923,1.262387 7.69527,4.191579 5.325459,7.672592 2.059883,-0.529144 3.632198,-2.003188 4.150003,-4.070631 -1.61389,-0.691667 -4.044174,-2.154374 -3.851414,-4.202918 0.234335,-0.09827 0.491348,-0.07559 0.752141,-0.07559 -5.427509,-9.449005 -6.875096,-6.160752 -12.325282,-14.948326 0.680328,2.434063 2.161932,5.435067 3.945904,7.101871 -2.959428,-1.776412 -4.879466,-4.962617 -6.973366,-7.653695 z m 11.149826,11.924645 c 0.616075,0.857969 1.133881,1.814209 1.874683,2.551231 -0.718124,-0.249454 -3.571724,-2.127916 -1.874683,-2.551231 z" style="stroke-width:3.7796"/></g>
</svg>
