<?xml version="1.0" encoding="UTF-8" standalone="no"?>
<svg xmlns:inkscape="http://www.inkscape.org/namespaces/inkscape" xmlns:sodipodi="http://sodipodi.sourceforge.net/DTD/sodipodi-0.dtd" xmlns="http://www.w3.org/2000/svg" xmlns:svg="http://www.w3.org/2000/svg" xmlns:rdf="http://www.w3.org/1999/02/22-rdf-syntax-ns#" xmlns:cc="http://creativecommons.org/ns#" xmlns:dc="http://purl.org/dc/elements/1.1/" width="64" height="64" viewBox="0 0 64 64" version="1.1" id="svg1522" inkscape:version="1.4.2 (ebf0e940d0, 2025-05-08)" sodipodi:docname="dockstation (Copy).svg">
  <sodipodi:namedview id="namedview1" pagecolor="#ffffff" bordercolor="#000000" borderopacity="0.25" inkscape:showpageshadow="2" inkscape:pageopacity="0.0" inkscape:pagecheckerboard="0" inkscape:deskcolor="#d1d1d1" inkscape:current-layer="svg1522"/>
  <defs id="defs1516">
    <linearGradient id="870dc2b8" x2="0" y1="1" y2="47" gradientUnits="userSpaceOnUse" gradientTransform="matrix(0.26458333,0,0,0.26458333,22.316265,-21.516203)">
      <stop style="stop-color:#76797f" offset="0" id="stop324"/>
      <stop style="stop-color:#6c6f75" offset="1" id="stop326"/>
    </linearGradient>
    <filter id="filter1057" x="-0.026999999" y="-0.026999999" width="1.054" height="1.054" color-interpolation-filters="sRGB">
      <feGaussianBlur stdDeviation="0.61875" id="feGaussianBlur594"/>
    </filter>
    <linearGradient id="linearGradient1053" x1="-127" x2="-72" y1="60" y2="5" gradientTransform="matrix(1.0000071,0,0,1.0000071,131.50059,-0.51047426)" gradientUnits="userSpaceOnUse">
      <stop stop-color="#32d7ff" offset="0" id="stop597"/>
      <stop stop-color="#329bff" offset="1" id="stop599"/>
    </linearGradient>
    <filter id="filter1057-7" x="-0.026999999" y="-0.026999999" width="1.054" height="1.054" color-interpolation-filters="sRGB">
      <feGaussianBlur stdDeviation="0.61875" id="feGaussianBlur594-5"/>
    </filter>
    <linearGradient id="linearGradient1053-7" x1="-127" x2="-72" y1="60" y2="5" gradientTransform="matrix(1.0000071,0,0,1.0000071,131.49969,-0.51020932)" gradientUnits="userSpaceOnUse">
      <stop stop-color="#1964ff" offset="0" id="stop1436" style="stop-color:#a85eff;stop-opacity:1"/>
      <stop stop-color="#198cff" offset="1" id="stop1438"/>
    </linearGradient>
  <radialGradient id="gradient_ds_br" cx="0" cy="0" r="1" gradientUnits="userSpaceOnUse" gradientTransform="matrix(13.998399,0.00477622,-0.00477841,14.004799,47.5016,48.4952)">
      <stop offset="0.65" id="stop1"/>
      <stop offset="1" stop-opacity="0" id="stop2"/>
    </radialGradient><linearGradient id="gradient_ds_b" x1="30.448999" y1="48.5" x2="30.492201" y2="62.500301" gradientUnits="userSpaceOnUse">
      <stop offset="0.653846" id="stop3"/>
      <stop offset="1" stop-opacity="0" id="stop4"/>
    </linearGradient><radialGradient id="gradient_ds_bl" cx="0" cy="0" r="1" gradientUnits="userSpaceOnUse" gradientTransform="matrix(0,14,-14,0,16.5,48.5)">
      <stop offset="0.65" id="stop5"/>
      <stop offset="1" stop-opacity="0" id="stop6"/>
    </radialGradient><linearGradient id="gradient_ds_r" x1="47.5" y1="33.5" x2="61.5" y2="33.5009" gradientUnits="userSpaceOnUse">
      <stop offset="0.649038" id="stop7"/>
      <stop offset="1" stop-opacity="0" id="stop8"/>
    </linearGradient><linearGradient id="gradient_ds_l" x1="16.5" y1="33.894699" x2="2.5" y2="33.894699" gradientUnits="userSpaceOnUse">
      <stop offset="0.649038" id="stop9"/>
      <stop offset="1" stop-opacity="0" id="stop10"/>
    </linearGradient><radialGradient id="gradient_ds_tr" cx="0" cy="0" r="1" gradientTransform="matrix(0.00843236,-14,14.0084,0.0189842,47.4916,18.5)" gradientUnits="userSpaceOnUse">
      <stop offset="0.65" id="stop11"/>
      <stop offset="1" stop-opacity="0" id="stop12"/>
    </radialGradient><linearGradient id="gradient_ds_t" x1="29.98" y1="18.5" x2="29.9158" y2="4.4998598" gradientUnits="userSpaceOnUse">
      <stop offset="0.649038" id="stop13"/>
      <stop offset="1" stop-opacity="0" id="stop14"/>
    </linearGradient><radialGradient id="gradient_ds_tl" cx="0" cy="0" r="1" gradientTransform="matrix(-0.00843236,-14,-14.0084,0.0189842,16.5084,18.5)" gradientUnits="userSpaceOnUse">
      <stop offset="0.65" id="stop15"/>
      <stop offset="1" stop-opacity="0" id="stop16"/>
    </radialGradient></defs>
  <metadata id="metadata1519">
    <rdf:RDF>
      <cc:Work rdf:about="">
        <dc:format>image/svg+xml</dc:format>
        <dc:type rdf:resource="http://purl.org/dc/dcmitype/StillImage"/>
      </cc:Work>
    </rdf:RDF>
  </metadata>
  
  <g id="ds" opacity="0.25">
    <path id="ds-br" d="m 47.5,48.5 h 14 v 14 h -14 z" fill="url(#gradient_ds_br)" style="fill:url(#gradient_ds_br)"/>
    <path id="ds-b" d="m 16.5,48.5 h 31 v 14 h -31 z" fill="url(#gradient_ds_b)" style="fill:url(#gradient_ds_b)"/>
    <path id="ds-bl" d="m 2.5,48.5 h 14 v 14 h -14 z" fill="url(#gradient_ds_bl)" style="fill:url(#gradient_ds_bl)"/>
    <path id="ds-r" d="m 47.5,18.5 h 14 v 30 h -14 z" fill="url(#gradient_ds_r)" style="fill:url(#gradient_ds_r)"/>
    <path id="ds-l" d="m 2.5,18.5 h 14 v 30 h -14 z" fill="url(#gradient_ds_l)" style="fill:url(#gradient_ds_l)"/>
    <path id="ds-tr" d="m 47.5,4.5 h 14 v 14 h -14 z" fill="url(#gradient_ds_tr)" style="fill:url(#gradient_ds_tr)"/>
    <path id="ds-t" d="m 16.5,4.5 h 31 v 14 h -31 z" fill="url(#gradient_ds_t)" style="fill:url(#gradient_ds_t)"/>
    <path id="ds-tl" d="m 16.5,4.5 h -14 v 14 h 14 z" fill="url(#gradient_ds_tl)" style="fill:url(#gradient_ds_tl)"/>
  </g><rect x="4.5" y="4.5" width="55" height="55" fill="url(#linearGradient1053)" stroke-linecap="round" stroke-width="2.74444" id="bg" style="font-variation-settings:normal;opacity:1;vector-effect:none;fill:url(#linearGradient1053-7);fill-opacity:1;stroke-width:2.74437;stroke-linecap:round;stroke-linejoin:miter;stroke-miterlimit:4;stroke-dasharray:none;stroke-dashoffset:0;stroke-opacity:1;-inkscape-stroke:none;stop-color:#000000;stop-opacity:1" rx="10"/>
  <g id="art">
    <path id="path1467" d="M 15.662109 53.554688 C 14.554401 53.554688 13.637709 54.879679 13.662109 56.525391 L 13.679688 59.466797 C 13.95025 59.488574 14.223643 59.5 14.5 59.5 L 19.5 59.5 L 44.5 59.5 L 49.5 59.5 C 50.246252 59.5 50.973077 59.419215 51.671875 59.265625 L 51.662109 56.525391 C 51.629989 54.879779 50.769847 53.554688 49.662109 53.554688 L 15.662109 53.554688 z " style="fill:#ffffff;fill-opacity:1;opacity:0.3"/>
    <g transform="matrix(3.779602,0,0,3.779602,-76.355747,26.870475)" fill="#d2dcff" stroke-width="0.082447" id="g1477">
      <path d="m 25.659,6.4453 c 0.36318,0 0.41508,0.055471 0.41508,0.44423 v 0.31133 c 0,0.38876 -0.0519,0.44423 -0.41508,0.44423 h -0.36963 c -0.36318,0 -0.41509,-0.055471 -0.41509,-0.44423 V 6.88953 c 0,-0.38876 0.0519,-0.44423 0.41509,-0.44423 z" enable-background="new" id="path1469"/>
      <path d="m 27.905,6.4453 c 0.36318,0 0.41508,0.055471 0.41508,0.44423 v 0.31133 c 0,0.38876 -0.0519,0.44423 -0.41508,0.44423 h -0.36963 c -0.36318,0 -0.41509,-0.055471 -0.41509,-0.44423 V 6.88953 c 0,-0.38876 0.0519,-0.44423 0.41509,-0.44423 z" enable-background="new" id="path1471"/>
      <path d="m 30.152,6.4453 c 0.36318,0 0.41508,0.055471 0.41508,0.44423 v 0.31133 c 0,0.38876 -0.0519,0.44423 -0.41508,0.44423 h -0.36963 c -0.36318,0 -0.41509,-0.055471 -0.41509,-0.44423 V 6.88953 c 0,-0.38876 0.0519,-0.44423 0.41509,-0.44423 z" enable-background="new" id="path1473"/>
      <path d="m 32.398,6.4453 c 0.36318,0 0.41508,0.055471 0.41508,0.44423 v 0.31133 c 0,0.38876 -0.0519,0.44423 -0.41508,0.44423 h -0.36963 c -0.36318,0 -0.41509,-0.055471 -0.41509,-0.44423 V 6.88953 c 0,-0.38876 0.0519,-0.44423 0.41509,-0.44423 z" enable-background="new" id="path1475"/>
    </g>
  </g>
</svg>
