<?xml version="1.0" encoding="UTF-8" standalone="no"?>
<svg xmlns:inkscape="http://www.inkscape.org/namespaces/inkscape" xmlns:sodipodi="http://sodipodi.sourceforge.net/DTD/sodipodi-0.dtd" xmlns:xlink="http://www.w3.org/1999/xlink" xmlns="http://www.w3.org/2000/svg" xmlns:svg="http://www.w3.org/2000/svg" width="64" height="64" viewBox="0 0 64 64" version="1.1" id="svg2" sodipodi:docname="easystroke.svg" inkscape:version="1.4.2 (ebf0e940d0, 2025-05-08)">
  <defs id="defs2">
    <linearGradient inkscape:collect="always" xlink:href="#linearGradient1051" id="linearGradient1053" x1="-127" y1="60" x2="-72" y2="5" gradientUnits="userSpaceOnUse" gradientTransform="translate(131.5,-0.50999799)"/>
    <linearGradient inkscape:collect="always" id="linearGradient1051">
      <stop style="stop-color:#2e55e7;stop-opacity:1" offset="0" id="stop1047"/>
      <stop style="stop-color:#0d7eef;stop-opacity:1" offset="1" id="stop1049"/>
    </linearGradient>
    <filter inkscape:collect="always" style="color-interpolation-filters:sRGB" id="filter1057" x="-0.026999999" width="1.054" y="-0.026999999" height="1.054">
      <feGaussianBlur inkscape:collect="always" stdDeviation="0.61875" id="feGaussianBlur1059"/>
    </filter>
  <radialGradient id="gradient_ds_br" cx="0" cy="0" r="1" gradientUnits="userSpaceOnUse" gradientTransform="matrix(13.998399,0.00477622,-0.00477841,14.004799,47.5016,48.4952)">
      <stop offset="0.65" id="stop1"/>
      <stop offset="1" stop-opacity="0" id="stop2"/>
    </radialGradient><linearGradient id="gradient_ds_b" x1="30.448999" y1="48.5" x2="30.492201" y2="62.500301" gradientUnits="userSpaceOnUse">
      <stop offset="0.653846" id="stop3"/>
      <stop offset="1" stop-opacity="0" id="stop4"/>
    </linearGradient><radialGradient id="gradient_ds_bl" cx="0" cy="0" r="1" gradientUnits="userSpaceOnUse" gradientTransform="matrix(0,14,-14,0,16.5,48.5)">
      <stop offset="0.65" id="stop5"/>
      <stop offset="1" stop-opacity="0" id="stop6"/>
    </radialGradient><linearGradient id="gradient_ds_r" x1="47.5" y1="33.5" x2="61.5" y2="33.5009" gradientUnits="userSpaceOnUse">
      <stop offset="0.649038" id="stop7"/>
      <stop offset="1" stop-opacity="0" id="stop8"/>
    </linearGradient><linearGradient id="gradient_ds_l" x1="16.5" y1="33.894699" x2="2.5" y2="33.894699" gradientUnits="userSpaceOnUse">
      <stop offset="0.649038" id="stop9"/>
      <stop offset="1" stop-opacity="0" id="stop10"/>
    </linearGradient><radialGradient id="gradient_ds_tr" cx="0" cy="0" r="1" gradientTransform="matrix(0.00843236,-14,14.0084,0.0189842,47.4916,18.5)" gradientUnits="userSpaceOnUse">
      <stop offset="0.65" id="stop11"/>
      <stop offset="1" stop-opacity="0" id="stop12"/>
    </radialGradient><linearGradient id="gradient_ds_t" x1="29.98" y1="18.5" x2="29.9158" y2="4.4998598" gradientUnits="userSpaceOnUse">
      <stop offset="0.649038" id="stop13"/>
      <stop offset="1" stop-opacity="0" id="stop14"/>
    </linearGradient><radialGradient id="gradient_ds_tl" cx="0" cy="0" r="1" gradientTransform="matrix(-0.00843236,-14,-14.0084,0.0189842,16.5084,18.5)" gradientUnits="userSpaceOnUse">
      <stop offset="0.65" id="stop15"/>
      <stop offset="1" stop-opacity="0" id="stop16"/>
    </radialGradient></defs>
  
  <g id="ds" opacity="0.25">
    <path id="ds-br" d="m 47.5,48.5 h 14 v 14 h -14 z" fill="url(#gradient_ds_br)" style="fill:url(#gradient_ds_br)"/>
    <path id="ds-b" d="m 16.5,48.5 h 31 v 14 h -31 z" fill="url(#gradient_ds_b)" style="fill:url(#gradient_ds_b)"/>
    <path id="ds-bl" d="m 2.5,48.5 h 14 v 14 h -14 z" fill="url(#gradient_ds_bl)" style="fill:url(#gradient_ds_bl)"/>
    <path id="ds-r" d="m 47.5,18.5 h 14 v 30 h -14 z" fill="url(#gradient_ds_r)" style="fill:url(#gradient_ds_r)"/>
    <path id="ds-l" d="m 2.5,18.5 h 14 v 30 h -14 z" fill="url(#gradient_ds_l)" style="fill:url(#gradient_ds_l)"/>
    <path id="ds-tr" d="m 47.5,4.5 h 14 v 14 h -14 z" fill="url(#gradient_ds_tr)" style="fill:url(#gradient_ds_tr)"/>
    <path id="ds-t" d="m 16.5,4.5 h 31 v 14 h -31 z" fill="url(#gradient_ds_t)" style="fill:url(#gradient_ds_t)"/>
    <path id="ds-tl" d="m 16.5,4.5 h -14 v 14 h 14 z" fill="url(#gradient_ds_tl)" style="fill:url(#gradient_ds_tl)"/>
  </g><rect style="fill:url(#linearGradient1053);fill-opacity:1;stroke-width:2.74436;stroke-linecap:round" id="bg" width="55" height="55" x="4.5" y="4.5" rx="10"/>
  <g id="art"><path fill="#ffffff" d="m 31.998111,15.163763 c -2.872498,0 -5.404831,1.560976 -7.067856,3.862753 -1.511841,2.086341 -2.241304,4.837891 -2.154373,7.748185 -2.634383,1.375775 -4.716944,3.363845 -5.824367,5.688301 -1.220811,2.55879 -1.349318,5.50688 0.102049,7.956062 1.455147,2.445402 4.112207,3.790941 6.973366,4.036615 2.615484,0.226776 5.423729,-0.529145 7.97496,-2.067443 2.543672,1.534519 5.351917,2.297998 7.967401,2.067443 2.861159,-0.245674 5.518219,-1.587433 6.977145,-4.036615 1.451368,-2.449182 1.322861,-5.397272 0.10205,-7.956062 -1.111203,-2.328235 -3.193764,-4.316306 -5.828147,-5.692081 0.07181,-2.819583 -0.653871,-5.544676 -2.150593,-7.649914 -1.651686,-2.324456 -4.172681,-3.957244 -7.067856,-3.957244 z m 0,2.668399 c 1.901139,0 3.632197,1.058289 4.898364,2.834702 0.960019,1.353097 1.443808,3.125731 1.594992,4.973956 a 20.70466,20.70466 0 0 0 -12.990492,0.0038 c 0.136065,-1.920038 0.623634,-3.722908 1.587433,-5.057108 1.258607,-1.738617 2.989665,-2.759109 4.913482,-2.759109 z m 0,9.320499 c 2.192169,0 4.36166,0.47245 6.432882,1.258607 -0.680328,4.429694 -2.929191,8.099687 -6.425323,10.783205 a 16.970413,16.970413 0 0 1 -6.432883,-10.783205 18.153428,18.153428 0 0 1 6.425324,-1.258607 z m -8.863167,2.543672 a 19.578338,19.578338 0 0 0 6.45178,10.91549 c -1.787751,0.842852 -3.647315,1.3342 -5.329238,1.190575 -2.19217,-0.19276 -3.961023,-1.152778 -4.909703,-2.747771 -0.944901,-1.591212 -0.907105,-3.515029 0.0076,-5.442626 0.714345,-1.492943 2.101459,-2.827143 3.779602,-3.915668 z m 17.733892,0.0038 c 1.678144,1.088525 3.061478,2.418945 3.775823,3.911888 0.918443,1.927597 0.95246,3.851414 0.0076,5.442626 -0.9449,1.594993 -2.713754,2.555011 -4.913483,2.747771 -1.674363,0.143625 -3.530148,-0.347723 -5.31412,-1.186795 a 19.200378,19.200378 0 0 0 6.444221,-10.91549 z" id="path2" style="stroke-width:3.7796"/></g>
</svg>
