<?xml version="1.0" encoding="UTF-8" standalone="no"?>
<svg xmlns:inkscape="http://www.inkscape.org/namespaces/inkscape" xmlns:sodipodi="http://sodipodi.sourceforge.net/DTD/sodipodi-0.dtd" xmlns="http://www.w3.org/2000/svg" xmlns:svg="http://www.w3.org/2000/svg" xmlns:rdf="http://www.w3.org/1999/02/22-rdf-syntax-ns#" xmlns:cc="http://creativecommons.org/ns#" xmlns:dc="http://purl.org/dc/elements/1.1/" width="64" height="64" version="1.1" viewBox="0 0 64 64" id="svg16" sodipodi:docname="evolution-tasks.svg" inkscape:version="1.4.2 (ebf0e940d0, 2025-05-08)">
  <sodipodi:namedview id="namedview1" pagecolor="#ffffff" bordercolor="#000000" borderopacity="0.25" inkscape:showpageshadow="2" inkscape:pageopacity="0.0" inkscape:pagecheckerboard="0" inkscape:deskcolor="#d1d1d1" showgrid="false" inkscape:current-layer="art">
    <inkscape:grid id="grid1" units="px" originx="0" originy="0" spacingx="0.5" spacingy="0.5" empcolor="#0099e5" empopacity="0.30196078" color="#0099e5" opacity="0.14901961" empspacing="2" enabled="true" visible="false"/>
  </sodipodi:namedview>
  <defs id="defs7">
    <filter id="filter2076-3-5" x="-0.048" y="-0.048" width="1.096" height="1.096" color-interpolation-filters="sRGB">
      <feGaussianBlur stdDeviation="1.1" id="feGaussianBlur1"/>
    </filter>
    <linearGradient id="linearGradient2070-2" x1="145" x2="200" y1="59" y2="4" gradientTransform="matrix(1.0000071,0,0,1.0000071,-140.50444,0.49890746)" gradientUnits="userSpaceOnUse">
      <stop stop-color="#ffc841" offset="0" id="stop1"/>
      <stop stop-color="#ffbe37" offset=".4925" id="stop2"/>
      <stop stop-color="#ffc841" offset="1" id="stop3"/>
    </linearGradient>
    <filter id="filter1091-0" x="-0.092043996" y="-0.092043996" width="1.184088" height="1.184088" color-interpolation-filters="sRGB">
      <feGaussianBlur stdDeviation="0.30215974" id="feGaussianBlur3"/>
    </filter>
    <linearGradient id="linearGradient2228" x1="8.5858002" x2="16.465" y1="-5.5948" y2="-13.703" gradientTransform="matrix(3.779602,0,0,3.779602,-15.309278,67.212662)" gradientUnits="userSpaceOnUse">
      <stop stop-color="#f5f5f5" offset="0" id="stop4"/>
      <stop stop-color="#fff" offset="1" id="stop5"/>
    </linearGradient>
    <linearGradient id="linearGradient2230" x1="8.9222002" x2="15.926" y1="-5.3551998" y2="-11.992" gradientTransform="matrix(3.779602,0,0,3.779602,-15.309278,67.212662)" gradientUnits="userSpaceOnUse">
      <stop stop-color="#ffdc96" offset="0" id="stop6"/>
      <stop stop-color="#fff" offset="1" id="stop7"/>
    </linearGradient>
    <filter id="filter1091-0-3" x="-0.092043995" y="-0.092043995" width="1.184088" height="1.184088" color-interpolation-filters="sRGB">
      <feGaussianBlur stdDeviation="0.30215974" id="feGaussianBlur3-5"/>
    </filter>
    <filter id="filter1" x="-0.092043996" y="-0.092043996" width="1.184088" height="1.184088" color-interpolation-filters="sRGB">
      <feGaussianBlur stdDeviation="0.30215974" id="feGaussianBlur1-6"/>
    </filter>
    <filter id="filter2076-3-5-2" x="-0.048000001" y="-0.048000001" width="1.096" height="1.096" color-interpolation-filters="sRGB">
      <feGaussianBlur stdDeviation="1.1" id="feGaussianBlur2"/>
    </filter>
  <radialGradient id="gradient_ds_br" cx="0" cy="0" r="1" gradientUnits="userSpaceOnUse" gradientTransform="matrix(13.998399,0.00477622,-0.00477841,14.004799,47.5016,48.4952)">
      <stop offset="0.65" id="stop1"/>
      <stop offset="1" stop-opacity="0" id="stop2"/>
    </radialGradient><linearGradient id="gradient_ds_b" x1="30.448999" y1="48.5" x2="30.492201" y2="62.500301" gradientUnits="userSpaceOnUse">
      <stop offset="0.653846" id="stop3"/>
      <stop offset="1" stop-opacity="0" id="stop4"/>
    </linearGradient><radialGradient id="gradient_ds_bl" cx="0" cy="0" r="1" gradientUnits="userSpaceOnUse" gradientTransform="matrix(0,14,-14,0,16.5,48.5)">
      <stop offset="0.65" id="stop5"/>
      <stop offset="1" stop-opacity="0" id="stop6"/>
    </radialGradient><linearGradient id="gradient_ds_r" x1="47.5" y1="33.5" x2="61.5" y2="33.5009" gradientUnits="userSpaceOnUse">
      <stop offset="0.649038" id="stop7"/>
      <stop offset="1" stop-opacity="0" id="stop8"/>
    </linearGradient><linearGradient id="gradient_ds_l" x1="16.5" y1="33.894699" x2="2.5" y2="33.894699" gradientUnits="userSpaceOnUse">
      <stop offset="0.649038" id="stop9"/>
      <stop offset="1" stop-opacity="0" id="stop10"/>
    </linearGradient><radialGradient id="gradient_ds_tr" cx="0" cy="0" r="1" gradientTransform="matrix(0.00843236,-14,14.0084,0.0189842,47.4916,18.5)" gradientUnits="userSpaceOnUse">
      <stop offset="0.65" id="stop11"/>
      <stop offset="1" stop-opacity="0" id="stop12"/>
    </radialGradient><linearGradient id="gradient_ds_t" x1="29.98" y1="18.5" x2="29.9158" y2="4.4998598" gradientUnits="userSpaceOnUse">
      <stop offset="0.649038" id="stop13"/>
      <stop offset="1" stop-opacity="0" id="stop14"/>
    </linearGradient><radialGradient id="gradient_ds_tl" cx="0" cy="0" r="1" gradientTransform="matrix(-0.00843236,-14,-14.0084,0.0189842,16.5084,18.5)" gradientUnits="userSpaceOnUse">
      <stop offset="0.65" id="stop15"/>
      <stop offset="1" stop-opacity="0" id="stop16"/>
    </radialGradient></defs>
  <metadata id="metadata7">
    <rdf:RDF>
      <cc:Work rdf:about="">
        <dc:format>image/svg+xml</dc:format>
        <dc:type rdf:resource="http://purl.org/dc/dcmitype/StillImage"/>
      </cc:Work>
    </rdf:RDF>
  </metadata>
  
  <g id="ds" opacity="0.25">
    <path id="ds-br" d="m 47.5,48.5 h 14 v 14 h -14 z" fill="url(#gradient_ds_br)" style="fill:url(#gradient_ds_br)"/>
    <path id="ds-b" d="m 16.5,48.5 h 31 v 14 h -31 z" fill="url(#gradient_ds_b)" style="fill:url(#gradient_ds_b)"/>
    <path id="ds-bl" d="m 2.5,48.5 h 14 v 14 h -14 z" fill="url(#gradient_ds_bl)" style="fill:url(#gradient_ds_bl)"/>
    <path id="ds-r" d="m 47.5,18.5 h 14 v 30 h -14 z" fill="url(#gradient_ds_r)" style="fill:url(#gradient_ds_r)"/>
    <path id="ds-l" d="m 2.5,18.5 h 14 v 30 h -14 z" fill="url(#gradient_ds_l)" style="fill:url(#gradient_ds_l)"/>
    <path id="ds-tr" d="m 47.5,4.5 h 14 v 14 h -14 z" fill="url(#gradient_ds_tr)" style="fill:url(#gradient_ds_tr)"/>
    <path id="ds-t" d="m 16.5,4.5 h 31 v 14 h -31 z" fill="url(#gradient_ds_t)" style="fill:url(#gradient_ds_t)"/>
    <path id="ds-tl" d="m 16.5,4.5 h -14 v 14 h 14 z" fill="url(#gradient_ds_tl)" style="fill:url(#gradient_ds_tl)"/>
  </g><rect x="4.5" y="4.5" width="55" height="55" rx="10" fill="url(#linearGradient2070-2)" stroke-width="1.00001" id="bg" style="fill:url(#linearGradient2070-2)"/>
  <g id="art">
    <rect style="fill:#fafafa;fill-opacity:1;stroke-width:0.559107;-inkscape-stroke:none;paint-order:stroke fill markers" id="rect1" width="42" height="42" x="11" y="11" ry="7.5"/>
    <g fill="#f08705" id="g14" transform="matrix(3.779602,0,0,3.779602,-22.286045,-40.143153)">
      <path d="m 10.479,17.81 c -0.0051,0.03965 -0.0082,0.081 -0.01307,0.12163 h 7.794 C 18.25533,17.891 18.25193,17.84962 18.24635,17.81 Z" opacity="0.6" stroke-width="0.65212" style="paint-order:normal" id="path9"/>
      <path d="m 10.607,15.168 c 0.0045,0.04063 0.0088,0.08118 0.01383,0.12163 h 7.4855 c 0.0047,-0.04371 0.0087,-0.07849 0.01284,-0.12163 z" opacity="0.6" stroke-width="0.64018" style="paint-order:normal" id="path10"/>
      <path d="m 10.479,20.453 c -0.0051,0.03965 -0.0082,0.081 -0.01307,0.12163 h 7.794 C 18.25533,20.534 18.25193,20.49262 18.24635,20.453 Z" opacity="0.6" stroke-width="0.65212" style="paint-order:normal" id="path11"/>
      <path d="m 10.474,23.095 c -0.0032,0.03965 -0.0052,0.081 -0.0083,0.12163 h 4.9415 C 15.4043,23.176 15.4021,23.13462 15.3986,23.095 Z" opacity="0.6" stroke-width="0.51925" style="paint-order:normal" id="path12"/>
      <path transform="matrix(0.98857,0,0,0.9511,2.0659,28.165)" d="m 8.8145,-5.537 c 0,0 -0.19283,-0.13005 -0.19283,-0.19731 0,-0.067264 0.5286,-1.9107 0.58567,-2.0122 0.057077,-0.10147 6.1025,-6.1025 6.1025,-6.1025 0,0 0.27603,-0.21726 0.44643,-0.08272 0.17041,0.13453 0.74406,0.74406 0.74406,0.74406 z" filter="url(#filter1091-0)" opacity="0.5" id="path13" style="filter:url(#filter1091-0-3)"/>
      <path transform="matrix(0.98857,0,0,0.9511,2.0659,28.165)" d="m 8.8145,-5.537 c 0,0 0.13005,0.19283 0.19731,0.19283 0.067264,0 1.9107,-0.5286 2.0122,-0.58567 0.10147,-0.057077 6.1025,-6.1025 6.1025,-6.1025 0,0 0.21725,-0.27603 0.08272,-0.44643 -0.13453,-0.17041 -0.74406,-0.74406 -0.74406,-0.74406 z" filter="url(#filter1091-0)" opacity="0.5" id="path14" style="filter:url(#filter1091-0-3)"/>
    </g>
    <path d="m 18.008292,46.285006 c 0,0 -0.728821,-0.491537 -0.728821,-0.745753 0,-0.254216 1.997935,-7.221686 2.213637,-7.605315 0.21574,-0.383517 23.0654,-23.065399 23.0654,-23.065399 0,0 1.043321,-0.821157 1.687365,-0.312649 0.644082,0.50847 2.812288,2.812326 2.812288,2.812326 z" fill="url(#linearGradient2228)" id="path15" style="fill:url(#linearGradient2228);stroke-width:3.7796"/>
    <path d="m 18.008292,46.285006 c 0,0 0.491537,0.728821 0.745753,0.728821 0.254254,0 7.221686,-1.997936 7.605315,-2.213638 0.383516,-0.215739 23.065399,-23.065399 23.065399,-23.065399 0,0 0.821119,-1.043321 0.312649,-1.687365 -0.50847,-0.644082 -2.812289,-2.812289 -2.812289,-2.812289 z" fill="url(#linearGradient2230)" id="path16" style="fill:url(#linearGradient2230);stroke-width:3.7796"/>
  </g>
</svg>
