<?xml version="1.0" encoding="UTF-8" standalone="no"?>
<svg xmlns:inkscape="http://www.inkscape.org/namespaces/inkscape" xmlns:sodipodi="http://sodipodi.sourceforge.net/DTD/sodipodi-0.dtd" xmlns="http://www.w3.org/2000/svg" xmlns:svg="http://www.w3.org/2000/svg" width="64" height="64" version="1" id="svg1" sodipodi:docname="exodus.svg" inkscape:version="1.3.2 (091e20ef0f, 2023-11-25, custom)">
  <defs id="defs1">
    <linearGradient id="linearGradient1053" x1="-127" x2="-72" y1="60" y2="5" gradientTransform="matrix(1.0000071,0,0,1.0000071,131.50181,-0.51024614)" gradientUnits="userSpaceOnUse">
      <stop stop-color="#323741" offset="0" id="stop1"/>
      <stop stop-color="#465064" offset="1" id="stop2"/>
    </linearGradient>
    <filter id="filter1057" x="-0.026999999" y="-0.026999999" width="1.054" height="1.054" color-interpolation-filters="sRGB">
      <feGaussianBlur stdDeviation="0.61875" id="feGaussianBlur1"/>
    </filter>
  <radialGradient id="gradient_ds_br" cx="0" cy="0" r="1" gradientUnits="userSpaceOnUse" gradientTransform="matrix(13.998399,0.00477622,-0.00477841,14.004799,47.5016,48.4952)">
      <stop offset="0.65" id="stop1"/>
      <stop offset="1" stop-opacity="0" id="stop2"/>
    </radialGradient><linearGradient id="gradient_ds_b" x1="30.448999" y1="48.5" x2="30.492201" y2="62.500301" gradientUnits="userSpaceOnUse">
      <stop offset="0.653846" id="stop3"/>
      <stop offset="1" stop-opacity="0" id="stop4"/>
    </linearGradient><radialGradient id="gradient_ds_bl" cx="0" cy="0" r="1" gradientUnits="userSpaceOnUse" gradientTransform="matrix(0,14,-14,0,16.5,48.5)">
      <stop offset="0.65" id="stop5"/>
      <stop offset="1" stop-opacity="0" id="stop6"/>
    </radialGradient><linearGradient id="gradient_ds_r" x1="47.5" y1="33.5" x2="61.5" y2="33.5009" gradientUnits="userSpaceOnUse">
      <stop offset="0.649038" id="stop7"/>
      <stop offset="1" stop-opacity="0" id="stop8"/>
    </linearGradient><linearGradient id="gradient_ds_l" x1="16.5" y1="33.894699" x2="2.5" y2="33.894699" gradientUnits="userSpaceOnUse">
      <stop offset="0.649038" id="stop9"/>
      <stop offset="1" stop-opacity="0" id="stop10"/>
    </linearGradient><radialGradient id="gradient_ds_tr" cx="0" cy="0" r="1" gradientTransform="matrix(0.00843236,-14,14.0084,0.0189842,47.4916,18.5)" gradientUnits="userSpaceOnUse">
      <stop offset="0.65" id="stop11"/>
      <stop offset="1" stop-opacity="0" id="stop12"/>
    </radialGradient><linearGradient id="gradient_ds_t" x1="29.98" y1="18.5" x2="29.9158" y2="4.4998598" gradientUnits="userSpaceOnUse">
      <stop offset="0.649038" id="stop13"/>
      <stop offset="1" stop-opacity="0" id="stop14"/>
    </linearGradient><radialGradient id="gradient_ds_tl" cx="0" cy="0" r="1" gradientTransform="matrix(-0.00843236,-14,-14.0084,0.0189842,16.5084,18.5)" gradientUnits="userSpaceOnUse">
      <stop offset="0.65" id="stop15"/>
      <stop offset="1" stop-opacity="0" id="stop16"/>
    </radialGradient></defs>
  
  <g id="ds" opacity="0.25">
    <path id="ds-br" d="m 47.5,48.5 h 14 v 14 h -14 z" fill="url(#gradient_ds_br)" style="fill:url(#gradient_ds_br)"/>
    <path id="ds-b" d="m 16.5,48.5 h 31 v 14 h -31 z" fill="url(#gradient_ds_b)" style="fill:url(#gradient_ds_b)"/>
    <path id="ds-bl" d="m 2.5,48.5 h 14 v 14 h -14 z" fill="url(#gradient_ds_bl)" style="fill:url(#gradient_ds_bl)"/>
    <path id="ds-r" d="m 47.5,18.5 h 14 v 30 h -14 z" fill="url(#gradient_ds_r)" style="fill:url(#gradient_ds_r)"/>
    <path id="ds-l" d="m 2.5,18.5 h 14 v 30 h -14 z" fill="url(#gradient_ds_l)" style="fill:url(#gradient_ds_l)"/>
    <path id="ds-tr" d="m 47.5,4.5 h 14 v 14 h -14 z" fill="url(#gradient_ds_tr)" style="fill:url(#gradient_ds_tr)"/>
    <path id="ds-t" d="m 16.5,4.5 h 31 v 14 h -31 z" fill="url(#gradient_ds_t)" style="fill:url(#gradient_ds_t)"/>
    <path id="ds-tl" d="m 16.5,4.5 h -14 v 14 h 14 z" fill="url(#gradient_ds_tl)" style="fill:url(#gradient_ds_tl)"/>
  </g><rect x="4.5" y="4.5" width="55" height="55" fill="url(#linearGradient1053)" stroke-linecap="round" stroke-width="2.74441" id="bg" style="fill:url(#linearGradient1053)" rx="10"/>
  <g id="art"><path fill="#12a1ff" d="M28.912 13.003c-1.13-.015-1.37.03-1.694.307-.241.207-.438.618-.511 1.069-.033.203-.05 1.627-.05 3.872-.001 2.837-.014 3.55-.064 3.55-.035 0-1.844-1.783-4.021-3.963-2.178-2.18-4.054-4.028-4.17-4.109-.315-.22-.878-.474-1.323-.596-.366-.1-.529-.11-2.19-.127-.986-.011-1.794-.002-1.794.02 0 .023 3.77 3.81 8.377 8.417 4.279 4.278 7.31 7.295 7.814 7.78V13.007zm6.176 0-.374.005v16.214c.504-.484 3.536-3.5 7.815-7.78 4.607-4.606 8.376-8.393 8.376-8.415 0-.023-.808-.032-1.794-.022-1.661.018-1.823.027-2.19.128-.445.122-1.007.376-1.323.596-.116.08-1.992 1.929-4.17 4.109-2.176 2.18-3.986 3.962-4.02 3.962-.05 0-.064-.712-.064-3.549 0-2.245-.017-3.67-.05-3.872-.073-.451-.27-.862-.512-1.069-.324-.277-.565-.323-1.694-.307zm-22.035 6.918c-.054 0-.06.306-.045 1.694.02 1.637.022 1.712.146 2.166a5.09 5.09 0 0 0 .668 1.505c.169.259 1.064 1.187 3.4 3.53l3.171 3.182-3.17 3.178c-2.337 2.344-3.232 3.272-3.401 3.53a5.089 5.089 0 0 0-.668 1.506c-.124.454-.127.529-.146 2.166-.016 1.388-.009 1.694.045 1.694.092 0 12.07-11.982 12.07-12.074s-11.978-12.076-12.07-12.076zm37.895 0c-.091 0-12.069 11.985-12.069 12.076 0 .092 11.977 12.074 12.07 12.074.053 0 .06-.305.044-1.694-.019-1.637-.022-1.711-.146-2.165a5.09 5.09 0 0 0-.668-1.506c-.168-.258-1.063-1.187-3.4-3.53l-3.17-3.179 3.17-3.18c2.337-2.344 3.231-3.273 3.4-3.531.304-.465.513-.933.668-1.506.124-.454.127-.528.146-2.165.016-1.389.01-1.694-.045-1.694zM29.286 34.773c-1.156 1.111-16.19 16.144-16.19 16.193 0 .023.807.035 1.794.024 1.66-.018 1.823-.03 2.19-.13.444-.122 1.007-.374 1.322-.594.116-.08 1.992-1.93 4.17-4.11 2.177-2.18 3.986-3.963 4.02-3.963.05 0 .064.712.064 3.549 0 2.245.018 3.669.05 3.872.113.698.453 1.163.957 1.312.181.054.506.075 1.22.075.214 0 .238-.01.403-.014zm5.429 0v16.214c.165.004.188.013.403.013.714 0 1.038-.02 1.22-.074.503-.15.843-.615.956-1.312.033-.203.05-1.628.05-3.873 0-2.836.014-3.549.064-3.549.035 0 1.844 1.783 4.021 3.963 2.177 2.18 4.054 4.03 4.17 4.111.315.22.877.472 1.322.594.367.1.53.112 2.19.13.987.01 1.794-.002 1.794-.024 0-.05-15.034-15.082-16.19-16.193z" id="path1"/></g>
</svg>
