<?xml version="1.0" encoding="UTF-8" standalone="no"?>
<svg xmlns:inkscape="http://www.inkscape.org/namespaces/inkscape" xmlns:sodipodi="http://sodipodi.sourceforge.net/DTD/sodipodi-0.dtd" xmlns="http://www.w3.org/2000/svg" xmlns:svg="http://www.w3.org/2000/svg" width="64" height="64" version="1.1" viewBox="0 0 64 64" id="svg8" sodipodi:docname="fish.svg" inkscape:version="1.4.2 (ebf0e940d0, 2025-05-08)">
  <sodipodi:namedview id="namedview1" pagecolor="#ffffff" bordercolor="#000000" borderopacity="0.25" inkscape:showpageshadow="2" inkscape:pageopacity="0.0" inkscape:pagecheckerboard="0" inkscape:deskcolor="#d1d1d1" inkscape:current-layer="svg8"/>
  <defs id="defs4">
    <linearGradient id="linearGradient848-7" x1="145" x2="200" y1="59" y2="4" gradientTransform="matrix(0.26459,0,0,0.26459,-37.174,0.13191)" gradientUnits="userSpaceOnUse">
      <stop stop-color="#e1e1e1" offset="0" id="stop1"/>
      <stop stop-color="#f5f5f5" offset="1" id="stop2"/>
    </linearGradient>
    <linearGradient id="linearGradient1053-9" x1="-127" x2="-72" y1="60" y2="5" gradientTransform="matrix(1.0000071,0,0,1.0000071,131.49991,-0.5099817)" gradientUnits="userSpaceOnUse">
      <stop stop-color="#dee0e2" offset="0" id="stop3"/>
      <stop stop-color="#f1f3f5" stop-opacity=".99608" offset="1" id="stop4"/>
    </linearGradient>
    <filter id="filter1057-1" x="-0.026999999" y="-0.026999999" width="1.054" height="1.054" color-interpolation-filters="sRGB">
      <feGaussianBlur stdDeviation="0.61875" id="feGaussianBlur4"/>
    </filter>
    <filter id="filter1057-1-7" x="-0.026999999" y="-0.026999999" width="1.054" height="1.054" color-interpolation-filters="sRGB">
      <feGaussianBlur stdDeviation="0.61875" id="feGaussianBlur4-5"/>
    </filter>
  <radialGradient id="gradient_ds_br" cx="0" cy="0" r="1" gradientUnits="userSpaceOnUse" gradientTransform="matrix(13.998399,0.00477622,-0.00477841,14.004799,47.5016,48.4952)">
      <stop offset="0.65" id="stop1"/>
      <stop offset="1" stop-opacity="0" id="stop2"/>
    </radialGradient><linearGradient id="gradient_ds_b" x1="30.448999" y1="48.5" x2="30.492201" y2="62.500301" gradientUnits="userSpaceOnUse">
      <stop offset="0.653846" id="stop3"/>
      <stop offset="1" stop-opacity="0" id="stop4"/>
    </linearGradient><radialGradient id="gradient_ds_bl" cx="0" cy="0" r="1" gradientUnits="userSpaceOnUse" gradientTransform="matrix(0,14,-14,0,16.5,48.5)">
      <stop offset="0.65" id="stop5"/>
      <stop offset="1" stop-opacity="0" id="stop6"/>
    </radialGradient><linearGradient id="gradient_ds_r" x1="47.5" y1="33.5" x2="61.5" y2="33.5009" gradientUnits="userSpaceOnUse">
      <stop offset="0.649038" id="stop7"/>
      <stop offset="1" stop-opacity="0" id="stop8"/>
    </linearGradient><linearGradient id="gradient_ds_l" x1="16.5" y1="33.894699" x2="2.5" y2="33.894699" gradientUnits="userSpaceOnUse">
      <stop offset="0.649038" id="stop9"/>
      <stop offset="1" stop-opacity="0" id="stop10"/>
    </linearGradient><radialGradient id="gradient_ds_tr" cx="0" cy="0" r="1" gradientTransform="matrix(0.00843236,-14,14.0084,0.0189842,47.4916,18.5)" gradientUnits="userSpaceOnUse">
      <stop offset="0.65" id="stop11"/>
      <stop offset="1" stop-opacity="0" id="stop12"/>
    </radialGradient><linearGradient id="gradient_ds_t" x1="29.98" y1="18.5" x2="29.9158" y2="4.4998598" gradientUnits="userSpaceOnUse">
      <stop offset="0.649038" id="stop13"/>
      <stop offset="1" stop-opacity="0" id="stop14"/>
    </linearGradient><radialGradient id="gradient_ds_tl" cx="0" cy="0" r="1" gradientTransform="matrix(-0.00843236,-14,-14.0084,0.0189842,16.5084,18.5)" gradientUnits="userSpaceOnUse">
      <stop offset="0.65" id="stop15"/>
      <stop offset="1" stop-opacity="0" id="stop16"/>
    </radialGradient></defs>
  
  <g id="ds" opacity="0.25">
    <path id="ds-br" d="m 47.5,48.5 h 14 v 14 h -14 z" fill="url(#gradient_ds_br)" style="fill:url(#gradient_ds_br)"/>
    <path id="ds-b" d="m 16.5,48.5 h 31 v 14 h -31 z" fill="url(#gradient_ds_b)" style="fill:url(#gradient_ds_b)"/>
    <path id="ds-bl" d="m 2.5,48.5 h 14 v 14 h -14 z" fill="url(#gradient_ds_bl)" style="fill:url(#gradient_ds_bl)"/>
    <path id="ds-r" d="m 47.5,18.5 h 14 v 30 h -14 z" fill="url(#gradient_ds_r)" style="fill:url(#gradient_ds_r)"/>
    <path id="ds-l" d="m 2.5,18.5 h 14 v 30 h -14 z" fill="url(#gradient_ds_l)" style="fill:url(#gradient_ds_l)"/>
    <path id="ds-tr" d="m 47.5,4.5 h 14 v 14 h -14 z" fill="url(#gradient_ds_tr)" style="fill:url(#gradient_ds_tr)"/>
    <path id="ds-t" d="m 16.5,4.5 h 31 v 14 h -31 z" fill="url(#gradient_ds_t)" style="fill:url(#gradient_ds_t)"/>
    <path id="ds-tl" d="m 16.5,4.5 h -14 v 14 h 14 z" fill="url(#gradient_ds_tl)" style="fill:url(#gradient_ds_tl)"/>
  </g><rect x="4.5" y="4.5" width="55" height="55" fill="url(#linearGradient1053-9)" stroke-width="2.74441" id="bg" style="fill:url(#linearGradient1053-9);stroke-linecap:round" rx="10"/>
  <g id="art">
    <rect x="7.4998641" y="7.4998641" width="48.999001" height="48.99876" ry="8.5" fill="#262626" stroke-width="2.44499" id="rect6" style="display:inline;stroke-linecap:round"/>
    <g transform="matrix(0.04779307,0,0,0.04779307,29.490723,29.658159)" fill="#ffffff" id="g8">
      <path d="M 408,34 290,-130 c -6,-8 -20,-15 -30,-15 H 16 c -10,0 -23,7 -29,15 l -33,45 86,119 c 3,4 5,10 5,15 0,5 -2,11 -5,15 l -86,119 33,45 c 6,8 19,15 29,15 h 244 c 10,0 24,-7 30,-15 L 408,64 c 3,-4 5,-10 5,-15 0,-5 -2,-11 -5,-15 z M 206,-90 c 12,0 21,9 21,21 0,12 -9,21 -21,21 -12,0 -21,-9 -21,-21 0,-12 9,-21 21,-21 z" id="path7"/>
      <path d="m 3,49 c 0,6 -2,11 -5,15 l -119,164 c -6,8 -20,15 -30,15 h -146 c -7,0 -11,-3 -11,-8 0,-2 1,-5 3,-7 l 130,-179 -130,-179 -3,-7 c 0,-5 4,-8 11,-8 h 146 c 10,0 24,7 30,15 L -2,34 c 3,4 5,10 5,15 z" id="path8"/>
    </g>
  </g>
</svg>
