<?xml version="1.0" encoding="UTF-8" standalone="no"?>
<svg xmlns:inkscape="http://www.inkscape.org/namespaces/inkscape" xmlns:sodipodi="http://sodipodi.sourceforge.net/DTD/sodipodi-0.dtd" xmlns:xlink="http://www.w3.org/1999/xlink" xmlns="http://www.w3.org/2000/svg" xmlns:svg="http://www.w3.org/2000/svg" xmlns:rdf="http://www.w3.org/1999/02/22-rdf-syntax-ns#" xmlns:cc="http://creativecommons.org/ns#" xmlns:dc="http://purl.org/dc/elements/1.1/" width="64" height="64" version="1.1" viewBox="0 0 64 64" id="svg24" sodipodi:docname="freeoffice-presentations.svg" inkscape:version="1.4.2 (ebf0e940d0, 2025-05-08)">
  <metadata id="metadata2">
    <rdf:RDF>
      <cc:Work rdf:about="">
        <dc:format>image/svg+xml</dc:format>
        <dc:type rdf:resource="http://purl.org/dc/dcmitype/StillImage"/>
      </cc:Work>
    </rdf:RDF>
  </metadata>
  <defs id="defs14">
    <filter id="filter2761" x="-0.024" y="-0.024" width="1.048" height="1.048" color-interpolation-filters="sRGB">
      <feGaussianBlur stdDeviation="0.14552168" id="feGaussianBlur4"/>
    </filter>
    <linearGradient id="linearGradient4673" x1="2.2495" x2="15.644" y1="14.536" y2="1.1082" gradientTransform="translate(-8.4984e-4,0.14045)" gradientUnits="userSpaceOnUse">
      <stop stop-color="#ff7d50" offset="0" id="stop7"/>
      <stop stop-color="#fa4b5a" offset=".47728" id="stop9"/>
      <stop stop-color="#ff509b" offset="1" id="stop11"/>
    </linearGradient>
    
    <filter color-interpolation-filters="sRGB" height="1.048" width="1.048" y="-0.024" x="-0.024" id="filter2761-67">
      <feGaussianBlur id="feGaussianBlur6" stdDeviation="0.14552168"/>
    </filter>
    <linearGradient gradientUnits="userSpaceOnUse" gradientTransform="matrix(3.7796,0,0,3.7796,-0.002644,0.81148)" y2="1.1082" y1="14.536" x2="15.644" x1="2.2495" id="linearGradient4673-5">
      <stop id="stop9-3" offset="0" stop-color="#ff7d50"/>
      <stop id="stop11-5" offset=".47728" stop-color="#fa4b5a"/>
      <stop id="stop13" offset="1" stop-color="#ff509b"/>
    </linearGradient>
    <linearGradient gradientUnits="userSpaceOnUse" gradientTransform="matrix(1.2346,0,0,1.2346,-87.337276,3.6047)" y2="4" y1="44" x2="0" id="linearGradient890">
      <stop id="stop4" offset="0" stop-color="#FFB900"/>
      <stop id="stop6" offset="1" stop-color="#ff0"/>
    </linearGradient>
    <filter color-interpolation-filters="sRGB" height="1.048" width="1.048" y="-0.024" x="-0.024" id="filter2761-5">
      <feGaussianBlur id="feGaussianBlur9" stdDeviation="0.14552168"/>
    </filter>
    <linearGradient gradientUnits="userSpaceOnUse" gradientTransform="matrix(3.7796,0,0,3.7796,66.443573,0.53068)" y2="1.1082" y1="15.601" x2="15.644" x1="1.4377" id="linearGradient4673-3">
      <stop id="stop12" offset="0" stop-color="#dc2828"/>
      <stop id="stop14" offset="1" stop-color="#fa4141"/>
    </linearGradient>
    <linearGradient gradientTransform="translate(-89.720479)" gradientUnits="userSpaceOnUse" y2="9.6700001" y1="54.591999" x2="34.133999" x1="34.133999" id="linearGradient915">
      <stop id="stop17" offset="0" stop-color="#ffb900"/>
      <stop id="stop19" offset="1" stop-color="#ff0"/>
    </linearGradient>
    <linearGradient id="linearGradient890-3" x2="0" y1="44" y2="4" gradientTransform="matrix(1.2346,0,0,1.2346,3.1419,3.6047)" gradientUnits="userSpaceOnUse">
      <stop stop-color="#FFB900" offset="0" id="stop861"/>
      <stop stop-color="#ff0" offset="1" id="stop863"/>
    </linearGradient>
    <filter id="filter2761-6" x="-0.024" y="-0.024" width="1.048" height="1.048" color-interpolation-filters="sRGB">
      <feGaussianBlur stdDeviation="0.14552168" id="feGaussianBlur866"/>
    </filter>
    <linearGradient inkscape:collect="always" xlink:href="#linearGradient1051" id="linearGradient1053" x1="-127" y1="60" x2="-72" y2="5" gradientUnits="userSpaceOnUse" gradientTransform="translate(131.5,-0.5099975)"/>
    <linearGradient inkscape:collect="always" id="linearGradient1051">
      <stop style="stop-color:#ff7d50;stop-opacity:1" offset="0" id="stop1047"/>
      <stop id="stop951" offset="0.50594032" style="stop-color:#ff4b5a;stop-opacity:1"/>
      <stop style="stop-color:#ff509b;stop-opacity:1" offset="1" id="stop1049"/>
    </linearGradient>
    <filter inkscape:collect="always" style="color-interpolation-filters:sRGB" id="filter1057" x="-0.026999999" width="1.054" y="-0.026999999" height="1.054">
      <feGaussianBlur inkscape:collect="always" stdDeviation="0.61875" id="feGaussianBlur1059"/>
    </filter>
  <radialGradient id="gradient_ds_br" cx="0" cy="0" r="1" gradientUnits="userSpaceOnUse" gradientTransform="matrix(13.998399,0.00477622,-0.00477841,14.004799,47.5016,48.4952)">
      <stop offset="0.65" id="stop1"/>
      <stop offset="1" stop-opacity="0" id="stop2"/>
    </radialGradient><linearGradient id="gradient_ds_b" x1="30.448999" y1="48.5" x2="30.492201" y2="62.500301" gradientUnits="userSpaceOnUse">
      <stop offset="0.653846" id="stop3"/>
      <stop offset="1" stop-opacity="0" id="stop4"/>
    </linearGradient><radialGradient id="gradient_ds_bl" cx="0" cy="0" r="1" gradientUnits="userSpaceOnUse" gradientTransform="matrix(0,14,-14,0,16.5,48.5)">
      <stop offset="0.65" id="stop5"/>
      <stop offset="1" stop-opacity="0" id="stop6"/>
    </radialGradient><linearGradient id="gradient_ds_r" x1="47.5" y1="33.5" x2="61.5" y2="33.5009" gradientUnits="userSpaceOnUse">
      <stop offset="0.649038" id="stop7"/>
      <stop offset="1" stop-opacity="0" id="stop8"/>
    </linearGradient><linearGradient id="gradient_ds_l" x1="16.5" y1="33.894699" x2="2.5" y2="33.894699" gradientUnits="userSpaceOnUse">
      <stop offset="0.649038" id="stop9"/>
      <stop offset="1" stop-opacity="0" id="stop10"/>
    </linearGradient><radialGradient id="gradient_ds_tr" cx="0" cy="0" r="1" gradientTransform="matrix(0.00843236,-14,14.0084,0.0189842,47.4916,18.5)" gradientUnits="userSpaceOnUse">
      <stop offset="0.65" id="stop11"/>
      <stop offset="1" stop-opacity="0" id="stop12"/>
    </radialGradient><linearGradient id="gradient_ds_t" x1="29.98" y1="18.5" x2="29.9158" y2="4.4998598" gradientUnits="userSpaceOnUse">
      <stop offset="0.649038" id="stop13"/>
      <stop offset="1" stop-opacity="0" id="stop14"/>
    </linearGradient><radialGradient id="gradient_ds_tl" cx="0" cy="0" r="1" gradientTransform="matrix(-0.00843236,-14,-14.0084,0.0189842,16.5084,18.5)" gradientUnits="userSpaceOnUse">
      <stop offset="0.65" id="stop15"/>
      <stop offset="1" stop-opacity="0" id="stop16"/>
    </radialGradient></defs>
  
  
  <g id="ds" opacity="0.25">
    <path id="ds-br" d="m 47.5,48.5 h 14 v 14 h -14 z" fill="url(#gradient_ds_br)" style="fill:url(#gradient_ds_br)"/>
    <path id="ds-b" d="m 16.5,48.5 h 31 v 14 h -31 z" fill="url(#gradient_ds_b)" style="fill:url(#gradient_ds_b)"/>
    <path id="ds-bl" d="m 2.5,48.5 h 14 v 14 h -14 z" fill="url(#gradient_ds_bl)" style="fill:url(#gradient_ds_bl)"/>
    <path id="ds-r" d="m 47.5,18.5 h 14 v 30 h -14 z" fill="url(#gradient_ds_r)" style="fill:url(#gradient_ds_r)"/>
    <path id="ds-l" d="m 2.5,18.5 h 14 v 30 h -14 z" fill="url(#gradient_ds_l)" style="fill:url(#gradient_ds_l)"/>
    <path id="ds-tr" d="m 47.5,4.5 h 14 v 14 h -14 z" fill="url(#gradient_ds_tr)" style="fill:url(#gradient_ds_tr)"/>
    <path id="ds-t" d="m 16.5,4.5 h 31 v 14 h -31 z" fill="url(#gradient_ds_t)" style="fill:url(#gradient_ds_t)"/>
    <path id="ds-tl" d="m 16.5,4.5 h -14 v 14 h 14 z" fill="url(#gradient_ds_tl)" style="fill:url(#gradient_ds_tl)"/>
  </g><rect style="fill:url(#linearGradient1053);fill-opacity:1;stroke-width:2.74436;stroke-linecap:round" id="bg" width="55" height="55" x="4.5" y="4.5" rx="10"/>
  <g transform="matrix(3.779602,0,0,3.779602,-0.68425915,-0.01940826)" aria-label="S" id="art">
    <path d="m 10.898,4.8621 v 1.018 Q 10.30373,5.59589 9.7766,5.45636 9.24951,5.31684 8.7586,5.31684 q -0.85264,0 -1.3177,0.33072 -0.45991,0.33072 -0.45991,0.94049 0,0.51159 0.30488,0.77513 0.31005,0.25838 1.1679,0.41857 l 0.63044,0.12919 q 1.1679,0.2222 1.7208,0.78547 0.55809,0.55809 0.55809,1.4986 0,1.1214 -0.75446,1.7001 -0.74929,0.57876 -2.2014,0.57876 -0.54776,0 -1.1679,-0.12402 -0.61494,-0.12402 -1.2764,-0.3669 v -1.0748 q 0.63561,0.35656 1.2454,0.53742 0.60979,0.18086 1.1989,0.18086 0.89398,0 1.3797,-0.35139 0.48575,-0.35139 0.48575,-1.0025 0,-0.56843 -0.35139,-0.88882 Q 9.57507,9.06333 8.7793,8.90314 L 8.14369,8.77912 Q 6.97579,8.54658 6.45389,8.0505 5.93199,7.55442 5.93197,6.6708 q 0,-1.0232 0.71829,-1.6123 0.72346,-0.5891 1.9895,-0.5891 0.54259,0 1.1059,0.098183 0.56326,0.098183 1.1524,0.29455 z" fill="#ffffff" stroke-width="0.26458" id="path20"/>
  </g>
</svg>
