<?xml version="1.0" encoding="UTF-8" standalone="no"?>
<svg xmlns:inkscape="http://www.inkscape.org/namespaces/inkscape" xmlns:sodipodi="http://sodipodi.sourceforge.net/DTD/sodipodi-0.dtd" xmlns:xlink="http://www.w3.org/1999/xlink" xmlns="http://www.w3.org/2000/svg" xmlns:svg="http://www.w3.org/2000/svg" xmlns:rdf="http://www.w3.org/1999/02/22-rdf-syntax-ns#" xmlns:cc="http://creativecommons.org/ns#" xmlns:dc="http://purl.org/dc/elements/1.1/" inkscape:version="1.4.2 (ebf0e940d0, 2025-05-08)" sodipodi:docname="fritzing.svg" id="svg6" viewBox="0 0 64 64" version="1.1" height="64" width="64">
  <metadata id="metadata12">
    <rdf:RDF>
      <cc:Work rdf:about="">
        <dc:format>image/svg+xml</dc:format>
        <dc:type rdf:resource="http://purl.org/dc/dcmitype/StillImage"/>
      </cc:Work>
    </rdf:RDF>
  </metadata>
  <defs id="defs10">
    <linearGradient id="linearGradient890" x2="0" y1="44" y2="4" gradientTransform="matrix(1.2346,0,0,1.2346,3.1419,3.6047)" gradientUnits="userSpaceOnUse">
      <stop stop-color="#FFB900" offset="0" id="stop861"/>
      <stop stop-color="#ff0" offset="1" id="stop863"/>
    </linearGradient>
    <filter id="filter2761" x="-0.024" y="-0.024" width="1.048" height="1.048" color-interpolation-filters="sRGB">
      <feGaussianBlur stdDeviation="0.14552168" id="feGaussianBlur866"/>
    </filter>
    <linearGradient id="linearGradient4673" x1="1.4377" x2="15.644" y1="15.601" y2="1.1082" gradientTransform="matrix(3.7796,0,0,3.7796,-0.0026279,0.53068)" gradientUnits="userSpaceOnUse">
      <stop stop-color="#dc2828" offset="0" id="stop869"/>
      <stop stop-color="#fa4141" offset="1" id="stop871"/>
    </linearGradient>
    <linearGradient id="linearGradient915" x1="34.133999" x2="34.133999" y1="54.591999" y2="9.6700001" gradientUnits="userSpaceOnUse">
      <stop stop-color="#ffb900" offset="0" id="stop874"/>
      <stop stop-color="#ff0" offset="1" id="stop876"/>
    </linearGradient>
    <linearGradient inkscape:collect="always" xlink:href="#linearGradient1051" id="linearGradient1053" x1="-127" y1="60" x2="-72" y2="5" gradientUnits="userSpaceOnUse" gradientTransform="translate(131.5,-0.50999746)"/>
    <linearGradient inkscape:collect="always" id="linearGradient1051">
      <stop style="stop-color:#df2a2a;stop-opacity:1" offset="0" id="stop1047"/>
      <stop style="stop-color:#f83f3f;stop-opacity:1" offset="1" id="stop1049"/>
    </linearGradient>
    <filter inkscape:collect="always" style="color-interpolation-filters:sRGB" id="filter1057" x="-0.026999999" width="1.054" y="-0.026999999" height="1.054">
      <feGaussianBlur inkscape:collect="always" stdDeviation="0.61875" id="feGaussianBlur1059"/>
    </filter>
  <radialGradient id="gradient_ds_br" cx="0" cy="0" r="1" gradientUnits="userSpaceOnUse" gradientTransform="matrix(13.998399,0.00477622,-0.00477841,14.004799,47.5016,48.4952)">
      <stop offset="0.65" id="stop1"/>
      <stop offset="1" stop-opacity="0" id="stop2"/>
    </radialGradient><linearGradient id="gradient_ds_b" x1="30.448999" y1="48.5" x2="30.492201" y2="62.500301" gradientUnits="userSpaceOnUse">
      <stop offset="0.653846" id="stop3"/>
      <stop offset="1" stop-opacity="0" id="stop4"/>
    </linearGradient><radialGradient id="gradient_ds_bl" cx="0" cy="0" r="1" gradientUnits="userSpaceOnUse" gradientTransform="matrix(0,14,-14,0,16.5,48.5)">
      <stop offset="0.65" id="stop5"/>
      <stop offset="1" stop-opacity="0" id="stop6"/>
    </radialGradient><linearGradient id="gradient_ds_r" x1="47.5" y1="33.5" x2="61.5" y2="33.5009" gradientUnits="userSpaceOnUse">
      <stop offset="0.649038" id="stop7"/>
      <stop offset="1" stop-opacity="0" id="stop8"/>
    </linearGradient><linearGradient id="gradient_ds_l" x1="16.5" y1="33.894699" x2="2.5" y2="33.894699" gradientUnits="userSpaceOnUse">
      <stop offset="0.649038" id="stop9"/>
      <stop offset="1" stop-opacity="0" id="stop10"/>
    </linearGradient><radialGradient id="gradient_ds_tr" cx="0" cy="0" r="1" gradientTransform="matrix(0.00843236,-14,14.0084,0.0189842,47.4916,18.5)" gradientUnits="userSpaceOnUse">
      <stop offset="0.65" id="stop11"/>
      <stop offset="1" stop-opacity="0" id="stop12"/>
    </radialGradient><linearGradient id="gradient_ds_t" x1="29.98" y1="18.5" x2="29.9158" y2="4.4998598" gradientUnits="userSpaceOnUse">
      <stop offset="0.649038" id="stop13"/>
      <stop offset="1" stop-opacity="0" id="stop14"/>
    </linearGradient><radialGradient id="gradient_ds_tl" cx="0" cy="0" r="1" gradientTransform="matrix(-0.00843236,-14,-14.0084,0.0189842,16.5084,18.5)" gradientUnits="userSpaceOnUse">
      <stop offset="0.65" id="stop15"/>
      <stop offset="1" stop-opacity="0" id="stop16"/>
    </radialGradient></defs>
  
  <g id="ds" opacity="0.25">
    <path id="ds-br" d="m 47.5,48.5 h 14 v 14 h -14 z" fill="url(#gradient_ds_br)" style="fill:url(#gradient_ds_br)"/>
    <path id="ds-b" d="m 16.5,48.5 h 31 v 14 h -31 z" fill="url(#gradient_ds_b)" style="fill:url(#gradient_ds_b)"/>
    <path id="ds-bl" d="m 2.5,48.5 h 14 v 14 h -14 z" fill="url(#gradient_ds_bl)" style="fill:url(#gradient_ds_bl)"/>
    <path id="ds-r" d="m 47.5,18.5 h 14 v 30 h -14 z" fill="url(#gradient_ds_r)" style="fill:url(#gradient_ds_r)"/>
    <path id="ds-l" d="m 2.5,18.5 h 14 v 30 h -14 z" fill="url(#gradient_ds_l)" style="fill:url(#gradient_ds_l)"/>
    <path id="ds-tr" d="m 47.5,4.5 h 14 v 14 h -14 z" fill="url(#gradient_ds_tr)" style="fill:url(#gradient_ds_tr)"/>
    <path id="ds-t" d="m 16.5,4.5 h 31 v 14 h -31 z" fill="url(#gradient_ds_t)" style="fill:url(#gradient_ds_t)"/>
    <path id="ds-tl" d="m 16.5,4.5 h -14 v 14 h 14 z" fill="url(#gradient_ds_tl)" style="fill:url(#gradient_ds_tl)"/>
  </g><rect style="fill:url(#linearGradient1053);fill-opacity:1;stroke-width:2.74436;stroke-linecap:round" id="bg" width="55" height="55" x="4.5" y="4.5" rx="10"/>
  <g id="art"><path d="m 37.97399,14.504792 c -0.746787,-0.01852 -1.756579,0.01 -2.802873,0.205055 -1.046294,0.195133 -2.183368,0.543734 -3.178897,1.353567 -0.995489,0.809917 -1.73641,2.187378 -1.73641,3.746319 v 5.236429 h -5.236429 a 1.7467855,1.7467855 0 1 0 0,3.493364 h 5.236429 v 3.636894 a 8.7506699,8.7506699 0 0 0 -7.007398,8.572913 8.7506699,8.7506699 0 0 0 8.75067,8.750667 8.7506699,8.7506699 0 0 0 8.750671,-8.750667 8.7506699,8.7506699 0 0 0 -7.000372,-8.558858 v -3.650577 h 5.236427 a 1.7467855,1.7467855 0 1 0 0,-3.493364 h -5.236427 v -5.236429 c 0,-0.630505 0.130548,-0.776969 0.444354,-1.03228 0.313847,-0.255327 0.920706,-0.505371 1.620205,-0.635796 1.398999,-0.260883 2.953309,-0.08864 2.953309,-0.08864 a 1.7467855,1.7467855 0 1 0 0.437493,-3.465998 c 0,0 -0.483793,-0.0635 -1.230586,-0.08202 z m -6.343902,21.008139 a 5.2504844,5.2504844 0 0 1 0.04791,0 1.7467855,1.7467855 0 0 0 0.007,0 1.7467855,1.7467855 0 0 0 0.601567,0 5.2504844,5.2504844 0 0 1 4.963179,5.236428 5.2504844,5.2504844 0 0 1 -5.250073,5.250072 5.2504844,5.2504844 0 0 1 -5.250485,-5.250072 5.2504844,5.2504844 0 0 1 4.880913,-5.236428 z" fill="#ffffff" stroke-width="1.09375" id="path857"/></g>
</svg>
