<?xml version="1.0" encoding="UTF-8" standalone="no"?>
<svg xmlns:inkscape="http://www.inkscape.org/namespaces/inkscape" xmlns:sodipodi="http://sodipodi.sourceforge.net/DTD/sodipodi-0.dtd" xmlns="http://www.w3.org/2000/svg" xmlns:svg="http://www.w3.org/2000/svg" id="Apps-Visual-Studio-Code" width="64" height="64" enable-background="new 0 0 1024 1024" image-rendering="optimizeSpeed" version="1.1" viewBox="0 0 64 64" sodipodi:docname="gnome-mines.svg" inkscape:version="1.4.2 (ebf0e940d0, 2025-05-08)">
  <sodipodi:namedview id="namedview1" pagecolor="#ffffff" bordercolor="#000000" borderopacity="0.25" inkscape:showpageshadow="2" inkscape:pageopacity="0.0" inkscape:pagecheckerboard="0" inkscape:deskcolor="#d1d1d1" inkscape:current-layer="Apps-Visual-Studio-Code"/>
  <defs id="defs2499">
    <linearGradient id="d" x1="32" x2="32" y1="13" y2="51" gradientTransform="matrix(.99609 0 0 .99609 2 2)" gradientUnits="userSpaceOnUse">
      <stop stop-color="#fff" offset="0" id="stop2486"/>
      <stop stop-color="#ccc" offset="1" id="stop2488"/>
    </linearGradient>
    <filter id="e" x="-0.063829269" y="-0.056604647" width="1.1276585" height="1.1132093" color-interpolation-filters="sRGB">
      <feGaussianBlur stdDeviation="0.89623432" id="feGaussianBlur2491"/>
    </filter>
    <linearGradient id="linearGradient862-3" x1="7.9373" x2="7.9373" y1="15.081" y2="1.852" gradientTransform="matrix(3.7795 0 0 3.7795 .00014324 .031541)" gradientUnits="userSpaceOnUse">
      <stop stop-color="#1a1a1a" offset="0" id="stop2494"/>
      <stop stop-color="#4d4d4d" offset="1" id="stop2496"/>
    </linearGradient>
    <filter id="filter1057" x="-0.026999999" y="-0.026999999" width="1.054" height="1.054" color-interpolation-filters="sRGB">
      <feGaussianBlur stdDeviation="0.61875" id="feGaussianBlur1443"/>
    </filter>
    <linearGradient id="linearGradient1053" x1="-127" x2="-72" y1="60" y2="5" gradientTransform="translate(131.49,-0.054156)" gradientUnits="userSpaceOnUse">
      <stop stop-color="#1d2123" offset="0" id="stop1446"/>
      <stop stop-color="#33393e" stop-opacity=".99608" offset="1" id="stop1448"/>
    </linearGradient>
  <radialGradient id="gradient_ds_br" cx="0" cy="0" r="1" gradientUnits="userSpaceOnUse" gradientTransform="matrix(13.998399,0.00477622,-0.00477841,14.004799,47.5016,48.4952)">
      <stop offset="0.65" id="stop1"/>
      <stop offset="1" stop-opacity="0" id="stop2"/>
    </radialGradient><linearGradient id="gradient_ds_b" x1="30.448999" y1="48.5" x2="30.492201" y2="62.500301" gradientUnits="userSpaceOnUse">
      <stop offset="0.653846" id="stop3"/>
      <stop offset="1" stop-opacity="0" id="stop4"/>
    </linearGradient><radialGradient id="gradient_ds_bl" cx="0" cy="0" r="1" gradientUnits="userSpaceOnUse" gradientTransform="matrix(0,14,-14,0,16.5,48.5)">
      <stop offset="0.65" id="stop5"/>
      <stop offset="1" stop-opacity="0" id="stop6"/>
    </radialGradient><linearGradient id="gradient_ds_r" x1="47.5" y1="33.5" x2="61.5" y2="33.5009" gradientUnits="userSpaceOnUse">
      <stop offset="0.649038" id="stop7"/>
      <stop offset="1" stop-opacity="0" id="stop8"/>
    </linearGradient><linearGradient id="gradient_ds_l" x1="16.5" y1="33.894699" x2="2.5" y2="33.894699" gradientUnits="userSpaceOnUse">
      <stop offset="0.649038" id="stop9"/>
      <stop offset="1" stop-opacity="0" id="stop10"/>
    </linearGradient><radialGradient id="gradient_ds_tr" cx="0" cy="0" r="1" gradientTransform="matrix(0.00843236,-14,14.0084,0.0189842,47.4916,18.5)" gradientUnits="userSpaceOnUse">
      <stop offset="0.65" id="stop11"/>
      <stop offset="1" stop-opacity="0" id="stop12"/>
    </radialGradient><linearGradient id="gradient_ds_t" x1="29.98" y1="18.5" x2="29.9158" y2="4.4998598" gradientUnits="userSpaceOnUse">
      <stop offset="0.649038" id="stop13"/>
      <stop offset="1" stop-opacity="0" id="stop14"/>
    </linearGradient><radialGradient id="gradient_ds_tl" cx="0" cy="0" r="1" gradientTransform="matrix(-0.00843236,-14,-14.0084,0.0189842,16.5084,18.5)" gradientUnits="userSpaceOnUse">
      <stop offset="0.65" id="stop15"/>
      <stop offset="1" stop-opacity="0" id="stop16"/>
    </radialGradient></defs>
  
  <g id="ds" opacity="0.25">
    <path id="ds-br" d="m 47.5,48.5 h 14 v 14 h -14 z" fill="url(#gradient_ds_br)" style="fill:url(#gradient_ds_br)"/>
    <path id="ds-b" d="m 16.5,48.5 h 31 v 14 h -31 z" fill="url(#gradient_ds_b)" style="fill:url(#gradient_ds_b)"/>
    <path id="ds-bl" d="m 2.5,48.5 h 14 v 14 h -14 z" fill="url(#gradient_ds_bl)" style="fill:url(#gradient_ds_bl)"/>
    <path id="ds-r" d="m 47.5,18.5 h 14 v 30 h -14 z" fill="url(#gradient_ds_r)" style="fill:url(#gradient_ds_r)"/>
    <path id="ds-l" d="m 2.5,18.5 h 14 v 30 h -14 z" fill="url(#gradient_ds_l)" style="fill:url(#gradient_ds_l)"/>
    <path id="ds-tr" d="m 47.5,4.5 h 14 v 14 h -14 z" fill="url(#gradient_ds_tr)" style="fill:url(#gradient_ds_tr)"/>
    <path id="ds-t" d="m 16.5,4.5 h 31 v 14 h -31 z" fill="url(#gradient_ds_t)" style="fill:url(#gradient_ds_t)"/>
    <path id="ds-tl" d="m 16.5,4.5 h -14 v 14 h 14 z" fill="url(#gradient_ds_tl)" style="fill:url(#gradient_ds_tl)"/>
  </g><rect x="4.5" y="4.5" width="55" height="55" fill="url(#linearGradient1053)" stroke-linecap="round" stroke-width="2.7444" id="bg" style="fill:url(#linearGradient1053)" rx="10"/>
  <g id="art"><path d="m 31.924,13 c -1.3507,0 -2.2123,0.99172 -2.2976,2.302 v 2.67 c 0.12116,1.1981 1.1443,2.154 2.3738,2.154 a 2.4232,2.4232 0 0 0 0.88851,-0.15257 2.4277,2.4277 0 0 0 1.4808,-2.0014 v -2.5982 a 2.4142,2.4142 0 0 0 -2.4456,-2.3738 z m -4.5996,5.5644 a 14.844,14.844 0 0 0 -4.3079,2.4501 4.3977,4.3977 0 0 1 1.3373,1.4808 c 0.01346,0.01796 -0.0091,0.05833 0,0.07629 a 4.2586,4.2586 0 0 1 0.37246,0.893 c 0.0091,0.02244 0,0.04937 0,0.0718 a 4.5458,4.5458 0 0 1 0.07629,1.9296 c -0.05834,0.2872 -0.18847,0.55644 -0.29617,0.81671 a 4.2586,4.2586 0 0 1 -3.9355,2.67 3.9265,3.9265 0 0 1 -2.2258,-0.66863 c -0.09423,0.26924 -0.23783,0.52952 -0.29617,0.81671 v 0.07628 c -0.08974,0.43977 -0.1795,0.87954 -0.22437,1.3328 v 0.07628 c -0.04488,0.45772 -0.0718,0.94236 -0.0718,1.4091 v 0.14808 c 0,0.44426 0.03141,0.90646 0.0718,1.3373 v 0.14809 c 0.04937,0.4263 0.13462,0.84364 0.22437,1.261 0.08077,0.41284 0.1795,0.79428 0.29617,1.1892 a 5.9234,5.9234 0 0 1 2.5219,-0.74491 c 0.86159,-0.04488 1.6603,0.20642 2.302,0.67311 a 3.9444,3.9444 0 0 1 1.4091,1.8488 4.631,4.631 0 0 1 0.29617,1.7052 c 0,1.2071 -0.98723,2.7912 -1.7052,3.5675 0.29168,0.22437 0.57439,0.45772 0.88851,0.66414 0.37694,0.2513 0.71799,0.52952 1.1129,0.74491 0.56542,0.30514 1.1757,0.58336 1.7815,0.81671 0.11667,0.04488 0.24681,0.05385 0.37246,0.0718 a 2.513,2.513 0 0 1 -0.07629,-0.52054 c 0,-1.8847 2.127,-3.4104 4.7522,-3.4104 2.6207,0 4.7477,1.5257 4.7477,3.4104 0,0.17052 -0.04488,0.35899 -0.07628,0.52054 0.71799,-0.24681 1.4225,-0.53849 2.0777,-0.88851 0.50708,-0.26924 0.94236,-0.5699 1.4135,-0.893 0.1436,-0.09872 0.30514,-0.18847 0.44426,-0.29617 0.11218,-0.08077 0.18847,-0.20642 0.29617,-0.29617 a 4.5906,4.5906 0 0 1 -0.81671,-0.81671 3.8951,3.8951 0 0 1 -0.81671,-1.7815 5.0932,5.0932 0 0 1 -0.0718,-0.88851 c 0,-0.57888 0.13014,-1.1443 0.29617,-1.6334 0.0045,-0.02244 -0.0091,-0.05385 0,-0.07629 a 3.6797,3.6797 0 0 1 0.29617,-0.66414 c 0.13462,-0.22437 0.27822,-0.40387 0.44874,-0.59683 0.17501,-0.20642 0.37694,-0.3545 0.59234,-0.51605 a 3.6348,3.6348 0 0 1 1.3328,-0.67311 4.3573,4.3573 0 0 1 0.81671,-0.1436 c 0.66863,-0.04039 1.795,0.22886 2.67,0.74042 0.1077,-0.37246 0.22437,-0.72696 0.30066,-1.1129 0.08526,-0.41733 0.17052,-0.83466 0.22437,-1.261 0,-0.04936 -0.0091,-0.09873 0,-0.14809 a 14.943,14.943 0 0 0 0,-2.9707 c -0.04937,-0.44874 -0.13462,-0.893 -0.22437,-1.3328 -0.0091,-0.02244 0,-0.05386 0,-0.07629 -0.0673,-0.31412 -0.19296,-0.59683 -0.30066,-0.88851 a 3.922,3.922 0 0 1 -2.2258,0.66862 4.2316,4.2316 0 0 1 -3.0425,-1.261 4.5099,4.5099 0 0 1 -0.51605,-0.67311 4.2496,4.2496 0 0 1 -0.22437,-4.4515 4.2496,4.2496 0 0 1 0.52054,-0.81222 4.5323,4.5323 0 0 1 0.74042,-0.67312 14.18,14.18 0 0 0 -4.2272,-2.4456 c 0.03141,0.16604 0.07179,0.35002 0.07179,0.52054 0,1.8847 -2.127,3.4104 -4.7477,3.4104 -1.6424,0 -3.0784,-0.57439 -3.9355,-1.4808 A 3.4104,3.4104 0 0 1 27.62045,20.4222 2.6251,2.6251 0 0 1 27.25248,19.0849 c 0,-0.17052 0.04039,-0.35899 0.0718,-0.52054 z m -10.317,1.6334 a 2.4726,2.4726 0 0 0 -1.4808,1.1129 2.4232,2.4232 0 0 0 0.74042,3.3386 l 1.9296,1.1892 0.74042,0.44425 a 2.9168,2.9168 0 0 0 0.9648,0.22437 2.8405,2.8405 0 0 0 1.8578,-0.74491 2.3335,2.3335 0 0 0 0.74043,-1.7052 2.4771,2.4771 0 0 0 -0.81671,-1.8578 l -0.88851,-0.51606 -2.0059,-1.1892 a 2.3065,2.3065 0 0 0 -1.7815,-0.29617 z m 29.092,0 a 2.3155,2.3155 0 0 0 -0.893,0.29617 l -2.0014,1.1892 -0.893,0.52054 c -0.02693,0.01795 -0.04488,0.04488 -0.07179,0.0718 a 2.1091,2.1091 0 0 0 -0.74491,1.7052 2.3335,2.3335 0 0 0 0.74491,1.7052 2.8361,2.8361 0 0 0 2.8181,0.59234 l 0.74043,-0.43977 1.9296,-1.1892 a 2.4232,2.4232 0 0 0 0.74491,-3.3386 2.3559,2.3559 0 0 0 -2.3783,-1.1129 z m -14.099,7.0497 a 4.74995,4.74995 0 1 1 0,9.4999 c -1.3148,0 -2.4815,-0.55195 -3.3386,-1.4135 -0.2154,-0.21091 -0.42631,-0.41284 -0.59683,-0.66414 a 4.7836,4.7836 0 0 1 -0.81671,-2.6745 c 0,-0.32758 0.01347,-0.65516 0.07629,-0.9648 0.44425,-2.1629 2.3783,-3.7829 4.6759,-3.7829 z m 0,2.3783 c -0.98723,0 -1.795,0.62824 -2.154,1.4808 a 2.2303,2.2303 0 0 0 -0.22437,0.88851 2.3738,2.3738 0 1 0 2.3783,-2.3738 z m -12.098,7.9383 c -0.55195,0.05833 -0.70004,0.19745 -0.9648,0.29617 l -0.51605,0.29617 -1.9296,1.1847 a 2.4232,2.4232 0 0 0 -0.74491,3.3431 2.4456,2.4456 0 0 0 3.3386,0.81222 l 1.9296,-1.1847 0.67311,-0.44874 a 2.7553,2.7553 0 0 0 0.73594,-1.1847 1.4853,1.4853 0 0 0 0.07629,-0.44874 2.863,2.863 0 0 0 -0.74042,-1.8533 2.6027,2.6027 0 0 0 -0.81671,-0.66414 2.0642,2.0642 0 0 0 -1.0411,-0.14808 z m 24.268,0.14808 a 2.5309,2.5309 0 0 0 -2.5264,2.5219 c 0,0.65068 0.18398,1.1219 0.59683,1.5571 l 0.74043,0.52054 1.9296,1.1847 a 2.4456,2.4456 0 0 0 3.3386,-0.81222 2.4232,2.4232 0 0 0 -0.74042,-3.3431 l -1.9296,-1.1847 C 45.40892,38.05767 45.24737,37.94549 45.0589,37.86023 a 2.7553,2.7553 0 0 0 -0.88851,-0.14808 z m -12.17,6.1567 a 2.4456,2.4456 0 0 0 -0.893,0.14808 3.0918,3.0918 0 0 0 -0.81671,0.52054 2.1988,2.1988 0 0 0 -0.81222,1.4808 v 2.6072 c 0,1.3103 1.0949,2.3738 2.4456,2.3738 a 2.4142,2.4142 0 0 0 2.4501,-2.3783 v -2.5937 a 2.4097,2.4097 0 0 0 -2.3783,-2.154 z" filter="url(#e)" opacity="0.75" stroke-width="3.7796" id="path2515" style="display:inline"/><path d="m31.924 13c-1.3507 0-2.2123 0.99172-2.2976 2.302v2.67c0.12116 1.1981 1.1443 2.154 2.3738 2.154a2.4232 2.4232 0 0 0 0.88851-0.15257 2.4277 2.4277 0 0 0 1.4808-2.0014v-2.5982a2.4142 2.4142 0 0 0-2.4456-2.3738zm-4.5996 5.5644a14.844 14.844 0 0 0-4.3079 2.4501 4.3977 4.3977 0 0 1 1.3373 1.4808c0.01346 0.01796-0.0091 0.05833 0 0.07629a4.2586 4.2586 0 0 1 0.37246 0.893c0.0091 0.02244 0 0.04937 0 0.0718a4.5458 4.5458 0 0 1 0.07629 1.9296c-0.05834 0.2872-0.18847 0.55644-0.29617 0.81671a4.2586 4.2586 0 0 1-3.9355 2.67 3.9265 3.9265 0 0 1-2.2258-0.66863c-0.09423 0.26924-0.23783 0.52952-0.29617 0.81671v0.07628c-0.08974 0.43977-0.1795 0.87954-0.22437 1.3328v0.07628c-0.04488 0.45772-0.0718 0.94236-0.0718 1.4091v0.14808c0 0.44426 0.03141 0.90646 0.0718 1.3373v0.14809c0.04937 0.4263 0.13462 0.84364 0.22437 1.261 0.08077 0.41284 0.1795 0.79428 0.29617 1.1892a5.9234 5.9234 0 0 1 2.5219-0.74491c0.86159-0.04488 1.6603 0.20642 2.302 0.67311a3.9444 3.9444 0 0 1 1.4091 1.8488 4.631 4.631 0 0 1 0.29617 1.7052c0 1.2071-0.98723 2.7912-1.7052 3.5675 0.29168 0.22437 0.57439 0.45772 0.88851 0.66414 0.37694 0.2513 0.71799 0.52952 1.1129 0.74491 0.56542 0.30514 1.1757 0.58336 1.7815 0.81671 0.11667 0.04488 0.24681 0.05385 0.37246 0.0718a2.513 2.513 0 0 1-0.07629-0.52054c0-1.8847 2.127-3.4104 4.7522-3.4104 2.6207 0 4.7477 1.5257 4.7477 3.4104 0 0.17052-0.04488 0.35899-0.07628 0.52054 0.71799-0.24681 1.4225-0.53849 2.0777-0.88851 0.50708-0.26924 0.94236-0.5699 1.4135-0.893 0.1436-0.09872 0.30514-0.18847 0.44426-0.29617 0.11218-0.08077 0.18847-0.20642 0.29617-0.29617a4.5906 4.5906 0 0 1-0.81671-0.81671 3.8951 3.8951 0 0 1-0.81671-1.7815 5.0932 5.0932 0 0 1-0.0718-0.88851c0-0.57888 0.13014-1.1443 0.29617-1.6334 0.0045-0.02244-0.0091-0.05385 0-0.07629a3.6797 3.6797 0 0 1 0.29617-0.66414c0.13462-0.22437 0.27822-0.40387 0.44874-0.59683 0.17501-0.20642 0.37694-0.3545 0.59234-0.51605a3.6348 3.6348 0 0 1 1.3328-0.67311 4.3573 4.3573 0 0 1 0.81671-0.1436c0.66863-0.04039 1.795 0.22886 2.67 0.74042 0.1077-0.37246 0.22437-0.72696 0.30066-1.1129 0.08526-0.41733 0.17052-0.83466 0.22437-1.261 0-0.04936-0.0091-0.09873 0-0.14809a14.943 14.943 0 0 0 0-2.9707c-0.04937-0.44874-0.13462-0.893-0.22437-1.3328-0.0091-0.02244 0-0.05386 0-0.07629-0.0673-0.31412-0.19296-0.59683-0.30066-0.88851a3.922 3.922 0 0 1-2.2258 0.66862 4.2316 4.2316 0 0 1-3.0425-1.261 4.5099 4.5099 0 0 1-0.51605-0.67311 4.2496 4.2496 0 0 1-0.22437-4.4515 4.2496 4.2496 0 0 1 0.52054-0.81222 4.5323 4.5323 0 0 1 0.74042-0.67312 14.18 14.18 0 0 0-4.2272-2.4456c0.03141 0.16604 0.07179 0.35002 0.07179 0.52054 0 1.8847-2.127 3.4104-4.7477 3.4104-1.6424 0-3.0784-0.57439-3.9355-1.4808a3.4104 3.4104 0 0 1-0.44427-0.59232 2.6251 2.6251 0 0 1-0.36797-1.3373c0-0.17052 0.04039-0.35899 0.0718-0.52054zm-10.317 1.6334a2.4726 2.4726 0 0 0-1.4808 1.1129 2.4232 2.4232 0 0 0 0.74042 3.3386l1.9296 1.1892 0.74042 0.44425a2.9168 2.9168 0 0 0 0.9648 0.22437 2.8405 2.8405 0 0 0 1.8578-0.74491 2.3335 2.3335 0 0 0 0.74043-1.7052 2.4771 2.4771 0 0 0-0.81671-1.8578l-0.88851-0.51606-2.0059-1.1892a2.3065 2.3065 0 0 0-1.7815-0.29617zm29.092 0a2.3155 2.3155 0 0 0-0.893 0.29617l-2.0014 1.1892-0.893 0.52054c-0.02693 0.01795-0.04488 0.04488-0.07179 0.0718a2.1091 2.1091 0 0 0-0.74491 1.7052 2.3335 2.3335 0 0 0 0.74491 1.7052 2.8361 2.8361 0 0 0 2.8181 0.59234l0.74043-0.43977 1.9296-1.1892a2.4232 2.4232 0 0 0 0.74491-3.3386 2.3559 2.3559 0 0 0-2.3783-1.1129zm-14.099 7.0497a4.7499 4.7499 0 1 1 0 9.4999c-1.3148 0-2.4815-0.55195-3.3386-1.4135-0.2154-0.21091-0.42631-0.41284-0.59683-0.66414a4.7836 4.7836 0 0 1-0.81671-2.6745c0-0.32758 0.01347-0.65516 0.07629-0.9648 0.44425-2.1629 2.3783-3.7829 4.6759-3.7829zm0 2.3783c-0.98723 0-1.795 0.62824-2.154 1.4808a2.2303 2.2303 0 0 0-0.22437 0.88851 2.3738 2.3738 0 1 0 2.3783-2.3738zm-12.098 7.9383c-0.55195 0.05833-0.70004 0.19745-0.9648 0.29617l-0.51605 0.29617-1.9296 1.1847a2.4232 2.4232 0 0 0-0.74491 3.3431 2.4456 2.4456 0 0 0 3.3386 0.81222l1.9296-1.1847 0.67311-0.44874a2.7553 2.7553 0 0 0 0.73594-1.1847 1.4853 1.4853 0 0 0 0.07629-0.44874 2.863 2.863 0 0 0-0.74042-1.8533 2.6027 2.6027 0 0 0-0.81671-0.66414 2.0642 2.0642 0 0 0-1.0411-0.14808zm24.268 0.14808a2.5309 2.5309 0 0 0-2.5264 2.5219c0 0.65068 0.18398 1.1219 0.59683 1.5571l0.74043 0.52054 1.9296 1.1847a2.4456 2.4456 0 0 0 3.3386-0.81222 2.4232 2.4232 0 0 0-0.74042-3.3431l-1.9296-1.1847c-0.17052-0.09873-0.33207-0.21091-0.52054-0.29617a2.7553 2.7553 0 0 0-0.88851-0.14808zm-12.17 6.1567a2.4456 2.4456 0 0 0-0.893 0.14808 3.0918 3.0918 0 0 0-0.81671 0.52054 2.1988 2.1988 0 0 0-0.81222 1.4808v2.6072c0 1.3103 1.0949 2.3738 2.4456 2.3738a2.4142 2.4142 0 0 0 2.4501-2.3783v-2.5937a2.4097 2.4097 0 0 0-2.3783-2.154z" fill="url(#d)" stroke-width="3.7796" id="path2517"/></g>
  
</svg>
