<?xml version="1.0" encoding="UTF-8" standalone="no"?>
<svg xmlns:inkscape="http://www.inkscape.org/namespaces/inkscape" xmlns:sodipodi="http://sodipodi.sourceforge.net/DTD/sodipodi-0.dtd" xmlns="http://www.w3.org/2000/svg" xmlns:svg="http://www.w3.org/2000/svg" id="Iterm" width="64" height="64" enable-background="new 0 0 1024 1024" image-rendering="optimizeSpeed" version="1.1" viewBox="0 0 64 64" sodipodi:docname="gnome-robots.svg" inkscape:version="1.4.2 (ebf0e940d0, 2025-05-08)">
  <sodipodi:namedview id="namedview1" pagecolor="#ffffff" bordercolor="#000000" borderopacity="0.25" inkscape:showpageshadow="2" inkscape:pageopacity="0.0" inkscape:pagecheckerboard="0" inkscape:deskcolor="#d1d1d1" inkscape:current-layer="Iterm"/>
  <defs id="defs2757">
    <radialGradient id="e" cx="18.685" cy="25.668" r="5.05" gradientUnits="userSpaceOnUse">
      <stop stop-color="#a40000" offset="0" id="stop2724"/>
      <stop stop-color="#a40000" stop-opacity="0" offset="1" id="stop2726"/>
    </radialGradient>
    <radialGradient id="c" cx="18.685" cy="25.668" r="5.05" gradientUnits="userSpaceOnUse">
      <stop stop-color="#c00" offset="0" id="stop2729"/>
      <stop stop-color="#c00" stop-opacity="0" offset="1" id="stop2731"/>
    </radialGradient>
    <radialGradient id="a" cx="18.685" cy="25.668" r="5.05" gradientUnits="userSpaceOnUse">
      <stop stop-color="#ef2929" offset="0" id="stop2734"/>
      <stop stop-color="#ef2929" stop-opacity="0" offset="1" id="stop2736"/>
    </radialGradient>
    <radialGradient id="h" cx="13.199" cy="12.464" r="21.009" gradientTransform="matrix(1.0649 .61482 -.62301 1.0791 14.403 -1.5545)" gradientUnits="userSpaceOnUse">
      <stop stop-color="#d3d7cf" offset="0" id="stop2739"/>
      <stop stop-color="#888a85" offset="1" id="stop2741"/>
    </radialGradient>
    <linearGradient id="f" x1="5.6934" x2="40.503" y1="5.4583" y2="40.081" gradientTransform="translate(7.4948 7.5462)" gradientUnits="userSpaceOnUse">
      <stop stop-color="#eeeeec" offset="0" id="stop2744"/>
      <stop stop-color="#eeeeec" stop-opacity="0" offset="1" id="stop2746"/>
    </linearGradient>
    <filter id="l" x="-0.13563795" y="-0.13127196" width="1.2713012" height="1.2625439" color-interpolation-filters="sRGB">
      <feGaussianBlur stdDeviation="2.035925" id="feGaussianBlur2749"/>
    </filter>
    <linearGradient id="linearGradient862-3" x1="7.9373" x2="7.9373" y1="15.081" y2="1.852" gradientTransform="matrix(3.7795 0 0 3.7795 .00014324 .031541)" gradientUnits="userSpaceOnUse">
      <stop stop-color="#1a1a1a" offset="0" id="stop2752"/>
      <stop stop-color="#4d4d4d" offset="1" id="stop2754"/>
    </linearGradient>
    <filter id="filter1057" x="-0.026999999" y="-0.026999999" width="1.054" height="1.054" color-interpolation-filters="sRGB">
      <feGaussianBlur stdDeviation="0.61875" id="feGaussianBlur1443"/>
    </filter>
    <linearGradient id="linearGradient1053" x1="-127" x2="-72" y1="60" y2="5" gradientTransform="translate(131.49,-0.054156)" gradientUnits="userSpaceOnUse">
      <stop stop-color="#1d2123" offset="0" id="stop1446"/>
      <stop stop-color="#33393e" stop-opacity=".99608" offset="1" id="stop1448"/>
    </linearGradient>
    <mask id="mask2762">
      <g id="g">
        <path d="m969.75 392.05c-1.1-4.35-2.35-9-3.65-13.6-1-3.4-2-6.85-3.15-10.5-1.6-5.15-3.4-10.5-5.3-15.85-6.45-18.25-14.15-36.05-23.15-53.65-3.8-7.4-7.95-14.95-12.3-22.4-20.3-34.5-45.8-67.2-76.35-97.75-72.6-72.6-157.15-116.65-253.65-132.05-16.25-2.6-32.8-4.4-50.05-5.35-9.7-0.55-19.85-0.85-30.1-0.85-9.35 0-18.6 0.25-27.9 0.75-118.35 6.1-220.3 51.95-305.85 137.5q-138.25 138.25-138.25 333.75c0 130.35 46.1 241.65 138.25 333.8 56.7 56.65 120.55 95.9 191.1 117.55 36.75 11.25 74.8 17.85 114.75 19.95h0.4c8.5 0.45 16.6 0.7 24.5 0.7h3c10.3 0 20.5-0.3 30.1-0.8 2.5-0.15 4.75-0.3 6.95-0.45 20.2-1.45 39.9-4.05 58.7-7.7 7.95-1.55 15.8-3.3 23.4-5.15 80.8-20.3 152.15-61.6 214.65-124.1 48.6-48.6 84.4-102.5 107.35-161.8 18.45-47.65 28.65-98.8 30.55-153.5 0.2-6.05 0.3-12.25 0.3-18.5v-3c-0.2-40.65-4.95-79.5-14.3-117z" fill="#fff" id="path2759"/>
      </g>
    </mask>
  <radialGradient id="gradient_ds_br" cx="0" cy="0" r="1" gradientUnits="userSpaceOnUse" gradientTransform="matrix(13.998399,0.00477622,-0.00477841,14.004799,47.5016,48.4952)">
      <stop offset="0.65" id="stop1"/>
      <stop offset="1" stop-opacity="0" id="stop2"/>
    </radialGradient><linearGradient id="gradient_ds_b" x1="30.448999" y1="48.5" x2="30.492201" y2="62.500301" gradientUnits="userSpaceOnUse">
      <stop offset="0.653846" id="stop3"/>
      <stop offset="1" stop-opacity="0" id="stop4"/>
    </linearGradient><radialGradient id="gradient_ds_bl" cx="0" cy="0" r="1" gradientUnits="userSpaceOnUse" gradientTransform="matrix(0,14,-14,0,16.5,48.5)">
      <stop offset="0.65" id="stop5"/>
      <stop offset="1" stop-opacity="0" id="stop6"/>
    </radialGradient><linearGradient id="gradient_ds_r" x1="47.5" y1="33.5" x2="61.5" y2="33.5009" gradientUnits="userSpaceOnUse">
      <stop offset="0.649038" id="stop7"/>
      <stop offset="1" stop-opacity="0" id="stop8"/>
    </linearGradient><linearGradient id="gradient_ds_l" x1="16.5" y1="33.894699" x2="2.5" y2="33.894699" gradientUnits="userSpaceOnUse">
      <stop offset="0.649038" id="stop9"/>
      <stop offset="1" stop-opacity="0" id="stop10"/>
    </linearGradient><radialGradient id="gradient_ds_tr" cx="0" cy="0" r="1" gradientTransform="matrix(0.00843236,-14,14.0084,0.0189842,47.4916,18.5)" gradientUnits="userSpaceOnUse">
      <stop offset="0.65" id="stop11"/>
      <stop offset="1" stop-opacity="0" id="stop12"/>
    </radialGradient><linearGradient id="gradient_ds_t" x1="29.98" y1="18.5" x2="29.9158" y2="4.4998598" gradientUnits="userSpaceOnUse">
      <stop offset="0.649038" id="stop13"/>
      <stop offset="1" stop-opacity="0" id="stop14"/>
    </linearGradient><radialGradient id="gradient_ds_tl" cx="0" cy="0" r="1" gradientTransform="matrix(-0.00843236,-14,-14.0084,0.0189842,16.5084,18.5)" gradientUnits="userSpaceOnUse">
      <stop offset="0.65" id="stop15"/>
      <stop offset="1" stop-opacity="0" id="stop16"/>
    </radialGradient></defs>
  
  <g id="ds" opacity="0.25">
    <path id="ds-br" d="m 47.5,48.5 h 14 v 14 h -14 z" fill="url(#gradient_ds_br)" style="fill:url(#gradient_ds_br)"/>
    <path id="ds-b" d="m 16.5,48.5 h 31 v 14 h -31 z" fill="url(#gradient_ds_b)" style="fill:url(#gradient_ds_b)"/>
    <path id="ds-bl" d="m 2.5,48.5 h 14 v 14 h -14 z" fill="url(#gradient_ds_bl)" style="fill:url(#gradient_ds_bl)"/>
    <path id="ds-r" d="m 47.5,18.5 h 14 v 30 h -14 z" fill="url(#gradient_ds_r)" style="fill:url(#gradient_ds_r)"/>
    <path id="ds-l" d="m 2.5,18.5 h 14 v 30 h -14 z" fill="url(#gradient_ds_l)" style="fill:url(#gradient_ds_l)"/>
    <path id="ds-tr" d="m 47.5,4.5 h 14 v 14 h -14 z" fill="url(#gradient_ds_tr)" style="fill:url(#gradient_ds_tr)"/>
    <path id="ds-t" d="m 16.5,4.5 h 31 v 14 h -31 z" fill="url(#gradient_ds_t)" style="fill:url(#gradient_ds_t)"/>
    <path id="ds-tl" d="m 16.5,4.5 h -14 v 14 h 14 z" fill="url(#gradient_ds_tl)" style="fill:url(#gradient_ds_tl)"/>
  </g><rect x="4.5" y="4.5" width="55" height="55" fill="url(#linearGradient1053)" stroke-linecap="round" stroke-width="2.7444" id="bg" style="fill:url(#linearGradient1053)" rx="10"/>
  <g id="art"><g transform="translate(.55173 .40706)" filter="url(#l)" opacity=".5" id="g2810">
    <g transform="translate(7.4948 7.5462)" id="g2804">
      <path d="m7.5133 18.454h32.998v11.778h-32.998c3e-4 -3.926 3e-4 -7.852 3e-4 -11.778z" stroke="#2e3436" id="path2778"/>
      <g transform="matrix(1.1429,0,0,1.1429,-46.202,-12.175)" opacity=".75" id="g2786">
        <path transform="matrix(1.3861,0,0,1.3861,35.527,-3.9257)" d="m23.735 25.668c0 2.789-2.261 5.05-5.05 5.05s-5.05-2.261-5.05-5.05 2.261-5.05 5.05-5.05 5.05 2.261 5.05 5.05z" id="path2780"/>
        <path transform="matrix(.9901 0 0 .9901 42.927 6.2981)" d="m23.735 25.668c0 2.789-2.261 5.05-5.05 5.05s-5.05-2.261-5.05-5.05 2.261-5.05 5.05-5.05 5.05 2.261 5.05 5.05z" id="path2782"/>
        <path transform="matrix(.59406 0 0 .59406 50.327 16.464)" d="m23.735 25.668c0 2.789-2.261 5.05-5.05 5.05s-5.05-2.261-5.05-5.05 2.261-5.05 5.05-5.05 5.05 2.261 5.05 5.05z" id="path2784"/>
      </g>
      <g transform="matrix(1.1429,0,0,1.1429,-56.202,-12.175)" id="g2794">
        <path transform="matrix(1.3861,0,0,1.3861,35.527,-3.9257)" d="m23.735 25.668c0 2.789-2.261 5.05-5.05 5.05s-5.05-2.261-5.05-5.05 2.261-5.05 5.05-5.05 5.05 2.261 5.05 5.05z" id="path2788"/>
        <path transform="matrix(.9901 0 0 .9901 42.927 6.2981)" d="m23.735 25.668c0 2.789-2.261 5.05-5.05 5.05s-5.05-2.261-5.05-5.05 2.261-5.05 5.05-5.05 5.05 2.261 5.05 5.05z" id="path2790"/>
        <path transform="matrix(.59406 0 0 .59406 50.327 16.464)" d="m23.735 25.668c0 2.789-2.261 5.05-5.05 5.05s-5.05-2.261-5.05-5.05 2.261-5.05 5.05-5.05 5.05 2.261 5.05 5.05z" id="path2792"/>
      </g>
      <g transform="matrix(1.1429,0,0,1.1429,-36.202,-12.175)" opacity=".5" id="g2802">
        <path transform="matrix(1.3861,0,0,1.3861,35.527,-3.9257)" d="m23.735 25.668c0 2.789-2.261 5.05-5.05 5.05s-5.05-2.261-5.05-5.05 2.261-5.05 5.05-5.05 5.05 2.261 5.05 5.05z" id="path2796"/>
        <path transform="matrix(.9901 0 0 .9901 42.927 6.2981)" d="m23.735 25.668c0 2.789-2.261 5.05-5.05 5.05s-5.05-2.261-5.05-5.05 2.261-5.05 5.05-5.05 5.05 2.261 5.05 5.05z" id="path2798"/>
        <path transform="matrix(.59406 0 0 .59406 50.327 16.464)" d="m23.735 25.668c0 2.789-2.261 5.05-5.05 5.05s-5.05-2.261-5.05-5.05 2.261-5.05 5.05-5.05 5.05 2.261 5.05 5.05z" id="path2800"/>
      </g>
    </g>
    <path d="m31.464 11.077c-10.117 0-18.544 7.3288-20.219 16.969h40.406c-1.676-9.639-10.071-16.969-20.187-16.969zm-20.188 24.063c1.6902 9.622 10.083 16.968 20.188 16.968s18.498-7.344 20.187-16.968z" fill-rule="evenodd" stroke="#2e3436" stroke-width="1px" id="path2806"/>
    <path d="m31.464 12.077c-9.226 0-16.95 6.4498-18.969 15.063h37.938c-2.02-8.613-9.744-15.063-18.969-15.063zm-18.969 23.969c2.0192 8.613 9.743 15.031 18.969 15.031 9.225 0 16.949-6.418 18.969-15.031z" stroke="url(#f)" stroke-width="1px" id="path2808"/>
  </g><g transform="translate(.55173 .40706)" id="g2842">
    <g transform="translate(7.4948 7.5462)" id="g2838">
      <path d="m7.5133 18.454h32.998v11.778h-32.998c3e-4 -3.926 3e-4 -7.852 3e-4 -11.778z" fill="#2e3436" stroke="#2e3436" id="path2812"/>
      <g transform="matrix(1.1429,0,0,1.1429,-46.202,-12.175)" opacity=".75" id="g2820">
        <path transform="matrix(1.3861,0,0,1.3861,35.527,-3.9257)" d="m23.735 25.668c0 2.789-2.261 5.05-5.05 5.05s-5.05-2.261-5.05-5.05 2.261-5.05 5.05-5.05 5.05 2.261 5.05 5.05z" fill="url(#e)" id="path2814"/>
        <path transform="matrix(.9901 0 0 .9901 42.927 6.2981)" d="m23.735 25.668c0 2.789-2.261 5.05-5.05 5.05s-5.05-2.261-5.05-5.05 2.261-5.05 5.05-5.05 5.05 2.261 5.05 5.05z" fill="url(#c)" id="path2816"/>
        <path transform="matrix(.59406 0 0 .59406 50.327 16.464)" d="m23.735 25.668c0 2.789-2.261 5.05-5.05 5.05s-5.05-2.261-5.05-5.05 2.261-5.05 5.05-5.05 5.05 2.261 5.05 5.05z" fill="url(#a)" id="path2818"/>
      </g>
      <g transform="matrix(1.1429,0,0,1.1429,-56.202,-12.175)" id="g2828">
        <path transform="matrix(1.3861,0,0,1.3861,35.527,-3.9257)" d="m23.735 25.668c0 2.789-2.261 5.05-5.05 5.05s-5.05-2.261-5.05-5.05 2.261-5.05 5.05-5.05 5.05 2.261 5.05 5.05z" fill="url(#e)" id="path2822"/>
        <path transform="matrix(.9901 0 0 .9901 42.927 6.2981)" d="m23.735 25.668c0 2.789-2.261 5.05-5.05 5.05s-5.05-2.261-5.05-5.05 2.261-5.05 5.05-5.05 5.05 2.261 5.05 5.05z" fill="url(#c)" id="path2824"/>
        <path transform="matrix(.59406 0 0 .59406 50.327 16.464)" d="m23.735 25.668c0 2.789-2.261 5.05-5.05 5.05s-5.05-2.261-5.05-5.05 2.261-5.05 5.05-5.05 5.05 2.261 5.05 5.05z" fill="url(#a)" id="path2826"/>
      </g>
      <g transform="matrix(1.1429,0,0,1.1429,-36.202,-12.175)" opacity=".5" id="g2836">
        <path transform="matrix(1.3861,0,0,1.3861,35.527,-3.9257)" d="m23.735 25.668c0 2.789-2.261 5.05-5.05 5.05s-5.05-2.261-5.05-5.05 2.261-5.05 5.05-5.05 5.05 2.261 5.05 5.05z" fill="url(#e)" id="path2830"/>
        <path transform="matrix(.9901 0 0 .9901 42.927 6.2981)" d="m23.735 25.668c0 2.789-2.261 5.05-5.05 5.05s-5.05-2.261-5.05-5.05 2.261-5.05 5.05-5.05 5.05 2.261 5.05 5.05z" fill="url(#c)" id="path2832"/>
        <path transform="matrix(.59406 0 0 .59406 50.327 16.464)" d="m23.735 25.668c0 2.789-2.261 5.05-5.05 5.05s-5.05-2.261-5.05-5.05 2.261-5.05 5.05-5.05 5.05 2.261 5.05 5.05z" fill="url(#a)" id="path2834"/>
      </g>
    </g>
    <path d="m31.464 11.077c-10.117 0-18.544 7.3288-20.219 16.969h40.406c-1.676-9.639-10.071-16.969-20.187-16.969zm-20.188 24.063c1.6902 9.622 10.083 16.968 20.188 16.968s18.498-7.344 20.187-16.968z" fill="url(#h)" id="path2840"/>
  </g></g>
  
</svg>
