<?xml version="1.0" encoding="UTF-8" standalone="no"?>
<svg xmlns:inkscape="http://www.inkscape.org/namespaces/inkscape" xmlns:sodipodi="http://sodipodi.sourceforge.net/DTD/sodipodi-0.dtd" xmlns:xlink="http://www.w3.org/1999/xlink" xmlns="http://www.w3.org/2000/svg" xmlns:svg="http://www.w3.org/2000/svg" width="64" height="64" version="1.1" id="svg2" sodipodi:docname="gnome-health.svg" inkscape:version="1.3.2 (091e20ef0f, 2023-11-25, custom)">
  <defs id="defs2">
    <filter id="filter1057" x="-0.026999999" y="-0.026999999" width="1.054" height="1.054" color-interpolation-filters="sRGB">
      <feGaussianBlur stdDeviation="0.61875" id="feGaussianBlur1"/>
    </filter>
    <linearGradient id="linearGradient1053" x1="-127" x2="-72" y1="60" y2="5" gradientTransform="matrix(1.0000071,0,0,1.0000071,131.50074,-0.51047076)" gradientUnits="userSpaceOnUse">
      <stop stop-color="#c337c3" offset="0" id="stop1"/>
      <stop stop-color="#f5378c" offset="1" id="stop2"/>
    </linearGradient>
    <filter id="filter2174" x="-0.15989216" y="-0.094877244" width="1.3197843" height="1.1897545" color-interpolation-filters="sRGB">
      <feGaussianBlur stdDeviation="0.25608494" id="feGaussianBlur2"/>
    </filter>
    <filter inkscape:collect="always" style="color-interpolation-filters:sRGB" id="filter1057-3" x="-0.026999999" width="1.054" y="-0.026999999" height="1.054">
      <feGaussianBlur inkscape:collect="always" stdDeviation="0.61875" id="feGaussianBlur1059"/>
    </filter>
    <linearGradient inkscape:collect="always" xlink:href="#linearGradient1051" id="linearGradient1053-6" x1="-127" y1="60" x2="-72" y2="5" gradientUnits="userSpaceOnUse" gradientTransform="translate(131.5,-0.5099975)"/>
    <linearGradient inkscape:collect="always" id="linearGradient1051">
      <stop style="stop-color:#df2a2a;stop-opacity:1" offset="0" id="stop1047"/>
      <stop style="stop-color:#f83f3f;stop-opacity:1" offset="1" id="stop1049"/>
    </linearGradient>
  <radialGradient id="gradient_ds_br" cx="0" cy="0" r="1" gradientUnits="userSpaceOnUse" gradientTransform="matrix(13.998399,0.00477622,-0.00477841,14.004799,47.5016,48.4952)">
      <stop offset="0.65" id="stop1"/>
      <stop offset="1" stop-opacity="0" id="stop2"/>
    </radialGradient><linearGradient id="gradient_ds_b" x1="30.448999" y1="48.5" x2="30.492201" y2="62.500301" gradientUnits="userSpaceOnUse">
      <stop offset="0.653846" id="stop3"/>
      <stop offset="1" stop-opacity="0" id="stop4"/>
    </linearGradient><radialGradient id="gradient_ds_bl" cx="0" cy="0" r="1" gradientUnits="userSpaceOnUse" gradientTransform="matrix(0,14,-14,0,16.5,48.5)">
      <stop offset="0.65" id="stop5"/>
      <stop offset="1" stop-opacity="0" id="stop6"/>
    </radialGradient><linearGradient id="gradient_ds_r" x1="47.5" y1="33.5" x2="61.5" y2="33.5009" gradientUnits="userSpaceOnUse">
      <stop offset="0.649038" id="stop7"/>
      <stop offset="1" stop-opacity="0" id="stop8"/>
    </linearGradient><linearGradient id="gradient_ds_l" x1="16.5" y1="33.894699" x2="2.5" y2="33.894699" gradientUnits="userSpaceOnUse">
      <stop offset="0.649038" id="stop9"/>
      <stop offset="1" stop-opacity="0" id="stop10"/>
    </linearGradient><radialGradient id="gradient_ds_tr" cx="0" cy="0" r="1" gradientTransform="matrix(0.00843236,-14,14.0084,0.0189842,47.4916,18.5)" gradientUnits="userSpaceOnUse">
      <stop offset="0.65" id="stop11"/>
      <stop offset="1" stop-opacity="0" id="stop12"/>
    </radialGradient><linearGradient id="gradient_ds_t" x1="29.98" y1="18.5" x2="29.9158" y2="4.4998598" gradientUnits="userSpaceOnUse">
      <stop offset="0.649038" id="stop13"/>
      <stop offset="1" stop-opacity="0" id="stop14"/>
    </linearGradient><radialGradient id="gradient_ds_tl" cx="0" cy="0" r="1" gradientTransform="matrix(-0.00843236,-14,-14.0084,0.0189842,16.5084,18.5)" gradientUnits="userSpaceOnUse">
      <stop offset="0.65" id="stop15"/>
      <stop offset="1" stop-opacity="0" id="stop16"/>
    </radialGradient></defs>
  
  <g id="ds" opacity="0.25">
    <path id="ds-br" d="m 47.5,48.5 h 14 v 14 h -14 z" fill="url(#gradient_ds_br)" style="fill:url(#gradient_ds_br)"/>
    <path id="ds-b" d="m 16.5,48.5 h 31 v 14 h -31 z" fill="url(#gradient_ds_b)" style="fill:url(#gradient_ds_b)"/>
    <path id="ds-bl" d="m 2.5,48.5 h 14 v 14 h -14 z" fill="url(#gradient_ds_bl)" style="fill:url(#gradient_ds_bl)"/>
    <path id="ds-r" d="m 47.5,18.5 h 14 v 30 h -14 z" fill="url(#gradient_ds_r)" style="fill:url(#gradient_ds_r)"/>
    <path id="ds-l" d="m 2.5,18.5 h 14 v 30 h -14 z" fill="url(#gradient_ds_l)" style="fill:url(#gradient_ds_l)"/>
    <path id="ds-tr" d="m 47.5,4.5 h 14 v 14 h -14 z" fill="url(#gradient_ds_tr)" style="fill:url(#gradient_ds_tr)"/>
    <path id="ds-t" d="m 16.5,4.5 h 31 v 14 h -31 z" fill="url(#gradient_ds_t)" style="fill:url(#gradient_ds_t)"/>
    <path id="ds-tl" d="m 16.5,4.5 h -14 v 14 h 14 z" fill="url(#gradient_ds_tl)" style="fill:url(#gradient_ds_tl)"/>
  </g><rect style="fill:url(#linearGradient1053-6);fill-opacity:1;stroke-width:2.74436;stroke-linecap:round" id="bg" width="55" height="55" x="4.5" y="4.5" rx="10"/>
  <g id="art"><path fill="#f2f2f2" d="M 23.449286,14.857143 C 17.109286,14.914286 12,20.087143 12,26.446429 12,29.205714 12.734286,31.892857 14.566429,33.73 L 32,49.142857 49.105,34.119286 C 50.99,32.228571 52,29.389286 52,26.446429 52,20.045 46.828571,14.857143 40.447857,14.857143 A 11.537857,11.537857 0 0 0 32,18.539286 11.537857,11.537857 0 0 0 23.554286,14.857143 H 23.45 Z" id="path1" style="stroke-width:0.714286"/><path fill="none" stroke="#ec3c44" stroke-linecap="round" stroke-width="2.14286" d="m 20.214286,32.65478 h 8.027143 l 3.417142,-7.341428 2.05,13.327142 2.733572,-5.985714 h 2.343571" id="path2" style="stroke:#f03838;stroke-opacity:1"/></g>
  
</svg>
