<?xml version="1.0" encoding="UTF-8" standalone="no"?>
<svg xmlns:inkscape="http://www.inkscape.org/namespaces/inkscape" xmlns:sodipodi="http://sodipodi.sourceforge.net/DTD/sodipodi-0.dtd" xmlns:xlink="http://www.w3.org/1999/xlink" xmlns="http://www.w3.org/2000/svg" xmlns:svg="http://www.w3.org/2000/svg" xmlns:rdf="http://www.w3.org/1999/02/22-rdf-syntax-ns#" xmlns:cc="http://creativecommons.org/ns#" xmlns:dc="http://purl.org/dc/elements/1.1/" width="64" height="64" version="1.1" id="svg90" sodipodi:docname="gtranslator.svg" inkscape:version="1.4.2 (ebf0e940d0, 2025-05-08)">
  <sodipodi:namedview id="namedview1" pagecolor="#ffffff" bordercolor="#000000" borderopacity="0.25" inkscape:showpageshadow="2" inkscape:pageopacity="0.0" inkscape:pagecheckerboard="0" inkscape:deskcolor="#d1d1d1" inkscape:current-layer="svg90"/>
  <metadata id="metadata94">
    <rdf:RDF>
      <cc:Work rdf:about="">
        <dc:format>image/svg+xml</dc:format>
        <dc:type rdf:resource="http://purl.org/dc/dcmitype/StillImage"/>
        <dc:title/>
      </cc:Work>
    </rdf:RDF>
  </metadata>
  <defs id="defs34">
    <linearGradient id="linearGradient910" x1="45" x2="60.076" y1="19" y2="3.9236" gradientTransform="matrix(0.89787699,0,0,-0.89787699,99.591567,60.511187)" gradientUnits="userSpaceOnUse">
      <stop stop-color="#fff" offset="0" id="stop2"/>
      <stop stop-color="#ffefcc" offset="1" id="stop4"/>
    </linearGradient>
    <radialGradient id="radialGradient1089" cx="-10.016" cy="4.9291" r="1.6997" gradientTransform="matrix(6.8413,0.088798,-0.13161,10.14,207.77811,-105.84374)" gradientUnits="userSpaceOnUse">
      <stop offset="0" id="stop7"/>
      <stop stop-opacity=".33" offset=".47598" id="stop9"/>
      <stop stop-opacity=".01" offset=".86209" id="stop11"/>
      <stop stop-opacity="0" offset="1" id="stop13"/>
    </radialGradient>
    <linearGradient id="linearGradient940" x1="30" x2="30" y1="54" y2="9" gradientTransform="matrix(1,0,0,-1,66.425635,63.947)" gradientUnits="userSpaceOnUse">
      <stop stop-color="#fff" offset="0" id="stop16"/>
      <stop stop-color="#f5f5f5" offset="1" id="stop18"/>
    </linearGradient>
    <linearGradient id="b-3" x1="399.57" x2="399.57" y1="545.8" y2="517.8" gradientTransform="matrix(2.1429,0,0,2.1429,-826.36,-1107.5)" gradientUnits="userSpaceOnUse">
      <stop stop-color="#3889e9" offset="0" id="stop21"/>
      <stop stop-color="#5ea5fb" offset="1" id="stop23"/>
    </linearGradient>
    <linearGradient id="linearGradient862" x1="7.9373" x2="7.9373" y1="15.081" y2="1.852" gradientTransform="matrix(3.7796,0,0,3.7796,-65.717618,0)" gradientUnits="userSpaceOnUse">
      <stop stop-color="#424242" offset="0" id="stop26"/>
      <stop stop-color="#272727" offset="1" id="stop28"/>
    </linearGradient>
    <filter id="filter1154" x="-0.10142282" y="-0.11548826" width="1.2028456" height="1.2309765" color-interpolation-filters="sRGB">
      <feGaussianBlur stdDeviation="1.1577746" id="feGaussianBlur31"/>
    </filter>
    <linearGradient id="linearGradient938" x1="99.523003" x2="103.24" y1="38.493999" y2="41.915001" gradientTransform="matrix(1.3333,0,0,1.3333,-103.146,-21.795)" gradientUnits="userSpaceOnUse">
      <stop stop-color="#6eb92e" offset="0" id="stop866"/>
      <stop stop-color="#4592d6" offset="1" id="stop868"/>
    </linearGradient>
    <linearGradient id="b-3-3" x1="399.57001" x2="399.57001" y1="545.79999" y2="517.79999" gradientTransform="matrix(2.1429,0,0,2.1429,-682.85739,-1107.5)" gradientUnits="userSpaceOnUse">
      <stop stop-color="#3889e9" offset="0" id="stop871"/>
      <stop stop-color="#5ea5fb" offset="1" id="stop873"/>
    </linearGradient>
    
    
    <filter id="filter1057" x="-0.026999999" y="-0.026999999" width="1.054" height="1.054" color-interpolation-filters="sRGB">
      <feGaussianBlur stdDeviation="0.61875" id="feGaussianBlur880"/>
    </filter>
    <linearGradient id="linearGradient1053" x1="-127" x2="-72" y1="60" y2="5" gradientTransform="translate(227.96079,-0.50995606)" gradientUnits="userSpaceOnUse">
      <stop stop-color="#1d2123" offset="0" id="stop883"/>
      <stop stop-color="#33393e" stop-opacity=".99608" offset="1" id="stop885"/>
    </linearGradient>
    <filter id="filter1057-3" x="-0.026999999" y="-0.026999999" width="1.054" height="1.054" color-interpolation-filters="sRGB">
      <feGaussianBlur stdDeviation="0.61875" id="feGaussianBlur839"/>
    </filter>
    <linearGradient inkscape:collect="always" xlink:href="#linearGradient2445" id="linearGradient2447" x1="31.738337" y1="6.2139182" x2="31.738337" y2="58.771091" gradientUnits="userSpaceOnUse" gradientTransform="matrix(1,0,0,-1,1e-6,64)"/>
    <linearGradient inkscape:collect="always" id="linearGradient2445">
      <stop style="stop-color:#1e1e1e;stop-opacity:1" offset="0" id="stop2441"/>
      <stop style="stop-color:#3c3c3c;stop-opacity:1" offset="1" id="stop2443"/>
    </linearGradient>
    <filter inkscape:collect="always" style="color-interpolation-filters:sRGB" id="filter1057-4" x="-0.026999999" width="1.054" y="-0.026999999" height="1.054">
      <feGaussianBlur inkscape:collect="always" stdDeviation="0.61875" id="feGaussianBlur1059"/>
    </filter>
  <radialGradient id="gradient_ds_br" cx="0" cy="0" r="1" gradientUnits="userSpaceOnUse" gradientTransform="matrix(13.998399,0.00477622,-0.00477841,14.004799,47.5016,48.4952)">
      <stop offset="0.65" id="stop1"/>
      <stop offset="1" stop-opacity="0" id="stop2"/>
    </radialGradient><linearGradient id="gradient_ds_b" x1="30.448999" y1="48.5" x2="30.492201" y2="62.500301" gradientUnits="userSpaceOnUse">
      <stop offset="0.653846" id="stop3"/>
      <stop offset="1" stop-opacity="0" id="stop4"/>
    </linearGradient><radialGradient id="gradient_ds_bl" cx="0" cy="0" r="1" gradientUnits="userSpaceOnUse" gradientTransform="matrix(0,14,-14,0,16.5,48.5)">
      <stop offset="0.65" id="stop5"/>
      <stop offset="1" stop-opacity="0" id="stop6"/>
    </radialGradient><linearGradient id="gradient_ds_r" x1="47.5" y1="33.5" x2="61.5" y2="33.5009" gradientUnits="userSpaceOnUse">
      <stop offset="0.649038" id="stop7"/>
      <stop offset="1" stop-opacity="0" id="stop8"/>
    </linearGradient><linearGradient id="gradient_ds_l" x1="16.5" y1="33.894699" x2="2.5" y2="33.894699" gradientUnits="userSpaceOnUse">
      <stop offset="0.649038" id="stop9"/>
      <stop offset="1" stop-opacity="0" id="stop10"/>
    </linearGradient><radialGradient id="gradient_ds_tr" cx="0" cy="0" r="1" gradientTransform="matrix(0.00843236,-14,14.0084,0.0189842,47.4916,18.5)" gradientUnits="userSpaceOnUse">
      <stop offset="0.65" id="stop11"/>
      <stop offset="1" stop-opacity="0" id="stop12"/>
    </radialGradient><linearGradient id="gradient_ds_t" x1="29.98" y1="18.5" x2="29.9158" y2="4.4998598" gradientUnits="userSpaceOnUse">
      <stop offset="0.649038" id="stop13"/>
      <stop offset="1" stop-opacity="0" id="stop14"/>
    </linearGradient><radialGradient id="gradient_ds_tl" cx="0" cy="0" r="1" gradientTransform="matrix(-0.00843236,-14,-14.0084,0.0189842,16.5084,18.5)" gradientUnits="userSpaceOnUse">
      <stop offset="0.65" id="stop15"/>
      <stop offset="1" stop-opacity="0" id="stop16"/>
    </radialGradient></defs>
  
  <g id="ds" opacity="0.25">
    <path id="ds-br" d="m 47.5,48.5 h 14 v 14 h -14 z" fill="url(#gradient_ds_br)" style="fill:url(#gradient_ds_br)"/>
    <path id="ds-b" d="m 16.5,48.5 h 31 v 14 h -31 z" fill="url(#gradient_ds_b)" style="fill:url(#gradient_ds_b)"/>
    <path id="ds-bl" d="m 2.5,48.5 h 14 v 14 h -14 z" fill="url(#gradient_ds_bl)" style="fill:url(#gradient_ds_bl)"/>
    <path id="ds-r" d="m 47.5,18.5 h 14 v 30 h -14 z" fill="url(#gradient_ds_r)" style="fill:url(#gradient_ds_r)"/>
    <path id="ds-l" d="m 2.5,18.5 h 14 v 30 h -14 z" fill="url(#gradient_ds_l)" style="fill:url(#gradient_ds_l)"/>
    <path id="ds-tr" d="m 47.5,4.5 h 14 v 14 h -14 z" fill="url(#gradient_ds_tr)" style="fill:url(#gradient_ds_tr)"/>
    <path id="ds-t" d="m 16.5,4.5 h 31 v 14 h -31 z" fill="url(#gradient_ds_t)" style="fill:url(#gradient_ds_t)"/>
    <path id="ds-tl" d="m 16.5,4.5 h -14 v 14 h 14 z" fill="url(#gradient_ds_tl)" style="fill:url(#gradient_ds_tl)"/>
  </g><rect y="4.5" x="4.5" height="55" width="55" id="bg" style="fill:url(#linearGradient2447);fill-opacity:1;stroke-width:1.00157;stroke-linecap:round;font-variation-settings:normal;opacity:1;vector-effect:none;stroke-linejoin:round;stroke-miterlimit:4;stroke-dasharray:none;stroke-dashoffset:0;stroke-opacity:1;-inkscape-stroke:none;paint-order:stroke fill markers;stop-color:#000000;stop-opacity:1" rx="10"/>
  <g transform="matrix(1.2775223,0,0,1.2775223,-8.88024,-8.2540239)" id="art">
    <g transform="matrix(0.79568,0,0,0.75614,7.179,7.0689)" enable-background="new" fill="#5e5c64" stroke-width="0.51802" aria-label="A" id="g1">
      <path d="m 23.908,45.741 h -5.5145 l -0.87022,2.4916 h -3.545 l 5.0656,-13.676 h 4.2046 l 5.0656,13.676 h -3.545 z m -4.6351,-2.5374 h 3.7465 l -1.8687,-5.4412 z" stroke-width="0.51802" id="path1" style="fill:#ffffff;fill-opacity:1"/>
    </g>
    <g transform="matrix(0.75394,0,0,0.79799,7.179,7.0689)" enable-background="new" fill="#5e5c64" stroke-width="0.51802" aria-label="ð›€" id="g2">
      <path d="m 46.675,27.919 h 3.0596 v -1.145 h 1.255 v 2.8305 h -6.7145 v -1.7679 q 1.429,-0.29313 2.1618,-1.6855 0.73283,-1.3924 0.73283,-3.829 0,-2.7023 -0.91604,-4.113 -0.91604,-1.4199 -2.6748,-1.4199 -1.7588,0 -2.6748,1.4199 -0.90688,1.4107 -0.90688,4.1313 0,2.3909 0.74199,3.8015 0.74199,1.4015 2.1527,1.6947 v 1.7679 H 36.1682 V 26.774 h 1.2458 v 1.145 h 3.0687 q -2.171,-0.84275 -3.2886,-2.3084 -1.1176,-1.4748 -1.1176,-3.4901 0,-2.8947 2.0519,-4.6626 2.0611,-1.7771 5.4504,-1.7771 3.3893,0 5.4504,1.7771 2.0611,1.7679 2.0611,4.6626 0,2.0153 -1.1176,3.4901 -1.1176,1.4657 -3.2977,2.3084 z" stroke-width="0.51802" id="path2" style="fill:#ffffff;fill-opacity:1"/>
    </g>
    <path d="m 28.494,23.989 0.5753,1.7581 4.0097,-4.4179 -5.8279,-1.8498 0.34017,1.6264 c -5.7497,2.8971 -6.3496,5.4339 -7.1412,7.9841 l 3.1049,0.54929 c 0.73264,-3.0971 2.6664,-4.6783 4.9388,-5.6504 z" enable-background="new" fill="#33d17a" stroke-width="0.36379" id="path3"/>
    <path d="m 35.469,38.631 -0.5753,-1.7581 -4.0097,4.4179 5.8279,1.8498 -0.34017,-1.6264 c 5.7497,-2.8971 6.3496,-5.4339 7.1412,-7.9841 l -3.1049,-0.54929 c -0.73264,3.0971 -2.6664,4.6783 -4.9388,5.6504 z" enable-background="new" fill="#33d17a" stroke-width="0.36379" id="path4"/>
  </g>
</svg>
