<?xml version="1.0" encoding="UTF-8" standalone="no"?>
<svg xmlns:inkscape="http://www.inkscape.org/namespaces/inkscape" xmlns:sodipodi="http://sodipodi.sourceforge.net/DTD/sodipodi-0.dtd" xmlns="http://www.w3.org/2000/svg" xmlns:svg="http://www.w3.org/2000/svg" xmlns:rdf="http://www.w3.org/1999/02/22-rdf-syntax-ns#" xmlns:cc="http://creativecommons.org/ns#" xmlns:dc="http://purl.org/dc/elements/1.1/" width="64" height="64" version="1.1" viewBox="0 0 64 64" id="svg15" sodipodi:docname="gwoffice.svg" inkscape:version="1.4.2 (ebf0e940d0, 2025-05-08)">
  <metadata id="metadata1">
    <rdf:RDF>
      <cc:Work rdf:about="">
        <dc:format>image/svg+xml</dc:format>
        <dc:type rdf:resource="http://purl.org/dc/dcmitype/StillImage"/>
      </cc:Work>
    </rdf:RDF>
  </metadata>
  <defs id="defs8">
    <filter id="filter1057" x="-0.026999999" y="-0.026999999" width="1.054" height="1.054" color-interpolation-filters="sRGB">
      <feGaussianBlur stdDeviation="0.61875" id="feGaussianBlur1"/>
    </filter>
    <linearGradient id="linearGradient1053" x1="-127" x2="-72" y1="60" y2="5" gradientTransform="matrix(1.0000071,0,0,1.0000071,131.49991,-0.51020847)" gradientUnits="userSpaceOnUse">
      <stop stop-color="#dee0e2" offset="0" id="stop1"/>
      <stop stop-color="#f1f3f5" stop-opacity=".99608" offset="1" id="stop2"/>
    </linearGradient>
    <linearGradient id="linearGradient1023" x1="413.17001" x2="412.85999" y1="539.22998" y2="530.62" gradientUnits="userSpaceOnUse">
      <stop stop-color="#ffa906" offset="0" id="stop3"/>
      <stop stop-color="#f4ef71" offset="1" id="stop4"/>
    </linearGradient>
    <linearGradient id="linearGradient1025" x1="410.70001" x2="411.23001" y1="562.84998" y2="524.57001" gradientTransform="translate(0.90035,-0.29982)" gradientUnits="userSpaceOnUse">
      <stop stop-color="#11aa54" offset="0" id="stop5"/>
      <stop stop-color="#72f28e" offset="1" id="stop6"/>
    </linearGradient>
    <linearGradient id="linearGradient1027" x1="429.01001" x2="429.45999" y1="563.95001" y2="551.52002" gradientTransform="matrix(1.0026,0,0,1.0026,-1.085,-2.1869)" gradientUnits="userSpaceOnUse">
      <stop stop-color="#276ad6" offset="0" id="stop7"/>
      <stop stop-color="#41aaff" offset="1" id="stop8"/>
    </linearGradient>
    <filter id="filter1057-9" x="-0.026999999" y="-0.026999999" width="1.054" height="1.054" color-interpolation-filters="sRGB">
      <feGaussianBlur stdDeviation="0.61875" id="feGaussianBlur1-1"/>
    </filter>
  <radialGradient id="gradient_ds_br" cx="0" cy="0" r="1" gradientUnits="userSpaceOnUse" gradientTransform="matrix(13.998399,0.00477622,-0.00477841,14.004799,47.5016,48.4952)">
      <stop offset="0.65" id="stop1"/>
      <stop offset="1" stop-opacity="0" id="stop2"/>
    </radialGradient><linearGradient id="gradient_ds_b" x1="30.448999" y1="48.5" x2="30.492201" y2="62.500301" gradientUnits="userSpaceOnUse">
      <stop offset="0.653846" id="stop3"/>
      <stop offset="1" stop-opacity="0" id="stop4"/>
    </linearGradient><radialGradient id="gradient_ds_bl" cx="0" cy="0" r="1" gradientUnits="userSpaceOnUse" gradientTransform="matrix(0,14,-14,0,16.5,48.5)">
      <stop offset="0.65" id="stop5"/>
      <stop offset="1" stop-opacity="0" id="stop6"/>
    </radialGradient><linearGradient id="gradient_ds_r" x1="47.5" y1="33.5" x2="61.5" y2="33.5009" gradientUnits="userSpaceOnUse">
      <stop offset="0.649038" id="stop7"/>
      <stop offset="1" stop-opacity="0" id="stop8"/>
    </linearGradient><linearGradient id="gradient_ds_l" x1="16.5" y1="33.894699" x2="2.5" y2="33.894699" gradientUnits="userSpaceOnUse">
      <stop offset="0.649038" id="stop9"/>
      <stop offset="1" stop-opacity="0" id="stop10"/>
    </linearGradient><radialGradient id="gradient_ds_tr" cx="0" cy="0" r="1" gradientTransform="matrix(0.00843236,-14,14.0084,0.0189842,47.4916,18.5)" gradientUnits="userSpaceOnUse">
      <stop offset="0.65" id="stop11"/>
      <stop offset="1" stop-opacity="0" id="stop12"/>
    </radialGradient><linearGradient id="gradient_ds_t" x1="29.98" y1="18.5" x2="29.9158" y2="4.4998598" gradientUnits="userSpaceOnUse">
      <stop offset="0.649038" id="stop13"/>
      <stop offset="1" stop-opacity="0" id="stop14"/>
    </linearGradient><radialGradient id="gradient_ds_tl" cx="0" cy="0" r="1" gradientTransform="matrix(-0.00843236,-14,-14.0084,0.0189842,16.5084,18.5)" gradientUnits="userSpaceOnUse">
      <stop offset="0.65" id="stop15"/>
      <stop offset="1" stop-opacity="0" id="stop16"/>
    </radialGradient></defs>
  
  <g id="ds" opacity="0.25">
    <path id="ds-br" d="m 47.5,48.5 h 14 v 14 h -14 z" fill="url(#gradient_ds_br)" style="fill:url(#gradient_ds_br)"/>
    <path id="ds-b" d="m 16.5,48.5 h 31 v 14 h -31 z" fill="url(#gradient_ds_b)" style="fill:url(#gradient_ds_b)"/>
    <path id="ds-bl" d="m 2.5,48.5 h 14 v 14 h -14 z" fill="url(#gradient_ds_bl)" style="fill:url(#gradient_ds_bl)"/>
    <path id="ds-r" d="m 47.5,18.5 h 14 v 30 h -14 z" fill="url(#gradient_ds_r)" style="fill:url(#gradient_ds_r)"/>
    <path id="ds-l" d="m 2.5,18.5 h 14 v 30 h -14 z" fill="url(#gradient_ds_l)" style="fill:url(#gradient_ds_l)"/>
    <path id="ds-tr" d="m 47.5,4.5 h 14 v 14 h -14 z" fill="url(#gradient_ds_tr)" style="fill:url(#gradient_ds_tr)"/>
    <path id="ds-t" d="m 16.5,4.5 h 31 v 14 h -31 z" fill="url(#gradient_ds_t)" style="fill:url(#gradient_ds_t)"/>
    <path id="ds-tl" d="m 16.5,4.5 h -14 v 14 h 14 z" fill="url(#gradient_ds_tl)" style="fill:url(#gradient_ds_tl)"/>
  </g><rect x="4.5" y="4.5" width="55" height="55" fill="url(#linearGradient1053)" stroke-linecap="round" stroke-width="2.74437" id="bg" style="fill:url(#linearGradient1053)" rx="10"/>
  <g transform="matrix(0.81801926,0,0,0.81801926,-317.12751,-412.92152)" id="art">
    <g transform="matrix(3.6286,0,0,3.6286,-1039.3,-1411.2)" id="g14">
      <g transform="translate(-11.317,5.8825)" stroke="#000000" stroke-opacity="0.8" id="g13">
        <g transform="translate(1.8733,-0.28411)" id="g12">
          <g transform="translate(-2.0519,-0.97859)" id="g11">
            <g transform="translate(0.22097,0.44194)" id="g10">
              <g transform="matrix(0.78637,0,0,0.78395,93.526,112.35)" id="g9">
                <path d="m 406.29,530.5 h 5.7527 l 5.2432,9.2554 h -5.7284 z" fill="url(#linearGradient1023)" stroke="none" id="path9" style="fill:url(#linearGradient1023)"/>
              </g>
            </g>
          </g>
        </g>
      </g>
    </g>
    <path d="m 411.79,563.89 14.919,-25.794 c 0,0 -4.289,-7.6038 -6.5065,-11.385 -0.29316,-0.49979 -0.70687,-1.314 -1.0851,-1.8998 -0.31718,-0.49126 -0.52034,-0.88208 -0.52034,-0.88208 0,0 -0.0462,-0.041 -0.0699,0 -4.9656,8.6878 -14.897,26.187 -14.897,26.187 l 8.1606,13.774 z" fill="url(#linearGradient1025)" id="path14" style="fill:url(#linearGradient1025)"/>
    <path d="m 411.71,563.86 h 29.687 l 8.5646,-13.663 -30.323,-0.0314 -7.9288,13.695 z" fill="url(#linearGradient1027)" id="path15" style="fill:url(#linearGradient1027)"/>
  </g>
</svg>
