<?xml version="1.0" encoding="UTF-8" standalone="no"?>
<!-- Created with Inkscape (http://www.inkscape.org/) -->
<svg xmlns:inkscape="http://www.inkscape.org/namespaces/inkscape" xmlns:sodipodi="http://sodipodi.sourceforge.net/DTD/sodipodi-0.dtd" xmlns="http://www.w3.org/2000/svg" xmlns:svg="http://www.w3.org/2000/svg" width="64" height="64" version="1.1" viewBox="0 0 64 64" id="svg8" sodipodi:docname="kget.svg" inkscape:version="1.4.2 (ebf0e940d0, 2025-05-08)">
  <defs id="defs5">
    <filter id="filter1057-2" x="-0.026999999" y="-0.026999999" width="1.054" height="1.054" color-interpolation-filters="sRGB">
      <feGaussianBlur stdDeviation="0.61875" id="feGaussianBlur1"/>
    </filter>
    <linearGradient id="linearGradient1053-7" x1="-127" x2="-72" y1="60" y2="5" gradientTransform="matrix(1.0000071,0,0,1.0000071,131.49991,-0.50986828)" gradientUnits="userSpaceOnUse">
      <stop stop-color="#8cd750" offset="0" id="stop1"/>
      <stop stop-color="#7dcd32" stop-opacity=".99608" offset=".49585" id="stop2"/>
      <stop stop-color="#87d241" stop-opacity=".99608" offset="1" id="stop3"/>
    </linearGradient>
    <linearGradient id="linearGradient1277" x1="32.153" x2="32.153" y1="46.592999" y2="4.0936999" gradientTransform="matrix(1.0289211,0,0,1.0289211,-0.89198616,-0.0918443)" gradientUnits="userSpaceOnUse">
      <stop stop-color="#d1ecba" offset="0" id="stop4"/>
      <stop stop-color="#d1ecba" stop-opacity="0" offset="1" id="stop5"/>
    </linearGradient>
    <filter id="filter2105" x="-0.29795352" y="-0.12894993" width="1.595907" height="1.2578999" color-interpolation-filters="sRGB">
      <feGaussianBlur stdDeviation="0.44165673" id="feGaussianBlur5"/>
    </filter>
    <filter id="filter1057-2-3" x="-0.026999999" y="-0.026999999" width="1.054" height="1.054" color-interpolation-filters="sRGB">
      <feGaussianBlur stdDeviation="0.61875" id="feGaussianBlur1-6"/>
    </filter>
    <filter id="filter2105-2" x="-0.29795351" y="-0.12894993" width="1.595907" height="1.2578999" color-interpolation-filters="sRGB">
      <feGaussianBlur stdDeviation="0.44165673" id="feGaussianBlur5-9"/>
    </filter>
  <radialGradient id="gradient_ds_br" cx="0" cy="0" r="1" gradientUnits="userSpaceOnUse" gradientTransform="matrix(13.998399,0.00477622,-0.00477841,14.004799,47.5016,48.4952)">
      <stop offset="0.65" id="stop1"/>
      <stop offset="1" stop-opacity="0" id="stop2"/>
    </radialGradient><linearGradient id="gradient_ds_b" x1="30.448999" y1="48.5" x2="30.492201" y2="62.500301" gradientUnits="userSpaceOnUse">
      <stop offset="0.653846" id="stop3"/>
      <stop offset="1" stop-opacity="0" id="stop4"/>
    </linearGradient><radialGradient id="gradient_ds_bl" cx="0" cy="0" r="1" gradientUnits="userSpaceOnUse" gradientTransform="matrix(0,14,-14,0,16.5,48.5)">
      <stop offset="0.65" id="stop5"/>
      <stop offset="1" stop-opacity="0" id="stop6"/>
    </radialGradient><linearGradient id="gradient_ds_r" x1="47.5" y1="33.5" x2="61.5" y2="33.5009" gradientUnits="userSpaceOnUse">
      <stop offset="0.649038" id="stop7"/>
      <stop offset="1" stop-opacity="0" id="stop8"/>
    </linearGradient><linearGradient id="gradient_ds_l" x1="16.5" y1="33.894699" x2="2.5" y2="33.894699" gradientUnits="userSpaceOnUse">
      <stop offset="0.649038" id="stop9"/>
      <stop offset="1" stop-opacity="0" id="stop10"/>
    </linearGradient><radialGradient id="gradient_ds_tr" cx="0" cy="0" r="1" gradientTransform="matrix(0.00843236,-14,14.0084,0.0189842,47.4916,18.5)" gradientUnits="userSpaceOnUse">
      <stop offset="0.65" id="stop11"/>
      <stop offset="1" stop-opacity="0" id="stop12"/>
    </radialGradient><linearGradient id="gradient_ds_t" x1="29.98" y1="18.5" x2="29.9158" y2="4.4998598" gradientUnits="userSpaceOnUse">
      <stop offset="0.649038" id="stop13"/>
      <stop offset="1" stop-opacity="0" id="stop14"/>
    </linearGradient><radialGradient id="gradient_ds_tl" cx="0" cy="0" r="1" gradientTransform="matrix(-0.00843236,-14,-14.0084,0.0189842,16.5084,18.5)" gradientUnits="userSpaceOnUse">
      <stop offset="0.65" id="stop15"/>
      <stop offset="1" stop-opacity="0" id="stop16"/>
    </radialGradient></defs>
  
  <g id="ds" opacity="0.25">
    <path id="ds-br" d="m 47.5,48.5 h 14 v 14 h -14 z" fill="url(#gradient_ds_br)" style="fill:url(#gradient_ds_br)"/>
    <path id="ds-b" d="m 16.5,48.5 h 31 v 14 h -31 z" fill="url(#gradient_ds_b)" style="fill:url(#gradient_ds_b)"/>
    <path id="ds-bl" d="m 2.5,48.5 h 14 v 14 h -14 z" fill="url(#gradient_ds_bl)" style="fill:url(#gradient_ds_bl)"/>
    <path id="ds-r" d="m 47.5,18.5 h 14 v 30 h -14 z" fill="url(#gradient_ds_r)" style="fill:url(#gradient_ds_r)"/>
    <path id="ds-l" d="m 2.5,18.5 h 14 v 30 h -14 z" fill="url(#gradient_ds_l)" style="fill:url(#gradient_ds_l)"/>
    <path id="ds-tr" d="m 47.5,4.5 h 14 v 14 h -14 z" fill="url(#gradient_ds_tr)" style="fill:url(#gradient_ds_tr)"/>
    <path id="ds-t" d="m 16.5,4.5 h 31 v 14 h -31 z" fill="url(#gradient_ds_t)" style="fill:url(#gradient_ds_t)"/>
    <path id="ds-tl" d="m 16.5,4.5 h -14 v 14 h 14 z" fill="url(#gradient_ds_tl)" style="fill:url(#gradient_ds_tl)"/>
  </g><rect x="4.5" y="4.5" width="55" height="55" fill="url(#linearGradient1053-7)" stroke-linecap="round" stroke-width="2.74437" id="bg" style="fill:url(#linearGradient1053-7)" rx="10"/>
  <g id="art"><path d="m 19.498967,4.4999942 c -8.309833,0 -15.0001068,6.6898958 -15.0001068,15.0001068 v 2.798833 L 32.190114,47.847909 59.498873,22.306871 v -2.806657 c 0,-8.309833 -6.689896,-15.0001064 -15.000107,-15.0001064 z" fill="url(#linearGradient1277)" stroke-width="1.00001" id="path6" style="fill:url(#linearGradient1277)"/><rect transform="matrix(-0.70710678,0.70710678,0.70710678,0.70710678,0,0)" x="8.6381226" y="39.270798" width="3.1819859" height="17.693533" ry="1.5909929" fill="#fafafa" id="rect7" style="stroke-width:3.77962"/><path d="m 21.328,11.966 c -0.2332,0 -0.42064,0.18795 -0.42064,0.42115 v 7.3782 c 0,0.02186 0.003,0.04261 0.0062,0.06356 8.24e-4,0.0053 5.2e-4,0.01072 0.0016,0.01602 0.0047,0.02441 0.01253,0.04758 0.02119,0.07028 10e-4,0.0027 0.0015,0.0056 0.0026,0.0083 0.04259,0.10511 0.12587,0.18891 0.23099,0.2315 0.0036,0.0015 0.0072,0.0023 0.01085,0.0036 0.0219,0.0082 0.04422,0.01515 0.0677,0.01964 0.02651,0.0052 0.0532,0.0078 0.0801,0.0078 0.02738,-3.4e-5 0.05421,-0.0028 0.0801,-0.0078 1.62e-4,-3.1e-5 3.55e-4,3.2e-5 5.17e-4,0 0.0199,-0.0039 0.03858,-0.01052 0.05736,-0.01705 0.0071,-0.0025 0.01479,-0.0034 0.0217,-0.0062 0.023,-0.0094 0.04438,-0.02147 0.06511,-0.03462 0.0023,-0.0015 0.0049,-0.0026 0.0072,-0.0041 0.02359,-0.01563 0.04572,-0.0338 0.06563,-0.05374 l 2.715,-2.715 c 0.1649,-0.1649 0.1649,-0.4304 0,-0.5953 -0.1649,-0.1649 -0.4304,-0.1649 -0.5953,0 l -1.9967,1.9967 v -6.3618 c 0,-0.2332 -0.18795,-0.42115 -0.42115,-0.42115 z" fill="#80d03a" filter="url(#filter2105)" id="path7" style="filter:url(#filter2105-2)" transform="matrix(3.779602,0,0,3.779602,-50.094845,-28.31829)"/><path d="m 31.922518,16.908428 c -0.881403,0 -1.589851,0.710376 -1.589851,1.591779 v 27.886659 c 0,0.08262 0.01134,0.161049 0.02343,0.240232 0.0031,0.02003 0.002,0.04052 0.006,0.06055 0.01776,0.09226 0.04736,0.179834 0.08009,0.265631 0.0042,0.0102 0.0057,0.02117 0.0098,0.03137 0.160973,0.397274 0.475739,0.714005 0.873051,0.874978 0.01361,0.0057 0.02721,0.0087 0.04101,0.01361 0.08277,0.03099 0.167134,0.05726 0.255879,0.07423 0.100197,0.01965 0.201075,0.02948 0.302746,0.02948 0.103448,-1.29e-4 0.204893,-0.01058 0.302746,-0.02948 6.13e-4,-1.17e-4 0.0013,1.21e-4 0.002,0 0.07521,-0.01474 0.145817,-0.03976 0.216798,-0.06444 0.02683,-0.0094 0.0559,-0.01285 0.08202,-0.02343 0.08693,-0.03553 0.167739,-0.08115 0.24609,-0.13085 0.0087,-0.0057 0.01852,-0.0098 0.02721,-0.0155 0.08916,-0.05907 0.172804,-0.12775 0.248056,-0.203116 L 43.311287,37.248507 c 0.623256,-0.623256 0.623256,-1.626741 0,-2.249997 -0.623256,-0.623257 -1.626741,-0.623257 -2.249997,0 l -7.546731,7.546731 V 18.500169 c 0,-0.881403 -0.710377,-1.591779 -1.59178,-1.591779 z" fill="#fafafa" id="path8" style="stroke-width:3.7796"/></g>
  
  
  
</svg>
