<?xml version="1.0" encoding="UTF-8" standalone="no"?>
<!-- Created with Inkscape (http://www.inkscape.org/) -->
<svg xmlns:inkscape="http://www.inkscape.org/namespaces/inkscape" xmlns:sodipodi="http://sodipodi.sourceforge.net/DTD/sodipodi-0.dtd" xmlns="http://www.w3.org/2000/svg" xmlns:svg="http://www.w3.org/2000/svg" width="64" height="64" version="1.1" viewBox="0 0 64 64" id="svg8" sodipodi:docname="ktorrent.svg" inkscape:version="1.4.2 (ebf0e940d0, 2025-05-08)">
  <defs id="defs4">
    <filter id="filter1057-3" x="-0.026999999" y="-0.026999999" width="1.054" height="1.054" color-interpolation-filters="sRGB">
      <feGaussianBlur stdDeviation="0.61875" id="feGaussianBlur1"/>
    </filter>
    <linearGradient id="linearGradient1053-94" x1="-127" x2="-72" y1="60" y2="5" gradientTransform="matrix(1.0000071,0,0,1.0000071,131.49991,-0.51024605)" gradientUnits="userSpaceOnUse">
      <stop stop-color="#dee0e2" offset="0" id="stop1"/>
      <stop stop-color="#f1f3f5" stop-opacity=".99608" offset="1" id="stop2"/>
    </linearGradient>
    <linearGradient id="linearGradient1993" x1="31.104" x2="31.104" y1="46.189999" y2="7.4303002" gradientTransform="scale(1.0000071)" gradientUnits="userSpaceOnUse">
      <stop stop-color="#c8c8c8" offset="0" id="stop3"/>
      <stop stop-color="#c8c8c8" stop-opacity="0" offset="1" id="stop4"/>
    </linearGradient>
    <filter id="filter2286" x="-0.17876738" y="-0.077369615" width="1.3575348" height="1.1547391" color-interpolation-filters="sRGB">
      <feGaussianBlur stdDeviation="1.0015722" id="feGaussianBlur4"/>
    </filter>
    <filter id="filter1057-3-3" x="-0.026999999" y="-0.026999999" width="1.054" height="1.054" color-interpolation-filters="sRGB">
      <feGaussianBlur stdDeviation="0.61875" id="feGaussianBlur1-6"/>
    </filter>
    <filter id="filter2286-6" x="-0.17876739" y="-0.077369616" width="1.3575348" height="1.1547392" color-interpolation-filters="sRGB">
      <feGaussianBlur stdDeviation="1.0015722" id="feGaussianBlur4-2"/>
    </filter>
  <radialGradient id="gradient_ds_br" cx="0" cy="0" r="1" gradientUnits="userSpaceOnUse" gradientTransform="matrix(13.998399,0.00477622,-0.00477841,14.004799,47.5016,48.4952)">
      <stop offset="0.65" id="stop1"/>
      <stop offset="1" stop-opacity="0" id="stop2"/>
    </radialGradient><linearGradient id="gradient_ds_b" x1="30.448999" y1="48.5" x2="30.492201" y2="62.500301" gradientUnits="userSpaceOnUse">
      <stop offset="0.653846" id="stop3"/>
      <stop offset="1" stop-opacity="0" id="stop4"/>
    </linearGradient><radialGradient id="gradient_ds_bl" cx="0" cy="0" r="1" gradientUnits="userSpaceOnUse" gradientTransform="matrix(0,14,-14,0,16.5,48.5)">
      <stop offset="0.65" id="stop5"/>
      <stop offset="1" stop-opacity="0" id="stop6"/>
    </radialGradient><linearGradient id="gradient_ds_r" x1="47.5" y1="33.5" x2="61.5" y2="33.5009" gradientUnits="userSpaceOnUse">
      <stop offset="0.649038" id="stop7"/>
      <stop offset="1" stop-opacity="0" id="stop8"/>
    </linearGradient><linearGradient id="gradient_ds_l" x1="16.5" y1="33.894699" x2="2.5" y2="33.894699" gradientUnits="userSpaceOnUse">
      <stop offset="0.649038" id="stop9"/>
      <stop offset="1" stop-opacity="0" id="stop10"/>
    </linearGradient><radialGradient id="gradient_ds_tr" cx="0" cy="0" r="1" gradientTransform="matrix(0.00843236,-14,14.0084,0.0189842,47.4916,18.5)" gradientUnits="userSpaceOnUse">
      <stop offset="0.65" id="stop11"/>
      <stop offset="1" stop-opacity="0" id="stop12"/>
    </radialGradient><linearGradient id="gradient_ds_t" x1="29.98" y1="18.5" x2="29.9158" y2="4.4998598" gradientUnits="userSpaceOnUse">
      <stop offset="0.649038" id="stop13"/>
      <stop offset="1" stop-opacity="0" id="stop14"/>
    </linearGradient><radialGradient id="gradient_ds_tl" cx="0" cy="0" r="1" gradientTransform="matrix(-0.00843236,-14,-14.0084,0.0189842,16.5084,18.5)" gradientUnits="userSpaceOnUse">
      <stop offset="0.65" id="stop15"/>
      <stop offset="1" stop-opacity="0" id="stop16"/>
    </radialGradient></defs>
  
  <g id="ds" opacity="0.25">
    <path id="ds-br" d="m 47.5,48.5 h 14 v 14 h -14 z" fill="url(#gradient_ds_br)" style="fill:url(#gradient_ds_br)"/>
    <path id="ds-b" d="m 16.5,48.5 h 31 v 14 h -31 z" fill="url(#gradient_ds_b)" style="fill:url(#gradient_ds_b)"/>
    <path id="ds-bl" d="m 2.5,48.5 h 14 v 14 h -14 z" fill="url(#gradient_ds_bl)" style="fill:url(#gradient_ds_bl)"/>
    <path id="ds-r" d="m 47.5,18.5 h 14 v 30 h -14 z" fill="url(#gradient_ds_r)" style="fill:url(#gradient_ds_r)"/>
    <path id="ds-l" d="m 2.5,18.5 h 14 v 30 h -14 z" fill="url(#gradient_ds_l)" style="fill:url(#gradient_ds_l)"/>
    <path id="ds-tr" d="m 47.5,4.5 h 14 v 14 h -14 z" fill="url(#gradient_ds_tr)" style="fill:url(#gradient_ds_tr)"/>
    <path id="ds-t" d="m 16.5,4.5 h 31 v 14 h -31 z" fill="url(#gradient_ds_t)" style="fill:url(#gradient_ds_t)"/>
    <path id="ds-tl" d="m 16.5,4.5 h -14 v 14 h 14 z" fill="url(#gradient_ds_tl)" style="fill:url(#gradient_ds_tl)"/>
  </g><rect x="4.5" y="4.5" width="55" height="55" fill="url(#linearGradient1053-94)" stroke-width="2.74437" id="bg" style="fill:url(#linearGradient1053-94);stroke-linecap:round" rx="10"/>
  <g id="art"><path d="m 19.498967,4.5015062 c -8.309833,0 -15.0001065,6.6898958 -15.0001065,15.0001068 v 2.798833 L 32.190115,47.849421 59.498873,22.308383 v -2.806657 c 0,-8.309833 -6.689896,-15.0001064 -15.000107,-15.0001064 z" fill="url(#linearGradient1993)" opacity="0.74898" stroke-linejoin="round" stroke-width="2.00001" style="fill:url(#linearGradient1993);stroke-linecap:round;paint-order:stroke fill markers" id="path5"/><path d="m 20.534578,34.999115 c -0.623256,0.623256 -0.623256,1.62674 0,2.249997 l 10.261241,10.261241 c 0.623257,0.623257 1.626741,0.623257 2.249997,0 0.623257,-0.623256 0.623257,-1.62674 4e-6,-2.249997 L 22.784579,34.999115 c -0.623257,-0.623257 -1.626741,-0.623257 -2.249997,0 z" color="#000000" color-rendering="auto" dominant-baseline="auto" fill="#646464" image-rendering="auto" shape-rendering="auto" solid-color="#000000" stop-color="#000000" style="font-variant-ligatures:normal;font-variant-position:normal;font-variant-caps:normal;font-variant-numeric:normal;font-variant-alternates:normal;font-variant-east-asian:normal;font-feature-settings:normal;font-variation-settings:normal;text-indent:0;text-decoration-line:none;text-decoration-style:solid;text-decoration-color:#000000;text-transform:none;text-orientation:mixed;white-space:normal;shape-padding:0;shape-margin:0;inline-size:0;isolation:auto;mix-blend-mode:normal;stroke-width:3.7796" id="path6"/><path d="m 30.518,16.91 c -0.8814,0 -1.5898,0.71039 -1.5898,1.5918 v 27.887 c 0,0.08262 0.01142,0.16105 0.02344,0.24023 0.0031,0.02003 0.002,0.04051 0.0059,0.06055 0.01761,0.09226 0.04735,0.17983 0.08008,0.26562 0.004,0.0102 0.0056,0.02105 0.0098,0.03125 0.16099,0.39727 0.47574,0.71403 0.87305,0.875 0.01349,0.0057 0.0274,0.0088 0.04102,0.01367 0.08276,0.03099 0.16712,0.05725 0.25586,0.07422 0.10019,0.01965 0.20106,0.0293 0.30273,0.0293 0.10347,-1.29e-4 0.20489,-0.0104 0.30274,-0.0293 h 0.002 c 0.07522,-0.01474 0.14582,-0.03977 0.2168,-0.06445 0.0268,-0.0094 0.05591,-0.01286 0.08203,-0.02344 0.08693,-0.03553 0.16775,-0.08116 0.24609,-0.13086 0.0088,-0.0057 0.01861,-0.01 0.02734,-0.01563 0.08916,-0.05907 0.1728,-0.12776 0.24805,-0.20312 l 10.262,-10.262 c 0.62326,-0.62326 0.62326,-1.6267 0,-2.25 -0.62326,-0.6233 -1.6267,-0.62326 -2.25,0 l -7.5469,7.5469 v -24.045 c 0,-0.8814 -0.71039,-1.5918 -1.5918,-1.5918 z" fill="#c8c8c8" filter="url(#filter2286)" opacity="0.7" stroke-linecap="round" stroke-linejoin="round" stroke-width="2" style="paint-order:stroke fill markers;filter:url(#filter2286-6)" id="path7"/><path d="m 31.918739,16.90994 c -0.881403,0 -1.589852,0.710376 -1.589852,1.591779 v 27.886659 c 0,0.08262 0.01134,0.161049 0.02343,0.240232 0.0031,0.02003 0.002,0.04052 0.006,0.06055 0.01776,0.09226 0.04736,0.179834 0.08009,0.265631 0.0042,0.0102 0.0057,0.02116 0.0098,0.03137 0.160973,0.397274 0.475738,0.714005 0.87305,0.874978 0.01361,0.0057 0.02721,0.0087 0.04101,0.01361 0.08277,0.03099 0.167134,0.05726 0.255879,0.07423 0.100197,0.01965 0.201075,0.02948 0.302746,0.02948 0.103486,-1.29e-4 0.204892,-0.01058 0.302746,-0.02948 6.13e-4,-1.17e-4 0.0013,1.21e-4 0.002,0 0.07521,-0.01474 0.145817,-0.03976 0.216798,-0.06444 0.02683,-0.0094 0.0559,-0.01285 0.08202,-0.02343 0.08693,-0.03553 0.167739,-0.08115 0.24609,-0.130849 0.0087,-0.0057 0.01852,-0.0098 0.02721,-0.0155 0.08916,-0.05907 0.172803,-0.12775 0.248055,-0.203116 l 10.26162,-10.261619 c 0.623256,-0.623256 0.623256,-1.626741 0,-2.249997 -0.623257,-0.623257 -1.626741,-0.623257 -2.249997,0 l -7.546732,7.546731 V 18.501681 c 0,-0.881403 -0.710376,-1.591779 -1.591779,-1.591779 z" color="#000000" color-rendering="auto" dominant-baseline="auto" fill="#646464" image-rendering="auto" shape-rendering="auto" solid-color="#000000" stop-color="#000000" style="font-variant-ligatures:normal;font-variant-position:normal;font-variant-caps:normal;font-variant-numeric:normal;font-variant-alternates:normal;font-variant-east-asian:normal;font-feature-settings:normal;font-variation-settings:normal;text-indent:0;text-decoration-line:none;text-decoration-style:solid;text-decoration-color:#000000;text-transform:none;text-orientation:mixed;white-space:normal;shape-padding:0;shape-margin:0;inline-size:0;isolation:auto;mix-blend-mode:normal;stroke-width:3.7796" id="path8"/></g>
  
  
  
</svg>
