<?xml version="1.0" encoding="UTF-8" standalone="no"?>
<svg xmlns:inkscape="http://www.inkscape.org/namespaces/inkscape" xmlns:sodipodi="http://sodipodi.sourceforge.net/DTD/sodipodi-0.dtd" xmlns="http://www.w3.org/2000/svg" xmlns:svg="http://www.w3.org/2000/svg" width="64" height="64" version="1.1" viewBox="0 0 64 64" id="svg8" sodipodi:docname="lock.svg" inkscape:version="1.4.2 (ebf0e940d0, 2025-05-08)">
  <sodipodi:namedview id="namedview8" pagecolor="#ffffff" bordercolor="#000000" borderopacity="0.25" inkscape:showpageshadow="2" inkscape:pageopacity="0.0" inkscape:pagecheckerboard="0" inkscape:deskcolor="#d1d1d1" inkscape:current-layer="svg8"/>
  <defs id="defs2">
    <filter id="filter1057" x="-0.026999999" y="-0.026999999" width="1.054" height="1.054" color-interpolation-filters="sRGB">
      <feGaussianBlur stdDeviation="0.61875" id="feGaussianBlur1"/>
    </filter>
    <linearGradient id="linearGradient1053" x1="-127" x2="-72" y1="60" y2="5" gradientTransform="translate(131.5,-0.0542)" gradientUnits="userSpaceOnUse">
      <stop stop-color="#1d2123" offset="0" id="stop1"/>
      <stop stop-color="#33393e" stop-opacity=".99608" offset="1" id="stop2"/>
    </linearGradient>
    <filter id="filter951" x="-0.34439878" y="-0.21496595" width="1.6887976" height="1.4299319" color-interpolation-filters="sRGB">
      <feGaussianBlur stdDeviation="15.306655" id="feGaussianBlur2"/>
    </filter>
  <radialGradient id="gradient_ds_br" cx="0" cy="0" r="1" gradientUnits="userSpaceOnUse" gradientTransform="matrix(13.998399,0.00477622,-0.00477841,14.004799,47.5016,48.4952)">
      <stop offset="0.65" id="stop1"/>
      <stop offset="1" stop-opacity="0" id="stop2"/>
    </radialGradient><linearGradient id="gradient_ds_b" x1="30.448999" y1="48.5" x2="30.492201" y2="62.500301" gradientUnits="userSpaceOnUse">
      <stop offset="0.653846" id="stop3"/>
      <stop offset="1" stop-opacity="0" id="stop4"/>
    </linearGradient><radialGradient id="gradient_ds_bl" cx="0" cy="0" r="1" gradientUnits="userSpaceOnUse" gradientTransform="matrix(0,14,-14,0,16.5,48.5)">
      <stop offset="0.65" id="stop5"/>
      <stop offset="1" stop-opacity="0" id="stop6"/>
    </radialGradient><linearGradient id="gradient_ds_r" x1="47.5" y1="33.5" x2="61.5" y2="33.5009" gradientUnits="userSpaceOnUse">
      <stop offset="0.649038" id="stop7"/>
      <stop offset="1" stop-opacity="0" id="stop8"/>
    </linearGradient><linearGradient id="gradient_ds_l" x1="16.5" y1="33.894699" x2="2.5" y2="33.894699" gradientUnits="userSpaceOnUse">
      <stop offset="0.649038" id="stop9"/>
      <stop offset="1" stop-opacity="0" id="stop10"/>
    </linearGradient><radialGradient id="gradient_ds_tr" cx="0" cy="0" r="1" gradientTransform="matrix(0.00843236,-14,14.0084,0.0189842,47.4916,18.5)" gradientUnits="userSpaceOnUse">
      <stop offset="0.65" id="stop11"/>
      <stop offset="1" stop-opacity="0" id="stop12"/>
    </radialGradient><linearGradient id="gradient_ds_t" x1="29.98" y1="18.5" x2="29.9158" y2="4.4998598" gradientUnits="userSpaceOnUse">
      <stop offset="0.649038" id="stop13"/>
      <stop offset="1" stop-opacity="0" id="stop14"/>
    </linearGradient><radialGradient id="gradient_ds_tl" cx="0" cy="0" r="1" gradientTransform="matrix(-0.00843236,-14,-14.0084,0.0189842,16.5084,18.5)" gradientUnits="userSpaceOnUse">
      <stop offset="0.65" id="stop15"/>
      <stop offset="1" stop-opacity="0" id="stop16"/>
    </radialGradient></defs>
  
  <g id="ds" opacity="0.25">
    <path id="ds-br" d="m 47.5,48.5 h 14 v 14 h -14 z" fill="url(#gradient_ds_br)" style="fill:url(#gradient_ds_br)"/>
    <path id="ds-b" d="m 16.5,48.5 h 31 v 14 h -31 z" fill="url(#gradient_ds_b)" style="fill:url(#gradient_ds_b)"/>
    <path id="ds-bl" d="m 2.5,48.5 h 14 v 14 h -14 z" fill="url(#gradient_ds_bl)" style="fill:url(#gradient_ds_bl)"/>
    <path id="ds-r" d="m 47.5,18.5 h 14 v 30 h -14 z" fill="url(#gradient_ds_r)" style="fill:url(#gradient_ds_r)"/>
    <path id="ds-l" d="m 2.5,18.5 h 14 v 30 h -14 z" fill="url(#gradient_ds_l)" style="fill:url(#gradient_ds_l)"/>
    <path id="ds-tr" d="m 47.5,4.5 h 14 v 14 h -14 z" fill="url(#gradient_ds_tr)" style="fill:url(#gradient_ds_tr)"/>
    <path id="ds-t" d="m 16.5,4.5 h 31 v 14 h -31 z" fill="url(#gradient_ds_t)" style="fill:url(#gradient_ds_t)"/>
    <path id="ds-tl" d="m 16.5,4.5 h -14 v 14 h 14 z" fill="url(#gradient_ds_tl)" style="fill:url(#gradient_ds_tl)"/>
  </g><rect x="4.5" y="4.5" width="55" height="55" fill="url(#linearGradient1053)" stroke-linecap="round" stroke-width="2.7444" id="bg" style="fill:url(#linearGradient1053)" rx="10"/>
  <g id="art"><path transform="matrix(0.067942,0,0,0.067942,14.606,14.6064)" d="M 256,0 C 179.456,0.094 117.43,62.122 117.33,138.67 v 85.333 c 0,5.891 4.776,10.667 10.667,10.667 h 42.667 c 5.891,0 10.667,-4.776 10.667,-10.667 V 138.67 c -10e-4,-41.238 33.429,-74.667 74.666,-74.667 41.237,0 74.667,33.429 74.667,74.667 v 85.333 c 0,5.891 4.776,10.667 10.667,10.667 h 42.666 c 5.891,0 10.667,-4.776 10.667,-10.667 V 138.67 C 394.57,62.125 332.541,0.1 255.994,0 Z" fill="#ffffff" filter="url(#filter951)" id="path3"/><path transform="matrix(0.067942,0,0,0.067942,14.606,14.6064)" d="m 128,213.33 h 256 c 29.455,0 53.333,23.878 53.333,53.333 v 192 c 0,29.456 -23.878,53.334 -53.333,53.334 H 128 c -29.455,0 -53.333,-23.878 -53.333,-53.333 v -192 c 0,-29.456 23.878,-53.334 53.333,-53.334 z" fill="#ffffff" filter="url(#filter951)" id="path4"/><path transform="matrix(0.067942,0,0,0.067942,14.606,14.6064)" d="m 309.33,330.67 c 0.124,-29.455 -23.653,-53.434 -53.108,-53.558 -29.455,-0.124 -53.434,23.653 -53.558,53.108 -0.086,20.36 11.427,38.992 29.674,48.023 l -8.235,57.6 c -0.825,5.833 3.235,11.23 9.068,12.055 0.494,0.07 0.993,0.105 1.492,0.105 h 42.667 c 5.891,0.06 10.715,-4.667 10.774,-10.558 0.005,-0.543 -0.03,-1.086 -0.108,-1.623 l -8.235,-57.6 c 18.024,-9.02 29.452,-27.399 29.569,-47.552 z" fill="#0f9bff" filter="url(#filter951)" id="path5"/><path d="m 32,14.6064 c -5.2006,0.0064 -9.4147,4.2207 -9.4215,9.4215 v 5.7977 c 0,0.40025 0.32449,0.72474 0.72474,0.72474 h 2.8989 c 0.40025,0 0.72474,-0.32449 0.72474,-0.72474 v -5.7977 c -6.8e-5,-2.8018 2.2712,-5.073 5.073,-5.073 2.8017,0 5.073,2.2712 5.073,5.073 v 5.7977 c 0,0.40025 0.32449,0.72474 0.72474,0.72474 h 2.8988 c 0.40025,0 0.72474,-0.32449 0.72474,-0.72474 v -5.7977 c -0.0064,-5.2006 -4.2208,-9.4147 -9.4215,-9.4215 z" fill="#ffffff" opacity="0.6" stroke-width="0.067942" id="path6"/><path d="m 23.303,29.1014 h 17.393 c 2.0012,0 3.6236,1.6223 3.6236,3.6236 V 45.77 c 0,2.0013 -1.6223,3.6236 -3.6236,3.6236 H 23.303 c -2.0012,0 -3.6236,-1.6223 -3.6236,-3.6236 V 32.725 c 0,-2.0013 1.6223,-3.6236 3.6236,-3.6236 z" fill="#ffffff" stroke-width="0.067942" id="path7"/><path d="m 35.623,37.0734 c 0.0084,-2.0012 -1.607,-3.6304 -3.6083,-3.6388 -2.0012,-0.0084 -3.6304,1.607 -3.6388,3.6083 -0.0058,1.3833 0.77638,2.6492 2.0161,3.2628 l -0.5595,3.9135 c -0.05605,0.39631 0.21979,0.76299 0.6161,0.81904 0.03356,0.0049 0.06747,0.0072 0.10137,0.0072 h 2.8989 c 0.40025,0.0042 0.728,-0.31707 0.73201,-0.71734 3.39e-4,-0.03704 -0.002,-0.07378 -0.0073,-0.11029 l -0.55951,-3.9135 c 1.2246,-0.61284 2.001,-1.8615 2.009,-3.2308 z" color="#000000" color-rendering="auto" dominant-baseline="auto" fill="#2b3034" fill-opacity="0.99608" image-rendering="auto" shape-rendering="auto" solid-color="#000000" stop-color="#000000" style="font-variant-ligatures:normal;font-variant-position:normal;font-variant-caps:normal;font-variant-numeric:normal;font-variant-alternates:normal;font-variant-east-asian:normal;font-feature-settings:normal;font-variation-settings:normal;text-indent:0;text-decoration-line:none;text-decoration-style:solid;text-decoration-color:#000000;text-transform:none;text-orientation:mixed;white-space:normal;shape-padding:0;shape-margin:0;inline-size:0;isolation:auto;mix-blend-mode:normal" id="path8"/></g>
  
  
  
  
  
</svg>
