<?xml version="1.0" encoding="UTF-8" standalone="no"?>
<svg xmlns:inkscape="http://www.inkscape.org/namespaces/inkscape" xmlns:sodipodi="http://sodipodi.sourceforge.net/DTD/sodipodi-0.dtd" xmlns:xlink="http://www.w3.org/1999/xlink" xmlns="http://www.w3.org/2000/svg" xmlns:svg="http://www.w3.org/2000/svg" xmlns:rdf="http://www.w3.org/1999/02/22-rdf-syntax-ns#" xmlns:cc="http://creativecommons.org/ns#" xmlns:dc="http://purl.org/dc/elements/1.1/" inkscape:version="1.4.2 (ebf0e940d0, 2025-05-08)" sodipodi:docname="master-pdf-editor5.svg" id="svg29" viewBox="0 0 64 64" version="1.1" height="64" width="64" xml:space="preserve">
  
  <metadata id="metadata2">
    <rdf:RDF>
      <cc:Work rdf:about="">
        <dc:format>image/svg+xml</dc:format>
        <dc:type rdf:resource="http://purl.org/dc/dcmitype/StillImage"/>
      </cc:Work>
    </rdf:RDF>
  </metadata>
  <defs id="defs15">
    <filter color-interpolation-filters="sRGB" height="1.048" width="1.048" y="-0.024" x="-0.024" id="filter2761">
      <feGaussianBlur id="feGaussianBlur4" stdDeviation="0.14552168"/>
    </filter>
    <linearGradient gradientUnits="userSpaceOnUse" gradientTransform="translate(23.198642,0.14045)" y2="1.1082" y1="15.601" x2="15.644" x1="1.4377" id="linearGradient4673">
      <stop id="stop7" offset="0" stop-color="#dc2828"/>
      <stop id="stop9" offset="1" stop-color="#fa4141"/>
    </linearGradient>
    <filter color-interpolation-filters="sRGB" height="1.168" width="1.168" y="-0.083999999" x="-0.083999999" id="filter909">
      <feGaussianBlur id="feGaussianBlur12" stdDeviation="0.27781045"/>
    </filter>
    <filter color-interpolation-filters="sRGB" height="1.048" width="1.048" y="-0.024" x="-0.024" id="filter2761-675">
      <feGaussianBlur id="feGaussianBlur4-3" stdDeviation="0.14552168"/>
    </filter>
    <linearGradient gradientUnits="userSpaceOnUse" gradientTransform="translate(31.146088,0.14045)" y2="1.1082" y1="14.536" x2="15.644" x1="2.2495" id="linearGradient4673-562">
      <stop id="stop7-9" offset="0" stop-color="#ff5050"/>
      <stop id="stop9-1" offset=".47728" stop-color="#fa4b5a"/>
      <stop id="stop11" offset="1" stop-color="#ff7864"/>
    </linearGradient>
    <linearGradient gradientUnits="userSpaceOnUse" gradientTransform="matrix(0.32664815,0,0,0.32664815,0.63054332,0.95372475)" y2="4" y1="44" x2="0" id="linearGradient890">
      <stop id="stop4" offset="0" stop-color="#FFB900"/>
      <stop id="stop6" offset="1" stop-color="#ff0"/>
    </linearGradient>
    <filter color-interpolation-filters="sRGB" height="1.048" width="1.048" y="-0.024" x="-0.024" id="filter2761-67">
      <feGaussianBlur id="feGaussianBlur9" stdDeviation="0.14552168"/>
    </filter>
    <linearGradient gradientUnits="userSpaceOnUse" gradientTransform="matrix(3.7796,0,0,3.7796,66.443573,0.53068)" y2="1.1082" y1="15.601" x2="15.644" x1="1.4377" id="linearGradient4673-5">
      <stop id="stop12" offset="0" stop-color="#dc2828"/>
      <stop id="stop14" offset="1" stop-color="#fa4141"/>
    </linearGradient>
    <linearGradient gradientTransform="scale(0.26457812)" gradientUnits="userSpaceOnUse" y2="9.6700001" y1="54.591999" x2="34.133999" x1="34.133999" id="linearGradient915">
      <stop id="stop17" offset="0" stop-color="#ffb900"/>
      <stop id="stop19" offset="1" stop-color="#ff0"/>
    </linearGradient>
    <linearGradient id="linearGradient890-3" x2="0" y1="44" y2="4" gradientTransform="matrix(1.2346,0,0,1.2346,3.1419,3.6047)" gradientUnits="userSpaceOnUse">
      <stop stop-color="#FFB900" offset="0" id="stop861"/>
      <stop stop-color="#ff0" offset="1" id="stop863"/>
    </linearGradient>
    <filter id="filter2761-6" x="-0.024" y="-0.024" width="1.048" height="1.048" color-interpolation-filters="sRGB">
      <feGaussianBlur stdDeviation="0.14552168" id="feGaussianBlur866"/>
    </filter>
    <filter id="filter2761-3" x="-0.024" y="-0.024" width="1.048" height="1.048" color-interpolation-filters="sRGB">
      <feGaussianBlur stdDeviation="0.14552168" id="feGaussianBlur935"/>
    </filter>
    <filter id="filter909-2" x="-0.083999999" y="-0.083999999" width="1.168" height="1.168" color-interpolation-filters="sRGB">
      <feGaussianBlur stdDeviation="0.27781045" id="feGaussianBlur943"/>
    </filter>
    <linearGradient inkscape:collect="always" xlink:href="#linearGradient1051" id="linearGradient1053" x1="-127" y1="60" x2="-72" y2="5" gradientUnits="userSpaceOnUse" gradientTransform="translate(131.5,-0.50999746)"/>
    <linearGradient inkscape:collect="always" id="linearGradient1051">
      <stop style="stop-color:#df2a2a;stop-opacity:1" offset="0" id="stop1047"/>
      <stop style="stop-color:#f83f3f;stop-opacity:1" offset="1" id="stop1049"/>
    </linearGradient>
    <filter inkscape:collect="always" style="color-interpolation-filters:sRGB" id="filter1057" x="-0.026999999" width="1.054" y="-0.026999999" height="1.054">
      <feGaussianBlur inkscape:collect="always" stdDeviation="0.61875" id="feGaussianBlur1059"/>
    </filter>
  <radialGradient id="gradient_ds_br" cx="0" cy="0" r="1" gradientUnits="userSpaceOnUse" gradientTransform="matrix(13.998399,0.00477622,-0.00477841,14.004799,47.5016,48.4952)">
      <stop offset="0.65" id="stop1"/>
      <stop offset="1" stop-opacity="0" id="stop2"/>
    </radialGradient><linearGradient id="gradient_ds_b" x1="30.448999" y1="48.5" x2="30.492201" y2="62.500301" gradientUnits="userSpaceOnUse">
      <stop offset="0.653846" id="stop3"/>
      <stop offset="1" stop-opacity="0" id="stop4"/>
    </linearGradient><radialGradient id="gradient_ds_bl" cx="0" cy="0" r="1" gradientUnits="userSpaceOnUse" gradientTransform="matrix(0,14,-14,0,16.5,48.5)">
      <stop offset="0.65" id="stop5"/>
      <stop offset="1" stop-opacity="0" id="stop6"/>
    </radialGradient><linearGradient id="gradient_ds_r" x1="47.5" y1="33.5" x2="61.5" y2="33.5009" gradientUnits="userSpaceOnUse">
      <stop offset="0.649038" id="stop7"/>
      <stop offset="1" stop-opacity="0" id="stop8"/>
    </linearGradient><linearGradient id="gradient_ds_l" x1="16.5" y1="33.894699" x2="2.5" y2="33.894699" gradientUnits="userSpaceOnUse">
      <stop offset="0.649038" id="stop9"/>
      <stop offset="1" stop-opacity="0" id="stop10"/>
    </linearGradient><radialGradient id="gradient_ds_tr" cx="0" cy="0" r="1" gradientTransform="matrix(0.00843236,-14,14.0084,0.0189842,47.4916,18.5)" gradientUnits="userSpaceOnUse">
      <stop offset="0.65" id="stop11"/>
      <stop offset="1" stop-opacity="0" id="stop12"/>
    </radialGradient><linearGradient id="gradient_ds_t" x1="29.98" y1="18.5" x2="29.9158" y2="4.4998598" gradientUnits="userSpaceOnUse">
      <stop offset="0.649038" id="stop13"/>
      <stop offset="1" stop-opacity="0" id="stop14"/>
    </linearGradient><radialGradient id="gradient_ds_tl" cx="0" cy="0" r="1" gradientTransform="matrix(-0.00843236,-14,-14.0084,0.0189842,16.5084,18.5)" gradientUnits="userSpaceOnUse">
      <stop offset="0.65" id="stop15"/>
      <stop offset="1" stop-opacity="0" id="stop16"/>
    </radialGradient></defs>
  
  
  <g id="ds" opacity="0.25">
    <path id="ds-br" d="m 47.5,48.5 h 14 v 14 h -14 z" fill="url(#gradient_ds_br)" style="fill:url(#gradient_ds_br)"/>
    <path id="ds-b" d="m 16.5,48.5 h 31 v 14 h -31 z" fill="url(#gradient_ds_b)" style="fill:url(#gradient_ds_b)"/>
    <path id="ds-bl" d="m 2.5,48.5 h 14 v 14 h -14 z" fill="url(#gradient_ds_bl)" style="fill:url(#gradient_ds_bl)"/>
    <path id="ds-r" d="m 47.5,18.5 h 14 v 30 h -14 z" fill="url(#gradient_ds_r)" style="fill:url(#gradient_ds_r)"/>
    <path id="ds-l" d="m 2.5,18.5 h 14 v 30 h -14 z" fill="url(#gradient_ds_l)" style="fill:url(#gradient_ds_l)"/>
    <path id="ds-tr" d="m 47.5,4.5 h 14 v 14 h -14 z" fill="url(#gradient_ds_tr)" style="fill:url(#gradient_ds_tr)"/>
    <path id="ds-t" d="m 16.5,4.5 h 31 v 14 h -31 z" fill="url(#gradient_ds_t)" style="fill:url(#gradient_ds_t)"/>
    <path id="ds-tl" d="m 16.5,4.5 h -14 v 14 h 14 z" fill="url(#gradient_ds_tl)" style="fill:url(#gradient_ds_tl)"/>
  </g><rect y="4.5" x="4.5" height="55" width="55" id="bg" style="fill:url(#linearGradient1053);fill-opacity:1;stroke-width:2.74436;stroke-linecap:round" rx="10"/>
  <g id="art" style="fill:#ffffff;fill-opacity:1" transform="matrix(5.0588646,0,0,5.0588646,-82.164636,31.089077)">
    <path style="fill:#ffffff;fill-opacity:1;stroke:none;stroke-width:0.264578px;stroke-linecap:butt;stroke-linejoin:miter;stroke-opacity:1" d="m 19.90856,-1.7414994 -1.788954,4.197766 h 2.126345 L 21.163967,0.42407764 20.198529,-1.7312784 c 0,0 -0.130537,-0.378298 -0.289969,-0.010221 z" id="path412"/>
    <path style="fill:#ffffff;fill-opacity:1;stroke:none;stroke-width:0.264578px;stroke-linecap:butt;stroke-linejoin:miter;stroke-opacity:1" d="m 20.101871,-2.1307464 c 0,0 0.172889,0.138187 0.288504,0.338439 0.115616,0.200251 1.4837,3.3705098 1.4837,3.3705098 0,0 0.110964,0.2663119 0.24412,0 0.133156,-0.2663119 0.979268,-2.18198876 0.979268,-2.18198876 0,0 -0.325621,-1.24403204 -0.894477,-1.52649804 z" id="path968" sodipodi:nodetypes="cscsccc"/>
    <path style="fill:#ffffff;fill-opacity:1;stroke:none;stroke-width:0.264578px;stroke-linecap:butt;stroke-linejoin:miter;stroke-opacity:1" d="m 26.262674,0.67384964 c -0.152575,-0.19141 -0.61862,0.01942 -0.61862,0.01942 0,0 -2.98206,1.05683106 -3.260604,1.14706306 -0.278543,0.090232 -0.149079,-0.2118499 -0.149079,-0.2118499 l 1.029537,-2.22117316 1.082309,-0.367393 c 0,0 0.410565,-0.11096304 0.538172,0.02774 0.127608,0.138704 1.370585,1.597159 1.378285,1.606193 z" id="path1017" sodipodi:nodetypes="ccscccsc"/>
    <path style="fill:#ffffff;fill-opacity:1;stroke:none;stroke-width:0.264578px;stroke-linecap:butt;stroke-linejoin:miter;stroke-opacity:1" d="m 24.385054,1.3202128 c 0,0 -0.03329,0.1775412 0.05548,0.3328898 0.08877,0.1553487 0.405016,0.8377732 0.405016,0.8377732 h 2.169333 L 26.338006,0.95958204 c 0,0 -0.09987,-0.2718604 -0.593653,-0.1109633 C 25.250566,1.0095156 24.385052,1.3202128 24.385052,1.3202128 Z" id="path1019"/>
  </g>
</svg>
