<?xml version="1.0" encoding="UTF-8" standalone="no"?>
<svg xmlns:inkscape="http://www.inkscape.org/namespaces/inkscape" xmlns:sodipodi="http://sodipodi.sourceforge.net/DTD/sodipodi-0.dtd" xmlns:xlink="http://www.w3.org/1999/xlink" xmlns="http://www.w3.org/2000/svg" xmlns:svg="http://www.w3.org/2000/svg" xmlns:rdf="http://www.w3.org/1999/02/22-rdf-syntax-ns#" xmlns:cc="http://creativecommons.org/ns#" xmlns:dc="http://purl.org/dc/elements/1.1/" height="64" viewBox="0 0 64 64" width="64" version="1.1" id="svg26" sodipodi:docname="matlab.svg" inkscape:version="1.4.2 (ebf0e940d0, 2025-05-08)">
  <metadata id="metadata32">
    <rdf:RDF>
      <cc:Work rdf:about="">
        <dc:format>image/svg+xml</dc:format>
        <dc:type rdf:resource="http://purl.org/dc/dcmitype/StillImage"/>
      </cc:Work>
    </rdf:RDF>
  </metadata>
  <defs id="defs30">
    <linearGradient id="linearGradient4325" x1="1" x2="47" gradientUnits="userSpaceOnUse" gradientTransform="matrix(0,-1.3617021,1.3617021,0,-69.387687,63.999999)">
      <stop style="stop-color:#3b4c50;stop-opacity:1" id="stop857"/>
      <stop offset="1" style="stop-color:#44575c;stop-opacity:1" id="stop859"/>
    </linearGradient>
    <filter color-interpolation-filters="sRGB" height="1.048" width="1.048" y="-0.024" x="-0.024" id="filter2761">
      <feGaussianBlur id="feGaussianBlur4" stdDeviation="0.14552168"/>
    </filter>
    <linearGradient gradientUnits="userSpaceOnUse" gradientTransform="matrix(3.7796,0,0,3.7796,90.949235,0.53085)" y2="1.17" y1="15.576" x2="15.65" x1="1.3315001" id="linearGradient1024">
      <stop id="stop7-3" offset="0" stop-color="#323741"/>
      <stop id="stop9-6" offset="1" stop-opacity=".99608" stop-color="#465064"/>
    </linearGradient>
    <clipPath id="clipPath13429-36">
      <path id="path12-7" d="m 481,318 h 22 v 22 h -22 z"/>
    </clipPath>
    <clipPath id="clipPath13465-7">
      <path id="path15" d="m 507,318 h 22 v 22 h -22 z"/>
    </clipPath>
    <clipPath id="clipPath13501-5">
      <path id="path18-5" d="m 530,318 h 22 v 22 h -22 z"/>
    </clipPath>
    <clipPath id="clipPath13753-3">
      <path id="path21" d="m 672,1064 c 0,-1.105 4.925,-2 11,-2 6.075,0 11,0.895 11,2 0,1.105 -4.925,2 -11,2 -6.075,0 -11,-0.895 -11,-2"/>
    </clipPath>
    <clipPath id="clipPath13771-5">
      <path id="path24" d="m 660,1057 h 51 v 65.001 h -51 z"/>
    </clipPath>
    <clipPath id="clipPath14035-6">
      <path id="path27" d="m 659,517 h 53 v 18 h -53 z"/>
    </clipPath>
    <clipPath id="clipPath14127-2">
      <path id="path30" d="m 659,500 h 53 v 18 h -53 z"/>
    </clipPath>
    <clipPath id="clipPath14445-9">
      <path id="path33" d="m 648,112 h 73 v 60 h -73 z"/>
    </clipPath>
    <clipPath id="clipPath14609-1">
      <path id="path36" d="m 826,1056 h 59 v 60 h -59 z"/>
    </clipPath>
    <clipPath id="clipPath15305-27">
      <path id="path39" d="M 805,276 H 905 V 376 H 805 Z"/>
    </clipPath>
    <clipPath id="clipPath15341-09">
      <path id="path42" d="m 145,1063.8 h 74.152 v 45.21 H 145 Z"/>
    </clipPath>
    <clipPath id="clipPath15715-3">
      <path id="path45" d="m 151,667 h 57 v 57 h -57 z"/>
    </clipPath>
    <clipPath id="clipPath15807-6">
      <path id="path48" d="m 154,697 h 51 v 51 h -51 z"/>
    </clipPath>
    <clipPath id="clipPath16001-0">
      <path id="path51" d="m 500.04,864.45 h 36.012 v 67.52 H 500.04 Z"/>
    </clipPath>
    <clipPath id="clipPath16093-6">
      <path id="path54" d="m 836,870.54 h 47 v 55.539 h -47 z"/>
    </clipPath>
    <clipPath id="clipPath16477-2">
      <path id="path57" d="m 318.03,702.35 h 62.848 v 37.991 H 318.03 Z"/>
    </clipPath>
    <clipPath id="clipPath16579-6">
      <path id="path60" d="m 485.03,133.35 h 62.847 v 37.991 H 485.03 Z"/>
    </clipPath>
    <clipPath id="clipPath16709-1">
      <path id="path63" d="m 493.37,677.93 h 45.643 v 68.067 H 493.37 Z"/>
    </clipPath>
    <clipPath id="clipPath24218-87">
      <path id="path66" d="m 144.34,1018.2 h 71.467 v 78 H 144.34 Z"/>
    </clipPath>
    <clipPath id="clipPath24382-92">
      <path id="path69" d="m 293.21,1068.6 66.323,-38.292 36.047,62.435 -66.323,38.292 z"/>
    </clipPath>
    <clipPath id="clipPath24650-0">
      <path id="path72" d="m 488.86,1054.5 h 10 v 10.706 h -10 z"/>
    </clipPath>
    <clipPath id="clipPath24700-2">
      <path id="path75" d="m 508,1066.8 h 10.001 v 10.705 H 508 Z"/>
    </clipPath>
    <clipPath id="clipPath24750-3">
      <path id="path78" d="m 525,1045.8 h 10 v 10.706 h -10 z"/>
    </clipPath>
    <clipPath id="clipPath24864-7">
      <path id="path81" d="m 836,1043.7 h 25.5 v 31.5 H 836 Z"/>
    </clipPath>
    <clipPath id="clipPath24896-5">
      <path id="path84" d="m 838,1062.2 h 24 v 24 h -24 z"/>
    </clipPath>
    <clipPath id="clipPath25070-92">
      <path id="path87" d="m 134,489.24 h 7 v 6 h -7 z"/>
    </clipPath>
    <clipPath id="clipPath25100-28">
      <path id="path90" d="m 216,489.24 h 7 v 6 h -7 z"/>
    </clipPath>
    <clipPath id="clipPath25502-9">
      <path id="path93" d="m 838,477.24 h 22 v 22 h -22 z"/>
    </clipPath>
    <clipPath id="clipPath25686-73">
      <path id="path96" d="m 704,1061.2 h 25 v 25 h -25 z"/>
    </clipPath>
    <clipPath id="clipPath25788-6">
      <path id="path99" d="m 663.04,1078.6 -1.808,-3.514 -21.07,-47.453 c 13.336,-18.439 48.336,-26.938 73.836,-3.439 0.842,0 6.476,6.246 6,7 l -18.386,25.895 c -0.483,0.765 -1.453,0.946 -2.177,0.431 l -15.505,-11.011 c -0.359,-0.255 -0.847,-0.153 -1.07,0.238 l -18.272,31.869 c -0.218,0.384 -0.502,0.578 -0.782,0.578 -0.282,0 -0.561,-0.197 -0.766,-0.594"/>
    </clipPath>
    <clipPath id="clipPath26420-1">
      <path id="path102" d="m 127,820.24 h 100 v 100 H 127 Z"/>
    </clipPath>
    <clipPath id="clipPath26860-29">
      <path id="path105" d="m 809,680.24 c 0,-22.092 17.908,-40 40,-40 22.092,0 40,17.908 40,40 0,22.091 -17.908,40 -40,40 -22.092,0 -40,-17.909 -40,-40"/>
    </clipPath>
    <clipPath id="clipPath27506-3">
      <path id="path108" d="m 658,469.24 h 44 v 45 h -44 z"/>
    </clipPath>
    <clipPath id="clipPath27772-1">
      <path id="path111" d="m 651,271.24 h 58 v 58 h -58 z"/>
    </clipPath>
    <clipPath id="clipPath27864-9">
      <path id="path114" d="m 662,307.24 h 38 v 8 h -38 z"/>
    </clipPath>
    <clipPath id="clipPath28028-4">
      <path id="path117" d="m 858.98,137.24 c 0.013,-0.101 0.021,-0.203 0.021,-0.307 v -6.693 h 15.75 c 1.237,0 2.25,-1.013 2.25,-2.25 v -11.25 l -27,-4.5 -27,4.5 v -2.25 l 27,-4.5 27,4.5 v -27 c 0,-1.237 -1.013,-2.25 -2.25,-2.25 h -49.5 c -1.237,0 -2.25,1.013 -2.25,2.25 v -4.25 h 54 v 54 z m -35.979,0 v -9.25 c 0,1.237 1.013,2.25 2.25,2.25 h 15.75 v 6.693 c 0,0.104 0.007,0.207 0.02,0.307 z m 22.5,-7 h 9 v 4.5 h -9 z m 1.125,-9 c -0.62,0 -1.125,-0.506 -1.125,-1.125 v -2.25 c 0,-0.619 0.505,-1.125 1.125,-1.125 h 6.75 c 0.619,0 1.125,0.506 1.125,1.125 v 2.25 c 0,0.619 -0.506,1.125 -1.125,1.125 z"/>
    </clipPath>
    <clipPath id="clipPath28200-7">
      <path id="path120" d="m 531.27,136.24 c 6.325,-2.29 10.727,-8.277 10.727,-15.484 0,-11.316 -10.2,-20.563 -25.65,-34.575 l -4.35,-3.941 -4.35,3.941 c -15.45,14.012 -25.65,23.259 -25.65,34.575 V 81.24 h 60 v 55 z m -26.983,0 c 2.995,-1.052 5.686,-2.883 7.71,-5.25 2.024,2.367 4.715,4.198 7.71,5.25 z m -22.29,0 v -15.484 c 0,7.207 4.402,13.194 10.727,15.484 z"/>
    </clipPath>
    <clipPath id="clipPath28364-8">
      <path id="path123" d="m 648,79.241 h 64 v 64 h -64 z"/>
    </clipPath>
    <clipPath id="clipPath28984-4">
      <path id="path126" d="m 500,691.74 c 0,-3.037 2.463,-5.5 5.5,-5.5 3.037,0 5.5,2.463 5.5,5.5 0,3.037 -2.463,5.5 -5.5,5.5 -3.037,0 -5.5,-2.463 -5.5,-5.5"/>
    </clipPath>
    <clipPath id="clipPath29012-5">
      <path id="path129" d="m 500,669.74 c 0,-3.037 2.463,-5.5 5.5,-5.5 3.037,0 5.5,2.463 5.5,5.5 0,3.038 -2.463,5.5 -5.5,5.5 -3.037,0 -5.5,-2.462 -5.5,-5.5"/>
    </clipPath>
    <clipPath id="clipPath29040-0">
      <path id="path132" d="m 494,680.74 c 0,-3.037 2.462,-5.5 5.5,-5.5 3.038,0 5.5,2.463 5.5,5.5 0,3.038 -2.462,5.5 -5.5,5.5 -3.038,0 -5.5,-2.462 -5.5,-5.5"/>
    </clipPath>
    <clipPath id="clipPath29068-36">
      <path id="path135" d="m 513,691.74 c 0,-3.037 2.463,-5.5 5.5,-5.5 3.037,0 5.5,2.463 5.5,5.5 0,3.037 -2.463,5.5 -5.5,5.5 -3.037,0 -5.5,-2.463 -5.5,-5.5"/>
    </clipPath>
    <clipPath id="clipPath29096-10">
      <path id="path138" d="m 513,669.74 c 0,-3.037 2.463,-5.5 5.5,-5.5 3.037,0 5.5,2.463 5.5,5.5 0,3.038 -2.463,5.5 -5.5,5.5 -3.037,0 -5.5,-2.462 -5.5,-5.5"/>
    </clipPath>
    <clipPath id="clipPath29124-63">
      <path id="path141" d="m 507,680.74 c 0,-3.037 2.463,-5.5 5.5,-5.5 3.037,0 5.5,2.463 5.5,5.5 0,3.038 -2.463,5.5 -5.5,5.5 -3.037,0 -5.5,-2.462 -5.5,-5.5"/>
    </clipPath>
    <clipPath id="clipPath29152-2">
      <path id="path144" d="m 520,680.74 c 0,-3.037 2.463,-5.5 5.5,-5.5 3.037,0 5.5,2.463 5.5,5.5 0,3.038 -2.463,5.5 -5.5,5.5 -3.037,0 -5.5,-2.462 -5.5,-5.5"/>
    </clipPath>
    <clipPath id="clipPath29252-0">
      <path id="path147" d="m 321,322.24 c -4.97,0 -9,-4.029 -9,-9 0,-4.97 4.03,-9 9,-9 h 45 c 4.971,0 9,4.03 9,9 0,4.971 -4.029,9 -9,9 z"/>
    </clipPath>
    <clipPath id="clipPath29280-6">
      <path id="path150" d="m 322,297.24 c -4.971,0 -9,-4.029 -9,-9 0,-4.97 4.029,-9 9,-9 h 45 c 4.971,0 9,4.03 9,9 0,4.971 -4.029,9 -9,9 z"/>
    </clipPath>
    <clipPath id="clipPath29400-1">
      <path id="path153" d="m 155,83.24 h 44 v 53 h -44 z"/>
    </clipPath>
    <linearGradient gradientUnits="userSpaceOnUse" gradientTransform="matrix(1.2346,0,0,1.2346,2.3832028,3.6047)" y2="4" y1="44" x2="0" id="linearGradient890">
      <stop id="stop4-3" offset="0" stop-color="#FFB900"/>
      <stop id="stop6" offset="1" stop-color="#ff0"/>
    </linearGradient>
    <filter color-interpolation-filters="sRGB" height="1.048" width="1.048" y="-0.024" x="-0.024" id="filter2761-67">
      <feGaussianBlur id="feGaussianBlur9" stdDeviation="0.14552168"/>
    </filter>
    <linearGradient gradientUnits="userSpaceOnUse" gradientTransform="matrix(3.7796,0,0,3.7796,66.443573,0.53068)" y2="1.1082" y1="15.601" x2="15.644" x1="1.4377" id="linearGradient4673">
      <stop id="stop12" offset="0" stop-color="#dc2828"/>
      <stop id="stop14" offset="1" stop-color="#fa4141"/>
    </linearGradient>
    <linearGradient gradientUnits="userSpaceOnUse" y2="9.6700001" y1="54.591999" x2="34.133999" x1="34.133999" id="linearGradient915">
      <stop id="stop17" offset="0" stop-color="#ffb900"/>
      <stop id="stop19" offset="1" stop-color="#ff0"/>
    </linearGradient>
    <linearGradient id="linearGradient890-3" x2="0" y1="44" y2="4" gradientTransform="matrix(1.2346,0,0,1.2346,3.1419,3.6047)" gradientUnits="userSpaceOnUse">
      <stop stop-color="#FFB900" offset="0" id="stop861"/>
      <stop stop-color="#ff0" offset="1" id="stop863"/>
    </linearGradient>
    <filter id="filter2761-6" x="-0.024" y="-0.024" width="1.048" height="1.048" color-interpolation-filters="sRGB">
      <feGaussianBlur stdDeviation="0.14552168" id="feGaussianBlur866"/>
    </filter>
    <filter inkscape:collect="always" style="color-interpolation-filters:sRGB" id="filter1814" x="-0.04613975" width="1.0922795" y="-0.050016551" height="1.1000331">
      <feGaussianBlur inkscape:collect="always" stdDeviation="0.49985666" id="feGaussianBlur1816"/>
    </filter>
    <linearGradient inkscape:collect="always" xlink:href="#linearGradient1051" id="linearGradient1053" x1="-127" y1="60" x2="-72" y2="5" gradientUnits="userSpaceOnUse" gradientTransform="translate(131.5,-0.50999746)"/>
    <linearGradient inkscape:collect="always" id="linearGradient1051">
      <stop style="stop-color:#323741;stop-opacity:1" offset="0" id="stop1047"/>
      <stop style="stop-color:#465064;stop-opacity:1" offset="1" id="stop1049"/>
    </linearGradient>
    <filter inkscape:collect="always" style="color-interpolation-filters:sRGB" id="filter1057" x="-0.026999999" width="1.054" y="-0.026999999" height="1.054">
      <feGaussianBlur inkscape:collect="always" stdDeviation="0.61875" id="feGaussianBlur1059"/>
    </filter>
    <linearGradient id="a" gradientUnits="userSpaceOnUse" x1="16.440233" x2="35.620502" y1="1039.1924" y2="1010.9081">
      <stop offset="0" stop-color="#f67e17" id="stop2"/>
      <stop offset="1" stop-color="#ff7f2a" id="stop4"/>
    </linearGradient>
    <linearGradient id="b" gradientUnits="userSpaceOnUse" x1="3.4545259" x2="32.020584" y1="18.084646" y2="18.084646">
      <stop offset="0" stop-opacity=".156863" id="stop7"/>
      <stop offset="1" stop-opacity="0" id="stop9"/>
    </linearGradient>
  <radialGradient id="gradient_ds_br" cx="0" cy="0" r="1" gradientUnits="userSpaceOnUse" gradientTransform="matrix(13.998399,0.00477622,-0.00477841,14.004799,47.5016,48.4952)">
      <stop offset="0.65" id="stop1"/>
      <stop offset="1" stop-opacity="0" id="stop2"/>
    </radialGradient><linearGradient id="gradient_ds_b" x1="30.448999" y1="48.5" x2="30.492201" y2="62.500301" gradientUnits="userSpaceOnUse">
      <stop offset="0.653846" id="stop3"/>
      <stop offset="1" stop-opacity="0" id="stop4"/>
    </linearGradient><radialGradient id="gradient_ds_bl" cx="0" cy="0" r="1" gradientUnits="userSpaceOnUse" gradientTransform="matrix(0,14,-14,0,16.5,48.5)">
      <stop offset="0.65" id="stop5"/>
      <stop offset="1" stop-opacity="0" id="stop6"/>
    </radialGradient><linearGradient id="gradient_ds_r" x1="47.5" y1="33.5" x2="61.5" y2="33.5009" gradientUnits="userSpaceOnUse">
      <stop offset="0.649038" id="stop7"/>
      <stop offset="1" stop-opacity="0" id="stop8"/>
    </linearGradient><linearGradient id="gradient_ds_l" x1="16.5" y1="33.894699" x2="2.5" y2="33.894699" gradientUnits="userSpaceOnUse">
      <stop offset="0.649038" id="stop9"/>
      <stop offset="1" stop-opacity="0" id="stop10"/>
    </linearGradient><radialGradient id="gradient_ds_tr" cx="0" cy="0" r="1" gradientTransform="matrix(0.00843236,-14,14.0084,0.0189842,47.4916,18.5)" gradientUnits="userSpaceOnUse">
      <stop offset="0.65" id="stop11"/>
      <stop offset="1" stop-opacity="0" id="stop12"/>
    </radialGradient><linearGradient id="gradient_ds_t" x1="29.98" y1="18.5" x2="29.9158" y2="4.4998598" gradientUnits="userSpaceOnUse">
      <stop offset="0.649038" id="stop13"/>
      <stop offset="1" stop-opacity="0" id="stop14"/>
    </linearGradient><radialGradient id="gradient_ds_tl" cx="0" cy="0" r="1" gradientTransform="matrix(-0.00843236,-14,-14.0084,0.0189842,16.5084,18.5)" gradientUnits="userSpaceOnUse">
      <stop offset="0.65" id="stop15"/>
      <stop offset="1" stop-opacity="0" id="stop16"/>
    </radialGradient></defs>
  
  
  
  <g id="ds" opacity="0.25">
    <path id="ds-br" d="m 47.5,48.5 h 14 v 14 h -14 z" fill="url(#gradient_ds_br)" style="fill:url(#gradient_ds_br)"/>
    <path id="ds-b" d="m 16.5,48.5 h 31 v 14 h -31 z" fill="url(#gradient_ds_b)" style="fill:url(#gradient_ds_b)"/>
    <path id="ds-bl" d="m 2.5,48.5 h 14 v 14 h -14 z" fill="url(#gradient_ds_bl)" style="fill:url(#gradient_ds_bl)"/>
    <path id="ds-r" d="m 47.5,18.5 h 14 v 30 h -14 z" fill="url(#gradient_ds_r)" style="fill:url(#gradient_ds_r)"/>
    <path id="ds-l" d="m 2.5,18.5 h 14 v 30 h -14 z" fill="url(#gradient_ds_l)" style="fill:url(#gradient_ds_l)"/>
    <path id="ds-tr" d="m 47.5,4.5 h 14 v 14 h -14 z" fill="url(#gradient_ds_tr)" style="fill:url(#gradient_ds_tr)"/>
    <path id="ds-t" d="m 16.5,4.5 h 31 v 14 h -31 z" fill="url(#gradient_ds_t)" style="fill:url(#gradient_ds_t)"/>
    <path id="ds-tl" d="m 16.5,4.5 h -14 v 14 h 14 z" fill="url(#gradient_ds_tl)" style="fill:url(#gradient_ds_tl)"/>
  </g><rect style="fill:url(#linearGradient1053);fill-opacity:1;stroke-width:2.74436;stroke-linecap:round" id="bg" width="55" height="55" x="4.5" y="4.5" rx="10"/>
  <g id="art" transform="translate(68.022702,1.9940657e-4)">
    <g id="g1798" transform="matrix(1.3617021,0,0,1.3617021,-69.387687,-1.3617014)">
      <g id="g1796">
        <g transform="translate(1,1)" id="g1794">
          <g style="opacity:0.1" id="g1792">
            <!-- color: #d8466e -->
            <g id="g1790">
              <path d="m 29.23,12.06 c -0.426,0.34 -1.68,2.719 -2.934,5.555 -0.508,1.156 -1.227,2.668 -1.59,3.363 -1.078,2.059 -3.711,5.805 -4.93,7 l -1.137,1.125 0.848,0.926 c 0.52,0.57 1.207,1.754 1.777,3.078 1.082,2.523 1.27,2.887 1.477,2.887 0.098,0 0.652,-0.313 1.27,-0.707 1.379,-0.895 2.668,-2.098 4.422,-4.145 2.738,-3.191 4.793,-3.867 7.324,-2.402 0.684,0.398 1.246,0.648 1.246,0.555 0,-0.098 -0.348,-1.059 -0.766,-2.141 -0.418,-1.082 -1.559,-4.137 -2.527,-6.789 -0.691,-1.164 -2.949,-9.117 -4.48,-8.297 m -5.457,6.527 c -0.012,0 -0.027,0 -0.043,0.008 -2.316,1.039 -3.152,1.512 -3.836,2.172 -0.449,0.441 -0.816,0.91 -0.816,1.047 0,0.426 1.824,1.563 2.125,1.324 0.145,-0.117 0.715,-0.953 1.266,-1.863 0.973,-1.621 1.477,-2.664 1.305,-2.688 m -6.484,4.59 c -0.395,0 -5.992,2.168 -6.258,2.426 -0.078,0.074 0.004,0.211 0.184,0.313 0.18,0.105 1.203,0.805 2.289,1.559 1.082,0.754 2.023,1.367 2.09,1.371 0.066,0 0.563,-0.266 1.094,-0.594 1.117,-0.688 3.273,-2.816 3.262,-3.223 -0.008,-0.363 -2.156,-1.855 -2.664,-1.855 m 0.004,0.004" style="opacity:1;fill:#000000;fill-opacity:1;fill-rule:nonzero;stroke:none;filter:url(#filter1814)" id="path1788"/>
            </g>
          </g>
        </g>
      </g>
    </g>
    <path d="m -29.183432,14.992341 c -0.137532,-0.0177 -0.270979,0.0041 -0.401703,0.07489 v -0.01089 c -0.580085,0.462979 -2.287659,3.702468 -3.995234,7.564255 -0.691744,1.574128 -1.673531,3.633021 -2.167829,4.579404 -1.467915,2.803745 -5.053277,7.904681 -6.713192,9.531915 l -1.548255,1.531915 1.154723,1.260936 c 0.708086,0.77617 1.643575,2.388425 2.419745,4.191319 1.473362,3.435574 1.729362,3.931234 2.011234,3.931234 0.133447,0 0.889192,-0.426213 1.730723,-0.962724 1.877788,-1.218723 3.633022,-2.856851 6.021447,-5.644255 3.72834,-4.345191 6.526638,-5.265702 9.973106,-3.270808 0.931405,0.541957 1.696681,0.882383 1.696681,0.755745 0,-0.133447 -0.476596,-1.442043 -1.045787,-2.915405 -0.569192,-1.473361 -2.12017,-5.633361 -3.438298,-9.244595 -0.882383,-1.485617 -3.63983,-11.096511 -5.700085,-11.372936 z" style="fill:#f67e17;fill-opacity:1;fill-rule:nonzero;stroke:none;stroke-width:1.3617" id="path1800"/>
    <path d="m -37.015943,23.960511 c -0.01634,0 -0.03677,0 -0.05855,0.01089 -3.153702,1.414809 -4.292085,2.058894 -5.223489,2.957617 -0.611405,0.600511 -1.111149,1.239149 -1.111149,1.425703 0,0.580085 2.483744,2.12834 2.893617,1.802893 0.197446,-0.159319 0.973617,-1.297702 1.723914,-2.536851 1.324937,-2.207319 2.011234,-3.626213 1.777022,-3.660255 z m -8.832,6.244766 0.0027,0.0054 c -0.537873,0 -8.159319,2.952171 -8.521532,3.30349 -0.106213,0.100766 0.0082,0.285957 0.253276,0.426213 0.245107,0.142978 1.638128,1.09617 3.116937,2.122893 1.473361,1.026723 2.754723,1.861447 2.845957,1.866894 0.08987,0 0.766638,-0.362213 1.489702,-0.808851 1.521021,-0.936851 4.456851,-3.834553 4.441872,-4.388766 -0.01089,-0.494298 -2.935829,-2.525958 -3.627574,-2.525958 z" style="fill:#62cbcb;fill-opacity:1;fill-rule:nonzero;stroke:none;stroke-width:1.3617" id="path1802"/>
  </g>
</svg>
