<?xml version="1.0" encoding="UTF-8" standalone="no"?>
<svg xmlns:inkscape="http://www.inkscape.org/namespaces/inkscape" xmlns:sodipodi="http://sodipodi.sourceforge.net/DTD/sodipodi-0.dtd" xmlns:xlink="http://www.w3.org/1999/xlink" xmlns="http://www.w3.org/2000/svg" xmlns:svg="http://www.w3.org/2000/svg" width="64" height="64" xml:space="preserve" version="1.1" id="svg58" sodipodi:docname="mgba.svg" inkscape:version="1.2.2 (b0a8486541, 2022-12-01)">
  
  <defs id="defs36">
    <linearGradient id="c">
      <stop stop-color="#999a9c" offset="0" style="stop-color:#2a2c2f;stop-opacity:1" id="stop2"/>
      <stop stop-color="#f4f5f5" offset="1" style="stop-color:#424649;stop-opacity:1" id="stop4"/>
    </linearGradient>
    <linearGradient id="b">
      <stop stop-color="#2a2c2f" offset="0" style="stop-color:#2a2c2f;stop-opacity:.25" id="stop7"/>
      <stop stop-color="#424649" offset="1" style="stop-color:#424649;stop-opacity:.25" id="stop9"/>
    </linearGradient>
    <linearGradient id="d" x1="7.937" x2="7.937" y1="15.081" y2="1.852" gradientTransform="matrix(3.7796,0,0,3.7796,86.192755,0)" gradientUnits="userSpaceOnUse">
      <stop stop-color="#0e71de" offset="0" style="stop-color:#0e73de;stop-opacity:1" id="stop12"/>
      <stop stop-color="#25c9ff" offset="1" id="stop14"/>
    </linearGradient>
    <linearGradient id="i" x2="0" y1="532.8" y2="526.8" gradientTransform="matrix(1.8667,0,0,1.8667,-713.35,-960.71)" gradientUnits="userSpaceOnUse" xlink:href="#a"/>
    <linearGradient id="e" x2="0" y1="536.8" y2="532.8" gradientTransform="matrix(1.8667,0,0,1.8667,-714.884,-948.023)" gradientUnits="userSpaceOnUse" xlink:href="#b"/>
    <linearGradient id="j" x2="0" y1="20" y2="18" gradientUnits="userSpaceOnUse" xlink:href="#c" gradientTransform="matrix(1.8667,0,0,1.8667,1.126,14.82)"/>
    <linearGradient id="a">
      <stop stop-color="#999a9c" offset="0" style="stop-color:#2a2c2f;stop-opacity:1" id="stop20"/>
      <stop stop-color="#f4f5f5" offset="1" style="stop-color:#424649;stop-opacity:1" id="stop22"/>
    </linearGradient>
    <linearGradient id="h" x2="0" y1="532.8" y2="530.8" gradientTransform="matrix(1.8667,0,0,1.8667,-719.131,-961.088)" gradientUnits="userSpaceOnUse">
      <stop stop-color="#2980b9" offset="0" style="stop-color:#2a2c2f;stop-opacity:1" id="stop25"/>
      <stop stop-color="#3498db" offset="1" style="stop-color:#424649;stop-opacity:1" id="stop27"/>
    </linearGradient>
    <linearGradient id="g" x2="0" y1="530.8" y2="528.8" gradientTransform="matrix(1.8667,0,0,1.8667,-717.885,-960.976)" gradientUnits="userSpaceOnUse">
      <stop stop-color="#c0392b" offset="0" style="stop-color:#2a2c2f;stop-opacity:1" id="stop30"/>
      <stop stop-color="#e74c3c" offset="1" style="stop-color:#424649;stop-opacity:1" id="stop32"/>
    </linearGradient>
    <linearGradient id="f" x2="0" y1="536.8" y2="532.8" gradientTransform="matrix(4.66688,0,0,4.66688,-1833.248,-2466.178)" gradientUnits="userSpaceOnUse" xlink:href="#b"/>
    <filter id="filter1057" x="-0.026999999" y="-0.026999999" width="1.054" height="1.054" color-interpolation-filters="sRGB">
      <feGaussianBlur stdDeviation="0.61875" id="feGaussianBlur864"/>
    </filter>
    <linearGradient id="linearGradient1053" x1="-127" x2="-72" y1="60" y2="5" gradientTransform="translate(131.5,-0.51000007)" gradientUnits="userSpaceOnUse">
      <stop stop-color="#32d7ff" offset="0" id="stop867"/>
      <stop stop-color="#329bff" offset="1" id="stop869"/>
    </linearGradient>
    <filter id="filter914-9" x="-0.085106543" y="-0.082921858" width="1.1702131" height="1.1658437" color-interpolation-filters="sRGB">
      <feGaussianBlur stdDeviation="0.33551342" id="feGaussianBlur10-1"/>
    </filter>
  <radialGradient id="gradient_ds_br" cx="0" cy="0" r="1" gradientUnits="userSpaceOnUse" gradientTransform="matrix(13.998399,0.00477622,-0.00477841,14.004799,47.5016,48.4952)">
      <stop offset="0.65" id="stop1"/>
      <stop offset="1" stop-opacity="0" id="stop2"/>
    </radialGradient><linearGradient id="gradient_ds_b" x1="30.448999" y1="48.5" x2="30.492201" y2="62.500301" gradientUnits="userSpaceOnUse">
      <stop offset="0.653846" id="stop3"/>
      <stop offset="1" stop-opacity="0" id="stop4"/>
    </linearGradient><radialGradient id="gradient_ds_bl" cx="0" cy="0" r="1" gradientUnits="userSpaceOnUse" gradientTransform="matrix(0,14,-14,0,16.5,48.5)">
      <stop offset="0.65" id="stop5"/>
      <stop offset="1" stop-opacity="0" id="stop6"/>
    </radialGradient><linearGradient id="gradient_ds_r" x1="47.5" y1="33.5" x2="61.5" y2="33.5009" gradientUnits="userSpaceOnUse">
      <stop offset="0.649038" id="stop7"/>
      <stop offset="1" stop-opacity="0" id="stop8"/>
    </linearGradient><linearGradient id="gradient_ds_l" x1="16.5" y1="33.894699" x2="2.5" y2="33.894699" gradientUnits="userSpaceOnUse">
      <stop offset="0.649038" id="stop9"/>
      <stop offset="1" stop-opacity="0" id="stop10"/>
    </linearGradient><radialGradient id="gradient_ds_tr" cx="0" cy="0" r="1" gradientTransform="matrix(0.00843236,-14,14.0084,0.0189842,47.4916,18.5)" gradientUnits="userSpaceOnUse">
      <stop offset="0.65" id="stop11"/>
      <stop offset="1" stop-opacity="0" id="stop12"/>
    </radialGradient><linearGradient id="gradient_ds_t" x1="29.98" y1="18.5" x2="29.9158" y2="4.4998598" gradientUnits="userSpaceOnUse">
      <stop offset="0.649038" id="stop13"/>
      <stop offset="1" stop-opacity="0" id="stop14"/>
    </linearGradient><radialGradient id="gradient_ds_tl" cx="0" cy="0" r="1" gradientTransform="matrix(-0.00843236,-14,-14.0084,0.0189842,16.5084,18.5)" gradientUnits="userSpaceOnUse">
      <stop offset="0.65" id="stop15"/>
      <stop offset="1" stop-opacity="0" id="stop16"/>
    </radialGradient></defs>
  
  <g id="ds" opacity="0.25">
    <path id="ds-br" d="m 47.5,48.5 h 14 v 14 h -14 z" fill="url(#gradient_ds_br)" style="fill:url(#gradient_ds_br)"/>
    <path id="ds-b" d="m 16.5,48.5 h 31 v 14 h -31 z" fill="url(#gradient_ds_b)" style="fill:url(#gradient_ds_b)"/>
    <path id="ds-bl" d="m 2.5,48.5 h 14 v 14 h -14 z" fill="url(#gradient_ds_bl)" style="fill:url(#gradient_ds_bl)"/>
    <path id="ds-r" d="m 47.5,18.5 h 14 v 30 h -14 z" fill="url(#gradient_ds_r)" style="fill:url(#gradient_ds_r)"/>
    <path id="ds-l" d="m 2.5,18.5 h 14 v 30 h -14 z" fill="url(#gradient_ds_l)" style="fill:url(#gradient_ds_l)"/>
    <path id="ds-tr" d="m 47.5,4.5 h 14 v 14 h -14 z" fill="url(#gradient_ds_tr)" style="fill:url(#gradient_ds_tr)"/>
    <path id="ds-t" d="m 16.5,4.5 h 31 v 14 h -31 z" fill="url(#gradient_ds_t)" style="fill:url(#gradient_ds_t)"/>
    <path id="ds-tl" d="m 16.5,4.5 h -14 v 14 h 14 z" fill="url(#gradient_ds_tl)" style="fill:url(#gradient_ds_tl)"/>
  </g><rect x="4.5" y="4.5" width="55" height="55" fill="url(#linearGradient1053)" stroke-linecap="round" stroke-width="2.7444" id="bg" style="fill:url(#linearGradient1053)" rx="10"/>
  <g id="art" transform="translate(66.635294,-5.0447054)">
    <path id="path18" d="m -41.284232,46.462655 c 0,0 1.602249,-3.316866 3.133517,-3.316866 1.531268,0 14.692825,0.285701 15.724278,-0.183046 1.031264,-0.468746 5.437335,-2.312511 5.218874,-5.374972 -0.218763,-3.062498 0.2617,-8.84389 0.2617,-8.84389 0,0 1.707019,17.687403 1.457037,18.843583 -0.128469,1.078926 -0.427662,3.82458 -4.316684,4.664407 -3.88921,0.839677 -5.855737,-2.651655 -5.855737,-2.651655 0,0 -1.723574,-3.137788 -3.77862,-3.137788 h -11.844138 z" style="fill:#ffffff;fill-opacity:0.654902"/>
    <path id="path20" style="fill:#ffffff;fill-opacity:0.968627;stroke-width:3.7796" d="m -43.955525,21.679505 c 0,0 -7.875143,-0.03114 -8.71875,8.09375 0,0 -0.48185,8.269022 -1.121094,17.859375 0,0 -0.477273,4.0257 4.746094,4.734375 5.539379,0.751762 8.062632,-8.625 11.0625,-8.625 h 16.09375 c 2.391918,0 4.955078,-2.384338 4.955078,-5.78711 0,-3.402961 0.001,-8.531003 -0.002,-9.304687 0.003,-0.781809 -0.434506,-6.759802 -8.015624,-6.970703 z m 1.255859,5.777343 c 0.925941,0 1.671875,0.743981 1.671875,1.669922 v 1.494141 h 1.492187 c 0.925942,0 1.671875,0.745934 1.671875,1.671875 0,0.925941 -0.745933,1.669922 -1.671875,1.669922 h -1.492187 v 1.49414 c 0,0.925942 -0.745934,1.671875 -1.671875,1.671875 -0.925941,0 -1.671875,-0.745933 -1.671875,-1.671875 v -1.49414 h -1.492188 c -0.925941,0 -1.671875,-0.743981 -1.671875,-1.669922 0,-0.925941 0.745934,-1.671875 1.671875,-1.671875 h 1.492188 V 29.12677 c 0,-0.925941 0.745934,-1.669922 1.671875,-1.669922 z m 16.746094,0.322266 a 1.6020222,1.6020222 0 0 1 1.601562,1.601563 1.6020222,1.6020222 0 0 1 -1.601562,1.601562 1.6020222,1.6020222 0 0 1 -1.601563,-1.601562 1.6020222,1.6020222 0 0 1 1.601563,-1.601563 z m -2.91211,2.910156 a 1.6020222,1.6020222 0 0 1 1.603516,1.603516 1.6020222,1.6020222 0 0 1 -1.603516,1.601562 1.6020222,1.6020222 0 0 1 -1.601562,-1.601562 1.6020222,1.6020222 0 0 1 1.601562,-1.603516 z m 5.822266,0 a 1.6020222,1.6020222 0 0 1 1.601562,1.603516 1.6020222,1.6020222 0 0 1 -1.601562,1.601562 1.6020222,1.6020222 0 0 1 -1.601563,-1.601562 1.6020222,1.6020222 0 0 1 1.601563,-1.603516 z m -2.910156,2.91211 a 1.6020222,1.6020222 0 0 1 1.601562,1.601562 1.6020222,1.6020222 0 0 1 -1.601562,1.603516 1.6020222,1.6020222 0 0 1 -1.601563,-1.603516 1.6020222,1.6020222 0 0 1 1.601563,-1.601562 z"/>
  </g>
</svg>
