<?xml version="1.0" encoding="UTF-8" standalone="no"?>
<svg xmlns:inkscape="http://www.inkscape.org/namespaces/inkscape" xmlns:sodipodi="http://sodipodi.sourceforge.net/DTD/sodipodi-0.dtd" xmlns="http://www.w3.org/2000/svg" xmlns:svg="http://www.w3.org/2000/svg" width="64" height="64" version="1.1" id="svg15" sodipodi:docname="microsoft-edge-stable.svg" inkscape:version="1.4.2 (ebf0e940d0, 2025-05-08)">
  <sodipodi:namedview id="namedview15" pagecolor="#ffffff" bordercolor="#000000" borderopacity="0.25" inkscape:showpageshadow="2" inkscape:pageopacity="0.0" inkscape:pagecheckerboard="0" inkscape:deskcolor="#d1d1d1" inkscape:current-layer="svg15"/>
  <defs id="defs9">
    <filter id="filter1057-9-3" x="-0.026999999" y="-0.026999999" width="1.054" height="1.054" color-interpolation-filters="sRGB">
      <feGaussianBlur stdDeviation="0.61875" id="feGaussianBlur1"/>
    </filter>
    <linearGradient id="linearGradient4339-6" x1="59.5" x2="4.5" y1="4.5" y2="59.5" gradientTransform="translate(-5e-6)" gradientUnits="userSpaceOnUse">
      <stop stop-color="#0a4988" offset="0" id="stop1"/>
      <stop stop-color="#41c0f9" offset="1" id="stop2"/>
    </linearGradient>
    <filter id="filter908-7" x="-0.10799862" y="-0.10800084" width="1.2159972" height="1.2160017" color-interpolation-filters="sRGB">
      <feGaussianBlur stdDeviation="1.8805192" id="feGaussianBlur2"/>
    </filter>
    <linearGradient id="linearGradient948-5" x1="21.182" x2="49.712" y1="40.243" y2="40.243" gradientTransform="matrix(1.0202 0 0 1.0202 -.92138 -.66355)" gradientUnits="userSpaceOnUse">
      <stop stop-color="#0b4e90" offset="0" id="stop3"/>
      <stop stop-color="#0d559d" offset="1" id="stop4"/>
    </linearGradient>
    <linearGradient id="linearGradient940-3" x1="11.804" x2="30.743" y1="36.254" y2="36.254" gradientTransform="matrix(1.0202 0 0 1.0202 -.92138 -.66355)" gradientUnits="userSpaceOnUse">
      <stop stop-color="#0078d4" offset="0" id="stop5"/>
      <stop stop-color="#108ddc" offset="1" id="stop6"/>
    </linearGradient>
    <filter id="filter969-5" x="-0.079421168" y="-0.16870291" width="1.1588423" height="1.3374058" color-interpolation-filters="sRGB">
      <feGaussianBlur stdDeviation="0.86053247" id="feGaussianBlur6"/>
    </filter>
    <filter id="filter980-6" x="-0.15716941" y="-0.082264509" width="1.3143388" height="1.164529" color-interpolation-filters="sRGB">
      <feGaussianBlur stdDeviation="1.1515148" id="feGaussianBlur7"/>
    </filter>
    <linearGradient id="linearGradient932-2" x1="13.978" x2="51.089" y1="13.892" y2="33.48" gradientTransform="matrix(1.0202 0 0 1.0202 -.92138 -.66355)" gradientUnits="userSpaceOnUse">
      <stop stop-color="#40bfff" offset="0" id="stop7"/>
      <stop stop-color="#43c2ef" offset=".46856" id="stop8"/>
      <stop stop-color="#5fde56" offset="1" id="stop9"/>
    </linearGradient>
    <filter inkscape:collect="always" style="color-interpolation-filters:sRGB" id="filter1057" x="-0.026999999" width="1.054" y="-0.026999999" height="1.054">
      <feGaussianBlur inkscape:collect="always" stdDeviation="0.61875" id="feGaussianBlur1059"/>
    </filter>
  <radialGradient id="gradient_ds_br" cx="0" cy="0" r="1" gradientUnits="userSpaceOnUse" gradientTransform="matrix(13.998399,0.00477622,-0.00477841,14.004799,47.5016,48.4952)">
      <stop offset="0.65" id="stop1"/>
      <stop offset="1" stop-opacity="0" id="stop2"/>
    </radialGradient><linearGradient id="gradient_ds_b" x1="30.448999" y1="48.5" x2="30.492201" y2="62.500301" gradientUnits="userSpaceOnUse">
      <stop offset="0.653846" id="stop3"/>
      <stop offset="1" stop-opacity="0" id="stop4"/>
    </linearGradient><radialGradient id="gradient_ds_bl" cx="0" cy="0" r="1" gradientUnits="userSpaceOnUse" gradientTransform="matrix(0,14,-14,0,16.5,48.5)">
      <stop offset="0.65" id="stop5"/>
      <stop offset="1" stop-opacity="0" id="stop6"/>
    </radialGradient><linearGradient id="gradient_ds_r" x1="47.5" y1="33.5" x2="61.5" y2="33.5009" gradientUnits="userSpaceOnUse">
      <stop offset="0.649038" id="stop7"/>
      <stop offset="1" stop-opacity="0" id="stop8"/>
    </linearGradient><linearGradient id="gradient_ds_l" x1="16.5" y1="33.894699" x2="2.5" y2="33.894699" gradientUnits="userSpaceOnUse">
      <stop offset="0.649038" id="stop9"/>
      <stop offset="1" stop-opacity="0" id="stop10"/>
    </linearGradient><radialGradient id="gradient_ds_tr" cx="0" cy="0" r="1" gradientTransform="matrix(0.00843236,-14,14.0084,0.0189842,47.4916,18.5)" gradientUnits="userSpaceOnUse">
      <stop offset="0.65" id="stop11"/>
      <stop offset="1" stop-opacity="0" id="stop12"/>
    </radialGradient><linearGradient id="gradient_ds_t" x1="29.98" y1="18.5" x2="29.9158" y2="4.4998598" gradientUnits="userSpaceOnUse">
      <stop offset="0.649038" id="stop13"/>
      <stop offset="1" stop-opacity="0" id="stop14"/>
    </linearGradient><radialGradient id="gradient_ds_tl" cx="0" cy="0" r="1" gradientTransform="matrix(-0.00843236,-14,-14.0084,0.0189842,16.5084,18.5)" gradientUnits="userSpaceOnUse">
      <stop offset="0.65" id="stop15"/>
      <stop offset="1" stop-opacity="0" id="stop16"/>
    </radialGradient></defs>
  
  <g id="ds" opacity="0.25">
    <path id="ds-br" d="m 47.5,48.5 h 14 v 14 h -14 z" fill="url(#gradient_ds_br)" style="fill:url(#gradient_ds_br)"/>
    <path id="ds-b" d="m 16.5,48.5 h 31 v 14 h -31 z" fill="url(#gradient_ds_b)" style="fill:url(#gradient_ds_b)"/>
    <path id="ds-bl" d="m 2.5,48.5 h 14 v 14 h -14 z" fill="url(#gradient_ds_bl)" style="fill:url(#gradient_ds_bl)"/>
    <path id="ds-r" d="m 47.5,18.5 h 14 v 30 h -14 z" fill="url(#gradient_ds_r)" style="fill:url(#gradient_ds_r)"/>
    <path id="ds-l" d="m 2.5,18.5 h 14 v 30 h -14 z" fill="url(#gradient_ds_l)" style="fill:url(#gradient_ds_l)"/>
    <path id="ds-tr" d="m 47.5,4.5 h 14 v 14 h -14 z" fill="url(#gradient_ds_tr)" style="fill:url(#gradient_ds_tr)"/>
    <path id="ds-t" d="m 16.5,4.5 h 31 v 14 h -31 z" fill="url(#gradient_ds_t)" style="fill:url(#gradient_ds_t)"/>
    <path id="ds-tl" d="m 16.5,4.5 h -14 v 14 h 14 z" fill="url(#gradient_ds_tl)" style="fill:url(#gradient_ds_tl)"/>
  </g><rect y="4.5" x="4.5" height="55" width="55" id="bg" style="fill:url(#linearGradient4339-6);fill-opacity:1;stroke-width:2;stroke-linecap:round;font-variation-settings:normal;opacity:1;vector-effect:none;stroke-linejoin:round;stroke-miterlimit:4;stroke-dasharray:none;stroke-dashoffset:0;stroke-opacity:1;-inkscape-stroke:none;paint-order:stroke fill markers;stop-color:#000000;stop-opacity:1" rx="10"/>
  <g id="art"><path d="m31.998 12.248c-11.426-0.0011-20.732 9.1728-20.893 20.596 0.0063-0.48322 0.06388-0.9607 0.14453-1.4355-0.07468 0.48944-0.12695 0.97837-0.12695 1.4609-0.02826 3.1556 0.64682 6.2767 1.9766 9.1387 4.4983 9.5965 15.472 14.305 25.527 10.953-0.18168 0.05728-0.37597 0.09204-0.5625 0.14062 0.18298-0.04917 0.38297-0.0966 0.54102-0.14648l0.21484-0.07227c4.4975-1.5546 8.3314-4.5935 10.871-8.6172 0.36273-0.57142-0.27746-1.2486-0.86914-0.91992-2.0024 1.9701-5.108 2.4371-7.5801 2.4492-7.7242 0-14.453-5.9385-14.453-12.756 0.0201-1.8619 1.0479-3.5669 2.6836-4.457 0.50929-0.23992 1.3778-0.67552 2.5352-0.6543 1.6529 0.01209 3.2047 0.79854 4.1934 2.123 0.44913 0.5996 0.75016 1.2877 0.9082 2.0117 0.0442 1.2809-0.31303 2.4767-1.1387 3.5547-0.13222 0.17137-0.53906 0.40808-0.53906 0.92383 0 0.42598 0.27657 0.83531 0.76953 1.1797 2.3473 1.6321 6.7737 1.418 6.7852 1.418 1.7393-0.0042 3.446-0.47527 4.9414-1.3633 3.0697-1.7922 4.9595-4.1509 4.9668-7.7051 0.0424-3.6576-1.3064-6.0908-1.8516-7.168-3.4589-6.7651-10.926-10.654-19.045-10.654zm5.3945 41.021c-0.0537 0.01073-0.1062 0.02316-0.16016 0.0332 0.0529-0.01148 0.10806-0.02145 0.16016-0.0332z" filter="url(#filter908-7)" opacity=".2" id="path10"/><path class="cls-1" d="m48.823 42.599c-2.0024 1.9701-5.1085 2.4377-7.5806 2.4499-7.7242 0-14.453-5.9393-14.453-12.757 0.0201-1.8619 1.0462-3.5672 2.6819-4.4573-6.9864 0.29378-8.782 7.573-8.782 11.838 0 12.058 11.115 13.281 13.509 13.281 1.2912 0 3.2386-0.37539 4.4073-0.74424l0.21384-0.07181c4.4975-1.5546 8.3316-4.5939 10.871-8.6176 0.36273-0.57141-0.27672-1.2492-0.8684-0.92051z" fill="url(#linearGradient948-5)" id="path11"/><path class="cls-3" d="m27.737 50.903c-1.4559-0.90354-2.7177-2.0875-3.7119-3.4829-4.8243-6.6087-1.8936-15.97 5.447-19.585 0.50929-0.23992 1.3793-0.67406 2.5367-0.65284 1.6529 0.01209 3.2048 0.79724 4.1935 2.1217 0.65918 0.88001 1.0226 1.9462 1.0382 3.0455 0-0.03427 3.9927-12.992-13.059-12.992-7.166 0-13.059 6.7994-13.059 12.765-0.02826 3.1556 0.64701 6.2779 1.9768 9.1398 4.4983 9.5965 15.471 14.305 25.526 10.953-3.4424 1.0852-7.8143 0.60806-10.875-1.3057z" fill="url(#linearGradient940-3)" id="path12"/><path d="m24.164 20.602c-6.4811 0-12 4.6761-12.914 10.062-0.0846 0.71629-0.13417 1.4428-0.14453 2.1797 0.07836-5.9637 6.0069-11.496 13.059-11.496 0.57132 0 3.8291 0.05453 6.8555 1.6426 2.6672 1.4004 4.0659 3.8082 5.0371 5.4844 0.62724 1.1834 0.97062 2.3199 1.041 3.4004 0.0815-1.2965-0.26961-2.6874-1.043-4.1465-0.97124-1.6762-2.3679-4.084-5.0352-5.4844-3.0264-1.5881-6.2842-1.6426-6.8555-1.6426z" filter="url(#filter969-5)" opacity=".35" id="path13"/><path d="m24.795 19.191c-1.0829 0-2.1318 0.17086-3.1406 0.45508 0.81882-0.18428 1.6634-0.28906 2.5273-0.28906 13.111 0 13.776 7.6429 13.385 11.199 0.1801 0.5206 0.27922 1.0693 0.28711 1.627 0-0.03427 3.9928-12.992-13.059-12.992zm6.1797 8.1035c-0.64425 0.13964-1.1603 0.38005-1.502 0.54102-7.3406 3.6155-10.272 12.975-5.4473 19.584 0.99423 1.3955 2.255 2.5808 3.7109 3.4844l0.0156 0.0059c3.0602 1.9137 7.4326 2.3899 10.875 1.3047-0.44828 0.14941-0.90029 0.2632-1.3516 0.38086 0.65667-0.15028 1.3119-0.3299 1.9629-0.54688-3.4424 1.0852-7.8128 0.60906-10.873-1.3047l-0.0156-0.0078c-1.4559-0.90354-2.7167-2.0869-3.7109-3.4824-4.8243-6.6087-1.8953-15.97 5.4453-19.586 0.22489-0.10594 0.53137-0.24729 0.89062-0.37305z" filter="url(#filter980-6)" opacity=".35" id="path14"/><path class="cls-5" d="m35.97 34.872c-0.13222 0.17137-0.53867 0.40803-0.53867 0.92378 0 0.42598 0.2775 0.83564 0.77046 1.18 2.3473 1.6321 6.7726 1.4167 6.784 1.4167 1.7393-0.0042 3.4456-0.4748 4.9411-1.3628 3.0697-1.7922 4.9599-4.1515 4.9672-7.7057 0.0424-3.6576-1.3059-6.0894-1.8511-7.1666-3.4589-6.7651-10.925-10.656-19.044-10.656-11.426-0.0011-20.733 9.1744-20.894 20.597 0.07836-5.9637 6.007-11.497 13.059-11.497 0.57132 0 3.8295 0.05549 6.8558 1.6435 2.6672 1.4004 4.0645 3.8079 5.0358 5.4841 1.4117 2.6633 1.4724 5.1094-0.0849 7.1426z" fill="url(#linearGradient932-2)" id="path15"/></g>
  
  
  
  
  
</svg>
