<?xml version="1.0" encoding="UTF-8"?>
<svg xmlns="http://www.w3.org/2000/svg" xmlns:xlink="http://www.w3.org/1999/xlink" width="64" height="64" version="1.1">
  <defs>
    
    
    
    
    
    
    <filter id="filter3452" x="-.07325" y="-.076706" width="1.1465" height="1.1534" color-interpolation-filters="sRGB">
      <feGaussianBlur stdDeviation="1.1792216"/>
    </filter>
    <filter id="filter1057" x="-.027" y="-.027" width="1.054" height="1.054" color-interpolation-filters="sRGB">
      <feGaussianBlur stdDeviation="0.61875"/>
    </filter>
    <linearGradient id="linearGradient1053" x1="-127" x2="-72" y1="60" y2="5" gradientTransform="translate(131.5 -.51)" gradientUnits="userSpaceOnUse">
      <stop stop-color="#02db96" offset="0"/>
      <stop stop-color="#13d39b" offset="1"/>
    </linearGradient>
    <linearGradient id="linearGradient1146" x1="18.936" x2="18.936" y1="15.074" y2="49.835" gradientUnits="userSpaceOnUse">
      <stop stop-color="#feffff" offset="0"/>
      <stop stop-color="#baffe2" offset="1"/>
    </linearGradient>
  <radialGradient id="gradient_ds_br" cx="0" cy="0" r="1" gradientUnits="userSpaceOnUse" gradientTransform="matrix(13.998399,0.00477622,-0.00477841,14.004799,47.5016,48.4952)">
      <stop offset="0.65" id="stop1"/>
      <stop offset="1" stop-opacity="0" id="stop2"/>
    </radialGradient><linearGradient id="gradient_ds_b" x1="30.448999" y1="48.5" x2="30.492201" y2="62.500301" gradientUnits="userSpaceOnUse">
      <stop offset="0.653846" id="stop3"/>
      <stop offset="1" stop-opacity="0" id="stop4"/>
    </linearGradient><radialGradient id="gradient_ds_bl" cx="0" cy="0" r="1" gradientUnits="userSpaceOnUse" gradientTransform="matrix(0,14,-14,0,16.5,48.5)">
      <stop offset="0.65" id="stop5"/>
      <stop offset="1" stop-opacity="0" id="stop6"/>
    </radialGradient><linearGradient id="gradient_ds_r" x1="47.5" y1="33.5" x2="61.5" y2="33.5009" gradientUnits="userSpaceOnUse">
      <stop offset="0.649038" id="stop7"/>
      <stop offset="1" stop-opacity="0" id="stop8"/>
    </linearGradient><linearGradient id="gradient_ds_l" x1="16.5" y1="33.894699" x2="2.5" y2="33.894699" gradientUnits="userSpaceOnUse">
      <stop offset="0.649038" id="stop9"/>
      <stop offset="1" stop-opacity="0" id="stop10"/>
    </linearGradient><radialGradient id="gradient_ds_tr" cx="0" cy="0" r="1" gradientTransform="matrix(0.00843236,-14,14.0084,0.0189842,47.4916,18.5)" gradientUnits="userSpaceOnUse">
      <stop offset="0.65" id="stop11"/>
      <stop offset="1" stop-opacity="0" id="stop12"/>
    </radialGradient><linearGradient id="gradient_ds_t" x1="29.98" y1="18.5" x2="29.9158" y2="4.4998598" gradientUnits="userSpaceOnUse">
      <stop offset="0.649038" id="stop13"/>
      <stop offset="1" stop-opacity="0" id="stop14"/>
    </linearGradient><radialGradient id="gradient_ds_tl" cx="0" cy="0" r="1" gradientTransform="matrix(-0.00843236,-14,-14.0084,0.0189842,16.5084,18.5)" gradientUnits="userSpaceOnUse">
      <stop offset="0.65" id="stop15"/>
      <stop offset="1" stop-opacity="0" id="stop16"/>
    </radialGradient></defs>
  
  <g id="ds" opacity="0.25">
    <path id="ds-br" d="m 47.5,48.5 h 14 v 14 h -14 z" fill="url(#gradient_ds_br)" style="fill:url(#gradient_ds_br)"/>
    <path id="ds-b" d="m 16.5,48.5 h 31 v 14 h -31 z" fill="url(#gradient_ds_b)" style="fill:url(#gradient_ds_b)"/>
    <path id="ds-bl" d="m 2.5,48.5 h 14 v 14 h -14 z" fill="url(#gradient_ds_bl)" style="fill:url(#gradient_ds_bl)"/>
    <path id="ds-r" d="m 47.5,18.5 h 14 v 30 h -14 z" fill="url(#gradient_ds_r)" style="fill:url(#gradient_ds_r)"/>
    <path id="ds-l" d="m 2.5,18.5 h 14 v 30 h -14 z" fill="url(#gradient_ds_l)" style="fill:url(#gradient_ds_l)"/>
    <path id="ds-tr" d="m 47.5,4.5 h 14 v 14 h -14 z" fill="url(#gradient_ds_tr)" style="fill:url(#gradient_ds_tr)"/>
    <path id="ds-t" d="m 16.5,4.5 h 31 v 14 h -31 z" fill="url(#gradient_ds_t)" style="fill:url(#gradient_ds_t)"/>
    <path id="ds-tl" d="m 16.5,4.5 h -14 v 14 h 14 z" fill="url(#gradient_ds_tl)" style="fill:url(#gradient_ds_tl)"/>
  </g><rect x="4.5" y="4.5" width="55" height="55" fill="url(#linearGradient1053)" stroke-linecap="round" stroke-width="2.7444" id="bg" rx="10"/>
  <g id="art"><path d="m31.999 18.469c-2.2651 0-4.2777 0.84096-5.8948 2.4745-1.6163 1.6327-2.465 3.671-2.465 5.9712v11.627h5.2738v-11.627c0-0.88166 0.28768-1.571 0.91718-2.2069 0.63158-0.63793 1.3004-0.92672 2.1688-0.92672 0.8866 0 1.5454 0.28734 2.1783 0.92672 0.62951 0.6359 0.91719 1.3253 0.91719 2.2069v11.627h5.2738v-11.627c0-0.88166 0.28768-1.571 0.9172-2.2069 0.63295-0.63938 1.2917-0.92672 2.1783-0.92672 0.86841 0 1.5372 0.28879 2.1688 0.92672 0.62951 0.6359 0.91719 1.3253 0.91719 2.2069l0.02864 13.586c0 2.8981-2.7599 5.3407-6.3057 5.3407l-17.006-0.06687c-2.7362 0-5.0732-2.6633-5.0732-6.0859v-25.584h-4.9872v26.568c0 2.8189 1.0315 5.2909 3.0382 7.2898 1.7152 1.693 3.7779 2.7904 6.0955 3.0382l18.936-4.5e-5c2.9098 0 5.4662-1.082 7.5286-3.1816h0.0096c1.754-1.8021 2.7794-3.9614 3.0286-6.3916l-0.019074-14.513c0-2.3003-0.84863-4.3385-2.465-5.9712-1.6171-1.6336-3.6297-2.4745-5.8948-2.4745-2.2234 0-4.1689 0.82678-5.742 2.3407-1.5685-1.5115-3.5004-2.3407-5.7229-2.3407z" fill-opacity=".80428" filter="url(#filter3452)" opacity=".086483"/><path d="m32.017 19.209c-2.1462 0-4.0532 0.79682-5.5854 2.3446-1.5315 1.547-2.3356 3.4783-2.3356 5.6578v11.017h4.997v-11.017c0-0.83538 0.27258-1.4886 0.86903-2.0911 0.59842-0.60445 1.2321-0.87808 2.0549-0.87808 0.84006 0 1.4642 0.27226 2.064 0.87808 0.59646 0.60252 0.86905 1.2557 0.86905 2.0911v11.017h4.997v-11.017c0-0.83538 0.27258-1.4886 0.86905-2.0911 0.59972-0.60582 1.2239-0.87808 2.064-0.87808 0.82282 0 1.4565 0.27363 2.0549 0.87808 0.59646 0.60252 0.86904 1.2557 0.86904 2.0911l0.02714 12.873c0 2.746-2.6151 5.0603-5.9747 5.0603l-16.114-0.06336c-2.5926 0-4.8069-2.5235-4.8069-5.7665v-24.241h-4.7254v25.174c0 2.6709 0.97736 5.0131 2.8787 6.9071 1.6251 1.6041 3.5796 2.6439 5.7755 2.8788l17.942-4.2e-5c2.7571 0 5.1793-1.0252 7.1334-3.0146h0.0091c1.662-1.7075 2.6335-3.7535 2.8697-6.0561l-0.01808-13.751c0-2.1795-0.80408-4.1108-2.3356-5.6578-1.5322-1.5478-3.4392-2.3446-5.5854-2.3446-2.1067 0-3.95 0.78338-5.4406 2.2179-1.4862-1.4321-3.3167-2.2179-5.4225-2.2179z" fill="url(#linearGradient1146)"/></g>
  
</svg>
