<?xml version="1.0" encoding="UTF-8" standalone="no"?>
<svg xmlns:dc="http://purl.org/dc/elements/1.1/" xmlns:cc="http://creativecommons.org/ns#" xmlns:rdf="http://www.w3.org/1999/02/22-rdf-syntax-ns#" xmlns:svg="http://www.w3.org/2000/svg" xmlns="http://www.w3.org/2000/svg" xmlns:xlink="http://www.w3.org/1999/xlink" xmlns:sodipodi="http://sodipodi.sourceforge.net/DTD/sodipodi-0.dtd" xmlns:inkscape="http://www.inkscape.org/namespaces/inkscape" id="Calculator" width="64" height="64" enable-background="new 0 0 1024 1024" image-rendering="optimizeSpeed" version="1.1" viewBox="0 0 64 64" sodipodi:docname="mplayer.svg" inkscape:version="1.0.2 (e86c870879, 2021-01-15)">
  <metadata id="metadata40">
    <rdf:RDF>
      <cc:Work rdf:about="">
        <dc:format>image/svg+xml</dc:format>
        <dc:type rdf:resource="http://purl.org/dc/dcmitype/StillImage"/>
        <dc:title/>
      </cc:Work>
    </rdf:RDF>
  </metadata>
  <defs id="defs15">
    <linearGradient id="linearGradient862-3" x1="7.9373" x2="7.9373" y1="15.081" y2="1.852" gradientTransform="matrix(3.7795,0,0,3.7795,12.21929,-34.297167)" gradientUnits="userSpaceOnUse">
      <stop stop-color="#f1efeb" offset="0" id="stop2"/>
      <stop stop-color="#fdfcfc" offset="1" id="stop4"/>
    </linearGradient>
    <linearGradient id="linearGradient898" x1="29.969" x2="29.969" y1="18.796" y2="45.449" gradientTransform="matrix(2.1429 0 0 2.1429 -826.35 -1107.5)" gradientUnits="userSpaceOnUse">
      <stop stop-color="#cf30ac" offset="0" id="stop7"/>
      <stop stop-color="#ab31f8" offset="1" id="stop9"/>
    </linearGradient>
    <filter id="filter1022" x="-.108" y="-.108" width="1.216" height="1.216" color-interpolation-filters="sRGB">
      <feGaussianBlur stdDeviation="1.44" id="feGaussianBlur12"/>
    </filter>
    <filter id="filter2761" x="-.024" y="-.024" width="1.048" height="1.048" color-interpolation-filters="sRGB">
      <feGaussianBlur stdDeviation="0.14552168" id="feGaussianBlur2"/>
    </filter>
    <linearGradient id="linearGradient1024-6" x1="1.3315" x2="15.65" y1="15.576" y2="1.17" gradientUnits="userSpaceOnUse" gradientTransform="translate(-1.0835087,-2.5980447)">
      <stop stop-color="#dddfe1" offset="0" id="stop5"/>
      <stop stop-color="#f3f4f6" stop-opacity=".99608" offset="1" id="stop7-3"/>
    </linearGradient>
    
    
    <filter color-interpolation-filters="sRGB" height="1.048" width="1.048" y="-.024" x="-.024" id="filter2761-36">
      <feGaussianBlur id="feGaussianBlur849" stdDeviation="0.14552168"/>
    </filter>
    <linearGradient gradientUnits="userSpaceOnUse" y2="1.17" y1="15.576" x2="15.65" x1="1.3315" id="linearGradient1024-6-75" gradientTransform="translate(1.2431278,-8.3827998)">
      <stop id="stop852" offset="0" stop-color="#dddfe1"/>
      <stop id="stop854" offset="1" stop-opacity=".99608" stop-color="#f3f4f6"/>
    </linearGradient>
    <linearGradient id="linearGradient1057">
      <stop id="stop4-6" offset="0" stop-color="#fff"/>
      <stop id="stop6" offset="1" stop-opacity="0" stop-color="#fff"/>
    </linearGradient>
    <linearGradient gradientUnits="userSpaceOnUse" gradientTransform="matrix(1.5625,0,0,1.5625,0.40633,-5.1891)" y2="52.847" y1="27.545" x2="34.999" x1="34.999" id="linearGradient982">
      <stop id="stop9-7" offset="0" stop-color="#32b4ff"/>
      <stop id="stop11" offset="1" stop-color="#3287ff"/>
    </linearGradient>
    
    
    <linearGradient gradientUnits="userSpaceOnUse" gradientTransform="matrix(1.5625,0,0,1.5625,-9.2253,1.3231)" y2="43.681" y1="18.052" x2="21.314" x1="21.314" id="linearGradient1047">
      <stop id="stop18" offset="0" stop-color="#14dc78"/>
      <stop id="stop20" offset="1" stop-color="#14a03c"/>
    </linearGradient>
    <linearGradient gradientUnits="userSpaceOnUse" gradientTransform="matrix(1.5625,0,0,1.5625,-8.1072,-10.908)" y2="37.368" y1="12.316" x2="41.729" x1="41.729" id="linearGradient1049">
      <stop id="stop23" offset="0" stop-color="#ff3c64"/>
      <stop id="stop25" offset="1" stop-color="#ff4628"/>
    </linearGradient>
    <linearGradient xlink:href="#linearGradient1057" gradientUnits="userSpaceOnUse" gradientTransform="matrix(1,0,0,1.2271,0.20646,-10.975)" y2="39.768" y1="32.234" x2="34.427" x1="34.427" id="linearGradient1059"/>
    <linearGradient xlink:href="#linearGradient1057" gradientUnits="userSpaceOnUse" gradientTransform="matrix(1,0,0,1.2271,-12.55,-19.793)" y2="39.768" y1="32.234" x2="34.427" x1="34.427" id="linearGradient1063"/>
    <linearGradient xlink:href="#linearGradient1057" gradientUnits="userSpaceOnUse" gradientTransform="matrix(1,0,0,1.2271,5.7554,-25.761)" y2="39.768" y1="32.234" x2="34.427" x1="34.427" id="linearGradient1067"/>
    <filter color-interpolation-filters="sRGB" height="1.048" width="1.048" y="-.024" x="-.024" id="filter2761-6">
      <feGaussianBlur id="feGaussianBlur31" stdDeviation="0.14552168"/>
    </filter>
    <linearGradient gradientUnits="userSpaceOnUse" gradientTransform="matrix(3.7796,0,0,3.7796,72.4059,0.53085)" y2="1.17" y1="15.576" x2="15.65" x1="1.3315" id="linearGradient1024">
      <stop id="stop34" offset="0" stop-color="#dddfe1"/>
      <stop id="stop36" offset="1" stop-opacity=".99608" stop-color="#f3f4f6"/>
    </linearGradient>
    <filter color-interpolation-filters="sRGB" height="1.048" width="1.048" y="-.024" x="-.024" id="filter2761-3">
      <feGaussianBlur id="feGaussianBlur2-3" stdDeviation="0.14552168"/>
    </filter>
    <linearGradient gradientUnits="userSpaceOnUse" gradientTransform="translate(0 -.07421)" y2="1.17" y1="15.576" x2="15.65" x1="1.3315" id="linearGradient1024-6-7">
      <stop id="stop5-5" offset="0" stop-color="#dddfe1"/>
      <stop id="stop7-6" offset="1" stop-opacity=".99608" stop-color="#f3f4f6"/>
    </linearGradient>
    <filter inkscape:collect="always" style="color-interpolation-filters:sRGB" id="filter1057" x="-0.027000001" width="1.054" y="-0.027000001" height="1.054">
      <feGaussianBlur inkscape:collect="always" stdDeviation="0.61875" id="feGaussianBlur1059"/>
    </filter>
    <linearGradient inkscape:collect="always" xlink:href="#linearGradient1051" id="linearGradient1053" x1="-127" y1="60" x2="-72" y2="5" gradientUnits="userSpaceOnUse" gradientTransform="translate(131.50001,-0.51000076)"/>
    <linearGradient inkscape:collect="always" id="linearGradient1051">
      <stop style="stop-color:#dee0e2;stop-opacity:1" offset="0" id="stop1047"/>
      <stop style="stop-color:#f1f3f5;stop-opacity:0.99607843" offset="1" id="stop1049"/>
    </linearGradient>
  <radialGradient xmlns="http://www.w3.org/2000/svg" id="gradient_ds_br" cx="0" cy="0" r="1" gradientUnits="userSpaceOnUse" gradientTransform="matrix(13.998399,0.00477622,-0.00477841,14.004799,47.5016,48.4952)">
      <stop offset="0.65" id="stop1"/>
      <stop offset="1" stop-opacity="0" id="stop2"/>
    </radialGradient><linearGradient xmlns="http://www.w3.org/2000/svg" id="gradient_ds_b" x1="30.448999" y1="48.5" x2="30.492201" y2="62.500301" gradientUnits="userSpaceOnUse">
      <stop offset="0.653846" id="stop3"/>
      <stop offset="1" stop-opacity="0" id="stop4"/>
    </linearGradient><radialGradient xmlns="http://www.w3.org/2000/svg" id="gradient_ds_bl" cx="0" cy="0" r="1" gradientUnits="userSpaceOnUse" gradientTransform="matrix(0,14,-14,0,16.5,48.5)">
      <stop offset="0.65" id="stop5"/>
      <stop offset="1" stop-opacity="0" id="stop6"/>
    </radialGradient><linearGradient xmlns="http://www.w3.org/2000/svg" id="gradient_ds_r" x1="47.5" y1="33.5" x2="61.5" y2="33.5009" gradientUnits="userSpaceOnUse">
      <stop offset="0.649038" id="stop7"/>
      <stop offset="1" stop-opacity="0" id="stop8"/>
    </linearGradient><linearGradient xmlns="http://www.w3.org/2000/svg" id="gradient_ds_l" x1="16.5" y1="33.894699" x2="2.5" y2="33.894699" gradientUnits="userSpaceOnUse">
      <stop offset="0.649038" id="stop9"/>
      <stop offset="1" stop-opacity="0" id="stop10"/>
    </linearGradient><radialGradient xmlns="http://www.w3.org/2000/svg" id="gradient_ds_tr" cx="0" cy="0" r="1" gradientTransform="matrix(0.00843236,-14,14.0084,0.0189842,47.4916,18.5)" gradientUnits="userSpaceOnUse">
      <stop offset="0.65" id="stop11"/>
      <stop offset="1" stop-opacity="0" id="stop12"/>
    </radialGradient><linearGradient xmlns="http://www.w3.org/2000/svg" id="gradient_ds_t" x1="29.98" y1="18.5" x2="29.9158" y2="4.4998598" gradientUnits="userSpaceOnUse">
      <stop offset="0.649038" id="stop13"/>
      <stop offset="1" stop-opacity="0" id="stop14"/>
    </linearGradient><radialGradient xmlns="http://www.w3.org/2000/svg" id="gradient_ds_tl" cx="0" cy="0" r="1" gradientTransform="matrix(-0.00843236,-14,-14.0084,0.0189842,16.5084,18.5)" gradientUnits="userSpaceOnUse">
      <stop offset="0.65" id="stop15"/>
      <stop offset="1" stop-opacity="0" id="stop16"/>
    </radialGradient></defs>
  
  <g xmlns="http://www.w3.org/2000/svg" id="ds" opacity="0.25">
    <path id="ds-br" d="m 47.5,48.5 h 14 v 14 h -14 z" fill="url(#gradient_ds_br)" style="fill:url(#gradient_ds_br)"/>
    <path id="ds-b" d="m 16.5,48.5 h 31 v 14 h -31 z" fill="url(#gradient_ds_b)" style="fill:url(#gradient_ds_b)"/>
    <path id="ds-bl" d="m 2.5,48.5 h 14 v 14 h -14 z" fill="url(#gradient_ds_bl)" style="fill:url(#gradient_ds_bl)"/>
    <path id="ds-r" d="m 47.5,18.5 h 14 v 30 h -14 z" fill="url(#gradient_ds_r)" style="fill:url(#gradient_ds_r)"/>
    <path id="ds-l" d="m 2.5,18.5 h 14 v 30 h -14 z" fill="url(#gradient_ds_l)" style="fill:url(#gradient_ds_l)"/>
    <path id="ds-tr" d="m 47.5,4.5 h 14 v 14 h -14 z" fill="url(#gradient_ds_tr)" style="fill:url(#gradient_ds_tr)"/>
    <path id="ds-t" d="m 16.5,4.5 h 31 v 14 h -31 z" fill="url(#gradient_ds_t)" style="fill:url(#gradient_ds_t)"/>
    <path id="ds-tl" d="m 16.5,4.5 h -14 v 14 h 14 z" fill="url(#gradient_ds_tl)" style="fill:url(#gradient_ds_tl)"/>
  </g><rect y="4.5" x="4.5" height="55" width="55" id="bg" style="fill:url(#linearGradient1053);fill-opacity:1;stroke-width:2.74436;stroke-linecap:round" rx="10"/>
  <g id="art"><path d="m32 17.342a16 16 0 0 0-16 16 16 16 0 0 0 16 16 16 16 0 0 0 16-16 16 16 0 0 0-16-16zm-4.2598 6.6602c0.34816 0.01806 0.67355 0.13305 0.97656 0.34375l11.213 7.7266c0.3532 0.2488 0.59792 0.57707 0.73437 0.98242 0.13645 0.4054 0.13645 0.81524 0 1.2246-0.13642 0.40535-0.38109 0.7337-0.73828 0.97852l-11.209 7.7266c-0.40534 0.27692-0.84641 0.38832-1.332 0.32812-0.48561-0.0602-0.88781-0.27346-1.2129-0.63867-0.32508-0.36523-0.49023-0.79357-0.49023-1.2832v-15.451c0-0.48963 0.16515-0.91994 0.49023-1.2852 0.32512-0.36522 0.72727-0.57847 1.2129-0.63867 0.12107-0.01538 0.23942-0.01969 0.35547-0.01367z" filter="url(#filter1022)" opacity=".15" stroke-width="0" id="path33"/><path d="m32 16a16 16 0 0 0-16 16 16 16 0 0 0 16 16 16 16 0 0 0 16-16 16 16 0 0 0-16-16zm-4.2598 6.6602c0.34816 0.01806 0.67355 0.13305 0.97656 0.34375l11.213 7.7266c0.3532 0.2488 0.59792 0.57707 0.73437 0.98242 0.13645 0.4054 0.13645 0.81524 0 1.2246-0.13642 0.40535-0.38109 0.7337-0.73828 0.97852l-11.209 7.7266c-0.40534 0.27692-0.84641 0.38832-1.332 0.32812-0.48561-0.060204-0.88781-0.27346-1.2129-0.63867-0.32508-0.36523-0.49023-0.79357-0.49023-1.2832v-15.451c0-0.48963 0.16515-0.91994 0.49023-1.2852 0.32512-0.36522 0.72727-0.57847 1.2129-0.63867 0.12107-0.015385 0.23942-0.019692 0.35547-0.013672z" fill="url(#linearGradient898)" stroke-width="0" id="path35"/></g>
  
</svg>
