<?xml version="1.0" encoding="UTF-8" standalone="no"?>
<svg xmlns:dc="http://purl.org/dc/elements/1.1/" xmlns:cc="http://creativecommons.org/ns#" xmlns:rdf="http://www.w3.org/1999/02/22-rdf-syntax-ns#" xmlns:svg="http://www.w3.org/2000/svg" xmlns="http://www.w3.org/2000/svg" xmlns:sodipodi="http://sodipodi.sourceforge.net/DTD/sodipodi-0.dtd" xmlns:inkscape="http://www.inkscape.org/namespaces/inkscape" width="64" height="64" version="1.1" id="svg32" sodipodi:docname="online-account.svg" inkscape:version="1.0.2 (e86c870879, 2021-01-15)">
  <metadata id="metadata36">
    <rdf:RDF>
      <cc:Work rdf:about="">
        <dc:format>image/svg+xml</dc:format>
        <dc:type rdf:resource="http://purl.org/dc/dcmitype/StillImage"/>
        <dc:title/>
      </cc:Work>
    </rdf:RDF>
  </metadata>
  <defs id="defs20">
    <radialGradient id="radialGradient5521-1" cx="10.255" cy="9.9089003" r="12.672" fx="9.7251997" gradientTransform="matrix(0,4.9373698,-9.7202819,0,51.659243,-52.216526)" gradientUnits="userSpaceOnUse">
      <stop stop-color="#90dbec" offset="0" id="stop2"/>
      <stop stop-color="#42baea" offset=".26238" id="stop4"/>
      <stop stop-color="#3689e6" offset=".70495" id="stop6"/>
      <stop stop-color="#2b63a0" offset="1" id="stop8"/>
    </radialGradient>
    <filter id="filter975" x="-0.048" y="-0.048" width="1.096" height="1.096" color-interpolation-filters="sRGB">
      <feGaussianBlur stdDeviation="0.56" id="feGaussianBlur11"/>
    </filter>
    <filter id="filter862" x="-0.097593002" y="-0.12089" width="1.1952" height="1.2418" color-interpolation-filters="sRGB">
      <feGaussianBlur stdDeviation="0.7574652" id="feGaussianBlur14"/>
    </filter>
    <filter id="filter866" x="-0.1055" y="-0.13327" width="1.211" height="1.2665" color-interpolation-filters="sRGB">
      <feGaussianBlur stdDeviation="0.7574652" id="feGaussianBlur17"/>
    </filter>
    <linearGradient id="linearGradient963" x1="30.479" x2="31.073999" y1="14.368" y2="49.608002" gradientUnits="userSpaceOnUse">
      <stop stop-color="#f9f9f9" offset="0" id="stop959"/>
      <stop stop-color="#ccf2f6" offset="1" id="stop961" style="stop-color:#07b6ff;stop-opacity:1"/>
    </linearGradient>
    <linearGradient id="b" x1="399.57001" x2="399.57001" y1="545.79999" y2="517.79999" gradientTransform="matrix(2.1429,0,0,2.1429,-826.36,-1107.5)" gradientUnits="userSpaceOnUse">
      <stop stop-color="#3889e9" offset="0" id="stop2-3"/>
      <stop stop-color="#5ea5fb" offset="1" id="stop4-6"/>
    </linearGradient>
    <linearGradient id="f" x1="30.479" x2="31.073999" y1="14.368" y2="49.608002" gradientUnits="userSpaceOnUse">
      <stop stop-color="#f9f9f9" offset="0" id="stop7"/>
      <stop stop-color="#ccf2f6" offset="1" id="stop9"/>
    </linearGradient>
    <linearGradient id="linearGradient874" x1="357.79999" x2="357.79999" y1="546.72998" y2="523.47998" gradientTransform="matrix(2.1429,0,0,2.1429,-657.87719,-1114)" gradientUnits="userSpaceOnUse">
      <stop stop-color="#197ff1" offset="0" id="stop12"/>
      <stop stop-color="#21c6fb" offset="1" id="stop14"/>
    </linearGradient>
    <filter id="filter2761" x="-0.024" y="-0.024" width="1.048" height="1.048" color-interpolation-filters="sRGB">
      <feGaussianBlur stdDeviation="0.14552168" id="feGaussianBlur2"/>
    </filter>
    <linearGradient id="linearGradient1024" x1="1.3315001" x2="15.65" y1="15.576" y2="1.17" gradientUnits="userSpaceOnUse" gradientTransform="translate(0.7523229,-6.0494795)">
      <stop stop-color="#00c8ff" offset="0" id="stop5"/>
      <stop stop-color="#14a0ff" offset="1" id="stop7-7"/>
    </linearGradient>
    <filter id="filter914" x="-0.085106999" y="-0.082921997" width="1.1702" height="1.1658" color-interpolation-filters="sRGB">
      <feGaussianBlur stdDeviation="0.33551342" id="feGaussianBlur10"/>
    </filter>
    
    <filter id="filter1057" x="-0.027000001" y="-0.027000001" width="1.054" height="1.054" color-interpolation-filters="sRGB">
      <feGaussianBlur stdDeviation="0.61875" id="feGaussianBlur864"/>
    </filter>
    <linearGradient id="linearGradient1053" x1="-127" x2="-72" y1="60" y2="5" gradientTransform="translate(131.5,-0.51000007)" gradientUnits="userSpaceOnUse">
      <stop stop-color="#32d7ff" offset="0" id="stop867"/>
      <stop stop-color="#329bff" offset="1" id="stop869"/>
    </linearGradient>
    
    
    
    
    
    
    
  <radialGradient xmlns="http://www.w3.org/2000/svg" id="gradient_ds_br" cx="0" cy="0" r="1" gradientUnits="userSpaceOnUse" gradientTransform="matrix(13.998399,0.00477622,-0.00477841,14.004799,47.5016,48.4952)">
      <stop offset="0.65" id="stop1"/>
      <stop offset="1" stop-opacity="0" id="stop2"/>
    </radialGradient><linearGradient xmlns="http://www.w3.org/2000/svg" id="gradient_ds_b" x1="30.448999" y1="48.5" x2="30.492201" y2="62.500301" gradientUnits="userSpaceOnUse">
      <stop offset="0.653846" id="stop3"/>
      <stop offset="1" stop-opacity="0" id="stop4"/>
    </linearGradient><radialGradient xmlns="http://www.w3.org/2000/svg" id="gradient_ds_bl" cx="0" cy="0" r="1" gradientUnits="userSpaceOnUse" gradientTransform="matrix(0,14,-14,0,16.5,48.5)">
      <stop offset="0.65" id="stop5"/>
      <stop offset="1" stop-opacity="0" id="stop6"/>
    </radialGradient><linearGradient xmlns="http://www.w3.org/2000/svg" id="gradient_ds_r" x1="47.5" y1="33.5" x2="61.5" y2="33.5009" gradientUnits="userSpaceOnUse">
      <stop offset="0.649038" id="stop7"/>
      <stop offset="1" stop-opacity="0" id="stop8"/>
    </linearGradient><linearGradient xmlns="http://www.w3.org/2000/svg" id="gradient_ds_l" x1="16.5" y1="33.894699" x2="2.5" y2="33.894699" gradientUnits="userSpaceOnUse">
      <stop offset="0.649038" id="stop9"/>
      <stop offset="1" stop-opacity="0" id="stop10"/>
    </linearGradient><radialGradient xmlns="http://www.w3.org/2000/svg" id="gradient_ds_tr" cx="0" cy="0" r="1" gradientTransform="matrix(0.00843236,-14,14.0084,0.0189842,47.4916,18.5)" gradientUnits="userSpaceOnUse">
      <stop offset="0.65" id="stop11"/>
      <stop offset="1" stop-opacity="0" id="stop12"/>
    </radialGradient><linearGradient xmlns="http://www.w3.org/2000/svg" id="gradient_ds_t" x1="29.98" y1="18.5" x2="29.9158" y2="4.4998598" gradientUnits="userSpaceOnUse">
      <stop offset="0.649038" id="stop13"/>
      <stop offset="1" stop-opacity="0" id="stop14"/>
    </linearGradient><radialGradient xmlns="http://www.w3.org/2000/svg" id="gradient_ds_tl" cx="0" cy="0" r="1" gradientTransform="matrix(-0.00843236,-14,-14.0084,0.0189842,16.5084,18.5)" gradientUnits="userSpaceOnUse">
      <stop offset="0.65" id="stop15"/>
      <stop offset="1" stop-opacity="0" id="stop16"/>
    </radialGradient></defs>
  
  <g xmlns="http://www.w3.org/2000/svg" id="ds" opacity="0.25">
    <path id="ds-br" d="m 47.5,48.5 h 14 v 14 h -14 z" fill="url(#gradient_ds_br)" style="fill:url(#gradient_ds_br)"/>
    <path id="ds-b" d="m 16.5,48.5 h 31 v 14 h -31 z" fill="url(#gradient_ds_b)" style="fill:url(#gradient_ds_b)"/>
    <path id="ds-bl" d="m 2.5,48.5 h 14 v 14 h -14 z" fill="url(#gradient_ds_bl)" style="fill:url(#gradient_ds_bl)"/>
    <path id="ds-r" d="m 47.5,18.5 h 14 v 30 h -14 z" fill="url(#gradient_ds_r)" style="fill:url(#gradient_ds_r)"/>
    <path id="ds-l" d="m 2.5,18.5 h 14 v 30 h -14 z" fill="url(#gradient_ds_l)" style="fill:url(#gradient_ds_l)"/>
    <path id="ds-tr" d="m 47.5,4.5 h 14 v 14 h -14 z" fill="url(#gradient_ds_tr)" style="fill:url(#gradient_ds_tr)"/>
    <path id="ds-t" d="m 16.5,4.5 h 31 v 14 h -31 z" fill="url(#gradient_ds_t)" style="fill:url(#gradient_ds_t)"/>
    <path id="ds-tl" d="m 16.5,4.5 h -14 v 14 h 14 z" fill="url(#gradient_ds_tl)" style="fill:url(#gradient_ds_tl)"/>
  </g><rect x="4.5" y="4.5" width="55" height="55" fill="url(#linearGradient1053)" stroke-linecap="round" stroke-width="2.7444" id="bg" style="fill:url(#linearGradient1053)" rx="10"/>
  <g id="art"><path d="m -29.488736,9.5581 c -1.6964,0 -3.1606,0.89961 -4.0427,2.2169 -0.41126,-0.16307 -0.80554,-0.373 -1.2732,-0.373 -1.9988,0 -3.6318,1.6432 -3.6318,3.6472 0,0.19628 0.04564,0.36503 0.07572,0.54407 -1.1263,0.94089 -1.9085,2.297 -1.9085,3.88 0,2.8232 2.2834,5.1224 5.0972,5.1224 h 8.4331 c 2.8138,0 5.0972,-2.2992 5.0972,-5.1224 0,-2.05 -1.2306,-3.7728 -2.9685,-4.5895 0.0094,-0.12918 0.03506,-0.2572 0.03506,-0.38702 1e-6,-2.7164 -2.2057,-4.9387 -4.9135,-4.9387 z" color="#000000" color-rendering="auto" filter="url(#filter862)" image-rendering="auto" opacity="0.05" shape-rendering="auto" solid-color="#000000" style="isolation:auto;mix-blend-mode:normal" id="path961" transform="matrix(1.9551617,0,0,1.9551617,92.522687,-1.5817478)"/><path d="m 34.867342,17.067562 c -3.191215,0 -5.954836,1.837774 -7.324623,4.505084 -0.887858,-0.567349 -1.938894,-0.901017 -3.068822,-0.901017 -3.16697,0 -5.734293,2.581791 -5.734293,5.766554 0,0.506348 0.07963,0.996214 0.201577,1.464142 -2.287343,1.551402 -3.785584,4.190694 -3.785584,7.185611 0,4.792101 3.836223,8.649831 8.601343,8.649831 h 16.486119 c 4.76512,0 8.601343,-3.857926 8.601343,-8.649831 0,-3.826643 -2.456465,-7.052855 -5.868614,-8.199362 0.0926,-0.497334 0.134398,-1.007338 0.134398,-1.531693 0,-4.578207 -3.690563,-8.289495 -8.242962,-8.289495 z" color="#000000" fill="#ffffff" id="path963" style="stroke-width:1.95516"/></g>
  
</svg>
