<?xml version="1.0" encoding="UTF-8" standalone="no"?>
<svg
   width="64"
   height="64"
   version="1.1"
   id="svg7"
   sodipodi:docname="opera.svg"
   inkscape:version="1.4.2 (ebf0e940d0, 2025-05-08)"
   xmlns:inkscape="http://www.inkscape.org/namespaces/inkscape"
   xmlns:sodipodi="http://sodipodi.sourceforge.net/DTD/sodipodi-0.dtd"
   xmlns:xlink="http://www.w3.org/1999/xlink"
   xmlns="http://www.w3.org/2000/svg"
   xmlns:svg="http://www.w3.org/2000/svg">
  <sodipodi:namedview
     id="namedview7"
     pagecolor="#ffffff"
     bordercolor="#000000"
     borderopacity="0.25"
     inkscape:showpageshadow="2"
     inkscape:pageopacity="0.0"
     inkscape:pagecheckerboard="0"
     inkscape:deskcolor="#d1d1d1"
     inkscape:current-layer="svg7" />
  <defs
     id="defs5">
    <filter
       id="filter1057-6"
       x="-0.026999999"
       y="-0.026999999"
       width="1.054"
       height="1.054"
       color-interpolation-filters="sRGB">
      <feGaussianBlur
         stdDeviation="0.61875"
         id="feGaussianBlur1" />
    </filter>
    <linearGradient
       id="linearGradient1053-7"
       x1="-127"
       x2="-72"
       y1="60"
       y2="5"
       gradientTransform="translate(131.497,-0.51)"
       gradientUnits="userSpaceOnUse">
      <stop
         stop-color="#ff7d50"
         offset="0"
         id="stop1" />
      <stop
         stop-color="#ff4b5a"
         offset=".50594"
         id="stop2" />
      <stop
         stop-color="#ff509b"
         offset="1"
         id="stop3" />
    </linearGradient>
    <linearGradient
       id="e"
       x1="74.643"
       x2="83.932"
       y1="18.269"
       y2="101.96"
       gradientTransform="matrix(0.43781,0,0,0.43781,5.752,5.731)"
       gradientUnits="userSpaceOnUse"
       xlink:href="#a-5" />
    <linearGradient
       id="a-5">
      <stop
         stop-color="#ccc"
         offset="0"
         id="stop4" />
      <stop
         stop-color="#fff"
         offset="1"
         id="stop5" />
    </linearGradient>
    <linearGradient
       id="d-3"
       x1="40.533"
       x2="37.578"
       y1="107.5"
       y2="15.159"
       gradientTransform="matrix(0.43781,0,0,0.43781,5.752,5.731)"
       gradientUnits="userSpaceOnUse"
       xlink:href="#a-5" />
    <radialGradient
       id="gradient_ds_br"
       cx="0"
       cy="0"
       r="1"
       gradientUnits="userSpaceOnUse"
       gradientTransform="matrix(13.998399,0.00477622,-0.00477841,14.004799,47.5016,48.4952)">
      <stop
         offset="0.65"
         id="stop6" />
      <stop
         offset="1"
         stop-opacity="0"
         id="stop7" />
    </radialGradient>
    <linearGradient
       id="gradient_ds_b"
       x1="30.448999"
       y1="48.5"
       x2="30.492201"
       y2="62.500301"
       gradientUnits="userSpaceOnUse">
      <stop
         offset="0.653846"
         id="stop8" />
      <stop
         offset="1"
         stop-opacity="0"
         id="stop9" />
    </linearGradient>
    <radialGradient
       id="gradient_ds_bl"
       cx="0"
       cy="0"
       r="1"
       gradientUnits="userSpaceOnUse"
       gradientTransform="matrix(0,14,-14,0,16.5,48.5)">
      <stop
         offset="0.65"
         id="stop10" />
      <stop
         offset="1"
         stop-opacity="0"
         id="stop11" />
    </radialGradient>
    <linearGradient
       id="gradient_ds_r"
       x1="47.5"
       y1="33.5"
       x2="61.5"
       y2="33.5009"
       gradientUnits="userSpaceOnUse">
      <stop
         offset="0.649038"
         id="stop12" />
      <stop
         offset="1"
         stop-opacity="0"
         id="stop13" />
    </linearGradient>
    <linearGradient
       id="gradient_ds_l"
       x1="16.5"
       y1="33.894699"
       x2="2.5"
       y2="33.894699"
       gradientUnits="userSpaceOnUse">
      <stop
         offset="0.649038"
         id="stop14" />
      <stop
         offset="1"
         stop-opacity="0"
         id="stop15" />
    </linearGradient>
    <radialGradient
       id="gradient_ds_tr"
       cx="0"
       cy="0"
       r="1"
       gradientTransform="matrix(0.00843236,-14,14.0084,0.0189842,47.4916,18.5)"
       gradientUnits="userSpaceOnUse">
      <stop
         offset="0.65"
         id="stop16" />
      <stop
         offset="1"
         stop-opacity="0"
         id="stop17" />
    </radialGradient>
    <linearGradient
       id="gradient_ds_t"
       x1="29.98"
       y1="18.5"
       x2="29.9158"
       y2="4.4998598"
       gradientUnits="userSpaceOnUse">
      <stop
         offset="0.649038"
         id="stop18" />
      <stop
         offset="1"
         stop-opacity="0"
         id="stop19" />
    </linearGradient>
    <radialGradient
       id="gradient_ds_tl"
       cx="0"
       cy="0"
       r="1"
       gradientTransform="matrix(-0.00843236,-14,-14.0084,0.0189842,16.5084,18.5)"
       gradientUnits="userSpaceOnUse">
      <stop
         offset="0.65"
         id="stop20" />
      <stop
         offset="1"
         stop-opacity="0"
         id="stop21" />
    </radialGradient>
  </defs>
  <g
     id="ds"
     opacity="0.25">
    <path
       id="ds-br"
       d="m 47.5,48.5 h 14 v 14 h -14 z"
       fill="url(#gradient_ds_br)"
       style="fill:url(#gradient_ds_br)" />
    <path
       id="ds-b"
       d="m 16.5,48.5 h 31 v 14 h -31 z"
       fill="url(#gradient_ds_b)"
       style="fill:url(#gradient_ds_b)" />
    <path
       id="ds-bl"
       d="m 2.5,48.5 h 14 v 14 h -14 z"
       fill="url(#gradient_ds_bl)"
       style="fill:url(#gradient_ds_bl)" />
    <path
       id="ds-r"
       d="m 47.5,18.5 h 14 v 30 h -14 z"
       fill="url(#gradient_ds_r)"
       style="fill:url(#gradient_ds_r)" />
    <path
       id="ds-l"
       d="m 2.5,18.5 h 14 v 30 h -14 z"
       fill="url(#gradient_ds_l)"
       style="fill:url(#gradient_ds_l)" />
    <path
       id="ds-tr"
       d="m 47.5,4.5 h 14 v 14 h -14 z"
       fill="url(#gradient_ds_tr)"
       style="fill:url(#gradient_ds_tr)" />
    <path
       id="ds-t"
       d="m 16.5,4.5 h 31 v 14 h -31 z"
       fill="url(#gradient_ds_t)"
       style="fill:url(#gradient_ds_t)" />
    <path
       id="ds-tl"
       d="m 16.5,4.5 h -14 v 14 h 14 z"
       fill="url(#gradient_ds_tl)"
       style="fill:url(#gradient_ds_tl)" />
  </g>
  <rect
     x="4.5"
     y="4.5"
     width="55"
     height="55"
     fill="url(#linearGradient1053-7)"
     stroke-linecap="round"
     stroke-width="2.7444"
     id="bg"
     style="fill:url(#linearGradient1053-7)"
     rx="10" />
  <g
     id="art">
    <path
       d="m 24.508,19.553 c 2.0342,-2.4004 4.664,-3.8521 7.5321,-3.8521 6.4555,0 11.689,7.3202 11.689,16.344 0,9.0281 -5.2331,16.344 -11.689,16.344 -2.8726,0 -5.498,-1.4473 -7.5321,-3.8477 3.1814,4.1301 7.9073,6.751 13.189,6.751 3.2476,0 6.2878,-0.99282 8.8867,-2.7137 4.5405,-4.0595 7.3955,-9.9589 7.3955,-16.529 0,-6.5658 -2.8549,-12.47 -7.3955,-16.529 -2.599,-1.7253 -5.639,-2.7137 -8.8867,-2.7137 -5.2817,0 -10.007,2.621 -13.189,6.751"
       fill="url(#e)"
       image-rendering="optimizeSpeed"
       stroke-width="0.43781"
       id="path6"
       style="fill:url(#e)" />
    <path
       d="m 32.02,10 c -12.149,0 -22,9.8507 -22,22 0,11.799 9.2903,21.426 20.954,21.974 0.35025,0.01751 0.69612,0.02627 1.0464,0.02627 5.6346,0 10.77,-2.119 14.662,-5.5996 -2.5787,1.7118 -5.5952,2.6925 -8.8175,2.6925 -5.2406,0 -9.9295,-2.6006 -13.086,-6.6985 -2.4342,-2.872 -4.006,-7.1144 -4.1154,-11.878 v -1.0376 c 0.10945,-4.7634 1.6812,-9.0101 4.1154,-11.878 3.1566,-4.0979 7.8499,-6.6985 13.086,-6.6985 3.2223,0 6.2388,0.98507 8.8175,2.6969 -3.8702,-3.4631 -8.9795,-5.5777 -14.579,-5.5996 z"
       fill="url(#d-3)"
       image-rendering="optimizeSpeed"
       stroke-width="0.43781"
       id="path7"
       style="fill:url(#d-3)" />
  </g>
</svg>
