<?xml version="1.0" encoding="UTF-8" standalone="no"?>
<svg xmlns:inkscape="http://www.inkscape.org/namespaces/inkscape" xmlns:sodipodi="http://sodipodi.sourceforge.net/DTD/sodipodi-0.dtd" xmlns="http://www.w3.org/2000/svg" xmlns:svg="http://www.w3.org/2000/svg" width="64" height="64" version="1.1" id="svg9" sodipodi:docname="org.cvfosammmm.Setzer.svg" inkscape:version="1.4.2 (ebf0e940d0, 2025-05-08)">
  <sodipodi:namedview id="namedview9" pagecolor="#ffffff" bordercolor="#000000" borderopacity="0.25" inkscape:showpageshadow="2" inkscape:pageopacity="0.0" inkscape:pagecheckerboard="0" inkscape:deskcolor="#d1d1d1" inkscape:current-layer="svg9"/>
  <defs id="defs6">
    <linearGradient id="b" x1="399.57" x2="399.57" y1="545.8" y2="517.8" gradientTransform="matrix(2.1429,0,0,2.1429,-826.36,-1107.5)" gradientUnits="userSpaceOnUse">
      <stop stop-color="#3889e9" offset="0" id="stop1"/>
      <stop stop-color="#5ea5fb" offset="1" id="stop2"/>
    </linearGradient>
    <filter id="filter1057" x="-0.026999999" y="-0.026999999" width="1.054" height="1.054" color-interpolation-filters="sRGB">
      <feGaussianBlur stdDeviation="0.61875" id="feGaussianBlur2"/>
    </filter>
    <linearGradient id="linearGradient1053" x1="-127" x2="-72" y1="60" y2="5" gradientTransform="translate(131.5,-0.51)" gradientUnits="userSpaceOnUse">
      <stop stop-color="#1d2123" offset="0" id="stop3"/>
      <stop stop-color="#33393e" stop-opacity=".99608" offset="1" id="stop4"/>
    </linearGradient>
    <linearGradient id="linearGradient1418" x1="54" x2="9" y1="10" y2="46" gradientUnits="userSpaceOnUse">
      <stop stop-color="#31363b" stop-opacity=".99608" offset="0" id="stop5"/>
      <stop stop-color="#1f2325" offset="1" id="stop6"/>
    </linearGradient>
  <radialGradient id="gradient_ds_br" cx="0" cy="0" r="1" gradientUnits="userSpaceOnUse" gradientTransform="matrix(13.998399,0.00477622,-0.00477841,14.004799,47.5016,48.4952)">
      <stop offset="0.65" id="stop1"/>
      <stop offset="1" stop-opacity="0" id="stop2"/>
    </radialGradient><linearGradient id="gradient_ds_b" x1="30.448999" y1="48.5" x2="30.492201" y2="62.500301" gradientUnits="userSpaceOnUse">
      <stop offset="0.653846" id="stop3"/>
      <stop offset="1" stop-opacity="0" id="stop4"/>
    </linearGradient><radialGradient id="gradient_ds_bl" cx="0" cy="0" r="1" gradientUnits="userSpaceOnUse" gradientTransform="matrix(0,14,-14,0,16.5,48.5)">
      <stop offset="0.65" id="stop5"/>
      <stop offset="1" stop-opacity="0" id="stop6"/>
    </radialGradient><linearGradient id="gradient_ds_r" x1="47.5" y1="33.5" x2="61.5" y2="33.5009" gradientUnits="userSpaceOnUse">
      <stop offset="0.649038" id="stop7"/>
      <stop offset="1" stop-opacity="0" id="stop8"/>
    </linearGradient><linearGradient id="gradient_ds_l" x1="16.5" y1="33.894699" x2="2.5" y2="33.894699" gradientUnits="userSpaceOnUse">
      <stop offset="0.649038" id="stop9"/>
      <stop offset="1" stop-opacity="0" id="stop10"/>
    </linearGradient><radialGradient id="gradient_ds_tr" cx="0" cy="0" r="1" gradientTransform="matrix(0.00843236,-14,14.0084,0.0189842,47.4916,18.5)" gradientUnits="userSpaceOnUse">
      <stop offset="0.65" id="stop11"/>
      <stop offset="1" stop-opacity="0" id="stop12"/>
    </radialGradient><linearGradient id="gradient_ds_t" x1="29.98" y1="18.5" x2="29.9158" y2="4.4998598" gradientUnits="userSpaceOnUse">
      <stop offset="0.649038" id="stop13"/>
      <stop offset="1" stop-opacity="0" id="stop14"/>
    </linearGradient><radialGradient id="gradient_ds_tl" cx="0" cy="0" r="1" gradientTransform="matrix(-0.00843236,-14,-14.0084,0.0189842,16.5084,18.5)" gradientUnits="userSpaceOnUse">
      <stop offset="0.65" id="stop15"/>
      <stop offset="1" stop-opacity="0" id="stop16"/>
    </radialGradient></defs>
  
  <g id="ds" opacity="0.25">
    <path id="ds-br" d="m 47.5,48.5 h 14 v 14 h -14 z" fill="url(#gradient_ds_br)" style="fill:url(#gradient_ds_br)"/>
    <path id="ds-b" d="m 16.5,48.5 h 31 v 14 h -31 z" fill="url(#gradient_ds_b)" style="fill:url(#gradient_ds_b)"/>
    <path id="ds-bl" d="m 2.5,48.5 h 14 v 14 h -14 z" fill="url(#gradient_ds_bl)" style="fill:url(#gradient_ds_bl)"/>
    <path id="ds-r" d="m 47.5,18.5 h 14 v 30 h -14 z" fill="url(#gradient_ds_r)" style="fill:url(#gradient_ds_r)"/>
    <path id="ds-l" d="m 2.5,18.5 h 14 v 30 h -14 z" fill="url(#gradient_ds_l)" style="fill:url(#gradient_ds_l)"/>
    <path id="ds-tr" d="m 47.5,4.5 h 14 v 14 h -14 z" fill="url(#gradient_ds_tr)" style="fill:url(#gradient_ds_tr)"/>
    <path id="ds-t" d="m 16.5,4.5 h 31 v 14 h -31 z" fill="url(#gradient_ds_t)" style="fill:url(#gradient_ds_t)"/>
    <path id="ds-tl" d="m 16.5,4.5 h -14 v 14 h 14 z" fill="url(#gradient_ds_tl)" style="fill:url(#gradient_ds_tl)"/>
  </g><rect x="4.5" y="4.5" width="55" height="55" fill="url(#linearGradient1053)" stroke-width="2.7444" id="bg" style="fill:url(#linearGradient1053);stroke-linecap:round" rx="10"/>
  <g id="art">
    <rect x="7.5" y="7.5" width="49" height="49" ry="7" fill="#ffffff" stroke-width="2.445" id="rect8" style="stroke-linecap:round"/>
    <g transform="translate(0,1)" fill="#deddda" id="g9">
      <path transform="translate(0,-1)" d="m30 15v16h22v-16h-22zm0 17v2h15v-2h-15zm-18 4v8h10v-2h30v-6h-40zm0 10v6h34v-2h6v-4h-40z" fill="#000" opacity=".15" id="path8"/>
    </g>
    <rect x="28" y="11" width="19" height="2" opacity=".35" stroke-width=".97468" id="rect9"/>
  </g>
  <g id="em">
    <path d="M 28.477,7 C 22.5582,7.37564 15.20988,5.1242012 10.30588,8.4596012 9.6530105,8.8853812 9.5422803,10.14117 9.7281,10.43403 c -0.13601,0.24328 -0.13608,0.24913 -0.0065,0.53331 0.17426,0.38226 0.58173,0.76126 1.1421,1.0633 0.52546,0.28319 0.62676,0.47614 0.52312,1.0066 -0.06421,0.3286 -0.0024,0.79929 0.12672,0.95496 0.04468,0.05387 0.24784,0.2131 0.45163,0.35332 0.29333,0.20182 0.37191,0.29301 0.37365,0.43998 0.0079,0.65224 0.64075,1.3143 1.3663,1.4299 0.27733,0.04419 0.34731,0.25043 0.1787,0.52164 -0.21883,0.35198 -0.06022,1.2589 0.28268,1.6199 0.08976,0.09451 0.18484,0.25612 0.2112,0.35998 0.02636,0.10386 0.15188,0.28125 0.27943,0.39332 0.20004,0.17575 0.23185,0.24498 0.22744,0.49998 -0.0028,0.16259 0.04853,0.4346 0.11372,0.60497 0.06519,0.17036 0.14461,0.44919 0.17708,0.61997 0.0706,0.37142 0.26721,0.88845 0.39477,1.0383 0.05059,0.05943 0.09189,0.15624 0.0926,0.21666 0.0023,0.19288 0.26357,0.69877 0.4825,0.93329 0.13093,0.14025 0.30113,0.24118 0.44514,0.26332 0.1282,0.01968 0.23352,0.06373 0.23394,0.09833 4.16e-4,0.0346 0.06861,0.15511 0.15109,0.26666 0.10252,0.13864 0.20877,0.2017 0.33466,0.19999 0.17347,-0.0023 0.19035,0.02569 0.30055,0.49664 0.06435,0.275 0.17344,0.56143 0.24206,0.63664 0.06862,0.07521 0.14823,0.24511 0.17708,0.37665 0.02884,0.13154 0.07802,0.28705 0.10885,0.34498 0.03082,0.05791 0.07462,0.19022 0.09748,0.29499 0.04741,0.21725 0.54462,0.56729 0.90002,0.6333 0.19994,0.03715 0.2165,0.06055 0.20632,0.29165 -0.01009,0.22954 0.0088,0.25669 0.22582,0.32832 0.25097,0.08284 0.25732,0.1073 0.17221,0.59497 -0.03744,0.21453 -0.02574,0.2596 0.06499,0.25832 0.06374,-8.03e-4 0.11118,0.05416 0.1121,0.13166 9.15e-4,0.07354 0.097,0.28806 0.21444,0.47664 0.20209,0.32452 0.20788,0.35195 0.10722,0.50331 -0.17551,0.26392 -0.13117,0.55772 0.12022,0.79497 0.1219,0.11504 0.28275,0.24236 0.35741,0.28332 v 0.0017 c 0.07466,0.04092 0.17682,0.07514 0.22744,0.075 0.003,2.9e-5 0.09766,-0.03932 0.11372,-0.045 l 0.7798,-0.08166 0.22094,0.13999 -0.0195,0.20666 -0.81716,0.29332 -0.05036,-0.0017 -2.4125,-0.05166 -4.9517,-0.27999 c -2.2296,-0.18604 -2.1846,-0.28682 -2.4418,-0.36166 -0.18887,-0.05496 -0.51016,-0.01062 -0.72456,0.13 -0.32886,0.21568 -0.33556,0.34268 -0.04711,0.81996 0.29257,0.4841 0.27872,0.61401 -0.09585,0.89496 -0.3811,0.2859 -0.39255,0.40523 -0.08285,0.92329 0.31184,0.5217 0.29962,0.62759 -0.0991,0.85996 -0.52469,0.3058 -0.60902,1.2034 -0.12997,1.3833 0.22312,0.08377 0.14169,0.30191 -0.25993,0.6983 -0.6882,0.67927 -0.71459,0.96162 -0.18845,1.9966 0.2161,0.42504 0.34298,0.82311 0.28268,0.88496 -0.060304,0.06186 0.05011,0.42733 0.24531,0.8133 0.41479,0.82017 2.2244,1.3449 3.6228,1.3666 -0.14346,0.49659 0.21595,0.1297 0.61897,-0.11333 0.4043,-0.10122 0.36288,-0.25771 0.67583,0.06333 -0.32881,1.3715 1.6926,1.4429 2.726,1.1 0.12624,0.1701 0.26118,0.30614 1.4329,0.60664 l 1.8845,-1.2799 c 0.82271,-0.86703 1.0385,-1.0635 1.852,-1.8566 1.1974,-1.1672 1.2548,-1.5564 2.6741,-2.4099 0.39169,-0.15682 1.5751,-0.23715 1.8147,-0.26166 l 2.1721,1.115 0.83179,1.2799 1.6636,0.8533 1.2477,0.8533 1.1908,0.28332 -0.0017,0.02666 0.59135,0.15999 0.07636,0.46665 0.71157,0.08166 0.04549,0.45665 0.63196,0.04499 -0.0195,0.36832 0.73106,0.16833 0.18358,0.46498 0.45976,-0.06666 0.35741,0.57831 0.58485,-0.02832 0.2778,0.49498 0.86428,0.05833 0.10722,0.45331 0.88702,-0.21332 0.71157,0.55831 0.48412,-0.26832 0.02925,0.41665 0.68395,0.21332 0.502,-0.20499 0.49062,0.37332 0.62222,-0.28332 0.80904,0.20499 0.39477,-0.17999 0.38178,0.39832 0.83179,-0.04499 0.52799,-0.35998 0.4094,0.03833 0.82366,-0.13999 0.35903,-0.36498 0.83179,0.12666 0.87565,-0.60164 0.48575,0.18333 1.9056,-0.42832 -0.49712,-0.58497 2.8203,-1.1166 -0.35903,-0.34332 -0.41264,0.09667 2.9324,-2.5282 1.5807,-2.4749 1.1161,-2.0282 0.32004,-0.92329 0.05036,-0.46165 -0.33954,0.28999 -1.0933,2.0182 0.0926,-0.51498 -0.40452,0.28499 -1.3825,1.8466 -1.8342,1.3083 -2.0697,0.065 -2.3296,-0.62664 -2.4125,-1.1283 -1.3971,-0.78163 -0.65796,-0.13833 -0.97962,-0.6683 -3.1549,-2.6132 -2.086,-1.2099 -0.19657,-0.15666 0.04386,-0.48998 -0.45651,-0.38332 c 0.08187,-0.06901 0.2994,-0.25339 0.65146,-0.55498 l 0.74406,-0.63831 0.35903,-0.21499 c 0.19736,-0.11834 0.52165,-0.31265 0.72131,-0.43165 l 0.36394,-0.21499 0.60922,-0.22332 c 0.59648,-0.21813 0.61472,-0.22398 0.90814,-0.29165 l 0.30055,-0.06999 0.24369,0.055 c 0.28128,0.0631 0.64669,0.10442 0.83504,0.09499 0.06802,-0.0038 0.1276,-0.0013 0.13159,0.0033 0.004,0.0045 0.03115,0.06049 0.06011,0.12499 l 0.05199,0.11666 0.05199,-0.11333 c 0.04745,-0.10366 0.05474,-0.13225 0.09748,-0.35998 L 46.39193,28.12008 46.35131,27.74343 46.30907,27.36678 46.09137,26.68682 45.8883,26.4185 C 45.6936,26.16098 45.68226,26.148 45.6105,26.10518 45.56931,26.08064 45.42929,25.99766 45.3002,25.92019 l -0.23394,-0.14166 -0.76193,-0.06999 -0.2112,-0.11833 c -0.17582,-0.09797 -0.28332,-0.1461 -0.65146,-0.28999 l -0.44026,-0.17166 -0.52799,-0.05667 -0.52636,-0.05667 -0.41914,0.11666 -0.76193,0.42165 -0.58972,0.13833 v 0.0017 l -1.2867,0.28832 h -1.1307 l -0.94876,-0.42665 -1.7351,-1.2799 h -0.0017 c -0.01199,-0.02601 -0.21121,-0.22977 -0.44676,-0.42498 -0.23686,-0.19632 -0.55678,-0.62144 -0.72778,-0.85329 -0.64788,-0.87847 -1.5347,-2.8945 -2.3833,-5.4114 -0.26182,-0.77657 -0.58953,-1.7052 -0.72781,-2.0649 -0.55118,-1.4335 -1.0613,-3.0069 -1.2948,-3.9948 -0.1999,-0.8457 -0.62875,-3.3483 -0.82854,-3.9573 z" fill="url(#linearGradient1418)" stroke-width="0.84247" id="path9" sodipodi:nodetypes="ccccccsccsccsccscscscsccsscscccssccssscccccccccccscsccccccsscccccccccccccccccccccccccccccccccccccccccccccccccccccccccccccccccccccccccccccccccccccccccccccccccccccccccccccccccccccccc"/>
  </g>
</svg>
