<?xml version="1.0" encoding="UTF-8" standalone="no"?>
<svg xmlns:inkscape="http://www.inkscape.org/namespaces/inkscape" xmlns:sodipodi="http://sodipodi.sourceforge.net/DTD/sodipodi-0.dtd" xmlns="http://www.w3.org/2000/svg" xmlns:svg="http://www.w3.org/2000/svg" xmlns:rdf="http://www.w3.org/1999/02/22-rdf-syntax-ns#" xmlns:cc="http://creativecommons.org/ns#" xmlns:dc="http://purl.org/dc/elements/1.1/" width="64" height="64" version="1.1" viewBox="0 0 64 64" id="svg24" sodipodi:docname="pgadmin.svg" inkscape:version="1.4.2 (ebf0e940d0, 2025-05-08)">
  <sodipodi:namedview id="namedview1" pagecolor="#ffffff" bordercolor="#000000" borderopacity="0.25" inkscape:showpageshadow="2" inkscape:pageopacity="0.0" inkscape:pagecheckerboard="0" inkscape:deskcolor="#d1d1d1" showgrid="false" inkscape:current-layer="art">
    <inkscape:grid id="grid2" units="px" originx="0" originy="0" spacingx="0.5" spacingy="0.5" empcolor="#0099e5" empopacity="0.30196078" color="#0099e5" opacity="0.14902" empspacing="2" enabled="true" visible="false"/>
  </sodipodi:namedview>
  <metadata id="metadata2">
    <rdf:RDF>
      <cc:Work rdf:about="">
        <dc:format>image/svg+xml</dc:format>
        <dc:type rdf:resource="http://purl.org/dc/dcmitype/StillImage"/>
      </cc:Work>
    </rdf:RDF>
  </metadata>
  <defs id="defs12">
    <linearGradient id="linearGradient4" x1="157.71584" x2="365.58463" y1="224.21278" y2="16.344011" gradientTransform="matrix(0.26459,0,0,0.26459,-37.230034,0.17553828)" gradientUnits="userSpaceOnUse">
      <stop stop-color="#e1e1e1" offset="0" id="stop3" style="stop-color:#274968;stop-opacity:1;"/>
      <stop stop-color="#f5f5f5" offset="1" id="stop4" style="stop-color:#336791;stop-opacity:1;"/>
    </linearGradient>
    <filter id="filter2761-3" x="-0.024" y="-0.024" width="1.048" height="1.048" color-interpolation-filters="sRGB">
      <feGaussianBlur stdDeviation="0.14552168" id="feGaussianBlur4"/>
    </filter>
    <linearGradient id="linearGradient1024" x1="1.3315001" x2="15.65" y1="15.576" y2="1.17" gradientTransform="translate(-8.4984e-4,0.14045)" gradientUnits="userSpaceOnUse">
      <stop stop-color="#dddfe1" offset="0" id="stop7"/>
      <stop stop-color="#f3f4f6" stop-opacity=".99608" offset="1" id="stop9"/>
    </linearGradient>
    <filter color-interpolation-filters="sRGB" height="1.048" width="1.048" y="-0.024" x="-0.024" id="filter2761-3-3">
      <feGaussianBlur id="feGaussianBlur2" stdDeviation="0.14552168"/>
    </filter>
    <linearGradient gradientUnits="userSpaceOnUse" gradientTransform="matrix(3.7796,0,0,3.7796,-0.0026448,0.53066)" y2="1.17" y1="15.576" x2="15.65" x1="1.3315001" id="linearGradient1024-6">
      <stop id="stop5" offset="0" stop-color="#dddfe1"/>
      <stop id="stop7-7" offset="1" stop-opacity=".99608" stop-color="#f3f4f6"/>
    </linearGradient>
    <filter inkscape:collect="always" style="color-interpolation-filters:sRGB" id="filter1057" x="-0.026999999" width="1.054" y="-0.026999999" height="1.054">
      <feGaussianBlur inkscape:collect="always" stdDeviation="0.61875" id="feGaussianBlur1059"/>
    </filter>
    <linearGradient id="linearGradient1053-6" x1="93.596672" x2="-114.28144" y1="17.352598" y2="225.23071" gradientTransform="matrix(0.26457812,0,0,0.26457812,34.736368,-0.09111671)" gradientUnits="userSpaceOnUse">
      <stop stop-color="#2b93c9" offset="0" id="stop1" style="stop-color:#9ecde2;stop-opacity:1;"/>
      <stop stop-color="#6cb8e0" offset="1" id="stop2" style="stop-color:#4f93b9;stop-opacity:1;"/>
    </linearGradient>
    <linearGradient id="linearGradient2070-5-6" x1="157.71584" x2="365.58463" y1="224.21278" y2="16.344011" gradientTransform="matrix(0.26459,0,0,0.26459,-37.230034,0.17553828)" gradientUnits="userSpaceOnUse">
      <stop stop-color="#e1e1e1" offset="0" id="stop3125" style="stop-color:#c5d3e0;stop-opacity:1;"/>
      <stop stop-color="#f5f5f5" offset="1" id="stop3127" style="stop-color:#e9eef2;stop-opacity:1;"/>
    </linearGradient>
  <radialGradient id="gradient_ds_br" cx="0" cy="0" r="1" gradientUnits="userSpaceOnUse" gradientTransform="matrix(13.998399,0.00477622,-0.00477841,14.004799,47.5016,48.4952)">
      <stop offset="0.65" id="stop1"/>
      <stop offset="1" stop-opacity="0" id="stop2"/>
    </radialGradient><linearGradient id="gradient_ds_b" x1="30.448999" y1="48.5" x2="30.492201" y2="62.500301" gradientUnits="userSpaceOnUse">
      <stop offset="0.653846" id="stop3"/>
      <stop offset="1" stop-opacity="0" id="stop4"/>
    </linearGradient><radialGradient id="gradient_ds_bl" cx="0" cy="0" r="1" gradientUnits="userSpaceOnUse" gradientTransform="matrix(0,14,-14,0,16.5,48.5)">
      <stop offset="0.65" id="stop5"/>
      <stop offset="1" stop-opacity="0" id="stop6"/>
    </radialGradient><linearGradient id="gradient_ds_r" x1="47.5" y1="33.5" x2="61.5" y2="33.5009" gradientUnits="userSpaceOnUse">
      <stop offset="0.649038" id="stop7"/>
      <stop offset="1" stop-opacity="0" id="stop8"/>
    </linearGradient><linearGradient id="gradient_ds_l" x1="16.5" y1="33.894699" x2="2.5" y2="33.894699" gradientUnits="userSpaceOnUse">
      <stop offset="0.649038" id="stop9"/>
      <stop offset="1" stop-opacity="0" id="stop10"/>
    </linearGradient><radialGradient id="gradient_ds_tr" cx="0" cy="0" r="1" gradientTransform="matrix(0.00843236,-14,14.0084,0.0189842,47.4916,18.5)" gradientUnits="userSpaceOnUse">
      <stop offset="0.65" id="stop11"/>
      <stop offset="1" stop-opacity="0" id="stop12"/>
    </radialGradient><linearGradient id="gradient_ds_t" x1="29.98" y1="18.5" x2="29.9158" y2="4.4998598" gradientUnits="userSpaceOnUse">
      <stop offset="0.649038" id="stop13"/>
      <stop offset="1" stop-opacity="0" id="stop14"/>
    </linearGradient><radialGradient id="gradient_ds_tl" cx="0" cy="0" r="1" gradientTransform="matrix(-0.00843236,-14,-14.0084,0.0189842,16.5084,18.5)" gradientUnits="userSpaceOnUse">
      <stop offset="0.65" id="stop15"/>
      <stop offset="1" stop-opacity="0" id="stop16"/>
    </radialGradient></defs>
  
  <g id="ds" opacity="0.25">
    <path id="ds-br" d="m 47.5,48.5 h 14 v 14 h -14 z" fill="url(#gradient_ds_br)" style="fill:url(#gradient_ds_br)"/>
    <path id="ds-b" d="m 16.5,48.5 h 31 v 14 h -31 z" fill="url(#gradient_ds_b)" style="fill:url(#gradient_ds_b)"/>
    <path id="ds-bl" d="m 2.5,48.5 h 14 v 14 h -14 z" fill="url(#gradient_ds_bl)" style="fill:url(#gradient_ds_bl)"/>
    <path id="ds-r" d="m 47.5,18.5 h 14 v 30 h -14 z" fill="url(#gradient_ds_r)" style="fill:url(#gradient_ds_r)"/>
    <path id="ds-l" d="m 2.5,18.5 h 14 v 30 h -14 z" fill="url(#gradient_ds_l)" style="fill:url(#gradient_ds_l)"/>
    <path id="ds-tr" d="m 47.5,4.5 h 14 v 14 h -14 z" fill="url(#gradient_ds_tr)" style="fill:url(#gradient_ds_tr)"/>
    <path id="ds-t" d="m 16.5,4.5 h 31 v 14 h -31 z" fill="url(#gradient_ds_t)" style="fill:url(#gradient_ds_t)"/>
    <path id="ds-tl" d="m 16.5,4.5 h -14 v 14 h 14 z" fill="url(#gradient_ds_tl)" style="fill:url(#gradient_ds_tl)"/>
  </g><rect style="fill:url(#linearGradient2070-5-6);fill-opacity:1;stroke-width:1.00001088;stroke-linecap:butt;font-variation-settings:normal;opacity:1;vector-effect:none;stroke-linejoin:miter;stroke-miterlimit:4;stroke-dasharray:none;stroke-dashoffset:0;stroke-opacity:1;-inkscape-stroke:none;stop-color:#000000;stop-opacity:1" id="bg" width="55" height="55" x="4.5" y="4.5" rx="10"/>
  <g transform="matrix(3.779602,0,0,3.779602,0.21035375,-0.1656146)" fill="#333333" stroke-width="0.65762" id="art" style="display:inline">
    <style type="text/css" id="style1"><![CDATA[
	.st0{fill:#FFFFFF;}
	.st1{fill:#336791;}
]]></style>
    <style type="text/css" id="style1-6"><![CDATA[
	.st0{fill:#FFFFFF;}
	.st1{fill:#336791;}
]]></style>
    <path id="path1-2" style="display:inline;fill:none;stroke:#000000;stroke-width:0.661445;stroke-dasharray:none;stroke-opacity:1" class="st1" d="m 10.891265,2.9567611 c -0.294008,0.00979 -0.558659,0.046397 -0.772548,0.087848 -0.1714894,0.033161 -0.3115087,0.070276 -0.4072019,0.0987 C 9.6514231,3.1607273 9.59514,3.1773985 9.5430532,3.1939513 9.2812486,3.1303236 8.9980089,3.0924672 8.6919592,3.0874999 8.0667537,3.0773726 7.5820887,3.2366435 7.2068077,3.4921184 6.5857676,3.2613928 2.5996617,1.9371153 2.8035457,6.0112948 2.8281796,6.5077625 3.2175052,8.5275187 3.809666,9.928808 c 0.1951762,0.465202 0.4149348,0.866318 0.653694,1.130658 0.2728677,0.303186 0.5744325,0.439509 0.9022527,0.322971 0.1544356,-0.05495 0.3077153,-0.16793 0.458361,-0.349842 0.418742,-0.504139 0.802321,-0.917908 0.9451433,-1.0696812 0.1588605,0.085543 0.3324574,0.1436882 0.5141703,0.1689782 0.054953,0.0085 0.110581,0.01206 0.1674284,0.01395 5.401e-4,0.0068 9.655e-4,0.01353 0.00155,0.02015 -0.049007,0.05775 -0.086323,0.105322 -0.119887,0.147792 -0.1515932,0.193281 -0.1989947,0.25277 -0.7286233,0.361728 -0.2378118,0.04927 -0.381703,0.115661 -0.4593945,0.188615 -0.080534,0.0758 -0.1073136,0.160962 -0.094049,0.249076 0.011369,0.0739 0.052446,0.140466 0.1121356,0.196366 0.101378,0.09475 0.2736103,0.172163 0.4128866,0.207219 0.1913863,0.04737 0.508028,0.105164 0.8557448,0.04547 0.2620351,-0.04484 0.53914,-0.155158 0.7901172,-0.383432 -0.00421,0.486268 0.00254,0.952042 0.019637,1.347179 0.025581,0.544788 0.074235,0.967091 0.1462414,1.146161 0.072954,0.182859 0.1885099,0.45421 0.4320065,0.65886 0.2472863,0.208441 0.6125683,0.338053 1.1668309,0.219621 0.4462521,-0.09569 0.7542711,-0.239842 0.9740811,-0.468179 0.220757,-0.229285 0.34131,-0.531278 0.41237,-0.941527 0.04169,-0.241601 0.102313,-0.687247 0.15916,-1.136342 0.04514,-0.355661 0.0869,-0.709534 0.114719,-0.96478 0.03507,0.01146 0.07228,0.02107 0.111619,0.02894 0.150646,0.03032 0.339923,0.03772 0.537941,0.02635 0.336347,-0.01895 0.703456,-0.09387 0.94411,-0.205668 0.321188,-0.148751 0.585129,-0.353361 0.700719,-0.511587 0.05021,-0.06916 0.08096,-0.13814 0.08475,-0.202567 0.0066,-0.106115 -0.03832,-0.1884394 -0.141591,-0.2377072 -0.07959,-0.038846 -0.202813,-0.046338 -0.376198,-0.010335 -0.898098,0.1850462 -1.168213,0.068796 -1.248477,-0.0062 0.679281,-1.0302275 1.171887,-2.181083 1.448462,-3.1832055 0.321188,-1.1634775 0.346939,-2.1459625 0.03617,-2.5429471 -0.824998,-1.05452 -1.97046,-1.2674994 -2.852483,-1.238143 z"/>
    <g id="g12" transform="matrix(0.09474573,0,0,0.09474573,2.7958781,2.953719)" style="display:inline;stroke-width:1.83641">
      <path class="st1" d="M 113.53,75.55 C 98.88,78.57 97.87,73.61 97.87,73.61 113.34,50.66 119.8,21.52 114.22,14.39 99,-5.06 72.65,4.14 72.21,4.38 L 72.06,4.4 C 69.17,3.8 65.93,3.44 62.29,3.38 55.66,3.27 50.63,5.12 46.82,8.01 c 0,0 -47.01,-19.37 -44.82,24.36 0.47,9.3 13.33,70.38 28.68,51.93 5.61,-6.75 11.03,-12.45 11.03,-12.45 2.69,1.79 5.92,2.7 9.29,2.37 L 51.26,74 c -0.08,0.84 -0.04,1.66 0.1,2.63 -3.95,4.42 -2.79,5.19 -10.7,6.82 -8,1.65 -3.3,4.58 -0.23,5.35 3.72,0.93 12.32,2.25 18.14,-5.89 l -0.23,0.93 c 1.55,1.24 2.64,8.07 2.46,14.26 -0.18,6.19 -0.3,10.44 0.92,13.76 1.22,3.32 2.44,10.79 12.83,8.56 8.68,-1.86 13.18,-6.68 13.81,-14.72 0.44,-5.72 1.45,-4.87 1.51,-9.98 l 0.81,-2.42 c 0.93,-7.75 0.15,-10.25 5.5,-9.09 l 1.3,0.11 c 3.94,0.18 9.09,-0.63 12.11,-2.04 6.49,-3.01 10.36,-8.06 3.94,-6.73 z" id="path1" style="display:inline;stroke-width:1.83641"/>
      <path class="st0" d="m 57.39,79.94 c 0.03,-1 0.86,-1.79 1.86,-1.76 1,0.03 1.79,0.86 1.76,1.86 -0.21,7.43 -0.17,14.88 0.1,20.84 0.25,5.37 0.68,9.41 1.28,10.91 0.64,1.59 1.63,3.94 3.53,5.53 1.85,1.56 4.7,2.51 9.24,1.54 3.97,-0.85 6.64,-2.06 8.42,-3.91 1.76,-1.83 2.76,-4.42 3.38,-8.04 0.46,-2.64 1.09,-7.25 1.66,-11.84 0.72,-5.74 1.38,-11.54 1.52,-13.41 0.07,-1 0.94,-1.75 1.94,-1.67 1,0.07 1.75,0.94 1.67,1.94 -0.14,1.82 -0.8,7.69 -1.55,13.6 -0.6,4.74 -1.24,9.44 -1.68,11.99 -0.75,4.33 -2.02,7.52 -4.35,9.94 -2.32,2.41 -5.57,3.93 -10.28,4.94 -5.85,1.25 -9.71,-0.12 -12.32,-2.32 -2.57,-2.16 -3.79,-5.02 -4.56,-6.95 -0.76,-1.89 -1.27,-6.35 -1.54,-12.1 -0.26,-6.01 -0.29,-13.56 -0.08,-21.09 z" id="path2" style="display:inline;stroke-width:1.83641"/>
      <path class="st0" d="m 47.41,6.01 c 0.93,0.37 1.38,1.42 1.01,2.35 C 48.05,9.29 47,9.74 46.07,9.37 45.95,9.32 1.65,-8.78 3.7,32.1 c 0.25,5.05 4.25,25.71 10.33,40.12 1.92,4.54 4.03,8.42 6.27,10.9 1.87,2.08 3.78,3.08 5.62,2.42 1.02,-0.37 2.11,-1.2 3.26,-2.58 5.63,-6.77 10.75,-12.12 10.77,-12.13 0.69,-0.72 1.83,-0.75 2.55,-0.06 0.72,0.69 0.75,1.83 0.06,2.55 -0.01,0.01 -5.01,5.22 -10.6,11.95 -1.59,1.92 -3.21,3.11 -4.84,3.69 C 23.66,90.19 20.48,88.75 17.6,85.55 15.08,82.76 12.76,78.53 10.7,73.62 4.45,58.83 0.34,37.51 0.08,32.27 -2.25,-14.29 47.27,5.95 47.41,6.01 Z" id="path3" style="display:inline;stroke-width:1.83641"/>
      <path class="st0" d="M 73.1,5.73 70.41,2.79 C 70.63,2.71 70.85,2.64 71.07,2.58 71.66,2.39 72.3,2.2 72.99,2 74,1.7 75.48,1.31 77.29,0.96 c 9.03,-1.75 26.65,-2.7 38.26,12.14 3.28,4.19 3.01,14.56 -0.38,26.84 -3,10.87 -8.41,23.4 -15.89,34.5 -0.56,0.83 -1.69,1.05 -2.52,0.49 -0.83,-0.56 -1.05,-1.69 -0.49,-2.52 7.26,-10.77 12.5,-22.92 15.41,-33.44 3.1,-11.22 3.59,-20.37 1.02,-23.65 C 102.28,2.01 86.21,2.91 77.96,4.52 76.27,4.85 74.92,5.2 74,5.47 Z" id="path4" style="display:inline;stroke-width:1.83641"/>
      <path class="st0" d="m 99.49,72.87 c 0.02,0.05 0.03,0.1 0.04,0.15 0,0.01 0.62,3.24 13.53,0.58 1.83,-0.38 3.13,-0.3 3.97,0.11 1.09,0.52 1.56,1.39 1.49,2.51 -0.04,0.68 -0.36,1.41 -0.89,2.14 -1.22,1.67 -4.01,3.83 -7.4,5.4 -2.54,1.18 -6.41,1.97 -9.96,2.17 -2.09,0.12 -4.09,0.04 -5.68,-0.28 -2,-0.4 -3.52,-1.23 -4.15,-2.58 -0.17,-0.36 -0.27,-0.75 -0.29,-1.17 -0.4,-7.02 3.02,-8.25 5.41,-8.93 C 95.31,72.61 94.97,72.18 94.59,71.71 93.38,70.2 91.83,68.26 90.6,65.29 90.41,64.84 89.86,63.84 89.12,62.52 85.99,56.91 79.83,45.85 81.04,38.3 81.9,32.91 86.01,29.33 96.28,30.4 l -0.1,-0.3 C 95.69,28.71 94.91,26.89 93.78,24.85 89.3,16.69 79.53,5.31 62.18,5.03 35.71,4.6 36.58,37.98 36.58,38.07 c 0.02,1 -0.78,1.82 -1.78,1.84 -1,0.02 -1.82,-0.78 -1.84,-1.78 0,-0.11 -0.98,-37.21 29.27,-36.72 19.1,0.31 29.82,12.77 34.72,21.69 1.22,2.22 2.09,4.24 2.64,5.81 0.62,1.76 0.85,3.14 0.75,3.75 -0.14,0.9 -0.64,1.46 -1.5,1.63 l -0.65,0.01 c -9.42,-1.51 -12.98,0.8 -13.58,4.56 -1.01,6.33 4.75,16.65 7.67,21.9 0.79,1.42 1.39,2.5 1.66,3.16 1.04,2.51 2.4,4.21 3.46,5.55 0.99,1.21 1.77,2.19 2.09,3.4 z m 14.3,4.27 c -9.57,1.98 -14.03,0.53 -16.08,-1.03 -0.28,0.09 -0.58,0.17 -0.9,0.26 -1.28,0.36 -3.27,0.92 -3.06,5.22 0.15,0.16 0.71,0.33 1.53,0.5 1.31,0.26 2.99,0.32 4.78,0.22 3.13,-0.18 6.5,-0.85 8.65,-1.85 2.21,-1.03 4.06,-2.27 5.2,-3.35 z" id="path5" style="display:inline;stroke-width:1.83641"/>
      <path class="st0" d="m 52.6,77.67 c -0.74,0.83 -1.35,1.6 -1.87,2.26 -2.22,2.82 -2.91,3.7 -9.8,5.12 -1.24,0.26 -2.08,0.51 -2.6,0.76 0.64,0.46 1.6,0.84 2.44,1.05 1.7,0.43 4.52,0.94 7.54,0.43 2.94,-0.5 6.11,-2.01 8.68,-5.61 0.08,-0.12 0.15,-0.25 0.21,-0.38 0.26,-0.63 0.2,-1.42 -0.06,-2.17 -0.28,-0.8 -0.79,-1.5 -1.38,-1.93 -0.14,-0.1 -0.28,-0.18 -0.43,-0.24 l -0.09,-0.04 c -0.37,-0.15 -0.78,-0.31 -1.13,-0.28 -0.38,0.04 -0.86,0.3 -1.51,1.03 z m -4.72,0.01 c 0.49,-0.62 1.06,-1.34 1.92,-2.31 0.07,-0.09 0.15,-0.18 0.23,-0.26 1.33,-1.44 2.6,-1.98 3.77,-2.08 1.16,-0.1 2.06,0.23 2.82,0.55 0.03,0.01 0.06,0.02 0.1,0.04 0.39,0.16 0.77,0.38 1.14,0.64 1.19,0.85 2.17,2.2 2.7,3.67 0.54,1.53 0.63,3.24 -0.01,4.76 -0.16,0.38 -0.36,0.74 -0.61,1.09 -3.24,4.54 -7.28,6.44 -11.02,7.08 -3.67,0.63 -7.01,0.02 -9.03,-0.48 -1.47,-0.37 -3.29,-1.19 -4.36,-2.19 -0.63,-0.59 -1.06,-1.29 -1.18,-2.07 -0.14,-0.93 0.14,-1.83 0.99,-2.63 0.82,-0.77 2.34,-1.47 4.85,-1.99 5.59,-1.15 6.09,-1.78 7.69,-3.82 z" id="path6" style="display:inline;stroke-width:1.83641"/>
      <path class="st0" d="m 52.79,76.1 c 0.15,0.99 -0.53,1.92 -1.52,2.06 -0.99,0.14 -1.92,-0.53 -2.06,-1.52 -0.04,-0.24 -0.06,-0.48 -0.08,-0.73 -0.6,-0.02 -1.19,-0.06 -1.77,-0.15 -3.88,-0.54 -7.39,-2.5 -10.03,-5.4 -2.61,-2.86 -4.37,-6.64 -4.78,-10.86 -0.15,-1.5 -0.12,-3.06 0.1,-4.63 0.89,-6.34 0.55,-12.01 0.38,-14.95 -0.05,-0.8 -0.08,-1.4 -0.08,-1.86 0.01,-1.19 3,-3.81 6.94,-5.43 1.78,-0.73 3.77,-1.34 5.74,-1.64 2.08,-0.31 4.18,-0.28 6.07,0.31 2.96,0.93 5.31,3.12 6.21,7.31 3.25,15.01 0.34,21.46 -1.93,26.51 -0.39,0.87 -0.76,1.69 -1.04,2.43 -0.01,0.05 -0.03,0.09 -0.05,0.14 -0.95,2.56 0.44,-1.19 -0.28,0.72 -1.13,3.08 -2.12,5.72 -1.82,7.69 z m -3.27,-3.8 c 0.39,-1.61 1.03,-3.31 1.71,-5.14 0.54,-1.44 -0.87,2.33 0.26,-0.72 0.02,-0.05 0.04,-0.1 0.06,-0.15 0.35,-0.93 0.73,-1.76 1.12,-2.64 2.06,-4.57 4.68,-10.41 1.69,-24.25 -0.58,-2.69 -1.99,-4.07 -3.75,-4.62 -1.32,-0.41 -2.87,-0.42 -4.46,-0.18 -1.7,0.26 -3.4,0.78 -4.92,1.4 -2.67,1.09 -4.69,2.01 -4.69,2.09 0,0.26 0.03,0.85 0.08,1.64 0.18,3.05 0.53,8.96 -0.4,15.66 -0.18,1.31 -0.21,2.58 -0.09,3.8 0.33,3.4 1.75,6.45 3.86,8.76 2.08,2.28 4.83,3.83 7.85,4.25 0.56,0.06 1.12,0.1 1.68,0.1 z" id="path7" style="display:inline;stroke-width:1.83641"/>
      <path class="st0" d="m 46.57,37.82 c -0.08,0.59 1.09,2.18 2.61,2.39 1.52,0.21 2.83,-1.03 2.91,-1.62 C 52.17,38 51,37.34 49.48,37.13 c -1.52,-0.21 -2.83,0.1 -2.91,0.69 z" id="path8" style="display:inline;stroke-width:1.83641"/>
      <path class="st0" d="m 47.17,37.9 c -0.02,0.13 0.19,0.47 0.54,0.84 0.39,0.41 0.94,0.78 1.55,0.87 h 0.01 c 0.6,0.08 1.16,-0.12 1.58,-0.41 0.39,-0.26 0.63,-0.54 0.66,-0.7 0,-0.03 -0.15,-0.12 -0.4,-0.26 -0.41,-0.23 -1.01,-0.42 -1.7,-0.52 h -0.02 c -0.68,-0.09 -1.31,-0.07 -1.76,0.04 -0.28,0.07 -0.46,0.12 -0.46,0.14 z m -0.33,1.67 c -0.59,-0.62 -0.92,-1.36 -0.86,-1.82 v -0.02 c 0.08,-0.57 0.59,-0.96 1.37,-1.15 0.59,-0.14 1.37,-0.17 2.2,-0.06 0.01,0 0.02,0 0.03,0 0.84,0.12 1.59,0.36 2.12,0.66 0.7,0.39 1.09,0.92 1.01,1.48 -0.06,0.44 -0.51,1.08 -1.18,1.53 -0.63,0.43 -1.49,0.74 -2.42,0.61 H 49.1 c -0.92,-0.12 -1.71,-0.65 -2.26,-1.23 z" id="path9" style="display:inline;stroke-width:1.83641"/>
      <path class="st0" d="m 93.01,36.61 c 0.08,0.59 -1.09,2.18 -2.61,2.39 -1.53,0.21 -2.83,-1.03 -2.91,-1.62 -0.08,-0.59 1.09,-1.25 2.62,-1.46 1.51,-0.21 2.81,0.1 2.9,0.69 z" id="path10" style="display:inline;stroke-width:1.83641"/>
      <path class="st0" d="m 93.3,36.57 v 0 c 0.05,0.38 -0.25,1.03 -0.78,1.59 -0.51,0.54 -1.25,1.03 -2.09,1.14 h -0.01 c -0.84,0.11 -1.62,-0.17 -2.2,-0.56 -0.6,-0.4 -0.99,-0.95 -1.05,-1.32 v 0 c -0.06,-0.43 0.27,-0.85 0.86,-1.18 0.5,-0.28 1.21,-0.51 2.01,-0.62 0.8,-0.11 1.55,-0.08 2.11,0.05 0.66,0.15 1.09,0.46 1.15,0.9 z m -1.22,1.17 c 0.41,-0.43 0.65,-0.87 0.62,-1.09 -0.02,-0.16 -0.28,-0.3 -0.68,-0.4 v 0 c -0.49,-0.12 -1.16,-0.14 -1.89,-0.04 -0.72,0.1 -1.36,0.31 -1.8,0.55 -0.36,0.2 -0.57,0.41 -0.55,0.57 0.03,0.22 0.33,0.59 0.79,0.9 0.47,0.32 1.11,0.55 1.79,0.46 h 0.01 c 0.67,-0.09 1.28,-0.5 1.71,-0.95 z" id="path11" style="display:inline;stroke-width:1.83641"/>
      <path class="st0" d="m 96.65,32.59 c -0.05,-1 0.72,-1.85 1.72,-1.9 1,-0.05 1.85,0.72 1.9,1.72 0.15,2.8 -0.19,5.02 -0.55,7.35 -0.27,1.74 -0.55,3.56 -0.61,5.59 -0.06,1.93 0.19,4.07 0.46,6.27 0.7,5.79 1.44,11.99 -2.86,18.4 -0.56,0.83 -1.68,1.05 -2.51,0.5 -0.83,-0.56 -1.05,-1.68 -0.5,-2.51 3.54,-5.29 2.88,-10.8 2.26,-15.96 -0.28,-2.3 -0.55,-4.54 -0.47,-6.8 0.07,-2.34 0.36,-4.21 0.64,-6.02 0.34,-2.18 0.65,-4.24 0.52,-6.64 z" id="path12" style="display:inline;stroke-width:1.83641"/>
    </g>
  </g>
</svg>
