<?xml version="1.0" encoding="UTF-8" standalone="no"?>
<svg xmlns:inkscape="http://www.inkscape.org/namespaces/inkscape" xmlns:sodipodi="http://sodipodi.sourceforge.net/DTD/sodipodi-0.dtd" xmlns="http://www.w3.org/2000/svg" xmlns:svg="http://www.w3.org/2000/svg" xmlns:rdf="http://www.w3.org/1999/02/22-rdf-syntax-ns#" xmlns:cc="http://creativecommons.org/ns#" xmlns:dc="http://purl.org/dc/elements/1.1/" width="64" height="64" version="1" id="svg17" sodipodi:docname="photoflare.svg" inkscape:version="1.4.2 (ebf0e940d0, 2025-05-08)">
  <sodipodi:namedview id="namedview17" pagecolor="#ffffff" bordercolor="#000000" borderopacity="0.25" inkscape:showpageshadow="2" inkscape:pageopacity="0.0" inkscape:pagecheckerboard="0" inkscape:deskcolor="#d1d1d1" inkscape:current-layer="svg17"/>
  <metadata id="metadata1">
    <rdf:RDF>
      <cc:Work rdf:about="">
        <dc:format>image/svg+xml</dc:format>
        <dc:type rdf:resource="http://purl.org/dc/dcmitype/StillImage"/>
        <dc:title/>
      </cc:Work>
    </rdf:RDF>
  </metadata>
  <defs id="defs12">
    <linearGradient id="linearGradient891" x1="26.678" x2="26.678" y1="35.381" y2="17.782" gradientUnits="userSpaceOnUse">
      <stop stop-color="#e14664" offset="0" id="stop1"/>
      <stop stop-color="#ff5c7b" offset="1" id="stop2"/>
    </linearGradient>
    <linearGradient id="linearGradient899" x1="37.2" x2="37.2" y1="36.124" y2="18.096" gradientUnits="userSpaceOnUse">
      <stop stop-color="#aad22d" offset="0" id="stop3"/>
      <stop stop-color="#dbf97c" offset="1" id="stop4"/>
    </linearGradient>
    <linearGradient id="linearGradient907" x1="23.688" x2="23.688" y1="45.978" y2="31.186" gradientUnits="userSpaceOnUse">
      <stop stop-color="#0077c2" offset="0" id="stop5"/>
      <stop stop-color="#1ba7ff" offset="1" id="stop6"/>
    </linearGradient>
    <linearGradient id="linearGradient915" x1="34.38" x2="34.38" y1="46.935" y2="30.814" gradientUnits="userSpaceOnUse">
      <stop stop-color="#1abda2" offset="0" id="stop7"/>
      <stop stop-color="#27f1d1" stop-opacity=".99608" offset="1" id="stop8"/>
    </linearGradient>
    <linearGradient id="b-3" x1="399.57" x2="399.57" y1="545.8" y2="517.8" gradientTransform="matrix(2.1429 0 0 2.1429 -680.66 -1107.5)" gradientUnits="userSpaceOnUse">
      <stop stop-color="#3889e9" offset="0" id="stop9"/>
      <stop stop-color="#5ea5fb" offset="1" id="stop10"/>
    </linearGradient>
    
    
    <filter id="filter1057" x="-0.026999999" y="-0.026999999" width="1.054" height="1.054" color-interpolation-filters="sRGB">
      <feGaussianBlur stdDeviation="0.61875" id="feGaussianBlur11"/>
    </filter>
    <linearGradient id="linearGradient1053" x1="-127" x2="-72" y1="60" y2="5" gradientTransform="translate(131.49,-0.054156)" gradientUnits="userSpaceOnUse">
      <stop stop-color="#1d2123" offset="0" id="stop11"/>
      <stop stop-color="#33393e" stop-opacity=".99608" offset="1" id="stop12"/>
    </linearGradient>
  <radialGradient id="gradient_ds_br" cx="0" cy="0" r="1" gradientUnits="userSpaceOnUse" gradientTransform="matrix(13.998399,0.00477622,-0.00477841,14.004799,47.5016,48.4952)">
      <stop offset="0.65" id="stop1"/>
      <stop offset="1" stop-opacity="0" id="stop2"/>
    </radialGradient><linearGradient id="gradient_ds_b" x1="30.448999" y1="48.5" x2="30.492201" y2="62.500301" gradientUnits="userSpaceOnUse">
      <stop offset="0.653846" id="stop3"/>
      <stop offset="1" stop-opacity="0" id="stop4"/>
    </linearGradient><radialGradient id="gradient_ds_bl" cx="0" cy="0" r="1" gradientUnits="userSpaceOnUse" gradientTransform="matrix(0,14,-14,0,16.5,48.5)">
      <stop offset="0.65" id="stop5"/>
      <stop offset="1" stop-opacity="0" id="stop6"/>
    </radialGradient><linearGradient id="gradient_ds_r" x1="47.5" y1="33.5" x2="61.5" y2="33.5009" gradientUnits="userSpaceOnUse">
      <stop offset="0.649038" id="stop7"/>
      <stop offset="1" stop-opacity="0" id="stop8"/>
    </linearGradient><linearGradient id="gradient_ds_l" x1="16.5" y1="33.894699" x2="2.5" y2="33.894699" gradientUnits="userSpaceOnUse">
      <stop offset="0.649038" id="stop9"/>
      <stop offset="1" stop-opacity="0" id="stop10"/>
    </linearGradient><radialGradient id="gradient_ds_tr" cx="0" cy="0" r="1" gradientTransform="matrix(0.00843236,-14,14.0084,0.0189842,47.4916,18.5)" gradientUnits="userSpaceOnUse">
      <stop offset="0.65" id="stop11"/>
      <stop offset="1" stop-opacity="0" id="stop12"/>
    </radialGradient><linearGradient id="gradient_ds_t" x1="29.98" y1="18.5" x2="29.9158" y2="4.4998598" gradientUnits="userSpaceOnUse">
      <stop offset="0.649038" id="stop13"/>
      <stop offset="1" stop-opacity="0" id="stop14"/>
    </linearGradient><radialGradient id="gradient_ds_tl" cx="0" cy="0" r="1" gradientTransform="matrix(-0.00843236,-14,-14.0084,0.0189842,16.5084,18.5)" gradientUnits="userSpaceOnUse">
      <stop offset="0.65" id="stop15"/>
      <stop offset="1" stop-opacity="0" id="stop16"/>
    </radialGradient></defs>
  
  <g id="ds" opacity="0.25">
    <path id="ds-br" d="m 47.5,48.5 h 14 v 14 h -14 z" fill="url(#gradient_ds_br)" style="fill:url(#gradient_ds_br)"/>
    <path id="ds-b" d="m 16.5,48.5 h 31 v 14 h -31 z" fill="url(#gradient_ds_b)" style="fill:url(#gradient_ds_b)"/>
    <path id="ds-bl" d="m 2.5,48.5 h 14 v 14 h -14 z" fill="url(#gradient_ds_bl)" style="fill:url(#gradient_ds_bl)"/>
    <path id="ds-r" d="m 47.5,18.5 h 14 v 30 h -14 z" fill="url(#gradient_ds_r)" style="fill:url(#gradient_ds_r)"/>
    <path id="ds-l" d="m 2.5,18.5 h 14 v 30 h -14 z" fill="url(#gradient_ds_l)" style="fill:url(#gradient_ds_l)"/>
    <path id="ds-tr" d="m 47.5,4.5 h 14 v 14 h -14 z" fill="url(#gradient_ds_tr)" style="fill:url(#gradient_ds_tr)"/>
    <path id="ds-t" d="m 16.5,4.5 h 31 v 14 h -31 z" fill="url(#gradient_ds_t)" style="fill:url(#gradient_ds_t)"/>
    <path id="ds-tl" d="m 16.5,4.5 h -14 v 14 h 14 z" fill="url(#gradient_ds_tl)" style="fill:url(#gradient_ds_tl)"/>
  </g><rect x="4.5" y="4.5" width="55" height="55" fill="url(#linearGradient1053)" stroke-linecap="round" stroke-width="2.7444" id="bg" style="fill:url(#linearGradient1053)" rx="10"/>
  <g id="art"><path d="m43.5 11.5-1.4141 2.5859-2.5859 1.4141 2.5859 1.4141 1.4141 2.5859 1.4141-2.5859 2.5859-1.4141-2.5859-1.4141-1.4141-2.5859zm-6.5039 1-0.52344 0.96875-0.97266 0.53125 0.97266 0.53125 0.52344 0.96875 0.53125-0.96875 0.97266-0.53125-0.97266-0.53125-0.53125-0.96875zm-4.9961 1.5c-9.9251 0-18 8.0746-18 18 0 9.9251 8.0749 18 18 18s18-8.0749 18-18h-1.543c0 9.0754-7.3814 16.457-16.457 16.457s-16.457-7.3814-16.457-16.457c0-9.0758 7.3814-16.457 16.457-16.457v-1.543zm16.504 4.5-1.0664 1.9414-1.9375 1.0586 1.9375 1.0586 1.0664 1.9414 1.0586-1.9414 1.9375-1.0586-1.9375-1.0586-1.0586-1.9414zm0.99609 8-0.70703 1.293-1.293 0.70703 1.293 0.70703 0.70703 1.293 0.70703-1.293 1.293-0.70703-1.293-0.70703-0.70703-1.293z" fill="#fff" id="path13"/><path d="m31.91 31.905s-1.9931-0.36718-3.7503-0.62939c-1.757-0.26221-3.678 0.1901-4.1698 0.7606-0.49178 0.57029 0.64902 1.6522 0.90483 2.0849 0.2556 0.43268 0.11798 0.49156-0.33432 0.90462-0.37785 0.34499-1.9114 0.53445-2.4073 0.58757v0.0158s-0.0288-0.0028-0.0783-0.0076c-0.0495 0.0048-0.0781 0.0076-0.0781 0.0076v-0.0158c-0.49582-0.05313-2.0294-0.24258-2.4073-0.58757-0.45231-0.41305-0.59013-0.47194-0.33432-0.90462 0.2556-0.43268 1.3964-1.5146 0.90483-2.0849-0.30061-0.34862-1.1359-0.65222-2.1404-0.77639-0.01274 0.24514-0.01962 0.49199-0.01962 0.74033 0 7.7321 6.2679 14 14 14 0.10134 0 0.20141-0.0056 0.30232-0.0076 0.41476-1.5504 0.95561-4.2092 0.0048-4.8674-1.3638-0.94409-2.911 0.07872-2.911 0.07872s-1.1015 0.60315-1.6522-0.02624c-0.55088-0.62939-0.65563-1.626-0.60336-2.3076 0.05248-0.68188 0.62961-2.544 1.6784-2.0721 1.0491 0.47236 3.1425 0.8357 3.5929 0.26242 1.154-1.4687-0.50181-5.1555-0.50181-5.1555" fill="url(#linearGradient907)" id="path14"/><path d="m31.91 31.905s7.3468-2.1877 7.766-0.08982c0.41988 2.0981-2.2027 2.2031-0.62918 3.2521 1.2477 0.83144 2.2948 0.80583 2.6761 0.75975v-0.0256s0.0288 0.0068 0.07786 0.0148c0.0495-0.0078 0.0783-0.0148 0.0783-0.0148v0.0256c0.38126 0.0463 1.4284 0.0719 2.6761-0.75975 1.5735-1.0491-1.0491-1.154-0.62939-3.2521 0.13506-0.67462 0.96457-0.90675 2.0275-0.91187-0.56026-7.2188-6.5911-12.903-13.953-12.903-0.22445 0-0.44719 0.0064-0.66908 0.01686-0.31021 1.2089-0.56837 2.9246 0.13312 3.8175 0.4506 0.57349 2.544 0.20973 3.5929-0.26242 1.0491-0.47194 1.626 1.39 1.6784 2.0719 0.05228 0.68188-0.05248 1.6784-0.60315 2.3078-0.55066 0.62939-1.6522 0.02624-1.6522 0.02624s-1.5472-1.0228-2.911-0.07872c-1.3638 0.94409 0.34094 6.0057 0.34094 6.0057" fill="url(#linearGradient899)" id="path15"/><path d="m19.255 34.121c-0.2556 0.43268-0.11798 0.49178 0.33432 0.90483 0.37785 0.34478 1.9114 0.53424 2.4073 0.58736v0.0158s0.0288-0.0028 0.0783-0.0076c0.04928 0.0048 0.0781 0.0076 0.0781 0.0076v-0.0158c0.49583-0.05312 2.0294-0.24258 2.4073-0.58736 0.45231-0.41305 0.59013-0.47215 0.33433-0.90483-0.2556-0.43268-1.3964-1.5146-0.90483-2.0849 0.49178-0.57051 2.4128-1.0228 4.17-0.7606 1.757 0.26221 3.7501 0.62939 3.7501 0.62939s-1.7047-5.0614-0.34094-6.0057c1.364-0.94409 2.9112 0.07872 2.9112 0.07872s1.1015 0.60315 1.6522-0.02624c0.55088-0.62939 0.65542-1.626 0.60315-2.3078-0.05228-0.68188-0.62939-2.5438-1.6782-2.0717-1.0491 0.47194-3.1425 0.83549-3.5929 0.26221-0.70151-0.89288-0.44335-2.6085-0.13336-3.8173-7.1755 0.33774-12.938 6.0763-13.311 13.243 1.0045 0.12416 1.8397 0.42777 2.1404 0.77639 0.49157 0.57029-0.64944 1.6524-0.90504 2.0849" fill="url(#linearGradient891)" id="path16"/><path d="m46 32c0-0.36953-0.0188-0.73457-0.04694-1.0968-1.0627 0.0052-1.8922 0.23725-2.0273 0.91187-0.41945 2.0981 2.2031 2.2029 0.62939 3.2519-1.2477 0.83186-2.2948 0.80605-2.6761 0.75996v-0.0254s-0.02902 0.0064-0.0781 0.0146c-0.04928-0.0082-0.0781-0.0146-0.0781-0.0146v0.0254c-0.38126 0.0463-1.4284 0.07212-2.6761-0.75996-1.5735-1.0491 1.0491-1.1538 0.62939-3.2519-0.41967-2.0979-7.7663 0.08982-7.7663 0.08982s1.6558 3.6867 0.50181 5.1552c-0.45039 0.57349-2.5438 0.20994-3.5929-0.26221s-1.626 1.39-1.6784 2.0719c-0.05248 0.68188 0.05248 1.6784 0.60315 2.3076 0.55088 0.62939 1.6522 0.02624 1.6522 0.02624s1.5474-1.0228 2.911-0.07852c0.95091 0.65841 0.41028 3.317-0.0044 4.8672 7.592-0.1613 13.698-6.3618 13.698-13.992" fill="url(#linearGradient915)" id="path17"/></g>
  
  
  
  
</svg>
