<?xml version="1.0" encoding="UTF-8" standalone="no"?>
<!-- Created with Inkscape (http://www.inkscape.org/) -->
<svg xmlns:inkscape="http://www.inkscape.org/namespaces/inkscape" xmlns:sodipodi="http://sodipodi.sourceforge.net/DTD/sodipodi-0.dtd" xmlns:xlink="http://www.w3.org/1999/xlink" xmlns="http://www.w3.org/2000/svg" xmlns:svg="http://www.w3.org/2000/svg" xmlns:rdf="http://www.w3.org/1999/02/22-rdf-syntax-ns#" xmlns:cc="http://creativecommons.org/ns#" xmlns:dc="http://purl.org/dc/elements/1.1/" width="64" height="64" version="1.1" viewBox="0 0 64 64" id="svg78" sodipodi:docname="playmymusic.svg" inkscape:version="1.4.2 (ebf0e940d0, 2025-05-08)">
  <defs id="defs34">
    <linearGradient id="i" x1="400.39999" x2="400.39999" y1="545.62" y2="517.62" gradientTransform="matrix(0.41967,0,0,0.41967,-173.34,-178.23)" gradientUnits="userSpaceOnUse">
      <stop stop-color="#d3d3d3" offset="0" id="stop2"/>
      <stop stop-color="#fcf9f9" offset="1" id="stop4"/>
    </linearGradient>
    <linearGradient id="f" x1="400.39999" x2="400.39999" y1="545.62" y2="517.62" gradientTransform="matrix(0.43343,0,0,0.43343,-193.09,-179.69)" gradientUnits="userSpaceOnUse">
      <stop stop-color="#8d3aff" offset="0" id="stop7"/>
      <stop stop-color="#ff3680" offset="1" id="stop9"/>
    </linearGradient>
    <linearGradient id="linearGradient987" x1="-54.827999" x2="-63.444" y1="-1.7294" y2="-11.074" gradientTransform="matrix(3.4523,0,0,3.4523,191.99,263.05)" gradientUnits="userSpaceOnUse">
      <stop stop-color="#232223" offset="0" id="stop12"/>
      <stop stop-color="#49484d" offset="1" id="stop14"/>
    </linearGradient>
    <linearGradient id="linearGradient1034" x1="-54.827999" x2="-63.444" y1="-1.7294" y2="-11.074" gradientTransform="matrix(0.3727,0,0,0.3727,18.862,66.055)" gradientUnits="userSpaceOnUse">
      <stop stop-color="#d2d2d2" offset="0" id="stop17"/>
      <stop stop-color="#fff" offset="1" id="stop19"/>
    </linearGradient>
    <linearGradient id="linearGradient1044" x1="-54.827999" x2="-63.444" y1="-1.7294" y2="-11.074" gradientTransform="matrix(0.14259,0,0,0.14259,5.2712,64.548)" gradientUnits="userSpaceOnUse">
      <stop stop-color="#232223" offset="0" id="stop22"/>
      <stop stop-color="#49484d" offset="1" id="stop24"/>
    </linearGradient>
    <linearGradient id="linearGradient967" x1="400.39999" x2="400.39999" y1="545.62" y2="517.62" gradientTransform="matrix(0.41967,0,0,0.41967,-173.34,-178.23)" gradientUnits="userSpaceOnUse" xlink:href="#i"/>
    <linearGradient id="linearGradient969" x1="400.39999" x2="400.39999" y1="545.62" y2="517.62" gradientTransform="matrix(0.43343,0,0,0.43343,-193.09,-179.69)" gradientUnits="userSpaceOnUse" xlink:href="#f"/>
    <linearGradient id="linearGradient4338" x1="-8.4328003" x2="1.7737" y1="59.166" y2="68.565002" gradientTransform="matrix(0.15144,1.4684e-4,-1.4608e-4,0.15224,-17.519,1.7135)" gradientUnits="userSpaceOnUse">
      <stop stop-color="#30c8f1" offset="0" id="stop29"/>
      <stop stop-color="#1283e2" offset="1" id="stop31"/>
    </linearGradient>
    <filter id="filter1057" x="-0.026999999" y="-0.026999999" width="1.054" height="1.054" color-interpolation-filters="sRGB">
      <feGaussianBlur stdDeviation="0.61875" id="feGaussianBlur860"/>
    </filter>
    <linearGradient id="linearGradient1053" x1="-127" x2="-72" y1="60" y2="5" gradientTransform="translate(131.5,-0.50999946)" gradientUnits="userSpaceOnUse">
      <stop stop-color="#32d7ff" offset="0" id="stop863"/>
      <stop stop-color="#329bff" offset="1" id="stop865"/>
    </linearGradient>
    <filter id="filter2174" x="-0.15989216" y="-0.094877243" width="1.3197843" height="1.1897545" color-interpolation-filters="sRGB">
      <feGaussianBlur stdDeviation="0.25608494" id="feGaussianBlur4"/>
    </filter>
    <filter id="filter2174-3" x="-0.15989216" y="-0.094877244" width="1.3197843" height="1.1897545" color-interpolation-filters="sRGB">
      <feGaussianBlur stdDeviation="0.25608494" id="feGaussianBlur4-6"/>
    </filter>
    <filter id="filter1057-3" x="-0.026999999" y="-0.026999999" width="1.054" height="1.054" color-interpolation-filters="sRGB">
      <feGaussianBlur stdDeviation="0.61875" id="feGaussianBlur860-5"/>
    </filter>
  <radialGradient id="gradient_ds_br" cx="0" cy="0" r="1" gradientUnits="userSpaceOnUse" gradientTransform="matrix(13.998399,0.00477622,-0.00477841,14.004799,47.5016,48.4952)">
      <stop offset="0.65" id="stop1"/>
      <stop offset="1" stop-opacity="0" id="stop2"/>
    </radialGradient><linearGradient id="gradient_ds_b" x1="30.448999" y1="48.5" x2="30.492201" y2="62.500301" gradientUnits="userSpaceOnUse">
      <stop offset="0.653846" id="stop3"/>
      <stop offset="1" stop-opacity="0" id="stop4"/>
    </linearGradient><radialGradient id="gradient_ds_bl" cx="0" cy="0" r="1" gradientUnits="userSpaceOnUse" gradientTransform="matrix(0,14,-14,0,16.5,48.5)">
      <stop offset="0.65" id="stop5"/>
      <stop offset="1" stop-opacity="0" id="stop6"/>
    </radialGradient><linearGradient id="gradient_ds_r" x1="47.5" y1="33.5" x2="61.5" y2="33.5009" gradientUnits="userSpaceOnUse">
      <stop offset="0.649038" id="stop7"/>
      <stop offset="1" stop-opacity="0" id="stop8"/>
    </linearGradient><linearGradient id="gradient_ds_l" x1="16.5" y1="33.894699" x2="2.5" y2="33.894699" gradientUnits="userSpaceOnUse">
      <stop offset="0.649038" id="stop9"/>
      <stop offset="1" stop-opacity="0" id="stop10"/>
    </linearGradient><radialGradient id="gradient_ds_tr" cx="0" cy="0" r="1" gradientTransform="matrix(0.00843236,-14,14.0084,0.0189842,47.4916,18.5)" gradientUnits="userSpaceOnUse">
      <stop offset="0.65" id="stop11"/>
      <stop offset="1" stop-opacity="0" id="stop12"/>
    </radialGradient><linearGradient id="gradient_ds_t" x1="29.98" y1="18.5" x2="29.9158" y2="4.4998598" gradientUnits="userSpaceOnUse">
      <stop offset="0.649038" id="stop13"/>
      <stop offset="1" stop-opacity="0" id="stop14"/>
    </linearGradient><radialGradient id="gradient_ds_tl" cx="0" cy="0" r="1" gradientTransform="matrix(-0.00843236,-14,-14.0084,0.0189842,16.5084,18.5)" gradientUnits="userSpaceOnUse">
      <stop offset="0.65" id="stop15"/>
      <stop offset="1" stop-opacity="0" id="stop16"/>
    </radialGradient></defs>
  <metadata id="metadata36">
    <rdf:RDF>
      <cc:Work rdf:about="">
        <dc:format>image/svg+xml</dc:format>
        <dc:type rdf:resource="http://purl.org/dc/dcmitype/StillImage"/>
      </cc:Work>
    </rdf:RDF>
  </metadata>
  
  <g id="ds" opacity="0.25">
    <path id="ds-br" d="m 47.5,48.5 h 14 v 14 h -14 z" fill="url(#gradient_ds_br)" style="fill:url(#gradient_ds_br)"/>
    <path id="ds-b" d="m 16.5,48.5 h 31 v 14 h -31 z" fill="url(#gradient_ds_b)" style="fill:url(#gradient_ds_b)"/>
    <path id="ds-bl" d="m 2.5,48.5 h 14 v 14 h -14 z" fill="url(#gradient_ds_bl)" style="fill:url(#gradient_ds_bl)"/>
    <path id="ds-r" d="m 47.5,18.5 h 14 v 30 h -14 z" fill="url(#gradient_ds_r)" style="fill:url(#gradient_ds_r)"/>
    <path id="ds-l" d="m 2.5,18.5 h 14 v 30 h -14 z" fill="url(#gradient_ds_l)" style="fill:url(#gradient_ds_l)"/>
    <path id="ds-tr" d="m 47.5,4.5 h 14 v 14 h -14 z" fill="url(#gradient_ds_tr)" style="fill:url(#gradient_ds_tr)"/>
    <path id="ds-t" d="m 16.5,4.5 h 31 v 14 h -31 z" fill="url(#gradient_ds_t)" style="fill:url(#gradient_ds_t)"/>
    <path id="ds-tl" d="m 16.5,4.5 h -14 v 14 h 14 z" fill="url(#gradient_ds_tl)" style="fill:url(#gradient_ds_tl)"/>
  </g><rect x="4.5" y="4.5" width="55" height="55" fill="url(#linearGradient1053)" stroke-linecap="round" stroke-width="2.7444" id="bg" style="fill:url(#linearGradient1053)" rx="10"/>
  <g id="art"><path d="m 28.339633,28.826847 c -5.649231,0 -10.290557,4.641326 -10.290557,10.290556 0,5.649231 4.641326,10.283178 10.290557,10.283178 5.649231,0 10.283175,-4.633947 10.283175,-10.283178 0,-5.64923 -4.633944,-10.290556 -10.283175,-10.290556 z m 0,5.40365 c 2.730902,0 4.886907,2.156005 4.886907,4.886906 0,2.730902 -2.156005,4.886908 -4.886907,4.886908 -2.730902,0 -4.886907,-2.156006 -4.886907,-4.886908 0,-2.730901 2.156005,-4.886906 4.886907,-4.886906 z" id="circle21" style="fill:#2f5c84;fill-opacity:1;stroke-width:3.7796"/><path transform="matrix(3.4966232,0,0,3.4782543,0.30640855,3.6820994)" d="m 9.3776,3.1823 v 6.4778 h 1.4265 V 5.5325 c 0,0 0.45602,0.22216 0.54956,0.24555 0.09354,0.023386 1.9176,0.72495 0.99389,2.7595 l 0.04099,0.023665 c 0,0 1.4708,-1.8189 0.50345,-3.208 -0.96736,-1.389 -1.7125,-1.1671 -3.5144,-2.171 z" fill="#1688ff" filter="url(#filter2174)" id="path23" style="filter:url(#filter2174-3)"/><path d="m 33.230295,14.878528 v 24.483506 h 5.391602 V 23.761348 c 0,0 1.723574,0.839677 2.077118,0.928082 0.353544,0.08839 7.247765,2.740022 3.756509,10.429812 l 0.154926,0.08944 c 0,0 5.559038,-6.874718 1.90284,-12.124963 -3.656236,-5.249868 -6.472568,-4.411174 -13.283033,-8.205516 z" id="path25" style="fill:#315d86;fill-opacity:1;stroke-width:3.7796"/></g>
  
  
</svg>
