<?xml version="1.0" encoding="UTF-8" standalone="no"?>
<svg xmlns:inkscape="http://www.inkscape.org/namespaces/inkscape" xmlns:sodipodi="http://sodipodi.sourceforge.net/DTD/sodipodi-0.dtd" xmlns:xlink="http://www.w3.org/1999/xlink" xmlns="http://www.w3.org/2000/svg" xmlns:svg="http://www.w3.org/2000/svg" xmlns:rdf="http://www.w3.org/1999/02/22-rdf-syntax-ns#" xmlns:cc="http://creativecommons.org/ns#" xmlns:dc="http://purl.org/dc/elements/1.1/" width="64" height="64" version="1.1" viewBox="0 0 64 64" id="svg24" sodipodi:docname="preferences-system.svg" inkscape:version="1.4.2 (ebf0e940d0, 2025-05-08)">
  <sodipodi:namedview id="namedview1" pagecolor="#ffffff" bordercolor="#000000" borderopacity="0.25" inkscape:showpageshadow="2" inkscape:pageopacity="0.0" inkscape:pagecheckerboard="0" inkscape:deskcolor="#d1d1d1" inkscape:current-layer="svg24"/>
  <defs id="defs10">
    <filter id="filter2761" x="-0.024" y="-0.024" width="1.048" height="1.048" color-interpolation-filters="sRGB">
      <feGaussianBlur stdDeviation="0.14552168" id="feGaussianBlur2"/>
    </filter>
    <linearGradient id="linearGradient1024" x1="1.3315001" x2="15.65" y1="15.576" y2="1.17" gradientUnits="userSpaceOnUse">
      <stop stop-color="#96aab4" offset="0" id="stop5"/>
      <stop stop-color="#a0b4c3" offset="1" id="stop7"/>
    </linearGradient>
    <filter color-interpolation-filters="sRGB" height="1.048" width="1.048" y="-0.024" x="-0.024" id="filter2761-3">
      <feGaussianBlur id="feGaussianBlur4" stdDeviation="0.14552168"/>
    </filter>
    <linearGradient gradientUnits="userSpaceOnUse" gradientTransform="translate(26.188,4.5172)" y2="1.17" y1="15.576" x2="15.65" x1="1.3315001" id="linearGradient1024-6">
      <stop id="stop7-75" offset="0" stop-color="#96aab4"/>
      <stop id="stop9" offset="1" stop-color="#a0b4c3"/>
    </linearGradient>
    <filter color-interpolation-filters="sRGB" height="1.048" width="1.048" y="-0.024" x="-0.024" id="filter2761-35">
      <feGaussianBlur id="feGaussianBlur4-6" stdDeviation="0.14552168"/>
    </filter>
    <linearGradient gradientUnits="userSpaceOnUse" gradientTransform="translate(16.851507,0.14045)" y2="1.1082" y1="15.429" x2="15.644" x1="1.2573" id="linearGradient4673">
      <stop id="stop7-7" offset="0" stop-color="#a0b9cd"/>
      <stop id="stop9-5" offset=".47728" stop-color="#96b4c8"/>
      <stop id="stop11" offset="1" stop-color="#a0b9cd"/>
    </linearGradient>
    <filter color-interpolation-filters="sRGB" height="1.168" width="1.168" y="-0.084005997" x="-0.083994001" id="filter917">
      <feGaussianBlur id="feGaussianBlur14" stdDeviation="0.22223482"/>
    </filter>
    <linearGradient gradientUnits="userSpaceOnUse" gradientTransform="matrix(0.32664815,0,0,0.32664815,0.63054332,0.95372475)" y2="4" y1="44" x2="0" id="linearGradient890">
      <stop id="stop4" offset="0" stop-color="#FFB900"/>
      <stop id="stop6" offset="1" stop-color="#ff0"/>
    </linearGradient>
    <filter color-interpolation-filters="sRGB" height="1.048" width="1.048" y="-0.024" x="-0.024" id="filter2761-67">
      <feGaussianBlur id="feGaussianBlur9" stdDeviation="0.14552168"/>
    </filter>
    <linearGradient gradientUnits="userSpaceOnUse" gradientTransform="matrix(3.7796,0,0,3.7796,66.443573,0.53068)" y2="1.1082" y1="15.601" x2="15.644" x1="1.4377" id="linearGradient4673-5">
      <stop id="stop12" offset="0" stop-color="#dc2828"/>
      <stop id="stop14" offset="1" stop-color="#fa4141"/>
    </linearGradient>
    <linearGradient gradientTransform="scale(0.26457812)" gradientUnits="userSpaceOnUse" y2="9.6700001" y1="54.591999" x2="34.133999" x1="34.133999" id="linearGradient915">
      <stop id="stop17" offset="0" stop-color="#ffb900"/>
      <stop id="stop19" offset="1" stop-color="#ff0"/>
    </linearGradient>
    <linearGradient id="linearGradient890-3" x2="0" y1="44" y2="4" gradientTransform="matrix(1.2346,0,0,1.2346,3.1419,3.6047)" gradientUnits="userSpaceOnUse">
      <stop stop-color="#FFB900" offset="0" id="stop861"/>
      <stop stop-color="#ff0" offset="1" id="stop863"/>
    </linearGradient>
    <filter id="filter2761-6" x="-0.024" y="-0.024" width="1.048" height="1.048" color-interpolation-filters="sRGB">
      <feGaussianBlur stdDeviation="0.14552168" id="feGaussianBlur866"/>
    </filter>
    <linearGradient id="linearGradient1057">
      <stop id="stop4-5" offset="0" stop-color="#fff"/>
      <stop id="stop6-6" offset="1" stop-opacity="0" stop-color="#fff"/>
    </linearGradient>
    <linearGradient gradientUnits="userSpaceOnUse" gradientTransform="matrix(1.5625,0,0,1.5625,0.40633,-5.1891)" y2="52.847" y1="27.545" x2="34.999001" x1="34.999001" id="linearGradient982">
      <stop id="stop9-2" offset="0" stop-color="#32b4ff"/>
      <stop id="stop11-9" offset="1" stop-color="#3287ff"/>
    </linearGradient>
    <linearGradient gradientUnits="userSpaceOnUse" gradientTransform="matrix(1.5625,0,0,1.5625,-9.2253,1.3231)" y2="43.681" y1="18.052" x2="21.313999" x1="21.313999" id="linearGradient1047">
      <stop id="stop18" offset="0" stop-color="#14dc78"/>
      <stop id="stop20" offset="1" stop-color="#14a03c"/>
    </linearGradient>
    <linearGradient gradientUnits="userSpaceOnUse" gradientTransform="matrix(1.5625,0,0,1.5625,-8.1072,-10.908)" y2="37.368" y1="12.316" x2="41.729" x1="41.729" id="linearGradient1049">
      <stop id="stop23" offset="0" stop-color="#ff3c64"/>
      <stop id="stop25" offset="1" stop-color="#ff4628"/>
    </linearGradient>
    <linearGradient xlink:href="#linearGradient1057" gradientUnits="userSpaceOnUse" gradientTransform="matrix(1,0,0,1.2271,0.20646,-10.975)" y2="39.768002" y1="32.234001" x2="34.426998" x1="34.426998" id="linearGradient1059"/>
    <linearGradient xlink:href="#linearGradient1057" gradientUnits="userSpaceOnUse" gradientTransform="matrix(1,0,0,1.2271,-12.55,-19.793)" y2="39.768002" y1="32.234001" x2="34.426998" x1="34.426998" id="linearGradient1063"/>
    <linearGradient xlink:href="#linearGradient1057" gradientUnits="userSpaceOnUse" gradientTransform="matrix(1,0,0,1.2271,5.7554,-25.761)" y2="39.768002" y1="32.234001" x2="34.426998" x1="34.426998" id="linearGradient1067"/>
    <filter color-interpolation-filters="sRGB" height="1.048" width="1.048" y="-0.024" x="-0.024" id="filter2761-1">
      <feGaussianBlur id="feGaussianBlur31" stdDeviation="0.14552168"/>
    </filter>
    <linearGradient gradientUnits="userSpaceOnUse" gradientTransform="matrix(3.7796,0,0,3.7796,72.4059,0.53085)" y2="1.17" y1="15.576" x2="15.65" x1="1.3315001" id="linearGradient1024-62">
      <stop id="stop34" offset="0" stop-color="#dddfe1"/>
      <stop id="stop36" offset="1" stop-opacity=".99608" stop-color="#f3f4f6"/>
    </linearGradient>
    <filter color-interpolation-filters="sRGB" height="1.048" width="1.048" y="-0.024" x="-0.024" id="filter2761-3-2">
      <feGaussianBlur id="feGaussianBlur2-9" stdDeviation="0.14552168"/>
    </filter>
    <linearGradient gradientUnits="userSpaceOnUse" gradientTransform="translate(0,-0.07421)" y2="1.17" y1="15.576" x2="15.65" x1="1.3315001" id="linearGradient1024-6-7">
      <stop id="stop5-1" offset="0" stop-color="#dddfe1"/>
      <stop id="stop7-0" offset="1" stop-opacity=".99608" stop-color="#f3f4f6"/>
    </linearGradient>
    <filter inkscape:collect="always" style="color-interpolation-filters:sRGB" id="filter1057" x="-0.026999999" width="1.054" y="-0.026999999" height="1.054">
      <feGaussianBlur inkscape:collect="always" stdDeviation="0.61875" id="feGaussianBlur1059"/>
    </filter>
    <linearGradient id="linearGradient1053-2" x1="-127" x2="-72" y1="60" y2="5" gradientTransform="translate(131.49,-0.054156)" gradientUnits="userSpaceOnUse">
      <stop stop-color="#1d2123" offset="0" id="stop883"/>
      <stop stop-color="#33393e" stop-opacity=".99608" offset="1" id="stop885"/>
    </linearGradient>
    <linearGradient id="linearGradient1053-9" x1="83.813408" x2="-113.75047" y1="18.235031" y2="215.7989" gradientTransform="matrix(0.27839098,0,0,0.27839098,36.167104,-0.57646835)" gradientUnits="userSpaceOnUse">
      <stop stop-color="#96aab4" offset="0" id="stop1" style="stop-color:#6a7074;stop-opacity:1;"/>
      <stop stop-color="#a0b4c3" stop-opacity=".99608" offset="1" id="stop2" style="stop-color:#3e4246;stop-opacity:1;"/>
    </linearGradient>
  <radialGradient id="gradient_ds_br" cx="0" cy="0" r="1" gradientUnits="userSpaceOnUse" gradientTransform="matrix(13.998399,0.00477622,-0.00477841,14.004799,47.5016,48.4952)">
      <stop offset="0.65" id="stop1"/>
      <stop offset="1" stop-opacity="0" id="stop2"/>
    </radialGradient><linearGradient id="gradient_ds_b" x1="30.448999" y1="48.5" x2="30.492201" y2="62.500301" gradientUnits="userSpaceOnUse">
      <stop offset="0.653846" id="stop3"/>
      <stop offset="1" stop-opacity="0" id="stop4"/>
    </linearGradient><radialGradient id="gradient_ds_bl" cx="0" cy="0" r="1" gradientUnits="userSpaceOnUse" gradientTransform="matrix(0,14,-14,0,16.5,48.5)">
      <stop offset="0.65" id="stop5"/>
      <stop offset="1" stop-opacity="0" id="stop6"/>
    </radialGradient><linearGradient id="gradient_ds_r" x1="47.5" y1="33.5" x2="61.5" y2="33.5009" gradientUnits="userSpaceOnUse">
      <stop offset="0.649038" id="stop7"/>
      <stop offset="1" stop-opacity="0" id="stop8"/>
    </linearGradient><linearGradient id="gradient_ds_l" x1="16.5" y1="33.894699" x2="2.5" y2="33.894699" gradientUnits="userSpaceOnUse">
      <stop offset="0.649038" id="stop9"/>
      <stop offset="1" stop-opacity="0" id="stop10"/>
    </linearGradient><radialGradient id="gradient_ds_tr" cx="0" cy="0" r="1" gradientTransform="matrix(0.00843236,-14,14.0084,0.0189842,47.4916,18.5)" gradientUnits="userSpaceOnUse">
      <stop offset="0.65" id="stop11"/>
      <stop offset="1" stop-opacity="0" id="stop12"/>
    </radialGradient><linearGradient id="gradient_ds_t" x1="29.98" y1="18.5" x2="29.9158" y2="4.4998598" gradientUnits="userSpaceOnUse">
      <stop offset="0.649038" id="stop13"/>
      <stop offset="1" stop-opacity="0" id="stop14"/>
    </linearGradient><radialGradient id="gradient_ds_tl" cx="0" cy="0" r="1" gradientTransform="matrix(-0.00843236,-14,-14.0084,0.0189842,16.5084,18.5)" gradientUnits="userSpaceOnUse">
      <stop offset="0.65" id="stop15"/>
      <stop offset="1" stop-opacity="0" id="stop16"/>
    </radialGradient></defs>
  <metadata id="metadata12">
    <rdf:RDF>
      <cc:Work rdf:about="">
        <dc:format>image/svg+xml</dc:format>
        <dc:type rdf:resource="http://purl.org/dc/dcmitype/StillImage"/>
      </cc:Work>
    </rdf:RDF>
  </metadata>
  
  <g id="ds" opacity="0.25">
    <path id="ds-br" d="m 47.5,48.5 h 14 v 14 h -14 z" fill="url(#gradient_ds_br)" style="fill:url(#gradient_ds_br)"/>
    <path id="ds-b" d="m 16.5,48.5 h 31 v 14 h -31 z" fill="url(#gradient_ds_b)" style="fill:url(#gradient_ds_b)"/>
    <path id="ds-bl" d="m 2.5,48.5 h 14 v 14 h -14 z" fill="url(#gradient_ds_bl)" style="fill:url(#gradient_ds_bl)"/>
    <path id="ds-r" d="m 47.5,18.5 h 14 v 30 h -14 z" fill="url(#gradient_ds_r)" style="fill:url(#gradient_ds_r)"/>
    <path id="ds-l" d="m 2.5,18.5 h 14 v 30 h -14 z" fill="url(#gradient_ds_l)" style="fill:url(#gradient_ds_l)"/>
    <path id="ds-tr" d="m 47.5,4.5 h 14 v 14 h -14 z" fill="url(#gradient_ds_tr)" style="fill:url(#gradient_ds_tr)"/>
    <path id="ds-t" d="m 16.5,4.5 h 31 v 14 h -31 z" fill="url(#gradient_ds_t)" style="fill:url(#gradient_ds_t)"/>
    <path id="ds-tl" d="m 16.5,4.5 h -14 v 14 h 14 z" fill="url(#gradient_ds_tl)" style="fill:url(#gradient_ds_tl)"/>
  </g><rect style="fill:url(#linearGradient1053-9);fill-opacity:1;stroke-width:2.74441156;stroke-linecap:round;font-variation-settings:normal;opacity:1;vector-effect:none;stroke-linejoin:miter;stroke-miterlimit:4;stroke-dasharray:none;stroke-dashoffset:0;stroke-opacity:1;-inkscape-stroke:none;stop-color:#000000;stop-opacity:1" id="bg" width="55" height="55" x="4.5" y="4.5" rx="10"/>
  <g transform="matrix(3.5920959,0,0,3.5920959,1.5878108,1.5608622)" id="art">
    <circle cx="8.4664192" cy="8.4739208" fill="none" opacity="0.5" stroke="#ffffff" stroke-dashoffset="0.42096" stroke-width="0.52916" id="circle18" style="opacity:0.25;fill:#000000;fill-opacity:1;stroke:none" r="3.062279"/>
    <path d="M 8.4377517,2.9133508 C 8.1749656,2.9400205 8.1791804,3.1624926 8.0941152,3.7107156 A 4.7963062,4.7830772 30 0 0 7.5587641,3.7825438 C 7.3123237,3.2165278 7.2282772,3.0205004 7.0079085,3.0993982 6.7578143,3.1889294 6.8180512,3.4048029 6.8673504,3.9644425 A 4.7963062,4.7830772 30 0 0 6.3795178,4.1649439 C 6.025642,3.7372503 5.9162117,3.5438159 5.6767404,3.6554157 5.4649388,3.7541067 5.5421459,3.9526978 5.764073,4.5261485 A 4.7963062,4.7830772 30 0 0 5.337226,4.8522169 C 4.8890804,4.5336097 4.7326078,4.3766608 4.5310772,4.5457803 4.3537504,4.694596 4.4776797,4.8661338 4.8328572,5.3519291 A 4.7963062,4.7830772 30 0 0 4.5109162,5.7725584 C 3.9912811,5.5932155 3.796709,5.4868649 3.6510312,5.7058975 3.5245117,5.8961358 3.6889217,6.0267272 4.152278,6.38182 A 4.7963062,4.7830772 30 0 0 3.9398891,6.903757 C 3.4017863,6.8439963 3.1890904,6.7852013 3.0960112,7.0293293 c -0.08289,0.217416 0.1102796,0.3062249 0.6635137,0.5606715 a 4.7963062,4.7830772 30 0 0 -0.072863,0.5544803 c -0.5300066,0.0724 -0.7488937,0.069045 -0.7792674,0.3271002 -0.02731,0.2319891 0.181949,0.2699775 0.7859878,0.3823975 a 4.7963062,4.7830772 30 0 0 0.069246,0.5074644 c -0.510269,0.2460621 -0.727542,0.3036585 -0.6764252,0.5653281 0.044579,0.2282477 0.2555023,0.2014967 0.8588531,0.1250567 a 4.7963062,4.7830772 30 0 0 0.2061872,0.500744 c -0.4382503,0.370888 -0.6358386,0.480318 -0.5203759,0.722435 0.1011092,0.212045 0.298896,0.131105 0.8774531,-0.0987 l -0.053741,-0.0956 a 4.7963062,4.7830772 30 0 0 0.3674223,0.489896 c -0.3097968,0.461745 -0.4646554,0.622637 -0.2893976,0.820622 0.1517366,0.171403 0.3203005,0.04584 0.7844267,-0.312628 a 4.7963062,4.7830772 30 0 0 0.43407,0.33435 c -0.2180298,0.58287 -0.295139,0.782204 -0.081131,0.879014 0.2402704,0.108684 0.348637,-0.08581 0.6960835,-0.515719 a 4.7963062,4.7830772 30 0 0 0.5100309,0.211354 c -0.07953,0.589405 -0.105795,0.798926 0.1198865,0.84491 0.2591746,0.05281 0.3206445,-0.161402 0.5658572,-0.660921 a 4.7963062,4.7830772 30 0 0 0.5327848,0.0739 c 0.08765,0.598163 0.1191218,0.807816 0.3503568,0.789613 0.2625321,-0.02069 0.2636751,-0.242938 0.3601727,-0.785485 a 4.7963062,4.7830772 30 0 0 0.5529193,-0.07183 c 0.2256206,0.537018 0.3106963,0.728865 0.5265671,0.65473 0.2458629,-0.08441 0.1960989,-0.298182 0.1545099,-0.831972 a 4.7963062,4.7830772 30 0 0 0.486774,-0.19585 c 0.390494,0.456507 0.528737,0.616286 0.714155,0.47799 0.207073,-0.154427 0.09719,-0.342313 -0.102835,-0.830939 a 4.7963062,4.7830772 30 0 0 0.450103,-0.341071 c 0.488335,0.345754 0.661451,0.466958 0.807181,0.287837 0.163288,-0.200705 0.01017,-0.356416 -0.304373,-0.782892 a 4.7963062,4.7830772 30 0 0 0.344165,-0.453199 c 0.533156,0.221183 0.728389,0.2967 0.829407,0.09302 0.115574,-0.233081 -0.07036,-0.349695 -0.475927,-0.700713 a 4.7963062,4.7830772 30 0 0 0.203087,-0.498151 c 0.588001,0.06356 0.79776,0.08313 0.837659,-0.1431434 0.04531,-0.256968 -0.166613,-0.315882 -0.657825,-0.5400078 a 4.7963062,4.7830772 30 0 0 0.07131,-0.5400077 c 0.595569,-0.092672 0.804693,-0.1263132 0.784428,-0.3570772 -0.023,-0.262085 -0.244767,-0.2615162 -0.78702,-0.3529497 A 4.7963062,4.7830772 30 0 0 13.166566,7.5874978 C 13.714009,7.3355171 13.905935,7.2458192 13.82336,7.0293928 13.730579,6.7862411 13.518669,6.84361 12.98517,6.9033046 A 4.7963062,4.7830772 30 0 0 12.7733,6.3943055 C 13.254015,6.0224648 13.422288,5.8922385 13.292644,5.6992539 13.143423,5.477131 12.948955,5.5908184 12.409502,5.7783183 A 4.7963062,4.7830772 30 0 0 12.081873,5.3540643 C 12.434214,4.8470232 12.556715,4.6728502 12.373837,4.5267226 12.16874,4.3628497 12.016204,4.5223862 11.578033,4.8502246 A 4.7963062,4.7830772 30 0 0 11.14137,4.5200288 c 0.22157,-0.5673125 0.299002,-0.7654829 0.08888,-0.8645416 h -5.29e-4 C 10.99084,3.5435963 10.880135,3.7368243 10.524857,4.1634543 A 4.7963062,4.7830772 30 0 0 10.028266,3.9619184 C 10.107847,3.3569563 10.135707,3.1456891 9.9073455,3.0999697 9.6447816,3.0473897 9.5870185,3.2656735 9.3357998,3.779517 A 4.7963062,4.7830772 30 0 0 8.8082008,3.7092392 C 8.704922,3.100229 8.6706245,2.8897821 8.437683,2.9134355 Z m 1.1792331,1.6830728 c 0.1675479,-0.02295 0.4335412,0.081491 0.7120902,0.2361588 0.464232,0.2577538 0.962622,0.6550736 1.09552,0.8345647 0.63613,0.6810289 1.100309,1.5258329 1.127058,2.8833928 0.005,0.2528459 -0.01874,0.4819325 -0.07803,0.6692022 -0.06449,0.1956781 -0.195138,0.3911551 -0.400494,0.4862716 -0.170266,0.071601 -0.359406,0.1224953 -0.535352,0.041341 C 10.989621,9.495842 10.300231,9.0612984 9.7472058,8.7339865 9.6541742,8.6788851 9.586529,8.5894464 9.576676,8.5443355 9.4718018,8.345255 9.4917115,8.0548096 9.3446526,7.8849493 9.129647,7.5794917 8.9446077,7.6250259 8.8966128,7.3258124 8.874113,6.6605259 8.8694537,5.987699 8.8867943,5.3321491 8.8877732,4.8772567 9.2148206,4.6097928 9.6169822,4.5962992 Z m -2.3579634,0.022738 c 0.1393278,-0.00773 0.2848997,0.015073 0.4128771,0.083716 0.024381,0.01307 0.047847,0.0279 0.070796,0.044441 0.1459423,0.1132085 0.2830477,0.2528273 0.2986844,0.4459495 0.04986,0.6010464 0.00967,1.4148416 -0.00414,2.0572154 -0.0023,0.1081021 -0.047177,0.2111242 -0.081647,0.241842 C 7.8336071,7.6813999 7.5710035,7.8063558 7.4951749,8.017861 7.334559,8.3550947 7.465161,8.4937611 7.228002,8.6824066 6.6593667,9.0285302 6.0750153,9.3628535 5.4953205,9.6694223 5.098477,9.8918124 4.7050465,9.7382766 4.4959225,9.3944972 4.2233257,9.035224 4.3960012,7.620065 4.5419144,7.2938643 4.8231101,6.4053782 5.3311566,5.5861856 6.5009441,4.8966372 6.7188019,4.7682101 6.930331,4.6769591 7.1226013,4.6367085 7.1668205,4.6279933 7.2125823,4.6217148 7.259024,4.6191378 Z M 8.4666968,7.9666278 A 0.50719986,0.50719986 0 0 1 8.9736321,8.473563 0.50719986,0.50719986 0 0 1 8.4666968,8.9810275 0.50719986,0.50719986 0 0 1 7.9592324,8.473563 0.50719986,0.50719986 0 0 1 8.4666968,7.9666278 Z M 9.0816336,9.418193 c 0.050617,-0.0019 0.1067607,0.00738 0.1772475,0.035139 0.2920169,0.1597058 0.5833989,0.3243221 0.8712619,0.4924627 0.287863,0.1681593 0.571863,0.3398003 0.84954,0.5141843 0.391023,0.232455 0.454628,0.650047 0.261479,1.003023 -0.174829,0.415708 -1.486331,0.974025 -1.8417149,1.010775 -0.9100493,0.200713 -1.873491,0.17013 -3.0556344,-0.498151 -0.220157,-0.124453 -0.4053895,-0.261858 -0.536383,-0.408247 -0.1355814,-0.155147 -0.2371695,-0.367025 -0.2144553,-0.59221 0.025069,-0.182988 0.07776,-0.371523 0.2371906,-0.481614 0.4955848,-0.343716 1.2206399,-0.7154775 1.7838513,-1.0247186 0.09478,-0.05204 0.2062851,-0.064616 0.2501101,-0.050125 0.2247369,0.01111 0.4646554,0.1754589 0.6857385,0.1353909 0.2792642,-0.02214 0.3798839,-0.1301787 0.5317529,-0.1359068 z" fill="#ffffff" image-rendering="optimizeSpeed" stroke-width="0.254328" id="path20"/>
  </g>
</svg>
