<?xml version="1.0" encoding="UTF-8" standalone="no"?>
<svg xmlns:inkscape="http://www.inkscape.org/namespaces/inkscape" xmlns:sodipodi="http://sodipodi.sourceforge.net/DTD/sodipodi-0.dtd" xmlns:xlink="http://www.w3.org/1999/xlink" xmlns="http://www.w3.org/2000/svg" xmlns:svg="http://www.w3.org/2000/svg" width="64" height="64" version="1.1" id="svg21" sodipodi:docname="preferences-desktop-touchpad.svg" inkscape:version="1.3.2 (091e20ef0f, 2023-11-25, custom)">
  <defs id="defs7">
    <linearGradient id="linearGradient2" inkscape:collect="always">
      <stop style="stop-color:#363f3e;stop-opacity:1" offset="0" id="stop3"/>
      <stop style="stop-color:#262e30;stop-opacity:1" offset="0.46736446" id="stop6"/>
      <stop style="stop-color:#233836;stop-opacity:1" offset="1" id="stop5"/>
    </linearGradient>
    <linearGradient id="b-6" x1="399.57" x2="399.57" y1="545.8" y2="517.8" gradientTransform="matrix(2.1429,0,0,2.1429,-826.36,-1107.5)" gradientUnits="userSpaceOnUse">
      <stop stop-color="#3889e9" offset="0" id="stop2"/>
      <stop stop-color="#5ea5fb" offset="1" id="stop4"/>
    </linearGradient>
    <linearGradient id="linearGradient1159-3" x1="-184.75" x2="-170.2" y1="-1.2654999" y2="-15.817" gradientTransform="matrix(3.779602,0,0,3.779602,598.675,64.285361)" gradientUnits="userSpaceOnUse">
      <stop stop-color="#6d7982" offset="0" id="stop1877"/>
      <stop stop-color="#859094" offset="1" id="stop1879"/>
    </linearGradient>
    <linearGradient id="linearGradient7064" x1="-177.35001" x2="-177.35001" y1="-1.1773" y2="-15.837" gradientTransform="matrix(3.3368029,0,0,3.3390986,520.09802,60.522613)" gradientUnits="userSpaceOnUse">
      <stop stop-color="#233937" offset="0" id="stop1882"/>
      <stop stop-color="#232b2d" offset=".48448" id="stop1884"/>
      <stop stop-color="#384140" offset="1" id="stop1886"/>
    </linearGradient>
    <linearGradient id="linearGradient7076" x1="-177.35001" x2="-177.35001" y1="-1.1773" y2="-15.837" gradientTransform="matrix(3.2836048,0,0,0.18901412,614.79082,48.739133)" gradientUnits="userSpaceOnUse">
      <stop stop-color="#3b454b" offset="0" id="stop1889" style="stop-color:#232b2d;stop-opacity:1"/>
      <stop stop-color="#2c353a" offset="1" id="stop1891" style="stop-color:#232b2d;stop-opacity:1"/>
    </linearGradient>
    <filter inkscape:collect="always" style="color-interpolation-filters:sRGB" id="filter1057" x="-0.026999999" width="1.054" y="-0.026999999" height="1.054">
      <feGaussianBlur inkscape:collect="always" stdDeviation="0.61875" id="feGaussianBlur1059"/>
    </filter>
    <radialGradient inkscape:collect="always" xlink:href="#linearGradient37376" id="radialGradient37378" cx="8.4665003" cy="8.4665003" fx="8.4665003" fy="8.4665003" r="7.276" gradientUnits="userSpaceOnUse" gradientTransform="scale(3.779602)"/>
    <linearGradient inkscape:collect="always" id="linearGradient37376">
      <stop style="stop-color:#5e6a76;stop-opacity:1;" offset="0" id="stop37372"/>
      <stop style="stop-color:#1d2123;stop-opacity:1;" offset="1" id="stop37374"/>
    </linearGradient>
    <linearGradient inkscape:collect="always" xlink:href="#linearGradient2" id="linearGradient5" x1="32" y1="9" x2="32" y2="55" gradientUnits="userSpaceOnUse"/>
  <radialGradient id="gradient_ds_br" cx="0" cy="0" r="1" gradientUnits="userSpaceOnUse" gradientTransform="matrix(13.998399,0.00477622,-0.00477841,14.004799,47.5016,48.4952)">
      <stop offset="0.65" id="stop1"/>
      <stop offset="1" stop-opacity="0" id="stop2"/>
    </radialGradient><linearGradient id="gradient_ds_b" x1="30.448999" y1="48.5" x2="30.492201" y2="62.500301" gradientUnits="userSpaceOnUse">
      <stop offset="0.653846" id="stop3"/>
      <stop offset="1" stop-opacity="0" id="stop4"/>
    </linearGradient><radialGradient id="gradient_ds_bl" cx="0" cy="0" r="1" gradientUnits="userSpaceOnUse" gradientTransform="matrix(0,14,-14,0,16.5,48.5)">
      <stop offset="0.65" id="stop5"/>
      <stop offset="1" stop-opacity="0" id="stop6"/>
    </radialGradient><linearGradient id="gradient_ds_r" x1="47.5" y1="33.5" x2="61.5" y2="33.5009" gradientUnits="userSpaceOnUse">
      <stop offset="0.649038" id="stop7"/>
      <stop offset="1" stop-opacity="0" id="stop8"/>
    </linearGradient><linearGradient id="gradient_ds_l" x1="16.5" y1="33.894699" x2="2.5" y2="33.894699" gradientUnits="userSpaceOnUse">
      <stop offset="0.649038" id="stop9"/>
      <stop offset="1" stop-opacity="0" id="stop10"/>
    </linearGradient><radialGradient id="gradient_ds_tr" cx="0" cy="0" r="1" gradientTransform="matrix(0.00843236,-14,14.0084,0.0189842,47.4916,18.5)" gradientUnits="userSpaceOnUse">
      <stop offset="0.65" id="stop11"/>
      <stop offset="1" stop-opacity="0" id="stop12"/>
    </radialGradient><linearGradient id="gradient_ds_t" x1="29.98" y1="18.5" x2="29.9158" y2="4.4998598" gradientUnits="userSpaceOnUse">
      <stop offset="0.649038" id="stop13"/>
      <stop offset="1" stop-opacity="0" id="stop14"/>
    </linearGradient><radialGradient id="gradient_ds_tl" cx="0" cy="0" r="1" gradientTransform="matrix(-0.00843236,-14,-14.0084,0.0189842,16.5084,18.5)" gradientUnits="userSpaceOnUse">
      <stop offset="0.65" id="stop15"/>
      <stop offset="1" stop-opacity="0" id="stop16"/>
    </radialGradient></defs>
  
  <g id="ds" opacity="0.25">
    <path id="ds-br" d="m 47.5,48.5 h 14 v 14 h -14 z" fill="url(#gradient_ds_br)" style="fill:url(#gradient_ds_br)"/>
    <path id="ds-b" d="m 16.5,48.5 h 31 v 14 h -31 z" fill="url(#gradient_ds_b)" style="fill:url(#gradient_ds_b)"/>
    <path id="ds-bl" d="m 2.5,48.5 h 14 v 14 h -14 z" fill="url(#gradient_ds_bl)" style="fill:url(#gradient_ds_bl)"/>
    <path id="ds-r" d="m 47.5,18.5 h 14 v 30 h -14 z" fill="url(#gradient_ds_r)" style="fill:url(#gradient_ds_r)"/>
    <path id="ds-l" d="m 2.5,18.5 h 14 v 30 h -14 z" fill="url(#gradient_ds_l)" style="fill:url(#gradient_ds_l)"/>
    <path id="ds-tr" d="m 47.5,4.5 h 14 v 14 h -14 z" fill="url(#gradient_ds_tr)" style="fill:url(#gradient_ds_tr)"/>
    <path id="ds-t" d="m 16.5,4.5 h 31 v 14 h -31 z" fill="url(#gradient_ds_t)" style="fill:url(#gradient_ds_t)"/>
    <path id="ds-tl" d="m 16.5,4.5 h -14 v 14 h 14 z" fill="url(#gradient_ds_tl)" style="fill:url(#gradient_ds_tl)"/>
  </g><rect x="4.5" y="4.5" width="55" height="55" stroke-linecap="round" stroke-width="2.74441" id="bg" style="fill:url(#radialGradient37378);fill-opacity:1" rx="10"/>
  <g id="art"><path id="rect16" d="M 17 9 C 12.568008 9 9 12.568008 9 17 L 9 45.75 L 30.625 45.75 L 33.375 45.75 L 55 45.75 L 55 17 C 55 12.568008 51.431992 9 47 9 L 17 9 z M 9.1445312 48.5 C 9.8431839 52.209703 13.081284 55 17 55 L 30.625 55 L 30.625 48.5 L 9.1445312 48.5 z M 33.375 48.5 L 33.375 55 L 47 55 C 50.918716 55 54.156816 52.209703 54.855469 48.5 L 33.375 48.5 z " style="fill:url(#linearGradient5);fill-opacity:1"/><path d="m 26.07675,16.693 a 4.3077,4.3077 0 0 0 -4.3077,4.3077 4.3077,4.3077 0 0 0 3.2308,4.1689 v -2.3095 a 2.1538,2.1538 0 0 1 -1.0769,-1.8594 2.1538,2.1538 0 0 1 2.1538,-2.1538 2.1538,2.1538 0 0 1 2.1539,2.1538 2.1538,2.1538 0 0 1 -0.02154,0.29027 l 1.8173,1.4135 a 4.3077,4.3077 0 0 0 0.35758,-1.7037 4.3077,4.3077 0 0 0 -4.3077,-4.3077 z m 0,4.3077 0.013,21 6.4489,-8.6154 h 9.692301 L 26.07695,21.0003 Z" stroke-linejoin="round" stroke-width="2.1538" id="path1" style="fill:#ffffff;fill-opacity:1"/></g>
  
</svg>
