<?xml version="1.0" encoding="UTF-8" standalone="no"?>
<svg xmlns:inkscape="http://www.inkscape.org/namespaces/inkscape" xmlns:sodipodi="http://sodipodi.sourceforge.net/DTD/sodipodi-0.dtd" xmlns="http://www.w3.org/2000/svg" xmlns:svg="http://www.w3.org/2000/svg" width="64" height="64" version="1.1" viewBox="0 0 64 64" id="svg5" sodipodi:docname="preferences-desktop-activities.svg" inkscape:version="1.4.2 (ebf0e940d0, 2025-05-08)">
  <sodipodi:namedview id="namedview5" pagecolor="#ffffff" bordercolor="#000000" borderopacity="0.25" inkscape:showpageshadow="2" inkscape:pageopacity="0.0" inkscape:pagecheckerboard="0" inkscape:deskcolor="#d1d1d1" inkscape:current-layer="svg5"/>
  <defs id="defs2">
    <filter id="filter1057-2" x="-0.026999999" y="-0.026999999" width="1.054" height="1.054" color-interpolation-filters="sRGB">
      <feGaussianBlur stdDeviation="0.61875" id="feGaussianBlur1"/>
    </filter>
    <linearGradient id="linearGradient1890" x1="8.4665" x2="3.1749" y1="9.2602" y2="9.2602" gradientTransform="matrix(0,-4.8099,4.8099,0,-8.695,72.728)" gradientUnits="userSpaceOnUse">
      <stop offset="0" id="stop1"/>
      <stop stop-opacity="0" offset="1" id="stop2"/>
    </linearGradient>
    <filter inkscape:collect="always" style="color-interpolation-filters:sRGB" id="filter1057" x="-0.026999999" width="1.054" y="-0.026999999" height="1.054">
      <feGaussianBlur inkscape:collect="always" stdDeviation="0.61875" id="feGaussianBlur1059"/>
    </filter>
  <radialGradient id="gradient_ds_br" cx="0" cy="0" r="1" gradientUnits="userSpaceOnUse" gradientTransform="matrix(13.998399,0.00477622,-0.00477841,14.004799,47.5016,48.4952)">
      <stop offset="0.65" id="stop1"/>
      <stop offset="1" stop-opacity="0" id="stop2"/>
    </radialGradient><linearGradient id="gradient_ds_b" x1="30.448999" y1="48.5" x2="30.492201" y2="62.500301" gradientUnits="userSpaceOnUse">
      <stop offset="0.653846" id="stop3"/>
      <stop offset="1" stop-opacity="0" id="stop4"/>
    </linearGradient><radialGradient id="gradient_ds_bl" cx="0" cy="0" r="1" gradientUnits="userSpaceOnUse" gradientTransform="matrix(0,14,-14,0,16.5,48.5)">
      <stop offset="0.65" id="stop5"/>
      <stop offset="1" stop-opacity="0" id="stop6"/>
    </radialGradient><linearGradient id="gradient_ds_r" x1="47.5" y1="33.5" x2="61.5" y2="33.5009" gradientUnits="userSpaceOnUse">
      <stop offset="0.649038" id="stop7"/>
      <stop offset="1" stop-opacity="0" id="stop8"/>
    </linearGradient><linearGradient id="gradient_ds_l" x1="16.5" y1="33.894699" x2="2.5" y2="33.894699" gradientUnits="userSpaceOnUse">
      <stop offset="0.649038" id="stop9"/>
      <stop offset="1" stop-opacity="0" id="stop10"/>
    </linearGradient><radialGradient id="gradient_ds_tr" cx="0" cy="0" r="1" gradientTransform="matrix(0.00843236,-14,14.0084,0.0189842,47.4916,18.5)" gradientUnits="userSpaceOnUse">
      <stop offset="0.65" id="stop11"/>
      <stop offset="1" stop-opacity="0" id="stop12"/>
    </radialGradient><linearGradient id="gradient_ds_t" x1="29.98" y1="18.5" x2="29.9158" y2="4.4998598" gradientUnits="userSpaceOnUse">
      <stop offset="0.649038" id="stop13"/>
      <stop offset="1" stop-opacity="0" id="stop14"/>
    </linearGradient><radialGradient id="gradient_ds_tl" cx="0" cy="0" r="1" gradientTransform="matrix(-0.00843236,-14,-14.0084,0.0189842,16.5084,18.5)" gradientUnits="userSpaceOnUse">
      <stop offset="0.65" id="stop15"/>
      <stop offset="1" stop-opacity="0" id="stop16"/>
    </radialGradient></defs>
  
  <g id="ds" opacity="0.25">
    <path id="ds-br" d="m 47.5,48.5 h 14 v 14 h -14 z" fill="url(#gradient_ds_br)" style="fill:url(#gradient_ds_br)"/>
    <path id="ds-b" d="m 16.5,48.5 h 31 v 14 h -31 z" fill="url(#gradient_ds_b)" style="fill:url(#gradient_ds_b)"/>
    <path id="ds-bl" d="m 2.5,48.5 h 14 v 14 h -14 z" fill="url(#gradient_ds_bl)" style="fill:url(#gradient_ds_bl)"/>
    <path id="ds-r" d="m 47.5,18.5 h 14 v 30 h -14 z" fill="url(#gradient_ds_r)" style="fill:url(#gradient_ds_r)"/>
    <path id="ds-l" d="m 2.5,18.5 h 14 v 30 h -14 z" fill="url(#gradient_ds_l)" style="fill:url(#gradient_ds_l)"/>
    <path id="ds-tr" d="m 47.5,4.5 h 14 v 14 h -14 z" fill="url(#gradient_ds_tr)" style="fill:url(#gradient_ds_tr)"/>
    <path id="ds-t" d="m 16.5,4.5 h 31 v 14 h -31 z" fill="url(#gradient_ds_t)" style="fill:url(#gradient_ds_t)"/>
    <path id="ds-tl" d="m 16.5,4.5 h -14 v 14 h 14 z" fill="url(#gradient_ds_tl)" style="fill:url(#gradient_ds_tl)"/>
  </g><rect y="4.5" x="4.5" height="55" width="55" id="bg" style="fill:#2196f3;fill-opacity:1;stroke-width:1;stroke-linecap:butt;font-variation-settings:normal;opacity:1;vector-effect:none;stroke-linejoin:miter;stroke-miterlimit:4;stroke-dasharray:none;stroke-dashoffset:0;stroke-opacity:1;-inkscape-stroke:none;paint-order:stroke fill markers;stop-color:#000000;stop-opacity:1" rx="10"/>
  <g id="art"><path id="path3" style="fill:url(#linearGradient1890);opacity:0.3" d="M 4.5 32.003906 L 4.5 49.5 C 4.5 53.975866 7.4112614 57.74774 11.451172 59.03125 C 14.328381 59.347729 17.072308 59.487017 19.179688 59.5 L 44.699219 59.5 C 47.078582 59.476435 50.596614 59.036728 54.318359 58.271484 C 57.411416 56.574752 59.5 53.29042 59.5 49.5 L 59.5 32.003906 L 4.5 32.003906 z "/><path d="m 25.596,11.001 v 16 h 10.08 l 2.72,-2.72 v -13.28 z m 0.63998,0.63998 h 11.52 v 12.16 h -2.56 v 2.56 h -8.96 z m 1.92,1.92 v 0.63998 h 7.6801 v -0.63998 z m 0,1.92 v 0.63999 h 7.6801 v -0.63999 z m 0,1.92 v 0.63998 h 7.6801 v -0.63998 z m 0,1.92 v 0.63999 h 3.84 v -0.63999 z" color="#000000" fill="#ffffff" stroke="#ffffff" id="path4"/><path d="M 31.996,37 A 8,8 0 0 0 30.46,37.1504 L 30.4056,37.16 c -0.2656,0.048 -0.5264,0.1104 -0.784,0.1904 a 7.888,7.888 0 0 0 -1.5344,0.6752 7.0848,7.0848 0 0 0 -0.736,0.4688 c -0.1552,0.112 -0.3088,0.224 -0.4544,0.3456 a 6.368,6.368 0 0 0 -0.1888,0.1664 c -0.1536,0.136 -0.3072,0.272 -0.448,0.4192 -0.3424,0.352 -0.6448,0.7376 -0.9168,1.1456 a 8.064,8.064 0 0 0 -0.0912,0.128 7.9776,7.9776 0 0 0 -0.4064,0.72 8.0128,8.0128 0 0 0 -0.344,0.7936 c -0.0512,0.1376 -0.112,0.272 -0.1552,0.4128 -0.0224,0.0704 -0.0336,0.144 -0.0544,0.2144 a 7.2464,7.2464 0 0 0 -0.152,0.672 8,8 0 0 0 -0.0944,0.6624 v 0.0064 A 8,8 0 0 0 23.996,45 a 8,8 0 0 0 0.16,1.5904 c 0.048,0.2656 0.1104,0.5264 0.1904,0.784 a 7.8816,7.8816 0 0 0 0.6752,1.5344 7.0848,7.0848 0 0 0 0.4688,0.736 7.4048,7.4048 0 0 0 0.512,0.6432 c 0.136,0.1536 0.272,0.3072 0.4192,0.448 0.352,0.3424 0.7376,0.6448 1.1472,0.9168 0.0416,0.032 0.0848,0.0608 0.128,0.0912 0.1904,0.1216 0.3856,0.232 0.5872,0.336 l 0.1312,0.0704 a 8.0128,8.0128 0 0 0 0.7936,0.344 c 0.1376,0.0512 0.272,0.112 0.4128,0.1552 0.0704,0.0224 0.144,0.0336 0.216,0.0528 a 7.504,7.504 0 0 0 0.6704,0.1536 8,8 0 0 0 0.6448,0.0912 l 0.0176,0.0032 h 0.006 A 8,8 0 0 0 31.9956,53 8,8 0 0 0 33.5316,52.8496 L 33.586,52.84 c 0.2656,-0.048 0.5264,-0.1104 0.784,-0.1904 a 7.952,7.952 0 0 0 1.288,-0.544 l 0.1632,-0.08 a 8,8 0 0 0 1.2,-0.8096 c 0.032,-0.0272 0.0688,-0.0512 0.1024,-0.08 A 8,8 0 0 0 38.042,50.2192 C 38.106,50.144 38.1748,50.0752 38.2356,50 a 8,8 0 0 0 0.6752,-1 c 0.0624,-0.1056 0.1248,-0.2096 0.1824,-0.32 a 8,8 0 0 0 0.464,-1.096 c 0.0256,-0.072 0.0656,-0.136 0.088,-0.208 0.0224,-0.072 0.0336,-0.144 0.0528,-0.216 l 0.006,-0.0192 0.016,-0.0656 a 8,8 0 0 0 0.2224,-1.232 l 0.003,-0.0176 V 45.8192 A 8,8 0 0 0 39.995,45 8,8 0 0 0 39.835,43.4096 c -0.048,-0.2656 -0.112,-0.528 -0.1904,-0.784 -0.0192,-0.0608 -0.0544,-0.1152 -0.0752,-0.176 a 8,8 0 0 0 -1.272,-2.3632 c -0.0464,-0.0576 -0.08,-0.128 -0.128,-0.1856 -0.0832,-0.1024 -0.1808,-0.192 -0.272,-0.2848 a 8,8 0 0 0 -1.3456,-1.1792 c -0.064,-0.0432 -0.1216,-0.088 -0.1856,-0.1312 a 8.032,8.032 0 0 0 -0.144,-0.0896 7.4496,7.4496 0 0 0 -1.1024,-0.592 c -0.072,-0.0288 -0.1504,-0.0512 -0.224,-0.08 -0.176,-0.0688 -0.3504,-0.1392 -0.5264,-0.1936 -0.0704,-0.0224 -0.144,-0.0336 -0.2144,-0.0528 l -0.0192,-0.0064 a 7.3424,7.3424 0 0 0 -1.2976,-0.2384 l -0.0176,-0.0032 h -0.006 A 8,8 0 0 0 31.996,37 Z m 0,1.6 a 6.4,6.4 0 0 1 3.3872,0.9808 c -0.003,0.008 -0.01,0.008 -0.0128,0.0192 0.0288,0.0592 0.104,0.064 0.1728,0.0784 l 0.1056,0.072 c 0.04,0.0544 0.072,0.112 0.096,0.176 a 0.592,0.592 0 0 1 0,0.224 c -0.0448,0.1152 -0.1648,0.1024 -0.2992,0.0992 -0.0368,0 -0.0656,0.0032 -0.0992,0 -0.2256,-0.0144 -0.448,-0.0864 -0.5504,0.0752 0.006,0.1232 0.0272,0.192 0,0.3008 -0.0208,0.0784 -0.104,0.1312 -0.1008,0.2 0.002,0.0336 0.0672,0.1008 0.0752,0.1488 0.006,0.0272 -0.0112,0.0768 0,0.1008 0.0384,0.0704 0.1328,-0.0112 0.2,0 0.064,0.0096 0.1248,0.104 0.1248,0.176 a 0.432,0.432 0 0 1 -0.048,0.1984 c -0.064,0.096 -0.184,0.0736 -0.2768,0.1248 -0.0752,0.0448 -0.104,0.1504 -0.1488,0.2256 -0.048,0.08 -0.096,0.1088 -0.0752,0.224 a 0.5392,0.5392 0 0 1 -0.2752,0.2768 0.6368,0.6368 0 0 0 -0.224,0.176 c -0.0528,0.0544 -0.1232,0.08 -0.1504,0.1232 -0.0208,0.032 -0.003,0.1056 -0.0256,0.1504 -0.032,0.0608 -0.0848,0.112 -0.1248,0.176 -0.0192,0.0272 -0.0544,0.0608 -0.0752,0.0992 -0.048,0.0832 -0.1088,0.1504 -0.1008,0.224 0.006,0.072 0.096,0.088 0.1008,0.1504 0.003,0.0352 -0.0272,0.0624 -0.0256,0.1008 0.002,0.0544 0.0208,0.08 0.0256,0.1248 0.01,0.1072 -0.0544,0.1504 -0.0752,0.224 -0.01,0.0352 0.008,0.0736 0,0.1008 -0.016,0.0528 -0.0992,0.0864 -0.0992,0.1504 -0.002,0.0448 0.0704,0.0848 0.0736,0.1488 0.003,0.0432 -0.032,0.0848 -0.024,0.1248 0.016,0.08 0.1632,0.1888 0.224,0.2512 0.0832,0.0816 0.1648,0.1376 0.2,0.224 0.032,0.0752 0.0432,0.1952 0.1008,0.2512 0.0416,0.04 0.1216,0.0576 0.176,0.0992 0.0496,0.04 0.12,0.0576 0.1744,0.1008 0.088,0.0688 0.208,0.208 0.3488,0.2 0.0752,-0.0064 0.144,-0.0368 0.2256,-0.0512 0.0864,-0.0144 0.1872,-0.0576 0.2752,-0.0496 0.0672,0.008 0.1296,0.0544 0.2,0.0496 a 0.8352,0.8352 0 0 0 0.2496,-0.0752 c 0.144,-0.0624 0.3664,-0.1792 0.576,-0.1488 0.16,0.0224 0.1616,0.2032 0.2736,0.2752 0.128,0.0112 0.224,-0.0256 0.3264,0 0.0768,0.0176 0.1664,0.1632 0.1744,0.224 0.008,0.064 -0.0416,0.112 -0.0496,0.1504 -0.0208,0.0848 -0.0352,0.1968 -0.0496,0.2496 -0.0112,0.0432 -0.0272,0.0832 -0.0256,0.1248 0,0.0384 0.0608,0.1264 0.0992,0.176 0.048,0.0608 0.1168,0.1072 0.176,0.1744 0.1056,0.1216 0.1504,0.288 0.224,0.4496 0.0192,0.0416 -0.016,0.0496 0,0.1008 -0.032,0.2432 -0.1136,0.4048 -0.2736,0.6752 -0.0768,0.0864 -0.152,0.1904 -0.1504,0.2992 -0.006,0.2624 0.136,0.3968 0.1248,0.6496 v 0.0096 a 6.4,6.4 0 0 1 -7.0352,2.3344 c 0,-0.008 0.01,-0.0096 0.01,-0.0192 C 30.1182,51.0576 30.0796,51.0384 30.046,51 30.0188,50.968 30.04,50.9296 30.022,50.8992 29.9868,50.8496 29.9356,50.824 29.9212,50.7504 c 0.1056,-0.0208 0.2496,0.1168 0.4,0.0752 0.072,-0.0208 0.192,-0.16 0.224,-0.2256 0.0112,-0.0208 -0.01,-0.1008 0,-0.1248 0.0144,-0.0272 0.048,-0.0352 0.0512,-0.0496 0.01,-0.04 -0.008,-0.0512 0,-0.0752 0.0256,-0.0752 0.1072,-0.1216 0.1504,-0.176 0.032,-0.04 0.0688,-0.0816 0.0992,-0.1248 0.0352,-0.0448 0.0528,-0.0608 0.0752,-0.0992 0.0224,-0.1328 -0.0816,-0.2336 -0.0496,-0.3504 0.0352,-0.1312 0.224,-0.216 0.3504,-0.2752 0.0432,-0.0208 0.088,-0.0624 0.1248,-0.0752 0.0864,-0.0304 0.192,-0.0208 0.2752,-0.0496 0.136,-0.048 0.1824,-0.2 0.2496,-0.3248 0.032,-0.0576 0.0688,-0.1088 0.0752,-0.1504 0.005,-0.0368 -0.008,-0.08 0,-0.1248 0.008,-0.0432 0.0128,-0.0768 0.024,-0.1248 a 1.2672,1.2672 0 0 0 0.0256,-0.2496 c 0,-0.0592 -0.024,-0.0736 -0.0256,-0.1264 -0.01,-0.1888 0.056,-0.1968 0.1264,-0.2992 0.0336,-0.0512 0.0496,-0.1392 0.0736,-0.176 0.1184,-0.1728 0.3152,-0.2592 0.3008,-0.5248 -0.006,-0.0864 -0.0368,-0.272 -0.1008,-0.2992 -0.0352,-0.016 -0.12,-0.0048 -0.1744,-0.0256 -0.1712,-0.064 -0.296,-0.2592 -0.4752,-0.2752 H 31.622 c -0.0704,0 -0.1472,-0.0656 -0.224,-0.0736 -0.0512,-0.0064 -0.1472,0.0144 -0.176,0 -0.0448,-0.0224 -0.0384,-0.1008 -0.0752,-0.1264 -0.0288,-0.0192 -0.08,-0.032 -0.1248,-0.048 A 0.5968,0.5968 0 0 0 30.822,46.2 c -0.0272,-0.0016 -0.096,0.0048 -0.1248,0 -0.0464,-0.008 -0.0832,-0.048 -0.1248,-0.0752 -0.0528,-0.032 -0.08,-0.0544 -0.1008,-0.0992 0.048,-0.1584 -0.1184,-0.184 -0.1504,-0.2752 -0.0144,-0.0432 0.016,-0.112 0,-0.1504 -0.0176,-0.0544 -0.064,-0.08 -0.1248,-0.1248 a 0.6832,0.6832 0 0 0 -0.3504,-0.176 c -0.0656,-0.008 -0.144,0.0048 -0.224,0 A 0.3936,0.3936 0 0 1 29.3724,45.1744 C 29.31,45.104 29.3004,45.0336 29.246,45 c -0.0496,-0.032 -0.1392,-0.0416 -0.1744,-0.0752 -0.016,-0.0144 -0.0112,-0.0416 -0.024,-0.0752 -0.0272,-0.0528 -0.0832,-0.0608 -0.0512,-0.1248 -0.0576,-0.0288 -0.0368,0.0368 -0.0992,0.0256 -0.0576,-0.08 -0.096,-0.1248 -0.224,-0.1008 -0.0592,0.0112 -0.1088,0.0992 -0.176,0.1008 -0.0576,0 -0.1008,-0.0896 -0.176,-0.1008 -0.056,-0.008 -0.1344,0.0592 -0.1744,0.0496 -0.0624,-0.0112 -0.0688,-0.0864 -0.1248,-0.1248 -0.0416,-0.0272 -0.128,-0.1008 -0.1504,-0.0992 -0.072,0 -0.1248,0.1536 -0.224,0.0992 -0.0496,-0.0624 0.0832,-0.0656 0.024,-0.1248 -0.0432,-0.0432 -0.064,0.0016 -0.0992,0.0256 -0.0416,0.0272 -0.08,0.0592 -0.1248,0.0752 -0.1008,0.0368 -0.1728,0.0336 -0.2512,0.0752 -0.072,0.0368 -0.0816,0.1008 -0.1248,0.1744 -0.032,0.0608 -0.0992,0.1472 -0.1488,0.1504 -0.0624,0.0032 -0.12,-0.0768 -0.176,-0.1008 -0.1664,-0.072 -0.2608,0.048 -0.4,0.0496 -0.128,0.0016 -0.304,-0.2032 -0.2992,-0.3248 0.003,-0.0736 0.0416,-0.1824 0.048,-0.2752 0.01,-0.072 0.0752,-0.1328 0.0768,-0.2 0,-0.088 -0.1424,-0.1648 -0.2,-0.1744 -0.0832,-0.016 -0.1792,0 -0.2784,0.0096 a 6.4,6.4 0 0 1 0.608,-1.8432 c 0.006,0 0.016,0.008 0.0208,0.0096 0.0464,0 0.056,-0.0576 0.0992,-0.0512 0.0432,0.008 0.1184,0.0976 0.1248,0.1504 0.006,0.064 -0.0432,0.128 -0.024,0.2 0.0672,0.0704 0.2016,0.1088 0.2992,0.1504 0.064,-0.0528 0.01,-0.176 0,-0.2496 -0.002,-0.0336 0.003,-0.0704 0,-0.1008 -0.008,-0.0528 -0.0256,-0.1056 -0.0256,-0.1504 0,-0.208 0.16,-0.2928 0.3008,-0.3744 0.0592,-0.0352 0.1232,-0.0992 0.176,-0.1248 0.0736,-0.0368 0.112,-0.04 0.1744,-0.0752 0.1104,-0.064 0.2144,-0.128 0.2992,-0.2 0.04,-0.096 -0.003,-0.208 0,-0.3008 0.04,-0.024 0.0576,0.0032 0.1008,0 0.0656,-0.0144 0.0864,-0.112 0.1248,-0.1488 0.0208,-0.0224 0.0976,-0.0288 0.1248,-0.0512 0.0672,-0.0512 0.0672,-0.1264 0.1248,-0.1488 0.0208,-0.008 0.0672,-0.016 0.0992,-0.0256 0.0448,-0.0112 0.1056,-0.0512 0.176,-0.0752 0.0448,-0.016 0.1568,-0.008 0.176,-0.024 0.0208,-0.0224 -0.008,-0.1168 0,-0.1504 0.0336,-0.1648 0.2768,-0.1696 0.424,-0.224 0.1008,-0.04 0.2112,-0.1232 0.3248,-0.1008 -0.0224,0.0784 -0.1184,0.0544 -0.1008,0.1488 0.0256,0.1328 0.1792,-0.032 0.2256,-0.048 0.0896,-0.0384 0.2592,-0.0592 0.3744,-0.1008 0.1024,-0.0368 0.272,-0.1072 0.176,-0.2256 -0.08,-0.0048 -0.1056,0.0704 -0.176,0.1008 -0.048,0.008 -0.0592,-0.0224 -0.0992,-0.0256 -0.04,-0.0016 -0.0608,0.032 -0.1008,0.0256 -0.0384,-0.008 -0.0928,-0.08 -0.0992,-0.1264 -0.016,-0.1216 0.1248,-0.16 0.176,-0.2496 -0.0352,-0.1104 -0.1824,-0.0064 -0.2768,-0.0496 0.01,-0.0656 0.048,-0.1376 0.1264,-0.1504 a 0.5024,0.5024 0 0 1 0.2496,0.0496 c 0.0208,0.0192 -0.008,0.0704 0.024,0.1008 0.0384,0.032 0.1008,0.008 0.1504,0 0.0176,-0.0832 -0.1136,-0.0464 -0.0992,-0.1008 0.0976,-0.064 0.2784,-0.032 0.4,-0.048 0.0688,-0.0112 0.1376,-0.0672 0.2,-0.1008 0.0576,-0.0336 0.112,-0.08 0.1744,-0.0256 0.016,0.0592 -0.0416,0.096 -0.0752,0.1248 -0.112,0.0992 -0.2128,0.2096 -0.2992,0.3248 0.0528,0.0528 0.1344,0.016 0.224,0.0256 0.0352,0.0048 0.0896,0.0192 0.1248,0.0256 0.0448,0.008 0.0912,-0.008 0.1248,0 0.0624,0.0144 0.064,0.0992 0.1264,0.0992 0.0976,0 0.1056,-0.0832 0.048,-0.1504 0.0192,-0.0688 0.0512,-0.128 0.0256,-0.176 -0.0448,-0.088 -0.216,0.016 -0.224,-0.0992 -0.006,-0.072 0.0736,-0.0944 0.0992,-0.1488 -0.0112,-0.1408 0.1152,-0.1488 0.1008,-0.2752 -0.008,-0.0528 -0.064,-0.0512 -0.1008,-0.1008 -0.0192,-0.0256 -0.0288,-0.08 -0.0496,-0.0992 -0.0192,-0.016 -0.0448,-0.0224 -0.0688,-0.032 A 6.4,6.4 0 0 1 31.9964,38.6 Z m 4.328,1.696 a 6.4,6.4 0 0 1 0.7216,0.7792 c -0.0528,0 -0.104,0.0256 -0.1488,0.0256 -0.064,0 -0.1952,-0.032 -0.2752,-0.0256 -0.048,0.0032 -0.08,0.0224 -0.1248,0.0256 -0.128,0.0096 -0.2016,-0.008 -0.3008,0 a 1.0528,1.0528 0 0 0 -0.2752,0.0736 c -0.032,0.016 -0.056,0.0544 -0.0992,0.0752 -0.0208,0.0096 -0.048,0.0128 -0.0752,0.0256 -0.0416,0.0192 -0.112,0.064 -0.1504,0.0752 -0.056,0.0144 -0.1216,-0.0048 -0.224,0 -0.0752,0.0032 -0.2,-0.0112 -0.2016,-0.1008 0,-0.1344 0.248,-0.0768 0.376,-0.0992 0.048,-0.0096 0.0672,-0.0672 0.1248,-0.1008 0.0272,-0.016 0.048,-0.032 0.0752,-0.0496 0.0432,-0.032 0.1168,-0.0896 0.1248,-0.1248 0.005,-0.032 -0.0288,-0.0768 -0.0256,-0.1008 0.006,-0.0304 0.0608,-0.0608 0.1008,-0.0992 0.0608,-0.0608 0.0992,-0.136 0.176,-0.176 0.0496,-0.0272 0.1504,-0.0336 0.1744,-0.0736 0.006,-0.048 -0.002,-0.0592 0,-0.1008 L 36.324,40.2976 Z M 25.62,44.4624 c 0.04,0.056 0.0816,0.112 0.1264,0.1376 0.003,0.048 -0.016,0.0896 0,0.1248 0.0368,0.0512 0.112,0.0672 0.176,0.1008 0.072,0.04 0.104,0.1424 0.1728,0.1744 0.0256,0.0096 0.064,-0.0112 0.1008,0 0.096,0.0288 0.1168,0.176 0.2,0.1504 0.0544,-0.016 0.0656,-0.0976 0.0752,-0.1504 0.0368,-0.0384 0.0672,-0.0992 0.1248,-0.0992 0.0896,-0.0016 0.1168,0.112 0.1504,0.2 0.0176,0.048 0.0608,0.096 0.0752,0.1488 a 1.3136,1.3136 0 0 1 0,0.4 c -0.024,0.0672 -0.12,0.1024 -0.176,0.176 -0.0256,0.0336 -0.0544,0.0768 -0.0752,0.0992 -0.0336,0.0432 -0.0736,0.0608 -0.0992,0.1008 -0.016,0.0208 -0.0112,0.0688 -0.0256,0.0992 -0.0432,0.0928 -0.112,0.1632 -0.0752,0.2752 0.016,0.0448 0.0752,0.096 0.0752,0.1504 0,0.064 -0.1392,0.08 -0.1488,0.1504 -0.008,0.0496 0.0576,0.1552 0.0736,0.224 0.0112,0.0512 0.096,0.0912 0.1248,0.1248 0.0512,0.0576 0.104,0.128 0.1504,0.2 0.0928,0.1408 0.136,0.312 0.224,0.4512 0.048,0.0704 0.144,0.1232 0.176,0.2 0.016,0.0368 -0.0144,0.1152 0,0.1488 0.0528,0.1184 0.3072,0.2416 0.4256,0.3008 0.0544,0.0272 0.0992,0.0464 0.1504,0.0752 0.0768,0.0432 0.2352,0.1312 0.2736,0.2 0.0352,0.0608 0.0576,0.2016 0.0752,0.2992 0.0224,0.128 -0.006,0.2368 0,0.376 0.003,0.0752 0.0256,0.1232 0.0256,0.2 V 49.6 c -0.002,0.0896 0.008,0.184 0,0.2752 v 0.112 a 6.4,6.4 0 0 1 -2.3744,-5.5248 z" fill="#ffffff" id="path5"/></g>
  
  
</svg>
