<?xml version="1.0" encoding="UTF-8" standalone="no"?>
<svg xmlns:inkscape="http://www.inkscape.org/namespaces/inkscape" xmlns:sodipodi="http://sodipodi.sourceforge.net/DTD/sodipodi-0.dtd" xmlns="http://www.w3.org/2000/svg" xmlns:svg="http://www.w3.org/2000/svg" width="64" height="64" version="1" id="svg10" sodipodi:docname="preferences-system-sharing.svg" inkscape:version="1.4.2 (ebf0e940d0, 2025-05-08)">
  <sodipodi:namedview id="namedview10" pagecolor="#ffffff" bordercolor="#000000" borderopacity="0.25" inkscape:showpageshadow="2" inkscape:pageopacity="0.0" inkscape:pagecheckerboard="0" inkscape:deskcolor="#d1d1d1" inkscape:current-layer="svg10"/>
  <defs id="defs2">
    <filter id="filter1057-1" x="-0.026999999" y="-0.026999999" width="1.054" height="1.054" color-interpolation-filters="sRGB">
      <feGaussianBlur stdDeviation="0.61875" id="feGaussianBlur1"/>
    </filter>
    <linearGradient id="linearGradient1053-2" x1="-127" x2="-72" y1="60" y2="5" gradientTransform="translate(131.498,-0.51)" gradientUnits="userSpaceOnUse">
      <stop stop-color="#a53cff" offset="0" id="stop1"/>
      <stop stop-color="#b496ff" offset="1" id="stop2"/>
    </linearGradient>
  <radialGradient id="gradient_ds_br" cx="0" cy="0" r="1" gradientUnits="userSpaceOnUse" gradientTransform="matrix(13.998399,0.00477622,-0.00477841,14.004799,47.5016,48.4952)">
      <stop offset="0.65" id="stop1"/>
      <stop offset="1" stop-opacity="0" id="stop2"/>
    </radialGradient><linearGradient id="gradient_ds_b" x1="30.448999" y1="48.5" x2="30.492201" y2="62.500301" gradientUnits="userSpaceOnUse">
      <stop offset="0.653846" id="stop3"/>
      <stop offset="1" stop-opacity="0" id="stop4"/>
    </linearGradient><radialGradient id="gradient_ds_bl" cx="0" cy="0" r="1" gradientUnits="userSpaceOnUse" gradientTransform="matrix(0,14,-14,0,16.5,48.5)">
      <stop offset="0.65" id="stop5"/>
      <stop offset="1" stop-opacity="0" id="stop6"/>
    </radialGradient><linearGradient id="gradient_ds_r" x1="47.5" y1="33.5" x2="61.5" y2="33.5009" gradientUnits="userSpaceOnUse">
      <stop offset="0.649038" id="stop7"/>
      <stop offset="1" stop-opacity="0" id="stop8"/>
    </linearGradient><linearGradient id="gradient_ds_l" x1="16.5" y1="33.894699" x2="2.5" y2="33.894699" gradientUnits="userSpaceOnUse">
      <stop offset="0.649038" id="stop9"/>
      <stop offset="1" stop-opacity="0" id="stop10"/>
    </linearGradient><radialGradient id="gradient_ds_tr" cx="0" cy="0" r="1" gradientTransform="matrix(0.00843236,-14,14.0084,0.0189842,47.4916,18.5)" gradientUnits="userSpaceOnUse">
      <stop offset="0.65" id="stop11"/>
      <stop offset="1" stop-opacity="0" id="stop12"/>
    </radialGradient><linearGradient id="gradient_ds_t" x1="29.98" y1="18.5" x2="29.9158" y2="4.4998598" gradientUnits="userSpaceOnUse">
      <stop offset="0.649038" id="stop13"/>
      <stop offset="1" stop-opacity="0" id="stop14"/>
    </linearGradient><radialGradient id="gradient_ds_tl" cx="0" cy="0" r="1" gradientTransform="matrix(-0.00843236,-14,-14.0084,0.0189842,16.5084,18.5)" gradientUnits="userSpaceOnUse">
      <stop offset="0.65" id="stop15"/>
      <stop offset="1" stop-opacity="0" id="stop16"/>
    </radialGradient></defs>
  
  <g id="ds" opacity="0.25">
    <path id="ds-br" d="m 47.5,48.5 h 14 v 14 h -14 z" fill="url(#gradient_ds_br)" style="fill:url(#gradient_ds_br)"/>
    <path id="ds-b" d="m 16.5,48.5 h 31 v 14 h -31 z" fill="url(#gradient_ds_b)" style="fill:url(#gradient_ds_b)"/>
    <path id="ds-bl" d="m 2.5,48.5 h 14 v 14 h -14 z" fill="url(#gradient_ds_bl)" style="fill:url(#gradient_ds_bl)"/>
    <path id="ds-r" d="m 47.5,18.5 h 14 v 30 h -14 z" fill="url(#gradient_ds_r)" style="fill:url(#gradient_ds_r)"/>
    <path id="ds-l" d="m 2.5,18.5 h 14 v 30 h -14 z" fill="url(#gradient_ds_l)" style="fill:url(#gradient_ds_l)"/>
    <path id="ds-tr" d="m 47.5,4.5 h 14 v 14 h -14 z" fill="url(#gradient_ds_tr)" style="fill:url(#gradient_ds_tr)"/>
    <path id="ds-t" d="m 16.5,4.5 h 31 v 14 h -31 z" fill="url(#gradient_ds_t)" style="fill:url(#gradient_ds_t)"/>
    <path id="ds-tl" d="m 16.5,4.5 h -14 v 14 h 14 z" fill="url(#gradient_ds_tl)" style="fill:url(#gradient_ds_tl)"/>
  </g><rect x="4.5" y="4.5" width="55" height="55" fill="url(#linearGradient1053-2)" stroke-linecap="round" stroke-width="2.7444" id="bg" style="fill:url(#linearGradient1053-2)" rx="10"/>
  <g transform="matrix(2.7294,0,0,2.7294,-1101.332,-1426.92)" fill="#ffffff" stroke="#000000" stroke-opacity="0.8" stroke-width="0.7572" id="art">
    <g transform="translate(0.22097,0.44194)" fill="#ffffff" stroke-width="0.7572" id="g8">
      <g transform="translate(1.3574,-1.2627)" fill="#ffffff" stroke-width="0.7572" id="g7">
        <g transform="translate(-0.41037,-0.59978)" fill="#ffffff" stroke-width="0.7572" id="g6">
          <g transform="matrix(0.78637,0,0,0.78395,92.594,111.88)" fill="#ffffff" stroke-width="0.7572" id="g5">
            <g transform="matrix(1.2717,0,0,1.2756,-114.5,-140.34)" fill="#ffffff" stroke-width="0.7572" id="g4">
              <g transform="matrix(0.78637,0,0,0.78395,93.326,112.35)" fill="#ffffff" stroke-width="0.7572" id="g3">
                <path d="m 409.03,539.85 c -0.81855,0 -1.5406,0.39154 -2.0123,0.99113 l -4.3753,-2.2465 c 0.0573,-0.2145 0.0985,-0.43612 0.0985,-0.66937 0,-0.25391 -0.0489,-0.49298 -0.11711,-0.72557 l 4.356,-2.2362 c 0.46913,0.62672 1.2098,1.0364 2.0509,1.0364 1.4248,0 2.5773,-1.1572 2.5773,-2.5864 0,-1.4279 -1.1526,-2.5857 -2.5773,-2.5857 -1.4215,0 -2.5753,1.1578 -2.5753,2.5857 0,0.2339 0.0412,0.45616 0.0991,0.67131 l -4.374,2.2465 c -0.47234,-0.60022 -1.1957,-0.99306 -2.0155,-0.99306 -1.4235,0 -2.5754,1.1585 -2.5754,2.587 0,1.4286 1.1519,2.5864 2.5754,2.5864 0.84236,0 1.5824,-0.41093 2.0535,-1.0383 l 4.354,2.2362 c -0.0682,0.23195 -0.11777,0.47295 -0.11777,0.72751 0,1.4286 1.1538,2.5864 2.5754,2.5864 1.4248,0 2.5773,-1.1578 2.5773,-2.5864 0,-1.4298 -1.1525,-2.587 -2.5773,-2.587 z" fill="#ffffff" stroke="none" id="path3"/>
              </g>
            </g>
          </g>
        </g>
      </g>
    </g>
  </g>
</svg>
