<?xml version="1.0" encoding="UTF-8" standalone="no"?>
<svg xmlns:inkscape="http://www.inkscape.org/namespaces/inkscape" xmlns:sodipodi="http://sodipodi.sourceforge.net/DTD/sodipodi-0.dtd" xmlns:xlink="http://www.w3.org/1999/xlink" xmlns="http://www.w3.org/2000/svg" xmlns:svg="http://www.w3.org/2000/svg" xmlns:rdf="http://www.w3.org/1999/02/22-rdf-syntax-ns#" xmlns:cc="http://creativecommons.org/ns#" xmlns:dc="http://purl.org/dc/elements/1.1/" width="64" height="64" version="1.1" viewBox="0 0 64 64" id="svg62" sodipodi:docname="qq.svg" inkscape:version="1.4.2 (ebf0e940d0, 2025-05-08)">
  <defs id="defs15">
    <filter id="filter2761" x="-0.024" y="-0.024" width="1.048" height="1.048" color-interpolation-filters="sRGB">
      <feGaussianBlur stdDeviation="0.14552168" id="feGaussianBlur2"/>
    </filter>
    <linearGradient id="linearGradient1024" x1="1.3315001" x2="15.65" y1="15.576" y2="1.17" gradientUnits="userSpaceOnUse" gradientTransform="translate(1.1902151,-4.762997)">
      <stop stop-color="#00c8ff" offset="0" id="stop5"/>
      <stop stop-color="#14a0ff" offset="1" id="stop7"/>
    </linearGradient>
    <linearGradient id="linearGradient968" x1="0.22194999" x2="25.798" y1="31.117001" y2="-0.031266998" gradientUnits="userSpaceOnUse">
      <stop stop-color="#fafaff" offset="0" id="stop10"/>
      <stop stop-color="#7dd7ff" offset="1" id="stop12"/>
    </linearGradient>
    
    <filter id="filter1057" x="-0.026999999" y="-0.026999999" width="1.054" height="1.054" color-interpolation-filters="sRGB">
      <feGaussianBlur stdDeviation="0.61875" id="feGaussianBlur843"/>
    </filter>
    <linearGradient id="linearGradient1053" x1="-127" x2="-72" y1="60" y2="5" gradientTransform="translate(131.5,-0.51000022)" gradientUnits="userSpaceOnUse">
      <stop stop-color="#32d7ff" offset="0" id="stop846"/>
      <stop stop-color="#329bff" offset="1" id="stop848"/>
    </linearGradient>
    
    
    
    
    
    
    
    <filter id="filter1057-6" x="-0.026999999" y="-0.026999999" width="1.054" height="1.054" color-interpolation-filters="sRGB">
      <feGaussianBlur stdDeviation="0.61875" id="feGaussianBlur843-2"/>
    </filter>
    <linearGradient inkscape:collect="always" xlink:href="#linearGradient968" id="linearGradient41" gradientUnits="userSpaceOnUse" x1="0.22194999" y1="31.117001" x2="25.798" y2="-0.031266998"/>
    <linearGradient inkscape:collect="always" xlink:href="#linearGradient968" id="linearGradient1" gradientUnits="userSpaceOnUse" x1="0.22194999" y1="31.117001" x2="25.798" y2="-0.031266998"/>
    <linearGradient inkscape:collect="always" xlink:href="#linearGradient968" id="linearGradient2" gradientUnits="userSpaceOnUse" x1="0.22194999" y1="31.117001" x2="25.798" y2="-0.031266998"/>
    <linearGradient inkscape:collect="always" xlink:href="#linearGradient968" id="linearGradient3" gradientUnits="userSpaceOnUse" x1="0.22194999" y1="31.117001" x2="25.798" y2="-0.031266998"/>
    <linearGradient inkscape:collect="always" xlink:href="#linearGradient968" id="linearGradient4" gradientUnits="userSpaceOnUse" x1="0.22194999" y1="31.117001" x2="25.798" y2="-0.031266998"/>
    <linearGradient inkscape:collect="always" xlink:href="#linearGradient968" id="linearGradient5" gradientUnits="userSpaceOnUse" x1="0.22194999" y1="31.117001" x2="25.798" y2="-0.031266998"/>
    <linearGradient inkscape:collect="always" xlink:href="#linearGradient968" id="linearGradient6" gradientUnits="userSpaceOnUse" x1="0.22194999" y1="31.117001" x2="25.798" y2="-0.031266998"/>
    <linearGradient inkscape:collect="always" xlink:href="#linearGradient968" id="linearGradient7" gradientUnits="userSpaceOnUse" x1="0.22194999" y1="31.117001" x2="25.798" y2="-0.031266998"/>
    <linearGradient inkscape:collect="always" xlink:href="#linearGradient968" id="linearGradient8" gradientUnits="userSpaceOnUse" x1="0.22194999" y1="31.117001" x2="25.798" y2="-0.031266998"/>
    <linearGradient inkscape:collect="always" xlink:href="#linearGradient968" id="linearGradient9" gradientUnits="userSpaceOnUse" x1="0.22194999" y1="31.117001" x2="25.798" y2="-0.031266998"/>
    <linearGradient inkscape:collect="always" xlink:href="#linearGradient968" id="linearGradient10" gradientUnits="userSpaceOnUse" x1="0.22194999" y1="31.117001" x2="25.798" y2="-0.031266998"/>
    <linearGradient inkscape:collect="always" xlink:href="#linearGradient968" id="linearGradient11" gradientUnits="userSpaceOnUse" x1="0.22194999" y1="31.117001" x2="25.798" y2="-0.031266998"/>
    <linearGradient inkscape:collect="always" xlink:href="#linearGradient968" id="linearGradient12" gradientUnits="userSpaceOnUse" x1="0.22194999" y1="31.117001" x2="25.798" y2="-0.031266998"/>
    <linearGradient inkscape:collect="always" xlink:href="#linearGradient968" id="linearGradient13" gradientUnits="userSpaceOnUse" x1="0.22194999" y1="31.117001" x2="25.798" y2="-0.031266998"/>
    <linearGradient inkscape:collect="always" xlink:href="#linearGradient968" id="linearGradient14" gradientUnits="userSpaceOnUse" x1="0.22194999" y1="31.117001" x2="25.798" y2="-0.031266998"/>
    <linearGradient inkscape:collect="always" xlink:href="#linearGradient968" id="linearGradient15" gradientUnits="userSpaceOnUse" x1="0.22194999" y1="31.117001" x2="25.798" y2="-0.031266998"/>
    <linearGradient inkscape:collect="always" xlink:href="#linearGradient968" id="linearGradient16" gradientUnits="userSpaceOnUse" x1="0.22194999" y1="31.117001" x2="25.798" y2="-0.031266998"/>
    <linearGradient inkscape:collect="always" xlink:href="#linearGradient968" id="linearGradient17" gradientUnits="userSpaceOnUse" x1="0.22194999" y1="31.117001" x2="25.798" y2="-0.031266998"/>
    <linearGradient inkscape:collect="always" xlink:href="#linearGradient968" id="linearGradient18" gradientUnits="userSpaceOnUse" x1="0.22194999" y1="31.117001" x2="25.798" y2="-0.031266998"/>
    <linearGradient inkscape:collect="always" xlink:href="#linearGradient968" id="linearGradient19" gradientUnits="userSpaceOnUse" x1="0.22194999" y1="31.117001" x2="25.798" y2="-0.031266998"/>
  <radialGradient id="gradient_ds_br" cx="0" cy="0" r="1" gradientUnits="userSpaceOnUse" gradientTransform="matrix(13.998399,0.00477622,-0.00477841,14.004799,47.5016,48.4952)">
      <stop offset="0.65" id="stop1"/>
      <stop offset="1" stop-opacity="0" id="stop2"/>
    </radialGradient><linearGradient id="gradient_ds_b" x1="30.448999" y1="48.5" x2="30.492201" y2="62.500301" gradientUnits="userSpaceOnUse">
      <stop offset="0.653846" id="stop3"/>
      <stop offset="1" stop-opacity="0" id="stop4"/>
    </linearGradient><radialGradient id="gradient_ds_bl" cx="0" cy="0" r="1" gradientUnits="userSpaceOnUse" gradientTransform="matrix(0,14,-14,0,16.5,48.5)">
      <stop offset="0.65" id="stop5"/>
      <stop offset="1" stop-opacity="0" id="stop6"/>
    </radialGradient><linearGradient id="gradient_ds_r" x1="47.5" y1="33.5" x2="61.5" y2="33.5009" gradientUnits="userSpaceOnUse">
      <stop offset="0.649038" id="stop7"/>
      <stop offset="1" stop-opacity="0" id="stop8"/>
    </linearGradient><linearGradient id="gradient_ds_l" x1="16.5" y1="33.894699" x2="2.5" y2="33.894699" gradientUnits="userSpaceOnUse">
      <stop offset="0.649038" id="stop9"/>
      <stop offset="1" stop-opacity="0" id="stop10"/>
    </linearGradient><radialGradient id="gradient_ds_tr" cx="0" cy="0" r="1" gradientTransform="matrix(0.00843236,-14,14.0084,0.0189842,47.4916,18.5)" gradientUnits="userSpaceOnUse">
      <stop offset="0.65" id="stop11"/>
      <stop offset="1" stop-opacity="0" id="stop12"/>
    </radialGradient><linearGradient id="gradient_ds_t" x1="29.98" y1="18.5" x2="29.9158" y2="4.4998598" gradientUnits="userSpaceOnUse">
      <stop offset="0.649038" id="stop13"/>
      <stop offset="1" stop-opacity="0" id="stop14"/>
    </linearGradient><radialGradient id="gradient_ds_tl" cx="0" cy="0" r="1" gradientTransform="matrix(-0.00843236,-14,-14.0084,0.0189842,16.5084,18.5)" gradientUnits="userSpaceOnUse">
      <stop offset="0.65" id="stop15"/>
      <stop offset="1" stop-opacity="0" id="stop16"/>
    </radialGradient></defs>
  <metadata id="metadata17">
    <rdf:RDF>
      <cc:Work rdf:about="">
        <dc:format>image/svg+xml</dc:format>
        <dc:type rdf:resource="http://purl.org/dc/dcmitype/StillImage"/>
      </cc:Work>
    </rdf:RDF>
  </metadata>
  
  <g id="ds" opacity="0.25">
    <path id="ds-br" d="m 47.5,48.5 h 14 v 14 h -14 z" fill="url(#gradient_ds_br)" style="fill:url(#gradient_ds_br)"/>
    <path id="ds-b" d="m 16.5,48.5 h 31 v 14 h -31 z" fill="url(#gradient_ds_b)" style="fill:url(#gradient_ds_b)"/>
    <path id="ds-bl" d="m 2.5,48.5 h 14 v 14 h -14 z" fill="url(#gradient_ds_bl)" style="fill:url(#gradient_ds_bl)"/>
    <path id="ds-r" d="m 47.5,18.5 h 14 v 30 h -14 z" fill="url(#gradient_ds_r)" style="fill:url(#gradient_ds_r)"/>
    <path id="ds-l" d="m 2.5,18.5 h 14 v 30 h -14 z" fill="url(#gradient_ds_l)" style="fill:url(#gradient_ds_l)"/>
    <path id="ds-tr" d="m 47.5,4.5 h 14 v 14 h -14 z" fill="url(#gradient_ds_tr)" style="fill:url(#gradient_ds_tr)"/>
    <path id="ds-t" d="m 16.5,4.5 h 31 v 14 h -31 z" fill="url(#gradient_ds_t)" style="fill:url(#gradient_ds_t)"/>
    <path id="ds-tl" d="m 16.5,4.5 h -14 v 14 h 14 z" fill="url(#gradient_ds_tl)" style="fill:url(#gradient_ds_tl)"/>
  </g><rect x="4.5" y="4.5" width="55" height="55" fill="url(#linearGradient1053)" stroke-linecap="round" stroke-width="2.7444" id="bg" style="fill:url(#linearGradient1053)" rx="10"/>
  <g id="art" transform="matrix(1.2959121,0,0,1.2959121,15.286978,11.279088)" fill="url(#linearGradient968)" style="fill:url(#linearGradient41)">
    <path d="m 23.368,29.074 c -0.1848,1.4608 -2.5688,2.36 -5.3224,2.0104 -2.7528,-0.3512 -4.8352,-1.82 -4.648,-3.2816 0.1856,-1.4608 2.5688,-2.3608 5.3216,-2.0096 2.7544,0.3504 4.8344,1.82 4.6488,3.2808" id="path23" style="fill:url(#linearGradient1)"/>
    <path d="m 2.5898,28.932 c 0.2168,1.4648 2.6928,2.4024 5.5336,2.096 2.84,-0.308 4.9656,-1.7448 4.7488,-3.2104 -0.216,-1.464 -2.6952,-2.4024 -5.5344,-2.0944 -2.84,0.3072 -4.9672,1.744 -4.748,3.2088" id="path25" style="fill:url(#linearGradient2)"/>
    <path d="m 23.122,9.8872 c 0,5.4592 -4.46,9.8864 -9.964,9.8864 -5.5008,0 -9.9616,-4.4272 -9.9616,-9.8864 C 3.1964,4.4256 7.6572,0 13.158,0 c 5.504,0 9.964,4.4256 9.964,9.8872" id="path27" style="fill:url(#linearGradient3)"/>
    <path d="m 2.5023,28.641 c 0.2168,1.4648 2.6928,2.4024 5.5336,2.096 2.84,-0.308 4.9656,-1.7448 4.7488,-3.2104 -0.216,-1.464 -2.6952,-2.4024 -5.5344,-2.0944 -2.84,0.3072 -4.9672,1.744 -4.748,3.2088" id="path29" style="fill:url(#linearGradient4)"/>
    <path d="m 23.481,28.72 c -0.1848,1.4608 -2.5688,2.36 -5.3224,2.0104 -2.7528,-0.3512 -4.8352,-1.82 -4.648,-3.2816 0.1856,-1.4608 2.5688,-2.3608 5.3216,-2.0096 2.7544,0.3504 4.8344,1.82 4.6488,3.2808" id="path31" style="fill:url(#linearGradient5)"/>
    <path d="m 22.624,20.836 c 0,4.4232 -4.3048,8.0088 -9.6128,8.0088 -5.308,0 -9.6112,-3.5856 -9.6112,-8.0088 0,-4.4232 4.3032,-8.0088 9.6112,-8.0088 5.308,0 9.6128,3.5856 9.6128,8.0088" id="path33" style="fill:url(#linearGradient6)"/>
    <path d="m 4.9726,19.245 c -1.4112,2.8168 -3.6248,4.6 -4.2824,4.2504 -0.8696,-0.464 -1.08,-3.3096 0.332,-6.1256 1.4136,-2.8152 3.692,-4.6192 4.7832,-4.0728 1.0888,0.548 0.5792,3.132 -0.8328,5.948" id="path35" style="fill:url(#linearGradient7)"/>
    <path d="m 21.201,19.6 c 1.2912,2.5592 3.1512,4.5456 3.9464,4.3704 0.6416,-0.1408 1.1,-3.1336 -0.0752,-6 -1.1944,-2.9144 -3.3608,-5.0072 -4.4528,-4.46 -1.0904,0.5472 -0.8376,3.2776 0.5816,6.0896" id="path37" style="fill:url(#linearGradient8)"/>
    <path d="m 5.9601,15.805 c -0.5936,1.2176 -0.9336,2.6016 -0.9336,4.072 0,4.8544 3.6568,8.7896 8.168,8.7896 4.5112,0 8.1672,-3.9352 8.1672,-8.7896 0,-1.4304 -0.324,-2.7768 -0.8872,-3.9704 -4.1568,2.1192 -11.768,0.5664 -14.514,-0.1016" id="path39" style="fill:url(#linearGradient9)"/>
    <path d="m 12.473,7.6075 c 0,1.3184 -0.8728,2.3872 -1.9504,2.3872 -1.0768,0 -1.9496,-1.0688 -1.9496,-2.3872 0,-1.3184 0.8728,-2.3872 1.9496,-2.3872 1.0776,0 1.9504,1.0688 1.9504,2.3872" id="path41" style="fill:url(#linearGradient10)"/>
    <path d="m 18.072,7.6208 c 0,1.3184 -0.8728,2.3872 -1.9504,2.3872 -1.076,0 -1.9496,-1.0688 -1.9496,-2.3872 0,-1.3184 0.8736,-2.3872 1.9496,-2.3872 1.0776,0 1.9504,1.0688 1.9504,2.3872" id="path43" style="fill:url(#linearGradient11)"/>
    <path d="m 13.499,10.661 c -2.7152,0 -5.0864,0.6344 -6.4024,1.5808 0.3296,0.7768 1.3256,1.3816 2.3024,1.9432 1.18,0.6784 3.1184,1.1376 4.0936,1.1376 0.9,0 3.128,-0.6064 4.3312,-1.3928 0.8464,-0.552 1.7392,-1.0392 2.064,-1.6976 C 18.5694,11.2914 16.2054,10.661 13.499,10.661" id="path45" style="fill:url(#linearGradient12)"/>
    <path d="m 12.171,7.6208 c 0,0.8344 -0.5464,1.5112 -1.2192,1.5112 -0.6736,0 -1.22,-0.6768 -1.22,-1.5112 0,-0.8344 0.5464,-1.5112 1.22,-1.5112 0.6728,0 1.2192,0.6768 1.2192,1.5112" id="path47" style="fill:url(#linearGradient13)"/>
    <path d="m 11.716,7.277 c 0,0.3368 -0.2288,0.6104 -0.5112,0.6104 -0.2824,0 -0.5112,-0.2736 -0.5112,-0.6104 0,-0.336 0.2288,-0.6088 0.5112,-0.6088 0.2824,0 0.5112,0.2728 0.5112,0.6088" id="path49" style="fill:url(#linearGradient14)"/>
    <path d="m 15.168,8.0134 c -0.1144,0 -0.2152,-0.0824 -0.236,-0.1984 -0.0128,-0.0728 -0.0192,-0.1488 -0.0192,-0.2264 0,-0.6384 0.4528,-1.1576 1.0088,-1.1576 0.556,0 1.0088,0.5192 1.0088,1.1576 0,0.056 -0.0032,0.1104 -0.0096,0.164 -0.0168,0.1312 -0.1384,0.224 -0.2688,0.208 -0.1312,-0.0168 -0.224,-0.1368 -0.208,-0.268 0.0048,-0.0336 0.0072,-0.0688 0.0072,-0.104 0,-0.3736 -0.2376,-0.6776 -0.5296,-0.6776 -0.292,0 -0.5296,0.304 -0.5296,0.6776 0,0.0488 0.0048,0.0968 0.0128,0.1424 0.0232,0.1312 -0.064,0.2552 -0.1944,0.2784 -0.0144,0.0024 -0.028,0.004 -0.0424,0.004" id="path51" style="fill:url(#linearGradient15)"/>
    <path d="m 8.0574,11.847 c 0,0 1.4992,1.284 2.8784,1.6672 1.6128,0.448 3.9432,0.2368 4.8264,-0.0592 1.6056,-0.5392 3.312,-1.7008 3.312,-1.7008 0,0 -1.508,1.1536 -3.0632,2.1704 -0.7816,0.5104 -1.6376,1.2376 -3.4392,0.8472 -0.4568,-0.0984 -1.2744,-0.652 -1.5344,-0.8024 -1.3312,-0.7704 -2.668,-1.812 -2.98,-2.1224" id="path53" style="fill:url(#linearGradient16)"/>
    <path d="m 9.7121,18.69 v 4.348 c 0,0 -1.7968,0.8504 -3.4064,-0.6856 -0.6168,-0.588 0.3304,-4.7728 0.3304,-4.7728 z" id="path55" style="fill:url(#linearGradient17)"/>
    <path d="m 6.3926,17.85 3.2936,2.6376 c 0,0 0.0552,-1.6488 -0.016,-2.1184 -0.072,-0.4688 -3.2776,-0.752 -3.2776,-0.752" id="path57" style="fill:url(#linearGradient18)"/>
    <path d="M 13.498,19.432 C 9.3516,19.432 5.4428,17.9584 2.356,15.2576 2.2808,15.192 2.304,14.9824 2.304,14.9824 c 0,0 0.1184,-0.4592 0.3152,-1.5592 0.1376,-0.7688 0.4496,-1.712 0.6152,-1.712 0.1056,0.0872 0.2328,0.2032 0.3584,0.3208 0.2264,0.212 0.4456,0.4304 0.5176,0.4984 2.5552,2.3912 5.8656,3.7016 9.3872,3.7016 3.504,0 6.8256,-1.3104 9.3808,-3.696 0.0208,-0.0192 0.5752,0.6992 0.824,1.4296 0.2664,0.7824 0.536,1.6336 0.2904,1.828 -2.98,2.3568 -6.648,3.6384 -10.495,3.6384" id="path59" style="fill:url(#linearGradient19)"/>
  </g>
</svg>
