<?xml version="1.0" encoding="UTF-8" standalone="no"?>
<svg xmlns:dc="http://purl.org/dc/elements/1.1/" xmlns:cc="http://creativecommons.org/ns#" xmlns:rdf="http://www.w3.org/1999/02/22-rdf-syntax-ns#" xmlns:svg="http://www.w3.org/2000/svg" xmlns="http://www.w3.org/2000/svg" xmlns:sodipodi="http://sodipodi.sourceforge.net/DTD/sodipodi-0.dtd" xmlns:inkscape="http://www.inkscape.org/namespaces/inkscape" id="App-Store" width="64" height="64" enable-background="new 0 0 1024 1024" image-rendering="optimizeSpeed" version="1.1" viewBox="0 0 64 64" sodipodi:docname="shutter.svg" inkscape:version="1.0.2 (e86c870879, 2021-01-15)">
  <metadata id="metadata25">
    <rdf:RDF>
      <cc:Work rdf:about="">
        <dc:format>image/svg+xml</dc:format>
        <dc:type rdf:resource="http://purl.org/dc/dcmitype/StillImage"/>
        <dc:title/>
      </cc:Work>
    </rdf:RDF>
  </metadata>
  <defs id="defs12">
    <linearGradient id="a" x1="32" x2="32" y1="13.511" y2="49.511" gradientUnits="userSpaceOnUse" gradientTransform="translate(0,0.48875509)">
      <stop stop-color="#fff" offset="0" id="stop2"/>
      <stop stop-color="#dbf6f8" offset="1" id="stop4"/>
    </linearGradient>
    <linearGradient id="linearGradient862" x1="7.9373" x2="7.9373" y1="15.081" y2="1.852" gradientTransform="matrix(3.7796,0,0,3.7796,77.782117,0)" gradientUnits="userSpaceOnUse">
      <stop stop-color="#1866ee" offset="0" id="stop7"/>
      <stop stop-color="#15c2fc" offset="1" id="stop9"/>
    </linearGradient>
    <filter id="filter2761" x="-.024" y="-.024" width="1.048" height="1.048" color-interpolation-filters="sRGB">
      <feGaussianBlur stdDeviation="0.14552168" id="feGaussianBlur2"/>
    </filter>
    <linearGradient id="linearGradient1024" x1="1.3315" x2="15.65" y1="15.576" y2="1.17" gradientUnits="userSpaceOnUse" gradientTransform="translate(1.1902151,-4.762997)">
      <stop stop-color="#00c8ff" offset="0" id="stop5"/>
      <stop stop-color="#14a0ff" offset="1" id="stop7-3"/>
    </linearGradient>
    <linearGradient id="linearGradient968" x1=".22195" x2="25.798" y1="31.117" y2="-.031267" gradientUnits="userSpaceOnUse">
      <stop stop-color="#fafaff" offset="0" id="stop10"/>
      <stop stop-color="#7dd7ff" offset="1" id="stop12"/>
    </linearGradient>
    
    <filter id="filter1057" x="-.027" y="-.027" width="1.054" height="1.054" color-interpolation-filters="sRGB">
      <feGaussianBlur stdDeviation="0.61875" id="feGaussianBlur843"/>
    </filter>
    <linearGradient id="linearGradient1053" x1="-127" x2="-72" y1="60" y2="5" gradientTransform="translate(131.49999,-0.51000046)" gradientUnits="userSpaceOnUse">
      <stop stop-color="#32d7ff" offset="0" id="stop846"/>
      <stop stop-color="#329bff" offset="1" id="stop848"/>
    </linearGradient>
    
    
    
    
    
    
    
  <radialGradient xmlns="http://www.w3.org/2000/svg" id="gradient_ds_br" cx="0" cy="0" r="1" gradientUnits="userSpaceOnUse" gradientTransform="matrix(13.998399,0.00477622,-0.00477841,14.004799,47.5016,48.4952)">
      <stop offset="0.65" id="stop1"/>
      <stop offset="1" stop-opacity="0" id="stop2"/>
    </radialGradient><linearGradient xmlns="http://www.w3.org/2000/svg" id="gradient_ds_b" x1="30.448999" y1="48.5" x2="30.492201" y2="62.500301" gradientUnits="userSpaceOnUse">
      <stop offset="0.653846" id="stop3"/>
      <stop offset="1" stop-opacity="0" id="stop4"/>
    </linearGradient><radialGradient xmlns="http://www.w3.org/2000/svg" id="gradient_ds_bl" cx="0" cy="0" r="1" gradientUnits="userSpaceOnUse" gradientTransform="matrix(0,14,-14,0,16.5,48.5)">
      <stop offset="0.65" id="stop5"/>
      <stop offset="1" stop-opacity="0" id="stop6"/>
    </radialGradient><linearGradient xmlns="http://www.w3.org/2000/svg" id="gradient_ds_r" x1="47.5" y1="33.5" x2="61.5" y2="33.5009" gradientUnits="userSpaceOnUse">
      <stop offset="0.649038" id="stop7"/>
      <stop offset="1" stop-opacity="0" id="stop8"/>
    </linearGradient><linearGradient xmlns="http://www.w3.org/2000/svg" id="gradient_ds_l" x1="16.5" y1="33.894699" x2="2.5" y2="33.894699" gradientUnits="userSpaceOnUse">
      <stop offset="0.649038" id="stop9"/>
      <stop offset="1" stop-opacity="0" id="stop10"/>
    </linearGradient><radialGradient xmlns="http://www.w3.org/2000/svg" id="gradient_ds_tr" cx="0" cy="0" r="1" gradientTransform="matrix(0.00843236,-14,14.0084,0.0189842,47.4916,18.5)" gradientUnits="userSpaceOnUse">
      <stop offset="0.65" id="stop11"/>
      <stop offset="1" stop-opacity="0" id="stop12"/>
    </radialGradient><linearGradient xmlns="http://www.w3.org/2000/svg" id="gradient_ds_t" x1="29.98" y1="18.5" x2="29.9158" y2="4.4998598" gradientUnits="userSpaceOnUse">
      <stop offset="0.649038" id="stop13"/>
      <stop offset="1" stop-opacity="0" id="stop14"/>
    </linearGradient><radialGradient xmlns="http://www.w3.org/2000/svg" id="gradient_ds_tl" cx="0" cy="0" r="1" gradientTransform="matrix(-0.00843236,-14,-14.0084,0.0189842,16.5084,18.5)" gradientUnits="userSpaceOnUse">
      <stop offset="0.65" id="stop15"/>
      <stop offset="1" stop-opacity="0" id="stop16"/>
    </radialGradient></defs>
  
  <g xmlns="http://www.w3.org/2000/svg" id="ds" opacity="0.25">
    <path id="ds-br" d="m 47.5,48.5 h 14 v 14 h -14 z" fill="url(#gradient_ds_br)" style="fill:url(#gradient_ds_br)"/>
    <path id="ds-b" d="m 16.5,48.5 h 31 v 14 h -31 z" fill="url(#gradient_ds_b)" style="fill:url(#gradient_ds_b)"/>
    <path id="ds-bl" d="m 2.5,48.5 h 14 v 14 h -14 z" fill="url(#gradient_ds_bl)" style="fill:url(#gradient_ds_bl)"/>
    <path id="ds-r" d="m 47.5,18.5 h 14 v 30 h -14 z" fill="url(#gradient_ds_r)" style="fill:url(#gradient_ds_r)"/>
    <path id="ds-l" d="m 2.5,18.5 h 14 v 30 h -14 z" fill="url(#gradient_ds_l)" style="fill:url(#gradient_ds_l)"/>
    <path id="ds-tr" d="m 47.5,4.5 h 14 v 14 h -14 z" fill="url(#gradient_ds_tr)" style="fill:url(#gradient_ds_tr)"/>
    <path id="ds-t" d="m 16.5,4.5 h 31 v 14 h -31 z" fill="url(#gradient_ds_t)" style="fill:url(#gradient_ds_t)"/>
    <path id="ds-tl" d="m 16.5,4.5 h -14 v 14 h 14 z" fill="url(#gradient_ds_tl)" style="fill:url(#gradient_ds_tl)"/>
  </g><rect x="4.5" y="4.5" width="55" height="55" fill="url(#linearGradient1053)" stroke-linecap="round" stroke-width="2.7444" id="bg" style="fill:url(#linearGradient1053)" rx="10"/>
  <g id="art"><path d="m 43.852,14.000755 c -0.35792,0.0028 -0.73158,0.01266 -1.119,0.02975 -5.402,0.23833 -10.556,1.4945 -13.154,3.2067 -1.1656,0.76787 -1.5773,1.2885 -2.0211,2.5548 -0.74961,2.139 -1.2151,5.6786 -1.2289,9.3444 -0.0048,1.2586 0.01678,2.3506 0.04799,2.4265 0.03121,0.07595 0.08977,0.13807 0.1302,0.13807 0.04043,0 0.39065,-0.38171 0.77812,-0.84826 3.854,-4.6405 11.831,-10.631 18.92,-14.209 1.8766,-0.94715 2.2804,-1.292 2.0924,-1.7866 -0.2106,-0.55391 -1.9399,-0.87612 -4.4453,-0.85642 z m -19.186,6.3662 c -0.44036,-0.0016 -1.6037,0.70086 -2.52,1.5566 -2.2002,2.0548 -3.285,5.0381 -2.883,7.9281 0.10711,0.77013 0.32372,1.2537 0.91678,2.0467 1.1782,1.5754 4.0371,3.8715 6.2799,5.0435 0.70621,0.36904 0.87964,0.42049 0.96301,0.28562 0.02587,-0.0419 -0.11268,-0.61896 -0.30793,-1.2823 -1.6054,-5.4541 -2.178,-8.9394 -2.2038,-13.413 -0.0081,-1.4194 -0.03917,-2.0554 -0.10322,-2.1195 -0.03054,-0.03056 -0.07882,-0.04512 -0.14172,-0.04535 z m 14.478,2.5888 c -0.21693,0.0026 -0.4188,0.04889 -0.80219,0.14143 -1.4737,0.35567 -3.2379,1.3511 -5.3231,3.0033 -0.69153,0.54795 -1.9629,1.7367 -2.3497,2.1969 -0.46329,0.55124 -0.42678,0.7156 0.15892,0.715 5.1615,-0.0053 7.5104,0.14554 10.585,0.67957 1.5674,0.27223 2.8462,0.57945 4.6281,1.1116 0.64592,0.19289 1.232,0.33436 1.3023,0.31449 0.07066,-0.01996 0.1469,-0.16063 0.1703,-0.31449 0.07002,-0.46057 -0.53454,-2.2825 -1.0448,-3.1487 -1.4325,-2.4317 -3.7405,-4.0741 -6.4325,-4.5774 -0.44355,-0.08291 -0.67551,-0.12426 -0.89243,-0.12174 z m -3.3649,6.5951 c -0.40338,0.0054 -0.42908,0.1602 -0.16067,0.55316 2.9112,4.2621 4.1094,6.288 5.3998,9.1295 0.65779,1.4485 1.1242,2.6783 1.6881,4.4504 0.20438,0.64238 0.41739,1.2064 0.47341,1.2533 0.0563,0.04715 0.21558,0.03087 0.35589,-0.03646 0.42002,-0.20152 1.585,-1.7272 2.0133,-2.6366 1.2026,-2.5533 1.26,-5.3854 0.1598,-7.8933 -0.36257,-0.82644 -0.38597,-0.85993 -0.97073,-1.3893 -1.1239,-1.0175 -2.9399,-1.9147 -5.4796,-2.7072 -0.84225,-0.26284 -2.5407,-0.64393 -3.1388,-0.70435 -0.13433,-0.01358 -0.2475,-0.02035 -0.34058,-0.0191 z m -19.479,0.88777 c -0.50559,0 -0.82371,2.5917 -0.52298,4.261 0.41726,2.316 1.6993,4.3862 3.5904,5.7977 0.73971,0.55209 1.0925,0.72112 1.793,0.8589 1.8229,0.35854 5.1885,-0.07788 8.1579,-1.0578 0.98533,-0.32516 1.4905,-0.57472 1.4443,-0.71339 -0.01486,-0.04462 -0.7863,-0.4333 -1.7143,-0.86371 -4.9952,-2.3168 -8.5208,-4.5719 -11.862,-7.5881 -0.42326,-0.38203 -0.82188,-0.69459 -0.88587,-0.69459 z m 20.873,3.4721 c -0.11244,-0.0064 -0.1942,0.13217 -0.27352,0.41407 -1.3981,4.9685 -2.1818,7.1881 -3.5315,10.002 -0.68809,1.4344 -1.3313,2.5815 -2.3278,4.1516 -0.36123,0.56916 -0.65682,1.0946 -0.65682,1.1677 0,0.07343 0.11475,0.18498 0.25646,0.24932 0.42419,0.1926 2.3419,0.10612 3.3142,-0.14944 2.7296,-0.7175 4.9375,-2.492 6.1536,-4.9458 0.40075,-0.80861 0.41141,-0.84795 0.44177,-1.6362 0.05834,-1.5149 -0.41996,-3.4833 -1.4431,-5.9391 -0.33932,-0.81445 -1.1376,-2.3611 -1.4753,-2.8584 -0.20227,-0.29785 -0.34536,-0.44926 -0.45781,-0.45562 z m -2.0406,4.3399 c -0.09056,0 -0.63688,0.21733 -1.2141,0.48288 -5.6284,2.5895 -8.9041,3.5843 -14.582,4.4282 l -0.67082,0.09958 0.0115,0.25457 c 0.02384,0.53164 1.0728,1.7158 2.2666,2.5586 1.2881,0.90945 2.6989,1.4666 4.2713,1.6869 1.181,0.16548 2.7682,0.03241 3.9202,-0.32863 1.2718,-0.39856 2.5633,-1.7336 3.988,-4.1225 1.028,-1.7236 2.0161,-3.9066 2.1237,-4.692 0.04613,-0.33627 0.0363,-0.3677 -0.1143,-0.3677 z" fill="url(#a)" stroke-width="0.22755" id="path20" style="fill:url(#a)"/></g>
</svg>
