<?xml version="1.0" encoding="UTF-8" standalone="no"?>
<svg
   width="64"
   height="64"
   version="1.1"
   viewBox="0 0 64 64"
   id="svg8"
   sodipodi:docname="softwarecenter-ubuntu.svg"
   inkscape:version="1.4.3 (0d15f75042, 2025-12-25)"
   xmlns:inkscape="http://www.inkscape.org/namespaces/inkscape"
   xmlns:sodipodi="http://sodipodi.sourceforge.net/DTD/sodipodi-0.dtd"
   xmlns:xlink="http://www.w3.org/1999/xlink"
   xmlns="http://www.w3.org/2000/svg"
   xmlns:svg="http://www.w3.org/2000/svg">
  <sodipodi:namedview
     id="namedview8"
     pagecolor="#ffffff"
     bordercolor="#000000"
     borderopacity="0.25"
     inkscape:showpageshadow="2"
     inkscape:pageopacity="0.0"
     inkscape:pagecheckerboard="0"
     inkscape:deskcolor="#d1d1d1"
     inkscape:current-layer="svg8" />
  <defs
     id="defs5">
    <filter
       id="filter1057"
       x="-0.026999999"
       y="-0.026999999"
       width="1.054"
       height="1.054"
       color-interpolation-filters="sRGB">
      <feGaussianBlur
         stdDeviation="0.61875"
         id="feGaussianBlur1" />
    </filter>
    <linearGradient
       id="linearGradient980-7"
       x1="-17.007"
       x2="-2.455"
       y1="15.742"
       y2="1.1906"
       gradientTransform="matrix(3.7796,0,0,3.7796,68.778,0)"
       gradientUnits="userSpaceOnUse">
      <stop
         stop-color="#ff8228"
         offset="0"
         id="stop1" />
      <stop
         stop-color="#ff7346"
         offset=".49173"
         id="stop2" />
      <stop
         stop-color="#ff8c55"
         offset="1"
         id="stop3" />
    </linearGradient>
    <linearGradient
       id="h-5"
       x1="499.95"
       x2="499.95"
       y1="2.0078"
       y2="1026"
       gradientTransform="matrix(.99609 0 0 .99609 2 2)"
       gradientUnits="userSpaceOnUse">
      <stop
         stop-color="#ff981f"
         offset="0"
         id="stop4" />
      <stop
         stop-color="#e24305"
         offset="1"
         id="stop5" />
    </linearGradient>
    <linearGradient
       id="paint0_linear_1117_2226-3"
       x1="4.5"
       y1="59.5"
       x2="59.5"
       y2="4.5"
       gradientUnits="userSpaceOnUse">
      <stop
         offset="0"
         stop-color="#E39862"
         id="stop7-7"
         style="stop-color:#e08239;stop-opacity:1;" />
      <stop
         offset="1"
         stop-color="#E6A86F"
         id="stop8-5"
         style="stop-color:#edab76;stop-opacity:1;" />
    </linearGradient>
    <radialGradient
       id="gradient_ds_br"
       cx="0"
       cy="0"
       r="1"
       gradientUnits="userSpaceOnUse"
       gradientTransform="matrix(13.998399,0.00477622,-0.00477841,14.004799,47.5016,48.4952)">
      <stop
         offset="0.65"
         id="stop6" />
      <stop
         offset="1"
         stop-opacity="0"
         id="stop7" />
    </radialGradient>
    <linearGradient
       id="gradient_ds_b"
       x1="30.448999"
       y1="48.5"
       x2="30.492201"
       y2="62.500301"
       gradientUnits="userSpaceOnUse">
      <stop
         offset="0.653846"
         id="stop8" />
      <stop
         offset="1"
         stop-opacity="0"
         id="stop9" />
    </linearGradient>
    <radialGradient
       id="gradient_ds_bl"
       cx="0"
       cy="0"
       r="1"
       gradientUnits="userSpaceOnUse"
       gradientTransform="matrix(0,14,-14,0,16.5,48.5)">
      <stop
         offset="0.65"
         id="stop10" />
      <stop
         offset="1"
         stop-opacity="0"
         id="stop11" />
    </radialGradient>
    <linearGradient
       id="gradient_ds_r"
       x1="47.5"
       y1="33.5"
       x2="61.5"
       y2="33.5009"
       gradientUnits="userSpaceOnUse">
      <stop
         offset="0.649038"
         id="stop12" />
      <stop
         offset="1"
         stop-opacity="0"
         id="stop13" />
    </linearGradient>
    <linearGradient
       id="gradient_ds_l"
       x1="16.5"
       y1="33.894699"
       x2="2.5"
       y2="33.894699"
       gradientUnits="userSpaceOnUse">
      <stop
         offset="0.649038"
         id="stop14" />
      <stop
         offset="1"
         stop-opacity="0"
         id="stop15" />
    </linearGradient>
    <radialGradient
       id="gradient_ds_tr"
       cx="0"
       cy="0"
       r="1"
       gradientTransform="matrix(0.00843236,-14,14.0084,0.0189842,47.4916,18.5)"
       gradientUnits="userSpaceOnUse">
      <stop
         offset="0.65"
         id="stop16" />
      <stop
         offset="1"
         stop-opacity="0"
         id="stop17" />
    </radialGradient>
    <linearGradient
       id="gradient_ds_t"
       x1="29.98"
       y1="18.5"
       x2="29.9158"
       y2="4.4998598"
       gradientUnits="userSpaceOnUse">
      <stop
         offset="0.649038"
         id="stop18" />
      <stop
         offset="1"
         stop-opacity="0"
         id="stop19" />
    </linearGradient>
    <radialGradient
       id="gradient_ds_tl"
       cx="0"
       cy="0"
       r="1"
       gradientTransform="matrix(-0.00843236,-14,-14.0084,0.0189842,16.5084,18.5)"
       gradientUnits="userSpaceOnUse">
      <stop
         offset="0.65"
         id="stop20" />
      <stop
         offset="1"
         stop-opacity="0"
         id="stop21" />
    </radialGradient>
    <linearGradient
       id="linearGradient7684"
       x1="57.006973"
       x2="57.006973"
       y1="11.148484"
       y2="26.530821"
       gradientTransform="matrix(1.8202691,0,0,1.8202691,-55.768029,13.70676)"
       gradientUnits="userSpaceOnUse">
      <stop
         stop-color="#43cfea"
         offset="0"
         id="stop1-1"
         style="stop-color:#ff981f;stop-opacity:1;" />
      <stop
         stop-color="#138aff"
         offset="1"
         id="stop2-8"
         style="stop-color:#e24305;stop-opacity:1;" />
    </linearGradient>
    <linearGradient
       inkscape:collect="always"
       xlink:href="#linearGradient30"
       id="linearGradient32"
       x1="22.168245"
       y1="8.3883648"
       x2="22.168245"
       y2="15.796553"
       gradientUnits="userSpaceOnUse"
       gradientTransform="matrix(3.6396159,0,0,3.6396159,-32.683897,3.9880915)" />
    <linearGradient
       id="linearGradient30"
       inkscape:collect="always">
      <stop
         style="stop-color:#ffffff;stop-opacity:0.39772439;"
         offset="0"
         id="stop31" />
      <stop
         style="stop-color:#ffffff;stop-opacity:0.25192538;"
         offset="0.2"
         id="stop33" />
      <stop
         style="stop-color:#ffffff;stop-opacity:0.14896044;"
         offset="0.80000001"
         id="stop34" />
      <stop
         style="stop-color:#ffffff;stop-opacity:0.1960573;"
         offset="1"
         id="stop32" />
    </linearGradient>
    <linearGradient
       id="paint0_linear_1117_2226-3-0"
       x1="4.5"
       y1="59.5"
       x2="59.5"
       y2="4.5"
       gradientUnits="userSpaceOnUse">
      <stop
         offset="0"
         stop-color="#E39862"
         id="stop7-7-9"
         style="stop-color:#c48148;stop-opacity:1;" />
      <stop
         offset="1"
         stop-color="#E6A86F"
         id="stop8-5-3"
         style="stop-color:#ffbe6f;stop-opacity:1;" />
    </linearGradient>
  </defs>
  <g
     id="ds"
     opacity="0.25">
    <path
       id="ds-br"
       d="m 47.5,48.5 h 14 v 14 h -14 z"
       fill="url(#gradient_ds_br)"
       style="fill:url(#gradient_ds_br)" />
    <path
       id="ds-b"
       d="m 16.5,48.5 h 31 v 14 h -31 z"
       fill="url(#gradient_ds_b)"
       style="fill:url(#gradient_ds_b)" />
    <path
       id="ds-bl"
       d="m 2.5,48.5 h 14 v 14 h -14 z"
       fill="url(#gradient_ds_bl)"
       style="fill:url(#gradient_ds_bl)" />
    <path
       id="ds-r"
       d="m 47.5,18.5 h 14 v 30 h -14 z"
       fill="url(#gradient_ds_r)"
       style="fill:url(#gradient_ds_r)" />
    <path
       id="ds-l"
       d="m 2.5,18.5 h 14 v 30 h -14 z"
       fill="url(#gradient_ds_l)"
       style="fill:url(#gradient_ds_l)" />
    <path
       id="ds-tr"
       d="m 47.5,4.5 h 14 v 14 h -14 z"
       fill="url(#gradient_ds_tr)"
       style="fill:url(#gradient_ds_tr)" />
    <path
       id="ds-t"
       d="m 16.5,4.5 h 31 v 14 h -31 z"
       fill="url(#gradient_ds_t)"
       style="fill:url(#gradient_ds_t)" />
    <path
       id="ds-tl"
       d="m 16.5,4.5 h -14 v 14 h 14 z"
       fill="url(#gradient_ds_tl)"
       style="fill:url(#gradient_ds_tl)" />
  </g>
  <rect
     x="4.5"
     y="4.5"
     width="55"
     height="55"
     fill="url(#linearGradient980-7)"
     id="bg"
     style="font-variation-settings:normal;display:inline;vector-effect:none;fill:url(#paint0_linear_1117_2226-3-0);fill-opacity:1;stroke-width:1;stroke-linecap:butt;stroke-linejoin:miter;stroke-miterlimit:4;stroke-dasharray:none;stroke-dashoffset:0;stroke-opacity:1;-inkscape-stroke:none;stop-color:#000000"
     rx="10" />
  <g
     id="art">
    <g
       id="g1">
      <rect
         x="22.5"
         y="43"
         width="8"
         height="8"
         rx="1"
         fill="#000000"
         fill-opacity="0.15"
         id="rect2"
         style="fill:#000000;fill-opacity:0.199272" />
      <rect
         x="33.5"
         y="43"
         width="8"
         height="8"
         rx="1"
         fill="#000000"
         fill-opacity="0.15"
         id="rect3"
         style="fill:#000000;fill-opacity:0.199272" />
      <rect
         x="22.5"
         y="32"
         width="8"
         height="8"
         rx="1"
         fill="#000000"
         fill-opacity="0.15"
         id="rect4"
         style="fill:#000000;fill-opacity:0.199272" />
      <rect
         x="47.971996"
         y="-5.0603747"
         width="8"
         height="8"
         rx="1"
         transform="rotate(45)"
         fill="#000000"
         fill-opacity="0.15"
         id="rect5"
         style="fill:#000000;fill-opacity:0.199272" />
    </g>
    <g
       id="g2">
      <path
         opacity="0.15"
         d="m 44.4935,14.2416 c 0.0067,0.1666 0.0101,0.3333 0.0102,0.5 0,3.3151 -1.317,6.4945 -3.6612,8.8387 -2.3441,2.3442 -5.5235,3.6612 -8.8387,3.6612 -3.3152,0 -6.4946,-1.317 -8.8388,-3.6612 -2.3442,-2.3442 -3.6611,-5.5236 -3.6611,-8.8387 -1e-4,-0.167 0.0032,-0.3339 0.0098,-0.5007"
         stroke="#000000"
         stroke-width="2.5"
         stroke-linecap="round"
         id="path5"
         style="fill:none" />
      <path
         d="m 44.4935,12.2416 c 0.0067,0.1666 0.0101,0.3333 0.0102,0.5 0,3.3151 -1.317,6.4945 -3.6612,8.8387 -2.3441,2.3442 -5.5235,3.6612 -8.8387,3.6612 -3.3152,0 -6.4946,-1.317 -8.8388,-3.6612 -2.3442,-2.3442 -3.6611,-5.5236 -3.6611,-8.8387 -1e-4,-0.167 0.0032,-0.3339 0.0098,-0.5007"
         stroke="#ffffff"
         stroke-width="2.5"
         stroke-linecap="round"
         id="path6-1"
         style="fill:none;fill-opacity:1" />
    </g>
  </g>
  <g
     transform="matrix(1.0357145,0,0,1.0357146,-50.858699,14.786957)"
     id="em"
     style="display:inline;stroke-width:0.965517">
    <path
       d="M 61.999997,48.000001 A 14,14 0 0 1 48,61.999998 14,14 0 0 1 33.999999,48.000001 14,14 0 0 1 48,34 14,14 0 0 1 61.999997,48.000001 Z"
       fill="url(#linearGradient7684)"
       stroke-width="3.87516"
       id="em-bg"
       style="fill:url(#linearGradient7684)"
       transform="translate(46.967,-16.415)" />
    <path
       d="M 60.999998,48.000001 A 12.999999,12.999999 0 0 1 48.000004,60.999995 12.999999,12.999999 0 0 1 35.000002,48.000001 12.999999,12.999999 0 0 1 48.000004,35.000002 12.999999,12.999999 0 0 1 60.999998,48.000001 Z"
       fill="url(#linearGradient7684)"
       stroke-width="1.0619"
       id="em-light"
       style="display:inline;opacity:0.4;fill:none;stroke:url(#linearGradient32);stroke-width:0.965517;stroke-dasharray:none"
       transform="translate(46.967,-16.415)" />
    <path
       d="M 61.999997,48.000001 A 13.999998,13.999999 0 0 1 48.000004,61.999994 13.999998,13.999999 0 0 1 34.000003,48.000001 13.999998,13.999999 0 0 1 48.000004,34.000002 13.999998,13.999999 0 0 1 61.999997,48.000001 Z"
       fill="url(#linearGradient7684)"
       stroke-width="1.0619"
       id="em-border"
       style="opacity:0.5;fill:none;stroke:#7f1d02;stroke-width:0.965517;stroke-dasharray:none;stroke-opacity:1"
       transform="translate(46.967,-16.415)" />
    <path
       d="m 100.20841,21.929782 a 2.0689099,2.0689097 0 0 0 -2.068914,2.068909 2.0689099,2.0689097 0 0 0 2.068914,2.06891 2.0689099,2.0689097 0 0 0 2.06891,-2.06891 2.0689099,2.0689097 0 0 0 -2.06891,-2.068909 z m -4.827589,1.379337 c -1.095669,0.0015 -2.142869,0.240414 -3.114179,0.638477 l 1.398262,2.421903 c 0.543335,-0.17892 1.112855,-0.301724 1.716013,-0.301724 3.046979,0 5.517353,2.470178 5.517353,5.51735 h 2.75867 c -3.9e-4,-1.935379 -0.67908,-3.809447 -1.91809,-5.29615 -0.4389,0.295187 -0.96534,0.46871 -1.53025,0.46871 -1.515283,0 -2.758676,-1.2432 -2.758676,-2.758675 0,-0.140714 0.02221,-0.27691 0.04326,-0.41215 -0.689128,-0.18312 -1.399034,-0.276341 -2.111972,-0.27748 z m -4.345599,1.268882 c -1.627862,1.012731 -2.9092,2.563738 -3.523751,4.479806 0.974206,0.427183 1.662234,1.401062 1.662234,2.526854 0,1.128786 -0.691899,2.104248 -1.670152,2.529655 0.494838,1.541544 1.42829,2.841902 2.615876,3.825571 l 1.398165,-2.421903 c -1.019103,-1.001048 -1.654027,-2.391778 -1.654027,-3.933226 0,-1.949282 1.017075,-3.652164 2.543172,-4.633805 l -1.371228,-2.373338 z m -4.619999,4.938233 a 2.0689099,2.0689097 0 0 0 -2.06891,2.06891 2.0689099,2.0689097 0 0 0 2.06891,2.06891 2.0689099,2.0689097 0 0 0 2.06891,-2.06891 2.0689099,2.0689097 0 0 0 -2.06891,-2.06891 z m 14.285787,3.448248 c -0.61526,2.375558 -2.752686,4.137916 -5.320672,4.137916 -1.005779,0 -1.935862,-0.289568 -2.747861,-0.759708 l -1.379338,2.389462 c 1.229489,0.711132 2.636924,1.128303 4.127296,1.128786 0.712368,-0.0031 1.421434,-0.09817 2.109365,-0.282858 -0.02047,-0.133531 -0.04017,-0.26797 -0.04017,-0.406782 0,-1.515283 1.2432,-2.758675 2.75868,-2.758675 0.56271,0 1.08688,0.172905 1.52484,0.466084 0.94249,-1.12869 1.55806,-2.480799 1.80223,-3.914206 h -2.83408 z m -0.49301,4.137916 a 2.0689099,2.0689097 0 0 0 -2.068909,2.068909 2.0689099,2.0689097 0 0 0 2.068909,2.06891 2.0689099,2.0689097 0 0 0 2.06891,-2.06891 2.0689099,2.0689097 0 0 0 -2.06891,-2.068909 z"
       fill="#ffffff"
       stroke-width="1.37934"
       style="display:inline;paint-order:normal"
       id="em-glyph" />
  </g>
</svg>
