<?xml version="1.0" encoding="UTF-8"?>
<svg xmlns="http://www.w3.org/2000/svg" width="64" height="64" version="1.1" viewBox="0 0 64 64">
  <defs>
    <filter id="filter1057-37" x="-.027" y="-.027" width="1.054" height="1.054" color-interpolation-filters="sRGB">
      <feGaussianBlur stdDeviation="0.61875"/>
    </filter>
    <linearGradient id="linearGradient1053-5" x1="-127" x2="-72" y1="60" y2="5" gradientTransform="translate(131.5 -.51)" gradientUnits="userSpaceOnUse">
      <stop stop-color="#1d2123" offset="0"/>
      <stop stop-color="#33393e" stop-opacity=".99608" offset="1"/>
    </linearGradient>
  <radialGradient id="gradient_ds_br" cx="0" cy="0" r="1" gradientUnits="userSpaceOnUse" gradientTransform="matrix(13.998399,0.00477622,-0.00477841,14.004799,47.5016,48.4952)">
      <stop offset="0.65" id="stop1"/>
      <stop offset="1" stop-opacity="0" id="stop2"/>
    </radialGradient><linearGradient id="gradient_ds_b" x1="30.448999" y1="48.5" x2="30.492201" y2="62.500301" gradientUnits="userSpaceOnUse">
      <stop offset="0.653846" id="stop3"/>
      <stop offset="1" stop-opacity="0" id="stop4"/>
    </linearGradient><radialGradient id="gradient_ds_bl" cx="0" cy="0" r="1" gradientUnits="userSpaceOnUse" gradientTransform="matrix(0,14,-14,0,16.5,48.5)">
      <stop offset="0.65" id="stop5"/>
      <stop offset="1" stop-opacity="0" id="stop6"/>
    </radialGradient><linearGradient id="gradient_ds_r" x1="47.5" y1="33.5" x2="61.5" y2="33.5009" gradientUnits="userSpaceOnUse">
      <stop offset="0.649038" id="stop7"/>
      <stop offset="1" stop-opacity="0" id="stop8"/>
    </linearGradient><linearGradient id="gradient_ds_l" x1="16.5" y1="33.894699" x2="2.5" y2="33.894699" gradientUnits="userSpaceOnUse">
      <stop offset="0.649038" id="stop9"/>
      <stop offset="1" stop-opacity="0" id="stop10"/>
    </linearGradient><radialGradient id="gradient_ds_tr" cx="0" cy="0" r="1" gradientTransform="matrix(0.00843236,-14,14.0084,0.0189842,47.4916,18.5)" gradientUnits="userSpaceOnUse">
      <stop offset="0.65" id="stop11"/>
      <stop offset="1" stop-opacity="0" id="stop12"/>
    </radialGradient><linearGradient id="gradient_ds_t" x1="29.98" y1="18.5" x2="29.9158" y2="4.4998598" gradientUnits="userSpaceOnUse">
      <stop offset="0.649038" id="stop13"/>
      <stop offset="1" stop-opacity="0" id="stop14"/>
    </linearGradient><radialGradient id="gradient_ds_tl" cx="0" cy="0" r="1" gradientTransform="matrix(-0.00843236,-14,-14.0084,0.0189842,16.5084,18.5)" gradientUnits="userSpaceOnUse">
      <stop offset="0.65" id="stop15"/>
      <stop offset="1" stop-opacity="0" id="stop16"/>
    </radialGradient></defs>
  
  <g id="ds" opacity="0.25">
    <path id="ds-br" d="m 47.5,48.5 h 14 v 14 h -14 z" fill="url(#gradient_ds_br)" style="fill:url(#gradient_ds_br)"/>
    <path id="ds-b" d="m 16.5,48.5 h 31 v 14 h -31 z" fill="url(#gradient_ds_b)" style="fill:url(#gradient_ds_b)"/>
    <path id="ds-bl" d="m 2.5,48.5 h 14 v 14 h -14 z" fill="url(#gradient_ds_bl)" style="fill:url(#gradient_ds_bl)"/>
    <path id="ds-r" d="m 47.5,18.5 h 14 v 30 h -14 z" fill="url(#gradient_ds_r)" style="fill:url(#gradient_ds_r)"/>
    <path id="ds-l" d="m 2.5,18.5 h 14 v 30 h -14 z" fill="url(#gradient_ds_l)" style="fill:url(#gradient_ds_l)"/>
    <path id="ds-tr" d="m 47.5,4.5 h 14 v 14 h -14 z" fill="url(#gradient_ds_tr)" style="fill:url(#gradient_ds_tr)"/>
    <path id="ds-t" d="m 16.5,4.5 h 31 v 14 h -31 z" fill="url(#gradient_ds_t)" style="fill:url(#gradient_ds_t)"/>
    <path id="ds-tl" d="m 16.5,4.5 h -14 v 14 h 14 z" fill="url(#gradient_ds_tl)" style="fill:url(#gradient_ds_tl)"/>
  </g><rect x="4.5" y="4.5" width="55" height="55" fill="url(#linearGradient1053-5)" stroke-linecap="round" stroke-width="2.7444" id="bg" rx="10"/>
  <g id="art"><path d="m27.336 14.5c-2.6875 3e-5 -2.4244 4.3973-1.0753 5.9736 2.193 2.5624 8.6439 2.625 10.764 0.95178 1.6732-1.3207 2.6673-4.919 0.31286-5.5267-1.7044-0.47158-2.9857-0.2338-5.3187-0.58368-1.6839-0.26412-3.9208-0.81489-4.6824-0.81506zm8.4446 12.115c-1.5984-0.0067-2.2706 0.34381-4.3328 0.3865-1.1284 0.02091-1.9408-0.18263-3.5126-0.20245-1.5198-0.03534-2.6655 0.75896-2.6655 2.5083 0 3.3681 3.3078 4.0385 6.1314 4.0385 2.2741 0 3.4466-0.47778 4.637-1.5986 0.85491-0.80491 1.3277-2.0759 1.3466-3.2552 0.01634-1.0244-0.43088-1.8722-1.6042-1.8771zm0.88601 9.4232c-0.62893 0-1.8539 0.3075-3.2417 0.51796-1.3878 0.21046-1.5511 0.09122-2.7342 0.26292-0.97578 0.12902-1.3826 0.69792-1.3826 1.3961 0 1.3971 0.5883 2.0911 1.3461 2.6476 0.7578 0.55652 1.7103 0.56004 2.6922 0.56004 1.7623 0 3.9367-0.63601 4.8609-1.809 0.29169-0.3702 0.52348-0.70209 0.52348-1.5812 0-1.309-0.76232-1.9945-2.0641-1.9945zm0.66778 9.4232c-1.1932 0.04475-1.3851 0.18288-2.5502 0.16038-0.41718-0.0243-1.182-0.17872-1.7877-0.11831-1.4314 0.14268-1.1412 2.4298-0.25502 3.2234 1.1095 0.9937 3.748 1.1373 5.2845-0.21296 0.7596-0.66754 1.3459-3.1289-0.69144-3.0526z" fill="#e4501c" fill-rule="evenodd" stroke-width="1.3462"/></g>
</svg>
