<?xml version="1.0" encoding="UTF-8" standalone="no"?>
<svg xmlns:inkscape="http://www.inkscape.org/namespaces/inkscape" xmlns:sodipodi="http://sodipodi.sourceforge.net/DTD/sodipodi-0.dtd" xmlns="http://www.w3.org/2000/svg" xmlns:svg="http://www.w3.org/2000/svg" width="64" height="64" version="1.1" viewBox="0 0 64 64" id="svg9" sodipodi:docname="theme-config.svg" inkscape:version="1.4.2 (ebf0e940d0, 2025-05-08)">
  <sodipodi:namedview id="namedview9" pagecolor="#ffffff" bordercolor="#000000" borderopacity="0.25" inkscape:showpageshadow="2" inkscape:pageopacity="0.0" inkscape:pagecheckerboard="0" inkscape:deskcolor="#d1d1d1" inkscape:current-layer="svg9"/>
  <defs id="defs2">
    <filter id="filter2076-3" x="-0.048000001" y="-0.048000001" width="1.096" height="1.096" color-interpolation-filters="sRGB">
      <feGaussianBlur stdDeviation="1.1" id="feGaussianBlur1"/>
    </filter>
    <linearGradient id="linearGradient2070-0" x1="145" x2="200" y1="59" y2="4" gradientTransform="translate(-140.499,0.5)" gradientUnits="userSpaceOnUse">
      <stop stop-color="#dc2828" offset="0" id="stop1"/>
      <stop stop-color="#fa4141" offset="1" id="stop2"/>
    </linearGradient>
  <radialGradient id="gradient_ds_br" cx="0" cy="0" r="1" gradientUnits="userSpaceOnUse" gradientTransform="matrix(13.998399,0.00477622,-0.00477841,14.004799,47.5016,48.4952)">
      <stop offset="0.65" id="stop1"/>
      <stop offset="1" stop-opacity="0" id="stop2"/>
    </radialGradient><linearGradient id="gradient_ds_b" x1="30.448999" y1="48.5" x2="30.492201" y2="62.500301" gradientUnits="userSpaceOnUse">
      <stop offset="0.653846" id="stop3"/>
      <stop offset="1" stop-opacity="0" id="stop4"/>
    </linearGradient><radialGradient id="gradient_ds_bl" cx="0" cy="0" r="1" gradientUnits="userSpaceOnUse" gradientTransform="matrix(0,14,-14,0,16.5,48.5)">
      <stop offset="0.65" id="stop5"/>
      <stop offset="1" stop-opacity="0" id="stop6"/>
    </radialGradient><linearGradient id="gradient_ds_r" x1="47.5" y1="33.5" x2="61.5" y2="33.5009" gradientUnits="userSpaceOnUse">
      <stop offset="0.649038" id="stop7"/>
      <stop offset="1" stop-opacity="0" id="stop8"/>
    </linearGradient><linearGradient id="gradient_ds_l" x1="16.5" y1="33.894699" x2="2.5" y2="33.894699" gradientUnits="userSpaceOnUse">
      <stop offset="0.649038" id="stop9"/>
      <stop offset="1" stop-opacity="0" id="stop10"/>
    </linearGradient><radialGradient id="gradient_ds_tr" cx="0" cy="0" r="1" gradientTransform="matrix(0.00843236,-14,14.0084,0.0189842,47.4916,18.5)" gradientUnits="userSpaceOnUse">
      <stop offset="0.65" id="stop11"/>
      <stop offset="1" stop-opacity="0" id="stop12"/>
    </radialGradient><linearGradient id="gradient_ds_t" x1="29.98" y1="18.5" x2="29.9158" y2="4.4998598" gradientUnits="userSpaceOnUse">
      <stop offset="0.649038" id="stop13"/>
      <stop offset="1" stop-opacity="0" id="stop14"/>
    </linearGradient><radialGradient id="gradient_ds_tl" cx="0" cy="0" r="1" gradientTransform="matrix(-0.00843236,-14,-14.0084,0.0189842,16.5084,18.5)" gradientUnits="userSpaceOnUse">
      <stop offset="0.65" id="stop15"/>
      <stop offset="1" stop-opacity="0" id="stop16"/>
    </radialGradient></defs>
  
  <g id="ds" opacity="0.25">
    <path id="ds-br" d="m 47.5,48.5 h 14 v 14 h -14 z" fill="url(#gradient_ds_br)" style="fill:url(#gradient_ds_br)"/>
    <path id="ds-b" d="m 16.5,48.5 h 31 v 14 h -31 z" fill="url(#gradient_ds_b)" style="fill:url(#gradient_ds_b)"/>
    <path id="ds-bl" d="m 2.5,48.5 h 14 v 14 h -14 z" fill="url(#gradient_ds_bl)" style="fill:url(#gradient_ds_bl)"/>
    <path id="ds-r" d="m 47.5,18.5 h 14 v 30 h -14 z" fill="url(#gradient_ds_r)" style="fill:url(#gradient_ds_r)"/>
    <path id="ds-l" d="m 2.5,18.5 h 14 v 30 h -14 z" fill="url(#gradient_ds_l)" style="fill:url(#gradient_ds_l)"/>
    <path id="ds-tr" d="m 47.5,4.5 h 14 v 14 h -14 z" fill="url(#gradient_ds_tr)" style="fill:url(#gradient_ds_tr)"/>
    <path id="ds-t" d="m 16.5,4.5 h 31 v 14 h -31 z" fill="url(#gradient_ds_t)" style="fill:url(#gradient_ds_t)"/>
    <path id="ds-tl" d="m 16.5,4.5 h -14 v 14 h 14 z" fill="url(#gradient_ds_tl)" style="fill:url(#gradient_ds_tl)"/>
  </g><rect x="4.5" y="4.5" width="55" height="55" rx="10" fill="url(#linearGradient2070-0)" id="bg" style="fill:url(#linearGradient2070-0)"/>
  <g fill="#ffffff" stroke-width="0.042796" id="art" transform="translate(-86.494,-30.291)">
    <path d="m 132.59,54.912 c -2.98,-2.98 -8.2387,-3.5935 -13.059,-3.5935 -4.8203,0 -10.079,0.61353 -13.059,3.5935 -2.6294,2.6294 -3.1553,7.45 -3.1553,11.219 0,3.5059 0.52588,8.5019 2.7171,10.956 2.98,3.4182 8.3265,3.8565 13.41,3.8565 5.0835,0 10.518,-0.43824 13.41,-3.8565 2.1912,-2.5418 2.7171,-7.5377 2.7171,-10.956 0.1753,-3.7688 -0.35059,-8.5892 -2.98,-11.219 z" p-id="7354" id="path3"/>
    <path d="m 101.92,53.422 c 0.26294,0.26294 0.52588,0.52588 0.87647,0.70118 0.61353,0.43824 1.2271,0.78882 1.9282,1.0518 1.4024,0.52588 2.8924,0.35059 4.1194,-0.52588 0.96412,-1.0518 1.3147,-2.6294 0.96412,-4.0318 -0.1753,-0.70118 -0.43824,-1.4024 -0.78883,-2.0159 -0.17529,-0.35059 -0.43823,-0.61353 -0.61353,-0.96412 -0.43823,-0.35059 -1.0518,-1.0518 -1.49,-1.5776 -0.43823,-0.43824 -0.87647,-0.87647 -1.4024,-1.2271 l -0.1753,-0.17529 c -2.0159,-1.4024 -3.9441,-1.3147 -5.5216,0 -1.49,1.49 -1.7529,3.4182 -0.61353,5.5216 l 0.08764,0.17529 c 0.35059,0.52588 0.70118,1.0518 1.0518,1.49 0.52588,0.52588 1.1394,1.2271 1.5776,1.5776 z m 33.13,0 c -0.26295,0.26294 -0.52588,0.52588 -0.87647,0.70118 -0.61353,0.43824 -1.2271,0.78882 -1.9282,1.0518 -1.4024,0.52588 -2.8924,0.35059 -4.1194,-0.52588 -0.96412,-1.0518 -1.3147,-2.6294 -0.96412,-4.0318 0.17529,-0.70118 0.43824,-1.4024 0.78882,-2.0159 0.1753,-0.35059 0.43824,-0.61353 0.61353,-0.96412 0.43824,-0.35059 1.0518,-1.0518 1.49,-1.5776 0.43824,-0.43824 0.87647,-0.87647 1.4024,-1.2271 l 0.17529,-0.17529 c 2.0159,-1.4024 3.9441,-1.3147 5.5216,0 1.4024,1.4024 1.7529,3.3306 0.61353,5.5216 l -0.0876,0.17529 c -0.35059,0.52588 -0.70118,1.0518 -1.0518,1.49 -0.52589,0.52588 -1.1394,1.2271 -1.5777,1.5776 z" p-id="7355" id="path4"/>
    <path d="m 136.71,57.016 c -1.0518,-2.1912 -2.5418,-4.1194 -4.2946,-5.7848 -1.8406,-1.5776 -3.8565,-2.8047 -6.1353,-3.5935 -2.1912,-0.70118 -4.3824,-0.96412 -6.6613,-0.87647 -2.2788,-0.08765 -4.5578,0.17529 -6.6613,0.87647 -2.2788,0.78882 -4.2946,2.0159 -6.1353,3.5935 -1.8406,1.6653 -3.2429,3.5935 -4.2946,5.7848 -2.1035,4.7329 -1.8406,10.167 -1.5776,15.338 0.1753,2.6294 0,6.3981 4.9083,4.7329 0.0876,0 0.26294,0 0.35059,0.08765 -2.2788,-2.5418 -2.8047,-7.5377 -2.8047,-10.956 0,-3.8565 0.52588,-8.5892 3.1553,-11.219 2.98,-2.98 8.2387,-3.5935 13.059,-3.5935 4.8203,0 10.079,0.61353 13.059,3.5935 2.6294,2.6294 3.1553,7.45 3.1553,11.219 0,3.5059 -0.52588,8.5019 -2.7171,11.044 0.0876,-0.08765 0.26295,-0.08765 0.35059,-0.08765 4.8206,1.6653 4.7329,-2.1035 4.9083,-4.7329 0.1753,-5.2588 0.43824,-10.78 -1.6653,-15.426 z" p-id="7356" id="path5"/>
    <path d="m 110.86,71.127 a 1.57765,1.8406583 0 1 0 3.1553,0 1.57765,1.8406583 0 1 0 -3.1553,0 z" p-id="7357" id="path6"/>
    <path d="m 122.95,71.127 a 1.57765,1.8406583 0 1 0 3.1553,0 1.57765,1.8406583 0 1 0 -3.1553,0 z" p-id="7358" id="path7"/>
    <path d="m 134.87,66.219 c 0.96412,0 1.7529,-0.78882 1.7529,-1.7529 v -0.08765 c -0.17529,-3.5059 -0.96412,-7.3623 -3.2429,-9.6412 -3.1553,-3.1553 -8.7647,-3.7688 -13.848,-3.7688 -5.0833,0 -10.693,0.70118 -13.761,3.8565 -2.2788,2.2788 -3.0676,6.1353 -3.2429,9.6412 0,0.96412 0.70118,1.7529 1.6653,1.8406 h 0.0876 z" p-id="7359" id="path8"/>
  </g>
</svg>
