<?xml version="1.0" encoding="UTF-8" standalone="no"?>
<svg xmlns:inkscape="http://www.inkscape.org/namespaces/inkscape" xmlns:sodipodi="http://sodipodi.sourceforge.net/DTD/sodipodi-0.dtd" xmlns:xlink="http://www.w3.org/1999/xlink" xmlns="http://www.w3.org/2000/svg" xmlns:svg="http://www.w3.org/2000/svg" xmlns:rdf="http://www.w3.org/1999/02/22-rdf-syntax-ns#" xmlns:cc="http://creativecommons.org/ns#" xmlns:dc="http://purl.org/dc/elements/1.1/" width="64" height="64" version="1.1" viewBox="0 0 64 64" id="svg67" sodipodi:docname="tomboy.svg" inkscape:version="1.4.2 (ebf0e940d0, 2025-05-08)">
  <defs id="defs13">
    <filter id="filter2761" x="-0.024" y="-0.024" width="1.048" height="1.048" color-interpolation-filters="sRGB">
      <feGaussianBlur stdDeviation="0.14552168" id="feGaussianBlur2"/>
    </filter>
    <linearGradient id="linearGradient888" x1="-81.489998" x2="-76.143997" y1="-33.071999" y2="-23.812" gradientUnits="userSpaceOnUse">
      <stop stop-color="#f89f39" offset="0" id="stop5"/>
      <stop stop-color="#ff5f1c" offset="1" id="stop7"/>
    </linearGradient>
    <filter id="filter967" x="-0.081541955" y="-0.12460181" width="1.1630839" height="1.2492036" color-interpolation-filters="sRGB">
      <feGaussianBlur stdDeviation="0.24586246" id="feGaussianBlur10"/>
    </filter>
    <filter id="filter2761-3" x="-0.024" y="-0.024" width="1.048" height="1.048" color-interpolation-filters="sRGB">
      <feGaussianBlur stdDeviation="0.14552168" id="feGaussianBlur4"/>
    </filter>
    <linearGradient id="linearGradient1024-6" x1="1.3315001" x2="15.65" y1="15.576" y2="1.17" gradientUnits="userSpaceOnUse" gradientTransform="translate(-8.4984e-4,0.14045)">
      <stop stop-color="#dddfe1" offset="0" id="stop7-6"/>
      <stop stop-color="#f3f4f6" stop-opacity=".99608" offset="1" id="stop9"/>
    </linearGradient>
    <linearGradient id="linearGradient947" x1="31.952" x2="31.952" y1="49.044998" y2="12.132" gradientUnits="userSpaceOnUse" gradientTransform="matrix(0.26457812,0,0,0.26457812,17.009915,-0.01800424)">
      <stop stop-color="#2d2d2d" offset="0" id="stop853"/>
      <stop stop-color="#6b6b6b" offset="1" id="stop855"/>
    </linearGradient>
    
    
    <filter id="filter1057" x="-0.026999999" y="-0.026999999" width="1.054" height="1.054" color-interpolation-filters="sRGB">
      <feGaussianBlur stdDeviation="0.61875" id="feGaussianBlur862"/>
    </filter>
    <linearGradient id="linearGradient1053" x1="-127" x2="-72" y1="60" y2="5" gradientTransform="translate(131.5,-0.51000022)" gradientUnits="userSpaceOnUse">
      <stop stop-color="#dee0e2" offset="0" id="stop865"/>
      <stop stop-color="#f1f3f5" stop-opacity=".99608" offset="1" id="stop867"/>
    </linearGradient>
    <linearGradient inkscape:collect="always" xlink:href="#linearGradient888" id="linearGradient879" gradientUnits="userSpaceOnUse" x1="-81.489998" y1="-33.071999" x2="-76.143997" y2="-23.812"/>
    <filter id="filter967-5" x="-0.081541957" y="-0.12460181" width="1.1630839" height="1.2492036" color-interpolation-filters="sRGB">
      <feGaussianBlur stdDeviation="0.24586246" id="feGaussianBlur10-3"/>
    </filter>
    <filter id="filter1057-2" x="-0.026999999" y="-0.026999999" width="1.054" height="1.054" color-interpolation-filters="sRGB">
      <feGaussianBlur stdDeviation="0.61875" id="feGaussianBlur862-9"/>
    </filter>
  <radialGradient id="gradient_ds_br" cx="0" cy="0" r="1" gradientUnits="userSpaceOnUse" gradientTransform="matrix(13.998399,0.00477622,-0.00477841,14.004799,47.5016,48.4952)">
      <stop offset="0.65" id="stop1"/>
      <stop offset="1" stop-opacity="0" id="stop2"/>
    </radialGradient><linearGradient id="gradient_ds_b" x1="30.448999" y1="48.5" x2="30.492201" y2="62.500301" gradientUnits="userSpaceOnUse">
      <stop offset="0.653846" id="stop3"/>
      <stop offset="1" stop-opacity="0" id="stop4"/>
    </linearGradient><radialGradient id="gradient_ds_bl" cx="0" cy="0" r="1" gradientUnits="userSpaceOnUse" gradientTransform="matrix(0,14,-14,0,16.5,48.5)">
      <stop offset="0.65" id="stop5"/>
      <stop offset="1" stop-opacity="0" id="stop6"/>
    </radialGradient><linearGradient id="gradient_ds_r" x1="47.5" y1="33.5" x2="61.5" y2="33.5009" gradientUnits="userSpaceOnUse">
      <stop offset="0.649038" id="stop7"/>
      <stop offset="1" stop-opacity="0" id="stop8"/>
    </linearGradient><linearGradient id="gradient_ds_l" x1="16.5" y1="33.894699" x2="2.5" y2="33.894699" gradientUnits="userSpaceOnUse">
      <stop offset="0.649038" id="stop9"/>
      <stop offset="1" stop-opacity="0" id="stop10"/>
    </linearGradient><radialGradient id="gradient_ds_tr" cx="0" cy="0" r="1" gradientTransform="matrix(0.00843236,-14,14.0084,0.0189842,47.4916,18.5)" gradientUnits="userSpaceOnUse">
      <stop offset="0.65" id="stop11"/>
      <stop offset="1" stop-opacity="0" id="stop12"/>
    </radialGradient><linearGradient id="gradient_ds_t" x1="29.98" y1="18.5" x2="29.9158" y2="4.4998598" gradientUnits="userSpaceOnUse">
      <stop offset="0.649038" id="stop13"/>
      <stop offset="1" stop-opacity="0" id="stop14"/>
    </linearGradient><radialGradient id="gradient_ds_tl" cx="0" cy="0" r="1" gradientTransform="matrix(-0.00843236,-14,-14.0084,0.0189842,16.5084,18.5)" gradientUnits="userSpaceOnUse">
      <stop offset="0.65" id="stop15"/>
      <stop offset="1" stop-opacity="0" id="stop16"/>
    </radialGradient></defs>
  <metadata id="metadata15">
    <rdf:RDF>
      <cc:Work rdf:about="">
        <dc:format>image/svg+xml</dc:format>
        <dc:type rdf:resource="http://purl.org/dc/dcmitype/StillImage"/>
      </cc:Work>
    </rdf:RDF>
  </metadata>
  
  <g id="ds" opacity="0.25">
    <path id="ds-br" d="m 47.5,48.5 h 14 v 14 h -14 z" fill="url(#gradient_ds_br)" style="fill:url(#gradient_ds_br)"/>
    <path id="ds-b" d="m 16.5,48.5 h 31 v 14 h -31 z" fill="url(#gradient_ds_b)" style="fill:url(#gradient_ds_b)"/>
    <path id="ds-bl" d="m 2.5,48.5 h 14 v 14 h -14 z" fill="url(#gradient_ds_bl)" style="fill:url(#gradient_ds_bl)"/>
    <path id="ds-r" d="m 47.5,18.5 h 14 v 30 h -14 z" fill="url(#gradient_ds_r)" style="fill:url(#gradient_ds_r)"/>
    <path id="ds-l" d="m 2.5,18.5 h 14 v 30 h -14 z" fill="url(#gradient_ds_l)" style="fill:url(#gradient_ds_l)"/>
    <path id="ds-tr" d="m 47.5,4.5 h 14 v 14 h -14 z" fill="url(#gradient_ds_tr)" style="fill:url(#gradient_ds_tr)"/>
    <path id="ds-t" d="m 16.5,4.5 h 31 v 14 h -31 z" fill="url(#gradient_ds_t)" style="fill:url(#gradient_ds_t)"/>
    <path id="ds-tl" d="m 16.5,4.5 h -14 v 14 h 14 z" fill="url(#gradient_ds_tl)" style="fill:url(#gradient_ds_tl)"/>
  </g><rect x="4.5" y="4.5" width="55" height="55" fill="url(#linearGradient1053)" stroke-linecap="round" stroke-width="2.7444" id="bg" style="fill:url(#linearGradient1053)" rx="10"/>
  <g id="art"><g transform="matrix(4.1280813,0,0,4.1280813,264.40206,127.5918)" filter="url(#filter967)" id="g43" style="filter:url(#filter967-5)">
    <g transform="translate(17.699,5.8148)" id="g27">
      <path d="m -72.098,-30.036 a 1.4616,1.4616 0 0 0 -1.4614,1.4614 1.4616,1.4616 0 0 0 1.4614,1.4614 1.4616,1.4616 0 0 0 1.4614,-1.4614 1.4616,1.4616 0 0 0 -1.4614,-1.4614 z m 0.78185,0.72036 0.24701,0.24701 -1.2345,1.235 -0.82319,-0.82319 0.24649,-0.24701 0.5767,0.57618 z" fill="#ffffff" id="path25"/>
    </g>
    <g transform="translate(21.043,4.7624)" id="g41">
      <g transform="translate(0.0010063,0.094556)" fill="#ffffff" id="g39">
        <rect x="-81.218002" y="-30.891001" width="3.9521999" height="0.49110001" id="rect31"/>
        <rect x="-81.218002" y="-29.573" width="3.9521999" height="0.49110001" id="rect33"/>
        <rect x="-81.218002" y="-28.256001" width="3.9521999" height="0.49110001" id="rect35"/>
        <rect x="-81.218002" y="-26.938" width="3.9521999" height="0.49110001" id="rect37"/>
      </g>
    </g>
  </g><g transform="matrix(4.1280813,0,0,4.1280813,337.46497,151.59577)" id="g49">
    <path d="m -74.346,-32.808 a 0.92602,0.92602 0 0 0 -0.06563,0.0021 0.92602,0.92602 0 0 0 -0.09198,0.01137 0.92602,0.92602 0 0 0 -0.08992,0.02015 0.92602,0.92602 0 0 0 -0.08785,0.02945 0.92602,0.92602 0 0 0 -0.08475,0.03772 0.92602,0.92602 0 0 0 -0.0801,0.04599 0.92602,0.92602 0 0 0 -0.07545,0.05374 0.92602,0.92602 0 0 0 -0.06925,0.06149 0.92602,0.92602 0 0 0 -0.06356,0.0677 0.92602,0.92602 0 0 0 -0.05581,0.07338 0.92602,0.92602 0 0 0 -0.04858,0.07906 0.92602,0.92602 0 0 0 -0.04031,0.0832 0.92602,0.92602 0 0 0 -0.03152,0.08681 0.92602,0.92602 0 0 0 -0.02274,0.08992 0.92602,0.92602 0 0 0 -0.01395,0.09146 0.92602,0.92602 0 0 0 -0.0047,0.0925 v 6.6145 a 0.92602,0.92602 0 0 0 0.0021,0.06563 0.92602,0.92602 0 0 0 0.01137,0.09198 0.92602,0.92602 0 0 0 0.02015,0.08992 0.92602,0.92602 0 0 0 0.02946,0.08785 0.92602,0.92602 0 0 0 0.03772,0.08475 0.92602,0.92602 0 0 0 0.04599,0.0801 0.92602,0.92602 0 0 0 0.05374,0.07545 0.92602,0.92602 0 0 0 0.06149,0.06924 0.92602,0.92602 0 0 0 0.0677,0.06356 0.92602,0.92602 0 0 0 0.07338,0.05581 0.92602,0.92602 0 0 0 0.07906,0.04857 0.92602,0.92602 0 0 0 0.0832,0.04031 0.92602,0.92602 0 0 0 0.08681,0.03152 0.92602,0.92602 0 0 0 0.08992,0.02274 0.92602,0.92602 0 0 0 0.09146,0.01395 0.92602,0.92602 0 0 0 0.0925,0.0047 h 4.4978 a 0.92602,0.92602 0 0 0 0.06563,-0.0021 0.92602,0.92602 0 0 0 0.09198,-0.01137 0.92602,0.92602 0 0 0 0.08992,-0.02015 0.92602,0.92602 0 0 0 0.08785,-0.02945 0.92602,0.92602 0 0 0 0.08475,-0.03772 0.92602,0.92602 0 0 0 0.0801,-0.04599 0.92602,0.92602 0 0 0 0.07545,-0.05374 0.92602,0.92602 0 0 0 0.06976,-0.06098 0.92602,0.92602 0 0 0 0.06304,-0.06821 0.92602,0.92602 0 0 0 0.05581,-0.07338 0.92602,0.92602 0 0 0 0.04858,-0.07906 0.92602,0.92602 0 0 0 0.04031,-0.0832 0.92602,0.92602 0 0 0 0.03152,-0.08681 0.92602,0.92602 0 0 0 0.02274,-0.08992 0.92602,0.92602 0 0 0 0.01395,-0.09146 0.92602,0.92602 0 0 0 0.0047,-0.0925 v -6.6145 a 0.92602,0.92602 0 0 0 -0.0021,-0.06563 0.92602,0.92602 0 0 0 -0.01137,-0.09198 0.92602,0.92602 0 0 0 -0.02015,-0.08992 0.92602,0.92602 0 0 0 -0.02946,-0.08785 0.92602,0.92602 0 0 0 -0.03772,-0.08475 0.92602,0.92602 0 0 0 -0.04599,-0.0801 0.92602,0.92602 0 0 0 -0.05374,-0.07545 0.92602,0.92602 0 0 0 -0.06098,-0.06925 0.92602,0.92602 0 0 0 -0.06821,-0.06356 0.92602,0.92602 0 0 0 -0.07338,-0.05581 0.92602,0.92602 0 0 0 -0.07906,-0.04858 0.92602,0.92602 0 0 0 -0.0832,-0.04031 0.92602,0.92602 0 0 0 -0.08681,-0.03152 0.92602,0.92602 0 0 0 -0.08992,-0.02274 0.92602,0.92602 0 0 0 -0.09146,-0.01395 0.92602,0.92602 0 0 0 -0.0925,-0.0047 z" fill="#fcc105" id="path45"/>
    <path d="m -72.098,-30.036 a 1.4616,1.4616 0 0 0 -1.4614,1.4614 1.4616,1.4616 0 0 0 1.4614,1.4614 1.4616,1.4616 0 0 0 1.4614,-1.4614 1.4616,1.4616 0 0 0 -1.4614,-1.4614 z m 0.78185,0.72036 0.24701,0.24701 -1.2345,1.235 -0.82319,-0.82319 0.24649,-0.24701 0.5767,0.57618 z" fill="#ffffff" id="path47"/>
  </g><g transform="matrix(4.1280813,0,0,4.1280813,351.26927,147.25138)" id="g63">
    <path d="m -81.49,-32.808 a 0.92602,0.92602 0 0 0 -0.06563,0.0021 0.92602,0.92602 0 0 0 -0.09198,0.01137 0.92602,0.92602 0 0 0 -0.08992,0.02015 0.92602,0.92602 0 0 0 -0.08785,0.02945 0.92602,0.92602 0 0 0 -0.08475,0.03772 0.92602,0.92602 0 0 0 -0.0801,0.04599 0.92602,0.92602 0 0 0 -0.07545,0.05374 0.92602,0.92602 0 0 0 -0.06925,0.06149 0.92602,0.92602 0 0 0 -0.06356,0.0677 0.92602,0.92602 0 0 0 -0.05581,0.07338 0.92602,0.92602 0 0 0 -0.04858,0.07906 0.92602,0.92602 0 0 0 -0.04031,0.0832 0.92602,0.92602 0 0 0 -0.03152,0.08681 0.92602,0.92602 0 0 0 -0.02274,0.08992 0.92602,0.92602 0 0 0 -0.01395,0.09146 0.92602,0.92602 0 0 0 -0.0047,0.0925 v 6.6145 a 0.92602,0.92602 0 0 0 0.0021,0.06563 0.92602,0.92602 0 0 0 0.01137,0.09198 0.92602,0.92602 0 0 0 0.02015,0.08992 0.92602,0.92602 0 0 0 0.02946,0.08785 0.92602,0.92602 0 0 0 0.03772,0.08475 0.92602,0.92602 0 0 0 0.04599,0.0801 0.92602,0.92602 0 0 0 0.05374,0.07545 0.92602,0.92602 0 0 0 0.06149,0.06924 0.92602,0.92602 0 0 0 0.0677,0.06356 0.92602,0.92602 0 0 0 0.07338,0.05581 0.92602,0.92602 0 0 0 0.07906,0.04857 0.92602,0.92602 0 0 0 0.0832,0.04031 0.92602,0.92602 0 0 0 0.08681,0.03152 0.92602,0.92602 0 0 0 0.08992,0.02274 0.92602,0.92602 0 0 0 0.09146,0.01395 0.92602,0.92602 0 0 0 0.0925,0.0047 h 4.4978 a 0.92602,0.92602 0 0 0 0.06563,-0.0021 0.92602,0.92602 0 0 0 0.09198,-0.01137 0.92602,0.92602 0 0 0 0.08992,-0.02015 0.92602,0.92602 0 0 0 0.08785,-0.02945 0.92602,0.92602 0 0 0 0.08475,-0.03772 0.92602,0.92602 0 0 0 0.0801,-0.04599 0.92602,0.92602 0 0 0 0.07545,-0.05374 0.92602,0.92602 0 0 0 0.06976,-0.06098 0.92602,0.92602 0 0 0 0.06304,-0.06821 0.92602,0.92602 0 0 0 0.05581,-0.07338 0.92602,0.92602 0 0 0 0.04858,-0.07906 0.92602,0.92602 0 0 0 0.04031,-0.0832 0.92602,0.92602 0 0 0 0.03152,-0.08681 0.92602,0.92602 0 0 0 0.02274,-0.08992 0.92602,0.92602 0 0 0 0.01395,-0.09146 0.92602,0.92602 0 0 0 0.0047,-0.0925 v -6.6145 a 0.92602,0.92602 0 0 0 -0.0021,-0.06563 0.92602,0.92602 0 0 0 -0.01137,-0.09198 0.92602,0.92602 0 0 0 -0.02015,-0.08992 0.92602,0.92602 0 0 0 -0.02946,-0.08785 0.92602,0.92602 0 0 0 -0.03772,-0.08475 0.92602,0.92602 0 0 0 -0.04599,-0.0801 0.92602,0.92602 0 0 0 -0.05374,-0.07545 0.92602,0.92602 0 0 0 -0.06098,-0.06925 0.92602,0.92602 0 0 0 -0.06821,-0.06356 0.92602,0.92602 0 0 0 -0.07338,-0.05581 0.92602,0.92602 0 0 0 -0.07906,-0.04858 0.92602,0.92602 0 0 0 -0.0832,-0.04031 0.92602,0.92602 0 0 0 -0.08681,-0.03152 0.92602,0.92602 0 0 0 -0.08992,-0.02274 0.92602,0.92602 0 0 0 -0.09146,-0.01395 0.92602,0.92602 0 0 0 -0.0925,-0.0047 z" fill="url(#linearGradient888)" id="path51" style="fill:url(#linearGradient879)"/>
    <g transform="translate(0.0010063,0.094556)" fill="#ffffff" id="g61">
      <rect x="-81.218002" y="-30.891001" width="3.9521999" height="0.49110001" id="rect53"/>
      <rect x="-81.218002" y="-29.573" width="3.9521999" height="0.49110001" id="rect55"/>
      <rect x="-81.218002" y="-28.256001" width="3.9521999" height="0.49110001" id="rect57"/>
      <rect x="-81.218002" y="-26.938" width="3.9521999" height="0.49110001" id="rect59"/>
    </g>
  </g></g>
  
  
</svg>
