<?xml version="1.0" encoding="UTF-8" standalone="no"?>
<svg xmlns:inkscape="http://www.inkscape.org/namespaces/inkscape" xmlns:sodipodi="http://sodipodi.sourceforge.net/DTD/sodipodi-0.dtd" xmlns="http://www.w3.org/2000/svg" xmlns:svg="http://www.w3.org/2000/svg" xmlns:rdf="http://www.w3.org/1999/02/22-rdf-syntax-ns#" xmlns:cc="http://creativecommons.org/ns#" xmlns:dc="http://purl.org/dc/elements/1.1/" sodipodi:docname="tootle.svg" inkscape:version="1.4.2 (ebf0e940d0, 2025-05-08)" id="svg6" version="1.1" viewBox="0 0 64 64" height="64" width="64" inkscape:export-filename="/home/eleme/.icons/Mkos-Big-Sur/128x128/apps/sombra.png" inkscape:export-xdpi="96" inkscape:export-ydpi="96">
  <metadata id="metadata43">
    <rdf:RDF>
      <cc:Work rdf:about="">
        <dc:format>image/svg+xml</dc:format>
        <dc:type rdf:resource="http://purl.org/dc/dcmitype/StillImage"/>
      </cc:Work>
    </rdf:RDF>
  </metadata>
  <defs id="defs2">
    <linearGradient id="lgrad" x1="32" y1="32" x2="32" y2="992" gradientUnits="userSpaceOnUse" gradientTransform="translate(0,-896)">
      <stop offset="0%" stop-color="#f8f8f8" id="stop2"/>
      <stop offset="100%" stop-color="#ccc" id="stop4"/>
    </linearGradient>
    <radialGradient id="rgrad" x1="0%" y1="0%" x2="0%" y2="100%" fx="512" fy="494.39999" cx="512" cy="512" r="440" gradientUnits="userSpaceOnUse" gradientTransform="translate(0,-896)">
      <stop offset="0%" stop-color="#00f0ff" id="stop7"/>
      <stop offset="100%" stop-color="#0070e0" id="stop9"/>
    </radialGradient>
    <radialGradient gradientTransform="matrix(0.03024122,0,0,0.02958968,1.132043,2.8247994)" gradientUnits="userSpaceOnUse" r="440" cy="306.1813" cx="523.57568" fy="306.1813" fx="523.57568" y2="100%" x2="0%" y1="0%" x1="0%" id="rgrad-3">
      <stop style="stop-color:#03d7e4;stop-opacity:1" id="stop7-6" stop-color="#00f0ff" offset="0%"/>
      <stop id="stop9-7" stop-color="#0070e0" offset="100%"/>
    </radialGradient>
    <clipPath clipPathUnits="userSpaceOnUse" id="clipPath971">
      <path style="opacity:1;fill:#917c6f;fill-opacity:1;stroke:none;stroke-width:0.3;stroke-linecap:round;stroke-linejoin:round;stroke-miterlimit:4;stroke-dasharray:none;stroke-opacity:1" d="m -0.55397135,-0.27595216 c -0.027071,2e-8 -0.0485759,0.0220216 -0.0485759,0.0490926 V 33.951415 c 2e-8,0.02707 0.0215048,0.04909 0.0485759,0.04909 H 33.76073 c 0.02707,0 0.04909,-0.02201 0.04909,-0.04909 V -0.22685954 c 0,-0.027071 -0.02201,-0.0490926 -0.04909,-0.0490926 z M 8.8459717,2.5187093 H 25.034131 c 3.572997,0 6.449735,2.8762216 6.449735,6.4492187 v 16.188676 c 0,3.572997 -2.876738,6.449219 -6.449735,6.449219 H 8.8459717 c -3.5729971,0 -6.4497356,-2.876222 -6.4497356,-6.449219 V 8.967928 c 0,-3.5729971 2.8767385,-6.4492187 6.4497356,-6.4492187 z" id="path973" inkscape:connector-curvature="0"/>
    </clipPath>
    <linearGradient id="linearGradient862" x1="7.9373002" x2="7.9373002" y1="15.081" y2="1.852" gradientTransform="matrix(1.0000192,0,0,1.0000192,19.599644,-2.64e-4)" gradientUnits="userSpaceOnUse">
      <stop stop-color="#0e71de" offset="0" id="stop313"/>
      <stop stop-color="#25c9ff" offset="1" id="stop315"/>
    </linearGradient>
    <linearGradient id="linearGradient991" x1="32.068001" x2="32.068001" y1="18.941" y2="46.602001" gradientUnits="userSpaceOnUse" gradientTransform="matrix(0.26458333,0,0,0.26458333,-23.119074,-2.64e-4)">
      <stop stop-color="#edfbff" offset="0" id="stop323"/>
      <stop stop-color="#c6e4fa" offset="1" id="stop325"/>
    </linearGradient>
    <filter id="filter1057" x="-0.026999999" y="-0.026999999" width="1.054" height="1.054" color-interpolation-filters="sRGB">
      <feGaussianBlur stdDeviation="0.61875" id="feGaussianBlur860"/>
    </filter>
    <linearGradient id="linearGradient1053" x1="-127" x2="-72" y1="60" y2="5" gradientTransform="translate(131.5,-0.51000001)" gradientUnits="userSpaceOnUse">
      <stop stop-color="#32d7ff" offset="0" id="stop863"/>
      <stop stop-color="#329bff" offset="1" id="stop865"/>
    </linearGradient>
    <filter id="filter2174" x="-0.15989216" y="-0.094877243" width="1.3197843" height="1.1897545" color-interpolation-filters="sRGB">
      <feGaussianBlur stdDeviation="0.25608494" id="feGaussianBlur4"/>
    </filter>
    <filter id="filter1057-7" x="-0.026999999" y="-0.026999999" width="1.054" height="1.054" color-interpolation-filters="sRGB">
      <feGaussianBlur stdDeviation="0.61875" id="feGaussianBlur860-5"/>
    </filter>
    <filter id="filter1057-7-6" x="-0.026999999" y="-0.026999999" width="1.054" height="1.054" color-interpolation-filters="sRGB">
      <feGaussianBlur stdDeviation="0.61875" id="feGaussianBlur860-5-2"/>
    </filter>
  <radialGradient id="gradient_ds_br" cx="0" cy="0" r="1" gradientUnits="userSpaceOnUse" gradientTransform="matrix(13.998399,0.00477622,-0.00477841,14.004799,47.5016,48.4952)">
      <stop offset="0.65" id="stop1"/>
      <stop offset="1" stop-opacity="0" id="stop2"/>
    </radialGradient><linearGradient id="gradient_ds_b" x1="30.448999" y1="48.5" x2="30.492201" y2="62.500301" gradientUnits="userSpaceOnUse">
      <stop offset="0.653846" id="stop3"/>
      <stop offset="1" stop-opacity="0" id="stop4"/>
    </linearGradient><radialGradient id="gradient_ds_bl" cx="0" cy="0" r="1" gradientUnits="userSpaceOnUse" gradientTransform="matrix(0,14,-14,0,16.5,48.5)">
      <stop offset="0.65" id="stop5"/>
      <stop offset="1" stop-opacity="0" id="stop6"/>
    </radialGradient><linearGradient id="gradient_ds_r" x1="47.5" y1="33.5" x2="61.5" y2="33.5009" gradientUnits="userSpaceOnUse">
      <stop offset="0.649038" id="stop7"/>
      <stop offset="1" stop-opacity="0" id="stop8"/>
    </linearGradient><linearGradient id="gradient_ds_l" x1="16.5" y1="33.894699" x2="2.5" y2="33.894699" gradientUnits="userSpaceOnUse">
      <stop offset="0.649038" id="stop9"/>
      <stop offset="1" stop-opacity="0" id="stop10"/>
    </linearGradient><radialGradient id="gradient_ds_tr" cx="0" cy="0" r="1" gradientTransform="matrix(0.00843236,-14,14.0084,0.0189842,47.4916,18.5)" gradientUnits="userSpaceOnUse">
      <stop offset="0.65" id="stop11"/>
      <stop offset="1" stop-opacity="0" id="stop12"/>
    </radialGradient><linearGradient id="gradient_ds_t" x1="29.98" y1="18.5" x2="29.9158" y2="4.4998598" gradientUnits="userSpaceOnUse">
      <stop offset="0.649038" id="stop13"/>
      <stop offset="1" stop-opacity="0" id="stop14"/>
    </linearGradient><radialGradient id="gradient_ds_tl" cx="0" cy="0" r="1" gradientTransform="matrix(-0.00843236,-14,-14.0084,0.0189842,16.5084,18.5)" gradientUnits="userSpaceOnUse">
      <stop offset="0.65" id="stop15"/>
      <stop offset="1" stop-opacity="0" id="stop16"/>
    </radialGradient></defs>
  
  <g id="ds" opacity="0.25">
    <path id="ds-br" d="m 47.5,48.5 h 14 v 14 h -14 z" fill="url(#gradient_ds_br)" style="fill:url(#gradient_ds_br)"/>
    <path id="ds-b" d="m 16.5,48.5 h 31 v 14 h -31 z" fill="url(#gradient_ds_b)" style="fill:url(#gradient_ds_b)"/>
    <path id="ds-bl" d="m 2.5,48.5 h 14 v 14 h -14 z" fill="url(#gradient_ds_bl)" style="fill:url(#gradient_ds_bl)"/>
    <path id="ds-r" d="m 47.5,18.5 h 14 v 30 h -14 z" fill="url(#gradient_ds_r)" style="fill:url(#gradient_ds_r)"/>
    <path id="ds-l" d="m 2.5,18.5 h 14 v 30 h -14 z" fill="url(#gradient_ds_l)" style="fill:url(#gradient_ds_l)"/>
    <path id="ds-tr" d="m 47.5,4.5 h 14 v 14 h -14 z" fill="url(#gradient_ds_tr)" style="fill:url(#gradient_ds_tr)"/>
    <path id="ds-t" d="m 16.5,4.5 h 31 v 14 h -31 z" fill="url(#gradient_ds_t)" style="fill:url(#gradient_ds_t)"/>
    <path id="ds-tl" d="m 16.5,4.5 h -14 v 14 h 14 z" fill="url(#gradient_ds_tl)" style="fill:url(#gradient_ds_tl)"/>
  </g><rect x="4.5" y="4.5" width="55" height="55" fill="url(#linearGradient1053)" stroke-linecap="round" stroke-width="2.7444" id="bg" style="fill:url(#linearGradient1053)" rx="10"/>
  <g id="art"><path style="isolation:isolate;fill:#ffffff;fill-opacity:1;stroke-width:0.237004" inkscape:connector-curvature="0" d="m 49.1481,29.089033 -4.557101,-8.570294 c -0.0064,-0.0102 -0.01285,-0.01916 -0.02116,-0.0282 -0.03213,-0.03936 -0.06773,-0.07466 -0.107755,-0.10286 -0.162444,-0.115899 -0.38324,-0.140069 -0.574273,-0.04243 -0.112025,0.0576 -0.194418,0.148384 -0.242456,0.253119 -0.0064,0.0089 -0.01058,0.02022 -0.01474,0.03129 l -2.463402,5.800194 -4.88796,2.504894 c -0.03175,0.01625 -0.06474,0.03326 -0.0954,0.05023 l -1.662447,0.852226 -1.448557,0.742062 -0.378966,-0.711958 c -0.214715,-0.403381 -0.720265,-0.559566 -1.131239,-0.34885 -0.409776,0.209764 -0.569991,0.70698 -0.355502,1.110361 l 0.3792,0.711719 -1.399261,0.716939 -1.208001,-2.271682 2.168568,-1.111309 c 0.556728,-0.2863 0.772649,-0.96105 0.481837,-1.507581 -0.04619,-0.08865 -0.104769,-0.168264 -0.171628,-0.237951 l -0.09861,-0.09362 c -0.343181,-0.287486 -0.842321,-0.358114 -1.265598,-0.14126 l -6.404319,3.28132 c -0.557665,0.2863 -0.773586,0.960817 -0.482774,1.508531 0.04622,0.08553 0.100725,0.163313 0.165468,0.231798 0.03288,0.03742 0.06985,0.07158 0.107754,0.101934 0.343181,0.285354 0.841365,0.355994 1.263704,0.139087 l 2.167397,-1.110123 1.208235,2.271681 -1.544061,0.791596 -0.378989,-0.711727 c -0.214715,-0.402433 -0.722373,-0.558856 -1.131216,-0.349115 -0.107754,0.05545 -0.198236,0.130129 -0.270161,0.218986 -0.198236,0.246954 -0.243401,0.59393 -0.08538,0.891371 l 0.3792,0.711957 -2.351543,1.204929 c -0.03175,0.01474 -0.06474,0.03213 -0.09649,0.04834 l -5.602058,2.868952 -1.910717,-0.40741 c -0.0042,-0.0021 -0.01058,-0.0021 -0.01474,-0.003 -0.05344,-0.0102 -0.109682,-0.0021 -0.161197,0.02305 -0.113915,0.05832 -0.163314,0.190564 -0.118186,0.3055 l 2.095827,3.939715 c 0.0042,0.0068 0.01058,0.01474 0.01701,0.02116 l 0.0022,0.003 0.03099,0.02835 c 0.07389,0.06043 0.180775,0.07347 0.27326,0.02721 0.05155,-0.02721 0.08942,-0.0678 0.111987,-0.11709 0.0019,-0.0042 0.0042,-0.0079 0.0064,-0.01285 l 0.767433,-1.80502 2.241581,-1.149467 c 0.0087,0.625217 0.162256,1.257543 0.476621,1.849341 1.075745,2.021878 3.618316,2.805412 5.679073,1.749559 0.03175,-0.01625 0.06474,-0.03326 0.09562,-0.05049 l 2.351547,-1.204924 0.439631,0.826904 c 0.213543,0.402194 0.722158,0.558618 1.130982,0.34885 0.410014,-0.209764 0.570228,-0.707928 0.35554,-1.110361 l -0.439657,-0.825721 1.54385,-0.791595 1.282186,2.41104 c 0.298847,0.561702 1.002538,0.778321 1.574895,0.484909 0.160138,-0.08152 0.292686,-0.19457 0.392466,-0.326589 0.261883,-0.341745 0.316384,-0.813872 0.101594,-1.218198 l -1.282175,-2.410927 1.399261,-0.716935 0.439657,0.825956 c 0.21377,0.402194 0.721202,0.559566 1.130978,0.34885 0.410971,-0.210709 0.569291,-0.708877 0.355502,-1.110361 L 36.968193,37.899398 40.21229,36.23658 c 0.223974,-0.118034 0.43254,-0.25217 0.6257,-0.402433 1.556387,-1.206111 2.069976,-3.364032 1.119844,-5.1508 -0.314532,-0.59085 -0.755104,-1.075998 -1.271777,-1.441935 l 1.529624,-0.783531 6.292229,1.338123 c 0.01285,0.003 0.02268,0.006 0.03402,0.0068 0.116032,0.02116 0.239395,0.0068 0.350287,-0.05046 0.246501,-0.12514 0.352403,-0.412392 0.254778,-0.663613 z M 25.505803,41.20656 c -0.01512,0.0087 -0.02759,0.01474 -0.04324,0.02306 -0.926687,0.474954 -2.067867,0.123023 -2.550641,-0.786615 -0.483008,-0.908424 -0.125405,-2.02874 0.799181,-2.50275 l 2.450158,-1.255237 1.749309,3.289375 z m 3.890411,-1.99344 -1.749332,-3.289375 0.102652,-0.05144 1.4424,-0.739215 1.749313,3.289375 -0.328705,0.168529 z m 3.614079,-1.851473 -1.74957,-3.289372 1.399264,-0.716938 1.749566,3.289376 z m 5.803256,-2.977712 c -0.02117,0.01285 -0.04086,0.02495 -0.06259,0.03515 l -2.855901,1.46423 -1.749566,-3.289375 2.129473,-1.092114 0.682102,-0.34885 c 0.03591,-0.01852 0.07302,-0.03515 0.109871,-0.05238 0.90418,-0.39532 1.976624,-0.03515 2.440917,0.838042 0.410014,0.76837 0.215659,1.688893 -0.414059,2.241585 -0.0841,0.07559 -0.177789,0.144075 -0.280365,0.203603 z" id="path4930"/></g>
</svg>
