<?xml version="1.0" encoding="UTF-8" standalone="no"?>
<svg xmlns:inkscape="http://www.inkscape.org/namespaces/inkscape" xmlns:sodipodi="http://sodipodi.sourceforge.net/DTD/sodipodi-0.dtd" xmlns="http://www.w3.org/2000/svg" xmlns:svg="http://www.w3.org/2000/svg" xmlns:rdf="http://www.w3.org/1999/02/22-rdf-syntax-ns#" xmlns:cc="http://creativecommons.org/ns#" xmlns:dc="http://purl.org/dc/elements/1.1/" width="64" height="64" version="1.1" viewBox="0 0 64 64" id="svg9" sodipodi:docname="uberwriter.svg" inkscape:version="1.4.2 (ebf0e940d0, 2025-05-08)">
  <defs id="defs6">
    <filter id="filter2076-0-2" x="-0.048" y="-0.048" width="1.096" height="1.096" color-interpolation-filters="sRGB">
      <feGaussianBlur stdDeviation="1.1" id="feGaussianBlur1"/>
    </filter>
    <linearGradient id="linearGradient2070-5-6" x1="145" x2="200" y1="59" y2="4" gradientTransform="matrix(1.0000449,0,0,1.0000449,-140.50292,0.49924763)" gradientUnits="userSpaceOnUse">
      <stop stop-color="#e1e1e1" offset="0" id="stop1"/>
      <stop stop-color="#f5f5f5" offset="1" id="stop2"/>
    </linearGradient>
    <filter id="filter998" x="-0.16445948" y="-0.030884713" width="1.3289191" height="1.0617694" color-interpolation-filters="sRGB">
      <feGaussianBlur stdDeviation="0.46" id="feGaussianBlur2"/>
    </filter>
    <linearGradient id="linearGradient996" x1="19.5" x2="19.5" y1="34" y2="17" gradientTransform="matrix(0.39688,0.0012682,-0.0012682,0.39688,-0.82246,-0.25761)" gradientUnits="userSpaceOnUse">
      <stop stop-color="#f60" offset="0" id="stop3"/>
      <stop stop-color="#f80" offset="1" id="stop4"/>
    </linearGradient>
    <linearGradient id="linearGradient998" x1="32" x2="32" y1="37" y2="11" gradientTransform="matrix(0.39688,0.0012682,-0.0012682,0.39688,-0.82246,-0.25761)" gradientUnits="userSpaceOnUse">
      <stop stop-color="#2d2d2d" offset="0" id="stop5"/>
      <stop stop-color="#535353" offset="1" id="stop6"/>
    </linearGradient>
    <filter id="filter998-3" x="-0.16445948" y="-0.030884713" width="1.328919" height="1.0617694" color-interpolation-filters="sRGB">
      <feGaussianBlur stdDeviation="0.46" id="feGaussianBlur2-6"/>
    </filter>
    <filter id="filter2076-0-2-9" x="-0.048000001" y="-0.048000001" width="1.096" height="1.096" color-interpolation-filters="sRGB">
      <feGaussianBlur stdDeviation="1.1" id="feGaussianBlur1-1"/>
    </filter>
  <radialGradient id="gradient_ds_br" cx="0" cy="0" r="1" gradientUnits="userSpaceOnUse" gradientTransform="matrix(13.998399,0.00477622,-0.00477841,14.004799,47.5016,48.4952)">
      <stop offset="0.65" id="stop1"/>
      <stop offset="1" stop-opacity="0" id="stop2"/>
    </radialGradient><linearGradient id="gradient_ds_b" x1="30.448999" y1="48.5" x2="30.492201" y2="62.500301" gradientUnits="userSpaceOnUse">
      <stop offset="0.653846" id="stop3"/>
      <stop offset="1" stop-opacity="0" id="stop4"/>
    </linearGradient><radialGradient id="gradient_ds_bl" cx="0" cy="0" r="1" gradientUnits="userSpaceOnUse" gradientTransform="matrix(0,14,-14,0,16.5,48.5)">
      <stop offset="0.65" id="stop5"/>
      <stop offset="1" stop-opacity="0" id="stop6"/>
    </radialGradient><linearGradient id="gradient_ds_r" x1="47.5" y1="33.5" x2="61.5" y2="33.5009" gradientUnits="userSpaceOnUse">
      <stop offset="0.649038" id="stop7"/>
      <stop offset="1" stop-opacity="0" id="stop8"/>
    </linearGradient><linearGradient id="gradient_ds_l" x1="16.5" y1="33.894699" x2="2.5" y2="33.894699" gradientUnits="userSpaceOnUse">
      <stop offset="0.649038" id="stop9"/>
      <stop offset="1" stop-opacity="0" id="stop10"/>
    </linearGradient><radialGradient id="gradient_ds_tr" cx="0" cy="0" r="1" gradientTransform="matrix(0.00843236,-14,14.0084,0.0189842,47.4916,18.5)" gradientUnits="userSpaceOnUse">
      <stop offset="0.65" id="stop11"/>
      <stop offset="1" stop-opacity="0" id="stop12"/>
    </radialGradient><linearGradient id="gradient_ds_t" x1="29.98" y1="18.5" x2="29.9158" y2="4.4998598" gradientUnits="userSpaceOnUse">
      <stop offset="0.649038" id="stop13"/>
      <stop offset="1" stop-opacity="0" id="stop14"/>
    </linearGradient><radialGradient id="gradient_ds_tl" cx="0" cy="0" r="1" gradientTransform="matrix(-0.00843236,-14,-14.0084,0.0189842,16.5084,18.5)" gradientUnits="userSpaceOnUse">
      <stop offset="0.65" id="stop15"/>
      <stop offset="1" stop-opacity="0" id="stop16"/>
    </radialGradient></defs>
  <metadata id="metadata6">
    <rdf:RDF>
      <cc:Work rdf:about="">
        <dc:format>image/svg+xml</dc:format>
        <dc:type rdf:resource="http://purl.org/dc/dcmitype/StillImage"/>
      </cc:Work>
    </rdf:RDF>
  </metadata>
  
  <g id="ds" opacity="0.25">
    <path id="ds-br" d="m 47.5,48.5 h 14 v 14 h -14 z" fill="url(#gradient_ds_br)" style="fill:url(#gradient_ds_br)"/>
    <path id="ds-b" d="m 16.5,48.5 h 31 v 14 h -31 z" fill="url(#gradient_ds_b)" style="fill:url(#gradient_ds_b)"/>
    <path id="ds-bl" d="m 2.5,48.5 h 14 v 14 h -14 z" fill="url(#gradient_ds_bl)" style="fill:url(#gradient_ds_bl)"/>
    <path id="ds-r" d="m 47.5,18.5 h 14 v 30 h -14 z" fill="url(#gradient_ds_r)" style="fill:url(#gradient_ds_r)"/>
    <path id="ds-l" d="m 2.5,18.5 h 14 v 30 h -14 z" fill="url(#gradient_ds_l)" style="fill:url(#gradient_ds_l)"/>
    <path id="ds-tr" d="m 47.5,4.5 h 14 v 14 h -14 z" fill="url(#gradient_ds_tr)" style="fill:url(#gradient_ds_tr)"/>
    <path id="ds-t" d="m 16.5,4.5 h 31 v 14 h -31 z" fill="url(#gradient_ds_t)" style="fill:url(#gradient_ds_t)"/>
    <path id="ds-tl" d="m 16.5,4.5 h -14 v 14 h 14 z" fill="url(#gradient_ds_tl)" style="fill:url(#gradient_ds_tl)"/>
  </g><rect x="4.5" y="4.5" width="55" height="55" rx="10" fill="url(#linearGradient2070-5-6)" image-rendering="optimizeSpeed" stroke-width="1.00001" id="bg" style="fill:url(#linearGradient2070-5-6)"/>
  <g transform="matrix(3.779602,0,0,3.779602,-1.4271777,-1.4792606)" id="art">
    <path transform="matrix(0.26279,0.030772,-0.030772,0.26279,0.44152,-0.078225)" d="m 47.275,46.422 c 0.94175,-0.93243 1.8319,-1.9282 2.6816,-2.9707 l -3.7324,-32.775 -2.9805,0.33984 4.0312,35.406 z" filter="url(#filter998)" opacity="0.15" stroke-width="1.5" id="path7" style="filter:url(#filter998-3)"/>
    <path d="m 4.3154,6.5056 -0.011836,3.71 c -0.00143,0.44966 0.04409,0.85937 0.13417,1.2335 0.090517,0.36423 0.22917,0.68932 0.44662,0.95393 0.5436,0.66133 1.3455,0.85481 2.0825,0.85794 0.89931,0.0041 1.6934,-0.09183 2.4881,-0.38893 l 0.020252,-6.3484 -1.1906,-0.0038 -0.017709,5.5546 c -0.3972,0.10152 -0.79421,0.14233 -1.1708,0.14471 -0.59097,0.0037 -1.0103,-0.17666 -1.2604,-0.52432 -0.24854,-0.34765 -0.34272,-0.92423 -0.34017,-1.7283 l 0.011031,-3.4567" fill="url(#linearGradient996)" stroke-width="0.39688" id="path8" style="fill:url(#linearGradient996)"/>
    <path d="m 11.436,13.576 c 0.33701,0 0.44207,-1.31e-4 0.82461,-1.31e-4 l -7.59e-4,-9.4257 -0.7937,-0.00241 -0.03018,9.4283 z" fill="url(#linearGradient998)" stroke-width="0.39688" id="path9" style="fill:url(#linearGradient998)"/>
  </g>
</svg>
