<?xml version="1.0" encoding="UTF-8" standalone="no"?>
<svg xmlns:inkscape="http://www.inkscape.org/namespaces/inkscape" xmlns:sodipodi="http://sodipodi.sourceforge.net/DTD/sodipodi-0.dtd" xmlns="http://www.w3.org/2000/svg" xmlns:svg="http://www.w3.org/2000/svg" width="64" height="64" version="1.1" viewBox="0 0 64 64" id="svg3" sodipodi:docname="usb-creator.svg" inkscape:version="1.4.2 (ebf0e940d0, 2025-05-08)">
  <sodipodi:namedview id="namedview3" pagecolor="#ffffff" bordercolor="#000000" borderopacity="0.25" inkscape:showpageshadow="2" inkscape:pageopacity="0.0" inkscape:pagecheckerboard="0" inkscape:deskcolor="#d1d1d1" inkscape:current-layer="svg3"/>
  <defs id="defs2">
    <filter id="filter1057-2" x="-0.026999999" y="-0.026999999" width="1.054" height="1.054" color-interpolation-filters="sRGB">
      <feGaussianBlur stdDeviation="0.61875" id="feGaussianBlur1"/>
    </filter>
    <linearGradient id="linearGradient1053-5" x1="-127" x2="-72" y1="60" y2="5" gradientTransform="translate(131.496,-0.51)" gradientUnits="userSpaceOnUse">
      <stop stop-color="#32d7ff" offset="0" id="stop1"/>
      <stop stop-color="#329bff" offset="1" id="stop2"/>
    </linearGradient>
  <radialGradient id="gradient_ds_br" cx="0" cy="0" r="1" gradientUnits="userSpaceOnUse" gradientTransform="matrix(13.998399,0.00477622,-0.00477841,14.004799,47.5016,48.4952)">
      <stop offset="0.65" id="stop1"/>
      <stop offset="1" stop-opacity="0" id="stop2"/>
    </radialGradient><linearGradient id="gradient_ds_b" x1="30.448999" y1="48.5" x2="30.492201" y2="62.500301" gradientUnits="userSpaceOnUse">
      <stop offset="0.653846" id="stop3"/>
      <stop offset="1" stop-opacity="0" id="stop4"/>
    </linearGradient><radialGradient id="gradient_ds_bl" cx="0" cy="0" r="1" gradientUnits="userSpaceOnUse" gradientTransform="matrix(0,14,-14,0,16.5,48.5)">
      <stop offset="0.65" id="stop5"/>
      <stop offset="1" stop-opacity="0" id="stop6"/>
    </radialGradient><linearGradient id="gradient_ds_r" x1="47.5" y1="33.5" x2="61.5" y2="33.5009" gradientUnits="userSpaceOnUse">
      <stop offset="0.649038" id="stop7"/>
      <stop offset="1" stop-opacity="0" id="stop8"/>
    </linearGradient><linearGradient id="gradient_ds_l" x1="16.5" y1="33.894699" x2="2.5" y2="33.894699" gradientUnits="userSpaceOnUse">
      <stop offset="0.649038" id="stop9"/>
      <stop offset="1" stop-opacity="0" id="stop10"/>
    </linearGradient><radialGradient id="gradient_ds_tr" cx="0" cy="0" r="1" gradientTransform="matrix(0.00843236,-14,14.0084,0.0189842,47.4916,18.5)" gradientUnits="userSpaceOnUse">
      <stop offset="0.65" id="stop11"/>
      <stop offset="1" stop-opacity="0" id="stop12"/>
    </radialGradient><linearGradient id="gradient_ds_t" x1="29.98" y1="18.5" x2="29.9158" y2="4.4998598" gradientUnits="userSpaceOnUse">
      <stop offset="0.649038" id="stop13"/>
      <stop offset="1" stop-opacity="0" id="stop14"/>
    </linearGradient><radialGradient id="gradient_ds_tl" cx="0" cy="0" r="1" gradientTransform="matrix(-0.00843236,-14,-14.0084,0.0189842,16.5084,18.5)" gradientUnits="userSpaceOnUse">
      <stop offset="0.65" id="stop15"/>
      <stop offset="1" stop-opacity="0" id="stop16"/>
    </radialGradient></defs>
  
  <g id="ds" opacity="0.25">
    <path id="ds-br" d="m 47.5,48.5 h 14 v 14 h -14 z" fill="url(#gradient_ds_br)" style="fill:url(#gradient_ds_br)"/>
    <path id="ds-b" d="m 16.5,48.5 h 31 v 14 h -31 z" fill="url(#gradient_ds_b)" style="fill:url(#gradient_ds_b)"/>
    <path id="ds-bl" d="m 2.5,48.5 h 14 v 14 h -14 z" fill="url(#gradient_ds_bl)" style="fill:url(#gradient_ds_bl)"/>
    <path id="ds-r" d="m 47.5,18.5 h 14 v 30 h -14 z" fill="url(#gradient_ds_r)" style="fill:url(#gradient_ds_r)"/>
    <path id="ds-l" d="m 2.5,18.5 h 14 v 30 h -14 z" fill="url(#gradient_ds_l)" style="fill:url(#gradient_ds_l)"/>
    <path id="ds-tr" d="m 47.5,4.5 h 14 v 14 h -14 z" fill="url(#gradient_ds_tr)" style="fill:url(#gradient_ds_tr)"/>
    <path id="ds-t" d="m 16.5,4.5 h 31 v 14 h -31 z" fill="url(#gradient_ds_t)" style="fill:url(#gradient_ds_t)"/>
    <path id="ds-tl" d="m 16.5,4.5 h -14 v 14 h 14 z" fill="url(#gradient_ds_tl)" style="fill:url(#gradient_ds_tl)"/>
  </g><rect x="4.5" y="4.5" width="55" height="55" fill="url(#linearGradient1053-5)" stroke-width="2.7444" id="bg" style="fill:url(#linearGradient1053-5);stroke-linecap:round" rx="10"/>
  <g id="art"><path d="m 32.246,14.5 c -0.19951,3.55e-4 -0.38399,0.08717 -0.47617,0.22988 l -3.4481,5.3396 c -0.0856,0.13303 -0.0801,0.29519 0.0164,0.42363 0.0969,0.12884 0.2702,0.20662 0.45646,0.20689 l 1.7372,0.0033 -0.0328,15.316 -5.3758,-2.9293 0.003,-2.2955 c 0.83436,-0.44343 1.3872,-1.2069 1.3891,-2.0722 0.003,-1.373 -1.3751,-2.4874 -3.0803,-2.4892 -1.702,-0.0032 -3.0834,1.1096 -3.0869,2.4826 -0.003,0.86589 0.5467,1.6264 1.3792,2.0722 l -0.006,3.0278 c -0.001,0.45639 0.27887,0.88136 0.74873,1.1362 l 8.0226,4.3676 -0.01,4.7223 c -1.1314,0.48874 -1.9089,1.4409 -1.9112,2.5483 -0.002,1.6051 1.6076,2.9062 3.5992,2.9096 1.9939,0.0027 3.6122,-1.294 3.6156,-2.8997 0.003,-1.1071 -0.77528,-2.0591 -1.9047,-2.5516 l 0.0197,-8.9815 7.6482,-4.1312 c 0.0918,-0.0497 0.17608,-0.10584 0.25286,-0.16748 0.31592,-0.25368 0.49855,-0.60175 0.49916,-0.96876 l 0.007,-3.6222 h 0.66007 c 0.17954,-1.07e-4 0.34914,-0.05561 0.47617,-0.15763 0.12694,-0.10198 0.19964,-0.23944 0.20031,-0.38422 l 0.006,-3.7995 c 10e-4,-0.30117 -0.2996,-0.54493 -0.6732,-0.54513 l -4.7124,-0.0065 c -0.17955,1.07e-4 -0.35251,0.05892 -0.47945,0.16091 -0.12695,0.10202 -0.19963,0.23949 -0.20032,0.38422 l -0.006,3.7962 c -0.002,0.30085 0.30309,0.54525 0.67649,0.54513 l 0.65678,0.0033 -0.006,2.8931 -4.9981,2.6994 0.023,-11.06 1.7405,0.0033 c 0.18636,2.58e-4 0.35662,-0.07895 0.45318,-0.20689 0.0974,-0.12861 0.10529,-0.28676 0.0197,-0.42034 l -3.4251,-5.3528 c -0.0918,-0.14228 -0.27359,-0.22932 -0.47288,-0.22987 z" fill="#ffffff" stroke-width="3.3627" id="path3" style="stroke-linecap:round"/></g>
</svg>
