<?xml version="1.0" encoding="UTF-8" standalone="no"?>
<svg xmlns:inkscape="http://www.inkscape.org/namespaces/inkscape" xmlns:sodipodi="http://sodipodi.sourceforge.net/DTD/sodipodi-0.dtd" xmlns="http://www.w3.org/2000/svg" xmlns:svg="http://www.w3.org/2000/svg" xmlns:rdf="http://www.w3.org/1999/02/22-rdf-syntax-ns#" xmlns:cc="http://creativecommons.org/ns#" xmlns:dc="http://purl.org/dc/elements/1.1/" width="64" height="64" version="1.1" viewBox="0 0 64 64" id="svg27" sodipodi:docname="veracrypt.svg" inkscape:version="1.4.2 (ebf0e940d0, 2025-05-08)">
  <metadata id="metadata1">
    <rdf:RDF>
      <cc:Work rdf:about="">
        <dc:format>image/svg+xml</dc:format>
        <dc:type rdf:resource="http://purl.org/dc/dcmitype/StillImage"/>
      </cc:Work>
    </rdf:RDF>
  </metadata>
  <defs id="defs2">
    <filter id="filter1057-6" x="-0.026999999" y="-0.026999999" width="1.054" height="1.054" color-interpolation-filters="sRGB">
      <feGaussianBlur stdDeviation="0.61875" id="feGaussianBlur1"/>
    </filter>
    <linearGradient id="linearGradient1053-7" x1="-127" x2="-72" y1="60" y2="5" gradientTransform="matrix(1.0000071,0,0,1.0000071,131.48101,-0.55397627)" gradientUnits="userSpaceOnUse">
      <stop stop-color="#323741" offset="0" id="stop1"/>
      <stop stop-color="#465064" offset="1" id="stop2"/>
    </linearGradient>
    <filter id="filter1057-6-3" x="-0.026999999" y="-0.026999999" width="1.054" height="1.054" color-interpolation-filters="sRGB">
      <feGaussianBlur stdDeviation="0.61875" id="feGaussianBlur1-6"/>
    </filter>
  <radialGradient id="gradient_ds_br" cx="0" cy="0" r="1" gradientUnits="userSpaceOnUse" gradientTransform="matrix(13.998399,0.00477622,-0.00477841,14.004799,47.5016,48.4952)">
      <stop offset="0.65" id="stop1"/>
      <stop offset="1" stop-opacity="0" id="stop2"/>
    </radialGradient><linearGradient id="gradient_ds_b" x1="30.448999" y1="48.5" x2="30.492201" y2="62.500301" gradientUnits="userSpaceOnUse">
      <stop offset="0.653846" id="stop3"/>
      <stop offset="1" stop-opacity="0" id="stop4"/>
    </linearGradient><radialGradient id="gradient_ds_bl" cx="0" cy="0" r="1" gradientUnits="userSpaceOnUse" gradientTransform="matrix(0,14,-14,0,16.5,48.5)">
      <stop offset="0.65" id="stop5"/>
      <stop offset="1" stop-opacity="0" id="stop6"/>
    </radialGradient><linearGradient id="gradient_ds_r" x1="47.5" y1="33.5" x2="61.5" y2="33.5009" gradientUnits="userSpaceOnUse">
      <stop offset="0.649038" id="stop7"/>
      <stop offset="1" stop-opacity="0" id="stop8"/>
    </linearGradient><linearGradient id="gradient_ds_l" x1="16.5" y1="33.894699" x2="2.5" y2="33.894699" gradientUnits="userSpaceOnUse">
      <stop offset="0.649038" id="stop9"/>
      <stop offset="1" stop-opacity="0" id="stop10"/>
    </linearGradient><radialGradient id="gradient_ds_tr" cx="0" cy="0" r="1" gradientTransform="matrix(0.00843236,-14,14.0084,0.0189842,47.4916,18.5)" gradientUnits="userSpaceOnUse">
      <stop offset="0.65" id="stop11"/>
      <stop offset="1" stop-opacity="0" id="stop12"/>
    </radialGradient><linearGradient id="gradient_ds_t" x1="29.98" y1="18.5" x2="29.9158" y2="4.4998598" gradientUnits="userSpaceOnUse">
      <stop offset="0.649038" id="stop13"/>
      <stop offset="1" stop-opacity="0" id="stop14"/>
    </linearGradient><radialGradient id="gradient_ds_tl" cx="0" cy="0" r="1" gradientTransform="matrix(-0.00843236,-14,-14.0084,0.0189842,16.5084,18.5)" gradientUnits="userSpaceOnUse">
      <stop offset="0.65" id="stop15"/>
      <stop offset="1" stop-opacity="0" id="stop16"/>
    </radialGradient></defs>
  
  <g id="ds" opacity="0.25">
    <path id="ds-br" d="m 47.5,48.5 h 14 v 14 h -14 z" fill="url(#gradient_ds_br)" style="fill:url(#gradient_ds_br)"/>
    <path id="ds-b" d="m 16.5,48.5 h 31 v 14 h -31 z" fill="url(#gradient_ds_b)" style="fill:url(#gradient_ds_b)"/>
    <path id="ds-bl" d="m 2.5,48.5 h 14 v 14 h -14 z" fill="url(#gradient_ds_bl)" style="fill:url(#gradient_ds_bl)"/>
    <path id="ds-r" d="m 47.5,18.5 h 14 v 30 h -14 z" fill="url(#gradient_ds_r)" style="fill:url(#gradient_ds_r)"/>
    <path id="ds-l" d="m 2.5,18.5 h 14 v 30 h -14 z" fill="url(#gradient_ds_l)" style="fill:url(#gradient_ds_l)"/>
    <path id="ds-tr" d="m 47.5,4.5 h 14 v 14 h -14 z" fill="url(#gradient_ds_tr)" style="fill:url(#gradient_ds_tr)"/>
    <path id="ds-t" d="m 16.5,4.5 h 31 v 14 h -31 z" fill="url(#gradient_ds_t)" style="fill:url(#gradient_ds_t)"/>
    <path id="ds-tl" d="m 16.5,4.5 h -14 v 14 h 14 z" fill="url(#gradient_ds_tl)" style="fill:url(#gradient_ds_tl)"/>
  </g><rect x="4.5" y="4.5" width="55" height="55" fill="url(#linearGradient1053-7)" stroke-linecap="round" stroke-width="2.74437" id="bg" style="fill:url(#linearGradient1053-7)" rx="10"/>
  <g stroke-width="0.12088" id="art" transform="matrix(3.779602,0,0,3.779602,64.147405,-2.9524739)">
    <path d="m -3.7484,12.146 h -1.6757 v -0.95387 l 0.83783,-0.42295 z" fill="#2bac8f" id="path5"/>
    <path d="M -4.5865,10.769 H -6.262 l 0.16767,0.74087 0.67017,0.63584 z" fill="#2e997c" id="path6"/>
    <path d="m -5.4238,12.146 h -1.6757 l 0.33521,-0.95387 0.50262,-0.42295 z" fill="#278768" id="path7"/>
    <path d="m -7.0998,9.3918 -0.67017,-0.42601 -1.0055,0.42601 0.83783,1.3767 z" fill="#21674f" id="path8"/>
    <path d="m -6.2615,10.769 -0.83771,-0.213 -0.83783,0.213 0.83783,1.3767 z" fill="#2a8d70" id="path9"/>
    <path d="M -6.2615,10.768 H -7.937 l 0.41178,-0.6767 0.42593,-0.70001 z" fill="#2f9f81" id="path10"/>
    <path d="M -3.7484,6.6355 H -5.4239 V 7.37342 L -4.58619,8.0122 Z" fill="#96cfba" id="path11"/>
    <path d="M -4.5864,8.0122 H -6.2621 L -6.09456,7.05538 -5.42439,6.63549 Z" fill="#85c8b1" id="path12"/>
    <path d="M -5.4238,6.6355 H -7.0993 V 7.37342 L -6.26159,8.0122 Z" fill="#6bbfa4" id="path13"/>
    <path d="M -6.2615,8.0124 -7.09921,8.32737 -7.93704,8.0124 -7.09921,6.6357 Z" fill="#52b99b" id="path14"/>
    <path d="M -6.2615,8.0135 H -7.937 l 0.16767,0.63289 0.67017,0.74381 z" fill="#44b799" id="path15"/>
    <path d="M -7.0998,9.3907 H -8.7753 L -7.93747,8.014 Z" fill="#33b394" id="path16"/>
    <path d="M -7.9377,10.768 -8.77541,11.19095 -9.61337,10.768 -8.77554,9.3913 Z" fill="#2da4ad" id="path17"/>
    <path d="m -7.9376,10.769 h -1.6757 l 0.026806,0.89571 0.81103,0.48112 z" fill="#2f98af" id="path18"/>
    <path d="m -8.7759,12.146 h -1.6757 l 1.24e-4,-0.95387 0.83771,-0.42295 0.41302,0.67858 z" fill="#0d657a" id="path19"/>
    <path d="m -9.6133,10.769 -0.83771,-0.213 -0.83796,0.213 0.83783,1.3767" fill="#2a69b1" id="path20"/>
    <path d="m -9.6133,10.768 h -1.6755 l 0.16766,-0.84884 0.67017,-0.52786 z" fill="#2077bc" id="path21"/>
    <path d="m -10.451,9.3918 -1.0052,-0.42601 -0.67042,0.42601 0.83783,1.3767" fill="#2886c7" id="path22"/>
    <path d="m -10.451,9.3907 h -1.6757 l 1.24e-4,-1.0621 0.83771,-0.31486 z" fill="#238dcd" id="path23"/>
    <path d="m -11.284,8.0094 -0.84267,-0.32098 -0.83796,0.32098 0.84032,1.3808" fill="#1a9cd1" id="path24"/>
    <path d="m -11.289,8.0122 h -1.6755 l 0.16767,-0.6389 0.67017,-0.73781 z" fill="#0ea6d3" id="path25"/>
    <path d="m -12.127,6.6355 h -1.6755 l 0.83783,1.3767 z" fill="#08abd8" id="path26"/>
  </g>
</svg>
