<?xml version="1.0" encoding="UTF-8" standalone="no"?>
<svg xmlns:inkscape="http://www.inkscape.org/namespaces/inkscape" xmlns:sodipodi="http://sodipodi.sourceforge.net/DTD/sodipodi-0.dtd" xmlns="http://www.w3.org/2000/svg" xmlns:svg="http://www.w3.org/2000/svg" xmlns:rdf="http://www.w3.org/1999/02/22-rdf-syntax-ns#" xmlns:cc="http://creativecommons.org/ns#" xmlns:dc="http://purl.org/dc/elements/1.1/" width="64" height="64" version="1.1" viewBox="0 0 64 64" id="svg11" sodipodi:docname="virtualbox.svg" inkscape:version="1.4.2 (ebf0e940d0, 2025-05-08)">
  <defs id="defs3">
    <filter id="filter1208" x="-0.20026781" y="-0.32153335" width="1.4005356" height="1.6430666" color-interpolation-filters="sRGB">
      <feGaussianBlur stdDeviation="0.4323125" id="feGaussianBlur1"/>
    </filter>
    <filter id="filter1057-4-7" x="-0.026999999" y="-0.026999999" width="1.054" height="1.054" color-interpolation-filters="sRGB">
      <feGaussianBlur stdDeviation="0.61875" id="feGaussianBlur2"/>
    </filter>
    <linearGradient id="linearGradient1053-5-5" x1="-127" x2="-72" y1="60" y2="5" gradientTransform="matrix(1.0000827,0,0,1.0000827,131.51125,-0.5118337)" gradientUnits="userSpaceOnUse">
      <stop stop-color="#32d7ff" offset="0" id="stop2"/>
      <stop stop-color="#329bff" offset="1" id="stop3"/>
    </linearGradient>
    <filter id="filter1208-3" x="-0.20026781" y="-0.32153334" width="1.4005356" height="1.6430667" color-interpolation-filters="sRGB">
      <feGaussianBlur stdDeviation="0.4323125" id="feGaussianBlur1-6"/>
    </filter>
    <filter id="filter2" x="-0.20026781" y="-0.32153335" width="1.4005356" height="1.6430666" color-interpolation-filters="sRGB">
      <feGaussianBlur stdDeviation="0.4323125" id="feGaussianBlur2-7"/>
    </filter>
    <filter id="filter3" x="-0.20026781" y="-0.32153335" width="1.4005356" height="1.6430666" color-interpolation-filters="sRGB">
      <feGaussianBlur stdDeviation="0.4323125" id="feGaussianBlur3"/>
    </filter>
    <filter id="filter4" x="-0.20026781" y="-0.32153335" width="1.4005356" height="1.6430666" color-interpolation-filters="sRGB">
      <feGaussianBlur stdDeviation="0.4323125" id="feGaussianBlur4"/>
    </filter>
    <filter id="filter1057-4-7-5" x="-0.026999999" y="-0.026999999" width="1.054" height="1.054" color-interpolation-filters="sRGB">
      <feGaussianBlur stdDeviation="0.61875" id="feGaussianBlur5"/>
    </filter>
  <radialGradient id="gradient_ds_br" cx="0" cy="0" r="1" gradientUnits="userSpaceOnUse" gradientTransform="matrix(13.998399,0.00477622,-0.00477841,14.004799,47.5016,48.4952)">
      <stop offset="0.65" id="stop1"/>
      <stop offset="1" stop-opacity="0" id="stop2"/>
    </radialGradient><linearGradient id="gradient_ds_b" x1="30.448999" y1="48.5" x2="30.492201" y2="62.500301" gradientUnits="userSpaceOnUse">
      <stop offset="0.653846" id="stop3"/>
      <stop offset="1" stop-opacity="0" id="stop4"/>
    </linearGradient><radialGradient id="gradient_ds_bl" cx="0" cy="0" r="1" gradientUnits="userSpaceOnUse" gradientTransform="matrix(0,14,-14,0,16.5,48.5)">
      <stop offset="0.65" id="stop5"/>
      <stop offset="1" stop-opacity="0" id="stop6"/>
    </radialGradient><linearGradient id="gradient_ds_r" x1="47.5" y1="33.5" x2="61.5" y2="33.5009" gradientUnits="userSpaceOnUse">
      <stop offset="0.649038" id="stop7"/>
      <stop offset="1" stop-opacity="0" id="stop8"/>
    </linearGradient><linearGradient id="gradient_ds_l" x1="16.5" y1="33.894699" x2="2.5" y2="33.894699" gradientUnits="userSpaceOnUse">
      <stop offset="0.649038" id="stop9"/>
      <stop offset="1" stop-opacity="0" id="stop10"/>
    </linearGradient><radialGradient id="gradient_ds_tr" cx="0" cy="0" r="1" gradientTransform="matrix(0.00843236,-14,14.0084,0.0189842,47.4916,18.5)" gradientUnits="userSpaceOnUse">
      <stop offset="0.65" id="stop11"/>
      <stop offset="1" stop-opacity="0" id="stop12"/>
    </radialGradient><linearGradient id="gradient_ds_t" x1="29.98" y1="18.5" x2="29.9158" y2="4.4998598" gradientUnits="userSpaceOnUse">
      <stop offset="0.649038" id="stop13"/>
      <stop offset="1" stop-opacity="0" id="stop14"/>
    </linearGradient><radialGradient id="gradient_ds_tl" cx="0" cy="0" r="1" gradientTransform="matrix(-0.00843236,-14,-14.0084,0.0189842,16.5084,18.5)" gradientUnits="userSpaceOnUse">
      <stop offset="0.65" id="stop15"/>
      <stop offset="1" stop-opacity="0" id="stop16"/>
    </radialGradient></defs>
  <metadata id="metadata3">
    <rdf:RDF>
      <cc:Work rdf:about="">
        <dc:format>image/svg+xml</dc:format>
        <dc:type rdf:resource="http://purl.org/dc/dcmitype/StillImage"/>
      </cc:Work>
    </rdf:RDF>
  </metadata>
  
  <g id="ds" opacity="0.25">
    <path id="ds-br" d="m 47.5,48.5 h 14 v 14 h -14 z" fill="url(#gradient_ds_br)" style="fill:url(#gradient_ds_br)"/>
    <path id="ds-b" d="m 16.5,48.5 h 31 v 14 h -31 z" fill="url(#gradient_ds_b)" style="fill:url(#gradient_ds_b)"/>
    <path id="ds-bl" d="m 2.5,48.5 h 14 v 14 h -14 z" fill="url(#gradient_ds_bl)" style="fill:url(#gradient_ds_bl)"/>
    <path id="ds-r" d="m 47.5,18.5 h 14 v 30 h -14 z" fill="url(#gradient_ds_r)" style="fill:url(#gradient_ds_r)"/>
    <path id="ds-l" d="m 2.5,18.5 h 14 v 30 h -14 z" fill="url(#gradient_ds_l)" style="fill:url(#gradient_ds_l)"/>
    <path id="ds-tr" d="m 47.5,4.5 h 14 v 14 h -14 z" fill="url(#gradient_ds_tr)" style="fill:url(#gradient_ds_tr)"/>
    <path id="ds-t" d="m 16.5,4.5 h 31 v 14 h -31 z" fill="url(#gradient_ds_t)" style="fill:url(#gradient_ds_t)"/>
    <path id="ds-tl" d="m 16.5,4.5 h -14 v 14 h 14 z" fill="url(#gradient_ds_tl)" style="fill:url(#gradient_ds_tl)"/>
  </g><rect x="4.5" y="4.5" width="55" height="55" fill="url(#linearGradient1053-5-5)" stroke-linecap="round" stroke-width="2.74448" id="bg" style="fill:url(#linearGradient1053-5-5)" rx="10"/>
  <g transform="matrix(3.779602,0,0,3.779602,-7.2859388,-5.1429044)" id="art">
    <g fill="#0087ff" id="g7">
      <g fill-rule="evenodd" stroke-width="0.015243" id="g6">
        <path transform="matrix(0.70001,0,0,0.70001,4.4656,3.8135)" d="M 8.4658,15.671 15.081,11.9324 15.03597,4.8992 8.46587,8.4994 Z" filter="url(#filter1208)" opacity="0.6" id="path4" style="filter:url(#filter1208-3)"/>
        <path transform="matrix(0.70001,0,0,0.70001,4.4656,3.8135)" d="M 8.4672,15.686 1.852,11.9474 1.897025,4.9142 l 6.5701,3.6002 z" filter="url(#filter1208)" opacity="0.3" id="path5" style="filter:url(#filter1208-3)"/>
        <path transform="matrix(0.70001,0,0,0.70001,4.4656,3.8135)" d="M 1.878,4.9333 8.4985,1.247 15.0603,4.9348 8.463,8.5494 Z" filter="url(#filter1208)" id="path6" style="filter:url(#filter1208-3)"/>
      </g>
      <path transform="matrix(0.70001,0,0,0.70001,4.4656,3.8135)" d="M 9.4829,5.2897 C 9.431373,5.334381 9.33801,5.339732 9.27446,5.301327 L 8.57051,4.875727 C 8.513027,4.840976 8.498837,4.781903 8.537883,4.737177 l 0.60212,-0.70525 -2.1207,1.4692 C 6.969247,5.535652 6.890143,5.539698 6.831653,5.509197 6.828213,5.507417 6.825243,5.505997 6.821803,5.503857 6.77048,5.472819 6.75266,5.421671 6.779829,5.378127 l 0.70895,-1.1658 -0.93877,0.2713 C 6.493582,4.500012 6.426439,4.490157 6.385229,4.456647 6.342315,4.423878 6.331602,4.376278 6.357371,4.336607 l 0.40426,-0.6147 -0.86581,-0.52345 C 5.83256,3.16026 5.822831,3.092487 5.874299,3.047867 5.926004,3.003038 6.019599,2.998079 6.082829,3.036311 l 0.95538,0.57763 c 0.052678,0.031851 0.069763,0.085154 0.040742,0.12891 l -0.28859,0.43888 0.92318,-0.26653 c 0.05581,-0.016515 0.12159,-0.007 0.16307,0.025497 0.042617,0.031702 0.054837,0.07859 0.031405,0.11841 l -0.55304,0.9093 2.427,-1.6807 c 0.052868,-0.03685 0.13647,-0.038571 0.19555,-0.00394 0.060188,0.042972 0.073132,0.09461 0.034442,0.13999 l -1.1542,1.3504 0.60392,0.36512 c 0.06332,0.038334 0.072669,0.10582 0.021202,0.15045 z M 10.18461,5.57636 9.821,5.35653 C 9.75781,5.318327 9.66398,5.323488 9.61251,5.368157 c -0.051527,0.044681 -0.041739,0.1124 0.021451,0.1506 l 0.36361,0.21983 c 0.063059,0.038132 0.15695,0.033102 0.20849,-0.011627 0.0515,-0.044657 0.04162,-0.11247 -0.02145,-0.1506 z m 0.78297,0.47337 -0.38695,-0.23394 c -0.06306,-0.038132 -0.15702,-0.033042 -0.20848,0.011627 -0.05154,0.044681 -0.04162,0.11247 0.02145,0.1506 l 0.38695,0.23394 c 0.06302,0.038096 0.15695,0.033102 0.20848,-0.011627 0.0515,-0.044657 0.04157,-0.1125 -0.02145,-0.1506 z" filter="url(#filter1208)" stroke-width="0.044893" id="path7" style="filter:url(#filter1208-3)"/>
    </g>
    <g fill-rule="evenodd" stroke-width="0.01067" id="g10">
      <path d="m 10.392,14.783 4.6307,-2.6171 -0.03152,-4.9233 -4.5992,2.5202 z" fill="#ffffff" opacity="0.6" id="path8"/>
      <path d="m 10.393,14.794 -4.6307,-2.6171 0.031518,-4.9233 4.5992,2.5202 z" fill="#fffeff" opacity="0.3" id="path9"/>
      <path d="m 5.7803,7.2669 4.6344,-2.5805 4.5934,2.5815 -4.6182,2.5303 z" fill="#fafafa" id="path10"/>
    </g>
    <path d="M 11.104,7.5164 C 11.06793,7.547678 11.00258,7.551423 10.95809,7.52454 L 10.46531,7.22661 C 10.42507,7.202284 10.41514,7.160932 10.44247,7.129623 l 0.42149,-0.49368 -1.4845,1.0285 C 9.34442,7.688611 9.289046,7.691444 9.2481,7.670093 9.24569,7.668843 9.24361,7.667853 9.2412,7.666353 9.205273,7.644626 9.192799,7.608822 9.211817,7.57834 L 9.708097,6.76226 9.050947,6.95217 C 9.011447,6.963639 8.964446,6.95674 8.935597,6.933284 8.905556,6.910346 8.898057,6.877025 8.916096,6.849254 l 0.28299,-0.4303 -0.60608,-0.36642 C 8.548722,6.025795 8.541912,5.978354 8.577941,5.947114 8.614136,5.915733 8.679651,5.912261 8.723911,5.939024 l 0.66878,0.40435 c 0.036876,0.022296 0.048835,0.059609 0.02852,0.090239 l -0.20202,0.30722 0.64624,-0.18657 c 0.039068,-0.01156 0.085115,-0.0049 0.11415,0.017848 0.029833,0.022191 0.038387,0.055014 0.021985,0.082889 l -0.38714,0.63652 1.6989,-1.1765 c 0.03701,-0.025796 0.09553,-0.027001 0.13689,-0.00276 0.04213,0.030081 0.05119,0.066228 0.02411,0.097995 l -0.80796,0.9453 0.42275,0.25559 c 0.04432,0.026835 0.05087,0.074076 0.01484,0.10532 z M 11.59521,7.71707 11.34068,7.56319 C 11.29645,7.536447 11.23076,7.540061 11.19473,7.57133 11.15866,7.602608 11.16551,7.650011 11.20975,7.67675 l 0.25453,0.15388 C 11.50842,7.857322 11.57415,7.853801 11.61022,7.82249 11.64627,7.791229 11.63936,7.74376 11.5952,7.71707 Z M 12.1433,8.04844 11.87243,7.88468 C 11.82829,7.857987 11.76251,7.861551 11.72649,7.89282 11.69041,7.924098 11.69736,7.97155 11.7415,7.99824 L 12.01237,8.162 c 0.04411,0.026667 0.10987,0.023172 0.14594,-0.00814 0.03605,-0.031261 0.0291,-0.078751 -0.01501,-0.10542 z" fill="#11a7ff" stroke-width="0.031426" id="path11"/>
  </g>
</svg>
