<?xml version="1.0" encoding="UTF-8" standalone="no"?>
<svg xmlns:inkscape="http://www.inkscape.org/namespaces/inkscape" xmlns:sodipodi="http://sodipodi.sourceforge.net/DTD/sodipodi-0.dtd" xmlns="http://www.w3.org/2000/svg" xmlns:svg="http://www.w3.org/2000/svg" xmlns:rdf="http://www.w3.org/1999/02/22-rdf-syntax-ns#" xmlns:cc="http://creativecommons.org/ns#" xmlns:dc="http://purl.org/dc/elements/1.1/" width="64" height="64" version="1.1" viewBox="0 0 64 64" id="svg21" sodipodi:docname="virt-manager.svg" inkscape:version="1.4.2 (ebf0e940d0, 2025-05-08)">
  <metadata id="metadata1">
    <rdf:RDF>
      <cc:Work rdf:about="">
        <dc:format>image/svg+xml</dc:format>
        <dc:type rdf:resource="http://purl.org/dc/dcmitype/StillImage"/>
      </cc:Work>
    </rdf:RDF>
  </metadata>
  <defs id="defs12">
    <filter id="filter1057-27" x="-0.026999999" y="-0.026999999" width="1.054" height="1.054" color-interpolation-filters="sRGB">
      <feGaussianBlur stdDeviation="0.61875" id="feGaussianBlur1"/>
    </filter>
    <linearGradient id="linearGradient1053-93" x1="-127" x2="-72" y1="60" y2="5" gradientTransform="matrix(1.0000071,0,0,1.0000071,131.49953,-0.51024672)" gradientUnits="userSpaceOnUse">
      <stop stop-color="#dee0e2" offset="0" id="stop1"/>
      <stop stop-color="#f1f3f5" stop-opacity=".99608" offset="1" id="stop2"/>
    </linearGradient>
    <filter id="filter929" x="-0.076235294" y="-0.18514286" width="1.1524706" height="1.3702857" color-interpolation-filters="sRGB">
      <feGaussianBlur stdDeviation="1.62" id="feGaussianBlur2"/>
    </filter>
    <linearGradient id="linearGradient2800" x1="428.37" x2="428.37" y1="530.79999" y2="525.79999" gradientTransform="matrix(1.1339,0,0,1.1112,-477.22,-574.48)" gradientUnits="userSpaceOnUse">
      <stop stop-color="#da4453" offset="0" id="stop3"/>
      <stop stop-color="#fa4e5f" offset="1" id="stop4"/>
    </linearGradient>
    <linearGradient id="linearGradient2802" x1="29" x2="29" y1="17" y2="31" gradientTransform="matrix(0.39687,0,0,0.39687,2.9585,3.0442)" gradientUnits="userSpaceOnUse">
      <stop stop-color="#31363b" offset="0" id="stop5"/>
      <stop stop-color="#4d4d4d" offset="1" id="stop6"/>
    </linearGradient>
    <linearGradient id="linearGradient2804" x1="26" x2="26" y1="17" y2="31" gradientTransform="matrix(0.39687,0,0,0.39687,2.9585,3.0442)" gradientUnits="userSpaceOnUse">
      <stop stop-color="#7f8c8d" offset="0" id="stop7"/>
      <stop stop-color="#afb0b3" offset="1" id="stop8"/>
    </linearGradient>
    <linearGradient id="linearGradient2806" x1="32" x2="32" y1="31" y2="17" gradientTransform="matrix(0.39687,0,0,0.39687,2.9585,3.0442)" gradientUnits="userSpaceOnUse">
      <stop stop-color="#afb0b3" offset="0" id="stop9"/>
      <stop stop-color="#bdc3c7" offset="1" id="stop10"/>
    </linearGradient>
    <linearGradient id="linearGradient2808" x1="34" x2="34" y1="31" y2="17" gradientTransform="matrix(0.39687,0,0,0.39687,2.9585,3.0442)" gradientUnits="userSpaceOnUse">
      <stop stop-color="#4d4d4d" offset="0" id="stop11"/>
      <stop stop-color="#585858" offset="1" id="stop12"/>
    </linearGradient>
    <filter id="filter1057-27-3" x="-0.026999999" y="-0.026999999" width="1.054" height="1.054" color-interpolation-filters="sRGB">
      <feGaussianBlur stdDeviation="0.61875" id="feGaussianBlur1-6"/>
    </filter>
    <filter id="filter929-3" x="-0.076235294" y="-0.18514286" width="1.1524706" height="1.3702857" color-interpolation-filters="sRGB">
      <feGaussianBlur stdDeviation="1.62" id="feGaussianBlur2-5"/>
    </filter>
  <radialGradient id="gradient_ds_br" cx="0" cy="0" r="1" gradientUnits="userSpaceOnUse" gradientTransform="matrix(13.998399,0.00477622,-0.00477841,14.004799,47.5016,48.4952)">
      <stop offset="0.65" id="stop1"/>
      <stop offset="1" stop-opacity="0" id="stop2"/>
    </radialGradient><linearGradient id="gradient_ds_b" x1="30.448999" y1="48.5" x2="30.492201" y2="62.500301" gradientUnits="userSpaceOnUse">
      <stop offset="0.653846" id="stop3"/>
      <stop offset="1" stop-opacity="0" id="stop4"/>
    </linearGradient><radialGradient id="gradient_ds_bl" cx="0" cy="0" r="1" gradientUnits="userSpaceOnUse" gradientTransform="matrix(0,14,-14,0,16.5,48.5)">
      <stop offset="0.65" id="stop5"/>
      <stop offset="1" stop-opacity="0" id="stop6"/>
    </radialGradient><linearGradient id="gradient_ds_r" x1="47.5" y1="33.5" x2="61.5" y2="33.5009" gradientUnits="userSpaceOnUse">
      <stop offset="0.649038" id="stop7"/>
      <stop offset="1" stop-opacity="0" id="stop8"/>
    </linearGradient><linearGradient id="gradient_ds_l" x1="16.5" y1="33.894699" x2="2.5" y2="33.894699" gradientUnits="userSpaceOnUse">
      <stop offset="0.649038" id="stop9"/>
      <stop offset="1" stop-opacity="0" id="stop10"/>
    </linearGradient><radialGradient id="gradient_ds_tr" cx="0" cy="0" r="1" gradientTransform="matrix(0.00843236,-14,14.0084,0.0189842,47.4916,18.5)" gradientUnits="userSpaceOnUse">
      <stop offset="0.65" id="stop11"/>
      <stop offset="1" stop-opacity="0" id="stop12"/>
    </radialGradient><linearGradient id="gradient_ds_t" x1="29.98" y1="18.5" x2="29.9158" y2="4.4998598" gradientUnits="userSpaceOnUse">
      <stop offset="0.649038" id="stop13"/>
      <stop offset="1" stop-opacity="0" id="stop14"/>
    </linearGradient><radialGradient id="gradient_ds_tl" cx="0" cy="0" r="1" gradientTransform="matrix(-0.00843236,-14,-14.0084,0.0189842,16.5084,18.5)" gradientUnits="userSpaceOnUse">
      <stop offset="0.65" id="stop15"/>
      <stop offset="1" stop-opacity="0" id="stop16"/>
    </radialGradient></defs>
  
  <g id="ds" opacity="0.25">
    <path id="ds-br" d="m 47.5,48.5 h 14 v 14 h -14 z" fill="url(#gradient_ds_br)" style="fill:url(#gradient_ds_br)"/>
    <path id="ds-b" d="m 16.5,48.5 h 31 v 14 h -31 z" fill="url(#gradient_ds_b)" style="fill:url(#gradient_ds_b)"/>
    <path id="ds-bl" d="m 2.5,48.5 h 14 v 14 h -14 z" fill="url(#gradient_ds_bl)" style="fill:url(#gradient_ds_bl)"/>
    <path id="ds-r" d="m 47.5,18.5 h 14 v 30 h -14 z" fill="url(#gradient_ds_r)" style="fill:url(#gradient_ds_r)"/>
    <path id="ds-l" d="m 2.5,18.5 h 14 v 30 h -14 z" fill="url(#gradient_ds_l)" style="fill:url(#gradient_ds_l)"/>
    <path id="ds-tr" d="m 47.5,4.5 h 14 v 14 h -14 z" fill="url(#gradient_ds_tr)" style="fill:url(#gradient_ds_tr)"/>
    <path id="ds-t" d="m 16.5,4.5 h 31 v 14 h -31 z" fill="url(#gradient_ds_t)" style="fill:url(#gradient_ds_t)"/>
    <path id="ds-tl" d="m 16.5,4.5 h -14 v 14 h 14 z" fill="url(#gradient_ds_tl)" style="fill:url(#gradient_ds_tl)"/>
  </g><rect x="4.5" y="4.5" width="55" height="55" fill="url(#linearGradient1053-93)" stroke-linecap="round" stroke-width="2.74437" id="bg" style="fill:url(#linearGradient1053-93)" rx="10"/>
  <g id="art"><path transform="matrix(1.0000071,0,0,1.0000071,7.555786e-4,-4.504e-7)" d="m 6.4992,22.103 7.5,21 h 13.5 l 3,-8.4004 3,8.4004 h 9 l 3,-8.4004 3,8.4004 h 9 l -7.5,-21 h -9 l -3,8.4004 -3,-8.4004 h -13.5 l -5.25,15 -5.25,-15 z" filter="url(#filter929)" opacity="0.25" stroke-width="1.5" id="path15" style="filter:url(#filter929-3)"/><g stroke-width="0.39687" id="g20" transform="matrix(3.779602,0,0,3.779602,-15.681947,-16.005859)">
    <path d="m 5.7366,9.7909 h 1.1906 l 1.389,3.9687 1.389,-3.9687 h 1.1906 l -1.9843,5.5561 -1.1906,-2.6e-5 z" fill="url(#linearGradient2800)" id="path16" style="fill:url(#linearGradient2800)"/>
    <path d="m 10.102,15.347 1.9843,-5.5561 h 1.1906 l -1.9843,5.5561 z m 3.9687,0 1.9843,-5.5561 h 1.1906 l -1.9843,5.5561 z" fill="url(#linearGradient2802)" id="path17" style="fill:url(#linearGradient2802)"/>
    <path d="m 8.9115,15.347 1.9843,-5.5561 h 1.1906 l -1.9843,5.5561 z m 3.9687,0 1.9843,-5.5561 h 1.1906 l -1.9843,5.5561 z" fill="url(#linearGradient2804)" id="path18" style="fill:url(#linearGradient2804)"/>
    <path d="M 14.071,15.347 H 12.8804 L 10.8961,9.7909 h 1.1906 z m 3.9687,0 H 16.8491 L 14.8648,9.7909 h 1.1906 z" fill="url(#linearGradient2806)" id="path19" style="fill:url(#linearGradient2806)"/>
    <path d="m 12.086,9.7909 1.9843,5.5561 h 1.1906 L 13.2766,9.7909 Z m 3.9687,0 1.9843,5.5561 h 1.1906 L 17.2453,9.7909 Z" fill="url(#linearGradient2808)" id="path20" style="fill:url(#linearGradient2808)"/>
  </g></g>
  
</svg>
