<?xml version="1.0" encoding="UTF-8" standalone="no"?>
<svg
   width="64"
   height="64"
   version="1.1"
   viewBox="0 0 64 64"
   id="svg6"
   sodipodi:docname="wine-winefile.svg"
   inkscape:version="1.4.2 (ebf0e940d0, 2025-05-08)"
   xmlns:inkscape="http://www.inkscape.org/namespaces/inkscape"
   xmlns:sodipodi="http://sodipodi.sourceforge.net/DTD/sodipodi-0.dtd"
   xmlns="http://www.w3.org/2000/svg"
   xmlns:svg="http://www.w3.org/2000/svg">
  <sodipodi:namedview
     id="namedview6"
     pagecolor="#ffffff"
     bordercolor="#000000"
     borderopacity="0.25"
     inkscape:showpageshadow="2"
     inkscape:pageopacity="0.0"
     inkscape:pagecheckerboard="0"
     inkscape:deskcolor="#d1d1d1"
     inkscape:current-layer="svg6" />
  <defs
     id="defs1">
    <filter
       id="filter2076"
       x="-.048"
       y="-.048"
       width="1.096"
       height="1.096"
       color-interpolation-filters="sRGB">
      <feGaussianBlur
         stdDeviation="1.1"
         id="feGaussianBlur1" />
    </filter>
    <radialGradient
       id="gradient_ds_br"
       cx="0"
       cy="0"
       r="1"
       gradientUnits="userSpaceOnUse"
       gradientTransform="matrix(13.998399,0.00477622,-0.00477841,14.004799,47.5016,48.4952)">
      <stop
         offset="0.65"
         id="stop1" />
      <stop
         offset="1"
         stop-opacity="0"
         id="stop2" />
    </radialGradient>
    <linearGradient
       id="gradient_ds_b"
       x1="30.448999"
       y1="48.5"
       x2="30.492201"
       y2="62.500301"
       gradientUnits="userSpaceOnUse">
      <stop
         offset="0.653846"
         id="stop3" />
      <stop
         offset="1"
         stop-opacity="0"
         id="stop4" />
    </linearGradient>
    <radialGradient
       id="gradient_ds_bl"
       cx="0"
       cy="0"
       r="1"
       gradientUnits="userSpaceOnUse"
       gradientTransform="matrix(0,14,-14,0,16.5,48.5)">
      <stop
         offset="0.65"
         id="stop5" />
      <stop
         offset="1"
         stop-opacity="0"
         id="stop6" />
    </radialGradient>
    <linearGradient
       id="gradient_ds_r"
       x1="47.5"
       y1="33.5"
       x2="61.5"
       y2="33.5009"
       gradientUnits="userSpaceOnUse">
      <stop
         offset="0.649038"
         id="stop7" />
      <stop
         offset="1"
         stop-opacity="0"
         id="stop8" />
    </linearGradient>
    <linearGradient
       id="gradient_ds_l"
       x1="16.5"
       y1="33.894699"
       x2="2.5"
       y2="33.894699"
       gradientUnits="userSpaceOnUse">
      <stop
         offset="0.649038"
         id="stop9" />
      <stop
         offset="1"
         stop-opacity="0"
         id="stop10" />
    </linearGradient>
    <radialGradient
       id="gradient_ds_tr"
       cx="0"
       cy="0"
       r="1"
       gradientTransform="matrix(0.00843236,-14,14.0084,0.0189842,47.4916,18.5)"
       gradientUnits="userSpaceOnUse">
      <stop
         offset="0.65"
         id="stop11" />
      <stop
         offset="1"
         stop-opacity="0"
         id="stop12" />
    </radialGradient>
    <linearGradient
       id="gradient_ds_t"
       x1="29.98"
       y1="18.5"
       x2="29.9158"
       y2="4.4998598"
       gradientUnits="userSpaceOnUse">
      <stop
         offset="0.649038"
         id="stop13" />
      <stop
         offset="1"
         stop-opacity="0"
         id="stop14" />
    </linearGradient>
    <radialGradient
       id="gradient_ds_tl"
       cx="0"
       cy="0"
       r="1"
       gradientTransform="matrix(-0.00843236,-14,-14.0084,0.0189842,16.5084,18.5)"
       gradientUnits="userSpaceOnUse">
      <stop
         offset="0.65"
         id="stop15" />
      <stop
         offset="1"
         stop-opacity="0"
         id="stop16" />
    </radialGradient>
    <filter
       inkscape:collect="always"
       style="color-interpolation-filters:sRGB"
       id="filter2"
       x="-0.047999999"
       y="-0.047999999"
       width="1.096"
       height="1.096">
      <feGaussianBlur
         inkscape:collect="always"
         stdDeviation="0.84"
         id="feGaussianBlur2" />
    </filter>
  </defs>
  <g
     id="ds"
     opacity="0.25">
    <path
       id="ds-br"
       d="m 47.5,48.5 h 14 v 14 h -14 z"
       fill="url(#gradient_ds_br)"
       style="fill:url(#gradient_ds_br)" />
    <path
       id="ds-b"
       d="m 16.5,48.5 h 31 v 14 h -31 z"
       fill="url(#gradient_ds_b)"
       style="fill:url(#gradient_ds_b)" />
    <path
       id="ds-bl"
       d="m 2.5,48.5 h 14 v 14 h -14 z"
       fill="url(#gradient_ds_bl)"
       style="fill:url(#gradient_ds_bl)" />
    <path
       id="ds-r"
       d="m 47.5,18.5 h 14 v 30 h -14 z"
       fill="url(#gradient_ds_r)"
       style="fill:url(#gradient_ds_r)" />
    <path
       id="ds-l"
       d="m 2.5,18.5 h 14 v 30 h -14 z"
       fill="url(#gradient_ds_l)"
       style="fill:url(#gradient_ds_l)" />
    <path
       id="ds-tr"
       d="m 47.5,4.5 h 14 v 14 h -14 z"
       fill="url(#gradient_ds_tr)"
       style="fill:url(#gradient_ds_tr)" />
    <path
       id="ds-t"
       d="m 16.5,4.5 h 31 v 14 h -31 z"
       fill="url(#gradient_ds_t)"
       style="fill:url(#gradient_ds_t)" />
    <path
       id="ds-tl"
       d="m 16.5,4.5 h -14 v 14 h 14 z"
       fill="url(#gradient_ds_tl)"
       style="fill:url(#gradient_ds_tl)" />
  </g>
  <rect
     x="4.5"
     y="4.5"
     width="55"
     height="55"
     rx="10"
     fill="#f5aa1e"
     id="bg" />
  <g
     id="art">
    <g
       id="paper">
      <rect
         style="opacity:0.3;fill:#000000;fill-opacity:1;stroke-width:0.606291;-inkscape-stroke:none;paint-order:stroke fill markers;filter:url(#filter2)"
         id="paper-shadow"
         width="42"
         height="42"
         x="11"
         y="12"
         rx="7.6363635" />
      <rect
         style="fill:#ffffff;fill-opacity:1;stroke-width:0.606291;-inkscape-stroke:none;paint-order:stroke fill markers"
         id="paper-1"
         width="42"
         height="42"
         x="11"
         y="11"
         rx="7.5" />
    </g>
    <path
       id="group"
       style="display:inline;fill:#ffc841;fill-opacity:1"
       d="m 6.6210938,13.568359 c -1.1247962,0 -2.0398972,0.863488 -2.1210938,1.966797 v 7.167969 c 0.00543,0.05067 0.013545,0.09981 0.019531,0.150391 -0.017424,1.712437 -0.019361,3.626095 -0.019531,6 -3.29e-5,0.458234 0,0.933311 0,1.427734 V 31.128906 49.5 c 0,5.54 4.46,10 10,10 h 35 c 5.54,0 10,-4.46 10,-10 V 43.082031 30.835938 c 1.5e-5,-0.0017 -1.86e-4,-0.0042 0,-0.0059 V 23.816406 C 59.451933,22.681063 58.522574,21.78125 57.375,21.78125 H 34.671875 c -1.026238,0 -1.829675,-0.06928 -2.496094,-0.246094 -0.66642,-0.17681 -1.194623,-0.462132 -1.666015,-0.890625 -0.471468,-0.428494 -0.886895,-1.000846 -1.328125,-1.755859 -0.441231,-0.755051 -0.908477,-1.691211 -1.484375,-2.847656 -0.277763,-0.68339 -0.665659,-1.180265 -1.089844,-1.539063 -0.424184,-0.358805 -0.883868,-0.580089 -1.310547,-0.716797 -0.853358,-0.273413 -1.568359,-0.205078 -1.568359,-0.205078 h -9.650391 c -0.03961,-0.0022 -0.07693,-0.01172 -0.117187,-0.01172 h -3.458985 z" />
    <g
       id="g6">
      <path
         d="m41.111 29.744-9.7185 1.5527v7.7814h9.7185zm-10.936 1.7464-7.2916 1.0856 0.0066 6.5024 7.2852-0.0016zm-7.2852 8.9176v6.5723l7.2886 1.097-0.0032-0.0032v-7.6662zm8.5026 0.0032v7.8336l9.7185 1.499 0.0031-9.3326z"
         fill="#fafafa"
         stroke-linecap="round"
         stroke-width="1.6217"
         id="path6"
         style="fill:#000000;fill-opacity:0.19840272" />
      <path
         id="path6-7"
         style="display:inline;fill:#000000;fill-opacity:0.05"
         d="m 41.111328,29.744141 -9.71875,1.552734 v 1 l 9.71875,-1.552734 z m -10.935547,1.746093 -7.292969,1.085938 0.002,1 7.291015,-1.085938 z m -7.285156,8.917969 v 1 h 7.285156 v -1 z m 8.501953,0.0039 v 1 h 9.720703 v -1 z m -1.216797,7.66211 v 0.0039 h 0.002 z" />
    </g>
  </g>
</svg>
