<?xml version="1.0" encoding="UTF-8" standalone="no"?>
<svg xmlns:inkscape="http://www.inkscape.org/namespaces/inkscape" xmlns:sodipodi="http://sodipodi.sourceforge.net/DTD/sodipodi-0.dtd" xmlns="http://www.w3.org/2000/svg" xmlns:svg="http://www.w3.org/2000/svg" xmlns:rdf="http://www.w3.org/1999/02/22-rdf-syntax-ns#" xmlns:cc="http://creativecommons.org/ns#" xmlns:dc="http://purl.org/dc/elements/1.1/" width="64" height="64" version="1.1" viewBox="0 0 64 64" id="svg3" sodipodi:docname="x-plane.svg" inkscape:version="1.4.2 (ebf0e940d0, 2025-05-08)">
  <metadata id="metadata1">
    <rdf:RDF>
      <cc:Work rdf:about="">
        <dc:format>image/svg+xml</dc:format>
        <dc:type rdf:resource="http://purl.org/dc/dcmitype/StillImage"/>
      </cc:Work>
    </rdf:RDF>
  </metadata>
  <defs id="defs2">
    <filter id="filter1057" x="-0.026999999" y="-0.026999999" width="1.054" height="1.054" color-interpolation-filters="sRGB">
      <feGaussianBlur stdDeviation="0.61875" id="feGaussianBlur1"/>
    </filter>
    <linearGradient id="linearGradient1053" x1="-127" x2="-72" y1="60" y2="5" gradientTransform="matrix(1.0000071,0,0,1.0000071,131.49991,-0.50999681)" gradientUnits="userSpaceOnUse">
      <stop stop-color="#32d7ff" offset="0" id="stop1"/>
      <stop stop-color="#329bff" offset="1" id="stop2"/>
    </linearGradient>
    <filter id="filter1057-3" x="-0.026999999" y="-0.026999999" width="1.054" height="1.054" color-interpolation-filters="sRGB">
      <feGaussianBlur stdDeviation="0.61875" id="feGaussianBlur1-6"/>
    </filter>
  <radialGradient id="gradient_ds_br" cx="0" cy="0" r="1" gradientUnits="userSpaceOnUse" gradientTransform="matrix(13.998399,0.00477622,-0.00477841,14.004799,47.5016,48.4952)">
      <stop offset="0.65" id="stop1"/>
      <stop offset="1" stop-opacity="0" id="stop2"/>
    </radialGradient><linearGradient id="gradient_ds_b" x1="30.448999" y1="48.5" x2="30.492201" y2="62.500301" gradientUnits="userSpaceOnUse">
      <stop offset="0.653846" id="stop3"/>
      <stop offset="1" stop-opacity="0" id="stop4"/>
    </linearGradient><radialGradient id="gradient_ds_bl" cx="0" cy="0" r="1" gradientUnits="userSpaceOnUse" gradientTransform="matrix(0,14,-14,0,16.5,48.5)">
      <stop offset="0.65" id="stop5"/>
      <stop offset="1" stop-opacity="0" id="stop6"/>
    </radialGradient><linearGradient id="gradient_ds_r" x1="47.5" y1="33.5" x2="61.5" y2="33.5009" gradientUnits="userSpaceOnUse">
      <stop offset="0.649038" id="stop7"/>
      <stop offset="1" stop-opacity="0" id="stop8"/>
    </linearGradient><linearGradient id="gradient_ds_l" x1="16.5" y1="33.894699" x2="2.5" y2="33.894699" gradientUnits="userSpaceOnUse">
      <stop offset="0.649038" id="stop9"/>
      <stop offset="1" stop-opacity="0" id="stop10"/>
    </linearGradient><radialGradient id="gradient_ds_tr" cx="0" cy="0" r="1" gradientTransform="matrix(0.00843236,-14,14.0084,0.0189842,47.4916,18.5)" gradientUnits="userSpaceOnUse">
      <stop offset="0.65" id="stop11"/>
      <stop offset="1" stop-opacity="0" id="stop12"/>
    </radialGradient><linearGradient id="gradient_ds_t" x1="29.98" y1="18.5" x2="29.9158" y2="4.4998598" gradientUnits="userSpaceOnUse">
      <stop offset="0.649038" id="stop13"/>
      <stop offset="1" stop-opacity="0" id="stop14"/>
    </linearGradient><radialGradient id="gradient_ds_tl" cx="0" cy="0" r="1" gradientTransform="matrix(-0.00843236,-14,-14.0084,0.0189842,16.5084,18.5)" gradientUnits="userSpaceOnUse">
      <stop offset="0.65" id="stop15"/>
      <stop offset="1" stop-opacity="0" id="stop16"/>
    </radialGradient></defs>
  
  <g id="ds" opacity="0.25">
    <path id="ds-br" d="m 47.5,48.5 h 14 v 14 h -14 z" fill="url(#gradient_ds_br)" style="fill:url(#gradient_ds_br)"/>
    <path id="ds-b" d="m 16.5,48.5 h 31 v 14 h -31 z" fill="url(#gradient_ds_b)" style="fill:url(#gradient_ds_b)"/>
    <path id="ds-bl" d="m 2.5,48.5 h 14 v 14 h -14 z" fill="url(#gradient_ds_bl)" style="fill:url(#gradient_ds_bl)"/>
    <path id="ds-r" d="m 47.5,18.5 h 14 v 30 h -14 z" fill="url(#gradient_ds_r)" style="fill:url(#gradient_ds_r)"/>
    <path id="ds-l" d="m 2.5,18.5 h 14 v 30 h -14 z" fill="url(#gradient_ds_l)" style="fill:url(#gradient_ds_l)"/>
    <path id="ds-tr" d="m 47.5,4.5 h 14 v 14 h -14 z" fill="url(#gradient_ds_tr)" style="fill:url(#gradient_ds_tr)"/>
    <path id="ds-t" d="m 16.5,4.5 h 31 v 14 h -31 z" fill="url(#gradient_ds_t)" style="fill:url(#gradient_ds_t)"/>
    <path id="ds-tl" d="m 16.5,4.5 h -14 v 14 h 14 z" fill="url(#gradient_ds_tl)" style="fill:url(#gradient_ds_tl)"/>
  </g><rect x="4.5" y="4.5" width="55" height="55" fill="url(#linearGradient1053)" stroke-width="2.74441" id="bg" style="fill:url(#linearGradient1053);stroke-linecap:round" rx="10"/>
  <g id="art"><path d="m 46.016654,22.678746 c 1.324789,-1.773314 2.117749,-3.614471 2.121604,-4.929735 -0.0021,-0.425961 -0.08704,-0.758831 -0.249605,-1.00681 -0.01701,-0.03035 -0.06395,-0.1097 -0.146573,-0.187903 -0.08221,-0.08149 -0.155984,-0.125086 -0.171971,-0.1339 -0.260113,-0.173609 -0.59457,-0.25735 -1.020606,-0.25735 -1.312089,0.002 -3.153738,0.794624 -4.927467,2.121604 -1.433793,1.072916 -2.867698,2.583925 -4.852631,4.676502 -0.336725,0.354863 -0.691063,0.727951 -1.06581,1.119216 l -3.844612,-1.152288 0.01134,-0.01092 c 0.159802,-0.161487 0.250777,-0.383554 0.248585,-0.601788 0.0023,-0.230351 -0.09094,-0.452418 -0.251306,-0.61222 l -0.694163,-0.69545 C 31.013071,20.846221 30.79151,20.75367 30.562315,20.75367 c -0.231463,0 -0.447467,0.08926 -0.608969,0.252398 l -1.038748,1.039315 -0.550008,-0.164216 c 0.118491,-0.150459 0.184067,-0.338362 0.181837,-0.523513 0.0023,-0.233678 -0.08818,-0.451322 -0.250701,-0.612787 L 27.598049,20.04719 C 27.438792,19.887404 27.21835,19.7959 26.986925,19.7959 c -0.230367,0 -0.445842,0.08986 -0.605643,0.252402 l -0.953329,0.9528 -3.909243,-1.170997 c -0.08761,-0.02593 -0.180211,-0.03964 -0.279388,-0.03964 -0.277725,0.003 -0.535078,0.106366 -0.722962,0.292632 l -1.374377,1.374906 c -0.155984,0.155942 -0.243595,0.366995 -0.241894,0.567016 -0.0049,0.294801 0.158176,0.567015 0.419347,0.706974 l 8.220634,4.592595 c 0.04021,0.0226 0.156513,0.108572 0.199487,0.15155 l 2.343656,2.343127 c -2.192169,2.309488 -4.14509,4.546483 -5.667135,6.492222 -0.142189,0.180778 -0.276667,0.357082 -0.408915,0.53179 l -6.359937,-0.577561 c -0.03099,-0.004 -0.06561,-0.007 -0.109684,-0.007 -0.29152,0.006 -0.576427,0.121291 -0.787971,0.325703 l -0.640907,0.640302 c -0.158177,0.15487 -0.247451,0.364229 -0.245221,0.566487 -0.0049,0.308608 0.181837,0.594002 0.462359,0.719107 l 4.473915,2.12493 c 0.03855,0.01928 0.138862,0.09037 0.171405,0.122875 l 0.371421,0.3687 c -0.11626,0.327314 -0.175222,0.611086 -0.178586,0.860238 -0.0011,0.333361 0.106358,0.618796 0.311931,0.824369 l 0.01587,0.01361 0.0045,0.003 c 0.211053,0.204477 0.484394,0.308605 0.822744,0.308605 0.243596,-0.0038 0.524609,-0.06172 0.853056,-0.177415 L 23.54896,43.3356 c 0.0291,0.03099 0.09922,0.128922 0.117395,0.168079 l 2.120508,4.464088 c 0.129527,0.284869 0.408877,0.469464 0.713059,0.469464 h 0.0042 c 0.210524,0 0.411674,-0.08432 0.565391,-0.238568 l 0.65629,-0.65852 c 0.194498,-0.205006 0.309133,-0.487644 0.313518,-0.785779 0,-0.03628 -0.0016,-0.06444 -0.0028,-0.07998 l -0.579224,-6.382992 c 0.174165,-0.131152 0.350483,-0.266159 0.531753,-0.407252 1.948573,-1.524238 4.185909,-3.478934 6.491088,-5.667891 l 2.345357,2.347586 c 0.03802,0.03632 0.12673,0.152662 0.152695,0.201136 l 4.583902,8.205894 c 0.139958,0.265025 0.409444,0.428758 0.708146,0.428758 0.213283,0 0.416059,-0.08432 0.571476,-0.240799 l 1.384241,-1.383221 c 0.179683,-0.187846 0.280522,-0.443045 0.283244,-0.721866 0,-0.0937 -0.01323,-0.184596 -0.03742,-0.270015 l -1.171034,-3.910376 0.952762,-0.954425 c 0.160368,-0.159314 0.251343,-0.380795 0.251343,-0.608365 0,-0.228715 -0.08875,-0.443612 -0.250172,-0.607306 l -0.698773,-0.698168 c -0.159801,-0.160369 -0.380832,-0.251812 -0.608364,-0.251812 -0.192873,0 -0.381287,0.06444 -0.528464,0.180778 l -0.163695,-0.547778 1.039844,-1.039882 c 0.159802,-0.160368 0.250777,-0.381928 0.250777,-0.610065 0,-0.229774 -0.08875,-0.4452 -0.250777,-0.606702 l -0.695144,-0.695485 c -0.160331,-0.162594 -0.382949,-0.25462 -0.611653,-0.25462 -0.229762,0 -0.452418,0.09308 -0.609461,0.253509 l -0.0072,0.007 L 40.22,28.595804 c 0.397916,-0.379132 0.775347,-0.740122 1.136299,-1.080097 2.084942,-1.978433 3.590433,-3.406782 4.660627,-4.837135 z" fill="#fcfcfc" stroke-width="1.15267" id="path3"/></g>
</svg>
