<?xml version="1.0" encoding="UTF-8" standalone="no"?>
<svg xmlns:inkscape="http://www.inkscape.org/namespaces/inkscape" xmlns:sodipodi="http://sodipodi.sourceforge.net/DTD/sodipodi-0.dtd" xmlns="http://www.w3.org/2000/svg" xmlns:svg="http://www.w3.org/2000/svg" xmlns:rdf="http://www.w3.org/1999/02/22-rdf-syntax-ns#" xmlns:cc="http://creativecommons.org/ns#" xmlns:dc="http://purl.org/dc/elements/1.1/" width="64" height="64" version="1.1" viewBox="0 0 64 64" id="svg12" sodipodi:docname="xorg.svg" inkscape:version="1.4.2 (ebf0e940d0, 2025-05-08)">
  <metadata id="metadata1">
    <rdf:RDF>
      <cc:Work rdf:about="">
        <dc:format>image/svg+xml</dc:format>
        <dc:type rdf:resource="http://purl.org/dc/dcmitype/StillImage"/>
      </cc:Work>
    </rdf:RDF>
  </metadata>
  <defs id="defs6">
    <filter id="filter2076" x="-0.048" y="-0.048" width="1.096" height="1.096" color-interpolation-filters="sRGB">
      <feGaussianBlur stdDeviation="1.1" id="feGaussianBlur1"/>
    </filter>
    <linearGradient id="linearGradient2070" x1="145" x2="200" y1="59" y2="4" gradientTransform="matrix(1.0000071,0,0,1.0000071,-140.50066,0.50004125)" gradientUnits="userSpaceOnUse">
      <stop stop-color="#e1e1e1" offset="0" id="stop1"/>
      <stop stop-color="#f5f5f5" offset="1" id="stop2"/>
    </linearGradient>
    <filter id="c-9" x="-0.12254666" y="-0.15173098" width="1.2450933" height="1.303462" color-interpolation-filters="sRGB">
      <feGaussianBlur stdDeviation="1.9913168" id="feGaussianBlur2"/>
    </filter>
    <linearGradient id="b-4" x1="10.973" x2="36.937" y1="24" y2="24" gradientTransform="matrix(1.1971133,0,0,1.1953369,3.3222705,3.0036496)" gradientUnits="userSpaceOnUse">
      <stop stop-color="#2a2c2f" offset="0" id="stop3"/>
      <stop stop-color="#424649" offset="1" id="stop4"/>
    </linearGradient>
    <linearGradient id="a" x1="319.20999" x2="657.65002" y1="235.14999" y2="269.48999" gradientTransform="matrix(0.10548491,0,0,0.10393528,-19.309986,6.5247268)" gradientUnits="userSpaceOnUse">
      <stop stop-color="#e54c18" offset="0" id="stop5"/>
      <stop stop-color="#fec350" offset="1" id="stop6"/>
    </linearGradient>
    <filter id="filter2076-3" x="-0.048000001" y="-0.048000001" width="1.096" height="1.096" color-interpolation-filters="sRGB">
      <feGaussianBlur stdDeviation="1.1" id="feGaussianBlur1-6"/>
    </filter>
    <filter id="c-9-3" x="-0.12254666" y="-0.15173098" width="1.2450933" height="1.303462" color-interpolation-filters="sRGB">
      <feGaussianBlur stdDeviation="1.9913168" id="feGaussianBlur2-5"/>
    </filter>
    <filter id="filter3" x="-0.12254666" y="-0.15173098" width="1.2450933" height="1.303462" color-interpolation-filters="sRGB">
      <feGaussianBlur stdDeviation="1.9913168" id="feGaussianBlur3"/>
    </filter>
  <radialGradient id="gradient_ds_br" cx="0" cy="0" r="1" gradientUnits="userSpaceOnUse" gradientTransform="matrix(13.998399,0.00477622,-0.00477841,14.004799,47.5016,48.4952)">
      <stop offset="0.65" id="stop1"/>
      <stop offset="1" stop-opacity="0" id="stop2"/>
    </radialGradient><linearGradient id="gradient_ds_b" x1="30.448999" y1="48.5" x2="30.492201" y2="62.500301" gradientUnits="userSpaceOnUse">
      <stop offset="0.653846" id="stop3"/>
      <stop offset="1" stop-opacity="0" id="stop4"/>
    </linearGradient><radialGradient id="gradient_ds_bl" cx="0" cy="0" r="1" gradientUnits="userSpaceOnUse" gradientTransform="matrix(0,14,-14,0,16.5,48.5)">
      <stop offset="0.65" id="stop5"/>
      <stop offset="1" stop-opacity="0" id="stop6"/>
    </radialGradient><linearGradient id="gradient_ds_r" x1="47.5" y1="33.5" x2="61.5" y2="33.5009" gradientUnits="userSpaceOnUse">
      <stop offset="0.649038" id="stop7"/>
      <stop offset="1" stop-opacity="0" id="stop8"/>
    </linearGradient><linearGradient id="gradient_ds_l" x1="16.5" y1="33.894699" x2="2.5" y2="33.894699" gradientUnits="userSpaceOnUse">
      <stop offset="0.649038" id="stop9"/>
      <stop offset="1" stop-opacity="0" id="stop10"/>
    </linearGradient><radialGradient id="gradient_ds_tr" cx="0" cy="0" r="1" gradientTransform="matrix(0.00843236,-14,14.0084,0.0189842,47.4916,18.5)" gradientUnits="userSpaceOnUse">
      <stop offset="0.65" id="stop11"/>
      <stop offset="1" stop-opacity="0" id="stop12"/>
    </radialGradient><linearGradient id="gradient_ds_t" x1="29.98" y1="18.5" x2="29.9158" y2="4.4998598" gradientUnits="userSpaceOnUse">
      <stop offset="0.649038" id="stop13"/>
      <stop offset="1" stop-opacity="0" id="stop14"/>
    </linearGradient><radialGradient id="gradient_ds_tl" cx="0" cy="0" r="1" gradientTransform="matrix(-0.00843236,-14,-14.0084,0.0189842,16.5084,18.5)" gradientUnits="userSpaceOnUse">
      <stop offset="0.65" id="stop15"/>
      <stop offset="1" stop-opacity="0" id="stop16"/>
    </radialGradient></defs>
  
  <g id="ds" opacity="0.25">
    <path id="ds-br" d="m 47.5,48.5 h 14 v 14 h -14 z" fill="url(#gradient_ds_br)" style="fill:url(#gradient_ds_br)"/>
    <path id="ds-b" d="m 16.5,48.5 h 31 v 14 h -31 z" fill="url(#gradient_ds_b)" style="fill:url(#gradient_ds_b)"/>
    <path id="ds-bl" d="m 2.5,48.5 h 14 v 14 h -14 z" fill="url(#gradient_ds_bl)" style="fill:url(#gradient_ds_bl)"/>
    <path id="ds-r" d="m 47.5,18.5 h 14 v 30 h -14 z" fill="url(#gradient_ds_r)" style="fill:url(#gradient_ds_r)"/>
    <path id="ds-l" d="m 2.5,18.5 h 14 v 30 h -14 z" fill="url(#gradient_ds_l)" style="fill:url(#gradient_ds_l)"/>
    <path id="ds-tr" d="m 47.5,4.5 h 14 v 14 h -14 z" fill="url(#gradient_ds_tr)" style="fill:url(#gradient_ds_tr)"/>
    <path id="ds-t" d="m 16.5,4.5 h 31 v 14 h -31 z" fill="url(#gradient_ds_t)" style="fill:url(#gradient_ds_t)"/>
    <path id="ds-tl" d="m 16.5,4.5 h -14 v 14 h 14 z" fill="url(#gradient_ds_tl)" style="fill:url(#gradient_ds_tl)"/>
  </g><rect x="4.5" y="4.5" width="55" height="55" rx="10" fill="url(#linearGradient2070)" stroke-width="1.00001" id="bg" style="fill:url(#linearGradient2070)"/>
  <g id="art"><path transform="matrix(0.79700467,0,0,0.79492589,6.499404,6.7669993)" d="M 12.934,52.982 27.658,33.708 12.499,12.516 l 9.7431,0.0081 12.079,16.663 -18.06,23.794 h -3.327 z m 28.819,0.01368 -11.995,-16.692 18.211,-23.805 h 3.2447 l -14.784,19.364 15.068,21.132 z" filter="url(#c-9)" opacity="0.25" stroke-width="1.2563" id="path9" style="filter:url(#c-9-3)"/><path transform="matrix(0.79700467,0,0,0.79492589,6.499404,6.7669993)" d="m 31.996,19.892 c -1.1714,0 -2.4229,0.0896 -3.5496,0.19646 2.0072,2.5862 3.6726,4.7762 5.5894,7.2634 -1.0758,-2.2872 -3.2869,-4.4805 -2.5225,-5.6084 0.75665,-1.1166 2.1508,-0.92862 2.257,-0.92862 2.2351,0 4.3867,0.24939 6.3981,0.71095 l 0.47148,-0.64149 c -2.6828,-0.68228 -5.5967,-0.99221 -8.6439,-0.99221 z m 12.106,2.0872 -0.43426,0.61289 c 6.1972,2.3975 10.389,6.9768 10.389,12.225 0,7.7281 -9.0876,13.998 -20.286,13.998 -11.199,0 -20.29,-6.2703 -20.29,-13.998 10e-7,-4.2085 2.6961,-7.9862 6.9606,-10.554 l -1.3111,-1.9735 c -6.6896,2.8022 -11.13,7.7207 -11.13,13.32 0,8.7123 10.75,15.78 23.996,15.78 13.247,0 24,-7.0675 24,-15.78 0,-5.8096 -4.7807,-10.89 -11.895,-13.631 z" filter="url(#c-9)" opacity="0.25" stroke-width="1.2563" id="path10" style="filter:url(#c-9-3)"/><path d="M 16.806379,47.778327 28.541665,32.456954 16.459789,15.61089 l 7.76557,0.0064 9.627025,13.245616 -14.394237,18.914262 H 16.806454 Z M 39.775776,47.789287 30.215651,34.520616 44.730078,15.59766 h 2.586079 L 35.53287,30.990469 47.542178,47.788532 Z" fill="url(#b-4)" stroke-width="0.999969" id="path11" style="fill:url(#b-4)"/><path d="m 31.996599,21.472297 c -0.933637,0 -1.931112,0.07121 -2.829108,0.156173 1.599793,2.055801 2.927151,3.79661 4.455017,5.77372 -0.85744,-1.81814 -2.619717,-3.561632 -2.010483,-4.458419 0.603073,-0.887601 1.714238,-0.738156 1.798863,-0.738156 1.781402,0 3.496283,0.19824 5.099439,0.565126 l 0.375768,-0.509944 C 36.747861,21.718425 34.425409,21.47207 31.996637,21.47207 Z m 9.648568,1.65917 -0.346098,0.48719 c 4.939184,1.905827 8.280352,5.546188 8.280352,9.717735 0,6.143365 -7.242851,11.127148 -16.168381,11.127148 -8.925909,0 -16.171406,-4.984539 -16.171406,-11.127148 4e-6,-3.345401 2.148855,-6.34822 5.5477,-8.389583 L 21.74235,23.378048 c -5.331885,2.227508 -8.870726,6.137317 -8.870726,10.588177 0,6.925742 8.56798,12.543743 19.125164,12.543743 10.55794,0 19.128566,-5.618001 19.128566,-12.543743 0,-4.618296 -3.810217,-8.656801 -9.480376,-10.835363 z" fill="url(#a)" stroke-width="0.999969" id="path12" style="fill:url(#a)"/></g>
  
  
  
</svg>
