<?xml version="1.0" encoding="UTF-8" standalone="no"?>
<svg xmlns:inkscape="http://www.inkscape.org/namespaces/inkscape" xmlns:sodipodi="http://sodipodi.sourceforge.net/DTD/sodipodi-0.dtd" xmlns:xlink="http://www.w3.org/1999/xlink" xmlns="http://www.w3.org/2000/svg" xmlns:svg="http://www.w3.org/2000/svg" xmlns:rdf="http://www.w3.org/1999/02/22-rdf-syntax-ns#" xmlns:cc="http://creativecommons.org/ns#" xmlns:dc="http://purl.org/dc/elements/1.1/" sodipodi:docname="xournal.svg" inkscape:version="1.4.2 (ebf0e940d0, 2025-05-08)" id="svg6" version="1.1" viewBox="0 0 64 64" height="64" width="64" inkscape:export-filename="1.png" inkscape:export-xdpi="96" inkscape:export-ydpi="96" xml:space="preserve">
  <metadata id="metadata43">
    <rdf:RDF>
      <cc:Work rdf:about="">
        <dc:format>image/svg+xml</dc:format>
        <dc:type rdf:resource="http://purl.org/dc/dcmitype/StillImage"/>
      </cc:Work>
    </rdf:RDF>
  </metadata>
  <defs id="defs2">
    <linearGradient id="lgrad" x1="32" y1="32" x2="32" y2="992" gradientUnits="userSpaceOnUse" gradientTransform="translate(0,-896)">
      <stop offset="0%" stop-color="#f8f8f8" id="stop2"/>
      <stop offset="100%" stop-color="#ccc" id="stop4"/>
    </linearGradient>
    <radialGradient id="rgrad" x1="0%" y1="0%" x2="0%" y2="100%" fx="512" fy="494.39999" cx="512" cy="512" r="440" gradientUnits="userSpaceOnUse" gradientTransform="translate(0,-896)">
      <stop offset="0%" stop-color="#00f0ff" id="stop7"/>
      <stop offset="100%" stop-color="#0070e0" id="stop9"/>
    </radialGradient>
    <radialGradient gradientTransform="matrix(0.03024122,0,0,0.02958968,1.132043,2.8247994)" gradientUnits="userSpaceOnUse" r="440" cy="306.1813" cx="523.57568" fy="306.1813" fx="523.57568" y2="100%" x2="0%" y1="0%" x1="0%" id="rgrad-3">
      <stop style="stop-color:#03d7e4;stop-opacity:1" id="stop7-6" stop-color="#00f0ff" offset="0%"/>
      <stop id="stop9-7" stop-color="#0070e0" offset="100%"/>
    </radialGradient>
    <clipPath clipPathUnits="userSpaceOnUse" id="clipPath971">
      <path style="opacity:1;fill:#917c6f;fill-opacity:1;stroke:none;stroke-width:0.3;stroke-linecap:round;stroke-linejoin:round;stroke-miterlimit:4;stroke-dasharray:none;stroke-opacity:1" d="m -0.55397135,-0.27595216 c -0.027071,2e-8 -0.0485759,0.0220216 -0.0485759,0.0490926 V 33.951415 c 2e-8,0.02707 0.0215048,0.04909 0.0485759,0.04909 H 33.76073 c 0.02707,0 0.04909,-0.02201 0.04909,-0.04909 V -0.22685954 c 0,-0.027071 -0.02201,-0.0490926 -0.04909,-0.0490926 z M 8.8459717,2.5187093 H 25.034131 c 3.572997,0 6.449735,2.8762216 6.449735,6.4492187 v 16.188676 c 0,3.572997 -2.876738,6.449219 -6.449735,6.449219 H 8.8459717 c -3.5729971,0 -6.4497356,-2.876222 -6.4497356,-6.449219 V 8.967928 c 0,-3.5729971 2.8767385,-6.4492187 6.4497356,-6.4492187 z" id="path973" inkscape:connector-curvature="0"/>
    </clipPath>
    <linearGradient id="linearGradient862-3" x1="7.9373002" x2="7.9373002" y1="15.081" y2="1.852" gradientTransform="matrix(0.9999927,0,0,0.9999927,0.33326443,-12.969709)" gradientUnits="userSpaceOnUse">
      <stop stop-color="#f1efeb" offset="0" id="stop9640"/>
      <stop stop-color="#fdfcfc" offset="1" id="stop9642"/>
    </linearGradient>
    <linearGradient id="b" x1="10.973" x2="36.937" y1="24" y2="24" gradientTransform="matrix(1.502,0,0,1.5037,-3.9827,-3.342)" gradientUnits="userSpaceOnUse">
      <stop stop-color="#2a2c2f" offset="0" id="stop9627"/>
      <stop stop-color="#424649" offset="1" id="stop9629"/>
    </linearGradient>
    <linearGradient id="a" x1="319.20999" x2="657.65002" y1="235.14999" y2="269.48999" gradientTransform="matrix(0.13235,0,0,0.13075,-32.379,1.0873)" gradientUnits="userSpaceOnUse">
      <stop stop-color="#e54c18" offset="0" id="stop9632"/>
      <stop stop-color="#fec350" offset="1" id="stop9634"/>
    </linearGradient>
    <filter id="c" x="-0.099574141" y="-0.1180127" width="1.1991483" height="1.2360255" color-interpolation-filters="sRGB">
      <feGaussianBlur stdDeviation="1.9913168" id="feGaussianBlur9637"/>
    </filter>
    <linearGradient id="linearGradient862-610" x1="7.9373002" x2="7.9373002" y1="15.081" y2="1.852" gradientTransform="matrix(1.0000192,0,0,1.0000192,-21.483487,2.3244216)" gradientUnits="userSpaceOnUse">
      <stop stop-color="#cdcdcd" offset="0" id="stop1543"/>
      <stop stop-color="#fefefe" offset="1" id="stop1545"/>
    </linearGradient>
    <linearGradient inkscape:collect="always" xlink:href="#linearGradient1051" id="linearGradient1053" x1="-127" y1="60" x2="-72" y2="5" gradientUnits="userSpaceOnUse" gradientTransform="translate(131.5,-0.5099988)"/>
    <linearGradient inkscape:collect="always" id="linearGradient1051">
      <stop style="stop-color:#dee0e2;stop-opacity:1" offset="0" id="stop1047"/>
      <stop style="stop-color:#f1f3f5;stop-opacity:0.99607843" offset="1" id="stop1049"/>
    </linearGradient>
    <filter inkscape:collect="always" style="color-interpolation-filters:sRGB" id="filter1057" x="-0.026999999" width="1.054" y="-0.026999999" height="1.054">
      <feGaussianBlur inkscape:collect="always" stdDeviation="0.61875" id="feGaussianBlur1059"/>
    </filter>
  <radialGradient id="gradient_ds_br" cx="0" cy="0" r="1" gradientUnits="userSpaceOnUse" gradientTransform="matrix(13.998399,0.00477622,-0.00477841,14.004799,47.5016,48.4952)">
      <stop offset="0.65" id="stop1"/>
      <stop offset="1" stop-opacity="0" id="stop2"/>
    </radialGradient><linearGradient id="gradient_ds_b" x1="30.448999" y1="48.5" x2="30.492201" y2="62.500301" gradientUnits="userSpaceOnUse">
      <stop offset="0.653846" id="stop3"/>
      <stop offset="1" stop-opacity="0" id="stop4"/>
    </linearGradient><radialGradient id="gradient_ds_bl" cx="0" cy="0" r="1" gradientUnits="userSpaceOnUse" gradientTransform="matrix(0,14,-14,0,16.5,48.5)">
      <stop offset="0.65" id="stop5"/>
      <stop offset="1" stop-opacity="0" id="stop6"/>
    </radialGradient><linearGradient id="gradient_ds_r" x1="47.5" y1="33.5" x2="61.5" y2="33.5009" gradientUnits="userSpaceOnUse">
      <stop offset="0.649038" id="stop7"/>
      <stop offset="1" stop-opacity="0" id="stop8"/>
    </linearGradient><linearGradient id="gradient_ds_l" x1="16.5" y1="33.894699" x2="2.5" y2="33.894699" gradientUnits="userSpaceOnUse">
      <stop offset="0.649038" id="stop9"/>
      <stop offset="1" stop-opacity="0" id="stop10"/>
    </linearGradient><radialGradient id="gradient_ds_tr" cx="0" cy="0" r="1" gradientTransform="matrix(0.00843236,-14,14.0084,0.0189842,47.4916,18.5)" gradientUnits="userSpaceOnUse">
      <stop offset="0.65" id="stop11"/>
      <stop offset="1" stop-opacity="0" id="stop12"/>
    </radialGradient><linearGradient id="gradient_ds_t" x1="29.98" y1="18.5" x2="29.9158" y2="4.4998598" gradientUnits="userSpaceOnUse">
      <stop offset="0.649038" id="stop13"/>
      <stop offset="1" stop-opacity="0" id="stop14"/>
    </linearGradient><radialGradient id="gradient_ds_tl" cx="0" cy="0" r="1" gradientTransform="matrix(-0.00843236,-14,-14.0084,0.0189842,16.5084,18.5)" gradientUnits="userSpaceOnUse">
      <stop offset="0.65" id="stop15"/>
      <stop offset="1" stop-opacity="0" id="stop16"/>
    </radialGradient></defs>
  
  
  <g id="ds" opacity="0.25">
    <path id="ds-br" d="m 47.5,48.5 h 14 v 14 h -14 z" fill="url(#gradient_ds_br)" style="fill:url(#gradient_ds_br)"/>
    <path id="ds-b" d="m 16.5,48.5 h 31 v 14 h -31 z" fill="url(#gradient_ds_b)" style="fill:url(#gradient_ds_b)"/>
    <path id="ds-bl" d="m 2.5,48.5 h 14 v 14 h -14 z" fill="url(#gradient_ds_bl)" style="fill:url(#gradient_ds_bl)"/>
    <path id="ds-r" d="m 47.5,18.5 h 14 v 30 h -14 z" fill="url(#gradient_ds_r)" style="fill:url(#gradient_ds_r)"/>
    <path id="ds-l" d="m 2.5,18.5 h 14 v 30 h -14 z" fill="url(#gradient_ds_l)" style="fill:url(#gradient_ds_l)"/>
    <path id="ds-tr" d="m 47.5,4.5 h 14 v 14 h -14 z" fill="url(#gradient_ds_tr)" style="fill:url(#gradient_ds_tr)"/>
    <path id="ds-t" d="m 16.5,4.5 h 31 v 14 h -31 z" fill="url(#gradient_ds_t)" style="fill:url(#gradient_ds_t)"/>
    <path id="ds-tl" d="m 16.5,4.5 h -14 v 14 h 14 z" fill="url(#gradient_ds_tl)" style="fill:url(#gradient_ds_tl)"/>
  </g><rect style="fill:url(#linearGradient1053);fill-opacity:1;stroke-width:2.74436;stroke-linecap:round" id="bg" width="55" height="55" x="4.5" y="4.5" rx="10"/>
  <g id="art" transform="matrix(5.0393398,0,0,5.0393398,265.68055,-95.951888)">
    <path d="m -47.535322,22.41218 3.65469,4.167187 c 0.538427,0.647965 -0.469107,0.741098 -0.68924,0.685271 l -3.811587,-4.364567 c -0.501386,-0.549804 0.510645,-0.754591 0.846402,-0.487891" style="fill:#3d3d3d;stroke-width:0.264583" id="path10001"/>
    <path d="m -45.25673,22.908274 -1.501775,1.707356 -2.053696,2.966243 c -0.677069,1.551253 0.512498,0.914665 0.735806,0.460905 l 1.758156,-2.886604 2.12725,-2.205567 c 0.412486,-0.647965 -0.267758,-1.245394 -1.068916,-0.04233" style="fill:#3d3d3d;stroke-width:0.264583" id="path10003"/>
    <path d="m -48.340449,28.016055 c 0.309033,0.059 0.418571,0.08281 0.609865,-0.03519 -0.01958,0.113771 -0.03916,0.226219 -0.059,0.33999 -0.187061,0.059 -0.37518,0.129116 -0.56224,-0.03519" style="fill:#3d3d3d;stroke-width:0.264583" id="path10005"/>
    <path d="m -44.447105,24.335171 -3.094831,2.840038 -0.415396,1.126596 1.155435,-0.341048 0.0032,0.0032 0.0061,-0.0061 h 0.0011 l 3.063346,-2.84427 c 0,0 0.0508,-0.16854 -0.259027,-0.498211 -0.224896,-0.23786 -0.391055,-0.27596 -0.459846,-0.280194 z" style="fill:#3686dd;stroke-width:0.264583" id="path10007"/>
  </g>
</svg>
