<?xml version="1.0" encoding="UTF-8" standalone="no"?>
<svg
   sodipodi:docname="yubioath.svg"
   inkscape:version="1.4.2 (ebf0e940d0, 2025-05-08)"
   id="svg6"
   version="1.1"
   viewBox="0 0 64 64"
   height="64"
   width="64"
   inkscape:export-filename="/home/eleme/.icons/Mkos-Big-Sur/128x128/apps/sombra.png"
   inkscape:export-xdpi="96"
   inkscape:export-ydpi="96"
   xmlns:inkscape="http://www.inkscape.org/namespaces/inkscape"
   xmlns:sodipodi="http://sodipodi.sourceforge.net/DTD/sodipodi-0.dtd"
   xmlns:xlink="http://www.w3.org/1999/xlink"
   xmlns="http://www.w3.org/2000/svg"
   xmlns:svg="http://www.w3.org/2000/svg"
   xmlns:rdf="http://www.w3.org/1999/02/22-rdf-syntax-ns#"
   xmlns:cc="http://creativecommons.org/ns#"
   xmlns:dc="http://purl.org/dc/elements/1.1/">
  <sodipodi:namedview
     id="namedview1"
     pagecolor="#ffffff"
     bordercolor="#000000"
     borderopacity="0.25"
     inkscape:showpageshadow="2"
     inkscape:pageopacity="0.0"
     inkscape:pagecheckerboard="0"
     inkscape:deskcolor="#d1d1d1"
     inkscape:current-layer="svg6" />
  <metadata
     id="metadata43">
    <rdf:RDF>
      <cc:Work
         rdf:about="">
        <dc:format>image/svg+xml</dc:format>
        <dc:type
           rdf:resource="http://purl.org/dc/dcmitype/StillImage" />
      </cc:Work>
    </rdf:RDF>
  </metadata>
  <defs
     id="defs2">
    <linearGradient
       id="lgrad"
       x1="32"
       y1="32"
       x2="32"
       y2="992"
       gradientUnits="userSpaceOnUse"
       gradientTransform="translate(0,-896)">
      <stop
         offset="0%"
         stop-color="#f8f8f8"
         id="stop2" />
      <stop
         offset="100%"
         stop-color="#ccc"
         id="stop4" />
    </linearGradient>
    <radialGradient
       id="rgrad"
       x1="0%"
       y1="0%"
       x2="0%"
       y2="100%"
       fx="512"
       fy="494.39999"
       cx="512"
       cy="512"
       r="440"
       gradientUnits="userSpaceOnUse"
       gradientTransform="translate(0,-896)">
      <stop
         offset="0%"
         stop-color="#00f0ff"
         id="stop7" />
      <stop
         offset="100%"
         stop-color="#0070e0"
         id="stop9" />
    </radialGradient>
    <radialGradient
       gradientTransform="matrix(0.03024122,0,0,0.02958968,1.132043,2.8247994)"
       gradientUnits="userSpaceOnUse"
       r="440"
       cy="306.1813"
       cx="523.57568"
       fy="306.1813"
       fx="523.57568"
       y2="100%"
       x2="0%"
       y1="0%"
       x1="0%"
       id="rgrad-3">
      <stop
         style="stop-color:#03d7e4;stop-opacity:1"
         id="stop7-6"
         stop-color="#00f0ff"
         offset="0%" />
      <stop
         id="stop9-7"
         stop-color="#0070e0"
         offset="100%" />
    </radialGradient>
    <clipPath
       clipPathUnits="userSpaceOnUse"
       id="clipPath971">
      <path
         style="opacity:1;fill:#917c6f;fill-opacity:1;stroke:none;stroke-width:0.3;stroke-linecap:round;stroke-linejoin:round;stroke-miterlimit:4;stroke-dasharray:none;stroke-opacity:1"
         d="m -0.55397135,-0.27595216 c -0.027071,2e-8 -0.0485759,0.0220216 -0.0485759,0.0490926 V 33.951415 c 2e-8,0.02707 0.0215048,0.04909 0.0485759,0.04909 H 33.76073 c 0.02707,0 0.04909,-0.02201 0.04909,-0.04909 V -0.22685954 c 0,-0.027071 -0.02201,-0.0490926 -0.04909,-0.0490926 z M 8.8459717,2.5187093 H 25.034131 c 3.572997,0 6.449735,2.8762216 6.449735,6.4492187 v 16.188676 c 0,3.572997 -2.876738,6.449219 -6.449735,6.449219 H 8.8459717 c -3.5729971,0 -6.4497356,-2.876222 -6.4497356,-6.449219 V 8.967928 c 0,-3.5729971 2.8767385,-6.4492187 6.4497356,-6.4492187 z"
         id="path973"
         inkscape:connector-curvature="0" />
    </clipPath>
    <linearGradient
       id="linearGradient949"
       x1="7.9373002"
       x2="7.9373002"
       y1="15.081"
       y2="1.852"
       gradientTransform="matrix(1.0000192,0,0,1.0000192,16.933333,-5.286e-4)"
       gradientUnits="userSpaceOnUse">
      <stop
         stop-color="#1fe0aa"
         offset="0"
         id="stop355" />
      <stop
         stop-color="#b2ff85"
         offset="1"
         id="stop357" />
    </linearGradient>
    <filter
       id="filter10677"
       x="-0.1762251"
       y="-0.12609078"
       width="1.3524503"
       height="1.2521816"
       color-interpolation-filters="sRGB">
      <feGaussianBlur
         stdDeviation="1.6811947"
         id="feGaussianBlur393" />
    </filter>
    <radialGradient
       id="radialGradient1042"
       cx="12.171"
       cy="12.171"
       r="4.7624002"
       gradientTransform="matrix(1.0000192,0,0,1.0000192,16.933333,-5.28e-4)"
       gradientUnits="userSpaceOnUse">
      <stop
         offset="0"
         id="stop365" />
      <stop
         stop-opacity="0"
         offset="1"
         id="stop367" />
    </radialGradient>
    <linearGradient
       id="linearGradient1033"
       x1="11.993"
       x2="11.993"
       y1="15.289"
       y2="8.3841"
       gradientTransform="matrix(1.0000192,0,0,1.0000192,16.933333,0.2640177)"
       gradientUnits="userSpaceOnUse">
      <stop
         stop-color="#2e2e2e"
         offset="0"
         id="stop370" />
      <stop
         stop-color="#5c5c5c"
         offset="1"
         id="stop372" />
    </linearGradient>
    <filter
       id="filter1039"
       x="-0.10799968"
       y="-0.10800031"
       width="1.2159994"
       height="1.2160006"
       color-interpolation-filters="sRGB">
      <feGaussianBlur
         stdDeviation="1.0799946"
         id="feGaussianBlur375" />
    </filter>
    <linearGradient
       id="f-9-6"
       x1="2331.3"
       x2="2331.3"
       y1="435.51001"
       y2="45.726002"
       gradientTransform="matrix(0.02057003,0,0,0.02057003,-52.565813,7.2188921)"
       gradientUnits="userSpaceOnUse">
      <stop
         stop-color="#807c76"
         offset=".057692"
         id="stop378" />
      <stop
         stop-color="#d4d7d0"
         offset=".38462"
         id="stop380" />
      <stop
         stop-color="#bdbfba"
         offset=".55769"
         id="stop382" />
      <stop
         stop-color="#acb3ac"
         offset=".63462"
         id="stop384" />
      <stop
         stop-color="#dadfda"
         offset=".75"
         id="stop386" />
      <stop
         stop-color="#c2c7c1"
         offset=".86274"
         id="stop388" />
      <stop
         stop-color="#7f7a75"
         offset=".94118"
         id="stop390" />
    </linearGradient>
    <filter
       id="filter1057"
       x="-0.026999999"
       y="-0.026999999"
       width="1.054"
       height="1.054"
       color-interpolation-filters="sRGB">
      <feGaussianBlur
         stdDeviation="0.61875"
         id="feGaussianBlur284" />
    </filter>
    <linearGradient
       id="linearGradient1053"
       x1="-127"
       x2="-72"
       y1="60"
       y2="5"
       gradientTransform="translate(131.5,-0.5099995)"
       gradientUnits="userSpaceOnUse">
      <stop
         stop-color="#02db96"
         offset="0"
         id="stop287" />
      <stop
         stop-color="#13d39b"
         offset="1"
         id="stop289" />
    </linearGradient>
    <filter
       id="filter10677-3"
       x="-0.1762251"
       y="-0.12609078"
       width="1.3524503"
       height="1.2521816"
       color-interpolation-filters="sRGB">
      <feGaussianBlur
         stdDeviation="1.6811947"
         id="feGaussianBlur281" />
    </filter>
    <filter
       id="filter10677-3-3"
       x="-0.17622509"
       y="-0.12609078"
       width="1.3524502"
       height="1.2521816"
       color-interpolation-filters="sRGB">
      <feGaussianBlur
         stdDeviation="1.6811947"
         id="feGaussianBlur281-6" />
    </filter>
    <filter
       id="filter1057-7"
       x="-0.026999999"
       y="-0.026999999"
       width="1.054"
       height="1.054"
       color-interpolation-filters="sRGB">
      <feGaussianBlur
         stdDeviation="0.61875"
         id="feGaussianBlur284-5" />
    </filter>
    <radialGradient
       id="gradient_ds_br"
       cx="0"
       cy="0"
       r="1"
       gradientUnits="userSpaceOnUse"
       gradientTransform="matrix(13.998399,0.00477622,-0.00477841,14.004799,47.5016,48.4952)">
      <stop
         offset="0.65"
         id="stop1" />
      <stop
         offset="1"
         stop-opacity="0"
         id="stop3" />
    </radialGradient>
    <linearGradient
       id="gradient_ds_b"
       x1="30.448999"
       y1="48.5"
       x2="30.492201"
       y2="62.500301"
       gradientUnits="userSpaceOnUse">
      <stop
         offset="0.653846"
         id="stop5" />
      <stop
         offset="1"
         stop-opacity="0"
         id="stop6" />
    </linearGradient>
    <radialGradient
       id="gradient_ds_bl"
       cx="0"
       cy="0"
       r="1"
       gradientUnits="userSpaceOnUse"
       gradientTransform="matrix(0,14,-14,0,16.5,48.5)">
      <stop
         offset="0.65"
         id="stop8" />
      <stop
         offset="1"
         stop-opacity="0"
         id="stop10" />
    </radialGradient>
    <linearGradient
       id="gradient_ds_r"
       x1="47.5"
       y1="33.5"
       x2="61.5"
       y2="33.5009"
       gradientUnits="userSpaceOnUse">
      <stop
         offset="0.649038"
         id="stop11" />
      <stop
         offset="1"
         stop-opacity="0"
         id="stop12" />
    </linearGradient>
    <linearGradient
       id="gradient_ds_l"
       x1="16.5"
       y1="33.894699"
       x2="2.5"
       y2="33.894699"
       gradientUnits="userSpaceOnUse">
      <stop
         offset="0.649038"
         id="stop13" />
      <stop
         offset="1"
         stop-opacity="0"
         id="stop14" />
    </linearGradient>
    <radialGradient
       id="gradient_ds_tr"
       cx="0"
       cy="0"
       r="1"
       gradientTransform="matrix(0.00843236,-14,14.0084,0.0189842,47.4916,18.5)"
       gradientUnits="userSpaceOnUse">
      <stop
         offset="0.65"
         id="stop15" />
      <stop
         offset="1"
         stop-opacity="0"
         id="stop16" />
    </radialGradient>
    <linearGradient
       id="gradient_ds_t"
       x1="29.98"
       y1="18.5"
       x2="29.9158"
       y2="4.4998598"
       gradientUnits="userSpaceOnUse">
      <stop
         offset="0.649038"
         id="stop17" />
      <stop
         offset="1"
         stop-opacity="0"
         id="stop18" />
    </linearGradient>
    <radialGradient
       id="gradient_ds_tl"
       cx="0"
       cy="0"
       r="1"
       gradientTransform="matrix(-0.00843236,-14,-14.0084,0.0189842,16.5084,18.5)"
       gradientUnits="userSpaceOnUse">
      <stop
         offset="0.65"
         id="stop19" />
      <stop
         offset="1"
         stop-opacity="0"
         id="stop20" />
    </radialGradient>
    <linearGradient
       id="linearGradient7684"
       x1="57.006973"
       x2="57.006973"
       y1="11.148484"
       y2="26.530821"
       gradientTransform="matrix(1.8202691,0,0,1.8202691,-55.768029,13.70676)"
       gradientUnits="userSpaceOnUse">
      <stop
         stop-color="#43cfea"
         offset="0"
         id="stop1-1"
         style="stop-color:#4f4f4f;stop-opacity:1;" />
      <stop
         stop-color="#138aff"
         offset="1"
         id="stop2-8"
         style="stop-color:#323232;stop-opacity:1;" />
    </linearGradient>
    <linearGradient
       inkscape:collect="always"
       xlink:href="#linearGradient30"
       id="linearGradient32"
       x1="22.168245"
       y1="8.3883648"
       x2="22.168245"
       y2="15.796553"
       gradientUnits="userSpaceOnUse"
       gradientTransform="matrix(3.6396159,0,0,3.6396159,-32.683897,3.9880915)" />
    <linearGradient
       id="linearGradient30"
       inkscape:collect="always">
      <stop
         style="stop-color:#ffffff;stop-opacity:0.39772439;"
         offset="0"
         id="stop31" />
      <stop
         style="stop-color:#ffffff;stop-opacity:0.25192538;"
         offset="0.2"
         id="stop33" />
      <stop
         style="stop-color:#ffffff;stop-opacity:0.14896044;"
         offset="0.80000001"
         id="stop34" />
      <stop
         style="stop-color:#ffffff;stop-opacity:0.1960573;"
         offset="1"
         id="stop32" />
    </linearGradient>
  </defs>
  <g
     id="ds"
     opacity="0.25">
    <path
       id="ds-br"
       d="m 47.5,48.5 h 14 v 14 h -14 z"
       fill="url(#gradient_ds_br)"
       style="fill:url(#gradient_ds_br)" />
    <path
       id="ds-b"
       d="m 16.5,48.5 h 31 v 14 h -31 z"
       fill="url(#gradient_ds_b)"
       style="fill:url(#gradient_ds_b)" />
    <path
       id="ds-bl"
       d="m 2.5,48.5 h 14 v 14 h -14 z"
       fill="url(#gradient_ds_bl)"
       style="fill:url(#gradient_ds_bl)" />
    <path
       id="ds-r"
       d="m 47.5,18.5 h 14 v 30 h -14 z"
       fill="url(#gradient_ds_r)"
       style="fill:url(#gradient_ds_r)" />
    <path
       id="ds-l"
       d="m 2.5,18.5 h 14 v 30 h -14 z"
       fill="url(#gradient_ds_l)"
       style="fill:url(#gradient_ds_l)" />
    <path
       id="ds-tr"
       d="m 47.5,4.5 h 14 v 14 h -14 z"
       fill="url(#gradient_ds_tr)"
       style="fill:url(#gradient_ds_tr)" />
    <path
       id="ds-t"
       d="m 16.5,4.5 h 31 v 14 h -31 z"
       fill="url(#gradient_ds_t)"
       style="fill:url(#gradient_ds_t)" />
    <path
       id="ds-tl"
       d="m 16.5,4.5 h -14 v 14 h 14 z"
       fill="url(#gradient_ds_tl)"
       style="fill:url(#gradient_ds_tl)" />
  </g>
  <rect
     x="4.5"
     y="4.5"
     width="55"
     height="55"
     fill="url(#linearGradient1053)"
     id="bg"
     style="fill:url(#linearGradient1053);stroke-width:2.7444;stroke-linecap:round"
     rx="10" />
  <g
     id="art">
    <path
       d="m 25.149,49.722 h 6.2816 l 3.5505,-9.8777 8.4666,-22.122 h -5.7809 l -5.5078,16.751 -5.1892,-16.751 h -6.4182 l 8.6031,22.122 z"
       fill="#000000"
       filter="url(#filter10677)"
       opacity="0.15"
       id="path306"
       style="stroke-width:7.5865;stroke-linecap:square;filter:url(#filter10677-3-3)" />
    <path
       d="m 25.149,48 h 6.2816 l 3.5505,-9.8777 8.4666,-22.122 h -5.7809 l -5.5078,16.751 -5.1892,-16.751 h -6.4182 l 8.6031,22.122 z"
       id="path308"
       style="fill:#ffffff;stroke-width:7.5865;stroke-linecap:square" />
  </g>
  <g
     transform="matrix(1.0357145,0,0,1.0357146,-50.858699,14.786957)"
     id="em"
     style="stroke-width:0.965517">
    <path
       d="M 61.999997,48.000001 A 14,14 0 0 1 48,61.999998 14,14 0 0 1 33.999999,48.000001 14,14 0 0 1 48,34 14,14 0 0 1 61.999997,48.000001 Z"
       fill="url(#linearGradient7684)"
       stroke-width="3.87516"
       id="em-bg"
       style="fill:url(#linearGradient7684)"
       transform="translate(46.967,-16.415)" />
    <path
       d="M 60.999998,48.000001 A 12.999999,12.999999 0 0 1 48.000004,60.999995 12.999999,12.999999 0 0 1 35.000002,48.000001 12.999999,12.999999 0 0 1 48.000004,35.000002 12.999999,12.999999 0 0 1 60.999998,48.000001 Z"
       fill="url(#linearGradient7684)"
       stroke-width="1.0619"
       id="em-light"
       style="display:inline;opacity:0.4;fill:none;stroke:url(#linearGradient32);stroke-width:0.965517;stroke-dasharray:none"
       transform="translate(46.967,-16.415)" />
    <path
       d="M 61.999997,48.000001 A 13.999998,13.999999 0 0 1 48.000004,61.999994 13.999998,13.999999 0 0 1 34.000003,48.000001 13.999998,13.999999 0 0 1 48.000004,34.000002 13.999998,13.999999 0 0 1 61.999997,48.000001 Z"
       fill="url(#linearGradient7684)"
       stroke-width="1.0619"
       id="em-border"
       style="opacity:0.5;fill:none;stroke:#000000;stroke-width:0.965517;stroke-dasharray:none;stroke-opacity:1"
       transform="translate(46.967,-16.415)" />
    <path
       id="em-glyph"
       d="m 91.491133,25.791897 c -1.536262,0 -3.009761,0.610419 -4.096352,1.696757 -1.086321,1.086578 -1.696744,2.560076 -1.696744,4.096355 0,1.536513 0.610423,3.010012 1.696744,4.096349 1.086591,1.08658 2.56009,1.696743 4.096352,1.696743 2.750502,-0.0039 5.119382,-1.939605 5.669429,-4.634481 h 3.213418 v 2.317252 h 2.31724 V 32.74362 h 1.54474 v -2.317246 h -7.069307 c -0.55058,-2.697005 -2.9229,-4.634224 -5.67552,-4.634477 z m 0,2.317248 c 0.921867,0 1.806124,0.366231 2.457865,1.018266 0.652007,0.65174 1.017998,1.535729 1.017998,2.457598 0,0.921869 -0.365991,1.806107 -1.017998,2.457848 -0.651741,0.652017 -1.535998,1.018016 -2.457865,1.018016 -0.92186,0 -1.805855,-0.365994 -2.457595,-1.018016 -0.652008,-0.651741 -1.018262,-1.535979 -1.018262,-2.457847 0,-0.92187 0.366271,-1.805859 1.018262,-2.457599 0.65174,-0.652018 1.535735,-1.018266 2.457595,-1.018266 z"
       inkscape:connector-curvature="0"
       style="isolation:isolate;fill:#ffffff;fill-opacity:1;stroke-width:0.289656" />
  </g>
</svg>
