<?xml version="1.0" encoding="UTF-8" standalone="no"?>
<svg xmlns:inkscape="http://www.inkscape.org/namespaces/inkscape" xmlns:sodipodi="http://sodipodi.sourceforge.net/DTD/sodipodi-0.dtd" xmlns:xlink="http://www.w3.org/1999/xlink" xmlns="http://www.w3.org/2000/svg" xmlns:svg="http://www.w3.org/2000/svg" xmlns:rdf="http://www.w3.org/1999/02/22-rdf-syntax-ns#" xmlns:cc="http://creativecommons.org/ns#" xmlns:dc="http://purl.org/dc/elements/1.1/" width="64" height="64" version="1.1" viewBox="0 0 64 64" id="svg6" sodipodi:docname="zathura.svg" inkscape:version="1.4.2 (ebf0e940d0, 2025-05-08)">
  <sodipodi:namedview id="namedview1" pagecolor="#ffffff" bordercolor="#000000" borderopacity="0.25" inkscape:showpageshadow="2" inkscape:pageopacity="0.0" inkscape:pagecheckerboard="0" inkscape:deskcolor="#d1d1d1" inkscape:current-layer="art"/>
  <metadata id="metadata1">
    <rdf:RDF>
      <cc:Work rdf:about="">
        <dc:format>image/svg+xml</dc:format>
        <dc:type rdf:resource="http://purl.org/dc/dcmitype/StillImage"/>
      </cc:Work>
    </rdf:RDF>
  </metadata>
  <defs id="defs2">
    <filter id="filter1057-4" x="-0.026999999" y="-0.026999999" width="1.054" height="1.054" color-interpolation-filters="sRGB">
      <feGaussianBlur stdDeviation="0.61875" id="feGaussianBlur1"/>
    </filter>
    <linearGradient id="linearGradient1053-74" x1="-127" x2="-72" y1="60" y2="5" gradientTransform="matrix(1.0000071,0,0,1.0000071,131.49991,-0.50986824)" gradientUnits="userSpaceOnUse">
      <stop stop-color="#323741" offset="0" id="stop1"/>
      <stop stop-color="#465064" offset="1" id="stop2"/>
    </linearGradient>
    <filter id="filter1057-4-3" x="-0.026999999" y="-0.026999999" width="1.054" height="1.054" color-interpolation-filters="sRGB">
      <feGaussianBlur stdDeviation="0.61875" id="feGaussianBlur1-6"/>
    </filter>
    <filter inkscape:collect="always" style="color-interpolation-filters:sRGB" id="filter2" x="-0.053156251" y="-0.025014706" width="1.1063125" height="1.0500294">
      <feGaussianBlur inkscape:collect="always" stdDeviation="0.1771875" id="feGaussianBlur2-8"/>
    </filter>
    <linearGradient inkscape:collect="always" xlink:href="#linearGradient2-5" id="linearGradient4-7" x1="15" y1="28" x2="23" y2="5" gradientUnits="userSpaceOnUse"/>
    <linearGradient id="linearGradient2-5" inkscape:collect="always">
      <stop style="stop-color:#0593eb;stop-opacity:1;" offset="0" id="stop3"/>
      <stop style="stop-color:#28aafa;stop-opacity:1;" offset="1" id="stop4"/>
    </linearGradient>
    <linearGradient inkscape:collect="always" xlink:href="#linearGradient2-5" id="linearGradient4-7-6" x1="15" y1="28" x2="23" y2="5" gradientUnits="userSpaceOnUse"/>
  <radialGradient id="gradient_ds_br" cx="0" cy="0" r="1" gradientUnits="userSpaceOnUse" gradientTransform="matrix(13.998399,0.00477622,-0.00477841,14.004799,47.5016,48.4952)">
      <stop offset="0.65" id="stop1"/>
      <stop offset="1" stop-opacity="0" id="stop2"/>
    </radialGradient><linearGradient id="gradient_ds_b" x1="30.448999" y1="48.5" x2="30.492201" y2="62.500301" gradientUnits="userSpaceOnUse">
      <stop offset="0.653846" id="stop3"/>
      <stop offset="1" stop-opacity="0" id="stop4"/>
    </linearGradient><radialGradient id="gradient_ds_bl" cx="0" cy="0" r="1" gradientUnits="userSpaceOnUse" gradientTransform="matrix(0,14,-14,0,16.5,48.5)">
      <stop offset="0.65" id="stop5"/>
      <stop offset="1" stop-opacity="0" id="stop6"/>
    </radialGradient><linearGradient id="gradient_ds_r" x1="47.5" y1="33.5" x2="61.5" y2="33.5009" gradientUnits="userSpaceOnUse">
      <stop offset="0.649038" id="stop7"/>
      <stop offset="1" stop-opacity="0" id="stop8"/>
    </linearGradient><linearGradient id="gradient_ds_l" x1="16.5" y1="33.894699" x2="2.5" y2="33.894699" gradientUnits="userSpaceOnUse">
      <stop offset="0.649038" id="stop9"/>
      <stop offset="1" stop-opacity="0" id="stop10"/>
    </linearGradient><radialGradient id="gradient_ds_tr" cx="0" cy="0" r="1" gradientTransform="matrix(0.00843236,-14,14.0084,0.0189842,47.4916,18.5)" gradientUnits="userSpaceOnUse">
      <stop offset="0.65" id="stop11"/>
      <stop offset="1" stop-opacity="0" id="stop12"/>
    </radialGradient><linearGradient id="gradient_ds_t" x1="29.98" y1="18.5" x2="29.9158" y2="4.4998598" gradientUnits="userSpaceOnUse">
      <stop offset="0.649038" id="stop13"/>
      <stop offset="1" stop-opacity="0" id="stop14"/>
    </linearGradient><radialGradient id="gradient_ds_tl" cx="0" cy="0" r="1" gradientTransform="matrix(-0.00843236,-14,-14.0084,0.0189842,16.5084,18.5)" gradientUnits="userSpaceOnUse">
      <stop offset="0.65" id="stop15"/>
      <stop offset="1" stop-opacity="0" id="stop16"/>
    </radialGradient></defs>
  
  <g id="ds" opacity="0.25">
    <path id="ds-br" d="m 47.5,48.5 h 14 v 14 h -14 z" fill="url(#gradient_ds_br)" style="fill:url(#gradient_ds_br)"/>
    <path id="ds-b" d="m 16.5,48.5 h 31 v 14 h -31 z" fill="url(#gradient_ds_b)" style="fill:url(#gradient_ds_b)"/>
    <path id="ds-bl" d="m 2.5,48.5 h 14 v 14 h -14 z" fill="url(#gradient_ds_bl)" style="fill:url(#gradient_ds_bl)"/>
    <path id="ds-r" d="m 47.5,18.5 h 14 v 30 h -14 z" fill="url(#gradient_ds_r)" style="fill:url(#gradient_ds_r)"/>
    <path id="ds-l" d="m 2.5,18.5 h 14 v 30 h -14 z" fill="url(#gradient_ds_l)" style="fill:url(#gradient_ds_l)"/>
    <path id="ds-tr" d="m 47.5,4.5 h 14 v 14 h -14 z" fill="url(#gradient_ds_tr)" style="fill:url(#gradient_ds_tr)"/>
    <path id="ds-t" d="m 16.5,4.5 h 31 v 14 h -31 z" fill="url(#gradient_ds_t)" style="fill:url(#gradient_ds_t)"/>
    <path id="ds-tl" d="m 16.5,4.5 h -14 v 14 h 14 z" fill="url(#gradient_ds_tl)" style="fill:url(#gradient_ds_tl)"/>
  </g><rect x="4.5" y="4.5" width="55" height="55" fill="url(#linearGradient1053-74)" stroke-linecap="round" stroke-width="2.74437" id="bg" style="fill:url(#linearGradient1053-74)" rx="10"/>
  <g id="art">
    <path d="m 32.001891,21.997662 c -2.907799,0.03024 -5.836462,0.739403 -8.369173,2.270558 -1.009532,0.701418 -2.221537,1.606898 -3.134802,2.519558 -1.437156,1.501145 -2.666056,3.250685 -3.49617,5.210181 2.278042,5.360232 7.283671,9.292908 12.792819,9.873077 3.613942,0.436355 7.399327,-0.231198 10.57646,-2.13865 1.009494,-0.701419 2.221537,-1.606898 3.134802,-2.519559 1.43727,-1.501144 2.666056,-3.255673 3.49617,-5.215094 -2.278155,-5.360232 -7.283671,-9.288372 -12.792819,-9.868163 -0.731051,-0.09101 -1.471134,-0.131833 -2.207023,-0.131833 z m 0.0049,5.000035 c 2.674673,-0.05926 5.045769,2.334396 4.995122,4.995122 0.08568,2.940682 -2.845927,5.480801 -5.742349,4.931625 -2.925299,-0.34349 -4.98076,-3.626301 -4.018473,-6.406426 0.614412,-2.046541 2.622779,-3.545795 4.7657,-3.520548 z m -0.0049,2.500056 a 2.5000555,2.5000555 0 0 0 -2.500056,2.500055 2.5000555,2.5000555 0 0 0 2.500056,2.500056 2.5000555,2.5000555 0 0 0 2.500055,-2.500056 2.5000555,2.5000555 0 0 0 -2.500055,-2.49518 z" fill="#ffffff" fill-rule="evenodd" stroke-width="2.50006" id="path6"/>
    <g id="bookmark" transform="translate(0,-7)">
      <path id="path983-6" style="opacity:0.25;fill:#000000;fill-opacity:1;stroke-width:3.7796;filter:url(#filter2)" d="m 15,11.5 v 17 l 4,-3 4,3 v -17 z"/>
      <path id="path983-61" style="display:inline;fill:url(#linearGradient4-7);fill-opacity:1;stroke-width:3.7796;font-variation-settings:normal;opacity:1;vector-effect:none;stroke-linecap:butt;stroke-linejoin:miter;stroke-miterlimit:4;stroke-dasharray:none;stroke-dashoffset:0;stroke-opacity:1;-inkscape-stroke:none;stop-color:#000000;stop-opacity:1" d="M 15,11.5 V 28 l 4,-3 4,3 V 11.5 Z"/>
    </g>
  </g>
</svg>
