<svg width="64" height="64" viewBox="0 0 64 64" fill="none" xmlns="http://www.w3.org/2000/svg">
<g id="audio-mp3" clip-path="url(#clip0_3126_2715)">
<g id="Blank-File" clip-path="url(#clip1_3126_2715)">
<g id="Shadow 2" opacity="0.1">
<path id="Vector" d="M11.9791 59.0257H51.9786V65.024H11.9791V59.0257Z" fill="url(#paint0_linear_3126_2715)"/>
<path id="Vector_2" d="M34.979 1.024V8.024L41.979 1.024H34.979Z" fill="url(#paint1_radial_3126_2715)"/>
<path id="Vector_3" d="M41.979 1.024L34.979 8.024L48.979 23.024L57.979 14.024V4.569L54.434 1.024H41.979Z" fill="url(#paint2_linear_3126_2715)"/>
<path id="Vector_4" d="M57.979 14.024L48.979 23.024H57.979V14.024Z" fill="url(#paint3_radial_3126_2715)"/>
<path id="Vector_5" d="M11.9791 1.024H34.978V5.02282H11.9791V1.024Z" fill="url(#paint4_linear_3126_2715)"/>
<path id="Vector_6" d="M5.97717 1.024H11.9754V5.02282H5.97717V1.024Z" fill="url(#paint5_radial_3126_2715)"/>
<path id="Vector_7" d="M51.9786 23.0251H57.9769V59.0257H51.9786V23.0251Z" fill="url(#paint6_linear_3126_2715)"/>
<path id="Vector_8" d="M5.97717 5.02282H11.9754V59.022H5.97717V5.02282Z" fill="url(#paint7_linear_3126_2715)"/>
<path id="Vector_9" d="M51.9786 59.0257H57.9769V65.024H51.9786V59.0257Z" fill="url(#paint8_radial_3126_2715)"/>
<path id="Vector_10" d="M5.97717 59.0257H11.9754V65.024H5.97717V59.0257Z" fill="url(#paint9_radial_3126_2715)"/>
</g>
<g id="Shadow 1" opacity="0.2">
<path id="Vector_11" d="M11.9791 59.0257H51.9786V65.024H11.9791V59.0257Z" fill="url(#paint10_linear_3126_2715)"/>
<path id="Vector_12" d="M34.9791 1.024V8.02405L41.9792 1.024H34.9791Z" fill="url(#paint11_radial_3126_2715)"/>
<path id="Vector_13" d="M41.9792 1.024L34.9791 8.02405L48.9792 23.0241L57.9793 14.0241V4.56902L54.4343 1.024H41.9792Z" fill="url(#paint12_linear_3126_2715)"/>
<path id="Vector_14" d="M57.9793 14.0241L48.9792 23.0241H57.9793V14.0241Z" fill="url(#paint13_radial_3126_2715)"/>
<path id="Vector_15" d="M11.9791 1.024H34.978V5.02282H11.9791V1.024Z" fill="url(#paint14_linear_3126_2715)"/>
<path id="Vector_16" d="M11.9754 1.024H5.97717V5.02282H11.9754V1.024Z" fill="url(#paint15_radial_3126_2715)"/>
<path id="Vector_17" d="M51.9786 23.0251H57.9769V59.0257H51.9786V23.0251Z" fill="url(#paint16_linear_3126_2715)"/>
<path id="Vector_18" d="M5.97717 5.02282H11.9754V59.022H5.97717V5.02282Z" fill="url(#paint17_linear_3126_2715)"/>
<path id="Vector_19" d="M51.9786 59.0257H57.9769V65.024H51.9786V59.0257Z" fill="url(#paint18_radial_3126_2715)"/>
<path id="Vector_20" d="M5.97717 59.0257H11.9754V65.024H5.97717V59.0257Z" fill="url(#paint19_radial_3126_2715)"/>
</g>
<path id="Paper" d="M10.9777 2.02557C10.4477 2.02657 9.93973 2.23754 9.56499 2.61229C9.19024 2.98704 8.97927 3.49501 8.97827 4.02498V60.0235C8.97827 61.131 9.87026 62.0229 10.9815 62.0229H52.9766C54.0878 62.0229 54.9798 61.131 54.9798 60.0198V21.0256C54.9798 20.024 54.3675 18.4177 52.9766 17.023L39.9748 4.0212C39.508 3.40374 38.905 2.90239 38.2127 2.55624C37.5204 2.21009 36.7575 2.02848 35.9835 2.02557H10.9777Z" fill="url(#paint20_linear_3126_2715)"/>
</g>
<path id="name" d="M24.06 50.1818H24.9009L26.8782 55.0114H26.9464L28.9237 50.1818H29.7646V56H29.1055V51.5795H29.0487L27.2305 56H26.5941L24.7759 51.5795H24.7191V56H24.06V50.1818ZM31.1772 56V50.1818H33.1431C33.5996 50.1818 33.9727 50.2642 34.2624 50.429C34.5541 50.5919 34.77 50.8125 34.9102 51.0909C35.0503 51.3693 35.1204 51.6799 35.1204 52.0227C35.1204 52.3655 35.0503 52.6771 34.9102 52.9574C34.7719 53.2377 34.5579 53.4612 34.2681 53.6278C33.9783 53.7926 33.6071 53.875 33.1545 53.875H31.7454V53.25H33.1317C33.4442 53.25 33.6952 53.196 33.8846 53.0881C34.074 52.9801 34.2113 52.8343 34.2965 52.6506C34.3836 52.465 34.4272 52.2557 34.4272 52.0227C34.4272 51.7898 34.3836 51.5814 34.2965 51.3977C34.2113 51.214 34.073 51.0701 33.8817 50.9659C33.6905 50.8598 33.4367 50.8068 33.1204 50.8068H31.8817V56H31.1772ZM38.119 56.0795C37.744 56.0795 37.4097 56.0152 37.1161 55.8864C36.8245 55.7576 36.5924 55.5786 36.4201 55.3494C36.2496 55.1184 36.1568 54.8504 36.1417 54.5455H36.8576C36.8728 54.733 36.9371 54.8949 37.0508 55.0312C37.1644 55.1657 37.3131 55.2699 37.4968 55.3438C37.6805 55.4176 37.8841 55.4545 38.1076 55.4545C38.3576 55.4545 38.5792 55.411 38.7724 55.3239C38.9656 55.2367 39.1171 55.1155 39.2269 54.9602C39.3368 54.8049 39.3917 54.625 39.3917 54.4205C39.3917 54.2064 39.3387 54.018 39.2326 53.8551C39.1265 53.6903 38.9712 53.5616 38.7667 53.4688C38.5621 53.3759 38.3121 53.3295 38.0167 53.3295H37.5508V52.7045H38.0167C38.2478 52.7045 38.4504 52.6629 38.6246 52.5795C38.8008 52.4962 38.9381 52.3788 39.0366 52.2273C39.137 52.0758 39.1871 51.8977 39.1871 51.6932C39.1871 51.4962 39.1436 51.3248 39.0565 51.179C38.9693 51.0331 38.8462 50.9195 38.6871 50.8381C38.5299 50.7566 38.3443 50.7159 38.1303 50.7159C37.9296 50.7159 37.7402 50.7528 37.5621 50.8267C37.386 50.8987 37.2421 51.0038 37.1303 51.142C37.0186 51.2784 36.958 51.4432 36.9485 51.6364H36.2667C36.2781 51.3314 36.3699 51.0644 36.5423 50.8352C36.7146 50.6042 36.94 50.4242 37.2184 50.2955C37.4987 50.1667 37.8065 50.1023 38.1417 50.1023C38.5015 50.1023 38.8103 50.1752 39.0678 50.321C39.3254 50.465 39.5233 50.6553 39.6616 50.892C39.7998 51.1288 39.869 51.3845 39.869 51.6591C39.869 51.9867 39.7828 52.2661 39.6104 52.4972C39.44 52.7282 39.208 52.8883 38.9144 52.9773V53.0227C39.2818 53.0833 39.5688 53.2396 39.7752 53.4915C39.9817 53.7415 40.0849 54.0511 40.0849 54.4205C40.0849 54.7367 39.9987 55.0208 39.8263 55.2727C39.6559 55.5227 39.4229 55.7197 39.1275 55.8636C38.832 56.0076 38.4959 56.0795 38.119 56.0795Z" fill="#737373"/>
<g id="logo">
<path id="Vector_21" d="M40.1356 23L29.919 25.8576C29.1515 26.0809 28.5337 26.967 28.5337 27.8261V41.4602C27.6661 40.9763 26.6633 40.8588 25.7201 41.1303C23.85 41.6581 22.678 43.3567 23.0784 44.9264C23.4801 46.4961 25.3225 47.3732 27.1927 46.8469C28.6833 46.4272 29.7112 45.2413 29.876 43.9894L29.9176 31.1049L39.6147 28.2938V38.4617C38.7475 37.9782 37.7453 37.8607 36.8025 38.1319C34.9324 38.6596 33.7604 40.3582 34.1608 41.9279C34.5625 43.4976 36.405 44.3747 38.2737 43.8485C39.7657 43.4287 40.795 42.2428 40.9584 40.9909L41 24.2189C41 23.5742 40.6329 23.0915 40.1342 23H40.1356Z" fill="url(#paint21_linear_3126_2715)"/>
</g>
<g id="Blank-File-Top">
<g id="Curl">
<g id="Shadow">
<path id="Vector_22" opacity="0.05" d="M39.9784 17.0229H23.9794V33.0219H39.9784V17.0229Z" fill="url(#paint22_radial_3126_2715)"/>
<path id="Vector_23" opacity="0.05" d="M23.9791 2.02386V11.0239H39.9792V4.02388C38.6412 2.33087 36.9792 2.02386 35.9792 2.02386H23.9791Z" fill="url(#paint23_radial_3126_2715)"/>
<path id="Vector_24" opacity="0.05" d="M39.9784 11.0247H23.9794V17.0229H39.9784V11.0247Z" fill="url(#paint24_linear_3126_2715)"/>
<path id="Vector_25" opacity="0.2" d="M39.9785 11.0247H28.9799V17.0229H39.9785V11.0247Z" fill="url(#paint25_linear_3126_2715)"/>
<path id="Vector_26" opacity="0.2" d="M39.9785 17.0229H28.9799V28.0215H39.9785V17.0229Z" fill="url(#paint26_radial_3126_2715)"/>
<path id="Vector_27" opacity="0.2" d="M28.9791 2.02386V11.0239H39.9792V4.02388C39.5247 3.43826 38.9523 2.9545 38.2992 2.60387L35.9792 2.02386H28.9791Z" fill="url(#paint27_radial_3126_2715)"/>
<path id="Vector_28" opacity="0.05" d="M39.9785 17.0229V33.0219H45.9767V17.0229H39.9785Z" fill="url(#paint28_linear_3126_2715)"/>
<path id="Vector_29" opacity="0.2" d="M39.9785 17.0267V28.0253H45.9767V17.0267H39.9785Z" fill="url(#paint29_linear_3126_2715)"/>
<path id="Vector_30" opacity="0.2" d="M45.9792 17.024V28.024H54.9793V21.024L54.5393 19.264C54.1607 18.4282 53.6319 17.6689 52.9793 17.024H45.9792Z" fill="url(#paint30_radial_3126_2715)"/>
<path id="Vector_31" opacity="0.05" d="M45.979 17.0239V33.0239H54.979V21.0239C54.979 20.8919 54.953 20.7239 54.939 20.5709C54.791 19.5779 54.176 18.2209 52.979 17.0239H45.979Z" fill="url(#paint31_radial_3126_2715)"/>
</g>
<path id="Paper_2" d="M37.9791 2.44135V17.0193C37.9791 18.1267 38.8711 19.0187 39.9823 19.0187H54.4431C54.0748 18.2763 53.5871 17.5996 52.9993 17.0155L39.9974 4.01366C39.4687 3.33478 38.7824 2.79509 37.998 2.44135H37.9791Z" fill="url(#paint32_linear_3126_2715)"/>
</g>
</g>
</g>
<defs>
<linearGradient id="paint0_linear_3126_2715" x1="29.9776" y1="59.0257" x2="29.9776" y2="65.024" gradientUnits="userSpaceOnUse">
<stop/>
<stop offset="1" stop-opacity="0"/>
</linearGradient>
<radialGradient id="paint1_radial_3126_2715" cx="0" cy="0" r="1" gradientUnits="userSpaceOnUse" gradientTransform="translate(34.978 5.0244) scale(6.32269 4.00052)">
<stop/>
<stop offset="1" stop-opacity="0"/>
</radialGradient>
<linearGradient id="paint2_linear_3126_2715" x1="42.979" y1="13.024" x2="46.727" y2="9.276" gradientUnits="userSpaceOnUse">
<stop/>
<stop offset="1" stop-opacity="0"/>
</linearGradient>
<radialGradient id="paint3_radial_3126_2715" cx="0" cy="0" r="1" gradientUnits="userSpaceOnUse" gradientTransform="translate(51.9788 23.0242) scale(4.99995 6.94012)">
<stop/>
<stop offset="1" stop-opacity="0"/>
</radialGradient>
<linearGradient id="paint4_linear_3126_2715" x1="21.9799" y1="5.02282" x2="21.9799" y2="1.024" gradientUnits="userSpaceOnUse">
<stop/>
<stop offset="1" stop-opacity="0"/>
</linearGradient>
<radialGradient id="paint5_radial_3126_2715" cx="0" cy="0" r="1" gradientUnits="userSpaceOnUse" gradientTransform="translate(11.9793 5.02574) rotate(-90) scale(4.00124 5.00177)">
<stop/>
<stop offset="1" stop-opacity="0"/>
</radialGradient>
<linearGradient id="paint6_linear_3126_2715" x1="51.9786" y1="41.0235" x2="56.979" y2="41.0235" gradientUnits="userSpaceOnUse">
<stop/>
<stop offset="1" stop-opacity="0"/>
</linearGradient>
<linearGradient id="paint7_linear_3126_2715" x1="11.9792" y1="33.0221" x2="6.97877" y2="33.0221" gradientUnits="userSpaceOnUse">
<stop/>
<stop offset="1" stop-opacity="0"/>
</linearGradient>
<radialGradient id="paint8_radial_3126_2715" cx="0" cy="0" r="1" gradientUnits="userSpaceOnUse" gradientTransform="translate(51.9742 59.022) rotate(90) scale(6.00201 5.00177)">
<stop/>
<stop offset="1" stop-opacity="0"/>
</radialGradient>
<radialGradient id="paint9_radial_3126_2715" cx="0" cy="0" r="1" gradientUnits="userSpaceOnUse" gradientTransform="translate(11.9763 59.022) rotate(180) scale(5.00177 6.00201)">
<stop/>
<stop offset="1" stop-opacity="0"/>
</radialGradient>
<linearGradient id="paint10_linear_3126_2715" x1="29.9776" y1="59.0257" x2="29.9776" y2="64.0224" gradientUnits="userSpaceOnUse">
<stop/>
<stop offset="1" stop-opacity="0"/>
</linearGradient>
<radialGradient id="paint11_radial_3126_2715" cx="0" cy="0" r="1" gradientUnits="userSpaceOnUse" gradientTransform="translate(34.9786 5.02331) scale(6.00771 3.00039)">
<stop/>
<stop offset="1" stop-opacity="0"/>
</radialGradient>
<linearGradient id="paint12_linear_3126_2715" x1="42.9792" y1="13.0241" x2="45.9832" y2="10.0201" gradientUnits="userSpaceOnUse">
<stop/>
<stop offset="1" stop-opacity="0"/>
</linearGradient>
<radialGradient id="paint13_radial_3126_2715" cx="0" cy="0" r="1" gradientUnits="userSpaceOnUse" gradientTransform="translate(51.9799 23.0235) scale(4 6.38885)">
<stop/>
<stop offset="1" stop-opacity="0"/>
</radialGradient>
<linearGradient id="paint14_linear_3126_2715" x1="21.9799" y1="5.02282" x2="21.9799" y2="2.02559" gradientUnits="userSpaceOnUse">
<stop/>
<stop offset="1" stop-opacity="0"/>
</linearGradient>
<radialGradient id="paint15_radial_3126_2715" cx="0" cy="0" r="1" gradientUnits="userSpaceOnUse" gradientTransform="translate(11.979 5.02282) rotate(-90) scale(3.001 4.00124)">
<stop/>
<stop offset="1" stop-opacity="0"/>
</radialGradient>
<linearGradient id="paint16_linear_3126_2715" x1="51.9786" y1="41.0235" x2="55.9775" y2="41.0235" gradientUnits="userSpaceOnUse">
<stop/>
<stop offset="1" stop-opacity="0"/>
</linearGradient>
<linearGradient id="paint17_linear_3126_2715" x1="11.9792" y1="33.0221" x2="7.98036" y2="33.0221" gradientUnits="userSpaceOnUse">
<stop/>
<stop offset="1" stop-opacity="0"/>
</linearGradient>
<radialGradient id="paint18_radial_3126_2715" cx="0" cy="0" r="1" gradientUnits="userSpaceOnUse" gradientTransform="translate(51.9793 59.0237) rotate(90) scale(5.00177 4.00124)">
<stop/>
<stop offset="1" stop-opacity="0"/>
</radialGradient>
<radialGradient id="paint19_radial_3126_2715" cx="0" cy="0" r="1" gradientUnits="userSpaceOnUse" gradientTransform="translate(11.9783 59.0175) rotate(180) scale(4.00124 5.00177)">
<stop/>
<stop offset="1" stop-opacity="0"/>
</radialGradient>
<linearGradient id="paint20_linear_3126_2715" x1="45.9759" y1="10.025" x2="9.98047" y2="61.0233" gradientUnits="userSpaceOnUse">
<stop stop-color="#EDEDED"/>
<stop offset="1" stop-color="#FCFCFC"/>
</linearGradient>
<linearGradient id="paint21_linear_3126_2715" x1="32" y1="23" x2="32" y2="47" gradientUnits="userSpaceOnUse">
<stop stop-color="#404040"/>
<stop offset="1" stop-color="#737373"/>
</linearGradient>
<radialGradient id="paint22_radial_3126_2715" cx="0" cy="0" r="1" gradientUnits="userSpaceOnUse" gradientTransform="translate(39.9784 17.0267) rotate(180) scale(16.0028 16.0028)">
<stop/>
<stop offset="1" stop-opacity="0"/>
</radialGradient>
<radialGradient id="paint23_radial_3126_2715" cx="0" cy="0" r="1" gradientUnits="userSpaceOnUse" gradientTransform="translate(39.9792 11.0239) rotate(-90) scale(12.0001 16.0001)">
<stop/>
<stop offset="1" stop-opacity="0"/>
</radialGradient>
<linearGradient id="paint24_linear_3126_2715" x1="39.9784" y1="14.3571" x2="23.9794" y2="14.3571" gradientUnits="userSpaceOnUse">
<stop/>
<stop offset="1" stop-opacity="0"/>
</linearGradient>
<linearGradient id="paint25_linear_3126_2715" x1="39.9785" y1="14.0245" x2="32.9787" y2="14.0245" gradientUnits="userSpaceOnUse">
<stop/>
<stop offset="1" stop-opacity="0"/>
</linearGradient>
<radialGradient id="paint26_radial_3126_2715" cx="0" cy="0" r="1" gradientUnits="userSpaceOnUse" gradientTransform="translate(39.978 17.0242) rotate(180) scale(7.00124 7.02916)">
<stop/>
<stop offset="1" stop-opacity="0"/>
</radialGradient>
<radialGradient id="paint27_radial_3126_2715" cx="0" cy="0" r="1" gradientUnits="userSpaceOnUse" gradientTransform="translate(39.9792 11.0229) rotate(-90) scale(10.4625 7.03869)">
<stop/>
<stop offset="1" stop-opacity="0"/>
</radialGradient>
<linearGradient id="paint28_linear_3126_2715" x1="43.3109" y1="17.0229" x2="43.3109" y2="33.0219" gradientUnits="userSpaceOnUse">
<stop/>
<stop offset="1" stop-opacity="0"/>
</linearGradient>
<linearGradient id="paint29_linear_3126_2715" x1="42.9783" y1="17.0229" x2="42.9783" y2="24.0492" gradientUnits="userSpaceOnUse">
<stop/>
<stop offset="1" stop-opacity="0"/>
</linearGradient>
<radialGradient id="paint30_radial_3126_2715" cx="0" cy="0" r="1" gradientUnits="userSpaceOnUse" gradientTransform="translate(45.9792 17.0241) scale(11.4689 7.02797)">
<stop/>
<stop offset="1" stop-opacity="0"/>
</radialGradient>
<radialGradient id="paint31_radial_3126_2715" cx="0" cy="0" r="1" gradientUnits="userSpaceOnUse" gradientTransform="translate(45.979 17.0239) scale(12 16)">
<stop/>
<stop offset="1" stop-opacity="0"/>
</radialGradient>
<linearGradient id="paint32_linear_3126_2715" x1="39.9793" y1="17.0225" x2="45.9793" y2="11.0225" gradientUnits="userSpaceOnUse">
<stop stop-color="#FEFEFE"/>
<stop offset="1" stop-color="#E9E9E9"/>
</linearGradient>
<clipPath id="clip0_3126_2715">
<rect width="64" height="64" fill="white"/>
</clipPath>
<clipPath id="clip1_3126_2715">
<rect width="64" height="64" fill="white"/>
</clipPath>
</defs>
</svg>
