<?xml version="1.0" encoding="UTF-8" standalone="no"?>
<svg xmlns:inkscape="http://www.inkscape.org/namespaces/inkscape" xmlns:sodipodi="http://sodipodi.sourceforge.net/DTD/sodipodi-0.dtd" xmlns="http://www.w3.org/2000/svg" xmlns:svg="http://www.w3.org/2000/svg" xmlns:rdf="http://www.w3.org/1999/02/22-rdf-syntax-ns#" xmlns:cc="http://creativecommons.org/ns#" xmlns:dc="http://purl.org/dc/elements/1.1/" width="64" height="64" version="1.1" viewBox="0 0 64 64" id="svg10" sodipodi:docname="cutemarked.svg" inkscape:version="1.4.2 (ebf0e940d0, 2025-05-08)">
  <sodipodi:namedview id="namedview1" pagecolor="#ffffff" bordercolor="#000000" borderopacity="0.25" inkscape:showpageshadow="2" inkscape:pageopacity="0.0" inkscape:pagecheckerboard="0" inkscape:deskcolor="#d1d1d1" showgrid="false" inkscape:current-layer="art">
    <inkscape:grid id="grid1" units="px" originx="0" originy="0" spacingx="0.5" spacingy="0.5" empcolor="#0099e5" empopacity="0.30196078" color="#0099e5" opacity="0.14901961" empspacing="2" enabled="true" visible="false"/>
  </sodipodi:namedview>
  <defs id="defs3">
    <filter id="filter2076-3" x="-0.048" y="-0.048" width="1.096" height="1.096" color-interpolation-filters="sRGB">
      <feGaussianBlur stdDeviation="1.1" id="feGaussianBlur1"/>
    </filter>
    <linearGradient id="linearGradient2070" x1="145" x2="200" y1="59" y2="4" gradientTransform="matrix(1.0000071,0,0,1.0000071,-140.5033,0.50004127)" gradientUnits="userSpaceOnUse">
      <stop stop-color="#ffc841" offset="0" id="stop1"/>
      <stop stop-color="#ffbe37" offset=".4925" id="stop2"/>
      <stop stop-color="#ffc841" offset="1" id="stop3"/>
    </linearGradient>
    <filter id="filter2076-3-3" x="-0.048000001" y="-0.048000001" width="1.096" height="1.096" color-interpolation-filters="sRGB">
      <feGaussianBlur stdDeviation="1.1" id="feGaussianBlur1-6"/>
    </filter>
  <radialGradient id="gradient_ds_br" cx="0" cy="0" r="1" gradientUnits="userSpaceOnUse" gradientTransform="matrix(13.998399,0.00477622,-0.00477841,14.004799,47.5016,48.4952)">
      <stop offset="0.65" id="stop1"/>
      <stop offset="1" stop-opacity="0" id="stop2"/>
    </radialGradient><linearGradient id="gradient_ds_b" x1="30.448999" y1="48.5" x2="30.492201" y2="62.500301" gradientUnits="userSpaceOnUse">
      <stop offset="0.653846" id="stop3"/>
      <stop offset="1" stop-opacity="0" id="stop4"/>
    </linearGradient><radialGradient id="gradient_ds_bl" cx="0" cy="0" r="1" gradientUnits="userSpaceOnUse" gradientTransform="matrix(0,14,-14,0,16.5,48.5)">
      <stop offset="0.65" id="stop5"/>
      <stop offset="1" stop-opacity="0" id="stop6"/>
    </radialGradient><linearGradient id="gradient_ds_r" x1="47.5" y1="33.5" x2="61.5" y2="33.5009" gradientUnits="userSpaceOnUse">
      <stop offset="0.649038" id="stop7"/>
      <stop offset="1" stop-opacity="0" id="stop8"/>
    </linearGradient><linearGradient id="gradient_ds_l" x1="16.5" y1="33.894699" x2="2.5" y2="33.894699" gradientUnits="userSpaceOnUse">
      <stop offset="0.649038" id="stop9"/>
      <stop offset="1" stop-opacity="0" id="stop10"/>
    </linearGradient><radialGradient id="gradient_ds_tr" cx="0" cy="0" r="1" gradientTransform="matrix(0.00843236,-14,14.0084,0.0189842,47.4916,18.5)" gradientUnits="userSpaceOnUse">
      <stop offset="0.65" id="stop11"/>
      <stop offset="1" stop-opacity="0" id="stop12"/>
    </radialGradient><linearGradient id="gradient_ds_t" x1="29.98" y1="18.5" x2="29.9158" y2="4.4998598" gradientUnits="userSpaceOnUse">
      <stop offset="0.649038" id="stop13"/>
      <stop offset="1" stop-opacity="0" id="stop14"/>
    </linearGradient><radialGradient id="gradient_ds_tl" cx="0" cy="0" r="1" gradientTransform="matrix(-0.00843236,-14,-14.0084,0.0189842,16.5084,18.5)" gradientUnits="userSpaceOnUse">
      <stop offset="0.65" id="stop15"/>
      <stop offset="1" stop-opacity="0" id="stop16"/>
    </radialGradient></defs>
  <metadata id="metadata3">
    <rdf:RDF>
      <cc:Work rdf:about="">
        <dc:format>image/svg+xml</dc:format>
        <dc:type rdf:resource="http://purl.org/dc/dcmitype/StillImage"/>
      </cc:Work>
    </rdf:RDF>
  </metadata>
  
  <g id="ds" opacity="0.25">
    <path id="ds-br" d="m 47.5,48.5 h 14 v 14 h -14 z" fill="url(#gradient_ds_br)" style="fill:url(#gradient_ds_br)"/>
    <path id="ds-b" d="m 16.5,48.5 h 31 v 14 h -31 z" fill="url(#gradient_ds_b)" style="fill:url(#gradient_ds_b)"/>
    <path id="ds-bl" d="m 2.5,48.5 h 14 v 14 h -14 z" fill="url(#gradient_ds_bl)" style="fill:url(#gradient_ds_bl)"/>
    <path id="ds-r" d="m 47.5,18.5 h 14 v 30 h -14 z" fill="url(#gradient_ds_r)" style="fill:url(#gradient_ds_r)"/>
    <path id="ds-l" d="m 2.5,18.5 h 14 v 30 h -14 z" fill="url(#gradient_ds_l)" style="fill:url(#gradient_ds_l)"/>
    <path id="ds-tr" d="m 47.5,4.5 h 14 v 14 h -14 z" fill="url(#gradient_ds_tr)" style="fill:url(#gradient_ds_tr)"/>
    <path id="ds-t" d="m 16.5,4.5 h 31 v 14 h -31 z" fill="url(#gradient_ds_t)" style="fill:url(#gradient_ds_t)"/>
    <path id="ds-tl" d="m 16.5,4.5 h -14 v 14 h 14 z" fill="url(#gradient_ds_tl)" style="fill:url(#gradient_ds_tl)"/>
  </g><rect x="4.5" y="4.5" width="55" height="55" rx="10" fill="url(#linearGradient2070)" stroke-width="1.00001" id="bg" style="fill:url(#linearGradient2070)"/>
  <g id="art">
    <g id="paper">
      <path id="rect1" style="fill:#fafafa;fill-opacity:1;stroke-width:0;stroke-linecap:round;paint-order:stroke fill markers" d="M 18.636719,11 C 14.406173,11 11,14.406173 11,18.636719 V 45.363281 C 11,49.593827 14.406173,53 18.636719,53 H 40 L 53,40 V 18.636719 C 53,14.406173 49.593827,11 45.363281,11 Z"/>
      <path id="rect1-6" style="fill:#f9dfa9;fill-opacity:1;stroke-width:0;stroke-linecap:round;paint-order:stroke fill markers" d="M 40,53 53,40 H 47.636719 C 43.406173,40 40,43.406173 40,47.636719 Z"/>
    </g>
    <g id="lines">
      <rect style="opacity:0.25;fill:#000000;stroke-width:2.74436;stroke-linecap:round;-inkscape-stroke:none;paint-order:stroke fill markers;fill-opacity:1" id="rect2" width="34" height="0.5" x="15" y="32.5"/>
      <rect style="opacity:0.25;fill:#000000;fill-opacity:1;stroke-width:2.74436;stroke-linecap:round;-inkscape-stroke:none;paint-order:stroke fill markers" id="rect2-0" width="34" height="0.5" x="15" y="37"/>
      <rect style="opacity:0.25;fill:#000000;fill-opacity:1;stroke-width:2.15681;stroke-linecap:round;-inkscape-stroke:none;paint-order:stroke fill markers" id="rect2-0-1" width="21" height="0.5" x="15" y="41.5"/>
      <rect style="opacity:0.25;fill:#000000;fill-opacity:1;stroke-width:2.15681;stroke-linecap:round;-inkscape-stroke:none;paint-order:stroke fill markers" id="rect2-0-1-7" width="21" height="0.5" x="15" y="46"/>
    </g>
    <g id="g2">
      <rect x="15" y="14.99984" width="34" height="14.00016" ry="3.9938068" fill="#ffc841" stroke-width="1.56745" id="rect8"/>
      <path d="m 24.500514,16.431064 c -1.108028,0 -2.000052,0.892024 -2.000052,2.000052 v 7.000201 c 0,1.108028 0.892024,2.000052 2.000052,2.000052 h 15.000485 c 1.108028,0 2.000051,-0.892024 2.000051,-2.000052 v -7.000201 c 0,-1.108028 -0.892023,-2.000052 -2.000051,-2.000052 z m 0,1.000007 h 15.000485 c 0.554014,0 1.000007,0.445993 1.000007,1.000007 v 7.000201 c 0,0.554014 -0.445993,1.000007 -1.000007,1.000007 H 24.500514 c -0.554014,0 -1.000007,-0.445993 -1.000007,-1.000007 v -7.000201 c 0,-0.554014 0.445993,-1.000007 1.000007,-1.000007 z m 0,1.000007 v 7.000201 h 2.000052 v -4.171925 l 2.000052,2.000052 2.000052,-2.000052 v 4.171925 h 2.000052 V 18.431078 H 30.50067 l -2.000052,2.000052 -2.000052,-2.000052 z m 11.000154,0 v 3.999953 h -2.000052 l 3.000059,3.000059 3.000059,-3.000059 h -2.000052 v -3.999953 z" fill="#ffffff" stroke-width="1.00001" id="path9" style="display:inline"/>
    </g>
  </g>
</svg>
