<?xml version="1.0" encoding="UTF-8" standalone="no"?>
<svg xmlns:inkscape="http://www.inkscape.org/namespaces/inkscape" xmlns:sodipodi="http://sodipodi.sourceforge.net/DTD/sodipodi-0.dtd" xmlns:xlink="http://www.w3.org/1999/xlink" xmlns="http://www.w3.org/2000/svg" xmlns:svg="http://www.w3.org/2000/svg" xmlns:rdf="http://www.w3.org/1999/02/22-rdf-syntax-ns#" xmlns:cc="http://creativecommons.org/ns#" xmlns:dc="http://purl.org/dc/elements/1.1/" inkscape:version="1.4.2 (ebf0e940d0, 2025-05-08)" sodipodi:docname="FoxitReader.svg" id="svg25" viewBox="0 0 64 64" version="1.1" height="64" width="64">
  <sodipodi:namedview id="namedview1" pagecolor="#ffffff" bordercolor="#000000" borderopacity="0.25" inkscape:showpageshadow="2" inkscape:pageopacity="0.0" inkscape:pagecheckerboard="0" inkscape:deskcolor="#d1d1d1" inkscape:current-layer="svg25"/>
  <metadata id="metadata29">
    <rdf:RDF>
      <cc:Work rdf:about="">
        <dc:format>image/svg+xml</dc:format>
        <dc:type rdf:resource="http://purl.org/dc/dcmitype/StillImage"/>
        <dc:title/>
      </cc:Work>
    </rdf:RDF>
  </metadata>
  <defs id="defs7">
    <linearGradient gradientUnits="userSpaceOnUse" gradientTransform="matrix(0.05623,0,0,0.05623,0.071601,-0.05278)" y2="160" y1="120" x2="160" x1="135" id="a">
      <stop id="stop2" offset="0" stop-color="#eff7fc"/>
      <stop id="stop4" offset="1" stop-color="#fff"/>
    </linearGradient>
    <filter id="filter2761" x="-.024" y="-.024" width="1.048" height="1.048" color-interpolation-filters="sRGB">
      <feGaussianBlur stdDeviation="0.14552168" id="feGaussianBlur854"/>
    </filter>
    <linearGradient id="linearGradient1024-1" x1="1.3315" x2="15.65" y1="15.576" y2="1.17" gradientTransform="matrix(3.779602,0,0,3.779602,-6.8543425,-22.411134)" gradientUnits="userSpaceOnUse">
      <stop stop-color="#00c8ff" offset="0" id="stop857"/>
      <stop stop-color="#14a0ff" offset="1" id="stop859"/>
    </linearGradient>
    <filter id="filter1655" x="-.0735" y="-.098" width="1.147" height="1.196" color-interpolation-filters="sRGB">
      <feGaussianBlur stdDeviation="0.32410824" id="feGaussianBlur862"/>
    </filter>
    <linearGradient id="linearGradient1005" x1=".73911" x2="16.388" y1="16.296" y2=".64687" gradientTransform="matrix(3.7795018,0,0,3.7795018,86.300388,-73.914204)" gradientUnits="userSpaceOnUse">
      <stop stop-color="#00a0ff" offset="0" id="stop912"/>
      <stop stop-color="#37beff" offset="1" id="stop914"/>
    </linearGradient>
    <linearGradient id="w" x1="123.64" x2="146.53" y1="131.03" y2="174.71" gradientTransform="matrix(4.2812,0,0,3.5908,41,42)" gradientUnits="userSpaceOnUse">
      <stop stop-color="#fafafa" offset="0" id="stop917"/>
      <stop stop-color="#fff" offset="1" id="stop919"/>
    </linearGradient>
    <filter id="filter1152" x="-0.055255153" y="-0.0656407" width="1.1105103" height="1.1312814" color-interpolation-filters="sRGB">
      <feGaussianBlur stdDeviation="2.9934784" id="feGaussianBlur922"/>
    </filter>
    
    <filter id="filter1057" x="-0.026999999" y="-0.026999999" width="1.054" height="1.054" color-interpolation-filters="sRGB">
      <feGaussianBlur stdDeviation="0.61875" id="feGaussianBlur866"/>
    </filter>
    <linearGradient id="linearGradient1053" x1="-127" x2="-72" y1="60" y2="5" gradientTransform="translate(131.50001,-0.51)" gradientUnits="userSpaceOnUse">
      <stop stop-color="#32d7ff" offset="0" id="stop869"/>
      <stop stop-color="#329bff" offset="1" id="stop871"/>
    </linearGradient>
    
    
    
    
    
    
    
    <path id="SVGID_61_" d="M309.4,297.7c5.7-6.4,11.2-13.6,16.3-22.1"/>
    <path id="SVGID_60_" d="M74.3,275.6c5.1,8.5,10.6,15.7,16.2,22"/>
    <path id="SVGID_59_" d="M53.5,203.2c0.1,6.7,0.7,13.4,1.8,20l0,0l0,0l0,0c3.1,19.1,9.7,36.8,19.1,52.4"/>
    <path id="SVGID_58_" d="M325.7,275.6c12.8-21.3,20.6-45.6,21-72.3"/>
    <clipPath clipPathUnits="userSpaceOnUse" id="clipPath24926">
      <rect x="4.4984231" y="4.5199857" width="53.783337" height="53.783337" ry="14.668182" fill="url(#linearGradient1053)" stroke-linecap="round" stroke-width="2.68369" id="rect24928" style="fill:#e6e6e6;fill-opacity:1;stroke:none"/>
    </clipPath>
    <filter id="filter1057-3" x="-0.026999999" y="-0.026999999" width="1.054" height="1.054" color-interpolation-filters="sRGB">
      <feGaussianBlur stdDeviation="0.61875" id="feGaussianBlur866-6"/>
    </filter>
    <linearGradient inkscape:collect="always" xlink:href="#linearGradient1051" id="linearGradient1053-3" x1="-127" y1="60" x2="-72" y2="5" gradientUnits="userSpaceOnUse" gradientTransform="translate(131.5,-0.50999755)"/>
    <linearGradient inkscape:collect="always" id="linearGradient1051">
      <stop style="stop-color:#ff8021;stop-opacity:1" offset="0" id="stop1047"/>
      <stop style="stop-color:#ffa53c;stop-opacity:1" offset="1" id="stop1049"/>
    </linearGradient>
    <filter inkscape:collect="always" style="color-interpolation-filters:sRGB" id="filter1057-5" x="-0.026999999" width="1.054" y="-0.026999999" height="1.054">
      <feGaussianBlur inkscape:collect="always" stdDeviation="0.61875" id="feGaussianBlur1059"/>
    </filter>
  <radialGradient id="gradient_ds_br" cx="0" cy="0" r="1" gradientUnits="userSpaceOnUse" gradientTransform="matrix(13.998399,0.00477622,-0.00477841,14.004799,47.5016,48.4952)">
      <stop offset="0.65" id="stop1"/>
      <stop offset="1" stop-opacity="0" id="stop2"/>
    </radialGradient><linearGradient id="gradient_ds_b" x1="30.448999" y1="48.5" x2="30.492201" y2="62.500301" gradientUnits="userSpaceOnUse">
      <stop offset="0.653846" id="stop3"/>
      <stop offset="1" stop-opacity="0" id="stop4"/>
    </linearGradient><radialGradient id="gradient_ds_bl" cx="0" cy="0" r="1" gradientUnits="userSpaceOnUse" gradientTransform="matrix(0,14,-14,0,16.5,48.5)">
      <stop offset="0.65" id="stop5"/>
      <stop offset="1" stop-opacity="0" id="stop6"/>
    </radialGradient><linearGradient id="gradient_ds_r" x1="47.5" y1="33.5" x2="61.5" y2="33.5009" gradientUnits="userSpaceOnUse">
      <stop offset="0.649038" id="stop7"/>
      <stop offset="1" stop-opacity="0" id="stop8"/>
    </linearGradient><linearGradient id="gradient_ds_l" x1="16.5" y1="33.894699" x2="2.5" y2="33.894699" gradientUnits="userSpaceOnUse">
      <stop offset="0.649038" id="stop9"/>
      <stop offset="1" stop-opacity="0" id="stop10"/>
    </linearGradient><radialGradient id="gradient_ds_tr" cx="0" cy="0" r="1" gradientTransform="matrix(0.00843236,-14,14.0084,0.0189842,47.4916,18.5)" gradientUnits="userSpaceOnUse">
      <stop offset="0.65" id="stop11"/>
      <stop offset="1" stop-opacity="0" id="stop12"/>
    </radialGradient><linearGradient id="gradient_ds_t" x1="29.98" y1="18.5" x2="29.9158" y2="4.4998598" gradientUnits="userSpaceOnUse">
      <stop offset="0.649038" id="stop13"/>
      <stop offset="1" stop-opacity="0" id="stop14"/>
    </linearGradient><radialGradient id="gradient_ds_tl" cx="0" cy="0" r="1" gradientTransform="matrix(-0.00843236,-14,-14.0084,0.0189842,16.5084,18.5)" gradientUnits="userSpaceOnUse">
      <stop offset="0.65" id="stop15"/>
      <stop offset="1" stop-opacity="0" id="stop16"/>
    </radialGradient></defs>
  
  
  <g id="ds" opacity="0.25">
    <path id="ds-br" d="m 47.5,48.5 h 14 v 14 h -14 z" fill="url(#gradient_ds_br)" style="fill:url(#gradient_ds_br)"/>
    <path id="ds-b" d="m 16.5,48.5 h 31 v 14 h -31 z" fill="url(#gradient_ds_b)" style="fill:url(#gradient_ds_b)"/>
    <path id="ds-bl" d="m 2.5,48.5 h 14 v 14 h -14 z" fill="url(#gradient_ds_bl)" style="fill:url(#gradient_ds_bl)"/>
    <path id="ds-r" d="m 47.5,18.5 h 14 v 30 h -14 z" fill="url(#gradient_ds_r)" style="fill:url(#gradient_ds_r)"/>
    <path id="ds-l" d="m 2.5,18.5 h 14 v 30 h -14 z" fill="url(#gradient_ds_l)" style="fill:url(#gradient_ds_l)"/>
    <path id="ds-tr" d="m 47.5,4.5 h 14 v 14 h -14 z" fill="url(#gradient_ds_tr)" style="fill:url(#gradient_ds_tr)"/>
    <path id="ds-t" d="m 16.5,4.5 h 31 v 14 h -31 z" fill="url(#gradient_ds_t)" style="fill:url(#gradient_ds_t)"/>
    <path id="ds-tl" d="m 16.5,4.5 h -14 v 14 h 14 z" fill="url(#gradient_ds_tl)" style="fill:url(#gradient_ds_tl)"/>
  </g><rect y="4.5" x="4.5" height="55" width="55" id="bg" style="fill:url(#linearGradient1053-3);fill-opacity:1;stroke-width:2.74436;stroke-linecap:round;font-variation-settings:normal;opacity:1;vector-effect:none;stroke-linejoin:miter;stroke-miterlimit:4;stroke-dasharray:none;stroke-dashoffset:0;stroke-opacity:1;-inkscape-stroke:none;stop-color:#000000;stop-opacity:1" rx="10"/>
  
  <g id="art" transform="translate(-4.0145867e-7,1.6022272)">
    <path fill="#ffffff" fill-rule="evenodd" d="M 50.03316,24.929675 C 46.653556,10.641923 33.672561,10.76167 25.834911,14.491677 17.586803,18.660276 11.613885,29.344439 14.871578,38.291372 c 5.03496,13.496772 23.568857,13.29479 29.841141,0.743007 1.861126,-4.60232 3.228116,-7.870111 -1.891784,-12.243398 v 5.410251 l -1.803417,-3.606834 c 0,0 -1.600605,3.783569 -3.300975,5.509259 -2.366083,2.400348 -5.716832,1.704229 -5.716832,1.704229 0.632459,2.39079 5.410251,3.606834 5.410251,3.606834 -12.40282,5.870122 -12.765667,-3.940646 -12.623919,-6.31196 0.407031,-6.824851 5.894108,-12.121487 13.122925,-11.741507 2.304767,0.176735 6.714121,1.823255 6.714121,1.823255 -1.659143,-3.796373 -4.02162,-4.699705 -5.410251,-5.410251 5.443434,-1.799918 8.348739,3.882576 10.820502,7.154516 z" id="path1140" style="stroke-width:1.80342"/>
  </g>
</svg>
