<?xml version="1.0" encoding="UTF-8" standalone="no"?>
<svg xmlns:inkscape="http://www.inkscape.org/namespaces/inkscape" xmlns:sodipodi="http://sodipodi.sourceforge.net/DTD/sodipodi-0.dtd" xmlns:xlink="http://www.w3.org/1999/xlink" xmlns="http://www.w3.org/2000/svg" xmlns:svg="http://www.w3.org/2000/svg" xmlns:rdf="http://www.w3.org/1999/02/22-rdf-syntax-ns#" xmlns:cc="http://creativecommons.org/ns#" xmlns:dc="http://purl.org/dc/elements/1.1/" height="64" width="64" version="1.1" id="svg21" sodipodi:docname="mupdf.svg" inkscape:version="1.4.2 (ebf0e940d0, 2025-05-08)">
  <sodipodi:namedview id="namedview1" pagecolor="#ffffff" bordercolor="#000000" borderopacity="0.25" inkscape:showpageshadow="2" inkscape:pageopacity="0.0" inkscape:pagecheckerboard="0" inkscape:deskcolor="#d1d1d1" inkscape:current-layer="svg21"/>
  <metadata id="metadata27">
    <rdf:RDF>
      <cc:Work rdf:about="">
        <dc:format>image/svg+xml</dc:format>
        <dc:type rdf:resource="http://purl.org/dc/dcmitype/StillImage"/>
        <dc:title/>
      </cc:Work>
    </rdf:RDF>
  </metadata>
  <defs id="defs25">
    <linearGradient inkscape:collect="always" id="linearGradient1121">
      <stop style="stop-color:#f83f3f;stop-opacity:1" offset="0" id="stop1117"/>
      <stop style="stop-color:#df2a2a;stop-opacity:1" offset="1" id="stop1119"/>
    </linearGradient>
    
    
    <filter id="filter1057" x="-.027" y="-.027" width="1.054" height="1.054" color-interpolation-filters="sRGB">
      <feGaussianBlur stdDeviation="0.61875" id="feGaussianBlur866"/>
    </filter>
    <linearGradient id="linearGradient1053" x1="-127" x2="-72" y1="60" y2="5" gradientTransform="matrix(.26458 0 0 .26458 34.792 -.13493)" gradientUnits="userSpaceOnUse">
      <stop stop-color="#ff7d50" offset="0" id="stop869"/>
      <stop stop-color="#ff4b5a" offset=".50594" id="stop871"/>
      <stop stop-color="#ff509b" offset="1" id="stop873"/>
    </linearGradient>
    <filter id="filter1057-3" x="-0.026999999" y="-0.026999999" width="1.054" height="1.054" color-interpolation-filters="sRGB">
      <feGaussianBlur stdDeviation="0.61875" id="feGaussianBlur979"/>
    </filter>
    <linearGradient id="linearGradient1053-6" x1="-127" x2="-72" y1="60" y2="5" gradientTransform="translate(131.5,-0.51)" gradientUnits="userSpaceOnUse">
      <stop stop-color="#df2a2a" offset="0" id="stop982"/>
      <stop stop-color="#f83f3f" offset="1" id="stop984"/>
    </linearGradient>
    <linearGradient inkscape:collect="always" xlink:href="#linearGradient1121" id="linearGradient1123" x1="59.5" y1="4.5" x2="4.5" y2="59.5" gradientUnits="userSpaceOnUse"/>
    <linearGradient gradientUnits="userSpaceOnUse" x1="0" x2="47" y1="23.5" y2="23.5" id="linearGradient8">
      <stop offset="0" stop-color="#a9a3d4" id="stop2"/>
      <stop offset=".47001833" stop-color="#87baff" id="stop4"/>
      <stop offset="1" stop-color="#89ec85" id="stop6"/>
    </linearGradient>
    <linearGradient id="a" gradientUnits="userSpaceOnUse" x1="399.9939" x2="399.9939" y1="545.13873" y2="518.13873" gradientTransform="matrix(2.1428635,0,0,2.1428635,-752.52598,-1108.5703)">
      <stop offset="0" stop-color="#c52828" id="stop10"/>
      <stop offset="1" stop-color="#ff5454" id="stop12"/>
    </linearGradient>
    <filter inkscape:collect="always" style="color-interpolation-filters:sRGB" id="filter1057-2" x="-0.026999999" width="1.054" y="-0.026999999" height="1.054">
      <feGaussianBlur inkscape:collect="always" stdDeviation="0.61875" id="feGaussianBlur1059"/>
    </filter>
  <radialGradient id="gradient_ds_br" cx="0" cy="0" r="1" gradientUnits="userSpaceOnUse" gradientTransform="matrix(13.998399,0.00477622,-0.00477841,14.004799,47.5016,48.4952)">
      <stop offset="0.65" id="stop1"/>
      <stop offset="1" stop-opacity="0" id="stop2"/>
    </radialGradient><linearGradient id="gradient_ds_b" x1="30.448999" y1="48.5" x2="30.492201" y2="62.500301" gradientUnits="userSpaceOnUse">
      <stop offset="0.653846" id="stop3"/>
      <stop offset="1" stop-opacity="0" id="stop4"/>
    </linearGradient><radialGradient id="gradient_ds_bl" cx="0" cy="0" r="1" gradientUnits="userSpaceOnUse" gradientTransform="matrix(0,14,-14,0,16.5,48.5)">
      <stop offset="0.65" id="stop5"/>
      <stop offset="1" stop-opacity="0" id="stop6"/>
    </radialGradient><linearGradient id="gradient_ds_r" x1="47.5" y1="33.5" x2="61.5" y2="33.5009" gradientUnits="userSpaceOnUse">
      <stop offset="0.649038" id="stop7"/>
      <stop offset="1" stop-opacity="0" id="stop8"/>
    </linearGradient><linearGradient id="gradient_ds_l" x1="16.5" y1="33.894699" x2="2.5" y2="33.894699" gradientUnits="userSpaceOnUse">
      <stop offset="0.649038" id="stop9"/>
      <stop offset="1" stop-opacity="0" id="stop10"/>
    </linearGradient><radialGradient id="gradient_ds_tr" cx="0" cy="0" r="1" gradientTransform="matrix(0.00843236,-14,14.0084,0.0189842,47.4916,18.5)" gradientUnits="userSpaceOnUse">
      <stop offset="0.65" id="stop11"/>
      <stop offset="1" stop-opacity="0" id="stop12"/>
    </radialGradient><linearGradient id="gradient_ds_t" x1="29.98" y1="18.5" x2="29.9158" y2="4.4998598" gradientUnits="userSpaceOnUse">
      <stop offset="0.649038" id="stop13"/>
      <stop offset="1" stop-opacity="0" id="stop14"/>
    </linearGradient><radialGradient id="gradient_ds_tl" cx="0" cy="0" r="1" gradientTransform="matrix(-0.00843236,-14,-14.0084,0.0189842,16.5084,18.5)" gradientUnits="userSpaceOnUse">
      <stop offset="0.65" id="stop15"/>
      <stop offset="1" stop-opacity="0" id="stop16"/>
    </radialGradient></defs>
  
  
  
  <g id="ds" opacity="0.25">
    <path id="ds-br" d="m 47.5,48.5 h 14 v 14 h -14 z" fill="url(#gradient_ds_br)" style="fill:url(#gradient_ds_br)"/>
    <path id="ds-b" d="m 16.5,48.5 h 31 v 14 h -31 z" fill="url(#gradient_ds_b)" style="fill:url(#gradient_ds_b)"/>
    <path id="ds-bl" d="m 2.5,48.5 h 14 v 14 h -14 z" fill="url(#gradient_ds_bl)" style="fill:url(#gradient_ds_bl)"/>
    <path id="ds-r" d="m 47.5,18.5 h 14 v 30 h -14 z" fill="url(#gradient_ds_r)" style="fill:url(#gradient_ds_r)"/>
    <path id="ds-l" d="m 2.5,18.5 h 14 v 30 h -14 z" fill="url(#gradient_ds_l)" style="fill:url(#gradient_ds_l)"/>
    <path id="ds-tr" d="m 47.5,4.5 h 14 v 14 h -14 z" fill="url(#gradient_ds_tr)" style="fill:url(#gradient_ds_tr)"/>
    <path id="ds-t" d="m 16.5,4.5 h 31 v 14 h -31 z" fill="url(#gradient_ds_t)" style="fill:url(#gradient_ds_t)"/>
    <path id="ds-tl" d="m 16.5,4.5 h -14 v 14 h 14 z" fill="url(#gradient_ds_tl)" style="fill:url(#gradient_ds_tl)"/>
  </g><rect y="4.5" x="4.5" height="55" width="55" id="bg" style="fill:url(#linearGradient1123);fill-opacity:1;stroke-width:0.5;stroke-linecap:round;font-variation-settings:normal;opacity:1;vector-effect:none;stroke-linejoin:miter;stroke-miterlimit:4;stroke-dasharray:none;stroke-dashoffset:0;stroke-opacity:1;-inkscape-stroke:none;paint-order:stroke fill markers;stop-color:#000000;stop-opacity:1" rx="10"/>
  <g id="art"><path id="rect1245" style="fill:#ffffff;fill-opacity:1;stroke-width:0.5;stroke-linecap:round;paint-order:stroke fill markers" d="M 31.871094 11.130859 A 20.869612 20.869612 0 0 0 11.130859 32 A 20.869612 20.869612 0 0 0 32 52.869141 A 20.869612 20.869612 0 0 0 52.869141 32 A 20.869612 20.869612 0 0 0 32 11.130859 A 20.869612 20.869612 0 0 0 31.871094 11.130859 z M 31.050781 19.478516 L 31.0625 19.478516 L 31.449219 19.490234 C 32.109339 19.461609 32.529401 19.987133 32.744141 20.482422 L 32.8125 20.658203 C 32.86831 20.819825 32.887316 20.879953 32.916016 21.087891 C 33.125006 22.604068 32.335938 27.087891 32.335938 27.087891 C 32.298327 27.255244 32.256484 27.418871 32.208984 27.605469 C 32.938044 29.603215 34.108156 31.4216 35.509766 32.730469 C 36.030886 33.217433 36.695804 33.620588 37.339844 33.992188 C 38.778144 33.790933 40.14513 33.689935 41.28125 33.703125 C 42.95959 33.72517 44.061274 33.98464 44.558594 34.474609 L 44.558594 34.476562 C 44.735604 34.649516 44.899381 34.902635 44.925781 35.107422 C 45.014071 35.797722 44.948247 36.471527 44.623047 36.960938 C 44.457847 37.20974 44.186734 37.393506 43.865234 37.478516 C 43.656734 37.533626 43.399203 37.5625 43.101562 37.5625 C 41.425243 37.5625 38.770758 36.717911 36.611328 35.501953 C 33.777678 35.925818 30.542915 36.692655 27.703125 37.617188 C 25.243541 41.909616 23.457849 43.826172 21.919922 43.826172 C 21.632923 43.826172 21.353549 43.758086 21.087891 43.625 L 20.474609 43.318359 C 20.090374 43.098724 20.035698 42.624523 20.111328 42.253906 C 20.348727 41.092472 21.77822 39.627148 23.9375 38.337891 C 24.192033 38.18389 25.278049 37.610267 25.324219 37.585938 L 25.957031 37.251953 C 26.570274 36.202674 27.246627 34.962979 27.992188 33.503906 L 28.083984 33.324219 C 28.792684 31.935953 29.597311 30.361306 30.238281 28.798828 L 30.466797 28.242188 C 29.571597 24.822377 29.077921 22.182933 29.556641 20.417969 C 29.714131 19.855214 30.314661 19.478516 31.050781 19.478516 z M 31.310547 20.271484 C 31.083607 20.271484 31.103516 22.041016 31.103516 22.041016 C 31.103516 22.966736 31.238821 24.381074 31.519531 25.279297 C 31.858451 24.672616 32.132675 23.853841 32.109375 22.685547 C 32.085995 21.517328 31.804947 20.271484 31.310547 20.271484 z M 31.355469 30.173828 C 30.935679 31.259338 30.371016 32.581736 29.478516 34.269531 C 29.112386 34.958981 28.754536 35.608151 28.410156 36.224609 C 30.301616 35.497594 32.449907 34.900003 34.935547 34.408203 C 34.765857 34.27884 34.603632 34.148513 34.451172 34.019531 C 33.228852 32.984866 32.190389 31.692789 31.355469 30.173828 z M 41.285156 35.085938 C 40.791816 35.085938 40.242548 35.107934 39.642578 35.152344 C 41.204088 35.821788 42.31849 36.234375 43.21875 36.234375 C 43.49771 36.234375 43.930631 36.178664 44.082031 36.083984 C 44.233371 35.989316 44.222804 35.531859 43.339844 35.306641 C 42.456864 35.08092 42.188146 35.085938 41.285156 35.085938 z M 25.210938 38.488281 C 24.978155 38.709455 24.724279 38.94756 24.621094 39.03125 C 22.979688 40.37635 21.868309 41.891379 21.587891 42.658203 C 22.344089 42.316006 23.49446 41.225926 25.210938 38.488281 z "/></g>
</svg>
