<?xml version="1.0" encoding="UTF-8" standalone="no"?>
<!-- Created with Inkscape (http://www.inkscape.org/) -->

<svg
   width="64"
   height="64"
   version="1.1"
   viewBox="0 0 64 64"
   id="svg3"
   sodipodi:docname="wps-office2019-kprometheus.svg"
   inkscape:version="1.4.4 (dcaf3e7d9e, 2026-05-05)"
   xmlns:inkscape="http://www.inkscape.org/namespaces/inkscape"
   xmlns:sodipodi="http://sodipodi.sourceforge.net/DTD/sodipodi-0.dtd"
   xmlns="http://www.w3.org/2000/svg"
   xmlns:svg="http://www.w3.org/2000/svg">
  <sodipodi:namedview
     id="namedview18"
     pagecolor="#ffffff"
     bordercolor="#000000"
     borderopacity="0.25"
     inkscape:showpageshadow="2"
     inkscape:pageopacity="0.0"
     inkscape:pagecheckerboard="0"
     inkscape:deskcolor="#d1d1d1"
     inkscape:current-layer="svg3" />
  <defs
     id="defs2">
    <filter
       id="filter1057"
       x="-0.026999999"
       y="-0.026999999"
       width="1.054"
       height="1.054"
       color-interpolation-filters="sRGB">
      <feGaussianBlur
         stdDeviation="0.61875"
         id="feGaussianBlur1" />
    </filter>
    <linearGradient
       id="linearGradient1053"
       x1="-127"
       x2="-72"
       y1="60"
       y2="5"
       gradientTransform="matrix(1.0000071,0,0,1.0000071,131.50369,-0.51001949)"
       gradientUnits="userSpaceOnUse">
      <stop
         stop-color="#32d7ff"
         offset="0"
         id="stop1"
         style="stop-color:#dadde2;stop-opacity:1;" />
      <stop
         stop-color="#329bff"
         offset="1"
         id="stop2"
         style="stop-color:#f3f3f3;stop-opacity:1;" />
    </linearGradient>
    <filter
       id="filter1057-7"
       x="-0.026999999"
       y="-0.026999999"
       width="1.054"
       height="1.054"
       color-interpolation-filters="sRGB">
      <feGaussianBlur
         stdDeviation="0.61875"
         id="feGaussianBlur1-5" />
    </filter>
    <radialGradient
       id="gradient_ds_br"
       cx="0"
       cy="0"
       r="1"
       gradientUnits="userSpaceOnUse"
       gradientTransform="matrix(13.998399,0.00477622,-0.00477841,14.004799,47.5016,48.4952)">
      <stop
         offset="0.65"
         id="stop3" />
      <stop
         offset="1"
         stop-opacity="0"
         id="stop4" />
    </radialGradient>
    <linearGradient
       id="gradient_ds_b"
       x1="30.448999"
       y1="48.5"
       x2="30.492201"
       y2="62.500301"
       gradientUnits="userSpaceOnUse">
      <stop
         offset="0.653846"
         id="stop5" />
      <stop
         offset="1"
         stop-opacity="0"
         id="stop6" />
    </linearGradient>
    <radialGradient
       id="gradient_ds_bl"
       cx="0"
       cy="0"
       r="1"
       gradientUnits="userSpaceOnUse"
       gradientTransform="matrix(0,14,-14,0,16.5,48.5)">
      <stop
         offset="0.65"
         id="stop7" />
      <stop
         offset="1"
         stop-opacity="0"
         id="stop8" />
    </radialGradient>
    <linearGradient
       id="gradient_ds_r"
       x1="47.5"
       y1="33.5"
       x2="61.5"
       y2="33.5009"
       gradientUnits="userSpaceOnUse">
      <stop
         offset="0.649038"
         id="stop9" />
      <stop
         offset="1"
         stop-opacity="0"
         id="stop10" />
    </linearGradient>
    <linearGradient
       id="gradient_ds_l"
       x1="16.5"
       y1="33.894699"
       x2="2.5"
       y2="33.894699"
       gradientUnits="userSpaceOnUse">
      <stop
         offset="0.649038"
         id="stop11" />
      <stop
         offset="1"
         stop-opacity="0"
         id="stop12" />
    </linearGradient>
    <radialGradient
       id="gradient_ds_tr"
       cx="0"
       cy="0"
       r="1"
       gradientTransform="matrix(0.00843236,-14,14.0084,0.0189842,47.4916,18.5)"
       gradientUnits="userSpaceOnUse">
      <stop
         offset="0.65"
         id="stop13" />
      <stop
         offset="1"
         stop-opacity="0"
         id="stop14" />
    </radialGradient>
    <linearGradient
       id="gradient_ds_t"
       x1="29.98"
       y1="18.5"
       x2="29.9158"
       y2="4.4998598"
       gradientUnits="userSpaceOnUse">
      <stop
         offset="0.649038"
         id="stop15" />
      <stop
         offset="1"
         stop-opacity="0"
         id="stop16" />
    </linearGradient>
    <radialGradient
       id="gradient_ds_tl"
       cx="0"
       cy="0"
       r="1"
       gradientTransform="matrix(-0.00843236,-14,-14.0084,0.0189842,16.5084,18.5)"
       gradientUnits="userSpaceOnUse">
      <stop
         offset="0.65"
         id="stop17" />
      <stop
         offset="1"
         stop-opacity="0"
         id="stop18" />
    </radialGradient>
    <linearGradient
       id="e"
       x1="-1119.6"
       x2="-1119.6"
       y1="590.41998"
       y2="591.40997"
       gradientTransform="matrix(37.994678,0,0,-25.651104,42570.436,15189.328)"
       gradientUnits="userSpaceOnUse">
      <stop
         stop-color="#FF5100"
         offset="0"
         id="stop1-3" />
      <stop
         stop-color="#FF1522"
         offset="1"
         id="stop2-6" />
    </linearGradient>
    <linearGradient
       id="d"
       x1="-1062.5"
       x2="-1062.5"
       y1="562.25"
       y2="563.02002"
       gradientTransform="matrix(13.058384,0,0,-11.371709,13909.813,6421.9793)"
       gradientUnits="userSpaceOnUse">
      <stop
         stop-color="#FD7821"
         stop-opacity="0"
         offset="0"
         id="stop3-7" />
      <stop
         stop-color="#FF5100"
         offset=".4893"
         id="stop4-5" />
      <stop
         stop-color="#FF9B27"
         offset="1"
         id="stop5-3" />
    </linearGradient>
    <linearGradient
       id="f"
       x1="-1066"
       x2="-1066.5"
       y1="562.63"
       y2="563.15997"
       gradientTransform="matrix(13.648622,0,0,-11.414222,14596.941,6448.1791)"
       gradientUnits="userSpaceOnUse">
      <stop
         stop-color="#FD7821"
         stop-opacity="0"
         offset="0"
         id="stop6-5" />
      <stop
         stop-color="#881000"
         stop-opacity=".9245"
         offset="1"
         id="stop7-6"
         style="stop-color:#db0f05;stop-opacity:0.9254902;" />
    </linearGradient>
    <linearGradient
       id="linearGradient9"
       x1="-1119.6"
       x2="-1119.6"
       y1="590.41998"
       y2="591.40997"
       gradientTransform="matrix(38.43,0,0,-25.945,43045,15344)"
       gradientUnits="userSpaceOnUse">
      <stop
         stop-color="#FF5100"
         offset="0"
         id="stop8-2" />
      <stop
         stop-color="#FF1522"
         offset="1"
         id="stop9-9" />
    </linearGradient>
    <linearGradient
       id="linearGradient12"
       x1="-1062.5"
       x2="-1062.5"
       y1="562.25"
       y2="563.02002"
       gradientTransform="matrix(13.208,0,0,-11.502,14056,6476.2)"
       gradientUnits="userSpaceOnUse">
      <stop
         stop-color="#FD7821"
         stop-opacity="0"
         offset="0"
         id="stop10-1" />
      <stop
         stop-color="#FF5100"
         offset=".4893"
         id="stop11-2" />
      <stop
         stop-color="#FF9B27"
         offset="1"
         id="stop12-7" />
    </linearGradient>
    <linearGradient
       id="linearGradient14"
       x1="-1066"
       x2="-1066.5"
       y1="562.63"
       y2="563.15997"
       gradientTransform="matrix(13.805,0,0,-11.545,14751,6502.7)"
       gradientUnits="userSpaceOnUse">
      <stop
         stop-color="#FD7821"
         stop-opacity="0"
         offset="0"
         id="stop13-0" />
      <stop
         stop-color="#881000"
         stop-opacity=".9245"
         offset="1"
         id="stop14-9" />
    </linearGradient>
  </defs>
  <g
     id="ds"
     opacity="0.25">
    <path
       id="ds-br"
       d="m 47.5,48.5 h 14 v 14 h -14 z"
       fill="url(#gradient_ds_br)"
       style="fill:url(#gradient_ds_br)" />
    <path
       id="ds-b"
       d="m 16.5,48.5 h 31 v 14 h -31 z"
       fill="url(#gradient_ds_b)"
       style="fill:url(#gradient_ds_b)" />
    <path
       id="ds-bl"
       d="m 2.5,48.5 h 14 v 14 h -14 z"
       fill="url(#gradient_ds_bl)"
       style="fill:url(#gradient_ds_bl)" />
    <path
       id="ds-r"
       d="m 47.5,18.5 h 14 v 30 h -14 z"
       fill="url(#gradient_ds_r)"
       style="fill:url(#gradient_ds_r)" />
    <path
       id="ds-l"
       d="m 2.5,18.5 h 14 v 30 h -14 z"
       fill="url(#gradient_ds_l)"
       style="fill:url(#gradient_ds_l)" />
    <path
       id="ds-tr"
       d="m 47.5,4.5 h 14 v 14 h -14 z"
       fill="url(#gradient_ds_tr)"
       style="fill:url(#gradient_ds_tr)" />
    <path
       id="ds-t"
       d="m 16.5,4.5 h 31 v 14 h -31 z"
       fill="url(#gradient_ds_t)"
       style="fill:url(#gradient_ds_t)" />
    <path
       id="ds-tl"
       d="m 16.5,4.5 h -14 v 14 h 14 z"
       fill="url(#gradient_ds_tl)"
       style="fill:url(#gradient_ds_tl)" />
  </g>
  <rect
     x="4.5"
     y="4.5"
     width="55"
     height="55"
     fill="url(#linearGradient1053)"
     stroke-linecap="round"
     stroke-width="2.74444"
     id="bg"
     style="fill:url(#linearGradient1053)"
     rx="10" />
  <g
     id="art">
    <path
       class="st1"
       d="m 35.97218,43.065356 -3.064884,-6.327503 2.570548,-5.437698 2.966017,6.129768 6.129769,-12.85274 c 0.09887,-0.296602 0,-0.692071 -0.296602,-0.790938 -0.09887,0 -0.197735,-0.09887 -0.296602,-0.09887 h -6.722972 l -9.29352,19.377978 c -0.593203,1.384141 -2.175079,1.977344 -3.55922,1.483008 -0.692071,-0.296602 -1.186407,-0.790938 -1.483009,-1.384141 V 43.06535 L 13.232716,22.599838 c -0.593203,-1.186407 0,-2.669415 1.186407,-3.262619 0.395469,-0.09887 0.790938,-0.197734 1.08754,-0.197734 h 11.666333 c 1.483009,0 2.768283,0.790938 3.460354,2.076212 l 0.494336,0.988672 -2.570548,5.437698 -1.581876,-3.262619 c -0.197734,-0.395469 -0.692071,-0.69207 -1.08754,-0.69207 h -5.932034 c -0.296601,0 -0.593203,0.296601 -0.593203,0.593203 0,0.09887 0,0.197735 0.09887,0.296602 l 6.129769,12.85274 6.42637,-13.347076 1.384141,-2.768283 c 0.593204,-1.384141 1.878478,-2.175079 3.361486,-2.175079 h 11.765201 c 1.384141,0 2.471681,1.08754 2.471681,2.471681 0,0.395469 -0.09887,0.69207 -0.197735,1.087539 l -9.787856,20.465518 c -0.593203,1.384141 -2.175079,2.076212 -3.55922,1.483008 -0.692071,-0.296601 -1.186407,-0.790937 -1.483009,-1.581875 z"
       id="path2"
       style="clip-rule:evenodd;fill:#f60002;fill-rule:evenodd;stroke-width:0.988672;fill-opacity:1" />
    <path
       class="st2"
       d="m 34.093703,30.509217 h -5.239964 l 0.494337,-0.988672 2.669415,-5.437698 1.384141,-2.768283 c 0.593204,-1.384141 1.878478,-2.175079 3.361486,-2.175079 h 5.239964 -0.197735 c -1.384141,0.09887 -2.669415,0.889805 -3.163751,2.076212 l -4.251291,8.799184 z"
       id="path5"
       style="clip-rule:evenodd;fill:url(#d);fill-rule:evenodd;stroke-width:0.988672;opacity:0.5" />
    <path
       class="st3"
       d="m 48.528319,19.139485 c 1.384141,0 2.471681,1.08754 2.471681,2.471681 0,0.395469 -0.09887,0.69207 -0.197735,1.087539 l -3.756955,7.909379 -4.943361,-0.494336 2.570548,-5.437698 c 0.09887,-0.296602 0,-0.692071 -0.296602,-0.790938 -0.09887,0 -0.197734,-0.09887 -0.296602,-0.09887 h -6.722971 l 1.186406,-2.471681 c 0.593204,-1.285274 1.878478,-2.175079 3.361486,-2.175079 z"
       id="path7"
       style="clip-rule:evenodd;fill:url(#f);fill-rule:evenodd;stroke-width:0.988672" />
  </g>
</svg>
