<?xml version="1.0" encoding="UTF-8" standalone="no"?>
<svg xmlns:inkscape="http://www.inkscape.org/namespaces/inkscape" xmlns:sodipodi="http://sodipodi.sourceforge.net/DTD/sodipodi-0.dtd" xmlns="http://www.w3.org/2000/svg" xmlns:svg="http://www.w3.org/2000/svg" xmlns:rdf="http://www.w3.org/1999/02/22-rdf-syntax-ns#" xmlns:cc="http://creativecommons.org/ns#" xmlns:dc="http://purl.org/dc/elements/1.1/" width="64" height="64" version="1.1" viewBox="0 0 64 64" id="svg3" sodipodi:docname="applications-development-translation.svg" inkscape:version="1.4.2 (ebf0e940d0, 2025-05-08)">
  <defs id="defs2">
    <filter id="filter1057-3" x="-0.026999999" y="-0.026999999" width="1.054" height="1.054" color-interpolation-filters="sRGB">
      <feGaussianBlur stdDeviation="0.61875" id="feGaussianBlur1"/>
    </filter>
    <linearGradient id="linearGradient1053-6" x1="-127" x2="-72" y1="60" y2="5" gradientTransform="matrix(1.0000071,0,0,1.0000071,131.50082,-0.51009504)" gradientUnits="userSpaceOnUse">
      <stop stop-color="#32d7ff" offset="0" id="stop1"/>
      <stop stop-color="#329bff" offset="1" id="stop2"/>
    </linearGradient>
    <filter id="filter1057-3-3" x="-0.026999999" y="-0.026999999" width="1.054" height="1.054" color-interpolation-filters="sRGB">
      <feGaussianBlur stdDeviation="0.61875" id="feGaussianBlur1-6"/>
    </filter>
  <radialGradient id="gradient_ds_br" cx="0" cy="0" r="1" gradientUnits="userSpaceOnUse" gradientTransform="matrix(13.998399,0.00477622,-0.00477841,14.004799,47.5016,48.4952)">
      <stop offset="0.65" id="stop1"/>
      <stop offset="1" stop-opacity="0" id="stop2"/>
    </radialGradient><linearGradient id="gradient_ds_b" x1="30.448999" y1="48.5" x2="30.492201" y2="62.500301" gradientUnits="userSpaceOnUse">
      <stop offset="0.653846" id="stop3"/>
      <stop offset="1" stop-opacity="0" id="stop4"/>
    </linearGradient><radialGradient id="gradient_ds_bl" cx="0" cy="0" r="1" gradientUnits="userSpaceOnUse" gradientTransform="matrix(0,14,-14,0,16.5,48.5)">
      <stop offset="0.65" id="stop5"/>
      <stop offset="1" stop-opacity="0" id="stop6"/>
    </radialGradient><linearGradient id="gradient_ds_r" x1="47.5" y1="33.5" x2="61.5" y2="33.5009" gradientUnits="userSpaceOnUse">
      <stop offset="0.649038" id="stop7"/>
      <stop offset="1" stop-opacity="0" id="stop8"/>
    </linearGradient><linearGradient id="gradient_ds_l" x1="16.5" y1="33.894699" x2="2.5" y2="33.894699" gradientUnits="userSpaceOnUse">
      <stop offset="0.649038" id="stop9"/>
      <stop offset="1" stop-opacity="0" id="stop10"/>
    </linearGradient><radialGradient id="gradient_ds_tr" cx="0" cy="0" r="1" gradientTransform="matrix(0.00843236,-14,14.0084,0.0189842,47.4916,18.5)" gradientUnits="userSpaceOnUse">
      <stop offset="0.65" id="stop11"/>
      <stop offset="1" stop-opacity="0" id="stop12"/>
    </radialGradient><linearGradient id="gradient_ds_t" x1="29.98" y1="18.5" x2="29.9158" y2="4.4998598" gradientUnits="userSpaceOnUse">
      <stop offset="0.649038" id="stop13"/>
      <stop offset="1" stop-opacity="0" id="stop14"/>
    </linearGradient><radialGradient id="gradient_ds_tl" cx="0" cy="0" r="1" gradientTransform="matrix(-0.00843236,-14,-14.0084,0.0189842,16.5084,18.5)" gradientUnits="userSpaceOnUse">
      <stop offset="0.65" id="stop15"/>
      <stop offset="1" stop-opacity="0" id="stop16"/>
    </radialGradient></defs>
  <metadata id="metadata2">
    <rdf:RDF>
      <cc:Work rdf:about="">
        <dc:format>image/svg+xml</dc:format>
        <dc:type rdf:resource="http://purl.org/dc/dcmitype/StillImage"/>
      </cc:Work>
    </rdf:RDF>
  </metadata>
  
  <g id="ds" opacity="0.25">
    <path id="ds-br" d="m 47.5,48.5 h 14 v 14 h -14 z" fill="url(#gradient_ds_br)" style="fill:url(#gradient_ds_br)"/>
    <path id="ds-b" d="m 16.5,48.5 h 31 v 14 h -31 z" fill="url(#gradient_ds_b)" style="fill:url(#gradient_ds_b)"/>
    <path id="ds-bl" d="m 2.5,48.5 h 14 v 14 h -14 z" fill="url(#gradient_ds_bl)" style="fill:url(#gradient_ds_bl)"/>
    <path id="ds-r" d="m 47.5,18.5 h 14 v 30 h -14 z" fill="url(#gradient_ds_r)" style="fill:url(#gradient_ds_r)"/>
    <path id="ds-l" d="m 2.5,18.5 h 14 v 30 h -14 z" fill="url(#gradient_ds_l)" style="fill:url(#gradient_ds_l)"/>
    <path id="ds-tr" d="m 47.5,4.5 h 14 v 14 h -14 z" fill="url(#gradient_ds_tr)" style="fill:url(#gradient_ds_tr)"/>
    <path id="ds-t" d="m 16.5,4.5 h 31 v 14 h -31 z" fill="url(#gradient_ds_t)" style="fill:url(#gradient_ds_t)"/>
    <path id="ds-tl" d="m 16.5,4.5 h -14 v 14 h 14 z" fill="url(#gradient_ds_tl)" style="fill:url(#gradient_ds_tl)"/>
  </g><rect x="4.5" y="4.5" width="55" height="55" fill="url(#linearGradient1053-6)" stroke-linecap="round" stroke-width="2.74444" id="bg" style="display:inline;fill:url(#linearGradient1053-6)" rx="10"/>
  <g id="art"><path d="m 31.99864,11.656293 c -2.294181,0 -4.460687,0.547777 -6.382992,1.513692 -2.778386,1.396261 -5.040855,3.671657 -6.418142,6.46123 -0.938211,1.900308 -1.468791,4.036237 -1.468791,6.294927 0,1.381634 0.197295,2.733597 0.574234,4.023387 h 0.002 c 0.663206,2.269613 1.884963,4.350321 3.603586,6.068528 1.163852,1.164118 2.495444,2.100628 3.937589,2.791085 l 0.169923,-0.302746 c -1.36489,-0.650469 -2.626105,-1.527337 -3.738366,-2.61333 l 1.818404,-1.818404 c 0.945543,0.917763 2.023675,1.648549 3.189531,2.181662 v 0.002 c 1.410094,0.644309 2.949903,0.995736 4.543081,1.019548 v 2.572321 c -2.043668,-0.02457 -4.015449,-0.486661 -5.81076,-1.341834 L 25.84606,38.80914 v 0.002 c 1.897095,0.908049 3.988992,1.386736 6.154326,1.386736 2.271578,0 4.459929,-0.530732 6.429858,-1.527375 1.335106,-0.675566 2.571187,-1.563281 3.660242,-2.652411 1.144879,-1.144615 2.068916,-2.45043 2.755935,-3.865399 l -0.002,-0.0039 c 0.930236,-1.915956 1.423852,-4.03019 1.423852,-6.222737 0,-1.864515 -0.356454,-3.673546 -1.035157,-5.351538 -0.708184,-1.752489 -1.76772,-3.361616 -3.144591,-4.738487 -1.381899,-1.38205 -2.997792,-2.444118 -4.757763,-3.152415 v 0.002 c -1.672399,-0.673487 -3.475155,-1.02945 -5.332262,-1.02945 z m -0.171878,0.349617 v 2.572321 c -1.743114,0.02593 -3.390567,0.448337 -4.859434,1.177762 -1.059763,0.526385 -2.026207,1.213139 -2.867244,2.029344 l -1.824263,-1.824263 c 1.045136,-1.020266 2.225128,-1.853252 3.49617,-2.490266 1.860131,-0.93205 3.917558,-1.439084 6.054922,-1.464861 z m 0.343755,0 c 1.752564,0.0212 3.452704,0.365532 5.033296,1.001972 v -0.002 c 1.664499,0.670426 3.197165,1.664121 4.517758,2.953192 l -1.531268,1.533233 c -0.05575,0.01489 -0.117696,0.03027 -0.160141,0.01172 -0.100954,-0.04365 0.04297,-0.146486 0.04297,-0.146486 v -0.11719 l -0.08595,-0.08789 c 0,0 -0.245523,0.03012 -0.259772,-0.01368 C 39.71305,17.094921 39.67075,16.9044 39.67075,16.9044 l -0.01361,-0.248052 -0.101558,-0.04492 -0.01361,-0.08594 -0.158214,0.01368 v -0.175785 l -0.08788,-0.02929 -0.08595,-0.04297 -0.01361,-0.175786 -0.316429,-0.01368 -0.101558,-0.146486 -0.11524,-0.175785 -0.359364,-0.02929 -0.08595,-0.08789 -0.144532,-0.02929 -0.101558,-0.04297 -0.04297,0.07226 -0.273454,0.01565 -0.01361,0.08789 c -0.09135,0.04638 -0.31658,0.04281 -0.501969,0.04297 -0.287212,-0.145949 -0.577145,-0.283693 -0.87528,-0.404341 -1.285594,-0.520792 -2.66821,-0.805056 -4.093687,-0.826184 z m 2.410214,0.61135 -0.134769,0.08594 -0.0918,-0.05664 -0.04492,0.07422 0.115236,0.07227 0.02147,0.01368 0.02343,-0.01368 0.158206,-0.103519 z m 0.658218,0.353521 -0.113282,0.0918 -0.07227,-0.07422 -0.0625,0.06055 0.101565,0.10352 0.02733,0.02733 0.02929,-0.0254 0.144532,-0.115236 z m -13.879076,0.07031 c -1.431978,0.558096 -2.968953,1.12859 -3.89866,2.597721 -0.54362,0.859141 -0.622765,1.877593 -1.050805,2.765686 0.792961,-0.745262 1.716733,-1.295497 2.388709,-2.183627 0.807965,-1.067851 1.508855,-2.256876 2.560604,-3.179742 z m 21.281805,0 c 1.051749,0.922866 1.752639,2.111891 2.560604,3.179742 0.671976,0.888131 1.595748,1.438403 2.388709,2.183627 -0.42804,-0.888093 -0.507185,-1.906545 -1.050805,-2.765686 -0.929555,-1.469093 -2.466531,-2.039587 -3.89866,-2.59772 z m -8.439474,0.17969 c -0.06116,0.0055 -0.121718,0.03129 -0.128907,0.06055 -0.01459,0.05838 -0.101565,0.07227 -0.101565,0.07227 l -0.332038,0.02929 c -0.02891,0.08771 -0.200259,0.146274 -0.214848,0.08789 -0.03167,-0.128405 -0.216794,0.160444 -0.02929,0.218756 0.187094,0.05873 0.375008,0 0.375008,0 l 0.04297,-0.08594 0.718767,0.01368 c 0.05793,-0.05852 0.08594,-0.14649 0.08594,-0.14649 0,0 0.174323,-0.05849 0.246098,-0.02929 0.07211,0.02933 0.01357,-0.203021 -0.05859,-0.173831 -0.07184,0.02918 -0.214847,0.01368 -0.214847,0.01368 H 34.33113 c -0.0072,-0.05108 -0.06774,-0.066 -0.128908,-0.06055 z m -1.238311,0.294926 -0.187502,0.07227 -0.201177,0.132815 -0.216802,0.02929 -0.115236,0.130861 0.46096,0.04297 0.08594,0.146486 0.332038,0.02929 0.214848,0.218756 c 0.187502,0.05852 0.232241,-0.02869 0.11719,-0.130862 L 33.26665,13.998127 v -0.160161 l -0.05859,-0.05859 -0.05664,-0.205081 z m -1.136753,1.406277 v 2.330125 c -1.296139,0.02551 -2.521523,0.337318 -3.619195,0.87305 -0.819267,0.399768 -1.568346,0.923508 -2.218778,1.548843 l -1.650439,-1.650439 c 0.832987,-0.80823 1.772823,-1.465843 2.785227,-1.966829 1.447172,-0.716424 3.045036,-1.109502 4.703336,-1.134788 z m 0.343755,0 c 1.381634,0.02105 2.720936,0.297632 3.966692,0.80275 0.238077,0.09659 0.470334,0.20903 0.701192,0.322271 -0.01587,0.04218 -0.03175,0.08398 -0.06055,0.08398 -0.07185,0 -0.0449,0.189456 -0.0449,0.189456 0,0 0.188565,-7.87e-4 0.24609,0.01368 0.05737,0.01448 0.05666,0.162115 0.05666,0.162115 0.216042,-0.01448 0.302406,0.276569 0.273455,0.349617 -0.02872,0.07298 0.08788,0.07227 0.08788,0.07227 0,0 -3.25e-4,0.234656 -0.02948,0.292976 -0.02872,0.05852 0.186637,0.101879 0.244163,0.189456 0.05753,0.08771 -0.0291,0.379926 -0.07227,0.394553 -0.04313,0.01466 0.115807,0.05976 0.101558,0.132815 -0.01474,0.07318 0.04233,-0.0017 0.05666,0.115236 0.01436,0.116767 0.04297,0.365242 0.04297,0.365242 l 0.201188,0.01565 c 0.0291,-0.189884 0.400298,-0.197606 0.46096,-0.175786 0.244692,0.08764 0.433596,0.467121 0.433596,0.554694 0,0.08757 -0.160179,0.10352 -0.160179,0.10352 l 0.006,0.0957 -0.51172,0.511721 c -0.0474,-0.02695 -0.09763,-0.05573 -0.124992,-0.03906 -0.07189,0.04365 -0.04494,-0.306646 -0.04494,-0.306646 0,0 0.12998,-0.08676 0.187506,-0.04297 0.0576,0.04372 -0.488249,-0.731277 -0.603527,-0.658217 -0.115051,0.07305 -0.373689,-0.07156 -0.359364,-0.203131 0.01436,-0.131368 -0.519545,-0.570342 -0.519545,-0.570342 0,0 -0.172501,-0.116941 -0.201188,-0.02929 -0.02873,0.08757 -0.08636,0.145809 0,0.189456 0.08621,0.04392 0.07121,-0.07287 0.171859,0.02929 0.100726,0.102235 0.288837,0.234627 0.216798,0.322272 -0.07204,0.08778 -0.158214,0.11719 -0.158214,0.11719 l 0.101558,0.115236 h 0.158214 l 0.02721,0.248052 c 0,0 0.173521,0.08917 0.216798,0.19141 0.02873,0.06801 0.03099,0.114053 0.02154,0.156253 -0.322967,-0.247277 -0.662942,-0.466441 -1.013689,-0.664076 0.0035,-0.02612 0.01965,-0.0552 0.01361,-0.07617 -0.02872,-0.10231 0.11369,-0.145994 0.18554,-0.02929 l 0.144532,-0.01565 0.02948,-0.130861 -0.201188,-0.160161 h -0.158214 c 0,0 -0.01436,0.116189 -0.11524,0.07227 -0.100726,-0.04393 -0.04456,-0.03012 -0.13085,-0.04492 -0.07986,-0.01346 -0.05949,0.153815 -0.0449,0.226569 -0.223374,-0.115135 -0.451435,-0.221421 -0.683692,-0.316433 -0.977934,-0.400146 -2.029911,-0.619703 -3.115299,-0.640642 v -1.296895 c 0.08209,-0.0021 0.135208,-0.0234 0.144536,-0.06055 0.01432,-0.05852 0.02876,-0.07343 0.115236,-0.08789 0.08629,-0.01467 -0.0133,-0.190375 -0.09961,-0.175786 -0.0685,0.01157 -0.127585,-0.0192 -0.160161,-0.06641 z m -14.672037,0.06836 c -0.729803,0.186874 -1.343724,0.659238 -1.89067,1.265637 -1.144388,1.268812 -1.045363,3.140774 -0.892591,4.810678 0.04716,0.515537 0.02071,0.954273 -0.03712,1.482435 0.346151,-0.709658 0.914551,-1.386471 1.582066,-1.89067 1.488256,-1.124167 3.116168,-2.576744 3.138733,-4.488278 -0.493201,1.375624 -1.991586,1.944379 -2.988343,2.884819 -0.527065,0.497245 -0.930273,1.094724 -1.166045,1.716847 l -0.03712,-0.02733 c 0.123956,-0.55031 0.356991,-1.049633 0.515651,-1.582066 0.433898,-1.456167 0.358283,-3.197505 1.77543,-4.171924 z m 29.004666,0 c 1.417124,0.974457 1.341532,2.715795 1.77543,4.171924 0.15863,0.532433 0.39168,1.031794 0.515651,1.582066 l -0.03704,0.02733 C 48.521718,20.14958 48.11851,19.5521 47.591444,19.054856 c -0.996756,-0.940441 -2.495142,-1.509195 -2.988342,-2.884819 0.02268,1.911609 1.650477,3.364186 3.138733,4.488277 0.667515,0.504199 1.23593,1.181013 1.582066,1.890671 -0.05783,-0.5282 -0.08429,-0.966898 -0.03704,-1.482436 0.152696,-1.669866 0.251722,-3.541827 -0.892666,-4.810677 -0.546946,-0.6064 -1.160867,-1.078774 -1.89067,-1.265638 z m -7.814705,0.289071 c -0.116677,-0.0023 -0.286645,0.07757 -0.269524,0.164065 0.01436,0.07325 0.07246,0.146456 0.187506,0.175786 l 0.214833,0.07422 c 0,0 0.269939,0.31707 0.259772,0.16016 -0.02873,-0.438207 -0.230631,-0.453401 -0.302746,-0.541012 -0.01814,-0.02188 -0.05095,-0.03243 -0.08984,-0.03318 z m -4.511711,0.175786 -0.05859,0.130861 0.07812,0.03712 0.05859,-0.132815 z m 0.269535,0.14844 c -6.2e-5,-0.03998 -0.105444,0.123615 -0.167974,0.121094 0.06989,0.03458 0.181644,0.09961 0.181644,0.09961 0.115051,0 0.187503,0.08693 0.187503,0.130861 0,0.04379 0.158206,0.02929 0.158206,0.02929 l 0.01561,-0.101566 -0.115236,-0.146486 -0.101566,-0.07422 c 0,0 -0.158206,-0.01474 -0.158206,-0.05859 z m -0.167974,0.121094 c -0.04992,-0.02472 -0.08223,-0.03587 -0.01954,0.01172 0.0049,0.0038 0.01368,-0.01194 0.01954,-0.01172 z m -0.46096,-0.03318 -0.0078,0.08789 0.123049,0.01172 0.08984,0.142582 0.07227,-0.04687 -0.101566,-0.160161 -0.01172,-0.01757 -0.01954,-0.002 z m -3.328204,0.367196 c -0.07867,0.0027 -0.149725,0.01712 -0.144536,0.04297 0.01432,0.07284 0.128907,0.16016 0.128907,0.16016 0,0 0.216235,0.01467 0.230473,0.05859 0.0147,0.04365 0.159522,0.05746 0.173831,0.01368 0.01436,-0.04386 0.07077,-0.130861 -0.05859,-0.130861 -0.129576,0 -0.101252,-0.07326 -0.144532,-0.117191 -0.02166,-0.02181 -0.106883,-0.03001 -0.185552,-0.02733 z m 3.654384,0.144532 v 0.130846 l 0.158206,0.01565 -0.04297,-0.11719 z m 7.822264,0 c 1.286652,1.318061 2.279062,2.847023 2.949261,4.507932 0.639244,1.583539 0.984587,3.287119 1.005866,5.043123 h -2.572322 c -0.02079,-1.400834 -0.297228,-2.759185 -0.800784,-4.025655 -0.07026,-0.176681 -0.157194,-0.3466 -0.236338,-0.519544 0.02079,-0.0842 0.0579,-0.189131 0.166,-0.156252 0.143814,0.04386 0.04297,-0.320318 0.04297,-0.320318 0,0 -0.201755,-0.147521 -0.187506,-0.220706 0.01436,-0.07291 -0.201755,-0.218831 -0.187506,-0.277351 0.01436,-0.05852 -0.186184,-0.173979 -0.171897,-0.232426 0.01436,-0.05852 -0.101558,-0.220706 -0.101558,-0.220706 l -0.214832,-0.203131 -0.02948,-0.132816 -0.171859,-0.01368 -0.34572,-0.423844 0.01361,-0.117191 -0.09963,-0.01368 v -0.162111 l -0.101558,-0.05664 -0.158215,-0.01565 -0.316428,-0.349617 -0.02948,-0.162115 h -0.158214 l 0.02343,-0.248051 z m -19.932109,0.002 1.822297,1.822297 c -0.848105,0.873769 -1.556251,1.8833 -2.089893,2.992236 -0.692196,1.437382 -1.089961,3.040765 -1.115247,4.734329 h -2.574287 c 0.02532,-2.10161 0.517428,-4.125435 1.419959,-5.961188 0.642343,-1.306457 1.492036,-2.517026 2.537171,-3.587976 z M 34.907368,16.8889 c -0.04311,-0.0055 -0.08594,-0.0063 -0.08594,0.01565 0,0.04386 0.05739,0.04336 0.08594,0.130861 0.02899,0.08757 0.01482,0.234559 0.144536,0.263677 0.129573,0.02933 0.157228,0.05867 0.171878,0.11719 0.01432,0.05852 0.171877,0.07227 0.171877,0.07227 l 0.115236,0.05859 0.345721,0.292976 v -0.11719 c 0,0 -0.01399,-0.117191 -0.08595,-0.117191 -0.07177,0 -0.202397,-0.08796 -0.173824,-0.146489 0.0291,-0.05852 -0.244143,-0.117191 -0.244143,-0.117191 0,0 -0.244491,-0.232457 -0.158207,-0.203131 0.08642,0.02918 0.04297,-0.103519 0.04297,-0.103519 0,0 -0.171639,0.03016 -0.214848,0.01565 -0.04328,-0.01467 -0.02929,-0.146486 -0.02929,-0.146486 0,0 -0.04283,-0.01013 -0.08594,-0.01565 z m -7.972692,0.103519 -0.06055,0.0625 0.08594,0.08594 0.06055,-0.06055 z m -12.461348,0.601524 c -0.03704,-0.0067 -0.05727,0.02283 -0.08594,0.03712 -0.988026,1.259855 -1.646508,2.638503 -1.646508,4.33029 0,2.089553 1.201648,3.549236 1.351585,5.511794 0.30921,-2.047788 2.027946,-3.502859 2.918042,-5.304671 0.347194,-0.702893 0.563992,-1.496118 0.660183,-2.269576 -0.128986,0.329521 -0.330001,0.637203 -0.603527,0.896484 -1.156331,1.096236 -2.519445,2.177769 -2.781295,3.730543 -0.03738,0.221738 -0.05682,0.449319 -0.121095,0.664076 -0.05052,0.02211 -0.05096,-0.03678 -0.07226,-0.05078 l 0.144532,-1.925821 c 0.139777,-1.876685 -0.851394,-3.964802 0.236331,-5.619134 z m 35.055431,0 c 1.087694,1.654521 0.09657,3.742562 0.236338,5.619134 l 0.144532,1.925821 c -0.02117,0.01402 -0.02192,0.07289 -0.07227,0.05078 -0.06425,-0.214738 -0.08372,-0.442326 -0.121098,-0.664076 -0.261851,-1.552774 -1.624964,-2.634307 -2.781296,-3.730542 -0.27353,-0.259311 -0.474529,-0.566979 -0.603527,-0.896484 0.09619,0.773458 0.312989,1.566683 0.660183,2.269575 0.890059,1.801925 2.608833,3.256997 2.918042,5.304672 0.149937,-1.962559 1.351586,-3.422241 1.351586,-5.511794 0,-1.691636 -0.658482,-3.070322 -1.646508,-4.33029 -0.02873,-0.01429 -0.04891,-0.04385 -0.08595,-0.03712 z m -17.701388,0.002 v 2.572321 c -0.808684,0.02389 -1.575074,0.216065 -2.26761,0.541012 -0.556962,0.261439 -1.06513,0.60999 -1.507835,1.027372 L 26.229629,19.91435 c 0.638639,-0.613467 1.359069,-1.111467 2.134795,-1.488293 1.068607,-0.518713 2.24342,-0.805509 3.462947,-0.830077 z m 0.343755,0.002 c 1.041847,0.02094 2.051832,0.23263 2.990307,0.617209 0.259122,0.106188 0.510436,0.227165 0.757811,0.359383 0,0 0.002,0.002 0.002,0.002 0.0024,0.0018 0.0072,0.0023 0.0098,0.0039 0.41757,0.224021 0.817717,0.485415 1.195337,0.781282 0.01739,0.0987 0.126957,0.142582 0.126957,0.142582 l 0.05273,0.0078 c 0.05031,0.04173 0.09899,0.08589 0.148425,0.128907 v 0.113282 c 0.105035,-0.0268 0.256484,0.102113 0.273454,0.203131 l -1.777395,1.777395 c -0.511758,-0.48239 -1.098239,-0.860993 -1.730491,-1.125036 -0.642835,-0.26859 -1.334578,-0.418477 -2.048885,-0.439454 z m -8.074364,0.669934 1.650439,1.648474 c -0.665248,0.692045 -1.217032,1.495702 -1.62504,2.376991 -0.48961,1.057079 -0.772853,2.226866 -0.796892,3.46102 h -2.330124 c 0.02445,-1.609166 0.391907,-3.161184 1.06838,-4.574453 0.508281,-1.061841 1.191331,-2.043933 2.033237,-2.912183 z m 14.693581,1.109389 c 0.203191,0.116132 0.359213,0.382307 0.334003,0.433596 -0.02873,0.05838 0.171859,0.04492 0.171859,0.04492 0.0291,-0.263135 0.274814,-0.175604 0.289063,-0.08789 0.01474,0.08771 0.05666,0.277351 0.05666,0.277351 l 0.07227,0.130861 0.101558,0.103519 0.158214,-0.01565 0.04297,0.08789 0.187506,0.02929 c 0,0 0.157647,0.174768 0.171858,0.218755 0.01474,0.04372 0.229649,0.03039 0.287099,0.04492 0.05752,0.01467 0.143965,0.05788 0.158214,0.130861 0.01474,0.07312 0.101558,0.189456 0.101558,0.189456 0,0 0.172992,0.04521 0.187506,0.103516 0.01436,0.05831 0.08595,0.189456 0.08595,0.189456 l 0.144532,0.117191 0.01361,0.130861 0.158214,0.01565 0.04297,0.173832 0.259772,-0.01368 0.144532,-0.10352 c 0.04373,-0.02389 0.07072,-0.05039 0.107416,-0.07617 0.05326,0.121238 0.115278,0.238247 0.164073,0.361334 0.485754,1.224213 0.752934,2.537322 0.773458,3.890722 h -2.330125 c -0.0079,-0.408197 -0.05178,-0.810536 -0.11524,-1.207054 0.01701,-0.06557 0.02759,-0.12433 0.0038,-0.14844 -0.04309,-0.04385 0.04297,-0.248051 0.04297,-0.248051 0,0 0.05753,-0.117614 0,-0.234381 -0.05753,-0.116975 0.0155,-0.248131 0.05858,-0.306647 l -0.11524,-0.05859 -0.11524,-0.01368 -0.08984,0.01565 c -0.02608,-0.09224 -0.05874,-0.182237 -0.08788,-0.273443 l 0.0038,-0.0059 0.07227,0.01561 v -0.08789 l -0.113275,-0.03126 c -0.01852,-0.05524 -0.03515,-0.111188 -0.05469,-0.166019 l -0.01965,-0.314459 -0.09963,-0.07422 0.02948,-0.115237 -0.11524,-0.04492 0.05666,-0.189456 -0.09963,-0.205082 h -0.15039 c -0.06818,-0.136965 -0.14714,-0.268964 -0.222657,-0.402338 0.01323,-0.01202 0.03364,-0.02498 0.0703,-0.03515 0.158138,-0.04385 0.11524,-0.01368 0.11524,-0.01368 l -0.0155,-0.162111 -0.128923,-0.08789 -0.04297,-0.173831 c 0,0 -0.158781,0.02956 -0.144532,0.11719 0.0033,0.02033 -0.0094,0.03417 -0.02948,0.04687 -0.09782,-0.157243 -0.206215,-0.307648 -0.314463,-0.458995 0.0045,-0.01417 0.0064,-0.02786 0.01361,-0.04102 0.05779,-0.102234 0.02873,-0.16222 -0.07227,-0.19141 -0.100991,-0.02918 -0.102314,-0.02748 -0.13085,-0.144532 -0.02873,-0.116767 -0.142566,-0.146486 -0.142566,-0.146486 l -0.04297,-0.175786 -0.117206,0.07227 c -0.05548,-0.06417 -0.11044,-0.128643 -0.167965,-0.19141 l 0.05469,-0.173832 c -0.05805,-0.01183 -0.08451,-0.04467 -0.09959,-0.08008 z m -9.238482,0.341805 -0.05664,0.06836 0.08789,0.07227 0.05469,-0.06641 z m -0.330084,0.0625 0.01565,0.162111 h 0.214848 c 0.08642,0 -0.07227,-0.103516 -0.07227,-0.103516 0,0 -0.172448,0.01459 -0.158207,-0.05859 z m 9.572598,0.02733 -0.08595,0.0098 0.01361,0.130861 0.08595,-0.0098 z m -12.806803,0.349632 1.820332,1.820332 c -0.375624,0.398483 -0.677002,0.860955 -0.927741,1.353551 -0.07099,-0.004 -0.142366,0.0053 -0.162111,0.05859 -0.04308,0.116767 -0.230473,0.08789 -0.230473,0.08789 l -0.02929,0.05859 -0.144532,0.02929 -0.02733,0.08789 -0.173832,0.02929 0.431631,-0.01565 c 0.115259,-0.01459 -0.04347,0.248978 -0.115236,0.234381 l -0.201177,0.01368 -0.07227,0.07422 h -0.187502 l -0.08594,0.117191 -0.273443,-0.01565 c 0,0 -0.157171,0.131999 -0.142581,0.175786 0.01436,0.04386 -0.02899,0.175785 -0.07227,0.175785 -0.04321,0 -0.130396,0.130045 -0.101566,0.173832 0.02899,0.04386 -0.08594,0.19141 -0.08594,0.19141 l -0.02929,0.144532 -0.08594,0.02929 v 0.394552 l -0.171877,0.117191 v 0.175785 l -0.07813,0.08398 h -1.171941 c 0.02317,-1.157919 0.281535,-2.275736 0.751952,-3.300802 0.38431,-0.837787 0.91043,-1.612114 1.566418,-2.294974 z m 11.990409,0.03318 c 0.04131,0.04276 0.06921,0.08046 0.138674,0.130861 0.01814,0.01304 0.03175,0.004 0.04883,0.0098 0.05673,0.06242 0.111423,0.125615 0.166001,0.189456 l -0.02721,0.03515 c 0,0.162361 0.0751,0.122637 0.150391,0.107424 0.02457,0.02994 0.05216,0.05765 0.07616,0.08789 0.0083,0.09543 0.01285,0.225918 0.156249,0.212894 0.221824,0.298309 0.421274,0.609385 0.599633,0.931672 -0.01625,0.01984 -0.04687,0.04687 -0.04687,0.04687 l -0.23048,0.02929 v 0.234381 l -0.11524,0.04297 0.0155,0.146486 0.158215,-0.01368 c 0,0 -2.42e-4,0.174554 0.04297,0.101566 0.04328,-0.07312 0.40196,0.01402 0.373046,0.189456 -0.01172,0.07201 0.361595,0.264319 0.318356,0.498038 0.03062,0.0048 0.04694,0.01746 0.06641,0.02929 0.06939,0.200591 0.131606,0.403435 0.185541,0.609385 l -0.02343,0.04687 c 0,0 0.03326,0.04171 0.04883,0.05469 0.04449,0.178938 0.08655,0.358665 0.119134,0.541012 -0.01172,0.157621 -0.04687,0.309145 -0.124992,0.355476 -0.172577,0.102306 0.0155,0.04297 0.0155,0.04297 l -0.02948,0.320321 c 0.04328,0.146093 0.114975,0.07318 0.158214,0 0.02116,-0.03549 0.04755,-0.05677 0.0703,-0.07813 0.02192,0.21848 0.03844,0.438359 0.04297,0.660183 h -1.748066 c 0.0083,-0.01153 0.03704,-0.04102 0.03704,-0.04102 l 0.07227,-0.203127 0.244162,-0.07422 0.02948,-0.189456 -0.128922,-0.01368 c 0,0 0.142717,-0.263677 0.214832,-0.263677 0.07211,0 0.546984,3.3e-5 0.589845,-0.02929 0.0432,-0.02906 0.128922,-0.262788 0.128922,-0.306646 0,-0.04386 0.117281,-0.05956 0.160142,-0.07422 0.0432,-0.01448 0.143058,-0.130941 0.171858,-0.189457 0.02872,-0.05879 -0.07117,-0.423693 -0.128922,-0.365241 -0.05753,0.05852 -0.187506,0.08789 -0.187506,0.08789 l -0.04297,0.160161 -0.07227,0.05859 c 0,0 0.01436,0.04418 0,0.146486 -0.01436,0.102174 -0.144532,0.160161 -0.144532,0.160161 l -0.05666,0.07422 c 0,0 -0.347043,0.01878 -0.388695,0 -0.129564,-0.05838 -0.04339,-0.235307 0.04297,-0.220706 0.08621,0.01466 -0.01361,-0.248051 -0.01361,-0.248051 l 0.11524,-0.01368 c 0,0 0.01323,-0.263676 0.05666,-0.263676 0.0432,0 -0.01436,-0.08701 -0.07227,-0.130861 -0.05752,-0.04365 -0.129716,-0.190307 -0.187506,-0.175786 -0.05752,0.01451 -0.287098,0 -0.287098,0 l -0.04297,0.08789 -0.158215,0.02929 c 0,0 0.01399,0.113309 -0.01361,0.14649 -0.0867,0.102174 -0.41912,0.320253 -0.275382,-0.04492 l 0.04297,-0.08789 v -0.130983 l -0.257844,-0.01368 c 0,0 -0.128923,-0.04506 -0.128923,-0.103519 0,-0.05845 -0.0155,-0.130861 -0.0155,-0.130861 l -0.302746,-0.335943 -0.359365,-0.04297 -0.02948,-0.07422 -0.214832,-0.02929 c -0.03061,-0.01553 -0.05847,-0.01656 -0.08788,-0.0254 -0.102918,-0.164893 -0.21385,-0.325582 -0.334003,-0.480463 -0.0029,-0.01021 -0.0079,-0.02782 -0.0098,-0.03515 -0.01285,-0.05127 -0.164942,-0.256726 -0.251949,-0.271489 -0.03553,-0.03973 -0.06682,-0.0822 -0.103523,-0.121095 z m 1.421887,0.173831 c -0.01965,0.0018 -0.03137,0.01572 -0.03137,0.04492 0,0.05852 0.07193,0.08899 0.04297,0.162114 -0.02873,0.07291 0.03024,0.130861 0.08788,0.130861 0.05779,0 0.100802,0.02925 0.158214,0.05859 0.05752,0.02906 0.101255,0.07227 0.144532,0.130861 l 0.142566,-0.04297 c 0,0 0.01436,-0.147307 -0.04297,-0.103516 -0.05752,0.04379 -0.100348,-0.102552 -0.158214,-0.08789 -0.05745,0.01466 -0.08716,-0.05788 -0.144532,-0.130861 -0.05786,-0.07319 -0.04313,-0.08701 -0.11524,-0.130861 -0.03591,-0.02192 -0.06418,-0.03307 -0.08398,-0.03126 z m -7.572433,0.14649 v 2.335983 c -0.296525,0.01648 -0.577296,0.08339 -0.845724,0.177739 h -0.03318 l -0.01368,-0.16016 0.07227,-0.04492 -0.115236,-0.04297 -0.08594,0.11719 -0.02929,0.130861 -0.144536,0.02929 v 0.07227 h -0.09961 v 0.09766 c -0.21038,0.114605 -0.410654,0.245546 -0.587917,0.404342 L 28.292215,21.97694 c 0.426603,-0.400903 0.907936,-0.724172 1.425817,-0.964857 0.655118,-0.304508 1.369085,-0.477137 2.109433,-0.500004 z m 0.343755,0.002 c 0.670766,0.02067 1.320593,0.16295 1.923855,0.416021 0.58924,0.246925 1.133654,0.600087 1.611358,1.048839 l -0.09959,0.09961 c -0.03957,-0.04937 -0.195318,-0.07919 -0.195318,-0.132816 0,-0.05852 -0.145103,-0.132493 -0.130861,-0.04492 0.01432,0.08757 -0.09967,0.130623 -0.128907,0.101565 -0.02857,-0.02925 -0.115237,0.08789 -0.115237,0.08789 0,0.04372 -0.02944,0.102461 0.05664,0.117191 0.08676,0.01448 0.245527,-0.05827 0.259769,0.02929 0.005,0.03005 0.01274,0.05237 0.01954,0.07617 l -0.564483,0.564483 c -0.08104,0.0058 -0.160161,0.002 -0.160161,0.002 -0.04308,0.131571 -0.244964,-0.01387 -0.187502,-0.101566 0.05759,-0.08764 0.05859,-0.146486 0.05859,-0.146486 l -0.07227,-0.01368 -0.08594,0.160161 c -0.201544,0 -0.25995,0.116339 -0.216802,0.189456 0.04314,0.07291 -0.05704,-0.01436 -0.08594,0.08789 -0.02857,0.102238 0.01516,0.102631 0.101566,0.146486 0.08642,0.04386 -0.04392,0.04428 0.01368,0.11719 0.03776,0.04801 0.119299,0.03394 0.146486,0.04687 l -0.07617,0.07617 c -0.105391,0.05164 -0.244147,0.03712 -0.244147,0.03712 -0.0035,0.0322 -0.02351,0.05331 -0.05078,0.06836 -0.229278,-0.188096 -0.477817,-0.345354 -0.746094,-0.458995 0.0447,-0.03239 0.115033,-0.03602 0.150395,-0.13477 0.05786,-0.160761 0.08594,-0.423844 0.08594,-0.423844 0,0 -0.229834,-0.0144 -0.244147,0.05859 -0.01425,0.07312 -0.158207,0.117191 -0.158207,0.117191 0,0 -0.115485,0.04305 -0.07227,0.101565 0.04321,0.05852 -0.08594,0.08789 -0.08594,0.08789 0,0 -0.0073,0.04521 -0.0098,0.08203 -0.225816,-0.06612 -0.457445,-0.115818 -0.697299,-0.128903 z m 7.658229,0.496111 -0.171896,0.01368 c 0.04301,0.05838 0.128922,0.101565 0.128922,0.16016 0,0.05852 -0.02797,0.10253 0.05858,0.117191 0.08614,0.01451 0.143172,-0.01448 0.171859,0.05859 0.02873,0.07298 0.02986,0.189596 0.0155,0.248052 -0.01436,0.05852 0.01398,0.146486 0.08595,0.146486 0.07211,0 0.08595,0.01474 0.08595,0.05859 0,0.04372 0.08595,-0.160161 0.08595,-0.160161 -0.07219,-0.05838 -0.128923,-0.19141 -0.128923,-0.19141 0,0 -0.07227,-0.203237 -0.07227,-0.232427 0,-0.02918 -0.101406,-0.05969 -0.144532,-0.07422 -0.04328,-0.01467 -0.11524,-0.144532 -0.11524,-0.144532 z m -1.371126,0.05664 -0.144532,0.01565 0.0079,0.08594 0.144532,-0.01368 z m 0.09181,0.103519 v 0.07422 h 0.08595 v -0.07422 z m -0.117206,0.146486 c 0,0 -0.08523,0.116975 -0.257806,0.05859 0,0 -0.02873,0.277422 -0.11524,0.335946 h -0.201189 c 0,-1e-6 0.04286,0.07327 0.08595,0.11719 0.04328,0.04379 0.143701,0.131077 0.04298,0.189456 -0.100727,0.05832 0.01361,0.04297 0.01361,0.04297 0,0 -0.01285,0.307667 -0.142566,0.263676 -0.129301,-0.04351 -0.173824,0.160372 -0.173824,0.218756 0,0.05831 0.511002,0.08069 0.43163,0 -0.04316,-0.04386 0.05858,-0.14649 0.05858,-0.14649 0,0 0.346136,0.02929 0.417986,0.02929 0.072,0 0.129225,-0.01489 0.08595,-0.08789 -0.04316,-0.07318 -0.173824,-0.05664 -0.173824,-0.05664 0,0 -0.17182,0.04266 -0.330072,-0.04492 -0.158139,-0.08757 0.02797,-0.11719 0.05666,-0.11719 0.02872,0 0.159084,-0.102733 0.101558,-0.175785 -0.05753,-0.07304 0,-0.203056 0,-0.144532 0,0.05838 0.158554,0.08683 0.187506,0.04297 0.02873,-0.04372 -8.7e-5,-0.174894 -0.07227,-0.218756 -0.07204,-0.04393 0.129792,-0.07357 0.07227,-0.14649 -0.05745,-0.07319 -0.08788,-0.16016 -0.08788,-0.16016 z m 0.289064,0.437527 v 0.103519 h 0.08595 v -0.103519 z m 0.193365,0.05273 -0.04297,0.08594 0.07812,0.04102 0.04297,-0.08789 z m 1.417993,0.123049 c -0.07185,-0.04379 0.01398,0.160266 -0.02948,0.189456 -0.0432,0.02933 -0.07196,0.08902 -0.11524,0.132815 -0.0432,0.04393 0.08788,0.102639 0.08788,0.146486 0,0.04379 0.02721,0.261723 0.02721,0.261723 0,0 0.100915,0.04514 0.11524,0.103519 0.01436,0.05852 -2.42e-4,0.174795 0.04297,0.189456 0.04309,0.01467 0.130547,0.07248 0.101558,0.130862 -0.02873,0.05866 -0.02948,0.175785 -0.02948,0.175785 l 0.05858,0.130861 0.11524,0.07422 c 0,0 0.04282,-0.350652 -0.02948,-0.365242 -0.07185,-0.01474 -0.04297,-0.220706 -0.04297,-0.220706 0,0 0.07208,-0.277351 -0.04297,-0.277351 -0.11524,10e-7 -0.02986,-0.145734 -0.101558,-0.189456 -0.07211,-0.04386 -0.02797,-0.248263 -0.05666,-0.306647 -0.02873,-0.05845 -0.02948,-0.131866 -0.101558,-0.175785 z m -3.513745,0.275397 -0.144532,0.01565 0.0079,0.08594 0.144532,-0.01368 z m -2.183627,0.0059 c -0.04495,-10e-6 -0.08984,0.01172 -0.08984,0.01172 l -0.228523,0.02929 -0.01565,0.101566 0.158207,0.01565 c 0,0 0.07227,0.05791 0.07227,0.101566 0,0.04386 0.100678,0.08789 0.158207,0.08789 0.05752,0 0.216802,-0.117191 0.216802,-0.117191 0,0 0.07119,-0.204053 0.01368,-0.189456 -0.0578,0.01451 -0.173261,0.10138 -0.187503,0.01368 -0.0073,-0.04382 -0.05271,-0.05468 -0.09766,-0.05469 z m -6.585957,0.0078 1.41017,1.412135 -0.13672,-0.0059 c -0.05779,0.131364 -0.203127,-0.01565 -0.203127,-0.01565 -0.02857,-0.08757 -0.228522,0 -0.228522,0 0,0.160901 -0.273443,-0.07227 -0.273443,-0.07227 l -0.503896,-0.3652 c -0.287832,-0.262928 -0.72009,0.07357 -0.734377,0.146486 0.0072,0.102276 -0.07561,0.112262 -0.160161,0.09766 0.225185,-0.427586 0.49116,-0.836766 0.830076,-1.197302 z m 5.662222,0.03906 -0.08398,0.01758 0.02929,0.132815 0.08398,-0.01954 z m 0.472677,0.02343 -0.316413,0.01368 0.0059,0.08789 0.314459,-0.01561 z m -2.703171,0.02733 v 0.08789 h 0.115236 v -0.08789 z m 0.7422,0.01565 -0.01368,0.08594 0.101566,0.01565 0.01172,-0.08789 z m 0.185552,0.04492 -0.01368,0.08594 0.101566,0.01565 0.01172,-0.08789 z m -1.166045,0.02929 -0.01172,0.08594 0.09961,0.01368 0.01172,-0.08594 z m 2.369168,0.002 -0.04297,0.01368 0.02733,0.08398 0.04297,-0.01565 z m 3.486381,0.03712 -0.04297,0.101566 0.07812,0.03515 0.0449,-0.103519 z m -1.06838,0.01758 c 0,0 0.08984,0.02733 0.162107,0.04883 0.06524,0.07966 0.129187,0.159446 0.189471,0.242193 l -0.179682,-0.02733 -0.11524,-0.01368 -0.216798,-0.01565 c -0.215778,0.146093 -0.257807,0.322272 -0.257807,0.322272 -0.104237,0.197896 -0.323212,-0.02944 -0.292976,-0.162115 l 0.376959,-0.376959 c 0.01776,0.0015 0.04018,0.01172 0.05858,0.01172 0.08614,0 0.275382,-0.02929 0.275382,-0.02929 z m -3.425832,0.02929 v 0.08789 h 0.113283 v -0.08789 z m -1.457074,0.01757 -0.02147,0.08594 0.115236,0.02929 0.02147,-0.08594 z m -0.04102,0.121094 -0.08594,0.01368 0.01368,0.08789 0.08594,-0.01368 z m 1.709023,0 -0.08594,0.0039 0.0039,0.101566 0.08789,-0.0039 z m 4.533254,0.03712 c -0.05575,2.5e-5 -0.11626,0.0083 -0.152356,0.01565 -0.07185,0.01459 -0.05753,0.07142 0,0.144532 l 0.171897,-0.02929 c 0,0 0.130547,-0.05777 0.101558,-0.101566 -0.01436,-0.02192 -0.06535,-0.02933 -0.121099,-0.02929 z m -0.964857,0.0918 c 0.05564,0.07657 0.110781,0.153376 0.162108,0.232426 -0.0155,0.03738 -0.02343,0.07939 -0.01361,0.128908 0.04312,0.219277 0.116336,0.306646 -0.02721,0.306646 -0.144154,0 -0.173824,-0.11719 -0.173824,-0.11719 0,0 -0.11524,-0.04275 -0.11524,0.01565 0,0.05852 -0.04328,0.174047 0,0.232427 0.04301,0.05838 -0.05639,0.147374 -0.09963,0.10352 -0.04286,-0.04386 -0.159689,-0.174905 -0.13085,-0.218756 0.02872,-0.04386 -0.201151,-0.321455 0.02948,-0.365242 0.230366,-0.04386 -0.01436,-0.176031 0.07227,-0.205081 l 0.11524,-0.05859 h 0.11524 z m -24.020126,0.05273 c -0.23011,0.485188 -0.323614,1.033646 -0.445313,1.562525 -0.257164,1.366704 -3.91e-4,2.818072 0.3711,4.074411 0.464816,1.571786 2.003152,2.696633 2.783261,4.136775 l 0.107424,0.08398 c -0.113596,-0.781697 -0.172542,-1.622999 0.04885,-2.36913 0.336263,-1.194316 0.760531,-2.353974 0.982432,-3.591869 0.172372,-0.961531 0.371074,-2.040947 0.257818,-2.972732 -0.128628,0.502006 -0.261704,0.999326 -0.537119,1.425817 -1.047782,1.622432 -2.124401,3.523836 -1.390667,5.582094 -0.01701,0.02203 -0.04086,0.0499 -0.06836,0.03515 -0.294737,-0.680064 -0.359448,-1.452841 -0.550801,-2.181662 -0.507752,-1.93406 -1.994307,-3.549802 -1.558633,-5.785437 z m 39.273844,0 c 0.435675,2.235483 -1.05088,3.851037 -1.558632,5.785437 -0.191361,0.728858 -0.256068,1.501598 -0.550801,2.181699 -0.02759,0.01474 -0.05137,-0.01315 -0.06837,-0.03515 0.733734,-2.058295 -0.342848,-3.959511 -1.390667,-5.582094 -0.27542,-0.426453 -0.4085,-0.92381 -0.537119,-1.425817 -0.113275,0.931747 0.08546,2.011202 0.257806,2.972732 0.221901,1.237896 0.646161,2.397553 0.982432,3.59187 0.221371,0.746131 0.162447,1.587432 0.04883,2.369205 l 0.107416,-0.08398 c 0.78011,-1.440142 2.318446,-2.564989 2.783261,-4.136775 0.371497,-1.256226 0.628245,-2.707593 0.371081,-4.074411 -0.121703,-0.528879 -0.21521,-1.077337 -0.445312,-1.562525 z m -19.666403,0.378905 0.02733,0.349617 -0.158207,-0.05469 h -0.101565 l -0.04297,-0.08789 -0.08594,-0.01565 v 0.322271 l 0.08594,0.07227 0.07227,0.07422 0.144536,0.01368 0.02929,0.175786 0.359383,0.01565 0.04297,0.07227 0.216802,0.01368 0.416021,0.423845 -0.02733,0.132815 -0.07227,0.04297 c 0.02895,0.102235 -0.187503,0.04297 -0.187503,0.04297 v 0.08789 l 0.09961,0.01565 0.101565,0.05859 0.144536,-0.248052 c 0.158267,-0.102234 0.229494,0.04322 0.244147,0.130861 0.01425,0.08764 -0.07227,0.07227 -0.07227,0.07227 v 0.205081 l 0.08594,0.02929 c 0.144154,0.175351 -0.05664,0.277351 -0.05664,0.277351 l -0.04297,0.146486 c -0.0432,0.13153 -0.201162,0.101592 -0.201162,0.101592 l -0.05859,0.08789 -0.171878,0.04492 0.341805,0.04297 c 0.0325,-0.116903 0.118895,-0.146346 0.162111,-0.08789 0.04328,0.05852 0.04297,0.160161 0.04297,0.160161 l 0.08594,0.01565 -0.01368,0.160161 0.08594,0.02929 v 0.466818 l 0.09961,0.117191 c 0.172781,-0.07284 0.174384,0.0452 0.08789,0.103519 -0.08629,0.05831 -0.02929,0.320318 -0.02929,0.320318 l -0.07227,0.07227 v 0.117191 l -0.08594,0.05859 v 0.160161 c -0.144018,-0.07298 -0.31805,-0.04393 -0.361334,0 -0.129296,-0.08771 -0.402338,-0.05748 -0.402338,0.01561 0.08622,0.116836 -0.09961,0.146487 -0.09961,0.146487 l -0.101565,0.11719 c 0.07211,0.146165 -0.07227,0.16016 -0.07227,0.16016 v 0.277348 l -0.171881,0.16016 0.0078,0.244144 c -0.08931,0.0088 -0.17599,0.02733 -0.267585,0.02733 -0.676284,0 -1.308687,-0.252904 -1.81058,-0.697261 0.0085,-0.0049 0.01791,4.3e-4 0.0254,-0.01172 0.07204,-0.116767 0.187502,-0.130861 0.187502,-0.130861 l 0.04297,-0.103515 0.388694,0.01565 c 0.02884,-0.160829 0.216802,-0.102272 0.216802,-0.02929 0,0.07305 0.144536,0.01368 0.144536,0.01368 l 0.09961,-0.16016 h 0.158207 l 0.01368,-0.175786 0.07227,-0.04297 v -0.263676 c 0.230378,-0.07298 0.201177,-0.291022 0.201177,-0.291022 l 0.05859,-0.07422 -0.02929,-0.101566 c -0.115319,-0.04399 -0.05648,-0.146448 0.01565,-0.11719 0.07218,0.02918 -0.101566,-0.130861 -0.101566,-0.130861 -0.08629,0.07319 -0.158206,-0.08789 -0.158206,-0.08789 h -0.216802 v -0.205081 l -0.02733,-0.189457 -0.216801,-0.101565 -0.158207,0.144536 -0.02929,0.205081 v 0.130861 l -0.142582,0.02929 -0.02929,0.394553 -0.115237,0.04492 0.01368,0.146486 -0.316413,0.08594 -0.02929,0.19141 -0.113282,0.07227 -0.05859,0.175785 -0.07031,0.408197 c -0.205195,-0.215365 -0.366323,-0.458654 -0.490252,-0.720732 0.02109,-0.09368 0.02733,-0.185552 0.02733,-0.185552 -0.129296,-0.05838 -0.05612,-0.26331 0.08789,-0.08789 0.143818,0.175015 -0.08789,-0.349617 -0.08789,-0.349617 l -0.113263,-0.101796 -0.140628,-0.01368 c -0.0223,-0.141765 -0.04297,-0.285371 -0.04297,-0.43163 0,-0.06307 0.01338,-0.123204 0.01758,-0.185552 0.03808,-0.02672 0.07813,-0.01368 0.07813,-0.01368 l 0.08789,0.07422 0.128907,0.101566 0.01368,0.08789 -0.08594,0.04297 -0.01368,0.11719 0.04297,0.162111 h 0.115236 c 0.04314,-0.233738 0.345361,-0.233991 0.43163,-0.08789 l 0.08594,-0.205082 c -0.201475,-0.102234 -0.0028,-0.262572 0.05469,-0.189456 0.05753,0.07312 0.189456,-0.189456 0.189456,-0.189456 0,0 0.100738,0.130441 0,-0.04492 -0.100738,-0.175358 0.07227,-0.263676 0.07227,-0.263676 -0.02865,-0.175223 0.187502,-0.144536 0.187502,-0.144536 l 0.01368,-0.234381 -0.201176,-0.01565 c -0.04287,0.204548 -0.215264,0.03012 -0.128908,-0.01368 0.08649,-0.04392 0.171878,-0.130862 0.171878,-0.130862 v -0.146489 l 0.08789,-0.02929 0.01368,-0.14649 h 0.214848 l 0.187502,-0.08789 0.04297,-0.07227 0.203127,-0.01565 0.287114,-0.261726 -0.02929,-0.117191 c -0.172781,0 -1e-6,-0.130861 0,-0.130861 l 0.02929,-0.218756 h -0.158275 l -0.02733,-0.302689 c 0.196539,-0.04639 0.39682,-0.07803 0.603527,-0.08008 z m 8.765653,0.845724 -0.01361,0.11719 0.08595,0.01172 0.01361,-0.11719 z m -0.05273,0.394553 -0.04297,0.08789 0.07616,0.03906 0.04297,-0.08789 z M 25.78967,25.004452 c 0.113305,0.0073 0.193364,0.06641 0.193364,0.06641 l 0.201177,-0.01561 c 0.05745,0.03887 0.0799,0.08703 0.101566,0.134766 -0.01504,0.117069 -0.02143,0.236335 -0.02929,0.355475 -0.0175,0.03099 -0.04297,0.0957 -0.04297,0.0957 -0.01516,0.02313 -0.01429,0.07234 -0.01954,0.113282 H 25.63539 l 0.002,-0.01172 -0.158207,-0.01368 c -0.17278,-0.102374 -0.08594,-0.482428 -0.08594,-0.482428 0.136761,-0.204587 0.283186,-0.249484 0.39648,-0.242194 z m 4.956948,0.271489 -0.02929,0.07227 h -0.07031 l -0.01565,0.117191 h 0.08594 l 0.01565,0.08789 -0.05859,0.05859 -0.02733,0.07227 -0.115236,0.02929 -0.259772,0.248051 -0.01368,0.117191 -0.07227,0.101565 -0.08594,0.220706 -0.302738,0.01368 -0.05859,0.263677 0.04297,0.218755 0.259772,0.101566 0.02929,-0.144536 0.08594,-0.04492 0.01565,-0.14649 0.05664,-0.101566 0.08594,-0.101565 0.02929,-0.117191 0.142582,-0.08789 0.173831,-0.02929 0.07227,-0.08789 0.02929,-0.175786 0.0098,-0.130861 0.0625,-0.08789 0.171877,-0.07227 v -0.277351 h -0.08594 l -0.01565,-0.10352 z m 9.033249,0.08789 -0.0155,0.08594 0.158215,0.02929 0.0155,-0.08594 z m -0.36133,0.126956 -0.04297,0.02343 -0.107416,0.06055 -0.09181,-0.05859 -0.04687,0.07422 0.11524,0.07227 0.02154,0.01368 0.02343,-0.01172 0.08595,-0.04883 0.01172,0.0254 0.08009,-0.03126 -0.02948,-0.07227 z M 18.07626,26.098253 h 2.574287 c 0.01588,1.077867 0.1815,2.131317 0.486322,3.136767 l 0.333992,-0.08398 c -0.298434,-0.978428 -0.460431,-2.00391 -0.47657,-3.053014 h 2.328159 c 0.0068,0.344163 0.04745,0.68339 0.09375,1.019548 -0.166934,0.01893 -0.32618,0.07227 -0.32618,0.07227 l -0.07227,0.232427 c -0.158128,0.02933 -0.259773,0.292976 -0.259773,0.292976 -0.129572,0.04386 -0.230722,0.204193 -0.187502,0.248051 0.04307,0.04386 -0.07227,0.05859 -0.07227,0.05859 v 0.322271 l -0.07031,0.101566 0.01368,0.349617 c 0.08649,0 0.07227,0.162111 0.07227,0.162111 -0.144018,0.01451 -0.115237,0.203131 -0.115237,0.203131 l -0.302742,0.103519 -0.05664,0.08789 -0.375008,-0.01561 -0.0918,0.0918 c -0.03111,-0.09297 -0.07296,-0.181531 -0.101566,-0.275397 l -0.333992,0.08398 c 0.01032,0.03398 0.0265,0.06574 0.03712,0.09961 h -0.431668 l -0.02733,-0.07227 -0.144536,-0.02929 -0.01561,-0.162111 -0.214848,0.01565 -0.04297,0.08789 -0.230473,0.01368 c 0.01436,0.146161 -0.231213,0.364966 -0.259768,0.306647 -0.02918,-0.05852 -0.18734,-0.21913 -0.115237,-0.248052 0.07204,-0.02941 0.259772,-0.05859 0.259772,-0.05859 v -0.101615 l -0.533226,-0.01565 -0.05664,0.08789 -0.216802,0.01565 v 0.232427 l -0.09961,0.02929 c -0.07211,0.04365 0.01368,0.205081 0.01368,0.205081 0.100738,0.102106 -0.01368,0.263676 -0.01368,0.263676 -0.08649,0.08771 0.07227,0.248052 0.07227,0.248052 0.115319,0.02899 -0.07227,0.11719 -0.07227,0.11719 0.02857,0.146025 0.115236,0.189457 0.115236,0.189457 -0.08649,0.146024 0.05664,0.218752 0.05664,0.218755 l 0.01565,0.248052 0.09961,0.05859 v 0.160161 l 0.05859,0.103512 h 0.230472 l -0.01565,-0.365242 c -0.201616,-0.23381 0.172852,-0.292579 0.187502,-0.205081 0.01451,0.08771 0.171877,0.130861 0.171877,0.130861 0.02884,0.219209 0.273938,0.351688 0.345709,0.132815 0.07204,-0.219417 0.130623,-0.08843 0.173832,0.01368 0.04321,0.102375 0.316413,0.351571 0.316413,0.351571 h 0.214848 l 0.02929,0.203127 c 0.244624,-0.01466 0.317241,0.01591 0.417987,0.351571 0.101006,0.335845 0.373054,0.423845 0.373054,0.423845 l 0.203127,-0.01565 c 0,-0.175015 0.201177,0.02948 0.201177,0.11719 0,0.0873 0.388694,0.423844 0.388694,0.423844 l 0.388695,0.08789 0.111331,0.0918 c 0.229664,0.287443 0.465156,0.57057 0.724626,0.837901 l -1.82037,1.82037 C 20.423151,34.001088 19.273018,32.019479 18.640729,29.863632 18.286334,28.65484 18.091855,27.390639 18.076283,26.097939 Z m 5.591921,0 h 1.009797 l 0.0098,0.08398 -0.216802,0.232426 0.02929,0.234381 -0.130861,0.04297 -0.02733,0.10352 -0.05859,0.306646 0.144532,0.01368 c 0.07177,-0.02933 0.05753,0.189706 0,0.218756 -0.0578,0.02933 -0.215464,0.0881 -0.128907,0.146486 0.08642,0.05866 -0.230473,0.04474 -0.230473,-0.04297 0,-0.08744 -0.17379,-0.162141 -0.216801,-0.132815 -0.0234,0.01569 -0.05384,-0.02075 -0.07812,-0.06055 -0.05983,-0.376316 -0.09762,-0.759398 -0.105466,-1.146543 z m 1.513693,0 h 0.02733 c 0.04191,0.0065 0.08203,0.02343 0.08203,0.02343 l 0.201177,0.01565 0.02147,-0.03906 h 0.683617 l 0.05859,0.375008 -0.187502,0.160161 c -0.158267,0.08771 -0.159117,0.292087 0.01368,0.335946 0.115051,0.01448 0.07317,0.293471 -0.09961,0.103519 -0.258869,0 0.144551,0.232487 0.02929,0.173832 0.259205,0.131571 0.201177,-0.117191 0.201177,-0.117191 l 0.130861,-0.105469 c 0.05521,0.286977 0.129194,0.568527 0.226564,0.84183 0.264138,0.740613 0.680933,1.425099 1.23438,2.011731 l -1.818404,1.818405 c -0.120607,-0.125563 -0.226171,-0.26088 -0.337896,-0.392588 0.02445,-0.08479 0.07422,-0.169923 0.07422,-0.169923 0.187094,-0.116975 -0.04297,-0.306647 -0.04297,-0.306647 0.02899,-0.175562 -0.09961,-0.38087 -0.09961,-0.38087 -0.258869,-0.17529 -0.187502,-0.509793 -0.187502,-0.509793 v -0.234381 c -0.215789,-0.204272 0.08594,-0.23438 0.08594,-0.23438 0.100602,-0.174947 -0.07227,-0.306647 -0.07227,-0.306647 l -0.01368,-0.189456 -0.230472,-0.02929 -0.02929,-0.68751 -0.517579,-0.744166 c -0.101006,-0.02948 -0.02929,-0.205081 -0.02929,-0.205081 0.129573,-0.07312 -0.02929,-0.248051 -0.02929,-0.248051 l -0.01368,-0.320322 0.302739,-0.02929 0.07031,-0.117191 h 0.144532 l -0.01368,-0.38087 c 0.03285,-0.0868 0.0859,-0.108932 0.13477,-0.111332 z m 13.134873,0 h 2.013696 c -0.02305,1.135959 -0.277196,2.215829 -0.712908,3.197316 -0.39357,0.886506 -0.935641,1.692506 -1.597676,2.384816 -0.02683,-0.295724 -0.09181,-0.619137 -0.09181,-0.619137 l -0.11524,-0.05859 0.02948,-0.351571 H 37.68408 l -0.259773,0.335942 -0.02948,0.0918 -0.146498,-0.146486 0.07616,-0.07617 -0.0155,-0.175786 0.101558,-0.08789 v -0.144536 l 0.08595,-0.02929 0.01361,-0.322271 0.07227,-0.01368 v -0.701192 l -0.214832,-0.205081 c -0.01436,0.07318 -0.244125,0.07227 -0.244125,0.07227 0,0 -0.05836,0.103515 -0.101558,0.103515 -0.04309,0 0.05821,0.130979 0.02948,0.218756 -0.02873,0.08751 -0.144532,0.08789 -0.144532,0.08789 l -0.216798,0.05859 -0.05666,0.07227 h -0.23048 l -0.02154,-0.134769 c 0.02154,-0.02529 0.04335,-0.05056 0.06444,-0.07617 l 0.187506,-0.05273 0.144532,-0.07227 0.0703,-0.146486 c 0.01436,-0.145885 0.187506,-0.130861 0.187506,-0.130861 0,0 0.331396,-0.276985 0.34572,-0.408197 0.01474,-0.131565 0.130623,-0.498039 0.332038,-0.498039 h 0.373047 c 0.143814,-0.05859 0.101558,-0.248051 0.101558,-0.248051 l 0.187506,-0.02929 0.02721,0.103516 c 0,0 0.260453,0.02823 0.289064,-0.01565 0.0291,-0.04365 0.0861,-0.145412 0.158214,-0.101565 0.07193,0.04379 0.302746,-0.10352 0.302746,-0.10352 0.01436,-0.102234 0.373047,-0.05859 0.373047,-0.05859 L 39.56874,27.6862 c 0,0 -0.243897,-0.335947 -0.287098,-0.335947 -0.04328,0 -0.273832,-0.203985 -0.302746,-0.130861 -0.230027,-0.05838 -0.214833,-0.38087 -0.214833,-0.38087 l -0.08788,-0.203127 c 0,-0.117043 -0.214341,-0.36528 -0.257806,-0.335946 -0.09063,-0.0674 -0.107643,-0.13858 -0.101558,-0.201177 z m 2.357451,0 h 2.32816 c -0.02457,1.599754 -0.393306,3.116735 -1.03323,4.482608 -0.522077,1.114491 -1.223231,2.128331 -2.070353,3.002025 l -0.06444,-0.06445 c -0.0087,-0.160826 -0.01965,-0.369147 -0.01965,-0.369147 l -0.07227,-0.07227 -0.01361,-0.365242 c 0.05753,-0.189883 -0.274059,-0.468897 -0.302746,-0.410162 -0.02873,0.05824 -0.216798,0.01565 -0.216798,0.07422 0,0.05824 -0.114106,0.348804 -0.05666,0.451171 0.0027,0.0048 -0.002,0.0054 0,0.0098 L 38.25419,31.93813 c 0.705727,-0.733696 1.265751,-1.569971 1.669941,-2.474657 0.467877,-1.047819 0.72712,-2.186575 0.750024,-3.365319 z m 2.67388,0 h 2.572321 c -0.0257,2.105767 -0.522001,4.099734 -1.386736,5.88295 -0.658633,1.358238 -1.531041,2.593073 -2.574287,3.662171 l -1.814473,-1.814473 c 0.889113,-0.916215 1.606709,-1.95621 2.134795,-3.08015 0.676435,-1.439462 1.044152,-3.016274 1.06838,-4.650423 z m -14.59191,0.002 h 0.162115 c 0.0056,0.102518 0.02752,0.200462 0.04297,0.300788 l -0.09961,0.02733 -0.02929,-0.05664 -0.04297,0.16016 h -0.259769 l -0.01368,-0.175785 0.158207,-0.04297 0.05859,-0.08789 z m 4.263769,0.199223 c -0.02389,-0.0039 -0.04874,0.01387 -0.07031,0.07227 v 0.189456 c 0,0 0.201601,0.321451 0.273443,0.365242 0.07212,0.04392 0.18816,-0.05233 0.115236,-0.101566 -0.215588,-0.146093 -0.20225,-0.337186 -0.259772,-0.468746 -0.01247,-0.02831 -0.0347,-0.05277 -0.05859,-0.05664 z m -7.527455,0.130861 0.01561,0.101565 h 0.07227 c 0.115052,0.20462 0.01368,0.701192 0.01368,0.701192 0,0 -0.17221,0.01323 -0.201177,-0.07422 -0.02857,-0.08764 -0.100496,0.190522 -0.04297,0.234381 0.05752,0.04358 0.25913,-6.02e-4 0.273443,0.16016 0.01425,0.160554 0.128907,-0.101565 0.128907,-0.101565 v -0.994149 z m 6.923853,0.291022 -0.259772,0.19141 c 0.129504,0.01482 0.143553,0.144744 0.158206,0.203131 0.03114,0.127373 0.03031,-0.204265 0.08789,-0.189456 0.05752,0.01451 0.01368,-0.205082 0.01368,-0.205082 z m -5.750287,0.123048 h 0.002 c 0.119454,0.04936 0.250006,0.238595 0.250006,0.271489 0,0.04379 0.5762,0.01368 0.5762,0.01368 0.158267,0.102235 0.214848,0.365242 0.214848,0.365242 0.158535,-0.204688 0.490705,-0.01346 0.246097,0.103516 0.230102,0.146093 0.228522,0.277351 0.228522,0.277351 0.187363,-0.05838 0.187503,0.087 0.187503,0.130861 0,0.04386 0.05859,-0.218756 0.05859,-0.218756 -0.215929,-0.160761 0.286399,-0.219923 0.142582,0.07227 l -0.08594,0.132815 0.144532,0.117191 0.01368,0.335942 c 0.316754,-0.02959 0.230431,-0.424109 0.230431,-0.424109 l 0.144536,-0.02929 c 0,-0.131572 0.09961,-0.05859 0.09961,-0.05859 -0.08192,-0.404569 0.09514,-0.509453 0.173831,-0.544943 0.113872,0.210149 0.243395,0.412014 0.406269,0.593775 l -1.650438,1.652366 c -0.509184,-0.54192 -0.89459,-1.171904 -1.142608,-1.853555 -0.109979,-0.302916 -0.185756,-0.616831 -0.240239,-0.93753 z m 13.060793,0.341805 c -0.119965,-0.0282 -0.304938,0.07094 -0.257807,0.134769 0.08644,0.116763 0.23135,0.05754 0.289064,0.07227 0.05753,0.01459 0.114182,0.04422 0.05666,-0.130861 -0.01436,-0.04384 -0.04793,-0.06678 -0.08788,-0.07617 z m -13.728648,0.201177 a 0.06105569,0.0619628 0 0 0 -0.04883,0.06055 0.06105569,0.0619628 0 0 0 0.06055,0.0625 0.06105569,0.0619628 0 0 0 0.0625,-0.0625 0.06105569,0.0619628 0 0 0 -0.0625,-0.06055 0.06105569,0.0619628 0 0 0 -0.01172,0 z m -0.14649,0.195315 -0.214848,0.146486 -0.144536,-0.08789 v 0.351571 l 0.230473,0.306646 0.08594,-0.205081 0.02929,-0.130861 -0.101565,-0.04297 0.01565,-0.220706 0.08594,-0.01368 z m 5.326215,0.365241 -0.128907,0.01565 0.01368,0.205081 0.08594,0.07227 0.158206,0.04297 c 0,0 0.216163,-0.0572 0.230473,-0.232426 l -0.330084,-0.01565 z m 1.785182,0.117191 c 0.158614,-0.05359 0.122119,0.28872 0.115236,0.382836 -0.08301,0.03568 -0.172796,0.0565 -0.259772,0.08398 V 28.22726 Z m -3.0196,0.164065 c 0.502007,0.450226 1.127569,0.713702 1.796898,0.769527 l -0.002,0.0098 c 0,1e-6 -0.053,0.130385 0.01172,0.152348 0.06478,0.02154 0.04361,0.03364 0.07617,0.06641 l -0.03318,0.07617 c -0.05324,-0.07229 -0.08684,0.05498 -0.05469,0.08789 0.03262,0.033 -0.07422,0.01077 -0.07422,0.05469 0,0.04386 -0.03251,0.066 0,0.08789 0.03228,0.02196 -0.01149,0.03379 -0.05469,0.06641 -0.04328,0.033 0.183598,0.04297 0.183598,0.04297 0,0 -0.04214,-0.08789 0.01172,-0.08789 0.01077,0 0.01482,0.0037 0.02343,0.0039 v 0.138674 c -0.02158,-0.005 -0.03708,-0.0025 -0.06055,-0.0098 v 0.101565 l -0.115236,0.01368 0.101565,0.117191 0.07422,0.0098 v 0.242193 l -0.002,0.01172 c 0,0.189883 -0.476268,0.05732 -0.519544,0.01368 l -0.01368,0.263676 -0.08594,0.01368 0.01368,0.175786 -0.01368,0.248051 0.158207,-0.02929 v 0.103516 l 0.388694,0.01368 0.07422,-0.08008 v 0.26563 l -0.0039,0.01954 -0.257818,0.02929 -0.115236,0.05859 -0.04297,-0.08789 h -0.115232 l -0.0625,0.08786 c -0.343552,-0.0491 -0.681773,-0.118468 -1.005874,-0.230484 -0.712153,-0.246589 -1.368858,-0.641134 -1.931679,-1.169938 z m -13.721089,0.140627 c 0.193614,1.273046 -0.31057,2.397364 -0.427738,3.607479 -0.0963,0.994603 0.079,1.961123 0.464854,2.796944 0.114276,0.247526 0.320763,0.472299 0.378905,0.724625 -0.373115,-0.336006 -0.637619,-0.765596 -0.894557,-1.181655 -1.203009,-1.947969 -3.724797,-3.214325 -3.896391,-5.583984 -0.08629,1.053904 0.0039,2.170663 0.355475,3.107475 0.487947,1.300108 1.428312,2.299926 2.509807,3.152416 1.118309,0.881478 2.451979,1.568761 3.470771,2.343806 -0.200894,-0.507033 -0.52563,-0.974419 -0.658218,-1.509799 -0.599294,-2.42008 -0.265834,-5.218875 -1.302753,-7.457155 z m 31.555141,0 c -1.036934,2.238167 -0.703459,5.037076 -1.302753,7.457155 -0.132589,0.535381 -0.457332,1.002729 -0.658218,1.5098 1.018792,-0.775045 2.352462,-1.462328 3.470771,-2.343807 1.081495,-0.852451 2.02186,-1.852307 2.509807,-3.152415 0.351616,-0.936812 0.44176,-2.053571 0.355471,-3.107475 -0.171783,2.369773 -2.693571,3.636128 -3.896391,5.583984 -0.256938,0.416059 -0.521434,0.845686 -0.894557,1.181655 0.05817,-0.252326 0.264648,-0.477099 0.378906,-0.724625 0.385859,-0.835821 0.561157,-1.802342 0.464853,-2.796944 -0.117168,-1.210115 -0.621367,-2.334433 -0.427738,-3.607479 z m -12.587964,0.05469 c 0.05763,-0.01281 0.111452,-0.0014 0.08984,0.06445 -0.04321,0.131572 0,0.189456 0,0.189456 0.187094,-0.175362 0.346351,0.01467 0.332038,0.05859 -0.01474,0.04379 0.100046,0.08877 0.171858,0.04492 0.07212,-0.04379 0.159688,0.131326 0.13085,0.218756 -0.0291,0.08764 -0.288421,0.07209 -0.302746,-0.01565 -0.01474,-0.08771 -0.05745,-0.05752 -0.08595,-0.01368 -0.02634,0.03992 -0.133208,0.06161 -0.207035,0.03318 l -0.05078,-0.05078 c 0.0061,-0.01663 0.02219,-0.03186 -0.002,-0.05664 -0.01754,-0.01773 -0.04806,-0.01693 -0.07031,-0.01757 l -0.11914,-0.11719 c -0.008,-0.09159 0.01236,-0.21523 0.002,-0.257818 -0.0072,-0.02918 0.0537,-0.06726 0.111332,-0.08008 z m -9.322389,0.05078 -0.101565,0.01368 -0.01368,0.11719 0.115236,0.01368 z m 18.045332,0.134769 c -0.06391,-0.02808 -0.171858,0.0189 -0.224622,0.05469 l 0.04687,0.07227 c 0.05469,-0.03704 0.126579,-0.05506 0.142567,-0.04687 -0.0014,-5.19e-4 -0.0034,-0.0022 -0.0038,-0.0039 l 0.08595,-0.01368 c -0.0045,-0.02808 -0.02079,-0.051 -0.04687,-0.0625 z M 25.906129,28.74848 c -0.03371,0 -0.06055,0.02801 -0.06055,0.0625 0,0.03417 0.02683,0.06055 0.06055,0.06055 0.03371,0 0.0625,-0.02642 0.0625,-0.06055 0,-0.03443 -0.02876,-0.0625 -0.0625,-0.0625 z m 7.179732,0.06445 c 0.0018,0.04022 0.01954,0.08594 0.01954,0.08594 l 0.07227,0.02929 -0.128907,0.101566 -0.115236,0.130861 -0.144536,-0.04297 -0.171877,-0.01565 -0.05664,-0.101562 -0.101566,-0.01565 -0.01368,0.205081 -0.07227,0.08789 -0.173832,0.175785 c 0.185484,0 0.06112,0.0884 -0.02733,0.128907 v -0.572231 c 0.184765,-0.01013 0.366077,-0.03831 0.542977,-0.08008 0.0084,0.008 0.03126,0.02733 0.03126,0.02733 h 0.130861 l 0.0078,-0.08203 c 0.06736,-0.02015 0.135487,-0.03781 0.201177,-0.0625 z m -7.078439,0.242193 a 0.06105569,0.0619628 0 0 0 -0.0625,0.0625 0.06105569,0.0619628 0 0 0 0.0625,0.0625 0.06105569,0.0619628 0 0 0 0.06055,-0.0625 0.06105569,0.0619628 0 0 0 -0.06055,-0.0625 z m 5.410123,0.05664 c -0.05923,0.04619 -0.108448,0.220169 -0.132815,0.269535 0,0 0.03296,0.120395 0.09766,0.109378 0.06445,-0.01096 0.108323,-0.04374 0.162114,-0.05469 0.05413,-0.01092 0.07609,-0.09999 0.09766,-0.187502 0.02166,-0.08765 -0.02147,-0.130862 -0.02147,-0.130862 0,0 -0.05455,0.08764 -0.140627,0 -0.02162,-0.02192 -0.04276,-0.02128 -0.0625,-0.0059 z m -5.681876,0.107424 -0.121095,0.01368 v 0.10352 l 0.121095,-0.01368 z m 8.66625,0 h 0.09961 l 0.01565,0.07422 0.439455,0.04102 0.01954,0.002 c 0.172581,0.102374 0.08675,0.234486 0.02929,0.263676 -0.0578,0.02925 -0.158206,0.02733 -0.158206,0.02733 l -0.02733,0.05859 -0.375008,0.02929 -0.02929,0.146486 c -0.187094,-0.02956 -0.257996,0.175253 -0.214848,0.277351 0.04328,0.102106 0,0.189456 0,0.189456 l 0.158207,0.07422 0.201177,-0.05859 c 0.02899,-0.146301 0.158123,-0.176239 0.273443,-0.263676 0.114983,-0.08771 0.301944,0.160308 0.244147,0.27735 -0.01179,0.02392 -0.0043,0.01516 -0.01172,0.03318 -0.221133,0.152182 -0.45427,0.289525 -0.697261,0.408197 -0.379132,0.18505 -0.785175,0.321074 -1.207054,0.414056 -0.0019,-0.0015 -0.01368,-0.0078 -0.01368,-0.0078 l -0.158206,-0.04297 -0.01368,-0.218756 c -0.02884,-0.146233 -0.301635,-0.147295 -0.287113,-0.04492 0.01425,0.101932 -0.513724,0.04535 -0.517579,0.04492 v -0.404266 l 0.142582,-0.152349 0.332038,-0.07227 c 0.02869,-0.146301 0.171877,0.02929 0.171877,0.02929 0.144014,-0.01493 0.173832,0.08789 0.173832,0.08789 l 0.185548,0.02929 c 0.158131,0.04392 0.06298,0.05943 0.07227,0.117191 0.01425,0.08751 0.08594,0.05859 0.08594,0.05859 l 0.02929,-0.19141 0.08594,0.01565 -0.08594,-0.103519 -0.158207,-0.07227 -0.171877,-0.07227 c -0.115259,-0.160625 0.02733,-0.131859 0.142582,-0.11719 h 0.187502 c 0,0 0.216802,0.292125 0.216802,0.365242 0,0.07318 0.09961,0.08789 0.09961,0.08789 l 0.130861,-0.01565 0.04297,0.10352 h 0.128907 l 0.04297,0.08594 h 0.259768 l 0.01368,-0.130861 -0.244144,-0.04297 -0.01368,-0.146486 -0.173831,-0.04492 c -0.0578,-0.248131 0.04326,-0.320174 0.115236,-0.203127 l 0.08594,0.01368 -0.02929,-0.218756 0.101566,-0.02929 -0.02929,-0.306646 -0.08594,-0.02929 v -0.101566 l 0.359384,0.01368 c -0.02857,-0.19016 0.01565,-0.277351 0.01565,-0.277351 z m 10.416205,0.667969 -0.07616,0.03906 c 0.0094,0.01954 0.01209,0.03877 0.01361,0.05859 0.0022,0.02563 0.0049,0.0557 0.02948,0.07422 0.0155,0.01175 0.03326,0.01425 0.05666,0.0098 l -0.0155,-0.08398 c 0.0068,10e-4 0.0155,0.0074 0.01776,0.01368 -0.0012,-0.0029 -0.0014,-0.01414 -0.002,-0.02147 -0.0019,-0.02411 -0.0064,-0.05535 -0.02343,-0.08984 z m -0.08398,0.162111 -0.08202,0.02147 c 0.02192,0.08881 0.05325,0.176046 0.05469,0.17969 l 0.08009,-0.03126 c -6.05e-4,-7.79e-4 -0.03213,-0.08579 -0.05273,-0.169927 z m -16.685809,0.07227 c 0.584629,0.551557 1.266129,0.968182 2.003945,1.232452 0.203373,0.07295 0.415756,0.120384 0.62696,0.169927 -0.04376,0.03485 -0.07343,0.06894 -0.06445,0.0918 0.02884,0.07291 -0.113283,0.14649 -0.113283,0.14649 l -0.130861,0.04297 -0.08594,0.130861 -0.171878,0.05859 -0.02929,0.306646 -0.08594,0.05859 v 0.132815 l -0.101566,0.02733 v 0.07422 l -0.144532,0.01368 0.08594,0.220706 0.11719,0.05859 c 0.201476,0.02899 0.113282,0.277347 0.113282,0.277347 l 0.115237,0.01368 0.05859,0.16016 0.115236,0.234381 c 0.04328,0.175562 0.172944,0.131795 0.230473,0.117205 0.05752,-0.01436 0.115236,0.17579 0.115236,0.17579 l 0.574235,0.01361 c 0,0 -0.0285,0.0587 0.07227,0.08788 0.05774,0.01663 0.276689,0.03024 0.478535,0.03326 v 0.259772 C 30.76301,34.239129 29.730763,34.01866 28.774902,33.617682 v -0.002 c -0.844968,-0.354625 -1.62795,-0.856609 -2.326232,-1.482435 l -0.212897,-0.197269 z m 9.92977,0.01172 v 0.277351 h 0.101558 v -0.277351 z m -3.10944,0.07227 -0.115237,0.07227 0.04492,0.07422 0.115236,-0.07227 z m 9.382862,0.201177 c -0.0068,0.06892 0.0079,0.154136 0.07616,0.167973 l 0.01776,-0.08594 h 0.002 c -0.0072,-0.0062 -0.01285,-0.0418 -0.0098,-0.07422 z m -11.533456,0.156245 v 0.175785 z m 11.484699,0.0059 c -0.02608,0.002 -0.06104,0.02937 -0.09181,0.04883 -0.08636,0.05487 -0.05393,0.273625 0,0.218756 0.05394,-0.05459 0.117999,2.03e-4 0.128922,-0.164065 0.0053,-0.08231 -0.01096,-0.105515 -0.03704,-0.103519 z m -8.951232,0.113282 0.343759,0.173832 c 0.04328,0.05825 0.23048,0.04297 0.23048,0.04297 l 0.05858,0.07422 c 0,0 0.115315,-0.0155 0.187506,0.07227 0.07185,0.08771 0.445313,0.01565 0.445313,0.01565 l 0.101557,0.08789 0.158215,0.05859 0.26563,0.0078 0.166,0.166019 c -0.260188,0.119545 -0.787215,0.07848 -0.820325,0.04492 -0.0432,-0.0439 -0.34572,-0.175819 -0.34572,-0.175819 0,0 -0.230253,-0.189381 -0.273454,-0.130862 -0.0432,0.05852 -0.244162,-0.07322 -0.244162,-0.02929 0,0.04385 -0.187503,-0.103519 -0.187503,-0.103519 l -0.289067,-0.101565 0.216801,-0.04492 -0.03515,-0.144536 c 0.007,-0.0048 0.01448,-0.0089 0.02147,-0.01368 z m -2.072318,0.04102 -0.101565,0.07422 0.04297,0.04297 0.04297,0.07422 0.101566,-0.162111 z m -13.560834,0.818397 v 0.146441 h 0.115237 v 0.189456 h 0.08789 L 19.805863,31.65869 19.690627,31.61572 V 31.5415 Z m 21.027816,0.07422 -0.01172,0.130862 0.140639,0.0098 0.0098,-0.119145 z m -0.117205,0.308601 -0.02721,0.08398 c 0.0068,0.0026 0.01739,0.0071 0.02721,0.01368 l 0.01776,0.07617 c -0.0064,0.0097 -0.01398,0.01886 -0.01965,0.0254 l 0.06444,0.05859 c 0.04619,-0.05143 0.06285,-0.100315 0.05076,-0.14844 -0.0189,-0.07442 -0.103788,-0.106279 -0.113275,-0.109378 z m -2.517631,0.259772 0.632819,0.632819 c -0.02948,0.107001 -0.127108,0.170078 -0.183613,0.126957 -0.05794,-0.04393 0.07253,0.07409 0.101557,0.132815 0.02873,0.05824 0.113615,0.05824 0.142567,0 0.01928,-0.03985 0.02457,-0.10683 0.03137,-0.167973 l 0.287098,0.287114 c -0.03957,0.07668 -0.07491,0.151547 -0.05858,0.201177 l 0.13085,0.05859 0.01361,0.248051 c 0.100953,0.10239 0.305656,0.09302 0.482428,0.06055 l 0.06444,0.06444 c -0.530618,0.51463 -1.116872,0.96977 -1.742207,1.369161 v -0.134819 c 0.259129,-0.189887 0.272018,-0.525516 0.02721,-0.554694 -0.185616,-0.0223 -0.1005,-0.218839 0.07227,-0.248055 l 0.101558,-0.04494 v -0.13085 l 0.330073,-0.306639 V 33.543487 L 37.72623,32.943854 c -0.149937,-0.05523 -0.151714,-0.240678 -0.0957,-0.419914 0.129225,-0.110474 0.257353,-0.221058 0.380871,-0.339851 z m -17.672285,0.02929 0.101565,0.263677 0.05664,0.130861 0.115237,0.162111 0.158206,0.144535 0.05859,-0.101565 -0.101566,-0.218756 -0.101565,-0.07422 -0.07227,-0.203131 z m -2.814519,0.214848 c 0.8746,1.747386 0.496564,4.000331 1.630899,5.648615 0.354727,0.515425 0.850637,1.007529 1.308611,1.421887 l -0.02147,0.02154 C 20.028055,39.326919 19.65395,39.039102 19.276557,38.72532 17.291926,37.075221 14.30638,36.864206 13.118074,34.174301 c 0.322241,1.974804 1.890367,3.72408 3.582117,4.832221 1.60943,1.054169 3.671808,0.93772 5.459257,1.527375 -1.651383,-1.33212 -1.902424,-3.333004 -2.638729,-5.08621 -0.457558,-1.089357 -1.201535,-2.068161 -1.996121,-3.0196 z m 28.949862,0 c -0.794586,0.951439 -1.538601,1.930243 -1.996121,3.0196 -0.736305,1.753055 -0.987346,3.753938 -2.638729,5.08621 1.787298,-0.589655 3.849524,-0.473206 5.459257,-1.527375 1.691749,-1.108066 3.259869,-2.857341 3.582117,-4.832221 -1.188004,2.689754 -4.173814,2.900769 -6.158483,4.551019 -0.377393,0.313745 -0.751498,0.601599 -1.166045,0.794926 l -0.02154,-0.02154 c 0.457975,-0.414396 0.953896,-0.9065 1.308612,-1.421886 1.134334,-1.648133 0.756298,-3.901305 1.630898,-5.648616 z m -19.756358,0.376917 c 0.584818,0.450188 1.216352,0.826524 1.88674,1.111354 v 0.002 c 1.007982,0.428455 2.097679,0.663811 3.222715,0.685544 v 2.330125 c -1.533158,-0.02343 -3.014724,-0.360196 -4.372999,-0.976574 v -0.002 C 26.315271,35.438637 25.26235,34.725502 24.33922,33.830605 l 0.335942,-0.335942 c 0.01739,0.03266 0.03235,0.07033 0.03906,0.121095 0.02869,0.219405 0.130861,0.175789 0.130861,0.175789 l 0.820325,-0.01361 0.287114,-0.250005 0.734376,-0.01368 c 0.374189,-0.01459 0.144041,-0.525403 0.07227,-0.525403 -0.04321,-0.03405 -0.0474,-0.10567 -0.04102,-0.183598 z m -2.857492,0.257818 c 0.128827,-0.0268 0.328198,0.137343 0.349617,0.203127 0.01055,0.03182 0.06117,0.06762 0.105469,0.101565 l -0.220706,0.220707 c -0.130857,-0.13494 -0.242159,-0.283501 -0.365241,-0.423845 h 0.03515 c 0.01795,-0.06215 0.05276,-0.09263 0.0957,-0.101565 z m 8.468954,0.804715 c 0.113339,-0.0091 0.250818,0.01172 0.330084,0.0703 0.158131,0.116676 0.375008,0.0449 0.375008,0.0449 l 0.156253,0.189471 c -0.334574,0.04838 -0.673336,0.08081 -1.019548,0.08788 v -0.330073 c 0.03046,-0.0325 0.0821,-0.05635 0.158207,-0.06251 z m 7.572433,0.207047 1.816438,1.816439 c -1.012479,0.988252 -2.177164,1.819878 -3.45123,2.464905 -1.837,0.930311 -3.905084,1.467242 -6.095742,1.494152 v -2.572321 c 1.041243,-0.0155 2.053609,-0.188602 3.027386,-0.474605 l 0.281255,0.08595 0.07227,0.234373 0.11524,-0.0155 0.08595,-0.07227 0.34572,-0.0155 0.173824,-0.160142 0.187506,-0.02948 1.353551,-1.152363 c 0.747832,-0.446673 1.448041,-0.982205 2.087928,-1.603534 z m -6.543247,0.416021 0.03515,0.07616 0.244147,0.07227 0.171877,0.04297 0.05859,0.25002 0.128907,0.01361 0.04297,0.160142 c 0.158468,0.116752 -0.04297,0.36526 -0.04297,0.36526 v 0.322287 l 0.115236,0.05858 -0.01368,0.117205 0.187502,0.189472 0.214848,0.01361 0.351571,0.376978 c -0.858045,0.231501 -1.754416,0.370363 -2.681703,0.384763 V 34.604 c 0.402112,-0.0076 0.79674,-0.05174 1.187513,-0.113275 z m -3.474664,0.24609 -0.08789,0.07227 -0.04297,0.03704 0.04687,0.03326 0.09961,0.07227 0.05078,-0.0703 -0.05469,-0.04101 0.04297,-0.03704 z m 1.025406,1.046874 -0.03906,0.07812 0.08984,0.0449 -0.02929,0.03137 0.06055,0.06055 0.07227,-0.07227 0.04297,-0.04297 -0.05469,-0.02721 z m -7.289341,0.740235 0.115237,0.175789 0.01368,0.13085 0.144536,0.04297 0.05859,0.08788 0.09961,-0.05858 -0.07227,-0.189472 -0.185552,-0.160141 z m -3.24029,0.162107 c 1.079605,1.453106 1.386698,3.565487 3.359424,4.308746 0.349174,0.13153 0.750477,0.152129 1.05277,0.343755 -0.37985,0.05832 -0.712531,-0.05942 -1.066415,-0.134781 -2.5425,-0.541465 -5.650127,0.156287 -7.554668,-2.011768 0.722773,1.416859 2.212276,2.535848 3.642667,3.007882 2.216434,0.731429 4.526451,-0.08481 6.60939,-0.601561 0.300096,-0.07446 0.664718,-0.05049 0.943388,-0.152356 -1.159619,-0.235922 -2.278382,-0.587312 -3.175848,-1.408204 -1.289525,-1.179462 -2.431683,-2.434895 -3.810595,-3.351638 z m 23.238883,0 c -1.37895,0.916742 -2.521108,2.172137 -3.810595,3.351638 -0.897466,0.820891 -2.016229,1.172281 -3.175848,1.408241 0.278632,0.101823 0.643288,0.0779 0.943388,0.152356 2.082977,0.516747 4.393032,1.33299 6.60939,0.601562 1.430353,-0.472035 2.919894,-1.590986 3.642667,-3.007883 -1.904617,2.168055 -5.012508,1.470265 -7.554668,2.011769 -0.353884,0.07536 -0.686565,0.193099 -1.066415,0.13478 0.302293,-0.191626 0.703573,-0.212224 1.052771,-0.343755 1.972763,-0.743183 2.279818,-2.855565 3.359461,-4.308746 z M 29.903666,41.38944 c -1.951484,0 -3.693994,0.943917 -5.406343,1.654331 -1.549183,0.642684 -3.604379,0.51671 -4.976602,-0.429703 0.679006,0.852036 1.58766,1.376418 2.525455,1.732457 1.74353,0.695824 3.778581,0.160935 5.261962,-0.78714 1.068796,-0.683163 1.985916,-1.650439 3.257865,-1.650439 0.227347,0 0.456161,0.03553 0.685545,0.08398 -1.787525,0.715403 -3.417214,1.963956 -4.685573,3.175848 0.233254,0.2665 0.535759,0.516445 0.820325,0.746093 1.413458,-1.460778 3.015631,-3.033999 4.613382,-3.687568 1.597751,0.653569 3.199925,2.22679 4.613382,3.687568 0.284567,-0.229648 0.587086,-0.479593 0.820325,-0.746093 -1.268434,-1.211892 -2.898085,-2.460445 -4.685573,-3.175848 0.229388,-0.04857 0.458202,-0.08398 0.685545,-0.08398 1.271949,0 2.18907,0.967276 3.257865,1.650439 1.48323,0.948037 3.518319,1.482927 5.261962,0.78714 0.937795,-0.356039 1.846449,-0.880421 2.525455,-1.732457 -1.372298,0.946413 -3.427494,1.072387 -4.976602,0.429703 -1.712387,-0.710414 -3.454859,-1.654331 -5.406343,-1.654331 -0.710452,0 -1.412815,0.121778 -2.095751,0.328145 C 31.31701,41.511218 30.614685,41.38944 29.904195,41.38944 Z m 1.69534,2.865278 c -0.08786,0 -0.142865,0.0421 -0.164064,0.126957 -0.03939,0.151449 -0.08238,0.433634 -0.130862,0.845724 -0.142426,0.04551 -0.280741,0.104166 -0.414055,0.173824 l -0.62696,-0.486322 c -0.03938,-0.03024 -0.0778,-0.04687 -0.117191,-0.04687 -0.06666,0 -0.210006,0.109495 -0.429703,0.32618 -0.219697,0.216684 -0.370401,0.379245 -0.449243,0.488287 -0.02729,0.03938 -0.04102,0.07321 -0.04102,0.103523 0,0.03628 0.01659,0.07306 0.04688,0.109382 0.20301,0.245447 0.365113,0.454194 0.486321,0.62696 -0.07576,0.139354 -0.13534,0.28056 -0.177739,0.419914 l -0.845724,0.126957 c -0.0333,0.006 -0.06167,0.02532 -0.08594,0.05858 -0.02426,0.03326 -0.03712,0.0672 -0.03712,0.103524 v 1.009796 c 0,0.03946 0.01285,0.07563 0.03712,0.107416 0.02426,0.03175 0.05632,0.05061 0.0957,0.05666 l 0.832041,0.123064 c 0.0424,0.148463 0.103713,0.297757 0.185552,0.449244 -0.0545,0.07578 -0.137033,0.182403 -0.246097,0.320321 -0.109064,0.137918 -0.185065,0.239098 -0.230473,0.302746 -0.02426,0.03326 -0.03712,0.06713 -0.03712,0.103523 0,0.03938 0.01005,0.07518 0.03126,0.105489 0.118158,0.163695 0.368209,0.418327 0.750024,0.763707 0.03337,0.03326 0.07284,0.04883 0.115236,0.04883 0.04547,0 0.08299,-0.01361 0.113286,-0.04101 l 0.640643,-0.486434 c 0.124292,0.06365 0.259761,0.1214 0.408197,0.16993 l 0.126957,0.835973 c 0.0031,0.03938 0.02094,0.07189 0.05273,0.09766 0.03179,0.0257 0.06893,0.03904 0.111332,0.03904 h 1.009796 c 0.08797,0 0.142809,-0.04407 0.164065,-0.128922 0.03933,-0.151524 0.08238,-0.431669 0.130861,-0.843759 0.142427,-0.04547 0.280795,-0.104165 0.414056,-0.173823 l 0.62696,0.490252 c 0.0424,0.02721 0.08283,0.04101 0.119145,0.04101 0.06661,0 0.207662,-0.107114 0.425772,-0.322286 0.218238,-0.215135 0.369452,-0.378112 0.451171,-0.490252 0.02729,-0.03024 0.04102,-0.06607 0.04102,-0.105489 0,-0.03938 -0.01652,-0.07703 -0.04687,-0.113275 -0.218128,-0.266651 -0.380228,-0.475436 -0.486321,-0.62696 0.06058,-0.112141 0.120164,-0.250437 0.177735,-0.414093 l 0.841831,-0.126957 c 0.03632,-0.006 0.06563,-0.02532 0.08984,-0.05858 0.02419,-0.03326 0.03704,-0.06917 0.03704,-0.105489 v -1.007831 c 5.7e-5,-0.03938 -0.01285,-0.07555 -0.03704,-0.107416 -0.02419,-0.03175 -0.05631,-0.05061 -0.0957,-0.05666 L 34.630293,46.95982 c -0.04547,-0.145439 -0.106777,-0.293788 -0.185552,-0.445313 0.0545,-0.07574 0.137037,-0.182403 0.246098,-0.320321 0.109064,-0.137918 0.185008,-0.239098 0.230472,-0.302746 0.02426,-0.03326 0.03712,-0.06909 0.03712,-0.105489 0,-0.04241 -0.01002,-0.07533 -0.03126,-0.09959 -0.109064,-0.154586 -0.359115,-0.410881 -0.750024,-0.771493 -0.03625,-0.03024 -0.0759,-0.04687 -0.115237,-0.04687 -0.04547,0 -0.08015,0.01361 -0.107424,0.04101 l -0.6465,0.486359 c -0.124296,-0.06365 -0.259761,-0.119511 -0.408197,-0.167965 l -0.126957,-0.835973 c -0.003,-0.03938 -0.02094,-0.07189 -0.05273,-0.09766 -0.03186,-0.0257 -0.06881,-0.03904 -0.111332,-0.03904 z m 0.505862,2.328159 c 0.321221,0 0.595061,0.112632 0.822291,0.339862 0.227222,0.227268 0.33985,0.501062 0.33985,0.82229 0,0.321229 -0.112628,0.597026 -0.33985,0.824218 -0.227223,0.227268 -0.501062,0.339862 -0.822291,0.339862 -0.32122,0 -0.59695,-0.112557 -0.824217,-0.339862 -0.227223,-0.227229 -0.339851,-0.502989 -0.339851,-0.824218 0,-0.321228 0.112576,-0.595022 0.339851,-0.82229 0.227275,-0.22723 0.503065,-0.339862 0.824217,-0.339862 z m -7.172172,0.03326 c -0.07208,0 -0.115426,0.03591 -0.132816,0.105489 -0.03231,0.124235 -0.0696,0.355282 -0.109377,0.693368 -0.116839,0.03742 -0.228515,0.08345 -0.337897,0.140639 l -0.515651,-0.398522 c -0.03232,-0.02494 -0.06339,-0.03704 -0.0957,-0.03704 -0.05469,0 -0.173299,0.08788 -0.353522,0.265631 -0.180222,0.177754 -0.30253,0.312875 -0.367195,0.402338 -0.02238,0.03213 -0.03318,0.06108 -0.03318,0.08595 0,0.02986 0.01225,0.05809 0.03712,0.08788 0.166541,0.201377 0.298997,0.373878 0.398446,0.515651 -0.06215,0.114333 -0.109752,0.227494 -0.144532,0.34179 l -0.693368,0.105488 c -0.02733,0.0049 -0.05237,0.02154 -0.07227,0.04883 -0.01992,0.02721 -0.02929,0.05613 -0.02929,0.08595 v 0.826183 c 0,0.03251 0.0094,0.0618 0.02929,0.08788 0.01992,0.02608 0.04777,0.04195 0.08008,0.04687 l 0.681652,0.101558 c 0.03477,0.121779 0.08521,0.24488 0.152344,0.369154 -0.04471,0.06214 -0.111702,0.148576 -0.201177,0.261737 -0.08947,0.113124 -0.152204,0.195821 -0.189456,0.248055 -0.01992,0.02759 -0.03126,0.05613 -0.03126,0.08595 0,0.03213 0.01001,0.06108 0.02733,0.08595 0.09693,0.134289 0.302028,0.343641 0.615244,0.62696 0.02736,0.02721 0.05897,0.04101 0.09375,0.04101 0.0373,0 0.06695,-0.01096 0.0918,-0.03326 l 0.525403,-0.400411 c 0.101966,0.05223 0.214164,0.09887 0.335942,0.138674 l 0.10547,0.685544 c 0.0025,0.03213 0.01689,0.05892 0.04297,0.08009 0.02608,0.02117 0.05506,0.03326 0.08984,0.03326 h 0.828148 c 0.07217,0 0.11733,-0.03591 0.134769,-0.105488 0.03228,-0.124312 0.06765,-0.355283 0.107424,-0.693368 0.116839,-0.03742 0.230518,-0.08542 0.339851,-0.142567 l 0.515651,0.404304 c 0.03477,0.0223 0.06591,0.03326 0.0957,0.03326 0.05464,0 0.172626,-0.08912 0.351571,-0.26563 0.179036,-0.17647 0.3021,-0.310381 0.369146,-0.402339 0.02238,-0.02495 0.03318,-0.05363 0.03318,-0.08595 0,-0.03213 -0.01221,-0.06403 -0.03712,-0.09377 -0.178946,-0.218763 -0.313352,-0.389374 -0.400412,-0.513685 0.0497,-0.092 0.09925,-0.205611 0.14649,-0.339862 l 0.689475,-0.103523 c 0.02978,-0.0049 0.05436,-0.02154 0.07422,-0.04883 0.01984,-0.02721 0.02929,-0.05617 0.02929,-0.08595 v -0.828149 c 4.6e-5,-0.03213 -0.0093,-0.06176 -0.02929,-0.08791 -0.01996,-0.02608 -0.04581,-0.03999 -0.07813,-0.0449 l -0.681651,-0.105489 c -0.0373,-0.119322 -0.08772,-0.240949 -0.152348,-0.365223 0.04471,-0.06214 0.111702,-0.150541 0.201177,-0.263665 0.08947,-0.113123 0.152159,-0.193893 0.189456,-0.246089 0.01992,-0.02721 0.02929,-0.05609 0.02929,-0.08595 0,-0.03477 -0.0079,-0.06214 -0.0254,-0.08202 -0.08947,-0.126806 -0.294567,-0.338955 -0.615243,-0.634784 -0.02975,-0.02494 -0.06149,-0.03704 -0.09375,-0.03704 -0.0373,0 -0.06746,0.01096 -0.08984,0.03326 l -0.529295,0.398446 c -0.101966,-0.0522 -0.21416,-0.09695 -0.335942,-0.136708 L 25.895622,46.72934 c -0.0025,-0.03213 -0.01689,-0.06089 -0.04297,-0.08202 -0.02612,-0.02117 -0.05693,-0.03137 -0.0918,-0.03137 z m 13.54307,0 c -0.07208,0 -0.11543,0.03591 -0.132816,0.105489 -0.03213,0.124235 -0.06958,0.355282 -0.109381,0.693368 -0.116828,0.03742 -0.228515,0.08345 -0.337897,0.140639 l -0.515651,-0.398446 c -0.03213,-0.02494 -0.06338,-0.03704 -0.0957,-0.03704 -0.05469,0 -0.173295,0.08788 -0.353544,0.26563 -0.180212,0.177755 -0.30252,0.312876 -0.367189,0.402339 -0.0223,0.03213 -0.03326,0.06108 -0.03326,0.08595 0,0.02986 0.01209,0.05809 0.03704,0.08788 0.166529,0.201377 0.299004,0.373878 0.398446,0.515651 -0.06214,0.114333 -0.10976,0.227494 -0.144532,0.341789 l -0.693368,0.105489 c -0.02721,0.0049 -0.05042,0.02154 -0.0703,0.04883 -0.02003,0.02721 -0.03137,0.05613 -0.03137,0.08595 v 0.826183 c 0,0.0325 0.01134,0.0618 0.03137,0.08787 0.02003,0.02608 0.04581,0.04195 0.07812,0.04687 l 0.681652,0.101557 c 0.03477,0.121779 0.08523,0.244881 0.152355,0.369154 -0.04471,0.06214 -0.111687,0.148576 -0.201188,0.261738 -0.08946,0.113123 -0.152204,0.195821 -0.189471,0.248055 -0.02003,0.02759 -0.02948,0.05613 -0.02948,0.08595 0,0.03213 0.0079,0.06108 0.02532,0.08595 0.09695,0.134289 0.302028,0.343642 0.615244,0.626961 0.02721,0.02721 0.05896,0.04101 0.09373,0.04101 0.03742,0 0.06694,-0.01096 0.09181,-0.03326 l 0.527368,-0.400411 c 0.101974,0.05223 0.212187,0.09887 0.334004,0.138673 l 0.105488,0.685545 c 0.0025,0.03213 0.01701,0.05892 0.04297,0.08009 0.02608,0.02117 0.05703,0.03326 0.09181,0.03326 h 0.826183 c 0.07219,0 0.117319,-0.03591 0.134781,-0.105489 0.03213,-0.124311 0.06766,-0.355282 0.107416,-0.693368 0.116828,-0.03742 0.230518,-0.08542 0.339862,-0.142566 l 0.515651,0.404304 c 0.03477,0.0223 0.06592,0.03326 0.0957,0.03326 0.05465,0 0.172615,-0.08912 0.351579,-0.26563 0.17904,-0.17647 0.302104,-0.310381 0.369154,-0.402339 0.0223,-0.02495 0.03326,-0.05363 0.03326,-0.08595 0,-0.03213 -0.01209,-0.06403 -0.03704,-0.09377 -0.178926,-0.218763 -0.313367,-0.389375 -0.400411,-0.513686 0.0497,-0.092 0.09925,-0.20561 0.146498,-0.339862 l 0.689475,-0.103523 c 0.02986,-0.0049 0.05435,-0.02154 0.07423,-0.04883 0.02003,-0.02721 0.02948,-0.05617 0.02948,-0.08595 v -0.828149 c 4.9e-5,-0.03213 -0.0094,-0.06176 -0.02948,-0.08791 -0.02003,-0.02608 -0.04581,-0.03999 -0.07812,-0.0449 l -0.681652,-0.105489 c -0.03742,-0.119322 -0.08772,-0.24095 -0.152355,-0.365223 0.04471,-0.06214 0.111687,-0.150541 0.201188,-0.263665 0.08946,-0.113123 0.152167,-0.193894 0.189471,-0.24609 0.02003,-0.02721 0.02948,-0.05609 0.02948,-0.08595 0,-0.03477 -0.0079,-0.06214 -0.02532,-0.08202 -0.08946,-0.126806 -0.294582,-0.338955 -0.615244,-0.634785 -0.02986,-0.02495 -0.06149,-0.03704 -0.09377,-0.03704 -0.03742,0 -0.06747,0.01096 -0.08984,0.03326 l -0.529295,0.398446 c -0.101974,-0.05223 -0.214153,-0.09695 -0.335931,-0.136709 L 39.438767,46.72968 c -0.0025,-0.03213 -0.01701,-0.06089 -0.04297,-0.08202 -0.02608,-0.02117 -0.05692,-0.03137 -0.09181,-0.03137 z m -13.129204,1.910211 c 0.263518,0 0.489383,0.0929 0.675793,0.279312 0.186402,0.186448 0.279301,0.410314 0.279301,0.673828 0,0.263514 -0.09289,0.489383 -0.279301,0.675793 -0.186403,0.186447 -0.412279,0.279312 -0.675793,0.279312 -0.263518,0 -0.48738,-0.09286 -0.673827,-0.279312 -0.186403,-0.18641 -0.279302,-0.412279 -0.279302,-0.675793 0,-0.263514 0.09286,-0.48738 0.279302,-0.673828 0.186447,-0.18641 0.410351,-0.279312 0.673827,-0.279312 z m 13.54307,0 c 0.263514,0 0.489383,0.0929 0.675793,0.279312 0.18641,0.186448 0.279312,0.410314 0.279312,0.673828 0,0.263514 -0.0929,0.489383 -0.279312,0.675793 -0.18641,0.186447 -0.412279,0.279312 -0.675793,0.279312 -0.263514,0 -0.48738,-0.09286 -0.673827,-0.279312 -0.18641,-0.18641 -0.279313,-0.412279 -0.279313,-0.675793 0,-0.263514 0.09286,-0.48738 0.279313,-0.673828 0.186447,-0.18641 0.410389,-0.279312 0.673827,-0.279312 z" fill="#ffffff" stroke-width="0.0865907" id="path3"/></g>
</svg>
