<?xml version="1.0" encoding="UTF-8"?>
<svg xmlns="http://www.w3.org/2000/svg" xmlns:cc="http://creativecommons.org/ns#" xmlns:dc="http://purl.org/dc/elements/1.1/" xmlns:rdf="http://www.w3.org/1999/02/22-rdf-syntax-ns#" width="64" height="64" version="1.1">
  <metadata>
    <rdf:RDF>
      <cc:Work rdf:about="">
        <dc:format>image/svg+xml</dc:format>
        <dc:type rdf:resource="http://purl.org/dc/dcmitype/StillImage"/>
        <dc:title/>
      </cc:Work>
    </rdf:RDF>
  </metadata>
  <defs>
    <linearGradient id="linearGradient886" x1="74.341" x2="74.032" y1="15.186" y2="49.356" gradientUnits="userSpaceOnUse">
      <stop stop-color="#336df5" offset="0"/>
      <stop stop-color="#42afe6" offset="1"/>
    </linearGradient>
    <linearGradient id="linearGradient894" x1="76.747" x2="91.891" y1="32" y2="32" gradientUnits="userSpaceOnUse">
      <stop stop-color="#63c644" offset="0"/>
      <stop stop-color="#96ca6b" stop-opacity=".98204" offset="1"/>
    </linearGradient>
    <linearGradient id="linearGradient902" x1="95.889" x2="95.172" y1="17.085" y2="48.949" gradientUnits="userSpaceOnUse">
      <stop stop-color="#5da624" offset="0"/>
      <stop stop-color="#6ba63f" stop-opacity=".9521" offset="1"/>
    </linearGradient>
    <filter id="filter936" x="-.11782" y="-.099693" width="1.2356" height="1.1994" color-interpolation-filters="sRGB">
      <feGaussianBlur stdDeviation="1.4087092"/>
    </filter>
    
    
    <filter id="filter1057-9" x="-.027" y="-.027" width="1.054" height="1.054" color-interpolation-filters="sRGB">
      <feGaussianBlur stdDeviation="0.61875"/>
    </filter>
    <linearGradient id="linearGradient1053-6" x1="-127" x2="-72" y1="60" y2="5" gradientTransform="translate(131.5 -.51)" gradientUnits="userSpaceOnUse">
      <stop stop-color="#dee0e2" offset="0"/>
      <stop stop-color="#f1f3f5" stop-opacity=".99608" offset="1"/>
    </linearGradient>
  <radialGradient id="gradient_ds_br" cx="0" cy="0" r="1" gradientUnits="userSpaceOnUse" gradientTransform="matrix(13.998399,0.00477622,-0.00477841,14.004799,47.5016,48.4952)">
      <stop offset="0.65" id="stop1"/>
      <stop offset="1" stop-opacity="0" id="stop2"/>
    </radialGradient><linearGradient id="gradient_ds_b" x1="30.448999" y1="48.5" x2="30.492201" y2="62.500301" gradientUnits="userSpaceOnUse">
      <stop offset="0.653846" id="stop3"/>
      <stop offset="1" stop-opacity="0" id="stop4"/>
    </linearGradient><radialGradient id="gradient_ds_bl" cx="0" cy="0" r="1" gradientUnits="userSpaceOnUse" gradientTransform="matrix(0,14,-14,0,16.5,48.5)">
      <stop offset="0.65" id="stop5"/>
      <stop offset="1" stop-opacity="0" id="stop6"/>
    </radialGradient><linearGradient id="gradient_ds_r" x1="47.5" y1="33.5" x2="61.5" y2="33.5009" gradientUnits="userSpaceOnUse">
      <stop offset="0.649038" id="stop7"/>
      <stop offset="1" stop-opacity="0" id="stop8"/>
    </linearGradient><linearGradient id="gradient_ds_l" x1="16.5" y1="33.894699" x2="2.5" y2="33.894699" gradientUnits="userSpaceOnUse">
      <stop offset="0.649038" id="stop9"/>
      <stop offset="1" stop-opacity="0" id="stop10"/>
    </linearGradient><radialGradient id="gradient_ds_tr" cx="0" cy="0" r="1" gradientTransform="matrix(0.00843236,-14,14.0084,0.0189842,47.4916,18.5)" gradientUnits="userSpaceOnUse">
      <stop offset="0.65" id="stop11"/>
      <stop offset="1" stop-opacity="0" id="stop12"/>
    </radialGradient><linearGradient id="gradient_ds_t" x1="29.98" y1="18.5" x2="29.9158" y2="4.4998598" gradientUnits="userSpaceOnUse">
      <stop offset="0.649038" id="stop13"/>
      <stop offset="1" stop-opacity="0" id="stop14"/>
    </linearGradient><radialGradient id="gradient_ds_tl" cx="0" cy="0" r="1" gradientTransform="matrix(-0.00843236,-14,-14.0084,0.0189842,16.5084,18.5)" gradientUnits="userSpaceOnUse">
      <stop offset="0.65" id="stop15"/>
      <stop offset="1" stop-opacity="0" id="stop16"/>
    </radialGradient></defs>
  
  <g id="ds" opacity="0.25">
    <path id="ds-br" d="m 47.5,48.5 h 14 v 14 h -14 z" fill="url(#gradient_ds_br)" style="fill:url(#gradient_ds_br)"/>
    <path id="ds-b" d="m 16.5,48.5 h 31 v 14 h -31 z" fill="url(#gradient_ds_b)" style="fill:url(#gradient_ds_b)"/>
    <path id="ds-bl" d="m 2.5,48.5 h 14 v 14 h -14 z" fill="url(#gradient_ds_bl)" style="fill:url(#gradient_ds_bl)"/>
    <path id="ds-r" d="m 47.5,18.5 h 14 v 30 h -14 z" fill="url(#gradient_ds_r)" style="fill:url(#gradient_ds_r)"/>
    <path id="ds-l" d="m 2.5,18.5 h 14 v 30 h -14 z" fill="url(#gradient_ds_l)" style="fill:url(#gradient_ds_l)"/>
    <path id="ds-tr" d="m 47.5,4.5 h 14 v 14 h -14 z" fill="url(#gradient_ds_tr)" style="fill:url(#gradient_ds_tr)"/>
    <path id="ds-t" d="m 16.5,4.5 h 31 v 14 h -31 z" fill="url(#gradient_ds_t)" style="fill:url(#gradient_ds_t)"/>
    <path id="ds-tl" d="m 16.5,4.5 h -14 v 14 h 14 z" fill="url(#gradient_ds_tl)" style="fill:url(#gradient_ds_tl)"/>
  </g><rect x="4.5" y="4.5" width="55" height="55" fill="url(#linearGradient1053-6)" image-rendering="optimizeSpeed" stroke-linecap="round" stroke-width="2.7444" id="bg" rx="10"/>
  <g id="art"><g transform="translate(-52.35,1.0437)" filter="url(#filter936)" opacity=".15" stroke-width="1.3043">
    <path d="m98.698 21.565-7.8261-6.5217v33.913l7.8261-6.5217z"/>
    <path d="m70.002 21.565 7.8261-6.5217v33.913l-7.8261-6.5217z"/>
    <path d="m77.828 15.043c-1.5887 4.5443-1.2874 9.1957 0 13.912l13.043 20.001c0.83609-4.5639 1.7987-9.1265 0-13.69z"/>
    <path d="m90.872 35.266v13.69l5.8696-4.8913z"/>
    <path d="m77.828 15.043-5.88 4.8991 5.88 9.013z"/>
  </g><g transform="translate(-52.35)" stroke-width="1.3043">
    <path d="m98.698 21.565-7.8261-6.5217v33.913l7.8261-6.5217z" fill="url(#linearGradient902)"/>
    <path d="m70.002 21.565 7.8261-6.5217v33.913l-7.8261-6.5217z" fill="url(#linearGradient886)"/>
    <path d="m77.828 15.043c-1.5887 4.5443-1.2874 9.1957 0 13.912l13.043 20.001c0.83609-4.5639 1.7987-9.1265 0-13.69z" fill="url(#linearGradient894)"/>
    <path d="m90.872 35.266v13.69l5.8696-4.8913z" fill="#569e41"/>
    <path d="m77.828 15.043-5.88 4.8991 5.88 9.013z" fill="#5db54e"/>
  </g></g>
  
</svg>
