<?xml version="1.0" encoding="UTF-8" standalone="no"?>
<svg xmlns:dc="http://purl.org/dc/elements/1.1/" xmlns:cc="http://creativecommons.org/ns#" xmlns:rdf="http://www.w3.org/1999/02/22-rdf-syntax-ns#" xmlns:svg="http://www.w3.org/2000/svg" xmlns="http://www.w3.org/2000/svg" xmlns:sodipodi="http://sodipodi.sourceforge.net/DTD/sodipodi-0.dtd" xmlns:inkscape="http://www.inkscape.org/namespaces/inkscape" id="Calculator" width="64" height="64" enable-background="new 0 0 1024 1024" image-rendering="optimizeSpeed" version="1.1" viewBox="0 0 64 64" sodipodi:docname="pycharm.svg" inkscape:version="1.0.2 (e86c870879, 2021-01-15)">
  <metadata id="metadata48">
    <rdf:RDF>
      <cc:Work rdf:about="">
        <dc:format>image/svg+xml</dc:format>
        <dc:type rdf:resource="http://purl.org/dc/dcmitype/StillImage"/>
        <dc:title/>
      </cc:Work>
    </rdf:RDF>
  </metadata>
  <defs id="defs15">
    <filter id="h" x="-.06" y="-.06" width="1.12" height="1.12" color-interpolation-filters="sRGB">
      <feGaussianBlur stdDeviation="0.85" id="feGaussianBlur2"/>
    </filter>
    <linearGradient id="g" x1="32" x2="32" y1="15" y2="49" gradientUnits="userSpaceOnUse">
      <stop stop-color="#303030" offset="0" id="stop5"/>
      <stop stop-color="#424242" offset="1" id="stop7"/>
    </linearGradient>
    <linearGradient id="linearGradient862-3" x1="7.9373" x2="7.9373" y1="15.081" y2="1.852" gradientTransform="matrix(3.7795,0,0,3.7795,17.112543,-38.664059)" gradientUnits="userSpaceOnUse">
      <stop stop-color="#3aa315" offset="0" id="stop10"/>
      <stop stop-color="#aeeb51" offset="1" id="stop12"/>
    </linearGradient>
    <filter id="filter2761" x="-.024" y="-.024" width="1.048" height="1.048" color-interpolation-filters="sRGB">
      <feGaussianBlur stdDeviation="0.14552168" id="feGaussianBlur2-3"/>
    </filter>
    <linearGradient id="linearGradient1024-6" x1="1.3315" x2="15.65" y1="15.576" y2="1.17" gradientUnits="userSpaceOnUse" gradientTransform="translate(-0.45673332,-0.88986665)">
      <stop stop-color="#00dc96" offset="0" id="stop5-6"/>
      <stop stop-color="#14d29b" offset="1" id="stop7-7"/>
    </linearGradient>
    <linearGradient id="e" x1="32" x2="32" y1="16" y2="48" gradientUnits="userSpaceOnUse" gradientTransform="matrix(0.26457812,0,0,0.26457812,-24.136148,-0.3956959)">
      <stop stop-color="#fff" offset="0" id="stop2"/>
      <stop stop-color="#c3ffd8" offset="1" id="stop4" style="stop-color:#bffde9;stop-opacity:1"/>
    </linearGradient>
    <linearGradient id="linearGradient862-3-5" x1="7.9373" x2="7.9373" y1="15.081" y2="1.852" gradientTransform="matrix(3.7796,0,0,3.7796,56.030222,-13.081487)" gradientUnits="userSpaceOnUse">
      <stop stop-color="#31d044" offset="0" id="stop7-3"/>
      <stop stop-color="#47f382" offset="1" id="stop9"/>
    </linearGradient>
    
    
    
    <filter id="filter2761-6" x="-.024" y="-.024" width="1.048" height="1.048" color-interpolation-filters="sRGB">
      <feGaussianBlur stdDeviation="0.14552168" id="feGaussianBlur10"/>
    </filter>
    <linearGradient id="linearGradient1024-6-7" x1="1.3315" x2="15.65" y1="15.576" y2="1.17" gradientTransform="matrix(3.7796,0,0,3.7796,1.2128898,-6.4191942)" gradientUnits="userSpaceOnUse">
      <stop stop-color="#00dc96" offset="0" id="stop13"/>
      <stop stop-color="#14d29b" offset="1" id="stop15"/>
    </linearGradient>
    
    
    
    
    <filter id="filter1057" x="-.027" y="-.027" width="1.054" height="1.054" color-interpolation-filters="sRGB">
      <feGaussianBlur stdDeviation="0.61875" id="feGaussianBlur911"/>
    </filter>
    <linearGradient id="linearGradient1053" x1="-127" x2="-72" y1="60" y2="5" gradientTransform="translate(131.5,-0.51000027)" gradientUnits="userSpaceOnUse">
      <stop stop-color="#02db96" offset="0" id="stop914"/>
      <stop stop-color="#13d39b" offset="1" id="stop916"/>
    </linearGradient>
    
    
    
  <radialGradient xmlns="http://www.w3.org/2000/svg" id="gradient_ds_br" cx="0" cy="0" r="1" gradientUnits="userSpaceOnUse" gradientTransform="matrix(13.998399,0.00477622,-0.00477841,14.004799,47.5016,48.4952)">
      <stop offset="0.65" id="stop1"/>
      <stop offset="1" stop-opacity="0" id="stop2"/>
    </radialGradient><linearGradient xmlns="http://www.w3.org/2000/svg" id="gradient_ds_b" x1="30.448999" y1="48.5" x2="30.492201" y2="62.500301" gradientUnits="userSpaceOnUse">
      <stop offset="0.653846" id="stop3"/>
      <stop offset="1" stop-opacity="0" id="stop4"/>
    </linearGradient><radialGradient xmlns="http://www.w3.org/2000/svg" id="gradient_ds_bl" cx="0" cy="0" r="1" gradientUnits="userSpaceOnUse" gradientTransform="matrix(0,14,-14,0,16.5,48.5)">
      <stop offset="0.65" id="stop5"/>
      <stop offset="1" stop-opacity="0" id="stop6"/>
    </radialGradient><linearGradient xmlns="http://www.w3.org/2000/svg" id="gradient_ds_r" x1="47.5" y1="33.5" x2="61.5" y2="33.5009" gradientUnits="userSpaceOnUse">
      <stop offset="0.649038" id="stop7"/>
      <stop offset="1" stop-opacity="0" id="stop8"/>
    </linearGradient><linearGradient xmlns="http://www.w3.org/2000/svg" id="gradient_ds_l" x1="16.5" y1="33.894699" x2="2.5" y2="33.894699" gradientUnits="userSpaceOnUse">
      <stop offset="0.649038" id="stop9"/>
      <stop offset="1" stop-opacity="0" id="stop10"/>
    </linearGradient><radialGradient xmlns="http://www.w3.org/2000/svg" id="gradient_ds_tr" cx="0" cy="0" r="1" gradientTransform="matrix(0.00843236,-14,14.0084,0.0189842,47.4916,18.5)" gradientUnits="userSpaceOnUse">
      <stop offset="0.65" id="stop11"/>
      <stop offset="1" stop-opacity="0" id="stop12"/>
    </radialGradient><linearGradient xmlns="http://www.w3.org/2000/svg" id="gradient_ds_t" x1="29.98" y1="18.5" x2="29.9158" y2="4.4998598" gradientUnits="userSpaceOnUse">
      <stop offset="0.649038" id="stop13"/>
      <stop offset="1" stop-opacity="0" id="stop14"/>
    </linearGradient><radialGradient xmlns="http://www.w3.org/2000/svg" id="gradient_ds_tl" cx="0" cy="0" r="1" gradientTransform="matrix(-0.00843236,-14,-14.0084,0.0189842,16.5084,18.5)" gradientUnits="userSpaceOnUse">
      <stop offset="0.65" id="stop15"/>
      <stop offset="1" stop-opacity="0" id="stop16"/>
    </radialGradient></defs>
  
  <g xmlns="http://www.w3.org/2000/svg" id="ds" opacity="0.25">
    <path id="ds-br" d="m 47.5,48.5 h 14 v 14 h -14 z" fill="url(#gradient_ds_br)" style="fill:url(#gradient_ds_br)"/>
    <path id="ds-b" d="m 16.5,48.5 h 31 v 14 h -31 z" fill="url(#gradient_ds_b)" style="fill:url(#gradient_ds_b)"/>
    <path id="ds-bl" d="m 2.5,48.5 h 14 v 14 h -14 z" fill="url(#gradient_ds_bl)" style="fill:url(#gradient_ds_bl)"/>
    <path id="ds-r" d="m 47.5,18.5 h 14 v 30 h -14 z" fill="url(#gradient_ds_r)" style="fill:url(#gradient_ds_r)"/>
    <path id="ds-l" d="m 2.5,18.5 h 14 v 30 h -14 z" fill="url(#gradient_ds_l)" style="fill:url(#gradient_ds_l)"/>
    <path id="ds-tr" d="m 47.5,4.5 h 14 v 14 h -14 z" fill="url(#gradient_ds_tr)" style="fill:url(#gradient_ds_tr)"/>
    <path id="ds-t" d="m 16.5,4.5 h 31 v 14 h -31 z" fill="url(#gradient_ds_t)" style="fill:url(#gradient_ds_t)"/>
    <path id="ds-tl" d="m 16.5,4.5 h -14 v 14 h 14 z" fill="url(#gradient_ds_tl)" style="fill:url(#gradient_ds_tl)"/>
  </g><rect x="4.5" y="4.5" width="55" height="55" fill="url(#linearGradient1053)" stroke-linecap="round" stroke-width="2.7444" id="bg" style="fill:url(#linearGradient1053)" rx="10"/>
  <g id="art"><rect x="15" y="15" width="34" height="34" ry="5" fill="#303030" fill-rule="evenodd" filter="url(#h)" opacity=".5" style="paint-order:stroke fill markers" id="rect33"/><rect x="15" y="15" width="34" height="34" ry="5" fill="url(#g)" fill-rule="evenodd" style="paint-order:stroke fill markers" id="rect35"/><g transform="matrix(1.2989 0 0 1.2989 .33 .522)" stroke-width="15.683" id="g43">
    <g fill="#f9f9f9" id="g41">
      <path d="m14 14h4.3255c2.588 0 3.6745 1.2731 3.6745 3.5v0.05c0 2.4676-1.5926 3.45-4 3.45h-2v4h-2zm4 5c1.2037 0 2-0.54722 2-1.45v-0.05c0-1.0833-0.7963-1.5-2-1.5h-2v3zm6 0.44044c0-3.0694 1.6898-5.4404 5-5.4404 2.0463 0 3.1267 0.59514 4.1498 1.6183l-1.3069 1.5656c-0.84259-0.78241-1.7596-1.1839-2.8429-1.1839-1.8056 0-3 1.5747-3 3.4404v-0.06019c0 1.8657 1.1343 3.6197 3 3.6197 1.2037 0 2.1574-0.62299 3-1.4054l1.3718 1.3968c-1.0833 1.2037-2.3255 2.0086-4.3718 2.0086-3.1898 0.06019-5-2.4901-5-5.5596" id="path37"/>
      <path d="m13 32h10v2h-10z" id="path39"/>
    </g>
  </g></g>
  
  
</svg>
