<?xml version="1.0" encoding="UTF-8" standalone="no"?>
<svg xmlns:inkscape="http://www.inkscape.org/namespaces/inkscape" xmlns:sodipodi="http://sodipodi.sourceforge.net/DTD/sodipodi-0.dtd" xmlns="http://www.w3.org/2000/svg" xmlns:svg="http://www.w3.org/2000/svg" width="64" height="64" version="1" id="svg3" sodipodi:docname="xampp.svg" inkscape:version="1.3 (0e150ed6c4, 2023-07-21)">
  <defs id="defs2">
    <linearGradient id="a" x1="7.937" x2="7.937" y1="15.081" y2="1.852" gradientTransform="matrix(3.7796,0,0,3.7796,82.176297,0)" gradientUnits="userSpaceOnUse">
      <stop offset="0" stop-color="#f54800" id="stop1"/>
      <stop offset="1" stop-color="#ffb200" id="stop2"/>
    </linearGradient>
    <filter id="b" width="1.294" height="1.294" x="-0.14699999" y="-0.147" color-interpolation-filters="sRGB">
      <feGaussianBlur stdDeviation="2.45" id="feGaussianBlur2"/>
    </filter>
    <filter id="filter1057-1" x="-0.026999999" y="-0.026999999" width="1.054" height="1.054" color-interpolation-filters="sRGB">
      <feGaussianBlur stdDeviation="0.61875" id="feGaussianBlur1"/>
    </filter>
    <linearGradient id="linearGradient1053-2" x1="-127" x2="-80.658997" y1="60" y2="13.659" gradientTransform="matrix(1.0000071,0,0,1.0000071,131.50195,-0.51009605)" gradientUnits="userSpaceOnUse">
      <stop stop-color="#ff7d1e" offset="0" id="stop1-3"/>
      <stop stop-color="#ffa53c" offset="1" id="stop2-6"/>
    </linearGradient>
    <filter id="filter1346" x="-0.083570148" y="-0.084433981" width="1.1671403" height="1.168868" color-interpolation-filters="sRGB">
      <feGaussianBlur stdDeviation="0.3616237" id="feGaussianBlur2-7"/>
    </filter>
    <linearGradient id="linearGradient963-6" x1="-6.1472001" x2="-6.1472001" y1="-137.82001" y2="-100.78" gradientTransform="matrix(0.28230603,0,0,0.28230603,21.831131,67.627813)" gradientUnits="userSpaceOnUse">
      <stop stop-color="#ffbe14" offset="0" id="stop3"/>
      <stop stop-color="#ff8214" offset="1" id="stop4"/>
    </linearGradient>
    <linearGradient id="linearGradient32549-7" x1="-6.1472001" x2="-6.1472001" y1="-137.82001" y2="-100.78" gradientTransform="matrix(0.28230603,0,0,0.28230603,34.037356,53.163276)" gradientUnits="userSpaceOnUse">
      <stop stop-color="#32b4ff" offset="0" id="stop5"/>
      <stop stop-color="#3287ff" offset="1" id="stop6"/>
    </linearGradient>
    <linearGradient id="linearGradient957-3" x1="-6.1472001" x2="-6.1472001" y1="-137.82001" y2="-100.78" gradientTransform="matrix(0.049219,0,0,0.049219,8.0465,14.726)" gradientUnits="userSpaceOnUse">
      <stop stop-color="#14dc78" offset="0" id="stop7"/>
      <stop stop-color="#14a03c" offset="1" id="stop8"/>
    </linearGradient>
    <linearGradient id="linearGradient961-5" x1="-6.1472001" x2="-6.1472001" y1="-137.82001" y2="-100.78" gradientTransform="matrix(0.049219,0,0,0.049219,13.208,14.633)" gradientUnits="userSpaceOnUse">
      <stop stop-color="#dc28e6" offset="0" id="stop9"/>
      <stop stop-color="#8c14e6" offset="1" id="stop10"/>
    </linearGradient>
    <linearGradient id="linearGradient1342" x1="-6.1472001" x2="-6.1472001" y1="-137.82001" y2="-100.78" gradientTransform="matrix(0.049219,0,0,0.049219,8.4523,19.597)" gradientUnits="userSpaceOnUse">
      <stop stop-color="#ff3c69" offset="0" id="stop11"/>
      <stop stop-color="#ff462b" offset="1" id="stop12"/>
    </linearGradient>
  <radialGradient id="gradient_ds_br" cx="0" cy="0" r="1" gradientUnits="userSpaceOnUse" gradientTransform="matrix(13.998399,0.00477622,-0.00477841,14.004799,47.5016,48.4952)">
      <stop offset="0.65" id="stop1"/>
      <stop offset="1" stop-opacity="0" id="stop2"/>
    </radialGradient><linearGradient id="gradient_ds_b" x1="30.448999" y1="48.5" x2="30.492201" y2="62.500301" gradientUnits="userSpaceOnUse">
      <stop offset="0.653846" id="stop3"/>
      <stop offset="1" stop-opacity="0" id="stop4"/>
    </linearGradient><radialGradient id="gradient_ds_bl" cx="0" cy="0" r="1" gradientUnits="userSpaceOnUse" gradientTransform="matrix(0,14,-14,0,16.5,48.5)">
      <stop offset="0.65" id="stop5"/>
      <stop offset="1" stop-opacity="0" id="stop6"/>
    </radialGradient><linearGradient id="gradient_ds_r" x1="47.5" y1="33.5" x2="61.5" y2="33.5009" gradientUnits="userSpaceOnUse">
      <stop offset="0.649038" id="stop7"/>
      <stop offset="1" stop-opacity="0" id="stop8"/>
    </linearGradient><linearGradient id="gradient_ds_l" x1="16.5" y1="33.894699" x2="2.5" y2="33.894699" gradientUnits="userSpaceOnUse">
      <stop offset="0.649038" id="stop9"/>
      <stop offset="1" stop-opacity="0" id="stop10"/>
    </linearGradient><radialGradient id="gradient_ds_tr" cx="0" cy="0" r="1" gradientTransform="matrix(0.00843236,-14,14.0084,0.0189842,47.4916,18.5)" gradientUnits="userSpaceOnUse">
      <stop offset="0.65" id="stop11"/>
      <stop offset="1" stop-opacity="0" id="stop12"/>
    </radialGradient><linearGradient id="gradient_ds_t" x1="29.98" y1="18.5" x2="29.9158" y2="4.4998598" gradientUnits="userSpaceOnUse">
      <stop offset="0.649038" id="stop13"/>
      <stop offset="1" stop-opacity="0" id="stop14"/>
    </linearGradient><radialGradient id="gradient_ds_tl" cx="0" cy="0" r="1" gradientTransform="matrix(-0.00843236,-14,-14.0084,0.0189842,16.5084,18.5)" gradientUnits="userSpaceOnUse">
      <stop offset="0.65" id="stop15"/>
      <stop offset="1" stop-opacity="0" id="stop16"/>
    </radialGradient></defs>
  
  <g id="ds" opacity="0.25">
    <path id="ds-br" d="m 47.5,48.5 h 14 v 14 h -14 z" fill="url(#gradient_ds_br)" style="fill:url(#gradient_ds_br)"/>
    <path id="ds-b" d="m 16.5,48.5 h 31 v 14 h -31 z" fill="url(#gradient_ds_b)" style="fill:url(#gradient_ds_b)"/>
    <path id="ds-bl" d="m 2.5,48.5 h 14 v 14 h -14 z" fill="url(#gradient_ds_bl)" style="fill:url(#gradient_ds_bl)"/>
    <path id="ds-r" d="m 47.5,18.5 h 14 v 30 h -14 z" fill="url(#gradient_ds_r)" style="fill:url(#gradient_ds_r)"/>
    <path id="ds-l" d="m 2.5,18.5 h 14 v 30 h -14 z" fill="url(#gradient_ds_l)" style="fill:url(#gradient_ds_l)"/>
    <path id="ds-tr" d="m 47.5,4.5 h 14 v 14 h -14 z" fill="url(#gradient_ds_tr)" style="fill:url(#gradient_ds_tr)"/>
    <path id="ds-t" d="m 16.5,4.5 h 31 v 14 h -31 z" fill="url(#gradient_ds_t)" style="fill:url(#gradient_ds_t)"/>
    <path id="ds-tl" d="m 16.5,4.5 h -14 v 14 h 14 z" fill="url(#gradient_ds_tl)" style="fill:url(#gradient_ds_tl)"/>
  </g><rect x="4.5" y="4.5" width="55" height="55" fill="url(#linearGradient1053-2)" stroke-linecap="round" stroke-width="2.74441" id="bg" style="fill:url(#linearGradient1053-2)" rx="10"/>
  <g id="art"><path d="m 23,16.571429 c -4.970572,-0.0026 -9,4.029429 -9,9 0.0013,2.166428 0.789429,4.258285 2.212714,5.891143 -1.424571,1.753714 -2.211428,3.998571 -2.212714,6.323142 -0.0013,5.325428 4.029428,9.645428 9,9.642857 4.066714,-0.0026 7.943142,-2.221714 8.999999,-6.428571 1.095429,4.209428 4.465286,6.427285 8.678571,6.428571 5.142857,0.0013 9.324,-4.317429 9.321429,-9.642857 -0.0013,-2.089286 -0.660858,-4.119428 -1.875857,-5.788285 C 49.337856,30.329857 49.998713,28.301 49.999999,26.214286 50.00257,20.888858 45.82657,16.570144 40.67857,16.571429 36.547571,16.572729 33.168714,18.901143 31.999999,23 31.035714,18.950001 27.163142,16.574001 23,16.571429 Z M 23.642857,23 c 1.775571,0 3.214285,1.438715 3.214285,3.214286 v 3.214286 h -3.214285 c -1.775572,0 -3.214286,-1.438715 -3.214286,-3.214286 C 20.428571,24.438715 21.867285,23 23.642857,23 Z m 17.319856,0 c 1.449,-0.02186 2.617714,1.122429 2.608714,2.571429 -0.01157,1.8 -0.18,3.314571 -0.735428,4.683857 -0.275143,0.676286 -0.671143,1.305 -1.148143,1.848857 1.086429,0.300857 1.883571,1.284428 1.883571,2.468571 v 3.857143 c 0,1.424571 -1.146857,2.571428 -2.571428,2.571428 -1.424571,0 -2.571429,-1.146857 -2.571429,-2.571428 v -3.857143 c 0,-0.167143 0.02057,-0.329143 0.05014,-0.487285 -1.976142,0.604285 -4.058999,0.487285 -6.479999,0.487285 -5.142857,0 -6.441429,0 -6.428572,3.819857 0.01671,3.477857 -5.155714,3.477857 -5.142856,0 0.01928,-5.531142 2.571428,-8.962714 7.714285,-8.962714 h 3.857143 c 6.428571,0 6.441428,0 6.428571,-3.857142 -0.0026,-1.419429 1.114714,-2.550857 2.534143,-2.571429 z" style="fill:#f9f9f9;fill-opacity:1;stroke:none;stroke-width:1.28571" id="path13"/></g>
</svg>
